<svg xmlns="http://www.w3.org/2000/svg" xmlns:xlink="http://www.w3.org/1999/xlink" width="500" zoomAndPan="magnify" viewBox="0 0 375 374.999991" height="500" preserveAspectRatio="xMidYMid meet" version="1.0"><defs><clipPath id="63809a7ba7"><path d="M 37.910156 100.703125 L 316 100.703125 L 316 305.863281 L 37.910156 305.863281 Z M 37.910156 100.703125 " clip-rule="nonzero"/></clipPath></defs><g clip-path="url(#63809a7ba7)"><path fill="#aa6535" d="M 59.914062 176.628906 C 55.457031 179.460938 51.707031 183.304688 49.113281 188.445312 C 45.871094 194.871094 45.042969 202.371094 44.609375 209.675781 C 43.6875 225.1875 46.621094 237.546875 48.722656 252.917969 C 50.675781 267.171875 57.433594 284.453125 70.726562 284.390625 C 73.386719 284.378906 76.125 283.523438 78.0625 281.550781 C 83.375 276.125 79.992188 266.398438 75.429688 260.226562 C 70.863281 254.054688 69.488281 249.363281 70.765625 241.574219 C 71.96875 234.222656 72.730469 230.996094 79.617188 231.316406 C 83.441406 231.496094 87.074219 232.765625 90.566406 234.511719 C 93.359375 235.914062 96.058594 237.613281 98.691406 239.316406 C 101.148438 240.902344 103.625 242.503906 106.117188 244.109375 C 136.5625 263.714844 169.726562 283.695312 203.875 275.859375 C 201.074219 285.390625 204.765625 296.707031 212.472656 302.210938 C 220.179688 307.710938 231.230469 306.917969 238.203125 300.363281 C 236.855469 294.042969 231.992188 289.464844 228.390625 284.28125 C 224.792969 279.097656 222.503906 271.363281 226.394531 266.4375 C 229.027344 267.136719 231.664062 267.417969 234.277344 267.332031 C 234.378906 267.328125 234.480469 267.324219 234.582031 267.316406 C 234.882812 267.308594 235.179688 267.289062 235.476562 267.265625 C 243.871094 266.632812 251.933594 262.257812 258.445312 255.773438 C 263.769531 250.472656 268.054688 243.765625 270.636719 236.554688 C 275.59375 222.683594 275.753906 207.621094 274.183594 192.6875 C 275.554688 191.191406 276.921875 189.730469 278.304688 188.351562 C 283.769531 182.882812 286.707031 182.539062 288.300781 174.363281 C 299.34375 175.371094 315.914062 176.601562 315.914062 176.601562 C 315.914062 176.601562 298.496094 159.179688 293.109375 144.140625 C 293.109375 144.140625 288.984375 129.148438 280.058594 131.378906 C 274.558594 124.335938 267.007812 118.992188 258.296875 116.28125 C 253.988281 114.738281 249.398438 113.90625 244.632812 113.90625 C 234.589844 113.90625 225.316406 117.605469 217.855469 123.84375 C 214.988281 126.125 212.410156 128.75 210.1875 131.671875 C 201.355469 129.730469 197.328125 144.480469 197.328125 144.480469 C 191.941406 159.472656 174.523438 176.894531 174.523438 176.894531 C 174.523438 176.894531 190.03125 175.742188 201.046875 174.757812 C 201.785156 175.78125 202.421875 176.664062 202.988281 177.453125 C 197.320312 183.886719 188.445312 186.960938 180.050781 186.964844 C 169.671875 186.964844 159.667969 183.167969 149.695312 180.058594 C 132.730469 174.769531 115.265625 171.371094 97.664062 169.933594 C 89.597656 169.273438 80.824219 169.453125 72.796875 171.371094 C 62.976562 158.886719 57.683594 142.871094 58.300781 126.988281 C 58.648438 118.085938 60.753906 109.359375 62.851562 100.699219 C 51.082031 104.429688 41.625 114.703125 38.878906 126.738281 C 38.066406 130.289062 37.804688 133.953125 37.949219 137.589844 C 38.558594 153.085938 47.203125 167.859375 59.914062 176.628906 " fill-opacity="1" fill-rule="nonzero"/></g><path fill="#b8793c" d="M 216.15625 149.488281 C 215.644531 147.574219 217.648438 145.382812 220.632812 144.59375 C 223.613281 143.796875 226.460938 144.730469 226.972656 146.644531 C 227.484375 148.554688 225.480469 150.746094 222.496094 151.539062 C 219.511719 152.332031 216.667969 151.402344 216.15625 149.488281 Z M 266.324219 151.539062 C 263.339844 150.746094 261.335938 148.554688 261.851562 146.644531 C 262.363281 144.730469 265.203125 143.796875 268.191406 144.59375 C 271.171875 145.382812 273.179688 147.574219 272.667969 149.488281 C 272.152344 151.402344 269.308594 152.332031 266.324219 151.539062 Z M 278.496094 187.90625 C 271.640625 195.085938 261.011719 200.125 251.21875 177.929688 L 257.277344 209.402344 C 257.277344 209.402344 257.277344 224.695312 244.597656 224.695312 C 231.914062 224.695312 231.914062 209.402344 231.914062 209.402344 L 237.976562 177.929688 C 228.1875 200.125 217.554688 195.132812 210.699219 187.90625 C 212.984375 191.730469 215.691406 194.992188 218.90625 197.1875 L 220.632812 213.410156 C 220.632812 226.605469 231.402344 237.375 244.597656 237.375 C 257.792969 237.375 268.5625 226.605469 268.5625 213.410156 L 270.285156 197.1875 C 273.457031 194.945312 276.210938 191.730469 278.496094 187.90625 " fill-opacity="1" fill-rule="nonzero"/><path fill="#6d4111" d="M 205.199219 132.050781 C 204.3125 132.003906 191.070312 130 182.679688 153.964844 C 182.679688 153.964844 181.234375 165.527344 166.21875 174.757812 C 166.21875 174.757812 158.996094 184.550781 170.835938 196.671875 C 170.835938 196.671875 178.621094 201.007812 176.617188 220.355469 C 176.617188 220.355469 172 244.882812 188.460938 247.773438 C 204.917969 250.664062 231.773438 223.25 205.199219 182.824219 C 205.199219 182.824219 199.417969 177.089844 202.585938 159.464844 C 205.804688 141.839844 207.296875 132.050781 205.199219 132.050781 Z M 283.996094 132.050781 C 284.878906 132.003906 298.121094 130 306.515625 153.964844 C 306.515625 153.964844 307.960938 165.527344 322.972656 174.757812 C 322.972656 174.757812 330.199219 184.550781 318.359375 196.671875 C 318.359375 196.671875 310.570312 201.007812 312.574219 220.355469 C 312.574219 220.355469 317.191406 244.882812 300.734375 247.773438 C 284.273438 250.664062 257.417969 223.25 283.996094 182.824219 C 283.996094 182.824219 289.777344 177.089844 286.605469 159.464844 C 283.390625 141.839844 281.898438 132.050781 283.996094 132.050781 Z M 260.871094 275.363281 C 263.578125 279.003906 268.140625 281.84375 268.757812 286.203125 C 269.292969 289.976562 266.359375 293.675781 262.542969 295.222656 C 258.722656 296.773438 254.261719 296.488281 250.265625 295.359375 C 243.765625 293.523438 237.8125 289.175781 235.894531 283.234375 C 234.992188 280.453125 235.011719 277.5 235.105469 274.597656 C 235.183594 272.15625 235.316406 269.710938 235.476562 267.265625 C 243.871094 266.632812 251.933594 262.257812 258.445312 255.773438 C 258.882812 262.929688 258.085938 271.617188 260.871094 275.363281 Z M 98.691406 239.316406 C 96.058594 237.613281 93.359375 235.914062 90.5625 234.511719 C 89.035156 239.148438 87.851562 243.863281 87.601562 248.722656 C 87.199219 256.550781 89.539062 264.9375 95.75 270.625 C 97.128906 271.882812 98.691406 273.003906 100.46875 273.714844 C 106.722656 276.207031 114.378906 272.601562 116.714844 266.957031 C 119.050781 261.3125 116.773438 254.546875 112.25 249.867188 C 110.316406 247.863281 107.984375 246.132812 106.117188 244.109375 C 103.625 242.503906 101.148438 240.902344 98.691406 239.316406 " fill-opacity="1" fill-rule="nonzero"/><path fill="#000000" d="M 69.578125 282.507812 C 69.511719 281.144531 69.625 279.285156 69.085938 277.433594 C 68.5625 275.558594 67.539062 274.058594 66.691406 273.078125 C 65.835938 272.097656 65.179688 271.574219 65.273438 271.414062 C 65.351562 271.277344 66.207031 271.539062 67.3125 272.445312 C 68.398438 273.339844 69.691406 274.953125 70.289062 277.089844 C 70.597656 278.152344 70.679688 279.214844 70.660156 280.132812 C 70.644531 281.0625 70.550781 281.871094 70.464844 282.546875 C 70.289062 283.898438 70.09375 284.726562 69.921875 284.71875 C 69.75 284.710938 69.628906 283.867188 69.578125 282.507812 Z M 78.433594 279.34375 C 78.347656 278.988281 78.261719 278.601562 78.136719 278.199219 C 78.03125 277.789062 77.875 277.363281 77.726562 276.914062 C 77.394531 276.023438 76.976562 275.070312 76.449219 274.113281 C 75.910156 273.164062 75.3125 272.308594 74.726562 271.5625 C 74.421875 271.199219 74.140625 270.84375 73.84375 270.539062 C 73.566406 270.222656 73.28125 269.945312 73.023438 269.691406 C 71.984375 268.683594 71.253906 268.117188 71.347656 267.953125 C 71.425781 267.820312 72.335938 268.117188 73.589844 269.011719 C 73.902344 269.238281 74.238281 269.492188 74.574219 269.796875 C 74.921875 270.085938 75.25 270.441406 75.601562 270.8125 C 76.285156 271.570312 76.957031 272.472656 77.542969 273.5 C 78.113281 274.53125 78.53125 275.582031 78.824219 276.554688 C 78.953125 277.050781 79.082031 277.519531 79.148438 277.964844 C 79.238281 278.410156 79.277344 278.832031 79.308594 279.214844 C 79.410156 280.75 79.191406 281.683594 79.039062 281.679688 C 78.847656 281.675781 78.75 280.753906 78.433594 279.34375 Z M 223.550781 303.632812 C 223.472656 303.082031 223.34375 302.433594 223.160156 301.726562 C 222.964844 301.027344 222.710938 300.269531 222.375 299.5 C 222.03125 298.738281 221.636719 298.042969 221.246094 297.425781 C 220.84375 296.820312 220.449219 296.289062 220.089844 295.863281 C 219.378906 295.003906 218.871094 294.492188 218.976562 294.339844 C 219.066406 294.207031 219.777344 294.46875 220.714844 295.234375 C 221.183594 295.609375 221.691406 296.128906 222.183594 296.757812 C 222.667969 297.394531 223.136719 298.148438 223.519531 298.992188 C 223.894531 299.839844 224.136719 300.691406 224.289062 301.476562 C 224.421875 302.265625 224.46875 302.988281 224.433594 303.589844 C 224.375 304.796875 224.09375 305.503906 223.9375 305.480469 C 223.75 305.457031 223.714844 304.738281 223.550781 303.632812 Z M 231.558594 298.128906 C 230.320312 294.496094 228.167969 292.109375 228.441406 291.851562 C 228.554688 291.738281 229.253906 292.191406 230.144531 293.195312 C 230.59375 293.695312 231.0625 294.339844 231.523438 295.101562 C 231.96875 295.867188 232.398438 296.75 232.742188 297.71875 C 233.074219 298.6875 233.292969 299.648438 233.417969 300.523438 C 233.535156 301.40625 233.570312 302.203125 233.53125 302.871094 C 233.457031 304.210938 233.191406 305.003906 233.035156 304.984375 C 232.660156 304.953125 232.859375 301.746094 231.558594 298.128906 Z M 259.113281 294.390625 C 259.070312 294.066406 259.023438 293.714844 258.9375 293.339844 C 258.875 292.964844 258.75 292.574219 258.640625 292.160156 C 258.378906 291.347656 258.03125 290.476562 257.5625 289.609375 C 257.078125 288.753906 256.523438 287.992188 255.972656 287.339844 C 255.679688 287.027344 255.414062 286.714844 255.128906 286.464844 C 254.859375 286.191406 254.585938 285.964844 254.335938 285.753906 C 253.324219 284.925781 252.589844 284.507812 252.664062 284.332031 C 252.710938 284.1875 253.597656 284.320312 254.835938 285.027344 C 255.144531 285.203125 255.476562 285.410156 255.804688 285.675781 C 256.148438 285.917969 256.46875 286.230469 256.8125 286.554688 C 257.472656 287.226562 258.121094 288.050781 258.65625 289.003906 C 259.179688 289.964844 259.535156 290.949219 259.753906 291.867188 C 259.847656 292.332031 259.941406 292.765625 259.964844 293.191406 C 260.015625 293.605469 260.011719 293.996094 260 294.351562 C 259.941406 295.777344 259.582031 296.597656 259.4375 296.566406 C 259.246094 296.53125 259.28125 295.6875 259.113281 294.390625 Z M 266.449219 291.355469 C 266.40625 291.058594 266.367188 290.730469 266.289062 290.390625 C 266.230469 290.042969 266.125 289.679688 266.03125 289.300781 C 265.808594 288.546875 265.511719 287.734375 265.113281 286.917969 C 264.703125 286.109375 264.234375 285.386719 263.761719 284.753906 C 263.515625 284.453125 263.292969 284.148438 263.046875 283.898438 C 262.820312 283.625 262.585938 283.394531 262.371094 283.183594 C 261.511719 282.34375 260.886719 281.878906 260.976562 281.710938 C 261.042969 281.570312 261.84375 281.765625 262.933594 282.5 C 263.203125 282.683594 263.492188 282.894531 263.777344 283.15625 C 264.078125 283.402344 264.355469 283.703125 264.652344 284.019531 C 265.226562 284.675781 265.78125 285.464844 266.234375 286.359375 C 266.675781 287.261719 266.972656 288.179688 267.152344 289.03125 C 267.226562 289.457031 267.300781 289.863281 267.316406 290.253906 C 267.355469 290.636719 267.347656 290.992188 267.332031 291.320312 C 267.261719 292.632812 266.9375 293.386719 266.785156 293.359375 C 266.597656 293.328125 266.605469 292.550781 266.449219 291.355469 Z M 213.265625 172.054688 C 213.265625 165.199219 216.996094 158.253906 221.5625 158.253906 C 226.132812 158.253906 229.863281 165.199219 229.863281 172.054688 C 229.863281 172.054688 228.089844 162.355469 221.5625 162.261719 C 215.039062 162.167969 213.730469 172.054688 213.730469 172.054688 M 258.445312 172.054688 C 258.445312 165.199219 262.175781 158.253906 266.742188 158.253906 C 271.3125 158.253906 275.042969 165.199219 275.042969 172.054688 C 275.042969 172.054688 273.273438 162.355469 266.742188 162.261719 C 260.214844 162.125 258.910156 172.054688 258.910156 172.054688 M 232.847656 229.589844 C 232.613281 229.867188 232.660156 230.289062 232.941406 230.523438 C 234.527344 231.828125 236.207031 232.433594 237.835938 232.433594 C 238.207031 232.433594 238.582031 232.386719 238.957031 232.339844 C 241.707031 231.875 243.664062 229.726562 244.597656 228.515625 C 245.53125 229.683594 247.488281 231.828125 250.238281 232.339844 C 250.613281 232.386719 250.984375 232.433594 251.355469 232.433594 C 252.992188 232.433594 254.667969 231.78125 256.253906 230.523438 C 256.53125 230.289062 256.578125 229.867188 256.347656 229.589844 C 256.113281 229.3125 255.691406 229.261719 255.414062 229.496094 C 253.734375 230.800781 252.105469 231.363281 250.425781 231.082031 C 247.628906 230.617188 245.671875 227.957031 245.203125 227.257812 L 245.203125 224.554688 C 256.488281 224.183594 257.980469 209.679688 257.980469 209.679688 C 251.03125 203.386719 244.550781 205.34375 244.550781 205.34375 C 244.550781 205.34375 238.070312 203.386719 231.121094 209.679688 C 231.121094 209.679688 232.613281 224.226562 243.898438 224.554688 L 243.898438 227.257812 C 243.429688 227.957031 241.472656 230.617188 238.675781 231.082031 C 237.042969 231.363281 235.367188 230.847656 233.6875 229.496094 C 233.453125 229.3125 233.082031 229.3125 232.847656 229.589844 " fill-opacity="1" fill-rule="nonzero"/></svg>