<svg xmlns="http://www.w3.org/2000/svg" xmlns:xlink="http://www.w3.org/1999/xlink" width="500" zoomAndPan="magnify" viewBox="0 0 375 374.999991" height="500" preserveAspectRatio="xMidYMid meet" version="1.0"><defs><clipPath id="67523a8bcd"><path d="M 88 39 L 292 39 L 292 337.808594 L 88 337.808594 Z M 88 39 " clip-rule="nonzero"/></clipPath><clipPath id="5994981fc9"><path d="M 119 265 L 260 265 L 260 337.808594 L 119 337.808594 Z M 119 265 " clip-rule="nonzero"/></clipPath></defs><g clip-path="url(#67523a8bcd)"><path fill="#f8a680" d="M 278.570312 173.800781 C 272.773438 175.988281 268.15625 176.019531 265.890625 175.839844 C 267.554688 184.910156 269.824219 194.839844 273.035156 205.890625 C 273.035156 205.890625 253.675781 221.164062 207.863281 224.472656 L 208.851562 245.730469 L 219.363281 256.246094 C 223.8125 261.066406 229.75 266.875 233.183594 270.1875 C 233.757812 270.167969 234.164062 270.21875 234.164062 270.21875 C 234.164062 270.21875 233.195312 265.515625 236.792969 265.515625 C 239.480469 265.515625 240.851562 269.371094 241.378906 271.324219 C 241.378906 271.320312 241.378906 271.320312 241.382812 271.320312 C 241.625 271.261719 241.875 271.199219 242.128906 271.140625 C 242.238281 271.109375 242.355469 271.082031 242.46875 271.058594 C 242.660156 271.011719 242.855469 270.964844 243.050781 270.921875 C 243.152344 270.898438 243.25 270.875 243.351562 270.851562 C 243.632812 270.789062 243.914062 270.726562 244.203125 270.664062 C 244.300781 270.640625 244.398438 270.621094 244.496094 270.601562 C 244.722656 270.554688 244.949219 270.507812 245.175781 270.460938 C 245.273438 270.441406 245.371094 270.421875 245.46875 270.402344 C 245.769531 270.339844 246.074219 270.28125 246.382812 270.226562 C 246.460938 270.210938 246.542969 270.195312 246.621094 270.183594 C 246.871094 270.136719 247.125 270.09375 247.378906 270.050781 C 247.46875 270.035156 247.558594 270.019531 247.652344 270.003906 C 247.96875 269.953125 248.285156 269.902344 248.601562 269.859375 C 248.660156 269.851562 248.714844 269.84375 248.769531 269.835938 C 249.042969 269.796875 249.3125 269.761719 249.582031 269.726562 C 249.671875 269.714844 249.757812 269.703125 249.847656 269.695312 C 250.167969 269.65625 250.484375 269.621094 250.796875 269.59375 C 250.820312 269.589844 250.839844 269.589844 250.859375 269.585938 C 251.15625 269.558594 251.449219 269.539062 251.738281 269.519531 C 251.820312 269.511719 251.902344 269.507812 251.980469 269.503906 C 252.269531 269.488281 252.550781 269.472656 252.832031 269.464844 C 252.851562 269.464844 252.875 269.464844 252.898438 269.464844 C 253.195312 269.457031 253.484375 269.457031 253.769531 269.460938 C 253.84375 269.460938 253.914062 269.464844 253.988281 269.464844 C 254.234375 269.46875 254.472656 269.480469 254.710938 269.496094 C 254.75 269.5 254.796875 269.5 254.835938 269.503906 C 255.105469 269.523438 255.363281 269.550781 255.617188 269.582031 C 255.675781 269.589844 255.734375 269.601562 255.792969 269.609375 C 256.003906 269.640625 256.207031 269.675781 256.402344 269.714844 C 256.449219 269.726562 256.5 269.734375 256.546875 269.746094 C 256.777344 269.796875 256.996094 269.855469 257.207031 269.921875 C 257.25 269.9375 257.292969 269.953125 257.335938 269.96875 C 257.507812 270.027344 257.671875 270.089844 257.828125 270.160156 C 257.871094 270.179688 257.917969 270.199219 257.960938 270.222656 C 258.140625 270.308594 258.3125 270.40625 258.46875 270.511719 C 258.5 270.53125 258.523438 270.550781 258.550781 270.570312 C 258.679688 270.664062 258.800781 270.761719 258.910156 270.867188 C 258.945312 270.902344 258.980469 270.933594 259.011719 270.964844 C 259.132812 271.09375 259.25 271.234375 259.34375 271.382812 C 259.355469 271.398438 259.363281 271.417969 259.375 271.4375 C 259.457031 271.574219 259.523438 271.71875 259.582031 271.871094 C 259.597656 271.917969 259.617188 271.960938 259.628906 272.007812 C 259.6875 272.1875 259.734375 272.371094 259.757812 272.570312 C 259.78125 272.796875 259.78125 273.035156 259.757812 273.292969 C 259.710938 273.800781 259.566406 274.367188 259.335938 274.984375 C 259.21875 275.292969 259.082031 275.613281 258.925781 275.941406 C 258.550781 276.734375 258.050781 277.59375 257.464844 278.492188 C 257.175781 278.9375 256.863281 279.390625 256.53125 279.855469 C 256.289062 280.1875 256.042969 280.527344 255.78125 280.867188 C 255.441406 281.316406 255.082031 281.769531 254.707031 282.230469 C 254.273438 282.765625 253.824219 283.304688 253.351562 283.851562 C 251.847656 285.59375 250.167969 287.371094 248.414062 289.105469 C 247.964844 289.546875 247.511719 289.984375 247.054688 290.421875 C 246.257812 291.179688 245.453125 291.921875 244.648438 292.644531 C 243.300781 293.851562 241.953125 295 240.648438 296.050781 C 239.378906 297.066406 238.148438 297.992188 236.996094 298.792969 C 235.84375 299.59375 234.769531 300.269531 233.808594 300.789062 C 232.210938 301.648438 230.929688 302.070312 230.152344 301.898438 C 230.070312 301.878906 229.96875 301.84375 229.863281 301.804688 C 229.832031 301.789062 229.796875 301.773438 229.761719 301.761719 C 229.679688 301.726562 229.589844 301.683594 229.496094 301.636719 C 229.453125 301.617188 229.414062 301.59375 229.367188 301.570312 C 229.261719 301.515625 229.144531 301.453125 229.023438 301.382812 C 228.992188 301.363281 228.960938 301.347656 228.925781 301.328125 C 228.765625 301.230469 228.59375 301.128906 228.414062 301.011719 C 228.378906 300.992188 228.34375 300.964844 228.3125 300.945312 C 228.15625 300.847656 228 300.742188 227.832031 300.628906 C 227.777344 300.59375 227.71875 300.554688 227.660156 300.515625 C 227.5 300.40625 227.332031 300.289062 227.160156 300.167969 C 227.109375 300.132812 227.058594 300.097656 227.007812 300.0625 C 226.546875 299.734375 226.046875 299.371094 225.511719 298.972656 C 225.472656 298.941406 225.429688 298.90625 225.386719 298.878906 C 225.15625 298.703125 224.917969 298.523438 224.675781 298.335938 C 224.621094 298.296875 224.566406 298.257812 224.515625 298.214844 C 224.242188 298.007812 223.964844 297.792969 223.683594 297.570312 C 223.671875 297.5625 223.660156 297.554688 223.648438 297.546875 C 223.019531 297.058594 222.363281 296.535156 221.675781 295.984375 C 221.644531 295.960938 221.613281 295.933594 221.578125 295.910156 C 221.261719 295.65625 220.9375 295.394531 220.609375 295.128906 C 220.585938 295.105469 220.558594 295.085938 220.535156 295.066406 C 220.019531 294.652344 219.492188 294.21875 218.957031 293.777344 C 218.796875 293.644531 218.628906 293.507812 218.46875 293.375 C 218.089844 293.0625 217.710938 292.75 217.324219 292.429688 C 217.253906 292.371094 217.1875 292.316406 217.121094 292.261719 L 217.121094 292.257812 C 210.125 286.441406 201.710938 279.078125 195.210938 273.320312 L 187.269531 278.9375 L 176.203125 266.488281 L 180.382812 283.464844 L 180.628906 284.46875 C 181.972656 291.191406 160.449219 306.261719 152.222656 311.746094 C 152.078125 312.609375 151.855469 313.242188 151.855469 313.242188 C 151.855469 313.242188 155.546875 313.332031 155.453125 316.425781 C 155.382812 318.695312 152.953125 319.597656 150.527344 319.929688 C 150.601562 320.304688 150.671875 320.691406 150.738281 321.085938 C 150.75 321.136719 150.757812 321.191406 150.765625 321.242188 C 150.835938 321.632812 150.898438 322.03125 150.960938 322.4375 C 150.960938 322.449219 150.964844 322.464844 150.96875 322.476562 C 151.03125 322.90625 151.09375 323.34375 151.148438 323.785156 C 151.152344 323.808594 151.15625 323.832031 151.15625 323.855469 C 151.207031 324.242188 151.25 324.628906 151.289062 325.015625 C 151.300781 325.113281 151.308594 325.210938 151.320312 325.3125 C 151.351562 325.644531 151.378906 325.976562 151.402344 326.308594 C 151.410156 326.40625 151.417969 326.503906 151.421875 326.597656 C 151.449219 327.019531 151.472656 327.4375 151.484375 327.851562 C 151.484375 327.855469 151.484375 327.859375 151.484375 327.863281 C 151.496094 328.261719 151.496094 328.652344 151.492188 329.039062 C 151.492188 329.152344 151.488281 329.261719 151.484375 329.375 C 151.476562 329.660156 151.464844 329.945312 151.445312 330.222656 C 151.4375 330.339844 151.433594 330.457031 151.421875 330.574219 C 151.398438 330.886719 151.363281 331.195312 151.324219 331.496094 C 151.316406 331.554688 151.3125 331.621094 151.304688 331.679688 C 151.253906 332.03125 151.1875 332.371094 151.113281 332.699219 C 151.09375 332.789062 151.070312 332.875 151.046875 332.964844 C 150.988281 333.203125 150.921875 333.433594 150.847656 333.65625 C 150.816406 333.757812 150.78125 333.855469 150.746094 333.953125 C 150.664062 334.171875 150.578125 334.378906 150.480469 334.578125 C 150.445312 334.652344 150.414062 334.726562 150.378906 334.796875 C 150.242188 335.054688 150.09375 335.300781 149.929688 335.519531 C 149.894531 335.566406 149.855469 335.601562 149.820312 335.644531 C 149.683594 335.816406 149.535156 335.980469 149.378906 336.125 C 149.3125 336.183594 149.246094 336.238281 149.179688 336.292969 C 149.027344 336.414062 148.867188 336.519531 148.703125 336.617188 C 148.628906 336.660156 148.5625 336.703125 148.488281 336.742188 C 148.242188 336.859375 147.984375 336.964844 147.707031 337.035156 C 146.667969 337.296875 145.007812 336.640625 143 335.355469 C 142.328125 334.929688 141.621094 334.433594 140.882812 333.875 C 136.832031 330.8125 131.910156 325.964844 127.808594 321.085938 C 126.316406 319.3125 124.933594 317.535156 123.742188 315.839844 C 123.144531 314.992188 122.597656 314.167969 122.105469 313.371094 C 121.613281 312.574219 121.175781 311.808594 120.808594 311.085938 C 120.582031 310.632812 120.378906 310.195312 120.203125 309.78125 C 119.683594 308.527344 119.421875 307.445312 119.484375 306.601562 C 119.496094 306.472656 119.523438 306.335938 119.5625 306.1875 C 119.574219 306.140625 119.59375 306.09375 119.609375 306.042969 C 119.640625 305.9375 119.679688 305.832031 119.726562 305.714844 C 119.753906 305.660156 119.777344 305.601562 119.804688 305.539062 C 119.859375 305.421875 119.917969 305.300781 119.988281 305.175781 C 120.015625 305.117188 120.042969 305.0625 120.078125 305.003906 C 120.175781 304.828125 120.285156 304.644531 120.410156 304.453125 C 120.414062 304.445312 120.421875 304.4375 120.425781 304.425781 C 120.554688 304.226562 120.703125 304.015625 120.855469 303.800781 C 120.902344 303.734375 120.957031 303.667969 121.003906 303.601562 C 121.117188 303.445312 121.238281 303.289062 121.363281 303.125 C 121.425781 303.046875 121.488281 302.964844 121.554688 302.882812 C 121.683594 302.71875 121.820312 302.550781 121.960938 302.382812 C 122.023438 302.308594 122.085938 302.230469 122.148438 302.15625 C 122.347656 301.921875 122.554688 301.679688 122.769531 301.433594 C 122.78125 301.421875 122.792969 301.410156 122.804688 301.398438 C 123.035156 301.136719 123.277344 300.871094 123.527344 300.597656 C 123.601562 300.519531 123.675781 300.4375 123.75 300.359375 C 123.9375 300.160156 124.125 299.957031 124.320312 299.753906 C 124.40625 299.664062 124.496094 299.570312 124.585938 299.476562 C 124.789062 299.269531 124.996094 299.054688 125.207031 298.84375 C 125.285156 298.761719 125.363281 298.679688 125.445312 298.597656 C 125.730469 298.3125 126.019531 298.023438 126.316406 297.726562 C 126.328125 297.71875 126.339844 297.707031 126.347656 297.695312 C 126.664062 297.386719 126.992188 297.070312 127.320312 296.75 C 127.398438 296.675781 127.480469 296.601562 127.558594 296.523438 C 127.8125 296.28125 128.074219 296.03125 128.335938 295.78125 C 128.4375 295.6875 128.535156 295.59375 128.636719 295.5 C 128.894531 295.257812 129.160156 295.011719 129.425781 294.765625 C 129.519531 294.675781 129.613281 294.589844 129.710938 294.5 C 130.066406 294.171875 130.425781 293.84375 130.789062 293.511719 C 130.792969 293.507812 130.792969 293.507812 130.792969 293.507812 C 134.113281 290.484375 137.886719 287.242188 141.71875 284.046875 L 129.722656 283.917969 L 127.324219 252.34375 C 123.242188 251.425781 120.871094 250.71875 120.871094 250.71875 C 120.871094 250.71875 119.101562 240.671875 125.28125 218.277344 C 115.519531 214.519531 105.210938 207.515625 98.921875 194.464844 C 84.167969 163.839844 78.476562 92.515625 123.851562 57.101562 C 165.683594 24.453125 228.976562 40.429688 250.5625 83.109375 C 258.867188 99.53125 259.730469 114.691406 261.0625 134.070312 C 266.871094 131.691406 271.558594 136.726562 271.558594 136.726562 C 271.558594 136.726562 279.992188 129.121094 284.65625 135.066406 C 287.558594 138.765625 285.144531 142.78125 285.144531 142.78125 C 285.144531 142.78125 289.082031 141.335938 290.742188 146.316406 C 292.21875 150.742188 289.398438 154.425781 289.398438 154.425781 C 296.566406 160.472656 286.871094 170.664062 278.570312 173.800781 Z M 278.570312 173.800781 " fill-opacity="1" fill-rule="nonzero"/></g><g clip-path="url(#5994981fc9)"><path fill="#f63845" d="M 151.859375 313.238281 C 151.859375 313.238281 152.082031 312.605469 152.222656 311.742188 C 152.453125 310.355469 152.476562 308.367188 151.027344 307.425781 C 149.09375 306.175781 146.960938 307.632812 145.242188 309.523438 L 130.792969 293.5 C 130.792969 293.5 130.792969 293.503906 130.792969 293.503906 C 130.425781 293.835938 130.066406 294.167969 129.710938 294.492188 C 129.617188 294.582031 129.523438 294.671875 129.425781 294.757812 C 129.160156 295.003906 128.898438 295.25 128.636719 295.492188 C 128.539062 295.589844 128.4375 295.683594 128.339844 295.777344 C 128.074219 296.027344 127.816406 296.273438 127.558594 296.519531 C 127.480469 296.59375 127.402344 296.667969 127.324219 296.746094 C 126.992188 297.0625 126.667969 297.378906 126.351562 297.691406 C 126.339844 297.699219 126.328125 297.710938 126.320312 297.722656 C 126.019531 298.015625 125.730469 298.304688 125.445312 298.589844 C 125.363281 298.671875 125.285156 298.753906 125.207031 298.835938 C 124.996094 299.050781 124.789062 299.261719 124.585938 299.46875 C 124.5 299.5625 124.410156 299.65625 124.320312 299.746094 C 124.125 299.953125 123.9375 300.152344 123.75 300.351562 C 123.675781 300.433594 123.601562 300.511719 123.527344 300.589844 C 123.277344 300.863281 123.035156 301.132812 122.804688 301.390625 C 122.792969 301.40625 122.785156 301.417969 122.773438 301.429688 C 122.554688 301.675781 122.347656 301.914062 122.152344 302.148438 C 122.085938 302.226562 122.027344 302.300781 121.964844 302.375 C 121.824219 302.546875 121.6875 302.710938 121.554688 302.875 C 121.488281 302.957031 121.425781 303.039062 121.363281 303.121094 C 121.238281 303.28125 121.121094 303.4375 121.003906 303.59375 C 120.957031 303.660156 120.902344 303.730469 120.855469 303.792969 C 120.703125 304.011719 120.558594 304.222656 120.425781 304.421875 C 120.421875 304.429688 120.417969 304.4375 120.410156 304.449219 C 120.289062 304.636719 120.179688 304.820312 120.078125 304.996094 C 120.046875 305.054688 120.019531 305.113281 119.988281 305.167969 C 119.921875 305.292969 119.859375 305.417969 119.804688 305.535156 C 119.777344 305.59375 119.753906 305.652344 119.730469 305.710938 C 119.683594 305.824219 119.644531 305.933594 119.609375 306.039062 C 119.59375 306.085938 119.578125 306.136719 119.5625 306.183594 C 119.523438 306.328125 119.496094 306.46875 119.488281 306.59375 C 119.488281 306.59375 119.488281 306.597656 119.488281 306.597656 C 119.402344 307.71875 119.894531 309.269531 120.8125 311.078125 C 121.179688 311.804688 121.613281 312.566406 122.105469 313.363281 C 122.597656 314.160156 123.144531 314.988281 123.742188 315.835938 C 124.9375 317.53125 126.320312 319.308594 127.8125 321.082031 C 131.910156 325.957031 136.832031 330.808594 140.886719 333.871094 C 143.832031 336.09375 146.324219 337.375 147.707031 337.027344 C 147.988281 336.957031 148.242188 336.855469 148.488281 336.734375 C 148.5625 336.695312 148.632812 336.652344 148.703125 336.613281 C 148.871094 336.515625 149.03125 336.40625 149.179688 336.285156 C 149.246094 336.230469 149.316406 336.175781 149.378906 336.117188 C 149.539062 335.972656 149.683594 335.8125 149.824219 335.640625 C 149.859375 335.59375 149.894531 335.558594 149.929688 335.515625 C 150.09375 335.292969 150.242188 335.050781 150.378906 334.792969 C 150.417969 334.722656 150.445312 334.644531 150.480469 334.570312 C 150.578125 334.371094 150.667969 334.164062 150.746094 333.945312 C 150.78125 333.847656 150.816406 333.75 150.851562 333.648438 C 150.921875 333.425781 150.988281 333.195312 151.046875 332.960938 C 151.070312 332.871094 151.097656 332.785156 151.117188 332.691406 C 151.191406 332.363281 151.253906 332.023438 151.304688 331.671875 C 151.3125 331.613281 151.316406 331.550781 151.324219 331.488281 C 151.367188 331.1875 151.398438 330.882812 151.425781 330.566406 C 151.433594 330.453125 151.441406 330.332031 151.449219 330.214844 C 151.464844 329.9375 151.476562 329.65625 151.484375 329.371094 C 151.488281 329.257812 151.492188 329.144531 151.492188 329.03125 C 151.496094 328.644531 151.496094 328.253906 151.484375 327.859375 C 151.484375 327.851562 151.484375 327.847656 151.484375 327.847656 C 151.472656 327.429688 151.453125 327.011719 151.425781 326.59375 C 151.417969 326.496094 151.410156 326.398438 151.402344 326.304688 C 151.378906 325.972656 151.351562 325.636719 151.320312 325.304688 C 151.3125 325.207031 151.300781 325.105469 151.289062 325.007812 C 151.25 324.621094 151.207031 324.234375 151.160156 323.851562 C 151.15625 323.824219 151.152344 323.800781 151.148438 323.777344 C 151.09375 323.339844 151.03125 322.902344 150.96875 322.472656 C 150.964844 322.457031 150.964844 322.445312 150.960938 322.429688 C 150.898438 322.027344 150.835938 321.628906 150.769531 321.238281 C 150.757812 321.183594 150.75 321.132812 150.742188 321.078125 C 150.671875 320.683594 150.601562 320.296875 150.53125 319.921875 C 152.953125 319.589844 155.386719 318.6875 155.453125 316.417969 C 155.546875 313.328125 151.859375 313.238281 151.859375 313.238281 Z M 129.726562 311.761719 C 127.179688 311.761719 125.113281 309.699219 125.113281 307.152344 C 125.113281 304.605469 127.179688 302.539062 129.726562 302.539062 C 132.269531 302.539062 134.335938 304.605469 134.335938 307.152344 C 134.335938 309.699219 132.269531 311.761719 129.726562 311.761719 Z M 259.757812 272.570312 C 259.734375 272.367188 259.6875 272.183594 259.628906 272.007812 C 259.617188 271.960938 259.601562 271.914062 259.582031 271.871094 C 259.523438 271.714844 259.457031 271.570312 259.375 271.433594 C 259.363281 271.417969 259.355469 271.398438 259.34375 271.378906 C 259.25 271.230469 259.136719 271.09375 259.011719 270.960938 C 258.980469 270.929688 258.945312 270.898438 258.914062 270.867188 C 258.800781 270.757812 258.679688 270.660156 258.550781 270.566406 C 258.523438 270.546875 258.5 270.527344 258.472656 270.507812 C 258.3125 270.402344 258.144531 270.304688 257.960938 270.21875 C 257.917969 270.195312 257.871094 270.179688 257.828125 270.160156 C 257.671875 270.089844 257.507812 270.023438 257.335938 269.964844 C 257.292969 269.949219 257.25 269.933594 257.207031 269.917969 C 256.996094 269.851562 256.777344 269.792969 256.546875 269.742188 C 256.5 269.730469 256.449219 269.722656 256.402344 269.710938 C 256.207031 269.671875 256.003906 269.636719 255.796875 269.605469 C 255.734375 269.597656 255.675781 269.585938 255.617188 269.582031 C 255.363281 269.546875 255.105469 269.519531 254.835938 269.5 C 254.796875 269.496094 254.753906 269.496094 254.710938 269.492188 C 254.472656 269.476562 254.234375 269.46875 253.988281 269.460938 C 253.914062 269.460938 253.84375 269.457031 253.769531 269.457031 C 253.484375 269.453125 253.195312 269.453125 252.898438 269.460938 C 252.878906 269.460938 252.855469 269.460938 252.832031 269.464844 C 252.550781 269.46875 252.269531 269.484375 251.984375 269.5 C 251.902344 269.503906 251.820312 269.511719 251.738281 269.515625 C 251.449219 269.535156 251.15625 269.558594 250.863281 269.585938 C 250.839844 269.585938 250.820312 269.585938 250.800781 269.589844 C 250.484375 269.617188 250.167969 269.652344 249.847656 269.691406 C 249.761719 269.703125 249.671875 269.710938 249.582031 269.722656 C 249.3125 269.757812 249.042969 269.792969 248.773438 269.832031 C 248.714844 269.839844 248.660156 269.847656 248.601562 269.855469 C 248.285156 269.902344 247.96875 269.949219 247.652344 270.003906 C 247.5625 270.015625 247.46875 270.03125 247.378906 270.046875 C 247.125 270.089844 246.871094 270.132812 246.621094 270.179688 C 246.542969 270.195312 246.460938 270.207031 246.382812 270.222656 C 246.078125 270.277344 245.769531 270.335938 245.46875 270.398438 C 245.371094 270.417969 245.273438 270.4375 245.175781 270.457031 C 244.949219 270.503906 244.722656 270.550781 244.5 270.597656 C 244.398438 270.617188 244.300781 270.640625 244.203125 270.660156 C 243.914062 270.722656 243.632812 270.785156 243.351562 270.847656 C 243.25 270.871094 243.152344 270.894531 243.054688 270.917969 C 242.855469 270.964844 242.664062 271.007812 242.472656 271.054688 C 242.355469 271.082031 242.242188 271.109375 242.128906 271.136719 C 241.875 271.195312 241.625 271.257812 241.382812 271.320312 C 241.382812 271.320312 241.378906 271.320312 241.378906 271.320312 C 240.855469 269.367188 239.480469 265.511719 236.792969 265.511719 C 233.199219 265.511719 234.164062 270.214844 234.164062 270.214844 C 234.164062 270.214844 233.761719 270.164062 233.183594 270.183594 C 231.671875 270.234375 228.949219 270.78125 229.046875 274.085938 C 229.089844 275.425781 230.261719 276.367188 231.890625 277.035156 L 217.121094 292.25 C 218.304688 293.238281 219.449219 294.175781 220.535156 295.058594 C 220.5625 295.078125 220.585938 295.097656 220.613281 295.117188 C 220.941406 295.382812 221.265625 295.644531 221.582031 295.898438 C 221.613281 295.925781 221.644531 295.953125 221.679688 295.976562 C 222.363281 296.527344 223.023438 297.046875 223.652344 297.535156 C 223.660156 297.546875 223.671875 297.554688 223.683594 297.5625 C 223.96875 297.785156 224.246094 297.996094 224.515625 298.207031 C 224.570312 298.246094 224.625 298.289062 224.675781 298.328125 C 224.921875 298.515625 225.160156 298.695312 225.390625 298.867188 C 225.429688 298.898438 225.472656 298.929688 225.515625 298.960938 C 226.046875 299.359375 226.546875 299.726562 227.007812 300.050781 C 227.0625 300.089844 227.113281 300.125 227.164062 300.160156 C 227.335938 300.28125 227.503906 300.394531 227.664062 300.503906 C 227.722656 300.542969 227.777344 300.582031 227.835938 300.621094 C 228 300.734375 228.160156 300.835938 228.3125 300.933594 C 228.347656 300.957031 228.382812 300.980469 228.414062 301.003906 C 228.597656 301.117188 228.769531 301.222656 228.929688 301.316406 C 228.960938 301.335938 228.992188 301.355469 229.027344 301.371094 C 229.148438 301.441406 229.261719 301.507812 229.371094 301.5625 C 229.414062 301.585938 229.457031 301.605469 229.5 301.628906 C 229.59375 301.675781 229.679688 301.714844 229.761719 301.75 C 229.796875 301.765625 229.832031 301.78125 229.867188 301.792969 C 229.972656 301.835938 230.070312 301.871094 230.15625 301.886719 C 231.402344 302.164062 233.925781 300.921875 237 298.785156 C 238.152344 297.984375 239.382812 297.058594 240.648438 296.039062 C 241.957031 294.992188 243.304688 293.84375 244.652344 292.632812 C 245.457031 291.914062 246.261719 291.167969 247.058594 290.410156 C 247.511719 289.976562 247.96875 289.539062 248.417969 289.09375 C 250.171875 287.363281 251.847656 285.582031 253.355469 283.839844 C 253.828125 283.296875 254.277344 282.757812 254.710938 282.222656 C 255.085938 281.761719 255.441406 281.304688 255.785156 280.855469 C 256.042969 280.515625 256.292969 280.179688 256.53125 279.847656 C 256.867188 279.382812 257.175781 278.925781 257.46875 278.480469 C 258.050781 277.582031 258.554688 276.722656 258.929688 275.933594 C 259.085938 275.601562 259.222656 275.28125 259.335938 274.972656 C 259.566406 274.359375 259.714844 273.792969 259.761719 273.28125 C 259.78125 273.035156 259.78125 272.792969 259.757812 272.570312 Z M 232.460938 295.347656 C 229.914062 295.347656 227.847656 293.28125 227.847656 290.734375 C 227.847656 288.1875 229.910156 286.125 232.460938 286.125 C 235.003906 286.125 237.070312 288.1875 237.070312 290.734375 C 237.070312 293.28125 235.003906 295.347656 232.460938 295.347656 Z M 232.460938 295.347656 " fill-opacity="1" fill-rule="nonzero"/></g><path fill="#9ec2c1" d="M 169.011719 256.246094 C 195.015625 255.136719 208.851562 245.730469 208.851562 245.730469 L 219.363281 256.246094 L 195.214844 273.316406 L 187.269531 278.933594 L 176.203125 266.480469 L 180.382812 283.460938 L 180.632812 284.464844 L 141.71875 284.042969 L 129.726562 283.910156 L 127.328125 252.335938 C 135.75 254.222656 151.496094 256.988281 169.011719 256.246094 Z M 169.011719 256.246094 " fill-opacity="1" fill-rule="nonzero"/><path fill="#100f0d" d="M 217.324219 150.101562 C 218.804688 148.484375 219.773438 146.636719 219.523438 145.089844 C 219.386719 144.335938 219.011719 143.757812 218.289062 143.234375 C 217.566406 142.71875 216.578125 142.347656 215.535156 142.066406 C 213.429688 141.5 211.109375 141.265625 208.722656 140.980469 C 210.964844 140.054688 213.382812 139.640625 215.90625 139.792969 C 217.167969 139.894531 218.484375 140.15625 219.761719 140.875 C 220.398438 141.238281 221.003906 141.75 221.488281 142.398438 C 221.632812 142.589844 221.753906 142.796875 221.867188 143.011719 C 222.757812 142.511719 223.671875 142.066406 224.613281 141.6875 C 226.839844 140.808594 229.214844 140.242188 231.714844 140.128906 C 233 140.109375 234.191406 140.121094 235.625 140.4375 C 237.023438 140.742188 238.335938 141.398438 239.421875 142.246094 C 241.574219 143.976562 242.851562 146.417969 242.964844 148.921875 C 241.078125 147.328125 239.261719 146.136719 237.480469 145.515625 C 236.597656 145.203125 235.734375 145.035156 234.871094 144.980469 C 234.648438 144.964844 234.453125 144.96875 234.207031 144.960938 L 233.460938 144.96875 C 232.964844 144.972656 232.445312 144.996094 231.933594 145.015625 L 225.476562 145.460938 C 224.496094 145.519531 223.5 145.570312 222.484375 145.59375 C 222.46875 146.796875 222.089844 147.953125 221.53125 148.886719 C 220.824219 150.089844 219.898438 151.03125 218.902344 151.796875 C 216.902344 153.320312 214.667969 154.351562 212.285156 154.832031 C 214.105469 153.253906 215.878906 151.753906 217.324219 150.101562 Z M 240.347656 131.414062 C 241.183594 129.796875 237.914062 126.445312 233.046875 123.929688 C 228.179688 121.417969 223.558594 120.691406 222.722656 122.308594 C 221.882812 123.929688 225.152344 127.277344 230.019531 129.792969 C 234.886719 132.308594 239.511719 133.035156 240.347656 131.414062 Z M 181.886719 171.898438 C 182.074219 173.34375 182.304688 174.679688 182.285156 176.238281 C 182.25 177.738281 182 179.195312 181.570312 180.59375 C 181.121094 181.984375 180.515625 183.335938 179.617188 184.5 C 179.191406 185.089844 178.640625 185.597656 178.066406 186.039062 C 177.480469 186.417969 176.835938 186.675781 176.171875 186.75 C 176.121094 186.921875 176.085938 187.09375 176.019531 187.261719 C 175.359375 185.933594 174.757812 184.746094 174.113281 183.675781 C 173.46875 182.605469 172.765625 181.695312 171.957031 181 C 171.152344 180.308594 170.234375 179.757812 169.066406 179.445312 L 168.636719 179.289062 C 168.488281 179.246094 168.332031 179.234375 168.179688 179.199219 C 167.871094 179.136719 167.550781 179.0625 167.226562 178.980469 C 166.566406 178.847656 165.886719 178.804688 165.136719 178.59375 C 165.738281 178.167969 166.398438 177.820312 167.097656 177.542969 C 167.457031 177.441406 167.824219 177.347656 168.199219 177.265625 C 168.570312 177.164062 168.957031 177.140625 169.355469 177.152344 C 170.390625 177.089844 171.488281 177.34375 172.476562 177.839844 C 172.324219 177.222656 172.160156 176.632812 171.949219 176.089844 C 171.496094 174.804688 170.804688 173.894531 169.894531 173.253906 C 168.976562 172.609375 167.722656 172.214844 166.335938 171.964844 C 164.941406 171.710938 163.445312 171.582031 161.816406 171.402344 C 163.144531 170.40625 164.71875 169.855469 166.394531 169.664062 C 167.453125 169.554688 168.609375 169.613281 169.730469 169.960938 C 169.710938 168.847656 169.660156 167.816406 169.417969 166.910156 C 169.058594 165.585938 168.417969 164.640625 167.328125 163.929688 C 166.273438 163.214844 164.910156 162.695312 163.457031 162.257812 C 162.75 162.125 162.03125 162.039062 161.300781 162.042969 C 158.753906 161.957031 156.171875 162.617188 153.75 163.671875 C 151.332031 164.765625 149.078125 166.296875 147.019531 168.09375 C 144.910156 169.859375 143.15625 172.015625 141.34375 174.167969 C 141.34375 174.167969 121.976562 180.253906 114.046875 191.136719 C 108.171875 199.199219 110.691406 211.417969 122.898438 211.609375 C 124.292969 211.632812 125.804688 211.488281 127.378906 211.230469 C 127.238281 211.667969 127.09375 212.085938 126.957031 212.53125 C 126.339844 214.53125 125.785156 216.4375 125.28125 218.273438 C 115.519531 214.515625 105.210938 207.507812 98.921875 194.457031 C 84.167969 163.839844 78.476562 92.515625 123.851562 57.101562 C 165.683594 24.453125 228.976562 40.429688 250.5625 83.109375 C 258.867188 99.53125 259.730469 114.691406 261.0625 134.070312 C 260.996094 134.101562 260.929688 134.113281 260.863281 134.144531 C 254.960938 136.726562 253.667969 145.394531 253.667969 145.394531 C 253.667969 145.394531 252.5 146.085938 250.511719 147.191406 C 252.332031 140.046875 253.027344 132.460938 252.617188 124.859375 L 236.253906 94.296875 C 226.445312 104.855469 209.097656 112.398438 203.0625 110.136719 C 197.027344 107.871094 201.179688 97.691406 201.179688 97.691406 C 201.179688 97.691406 186.46875 115.792969 177.796875 113.90625 C 169.121094 112.019531 174.777344 100.707031 174.777344 100.707031 C 174.777344 100.707031 168.367188 112.398438 159.316406 118.808594 C 151.945312 124.027344 144.441406 127.515625 141.90625 128.628906 C 139.917969 125.453125 129.394531 109.683594 117.953125 112.285156 C 117.785156 112.324219 117.625 112.375 117.460938 112.417969 C 106.695312 115.304688 101.585938 131.179688 107.851562 141.8125 C 113.679688 151.699219 131.292969 159.675781 134.222656 160.953125 C 136.90625 164.480469 139.957031 167.738281 143.296875 170.703125 C 144.101562 169.433594 144.984375 168.207031 146 167.070312 C 147.910156 164.945312 150.136719 163.019531 152.730469 161.617188 C 155.304688 160.183594 158.261719 159.335938 161.308594 159.257812 C 162.835938 159.191406 164.378906 159.472656 165.878906 159.894531 C 167.140625 160.304688 168.351562 160.921875 169.460938 161.734375 C 170.816406 161.527344 172.191406 161.566406 173.492188 161.804688 C 175.003906 162.09375 176.625 162.640625 177.929688 163.695312 C 179.261719 164.726562 180.160156 166.164062 180.757812 167.582031 C 181.363281 169.011719 181.671875 170.472656 181.886719 171.898438 Z M 180.371094 176.296875 C 180.242188 175.0625 179.9375 173.640625 179.644531 172.335938 C 179.015625 169.730469 178.113281 167.195312 176.242188 165.898438 C 174.953125 164.96875 173.132812 164.496094 171.371094 164.5 C 171.460938 164.730469 171.535156 164.960938 171.566406 165.207031 L 171.714844 165.945312 C 171.722656 166.191406 171.71875 166.4375 171.71875 166.679688 C 171.679688 168.039062 171.269531 169.257812 170.644531 170.316406 C 170.960938 170.464844 171.269531 170.632812 171.570312 170.839844 C 173.207031 171.9375 174.152344 173.902344 174.214844 175.632812 C 174.289062 176.722656 174.128906 177.753906 173.816406 178.726562 C 173.835938 178.746094 173.863281 178.761719 173.882812 178.78125 C 175.148438 179.878906 175.925781 181.371094 176.261719 182.847656 C 176.542969 184.144531 176.546875 185.46875 176.179688 186.722656 C 177.480469 186.28125 178.34375 185.199219 178.9375 184.0625 C 179.558594 182.875 179.960938 181.574219 180.175781 180.253906 C 180.40625 178.9375 180.488281 177.59375 180.371094 176.296875 Z M 187.71875 114.964844 C 182.292969 115.71875 178.097656 117.796875 178.347656 119.597656 C 178.597656 121.402344 183.203125 122.253906 188.628906 121.5 C 194.054688 120.742188 198.246094 118.667969 197.996094 116.863281 C 197.746094 115.058594 193.144531 114.207031 187.71875 114.964844 Z M 129.726562 302.539062 C 127.179688 302.539062 125.113281 304.605469 125.113281 307.152344 C 125.113281 309.699219 127.179688 311.761719 129.726562 311.761719 C 132.269531 311.761719 134.335938 309.699219 134.335938 307.152344 C 134.335938 304.605469 132.269531 302.539062 129.726562 302.539062 Z M 190.253906 138.75 C 192.257812 140.289062 194.078125 142.304688 195.75 144.75 C 195.917969 141.742188 194.839844 138.695312 192.917969 136.160156 C 191.941406 134.90625 190.746094 133.765625 189.363281 132.890625 C 187.960938 131.988281 186.5625 131.410156 185.109375 130.882812 C 182.21875 129.925781 179.273438 129.476562 176.339844 129.433594 C 173.410156 129.40625 170.472656 129.695312 167.613281 130.691406 C 170.410156 131.804688 173.121094 132.582031 175.796875 133.320312 C 178.460938 134.066406 181.082031 134.746094 183.578125 135.519531 C 184.792969 135.9375 186.058594 136.347656 187.121094 136.839844 C 188.210938 137.347656 189.253906 137.984375 190.253906 138.75 Z M 274.195312 166.71875 C 273.472656 165.746094 273.085938 164.625 273.160156 163.566406 C 273.210938 162.503906 273.722656 161.488281 274.523438 160.582031 C 275.316406 159.703125 276.460938 158.835938 277.578125 158.125 C 278.722656 157.414062 279.949219 156.804688 281.242188 156.3125 C 283.84375 155.355469 286.664062 154.804688 289.625 154.652344 C 286.796875 153.667969 283.660156 153.582031 280.636719 154.199219 C 279.40625 154.457031 278.191406 154.855469 277.03125 155.382812 C 277.402344 153.859375 277.542969 152.289062 277.402344 150.75 C 277.261719 149.429688 277.074219 148.171875 276.796875 146.917969 C 276.914062 146.871094 277.039062 146.824219 277.152344 146.777344 C 277.628906 146.605469 278.050781 146.394531 278.46875 146.195312 C 279.308594 145.820312 280.0625 145.394531 280.820312 145.023438 C 281.574219 144.648438 282.304688 144.261719 283.089844 143.898438 C 283.882812 143.53125 284.691406 143.148438 285.753906 142.777344 C 284.9375 141.945312 283.769531 141.660156 282.667969 141.632812 C 281.554688 141.621094 280.460938 141.917969 279.492188 142.402344 C 278.507812 142.878906 277.691406 143.597656 277.011719 144.402344 C 276.78125 144.691406 276.582031 145.003906 276.394531 145.324219 C 275.976562 143.765625 275.421875 142.238281 274.703125 140.789062 C 273.898438 139.273438 272.960938 137.738281 271.5625 136.726562 C 272.457031 138.15625 272.957031 139.726562 273.359375 141.300781 C 273.777344 142.871094 274.027344 144.476562 274.238281 146.082031 C 274.429688 147.679688 274.5625 149.34375 274.625 150.90625 C 274.667969 152.417969 274.457031 153.917969 274.015625 155.320312 C 273.558594 156.707031 272.859375 158.035156 271.898438 158.957031 C 271.429688 159.421875 270.894531 159.761719 270.363281 159.941406 C 269.828125 160.109375 269.300781 160.097656 268.746094 159.894531 C 267.628906 159.460938 266.613281 158.1875 265.878906 156.800781 C 265.109375 155.394531 264.566406 153.816406 264 152.21875 C 263.921875 153.917969 264.085938 155.628906 264.539062 157.335938 C 264.804688 158.175781 265.113281 159.027344 265.605469 159.835938 C 266.101562 160.636719 266.78125 161.40625 267.722656 161.949219 C 268.496094 162.402344 269.46875 162.609375 270.402344 162.53125 C 270.355469 162.855469 270.320312 163.179688 270.324219 163.511719 C 270.328125 165.390625 271.195312 167.140625 272.441406 168.3125 C 273.066406 168.90625 273.769531 169.390625 274.519531 169.75 C 275.285156 170.09375 276.085938 170.3125 276.894531 170.40625 C 278.519531 170.558594 280.152344 170.136719 281.335938 169.207031 C 278.394531 169.863281 275.675781 168.65625 274.195312 166.71875 Z M 264.367188 175.644531 C 264.367188 175.644531 262.601562 176.949219 259.195312 179.007812 C 255.300781 181.355469 249.265625 184.6875 241.265625 188.167969 C 240.265625 188.601562 239.238281 189.039062 238.175781 189.476562 C 235.523438 190.570312 232.796875 191.566406 230.082031 192.46875 C 229.539062 192.648438 228.996094 192.824219 228.453125 193 C 227.371094 193.34375 226.292969 193.675781 225.226562 193.988281 C 223.625 194.464844 222.046875 194.902344 220.511719 195.3125 C 219.488281 195.582031 218.480469 195.839844 217.5 196.085938 C 216.523438 196.328125 215.566406 196.558594 214.640625 196.773438 C 211.574219 197.488281 208.847656 198.046875 206.652344 198.46875 L 207.863281 224.472656 C 253.675781 221.164062 273.035156 205.890625 273.035156 205.890625 C 269.824219 194.839844 267.554688 184.910156 265.890625 175.839844 C 264.914062 175.761719 264.367188 175.644531 264.367188 175.644531 Z M 217.335938 165.683594 C 217.335938 165.683594 211.433594 166.054688 203.316406 161.625 C 195.203125 157.199219 189.300781 150.929688 189.300781 150.929688 C 189.300781 150.929688 187.695312 152.882812 186.363281 155.753906 C 189.5625 157.371094 193.804688 160.105469 196.675781 164.207031 C 198.9375 167.433594 199.695312 172.058594 199.933594 175.414062 C 209.496094 174.84375 217.335938 165.683594 217.335938 165.683594 Z M 199.320312 175.445312 C 199.527344 175.441406 199.730469 175.441406 199.933594 175.429688 C 199.933594 175.421875 199.929688 175.417969 199.929688 175.414062 C 199.730469 175.425781 199.527344 175.441406 199.320312 175.445312 Z M 232.460938 286.125 C 229.914062 286.125 227.847656 288.1875 227.847656 290.734375 C 227.847656 293.28125 229.910156 295.347656 232.460938 295.347656 C 235.003906 295.347656 237.070312 293.28125 237.070312 290.734375 C 237.070312 288.1875 235.003906 286.125 232.460938 286.125 Z M 232.460938 286.125 " fill-opacity="1" fill-rule="nonzero"/><path fill="#7f4da1" d="M 264.367188 175.644531 C 264.367188 175.644531 262.601562 176.949219 259.195312 179.007812 C 255.300781 181.355469 249.265625 184.6875 241.265625 188.167969 C 240.265625 188.601562 239.238281 189.039062 238.175781 189.476562 C 235.523438 190.570312 232.796875 191.566406 230.082031 192.46875 C 229.539062 192.648438 228.996094 192.824219 228.453125 193 C 227.371094 193.34375 226.292969 193.675781 225.226562 193.988281 C 223.625 194.464844 222.046875 194.902344 220.511719 195.3125 C 219.488281 195.582031 218.480469 195.839844 217.5 196.085938 C 216.523438 196.328125 215.566406 196.558594 214.640625 196.773438 C 211.574219 197.488281 208.847656 198.046875 206.652344 198.46875 L 207.863281 224.472656 L 208.851562 245.730469 C 208.851562 245.730469 195.015625 255.136719 169.011719 256.246094 C 151.496094 256.992188 135.75 254.222656 127.328125 252.335938 C 123.242188 251.421875 120.871094 250.710938 120.871094 250.710938 C 120.871094 250.710938 119.105469 240.667969 125.28125 218.273438 C 125.789062 216.4375 126.339844 214.53125 126.957031 212.535156 C 127.09375 212.089844 127.242188 211.667969 127.378906 211.230469 C 125.804688 211.492188 124.292969 211.632812 122.898438 211.609375 C 110.691406 211.421875 108.171875 199.199219 114.046875 191.136719 C 121.976562 180.253906 141.34375 174.167969 141.34375 174.167969 L 154.625 200.542969 C 154.625 200.542969 174.152344 201.078125 175.960938 187.648438 C 183.273438 189.417969 190.847656 190.132812 198.359375 189.597656 C 207.648438 188.9375 216.839844 186.402344 225.308594 181.699219 C 238.46875 174.390625 246.808594 161.699219 250.511719 147.195312 C 252.5 146.085938 253.667969 145.398438 253.667969 145.398438 Z M 184.640625 163.582031 C 184.644531 163.652344 184.648438 163.71875 184.652344 163.789062 C 184.671875 164.054688 184.703125 164.324219 184.742188 164.59375 C 184.75 164.640625 184.761719 164.691406 184.769531 164.738281 C 184.808594 164.984375 184.859375 165.226562 184.914062 165.472656 C 184.929688 165.523438 184.9375 165.574219 184.953125 165.625 C 185.019531 165.898438 185.101562 166.171875 185.195312 166.441406 C 185.214844 166.5 185.234375 166.554688 185.253906 166.613281 C 185.347656 166.875 185.453125 167.136719 185.570312 167.394531 C 185.578125 167.414062 185.585938 167.433594 185.597656 167.453125 C 185.722656 167.726562 185.867188 168 186.023438 168.269531 C 186.054688 168.328125 186.089844 168.382812 186.125 168.441406 C 186.285156 168.710938 186.457031 168.980469 186.644531 169.246094 C 186.664062 169.269531 186.683594 169.292969 186.703125 169.316406 C 186.882812 169.5625 187.078125 169.808594 187.285156 170.050781 C 187.332031 170.101562 187.375 170.15625 187.421875 170.207031 C 187.648438 170.460938 187.890625 170.714844 188.148438 170.960938 C 188.199219 171.007812 188.25 171.054688 188.300781 171.101562 C 188.542969 171.324219 188.796875 171.550781 189.070312 171.769531 C 189.113281 171.804688 189.15625 171.84375 189.203125 171.878906 C 189.503906 172.117188 189.828125 172.351562 190.164062 172.585938 C 190.242188 172.636719 190.320312 172.6875 190.394531 172.738281 C 190.75 172.972656 191.117188 173.203125 191.511719 173.429688 C 191.894531 173.648438 192.273438 173.84375 192.65625 174.023438 C 192.789062 174.085938 192.917969 174.136719 193.050781 174.195312 C 193.300781 174.300781 193.546875 174.410156 193.796875 174.503906 C 193.953125 174.5625 194.113281 174.613281 194.269531 174.667969 C 194.492188 174.742188 194.710938 174.816406 194.929688 174.878906 C 195.101562 174.929688 195.273438 174.972656 195.441406 175.015625 C 195.648438 175.0625 195.851562 175.113281 196.054688 175.152344 C 196.234375 175.1875 196.414062 175.222656 196.59375 175.253906 C 196.785156 175.285156 196.972656 175.308594 197.164062 175.335938 C 197.351562 175.355469 197.539062 175.378906 197.722656 175.398438 C 197.902344 175.410156 198.082031 175.421875 198.257812 175.429688 C 198.453125 175.4375 198.644531 175.449219 198.835938 175.453125 C 199 175.453125 199.160156 175.449219 199.320312 175.445312 C 199.523438 175.441406 199.730469 175.441406 199.929688 175.425781 C 199.695312 172.070312 198.9375 167.4375 196.675781 164.207031 C 193.800781 160.101562 189.558594 157.371094 186.359375 155.75 C 186.300781 155.882812 186.242188 156.011719 186.179688 156.144531 C 186.148438 156.222656 186.117188 156.296875 186.082031 156.375 C 186 156.566406 185.921875 156.757812 185.84375 156.957031 C 185.800781 157.066406 185.753906 157.175781 185.714844 157.289062 C 185.671875 157.40625 185.628906 157.519531 185.585938 157.636719 C 185.527344 157.796875 185.472656 157.960938 185.421875 158.125 C 185.378906 158.25 185.339844 158.378906 185.300781 158.507812 C 185.253906 158.660156 185.210938 158.8125 185.167969 158.964844 C 185.140625 159.066406 185.113281 159.164062 185.089844 159.261719 C 185.03125 159.484375 184.980469 159.707031 184.929688 159.933594 C 184.914062 160.019531 184.898438 160.109375 184.878906 160.195312 C 184.84375 160.386719 184.808594 160.578125 184.777344 160.773438 C 184.769531 160.84375 184.753906 160.914062 184.746094 160.984375 C 184.710938 161.230469 184.683594 161.480469 184.664062 161.730469 C 184.65625 161.808594 184.648438 161.886719 184.644531 161.964844 C 184.628906 162.21875 184.613281 162.476562 184.613281 162.734375 C 184.613281 162.765625 184.613281 162.796875 184.613281 162.828125 C 184.613281 163.082031 184.625 163.332031 184.640625 163.582031 Z M 184.640625 163.582031 " fill-opacity="1" fill-rule="nonzero"/></svg>