<svg xmlns="http://www.w3.org/2000/svg" xmlns:xlink="http://www.w3.org/1999/xlink" width="500" zoomAndPan="magnify" viewBox="0 0 375 374.999991" height="500" preserveAspectRatio="xMidYMid meet" version="1.0"><defs><clipPath id="092b6829bf"><path d="M 174.574219 128 L 318.972656 128 L 318.972656 272.484375 L 174.574219 272.484375 Z M 174.574219 128 " clip-rule="nonzero"/></clipPath><clipPath id="5242059bdc"><path d="M 174.574219 122.484375 L 318.972656 122.484375 L 318.972656 272.484375 L 174.574219 272.484375 Z M 174.574219 122.484375 " clip-rule="nonzero"/></clipPath><clipPath id="c2a2a2852f"><path d="M 55.898438 134.113281 L 205.984375 134.113281 L 205.984375 244.363281 L 55.898438 244.363281 Z M 55.898438 134.113281 " clip-rule="nonzero"/></clipPath><clipPath id="1dd4de5010"><path d="M 70 165 L 184 165 L 184 244.363281 L 70 244.363281 Z M 70 165 " clip-rule="nonzero"/></clipPath></defs><g clip-path="url(#092b6829bf)"><path fill="#ecbf98" d="M 314.863281 259.925781 C 314.863281 259.925781 318.863281 258.9375 317.4375 253.707031 C 316.011719 248.476562 315.007812 244.640625 315.96875 237.074219 C 316.925781 229.511719 318.027344 224.0625 315.21875 219.347656 C 315.21875 219.347656 318.28125 221.957031 318.933594 222.089844 C 318.933594 222.089844 316.421875 213.847656 315.976562 208.796875 C 315.53125 203.746094 316.28125 201.070312 315.976562 196.566406 C 315.671875 192.0625 309.832031 179.429688 308.179688 176.019531 C 306.53125 172.605469 304.640625 168.074219 298.820312 164.050781 C 292.996094 160.027344 288.347656 159.097656 281.535156 151.105469 C 274.726562 143.109375 272.59375 141.121094 268.269531 137.589844 C 263.945312 134.058594 253.855469 128.792969 244.285156 128.339844 C 234.714844 127.890625 221.265625 128.796875 214.339844 138.054688 C 207.414062 147.308594 208.847656 156.433594 208.847656 156.433594 C 208.847656 156.433594 213.761719 151.402344 219.648438 150.417969 C 219.648438 150.417969 216.605469 152.316406 215.570312 154.71875 C 215.570312 154.71875 217.914062 153.859375 221.972656 153.082031 C 226.035156 152.308594 229.195312 154.179688 233.707031 153.648438 C 238.21875 153.121094 241.90625 149.433594 241.59375 149.558594 C 241.59375 149.558594 238.066406 153.078125 237.222656 155.8125 C 237.222656 155.8125 240.371094 153.6875 243.773438 152.839844 C 247.175781 151.992188 252.960938 151.296875 253.722656 151.507812 C 253.722656 151.507812 250.429688 152.578125 249.257812 154.09375 C 249.257812 154.09375 257.519531 152.609375 268.902344 158.046875 C 268.902344 158.046875 265.523438 158.394531 262.738281 160.609375 C 259.949219 162.824219 256.953125 166.652344 253.390625 166.308594 C 254.539062 167.027344 257.140625 166.914062 257.140625 166.914062 C 257.140625 166.914062 252.867188 168.871094 250.085938 172.9375 C 247.304688 177 245.425781 179.152344 243.773438 179.5 C 243.773438 179.5 239.121094 178.015625 234.609375 178.632812 C 230.097656 179.25 225.75 180.886719 224.21875 181.796875 C 222.691406 182.707031 221.792969 184.472656 220.003906 185.34375 C 218.21875 186.214844 215.480469 186.015625 214.195312 190.5 C 212.910156 194.980469 213.28125 198.667969 212.335938 202.007812 C 211.394531 205.347656 209.597656 207.546875 209.796875 210.058594 C 209.996094 212.570312 215.234375 215.683594 215.570312 218.023438 C 216.761719 218.652344 218.097656 219.914062 218.773438 218.097656 C 218.773438 218.097656 222.75 225.074219 223.898438 226.144531 C 223.898438 226.144531 223.464844 227.09375 222.867188 228.808594 C 222.265625 230.527344 221.046875 235.957031 217.992188 238.898438 C 214.9375 241.839844 212.847656 244.378906 202.800781 245.121094 C 192.75 245.863281 186.070312 246.046875 184.039062 245.925781 C 184.039062 245.925781 185.871094 247.140625 186.839844 247.460938 C 186.839844 247.460938 183.796875 247.171875 182.585938 247.179688 C 181.375 247.183594 178.277344 247.152344 176.304688 249.777344 C 174.332031 252.402344 174.394531 254.730469 176.304688 256.109375 C 176.304688 256.109375 177.164062 258.28125 179.175781 258.710938 C 181.1875 259.144531 190.636719 259.089844 191.609375 259.101562 C 192.578125 259.113281 194.769531 256.824219 194.769531 256.824219 C 195.554688 256.414062 207.796875 256.324219 207.796875 256.324219 C 207.796875 256.324219 218.636719 256.207031 223.289062 255.050781 C 227.941406 253.898438 232.027344 252.4375 232.027344 252.4375 L 233.980469 254.828125 C 233.980469 254.828125 230.609375 256.015625 224.914062 257.449219 C 219.21875 258.882812 213.214844 260.769531 209.320312 259.199219 C 209.597656 259.96875 211.453125 261.226562 211.453125 261.226562 C 211.453125 261.226562 206.503906 261.613281 204.140625 262.703125 C 201.773438 263.796875 200.246094 266.554688 200.652344 268.445312 C 201.058594 270.335938 203.035156 271.515625 203.035156 271.515625 C 203.035156 271.515625 214.269531 272.304688 215.25 271.976562 C 216.230469 271.648438 218.832031 271.179688 220.28125 268.757812 C 220.28125 268.757812 219.433594 269.894531 219.132812 270.539062 C 218.832031 271.179688 219.277344 270.519531 219.277344 270.519531 C 219.277344 270.519531 223.429688 268.898438 225.707031 268.792969 C 227.988281 268.691406 244.742188 267.402344 246.542969 267.414062 C 248.34375 267.421875 255.425781 265.566406 257.996094 262.65625 C 259.277344 261.570312 259.964844 260.027344 259.964844 260.027344 C 259.964844 260.027344 258.9375 264.574219 257.992188 265.457031 C 257.992188 265.457031 262.808594 261.242188 263.355469 256.765625 C 263.355469 256.765625 263.105469 260.769531 262.648438 261.769531 C 262.191406 262.769531 265.746094 258.761719 266.039062 258.007812 C 266.039062 258.007812 266.015625 259.714844 268.203125 260.308594 C 270.386719 260.90625 281.039062 261.242188 284.269531 260.144531 C 287.503906 259.042969 287.769531 258.6875 287.800781 256.648438 C 287.800781 256.648438 288.953125 257.707031 288.6875 258.582031 C 288.6875 258.582031 289.5625 254.34375 288.445312 251.59375 C 287.324219 248.847656 286.601562 245.859375 286.875 244.824219 C 287.148438 243.789062 289.714844 240.785156 290.796875 236.59375 C 291.878906 232.402344 295.066406 226.632812 294.78125 224.015625 C 294.78125 224.015625 295.527344 226.707031 297.238281 228.65625 C 298.945312 230.605469 300.410156 234.410156 299.222656 237.917969 C 300.460938 236.402344 300.957031 235.105469 300.957031 235.105469 C 300.957031 235.105469 303.089844 244.0625 302.402344 247.4375 C 301.714844 250.8125 300.183594 252.523438 298.644531 253.710938 C 297.101562 254.898438 293.515625 259.144531 298.15625 260.367188 C 302.796875 261.589844 314.863281 259.925781 314.863281 259.925781 Z M 314.863281 259.925781 " fill-opacity="1" fill-rule="nonzero"/></g><path fill="#100f0d" d="M 234.597656 210.207031 C 234.597656 210.207031 233.582031 212.011719 232.660156 213.128906 C 231.742188 214.25 229.105469 213.824219 228.972656 213.824219 C 228.839844 213.824219 232.085938 217.472656 235.289062 217.066406 C 238.488281 216.664062 240.230469 213.824219 240.230469 213.824219 C 236.980469 213.824219 234.597656 210.207031 234.597656 210.207031 Z M 234.597656 210.207031 " fill-opacity="1" fill-rule="nonzero"/><path fill="#ff979f" d="M 237.707031 213.417969 C 237.347656 213.300781 237.042969 213.15625 236.742188 212.921875 C 235.773438 212.179688 235.019531 211.046875 234.46875 209.96875 C 234.421875 211.347656 233.339844 212.4375 232.257812 213.160156 C 232.027344 213.3125 231.496094 213.496094 231.460938 213.753906 C 231.441406 213.886719 231.691406 214.292969 231.734375 214.445312 C 231.808594 214.699219 231.863281 214.964844 231.914062 215.226562 C 232.011719 215.753906 232.070312 216.289062 232.183594 216.816406 C 232.398438 217.84375 232.886719 218.921875 233.847656 219.335938 C 234.320312 219.535156 234.855469 219.550781 235.359375 219.449219 C 235.65625 219.390625 235.949219 219.285156 236.1875 219.097656 C 236.609375 218.761719 236.789062 218.210938 236.902344 217.683594 C 237.148438 216.550781 237.210938 215.339844 237.753906 214.292969 C 237.832031 214.140625 238.117188 213.816406 238.082031 213.636719 C 238.070312 213.582031 238.054688 213.542969 238.035156 213.515625 C 237.96875 213.433594 237.855469 213.464844 237.707031 213.417969 Z M 237.707031 213.417969 " fill-opacity="1" fill-rule="nonzero"/><g clip-path="url(#5242059bdc)"><path fill="#100f0d" d="M 237.171875 155.765625 C 237.109375 155.816406 237.191406 155.902344 237.257812 155.871094 C 239.847656 154.679688 242.5 153.585938 245.265625 152.851562 C 248.027344 152.121094 250.871094 151.789062 253.722656 151.695312 C 253.964844 151.6875 253.953125 151.347656 253.722656 151.324219 C 248.039062 150.71875 241.714844 152.222656 237.171875 155.765625 Z M 219.402344 150.203125 C 219.835938 150.125 220.285156 149.980469 220.726562 150.007812 C 220.902344 150.019531 220.964844 150.238281 220.816406 150.339844 C 220.449219 150.582031 219.992188 150.683594 219.578125 150.839844 C 219.175781 150.992188 218.78125 151.164062 218.375 151.304688 C 217.527344 151.597656 216.699219 151.933594 215.859375 152.25 C 214.183594 152.886719 212.652344 153.71875 211.226562 154.800781 C 211.152344 154.855469 211.046875 154.746094 211.097656 154.671875 C 212.15625 153.175781 213.710938 152.179688 215.332031 151.398438 C 216.160156 151 217.074219 150.746094 217.960938 150.5 C 218.4375 150.371094 218.917969 150.292969 219.402344 150.203125 Z M 229.292969 153.054688 C 231.304688 153.378906 233.257812 153.398438 235.238281 152.886719 C 237.121094 152.402344 238.890625 151.539062 240.441406 150.367188 C 240.496094 150.328125 240.550781 150.410156 240.507812 150.457031 C 237.925781 153.359375 234.058594 154.59375 230.242188 154.136719 C 228.027344 153.871094 225.886719 153.390625 223.640625 153.441406 C 221.40625 153.496094 219.222656 153.84375 217.046875 154.304688 C 216.941406 154.328125 216.863281 154.175781 216.96875 154.121094 C 218.832031 153.171875 220.925781 152.664062 223.003906 152.535156 C 225.132812 152.398438 227.199219 152.722656 229.292969 153.054688 Z M 222.542969 196.699219 C 222.496094 196.71875 222.4375 196.675781 222.46875 196.625 C 223.203125 195.4375 224.78125 194.871094 226.117188 194.859375 C 227.597656 194.839844 229.238281 195.304688 230.285156 196.382812 C 230.363281 196.464844 230.402344 196.585938 230.367188 196.695312 C 230.351562 196.753906 230.339844 196.816406 230.28125 196.851562 C 229.867188 197.101562 229.230469 196.554688 228.859375 196.378906 C 228.1875 196.050781 227.433594 195.847656 226.6875 195.785156 C 225.964844 195.726562 225.265625 195.8125 224.5625 195.960938 C 223.824219 196.117188 223.222656 196.394531 222.542969 196.699219 Z M 208.289062 152.070312 C 208.46875 150.574219 208.726562 149.101562 208.984375 147.621094 C 209.242188 146.125 209.648438 144.628906 210.238281 143.234375 C 210.828125 141.828125 211.574219 140.5 212.53125 139.308594 C 213.496094 138.109375 214.695312 137.082031 215.921875 136.15625 C 216.285156 135.882812 216.769531 136.503906 216.410156 136.789062 C 214.085938 138.636719 212.3125 141.027344 211.121094 143.75 C 210.542969 145.074219 210.070312 146.425781 209.597656 147.789062 C 209.109375 149.191406 208.78125 150.652344 208.375 152.082031 C 208.363281 152.125 208.28125 152.121094 208.289062 152.070312 Z M 217.617188 184.203125 C 217.585938 184.183594 217.597656 184.132812 217.632812 184.132812 C 218.484375 184.195312 219.394531 184.089844 220.21875 183.871094 C 221.019531 183.65625 221.761719 183.265625 222.558594 183.042969 C 222.753906 182.992188 222.839844 183.246094 222.6875 183.351562 C 221.296875 184.339844 219.210938 185.085938 217.617188 184.203125 Z M 233.308594 237.707031 C 232.675781 237.667969 232.0625 237.070312 231.644531 236.636719 C 231.082031 236.054688 230.578125 235.453125 230.164062 234.757812 C 229.71875 234.003906 229.328125 233.199219 229.074219 232.363281 C 228.800781 231.445312 228.664062 230.554688 228.472656 229.625 C 228.453125 229.523438 228.597656 229.445312 228.648438 229.550781 C 229.023438 230.3125 229.464844 231.039062 229.828125 231.8125 C 230.183594 232.574219 230.539062 233.34375 230.941406 234.082031 C 231.3125 234.765625 231.703125 235.484375 232.1875 236.09375 C 232.5625 236.566406 233.15625 237.058594 233.363281 237.628906 C 233.378906 237.664062 233.34375 237.707031 233.308594 237.707031 Z M 219.007812 239.242188 C 218.296875 239.859375 217.503906 240.390625 216.667969 240.824219 C 214.980469 241.699219 213.101562 242.03125 211.214844 241.816406 C 211.164062 241.808594 211.144531 241.730469 211.203125 241.71875 C 212.957031 241.378906 214.667969 240.765625 216.269531 239.960938 C 217.070312 239.558594 217.828125 239.070312 218.53125 238.515625 C 218.863281 238.25 219.183594 237.972656 219.511719 237.703125 C 219.796875 237.472656 219.976562 237.179688 220.363281 237.148438 C 220.4375 237.144531 220.488281 237.214844 220.492188 237.277344 C 220.53125 237.667969 220.230469 237.914062 220.011719 238.203125 C 219.714844 238.59375 219.378906 238.921875 219.007812 239.242188 Z M 236.441406 241.546875 C 235.816406 240.175781 235.261719 238.800781 234.53125 237.480469 C 234.175781 236.832031 233.800781 236.195312 233.417969 235.566406 C 233.015625 234.902344 232.722656 234.191406 232.390625 233.492188 C 232.355469 233.414062 232.445312 233.335938 232.511719 233.398438 C 233.664062 234.488281 234.4375 235.707031 235.085938 237.15625 C 235.703125 238.527344 236.273438 240.023438 236.527344 241.511719 C 236.535156 241.558594 236.464844 241.601562 236.441406 241.546875 Z M 242.628906 179.628906 C 238.328125 178.671875 233.753906 178.867188 229.515625 180.046875 C 228.367188 180.367188 227.253906 180.777344 226.15625 181.246094 C 225.015625 181.734375 223.835938 182.199219 222.742188 182.792969 C 222.625 182.855469 222.535156 182.695312 222.640625 182.617188 C 223.542969 181.945312 224.421875 181.285156 225.433594 180.773438 C 226.320312 180.320312 227.261719 179.953125 228.203125 179.628906 C 230.191406 178.953125 232.261719 178.539062 234.351562 178.351562 C 236.589844 178.148438 238.847656 178.195312 241.070312 178.53125 C 242.074219 178.683594 243.054688 178.902344 244.019531 179.171875 C 245.3125 178.351562 246.601562 177.285156 247.523438 176.078125 C 248.527344 174.761719 249.257812 173.269531 250.289062 171.96875 C 251.265625 170.738281 252.390625 169.632812 253.632812 168.671875 C 254.242188 168.195312 254.875 167.757812 255.539062 167.355469 C 255.855469 167.164062 256.171875 166.980469 256.511719 166.824219 C 256.878906 166.65625 257.125 166.65625 257.519531 166.667969 C 257.5625 166.667969 257.601562 166.71875 257.574219 166.757812 C 257.347656 167.054688 257.210938 167.253906 256.882812 167.464844 C 256.574219 167.664062 256.25 167.84375 255.9375 168.039062 C 255.234375 168.472656 254.558594 168.953125 253.921875 169.476562 C 252.667969 170.507812 251.523438 171.6875 250.5625 172.992188 C 249.566406 174.351562 248.855469 175.914062 247.722656 177.175781 C 246.792969 178.210938 245.714844 178.90625 244.429688 179.292969 C 245.546875 179.625 246.648438 180.03125 247.738281 180.480469 C 248.921875 180.96875 250.117188 181.410156 251.34375 181.769531 C 252.671875 182.152344 253.980469 182.242188 255.347656 182.332031 C 255.453125 182.339844 255.476562 182.480469 255.375 182.511719 C 253.34375 183.125 251.015625 182.5 249.085938 181.8125 C 246.929688 181.050781 244.871094 180.125 242.628906 179.628906 Z M 247.800781 220.511719 C 247.035156 221.082031 246.347656 221.75 245.6875 222.441406 C 244.382812 223.804688 243.070312 225.183594 241.4375 226.164062 C 238.027344 228.207031 233.625 228.34375 230.277344 226.082031 C 228.394531 224.816406 227.074219 222.992188 225.644531 221.273438 C 225.585938 221.203125 225.675781 221.105469 225.746094 221.171875 C 227.136719 222.433594 228.65625 223.664062 230.261719 224.644531 C 231.902344 225.644531 233.582031 226.457031 235.535156 226.519531 C 237.433594 226.582031 239.304688 226.070312 240.96875 225.167969 C 242.59375 224.285156 243.882812 222.976562 245.253906 221.757812 C 246.527344 220.628906 248.074219 219.011719 249.894531 219 C 249.921875 219 249.941406 219.035156 249.917969 219.054688 C 249.238281 219.582031 248.488281 219.996094 247.800781 220.511719 Z M 259.113281 185.191406 C 258.816406 185.078125 258.621094 184.792969 258.328125 184.65625 C 257.964844 184.484375 257.550781 184.417969 257.160156 184.351562 C 256.074219 184.15625 254.898438 184.113281 253.855469 183.734375 C 253.734375 183.6875 253.703125 183.480469 253.855469 183.453125 C 255.101562 183.222656 256.566406 183.503906 257.78125 183.796875 C 258.273438 183.914062 259.601562 184.414062 259.214844 185.148438 C 259.195312 185.179688 259.148438 185.203125 259.113281 185.191406 Z M 215.519531 218.535156 C 215.121094 218.0625 214.847656 217.503906 214.484375 216.996094 C 214.066406 216.414062 213.550781 215.914062 213.027344 215.429688 C 212.007812 214.492188 210.90625 213.613281 210.109375 212.460938 C 209.296875 211.289062 209.0625 209.929688 209.351562 208.539062 C 209.648438 207.113281 210.410156 205.855469 210.996094 204.542969 C 212.242188 201.753906 212.59375 198.683594 212.742188 195.664062 C 212.867188 193.1875 213.621094 190.695312 214.878906 188.546875 C 215.519531 187.453125 216.375 186.449219 217.488281 185.816406 C 218.707031 185.125 220.347656 185.300781 221.417969 184.367188 C 221.523438 184.269531 221.65625 184.410156 221.570312 184.519531 C 220.859375 185.433594 219.777344 185.753906 218.757812 186.1875 C 217.65625 186.652344 216.765625 187.351562 216.078125 188.332031 C 215.429688 189.261719 214.964844 190.300781 214.578125 191.363281 C 214.136719 192.570312 213.777344 193.757812 213.683594 195.050781 C 213.472656 197.941406 213.296875 200.800781 212.328125 203.558594 C 211.433594 206.09375 209.019531 208.984375 210.640625 211.703125 C 211.453125 213.070312 212.792969 213.992188 213.894531 215.09375 C 214.753906 215.949219 215.933594 217.175781 215.730469 218.480469 C 215.714844 218.570312 215.578125 218.601562 215.519531 218.535156 Z M 268.640625 253.722656 C 268.632812 253.785156 268.539062 253.777344 268.523438 253.722656 C 268.332031 253.027344 268.3125 252.285156 268.257812 251.574219 C 268.199219 250.785156 268.121094 250.003906 268.09375 249.210938 C 268.039062 247.671875 268.09375 246.140625 268.203125 244.601562 C 268.300781 243.1875 268.382812 241.714844 268.742188 240.335938 C 269.023438 239.269531 269.386719 238.21875 270.34375 237.601562 C 270.410156 237.558594 270.488281 237.640625 270.449219 237.703125 C 269.820312 238.710938 269.640625 239.808594 269.527344 240.964844 C 269.382812 242.402344 269.195312 243.835938 269.078125 245.277344 C 268.960938 246.695312 268.882812 248.121094 268.816406 249.546875 C 268.785156 250.257812 268.722656 250.972656 268.714844 251.683594 C 268.703125 252.363281 268.742188 253.050781 268.640625 253.722656 Z M 261.34375 162.363281 C 260.117188 163.40625 258.921875 164.523438 257.59375 165.441406 C 256.335938 166.3125 254.886719 166.921875 253.378906 166.359375 C 253.332031 166.339844 253.332031 166.257812 253.390625 166.261719 C 254.300781 166.339844 255.121094 165.832031 255.851562 165.34375 C 256.511719 164.898438 257.148438 164.402344 257.773438 163.910156 C 259.042969 162.910156 260.234375 161.8125 261.527344 160.84375 C 263.472656 159.382812 265.78125 158.417969 268.183594 158.054688 C 267.839844 157.886719 267.507812 157.679688 267.253906 157.566406 C 266.476562 157.222656 265.6875 156.894531 264.890625 156.601562 C 263.285156 156.007812 261.640625 155.519531 259.96875 155.148438 C 258.265625 154.769531 256.546875 154.535156 254.816406 154.328125 C 253.136719 154.125 251.46875 154.011719 249.777344 154.09375 C 249.746094 154.097656 249.738281 154.042969 249.769531 154.039062 C 253.242188 153.449219 256.652344 153.566406 260.089844 154.335938 C 261.855469 154.734375 263.589844 155.253906 265.28125 155.898438 C 266.082031 156.203125 266.871094 156.53125 267.640625 156.898438 C 268.113281 157.125 269.027344 157.410156 269.324219 157.925781 C 269.742188 157.898438 270.160156 157.886719 270.578125 157.894531 C 270.777344 157.898438 270.773438 158.183594 270.578125 158.199219 C 268.859375 158.324219 267.074219 158.726562 265.511719 159.46875 C 263.992188 160.195312 262.621094 161.273438 261.34375 162.363281 Z M 217.296875 209.5625 C 217.230469 210.539062 217.058594 211.507812 216.671875 212.410156 C 216.496094 212.816406 216.292969 213.246094 216.003906 213.582031 C 215.734375 213.894531 215.386719 214.019531 215.015625 214.167969 C 214.925781 214.203125 214.859375 214.085938 214.898438 214.015625 C 215.125 213.601562 215.289062 213.183594 215.539062 212.777344 C 215.804688 212.351562 215.996094 211.890625 216.136719 211.40625 C 216.4375 210.382812 216.476562 209.316406 216.464844 208.257812 C 216.449219 206.105469 216.355469 203.960938 216.554688 201.816406 C 216.746094 199.746094 217.039062 197.671875 217.492188 195.640625 C 217.71875 194.625 217.984375 193.621094 218.300781 192.628906 C 218.613281 191.65625 218.933594 190.542969 219.5625 189.722656 C 219.632812 189.628906 219.761719 189.683594 219.746094 189.800781 C 219.59375 190.878906 219.105469 191.9375 218.796875 192.980469 C 218.484375 194.046875 218.222656 195.125 218.011719 196.214844 C 217.578125 198.421875 217.421875 200.621094 217.324219 202.863281 C 217.226562 205.09375 217.445312 207.339844 217.296875 209.5625 Z M 225.082031 242.199219 C 226.050781 242.863281 227.324219 244.054688 227.542969 245.265625 C 227.5625 245.378906 227.425781 245.480469 227.335938 245.386719 C 226.910156 244.949219 226.613281 244.394531 226.195312 243.945312 C 225.746094 243.464844 225.238281 243.0625 224.691406 242.699219 C 223.617188 241.984375 222.441406 241.523438 221.191406 241.234375 C 221.121094 241.21875 221.140625 241.121094 221.207031 241.117188 C 222.570312 241.015625 223.960938 241.429688 225.082031 242.199219 Z M 217.117188 238.664062 C 217.066406 238.691406 217.007812 238.625 217.054688 238.582031 C 217.996094 237.660156 218.894531 236.679688 219.691406 235.628906 C 220.441406 234.640625 220.894531 233.492188 221.261719 232.320312 C 221.605469 231.21875 221.878906 230.097656 222.308594 229.027344 C 222.628906 228.226562 223 227.328125 223.675781 226.773438 C 223.566406 226.632812 223.460938 226.488281 223.351562 226.347656 C 221.371094 223.753906 219.332031 221.09375 218.183594 218.003906 C 217.886719 217.199219 217.589844 216.332031 217.523438 215.472656 C 217.449219 214.585938 217.488281 213.757812 217.632812 212.878906 C 217.636719 212.847656 217.695312 212.847656 217.703125 212.878906 C 218.039062 214.890625 218.761719 216.929688 219.652344 218.757812 C 220.542969 220.589844 221.703125 222.269531 222.917969 223.902344 C 224.125 225.523438 225.367188 227.121094 226.46875 228.820312 C 227.597656 230.558594 228.386719 232.371094 228.816406 234.398438 C 228.832031 234.453125 228.75 234.496094 228.722656 234.441406 C 228.039062 232.984375 227.128906 231.636719 226.238281 230.308594 C 225.550781 229.289062 224.824219 228.296875 224.082031 227.316406 C 223.730469 228.125 223.269531 228.894531 222.988281 229.742188 C 222.605469 230.894531 222.316406 232.074219 221.921875 233.21875 C 221.539062 234.328125 221.046875 235.378906 220.320312 236.308594 C 219.488281 237.371094 218.308594 238.066406 217.117188 238.664062 Z M 252.316406 188.71875 C 252.304688 188.683594 252.355469 188.660156 252.378906 188.683594 C 253.542969 189.882812 254.125 191.523438 254.53125 193.113281 C 254.976562 194.84375 255.179688 196.636719 255.273438 198.417969 C 255.375 200.386719 255.335938 202.359375 255.335938 204.328125 C 255.339844 206.238281 255.300781 208.21875 255.707031 210.09375 C 255.910156 211.039062 256.242188 211.953125 256.796875 212.75 C 257.289062 213.46875 258.015625 214.089844 258.679688 214.648438 C 258.808594 214.757812 258.664062 214.925781 258.53125 214.902344 C 257.730469 214.777344 257.199219 214.429688 256.664062 213.828125 C 256.175781 213.273438 255.792969 212.636719 255.507812 211.953125 C 254.800781 210.257812 254.714844 208.371094 254.664062 206.5625 C 254.558594 202.5625 254.910156 198.515625 254.171875 194.5625 C 253.789062 192.519531 252.992188 190.667969 252.316406 188.71875 Z M 240.65625 198.742188 C 240.234375 198.726562 239.898438 198.734375 239.496094 198.59375 C 239.117188 198.460938 238.75 198.277344 238.414062 198.054688 C 237.644531 197.546875 237.175781 196.699219 236.617188 195.988281 C 236.523438 195.867188 236.683594 195.691406 236.796875 195.8125 C 237.339844 196.398438 237.957031 196.867188 238.578125 197.367188 C 239.183594 197.851562 239.910156 198.367188 240.6875 198.507812 C 240.820312 198.53125 240.792969 198.75 240.65625 198.742188 Z M 243.179688 194.421875 C 243.988281 194.507812 244.785156 194.738281 245.503906 195.128906 C 246.144531 195.480469 246.824219 195.925781 247.035156 196.65625 C 247.070312 196.78125 246.949219 196.898438 246.828125 196.863281 C 246.226562 196.695312 245.75 196.289062 245.1875 196.027344 C 244.53125 195.722656 243.816406 195.519531 243.089844 195.484375 C 242.378906 195.453125 241.683594 195.574219 240.992188 195.734375 C 240.300781 195.894531 239.660156 196.15625 238.984375 196.371094 C 238.902344 196.398438 238.828125 196.296875 238.871094 196.222656 C 239.722656 194.773438 241.601562 194.257812 243.179688 194.421875 Z M 209.441406 243.921875 C 211.4375 243.480469 213.339844 242.8125 215.261719 242.132812 C 215.339844 242.105469 215.378906 242.214844 215.316406 242.257812 C 212.292969 244.179688 208.53125 244.933594 205.015625 245.292969 C 203.082031 245.492188 201.140625 245.511719 199.207031 245.726562 C 197.28125 245.945312 195.402344 245.957031 193.46875 245.898438 C 191.359375 245.835938 189.222656 245.878906 187.175781 245.316406 C 187.144531 245.308594 187.148438 245.253906 187.1875 245.253906 C 189.023438 245.359375 190.867188 245.390625 192.707031 245.316406 C 194.578125 245.234375 196.453125 245.160156 198.320312 245.015625 C 200.191406 244.867188 202.0625 244.84375 203.933594 244.714844 C 205.789062 244.589844 207.628906 244.324219 209.441406 243.921875 Z M 189.035156 246.753906 C 188.367188 247.160156 187.285156 246.996094 186.550781 246.898438 C 185.605469 246.773438 184.949219 246.449219 184.148438 245.960938 C 184.105469 245.9375 184.132812 245.878906 184.179688 245.886719 C 184.578125 245.972656 185.007812 245.984375 185.414062 246.058594 C 185.855469 246.140625 186.289062 246.253906 186.730469 246.339844 C 187.453125 246.476562 188.367188 246.402344 189.035156 246.722656 C 189.046875 246.730469 189.042969 246.746094 189.035156 246.753906 Z M 213.214844 123.03125 C 212.996094 123.183594 212.765625 123.332031 212.570312 123.515625 C 212.21875 123.835938 211.898438 124.148438 211.523438 124.453125 C 210.761719 125.066406 210.074219 125.765625 209.414062 126.484375 C 208.765625 127.191406 208.140625 127.9375 207.578125 128.714844 C 207.300781 129.101562 206.960938 129.457031 206.695312 129.847656 C 206.410156 130.261719 206.203125 130.71875 205.902344 131.125 C 205.878906 131.15625 205.804688 131.152344 205.8125 131.101562 C 205.875 130.621094 206.035156 130.1875 206.214844 129.738281 C 206.402344 129.265625 206.507812 128.789062 206.746094 128.332031 C 207.234375 127.386719 207.832031 126.527344 208.539062 125.734375 C 209.226562 124.96875 210.007812 124.3125 210.835938 123.699219 C 211.296875 123.355469 211.710938 123.160156 212.234375 122.9375 C 212.480469 122.832031 212.714844 122.703125 212.960938 122.59375 C 213.203125 122.480469 213.28125 122.515625 213.554688 122.496094 C 213.613281 122.492188 213.628906 122.5625 213.597656 122.597656 C 213.441406 122.792969 213.414062 122.890625 213.214844 123.03125 Z M 229.476562 199.511719 C 229.359375 199.589844 229.226562 199.4375 229.289062 199.324219 C 229.613281 198.742188 230.023438 198.21875 230.386719 197.660156 C 230.683594 197.207031 230.984375 196.644531 231.4375 196.332031 C 231.492188 196.292969 231.566406 196.347656 231.570312 196.410156 C 231.59375 197.019531 231.175781 197.667969 230.828125 198.140625 C 230.445312 198.671875 230.03125 199.152344 229.476562 199.511719 Z M 246.386719 209.558594 C 246.414062 209.527344 246.398438 209.460938 246.347656 209.46875 C 245.730469 209.535156 245.207031 210.019531 244.761719 210.421875 C 244.234375 210.90625 243.757812 211.445312 243.242188 211.941406 C 242.019531 213.117188 240.683594 213.726562 238.972656 213.371094 C 237.351562 213.035156 236.039062 211.972656 235.222656 210.550781 C 234.824219 209.851562 234.542969 209.089844 234.34375 208.3125 C 234.234375 207.902344 234.164062 207.484375 234.054688 207.074219 C 233.972656 206.777344 233.84375 206.503906 233.734375 206.222656 C 233.960938 206.289062 234.195312 206.328125 234.425781 206.339844 C 236.285156 206.429688 238.628906 204.167969 238.628906 202.6875 C 238.628906 200.925781 230.648438 200.96875 230.648438 202.6875 C 230.648438 204.011719 231.972656 205.59375 233.488281 206.144531 C 233.40625 206.484375 233.320312 206.808594 233.324219 207.175781 C 233.328125 207.636719 233.425781 208.089844 233.535156 208.535156 C 233.710938 209.242188 233.964844 209.933594 234.304688 210.578125 C 233.882812 211.246094 233.253906 211.855469 232.726562 212.4375 C 232.175781 213.050781 231.605469 213.453125 230.753906 213.492188 C 229.902344 213.53125 229.074219 213.210938 228.273438 212.957031 C 227.464844 212.695312 226.6875 212.488281 225.859375 212.320312 C 225.765625 212.300781 225.722656 212.414062 225.796875 212.46875 C 226.964844 213.285156 228.332031 214.203125 229.792969 214.441406 C 229.839844 215.039062 230.503906 215.5 230.933594 215.84375 C 231.226562 216.082031 231.679688 216.484375 232.113281 216.589844 C 232.210938 217.089844 232.28125 217.582031 232.507812 218.050781 C 232.96875 218.992188 233.851562 219.796875 234.953125 219.792969 C 236.0625 219.789062 236.941406 218.816406 237.261719 217.824219 C 237.40625 217.367188 237.460938 216.878906 237.515625 216.390625 C 238.011719 216.257812 238.476562 215.835938 238.828125 215.519531 C 239.234375 215.152344 239.632812 214.695312 239.867188 214.1875 C 240.925781 214.160156 241.960938 213.800781 242.808594 213.125 C 243.457031 212.613281 243.96875 211.953125 244.507812 211.335938 C 244.796875 211.007812 245.089844 210.679688 245.414062 210.382812 C 245.730469 210.097656 246.101562 209.871094 246.386719 209.558594 Z M 231.585938 214.34375 C 231.699219 214.933594 231.867188 215.507812 232.007812 216.089844 C 231.722656 215.898438 231.441406 215.699219 231.175781 215.480469 C 230.824219 215.1875 230.511719 214.722656 230.109375 214.480469 C 230.480469 214.515625 230.859375 214.503906 231.242188 214.433594 C 231.359375 214.414062 231.476562 214.382812 231.585938 214.34375 Z M 237.863281 213.832031 C 237.34375 214.695312 236.976562 215.605469 236.796875 216.605469 C 236.617188 217.59375 236.167969 219.144531 234.847656 218.972656 C 232.664062 218.691406 232.976562 215.515625 231.691406 214.308594 C 233.105469 213.789062 234.125 212.175781 234.410156 210.769531 C 234.445312 210.832031 234.484375 210.898438 234.519531 210.960938 C 234.546875 211.003906 234.574219 211.046875 234.601562 211.089844 C 234.496094 211.804688 234.636719 212.601562 234.675781 213.296875 C 234.71875 214.132812 234.6875 215.046875 234.972656 215.847656 C 234.996094 215.917969 235.117188 215.933594 235.132812 215.847656 C 235.304688 214.984375 235.128906 214.054688 235.050781 213.1875 C 235 212.671875 235 212.089844 234.910156 211.546875 C 235.664062 212.570312 236.671875 213.382812 237.863281 213.832031 Z M 239.636719 214.183594 C 239.277344 214.570312 238.929688 214.957031 238.503906 215.285156 C 238.234375 215.492188 237.898438 215.648438 237.59375 215.839844 C 237.601562 215.785156 237.609375 215.726562 237.617188 215.671875 C 237.730469 215.074219 237.882812 214.488281 238.082031 213.914062 C 238.175781 213.945312 238.273438 213.972656 238.367188 214 C 238.785156 214.117188 239.210938 214.175781 239.636719 214.183594 Z M 261.3125 224.324219 C 261.226562 224.40625 261.101562 224.304688 261.15625 224.203125 C 261.765625 223.003906 262.441406 221.855469 262.890625 220.574219 C 263.300781 219.410156 263.578125 218.148438 264.101562 217.039062 C 264.125 216.992188 264.203125 217.003906 264.214844 217.050781 C 264.460938 218.308594 264.074219 219.710938 263.578125 220.863281 C 263.042969 222.109375 262.316406 223.390625 261.3125 224.324219 Z M 260.074219 262.769531 C 260.835938 261.824219 261.460938 260.777344 261.964844 259.675781 C 262.46875 258.578125 262.828125 257.414062 263.042969 256.222656 C 263.253906 255.046875 263.277344 253.847656 263.542969 252.683594 C 263.554688 252.628906 263.625 252.640625 263.644531 252.683594 C 264.125 253.851562 264.050781 255.132812 263.847656 256.355469 C 263.644531 257.625 263.257812 258.859375 262.734375 260.03125 C 262.226562 261.171875 261.550781 262.242188 260.765625 263.21875 C 260.023438 264.144531 259.023438 265.136719 257.886719 265.558594 C 257.804688 265.589844 257.707031 265.476562 257.765625 265.398438 C 258.464844 264.472656 259.347656 263.675781 260.074219 262.769531 Z M 223.820312 268.589844 C 224.980469 268.230469 226.191406 268.15625 227.398438 268.113281 C 230.257812 268.011719 233.113281 267.816406 235.96875 267.636719 C 238.917969 267.457031 241.875 267.335938 244.816406 267.0625 C 247.589844 266.808594 250.382812 266.359375 252.976562 265.308594 C 254.277344 264.78125 255.523438 264.09375 256.640625 263.242188 C 257.71875 262.417969 258.519531 261.304688 259.585938 260.484375 C 259.714844 260.386719 259.882812 260.550781 259.847656 260.6875 C 259.542969 261.8125 258.589844 262.738281 257.734375 263.484375 C 256.84375 264.261719 255.863281 264.929688 254.824219 265.488281 C 252.433594 266.769531 249.796875 267.46875 247.125 267.863281 C 244.25 268.289062 241.332031 268.410156 238.4375 268.597656 C 235.410156 268.792969 232.390625 269.066406 229.363281 269.238281 C 226.507812 269.402344 223.496094 269.125 220.90625 270.574219 C 220.835938 270.613281 220.769531 270.523438 220.824219 270.46875 C 221.664062 269.558594 222.628906 268.957031 223.820312 268.589844 Z M 263.390625 211.046875 C 263.011719 211.703125 262.792969 212.433594 262.4375 213.09375 C 261.917969 214.0625 261.171875 215.046875 259.988281 215.113281 C 259.960938 215.117188 259.957031 215.074219 259.984375 215.066406 C 261.285156 214.765625 261.890625 213.265625 262.25 212.121094 C 262.410156 211.609375 262.523438 211.0625 262.796875 210.59375 C 263.0625 210.140625 263.472656 209.8125 263.851562 209.457031 C 264.613281 208.757812 265.453125 208.089844 266.066406 207.25 C 266.792969 206.253906 266.992188 205.082031 266.710938 203.886719 C 266.167969 201.5625 264.269531 199.886719 262.921875 198.011719 C 261.558594 196.117188 260.492188 194 259.777344 191.777344 C 259.410156 190.625 259.15625 189.441406 258.816406 188.28125 C 258.472656 187.128906 257.910156 186.164062 257.355469 185.113281 C 257.34375 185.09375 257.363281 185.078125 257.382812 185.085938 C 258.3125 185.519531 258.867188 186.523438 259.246094 187.441406 C 259.675781 188.476562 259.925781 189.5625 260.230469 190.636719 C 260.953125 193.171875 262.105469 195.566406 263.660156 197.695312 C 265.097656 199.671875 267.0625 201.449219 267.507812 203.964844 C 267.703125 205.078125 267.574219 206.207031 267 207.195312 C 266.699219 207.714844 266.308594 208.167969 265.886719 208.589844 C 265.898438 208.691406 265.910156 208.792969 265.925781 208.886719 C 266.019531 209.386719 266.082031 209.898438 266.15625 210.402344 C 266.296875 211.386719 266.492188 212.363281 266.601562 213.355469 C 266.800781 215.125 266.6875 216.882812 265.773438 218.457031 C 265.6875 218.605469 265.441406 218.507812 265.492188 218.339844 C 266.035156 216.570312 265.8125 214.652344 265.558594 212.851562 C 265.429688 211.933594 265.265625 211.007812 265.203125 210.085938 C 265.183594 209.792969 265.183594 209.515625 265.199219 209.234375 C 265.074219 209.347656 264.949219 209.460938 264.828125 209.574219 C 264.328125 210.027344 263.726562 210.460938 263.390625 211.046875 Z M 287.476562 252.421875 C 287.386719 252.25 287.625 252.117188 287.734375 252.269531 C 288.445312 253.257812 288.960938 254.230469 289.152344 255.445312 C 289.328125 256.5625 289.273438 257.609375 288.808594 258.648438 C 288.75 258.78125 288.542969 258.710938 288.546875 258.578125 C 288.574219 256.5 288.496094 254.292969 287.476562 252.421875 Z M 219 270.054688 C 219.261719 269.660156 219.503906 269.253906 219.761719 268.859375 C 219.988281 268.515625 220.25 268.171875 220.542969 267.878906 C 220.851562 267.574219 221.246094 267.414062 221.632812 267.226562 C 221.75 267.171875 221.835938 267.324219 221.734375 267.402344 C 221.34375 267.691406 221.074219 268.175781 220.820312 268.574219 C 220.582031 268.945312 220.371094 269.339844 220.148438 269.722656 C 219.945312 270.066406 219.734375 270.414062 219.476562 270.71875 C 219.152344 271.101562 218.828125 271.207031 218.40625 271.425781 C 218.300781 271.480469 218.203125 271.351562 218.28125 271.261719 C 218.566406 270.921875 218.753906 270.429688 219 270.054688 Z M 265.574219 251.34375 C 265.5625 250.378906 265.546875 249.429688 265.738281 248.480469 C 265.75 248.414062 265.855469 248.394531 265.882812 248.460938 C 266.667969 250.269531 266.570312 252.480469 266.476562 254.414062 C 266.433594 255.289062 266.359375 256.179688 266.230469 257.058594 C 266.234375 257.054688 266.238281 257.054688 266.242188 257.050781 C 266.683594 256.757812 267.152344 256.511719 267.621094 256.273438 C 268.609375 255.777344 269.625 255.339844 270.640625 254.910156 C 272.714844 254.039062 274.832031 253.25 276.890625 252.347656 C 277.015625 252.289062 277.179688 252.449219 277.050781 252.554688 C 276.21875 253.246094 275.371094 253.882812 274.398438 254.363281 C 273.40625 254.855469 272.398438 255.300781 271.378906 255.726562 C 270.351562 256.160156 269.320312 256.585938 268.3125 257.058594 C 267.804688 257.300781 267.304688 257.558594 266.796875 257.796875 C 266.554688 257.914062 266.300781 258.054688 266.042969 258.132812 C 265.871094 258.957031 265.636719 259.761719 265.316406 260.53125 C 265.265625 260.648438 265.074219 260.648438 265.078125 260.5 C 265.121094 258.46875 265.421875 256.445312 265.515625 254.414062 C 265.566406 253.394531 265.585938 252.367188 265.574219 251.34375 Z M 267.640625 260.132812 C 268.050781 260 268.195312 259.929688 268.648438 259.992188 C 269.175781 260.066406 269.667969 260.246094 270.203125 260.292969 C 271.082031 260.375 271.976562 260.367188 272.863281 260.421875 C 274.671875 260.539062 276.492188 260.566406 278.308594 260.488281 C 280.128906 260.40625 281.949219 260.1875 283.746094 259.898438 C 284.558594 259.769531 285.429688 259.660156 286.160156 259.257812 C 287.011719 258.789062 287.34375 258.054688 287.445312 257.132812 C 287.453125 257.046875 287.550781 257.019531 287.601562 257.089844 C 287.984375 257.59375 287.828125 258.375 287.511719 258.875 C 287.105469 259.53125 286.414062 259.914062 285.695312 260.152344 C 284.777344 260.453125 283.773438 260.558594 282.820312 260.6875 C 281.800781 260.828125 280.777344 260.933594 279.75 261.011719 C 277.679688 261.167969 275.605469 261.234375 273.53125 261.164062 C 272.5 261.128906 271.515625 261.027344 270.496094 260.871094 C 269.953125 260.785156 269.425781 260.777344 268.878906 260.75 C 268.652344 260.742188 268.453125 260.726562 268.234375 260.667969 C 267.894531 260.582031 267.917969 260.523438 267.621094 260.304688 C 267.550781 260.257812 267.558594 260.160156 267.640625 260.132812 Z M 199.5 256.441406 C 202.074219 255.929688 204.699219 256.003906 207.3125 256.042969 C 212.648438 256.121094 218.042969 255.621094 223.289062 254.664062 C 224.734375 254.398438 226.171875 254.078125 227.589844 253.683594 C 228.878906 253.320312 230.144531 252.800781 231.441406 252.464844 C 231.359375 252.339844 231.277344 252.210938 231.199219 252.085938 C 230.429688 250.828125 229.953125 249.464844 229.550781 248.058594 C 229.160156 246.675781 228.78125 245.277344 228.230469 243.949219 C 227.960938 243.296875 227.628906 242.679688 227.28125 242.0625 C 226.910156 241.40625 226.53125 240.675781 226.085938 240.070312 C 225.996094 239.949219 226.1875 239.824219 226.289062 239.914062 C 226.855469 240.40625 227.363281 240.824219 227.804688 241.445312 C 228.203125 242 228.519531 242.609375 228.800781 243.230469 C 229.371094 244.484375 229.773438 245.800781 230.15625 247.121094 C 230.566406 248.527344 230.964844 249.875 231.738281 251.132812 C 232.132812 251.777344 232.585938 252.386719 233.074219 252.964844 C 233.410156 253.363281 233.6875 253.804688 233.980469 254.234375 C 234.8125 253.863281 235.625 253.445312 236.414062 252.972656 C 237.324219 252.421875 238.175781 251.796875 238.972656 251.09375 C 239.753906 250.410156 240.421875 249.621094 241.175781 248.910156 C 241.332031 248.765625 241.535156 248.945312 241.457031 249.125 C 240.71875 250.792969 239.160156 252.085938 237.695312 253.105469 C 236.128906 254.199219 234.398438 255.046875 232.613281 255.726562 C 230.664062 256.46875 228.652344 256.992188 226.628906 257.496094 C 224.300781 258.074219 221.941406 258.675781 219.574219 259.082031 C 218.328125 259.292969 217.011719 259.074219 215.769531 258.898438 C 214.378906 258.703125 212.980469 258.230469 211.566406 258.300781 C 211.539062 258.300781 211.542969 258.261719 211.566406 258.261719 C 212.703125 258.148438 213.8125 258.222656 214.945312 258.316406 C 216.140625 258.417969 217.335938 258.417969 218.53125 258.3125 C 219.660156 258.214844 220.785156 257.871094 221.898438 257.648438 C 223.035156 257.421875 224.167969 257.164062 225.300781 256.898438 C 228.058594 256.242188 230.84375 255.558594 233.457031 254.460938 C 233.113281 254.269531 232.78125 254.054688 232.507812 253.789062 C 232.191406 253.484375 231.902344 253.125 231.636719 252.753906 C 230.703125 253.296875 229.636719 253.648438 228.625 253.992188 C 227.398438 254.410156 226.148438 254.761719 224.890625 255.074219 C 222.386719 255.695312 219.835938 256.089844 217.273438 256.371094 C 214.757812 256.644531 212.222656 256.824219 209.695312 256.886719 C 207.1875 256.949219 204.683594 256.855469 202.183594 257.054688 C 200.777344 257.164062 199.386719 257.378906 198.039062 257.804688 C 196.90625 258.164062 195.335938 258.605469 194.820312 259.808594 C 194.796875 259.867188 194.714844 259.828125 194.710938 259.777344 C 194.496094 257.546875 197.894531 256.757812 199.5 256.441406 Z M 222.886719 126.167969 C 215.976562 128.820312 209.808594 133.925781 205.726562 140.078125 C 205.160156 140.9375 204.558594 141.789062 204.058594 142.6875 C 203.546875 143.609375 203.066406 144.550781 202.59375 145.492188 C 202.542969 145.589844 202.386719 145.523438 202.414062 145.417969 C 203.503906 141.792969 205.496094 138.351562 207.941406 135.480469 C 210.457031 132.523438 213.4375 130.058594 216.800781 128.121094 C 218.6875 127.035156 220.648438 126.21875 222.710938 125.53125 C 223.117188 125.394531 223.273438 126.019531 222.886719 126.167969 Z M 176.511719 249.089844 C 177.820312 247.980469 179.429688 247.257812 181.105469 246.910156 C 183.167969 246.480469 185.1875 247.164062 187.226562 247.414062 C 187.269531 247.421875 187.292969 247.496094 187.238281 247.503906 C 186.835938 247.558594 186.472656 247.632812 186.0625 247.601562 C 185.609375 247.570312 185.160156 247.507812 184.710938 247.460938 C 183.890625 247.375 183.042969 247.3125 182.21875 247.378906 C 180.601562 247.515625 178.917969 248.199219 177.609375 249.140625 C 176.355469 250.042969 175.128906 251.410156 175.148438 253.042969 C 175.160156 253.832031 175.460938 254.570312 175.867188 255.234375 C 175.960938 255.382812 176.050781 255.53125 176.148438 255.679688 C 176.214844 254.320312 177.042969 253 177.992188 252.089844 C 178.078125 252.007812 178.207031 252.132812 178.125 252.21875 C 177.128906 253.265625 176.429688 254.84375 176.816406 256.300781 C 177.273438 258.035156 179.117188 258.417969 180.675781 258.507812 C 181.238281 258.542969 181.796875 258.566406 182.359375 258.589844 C 181.980469 258.292969 181.691406 257.859375 181.480469 257.441406 C 180.914062 256.320312 180.886719 254.910156 181.125 253.703125 C 181.144531 253.601562 181.304688 253.605469 181.328125 253.703125 C 181.574219 254.785156 181.605469 255.886719 182.027344 256.933594 C 182.21875 257.402344 182.507812 257.8125 182.851562 258.179688 C 182.992188 258.332031 183.21875 258.460938 183.371094 258.621094 C 184.382812 258.652344 185.394531 258.667969 186.402344 258.6875 C 187.496094 258.710938 188.59375 258.734375 189.6875 258.761719 C 190.515625 258.78125 191.429688 258.886719 192.222656 258.605469 C 193.105469 258.292969 193.660156 257.519531 194.355469 256.945312 C 194.917969 256.476562 195.675781 256.195312 196.410156 256.214844 C 196.441406 256.214844 196.453125 256.261719 196.417969 256.269531 C 195.960938 256.371094 195.496094 256.46875 195.101562 256.746094 C 194.746094 257 194.429688 257.328125 194.132812 257.644531 C 193.542969 258.269531 193.058594 258.882812 192.214844 259.164062 C 191.363281 259.453125 190.464844 259.421875 189.574219 259.429688 C 188.328125 259.4375 187.082031 259.441406 185.835938 259.421875 C 184.679688 259.398438 183.53125 259.339844 182.378906 259.324219 C 181.488281 259.308594 180.59375 259.3125 179.710938 259.191406 C 178.238281 258.992188 176.703125 258.273438 176.265625 256.769531 C 175.191406 255.933594 174.472656 254.722656 174.371094 253.304688 C 174.257812 251.621094 175.277344 250.136719 176.511719 249.089844 Z M 207.324219 270.886719 C 206.617188 269.949219 206.4375 268.703125 206.792969 267.585938 C 206.960938 267.054688 207.230469 266.480469 207.617188 266.070312 C 208.019531 265.640625 208.542969 265.386719 209.039062 265.113281 C 209.109375 265.074219 209.195312 265.175781 209.128906 265.226562 C 208.378906 265.808594 207.894531 266.929688 207.652344 267.824219 C 207.386719 268.796875 207.316406 269.8125 207.503906 270.8125 C 207.523438 270.921875 207.390625 270.972656 207.324219 270.886719 Z M 212.390625 260.621094 C 211.304688 260.507812 210.023438 260.082031 209.273438 259.242188 C 209.230469 259.195312 209.273438 259.121094 209.335938 259.136719 C 210.394531 259.351562 211.414062 259.71875 212.488281 259.882812 C 213.027344 259.960938 213.570312 259.992188 214.113281 259.988281 C 214.609375 259.984375 215.140625 259.925781 215.625 260.007812 C 215.632812 260.007812 215.632812 260.015625 215.628906 260.019531 C 215.246094 260.339844 214.679688 260.492188 214.195312 260.570312 C 213.601562 260.671875 212.988281 260.683594 212.390625 260.621094 Z M 202.183594 267.210938 C 202.355469 266.582031 202.632812 265.910156 203.058594 265.410156 C 203.277344 265.148438 203.566406 264.894531 203.824219 264.671875 C 204.105469 264.425781 204.46875 264.292969 204.78125 264.09375 C 204.839844 264.058594 204.90625 264.144531 204.855469 264.1875 C 204.441406 264.558594 204.050781 265.160156 203.820312 265.65625 C 203.558594 266.222656 203.257812 266.761719 203.082031 267.367188 C 202.695312 268.707031 202.703125 270.070312 203.054688 271.40625 C 204.289062 271.417969 205.515625 271.339844 206.75 271.371094 C 208.203125 271.410156 209.65625 271.515625 211.109375 271.570312 C 213.636719 271.664062 216.800781 271.988281 218.382812 269.578125 C 218.472656 269.4375 218.660156 269.53125 218.640625 269.6875 C 218.46875 270.832031 217.460938 271.578125 216.433594 271.960938 C 215.046875 272.480469 213.457031 272.335938 212.003906 272.347656 C 210.363281 272.355469 208.722656 272.371094 207.085938 272.261719 C 205.492188 272.152344 203.953125 271.769531 202.386719 271.507812 C 202.324219 271.496094 202.339844 271.394531 202.402344 271.394531 C 202.570312 271.402344 202.738281 271.40625 202.902344 271.40625 C 202.089844 270.195312 201.792969 268.625 202.183594 267.210938 Z M 202.070312 263.636719 C 203.164062 262.648438 204.523438 262.089844 205.949219 261.761719 C 207.351562 261.4375 208.949219 261.109375 210.390625 261.355469 C 210.457031 261.367188 210.453125 261.472656 210.390625 261.488281 C 209.148438 261.785156 207.855469 261.816406 206.609375 262.128906 C 205.378906 262.441406 204.136719 262.972656 203.113281 263.730469 C 202.117188 264.472656 201.347656 265.484375 201.089844 266.714844 C 200.953125 267.34375 200.941406 268.046875 201.09375 268.675781 C 201.167969 268.976562 201.304688 269.257812 201.449219 269.53125 C 201.582031 269.78125 201.734375 270.148438 201.921875 270.355469 C 201.984375 270.421875 201.925781 270.5625 201.824219 270.523438 C 201.464844 270.390625 201.265625 270.386719 200.980469 270.105469 C 200.75 269.875 200.589844 269.597656 200.46875 269.292969 C 200.203125 268.605469 200.171875 267.816406 200.253906 267.089844 C 200.40625 265.746094 201.070312 264.539062 202.070312 263.636719 Z M 301.28125 239.082031 C 301.183594 238.308594 301.0625 237.539062 300.949219 236.769531 C 300.847656 236.09375 300.589844 235.222656 300.84375 234.558594 C 300.855469 234.527344 300.894531 234.511719 300.921875 234.539062 C 301.441406 235.015625 301.550781 235.902344 301.683594 236.558594 C 301.855469 237.394531 301.96875 238.242188 302.085938 239.085938 C 302.320312 240.765625 302.527344 242.449219 302.761719 244.128906 C 302.945312 245.441406 302.988281 246.78125 302.707031 248.085938 C 302.574219 248.6875 302.378906 249.285156 302.066406 249.816406 C 301.707031 250.4375 301.175781 250.890625 300.632812 251.351562 C 300.59375 251.382812 300.523438 251.34375 300.558594 251.292969 C 301.222656 250.257812 301.714844 248.90625 301.945312 247.695312 C 302.203125 246.332031 302.046875 244.96875 301.851562 243.609375 C 301.632812 242.101562 301.46875 240.589844 301.28125 239.082031 Z M 293.351562 207.953125 C 293.527344 209.074219 293.753906 210.183594 293.9375 211.300781 C 294.035156 211.878906 294.117188 212.464844 294.230469 213.039062 C 294.328125 213.546875 294.480469 214.050781 294.511719 214.570312 C 294.515625 214.640625 294.414062 214.660156 294.382812 214.605469 C 294.09375 214.128906 293.945312 213.578125 293.757812 213.054688 C 293.542969 212.46875 293.328125 211.890625 293.148438 211.292969 C 292.785156 210.109375 292.570312 208.878906 292.378906 207.65625 C 292.050781 205.574219 291.640625 203.054688 292.84375 201.191406 C 292.875 201.144531 292.960938 201.171875 292.941406 201.234375 C 292.59375 202.289062 292.714844 203.449219 292.859375 204.53125 C 293.011719 205.671875 293.171875 206.8125 293.351562 207.953125 Z M 318.503906 219.832031 C 317.050781 217.578125 316.285156 215.085938 315.902344 212.445312 C 315.523438 209.847656 315.269531 207.214844 315.316406 204.589844 C 315.410156 199.390625 316.285156 193.902344 313.644531 189.140625 C 312.976562 187.933594 312.160156 186.816406 311.402344 185.667969 C 310.625 184.492188 310.035156 183.289062 309.605469 181.949219 C 309.582031 181.871094 309.707031 181.816406 309.738281 181.890625 C 310.734375 184.171875 312.539062 186.058594 313.882812 188.132812 C 315.292969 190.3125 316.058594 192.726562 316.332031 195.300781 C 316.601562 197.863281 316.429688 200.441406 316.332031 203.007812 C 316.234375 205.667969 316.394531 208.273438 316.667969 210.917969 C 316.980469 213.902344 317.449219 217.003906 318.570312 219.804688 C 318.585938 219.84375 318.523438 219.867188 318.503906 219.832031 Z M 315.265625 187.601562 C 314.828125 187.074219 314.324219 186.628906 313.867188 186.117188 C 313.441406 185.644531 313.070312 185.125 312.691406 184.613281 C 311.921875 183.566406 311.175781 182.492188 310.496094 181.382812 C 309.078125 179.058594 308.003906 176.570312 306.804688 174.132812 C 305.695312 171.871094 304.34375 169.789062 302.613281 167.953125 C 300.984375 166.230469 299.121094 164.742188 297.132812 163.453125 C 294.902344 162.007812 292.539062 160.707031 290.195312 159.457031 C 290.046875 159.375 290.148438 159.128906 290.308594 159.183594 C 292.605469 159.957031 294.757812 160.898438 296.828125 162.171875 C 298.8125 163.394531 300.695312 164.796875 302.378906 166.414062 C 304.132812 168.097656 305.648438 170.027344 306.808594 172.167969 C 308.109375 174.570312 309.101562 177.132812 310.386719 179.546875 C 311.09375 180.875 311.832031 182.1875 312.625 183.46875 C 313.039062 184.136719 313.472656 184.789062 313.910156 185.441406 C 314.386719 186.152344 314.746094 186.921875 315.273438 187.59375 C 315.273438 187.597656 315.269531 187.605469 315.265625 187.601562 Z M 314.75 215.460938 C 314.714844 215.335938 314.902344 215.253906 314.964844 215.371094 C 315.609375 216.574219 316.386719 217.730469 317.121094 218.878906 C 317.859375 220.03125 318.679688 221.128906 319.269531 222.363281 C 319.296875 222.425781 319.234375 222.503906 319.167969 222.464844 C 316.765625 220.9375 315.523438 218.085938 314.75 215.460938 Z M 287.476562 157.261719 C 286.375 156.304688 285.273438 155.363281 284.234375 154.332031 C 283.222656 153.332031 282.242188 152.296875 281.261719 151.261719 C 279.277344 149.167969 277.308594 147.0625 275.320312 144.972656 C 271.425781 140.886719 267.296875 136.949219 262.253906 134.3125 C 257.335938 131.742188 251.96875 130.183594 246.472656 129.496094 C 240.902344 128.796875 235.152344 128.910156 229.65625 130.078125 C 226.5625 130.738281 223.566406 131.738281 220.683594 133.039062 C 219.222656 133.699219 217.78125 134.425781 216.382812 135.210938 C 215.714844 135.589844 215.046875 135.984375 214.359375 136.324219 C 213.597656 136.699219 212.933594 137.128906 212.242188 137.628906 C 212.109375 137.726562 211.949219 137.511719 212.066406 137.398438 C 213.121094 136.40625 214.136719 135.363281 215.285156 134.480469 C 216.453125 133.589844 217.742188 132.816406 219.050781 132.148438 C 221.632812 130.832031 224.378906 129.835938 227.179688 129.105469 C 232.714844 127.671875 238.523438 127.316406 244.214844 127.800781 C 249.90625 128.289062 255.535156 129.695312 260.703125 132.148438 C 265.890625 134.613281 270.339844 138.3125 274.292969 142.429688 C 278.875 147.195312 282.804688 152.574219 287.640625 157.097656 C 287.753906 157.203125 287.589844 157.363281 287.476562 157.261719 Z M 297.195312 260.132812 C 297.601562 260 297.746094 259.929688 298.199219 259.992188 C 298.726562 260.066406 299.21875 260.246094 299.753906 260.292969 C 300.636719 260.375 301.527344 260.367188 302.414062 260.421875 C 304.226562 260.539062 306.046875 260.566406 307.859375 260.488281 C 309.679688 260.40625 311.5 260.1875 313.300781 259.898438 C 314.109375 259.769531 314.984375 259.660156 315.710938 259.257812 C 316.5625 258.789062 316.894531 258.054688 316.996094 257.132812 C 317.007812 257.046875 317.101562 257.019531 317.15625 257.089844 C 317.535156 257.59375 317.378906 258.375 317.066406 258.875 C 316.65625 259.53125 315.964844 259.914062 315.25 260.152344 C 314.328125 260.453125 313.328125 260.558594 312.371094 260.6875 C 311.351562 260.828125 310.328125 260.933594 309.300781 261.011719 C 307.230469 261.167969 305.15625 261.234375 303.082031 261.164062 C 302.050781 261.128906 301.066406 261.027344 300.046875 260.871094 C 299.507812 260.785156 298.976562 260.777344 298.429688 260.75 C 298.203125 260.742188 298.003906 260.726562 297.785156 260.667969 C 297.445312 260.582031 297.472656 260.523438 297.171875 260.304688 C 297.101562 260.257812 297.109375 260.160156 297.195312 260.132812 Z M 297.652344 253.738281 C 298.460938 253.089844 299.417969 252.6875 300.339844 252.246094 C 300.820312 252.011719 301.304688 251.753906 301.675781 251.359375 C 302.0625 250.953125 302.230469 250.449219 302.554688 250.011719 C 302.574219 249.988281 302.613281 249.988281 302.621094 250.019531 C 302.839844 250.757812 302.167969 251.507812 301.695312 251.992188 C 300.960938 252.738281 300.09375 253.210938 299.195312 253.730469 C 297.417969 254.757812 296.242188 256.554688 295.917969 258.59375 C 295.910156 258.652344 295.8125 258.652344 295.800781 258.59375 C 295.625 257.699219 295.609375 256.886719 295.964844 256.023438 C 296.332031 255.140625 296.90625 254.335938 297.652344 253.738281 Z M 300.957031 254.292969 C 300.960938 254.292969 300.960938 254.300781 300.957031 254.300781 C 300.953125 254.300781 300.953125 254.292969 300.957031 254.292969 Z M 316.398438 251.492188 C 316.019531 250.316406 315.660156 249.128906 315.480469 247.902344 C 315.300781 246.664062 315.210938 245.410156 315.179688 244.15625 C 315.109375 241.570312 315.304688 238.976562 315.585938 236.40625 C 315.871094 233.792969 316.371094 231.199219 316.566406 228.574219 C 316.675781 227.132812 316.660156 225.691406 316.425781 224.261719 C 316.207031 222.929688 315.769531 221.632812 315.367188 220.351562 C 315.359375 220.332031 315.382812 220.324219 315.390625 220.332031 C 317.109375 221.984375 317.457031 224.613281 317.492188 226.894531 C 317.53125 229.644531 316.972656 232.355469 316.640625 235.074219 C 316.015625 240.238281 315.597656 245.625 316.960938 250.703125 C 317.671875 253.355469 318.476562 256.125 318.007812 258.894531 C 318.003906 258.925781 317.949219 258.917969 317.953125 258.886719 C 318.175781 256.289062 317.179688 253.917969 316.398438 251.492188 Z M 292.40625 212.78125 C 293.117188 213.925781 293.59375 215.074219 294.011719 216.351562 C 294.433594 217.636719 294.667969 219 294.851562 220.332031 C 295.046875 221.757812 295.203125 223.289062 295.152344 224.792969 C 295.523438 225.746094 295.976562 226.6875 296.546875 227.519531 C 297.195312 228.46875 298.023438 229.265625 298.714844 230.183594 C 300.1875 232.136719 300.382812 234.855469 299.5 237.105469 C 299.460938 237.207031 299.269531 237.207031 299.285156 237.074219 C 299.453125 235.722656 299.417969 234.4375 299.140625 233.105469 C 298.886719 231.875 298.324219 230.945312 297.53125 229.988281 C 296.859375 229.175781 296.125 228.394531 295.644531 227.449219 C 295.402344 226.964844 295.210938 226.472656 295.0625 225.960938 C 294.972656 226.734375 294.8125 227.484375 294.558594 228.207031 C 294.515625 228.328125 294.351562 228.300781 294.335938 228.175781 C 294.191406 226.886719 294.257812 225.570312 294.171875 224.277344 C 294.085938 223.003906 294.066406 221.734375 293.902344 220.460938 C 293.570312 217.878906 292.859375 215.359375 292.324219 212.816406 C 292.3125 212.765625 292.378906 212.738281 292.40625 212.78125 Z M 286.6875 246.167969 C 285.175781 248.410156 283.398438 250.464844 281.359375 252.261719 C 280.308594 253.1875 279.195312 254.0625 278.007812 254.804688 C 276.757812 255.582031 275.46875 256.125 274.070312 256.574219 C 273.992188 256.601562 273.945312 256.484375 274.015625 256.441406 C 278.347656 253.828125 282.347656 250.6875 285.335938 246.566406 C 288.585938 242.085938 290.617188 236.894531 291.730469 231.496094 C 292.390625 228.28125 292.621094 225.042969 292.773438 221.769531 C 292.773438 221.746094 292.8125 221.746094 292.8125 221.769531 C 293.070312 224.714844 292.902344 227.726562 292.5 230.648438 C 292.09375 233.601562 291.371094 236.484375 290.289062 239.261719 C 289.425781 241.472656 288.351562 243.597656 287.070312 245.585938 C 287.058594 246.269531 287.296875 246.945312 287.519531 247.582031 C 287.785156 248.355469 288.058594 249.121094 288.371094 249.871094 C 288.960938 251.273438 289.5625 252.671875 290.140625 254.078125 C 290.191406 254.195312 290 254.304688 289.921875 254.207031 C 288.851562 252.878906 288.078125 251.449219 287.484375 249.851562 C 287.03125 248.636719 286.617188 247.421875 286.6875 246.167969 Z M 307.589844 250.535156 C 307.613281 250.46875 307.703125 250.5 307.691406 250.566406 C 307.515625 251.765625 307.117188 252.753906 306.308594 253.675781 C 305.539062 254.550781 304.558594 255.167969 303.429688 255.460938 C 303.367188 255.476562 303.324219 255.382812 303.382812 255.351562 C 305.28125 254.351562 306.917969 252.597656 307.589844 250.535156 Z M 307.589844 250.535156 " fill-opacity="1" fill-rule="nonzero"/></g><g clip-path="url(#c2a2a2852f)"><path fill="#aa6535" d="M 67.757812 175.042969 C 65.355469 176.570312 63.332031 178.640625 61.933594 181.414062 C 60.1875 184.875 59.738281 188.917969 59.503906 192.855469 C 59.007812 201.21875 60.589844 207.878906 61.726562 216.164062 C 62.777344 223.847656 66.417969 233.164062 73.585938 233.128906 C 75.019531 233.125 76.496094 232.664062 77.539062 231.597656 C 80.402344 228.675781 78.578125 223.429688 76.121094 220.105469 C 73.660156 216.777344 72.917969 214.25 73.605469 210.050781 C 74.253906 206.085938 74.664062 204.347656 78.375 204.519531 C 80.4375 204.617188 82.394531 205.300781 84.277344 206.242188 C 85.785156 207 87.238281 207.914062 88.660156 208.832031 C 89.984375 209.6875 91.316406 210.550781 92.660156 211.417969 C 109.074219 221.984375 126.949219 232.753906 145.355469 228.53125 C 143.847656 233.667969 145.835938 239.769531 149.992188 242.734375 C 154.144531 245.699219 160.101562 245.273438 163.859375 241.738281 C 163.132812 238.332031 160.511719 235.867188 158.574219 233.070312 C 156.632812 230.277344 155.398438 226.109375 157.496094 223.453125 C 158.914062 223.828125 160.335938 223.980469 161.746094 223.933594 C 161.800781 223.933594 161.855469 223.929688 161.910156 223.925781 C 162.070312 223.921875 162.230469 223.910156 162.390625 223.898438 C 166.917969 223.558594 171.261719 221.199219 174.773438 217.703125 C 177.640625 214.847656 179.953125 211.230469 181.34375 207.34375 C 184.015625 199.867188 184.101562 191.746094 183.257812 183.699219 C 183.992188 182.894531 184.730469 182.105469 185.476562 181.359375 C 188.421875 178.414062 190.007812 178.226562 190.863281 173.820312 C 196.820312 174.363281 205.75 175.027344 205.75 175.027344 C 205.75 175.027344 196.359375 165.636719 193.457031 157.53125 C 193.457031 157.53125 191.234375 149.449219 186.421875 150.652344 C 183.457031 146.855469 179.386719 143.972656 174.691406 142.511719 C 172.371094 141.683594 169.894531 141.230469 167.328125 141.230469 C 161.914062 141.230469 156.914062 143.226562 152.894531 146.589844 C 151.347656 147.816406 149.957031 149.234375 148.757812 150.808594 C 144 149.761719 141.828125 157.710938 141.828125 157.710938 C 138.925781 165.792969 129.535156 175.183594 129.535156 175.183594 C 129.535156 175.183594 137.894531 174.5625 143.832031 174.035156 C 144.230469 174.585938 144.574219 175.0625 144.878906 175.488281 C 141.824219 178.953125 137.039062 180.609375 132.515625 180.613281 C 126.917969 180.613281 121.527344 178.566406 116.152344 176.890625 C 107.007812 174.039062 97.59375 172.207031 88.105469 171.433594 C 83.757812 171.078125 79.027344 171.171875 74.699219 172.207031 C 69.40625 165.480469 66.554688 156.847656 66.886719 148.285156 C 67.074219 143.484375 68.210938 138.78125 69.339844 134.113281 C 62.996094 136.125 57.898438 141.660156 56.417969 148.148438 C 55.980469 150.0625 55.839844 152.039062 55.917969 154 C 56.246094 162.351562 60.90625 170.316406 67.757812 175.042969 " fill-opacity="1" fill-rule="nonzero"/></g><path fill="#b8793c" d="M 151.976562 160.410156 C 151.699219 159.382812 152.78125 158.199219 154.390625 157.773438 C 155.996094 157.34375 157.53125 157.847656 157.808594 158.878906 C 158.082031 159.910156 157.003906 161.089844 155.394531 161.519531 C 153.785156 161.945312 152.253906 161.441406 151.976562 160.410156 Z M 179.019531 161.519531 C 177.410156 161.089844 176.332031 159.910156 176.605469 158.878906 C 176.882812 157.847656 178.414062 157.34375 180.023438 157.773438 C 181.632812 158.199219 182.714844 159.382812 182.4375 160.410156 C 182.160156 161.441406 180.628906 161.945312 179.019531 161.519531 Z M 185.578125 181.121094 C 181.886719 184.992188 176.15625 187.707031 170.875 175.742188 L 174.144531 192.707031 C 174.144531 192.707031 174.144531 200.949219 167.308594 200.949219 C 160.472656 200.949219 160.472656 192.707031 160.472656 192.707031 L 163.738281 175.742188 C 158.460938 187.707031 152.730469 185.015625 149.035156 181.121094 C 150.265625 183.183594 151.726562 184.941406 153.460938 186.125 L 154.390625 194.871094 C 154.390625 201.980469 160.195312 207.789062 167.308594 207.789062 C 174.421875 207.789062 180.226562 201.980469 180.226562 194.871094 L 181.15625 186.125 C 182.863281 184.917969 184.347656 183.183594 185.578125 181.121094 " fill-opacity="1" fill-rule="nonzero"/><path fill="#6d4111" d="M 146.070312 151.011719 C 145.59375 150.988281 138.453125 149.90625 133.933594 162.824219 C 133.933594 162.824219 133.152344 169.058594 125.058594 174.035156 C 125.058594 174.035156 121.164062 179.3125 127.546875 185.847656 C 127.546875 185.847656 131.746094 188.183594 130.664062 198.613281 C 130.664062 198.613281 128.175781 211.832031 137.046875 213.390625 C 145.917969 214.949219 160.394531 200.171875 146.070312 178.382812 C 146.070312 178.382812 142.953125 175.292969 144.664062 165.789062 C 146.398438 156.289062 147.199219 151.011719 146.070312 151.011719 Z M 188.542969 151.011719 C 189.023438 150.988281 196.160156 149.90625 200.683594 162.824219 C 200.683594 162.824219 201.464844 169.058594 209.554688 174.035156 C 209.554688 174.035156 213.449219 179.3125 207.066406 185.847656 C 207.066406 185.847656 202.871094 188.183594 203.949219 198.613281 C 203.949219 198.613281 206.4375 211.832031 197.566406 213.390625 C 188.695312 214.949219 174.21875 200.171875 188.542969 178.382812 C 188.542969 178.382812 191.660156 175.292969 189.953125 165.789062 C 188.21875 156.289062 187.414062 151.011719 188.542969 151.011719 Z M 176.082031 228.261719 C 177.539062 230.226562 180 231.757812 180.332031 234.105469 C 180.617188 236.140625 179.039062 238.132812 176.980469 238.96875 C 174.921875 239.804688 172.515625 239.648438 170.363281 239.042969 C 166.859375 238.054688 163.648438 235.707031 162.617188 232.507812 C 162.132812 231.007812 162.140625 229.414062 162.191406 227.851562 C 162.234375 226.535156 162.304688 225.214844 162.390625 223.898438 C 166.917969 223.558594 171.261719 221.199219 174.773438 217.703125 C 175.007812 221.5625 174.578125 226.246094 176.082031 228.261719 Z M 88.660156 208.832031 C 87.238281 207.914062 85.785156 207 84.277344 206.242188 C 83.453125 208.742188 82.816406 211.285156 82.679688 213.902344 C 82.464844 218.121094 83.726562 222.644531 87.074219 225.710938 C 87.816406 226.386719 88.660156 226.992188 89.617188 227.375 C 92.988281 228.71875 97.113281 226.777344 98.375 223.730469 C 99.632812 220.6875 98.40625 217.042969 95.96875 214.519531 C 94.925781 213.441406 93.667969 212.507812 92.660156 211.417969 C 91.316406 210.550781 89.984375 209.6875 88.660156 208.832031 " fill-opacity="1" fill-rule="nonzero"/><g clip-path="url(#1dd4de5010)"><path fill="#000000" d="M 72.964844 232.113281 C 72.929688 231.378906 72.988281 230.378906 72.699219 229.378906 C 72.417969 228.367188 71.867188 227.558594 71.410156 227.03125 C 70.949219 226.503906 70.59375 226.21875 70.644531 226.136719 C 70.6875 226.0625 71.148438 226.203125 71.746094 226.691406 C 72.328125 227.175781 73.027344 228.042969 73.351562 229.195312 C 73.515625 229.765625 73.558594 230.339844 73.550781 230.835938 C 73.539062 231.335938 73.488281 231.773438 73.445312 232.136719 C 73.347656 232.863281 73.242188 233.3125 73.152344 233.304688 C 73.058594 233.300781 72.992188 232.847656 72.964844 232.113281 Z M 77.738281 230.410156 C 77.695312 230.21875 77.648438 230.011719 77.578125 229.792969 C 77.523438 229.570312 77.4375 229.34375 77.355469 229.101562 C 77.179688 228.621094 76.953125 228.105469 76.667969 227.589844 C 76.378906 227.078125 76.058594 226.617188 75.742188 226.214844 C 75.578125 226.019531 75.425781 225.828125 75.265625 225.664062 C 75.113281 225.492188 74.960938 225.34375 74.824219 225.207031 C 74.261719 224.664062 73.867188 224.359375 73.921875 224.269531 C 73.960938 224.199219 74.453125 224.359375 75.128906 224.839844 C 75.296875 224.960938 75.480469 225.097656 75.65625 225.265625 C 75.847656 225.421875 76.023438 225.609375 76.214844 225.808594 C 76.582031 226.21875 76.945312 226.707031 77.257812 227.257812 C 77.566406 227.816406 77.792969 228.382812 77.949219 228.90625 C 78.019531 229.171875 78.089844 229.425781 78.125 229.667969 C 78.171875 229.90625 78.195312 230.132812 78.210938 230.339844 C 78.265625 231.167969 78.148438 231.671875 78.066406 231.667969 C 77.960938 231.667969 77.910156 231.171875 77.738281 230.410156 Z M 155.960938 243.503906 C 155.921875 243.203125 155.851562 242.855469 155.753906 242.476562 C 155.648438 242.097656 155.511719 241.6875 155.328125 241.273438 C 155.144531 240.863281 154.929688 240.488281 154.722656 240.15625 C 154.503906 239.828125 154.292969 239.542969 154.097656 239.3125 C 153.714844 238.851562 153.441406 238.574219 153.496094 238.492188 C 153.546875 238.421875 153.929688 238.5625 154.433594 238.976562 C 154.6875 239.175781 154.960938 239.457031 155.226562 239.796875 C 155.488281 240.140625 155.738281 240.546875 155.945312 241 C 156.148438 241.457031 156.28125 241.917969 156.359375 242.339844 C 156.433594 242.765625 156.457031 243.152344 156.4375 243.480469 C 156.40625 244.128906 156.253906 244.511719 156.171875 244.496094 C 156.070312 244.484375 156.050781 244.097656 155.960938 243.503906 Z M 160.28125 240.535156 C 159.613281 238.578125 158.453125 237.289062 158.597656 237.152344 C 158.660156 237.089844 159.039062 237.335938 159.515625 237.875 C 159.757812 238.144531 160.011719 238.492188 160.261719 238.902344 C 160.5 239.316406 160.730469 239.792969 160.917969 240.3125 C 161.097656 240.835938 161.214844 241.351562 161.28125 241.824219 C 161.34375 242.300781 161.363281 242.730469 161.34375 243.09375 C 161.304688 243.8125 161.160156 244.242188 161.074219 244.230469 C 160.875 244.214844 160.980469 242.484375 160.28125 240.535156 Z M 175.132812 238.519531 C 175.109375 238.34375 175.085938 238.15625 175.035156 237.953125 C 175.003906 237.75 174.9375 237.542969 174.875 237.320312 C 174.738281 236.878906 174.550781 236.410156 174.296875 235.941406 C 174.035156 235.480469 173.734375 235.070312 173.4375 234.71875 C 173.28125 234.550781 173.136719 234.382812 172.984375 234.246094 C 172.839844 234.101562 172.691406 233.976562 172.554688 233.867188 C 172.011719 233.417969 171.617188 233.195312 171.65625 233.097656 C 171.683594 233.019531 172.160156 233.089844 172.828125 233.472656 C 172.992188 233.570312 173.171875 233.679688 173.347656 233.820312 C 173.535156 233.953125 173.707031 234.121094 173.890625 234.296875 C 174.25 234.65625 174.597656 235.101562 174.886719 235.617188 C 175.167969 236.132812 175.359375 236.664062 175.476562 237.160156 C 175.527344 237.410156 175.578125 237.644531 175.589844 237.871094 C 175.617188 238.097656 175.617188 238.308594 175.609375 238.5 C 175.578125 239.269531 175.386719 239.710938 175.304688 239.691406 C 175.203125 239.675781 175.222656 239.21875 175.132812 238.519531 Z M 179.085938 236.882812 C 179.0625 236.722656 179.042969 236.546875 179 236.363281 C 178.96875 236.175781 178.910156 235.980469 178.859375 235.777344 C 178.742188 235.371094 178.582031 234.929688 178.367188 234.492188 C 178.144531 234.058594 177.890625 233.667969 177.640625 233.324219 C 177.503906 233.164062 177.386719 233 177.253906 232.863281 C 177.128906 232.71875 177.003906 232.59375 176.890625 232.480469 C 176.425781 232.027344 176.085938 231.773438 176.136719 231.683594 C 176.171875 231.609375 176.605469 231.714844 177.191406 232.109375 C 177.335938 232.210938 177.492188 232.324219 177.644531 232.464844 C 177.808594 232.597656 177.957031 232.757812 178.117188 232.929688 C 178.425781 233.28125 178.726562 233.707031 178.972656 234.191406 C 179.210938 234.679688 179.371094 235.171875 179.464844 235.628906 C 179.503906 235.863281 179.546875 236.082031 179.554688 236.289062 C 179.574219 236.496094 179.570312 236.6875 179.5625 236.867188 C 179.523438 237.570312 179.347656 237.980469 179.269531 237.964844 C 179.167969 237.949219 179.171875 237.527344 179.085938 236.882812 Z M 150.417969 172.574219 C 150.417969 168.882812 152.429688 165.136719 154.890625 165.136719 C 157.355469 165.136719 159.367188 168.882812 159.367188 172.574219 C 159.367188 172.574219 158.410156 167.347656 154.890625 167.296875 C 151.375 167.246094 150.671875 172.574219 150.671875 172.574219 M 174.773438 172.574219 C 174.773438 168.882812 176.78125 165.136719 179.246094 165.136719 C 181.707031 165.136719 183.71875 168.882812 183.71875 172.574219 C 183.71875 172.574219 182.765625 167.347656 179.246094 167.296875 C 175.726562 167.222656 175.023438 172.574219 175.023438 172.574219 M 160.972656 203.589844 C 160.847656 203.742188 160.875 203.964844 161.023438 204.09375 C 161.878906 204.796875 162.785156 205.125 163.664062 205.125 C 163.863281 205.125 164.066406 205.097656 164.265625 205.074219 C 165.75 204.820312 166.804688 203.664062 167.308594 203.011719 C 167.8125 203.640625 168.867188 204.796875 170.347656 205.074219 C 170.550781 205.097656 170.75 205.125 170.949219 205.125 C 171.832031 205.125 172.734375 204.773438 173.589844 204.09375 C 173.742188 203.964844 173.765625 203.742188 173.640625 203.589844 C 173.515625 203.441406 173.289062 203.414062 173.136719 203.539062 C 172.234375 204.242188 171.355469 204.546875 170.449219 204.394531 C 168.941406 204.144531 167.886719 202.710938 167.632812 202.332031 L 167.632812 200.875 C 173.714844 200.675781 174.519531 192.859375 174.519531 192.859375 C 170.777344 189.464844 167.28125 190.519531 167.28125 190.519531 C 167.28125 190.519531 163.789062 189.464844 160.042969 192.859375 C 160.042969 192.859375 160.847656 200.699219 166.929688 200.875 L 166.929688 202.332031 C 166.679688 202.710938 165.625 204.144531 164.117188 204.394531 C 163.234375 204.546875 162.332031 204.269531 161.425781 203.539062 C 161.300781 203.441406 161.097656 203.441406 160.972656 203.589844 " fill-opacity="1" fill-rule="nonzero"/></g></svg>