<svg xmlns="http://www.w3.org/2000/svg" xmlns:xlink="http://www.w3.org/1999/xlink" width="500" zoomAndPan="magnify" viewBox="0 0 375 374.999991" height="500" preserveAspectRatio="xMidYMid meet" version="1.0"><defs><clipPath id="4e12afea89"><path d="M 34.257812 46 L 184 46 L 184 188.636719 L 34.257812 188.636719 Z M 34.257812 46 " clip-rule="nonzero"/></clipPath><clipPath id="47974e215e"><path d="M 191 50 L 340.742188 50 L 340.742188 193.179688 L 191 193.179688 Z M 191 50 " clip-rule="nonzero"/></clipPath><clipPath id="ca7d3080ff"><path d="M 123 178 L 272 178 L 272 321.3125 L 123 321.3125 Z M 123 178 " clip-rule="nonzero"/></clipPath></defs><g clip-path="url(#4e12afea89)"><path fill="#000000" d="M 177.550781 120.484375 C 175.933594 116.589844 174.410156 112.914062 173.683594 108.96875 C 173.550781 108.230469 173.433594 107.460938 173.3125 106.683594 C 172.707031 102.71875 172.027344 98.214844 168.46875 95.636719 C 164.988281 93.109375 160.382812 93.765625 157.234375 95.230469 C 154.726562 96.382812 152.617188 98.074219 150.5625 99.722656 C 149.945312 100.21875 149.328125 100.722656 148.683594 101.203125 C 141.191406 106.929688 131.785156 110.386719 122.328125 110.992188 C 126.425781 107.601562 129.667969 102.972656 131.644531 97.542969 C 133.882812 91.398438 134.511719 84.210938 133.4375 76.757812 C 132.519531 70.390625 130.515625 65.152344 127.480469 61.179688 C 124.511719 57.296875 120.1875 54.0625 114.230469 51.3125 C 102.304688 45.773438 89.734375 44.613281 78.816406 48.027344 C 66.492188 51.898438 57.003906 61.835938 54.597656 73.398438 C 53.488281 74.496094 51.488281 74.503906 49.921875 74.121094 C 49.027344 73.910156 48.140625 73.582031 47.203125 73.238281 C 45.949219 72.78125 44.660156 72.3125 43.265625 72.066406 C 40.722656 71.617188 37.171875 72.128906 35.523438 74.988281 C 34.339844 77.046875 34.519531 79.644531 36.042969 82.738281 C 38.757812 88.210938 43.378906 92.640625 48.929688 95.164062 C 47.917969 96.347656 46.972656 97.683594 46.417969 99.28125 C 45.449219 102.117188 46.214844 105.179688 48.269531 106.734375 C 49.664062 107.78125 51.328125 108.003906 52.914062 108.089844 C 53.648438 108.132812 54.394531 108.152344 55.128906 108.152344 C 56.941406 108.152344 58.765625 108.027344 60.550781 107.769531 C 61.457031 109.039062 62.535156 110.449219 63.949219 111.546875 C 64.617188 112.070312 65.398438 112.433594 66.164062 112.726562 C 62.980469 114.09375 59.710938 115.566406 56.675781 117.785156 C 52.839844 120.578125 49.59375 123.949219 46.992188 127.796875 C 41.710938 135.667969 39.300781 145.597656 40.398438 155.015625 C 41.371094 163.378906 44.957031 170.726562 50.488281 175.726562 C 56.90625 181.539062 65.511719 183.855469 73.089844 185.371094 C 84.109375 187.550781 95.734375 188.65625 107.863281 188.65625 C 119.175781 188.65625 130.933594 187.707031 143.054688 185.796875 C 151.773438 184.429688 160.84375 182.445312 168.082031 177.222656 C 175.445312 171.910156 180.703125 163.261719 182.515625 153.46875 C 184.121094 144.832031 183.136719 135.277344 179.683594 125.828125 C 179.023438 124.027344 178.277344 122.222656 177.550781 120.484375 " fill-opacity="1" fill-rule="nonzero"/><path fill="#000000" d="M 65.261719 96.363281 C 64.820312 96.371094 64.394531 96.390625 63.960938 96.390625 C 60.273438 96.390625 56.570312 95.988281 52.976562 95.199219 C 52.96875 95.210938 52.96875 95.21875 52.957031 95.230469 C 52.894531 95.453125 52.789062 95.65625 52.613281 95.839844 C 51.339844 97.222656 50.019531 98.652344 49.441406 100.316406 C 49.21875 100.980469 49.144531 101.769531 49.273438 102.488281 C 51.445312 103.035156 53.691406 102.375 54.949219 101.851562 C 56.570312 101.203125 58.046875 100.28125 59.613281 99.3125 C 60.304688 98.878906 61.019531 98.4375 61.730469 98.035156 C 62.695312 97.480469 63.894531 96.839844 65.261719 96.363281 Z M 69.273438 93.960938 C 69 93.179688 68.601562 92.488281 68.09375 91.914062 C 67.421875 91.175781 66.546875 90.609375 65.625 90.023438 C 65.078125 89.660156 64.511719 89.296875 63.96875 88.882812 C 62.113281 87.464844 60.703125 85.558594 59.871094 83.378906 C 59.605469 82.675781 59.402344 81.949219 59.207031 81.257812 C 58.914062 80.210938 58.632812 79.21875 58.15625 78.359375 C 57.667969 77.464844 56.773438 76.648438 55.863281 76.460938 C 54.128906 77.558594 51.753906 77.855469 49.175781 77.234375 C 48.097656 76.96875 47.089844 76.605469 46.097656 76.246094 C 44.9375 75.816406 43.828125 75.414062 42.722656 75.222656 C 41.121094 74.945312 39.058594 75.253906 38.289062 76.585938 C 37.519531 77.917969 38.207031 79.894531 38.910156 81.3125 C 41.316406 86.1875 45.460938 90.113281 50.414062 92.320312 C 56.480469 94.101562 62.988281 94.675781 69.273438 93.960938 Z M 69.679688 97.726562 C 67.070312 97.621094 64.492188 98.898438 62.789062 99.878906 C 62.09375 100.28125 61.414062 100.699219 60.730469 101.125 C 59.15625 102.097656 57.535156 103.109375 55.746094 103.835938 C 54.457031 104.359375 53.171875 104.667969 51.945312 104.785156 C 52.320312 104.835938 52.710938 104.882812 53.097656 104.902344 C 54.757812 104.996094 56.429688 104.953125 58.089844 104.828125 L 65.332031 102.664062 C 66.367188 102.363281 67.539062 102.011719 68.292969 101.300781 C 68.988281 100.644531 69.441406 99.582031 69.636719 98.144531 C 69.660156 98.003906 69.660156 97.863281 69.679688 97.726562 Z M 179.375 152.882812 C 180.875 144.808594 179.941406 135.84375 176.683594 126.925781 C 176.039062 125.1875 175.3125 123.417969 174.601562 121.707031 C 172.992188 117.832031 171.320312 113.816406 170.546875 109.550781 C 170.398438 108.773438 170.277344 107.972656 170.148438 107.160156 C 169.59375 103.496094 169.070312 100.03125 166.582031 98.226562 C 164.226562 96.507812 160.90625 97.054688 158.570312 98.128906 C 156.429688 99.121094 154.542969 100.625 152.566406 102.214844 C 151.925781 102.738281 151.277344 103.25 150.628906 103.738281 C 141.5 110.714844 129.753906 114.523438 118.246094 114.269531 C 117.628906 114.5625 116.925781 114.882812 116.183594 115.261719 C 113.820312 116.398438 111.941406 117.53125 111.601562 117.148438 C 111.304688 116.824219 112.558594 115.214844 114.785156 113.96875 C 114.796875 113.878906 114.796875 113.796875 114.820312 113.691406 C 114.871094 113.433594 115 113.160156 115.175781 112.867188 C 114.519531 113.089844 113.914062 113.273438 113.335938 113.402344 C 111.003906 113.933594 109.511719 113.851562 109.480469 113.636719 C 109.449219 113.359375 110.84375 113 112.964844 112.1875 C 114.015625 111.78125 115.253906 111.226562 116.566406 110.535156 C 117.875 109.820312 119.257812 108.957031 120.636719 107.929688 C 121.433594 107.300781 122.175781 106.664062 122.867188 106.007812 C 125.320312 103.3125 127.320312 100.058594 128.640625 96.445312 C 130.710938 90.792969 131.269531 84.148438 130.269531 77.214844 C 129.429688 71.394531 127.640625 66.660156 124.949219 63.128906 C 122.292969 59.664062 118.355469 56.75 112.890625 54.210938 C 101.683594 49.007812 89.925781 47.898438 79.765625 51.085938 C 68.484375 54.621094 59.816406 63.691406 57.695312 74.199219 C 57.65625 74.378906 57.578125 74.550781 57.496094 74.699219 C 57.484375 74.734375 57.472656 74.761719 57.464844 74.796875 C 58.535156 75.363281 59.453125 76.285156 60.03125 77.332031 C 60.625 78.410156 60.945312 79.574219 61.253906 80.683594 C 61.445312 81.363281 61.625 82.003906 61.863281 82.613281 C 62.542969 84.40625 63.746094 86.027344 65.269531 87.199219 C 65.738281 87.5625 66.238281 87.878906 66.785156 88.222656 C 67.769531 88.871094 68.804688 89.535156 69.671875 90.484375 C 71.414062 92.417969 72.167969 95.304688 71.746094 98.429688 C 71.488281 100.371094 70.820312 101.851562 69.753906 102.851562 C 68.636719 103.910156 67.140625 104.359375 65.941406 104.710938 L 62.917969 105.609375 C 62.945312 105.644531 62.980469 105.679688 63.011719 105.714844 C 63.472656 106.371094 63.988281 107.070312 64.566406 107.71875 C 65.867188 108.472656 67.664062 109.457031 69.828125 110.15625 C 74.097656 111.621094 77.890625 111.289062 77.957031 111.8125 C 78 112.046875 77.070312 112.441406 75.460938 112.613281 C 74.390625 112.726562 72.992188 112.699219 71.476562 112.421875 C 71.488281 112.550781 71.476562 112.675781 71.46875 112.804688 C 71.832031 112.976562 72.203125 113.160156 72.585938 113.347656 C 75.503906 114.820312 77.816406 116.15625 77.636719 116.625 C 77.453125 117.082031 74.78125 116.464844 71.789062 114.960938 C 71.34375 114.738281 70.914062 114.507812 70.511719 114.277344 C 70.371094 114.375 70.210938 114.472656 70.03125 114.542969 C 69.378906 114.828125 68.730469 115.109375 68.09375 115.386719 C 64.707031 116.839844 61.507812 118.203125 58.546875 120.367188 C 55.035156 122.9375 52.027344 126.039062 49.644531 129.59375 C 44.777344 136.835938 42.5625 145.976562 43.574219 154.65625 C 44.457031 162.234375 47.671875 168.882812 52.628906 173.347656 C 58.472656 178.640625 66.570312 180.804688 73.714844 182.222656 C 94.636719 186.390625 117.789062 186.53125 142.566406 182.640625 C 150.894531 181.328125 159.519531 179.449219 166.21875 174.617188 C 172.921875 169.796875 177.710938 161.871094 179.375 152.882812 Z M 179.683594 125.828125 C 183.136719 135.277344 184.121094 144.832031 182.515625 153.46875 C 180.703125 163.261719 175.445312 171.910156 168.082031 177.222656 C 160.84375 182.445312 151.773438 184.429688 143.054688 185.796875 C 130.933594 187.707031 119.175781 188.652344 107.863281 188.652344 C 95.734375 188.652344 84.109375 187.550781 73.089844 185.371094 C 65.511719 183.855469 56.90625 181.539062 50.488281 175.726562 C 44.957031 170.726562 41.371094 163.378906 40.398438 155.015625 C 39.300781 145.597656 41.710938 135.667969 46.992188 127.796875 C 49.59375 123.949219 52.839844 120.578125 56.675781 117.785156 C 59.710938 115.566406 62.980469 114.09375 66.164062 112.726562 C 65.398438 112.433594 64.617188 112.070312 63.949219 111.546875 C 62.535156 110.449219 61.457031 109.039062 60.550781 107.769531 C 58.765625 108.027344 56.941406 108.152344 55.128906 108.152344 C 54.394531 108.152344 53.648438 108.132812 52.914062 108.089844 C 51.328125 108.003906 49.664062 107.78125 48.269531 106.734375 C 46.214844 105.179688 45.449219 102.117188 46.417969 99.28125 C 46.972656 97.683594 47.917969 96.347656 48.929688 95.164062 C 43.378906 92.640625 38.757812 88.210938 36.042969 82.738281 C 34.519531 79.644531 34.339844 77.046875 35.523438 74.988281 C 37.171875 72.128906 40.722656 71.617188 43.265625 72.066406 C 44.660156 72.3125 45.949219 72.78125 47.203125 73.238281 C 48.140625 73.582031 49.027344 73.910156 49.921875 74.121094 C 51.488281 74.503906 53.488281 74.496094 54.597656 73.398438 C 57.003906 61.835938 66.492188 51.898438 78.816406 48.027344 C 89.734375 44.613281 102.304688 45.773438 114.230469 51.3125 C 120.1875 54.0625 124.511719 57.296875 127.480469 61.179688 C 130.515625 65.152344 132.519531 70.390625 133.4375 76.757812 C 134.511719 84.210938 133.882812 91.398438 131.644531 97.542969 C 129.667969 102.972656 126.425781 107.601562 122.328125 110.992188 C 131.785156 110.386719 141.191406 106.929688 148.683594 101.203125 C 149.328125 100.722656 149.945312 100.21875 150.5625 99.722656 C 152.617188 98.074219 154.726562 96.382812 157.234375 95.230469 C 160.382812 93.765625 164.988281 93.109375 168.46875 95.636719 C 172.027344 98.214844 172.707031 102.71875 173.3125 106.683594 C 173.433594 107.460938 173.550781 108.230469 173.683594 108.96875 C 174.410156 112.914062 175.933594 116.589844 177.550781 120.484375 C 178.277344 122.222656 179.023438 124.027344 179.683594 125.828125 " fill-opacity="1" fill-rule="nonzero"/></g><path fill="#fcce0b" d="M 81.171875 76.878906 C 81.566406 75.496094 82.738281 70.839844 81.046875 68.300781 C 79.480469 65.976562 75.929688 66.507812 73.972656 67.785156 C 71.972656 69.089844 70.957031 71.171875 70.46875 72.683594 C 69.859375 74.53125 69.679688 76.417969 69.511719 78.253906 C 69.378906 79.691406 69.328125 81.195312 70.273438 82.410156 C 71.0625 83.414062 72.28125 83.820312 73.480469 83.820312 C 74.152344 83.820312 74.8125 83.6875 75.410156 83.484375 C 78.082031 82.550781 80.234375 80.070312 81.171875 76.878906 Z M 159.953125 147.5625 C 160.074219 145.898438 160.085938 144.246094 159.996094 142.617188 C 159.96875 141.78125 159.890625 141.003906 159.808594 140.160156 C 159.703125 139.308594 159.539062 138.433594 159.242188 137.546875 C 158.933594 136.660156 158.464844 135.722656 157.675781 134.933594 C 156.890625 134.132812 155.792969 133.601562 154.683594 133.484375 C 153.578125 133.34375 152.585938 133.582031 151.746094 133.859375 C 150.902344 134.160156 150.167969 134.515625 149.488281 134.894531 C 148.847656 135.242188 148.222656 135.585938 147.59375 135.933594 C 146.992188 136.257812 146.378906 136.554688 145.761719 136.8125 C 144.523438 137.367188 143.257812 137.804688 141.988281 138.167969 C 139.464844 138.882812 136.898438 139.230469 134.429688 139.273438 C 131.933594 139.328125 129.558594 139.027344 127.292969 138.503906 C 125.019531 137.984375 122.859375 137.246094 120.785156 136.535156 C 116.628906 135.0625 112.695312 133.726562 109.066406 133.292969 C 105.4375 132.792969 102.171875 133.25 99.761719 134.1875 C 97.339844 135.136719 95.734375 136.449219 94.859375 137.472656 C 93.972656 138.496094 93.707031 139.167969 93.792969 139.230469 C 93.910156 139.320312 94.371094 138.796875 95.355469 137.996094 C 96.335938 137.195312 97.921875 136.191406 100.203125 135.523438 C 102.480469 134.851562 105.410156 134.648438 108.757812 135.277344 C 112.113281 135.863281 115.765625 137.289062 119.894531 138.921875 C 121.976562 139.726562 124.203125 140.566406 126.628906 141.207031 C 129.058594 141.84375 131.703125 142.253906 134.429688 142.261719 C 137.164062 142.28125 139.996094 141.960938 142.820312 141.214844 C 144.226562 140.851562 145.640625 140.382812 147.027344 139.796875 C 147.726562 139.523438 148.410156 139.203125 149.089844 138.847656 C 149.789062 138.503906 150.445312 138.132812 151.042969 137.8125 C 152.242188 137.175781 153.480469 136.703125 154.269531 136.835938 C 154.664062 136.886719 154.996094 137.058594 155.269531 137.332031 C 155.550781 137.625 155.800781 138.078125 155.984375 138.644531 C 156.171875 139.210938 156.292969 139.871094 156.367188 140.554688 C 156.441406 141.261719 156.492188 142.023438 156.527344 142.773438 C 156.589844 144.265625 156.558594 145.78125 156.441406 147.304688 C 155.984375 153.375 153.984375 159.574219 150.144531 164.707031 C 148.25 167.277344 145.972656 169.519531 143.449219 171.3125 C 140.933594 173.101562 138.140625 174.40625 135.234375 175.300781 C 129.417969 177.117188 123.351562 177.425781 117.585938 177.402344 C 111.828125 177.382812 106.382812 176.847656 101.542969 175.460938 C 96.722656 174.09375 92.539062 171.84375 89.328125 169.074219 C 86.101562 166.332031 83.925781 163.058594 82.78125 159.910156 C 81.605469 156.753906 81.394531 153.777344 81.566406 151.402344 C 81.757812 149.023438 82.332031 147.210938 82.78125 146.011719 C 83.234375 144.824219 83.554688 144.203125 83.429688 144.125 C 83.355469 144.0625 82.824219 144.554688 82.128906 145.707031 C 81.445312 146.847656 80.605469 148.691406 80.171875 151.242188 C 79.777344 153.769531 79.777344 157.019531 80.871094 160.558594 C 81.960938 164.09375 84.21875 167.835938 87.636719 170.972656 C 91.035156 174.136719 95.53125 176.71875 100.691406 178.320312 C 105.859375 179.941406 111.601562 180.601562 117.546875 180.71875 C 123.453125 180.824219 129.855469 180.609375 136.28125 178.667969 C 139.476562 177.710938 142.648438 176.257812 145.503906 174.234375 C 148.367188 172.230469 150.914062 169.722656 153.046875 166.851562 C 157.316406 161.097656 159.507812 154.195312 159.953125 147.5625 Z M 176.683594 126.925781 C 179.941406 135.84375 180.875 144.808594 179.375 152.882812 C 177.710938 161.871094 172.921875 169.796875 166.21875 174.617188 C 159.519531 179.449219 150.894531 181.328125 142.566406 182.640625 C 117.789062 186.53125 94.636719 186.390625 73.714844 182.222656 C 66.570312 180.804688 58.472656 178.640625 52.628906 173.347656 C 47.671875 168.882812 44.457031 162.234375 43.574219 154.65625 C 42.5625 145.976562 44.777344 136.835938 49.644531 129.59375 C 52.027344 126.039062 55.035156 122.9375 58.546875 120.367188 C 61.507812 118.203125 64.707031 116.839844 68.09375 115.386719 C 68.730469 115.109375 69.378906 114.828125 70.03125 114.542969 C 70.210938 114.472656 70.371094 114.375 70.511719 114.277344 C 70.914062 114.507812 71.34375 114.738281 71.789062 114.960938 C 74.78125 116.464844 77.453125 117.082031 77.636719 116.625 C 77.816406 116.15625 75.503906 114.820312 72.585938 113.347656 C 72.203125 113.160156 71.832031 112.976562 71.46875 112.804688 C 71.476562 112.675781 71.488281 112.550781 71.476562 112.421875 C 72.992188 112.699219 74.390625 112.726562 75.460938 112.613281 C 77.070312 112.441406 78 112.046875 77.957031 111.8125 C 77.890625 111.289062 74.097656 111.621094 69.828125 110.15625 C 67.664062 109.457031 65.867188 108.472656 64.566406 107.71875 C 63.988281 107.070312 63.472656 106.371094 63.011719 105.714844 C 62.980469 105.679688 62.945312 105.644531 62.917969 105.609375 L 65.941406 104.710938 C 67.140625 104.359375 68.636719 103.910156 69.753906 102.851562 C 70.820312 101.851562 71.488281 100.371094 71.746094 98.429688 C 72.167969 95.304688 71.414062 92.417969 69.671875 90.484375 C 68.804688 89.535156 67.769531 88.871094 66.785156 88.222656 C 66.238281 87.878906 65.738281 87.5625 65.269531 87.199219 C 63.746094 86.027344 62.542969 84.40625 61.863281 82.613281 C 61.625 82.003906 61.445312 81.363281 61.253906 80.683594 C 60.945312 79.574219 60.625 78.410156 60.03125 77.332031 C 59.453125 76.285156 58.535156 75.363281 57.464844 74.796875 C 57.472656 74.761719 57.484375 74.734375 57.496094 74.699219 C 57.578125 74.550781 57.65625 74.378906 57.695312 74.199219 C 59.816406 63.691406 68.484375 54.621094 79.765625 51.085938 C 89.925781 47.898438 101.683594 49.007812 112.890625 54.210938 C 118.355469 56.75 122.292969 59.664062 124.949219 63.128906 C 127.640625 66.660156 129.429688 71.394531 130.269531 77.214844 C 131.269531 84.148438 130.710938 90.792969 128.640625 96.445312 C 127.320312 100.058594 125.320312 103.3125 122.867188 106.007812 C 122.175781 106.664062 121.433594 107.300781 120.636719 107.929688 C 119.257812 108.957031 117.875 109.820312 116.566406 110.535156 C 115.253906 111.226562 114.015625 111.78125 112.964844 112.1875 C 110.84375 113 109.449219 113.359375 109.480469 113.636719 C 109.511719 113.851562 111.003906 113.933594 113.335938 113.402344 C 113.914062 113.273438 114.519531 113.089844 115.175781 112.867188 C 115 113.160156 114.871094 113.433594 114.820312 113.691406 C 114.796875 113.796875 114.796875 113.878906 114.785156 113.96875 C 112.558594 115.214844 111.304688 116.824219 111.601562 117.148438 C 111.941406 117.53125 113.820312 116.398438 116.183594 115.261719 C 116.925781 114.882812 117.628906 114.5625 118.246094 114.269531 C 129.753906 114.523438 141.5 110.714844 150.628906 103.738281 C 151.277344 103.25 151.925781 102.738281 152.566406 102.214844 C 154.542969 100.625 156.429688 99.121094 158.570312 98.128906 C 160.90625 97.054688 164.226562 96.507812 166.582031 98.226562 C 169.070312 100.03125 169.59375 103.496094 170.148438 107.160156 C 170.277344 107.972656 170.398438 108.773438 170.546875 109.550781 C 171.320312 113.816406 172.992188 117.832031 174.601562 121.707031 C 175.3125 123.417969 176.039062 125.1875 176.683594 126.925781 " fill-opacity="1" fill-rule="nonzero"/><path fill="#000000" d="M 159.996094 142.617188 C 160.085938 144.246094 160.074219 145.898438 159.953125 147.5625 C 159.507812 154.195312 157.316406 161.097656 153.046875 166.851562 C 150.914062 169.722656 148.367188 172.230469 145.503906 174.234375 C 142.648438 176.257812 139.476562 177.710938 136.28125 178.667969 C 129.855469 180.609375 123.453125 180.824219 117.546875 180.71875 C 111.601562 180.601562 105.859375 179.941406 100.691406 178.320312 C 95.53125 176.71875 91.035156 174.136719 87.636719 170.972656 C 84.21875 167.835938 81.960938 164.09375 80.871094 160.558594 C 79.777344 157.019531 79.777344 153.769531 80.171875 151.242188 C 80.605469 148.691406 81.445312 146.847656 82.128906 145.707031 C 82.824219 144.554688 83.355469 144.0625 83.429688 144.125 C 83.554688 144.203125 83.234375 144.824219 82.78125 146.011719 C 82.332031 147.210938 81.757812 149.023438 81.566406 151.402344 C 81.394531 153.777344 81.605469 156.753906 82.78125 159.910156 C 83.925781 163.058594 86.101562 166.332031 89.328125 169.074219 C 92.539062 171.84375 96.722656 174.09375 101.542969 175.460938 C 106.382812 176.847656 111.828125 177.382812 117.585938 177.402344 C 123.351562 177.425781 129.417969 177.117188 135.234375 175.300781 C 138.140625 174.40625 140.933594 173.101562 143.449219 171.3125 C 145.972656 169.519531 148.25 167.277344 150.144531 164.707031 C 153.984375 159.574219 155.984375 153.375 156.441406 147.304688 C 156.558594 145.78125 156.589844 144.265625 156.527344 142.773438 C 156.492188 142.023438 156.441406 141.261719 156.367188 140.554688 C 156.292969 139.871094 156.171875 139.210938 155.984375 138.644531 C 155.800781 138.078125 155.550781 137.625 155.269531 137.332031 C 154.996094 137.058594 154.664062 136.886719 154.269531 136.835938 C 153.480469 136.703125 152.242188 137.175781 151.042969 137.8125 C 150.445312 138.132812 149.789062 138.503906 149.089844 138.847656 C 148.410156 139.203125 147.726562 139.523438 147.027344 139.796875 C 145.640625 140.382812 144.226562 140.851562 142.820312 141.214844 C 139.996094 141.960938 137.164062 142.28125 134.429688 142.261719 C 131.703125 142.253906 129.058594 141.84375 126.628906 141.207031 C 124.203125 140.566406 121.976562 139.726562 119.894531 138.921875 C 115.765625 137.289062 112.113281 135.863281 108.757812 135.277344 C 105.410156 134.648438 102.480469 134.851562 100.203125 135.523438 C 97.921875 136.191406 96.335938 137.195312 95.355469 137.996094 C 94.371094 138.796875 93.910156 139.320312 93.792969 139.230469 C 93.707031 139.167969 93.972656 138.496094 94.859375 137.472656 C 95.734375 136.449219 97.339844 135.136719 99.761719 134.1875 C 102.171875 133.25 105.4375 132.792969 109.066406 133.292969 C 112.695312 133.726562 116.628906 135.0625 120.785156 136.535156 C 122.859375 137.246094 125.019531 137.984375 127.292969 138.503906 C 129.558594 139.027344 131.933594 139.328125 134.429688 139.273438 C 136.898438 139.230469 139.464844 138.882812 141.988281 138.167969 C 143.257812 137.804688 144.523438 137.367188 145.761719 136.8125 C 146.378906 136.554688 146.992188 136.257812 147.59375 135.933594 C 148.222656 135.585938 148.847656 135.242188 149.488281 134.894531 C 150.167969 134.515625 150.902344 134.160156 151.746094 133.859375 C 152.585938 133.582031 153.578125 133.34375 154.683594 133.484375 C 155.792969 133.601562 156.890625 134.132812 157.675781 134.933594 C 158.464844 135.722656 158.933594 136.660156 159.242188 137.546875 C 159.539062 138.433594 159.703125 139.308594 159.808594 140.160156 C 159.890625 141.003906 159.96875 141.78125 159.996094 142.617188 " fill-opacity="1" fill-rule="nonzero"/><path fill="#000000" d="M 78.949219 70.53125 C 79.179688 69.929688 78.96875 69.644531 78.890625 69.546875 C 78.730469 69.34375 78.320312 69.210938 77.796875 69.183594 C 77.773438 69.183594 77.738281 69.183594 77.710938 69.183594 C 76.78125 69.183594 75.847656 69.558594 75.550781 69.921875 C 75.207031 70.316406 75.195312 71.019531 75.515625 71.488281 C 75.859375 71.96875 76.539062 72.234375 77.179688 72.128906 C 77.753906 72.03125 78.628906 71.347656 78.949219 70.53125 Z M 79.125 76.277344 C 79.425781 75.230469 79.648438 74.09375 79.746094 73.015625 C 79.097656 73.644531 78.296875 74.105469 77.53125 74.238281 C 77.320312 74.273438 77.101562 74.28125 76.898438 74.28125 C 75.664062 74.28125 74.460938 73.695312 73.769531 72.703125 C 73.53125 72.367188 73.375 71.988281 73.265625 71.605469 C 72.917969 72.207031 72.664062 72.820312 72.488281 73.359375 C 71.957031 74.964844 71.789062 76.738281 71.636719 78.457031 C 71.53125 79.5 71.488281 80.503906 71.957031 81.089844 C 72.523438 81.816406 73.78125 81.800781 74.707031 81.472656 C 76.699219 80.769531 78.390625 78.773438 79.125 76.277344 Z M 81.046875 68.300781 C 82.738281 70.839844 81.566406 75.496094 81.171875 76.878906 C 80.234375 80.070312 78.082031 82.550781 75.410156 83.484375 C 74.8125 83.6875 74.152344 83.820312 73.480469 83.820312 C 72.28125 83.820312 71.0625 83.414062 70.273438 82.410156 C 69.328125 81.195312 69.378906 79.691406 69.511719 78.253906 C 69.679688 76.417969 69.859375 74.53125 70.46875 72.683594 C 70.957031 71.171875 71.972656 69.089844 73.972656 67.785156 C 75.929688 66.507812 79.480469 65.976562 81.046875 68.300781 " fill-opacity="1" fill-rule="nonzero"/><path fill="#333333" d="M 79.746094 73.015625 C 79.648438 74.09375 79.425781 75.230469 79.125 76.277344 C 78.390625 78.773438 76.699219 80.769531 74.707031 81.472656 C 73.78125 81.800781 72.523438 81.816406 71.957031 81.089844 C 71.488281 80.503906 71.53125 79.5 71.636719 78.457031 C 71.789062 76.738281 71.957031 74.964844 72.488281 73.359375 C 72.664062 72.820312 72.917969 72.207031 73.265625 71.605469 C 73.375 71.988281 73.53125 72.367188 73.769531 72.703125 C 74.460938 73.695312 75.664062 74.28125 76.898438 74.28125 C 77.101562 74.28125 77.320312 74.273438 77.53125 74.238281 C 78.296875 74.105469 79.097656 73.644531 79.746094 73.015625 " fill-opacity="1" fill-rule="nonzero"/><path fill="#ffffff" d="M 78.890625 69.546875 C 78.96875 69.644531 79.179688 69.929688 78.949219 70.53125 C 78.628906 71.347656 77.753906 72.03125 77.179688 72.128906 C 76.539062 72.234375 75.859375 71.96875 75.515625 71.488281 C 75.195312 71.019531 75.207031 70.316406 75.550781 69.921875 C 75.847656 69.558594 76.78125 69.183594 77.710938 69.183594 C 77.738281 69.183594 77.773438 69.183594 77.796875 69.183594 C 78.320312 69.210938 78.730469 69.34375 78.890625 69.546875 " fill-opacity="1" fill-rule="nonzero"/><path fill="#ff6622" d="M 62.789062 99.878906 C 64.492188 98.898438 67.070312 97.621094 69.679688 97.726562 C 69.660156 97.863281 69.660156 98.003906 69.636719 98.144531 C 69.441406 99.582031 68.988281 100.644531 68.292969 101.300781 C 67.539062 102.011719 66.367188 102.363281 65.332031 102.664062 L 58.089844 104.828125 C 56.429688 104.953125 54.757812 104.996094 53.097656 104.902344 C 52.710938 104.882812 52.320312 104.835938 51.945312 104.785156 C 53.171875 104.667969 54.457031 104.359375 55.746094 103.835938 C 57.535156 103.109375 59.15625 102.097656 60.730469 101.125 C 61.414062 100.699219 62.09375 100.28125 62.789062 99.878906 " fill-opacity="1" fill-rule="nonzero"/><path fill="#ff6622" d="M 68.09375 91.914062 C 68.601562 92.488281 69 93.179688 69.273438 93.960938 C 62.988281 94.675781 56.480469 94.101562 50.414062 92.320312 C 45.460938 90.113281 41.316406 86.1875 38.910156 81.3125 C 38.207031 79.894531 37.519531 77.917969 38.289062 76.585938 C 39.058594 75.253906 41.121094 74.945312 42.722656 75.222656 C 43.828125 75.414062 44.9375 75.816406 46.097656 76.246094 C 47.089844 76.605469 48.097656 76.96875 49.175781 77.234375 C 51.753906 77.855469 54.128906 77.558594 55.863281 76.460938 C 56.773438 76.648438 57.667969 77.464844 58.15625 78.359375 C 58.632812 79.21875 58.914062 80.210938 59.207031 81.257812 C 59.402344 81.949219 59.605469 82.675781 59.871094 83.378906 C 60.703125 85.558594 62.113281 87.464844 63.96875 88.882812 C 64.511719 89.296875 65.078125 89.660156 65.625 90.023438 C 66.546875 90.609375 67.421875 91.175781 68.09375 91.914062 " fill-opacity="1" fill-rule="nonzero"/><path fill="#df5028" d="M 63.960938 96.390625 C 64.394531 96.390625 64.820312 96.371094 65.261719 96.363281 C 63.894531 96.839844 62.695312 97.480469 61.730469 98.035156 C 61.019531 98.4375 60.304688 98.878906 59.613281 99.3125 C 58.046875 100.28125 56.570312 101.203125 54.949219 101.851562 C 53.691406 102.375 51.445312 103.035156 49.273438 102.488281 C 49.144531 101.769531 49.21875 100.980469 49.441406 100.316406 C 50.019531 98.652344 51.339844 97.222656 52.613281 95.839844 C 52.789062 95.65625 52.894531 95.453125 52.957031 95.230469 C 52.96875 95.21875 52.96875 95.210938 52.976562 95.199219 C 56.570312 95.988281 60.273438 96.390625 63.960938 96.390625 " fill-opacity="1" fill-rule="nonzero"/><g clip-path="url(#47974e215e)"><path fill="#000000" d="M 197.449219 125.023438 C 199.066406 121.132812 200.589844 117.453125 201.316406 113.507812 C 201.449219 112.773438 201.566406 112.003906 201.6875 111.222656 C 202.292969 107.257812 202.972656 102.757812 206.53125 100.175781 C 210.011719 97.648438 214.617188 98.308594 217.765625 99.769531 C 220.273438 100.921875 222.382812 102.617188 224.4375 104.261719 C 225.054688 104.761719 225.671875 105.265625 226.316406 105.742188 C 233.808594 111.46875 243.214844 114.925781 252.671875 115.53125 C 248.574219 112.144531 245.332031 107.515625 243.355469 102.085938 C 241.117188 95.941406 240.488281 88.753906 241.5625 81.296875 C 242.480469 74.933594 244.484375 69.695312 247.519531 65.71875 C 250.488281 61.835938 254.8125 58.605469 260.769531 55.855469 C 272.695312 50.316406 285.265625 49.15625 296.183594 52.566406 C 308.507812 56.441406 317.996094 66.378906 320.402344 77.9375 C 321.511719 79.039062 323.511719 79.046875 325.078125 78.664062 C 325.972656 78.453125 326.859375 78.121094 327.796875 77.777344 C 329.050781 77.324219 330.339844 76.855469 331.734375 76.605469 C 334.277344 76.15625 337.828125 76.671875 339.476562 79.53125 C 340.660156 81.589844 340.480469 84.1875 338.957031 87.28125 C 336.242188 92.75 331.621094 97.179688 326.070312 99.707031 C 327.078125 100.886719 328.027344 102.222656 328.582031 103.820312 C 329.550781 106.660156 328.785156 109.722656 326.730469 111.277344 C 325.335938 112.324219 323.671875 112.546875 322.085938 112.632812 C 321.351562 112.675781 320.605469 112.695312 319.871094 112.695312 C 318.058594 112.695312 316.234375 112.570312 314.449219 112.3125 C 313.542969 113.582031 312.464844 114.988281 311.050781 116.089844 C 310.382812 116.613281 309.601562 116.972656 308.835938 117.269531 C 312.019531 118.636719 315.289062 120.105469 318.324219 122.328125 C 322.160156 125.121094 325.40625 128.492188 328.007812 132.339844 C 333.289062 140.210938 335.699219 150.140625 334.601562 159.558594 C 333.628906 167.917969 330.042969 175.265625 324.511719 180.269531 C 318.09375 186.082031 309.488281 188.394531 301.910156 189.910156 C 290.890625 192.09375 279.265625 193.199219 267.136719 193.199219 C 255.824219 193.199219 244.066406 192.25 231.945312 190.335938 C 223.226562 188.972656 214.15625 186.988281 206.917969 181.761719 C 199.554688 176.453125 194.296875 167.804688 192.484375 158.011719 C 190.878906 149.375 191.863281 139.816406 195.316406 130.367188 C 195.976562 128.566406 196.722656 126.761719 197.449219 125.023438 " fill-opacity="1" fill-rule="nonzero"/><path fill="#000000" d="M 309.738281 100.902344 C 310.179688 100.914062 310.605469 100.933594 311.039062 100.933594 C 314.726562 100.933594 318.429688 100.53125 322.023438 99.742188 C 322.03125 99.75 322.03125 99.761719 322.042969 99.769531 C 322.105469 99.992188 322.210938 100.195312 322.386719 100.378906 C 323.660156 101.765625 324.980469 103.191406 325.558594 104.859375 C 325.78125 105.519531 325.855469 106.308594 325.726562 107.03125 C 323.554688 107.578125 321.308594 106.914062 320.050781 106.390625 C 318.429688 105.742188 316.953125 104.824219 315.386719 103.855469 C 314.695312 103.421875 313.980469 102.980469 313.269531 102.578125 C 312.304688 102.019531 311.105469 101.382812 309.738281 100.902344 Z M 305.726562 98.503906 C 306 97.722656 306.398438 97.03125 306.90625 96.453125 C 307.578125 95.71875 308.453125 95.152344 309.375 94.566406 C 309.921875 94.203125 310.488281 93.839844 311.03125 93.425781 C 312.886719 92.003906 314.296875 90.097656 315.128906 87.921875 C 315.394531 87.21875 315.597656 86.492188 315.792969 85.800781 C 316.085938 84.753906 316.367188 83.761719 316.84375 82.898438 C 317.332031 82.003906 318.226562 81.191406 319.136719 81.003906 C 320.871094 82.101562 323.246094 82.398438 325.824219 81.777344 C 326.902344 81.511719 327.910156 81.148438 328.902344 80.789062 C 330.0625 80.359375 331.171875 79.957031 332.277344 79.761719 C 333.878906 79.488281 335.941406 79.796875 336.710938 81.128906 C 337.480469 82.460938 336.792969 84.433594 336.089844 85.851562 C 333.683594 90.726562 329.539062 94.652344 324.585938 96.859375 C 318.519531 98.640625 312.011719 99.21875 305.726562 98.503906 Z M 305.320312 102.269531 C 307.929688 102.160156 310.507812 103.441406 312.210938 104.421875 C 312.90625 104.824219 313.585938 105.242188 314.269531 105.667969 C 315.84375 106.640625 317.464844 107.652344 319.253906 108.378906 C 320.542969 108.898438 321.828125 109.210938 323.054688 109.324219 C 322.679688 109.378906 322.289062 109.421875 321.902344 109.441406 C 320.242188 109.539062 318.570312 109.496094 316.910156 109.371094 L 309.667969 107.207031 C 308.632812 106.90625 307.460938 106.550781 306.707031 105.839844 C 306.011719 105.1875 305.558594 104.121094 305.363281 102.683594 C 305.339844 102.542969 305.339844 102.402344 305.320312 102.269531 Z M 195.625 157.425781 C 194.125 149.351562 195.058594 140.382812 198.316406 131.46875 C 198.960938 129.730469 199.6875 127.957031 200.398438 126.25 C 202.007812 122.371094 203.679688 118.359375 204.453125 114.09375 C 204.601562 113.316406 204.722656 112.515625 204.851562 111.703125 C 205.40625 108.039062 205.929688 104.574219 208.417969 102.765625 C 210.773438 101.046875 214.09375 101.59375 216.429688 102.671875 C 218.570312 103.664062 220.457031 105.167969 222.433594 106.753906 C 223.074219 107.277344 223.722656 107.792969 224.371094 108.28125 C 233.5 115.257812 245.246094 119.066406 256.753906 118.808594 C 257.371094 119.105469 258.074219 119.425781 258.816406 119.800781 C 261.179688 120.9375 263.058594 122.070312 263.398438 121.6875 C 263.695312 121.363281 262.441406 119.757812 260.214844 118.507812 C 260.203125 118.421875 260.203125 118.339844 260.179688 118.234375 C 260.128906 117.976562 260 117.699219 259.824219 117.410156 C 260.480469 117.632812 261.085938 117.816406 261.664062 117.941406 C 263.996094 118.476562 265.488281 118.394531 265.519531 118.179688 C 265.550781 117.898438 264.15625 117.539062 262.035156 116.726562 C 260.984375 116.320312 259.746094 115.769531 258.433594 115.078125 C 257.125 114.359375 255.742188 113.5 254.363281 112.472656 C 253.566406 111.84375 252.824219 111.203125 252.132812 110.550781 C 249.679688 107.855469 247.679688 104.601562 246.359375 100.984375 C 244.289062 95.335938 243.730469 88.691406 244.730469 81.757812 C 245.570312 75.933594 247.359375 71.199219 250.050781 67.671875 C 252.707031 64.203125 256.644531 61.289062 262.109375 58.753906 C 273.316406 53.550781 285.074219 52.441406 295.234375 55.628906 C 306.515625 59.160156 315.183594 68.234375 317.304688 78.742188 C 317.34375 78.921875 317.421875 79.089844 317.503906 79.242188 C 317.515625 79.273438 317.527344 79.304688 317.535156 79.335938 C 316.464844 79.902344 315.546875 80.828125 314.96875 81.875 C 314.375 82.953125 314.054688 84.113281 313.746094 85.222656 C 313.554688 85.90625 313.375 86.546875 313.136719 87.15625 C 312.457031 88.945312 311.25 90.566406 309.730469 91.738281 C 309.261719 92.101562 308.761719 92.421875 308.214844 92.765625 C 307.230469 93.414062 306.195312 94.078125 305.328125 95.027344 C 303.585938 96.957031 302.832031 99.847656 303.253906 102.96875 C 303.511719 104.910156 304.179688 106.390625 305.246094 107.394531 C 306.363281 108.449219 307.859375 108.898438 309.058594 109.253906 L 312.082031 110.148438 C 312.054688 110.1875 312.019531 110.222656 311.988281 110.253906 C 311.527344 110.914062 311.011719 111.609375 310.433594 112.257812 C 309.132812 113.015625 307.335938 113.996094 305.171875 114.699219 C 300.902344 116.160156 297.109375 115.832031 297.042969 116.355469 C 297 116.585938 297.929688 116.984375 299.539062 117.152344 C 300.609375 117.269531 302.007812 117.242188 303.523438 116.964844 C 303.511719 117.089844 303.523438 117.214844 303.53125 117.347656 C 303.167969 117.515625 302.796875 117.699219 302.414062 117.890625 C 299.496094 119.359375 297.183594 120.695312 297.363281 121.167969 C 297.546875 121.621094 300.21875 121.007812 303.210938 119.5 C 303.65625 119.277344 304.085938 119.050781 304.488281 118.820312 C 304.628906 118.914062 304.789062 119.011719 304.96875 119.085938 C 305.621094 119.371094 306.265625 119.652344 306.90625 119.925781 C 310.292969 121.378906 313.492188 122.746094 316.453125 124.910156 C 319.964844 127.480469 322.972656 130.582031 325.355469 134.136719 C 330.222656 141.375 332.4375 150.515625 331.425781 159.195312 C 330.542969 166.777344 327.328125 173.421875 322.371094 177.890625 C 316.527344 183.183594 308.429688 185.347656 301.285156 186.765625 C 280.363281 190.933594 257.210938 191.074219 232.433594 187.179688 C 224.105469 185.867188 215.480469 183.992188 208.78125 179.160156 C 202.078125 174.335938 197.289062 166.414062 195.625 157.425781 Z M 195.316406 130.367188 C 191.863281 139.816406 190.878906 149.375 192.484375 158.011719 C 194.296875 167.804688 199.554688 176.453125 206.917969 181.761719 C 214.15625 186.988281 223.226562 188.972656 231.945312 190.335938 C 244.066406 192.25 255.824219 193.191406 267.136719 193.191406 C 279.265625 193.191406 290.890625 192.09375 301.910156 189.910156 C 309.488281 188.394531 318.09375 186.082031 324.511719 180.269531 C 330.042969 175.265625 333.628906 167.917969 334.601562 159.558594 C 335.699219 150.140625 333.289062 140.210938 328.007812 132.339844 C 325.40625 128.492188 322.160156 125.121094 318.324219 122.328125 C 315.289062 120.105469 312.019531 118.636719 308.835938 117.269531 C 309.601562 116.972656 310.382812 116.613281 311.050781 116.089844 C 312.464844 114.988281 313.542969 113.582031 314.449219 112.3125 C 316.234375 112.570312 318.058594 112.695312 319.871094 112.695312 C 320.605469 112.695312 321.351562 112.675781 322.085938 112.632812 C 323.671875 112.546875 325.335938 112.324219 326.730469 111.277344 C 328.785156 109.722656 329.550781 106.660156 328.582031 103.820312 C 328.027344 102.222656 327.078125 100.886719 326.070312 99.707031 C 331.621094 97.179688 336.242188 92.75 338.957031 87.28125 C 340.480469 84.1875 340.660156 81.589844 339.476562 79.53125 C 337.828125 76.671875 334.277344 76.15625 331.734375 76.605469 C 330.339844 76.855469 329.050781 77.324219 327.796875 77.777344 C 326.859375 78.121094 325.972656 78.453125 325.078125 78.664062 C 323.511719 79.046875 321.511719 79.039062 320.402344 77.9375 C 317.996094 66.378906 308.507812 56.441406 296.183594 52.566406 C 285.265625 49.15625 272.695312 50.316406 260.769531 55.855469 C 254.8125 58.605469 250.488281 61.835938 247.519531 65.71875 C 244.484375 69.695312 242.480469 74.933594 241.5625 81.296875 C 240.488281 88.753906 241.117188 95.941406 243.355469 102.085938 C 245.332031 107.515625 248.574219 112.144531 252.671875 115.53125 C 243.214844 114.925781 233.808594 111.46875 226.316406 105.742188 C 225.671875 105.265625 225.054688 104.761719 224.4375 104.261719 C 222.382812 102.617188 220.273438 100.921875 217.765625 99.769531 C 214.617188 98.308594 210.011719 97.648438 206.53125 100.175781 C 202.972656 102.757812 202.292969 107.257812 201.6875 111.222656 C 201.566406 112.003906 201.449219 112.773438 201.316406 113.507812 C 200.589844 117.453125 199.066406 121.132812 197.449219 125.023438 C 196.722656 126.761719 195.976562 128.566406 195.316406 130.367188 " fill-opacity="1" fill-rule="nonzero"/></g><path fill="#fcce0b" d="M 293.828125 81.417969 C 293.433594 80.039062 292.261719 75.382812 293.953125 72.839844 C 295.519531 70.515625 299.070312 71.050781 301.027344 72.328125 C 303.027344 73.628906 304.042969 75.710938 304.53125 77.226562 C 305.140625 79.070312 305.320312 80.960938 305.488281 82.792969 C 305.621094 84.230469 305.671875 85.738281 304.726562 86.953125 C 303.9375 87.953125 302.71875 88.359375 301.519531 88.359375 C 300.847656 88.359375 300.1875 88.230469 299.589844 88.027344 C 296.917969 87.09375 294.765625 84.613281 293.828125 81.417969 Z M 215.046875 152.105469 C 214.925781 150.4375 214.914062 148.789062 215.003906 147.15625 C 215.03125 146.324219 215.109375 145.542969 215.191406 144.703125 C 215.296875 143.851562 215.460938 142.972656 215.757812 142.089844 C 216.066406 141.203125 216.535156 140.261719 217.324219 139.472656 C 218.109375 138.675781 219.207031 138.144531 220.316406 138.027344 C 221.421875 137.886719 222.414062 138.125 223.253906 138.398438 C 224.097656 138.699219 224.832031 139.058594 225.511719 139.4375 C 226.152344 139.785156 226.777344 140.128906 227.40625 140.476562 C 228.007812 140.800781 228.621094 141.097656 229.238281 141.351562 C 230.476562 141.910156 231.742188 142.34375 233.011719 142.707031 C 235.535156 143.425781 238.101562 143.773438 240.570312 143.816406 C 243.066406 143.871094 245.441406 143.570312 247.707031 143.046875 C 249.980469 142.523438 252.140625 141.789062 254.214844 141.078125 C 258.371094 139.605469 262.300781 138.269531 265.933594 137.832031 C 269.5625 137.335938 272.828125 137.789062 275.238281 138.730469 C 277.660156 139.679688 279.265625 140.988281 280.140625 142.015625 C 281.027344 143.039062 281.292969 143.710938 281.207031 143.773438 C 281.089844 143.859375 280.628906 143.335938 279.644531 142.539062 C 278.664062 141.734375 277.078125 140.734375 274.796875 140.066406 C 272.519531 139.390625 269.589844 139.1875 266.242188 139.816406 C 262.886719 140.402344 259.234375 141.832031 255.105469 143.464844 C 253.023438 144.265625 250.796875 145.109375 248.371094 145.75 C 245.941406 146.386719 243.296875 146.792969 240.570312 146.804688 C 237.835938 146.824219 235.003906 146.503906 232.179688 145.757812 C 230.773438 145.394531 229.359375 144.925781 227.972656 144.339844 C 227.273438 144.0625 226.589844 143.742188 225.910156 143.390625 C 225.210938 143.046875 224.554688 142.675781 223.957031 142.355469 C 222.757812 141.714844 221.519531 141.246094 220.730469 141.375 C 220.335938 141.429688 220.003906 141.597656 219.730469 141.875 C 219.449219 142.164062 219.199219 142.621094 219.015625 143.1875 C 218.828125 143.753906 218.707031 144.410156 218.632812 145.09375 C 218.558594 145.800781 218.507812 146.566406 218.472656 147.316406 C 218.410156 148.808594 218.4375 150.324219 218.558594 151.847656 C 219.015625 157.917969 221.015625 164.113281 224.855469 169.25 C 226.75 171.820312 229.027344 174.0625 231.550781 175.851562 C 234.066406 177.644531 236.859375 178.945312 239.765625 179.84375 C 245.582031 181.65625 251.648438 181.96875 257.414062 181.941406 C 263.171875 181.921875 268.617188 181.390625 273.457031 180 C 278.277344 178.636719 282.460938 176.386719 285.671875 173.617188 C 288.898438 170.871094 291.074219 167.597656 292.21875 164.453125 C 293.394531 161.296875 293.605469 158.320312 293.433594 155.941406 C 293.242188 153.566406 292.667969 151.75 292.21875 150.554688 C 291.765625 149.363281 291.445312 148.746094 291.570312 148.667969 C 291.644531 148.605469 292.175781 149.097656 292.871094 150.25 C 293.554688 151.386719 294.394531 153.230469 294.828125 155.78125 C 295.222656 158.308594 295.222656 161.5625 294.128906 165.101562 C 293.039062 168.636719 290.78125 172.378906 287.363281 175.515625 C 283.964844 178.679688 279.46875 181.261719 274.308594 182.863281 C 269.140625 184.484375 263.398438 185.140625 257.453125 185.257812 C 251.546875 185.363281 245.144531 185.152344 238.71875 183.210938 C 235.523438 182.253906 232.351562 180.800781 229.496094 178.777344 C 226.632812 176.773438 224.085938 174.265625 221.953125 171.394531 C 217.683594 165.640625 215.492188 158.734375 215.046875 152.105469 Z M 198.316406 131.46875 C 195.058594 140.382812 194.125 149.351562 195.625 157.425781 C 197.289062 166.414062 202.078125 174.335938 208.78125 179.160156 C 215.480469 183.992188 224.105469 185.867188 232.433594 187.179688 C 257.210938 191.074219 280.363281 190.933594 301.285156 186.765625 C 308.429688 185.347656 316.527344 183.183594 322.371094 177.890625 C 327.328125 173.421875 330.542969 166.777344 331.425781 159.195312 C 332.4375 150.515625 330.222656 141.375 325.355469 134.136719 C 322.972656 130.582031 319.964844 127.480469 316.453125 124.910156 C 313.492188 122.746094 310.292969 121.378906 306.90625 119.925781 C 306.265625 119.652344 305.621094 119.371094 304.96875 119.085938 C 304.789062 119.011719 304.628906 118.914062 304.488281 118.820312 C 304.085938 119.050781 303.65625 119.277344 303.210938 119.5 C 300.21875 121.007812 297.546875 121.621094 297.363281 121.167969 C 297.183594 120.695312 299.496094 119.359375 302.414062 117.890625 C 302.796875 117.699219 303.167969 117.515625 303.53125 117.347656 C 303.523438 117.214844 303.511719 117.089844 303.523438 116.964844 C 302.007812 117.242188 300.609375 117.269531 299.539062 117.152344 C 297.929688 116.984375 297 116.585938 297.042969 116.355469 C 297.109375 115.832031 300.902344 116.160156 305.171875 114.699219 C 307.335938 113.996094 309.132812 113.015625 310.433594 112.257812 C 311.011719 111.609375 311.527344 110.914062 311.988281 110.253906 C 312.019531 110.222656 312.054688 110.1875 312.082031 110.148438 L 309.058594 109.253906 C 307.859375 108.898438 306.363281 108.449219 305.246094 107.394531 C 304.179688 106.390625 303.511719 104.910156 303.253906 102.96875 C 302.832031 99.847656 303.585938 96.957031 305.328125 95.027344 C 306.195312 94.078125 307.230469 93.414062 308.214844 92.765625 C 308.761719 92.421875 309.261719 92.101562 309.730469 91.738281 C 311.25 90.566406 312.457031 88.945312 313.136719 87.15625 C 313.375 86.546875 313.554688 85.90625 313.746094 85.222656 C 314.054688 84.113281 314.375 82.953125 314.96875 81.875 C 315.546875 80.828125 316.464844 79.902344 317.535156 79.335938 C 317.527344 79.304688 317.515625 79.273438 317.503906 79.242188 C 317.421875 79.089844 317.34375 78.921875 317.304688 78.742188 C 315.183594 68.234375 306.515625 59.160156 295.234375 55.628906 C 285.074219 52.441406 273.316406 53.550781 262.109375 58.753906 C 256.644531 61.289062 252.707031 64.203125 250.050781 67.671875 C 247.359375 71.199219 245.570312 75.933594 244.730469 81.757812 C 243.730469 88.691406 244.289062 95.335938 246.359375 100.984375 C 247.679688 104.601562 249.679688 107.855469 252.132812 110.550781 C 252.824219 111.203125 253.566406 111.84375 254.363281 112.472656 C 255.742188 113.5 257.125 114.359375 258.433594 115.078125 C 259.746094 115.769531 260.984375 116.320312 262.035156 116.726562 C 264.15625 117.539062 265.550781 117.898438 265.519531 118.179688 C 265.488281 118.394531 263.996094 118.476562 261.664062 117.941406 C 261.085938 117.816406 260.480469 117.632812 259.824219 117.410156 C 260 117.699219 260.128906 117.976562 260.179688 118.234375 C 260.203125 118.339844 260.203125 118.421875 260.214844 118.507812 C 262.441406 119.757812 263.695312 121.363281 263.398438 121.6875 C 263.058594 122.070312 261.179688 120.9375 258.816406 119.800781 C 258.074219 119.425781 257.371094 119.105469 256.753906 118.808594 C 245.246094 119.066406 233.5 115.257812 224.371094 108.28125 C 223.722656 107.792969 223.074219 107.277344 222.433594 106.753906 C 220.457031 105.167969 218.570312 103.664062 216.429688 102.671875 C 214.09375 101.59375 210.773438 101.046875 208.417969 102.765625 C 205.929688 104.574219 205.40625 108.039062 204.851562 111.703125 C 204.722656 112.515625 204.601562 113.316406 204.453125 114.09375 C 203.679688 118.359375 202.007812 122.371094 200.398438 126.25 C 199.6875 127.957031 198.960938 129.730469 198.316406 131.46875 " fill-opacity="1" fill-rule="nonzero"/><path fill="#000000" d="M 215.003906 147.15625 C 214.914062 148.789062 214.925781 150.4375 215.046875 152.105469 C 215.492188 158.734375 217.683594 165.640625 221.953125 171.394531 C 224.085938 174.265625 226.632812 176.773438 229.496094 178.777344 C 232.351562 180.800781 235.523438 182.253906 238.71875 183.210938 C 245.144531 185.152344 251.546875 185.363281 257.453125 185.257812 C 263.398438 185.140625 269.140625 184.484375 274.308594 182.863281 C 279.46875 181.261719 283.964844 178.679688 287.363281 175.515625 C 290.78125 172.378906 293.039062 168.636719 294.128906 165.101562 C 295.222656 161.5625 295.222656 158.308594 294.828125 155.78125 C 294.394531 153.230469 293.554688 151.386719 292.871094 150.25 C 292.175781 149.097656 291.644531 148.605469 291.570312 148.667969 C 291.445312 148.746094 291.765625 149.363281 292.21875 150.554688 C 292.667969 151.75 293.242188 153.566406 293.433594 155.941406 C 293.605469 158.320312 293.394531 161.296875 292.21875 164.453125 C 291.074219 167.597656 288.898438 170.871094 285.671875 173.617188 C 282.460938 176.386719 278.277344 178.636719 273.457031 180 C 268.617188 181.390625 263.171875 181.921875 257.414062 181.941406 C 251.648438 181.96875 245.582031 181.65625 239.765625 179.84375 C 236.859375 178.945312 234.066406 177.644531 231.550781 175.851562 C 229.027344 174.0625 226.75 171.820312 224.855469 169.25 C 221.015625 164.113281 219.015625 157.917969 218.558594 151.847656 C 218.4375 150.324219 218.410156 148.808594 218.472656 147.316406 C 218.507812 146.566406 218.558594 145.800781 218.632812 145.09375 C 218.707031 144.410156 218.828125 143.753906 219.015625 143.1875 C 219.199219 142.621094 219.449219 142.164062 219.730469 141.875 C 220.003906 141.597656 220.335938 141.429688 220.730469 141.375 C 221.519531 141.246094 222.757812 141.714844 223.957031 142.355469 C 224.554688 142.675781 225.210938 143.046875 225.910156 143.390625 C 226.589844 143.742188 227.273438 144.0625 227.972656 144.339844 C 229.359375 144.925781 230.773438 145.394531 232.179688 145.757812 C 235.003906 146.503906 237.835938 146.824219 240.570312 146.804688 C 243.296875 146.792969 245.941406 146.386719 248.371094 145.75 C 250.796875 145.109375 253.023438 144.265625 255.105469 143.464844 C 259.234375 141.832031 262.886719 140.402344 266.242188 139.816406 C 269.589844 139.1875 272.519531 139.390625 274.796875 140.066406 C 277.078125 140.734375 278.664062 141.734375 279.644531 142.539062 C 280.628906 143.335938 281.089844 143.859375 281.207031 143.773438 C 281.292969 143.710938 281.027344 143.039062 280.140625 142.015625 C 279.265625 140.988281 277.660156 139.679688 275.238281 138.730469 C 272.828125 137.789062 269.5625 137.335938 265.933594 137.832031 C 262.300781 138.269531 258.371094 139.605469 254.214844 141.078125 C 252.140625 141.789062 249.980469 142.523438 247.707031 143.046875 C 245.441406 143.570312 243.066406 143.871094 240.570312 143.816406 C 238.101562 143.773438 235.535156 143.425781 233.011719 142.707031 C 231.742188 142.34375 230.476562 141.910156 229.238281 141.351562 C 228.621094 141.097656 228.007812 140.800781 227.40625 140.476562 C 226.777344 140.128906 226.152344 139.785156 225.511719 139.4375 C 224.832031 139.058594 224.097656 138.699219 223.253906 138.398438 C 222.414062 138.125 221.421875 137.886719 220.316406 138.027344 C 219.207031 138.144531 218.109375 138.675781 217.324219 139.472656 C 216.535156 140.261719 216.066406 141.203125 215.757812 142.089844 C 215.460938 142.972656 215.296875 143.851562 215.191406 144.703125 C 215.109375 145.542969 215.03125 146.324219 215.003906 147.15625 " fill-opacity="1" fill-rule="nonzero"/><path fill="#000000" d="M 296.050781 75.074219 C 295.820312 74.472656 296.03125 74.1875 296.109375 74.089844 C 296.269531 73.886719 296.679688 73.75 297.203125 73.726562 C 297.226562 73.726562 297.261719 73.726562 297.289062 73.726562 C 298.21875 73.726562 299.152344 74.097656 299.449219 74.460938 C 299.792969 74.859375 299.804688 75.5625 299.484375 76.03125 C 299.140625 76.511719 298.460938 76.777344 297.820312 76.671875 C 297.246094 76.574219 296.371094 75.890625 296.050781 75.074219 Z M 295.875 80.820312 C 295.574219 79.773438 295.351562 78.636719 295.253906 77.554688 C 295.902344 78.183594 296.703125 78.644531 297.46875 78.78125 C 297.679688 78.816406 297.898438 78.824219 298.101562 78.824219 C 299.335938 78.824219 300.539062 78.238281 301.230469 77.246094 C 301.46875 76.90625 301.625 76.53125 301.734375 76.148438 C 302.082031 76.746094 302.335938 77.363281 302.511719 77.898438 C 303.042969 79.507812 303.210938 81.277344 303.363281 82.996094 C 303.46875 84.042969 303.511719 85.042969 303.042969 85.628906 C 302.476562 86.355469 301.21875 86.34375 300.292969 86.011719 C 298.300781 85.3125 296.609375 83.316406 295.875 80.820312 Z M 293.953125 72.839844 C 292.261719 75.382812 293.433594 80.039062 293.828125 81.417969 C 294.765625 84.613281 296.917969 87.09375 299.589844 88.027344 C 300.1875 88.230469 300.847656 88.359375 301.519531 88.359375 C 302.71875 88.359375 303.9375 87.953125 304.726562 86.953125 C 305.671875 85.738281 305.621094 84.230469 305.488281 82.792969 C 305.320312 80.960938 305.140625 79.070312 304.53125 77.226562 C 304.042969 75.710938 303.027344 73.628906 301.027344 72.328125 C 299.070312 71.050781 295.519531 70.515625 293.953125 72.839844 " fill-opacity="1" fill-rule="nonzero"/><path fill="#333333" d="M 295.253906 77.554688 C 295.351562 78.636719 295.574219 79.773438 295.875 80.820312 C 296.609375 83.316406 298.300781 85.3125 300.292969 86.011719 C 301.21875 86.34375 302.476562 86.355469 303.042969 85.628906 C 303.511719 85.042969 303.46875 84.042969 303.363281 82.996094 C 303.210938 81.277344 303.042969 79.507812 302.511719 77.898438 C 302.335938 77.363281 302.082031 76.746094 301.734375 76.148438 C 301.625 76.53125 301.46875 76.90625 301.230469 77.246094 C 300.539062 78.238281 299.335938 78.824219 298.101562 78.824219 C 297.898438 78.824219 297.679688 78.816406 297.46875 78.78125 C 296.703125 78.644531 295.902344 78.183594 295.253906 77.554688 " fill-opacity="1" fill-rule="nonzero"/><path fill="#ffffff" d="M 296.109375 74.089844 C 296.03125 74.1875 295.820312 74.472656 296.050781 75.074219 C 296.371094 75.890625 297.246094 76.574219 297.820312 76.671875 C 298.460938 76.777344 299.140625 76.511719 299.484375 76.03125 C 299.804688 75.5625 299.792969 74.859375 299.449219 74.460938 C 299.152344 74.097656 298.21875 73.726562 297.289062 73.726562 C 297.261719 73.726562 297.226562 73.726562 297.203125 73.726562 C 296.679688 73.75 296.269531 73.886719 296.109375 74.089844 " fill-opacity="1" fill-rule="nonzero"/><path fill="#ff6622" d="M 312.210938 104.421875 C 310.507812 103.441406 307.929688 102.160156 305.320312 102.269531 C 305.339844 102.402344 305.339844 102.542969 305.363281 102.683594 C 305.558594 104.121094 306.011719 105.1875 306.707031 105.839844 C 307.460938 106.550781 308.632812 106.90625 309.667969 107.207031 L 316.910156 109.371094 C 318.570312 109.496094 320.242188 109.539062 321.902344 109.441406 C 322.289062 109.421875 322.679688 109.378906 323.054688 109.324219 C 321.828125 109.210938 320.542969 108.898438 319.253906 108.378906 C 317.464844 107.652344 315.84375 106.640625 314.269531 105.667969 C 313.585938 105.242188 312.90625 104.824219 312.210938 104.421875 " fill-opacity="1" fill-rule="nonzero"/><path fill="#ff6622" d="M 306.90625 96.453125 C 306.398438 97.03125 306 97.722656 305.726562 98.503906 C 312.011719 99.21875 318.519531 98.640625 324.585938 96.859375 C 329.539062 94.652344 333.683594 90.726562 336.089844 85.851562 C 336.792969 84.433594 337.480469 82.460938 336.710938 81.128906 C 335.941406 79.796875 333.878906 79.488281 332.277344 79.761719 C 331.171875 79.957031 330.0625 80.359375 328.902344 80.789062 C 327.910156 81.148438 326.902344 81.511719 325.824219 81.777344 C 323.246094 82.398438 320.871094 82.101562 319.136719 81.003906 C 318.226562 81.191406 317.332031 82.003906 316.84375 82.898438 C 316.367188 83.761719 316.085938 84.753906 315.792969 85.800781 C 315.597656 86.492188 315.394531 87.21875 315.128906 87.921875 C 314.296875 90.097656 312.886719 92.003906 311.03125 93.425781 C 310.488281 93.839844 309.921875 94.203125 309.375 94.566406 C 308.453125 95.152344 307.578125 95.71875 306.90625 96.453125 " fill-opacity="1" fill-rule="nonzero"/><path fill="#df5028" d="M 311.039062 100.933594 C 310.605469 100.933594 310.179688 100.914062 309.738281 100.902344 C 311.105469 101.382812 312.304688 102.019531 313.269531 102.578125 C 313.980469 102.980469 314.695312 103.421875 315.386719 103.855469 C 316.953125 104.824219 318.429688 105.742188 320.050781 106.390625 C 321.308594 106.914062 323.554688 107.578125 325.726562 107.03125 C 325.855469 106.308594 325.78125 105.519531 325.558594 104.859375 C 324.980469 103.191406 323.660156 101.765625 322.386719 100.378906 C 322.210938 100.195312 322.105469 99.992188 322.042969 99.769531 C 322.03125 99.761719 322.03125 99.75 322.023438 99.742188 C 318.429688 100.53125 314.726562 100.933594 311.039062 100.933594 " fill-opacity="1" fill-rule="nonzero"/><g clip-path="url(#ca7d3080ff)"><path fill="#000000" d="M 266.109375 253.160156 C 264.488281 249.265625 262.964844 245.585938 262.242188 241.640625 C 262.105469 240.90625 261.988281 240.136719 261.871094 239.355469 C 261.265625 235.390625 260.582031 230.890625 257.023438 228.308594 C 253.542969 225.785156 248.941406 226.441406 245.789062 227.902344 C 243.285156 229.054688 241.171875 230.75 239.117188 232.394531 C 238.503906 232.894531 237.886719 233.398438 237.242188 233.878906 C 229.75 239.605469 220.339844 243.058594 210.886719 243.664062 C 214.984375 240.277344 218.222656 235.648438 220.199219 230.21875 C 222.4375 224.074219 223.066406 216.886719 221.996094 209.429688 C 221.074219 203.066406 219.074219 197.828125 216.039062 193.855469 C 213.070312 189.972656 208.742188 186.738281 202.785156 183.988281 C 190.859375 178.449219 178.289062 177.289062 167.375 180.703125 C 155.050781 184.574219 145.5625 194.511719 143.152344 206.070312 C 142.046875 207.171875 140.046875 207.179688 138.480469 206.796875 C 137.585938 206.585938 136.699219 206.253906 135.761719 205.914062 C 134.503906 205.457031 133.21875 204.988281 131.820312 204.742188 C 129.277344 204.289062 125.730469 204.804688 124.082031 207.664062 C 122.898438 209.722656 123.074219 212.320312 124.597656 215.414062 C 127.316406 220.882812 131.9375 225.3125 137.488281 227.839844 C 136.476562 229.023438 135.53125 230.359375 134.972656 231.957031 C 134.007812 234.792969 134.769531 237.855469 136.824219 239.410156 C 138.222656 240.457031 139.886719 240.679688 141.472656 240.765625 C 142.207031 240.808594 142.949219 240.828125 143.683594 240.828125 C 145.5 240.828125 147.320312 240.703125 149.109375 240.445312 C 150.015625 241.714844 151.09375 243.125 152.507812 244.222656 C 153.175781 244.746094 153.953125 245.109375 154.722656 245.402344 C 151.535156 246.769531 148.269531 248.238281 145.234375 250.460938 C 141.398438 253.253906 138.148438 256.625 135.550781 260.472656 C 130.269531 268.34375 127.855469 278.273438 128.953125 287.691406 C 129.925781 296.050781 133.515625 303.402344 139.042969 308.402344 C 145.464844 314.214844 154.070312 316.527344 161.644531 318.042969 C 172.667969 320.226562 184.289062 321.332031 196.421875 321.332031 C 207.734375 321.332031 219.492188 320.382812 231.609375 318.46875 C 240.332031 317.105469 249.402344 315.121094 256.636719 309.898438 C 264 304.585938 269.261719 295.9375 271.074219 286.144531 C 272.679688 277.507812 271.691406 267.953125 268.242188 258.503906 C 267.578125 256.703125 266.835938 254.894531 266.109375 253.160156 " fill-opacity="1" fill-rule="nonzero"/><path fill="#000000" d="M 153.820312 229.035156 C 153.378906 229.046875 152.953125 229.066406 152.519531 229.066406 C 148.828125 229.066406 145.125 228.664062 141.535156 227.875 C 141.523438 227.882812 141.523438 227.894531 141.515625 227.902344 C 141.453125 228.125 141.34375 228.328125 141.171875 228.515625 C 139.894531 229.898438 138.574219 231.328125 138 232.992188 C 137.777344 233.65625 137.699219 234.445312 137.832031 235.164062 C 140 235.710938 142.25 235.050781 143.507812 234.527344 C 145.125 233.878906 146.605469 232.957031 148.171875 231.988281 C 148.863281 231.554688 149.578125 231.113281 150.289062 230.710938 C 151.25 230.15625 152.449219 229.515625 153.820312 229.035156 Z M 157.832031 226.636719 C 157.554688 225.855469 157.160156 225.164062 156.652344 224.589844 C 155.980469 223.851562 155.105469 223.285156 154.179688 222.699219 C 153.636719 222.335938 153.070312 221.972656 152.527344 221.558594 C 150.671875 220.140625 149.257812 218.230469 148.429688 216.054688 C 148.164062 215.351562 147.960938 214.625 147.765625 213.933594 C 147.472656 212.886719 147.191406 211.894531 146.710938 211.035156 C 146.222656 210.136719 145.328125 209.324219 144.421875 209.136719 C 142.683594 210.234375 140.3125 210.53125 137.734375 209.910156 C 136.65625 209.644531 135.644531 209.28125 134.65625 208.921875 C 133.496094 208.492188 132.386719 208.089844 131.28125 207.898438 C 129.679688 207.621094 127.617188 207.929688 126.847656 209.261719 C 126.078125 210.59375 126.765625 212.566406 127.464844 213.988281 C 129.875 218.859375 134.015625 222.789062 138.972656 224.996094 C 145.039062 226.777344 151.546875 227.351562 157.832031 226.636719 Z M 158.238281 230.402344 C 155.625 230.296875 153.050781 231.574219 151.347656 232.554688 C 150.652344 232.957031 149.96875 233.375 149.289062 233.800781 C 147.710938 234.773438 146.09375 235.785156 144.304688 236.511719 C 143.011719 237.035156 141.726562 237.34375 140.503906 237.460938 C 140.875 237.511719 141.269531 237.554688 141.65625 237.574219 C 143.3125 237.671875 144.984375 237.628906 146.648438 237.503906 L 153.890625 235.339844 C 154.925781 235.039062 156.09375 234.6875 156.851562 233.972656 C 157.546875 233.320312 158 232.253906 158.195312 230.816406 C 158.21875 230.675781 158.21875 230.539062 158.238281 230.402344 Z M 267.933594 285.558594 C 269.429688 277.484375 268.496094 268.519531 265.238281 259.601562 C 264.597656 257.863281 263.871094 256.089844 263.160156 254.382812 C 261.550781 250.503906 259.878906 246.492188 259.105469 242.226562 C 258.953125 241.449219 258.832031 240.648438 258.707031 239.835938 C 258.152344 236.171875 257.628906 232.707031 255.140625 230.898438 C 252.785156 229.183594 249.464844 229.730469 247.128906 230.804688 C 244.988281 231.796875 243.101562 233.300781 241.125 234.890625 C 240.480469 235.410156 239.832031 235.925781 239.1875 236.414062 C 230.058594 243.390625 218.3125 247.199219 206.804688 246.941406 C 206.1875 247.238281 205.484375 247.558594 204.738281 247.933594 C 202.375 249.074219 200.5 250.207031 200.15625 249.824219 C 199.863281 249.5 201.113281 247.890625 203.34375 246.640625 C 203.351562 246.554688 203.351562 246.472656 203.375 246.367188 C 203.429688 246.109375 203.554688 245.835938 203.734375 245.542969 C 203.078125 245.765625 202.472656 245.949219 201.894531 246.078125 C 199.5625 246.609375 198.070312 246.527344 198.039062 246.3125 C 198.003906 246.03125 199.402344 245.675781 201.519531 244.859375 C 202.574219 244.453125 203.8125 243.902344 205.121094 243.210938 C 206.433594 242.492188 207.816406 241.632812 209.191406 240.605469 C 209.992188 239.976562 210.734375 239.335938 211.425781 238.683594 C 213.878906 235.988281 215.878906 232.734375 217.199219 229.117188 C 219.269531 223.46875 219.828125 216.824219 218.828125 209.890625 C 217.988281 204.066406 216.199219 199.332031 213.503906 195.804688 C 210.851562 192.339844 206.910156 189.425781 201.449219 186.886719 C 190.242188 181.683594 178.484375 180.574219 168.320312 183.761719 C 157.042969 187.292969 148.375 196.367188 146.253906 206.875 C 146.214844 207.054688 146.136719 207.222656 146.054688 207.375 C 146.039062 207.40625 146.03125 207.4375 146.019531 207.472656 C 147.09375 208.039062 148.011719 208.960938 148.585938 210.007812 C 149.183594 211.085938 149.5 212.25 149.8125 213.355469 C 150.003906 214.039062 150.183594 214.679688 150.417969 215.289062 C 151.101562 217.078125 152.304688 218.703125 153.828125 219.871094 C 154.296875 220.234375 154.796875 220.554688 155.339844 220.898438 C 156.328125 221.546875 157.363281 222.210938 158.226562 223.160156 C 159.972656 225.089844 160.726562 227.980469 160.300781 231.105469 C 160.046875 233.042969 159.378906 234.527344 158.308594 235.527344 C 157.191406 236.582031 155.699219 237.035156 154.5 237.386719 L 151.472656 238.28125 C 151.503906 238.320312 151.535156 238.355469 151.570312 238.390625 C 152.03125 239.046875 152.546875 239.746094 153.121094 240.394531 C 154.421875 241.148438 156.222656 242.132812 158.386719 242.832031 C 162.65625 244.292969 166.445312 243.964844 166.515625 244.488281 C 166.558594 244.722656 165.628906 245.117188 164.019531 245.289062 C 162.945312 245.402344 161.550781 245.375 160.035156 245.097656 C 160.046875 245.222656 160.035156 245.351562 160.027344 245.480469 C 160.386719 245.648438 160.761719 245.835938 161.144531 246.023438 C 164.0625 247.496094 166.375 248.832031 166.195312 249.300781 C 166.011719 249.753906 163.335938 249.140625 160.34375 247.636719 C 159.898438 247.414062 159.46875 247.183594 159.070312 246.953125 C 158.929688 247.050781 158.769531 247.144531 158.589844 247.21875 C 157.9375 247.503906 157.289062 247.785156 156.652344 248.0625 C 153.261719 249.511719 150.066406 250.878906 147.101562 253.042969 C 143.59375 255.613281 140.585938 258.714844 138.203125 262.269531 C 133.335938 269.511719 131.121094 278.648438 132.132812 287.328125 C 133.015625 294.910156 136.230469 301.554688 141.1875 306.023438 C 147.03125 311.316406 155.128906 313.480469 162.273438 314.898438 C 183.191406 319.066406 206.34375 319.207031 231.121094 315.3125 C 239.453125 314.003906 248.078125 312.125 254.777344 307.292969 C 261.476562 302.472656 266.269531 294.546875 267.933594 285.558594 Z M 268.242188 258.503906 C 271.691406 267.953125 272.679688 277.507812 271.074219 286.144531 C 269.261719 295.9375 264 304.585938 256.636719 309.898438 C 249.402344 315.121094 240.332031 317.105469 231.609375 318.46875 C 219.492188 320.382812 207.734375 321.328125 196.421875 321.328125 C 184.289062 321.328125 172.667969 320.226562 161.644531 318.042969 C 154.070312 316.527344 145.464844 314.214844 139.042969 308.402344 C 133.515625 303.402344 129.925781 296.050781 128.953125 287.691406 C 127.855469 278.273438 130.269531 268.34375 135.550781 260.472656 C 138.148438 256.625 141.398438 253.253906 145.234375 250.460938 C 148.269531 248.238281 151.535156 246.769531 154.722656 245.402344 C 153.953125 245.109375 153.175781 244.746094 152.507812 244.222656 C 151.09375 243.125 150.015625 241.714844 149.109375 240.445312 C 147.320312 240.703125 145.5 240.828125 143.683594 240.828125 C 142.949219 240.828125 142.207031 240.808594 141.472656 240.765625 C 139.886719 240.679688 138.222656 240.457031 136.824219 239.410156 C 134.769531 237.855469 134.007812 234.792969 134.972656 231.957031 C 135.53125 230.359375 136.476562 229.023438 137.488281 227.839844 C 131.9375 225.3125 127.316406 220.882812 124.597656 215.414062 C 123.074219 212.320312 122.898438 209.722656 124.082031 207.664062 C 125.730469 204.804688 129.277344 204.289062 131.820312 204.742188 C 133.21875 204.988281 134.503906 205.457031 135.761719 205.914062 C 136.699219 206.253906 137.585938 206.585938 138.480469 206.796875 C 140.046875 207.179688 142.046875 207.171875 143.152344 206.070312 C 145.5625 194.511719 155.050781 184.574219 167.375 180.703125 C 178.289062 177.289062 190.859375 178.449219 202.785156 183.988281 C 208.742188 186.738281 213.070312 189.972656 216.039062 193.855469 C 219.074219 197.828125 221.074219 203.066406 221.996094 209.429688 C 223.066406 216.886719 222.4375 224.074219 220.199219 230.21875 C 218.222656 235.648438 214.984375 240.277344 210.886719 243.664062 C 220.339844 243.058594 229.75 239.605469 237.242188 233.878906 C 237.886719 233.398438 238.503906 232.894531 239.117188 232.394531 C 241.171875 230.75 243.285156 229.054688 245.789062 227.902344 C 248.941406 226.441406 253.542969 225.785156 257.023438 228.308594 C 260.582031 230.890625 261.265625 235.390625 261.871094 239.355469 C 261.988281 240.136719 262.105469 240.90625 262.242188 241.640625 C 262.964844 245.585938 264.488281 249.265625 266.109375 253.160156 C 266.835938 254.894531 267.578125 256.703125 268.242188 258.503906 " fill-opacity="1" fill-rule="nonzero"/></g><path fill="#fcce0b" d="M 169.730469 209.550781 C 170.125 208.171875 171.296875 203.515625 169.601562 200.972656 C 168.035156 198.652344 164.488281 199.183594 162.53125 200.460938 C 160.527344 201.761719 159.511719 203.84375 159.023438 205.359375 C 158.417969 207.203125 158.238281 209.09375 158.066406 210.925781 C 157.9375 212.363281 157.882812 213.871094 158.832031 215.085938 C 159.621094 216.085938 160.839844 216.492188 162.039062 216.492188 C 162.710938 216.492188 163.371094 216.363281 163.964844 216.160156 C 166.640625 215.226562 168.789062 212.746094 169.730469 209.550781 Z M 248.511719 280.238281 C 248.632812 278.574219 248.640625 276.921875 248.554688 275.289062 C 248.527344 274.457031 248.449219 273.679688 248.367188 272.835938 C 248.261719 271.984375 248.097656 271.109375 247.800781 270.222656 C 247.492188 269.335938 247.023438 268.398438 246.234375 267.609375 C 245.445312 266.808594 244.347656 266.277344 243.242188 266.160156 C 242.136719 266.019531 241.144531 266.257812 240.300781 266.535156 C 239.460938 266.832031 238.726562 267.191406 238.046875 267.570312 C 237.40625 267.917969 236.777344 268.261719 236.148438 268.609375 C 235.550781 268.933594 234.9375 269.230469 234.316406 269.484375 C 233.078125 270.042969 231.8125 270.480469 230.546875 270.839844 C 228.023438 271.558594 225.457031 271.90625 222.984375 271.949219 C 220.492188 272.003906 218.117188 271.703125 215.851562 271.179688 C 213.578125 270.65625 211.417969 269.921875 209.34375 269.210938 C 205.183594 267.738281 201.253906 266.402344 197.625 265.96875 C 193.992188 265.46875 190.730469 265.921875 188.316406 266.863281 C 185.894531 267.8125 184.289062 269.125 183.414062 270.148438 C 182.53125 271.171875 182.265625 271.84375 182.351562 271.90625 C 182.46875 271.992188 182.925781 271.472656 183.914062 270.671875 C 184.894531 269.867188 186.480469 268.867188 188.761719 268.199219 C 191.039062 267.527344 193.96875 267.324219 197.3125 267.953125 C 200.667969 268.539062 204.324219 269.964844 208.453125 271.597656 C 210.53125 272.402344 212.761719 273.242188 215.1875 273.882812 C 217.613281 274.519531 220.257812 274.925781 222.984375 274.9375 C 225.722656 274.957031 228.554688 274.636719 231.378906 273.890625 C 232.785156 273.527344 234.195312 273.058594 235.585938 272.472656 C 236.285156 272.195312 236.96875 271.878906 237.648438 271.523438 C 238.34375 271.179688 239.003906 270.808594 239.601562 270.488281 C 240.800781 269.847656 242.039062 269.378906 242.828125 269.511719 C 243.222656 269.5625 243.550781 269.734375 243.828125 270.007812 C 244.109375 270.300781 244.359375 270.753906 244.542969 271.320312 C 244.730469 271.886719 244.851562 272.546875 244.925781 273.226562 C 244.996094 273.933594 245.050781 274.699219 245.085938 275.449219 C 245.148438 276.941406 245.117188 278.457031 244.996094 279.980469 C 244.542969 286.050781 242.542969 292.246094 238.703125 297.382812 C 236.808594 299.953125 234.53125 302.195312 232.007812 303.988281 C 229.492188 305.777344 226.699219 307.078125 223.792969 307.976562 C 217.976562 309.789062 211.910156 310.101562 206.140625 310.078125 C 200.382812 310.058594 194.941406 309.523438 190.101562 308.136719 C 185.28125 306.769531 181.09375 304.519531 177.882812 301.75 C 174.660156 299.003906 172.484375 295.734375 171.339844 292.585938 C 170.164062 289.429688 169.953125 286.453125 170.125 284.078125 C 170.3125 281.699219 170.890625 279.882812 171.339844 278.6875 C 171.792969 277.496094 172.113281 276.878906 171.988281 276.800781 C 171.914062 276.738281 171.382812 277.230469 170.6875 278.382812 C 170.003906 279.519531 169.164062 281.367188 168.726562 283.917969 C 168.335938 286.445312 168.335938 289.695312 169.429688 293.234375 C 170.515625 296.769531 172.773438 300.511719 176.191406 303.648438 C 179.589844 306.8125 184.085938 309.394531 189.25 310.996094 C 194.417969 312.617188 200.15625 313.277344 206.105469 313.390625 C 212.011719 313.5 218.414062 313.285156 224.835938 311.34375 C 228.03125 310.386719 231.203125 308.933594 234.0625 306.910156 C 236.921875 304.90625 239.472656 302.398438 241.601562 299.527344 C 245.871094 293.773438 248.066406 286.871094 248.511719 280.238281 Z M 265.238281 259.601562 C 268.496094 268.519531 269.429688 277.484375 267.933594 285.558594 C 266.269531 294.546875 261.476562 302.472656 254.777344 307.292969 C 248.078125 312.125 239.453125 314.003906 231.121094 315.3125 C 206.34375 319.207031 183.191406 319.066406 162.273438 314.898438 C 155.128906 313.480469 147.03125 311.316406 141.1875 306.023438 C 136.230469 301.554688 133.015625 294.910156 132.132812 287.328125 C 131.121094 278.648438 133.335938 269.511719 138.203125 262.269531 C 140.585938 258.714844 143.59375 255.613281 147.101562 253.042969 C 150.066406 250.878906 153.261719 249.511719 156.652344 248.0625 C 157.289062 247.785156 157.9375 247.503906 158.589844 247.21875 C 158.769531 247.144531 158.929688 247.050781 159.070312 246.953125 C 159.46875 247.183594 159.898438 247.414062 160.34375 247.636719 C 163.335938 249.140625 166.011719 249.753906 166.195312 249.300781 C 166.375 248.832031 164.0625 247.496094 161.144531 246.023438 C 160.761719 245.835938 160.386719 245.648438 160.027344 245.480469 C 160.035156 245.351562 160.046875 245.222656 160.035156 245.097656 C 161.550781 245.375 162.945312 245.402344 164.019531 245.289062 C 165.628906 245.117188 166.558594 244.722656 166.515625 244.488281 C 166.445312 243.964844 162.65625 244.292969 158.386719 242.832031 C 156.222656 242.132812 154.421875 241.148438 153.121094 240.394531 C 152.546875 239.746094 152.03125 239.046875 151.570312 238.390625 C 151.535156 238.355469 151.503906 238.320312 151.472656 238.28125 L 154.5 237.386719 C 155.699219 237.035156 157.191406 236.582031 158.308594 235.527344 C 159.378906 234.527344 160.046875 233.042969 160.300781 231.105469 C 160.726562 227.980469 159.972656 225.089844 158.226562 223.160156 C 157.363281 222.210938 156.328125 221.546875 155.339844 220.898438 C 154.796875 220.554688 154.296875 220.234375 153.828125 219.871094 C 152.304688 218.703125 151.101562 217.078125 150.417969 215.289062 C 150.183594 214.679688 150.003906 214.039062 149.8125 213.355469 C 149.5 212.25 149.183594 211.085938 148.585938 210.007812 C 148.011719 208.960938 147.09375 208.039062 146.019531 207.472656 C 146.03125 207.4375 146.039062 207.40625 146.054688 207.375 C 146.136719 207.222656 146.214844 207.054688 146.253906 206.875 C 148.375 196.367188 157.042969 187.292969 168.320312 183.761719 C 178.484375 180.574219 190.242188 181.683594 201.449219 186.886719 C 206.910156 189.425781 210.851562 192.339844 213.503906 195.804688 C 216.199219 199.332031 217.988281 204.066406 218.828125 209.890625 C 219.828125 216.824219 219.269531 223.46875 217.199219 229.117188 C 215.878906 232.734375 213.878906 235.988281 211.425781 238.683594 C 210.734375 239.335938 209.992188 239.976562 209.191406 240.605469 C 207.816406 241.632812 206.433594 242.492188 205.121094 243.210938 C 203.8125 243.902344 202.574219 244.453125 201.519531 244.859375 C 199.402344 245.675781 198.003906 246.03125 198.039062 246.3125 C 198.070312 246.527344 199.5625 246.609375 201.894531 246.078125 C 202.472656 245.949219 203.078125 245.765625 203.734375 245.542969 C 203.554688 245.835938 203.429688 246.109375 203.375 246.367188 C 203.351562 246.472656 203.351562 246.554688 203.34375 246.640625 C 201.113281 247.890625 199.863281 249.5 200.15625 249.824219 C 200.5 250.207031 202.375 249.074219 204.738281 247.933594 C 205.484375 247.558594 206.1875 247.238281 206.804688 246.941406 C 218.3125 247.199219 230.058594 243.390625 239.1875 236.414062 C 239.832031 235.925781 240.480469 235.410156 241.125 234.890625 C 243.101562 233.300781 244.988281 231.796875 247.128906 230.804688 C 249.464844 229.730469 252.785156 229.183594 255.140625 230.898438 C 257.628906 232.707031 258.152344 236.171875 258.707031 239.835938 C 258.832031 240.648438 258.953125 241.449219 259.105469 242.226562 C 259.878906 246.492188 261.550781 250.503906 263.160156 254.382812 C 263.871094 256.089844 264.597656 257.863281 265.238281 259.601562 " fill-opacity="1" fill-rule="nonzero"/><path fill="#000000" d="M 248.554688 275.289062 C 248.640625 276.921875 248.632812 278.574219 248.511719 280.238281 C 248.066406 286.871094 245.871094 293.773438 241.601562 299.527344 C 239.472656 302.398438 236.921875 304.90625 234.0625 306.910156 C 231.203125 308.933594 228.03125 310.386719 224.835938 311.34375 C 218.414062 313.285156 212.011719 313.5 206.105469 313.390625 C 200.15625 313.277344 194.417969 312.617188 189.25 310.996094 C 184.085938 309.394531 179.589844 306.8125 176.191406 303.648438 C 172.773438 300.511719 170.515625 296.769531 169.429688 293.234375 C 168.335938 289.695312 168.335938 286.445312 168.726562 283.917969 C 169.164062 281.367188 170.003906 279.519531 170.6875 278.382812 C 171.382812 277.230469 171.914062 276.738281 171.988281 276.800781 C 172.113281 276.878906 171.792969 277.496094 171.339844 278.6875 C 170.890625 279.882812 170.3125 281.699219 170.125 284.078125 C 169.953125 286.453125 170.164062 289.429688 171.339844 292.585938 C 172.484375 295.734375 174.660156 299.003906 177.882812 301.75 C 181.09375 304.519531 185.28125 306.769531 190.101562 308.136719 C 194.941406 309.523438 200.382812 310.058594 206.140625 310.078125 C 211.910156 310.101562 217.976562 309.789062 223.792969 307.976562 C 226.699219 307.078125 229.492188 305.777344 232.007812 303.988281 C 234.53125 302.195312 236.808594 299.953125 238.703125 297.382812 C 242.542969 292.246094 244.542969 286.050781 244.996094 279.980469 C 245.117188 278.457031 245.148438 276.941406 245.085938 275.449219 C 245.050781 274.699219 244.996094 273.933594 244.925781 273.226562 C 244.851562 272.546875 244.730469 271.886719 244.542969 271.320312 C 244.359375 270.753906 244.109375 270.300781 243.828125 270.007812 C 243.550781 269.734375 243.222656 269.5625 242.828125 269.511719 C 242.039062 269.378906 240.800781 269.847656 239.601562 270.488281 C 239.003906 270.808594 238.34375 271.179688 237.648438 271.523438 C 236.96875 271.878906 236.285156 272.195312 235.585938 272.472656 C 234.195312 273.058594 232.785156 273.527344 231.378906 273.890625 C 228.554688 274.636719 225.722656 274.957031 222.984375 274.9375 C 220.257812 274.925781 217.613281 274.519531 215.1875 273.882812 C 212.761719 273.242188 210.53125 272.402344 208.453125 271.597656 C 204.324219 269.964844 200.667969 268.539062 197.3125 267.953125 C 193.96875 267.324219 191.039062 267.527344 188.761719 268.199219 C 186.480469 268.867188 184.894531 269.867188 183.914062 270.671875 C 182.925781 271.472656 182.46875 271.992188 182.351562 271.90625 C 182.265625 271.84375 182.53125 271.171875 183.414062 270.148438 C 184.289062 269.125 185.894531 267.8125 188.316406 266.863281 C 190.730469 265.921875 193.992188 265.46875 197.625 265.96875 C 201.253906 266.402344 205.183594 267.738281 209.34375 269.210938 C 211.417969 269.921875 213.578125 270.65625 215.851562 271.179688 C 218.117188 271.703125 220.492188 272.003906 222.984375 271.949219 C 225.457031 271.90625 228.023438 271.558594 230.546875 270.839844 C 231.8125 270.480469 233.078125 270.042969 234.316406 269.484375 C 234.9375 269.230469 235.550781 268.933594 236.148438 268.609375 C 236.777344 268.261719 237.40625 267.917969 238.046875 267.570312 C 238.726562 267.191406 239.460938 266.832031 240.300781 266.535156 C 241.144531 266.257812 242.136719 266.019531 243.242188 266.160156 C 244.347656 266.277344 245.445312 266.808594 246.234375 267.609375 C 247.023438 268.398438 247.492188 269.335938 247.800781 270.222656 C 248.097656 271.109375 248.261719 271.984375 248.367188 272.835938 C 248.449219 273.679688 248.527344 274.457031 248.554688 275.289062 " fill-opacity="1" fill-rule="nonzero"/><path fill="#000000" d="M 167.503906 203.207031 C 167.738281 202.605469 167.523438 202.320312 167.445312 202.222656 C 167.289062 202.019531 166.875 201.882812 166.355469 201.859375 C 166.332031 201.859375 166.296875 201.859375 166.265625 201.859375 C 165.339844 201.859375 164.40625 202.234375 164.105469 202.597656 C 163.761719 202.992188 163.753906 203.695312 164.074219 204.164062 C 164.414062 204.644531 165.097656 204.910156 165.734375 204.804688 C 166.3125 204.707031 167.1875 204.023438 167.503906 203.207031 Z M 167.683594 208.953125 C 167.984375 207.90625 168.207031 206.769531 168.300781 205.691406 C 167.65625 206.320312 166.851562 206.777344 166.089844 206.914062 C 165.875 206.949219 165.660156 206.957031 165.457031 206.957031 C 164.222656 206.957031 163.019531 206.371094 162.328125 205.378906 C 162.089844 205.039062 161.929688 204.664062 161.824219 204.28125 C 161.476562 204.882812 161.21875 205.496094 161.046875 206.03125 C 160.515625 207.640625 160.34375 209.410156 160.195312 211.128906 C 160.089844 212.175781 160.046875 213.179688 160.515625 213.765625 C 161.078125 214.488281 162.335938 214.476562 163.265625 214.144531 C 165.257812 213.445312 166.949219 211.449219 167.683594 208.953125 Z M 169.601562 200.972656 C 171.296875 203.515625 170.125 208.171875 169.730469 209.550781 C 168.789062 212.746094 166.640625 215.226562 163.964844 216.160156 C 163.371094 216.363281 162.710938 216.492188 162.039062 216.492188 C 160.839844 216.492188 159.621094 216.085938 158.832031 215.085938 C 157.882812 213.871094 157.9375 212.363281 158.066406 210.925781 C 158.238281 209.09375 158.417969 207.203125 159.023438 205.359375 C 159.511719 203.84375 160.527344 201.761719 162.53125 200.460938 C 164.488281 199.183594 168.035156 198.652344 169.601562 200.972656 " fill-opacity="1" fill-rule="nonzero"/><path fill="#333333" d="M 168.300781 205.691406 C 168.207031 206.769531 167.984375 207.90625 167.683594 208.953125 C 166.949219 211.449219 165.257812 213.445312 163.265625 214.144531 C 162.335938 214.476562 161.078125 214.488281 160.515625 213.765625 C 160.046875 213.179688 160.089844 212.175781 160.195312 211.128906 C 160.34375 209.410156 160.515625 207.640625 161.046875 206.03125 C 161.21875 205.496094 161.476562 204.882812 161.824219 204.28125 C 161.929688 204.664062 162.089844 205.039062 162.328125 205.378906 C 163.019531 206.371094 164.222656 206.957031 165.457031 206.957031 C 165.660156 206.957031 165.875 206.949219 166.089844 206.914062 C 166.851562 206.777344 167.65625 206.320312 168.300781 205.691406 " fill-opacity="1" fill-rule="nonzero"/><path fill="#ffffff" d="M 167.445312 202.222656 C 167.523438 202.320312 167.738281 202.605469 167.503906 203.207031 C 167.1875 204.023438 166.3125 204.707031 165.734375 204.804688 C 165.097656 204.910156 164.414062 204.644531 164.074219 204.164062 C 163.753906 203.695312 163.761719 202.992188 164.105469 202.597656 C 164.40625 202.234375 165.339844 201.859375 166.265625 201.859375 C 166.296875 201.859375 166.332031 201.859375 166.355469 201.859375 C 166.875 201.882812 167.289062 202.019531 167.445312 202.222656 " fill-opacity="1" fill-rule="nonzero"/><path fill="#ff6622" d="M 151.347656 232.554688 C 153.050781 231.574219 155.625 230.296875 158.238281 230.402344 C 158.21875 230.539062 158.21875 230.675781 158.195312 230.816406 C 158 232.253906 157.546875 233.320312 156.851562 233.972656 C 156.09375 234.6875 154.925781 235.039062 153.890625 235.339844 L 146.648438 237.503906 C 144.984375 237.628906 143.3125 237.671875 141.65625 237.574219 C 141.269531 237.554688 140.875 237.511719 140.503906 237.460938 C 141.726562 237.34375 143.011719 237.035156 144.304688 236.511719 C 146.09375 235.785156 147.710938 234.773438 149.289062 233.800781 C 149.96875 233.375 150.652344 232.957031 151.347656 232.554688 " fill-opacity="1" fill-rule="nonzero"/><path fill="#ff6622" d="M 156.652344 224.589844 C 157.160156 225.164062 157.554688 225.855469 157.832031 226.636719 C 151.546875 227.351562 145.039062 226.777344 138.972656 224.996094 C 134.015625 222.789062 129.875 218.859375 127.464844 213.988281 C 126.765625 212.566406 126.078125 210.59375 126.847656 209.261719 C 127.617188 207.929688 129.679688 207.621094 131.28125 207.898438 C 132.386719 208.089844 133.496094 208.492188 134.65625 208.921875 C 135.644531 209.28125 136.65625 209.644531 137.734375 209.910156 C 140.3125 210.53125 142.683594 210.234375 144.421875 209.136719 C 145.328125 209.324219 146.222656 210.136719 146.710938 211.035156 C 147.191406 211.894531 147.472656 212.886719 147.765625 213.933594 C 147.960938 214.625 148.164062 215.351562 148.429688 216.054688 C 149.257812 218.230469 150.671875 220.140625 152.527344 221.558594 C 153.070312 221.972656 153.636719 222.335938 154.179688 222.699219 C 155.105469 223.285156 155.980469 223.851562 156.652344 224.589844 " fill-opacity="1" fill-rule="nonzero"/><path fill="#df5028" d="M 152.519531 229.066406 C 152.953125 229.066406 153.378906 229.046875 153.820312 229.035156 C 152.449219 229.515625 151.25 230.15625 150.289062 230.710938 C 149.578125 231.113281 148.863281 231.554688 148.171875 231.988281 C 146.605469 232.957031 145.125 233.878906 143.507812 234.527344 C 142.25 235.050781 140 235.710938 137.832031 235.164062 C 137.699219 234.445312 137.777344 233.65625 138 232.992188 C 138.574219 231.328125 139.894531 229.898438 141.171875 228.515625 C 141.34375 228.328125 141.453125 228.125 141.515625 227.902344 C 141.523438 227.894531 141.523438 227.882812 141.535156 227.875 C 145.125 228.664062 148.828125 229.066406 152.519531 229.066406 " fill-opacity="1" fill-rule="nonzero"/></svg>