<svg xmlns="http://www.w3.org/2000/svg" xmlns:xlink="http://www.w3.org/1999/xlink" width="500" zoomAndPan="magnify" viewBox="0 0 375 374.999991" height="500" preserveAspectRatio="xMidYMid meet" version="1.0"><defs><clipPath id="a44ece7e82"><path d="M 156.601562 165.6875 L 299.632812 165.6875 L 299.632812 307.199219 L 156.601562 307.199219 Z M 156.601562 165.6875 " clip-rule="nonzero"/></clipPath><clipPath id="f7b59854e8"><path d="M 173 203.230469 L 299 203.230469 L 299 307.199219 L 173 307.199219 Z M 173 203.230469 " clip-rule="nonzero"/></clipPath><clipPath id="c088aebab9"><path d="M 160 165.449219 L 298 165.449219 L 298 306 L 160 306 Z M 160 165.449219 " clip-rule="nonzero"/></clipPath><clipPath id="af771a1591"><path d="M 156.097656 171 L 300 171 L 300 306 L 156.097656 306 Z M 156.097656 171 " clip-rule="nonzero"/></clipPath><clipPath id="43dfd1fc7f"><path d="M 63.171875 159.492188 L 207.652344 159.492188 L 207.652344 307.027344 L 63.171875 307.027344 Z M 63.171875 159.492188 " clip-rule="nonzero"/></clipPath><clipPath id="9689cdcb6a"><path d="M 92.128906 184.179688 L 207.652344 184.179688 L 207.652344 307.027344 L 92.128906 307.027344 Z M 92.128906 184.179688 " clip-rule="nonzero"/></clipPath><clipPath id="3753216c77"><path d="M 63 159.277344 L 115 159.277344 L 115 307 L 63 307 Z M 63 159.277344 " clip-rule="nonzero"/></clipPath></defs><g clip-path="url(#a44ece7e82)"><path fill="#6d4111" d="M 276.363281 293.386719 C 275.964844 293.335938 275.507812 293.21875 275.332031 292.855469 C 275.195312 292.574219 275.277344 292.242188 275.375 291.941406 C 276.382812 288.835938 278.796875 286.210938 280.09375 283.285156 C 280.566406 286.828125 281.035156 290.371094 281.503906 293.914062 C 279.855469 293.421875 278.078125 293.613281 276.363281 293.386719 Z M 297.773438 193.917969 C 297.304688 192.40625 296.835938 190.894531 296.367188 189.386719 C 297.792969 184.964844 298.871094 180.414062 298.265625 175.851562 C 298.132812 174.851562 297.902344 173.828125 297.308594 173.015625 C 296.710938 172.203125 295.664062 171.648438 294.6875 171.890625 C 294.089844 172.039062 293.597656 172.449219 293.136719 172.851562 C 289.796875 175.746094 286.636719 178.832031 283.667969 182.097656 C 281.367188 180.714844 278.851562 179.6875 276.246094 179.066406 C 274.089844 178.550781 271.875 178.3125 269.664062 178.378906 C 269.160156 177.519531 268.574219 176.699219 267.96875 175.917969 C 266.304688 173.769531 264.40625 171.765625 263.160156 169.355469 C 262.691406 168.449219 262.304688 167.472656 261.621094 166.714844 C 260.9375 165.953125 259.84375 165.449219 258.886719 165.800781 C 258.210938 166.046875 257.742188 166.660156 257.375 167.273438 C 255.484375 170.457031 255.363281 174.351562 255.421875 178.050781 C 255.480469 181.53125 255.648438 185 255.9375 188.46875 C 254.523438 190.449219 253.195312 192.492188 252.125 194.671875 C 250.640625 197.695312 249.65625 201.039062 249.738281 204.390625 C 249.746094 204.816406 249.773438 205.246094 249.820312 205.671875 C 250.007812 207.441406 250.546875 209.195312 251.40625 210.761719 C 250.960938 211.160156 250.476562 211.539062 249.972656 211.90625 C 247.835938 213.457031 245.316406 214.8125 243.773438 216.902344 C 242.609375 218.480469 242.054688 220.429688 241.050781 222.117188 C 239.035156 225.527344 235.453125 227.566406 231.910156 229.433594 C 231.445312 229.679688 230.980469 229.921875 230.515625 230.167969 C 223.328125 233.957031 216.367188 238.4375 211.003906 244.542969 C 206.988281 249.113281 204.09375 254.566406 202.375 260.386719 C 199.523438 269.972656 199.851562 280.550781 203.523438 289.828125 C 201.039062 289.652344 198.535156 289.5 196.027344 289.398438 C 192.269531 289.25 188.507812 289.214844 184.789062 289.417969 C 183.554688 289.480469 182.328125 289.574219 181.109375 289.695312 C 179.839844 289.816406 178.574219 289.976562 177.320312 290.167969 C 172.277344 290.949219 167.382812 292.308594 162.769531 294.554688 C 162.453125 294.703125 162.140625 294.859375 161.828125 295.023438 C 160.160156 295.882812 158.496094 296.90625 157.46875 298.476562 C 156.4375 300.039062 156.21875 302.277344 157.410156 303.722656 C 158.164062 304.640625 159.222656 305.03125 160.390625 305.125 C 161.886719 305.25 163.570312 304.882812 165.046875 304.511719 C 168.328125 303.679688 171.675781 303.113281 175.050781 302.816406 C 176.808594 302.65625 178.574219 302.570312 180.339844 302.5625 C 181.648438 302.550781 182.949219 302.582031 184.253906 302.652344 C 186.195312 302.757812 188.125 302.953125 190.046875 303.234375 C 194.410156 303.875 198.765625 304.96875 203.164062 304.714844 C 205.554688 304.574219 208.007812 303.945312 210.078125 302.777344 C 211.585938 303.535156 213.050781 304.429688 214.640625 304.984375 C 216.203125 305.53125 217.855469 305.746094 219.5 305.957031 C 221.101562 306.160156 222.703125 306.367188 224.304688 306.570312 C 227.03125 306.917969 229.761719 307.269531 232.507812 307.269531 C 234.882812 307.269531 237.257812 307.003906 239.574219 306.488281 C 241.210938 306.117188 242.902344 305.570312 244.019531 304.320312 C 244.351562 303.941406 244.613281 303.480469 244.773438 302.992188 C 248.976562 303.640625 253.386719 302.957031 257.175781 301.03125 C 258.859375 303.589844 260.9375 306.363281 263.976562 306.6875 C 264.753906 306.773438 265.570312 306.671875 266.253906 306.292969 C 267.808594 305.4375 268.300781 303.414062 268.207031 301.640625 C 268.203125 301.609375 268.203125 301.578125 268.203125 301.546875 C 268.789062 301.65625 269.382812 301.601562 269.882812 301.285156 C 270.410156 300.953125 270.761719 300.386719 271.316406 300.109375 C 271.792969 299.875 272.347656 299.882812 272.878906 299.902344 C 274.121094 299.9375 275.367188 299.976562 276.609375 300.015625 C 278.113281 300.058594 279.660156 300.097656 281.074219 299.578125 C 281.339844 299.480469 281.605469 299.351562 281.855469 299.207031 C 282.753906 301.375 283.890625 303.460938 285.839844 304.6875 C 288.285156 306.222656 292.335938 305.386719 292.878906 302.546875 C 293.097656 301.394531 292.703125 300.222656 292.390625 299.089844 C 290.832031 293.429688 291.304688 287.4375 291.789062 281.585938 C 292.007812 278.902344 292.230469 276.222656 292.453125 273.542969 C 292.554688 272.355469 292.648438 271.167969 292.75 269.984375 C 293.105469 265.664062 293.46875 261.332031 294.402344 257.105469 C 295.191406 253.523438 296.398438 249.988281 296.472656 246.324219 C 296.527344 243.78125 296.03125 241.238281 296.261719 238.707031 C 296.476562 236.273438 297.355469 233.9375 297.582031 231.507812 C 297.824219 228.894531 297.300781 226.292969 296.816406 223.695312 C 296.339844 221.15625 295.894531 218.617188 296.21875 216.074219 C 296.605469 213.054688 298.046875 210.269531 298.921875 207.359375 C 299.175781 206.503906 299.382812 205.636719 299.496094 204.75 C 299.976562 201.09375 298.867188 197.4375 297.773438 193.917969 " fill-opacity="1" fill-rule="nonzero"/></g><g clip-path="url(#f7b59854e8)"><path fill="#f2eff1" d="M 177.320312 290.167969 C 177.160156 290.453125 176.964844 290.726562 176.78125 290.980469 C 175.652344 292.503906 174.6875 294.140625 173.890625 295.863281 C 173.46875 296.773438 173.089844 297.753906 173.179688 298.75 C 173.300781 300.1875 174.339844 301.351562 174.972656 302.644531 C 175 302.703125 175.027344 302.753906 175.050781 302.816406 C 176.808594 302.65625 178.574219 302.570312 180.339844 302.5625 C 179.878906 301.1875 179.402344 299.808594 179.375 298.378906 C 179.328125 295.417969 181.21875 292.589844 181.109375 289.695312 C 179.839844 289.816406 178.574219 289.976562 177.320312 290.167969 Z M 281.503906 293.914062 C 281.035156 290.371094 280.566406 286.828125 280.09375 283.285156 C 278.796875 286.210938 276.382812 288.835938 275.375 291.941406 C 275.277344 292.242188 275.195312 292.574219 275.332031 292.855469 C 275.507812 293.21875 275.964844 293.335938 276.363281 293.386719 C 278.078125 293.613281 279.855469 293.421875 281.503906 293.914062 Z M 298.921875 207.359375 C 298.046875 210.269531 296.605469 213.054688 296.21875 216.074219 C 295.894531 218.617188 296.339844 221.15625 296.816406 223.695312 C 296.316406 224.917969 295.554688 226.074219 294.695312 227.039062 C 292.46875 229.515625 289.546875 231.398438 287.800781 234.234375 C 286.210938 236.820312 285.761719 240.078125 286.601562 242.996094 C 287.269531 245.339844 288.699219 247.386719 289.628906 249.640625 C 290.867188 252.640625 291.195312 256.015625 290.558594 259.199219 C 289.96875 262.15625 288.566406 264.996094 288.664062 268.007812 C 288.738281 270.386719 290.34375 272.929688 292.453125 273.542969 C 292.230469 276.222656 292.007812 278.902344 291.789062 281.585938 C 291.304688 287.4375 290.832031 293.429688 292.390625 299.089844 C 292.703125 300.222656 293.097656 301.394531 292.878906 302.546875 C 292.335938 305.386719 288.285156 306.222656 285.839844 304.6875 C 283.890625 303.460938 282.753906 301.375 281.855469 299.207031 C 281.605469 299.351562 281.339844 299.480469 281.074219 299.578125 C 279.660156 300.097656 278.113281 300.058594 276.609375 300.015625 C 275.367188 299.976562 274.121094 299.9375 272.878906 299.902344 C 272.347656 299.882812 271.792969 299.875 271.316406 300.109375 C 270.761719 300.386719 270.410156 300.953125 269.882812 301.285156 C 269.382812 301.601562 268.789062 301.65625 268.203125 301.546875 C 268.203125 301.578125 268.203125 301.609375 268.207031 301.640625 C 268.300781 303.414062 267.808594 305.4375 266.253906 306.292969 C 265.570312 306.671875 264.753906 306.773438 263.976562 306.6875 C 260.9375 306.363281 258.859375 303.589844 257.175781 301.03125 C 253.386719 302.957031 248.976562 303.640625 244.773438 302.992188 C 244.613281 303.480469 244.351562 303.941406 244.019531 304.320312 C 242.902344 305.570312 241.210938 306.117188 239.574219 306.488281 C 237.257812 307.003906 234.882812 307.269531 232.507812 307.269531 C 229.761719 307.269531 227.03125 306.917969 224.304688 306.570312 C 222.703125 306.367188 221.101562 306.160156 219.5 305.957031 C 217.855469 305.746094 216.203125 305.53125 214.640625 304.984375 C 213.050781 304.429688 211.585938 303.535156 210.078125 302.777344 C 208.007812 303.945312 205.554688 304.574219 203.164062 304.714844 C 198.765625 304.96875 194.410156 303.875 190.046875 303.234375 C 188.125 302.953125 186.195312 302.757812 184.253906 302.652344 C 184.476562 301.722656 184.515625 300.75 184.347656 299.808594 C 184.988281 300.035156 185.613281 300.371094 186.25 300.613281 C 187.355469 301.03125 188.855469 301.039062 189.433594 300.007812 C 189.734375 299.46875 189.6875 298.78125 190.011719 298.25 C 190.820312 296.929688 192.9375 297.695312 194.339844 297.027344 C 195.621094 296.417969 195.980469 294.78125 196.074219 293.363281 C 196.15625 292.042969 196.144531 290.71875 196.027344 289.398438 C 198.535156 289.5 201.039062 289.652344 203.523438 289.828125 C 199.851562 280.550781 199.523438 269.972656 202.375 260.386719 C 204.144531 262.269531 206.371094 263.761719 208.648438 265.035156 C 211.570312 266.671875 214.8125 268.050781 218.148438 267.792969 C 221.488281 267.535156 224.855469 265.167969 225.257812 261.847656 C 225.476562 260.03125 224.820312 258.238281 224.511719 256.433594 C 224.203125 254.628906 224.375 252.503906 225.8125 251.367188 C 226.863281 250.535156 228.210938 250.488281 229.589844 250.617188 C 230.386719 250.6875 231.195312 250.820312 231.964844 250.890625 C 236.734375 251.324219 241.648438 248.78125 244.050781 244.640625 C 245.039062 242.949219 246.449219 240.648438 248.273438 241.355469 C 249.410156 241.792969 249.808594 243.222656 250.773438 243.964844 C 252.195312 245.054688 254.425781 244.230469 255.390625 242.714844 C 256.351562 241.203125 256.371094 239.289062 256.253906 237.5 C 255.96875 233 255.011719 228.542969 253.429688 224.320312 C 251.914062 220.269531 249.789062 216.128906 249.972656 211.90625 C 250.476562 211.539062 250.960938 211.160156 251.40625 210.761719 C 250.546875 209.195312 250.007812 207.441406 249.820312 205.671875 C 249.773438 205.246094 249.746094 204.816406 249.738281 204.390625 C 250.992188 203.945312 252.183594 203.65625 253.070312 204.523438 C 254.042969 205.488281 253.660156 207.121094 254.046875 208.4375 C 254.644531 210.464844 257.117188 211.4375 259.199219 211.089844 C 261.285156 210.742188 263.058594 209.421875 264.742188 208.144531 C 266.464844 206.832031 268.292969 205.359375 269.289062 203.503906 C 273.082031 204.109375 276.664062 206.054688 279.203125 208.945312 C 280.894531 210.867188 282.605469 213.417969 285.160156 213.3125 C 287.910156 213.203125 289.449219 209.945312 289.363281 207.191406 C 289.351562 206.773438 289.316406 206.335938 289.445312 205.933594 C 289.722656 205.085938 290.691406 204.613281 291.589844 204.632812 C 292.480469 204.652344 293.316406 205.046875 294.121094 205.445312 C 295.664062 206.210938 297.257812 207.023438 298.921875 207.359375 " fill-opacity="1" fill-rule="nonzero"/></g><g clip-path="url(#c088aebab9)"><path fill="#aa6535" d="M 162.769531 294.554688 C 162.867188 296.550781 163.363281 298.707031 162.773438 300.59375 C 162.355469 301.941406 161.410156 303.046875 160.757812 304.289062 C 160.617188 304.554688 160.492188 304.835938 160.390625 305.125 C 161.886719 305.25 163.570312 304.882812 165.046875 304.511719 C 168.328125 303.679688 171.675781 303.113281 175.050781 302.816406 C 175.027344 302.753906 175 302.703125 174.972656 302.644531 C 174.339844 301.351562 173.300781 300.1875 173.179688 298.75 C 173.089844 297.753906 173.46875 296.773438 173.890625 295.863281 C 174.6875 294.140625 175.652344 292.503906 176.78125 290.980469 C 176.964844 290.726562 177.160156 290.453125 177.320312 290.167969 C 172.277344 290.949219 167.382812 292.308594 162.769531 294.554688 Z M 181.109375 289.695312 C 181.21875 292.589844 179.328125 295.417969 179.375 298.378906 C 179.402344 299.808594 179.878906 301.1875 180.339844 302.5625 C 181.648438 302.550781 182.949219 302.582031 184.253906 302.652344 C 184.476562 301.722656 184.515625 300.75 184.347656 299.808594 C 184.285156 299.46875 184.199219 299.125 184.082031 298.796875 C 183.910156 298.3125 183.683594 297.835938 183.644531 297.324219 C 183.511719 295.558594 185.550781 294.40625 186.070312 292.710938 C 186.441406 291.496094 185.847656 290.089844 184.789062 289.417969 C 183.554688 289.480469 182.328125 289.574219 181.109375 289.695312 Z M 231.910156 229.433594 C 231.445312 229.679688 230.980469 229.921875 230.515625 230.167969 C 223.328125 233.957031 216.367188 238.4375 211.003906 244.542969 C 206.988281 249.113281 204.09375 254.566406 202.375 260.386719 C 204.144531 262.269531 206.371094 263.761719 208.648438 265.035156 C 211.570312 266.671875 214.8125 268.050781 218.148438 267.792969 C 221.488281 267.535156 224.855469 265.167969 225.257812 261.847656 C 225.476562 260.03125 224.820312 258.238281 224.511719 256.433594 C 224.203125 254.628906 224.375 252.503906 225.8125 251.367188 C 226.863281 250.535156 228.210938 250.488281 229.589844 250.617188 C 229.453125 249.574219 229.886719 248.332031 230.535156 247.441406 C 231.558594 246.035156 233.027344 244.78125 233.226562 243.050781 C 233.371094 241.761719 232.765625 240.523438 232.316406 239.304688 C 231.160156 236.164062 231.035156 232.660156 231.910156 229.433594 Z M 269.664062 178.378906 C 269.160156 177.519531 268.574219 176.699219 267.96875 175.917969 C 266.304688 173.769531 264.40625 171.765625 263.160156 169.355469 C 262.691406 168.449219 262.304688 167.472656 261.621094 166.714844 C 260.9375 165.953125 259.84375 165.449219 258.886719 165.800781 C 258.210938 166.046875 257.742188 166.660156 257.375 167.273438 C 255.484375 170.457031 255.363281 174.351562 255.421875 178.050781 C 255.480469 181.53125 255.648438 185 255.9375 188.46875 C 254.523438 190.449219 253.195312 192.492188 252.125 194.671875 C 250.640625 197.695312 249.65625 201.039062 249.738281 204.390625 C 250.992188 203.945312 252.183594 203.65625 253.070312 204.523438 C 254.042969 205.488281 253.660156 207.121094 254.046875 208.4375 C 254.644531 210.464844 257.117188 211.4375 259.199219 211.089844 C 261.285156 210.742188 263.058594 209.421875 264.742188 208.144531 C 266.464844 206.832031 268.292969 205.359375 269.289062 203.503906 C 269.628906 202.875 269.871094 202.207031 269.984375 201.480469 C 270.261719 199.707031 269.6875 197.910156 269.789062 196.117188 C 269.972656 192.773438 272.394531 190.054688 273.984375 187.105469 C 275.316406 184.636719 276.085938 181.867188 276.246094 179.066406 C 274.089844 178.550781 271.875 178.3125 269.664062 178.378906 Z M 296.816406 223.695312 C 297.300781 226.292969 297.824219 228.894531 297.582031 231.507812 C 297.355469 233.9375 296.476562 236.273438 296.261719 238.707031 C 296.03125 241.238281 296.527344 243.78125 296.472656 246.324219 C 296.398438 249.988281 295.191406 253.523438 294.402344 257.105469 C 293.46875 261.332031 293.105469 265.664062 292.75 269.984375 C 292.648438 271.167969 292.554688 272.355469 292.453125 273.542969 C 290.34375 272.929688 288.738281 270.386719 288.664062 268.007812 C 288.566406 264.996094 289.96875 262.15625 290.558594 259.199219 C 291.195312 256.015625 290.867188 252.640625 289.628906 249.640625 C 288.699219 247.386719 287.269531 245.339844 286.601562 242.996094 C 285.761719 240.078125 286.210938 236.820312 287.800781 234.234375 C 289.546875 231.398438 292.46875 229.515625 294.695312 227.039062 C 295.554688 226.074219 296.316406 224.917969 296.816406 223.695312 " fill-opacity="1" fill-rule="nonzero"/></g><g clip-path="url(#af771a1591)"><path fill="#6d4111" d="M 161.828125 295.023438 C 160.160156 295.882812 158.496094 296.90625 157.46875 298.476562 C 156.4375 300.039062 156.21875 302.277344 157.410156 303.722656 C 158.164062 304.640625 159.222656 305.03125 160.390625 305.125 C 160.492188 304.835938 160.617188 304.554688 160.757812 304.289062 C 161.410156 303.046875 162.355469 301.941406 162.773438 300.59375 C 163.363281 298.707031 162.867188 296.550781 162.769531 294.554688 C 162.453125 294.703125 162.140625 294.859375 161.828125 295.023438 Z M 184.789062 289.417969 C 185.847656 290.089844 186.441406 291.496094 186.070312 292.710938 C 185.550781 294.40625 183.511719 295.558594 183.644531 297.324219 C 183.683594 297.835938 183.910156 298.3125 184.082031 298.796875 C 184.199219 299.125 184.285156 299.46875 184.347656 299.808594 C 184.988281 300.035156 185.613281 300.371094 186.25 300.613281 C 187.355469 301.03125 188.855469 301.039062 189.433594 300.007812 C 189.734375 299.46875 189.6875 298.78125 190.011719 298.25 C 190.820312 296.929688 192.9375 297.695312 194.339844 297.027344 C 195.621094 296.417969 195.980469 294.78125 196.074219 293.363281 C 196.15625 292.042969 196.144531 290.71875 196.027344 289.398438 C 192.269531 289.25 188.507812 289.214844 184.789062 289.417969 Z M 253.429688 224.320312 C 251.914062 220.269531 249.789062 216.128906 249.972656 211.90625 C 247.835938 213.457031 245.316406 214.8125 243.773438 216.902344 C 242.609375 218.480469 242.054688 220.429688 241.050781 222.117188 C 239.035156 225.527344 235.453125 227.566406 231.910156 229.433594 C 231.035156 232.660156 231.160156 236.164062 232.316406 239.304688 C 232.765625 240.523438 233.371094 241.761719 233.226562 243.050781 C 233.027344 244.78125 231.558594 246.035156 230.535156 247.441406 C 229.886719 248.332031 229.453125 249.574219 229.589844 250.617188 C 230.386719 250.6875 231.195312 250.820312 231.964844 250.890625 C 236.734375 251.324219 241.648438 248.78125 244.050781 244.640625 C 245.039062 242.949219 246.449219 240.648438 248.273438 241.355469 C 249.410156 241.792969 249.808594 243.222656 250.773438 243.964844 C 252.195312 245.054688 254.425781 244.230469 255.390625 242.714844 C 256.351562 241.203125 256.371094 239.289062 256.253906 237.5 C 255.96875 233 255.011719 228.542969 253.429688 224.320312 Z M 297.773438 193.917969 C 298.867188 197.4375 299.976562 201.09375 299.496094 204.75 C 299.382812 205.636719 299.175781 206.503906 298.921875 207.359375 C 297.257812 207.023438 295.664062 206.210938 294.121094 205.445312 C 293.316406 205.046875 292.480469 204.652344 291.589844 204.632812 C 290.691406 204.613281 289.722656 205.085938 289.445312 205.933594 C 289.316406 206.335938 289.351562 206.773438 289.363281 207.191406 C 289.449219 209.945312 287.910156 213.203125 285.160156 213.3125 C 282.605469 213.417969 280.894531 210.867188 279.203125 208.945312 C 276.664062 206.054688 273.082031 204.109375 269.289062 203.503906 C 269.628906 202.875 269.871094 202.207031 269.984375 201.480469 C 270.261719 199.707031 269.6875 197.910156 269.789062 196.117188 C 269.972656 192.773438 272.394531 190.054688 273.984375 187.105469 C 275.316406 184.636719 276.085938 181.867188 276.246094 179.066406 C 278.851562 179.6875 281.367188 180.714844 283.667969 182.097656 C 286.636719 178.832031 289.796875 175.746094 293.136719 172.851562 C 293.597656 172.449219 294.089844 172.039062 294.6875 171.890625 C 295.664062 171.648438 296.710938 172.203125 297.308594 173.015625 C 297.902344 173.828125 298.132812 174.851562 298.261719 175.851562 C 298.871094 180.414062 297.792969 184.964844 296.367188 189.386719 C 296.835938 190.894531 297.304688 192.40625 297.773438 193.917969 " fill-opacity="1" fill-rule="nonzero"/></g><path fill="#fda769" d="M 295.023438 186.878906 C 295.722656 184.867188 296.1875 182.777344 296.40625 180.660156 C 296.46875 180.039062 296.511719 179.402344 296.335938 178.808594 C 296.15625 178.207031 295.722656 177.652344 295.117188 177.5 C 294.105469 177.246094 293.199219 178.148438 292.546875 178.964844 C 291.386719 180.410156 290.226562 181.851562 289.0625 183.296875 C 288.449219 184.058594 288.695312 185.1875 289.570312 185.628906 C 290.640625 186.167969 291.65625 186.820312 292.589844 187.574219 C 293.429688 188.246094 294.671875 187.894531 295.023438 186.878906 Z M 263.277344 181.464844 C 262.257812 182.089844 261.292969 182.804688 260.390625 183.585938 C 259.433594 184.425781 257.949219 183.816406 257.84375 182.550781 C 257.648438 180.132812 257.621094 177.695312 257.765625 175.273438 C 257.824219 174.351562 258.074219 173.21875 258.972656 173.003906 C 259.875 172.785156 260.613281 173.695312 261.085938 174.492188 C 262.050781 176.121094 262.964844 177.777344 263.820312 179.464844 C 264.183594 180.167969 263.953125 181.046875 263.277344 181.464844 " fill-opacity="1" fill-rule="nonzero"/><path fill="#aa6535" d="M 286.714844 192.039062 C 286.71875 193.304688 284.878906 193.019531 282.613281 193.027344 C 280.34375 193.035156 278.503906 193.339844 278.5 192.070312 C 278.496094 190.804688 280.332031 189.769531 282.597656 189.761719 C 284.867188 189.753906 286.710938 190.773438 286.714844 192.039062 " fill-opacity="1" fill-rule="nonzero"/><path fill="#6d4111" d="M 265.683594 192.054688 C 265.683594 193.324219 263.84375 193.027344 261.574219 193.027344 C 259.304688 193.027344 257.46875 193.324219 257.46875 192.054688 C 257.46875 190.789062 259.304688 189.761719 261.574219 189.761719 C 263.84375 189.761719 265.683594 190.789062 265.683594 192.054688 " fill-opacity="1" fill-rule="nonzero"/><path fill="#3e393a" d="M 289.726562 215.878906 C 290.644531 215.300781 289.832031 214.199219 288.984375 214.726562 C 283.144531 218.351562 276.679688 222.167969 269.523438 221.136719 C 266.054688 220.636719 262.835938 219.125 259.964844 217.160156 C 258.417969 216.097656 256.980469 214.898438 255.574219 213.65625 C 255.550781 213.632812 255.527344 213.613281 255.503906 213.589844 C 256.332031 212.855469 257.183594 212.144531 258.050781 211.460938 C 259.53125 210.304688 261.257812 209.324219 262.613281 208.035156 C 262.886719 207.777344 262.480469 207.507812 262.222656 207.597656 C 260.273438 208.289062 258.457031 209.714844 256.832031 210.972656 C 256.082031 211.550781 255.351562 212.160156 254.640625 212.785156 C 253.75 211.933594 252.867188 211.050781 251.847656 210.382812 C 251.699219 210.289062 251.261719 210.394531 251.40625 210.632812 C 252.039062 211.683594 252.9375 212.625 253.84375 213.511719 C 253.3125 214.007812 252.78125 214.507812 252.269531 215.027344 C 249.28125 218.046875 246.714844 221.433594 244.613281 225.121094 C 244.269531 225.726562 245.382812 225.910156 245.683594 225.417969 C 247.847656 221.855469 250.410156 218.539062 253.363281 215.597656 C 253.796875 215.167969 254.238281 214.746094 254.6875 214.332031 C 254.800781 214.4375 254.914062 214.546875 255.019531 214.652344 C 256.4375 216.042969 257.964844 217.328125 259.589844 218.464844 C 262.453125 220.460938 265.769531 221.933594 269.234375 222.445312 C 276.761719 223.558594 283.589844 219.742188 289.726562 215.878906 Z M 278.769531 208.980469 C 278.417969 209.058594 278.5625 209.527344 278.902344 209.472656 C 283.101562 208.820312 287.273438 210.050781 290.847656 212.25 C 294.394531 214.433594 297.207031 217.460938 300.433594 220.046875 C 300.734375 220.289062 301.359375 219.90625 301.058594 219.542969 C 295.792969 213.226562 287.441406 207.042969 278.769531 208.980469 Z M 305.4375 211.953125 C 298.492188 205.46875 288.226562 203.570312 279.273438 206.507812 C 278.65625 206.710938 279.097656 207.378906 279.640625 207.222656 C 288.207031 204.746094 297.621094 207.027344 304.46875 212.636719 C 304.9375 213.023438 305.988281 212.46875 305.4375 211.953125 Z M 234.445312 216.007812 C 242.191406 209.777344 251.71875 206.457031 261.6875 207.125 C 262.34375 207.167969 262.574219 206.289062 261.84375 206.222656 C 251.753906 205.304688 241.222656 208.582031 233.714844 215.449219 C 233.273438 215.855469 234.074219 216.308594 234.445312 216.007812 Z M 260.902344 301.9375 C 260.816406 301.898438 260.660156 301.9375 260.636719 302.042969 C 260.546875 302.480469 260.734375 302.96875 260.679688 303.429688 C 260.628906 303.894531 260.285156 304.359375 260.414062 304.808594 C 260.464844 304.988281 260.765625 305.03125 260.90625 304.972656 C 261.933594 304.535156 261.890625 302.417969 260.902344 301.9375 Z M 285.984375 301.160156 C 286.410156 302.40625 286.246094 303.542969 286.203125 304.820312 C 286.191406 305.203125 286.878906 305.164062 287.007812 304.894531 C 287.609375 303.640625 287.277344 302.121094 286.652344 300.941406 C 286.484375 300.625 285.855469 300.78125 285.984375 301.160156 Z M 290.070312 299.417969 C 289.820312 299.1875 289.210938 299.425781 289.492188 299.761719 C 290.058594 300.445312 290.4375 301.207031 290.648438 302.070312 C 290.808594 302.730469 290.75 303.46875 291.046875 304.085938 C 291.167969 304.34375 291.605469 304.320312 291.738281 304.085938 C 292.589844 302.558594 291.171875 300.429688 290.070312 299.417969 Z M 281.648438 293.628906 C 281.640625 293.492188 281.375 293.472656 281.355469 293.609375 C 281.085938 295.457031 280.914062 298.066406 282 299.691406 C 282.195312 299.980469 282.84375 299.941406 282.804688 299.503906 C 282.714844 298.515625 282.257812 297.566406 282.046875 296.589844 C 281.839844 295.617188 281.710938 294.621094 281.648438 293.628906 Z M 264.546875 302.503906 C 265.179688 303.636719 265.199219 304.773438 265.089844 306.039062 C 265.058594 306.425781 265.703125 306.546875 265.84375 306.199219 C 266.398438 304.875 266.074219 303.414062 265.316406 302.234375 C 265.097656 301.894531 264.320312 302.09375 264.546875 302.503906 Z M 237.75 302.183594 C 237.308594 302.097656 237 302.707031 237.488281 302.882812 C 238.949219 303.410156 239.75 304.628906 240.382812 305.972656 C 240.609375 306.453125 241.527344 306.203125 241.472656 305.667969 C 241.269531 303.785156 239.488281 302.527344 237.75 302.183594 Z M 278.84375 203.300781 C 279.6875 202.015625 280.460938 200.761719 281.839844 199.980469 C 283.484375 199.046875 285.179688 199.230469 286.953125 199.566406 C 287.316406 199.632812 287.761719 199.226562 287.34375 198.957031 C 284.019531 196.777344 278.910156 199.488281 278.128906 203.195312 C 278.039062 203.613281 278.691406 203.53125 278.84375 203.300781 Z M 262.8125 210.585938 C 262.542969 211.496094 263.574219 212.167969 264.332031 212.460938 C 265.304688 212.835938 266.363281 212.769531 267.332031 212.40625 C 268.535156 211.953125 269.492188 211.089844 270.207031 210.042969 C 270.890625 211.210938 271.960938 212.164062 273.234375 212.574219 C 274.824219 213.082031 277.070312 212.792969 277.832031 211.117188 C 277.925781 210.910156 277.65625 210.761719 277.488281 210.875 C 276.003906 211.871094 274.3125 211.898438 272.886719 210.765625 C 272.089844 210.128906 271.570312 209.296875 271.0625 208.449219 C 271.105469 208.34375 271.148438 208.238281 271.1875 208.132812 L 272.15625 207.664062 C 274.398438 206.578125 273.628906 203.207031 271.136719 203.207031 L 268.941406 203.207031 C 266.449219 203.207031 265.675781 206.578125 267.917969 207.664062 L 269.015625 208.195312 C 269.183594 208.273438 269.355469 208.332031 269.535156 208.375 C 269.054688 209.265625 268.511719 210.117188 267.707031 210.742188 C 266.804688 211.441406 265.765625 211.738281 264.667969 211.382812 C 264.042969 211.183594 263.625 210.707031 263.011719 210.511719 C 262.941406 210.492188 262.835938 210.5 262.8125 210.585938 Z M 259.839844 205.261719 C 261.175781 205.261719 262.257812 203.355469 262.257812 201 C 262.257812 200.011719 262.066406 199.109375 261.75 198.386719 C 262.359375 198.761719 262.796875 199.289062 263.328125 199.789062 C 263.539062 199.988281 264.117188 199.921875 264.058594 199.539062 C 263.699219 197.042969 259.917969 195.816406 258.015625 197.285156 C 257.675781 197.542969 257.828125 197.875 258.132812 197.976562 C 257.695312 198.75 257.421875 199.816406 257.421875 201 C 257.421875 203.355469 258.503906 205.261719 259.839844 205.261719 Z M 235.191406 294.371094 C 230.375 292.859375 220.671875 293.03125 219.964844 286.398438 C 219.933594 286.125 219.480469 286.171875 219.460938 286.433594 C 219.074219 292.300781 226.546875 293.738281 230.832031 294.753906 C 233.535156 295.390625 236.285156 296.121094 238.554688 297.800781 C 240.949219 299.570312 242.429688 302.183594 243.453125 304.929688 C 243.695312 305.582031 244.839844 305.40625 244.765625 304.675781 C 244.246094 299.484375 239.921875 295.851562 235.191406 294.371094 Z M 274.832031 292.886719 C 273.875 294.273438 273.164062 295.800781 272.148438 297.15625 C 271.074219 298.582031 269.804688 299.8125 268.441406 300.960938 C 268.382812 297.773438 268.050781 294.578125 267.96875 291.390625 C 267.867188 287.566406 267.847656 283.742188 267.910156 279.917969 C 267.960938 276.625 267.957031 273.292969 268.246094 270.015625 C 268.351562 268.769531 268.53125 267.511719 268.910156 266.316406 C 269.402344 264.753906 270.34375 263.652344 271.222656 262.3125 C 271.320312 262.164062 271.082031 262.0625 270.972656 262.128906 C 268.789062 263.46875 267.742188 266.289062 267.339844 268.695312 C 266.777344 272.0625 266.835938 275.585938 266.765625 278.992188 C 266.6875 282.613281 266.679688 286.234375 266.742188 289.855469 C 266.8125 293.792969 266.722656 297.847656 267.179688 301.761719 C 267.238281 302.238281 267.996094 302.261719 268.3125 301.964844 C 268.371094 301.957031 268.421875 301.945312 268.46875 301.917969 C 271.484375 300.101562 275.085938 296.703125 275.6875 293.058594 C 275.773438 292.558594 275.039062 292.59375 274.832031 292.886719 Z M 281.214844 268.046875 C 282.769531 264.636719 286.628906 262.390625 286.894531 258.414062 C 286.914062 258.140625 286.417969 258.175781 286.351562 258.398438 C 285.09375 262.648438 280.671875 264.855469 279.328125 269.082031 C 278.609375 271.332031 278.597656 273.714844 278.671875 276.050781 C 278.71875 277.351562 278.78125 278.652344 278.835938 279.949219 C 278.894531 281.335938 278.808594 282.804688 279.113281 284.164062 C 279.261719 284.8125 280.398438 284.664062 280.476562 284.039062 C 280.8125 281.296875 280.261719 278.320312 280.171875 275.550781 C 280.089844 273.027344 280.144531 270.386719 281.214844 268.046875 Z M 251.464844 273.15625 C 251.085938 268.625 251.125 264.269531 249.109375 260.089844 C 248.003906 257.804688 246.742188 255.65625 246.011719 253.207031 C 245.324219 250.890625 245.015625 248.496094 244.996094 246.082031 C 244.996094 245.875 244.582031 245.863281 244.554688 246.0625 C 243.988281 250.480469 244.945312 254.640625 246.878906 258.613281 C 247.996094 260.902344 249.035156 263.097656 249.445312 265.640625 C 249.832031 268.039062 249.84375 270.480469 250.03125 272.902344 C 250.765625 282.511719 252.972656 292.339844 256.910156 301.167969 C 257.183594 301.785156 258.585938 301.351562 258.320312 300.691406 C 254.773438 291.78125 252.261719 282.75 251.464844 273.15625 Z M 208.769531 299.894531 C 208.949219 300.34375 208.253906 300.566406 207.976562 300.28125 C 205.222656 297.464844 203.652344 292.34375 203.96875 288.472656 C 204.003906 288.050781 204.726562 288.09375 204.816406 288.457031 C 205.308594 290.441406 205.65625 292.449219 206.316406 294.390625 C 206.96875 296.3125 208.019531 298.023438 208.769531 299.894531 " fill-opacity="1" fill-rule="nonzero"/><g clip-path="url(#43dfd1fc7f)"><path fill="#808080" d="M 202.214844 220.238281 C 199.480469 215.652344 196.0625 211.414062 194.195312 206.414062 C 192.328125 201.414062 192.375 195.207031 196.078125 191.359375 C 197.570312 189.808594 199.777344 188.007812 198.9375 186.023438 C 198.257812 184.414062 196.023438 184.21875 194.34375 184.699219 C 188.457031 186.386719 185.078125 192.996094 185.203125 199.121094 C 185.332031 205.242188 188.183594 210.945312 191.1875 216.28125 C 194.191406 221.617188 197.46875 226.972656 198.589844 232.992188 C 199.304688 236.820312 199 241.09375 196.566406 244.132812 C 196.550781 244.148438 196.539062 244.167969 196.527344 244.179688 C 194.570312 246.574219 191.003906 246.851562 188.613281 244.894531 C 178.949219 236.980469 170.746094 227.210938 161.082031 219.210938 C 149.089844 209.292969 132.828125 201.988281 118.136719 207.113281 C 116.242188 207.773438 114.277344 208.648438 112.300781 208.277344 C 109.269531 207.707031 107.519531 204.339844 107.546875 201.230469 C 107.550781 201.085938 107.554688 200.945312 107.566406 200.796875 C 107.769531 197.574219 109.382812 194.640625 110.632812 191.664062 C 114.265625 183.027344 114.976562 173.195312 112.691406 164.113281 C 112.425781 163.054688 111.328125 162.449219 110.289062 162.785156 C 106.109375 164.144531 102.324219 166.753906 99.621094 170.214844 C 97.132812 168.585938 94.355469 167.398438 91.460938 166.746094 C 87.640625 165.882812 83.625 165.949219 79.832031 166.902344 C 78.976562 165.433594 77.777344 164.101562 76.582031 162.882812 C 75.714844 161.996094 74.816406 161.097656 74.007812 160.144531 C 73.332031 159.34375 72.128906 159.273438 71.351562 159.972656 C 67.625 163.300781 65.386719 168.304688 65.488281 173.300781 C 62.78125 179.355469 62.660156 186.59375 65.453125 192.632812 C 66.644531 195.21875 68.3125 197.574219 69.359375 200.222656 C 71.589844 205.898438 70.75 212.230469 70.472656 218.320312 C 70.171875 225.003906 70.671875 232.011719 74.058594 237.777344 C 76.679688 242.238281 80.796875 245.578125 84.824219 248.820312 C 86.011719 249.78125 87.203125 250.738281 88.390625 251.691406 C 94.867188 261.007812 99.902344 271.328125 103.246094 282.171875 C 104.09375 284.925781 104.84375 287.777344 104.671875 290.652344 C 104.503906 293.53125 103.273438 296.476562 100.886719 298.089844 C 99.003906 299.363281 96.175781 300.25 96.132812 302.527344 C 96.109375 303.921875 97.28125 305.042969 98.496094 305.730469 C 99.460938 306.285156 100.492188 306.667969 101.554688 306.898438 C 105.8125 307.824219 110.609375 306.324219 114.101562 303.542969 C 118.464844 300.070312 121.191406 294.972656 123.523438 289.90625 C 126.214844 284.0625 128.542969 278.066406 130.722656 272.007812 C 130.964844 271.328125 131.839844 271.171875 132.3125 271.710938 C 135.683594 275.558594 140.019531 278.570312 144.867188 280.21875 C 147.757812 281.207031 151.175781 282.035156 152.492188 284.796875 C 154.207031 288.402344 150.984375 292.453125 147.578125 294.539062 C 146.011719 295.5 144.332031 296.3125 142.546875 296.734375 C 140.003906 297.335938 137.328125 297.128906 134.765625 297.632812 C 132.199219 298.132812 129.535156 299.636719 128.890625 302.171875 C 128.695312 302.933594 128.710938 303.765625 129.050781 304.476562 C 130.039062 306.527344 132.921875 306.488281 135.1875 306.242188 C 141.230469 305.59375 147.359375 305.714844 153.375 306.609375 C 154.851562 306.828125 156.355469 307.09375 157.832031 306.867188 C 162.011719 306.222656 164.515625 302.070312 167.386719 298.964844 C 169.730469 296.429688 172.628906 294.414062 175.824219 293.101562 C 177.503906 292.410156 179.371094 291.835938 180.464844 290.386719 C 182.101562 288.203125 181.269531 285.078125 180.054688 282.628906 C 178.839844 280.1875 177.253906 277.664062 177.597656 274.957031 C 178.082031 271.175781 181.949219 268.96875 184.5 266.140625 C 186.144531 264.316406 187.246094 262.046875 187.773438 259.652344 C 188.15625 257.925781 189.667969 256.695312 191.4375 256.683594 C 194.335938 256.667969 197.265625 255.8125 199.660156 254.183594 C 204.839844 250.664062 207.574219 244.234375 207.648438 237.972656 C 207.722656 231.710938 205.417969 225.617188 202.214844 220.238281 " fill-opacity="1" fill-rule="nonzero"/></g><g clip-path="url(#9689cdcb6a)"><path fill="#808080" d="M 202.214844 220.238281 C 205.417969 225.617188 207.722656 231.710938 207.648438 237.972656 C 207.574219 244.234375 204.839844 250.664062 199.660156 254.183594 C 197.265625 255.8125 194.335938 256.667969 191.4375 256.683594 C 189.667969 256.695312 188.15625 257.925781 187.773438 259.652344 C 187.246094 262.046875 186.144531 264.316406 184.5 266.140625 C 181.949219 268.96875 178.082031 271.175781 177.597656 274.957031 C 177.253906 277.664062 178.839844 280.1875 180.054688 282.628906 C 181.269531 285.078125 182.101562 288.203125 180.464844 290.386719 C 179.371094 291.835938 177.503906 292.410156 175.824219 293.101562 C 172.628906 294.414062 169.730469 296.429688 167.386719 298.964844 C 164.515625 302.070312 162.011719 306.222656 157.832031 306.867188 C 156.355469 307.09375 154.851562 306.828125 153.375 306.609375 C 147.359375 305.714844 141.230469 305.59375 135.1875 306.242188 C 132.921875 306.488281 130.039062 306.527344 129.050781 304.476562 C 128.710938 303.765625 128.695312 302.933594 128.890625 302.171875 C 129.535156 299.636719 132.199219 298.132812 134.765625 297.632812 C 137.328125 297.128906 140.003906 297.335938 142.546875 296.734375 C 144.332031 296.3125 146.011719 295.5 147.578125 294.539062 C 150.984375 292.453125 154.207031 288.402344 152.492188 284.796875 C 151.175781 282.035156 147.757812 281.207031 144.867188 280.21875 C 140.019531 278.570312 135.683594 275.558594 132.3125 271.710938 C 131.839844 271.171875 130.964844 271.328125 130.722656 272.007812 C 128.542969 278.066406 126.214844 284.0625 123.523438 289.90625 C 121.191406 294.972656 118.464844 300.070312 114.101562 303.542969 C 110.605469 306.324219 105.8125 307.824219 101.554688 306.898438 C 101.671875 305.214844 102.222656 303.566406 103.203125 302.1875 C 104.554688 300.292969 106.589844 298.941406 107.78125 296.945312 C 108.707031 295.402344 109.0625 293.585938 109.304688 291.804688 C 110.449219 283.402344 109.53125 274.730469 106.65625 266.753906 C 106.597656 266.578125 106.527344 266.402344 106.460938 266.226562 C 104.765625 261.667969 102.503906 257.285156 101.585938 252.515625 C 100.699219 247.910156 101.0625 242.957031 98.960938 238.757812 C 97.632812 236.105469 95.417969 233.988281 94.023438 231.371094 C 90.964844 225.636719 92.375 218.34375 95.886719 212.871094 C 98.871094 208.226562 103.148438 204.617188 107.546875 201.230469 C 107.519531 204.339844 109.269531 207.707031 112.300781 208.277344 C 114.277344 208.648438 116.242188 207.773438 118.136719 207.113281 C 132.828125 201.988281 149.089844 209.292969 161.082031 219.210938 C 170.746094 227.210938 178.949219 236.980469 188.613281 244.894531 C 191.003906 246.851562 194.570312 246.574219 196.527344 244.179688 C 196.539062 244.167969 196.550781 244.148438 196.566406 244.132812 C 199 241.09375 199.304688 236.820312 198.589844 232.992188 C 197.46875 226.972656 194.191406 221.617188 191.1875 216.28125 C 188.183594 210.945312 185.332031 205.242188 185.203125 199.121094 C 185.078125 192.996094 188.457031 186.386719 194.34375 184.699219 C 196.023438 184.21875 198.257812 184.414062 198.9375 186.023438 C 199.777344 188.007812 197.570312 189.808594 196.078125 191.359375 C 192.375 195.207031 192.328125 201.414062 194.195312 206.414062 C 196.0625 211.414062 199.480469 215.652344 202.214844 220.238281 " fill-opacity="1" fill-rule="nonzero"/></g><g clip-path="url(#3753216c77)"><path fill="#808080" d="M 112.691406 164.113281 C 114.976562 173.195312 114.265625 183.027344 110.632812 191.664062 C 109.382812 194.640625 107.769531 197.574219 107.566406 200.796875 C 107.554688 200.945312 107.550781 201.085938 107.546875 201.230469 C 103.148438 204.617188 98.871094 208.226562 95.886719 212.871094 C 92.375 218.34375 90.964844 225.636719 94.023438 231.371094 C 95.417969 233.988281 97.632812 236.105469 98.960938 238.757812 C 101.0625 242.957031 100.699219 247.910156 101.585938 252.515625 C 102.503906 257.285156 104.765625 261.667969 106.460938 266.226562 C 106.527344 266.402344 106.597656 266.578125 106.65625 266.753906 C 109.53125 274.730469 110.449219 283.402344 109.304688 291.804688 C 109.0625 293.585938 108.707031 295.402344 107.78125 296.945312 C 106.589844 298.941406 104.554688 300.292969 103.203125 302.1875 C 102.222656 303.566406 101.671875 305.214844 101.554688 306.898438 C 100.492188 306.667969 99.460938 306.285156 98.496094 305.730469 C 97.28125 305.042969 96.109375 303.921875 96.132812 302.527344 C 96.175781 300.25 99.003906 299.363281 100.886719 298.089844 C 103.273438 296.476562 104.503906 293.53125 104.671875 290.652344 C 104.84375 287.777344 104.09375 284.925781 103.246094 282.171875 C 99.902344 271.328125 94.867188 261.007812 88.390625 251.691406 C 87.203125 250.738281 86.011719 249.78125 84.824219 248.820312 C 80.796875 245.578125 76.679688 242.238281 74.058594 237.777344 C 70.671875 232.011719 70.171875 225.003906 70.472656 218.320312 C 70.75 212.230469 71.589844 205.898438 69.359375 200.222656 C 68.3125 197.574219 66.644531 195.21875 65.453125 192.632812 C 62.660156 186.59375 62.78125 179.355469 65.488281 173.300781 C 65.386719 168.304688 67.625 163.300781 71.351562 159.972656 C 72.128906 159.273438 73.332031 159.34375 74.007812 160.144531 C 74.816406 161.097656 75.714844 161.996094 76.582031 162.882812 C 77.777344 164.101562 78.976562 165.433594 79.832031 166.902344 C 83.625 165.949219 87.640625 165.882812 91.460938 166.746094 C 94.355469 167.398438 97.132812 168.585938 99.621094 170.214844 C 102.324219 166.753906 106.109375 164.144531 110.289062 162.785156 C 111.328125 162.449219 112.425781 163.054688 112.691406 164.113281 " fill-opacity="1" fill-rule="nonzero"/></g><path fill="#f49274" d="M 73.613281 162.996094 C 73.425781 162.78125 73.199219 162.546875 72.914062 162.554688 C 72.636719 162.566406 72.429688 162.785156 72.253906 162.996094 C 70.367188 165.285156 69.027344 168.023438 68.339844 170.910156 C 68.160156 171.664062 68.976562 172.238281 69.628906 171.820312 C 71.785156 170.433594 74.191406 169.429688 76.695312 168.882812 C 77.296875 168.75 77.570312 168.058594 77.210938 167.558594 C 76.082031 165.984375 74.882812 164.464844 73.613281 162.996094 Z M 110.386719 166.957031 C 111.285156 169.109375 110.65625 171.585938 109.753906 173.734375 C 109.292969 174.828125 108.757812 175.914062 108.3125 177.015625 C 108.058594 177.640625 107.214844 177.730469 106.835938 177.171875 C 105.722656 175.542969 104.40625 174.050781 102.921875 172.746094 C 102.546875 172.417969 102.539062 171.835938 102.910156 171.492188 C 104.679688 169.867188 106.476562 168.273438 108.304688 166.710938 C 108.71875 166.359375 109.257812 165.984375 109.761719 166.195312 C 110.074219 166.328125 110.253906 166.648438 110.386719 166.957031 " fill-opacity="1" fill-rule="nonzero"/><path fill="#f49274" d="M 84.363281 181.710938 C 84.949219 183.140625 85.882812 184.402344 87.144531 185.160156 C 85.0625 186.421875 82.703125 186.609375 80.734375 184.847656 C 82.214844 184.324219 83.46875 183.136719 84.363281 181.710938 " fill-opacity="1" fill-rule="nonzero"/><path fill="#3e393a" d="M 107.289062 303.929688 C 107.097656 303.054688 107.308594 302.296875 107.472656 301.449219 C 107.527344 301.1875 107.113281 301.078125 106.960938 301.261719 C 105.699219 302.761719 106.136719 305.53125 107.726562 306.617188 C 107.996094 306.800781 108.746094 306.527344 108.472656 306.144531 C 107.980469 305.445312 107.476562 304.78125 107.289062 303.929688 Z M 133.769531 300.507812 C 131.953125 301.636719 131.488281 304.957031 133.164062 306.410156 C 133.453125 306.664062 134.152344 306.496094 133.964844 306.019531 C 133.609375 305.109375 133.214844 304.332031 133.242188 303.320312 C 133.265625 302.339844 133.652344 301.535156 134.054688 300.664062 C 134.125 300.511719 133.863281 300.445312 133.769531 300.507812 Z M 152.746094 300.914062 C 150.914062 301.71875 149.507812 304.449219 151.179688 306.105469 C 151.34375 306.269531 151.851562 306.230469 151.796875 305.910156 C 151.660156 305.109375 151.371094 304.378906 151.515625 303.546875 C 151.679688 302.605469 152.253906 301.792969 153.042969 301.261719 C 153.339844 301.058594 153 300.800781 152.746094 300.914062 Z M 84.363281 181.710938 C 83.46875 183.136719 82.214844 184.324219 80.734375 184.847656 C 82.703125 186.609375 85.0625 186.421875 87.144531 185.160156 C 85.882812 184.402344 84.949219 183.140625 84.363281 181.710938 Z M 83.71875 179.410156 C 83.703125 179.308594 83.695312 179.210938 83.683594 179.113281 L 81.589844 177.921875 C 80.398438 177.246094 81.015625 175.425781 82.371094 175.609375 L 87.605469 176.324219 C 88.960938 176.511719 89.066406 178.429688 87.742188 178.761719 L 85.453125 179.335938 C 85.449219 179.34375 85.449219 179.351562 85.445312 179.359375 C 85.84375 180.632812 86.210938 181.917969 87.019531 183.011719 C 88.53125 185.058594 91.09375 185.59375 93.097656 183.949219 C 93.210938 183.859375 93.574219 183.882812 93.488281 184.101562 C 92.691406 186.152344 90 186.269531 88.121094 185.617188 C 86.019531 188.117188 81.976562 187.609375 79.949219 185.183594 C 79.914062 185.144531 79.894531 185.105469 79.882812 185.070312 C 77.945312 185.410156 75.414062 184.886719 74.992188 182.75 C 74.949219 182.535156 75.304688 182.527344 75.40625 182.632812 C 76.976562 184.308594 79.3125 184.632812 81.183594 183.136719 C 82.402344 182.15625 83.054688 180.78125 83.71875 179.410156 Z M 75.792969 179.550781 C 69.5625 180.15625 63.964844 183.820312 61.035156 189.375 C 60.835938 189.753906 61.488281 189.902344 61.675781 189.601562 C 64.777344 184.539062 69.957031 180.980469 75.832031 180.023438 C 76.195312 179.964844 76.171875 179.511719 75.792969 179.550781 Z M 76.398438 178.488281 C 76.664062 178.496094 76.785156 178.132812 76.511719 178.035156 C 73.070312 176.804688 68.691406 177.328125 65.214844 178.179688 C 61.605469 179.066406 58.246094 180.636719 55.367188 182.992188 C 54.976562 183.308594 55.636719 183.699219 55.960938 183.476562 C 58.894531 181.441406 62.105469 179.828125 65.585938 178.980469 C 69.242188 178.089844 72.699219 178.421875 76.398438 178.488281 Z M 93.691406 181.714844 C 98.578125 183.902344 101.816406 187.257812 104.609375 191.753906 C 104.835938 192.117188 105.589844 191.941406 105.417969 191.46875 C 103.65625 186.597656 98.863281 182.691406 93.960938 181.269531 C 93.65625 181.183594 93.320312 181.546875 93.691406 181.714844 Z M 94.101562 180.007812 C 98.066406 179.765625 101.980469 180.152344 105.757812 181.433594 C 109.621094 182.746094 112.75 184.984375 115.914062 187.488281 C 116.210938 187.722656 116.839844 187.351562 116.53125 187 C 111.328125 181.015625 101.734375 178.332031 94.078125 179.621094 C 93.78125 179.671875 93.789062 180.03125 94.101562 180.007812 Z M 71.65625 174.582031 C 72.871094 174.707031 73.964844 174.542969 75.144531 175.035156 C 76.285156 175.511719 77.246094 176.253906 77.921875 177.296875 C 78.046875 177.484375 78.464844 177.347656 78.375 177.105469 C 77.476562 174.671875 74.019531 172.273438 71.464844 173.9375 C 71.144531 174.148438 71.300781 174.542969 71.65625 174.582031 Z M 94.535156 178.226562 C 96.535156 175.71875 99.136719 175.59375 101.976562 176.523438 C 102.246094 176.609375 102.851562 176.289062 102.503906 175.992188 C 99.808594 173.699219 95.601562 175.128906 94.039062 178.039062 C 93.871094 178.34375 94.371094 178.433594 94.535156 178.226562 Z M 143.691406 243.296875 C 136.023438 247.941406 131.601562 256.980469 133.332031 265.863281 C 134.324219 270.933594 137.136719 276.066406 141.550781 278.894531 C 141.972656 279.164062 142.832031 278.644531 142.367188 278.179688 C 139.328125 275.144531 136.746094 271.875 135.457031 267.710938 C 134.226562 263.734375 134.183594 259.425781 135.492188 255.460938 C 138.175781 247.328125 145.761719 241.480469 154.324219 241.074219 C 159.519531 240.832031 164.609375 242.296875 168.96875 245.109375 C 169.054688 245.167969 169.21875 245.074219 169.113281 244.984375 C 162.121094 238.929688 151.476562 238.582031 143.691406 243.296875 Z M 130.289062 226.222656 C 129.640625 221.246094 126.257812 216.644531 122.339844 213.667969 C 120.484375 212.257812 118.464844 211.230469 116.296875 210.390625 C 113.671875 209.375 110.945312 208.480469 108.914062 206.4375 C 108.84375 206.367188 108.652344 206.425781 108.730469 206.53125 C 111.632812 210.378906 117.046875 211.136719 120.769531 213.984375 C 125.003906 217.222656 127.398438 221.601562 129.265625 226.488281 C 129.441406 226.949219 130.351562 226.714844 130.289062 226.222656 Z M 96.15625 198.695312 C 96.644531 198.230469 95.769531 197.84375 95.371094 198.101562 C 92.363281 200.046875 88.972656 201.191406 85.363281 200.730469 C 81.652344 200.257812 78.410156 198.152344 75.316406 196.195312 C 75.039062 196.023438 74.574219 196.34375 74.894531 196.597656 C 78.199219 199.199219 81.710938 201.757812 86.046875 202.074219 C 89.695312 202.34375 93.480469 201.238281 96.15625 198.695312 Z M 103.917969 260.1875 C 101.902344 255.738281 99.59375 251.101562 96.441406 247.335938 C 96.339844 247.214844 95.996094 247.289062 96.09375 247.476562 C 98.078125 251.414062 100.371094 255.148438 102.136719 259.203125 C 102.5625 260.1875 102.976562 261.175781 103.371094 262.171875 C 103.105469 261.898438 102.84375 261.632812 102.589844 261.378906 C 100.996094 259.785156 99.214844 258.414062 97.378906 257.113281 C 93.714844 254.519531 90.023438 252.019531 86.425781 249.335938 C 86.335938 249.269531 86.117188 249.355469 86.214844 249.476562 C 88.941406 252.71875 92.859375 255.027344 96.199219 257.566406 C 97.832031 258.804688 99.4375 260.105469 100.902344 261.542969 C 102.5 263.117188 103.566406 265.054688 105.03125 266.699219 C 105.628906 268.464844 106.171875 270.246094 106.652344 272.042969 C 107.816406 276.390625 108.648438 280.820312 109.109375 285.296875 C 109.347656 287.59375 109.582031 289.953125 109.503906 292.265625 C 109.417969 294.882812 108.363281 296.601562 106.316406 298.164062 C 103.910156 300.007812 99.992188 303.070312 101.425781 306.597656 C 101.699219 307.269531 103.027344 306.769531 102.726562 306.023438 C 101.964844 304.15625 103.714844 301.941406 105 300.742188 C 106.394531 299.441406 108.140625 298.539062 109.359375 297.039062 C 111.835938 293.996094 110.921875 289.140625 110.570312 285.539062 C 109.730469 276.828125 107.535156 268.164062 103.917969 260.1875 Z M 162.078125 284.796875 C 160.707031 283.933594 158.871094 284.007812 157.332031 283.707031 C 155.246094 283.300781 153.300781 282.5625 151.273438 281.96875 C 151.019531 281.894531 150.59375 282.183594 150.921875 282.402344 C 153.703125 284.265625 156.945312 284.433594 160.082031 285.230469 C 161.796875 285.664062 162.808594 287.214844 162.445312 288.976562 C 162.070312 290.796875 160.1875 292.019531 158.640625 292.78125 C 155.652344 294.25 152.464844 295.011719 149.964844 297.347656 C 147.917969 299.257812 146.378906 301.8125 145.96875 304.609375 C 145.816406 305.632812 147.566406 305.417969 147.757812 304.550781 C 148.574219 300.867188 150.824219 297.851562 154.21875 296.140625 C 157.214844 294.625 161.042969 293.898438 163.027344 290.921875 C 164.324219 288.972656 164.210938 286.136719 162.078125 284.796875 Z M 187.585938 252.183594 C 187.394531 251.871094 186.757812 252.007812 186.894531 252.410156 C 187.886719 255.328125 187.773438 257.960938 186.800781 260.867188 C 186.660156 261.296875 187.410156 261.316406 187.585938 261.035156 C 189.21875 258.410156 189.175781 254.824219 187.585938 252.183594 Z M 130.421875 256.714844 C 131.613281 261.875 132.921875 267.585938 130.941406 272.71875 C 130.710938 273.3125 129.316406 273.277344 129.519531 272.546875 C 131.105469 266.835938 129.851562 261.316406 128.582031 255.679688 C 127.441406 250.640625 126.207031 244.660156 128.609375 239.785156 C 128.710938 239.574219 129.148438 239.652344 129.097656 239.914062 C 128.503906 242.839844 128.363281 245.59375 128.746094 248.558594 C 129.101562 251.3125 129.800781 254.015625 130.421875 256.714844 " fill-opacity="1" fill-rule="nonzero"/></svg>