<svg xmlns="http://www.w3.org/2000/svg" xmlns:xlink="http://www.w3.org/1999/xlink" width="500" zoomAndPan="magnify" viewBox="0 0 375 374.999991" height="500" preserveAspectRatio="xMidYMid meet" version="1.0"><path fill="#ffd0bc" d="M 265.339844 112.699219 C 265.339844 112.699219 266.796875 83.355469 241.121094 60.609375 C 217.894531 40.042969 183.390625 37.71875 153.53125 56.296875 C 127.359375 72.585938 121.269531 110.292969 121.269531 110.292969 C 121.269531 110.292969 107.351562 113.554688 107.097656 125.253906 C 106.847656 136.703125 120.535156 137.945312 120.535156 137.945312 C 120.535156 137.945312 110.628906 147.886719 115.808594 154.617188 C 120.785156 161.085938 132.476562 156.359375 132.476562 156.359375 C 132.476562 156.359375 128 166.0625 135.960938 172.035156 C 138.960938 174.285156 143.269531 174.628906 147.476562 174.179688 C 142.484375 177.710938 138.574219 181.242188 138.574219 181.242188 L 141.703125 183.710938 C 133.988281 192.355469 130.222656 201.558594 132.976562 207.617188 C 135.359375 212.859375 148.785156 214.9375 156.15625 215.691406 C 151.597656 224.09375 145.945312 233.257812 144.671875 239.46875 C 142.679688 249.171875 143.261719 258.875 143.261719 258.875 C 143.921875 274.304688 148.898438 289.230469 151.636719 295.949219 C 151.636719 295.949219 151.589844 295.976562 151.507812 296.023438 C 151.5 296.027344 151.488281 296.035156 151.480469 296.039062 C 151.445312 296.058594 151.410156 296.082031 151.363281 296.105469 C 151.34375 296.117188 151.324219 296.128906 151.304688 296.140625 C 151.257812 296.167969 151.210938 296.195312 151.160156 296.226562 C 151.132812 296.242188 151.105469 296.257812 151.078125 296.273438 C 151.023438 296.304688 150.96875 296.339844 150.910156 296.375 C 150.875 296.398438 150.839844 296.417969 150.800781 296.441406 C 150.738281 296.480469 150.671875 296.523438 150.601562 296.566406 C 150.5625 296.589844 150.527344 296.609375 150.488281 296.632812 C 150.386719 296.695312 150.28125 296.765625 150.167969 296.835938 C 150.15625 296.84375 150.148438 296.847656 150.136719 296.855469 C 150.015625 296.933594 149.890625 297.015625 149.757812 297.101562 C 149.707031 297.132812 149.652344 297.171875 149.597656 297.207031 C 149.511719 297.261719 149.429688 297.316406 149.339844 297.378906 C 149.277344 297.417969 149.214844 297.460938 149.152344 297.503906 C 149.066406 297.5625 148.976562 297.621094 148.890625 297.683594 C 148.824219 297.730469 148.753906 297.777344 148.683594 297.824219 C 148.597656 297.886719 148.507812 297.949219 148.417969 298.011719 C 148.34375 298.0625 148.273438 298.117188 148.199219 298.167969 C 148.105469 298.234375 148.007812 298.304688 147.914062 298.375 C 147.839844 298.429688 147.769531 298.480469 147.699219 298.535156 C 147.59375 298.609375 147.488281 298.6875 147.382812 298.765625 C 147.316406 298.820312 147.246094 298.871094 147.175781 298.925781 C 147.046875 299.023438 146.914062 299.125 146.785156 299.230469 C 146.738281 299.265625 146.691406 299.300781 146.644531 299.335938 C 146.644531 299.335938 146.644531 299.339844 146.644531 299.339844 C 145.800781 300.007812 144.925781 300.757812 144.082031 301.574219 C 143.144531 302.484375 142.253906 303.476562 141.492188 304.527344 C 141.464844 304.566406 141.4375 304.601562 141.410156 304.640625 C 141.175781 304.96875 140.953125 305.304688 140.75 305.644531 C 140.726562 305.679688 140.707031 305.71875 140.683594 305.753906 C 140.484375 306.09375 140.296875 306.4375 140.128906 306.789062 C 140.125 306.800781 140.117188 306.8125 140.113281 306.824219 C 139.949219 307.167969 139.8125 307.515625 139.691406 307.867188 C 139.667969 307.929688 139.644531 307.992188 139.625 308.058594 C 139.511719 308.398438 139.421875 308.746094 139.351562 309.09375 C 139.339844 309.15625 139.328125 309.21875 139.320312 309.28125 C 139.253906 309.644531 139.207031 310.011719 139.195312 310.382812 C 139.160156 311.46875 140.019531 312.164062 141.488281 312.542969 C 142.074219 312.695312 142.761719 312.796875 143.527344 312.855469 C 143.71875 312.871094 143.914062 312.882812 144.117188 312.890625 C 144.722656 312.917969 145.367188 312.917969 146.050781 312.898438 C 146.503906 312.882812 146.972656 312.859375 147.457031 312.828125 C 148.425781 312.761719 149.445312 312.660156 150.5 312.523438 C 151.027344 312.457031 151.566406 312.382812 152.109375 312.300781 C 153.195312 312.132812 154.308594 311.941406 155.433594 311.722656 C 155.714844 311.667969 155.996094 311.609375 156.277344 311.554688 C 157.402344 311.324219 158.53125 311.070312 159.648438 310.800781 C 159.929688 310.730469 160.207031 310.664062 160.484375 310.59375 C 161.941406 310.226562 163.363281 309.835938 164.71875 309.425781 C 165.621094 309.152344 166.492188 308.871094 167.320312 308.589844 C 168.148438 308.304688 168.929688 308.015625 169.660156 307.730469 C 172.9375 306.4375 175.089844 305.140625 175.027344 304.160156 C 175.027344 304.15625 175.027344 304.15625 175.027344 304.152344 C 175.011719 303.941406 174.996094 303.695312 174.972656 303.425781 C 174.964844 303.324219 174.953125 303.203125 174.945312 303.089844 C 174.929688 302.910156 174.914062 302.734375 174.894531 302.53125 C 174.882812 302.363281 174.863281 302.167969 174.847656 301.984375 C 174.832031 301.828125 174.816406 301.679688 174.800781 301.511719 C 174.777344 301.234375 174.746094 300.929688 174.714844 300.625 C 174.710938 300.554688 174.703125 300.492188 174.695312 300.421875 C 174.515625 298.589844 174.289062 296.335938 174.042969 293.789062 C 173.050781 283.441406 171.835938 268.433594 172.929688 258.875 L 186.941406 258.875 C 187.675781 274.152344 192.582031 288.875 195.292969 295.535156 C 195.292969 295.535156 195.28125 295.539062 195.261719 295.550781 C 195.257812 295.554688 195.257812 295.554688 195.253906 295.554688 C 195.234375 295.566406 195.207031 295.582031 195.171875 295.601562 C 195.15625 295.609375 195.136719 295.621094 195.121094 295.632812 C 195.09375 295.648438 195.0625 295.664062 195.027344 295.683594 C 195.003906 295.699219 194.976562 295.714844 194.949219 295.730469 C 194.910156 295.753906 194.871094 295.777344 194.824219 295.804688 C 194.792969 295.824219 194.761719 295.84375 194.726562 295.863281 C 194.679688 295.890625 194.628906 295.921875 194.578125 295.953125 C 194.539062 295.976562 194.496094 296.003906 194.453125 296.027344 C 194.398438 296.0625 194.335938 296.101562 194.277344 296.136719 C 194.234375 296.164062 194.191406 296.191406 194.140625 296.21875 C 194.058594 296.273438 193.964844 296.332031 193.875 296.390625 C 193.839844 296.410156 193.808594 296.429688 193.773438 296.453125 C 193.660156 296.527344 193.542969 296.601562 193.417969 296.683594 C 193.359375 296.71875 193.296875 296.761719 193.238281 296.800781 C 193.160156 296.851562 193.082031 296.90625 193 296.960938 C 192.933594 297.003906 192.867188 297.050781 192.800781 297.09375 C 192.71875 297.152344 192.636719 297.207031 192.550781 297.265625 C 192.480469 297.3125 192.410156 297.363281 192.335938 297.414062 C 192.25 297.472656 192.164062 297.535156 192.074219 297.597656 C 192.003906 297.648438 191.929688 297.699219 191.855469 297.753906 C 191.761719 297.820312 191.667969 297.886719 191.574219 297.957031 C 191.5 298.011719 191.425781 298.0625 191.351562 298.121094 C 191.253906 298.191406 191.152344 298.269531 191.050781 298.34375 C 190.976562 298.398438 190.90625 298.453125 190.828125 298.511719 C 190.707031 298.605469 190.585938 298.699219 190.464844 298.796875 C 190.410156 298.839844 190.355469 298.878906 190.300781 298.921875 C 189.457031 299.589844 188.582031 300.34375 187.742188 301.160156 C 186.804688 302.070312 185.910156 303.058594 185.148438 304.109375 C 185.121094 304.148438 185.09375 304.1875 185.066406 304.226562 C 184.832031 304.554688 184.613281 304.886719 184.40625 305.230469 C 184.386719 305.265625 184.363281 305.300781 184.34375 305.339844 C 184.140625 305.679688 183.953125 306.023438 183.789062 306.375 C 183.78125 306.382812 183.777344 306.394531 183.769531 306.40625 C 183.609375 306.75 183.46875 307.101562 183.347656 307.453125 C 183.324219 307.515625 183.300781 307.578125 183.28125 307.640625 C 183.171875 307.984375 183.078125 308.328125 183.007812 308.679688 C 182.996094 308.742188 182.988281 308.804688 182.976562 308.867188 C 182.914062 309.214844 182.871094 309.566406 182.855469 309.921875 C 182.855469 309.9375 182.851562 309.949219 182.851562 309.964844 C 182.8125 311.164062 183.855469 311.882812 185.601562 312.234375 C 185.761719 312.265625 185.925781 312.292969 186.097656 312.320312 C 186.949219 312.449219 187.941406 312.503906 189.035156 312.496094 C 189.039062 312.496094 189.046875 312.496094 189.050781 312.496094 C 189.90625 312.488281 190.824219 312.441406 191.792969 312.359375 C 192.308594 312.316406 192.832031 312.265625 193.371094 312.203125 C 194.375 312.089844 195.414062 311.941406 196.472656 311.773438 C 196.785156 311.722656 197.097656 311.667969 197.414062 311.613281 C 197.734375 311.558594 198.058594 311.5 198.382812 311.441406 C 199.128906 311.300781 199.878906 311.152344 200.632812 310.992188 C 200.960938 310.921875 201.292969 310.851562 201.621094 310.777344 C 201.957031 310.703125 202.292969 310.625 202.625 310.546875 C 203.414062 310.363281 204.199219 310.167969 204.96875 309.964844 C 205.242188 309.894531 205.515625 309.824219 205.789062 309.75 C 206.332031 309.601562 206.871094 309.453125 207.398438 309.300781 C 208.980469 308.839844 210.484375 308.359375 211.84375 307.867188 C 212.300781 307.703125 212.738281 307.539062 213.160156 307.375 C 216.523438 306.0625 218.746094 304.738281 218.683594 303.746094 C 218.671875 303.53125 218.652344 303.28125 218.628906 303.011719 C 218.621094 302.910156 218.613281 302.789062 218.601562 302.679688 C 218.585938 302.5 218.570312 302.320312 218.554688 302.117188 C 218.539062 301.945312 218.519531 301.757812 218.503906 301.574219 C 218.488281 301.417969 218.476562 301.265625 218.460938 301.097656 C 218.433594 300.820312 218.402344 300.519531 218.375 300.214844 C 218.367188 300.144531 218.359375 300.074219 218.351562 300.003906 C 218.175781 298.171875 217.945312 295.917969 217.699219 293.375 C 216.722656 283.175781 215.527344 268.449219 216.539062 258.875 L 232.503906 258.875 C 232.503906 258.875 238.382812 206.894531 227.132812 177.910156 C 228.726562 178.167969 230.433594 178.21875 232.257812 178.003906 C 246.9375 176.261719 244.945312 160.339844 244.945312 160.339844 C 244.945312 160.339844 255.894531 168.796875 263.859375 162.578125 C 271.390625 156.691406 261.371094 145.40625 261.371094 145.40625 C 261.371094 145.40625 281.746094 145.800781 282.769531 131.972656 C 283.765625 118.539062 265.339844 112.699219 265.339844 112.699219 Z M 265.339844 112.699219 " fill-opacity="1" fill-rule="nonzero"/><path fill="#f63845" d="M 218.683594 303.746094 C 218.746094 304.742188 216.523438 306.0625 213.160156 307.378906 C 212.738281 307.542969 212.300781 307.707031 211.847656 307.871094 C 210.484375 308.359375 208.980469 308.84375 207.398438 309.300781 C 206.871094 309.453125 206.332031 309.605469 205.789062 309.75 C 205.519531 309.824219 205.246094 309.898438 204.96875 309.96875 C 204.199219 310.171875 203.414062 310.363281 202.628906 310.546875 C 202.292969 310.625 201.957031 310.703125 201.621094 310.777344 C 201.292969 310.851562 200.960938 310.921875 200.632812 310.992188 C 199.878906 311.152344 199.128906 311.300781 198.382812 311.441406 C 198.058594 311.5 197.734375 311.5625 197.414062 311.617188 C 197.097656 311.671875 196.785156 311.722656 196.472656 311.773438 C 195.414062 311.945312 194.375 312.089844 193.371094 312.207031 C 192.835938 312.265625 192.308594 312.320312 191.792969 312.363281 C 190.828125 312.441406 189.90625 312.488281 189.050781 312.496094 C 189.046875 312.496094 189.042969 312.496094 189.035156 312.496094 C 187.941406 312.503906 186.949219 312.449219 186.097656 312.320312 C 185.925781 312.296875 185.761719 312.265625 185.605469 312.234375 C 183.855469 311.882812 182.816406 311.164062 182.851562 309.964844 C 182.863281 309.597656 182.914062 309.230469 182.976562 308.867188 C 182.988281 308.804688 182.996094 308.742188 183.007812 308.679688 C 183.078125 308.332031 183.171875 307.984375 183.28125 307.644531 C 183.304688 307.578125 183.324219 307.515625 183.347656 307.453125 C 183.46875 307.101562 183.609375 306.753906 183.769531 306.410156 C 183.777344 306.398438 183.78125 306.386719 183.789062 306.375 C 183.953125 306.023438 184.140625 305.679688 184.34375 305.339844 C 184.367188 305.304688 184.386719 305.265625 184.40625 305.230469 C 184.613281 304.890625 184.835938 304.554688 185.066406 304.226562 C 185.09375 304.1875 185.121094 304.152344 185.152344 304.113281 C 185.914062 303.0625 186.804688 302.070312 187.742188 301.160156 C 188.785156 301.785156 190.1875 302.351562 192.058594 302.667969 C 197.949219 303.664062 201.597656 300.261719 201.597656 300.261719 C 198.679688 296.46875 192.621094 298.449219 190.300781 298.925781 C 190.355469 298.882812 190.410156 298.839844 190.464844 298.796875 C 190.585938 298.703125 190.710938 298.605469 190.832031 298.511719 C 190.90625 298.457031 190.976562 298.402344 191.050781 298.347656 C 191.152344 298.269531 191.253906 298.195312 191.351562 298.121094 C 191.425781 298.066406 191.5 298.011719 191.574219 297.957031 C 191.667969 297.890625 191.761719 297.820312 191.855469 297.753906 C 191.929688 297.703125 192.003906 297.648438 192.078125 297.597656 C 192.164062 297.535156 192.25 297.476562 192.339844 297.414062 C 192.410156 297.363281 192.480469 297.316406 192.550781 297.265625 C 192.636719 297.207031 192.71875 297.152344 192.800781 297.097656 C 192.867188 297.050781 192.933594 297.003906 193 296.960938 C 193.082031 296.90625 193.160156 296.855469 193.238281 296.804688 C 193.296875 296.765625 193.359375 296.722656 193.417969 296.683594 C 193.542969 296.605469 193.660156 296.527344 193.773438 296.457031 C 193.808594 296.433594 193.839844 296.414062 193.875 296.390625 C 193.96875 296.332031 194.058594 296.277344 194.144531 296.222656 C 194.191406 296.191406 194.234375 296.167969 194.277344 296.140625 C 194.339844 296.101562 194.398438 296.066406 194.453125 296.03125 C 194.5 296.003906 194.539062 295.980469 194.578125 295.957031 C 194.632812 295.925781 194.679688 295.894531 194.726562 295.867188 C 194.761719 295.84375 194.796875 295.824219 194.828125 295.808594 C 194.871094 295.78125 194.910156 295.757812 194.949219 295.734375 C 194.976562 295.71875 195.003906 295.703125 195.03125 295.6875 C 195.066406 295.667969 195.09375 295.652344 195.121094 295.632812 C 195.140625 295.625 195.160156 295.613281 195.171875 295.605469 C 195.207031 295.585938 195.234375 295.570312 195.253906 295.558594 C 195.257812 295.558594 195.257812 295.554688 195.261719 295.554688 C 195.28125 295.542969 195.292969 295.535156 195.292969 295.535156 C 195.292969 295.535156 199.359375 293.296875 204.832031 297.113281 L 217.699219 293.375 C 217.945312 295.921875 218.175781 298.175781 218.351562 300.007812 C 218.359375 300.078125 218.367188 300.148438 218.375 300.21875 C 218.402344 300.523438 218.433594 300.820312 218.460938 301.097656 C 218.476562 301.265625 218.488281 301.417969 218.503906 301.578125 C 218.519531 301.761719 218.539062 301.949219 218.554688 302.121094 C 218.570312 302.320312 218.585938 302.5 218.601562 302.683594 C 218.613281 302.792969 218.621094 302.914062 218.628906 303.015625 C 218.652344 303.285156 218.671875 303.53125 218.683594 303.746094 Z M 174.972656 303.429688 C 174.964844 303.324219 174.957031 303.203125 174.945312 303.09375 C 174.929688 302.914062 174.914062 302.734375 174.898438 302.535156 C 174.882812 302.363281 174.863281 302.171875 174.847656 301.988281 C 174.832031 301.832031 174.820312 301.679688 174.804688 301.515625 C 174.777344 301.234375 174.746094 300.933594 174.71875 300.625 C 174.710938 300.558594 174.703125 300.492188 174.699219 300.425781 C 174.519531 298.59375 174.289062 296.339844 174.042969 293.789062 L 161.175781 297.527344 C 155.703125 293.710938 151.636719 295.949219 151.636719 295.949219 C 151.636719 295.949219 151.589844 295.976562 151.507812 296.023438 C 151.5 296.027344 151.492188 296.035156 151.480469 296.039062 C 151.445312 296.058594 151.410156 296.082031 151.363281 296.105469 C 151.34375 296.117188 151.324219 296.128906 151.304688 296.140625 C 151.257812 296.167969 151.210938 296.195312 151.160156 296.226562 C 151.132812 296.242188 151.105469 296.257812 151.078125 296.273438 C 151.027344 296.304688 150.96875 296.339844 150.910156 296.375 C 150.875 296.398438 150.839844 296.417969 150.800781 296.441406 C 150.738281 296.480469 150.671875 296.523438 150.601562 296.566406 C 150.5625 296.589844 150.527344 296.609375 150.488281 296.632812 C 150.386719 296.695312 150.28125 296.765625 150.167969 296.835938 C 150.15625 296.84375 150.148438 296.847656 150.136719 296.855469 C 150.015625 296.933594 149.890625 297.015625 149.757812 297.101562 C 149.707031 297.132812 149.652344 297.171875 149.597656 297.207031 C 149.515625 297.261719 149.429688 297.316406 149.339844 297.378906 C 149.277344 297.417969 149.214844 297.460938 149.152344 297.503906 C 149.066406 297.5625 148.980469 297.621094 148.890625 297.683594 C 148.824219 297.730469 148.753906 297.777344 148.6875 297.824219 C 148.597656 297.886719 148.507812 297.949219 148.417969 298.011719 C 148.34375 298.0625 148.273438 298.117188 148.199219 298.167969 C 148.105469 298.234375 148.007812 298.304688 147.914062 298.375 C 147.839844 298.429688 147.769531 298.480469 147.699219 298.535156 C 147.59375 298.609375 147.492188 298.6875 147.386719 298.765625 C 147.316406 298.820312 147.246094 298.871094 147.175781 298.925781 C 147.046875 299.023438 146.914062 299.125 146.785156 299.230469 C 146.738281 299.265625 146.691406 299.300781 146.644531 299.335938 C 146.644531 299.335938 146.644531 299.339844 146.644531 299.339844 C 148.964844 298.863281 155.023438 296.882812 157.941406 300.675781 C 157.941406 300.675781 154.292969 304.078125 148.402344 303.082031 C 146.53125 302.765625 145.128906 302.199219 144.085938 301.574219 C 144.085938 301.574219 144.082031 301.574219 144.082031 301.574219 C 143.148438 302.484375 142.257812 303.476562 141.492188 304.527344 C 141.464844 304.566406 141.4375 304.601562 141.410156 304.640625 C 141.175781 304.96875 140.957031 305.304688 140.75 305.644531 C 140.726562 305.679688 140.707031 305.71875 140.6875 305.753906 C 140.484375 306.09375 140.296875 306.4375 140.132812 306.789062 C 140.125 306.800781 140.121094 306.8125 140.113281 306.824219 C 139.953125 307.167969 139.8125 307.515625 139.691406 307.867188 C 139.667969 307.929688 139.644531 307.992188 139.625 308.058594 C 139.515625 308.398438 139.421875 308.746094 139.351562 309.09375 C 139.339844 309.15625 139.332031 309.21875 139.320312 309.28125 C 139.257812 309.644531 139.207031 310.011719 139.195312 310.382812 C 139.160156 311.46875 140.019531 312.164062 141.488281 312.542969 C 142.078125 312.695312 142.761719 312.796875 143.527344 312.855469 C 143.71875 312.871094 143.917969 312.882812 144.117188 312.890625 C 144.722656 312.917969 145.367188 312.917969 146.050781 312.898438 C 146.503906 312.882812 146.972656 312.859375 147.457031 312.828125 C 148.425781 312.761719 149.445312 312.660156 150.5 312.523438 C 151.03125 312.457031 151.566406 312.382812 152.109375 312.300781 C 153.195312 312.132812 154.3125 311.941406 155.433594 311.722656 C 155.714844 311.667969 155.996094 311.609375 156.277344 311.554688 C 157.402344 311.324219 158.53125 311.070312 159.648438 310.800781 C 159.929688 310.730469 160.207031 310.664062 160.484375 310.59375 C 168.25 308.644531 175.136719 305.902344 175.027344 304.160156 C 175.027344 304.15625 175.027344 304.15625 175.027344 304.152344 C 175.015625 303.941406 174.996094 303.699219 174.972656 303.429688 Z M 187.785156 151.425781 C 188.4375 152.691406 188.863281 153.980469 189.21875 155.273438 C 189.535156 156.484375 189.785156 157.695312 189.984375 158.910156 C 190.167969 158.816406 190.355469 158.722656 190.527344 158.617188 C 190.640625 158.550781 190.75 158.476562 190.859375 158.402344 C 191.035156 158.289062 191.203125 158.171875 191.367188 158.050781 C 191.472656 157.96875 191.578125 157.882812 191.679688 157.800781 C 191.832031 157.671875 191.980469 157.542969 192.121094 157.410156 C 192.214844 157.320312 192.308594 157.230469 192.398438 157.136719 C 192.539062 156.996094 192.667969 156.847656 192.796875 156.695312 C 192.875 156.605469 192.953125 156.515625 193.027344 156.421875 C 193.164062 156.25 193.289062 156.074219 193.410156 155.894531 C 193.464844 155.816406 193.523438 155.738281 193.574219 155.65625 C 193.914062 155.128906 194.207031 154.570312 194.449219 153.988281 C 194.484375 153.910156 194.511719 153.828125 194.542969 153.746094 C 194.628906 153.535156 194.710938 153.316406 194.785156 153.097656 C 194.816406 153 194.847656 152.902344 194.875 152.804688 C 194.941406 152.597656 195.003906 152.386719 195.058594 152.175781 C 195.085938 152.074219 195.109375 151.976562 195.132812 151.875 C 195.1875 151.660156 195.234375 151.441406 195.277344 151.21875 C 195.296875 151.128906 195.316406 151.039062 195.332031 150.945312 C 195.375 150.703125 195.414062 150.460938 195.449219 150.214844 C 195.457031 150.148438 195.46875 150.082031 195.476562 150.015625 C 195.515625 149.707031 195.550781 149.398438 195.578125 149.089844 C 195.578125 149.089844 195.578125 149.085938 195.578125 149.082031 C 195.660156 148.09375 195.671875 147.113281 195.636719 146.175781 C 192.851562 145.972656 188.839844 146.316406 186.230469 149.289062 C 186.332031 149.386719 186.433594 149.484375 186.527344 149.585938 C 187.054688 150.167969 187.449219 150.796875 187.785156 151.425781 Z M 187.785156 151.425781 " fill-opacity="1" fill-rule="nonzero"/><path fill="#141414" d="M 282.769531 131.972656 C 281.746094 145.804688 261.371094 145.410156 261.371094 145.410156 C 261.371094 145.410156 271.390625 156.695312 263.859375 162.578125 C 255.898438 168.800781 244.949219 160.339844 244.949219 160.339844 C 244.949219 160.339844 246.9375 176.265625 232.257812 178.007812 C 230.433594 178.222656 228.726562 178.171875 227.132812 177.914062 C 224.507812 171.15625 220.953125 165.65625 216.179688 162.347656 C 222.695312 158.90625 228.601562 154.429688 233.5 149.066406 C 235.855469 148.683594 250.875 145.8125 258.710938 133.929688 C 264.570312 125.039062 261.847656 112.417969 253.234375 108.632812 C 252.734375 108.410156 252.214844 108.214844 251.671875 108.054688 C 236.585938 103.652344 228.898438 119.890625 228.898438 119.894531 C 210.6875 111.960938 204.304688 91.996094 204.304688 91.996094 C 204.304688 91.996094 208.785156 107.257812 201.484375 109.414062 C 192.707031 112.007812 186.699219 101.199219 185.914062 98.890625 C 186.828125 101.96875 186.886719 112.730469 179.589844 113.5625 C 161.785156 115.585938 157.859375 76.402344 157.859375 76.402344 C 157.859375 76.402344 151.898438 100.546875 129.714844 114.652344 C 129.066406 132.734375 135.589844 150.378906 150.320312 160.347656 C 153.582031 162.558594 157.019531 164.363281 160.5625 165.820312 C 160.589844 165.859375 160.613281 165.902344 160.640625 165.945312 C 160.933594 166.378906 161.25 166.796875 161.574219 167.203125 C 157.382812 167.792969 151.992188 170.984375 147.476562 174.179688 C 143.269531 174.628906 138.964844 174.285156 135.960938 172.035156 C 128 166.0625 132.480469 156.359375 132.480469 156.359375 C 132.480469 156.359375 120.785156 161.085938 115.808594 154.617188 C 110.628906 147.886719 120.535156 137.945312 120.535156 137.945312 C 120.535156 137.945312 106.851562 136.703125 107.097656 125.253906 C 107.351562 113.554688 121.269531 110.292969 121.269531 110.292969 C 121.269531 110.292969 127.359375 72.585938 153.53125 56.296875 C 183.390625 37.71875 217.894531 40.042969 241.121094 60.609375 C 266.796875 83.355469 265.339844 112.699219 265.339844 112.699219 C 265.339844 112.699219 283.765625 118.539062 282.769531 131.972656 Z M 146.847656 109.738281 C 142.148438 111.222656 138.738281 113.691406 139.234375 115.253906 C 139.726562 116.816406 143.9375 116.878906 148.632812 115.394531 C 153.332031 113.910156 156.738281 111.4375 156.246094 109.875 C 155.753906 108.3125 151.542969 108.25 146.847656 109.738281 Z M 146.847656 109.738281 " fill-opacity="1" fill-rule="nonzero"/><path fill="#fb6ea4" d="M 232.507812 258.875 L 143.261719 258.875 C 143.261719 258.875 142.679688 249.171875 144.671875 239.46875 C 145.945312 233.257812 151.597656 224.09375 156.15625 215.691406 C 159.050781 215.984375 161.011719 216.078125 161.011719 216.078125 C 161.011719 216.078125 166.652344 229.015625 171.460938 227.6875 C 176.273438 226.363281 171.128906 216.410156 171.128906 216.410156 C 171.128906 216.410156 178.261719 225.699219 182.574219 222.878906 C 186.570312 220.265625 179.609375 213.242188 178.5625 212.222656 C 179.519531 213.136719 185.527344 218.667969 187.964844 216.078125 C 189.171875 214.796875 187.703125 211.359375 185.09375 207.816406 C 186.453125 208.871094 187.945312 209.5625 189.585938 209.734375 C 199.203125 210.726562 203.765625 206.746094 210.113281 199.65625 L 192.859375 174.273438 C 195.175781 172.765625 197.390625 171.09375 199.449219 169.210938 C 199.746094 168.9375 200.027344 168.640625 200.316406 168.355469 C 205.835938 166.996094 211.1875 164.984375 216.179688 162.347656 C 220.953125 165.65625 224.511719 171.15625 227.132812 177.914062 C 238.386719 206.898438 232.507812 258.875 232.507812 258.875 Z M 156.96875 195.679688 C 156.96875 195.679688 156.976562 195.679688 156.980469 195.683594 C 157.019531 195.683594 157.066406 195.6875 157.132812 195.695312 C 157.191406 195.699219 157.253906 195.703125 157.328125 195.710938 C 157.34375 195.710938 157.355469 195.710938 157.371094 195.710938 C 157.453125 195.71875 157.542969 195.726562 157.640625 195.734375 C 157.671875 195.738281 157.695312 195.738281 157.726562 195.742188 C 157.851562 195.753906 157.988281 195.765625 158.140625 195.777344 C 158.140625 195.777344 158.140625 195.777344 158.144531 195.777344 C 158.292969 195.792969 158.460938 195.804688 158.632812 195.824219 C 158.652344 195.824219 158.667969 195.824219 158.6875 195.828125 C 160.371094 195.984375 163.050781 196.265625 165.960938 196.703125 C 165.96875 196.703125 165.976562 196.703125 165.984375 196.707031 C 166.296875 196.753906 166.613281 196.800781 166.933594 196.851562 C 169.097656 197.199219 171.339844 197.632812 173.367188 198.164062 C 175.796875 198.796875 178.628906 200.828125 181.179688 203.320312 C 175.273438 194.058594 173.121094 178.089844 173.121094 178.089844 C 173.121094 178.089844 172.355469 177.5 171.203125 176.535156 C 169.464844 175.085938 166.832031 172.785156 164.519531 170.335938 C 163.492188 169.34375 162.480469 168.324219 161.574219 167.203125 C 157.382812 167.796875 151.988281 170.984375 147.472656 174.179688 C 142.484375 177.714844 138.574219 181.242188 138.574219 181.242188 L 141.703125 183.710938 L 156.863281 195.675781 C 156.863281 195.671875 156.90625 195.675781 156.96875 195.679688 Z M 156.96875 195.679688 " fill-opacity="1" fill-rule="nonzero"/><path fill="#342d2a" d="M 195.644531 147.746094 C 195.632812 148.1875 195.613281 148.632812 195.578125 149.082031 C 195.613281 148.632812 195.632812 148.1875 195.644531 147.746094 Z M 195.640625 146.21875 C 195.652344 146.636719 195.65625 147.0625 195.648438 147.492188 C 195.65625 147.0625 195.652344 146.636719 195.640625 146.21875 Z M 195.636719 146.175781 C 195.636719 146.191406 195.636719 146.203125 195.640625 146.21875 C 195.636719 146.203125 195.640625 146.1875 195.636719 146.175781 Z M 195.644531 147.746094 C 195.644531 147.660156 195.648438 147.578125 195.648438 147.492188 C 195.648438 147.578125 195.644531 147.660156 195.644531 147.746094 Z M 193.574219 155.65625 C 193.914062 155.128906 194.207031 154.566406 194.449219 153.988281 C 194.203125 154.566406 193.914062 155.128906 193.574219 155.65625 Z M 201.089844 158.429688 C 199.480469 158.15625 198.007812 158.453125 196.613281 158.820312 C 194.386719 159.457031 192.332031 160.355469 190.320312 161.402344 C 190.230469 160.566406 190.121094 159.738281 189.984375 158.910156 C 190.167969 158.816406 190.351562 158.722656 190.527344 158.617188 C 190.351562 158.722656 190.167969 158.816406 189.984375 158.910156 C 189.785156 157.695312 189.535156 156.484375 189.21875 155.273438 C 188.863281 153.980469 188.4375 152.691406 187.785156 151.425781 C 187.449219 150.796875 187.054688 150.167969 186.527344 149.585938 C 186.433594 149.484375 186.332031 149.386719 186.230469 149.289062 C 188.835938 146.316406 192.851562 145.972656 195.636719 146.175781 C 195.503906 142.4375 194.65625 139.414062 194.65625 139.414062 C 184.976562 148.308594 168.023438 148.203125 168.023438 148.203125 C 168.023438 148.203125 168.347656 149.042969 169.011719 150.285156 C 168.835938 150.402344 168.664062 150.535156 168.5 150.675781 C 167.855469 151.289062 167.421875 152.070312 167.210938 152.828125 C 166.757812 154.363281 166.921875 155.789062 167.125 157.136719 C 167.359375 158.449219 167.699219 159.699219 168.113281 160.921875 C 167.59375 160.539062 167.058594 160.175781 166.472656 159.859375 C 165.554688 159.378906 164.519531 158.992188 163.394531 158.976562 C 162.273438 158.949219 161.136719 159.40625 160.347656 160.136719 C 159.945312 160.453125 159.542969 160.972656 159.363281 161.535156 C 159.199219 162.109375 159.234375 162.679688 159.335938 163.203125 C 159.570312 164.191406 160.046875 165.03125 160.5625 165.820312 C 160.589844 165.863281 160.613281 165.90625 160.640625 165.945312 C 160.933594 166.382812 161.25 166.796875 161.574219 167.203125 C 162.480469 168.324219 163.492188 169.34375 164.519531 170.335938 C 163.273438 168.847656 162.078125 167.300781 161.148438 165.636719 C 160.695312 164.804688 160.300781 163.921875 160.175781 163.050781 C 160.125 162.617188 160.144531 162.199219 160.273438 161.839844 C 160.4375 161.492188 160.652344 161.222656 161.027344 160.960938 C 161.710938 160.429688 162.519531 160.183594 163.339844 160.261719 C 164.164062 160.332031 164.992188 160.667969 165.757812 161.132812 C 167.285156 162.070312 168.648438 163.457031 169.757812 164.878906 C 170 165.1875 170.429688 165.3125 170.8125 165.15625 C 171.273438 164.964844 171.488281 164.4375 171.296875 163.976562 L 171.28125 163.941406 C 170.332031 161.664062 169.542969 159.214844 169.226562 156.828125 C 169.085938 155.648438 169.058594 154.429688 169.375 153.496094 C 169.519531 153.019531 169.765625 152.664062 170.050781 152.390625 C 170.390625 152.15625 170.710938 151.9375 171.054688 151.976562 C 171.742188 151.957031 172.714844 152.558594 173.511719 153.375 C 174.335938 154.183594 175.070312 155.164062 175.773438 156.171875 C 176.46875 157.1875 177.109375 158.257812 177.714844 159.351562 L 179.394531 162.695312 L 179.410156 162.726562 C 179.660156 163.222656 180.214844 163.523438 180.792969 163.425781 C 181.503906 163.308594 181.984375 162.632812 181.863281 161.921875 C 181.460938 159.519531 181.226562 156.976562 181.324219 154.589844 C 181.398438 153.421875 181.5625 152.207031 181.992188 151.382812 C 182.195312 150.96875 182.4375 150.707031 182.671875 150.601562 C 182.902344 150.5 183.300781 150.480469 183.628906 150.585938 C 184.316406 150.777344 185.03125 151.632812 185.574219 152.613281 C 186.125 153.613281 186.546875 154.753906 186.898438 155.925781 C 187.589844 158.273438 188.015625 160.792969 188.277344 163.242188 L 188.28125 163.285156 C 188.296875 163.445312 188.351562 163.601562 188.441406 163.746094 C 188.761719 164.261719 189.4375 164.421875 189.957031 164.097656 C 192.199219 162.703125 194.648438 161.421875 197.140625 160.605469 C 198.378906 160.222656 199.679688 159.910156 200.820312 160.050781 C 201.382812 160.125 201.859375 160.324219 202.203125 160.671875 C 202.558594 161.03125 202.757812 161.484375 202.765625 162.027344 C 202.761719 163.140625 202.121094 164.375 201.414062 165.476562 C 200.671875 166.589844 199.800781 167.636719 198.875 168.640625 C 197.023438 170.648438 194.988281 172.515625 192.859375 174.273438 C 195.175781 172.765625 197.390625 171.09375 199.449219 169.210938 C 199.746094 168.9375 200.027344 168.640625 200.3125 168.355469 C 201.019531 167.652344 201.699219 166.925781 202.324219 166.125 C 202.753906 165.558594 203.160156 164.957031 203.503906 164.296875 C 203.84375 163.640625 204.117188 162.902344 204.164062 162.0625 C 204.222656 161.222656 203.910156 160.289062 203.324219 159.640625 C 202.734375 158.960938 201.878906 158.574219 201.089844 158.429688 Z M 162.59375 137.273438 C 163.199219 138.375 164.007812 139.246094 164.882812 139.957031 C 166.640625 141.378906 168.625 142.363281 170.75 142.859375 C 169.15625 141.394531 167.601562 140 166.34375 138.476562 C 165.058594 136.984375 164.234375 135.296875 164.5 133.914062 C 164.640625 133.238281 164.992188 132.726562 165.65625 132.277344 C 166.320312 131.835938 167.21875 131.523438 168.164062 131.296875 C 170.074219 130.84375 172.164062 130.695312 174.316406 130.5 C 172.324219 129.613281 170.164062 129.171875 167.886719 129.246094 C 166.753906 129.304688 165.5625 129.503906 164.394531 130.117188 C 163.8125 130.425781 163.253906 130.871094 162.804688 131.441406 C 162.53125 131.785156 162.324219 132.175781 162.164062 132.578125 C 161.601562 131.617188 160.882812 130.726562 160.066406 129.9375 C 159.210938 129.132812 158.234375 128.441406 157.179688 127.894531 C 156.914062 127.761719 156.652344 127.621094 156.378906 127.496094 C 156.085938 127.382812 155.792969 127.253906 155.492188 127.160156 C 154.894531 126.953125 154.273438 126.832031 153.660156 126.742188 C 151.179688 126.414062 148.789062 126.929688 146.695312 127.835938 C 144.605469 128.757812 142.714844 130.046875 141.269531 131.808594 C 143.472656 131.335938 145.511719 130.847656 147.507812 130.515625 C 149.5 130.1875 151.429688 130.015625 153.207031 130.230469 C 153.652344 130.277344 154.085938 130.375 154.511719 130.472656 C 154.726562 130.515625 154.929688 130.589844 155.140625 130.648438 C 155.359375 130.738281 155.589844 130.8125 155.8125 130.894531 C 156.699219 131.242188 157.585938 131.621094 158.433594 132.109375 C 159.597656 132.765625 160.722656 133.550781 161.820312 134.480469 C 161.84375 135.496094 162.148438 136.472656 162.59375 137.273438 Z M 207.128906 120.222656 C 204.421875 119.703125 201.617188 119.457031 198.730469 119.820312 C 197.292969 120.007812 195.824219 120.355469 194.398438 121.019531 C 194.042969 121.171875 193.683594 121.386719 193.355469 121.582031 L 192.4375 122.207031 C 191.855469 122.667969 191.277344 123.136719 190.769531 123.683594 C 188.730469 125.808594 187.363281 128.703125 187.628906 131.5625 C 189.105469 129.1875 190.859375 127.40625 192.8125 125.988281 C 193.300781 125.632812 193.804688 125.308594 194.320312 125 L 195.101562 124.554688 C 195.359375 124.425781 195.582031 124.304688 195.84375 124.195312 C 196.863281 123.757812 198.023438 123.453125 199.234375 123.261719 C 201.664062 122.859375 204.257812 122.785156 206.878906 122.769531 L 214.921875 122.851562 C 212.464844 121.59375 209.832031 120.769531 207.128906 120.222656 Z M 207.128906 120.222656 " fill-opacity="1" fill-rule="nonzero"/></svg>