<svg xmlns="http://www.w3.org/2000/svg" xmlns:xlink="http://www.w3.org/1999/xlink" width="500" zoomAndPan="magnify" viewBox="0 0 375 374.999991" height="500" preserveAspectRatio="xMidYMid meet" version="1.0"><defs><clipPath id="c8056fd92f"><path d="M 17.449219 68 L 358.699219 68 L 358.699219 295.085938 L 17.449219 295.085938 Z M 17.449219 68 " clip-rule="nonzero"/></clipPath></defs><rect x="-37.5" width="450" fill="#ffffff" y="-37.499999" height="449.999989" fill-opacity="1"/><rect x="-37.5" width="450" fill="#ffffff" y="-37.499999" height="449.999989" fill-opacity="1"/><g clip-path="url(#c8056fd92f)"><path fill="#7c4929" d="M 135.027344 219.605469 C 134.511719 218.203125 135.226562 216.648438 136.625 216.128906 L 148.972656 211.5625 C 150.371094 211.042969 151.929688 211.757812 152.449219 213.160156 C 152.964844 214.558594 152.25 216.117188 150.851562 216.632812 L 138.503906 221.203125 C 138.195312 221.316406 137.878906 221.371094 137.566406 221.371094 C 136.464844 221.371094 135.429688 220.695312 135.027344 219.605469 Z M 114.609375 177.265625 C 119.484375 177.265625 123.433594 173.296875 123.433594 168.394531 C 123.433594 163.496094 119.484375 159.523438 114.609375 159.523438 C 109.734375 159.523438 105.78125 163.496094 105.78125 168.394531 C 105.78125 173.296875 109.734375 177.265625 114.609375 177.265625 Z M 136.929688 200.382812 L 148.695312 206.296875 C 149.085938 206.492188 149.5 206.585938 149.910156 206.585938 C 150.898438 206.585938 151.851562 206.039062 152.328125 205.09375 C 153 203.761719 152.460938 202.136719 151.125 201.464844 L 139.359375 195.550781 C 138.023438 194.878906 136.398438 195.417969 135.726562 196.75 C 135.054688 198.085938 135.59375 199.710938 136.929688 200.382812 Z M 264.644531 218.917969 L 252.878906 218.917969 C 251.382812 218.917969 250.171875 220.128906 250.171875 221.625 C 250.171875 223.117188 251.382812 224.328125 252.878906 224.328125 L 264.644531 224.328125 C 266.140625 224.328125 267.351562 223.117188 267.351562 221.625 C 267.351562 220.128906 266.140625 218.917969 264.644531 218.917969 Z M 317.597656 218.917969 L 305.832031 218.917969 C 304.339844 218.917969 303.128906 220.128906 303.128906 221.625 C 303.128906 223.117188 304.339844 224.328125 305.832031 224.328125 L 317.597656 224.328125 C 319.09375 224.328125 320.304688 223.117188 320.304688 221.625 C 320.304688 220.128906 319.09375 218.917969 317.597656 218.917969 Z M 316.914062 237.191406 L 307.441406 230.175781 C 306.242188 229.285156 304.546875 229.535156 303.660156 230.738281 C 302.769531 231.9375 303.023438 233.632812 304.222656 234.519531 L 313.695312 241.539062 C 314.179688 241.898438 314.742188 242.070312 315.300781 242.070312 C 316.128906 242.070312 316.949219 241.691406 317.476562 240.976562 C 318.367188 239.777344 318.113281 238.082031 316.914062 237.191406 Z M 358.550781 260.066406 C 358.550781 261.558594 357.335938 262.769531 355.84375 262.769531 L 339.378906 262.769531 C 340.355469 265.574219 340.898438 268.660156 340.898438 271.894531 C 340.898438 284.796875 332.292969 295.296875 321.71875 295.296875 C 311.144531 295.296875 302.539062 284.796875 302.539062 271.894531 C 302.539062 267.378906 303.59375 263.164062 305.417969 259.582031 C 299.214844 261.476562 292.390625 262.492188 285.238281 262.492188 C 278.085938 262.492188 271.261719 261.476562 265.0625 259.582031 C 266.882812 263.164062 267.9375 267.378906 267.9375 271.890625 C 267.9375 284.796875 259.335938 295.296875 248.757812 295.296875 C 238.183594 295.296875 229.582031 284.796875 229.582031 271.890625 C 229.582031 268.65625 230.121094 265.574219 231.097656 262.769531 L 202.625 262.769531 C 202.625 262.851562 202.628906 262.9375 202.628906 263.023438 C 202.628906 276.300781 195.496094 288.019531 186.15625 292.96875 C 183.136719 294.464844 179.839844 295.296875 176.390625 295.296875 C 172.9375 295.296875 169.640625 294.464844 166.621094 292.96875 C 157.28125 288.019531 150.148438 276.300781 150.148438 263.023438 C 150.148438 262.9375 150.15625 262.855469 150.15625 262.769531 L 90.832031 262.769531 C 90.832031 262.851562 90.835938 262.9375 90.835938 263.023438 C 90.835938 276.300781 84.28125 287.726562 74.945312 292.675781 C 71.921875 294.171875 68.046875 295.296875 64.597656 295.296875 C 61.144531 295.296875 57.273438 294.175781 54.25 292.675781 C 44.910156 287.730469 38.355469 276.300781 38.355469 263.023438 C 38.355469 262.9375 38.363281 262.855469 38.363281 262.769531 L 20.46875 262.769531 C 18.972656 262.769531 17.761719 261.558594 17.761719 260.0625 C 17.761719 258.570312 18.972656 257.359375 20.46875 257.359375 L 38.769531 257.359375 C 40.808594 243.25 50.320312 232.28125 62.078125 230.898438 C 62.605469 224.605469 63.546875 218.316406 64.894531 212.171875 C 65.984375 207.210938 67.351562 202.300781 68.96875 197.46875 C 66.96875 198.765625 64.804688 199.808594 62.464844 200.546875 C 61.140625 200.964844 58.476562 201.800781 55.304688 201.800781 C 53.261719 201.800781 51.007812 201.453125 48.761719 200.425781 C 34.941406 194.09375 31.316406 166.996094 32.410156 145.714844 C 33.6875 120.808594 41.886719 89.445312 60.785156 83.035156 C 68.105469 80.554688 80.914062 81.09375 100.605469 97.441406 L 136.382812 89.144531 C 144.410156 75.3125 152.90625 68.238281 161.640625 68.109375 C 177.039062 67.855469 191.53125 88.84375 199.242188 106.871094 C 206.707031 124.304688 211.867188 148.277344 201.851562 158.460938 C 198.21875 162.160156 192.6875 163.859375 185.386719 163.527344 C 185.753906 169.710938 185.492188 175.246094 185.054688 179.613281 C 189.242188 186.777344 203.910156 214.128906 193.304688 229.097656 C 191.949219 231.011719 190.191406 232.683594 188.101562 234.113281 C 195.511719 238.640625 200.773438 247.265625 202.222656 257.359375 L 233.742188 257.359375 C 236.617188 252.945312 240.761719 249.828125 245.5 248.832031 C 242.851562 246.414062 240.59375 243.714844 238.800781 240.769531 C 228.957031 224.601562 234.460938 204.765625 237.988281 195.546875 C 223.734375 178.859375 220.9375 160.738281 227.492188 154.59375 C 234.375 148.140625 251.355469 153.125 265.675781 165.691406 L 304.804688 165.691406 C 319.121094 153.125 336.101562 148.140625 342.984375 154.59375 C 349.542969 160.738281 346.742188 178.859375 332.492188 195.546875 C 336.019531 204.765625 341.523438 224.597656 331.679688 240.769531 C 329.886719 243.714844 327.628906 246.414062 324.976562 248.832031 C 329.714844 249.824219 333.863281 252.945312 336.738281 257.359375 L 355.84375 257.359375 C 357.335938 257.359375 358.550781 258.570312 358.550781 260.066406 Z M 85.425781 263.023438 C 85.425781 248.207031 76.082031 236.15625 64.59375 236.15625 C 53.109375 236.15625 43.765625 248.207031 43.765625 263.023438 C 43.765625 272.339844 47.464844 280.5625 53.066406 285.382812 L 53.066406 265.980469 C 53.066406 264.484375 54.277344 263.273438 55.769531 263.273438 C 57.265625 263.273438 58.476562 264.484375 58.476562 265.980469 L 58.476562 288.703125 C 60.410156 289.472656 62.464844 289.886719 64.59375 289.886719 C 66.726562 289.886719 68.78125 289.472656 70.71875 288.703125 L 70.71875 265.980469 C 70.71875 264.484375 71.929688 263.273438 73.421875 263.273438 C 74.914062 263.273438 76.125 264.484375 76.125 265.980469 L 76.125 285.382812 C 81.726562 280.5625 85.425781 272.339844 85.425781 263.023438 Z M 150.566406 257.359375 C 151.566406 250.449219 154.371094 244.140625 158.519531 239.386719 C 143 237.753906 124.066406 231.066406 104.289062 217.964844 C 103.042969 217.140625 102.703125 215.460938 103.527344 214.214844 C 104.355469 212.972656 106.03125 212.628906 107.277344 213.453125 C 124.859375 225.101562 143.425781 232.402344 159.558594 234.007812 C 173.386719 235.382812 184.351562 232.378906 188.890625 225.976562 C 189.101562 225.679688 189.28125 225.367188 189.464844 225.054688 C 187.476562 226.605469 184.984375 227.539062 182.273438 227.539062 C 175.773438 227.539062 170.503906 222.242188 170.503906 215.710938 C 170.503906 209.175781 175.773438 203.882812 182.273438 203.882812 C 185.609375 203.882812 188.617188 205.285156 190.757812 207.527344 C 188.160156 195.648438 181.152344 183.621094 179.953125 181.617188 C 179.648438 181.109375 179.519531 180.519531 179.582031 179.929688 C 180.976562 167.183594 180.996094 142.800781 165.425781 122.742188 C 162.175781 118.554688 158.371094 114.730469 154.121094 111.378906 C 152.949219 110.457031 152.746094 108.753906 153.671875 107.582031 C 154.597656 106.410156 156.296875 106.207031 157.46875 107.132812 C 162.0625 110.753906 166.179688 114.890625 169.699219 119.425781 C 179.398438 131.921875 183.476562 145.898438 184.90625 158.082031 C 190.96875 158.480469 195.371094 157.339844 197.996094 154.671875 C 204.484375 148.070312 202.953125 129.289062 194.269531 109 C 185.308594 88.066406 172.015625 73.519531 161.875 73.519531 C 161.824219 73.519531 161.773438 73.519531 161.71875 73.519531 C 154.828125 73.621094 147.6875 80.125 140.5 92.84375 C 140.125 93.503906 139.492188 93.976562 138.753906 94.148438 L 100.511719 103.019531 C 99.675781 103.214844 98.800781 103 98.148438 102.449219 C 83.621094 90.121094 71.300781 85.183594 62.523438 88.160156 C 47.320312 93.316406 39.054688 121.753906 37.8125 145.992188 C 36.527344 170.996094 41.957031 191.359375 51.011719 195.507812 C 54.855469 197.269531 59.050781 195.949219 60.84375 195.386719 C 86.816406 187.214844 88.355469 130.46875 88.367188 129.894531 C 88.402344 128.421875 89.605469 127.25 91.070312 127.25 C 91.089844 127.25 91.113281 127.25 91.132812 127.25 C 92.625 127.28125 93.808594 128.519531 93.777344 130.011719 C 93.734375 131.960938 92.738281 168.132812 78.222656 188.363281 C 74.757812 196.402344 72.050781 204.800781 70.179688 213.332031 C 68.910156 219.113281 68.011719 225.027344 67.5 230.949219 C 79.078125 232.527344 88.40625 243.40625 90.421875 257.359375 Z M 197.21875 263.023438 C 197.21875 250.929688 191.042969 240.464844 182.09375 237.183594 C 177.5625 238.871094 172.125 239.78125 165.972656 239.789062 C 159.53125 244.609375 155.558594 253.410156 155.558594 263.023438 C 155.558594 272.339844 159.257812 280.5625 164.859375 285.382812 L 164.859375 265.980469 C 164.859375 264.484375 166.070312 263.273438 167.5625 263.273438 C 169.054688 263.273438 170.265625 264.484375 170.265625 265.980469 L 170.265625 288.703125 C 172.203125 289.472656 174.257812 289.886719 176.390625 289.886719 C 178.519531 289.886719 180.574219 289.472656 182.511719 288.703125 L 182.511719 265.980469 C 182.511719 264.484375 183.722656 263.273438 185.214844 263.273438 C 186.707031 263.273438 187.917969 264.484375 187.917969 265.980469 L 187.917969 285.382812 C 193.519531 280.5625 197.21875 272.339844 197.21875 263.023438 Z M 262.527344 271.894531 C 262.527344 261.972656 256.351562 253.898438 248.757812 253.898438 C 241.167969 253.898438 234.988281 261.96875 234.988281 271.894531 C 234.988281 280.605469 239.753906 287.890625 246.054688 289.539062 L 246.054688 273.964844 C 246.054688 272.46875 247.265625 271.257812 248.757812 271.257812 C 250.253906 271.257812 251.464844 272.46875 251.464844 273.964844 L 251.464844 289.539062 C 257.765625 287.890625 262.527344 280.605469 262.527344 271.894531 Z M 327.058594 237.960938 C 336.476562 222.488281 329.292969 201.957031 326.863281 196.035156 C 326.472656 195.078125 326.660156 193.980469 327.351562 193.207031 C 341.773438 177.0625 342.800781 161.835938 339.285156 158.542969 C 335.582031 155.070312 321.414062 157.964844 307.644531 170.402344 C 307.148438 170.851562 306.503906 171.101562 305.832031 171.101562 L 296.769531 171.101562 L 296.769531 186.140625 C 296.769531 187.632812 295.558594 188.84375 294.066406 188.84375 C 292.570312 188.84375 291.359375 187.632812 291.359375 186.140625 L 291.359375 171.101562 L 279.117188 171.101562 L 279.117188 186.140625 C 279.117188 187.632812 277.90625 188.84375 276.414062 188.84375 C 274.917969 188.84375 273.707031 187.632812 273.707031 186.140625 L 273.707031 171.101562 L 264.644531 171.101562 C 263.976562 171.101562 263.332031 170.851562 262.832031 170.402344 C 249.0625 157.964844 234.898438 155.070312 231.191406 158.542969 C 227.675781 161.835938 228.703125 177.0625 243.128906 193.207031 C 243.816406 193.980469 244.003906 195.078125 243.613281 196.035156 C 241.1875 201.957031 234.003906 222.492188 243.421875 237.960938 C 250.601562 249.753906 266.625 257.082031 285.238281 257.082031 C 303.851562 257.082031 319.875 249.753906 327.058594 237.960938 Z M 335.488281 271.894531 C 335.488281 261.972656 329.3125 253.898438 321.71875 253.898438 C 314.125 253.898438 307.949219 261.96875 307.949219 271.894531 C 307.949219 280.605469 312.710938 287.890625 319.015625 289.539062 L 319.015625 273.964844 C 319.015625 272.46875 320.226562 271.257812 321.71875 271.257812 C 323.210938 271.257812 324.421875 272.46875 324.421875 273.964844 L 324.421875 289.539062 C 330.726562 287.890625 335.488281 280.605469 335.488281 271.894531 Z M 311.714844 206.839844 C 311.714844 203.570312 309.082031 200.921875 305.832031 200.921875 C 302.582031 200.921875 299.949219 203.570312 299.949219 206.839844 C 299.949219 210.105469 302.582031 212.753906 305.832031 212.753906 C 309.082031 212.75 311.714844 210.105469 311.714844 206.839844 Z M 264.644531 200.921875 C 261.394531 200.921875 258.761719 203.570312 258.761719 206.839844 C 258.761719 210.105469 261.394531 212.753906 264.644531 212.753906 C 267.894531 212.753906 270.53125 210.105469 270.53125 206.839844 C 270.53125 203.570312 267.894531 200.921875 264.644531 200.921875 Z M 263.035156 230.175781 L 253.5625 237.191406 C 252.363281 238.082031 252.109375 239.773438 253 240.976562 C 253.53125 241.691406 254.347656 242.070312 255.175781 242.070312 C 255.734375 242.070312 256.296875 241.898438 256.78125 241.539062 L 266.253906 234.519531 C 267.457031 233.632812 267.707031 231.9375 266.820312 230.738281 C 265.929688 229.535156 264.234375 229.285156 263.035156 230.175781 Z M 291.070312 221.625 L 279.40625 221.625 C 275.878906 221.625 273.953125 225.753906 276.210938 228.476562 C 278.15625 230.824219 280.101562 233.167969 282.042969 235.511719 C 283.707031 237.519531 286.769531 237.519531 288.433594 235.511719 C 290.375 233.167969 292.320312 230.824219 294.265625 228.476562 C 296.523438 225.753906 294.597656 221.625 291.070312 221.625 Z M 291.070312 221.625 " fill-opacity="1" fill-rule="nonzero"/></g></svg>