<svg xmlns="http://www.w3.org/2000/svg" xmlns:xlink="http://www.w3.org/1999/xlink" width="500" zoomAndPan="magnify" viewBox="0 0 375 374.999991" height="500" preserveAspectRatio="xMidYMid meet" version="1.0"><defs><clipPath id="514a66eb8d"><path d="M 72.097656 61.949219 L 328 61.949219 L 328 323.320312 L 72.097656 323.320312 Z M 72.097656 61.949219 " clip-rule="nonzero"/></clipPath><clipPath id="a09c24dddd"><path d="M 123.386719 106 L 328 106 L 328 323.320312 L 123.386719 323.320312 Z M 123.386719 106 " clip-rule="nonzero"/></clipPath><clipPath id="5ff1662a16"><path d="M 72 61.570312 L 163 61.570312 L 163 323.320312 L 72 323.320312 Z M 72 61.570312 " clip-rule="nonzero"/></clipPath><clipPath id="3b5899e24c"><path d="M 58 86 L 295 86 L 295 323.320312 L 58 323.320312 Z M 58 86 " clip-rule="nonzero"/></clipPath></defs><g clip-path="url(#514a66eb8d)"><path fill="#808080" d="M 318.371094 169.539062 C 313.53125 161.417969 307.472656 153.914062 304.171875 145.058594 C 300.863281 136.203125 300.945312 125.203125 307.5 118.390625 C 310.148438 115.644531 314.050781 112.457031 312.566406 108.9375 C 311.363281 106.09375 307.40625 105.746094 304.433594 106.59375 C 294.003906 109.582031 288.023438 121.289062 288.242188 132.136719 C 288.472656 142.976562 293.523438 153.082031 298.839844 162.53125 C 304.164062 171.984375 309.96875 181.46875 311.953125 192.132812 C 313.21875 198.914062 312.679688 206.484375 308.367188 211.867188 C 308.34375 211.894531 308.320312 211.925781 308.296875 211.949219 C 304.832031 216.191406 298.519531 216.683594 294.28125 213.210938 C 277.167969 199.195312 262.632812 181.890625 245.515625 167.722656 C 224.277344 150.160156 195.472656 137.214844 169.453125 146.296875 C 166.09375 147.464844 162.617188 149.015625 159.113281 148.359375 C 153.742188 147.347656 150.644531 141.382812 150.699219 135.875 C 150.703125 135.621094 150.710938 135.367188 150.726562 135.109375 C 151.089844 129.402344 153.945312 124.203125 156.15625 118.933594 C 162.597656 103.632812 163.855469 86.222656 159.804688 70.132812 C 159.335938 68.253906 157.390625 67.1875 155.554688 67.78125 C 148.152344 70.1875 141.441406 74.808594 136.65625 80.9375 C 132.246094 78.058594 127.332031 75.953125 122.199219 74.796875 C 115.4375 73.269531 108.324219 73.386719 101.605469 75.074219 C 100.089844 72.46875 97.964844 70.109375 95.847656 67.953125 C 94.316406 66.382812 92.722656 64.792969 91.289062 63.101562 C 90.09375 61.6875 87.964844 61.5625 86.585938 62.800781 C 79.984375 68.695312 76.023438 77.558594 76.199219 86.410156 C 71.40625 97.132812 71.191406 109.949219 76.136719 120.644531 C 78.25 125.226562 81.199219 129.402344 83.054688 134.09375 C 87.003906 144.140625 85.519531 155.363281 85.03125 166.144531 C 84.492188 177.988281 85.378906 190.394531 91.382812 200.609375 C 96.023438 208.511719 103.316406 214.425781 110.445312 220.171875 C 112.550781 221.867188 114.660156 223.5625 116.765625 225.253906 C 128.238281 241.757812 137.15625 260.03125 143.078125 279.242188 C 144.578125 284.121094 145.90625 289.167969 145.601562 294.265625 C 145.304688 299.359375 143.128906 304.578125 138.898438 307.4375 C 135.5625 309.691406 130.554688 311.265625 130.476562 315.292969 C 130.433594 317.761719 132.511719 319.75 134.660156 320.972656 C 136.375 321.949219 138.199219 322.625 140.078125 323.035156 C 147.625 324.675781 156.117188 322.019531 162.304688 317.097656 C 170.03125 310.941406 174.859375 301.914062 178.992188 292.941406 C 183.761719 282.589844 187.886719 271.964844 191.742188 261.234375 C 192.171875 260.03125 193.726562 259.753906 194.5625 260.714844 C 200.535156 267.527344 208.214844 272.859375 216.796875 275.785156 C 221.921875 277.53125 227.976562 279 230.300781 283.890625 C 233.339844 290.277344 227.636719 297.449219 221.597656 301.148438 C 218.824219 302.847656 215.851562 304.285156 212.683594 305.035156 C 208.179688 306.097656 203.445312 305.738281 198.902344 306.625 C 194.355469 307.511719 189.640625 310.179688 188.5 314.664062 C 188.15625 316.015625 188.179688 317.488281 188.78125 318.746094 C 190.535156 322.382812 195.636719 322.308594 199.652344 321.878906 C 210.359375 320.726562 221.210938 320.945312 231.867188 322.527344 C 234.484375 322.914062 237.144531 323.386719 239.765625 322.984375 C 247.160156 321.84375 251.597656 314.484375 256.683594 308.984375 C 260.835938 304.496094 265.972656 300.925781 271.628906 298.601562 C 274.601562 297.378906 277.910156 296.359375 279.847656 293.789062 C 282.75 289.921875 281.277344 284.386719 279.121094 280.054688 C 276.96875 275.722656 274.164062 271.257812 274.773438 266.460938 C 275.625 259.761719 282.476562 255.859375 286.992188 250.84375 C 289.910156 247.613281 291.863281 243.597656 292.796875 239.355469 C 293.472656 236.296875 296.152344 234.117188 299.285156 234.097656 C 304.414062 234.070312 309.605469 232.550781 313.847656 229.667969 C 323.023438 223.433594 327.863281 212.046875 327.996094 200.953125 C 328.125 189.863281 324.046875 179.070312 318.371094 169.539062 " fill-opacity="1" fill-rule="nonzero"/></g><g clip-path="url(#a09c24dddd)"><path fill="#808080" d="M 318.371094 169.539062 C 324.046875 179.070312 328.125 189.863281 327.996094 200.953125 C 327.863281 212.046875 323.023438 223.433594 313.847656 229.667969 C 309.605469 232.550781 304.414062 234.070312 299.285156 234.097656 C 296.152344 234.117188 293.472656 236.296875 292.796875 239.355469 C 291.863281 243.597656 289.910156 247.613281 286.992188 250.84375 C 282.476562 255.859375 275.625 259.761719 274.773438 266.460938 C 274.164062 271.257812 276.96875 275.722656 279.121094 280.054688 C 281.277344 284.386719 282.75 289.921875 279.847656 293.789062 C 277.910156 296.359375 274.601562 297.378906 271.628906 298.601562 C 265.972656 300.925781 260.835938 304.496094 256.683594 308.984375 C 251.597656 314.484375 247.160156 321.84375 239.765625 322.984375 C 237.144531 323.386719 234.484375 322.914062 231.867188 322.527344 C 221.210938 320.945312 210.359375 320.726562 199.652344 321.878906 C 195.636719 322.308594 190.535156 322.382812 188.78125 318.746094 C 188.179688 317.488281 188.15625 316.015625 188.5 314.664062 C 189.640625 310.179688 194.355469 307.511719 198.902344 306.625 C 203.445312 305.738281 208.179688 306.097656 212.683594 305.035156 C 215.851562 304.285156 218.824219 302.847656 221.597656 301.148438 C 227.636719 297.449219 233.339844 290.277344 230.300781 283.890625 C 227.976562 279 221.921875 277.53125 216.796875 275.785156 C 208.214844 272.859375 200.535156 267.527344 194.5625 260.714844 C 193.726562 259.753906 192.171875 260.03125 191.742188 261.234375 C 187.886719 271.964844 183.761719 282.589844 178.992188 292.941406 C 174.859375 301.914062 170.03125 310.941406 162.304688 317.097656 C 156.117188 322.019531 147.625 324.675781 140.078125 323.035156 C 140.289062 320.054688 141.265625 317.132812 143.003906 314.695312 C 145.390625 311.339844 149 308.945312 151.113281 305.40625 C 152.75 302.675781 153.375 299.457031 153.808594 296.304688 C 155.835938 281.421875 154.210938 266.0625 149.121094 251.9375 C 149.011719 251.621094 148.894531 251.3125 148.769531 250.996094 C 145.773438 242.925781 141.761719 235.164062 140.136719 226.710938 C 138.566406 218.554688 139.207031 209.78125 135.492188 202.347656 C 133.136719 197.648438 129.214844 193.894531 126.742188 189.261719 C 121.324219 179.101562 123.820312 166.183594 130.046875 156.496094 C 135.328125 148.269531 142.902344 141.875 150.699219 135.875 C 150.644531 141.382812 153.742188 147.347656 159.113281 148.359375 C 162.617188 149.015625 166.09375 147.464844 169.453125 146.296875 C 195.472656 137.214844 224.277344 150.160156 245.515625 167.722656 C 262.632812 181.890625 277.167969 199.195312 294.28125 213.210938 C 298.519531 216.683594 304.832031 216.191406 308.296875 211.949219 C 308.320312 211.925781 308.34375 211.894531 308.367188 211.867188 C 312.679688 206.484375 313.21875 198.914062 311.953125 192.132812 C 309.96875 181.46875 304.164062 171.984375 298.839844 162.53125 C 293.523438 153.082031 288.472656 142.976562 288.242188 132.136719 C 288.023438 121.289062 294.003906 109.582031 304.433594 106.59375 C 307.40625 105.746094 311.367188 106.09375 312.566406 108.9375 C 314.050781 112.457031 310.148438 115.644531 307.5 118.390625 C 300.945312 125.203125 300.863281 136.203125 304.171875 145.058594 C 307.472656 153.914062 313.53125 161.417969 318.371094 169.539062 " fill-opacity="1" fill-rule="nonzero"/></g><g clip-path="url(#5ff1662a16)"><path fill="#808080" d="M 159.804688 70.132812 C 163.855469 86.222656 162.597656 103.632812 156.15625 118.933594 C 153.945312 124.203125 151.089844 129.402344 150.726562 135.109375 C 150.710938 135.367188 150.703125 135.621094 150.699219 135.875 C 142.902344 141.875 135.328125 148.269531 130.046875 156.496094 C 123.820312 166.183594 121.324219 179.101562 126.742188 189.261719 C 129.214844 193.894531 133.136719 197.648438 135.492188 202.347656 C 139.207031 209.78125 138.566406 218.554688 140.136719 226.710938 C 141.761719 235.164062 145.773438 242.925781 148.769531 250.996094 C 148.894531 251.3125 149.011719 251.621094 149.121094 251.9375 C 154.210938 266.0625 155.835938 281.421875 153.808594 296.304688 C 153.375 299.457031 152.75 302.675781 151.113281 305.40625 C 149 308.945312 145.390625 311.339844 143.003906 314.695312 C 141.265625 317.132812 140.289062 320.054688 140.078125 323.035156 C 138.199219 322.625 136.375 321.949219 134.660156 320.972656 C 132.511719 319.75 130.433594 317.761719 130.476562 315.292969 C 130.554688 311.265625 135.5625 309.691406 138.898438 307.4375 C 143.128906 304.578125 145.304688 299.359375 145.601562 294.265625 C 145.90625 289.167969 144.578125 284.121094 143.078125 279.242188 C 137.15625 260.03125 128.238281 241.757812 116.765625 225.253906 C 114.660156 223.5625 112.550781 221.867188 110.445312 220.171875 C 103.316406 214.425781 96.023438 208.511719 91.382812 200.609375 C 85.378906 190.394531 84.492188 177.988281 85.03125 166.144531 C 85.519531 155.363281 87.003906 144.140625 83.054688 134.09375 C 81.199219 129.402344 78.25 125.226562 76.136719 120.644531 C 71.191406 109.949219 71.40625 97.132812 76.199219 86.410156 C 76.023438 77.558594 79.984375 68.695312 86.585938 62.800781 C 87.964844 61.5625 90.09375 61.6875 91.289062 63.101562 C 92.722656 64.792969 94.316406 66.382812 95.847656 67.953125 C 97.964844 70.109375 100.089844 72.46875 101.605469 75.074219 C 108.324219 73.386719 115.4375 73.269531 122.199219 74.796875 C 127.332031 75.953125 132.246094 78.058594 136.65625 80.9375 C 141.441406 74.808594 148.152344 70.1875 155.554688 67.78125 C 157.390625 67.1875 159.335938 68.253906 159.804688 70.132812 " fill-opacity="1" fill-rule="nonzero"/></g><path fill="#f49274" d="M 90.59375 68.15625 C 90.261719 67.777344 89.859375 67.359375 89.347656 67.375 C 88.863281 67.390625 88.496094 67.78125 88.183594 68.15625 C 84.84375 72.210938 82.46875 77.058594 81.25 82.171875 C 80.933594 83.503906 82.382812 84.527344 83.53125 83.785156 C 87.351562 81.324219 91.617188 79.546875 96.050781 78.582031 C 97.117188 78.347656 97.601562 77.121094 96.964844 76.234375 C 94.964844 73.445312 92.835938 70.753906 90.59375 68.15625 Z M 155.726562 75.171875 C 157.316406 78.980469 156.203125 83.371094 154.605469 87.175781 C 153.785156 89.113281 152.839844 91.03125 152.050781 92.988281 C 151.605469 94.09375 150.109375 94.25 149.4375 93.265625 C 147.46875 90.378906 145.132812 87.734375 142.503906 85.425781 C 141.839844 84.84375 141.824219 83.808594 142.480469 83.207031 C 145.613281 80.324219 148.800781 77.5 152.039062 74.734375 C 152.769531 74.113281 153.726562 73.445312 154.621094 73.820312 C 155.167969 74.050781 155.492188 74.621094 155.726562 75.171875 " fill-opacity="1" fill-rule="nonzero"/><path fill="#f49274" d="M 109.628906 101.304688 C 110.671875 103.835938 112.320312 106.074219 114.558594 107.414062 C 110.871094 109.648438 106.6875 109.980469 103.199219 106.859375 C 105.828125 105.933594 108.046875 103.828125 109.628906 101.304688 " fill-opacity="1" fill-rule="nonzero"/><g clip-path="url(#3b5899e24c)"><path fill="#3e393a" d="M 150.238281 317.777344 C 149.902344 316.234375 150.269531 314.890625 150.566406 313.386719 C 150.65625 312.917969 149.925781 312.730469 149.65625 313.050781 C 147.425781 315.710938 148.195312 320.613281 151.011719 322.542969 C 151.488281 322.867188 152.816406 322.378906 152.335938 321.699219 C 151.460938 320.460938 150.566406 319.289062 150.238281 317.777344 Z M 197.140625 311.714844 C 193.925781 313.722656 193.097656 319.597656 196.070312 322.171875 C 196.582031 322.621094 197.820312 322.324219 197.492188 321.480469 C 196.859375 319.867188 196.15625 318.492188 196.203125 316.703125 C 196.25 314.964844 196.9375 313.539062 197.648438 311.992188 C 197.773438 311.722656 197.308594 311.609375 197.140625 311.714844 Z M 230.753906 312.4375 C 227.511719 313.863281 225.015625 318.699219 227.980469 321.632812 C 228.273438 321.921875 229.167969 321.855469 229.070312 321.289062 C 228.828125 319.867188 228.316406 318.570312 228.570312 317.101562 C 228.859375 315.429688 229.878906 313.996094 231.277344 313.050781 C 231.808594 312.695312 231.207031 312.234375 230.753906 312.4375 Z M 109.628906 101.304688 C 108.046875 103.828125 105.828125 105.933594 103.199219 106.859375 C 106.6875 109.980469 110.871094 109.648438 114.558594 107.414062 C 112.320312 106.074219 110.671875 103.835938 109.628906 101.304688 Z M 108.492188 97.226562 C 108.464844 97.046875 108.445312 96.875 108.425781 96.699219 L 104.71875 94.59375 C 102.613281 93.394531 103.703125 90.167969 106.105469 90.496094 L 115.378906 91.761719 C 117.777344 92.089844 117.964844 95.492188 115.613281 96.082031 L 111.5625 97.09375 C 111.558594 97.109375 111.554688 97.125 111.550781 97.140625 C 112.253906 99.394531 112.90625 101.671875 114.339844 103.605469 C 117.011719 107.230469 121.550781 108.175781 125.105469 105.265625 C 125.300781 105.105469 125.945312 105.148438 125.792969 105.535156 C 124.382812 109.167969 119.613281 109.378906 116.285156 108.222656 C 112.5625 112.644531 105.402344 111.75 101.8125 107.457031 C 101.753906 107.386719 101.714844 107.316406 101.695312 107.25 C 98.265625 107.855469 93.78125 106.929688 93.035156 103.144531 C 92.957031 102.761719 93.589844 102.746094 93.765625 102.9375 C 96.550781 105.902344 100.683594 106.476562 104 103.824219 C 106.15625 102.089844 107.3125 99.652344 108.492188 97.226562 Z M 94.453125 97.472656 C 83.414062 98.546875 73.5 105.039062 68.3125 114.875 C 67.957031 115.546875 69.117188 115.8125 69.445312 115.277344 C 74.941406 106.3125 84.117188 100.007812 94.523438 98.3125 C 95.160156 98.207031 95.121094 97.410156 94.453125 97.472656 Z M 95.527344 95.597656 C 95.996094 95.605469 96.210938 94.96875 95.726562 94.792969 C 89.628906 92.609375 81.871094 93.542969 75.71875 95.050781 C 69.324219 96.617188 63.371094 99.398438 58.269531 103.570312 C 57.582031 104.132812 58.753906 104.820312 59.324219 104.425781 C 64.519531 100.824219 70.207031 97.964844 76.375 96.464844 C 82.851562 94.886719 88.972656 95.480469 95.527344 95.597656 Z M 126.15625 101.304688 C 134.808594 105.183594 140.546875 111.128906 145.496094 119.089844 C 145.894531 119.734375 147.226562 119.421875 146.925781 118.589844 C 143.804688 109.960938 135.3125 103.039062 126.632812 100.523438 C 126.089844 100.367188 125.496094 101.011719 126.15625 101.304688 Z M 126.878906 98.289062 C 133.902344 97.859375 140.839844 98.542969 147.527344 100.8125 C 154.371094 103.136719 159.910156 107.097656 165.515625 111.535156 C 166.039062 111.953125 167.152344 111.292969 166.609375 110.667969 C 157.390625 100.066406 140.402344 95.320312 126.835938 97.601562 C 126.316406 97.691406 126.328125 98.324219 126.878906 98.289062 Z M 87.121094 88.675781 C 89.28125 88.894531 91.210938 88.605469 93.300781 89.476562 C 95.324219 90.320312 97.027344 91.640625 98.222656 93.480469 C 98.441406 93.820312 99.183594 93.574219 99.023438 93.144531 C 97.433594 88.835938 91.308594 84.585938 86.789062 87.539062 C 86.21875 87.910156 86.5 88.609375 87.121094 88.675781 Z M 127.648438 95.128906 C 131.1875 90.6875 135.800781 90.46875 140.832031 92.117188 C 141.304688 92.269531 142.378906 91.695312 141.761719 91.171875 C 136.988281 87.109375 129.535156 89.644531 126.769531 94.796875 C 126.476562 95.339844 127.359375 95.492188 127.648438 95.128906 Z M 214.714844 210.382812 C 201.132812 218.613281 193.300781 234.621094 196.367188 250.351562 C 198.121094 259.335938 203.101562 268.425781 210.921875 273.433594 C 211.671875 273.914062 213.195312 272.996094 212.371094 272.171875 C 206.988281 266.789062 202.414062 261.003906 200.132812 253.628906 C 197.953125 246.582031 197.871094 238.953125 200.191406 231.929688 C 204.945312 217.527344 218.382812 207.164062 233.546875 206.449219 C 242.75 206.019531 251.769531 208.617188 259.484375 213.59375 C 259.640625 213.695312 259.929688 213.535156 259.742188 213.375 C 247.359375 202.644531 228.507812 202.03125 214.714844 210.382812 Z M 190.972656 180.140625 C 189.828125 171.332031 183.832031 163.175781 176.898438 157.90625 C 173.609375 155.410156 170.03125 153.589844 166.191406 152.105469 C 161.542969 150.304688 156.710938 148.71875 153.113281 145.101562 C 152.992188 144.976562 152.652344 145.074219 152.792969 145.261719 C 157.933594 152.082031 167.519531 153.425781 174.117188 158.464844 C 181.617188 164.203125 185.859375 171.960938 189.164062 180.613281 C 189.476562 181.429688 191.089844 181.015625 190.972656 180.140625 Z M 130.519531 131.386719 C 131.382812 130.5625 129.835938 129.875 129.128906 130.332031 C 123.804688 133.78125 117.792969 135.804688 111.402344 134.988281 C 104.828125 134.152344 99.089844 130.421875 93.605469 126.960938 C 93.117188 126.652344 92.292969 127.21875 92.863281 127.667969 C 98.714844 132.277344 104.9375 136.808594 112.613281 137.371094 C 119.078125 137.84375 125.78125 135.886719 130.519531 131.386719 Z M 144.269531 240.296875 C 140.699219 232.417969 136.609375 224.210938 131.027344 217.542969 C 130.847656 217.328125 130.238281 217.457031 130.40625 217.789062 C 133.921875 224.761719 137.984375 231.375 141.109375 238.558594 C 141.867188 240.296875 142.597656 242.054688 143.296875 243.820312 C 142.828125 243.332031 142.363281 242.863281 141.914062 242.410156 C 139.09375 239.585938 135.941406 237.160156 132.6875 234.855469 C 126.195312 230.261719 119.660156 225.835938 113.285156 221.082031 C 113.125 220.960938 112.734375 221.117188 112.914062 221.328125 C 117.738281 227.070312 124.679688 231.160156 130.597656 235.65625 C 133.492188 237.855469 136.332031 240.152344 138.925781 242.703125 C 141.753906 245.492188 143.644531 248.921875 146.238281 251.832031 C 147.296875 254.960938 148.261719 258.113281 149.113281 261.300781 C 151.171875 269 152.648438 276.847656 153.464844 284.773438 C 153.886719 288.847656 154.296875 293.027344 154.164062 297.121094 C 154.011719 301.753906 152.136719 304.796875 148.515625 307.566406 C 144.25 310.828125 137.316406 316.257812 139.855469 322.503906 C 140.339844 323.691406 142.691406 322.808594 142.15625 321.488281 C 140.808594 318.179688 143.90625 314.253906 146.179688 312.136719 C 148.65625 309.828125 151.746094 308.230469 153.90625 305.574219 C 158.289062 300.1875 156.671875 291.582031 156.050781 285.207031 C 154.558594 269.777344 150.675781 254.433594 144.269531 240.296875 Z M 247.28125 283.886719 C 244.851562 282.359375 241.601562 282.492188 238.875 281.960938 C 235.179688 281.242188 231.734375 279.933594 228.140625 278.882812 C 227.691406 278.75 226.9375 279.261719 227.519531 279.652344 C 232.449219 282.953125 238.191406 283.246094 243.742188 284.65625 C 246.785156 285.425781 248.574219 288.171875 247.933594 291.292969 C 247.265625 294.519531 243.929688 296.683594 241.195312 298.03125 C 235.898438 300.628906 230.253906 301.984375 225.828125 306.117188 C 222.203125 309.503906 219.472656 314.027344 218.746094 318.984375 C 218.480469 320.792969 221.582031 320.414062 221.921875 318.878906 C 223.367188 312.351562 227.347656 307.011719 233.359375 303.980469 C 238.667969 301.300781 245.449219 300.011719 248.964844 294.742188 C 251.265625 291.285156 251.058594 286.261719 247.28125 283.886719 Z M 292.460938 226.121094 C 292.125 225.570312 290.992188 225.8125 291.234375 226.527344 C 292.996094 231.695312 292.792969 236.363281 291.074219 241.507812 C 290.820312 242.265625 292.152344 242.300781 292.460938 241.800781 C 295.351562 237.15625 295.277344 230.800781 292.460938 226.121094 Z M 191.214844 234.152344 C 193.320312 243.292969 195.644531 253.40625 192.132812 262.496094 C 191.726562 263.546875 189.253906 263.484375 189.617188 262.191406 C 192.425781 252.078125 190.203125 242.300781 187.949219 232.320312 C 185.933594 223.390625 183.746094 212.800781 188 204.167969 C 188.183594 203.792969 188.957031 203.933594 188.863281 204.390625 C 187.816406 209.570312 187.5625 214.449219 188.242188 219.707031 C 188.875 224.582031 190.113281 229.367188 191.214844 234.152344 " fill-opacity="1" fill-rule="nonzero"/></g></svg>