<!DOCTYPE svg PUBLIC "-//W3C//DTD SVG 1.1//EN" "http://www.w3.org/Graphics/SVG/1.1/DTD/svg11.dtd">
<!-- Uploaded to: SVG Repo, www.svgrepo.com, Transformed by: SVG Repo Mixer Tools -->
<svg height="800px" width="800px" version="1.1" id="Layer_1" xmlns="http://www.w3.org/2000/svg" xmlns:xlink="http://www.w3.org/1999/xlink" viewBox="0 0 502.613 502.613" xml:space="preserve" fill="#000000">
<g id="SVGRepo_bgCarrier" stroke-width="0"/>
<g id="SVGRepo_tracerCarrier" stroke-linecap="round" stroke-linejoin="round"/>
<g id="SVGRepo_iconCarrier"> <g transform="translate(1 1)"> <path style="fill:#ff9d5c;" d="M347.16,48.493c29.867-18.773,69.12-15.36,94.72,10.24c29.867,29.867,29.867,77.653,0,107.52 c-17.92,17.92-59.733,23.893-101.547,53.76l-23.893,23.893l23.893,23.893l23.893-23.893c41.813-29.867,77.653-29.867,101.547-53.76 c42.667-42.667,42.667-112.64,0-155.307s-112.64-42.667-155.307,0c-23.893,23.893-23.893,59.733-53.76,101.547l-23.893,23.893 l23.893,23.893l0,0l23.893,23.893l23.893-23.893c29.867-41.813,35.84-83.627,53.76-101.547c16.213-16.213,43.52-16.213,59.733,0 s16.213,43.52,0,59.733c-17.92,17.92-51.2,20.48-71.68,35.84l-47.787,47.787l17.92,17.92l23.893-23.893 c41.813-29.867,83.627-35.84,101.547-53.76c29.867-29.867,29.867-77.653,0-107.52C416.28,33.133,377.027,29.72,347.16,48.493 L347.16,48.493z M244.76,315.587L244.76,315.587l-23.893-23.893l-23.893,23.893c-29.867,41.813-35.84,83.627-53.76,101.547 c-16.213,16.213-43.52,16.213-59.733,0c-16.213-16.213-16.213-43.52,0-59.733c17.92-17.92,51.2-20.48,71.68-35.84l47.787-47.787 l-17.92-17.92l-23.893,23.893c-41.813,29.867-83.627,35.84-101.547,53.76c-29.867,29.867-29.867,77.653,0,107.52 c23.893,23.893,58.88,28.16,87.04,14.507c-28.16,13.653-64,8.533-87.04-14.507c-29.867-29.867-29.867-77.653,0-107.52 c17.92-17.92,59.733-23.893,101.547-53.76l23.893-23.893l-22.187-22.187l-25.6,22.187c-41.813,29.867-77.653,29.867-101.547,53.76 c-42.667,42.667-42.667,112.64,0,155.307s112.64,42.667,155.307,0c23.893-23.893,23.893-59.733,53.76-101.547l23.893-23.893 L244.76,315.587z"/> <polygon style="fill:#ff9d5c;" points="148.333,220.013 220.867,147.48 353.133,279.747 276.333,348.013 "/> </g> <path style="fill:#000000;" d="M114.347,502.613c-29.013,0-58.88-11.093-81.067-33.28C11.947,448,0,418.987,0,388.267 s11.947-58.88,33.28-81.067c12.8-12.8,28.16-18.773,46.933-25.6c17.067-6.827,35.84-13.653,55.467-28.16 c1.707-1.707,4.267-0.853,5.973,0.853c1.707,1.707,0.853,4.267-0.853,5.973c-21.333,15.36-40.107,22.187-57.173,29.013 s-32.427,12.8-43.52,23.893c-19.627,19.627-30.72,46.08-30.72,75.093c0,29.013,11.093,54.613,30.72,75.093 c40.96,40.96,108.373,40.96,149.333,0c11.947-11.947,17.067-26.453,23.893-43.52c6.827-17.067,14.507-36.693,29.013-57.173 c1.707-1.707,4.267-2.56,5.973-0.853c1.707,1.707,2.56,4.267,0.853,5.973c-14.507,20.48-21.333,39.253-28.16,55.467 c-6.827,17.92-12.8,34.133-25.6,46.933C172.373,491.52,143.36,502.613,114.347,502.613z M114.347,468.48 c-20.48,0-40.96-7.68-57.173-23.893c-31.573-31.573-31.573-81.92,0-113.493c9.387-9.387,23.893-15.36,40.96-22.187 c18.773-7.68,40.107-16.213,61.44-31.573c1.707-1.707,4.267-0.853,5.973,0.853c1.707,1.707,0.853,4.267-0.853,5.973 c-22.187,16.213-45.227,25.6-63.147,32.427c-16.213,6.827-29.867,12.8-38.4,20.48c-28.16,28.16-28.16,73.387,0,101.547 c28.16,28.16,73.387,28.16,101.547,0c7.68-7.68,13.653-22.187,20.48-38.4c7.68-17.92,17.067-40.96,32.427-63.147 c1.707-1.707,4.267-2.56,5.973-0.853c1.707,1.707,2.56,4.267,0.853,5.973c-15.36,21.333-23.893,42.667-31.573,61.44 c-6.827,17.067-12.8,31.573-22.187,40.96C155.307,460.8,134.827,468.48,114.347,468.48z M311.467,468.48c-0.853,0-0.853,0-1.707,0 c-2.56-0.853-3.413-3.413-2.56-5.973c23.893-56.32-28.16-106.667-29.013-106.667L146.773,224.427c-1.707-1.707-1.707-4.267,0-5.973 c1.707-1.707,4.267-1.707,5.973,0L284.16,349.867c0.853,0.853,57.173,54.613,30.72,116.053 C314.88,467.627,313.173,468.48,311.467,468.48z M114.347,435.2c-12.8,0-23.893-5.12-33.28-13.653 c-8.533-8.533-13.653-20.48-13.653-33.28c0-12.8,5.12-23.893,13.653-33.28c10.24-10.24,25.6-16.213,40.107-21.333 c11.947-4.267,23.04-8.533,31.573-15.36c1.707-1.707,4.267-0.853,5.973,0.853c1.707,1.707,0.853,4.267-0.853,5.973 c-9.387,7.68-22.187,11.947-34.133,16.213c-13.653,5.12-28.16,10.24-37.547,19.627c-6.827,6.827-11.093,17.067-11.093,27.307 s4.267,19.627,11.093,26.453c6.827,6.827,17.067,11.093,26.453,11.093c10.24,0,19.627-4.267,26.453-11.093 c7.68-7.68,13.653-22.187,20.48-38.4c7.68-17.92,17.067-40.96,32.427-63.147c1.707-1.707,4.267-2.56,5.973-0.853 c1.707,1.707,2.56,4.267,0.853,5.973c-15.36,21.333-23.893,42.667-31.573,61.44c-6.827,17.067-12.8,31.573-22.187,40.96 C138.24,430.08,126.293,435.2,114.347,435.2z M305.493,332.8c-0.853,0-2.56,0-3.413-0.853L170.667,200.533 c-1.707-1.707-1.707-4.267,0-5.973c1.707-1.707,4.267-1.707,5.973,0l131.413,131.413c1.707,1.707,1.707,4.267,0,5.973 C308.053,332.8,306.347,332.8,305.493,332.8z M329.387,308.907c-0.853,0-2.56,0-3.413-0.853L194.56,176.64 c-1.707-1.707-1.707-4.267,0-5.973c1.707-1.707,4.267-1.707,5.973,0L331.947,302.08c1.707,1.707,1.707,4.267,0,5.973 C331.947,308.907,330.24,308.907,329.387,308.907z M353.28,285.013c-0.853,0-2.56,0-3.413-0.853L218.453,152.747 c-1.707-1.707-1.707-4.267,0-5.973c1.707-1.707,4.267-1.707,5.973,0L355.84,278.187c1.707,1.707,1.707,4.267,0,5.973 C355.84,285.013,354.133,285.013,353.28,285.013z M365.227,249.173c-1.707,0-2.56-0.853-3.413-1.707 c-1.707-1.707-0.853-4.267,0.853-5.973c21.333-15.36,40.107-22.187,57.173-29.013c17.067-6.827,32.427-12.8,43.52-23.893 c40.96-40.96,40.96-108.373,0-149.333c-19.627-19.627-46.08-30.72-75.093-30.72c-29.013,0-54.613,11.093-75.093,30.72 c-11.947,11.947-17.067,26.453-23.893,43.52s-14.507,36.693-29.013,57.173c-1.707,1.707-4.267,2.56-5.973,0.853 c-1.707-1.707-2.56-4.267-0.853-5.973c14.507-20.48,22.187-39.253,28.16-55.467c6.827-17.92,12.8-33.28,25.6-46.08 C328.533,11.947,357.547,0,388.267,0s58.88,11.947,81.067,33.28c44.373,44.373,44.373,116.907,0,161.28 c-12.8,12.8-28.16,18.773-46.933,25.6c-17.067,6.827-35.84,13.653-55.467,28.16C366.933,249.173,366.08,249.173,365.227,249.173z M341.333,225.28c-1.707,0-2.56-0.853-3.413-1.707c-1.707-1.707-0.853-4.267,0.853-5.973C360.96,201.387,384,192,401.92,185.173 c16.213-6.827,29.867-12.8,38.4-20.48c28.16-28.16,28.16-73.387,0-101.547c-13.653-13.653-31.573-21.333-51.2-21.333 c-18.773,0-37.547,7.68-51.2,21.333c-7.68,7.68-13.653,22.187-20.48,38.4c-7.68,17.92-17.067,40.96-32.427,63.147 c-1.707,1.707-4.267,2.56-5.973,0.853c-1.707-1.707-2.56-4.267-0.853-5.973c15.36-21.333,23.893-42.667,31.573-61.44 c6.827-17.067,12.8-31.573,22.187-40.96c15.36-15.36,34.987-23.893,57.173-23.893c22.187,0,41.813,8.533,57.173,23.893 c31.573,31.573,31.573,81.92,0,113.493c-9.387,9.387-23.893,15.36-40.96,22.187c-18.773,7.68-40.107,16.213-61.44,31.573 C343.04,225.28,342.187,225.28,341.333,225.28z M305.493,189.44c-0.853,0-1.707,0-2.56-0.853c-1.707-1.707-2.56-4.267-0.853-5.973 c15.36-21.333,23.893-42.667,31.573-61.44c6.827-17.067,12.8-31.573,22.187-40.96c8.533-8.533,20.48-13.653,33.28-13.653 c12.8,0,23.893,5.12,33.28,13.653c8.533,8.533,13.653,20.48,13.653,33.28s-5.12,23.893-13.653,33.28 c-10.24,10.24-25.6,16.213-40.107,21.333c-11.947,4.267-23.04,8.533-31.573,15.36c-1.707,1.707-4.267,0.853-5.973-0.853 c-1.707-1.707-0.853-4.267,0.853-5.973c9.387-7.68,22.187-11.947,34.133-16.213c13.653-5.12,28.16-10.24,37.547-19.627 c6.827-6.827,11.093-17.067,11.093-27.307s-4.267-19.627-11.093-26.453c-6.827-6.827-17.067-11.093-26.453-11.093 S371.2,80.213,363.52,87.039c-7.68,7.68-13.653,22.187-20.48,38.4c-7.68,17.92-17.067,40.96-32.427,63.147 C308.053,188.587,307.2,189.44,305.493,189.44z"/> </g>
</svg>