<svg xmlns="http://www.w3.org/2000/svg" xmlns:xlink="http://www.w3.org/1999/xlink" width="500" zoomAndPan="magnify" viewBox="0 0 375 374.999991" height="500" preserveAspectRatio="xMidYMid meet" version="1.0"><defs><clipPath id="39b5b53bb6"><path d="M 21.078125 61.183594 L 201 61.183594 L 201 313.933594 L 21.078125 313.933594 Z M 21.078125 61.183594 " clip-rule="nonzero"/></clipPath><clipPath id="5a0cf19a7a"><path d="M 201.394531 61.183594 L 353.644531 61.183594 L 353.644531 313.933594 L 201.394531 313.933594 Z M 201.394531 61.183594 " clip-rule="nonzero"/></clipPath></defs><path fill="#f48ca7" d="M 144.855469 229.292969 L 144.835938 229.292969 C 141.644531 227.234375 138.53125 225.535156 135.578125 224.152344 L 89.929688 224.152344 C 86.558594 225.734375 82.964844 227.734375 79.273438 230.191406 C 61.296875 242.25 41.226562 265.84375 33.683594 311.9375 L 191.824219 311.9375 C 184.082031 264.664062 163.171875 241.070312 144.855469 229.292969 Z M 144.855469 229.292969 " fill-opacity="1" fill-rule="nonzero"/><path fill="#ea728c" d="M 112.753906 278.003906 C 115.226562 278.003906 117.242188 280.042969 117.242188 282.542969 C 117.242188 285.023438 115.226562 287.0625 112.753906 287.0625 C 110.28125 287.0625 108.265625 285.023438 108.265625 282.542969 C 108.265625 280.042969 110.28125 278.003906 112.753906 278.003906 Z M 112.753906 278.003906 " fill-opacity="1" fill-rule="nonzero"/><path fill="#ea728c" d="M 112.753906 257.648438 C 115.226562 257.648438 117.242188 259.6875 117.242188 262.167969 C 117.242188 264.664062 115.226562 266.707031 112.753906 266.707031 C 110.28125 266.707031 108.265625 264.664062 108.265625 262.167969 C 108.265625 259.6875 110.28125 257.648438 112.753906 257.648438 Z M 112.753906 257.648438 " fill-opacity="1" fill-rule="nonzero"/><path fill="#ea728c" d="M 135.578125 224.152344 C 136 225.414062 137.875 231.351562 134.820312 237.429688 C 132.007812 243.050781 126.082031 246.628906 119.476562 246.769531 L 124.964844 220.035156 C 128.097656 220.996094 131.6875 222.3125 135.578125 224.132812 Z M 135.578125 224.152344 " fill-opacity="1" fill-rule="nonzero"/><path fill="#ea728c" d="M 100.542969 220.035156 L 106.03125 246.769531 C 99.425781 246.628906 93.5 243.050781 90.6875 237.429688 C 87.636719 231.351562 89.511719 225.414062 89.929688 224.152344 L 89.929688 224.132812 C 93.820312 222.3125 97.410156 220.996094 100.542969 220.035156 Z M 100.542969 220.035156 " fill-opacity="1" fill-rule="nonzero"/><path fill="#604533" d="M 187.695312 198.558594 C 185 192.21875 187.933594 187.441406 187.316406 179.164062 C 187.054688 175.722656 186.058594 171.222656 182.945312 165.984375 C 180.769531 162.324219 179.992188 157.925781 181.089844 153.808594 C 182.128906 149.96875 182.804688 144.789062 181.589844 138.890625 C 179.914062 130.773438 175.464844 125.234375 172.191406 122.09375 C 170.015625 120.015625 168.460938 117.375 167.722656 114.433594 C 160.019531 83.261719 137.414062 63.324219 115.867188 64.003906 C 102.199219 64.425781 91.804688 73.042969 86.636719 78.242188 C 74.40625 78.460938 68.421875 82.820312 65.609375 85.5625 C 62.835938 88.28125 55.613281 93.859375 53.277344 108.675781 C 52.777344 111.835938 51.402344 114.773438 49.308594 117.175781 C 45.855469 121.09375 41.265625 127.851562 39.828125 137.351562 C 38.671875 144.871094 39.949219 151.386719 41.664062 156.265625 C 43.5625 161.6875 42.621094 167.664062 39.191406 172.242188 C 36.199219 176.261719 35.121094 179.84375 34.863281 182.761719 C 34.164062 190.140625 38.394531 194.820312 35.898438 200 C 33.746094 204.476562 28.058594 206.238281 23.390625 207.015625 C 25.125 208.714844 30.074219 213.136719 37.914062 214.4375 C 45.015625 215.636719 50.625 213.617188 52.898438 212.65625 C 52.878906 213.894531 52.679688 215.957031 51.5625 218.195312 C 49.707031 221.933594 46.574219 223.613281 45.457031 224.132812 C 47.53125 224.832031 55.074219 227.03125 63.3125 223.492188 C 68.5625 221.214844 71.734375 217.636719 73.210938 215.695312 C 72.929688 216.613281 71.992188 220.113281 73.628906 224.054688 C 75.285156 227.992188 78.417969 229.753906 79.273438 230.191406 C 82.964844 227.734375 86.558594 225.734375 89.929688 224.152344 L 89.929688 224.132812 C 93.820312 222.3125 97.410156 220.996094 100.542969 220.035156 L 124.964844 220.035156 C 128.097656 220.996094 131.6875 222.3125 135.578125 224.132812 L 135.578125 224.152344 C 138.53125 225.535156 141.644531 227.234375 144.835938 229.292969 L 144.855469 229.292969 C 145.574219 228.933594 147.910156 227.652344 149.207031 224.792969 C 150.742188 221.355469 149.625 218.214844 149.386719 217.613281 C 151.164062 219.414062 157.667969 225.535156 167.402344 225.792969 C 171.375 225.894531 174.644531 224.992188 176.898438 224.132812 C 175.445312 223.234375 173.449219 221.753906 171.554688 219.433594 C 169.359375 216.773438 168.222656 214.15625 167.640625 212.414062 C 170.753906 213.636719 178.316406 216.09375 187.453125 213.957031 C 192.664062 212.734375 196.53125 210.476562 198.96875 208.757812 C 195.035156 207.015625 189.988281 203.976562 187.695312 198.558594 Z M 187.695312 198.558594 " fill-opacity="1" fill-rule="nonzero"/><path fill="#fec4b9" d="M 68.042969 173.023438 C 62.574219 173.683594 57.386719 169.683594 55.011719 163.1875 C 52.28125 155.6875 55.929688 146.867188 62.078125 144.410156 L 62.433594 144.269531 C 67.589844 154.121094 68.609375 164.5 68.042969 173.023438 Z M 68.042969 173.023438 " fill-opacity="1" fill-rule="nonzero"/><path fill="#fec4b9" d="M 164.351562 145.148438 C 170.496094 147.609375 173.25 155.6875 170.496094 163.1875 C 168.121094 169.683594 162.414062 173.605469 156.949219 172.945312 L 156.847656 172.902344 C 153.765625 165.191406 154.6875 155.222656 162.375 144.628906 L 162.535156 144.628906 C 163.152344 144.75 163.75 144.910156 164.351562 145.148438 Z M 164.351562 145.148438 " fill-opacity="1" fill-rule="nonzero"/><path fill="#ffd7d2" d="M 162.375 144.628906 C 161.316406 155.425781 159.402344 165.367188 156.847656 172.902344 C 155.730469 176.222656 154.472656 179.082031 153.136719 181.320312 C 148.46875 189.140625 137.875 199.359375 124.964844 203.71875 C 121.035156 205.058594 116.863281 205.835938 112.59375 205.835938 L 112.277344 205.835938 C 108.246094 205.835938 104.292969 205.136719 100.542969 203.9375 C 87.335938 199.699219 76.441406 189.28125 71.714844 181.320312 C 70.394531 179.101562 69.160156 176.28125 68.042969 173.023438 C 65.449219 165.386719 63.492188 155.265625 62.433594 144.269531 C 62.394531 140.53125 62.855469 134.671875 65.945312 128.773438 C 70.574219 119.933594 77.238281 118.375 83.007812 110.574219 C 86.078125 106.417969 89.691406 99.4375 90.109375 87.78125 C 92.242188 92.320312 96.214844 99.378906 103.335938 105.535156 C 116.585938 116.976562 128.636719 114.957031 144.320312 125.894531 C 149.066406 129.191406 155.871094 134.871094 162.375 144.628906 Z M 162.375 144.628906 " fill-opacity="1" fill-rule="nonzero"/><path fill="#ffd7d2" d="M 100.542969 203.9375 L 100.542969 220.035156 L 106.03125 246.769531 L 119.476562 246.769531 L 124.964844 220.035156 L 124.964844 203.71875 C 116.355469 199.367188 108.21875 199.441406 100.542969 203.9375 Z M 100.542969 203.9375 " fill-opacity="1" fill-rule="nonzero"/><path fill="#f7b6ad" d="M 124.964844 203.71875 L 124.964844 214.074219 C 122.511719 214.796875 119.917969 215.175781 117.242188 215.175781 C 110.957031 215.175781 105.152344 213.054688 100.542969 209.457031 L 100.542969 203.9375 C 104.292969 205.136719 108.246094 205.835938 112.277344 205.835938 L 112.59375 205.835938 C 116.863281 205.835938 121.035156 205.058594 124.964844 203.71875 Z M 124.964844 203.71875 " fill-opacity="1" fill-rule="nonzero"/><path fill="#db7d9b" d="M 68.5 311.9375 L 70.050781 272.59375 C 70.097656 271.375 69.125 270.363281 67.914062 270.363281 C 66.941406 270.363281 66.09375 271.027344 65.847656 271.964844 C 61.273438 289.332031 56.078125 304.84375 48.054688 311.902344 Z M 68.5 311.9375 " fill-opacity="1" fill-rule="nonzero"/><path fill="#db7d9b" d="M 157.007812 311.9375 L 155.464844 272.773438 C 155.414062 271.457031 156.464844 270.363281 157.777344 270.363281 C 158.730469 270.363281 159.589844 270.953125 159.929688 271.84375 C 163.179688 289.132812 166.800781 305.648438 175.40625 311.902344 Z M 157.007812 311.9375 " fill-opacity="1" fill-rule="nonzero"/><path fill="#3a322b" d="M 112.753906 255.652344 C 109.179688 255.652344 106.269531 258.578125 106.269531 262.175781 C 106.269531 265.773438 109.179688 268.699219 112.753906 268.699219 C 116.328125 268.699219 119.238281 265.773438 119.238281 262.175781 C 119.238281 258.578125 116.332031 255.652344 112.753906 255.652344 Z M 112.753906 264.699219 C 111.378906 264.699219 110.261719 263.566406 110.261719 262.175781 C 110.261719 260.78125 111.378906 259.652344 112.753906 259.652344 C 114.128906 259.652344 115.25 260.78125 115.25 262.175781 C 115.25 263.566406 114.132812 264.699219 112.753906 264.699219 Z M 112.753906 264.699219 " fill-opacity="1" fill-rule="nonzero"/><path fill="#3a322b" d="M 112.753906 276.007812 C 109.179688 276.007812 106.269531 278.9375 106.269531 282.535156 C 106.269531 286.132812 109.179688 289.058594 112.753906 289.058594 C 116.328125 289.058594 119.238281 286.132812 119.238281 282.535156 C 119.238281 278.9375 116.332031 276.007812 112.753906 276.007812 Z M 112.753906 285.058594 C 111.378906 285.058594 110.261719 283.925781 110.261719 282.535156 C 110.261719 281.140625 111.378906 280.007812 112.753906 280.007812 C 114.128906 280.007812 115.25 281.140625 115.25 282.535156 C 115.25 283.921875 114.132812 285.058594 112.753906 285.058594 Z M 112.753906 285.058594 " fill-opacity="1" fill-rule="nonzero"/><path fill="#3a322b" d="M 123.996094 132.886719 C 124.042969 132.878906 128.886719 132.101562 132.195312 134.445312 C 132.542969 134.691406 132.945312 134.808594 133.34375 134.808594 C 133.972656 134.808594 134.589844 134.515625 134.976562 133.964844 C 135.613281 133.0625 135.398438 131.8125 134.5 131.175781 C 129.792969 127.84375 123.566406 128.902344 123.304688 128.945312 C 122.21875 129.136719 121.492188 130.175781 121.683594 131.265625 C 121.875 132.351562 122.917969 133.074219 123.996094 132.886719 Z M 123.996094 132.886719 " fill-opacity="1" fill-rule="nonzero"/><path fill="#3a322b" d="M 88.375 134.808594 C 88.773438 134.808594 89.171875 134.6875 89.523438 134.445312 C 92.839844 132.097656 97.644531 132.871094 97.730469 132.886719 C 98.816406 133.074219 99.84375 132.351562 100.035156 131.265625 C 100.226562 130.175781 99.503906 129.136719 98.417969 128.945312 C 98.15625 128.902344 91.929688 127.847656 87.222656 131.175781 C 86.320312 131.8125 86.105469 133.058594 86.742188 133.964844 C 87.132812 134.511719 87.75 134.808594 88.375 134.808594 Z M 88.375 134.808594 " fill-opacity="1" fill-rule="nonzero"/><path fill="#3a322b" d="M 100.332031 160.664062 C 100.511719 160.839844 104.722656 164.914062 111.09375 164.914062 C 111.113281 164.914062 111.128906 164.914062 111.144531 164.914062 C 117.421875 164.914062 121.636719 160.839844 121.8125 160.664062 C 122.597656 159.890625 122.609375 158.621094 121.839844 157.835938 C 121.066406 157.046875 119.800781 157.035156 119.015625 157.8125 C 118.984375 157.84375 115.8125 160.917969 111.039062 160.917969 C 111.027344 160.914062 111.015625 160.917969 111 160.917969 C 106.425781 160.917969 103.199219 157.875 103.125 157.808594 C 102.335938 157.039062 101.082031 157.050781 100.308594 157.835938 C 99.539062 158.625 99.546875 159.890625 100.332031 160.664062 Z M 100.332031 160.664062 " fill-opacity="1" fill-rule="nonzero"/><path fill="#3a322b" d="M 133.972656 148.09375 C 133.417969 148.332031 132.792969 148.453125 132.167969 148.511719 C 132.519531 148.226562 132.84375 147.898438 133.132812 147.519531 C 133.800781 146.644531 133.636719 145.386719 132.761719 144.714844 C 131.886719 144.046875 130.636719 144.210938 129.964844 145.085938 C 129.460938 145.742188 128.71875 145.816406 127.96875 145.78125 C 127.925781 145.777344 127.886719 145.769531 127.84375 145.769531 C 127.816406 145.769531 127.792969 145.773438 127.769531 145.777344 C 127.683594 145.773438 127.558594 145.765625 127.523438 145.765625 C 127.40625 145.765625 127.304688 145.8125 127.191406 145.835938 C 127.0625 145.855469 126.9375 145.882812 126.8125 145.914062 C 126.796875 145.917969 126.78125 145.921875 126.769531 145.925781 C 124.976562 146.40625 123.644531 148.03125 123.644531 149.984375 C 123.644531 152.3125 125.527344 154.199219 127.84375 154.199219 C 129.191406 154.199219 130.378906 153.546875 131.148438 152.550781 C 131.222656 152.550781 131.292969 152.5625 131.367188 152.5625 C 132.757812 152.5625 134.230469 152.335938 135.542969 151.773438 C 136.554688 151.335938 137.023438 150.160156 136.589844 149.144531 C 136.160156 148.128906 134.984375 147.660156 133.972656 148.09375 Z M 133.972656 148.09375 " fill-opacity="1" fill-rule="nonzero"/><path fill="#3a322b" d="M 86.570312 151.757812 C 87.796875 152.308594 89.277344 152.527344 90.703125 152.527344 C 90.792969 152.527344 90.878906 152.515625 90.964844 152.515625 C 91.734375 153.53125 92.933594 154.195312 94.300781 154.195312 C 96.617188 154.195312 98.496094 152.308594 98.496094 149.980469 C 98.496094 148.042969 97.1875 146.429688 95.414062 145.9375 C 95.386719 145.925781 95.355469 145.921875 95.328125 145.910156 C 95.203125 145.878906 95.082031 145.855469 94.953125 145.835938 C 94.839844 145.816406 94.738281 145.765625 94.617188 145.765625 C 94.585938 145.765625 94.460938 145.773438 94.375 145.777344 C 94.351562 145.777344 94.328125 145.769531 94.304688 145.769531 C 94.257812 145.769531 94.21875 145.78125 94.175781 145.78125 C 93.425781 145.816406 92.679688 145.742188 92.179688 145.085938 C 91.507812 144.210938 90.257812 144.042969 89.378906 144.714844 C 88.503906 145.386719 88.339844 146.640625 89.011719 147.519531 C 89.296875 147.894531 89.613281 148.21875 89.964844 148.5 C 89.324219 148.449219 88.703125 148.335938 88.203125 148.109375 C 87.199219 147.660156 86.015625 148.109375 85.566406 149.117188 C 85.117188 150.121094 85.566406 151.304688 86.570312 151.757812 Z M 86.570312 151.757812 " fill-opacity="1" fill-rule="nonzero"/><g clip-path="url(#39b5b53bb6)"><path fill="#3a322b" d="M 199.773438 206.929688 C 194.582031 204.628906 191.132812 201.550781 189.53125 197.773438 C 188.140625 194.503906 188.480469 191.679688 188.90625 188.101562 C 189.21875 185.507812 189.570312 182.570312 189.300781 179.011719 C 188.945312 174.285156 187.382812 169.554688 184.660156 164.964844 C 182.695312 161.644531 182.097656 157.769531 183.023438 154.335938 C 184.445312 149.058594 184.617188 143.722656 183.53125 138.476562 C 181.773438 129.957031 177.148438 124.082031 173.578125 120.65625 C 171.640625 118.796875 170.285156 116.480469 169.664062 113.957031 C 162.035156 83.121094 139.296875 61.234375 115.796875 62.003906 C 102.703125 62.410156 92.335938 69.851562 85.785156 76.265625 C 76.496094 76.566406 69.242188 79.210938 64.214844 84.132812 C 63.984375 84.359375 63.71875 84.605469 63.425781 84.882812 C 60.21875 87.890625 53.539062 94.152344 51.300781 108.371094 C 50.859375 111.164062 49.652344 113.746094 47.808594 115.84375 C 44.085938 120.070312 39.335938 127.179688 37.84375 137.042969 C 36.832031 143.722656 37.480469 150.414062 39.769531 156.929688 C 41.449219 161.710938 40.636719 166.988281 37.597656 171.046875 C 34.820312 174.753906 33.226562 178.636719 32.863281 182.585938 C 32.523438 186.230469 33.257812 189.207031 33.90625 191.835938 C 34.636719 194.792969 35.164062 196.929688 34.101562 199.132812 C 32.6875 202.070312 28.972656 204.0625 23.054688 205.054688 C 22.3125 205.179688 21.707031 205.710938 21.480469 206.429688 C 21.257812 207.148438 21.453125 207.929688 21.992188 208.457031 C 24.449219 210.867188 29.742188 215.101562 37.578125 216.410156 C 42.625 217.253906 47.035156 216.636719 50.433594 215.652344 C 50.261719 216.222656 50.042969 216.773438 49.78125 217.300781 C 48.328125 220.21875 45.90625 221.710938 44.59375 222.339844 C 43.859375 222.691406 43.410156 223.457031 43.460938 224.273438 C 43.511719 225.085938 44.054688 225.789062 44.828125 226.042969 C 47.824219 227.03125 55.703125 228.949219 64.105469 225.324219 C 66.800781 224.160156 69.015625 222.660156 70.808594 221.128906 C 70.953125 222.296875 71.253906 223.550781 71.792969 224.835938 C 72.8125 227.273438 74.308594 228.992188 75.714844 230.183594 C 57.832031 243.027344 39.019531 266.964844 31.710938 311.613281 C 31.617188 312.195312 31.777344 312.785156 32.15625 313.234375 C 32.539062 313.683594 33.09375 313.941406 33.679688 313.941406 L 191.828125 313.941406 C 192.410156 313.941406 192.96875 313.683594 193.347656 313.234375 C 193.726562 312.785156 193.890625 312.195312 193.796875 311.613281 C 186.300781 265.828125 166.707031 241.804688 148.429688 229.207031 C 149.375 228.332031 150.320312 227.160156 151.019531 225.605469 C 151.519531 224.484375 151.792969 223.390625 151.914062 222.371094 C 155.449219 224.910156 160.734375 227.613281 167.339844 227.792969 C 170.824219 227.902344 174.269531 227.289062 177.609375 226.011719 C 178.316406 225.742188 178.8125 225.09375 178.886719 224.339844 C 178.960938 223.582031 178.601562 222.851562 177.960938 222.449219 C 176.113281 221.289062 174.472656 219.851562 173.089844 218.171875 C 172.445312 217.390625 171.863281 216.566406 171.347656 215.703125 C 175.824219 216.835938 181.542969 217.386719 187.90625 215.90625 C 192.277344 214.886719 196.382812 213.03125 200.117188 210.394531 C 200.703125 209.976562 201.023438 209.277344 200.953125 208.5625 C 200.882812 207.84375 200.433594 207.222656 199.773438 206.929688 Z M 189.460938 309.9375 L 158.929688 309.9375 L 157.363281 270.289062 C 157.320312 269.183594 156.417969 268.351562 155.289062 268.371094 C 154.1875 268.414062 153.332031 269.34375 153.375 270.449219 L 154.9375 309.9375 L 70.570312 309.9375 L 72.132812 270.449219 C 72.175781 269.34375 71.316406 268.414062 70.21875 268.371094 C 69.097656 268.351562 68.191406 269.1875 68.144531 270.289062 L 66.578125 309.9375 L 36.046875 309.9375 C 43.695312 266.402344 62.628906 243.773438 80.078125 232.011719 C 80.277344 231.921875 80.464844 231.804688 80.632812 231.652344 C 82.828125 230.199219 84.996094 228.914062 87.113281 227.78125 C 86.78125 230.6875 86.964844 234.472656 88.90625 238.339844 C 92.050781 244.609375 98.59375 248.609375 105.984375 248.773438 C 106 248.773438 106.011719 248.773438 106.027344 248.773438 L 119.527344 248.773438 C 126.917969 248.609375 133.457031 244.609375 136.601562 238.339844 C 138.542969 234.472656 138.722656 230.6875 138.398438 227.777344 C 140.074219 228.675781 141.78125 229.664062 143.511719 230.761719 C 143.597656 230.839844 143.699219 230.886719 143.796875 230.949219 C 161.683594 242.386719 181.574219 265.039062 189.460938 309.9375 Z M 60.761719 147.453125 C 61.753906 156.363281 63.308594 164.382812 65.273438 170.917969 C 61.75 170.179688 58.558594 167.0625 56.894531 162.492188 C 54.933594 157.132812 56.8125 150.519531 60.761719 147.453125 Z M 64.4375 144.195312 C 64.394531 138.828125 65.496094 133.949219 67.714844 129.703125 C 70.128906 125.082031 73.195312 122.566406 76.433594 119.898438 C 79.136719 117.679688 81.933594 115.378906 84.601562 111.777344 C 88.113281 107.035156 90.417969 101.246094 91.472656 94.519531 C 94.414062 99.3125 97.953125 103.511719 102.042969 107.046875 C 109.3125 113.332031 116.132812 115.683594 123.355469 118.171875 C 129.570312 120.3125 136 122.527344 143.1875 127.53125 C 149.667969 132.050781 155.425781 137.984375 160.316406 145.15625 C 158.769531 160.417969 155.460938 173.523438 151.421875 180.300781 C 146.003906 189.402344 130.667969 203.839844 112.585938 203.839844 L 112.269531 203.839844 C 94.183594 203.839844 78.847656 189.402344 73.429688 180.300781 C 69.304688 173.371094 65.941406 159.878906 64.4375 144.195312 Z M 164.117188 147.21875 C 168.890625 149.519531 170.917969 156.222656 168.628906 162.492188 C 166.976562 167.015625 163.398438 170.234375 159.582031 170.890625 C 161.5625 164.300781 163.125 156.210938 164.117188 147.21875 Z M 133.921875 225.566406 C 134.554688 227.808594 135.25 232.136719 133.039062 236.542969 C 130.917969 240.769531 126.792969 243.671875 121.980469 244.511719 L 126.464844 222.617188 C 128.796875 223.398438 131.304688 224.375 133.921875 225.566406 Z M 112.269531 207.839844 L 112.585938 207.839844 C 116.164062 207.839844 119.640625 207.3125 122.972656 206.414062 L 122.972656 219.78125 L 117.855469 244.777344 L 107.652344 244.777344 L 102.550781 219.839844 L 102.550781 206.570312 C 105.679688 207.363281 108.921875 207.839844 112.269531 207.839844 Z M 99.042969 222.617188 L 103.523438 244.507812 C 98.695312 243.65625 94.585938 240.761719 92.472656 236.542969 C 90.242188 232.09375 91.019531 227.625 91.589844 225.566406 C 94.207031 224.375 96.714844 223.398438 99.042969 222.617188 Z M 187.003906 212.007812 C 179.273438 213.8125 172.597656 212.210938 168.359375 210.550781 C 167.636719 210.273438 166.816406 210.429688 166.25 210.972656 C 165.691406 211.511719 165.492188 212.324219 165.746094 213.0625 C 166.703125 215.871094 168.140625 218.441406 170.011719 220.714844 C 170.785156 221.65625 171.628906 222.535156 172.53125 223.34375 C 170.851562 223.691406 169.144531 223.832031 167.449219 223.796875 C 158.976562 223.566406 152.984375 218.410156 150.804688 216.207031 C 150.140625 215.535156 149.101562 215.421875 148.3125 215.929688 C 147.519531 216.441406 147.191406 217.4375 147.523438 218.320312 C 147.777344 219 148.523438 221.410156 147.378906 223.964844 C 146.722656 225.425781 145.710938 226.347656 144.898438 226.914062 C 138.433594 222.917969 132.25 220.292969 126.960938 218.578125 L 126.960938 205.132812 C 140.117188 200.226562 150.480469 189.6875 154.851562 182.351562 C 156.050781 180.335938 157.179688 177.867188 158.21875 175.015625 C 164.238281 175 169.914062 170.605469 172.375 163.867188 C 175.476562 155.371094 172.210938 146.136719 165.09375 143.28125 C 164.621094 143.089844 164.097656 142.941406 163.546875 142.808594 C 158.394531 135.273438 152.320312 129.023438 145.464844 124.246094 C 137.816406 118.921875 131.125 116.613281 124.652344 114.386719 C 117.800781 112.027344 111.332031 109.796875 104.648438 104.015625 C 99.382812 99.46875 95.097656 93.71875 91.910156 86.921875 C 91.519531 86.089844 90.601562 85.628906 89.707031 85.816406 C 88.804688 86 88.144531 86.777344 88.113281 87.699219 C 87.789062 96.511719 85.53125 103.8125 81.394531 109.390625 C 79.019531 112.601562 76.417969 114.738281 73.902344 116.808594 C 70.492188 119.605469 66.972656 122.503906 64.179688 127.847656 C 61.832031 132.339844 60.59375 137.425781 60.464844 142.964844 C 53.746094 146.320312 50.261719 155.96875 53.144531 163.863281 C 55.621094 170.652344 60.914062 174.976562 66.652344 175.082031 C 67.6875 177.902344 68.808594 180.34375 70 182.347656 C 74.445312 189.808594 85.085938 200.574219 98.554688 205.367188 L 98.554688 218.570312 C 92.875 220.410156 86.164062 223.292969 79.179688 227.808594 C 78.019531 227.011719 76.433594 225.582031 75.472656 223.285156 C 74.171875 220.175781 74.796875 217.34375 75.121094 216.269531 C 75.40625 215.34375 74.988281 214.347656 74.128906 213.90625 C 73.269531 213.464844 72.214844 213.703125 71.632812 214.472656 C 69.949219 216.675781 67.007812 219.710938 62.527344 221.644531 C 57.949219 223.621094 53.539062 223.65625 50.289062 223.207031 C 51.402344 222.152344 52.496094 220.796875 53.351562 219.078125 C 54.324219 217.121094 54.859375 214.914062 54.898438 212.6875 C 54.910156 212.011719 54.582031 211.375 54.023438 210.996094 C 53.460938 210.617188 52.75 210.546875 52.128906 210.808594 C 49.058594 212.109375 44.152344 213.453125 38.234375 212.460938 C 33.761719 211.714844 30.246094 209.855469 27.765625 208.085938 C 32.757812 206.628906 36.089844 204.210938 37.699219 200.867188 C 39.382812 197.363281 38.570312 194.0625 37.78125 190.871094 C 37.183594 188.4375 36.5625 185.921875 36.835938 182.953125 C 37.136719 179.707031 38.429688 176.59375 40.789062 173.445312 C 44.632812 168.3125 45.660156 161.640625 43.535156 155.597656 C 41.464844 149.707031 40.875 143.664062 41.789062 137.640625 C 43.136719 128.738281 47.433594 122.308594 50.800781 118.488281 C 53.148438 115.820312 54.6875 112.539062 55.246094 108.992188 C 57.269531 96.132812 63.050781 90.710938 66.15625 87.796875 C 66.46875 87.503906 66.753906 87.234375 67.003906 86.988281 C 71.421875 82.664062 78.035156 80.394531 86.660156 80.242188 C 87.179688 80.230469 87.671875 80.023438 88.039062 79.65625 C 94.039062 73.632812 103.746094 66.375 115.917969 65.996094 C 137.691406 65.375 158.613281 85.898438 165.792969 114.914062 C 166.597656 118.175781 168.335938 121.15625 170.820312 123.542969 C 173.980469 126.574219 178.074219 131.769531 179.628906 139.28125 C 180.582031 143.90625 180.429688 148.621094 179.171875 153.289062 C 177.964844 157.757812 178.714844 162.753906 181.230469 167 C 183.636719 171.058594 185.011719 175.203125 185.324219 179.308594 C 185.5625 182.476562 185.25 185.089844 184.949219 187.617188 C 184.488281 191.457031 184.054688 195.082031 185.863281 199.332031 C 187.5 203.1875 190.539062 206.410156 194.921875 208.941406 C 192.421875 210.335938 189.769531 211.363281 187.003906 212.007812 Z M 187.003906 212.007812 " fill-opacity="1" fill-rule="nonzero"/></g><path fill="#ba6a7e" d="M 298.335938 222.59375 L 256.703125 222.59375 C 239.761719 230.820312 217.078125 249.796875 206.976562 292.472656 L 236.160156 311.929688 L 318.878906 311.929688 L 348.0625 292.472656 C 337.960938 249.796875 315.277344 230.820312 298.335938 222.59375 Z M 298.335938 222.59375 " fill-opacity="1" fill-rule="nonzero"/><path fill="#ffc05a" d="M 349.871094 301.117188 C 339.179688 304.703125 328.820312 304.976562 318.878906 301.117188 L 318.878906 292.472656 L 348.0625 292.472656 C 348.722656 295.253906 349.328125 298.136719 349.871094 301.117188 Z M 349.871094 301.117188 " fill-opacity="1" fill-rule="nonzero"/><path fill="#ffc05a" d="M 236.160156 292.472656 L 236.160156 301.117188 C 226.21875 304.976562 215.863281 304.703125 205.167969 301.117188 C 205.710938 298.136719 206.316406 295.253906 206.976562 292.472656 Z M 236.160156 292.472656 " fill-opacity="1" fill-rule="nonzero"/><path fill="#ffc05a" d="M 288.871094 218.792969 L 266.167969 218.792969 C 263.351562 219.691406 260.148438 220.917969 256.703125 222.59375 L 277.519531 242.753906 L 298.335938 222.59375 C 294.890625 220.917969 291.6875 219.691406 288.871094 218.792969 Z M 288.871094 218.792969 " fill-opacity="1" fill-rule="nonzero"/><path fill="#655f68" d="M 329.761719 108.730469 C 329.203125 106.53125 328.589844 104.425781 327.917969 102.421875 C 326.597656 98.441406 326.460938 94.199219 327.40625 90.117188 C 327.46875 89.84375 327.53125 89.5625 327.585938 89.28125 C 329.125 81.496094 326.765625 75.011719 325.40625 71.984375 C 324.753906 74.277344 323.097656 78.828125 318.878906 82.796875 C 316.527344 85 314.128906 86.324219 312.347656 87.117188 C 313.375 82.816406 314.226562 77.722656 314.523438 71.984375 C 314.683594 68.898438 314.660156 66 314.523438 63.339844 C 312.132812 65.425781 309.242188 67.660156 305.816406 69.824219 C 301.058594 72.832031 296.550781 74.886719 292.757812 76.308594 C 294.078125 74.847656 295.726562 72.695312 297.113281 69.824219 C 298.296875 67.359375 298.933594 65.097656 299.285156 63.339844 C 294.300781 65.539062 289.320312 67.738281 284.335938 69.941406 C 281.535156 71.171875 278.503906 71.839844 275.441406 71.839844 C 267.324219 71.851562 251.476562 73.4375 238.339844 84.957031 C 220.703125 100.414062 215.132812 127.457031 225.054688 152.316406 L 269.519531 179.617188 L 329.914062 152.316406 C 332.273438 142.046875 334.210938 126.433594 329.761719 108.730469 Z M 329.761719 108.730469 " fill-opacity="1" fill-rule="nonzero"/><path fill="#ffd7d2" d="M 351.527344 311.929688 L 318.878906 311.929688 L 318.878906 301.117188 L 349.871094 301.117188 C 350.507812 304.582031 351.058594 308.179688 351.527344 311.929688 Z M 351.527344 311.929688 " fill-opacity="1" fill-rule="nonzero"/><path fill="#fec4b9" d="M 329.914062 152.316406 C 332.59375 155.742188 333.375 160.984375 331.550781 165.957031 C 329.328125 171.996094 323.996094 175.652344 318.875 175.042969 C 313.226562 165.65625 313.101562 155.8125 324.097656 148.703125 C 324.664062 148.808594 325.238281 148.957031 325.792969 149.183594 C 327.445312 149.839844 328.835938 150.925781 329.914062 152.316406 Z M 329.914062 152.316406 " fill-opacity="1" fill-rule="nonzero"/><path fill="#fec4b9" d="M 236.097656 175.042969 C 230.976562 175.652344 225.640625 171.996094 223.417969 165.957031 C 221.59375 160.984375 222.375 155.742188 225.054688 152.316406 C 226.132812 150.925781 227.523438 149.839844 229.175781 149.183594 C 229.730469 148.957031 230.300781 148.808594 230.871094 148.703125 C 235 156.210938 237.09375 165.257812 236.097656 175.042969 Z M 236.097656 175.042969 " fill-opacity="1" fill-rule="nonzero"/><path fill="#ffd7d2" d="M 236.097656 175.042969 C 233.683594 168.042969 231.867188 158.777344 230.871094 148.703125 C 230.875 148.703125 230.875 148.703125 230.878906 148.703125 C 231.910156 142 233.546875 134.332031 236.160156 126.027344 C 239.390625 115.777344 243.3125 107.097656 247.046875 100.085938 C 247.332031 102.753906 247.523438 105.65625 247.566406 108.761719 C 247.617188 112.726562 247.417969 116.371094 247.078125 119.644531 C 249.660156 117.121094 252.84375 113.527344 255.753906 108.730469 C 258.574219 104.085938 260.261719 99.75 261.304688 96.378906 C 262.277344 99.230469 264.363281 104.089844 268.8125 108.730469 C 272.324219 112.394531 275.980469 114.535156 278.476562 115.742188 C 276.960938 110.625 275.449219 105.515625 273.933594 100.398438 C 277.09375 103.65625 281.15625 107.328125 286.226562 110.898438 C 290.304688 113.765625 294.210938 115.980469 297.683594 117.695312 C 297.082031 115.476562 296.523438 113.066406 296.046875 110.476562 C 295.507812 107.542969 295.15625 104.789062 294.929688 102.246094 C 300.15625 107.359375 306.472656 114.484375 312.347656 123.867188 C 318.164062 133.148438 321.789062 141.835938 324.097656 148.703125 C 323.105469 158.777344 321.285156 168.042969 318.875 175.042969 C 317.832031 178.0625 316.6875 180.65625 315.453125 182.71875 C 313.261719 186.367188 309.679688 190.578125 305.121094 194.375 C 302.667969 196.425781 299.925781 198.359375 296.972656 200.019531 C 294.417969 201.457031 291.707031 202.691406 288.875 203.621094 C 285.242188 204.820312 281.414062 205.523438 277.484375 205.523438 C 273.578125 205.523438 269.777344 204.832031 266.164062 203.640625 C 253.957031 199.644531 243.910156 190.050781 239.515625 182.71875 C 238.28125 180.65625 237.136719 178.0625 236.097656 175.042969 Z M 236.097656 175.042969 " fill-opacity="1" fill-rule="nonzero"/><path fill="#ffd7d2" d="M 266.164062 203.640625 L 266.164062 210.640625 L 266.167969 218.792969 L 277.519531 229.785156 L 288.871094 218.792969 L 288.871094 215.644531 L 288.875 203.621094 Z M 266.164062 203.640625 " fill-opacity="1" fill-rule="nonzero"/><path fill="#ffd7d2" d="M 236.160156 301.117188 L 236.160156 311.929688 L 203.511719 311.929688 C 203.984375 308.179688 204.53125 304.582031 205.167969 301.117188 Z M 236.160156 301.117188 " fill-opacity="1" fill-rule="nonzero"/><path fill="#f7b6ad" d="M 288.875 203.621094 L 288.871094 215.644531 C 280.851562 215.332031 273.199219 213.582031 266.164062 210.640625 L 266.164062 203.640625 C 269.777344 204.832031 273.578125 205.523438 277.484375 205.523438 C 281.414062 205.523438 285.242188 204.820312 288.875 203.621094 Z M 288.875 203.621094 " fill-opacity="1" fill-rule="nonzero"/><path fill="#3a322b" d="M 293.003906 131.460938 C 293.058594 131.449219 298.144531 130.625 301.539062 133.023438 C 301.890625 133.269531 302.292969 133.390625 302.6875 133.390625 C 303.316406 133.390625 303.9375 133.09375 304.328125 132.539062 C 304.960938 131.632812 304.746094 130.382812 303.84375 129.742188 C 299.074219 126.382812 292.597656 127.460938 292.324219 127.507812 C 291.238281 127.699219 290.511719 128.730469 290.699219 129.820312 C 290.886719 130.910156 291.917969 131.640625 293.003906 131.460938 Z M 293.003906 131.460938 " fill-opacity="1" fill-rule="nonzero"/><path fill="#3a322b" d="M 262.636719 127.507812 C 262.363281 127.460938 255.898438 126.382812 251.128906 129.742188 C 250.222656 130.378906 250.007812 131.632812 250.640625 132.535156 C 251.03125 133.089844 251.652344 133.386719 252.28125 133.386719 C 252.675781 133.386719 253.078125 133.269531 253.429688 133.023438 C 256.8125 130.636719 261.863281 131.445312 261.953125 131.460938 C 263.035156 131.644531 264.074219 130.917969 264.261719 129.828125 C 264.453125 128.738281 263.722656 127.699219 262.636719 127.507812 Z M 262.636719 127.507812 " fill-opacity="1" fill-rule="nonzero"/><g clip-path="url(#5a0cf19a7a)"><path fill="#3a322b" d="M 353.511719 311.679688 C 349.820312 282.121094 340.417969 258.429688 325.570312 241.269531 C 313.445312 227.257812 300.25 220.542969 290.871094 217.339844 L 290.875 205.046875 C 303.523438 199.664062 311.519531 193.824219 317.167969 183.75 C 318.269531 181.917969 319.304688 179.6875 320.257812 177.113281 C 325.867188 177 331.132812 172.902344 333.425781 166.652344 C 335.359375 161.394531 334.671875 155.835938 332.050781 151.886719 C 335.347656 136.984375 335.234375 122.304688 331.699219 108.242188 C 331.15625 106.082031 330.523438 103.910156 329.816406 101.789062 C 328.636719 98.234375 328.476562 94.355469 329.351562 90.570312 C 330.296875 84.339844 329.476562 77.851562 327.230469 71.164062 C 326.886719 70.394531 326.097656 69.925781 325.261719 69.984375 C 324.425781 70.046875 323.714844 70.625 323.484375 71.433594 C 322.722656 74.105469 321.066406 77.992188 317.507812 81.332031 C 316.789062 82.007812 316.023438 82.632812 315.214844 83.199219 C 315.890625 79.523438 316.328125 75.800781 316.519531 72.089844 C 316.671875 69.152344 316.671875 66.175781 316.519531 63.234375 C 316.480469 62.46875 316.007812 61.792969 315.304688 61.492188 C 314.601562 61.195312 313.789062 61.324219 313.210938 61.828125 C 310.5625 64.132812 307.714844 66.253906 304.75 68.128906 C 302.707031 69.417969 300.589844 70.605469 298.414062 71.679688 L 301.246094 63.734375 C 301.394531 63.003906 301.121094 62.246094 300.539062 61.777344 C 299.957031 61.308594 299.164062 61.203125 298.480469 61.503906 L 283.53125 68.101562 C 280.929688 69.25 278.207031 69.832031 275.4375 69.835938 C 266.882812 69.84375 250.511719 71.625 237.023438 83.445312 C 218.832031 99.390625 213.191406 126.839844 222.8125 152.046875 C 220.28125 155.984375 219.636719 161.464844 221.542969 166.652344 C 223.839844 172.902344 229.101562 177 234.710938 177.113281 C 235.667969 179.6875 236.703125 181.917969 237.800781 183.75 C 241.921875 190.628906 251.726562 200.527344 264.164062 205.074219 L 264.167969 217.339844 C 254.789062 220.542969 241.59375 227.257812 229.46875 241.269531 C 214.621094 258.429688 205.21875 282.121094 201.527344 311.679688 C 201.457031 312.25 201.632812 312.824219 202.011719 313.257812 C 202.390625 313.6875 202.9375 313.933594 203.511719 313.933594 L 351.527344 313.933594 C 352.101562 313.933594 352.648438 313.6875 353.027344 313.257812 C 353.40625 312.824219 353.582031 312.25 353.511719 311.679688 Z M 347.445312 299.117188 L 320.878906 299.117188 L 320.878906 294.480469 L 346.460938 294.480469 C 346.804688 295.996094 347.132812 297.539062 347.445312 299.117188 Z M 329.671875 165.265625 C 328.195312 169.289062 325.050781 172.1875 321.65625 172.921875 C 323.464844 166.902344 324.898438 159.550781 325.824219 151.402344 C 330.007812 153.644531 331.738281 159.644531 329.671875 165.265625 Z M 239.65625 86.464844 C 252.164062 75.503906 267.445312 73.855469 275.441406 73.847656 C 278.769531 73.84375 282.035156 73.144531 285.144531 71.773438 L 296.1875 66.898438 C 295.925781 67.59375 295.632812 68.28125 295.308594 68.953125 C 294.257812 71.132812 292.898438 73.15625 291.269531 74.964844 C 290.652344 75.652344 290.582031 76.671875 291.101562 77.4375 C 291.621094 78.199219 292.59375 78.511719 293.457031 78.1875 C 298.148438 76.429688 302.664062 74.1875 306.882812 71.519531 C 308.855469 70.273438 310.78125 68.921875 312.632812 67.484375 C 312.636719 68.953125 312.601562 70.425781 312.527344 71.882812 C 312.269531 76.835938 311.554688 81.804688 310.402344 86.652344 C 310.222656 87.394531 310.484375 88.171875 311.066406 88.660156 C 311.652344 89.148438 312.460938 89.261719 313.15625 88.949219 C 315.789062 87.78125 318.175781 86.199219 320.246094 84.257812 C 322.507812 82.132812 324.121094 79.824219 325.269531 77.65625 C 325.5625 81.382812 325.574219 83.390625 325.457031 89.664062 C 324.410156 94.167969 324.609375 98.800781 326.023438 103.058594 C 326.695312 105.082031 327.300781 107.15625 327.820312 109.222656 C 331 121.871094 331.28125 135.050781 328.679688 148.460938 L 325.621094 147.007812 C 322.6875 138.542969 318.800781 130.402344 314.039062 122.800781 C 309.039062 114.8125 303.078125 107.417969 296.332031 100.816406 C 295.730469 100.230469 294.832031 100.078125 294.078125 100.4375 C 293.320312 100.796875 292.867188 101.589844 292.941406 102.425781 C 293.1875 105.234375 293.570312 108.066406 294.078125 110.839844 C 294.261719 111.84375 294.464844 112.847656 294.683594 113.851562 C 292.167969 112.445312 289.722656 110.90625 287.375 109.253906 C 283.074219 106.230469 279.035156 102.78125 275.371094 99 C 274.730469 98.339844 273.71875 98.203125 272.925781 98.667969 C 272.132812 99.132812 271.757812 100.082031 272.019531 100.96875 L 275.128906 111.492188 C 273.371094 110.28125 271.738281 108.894531 270.253906 107.347656 C 267.113281 104.070312 264.671875 100.050781 263.195312 95.730469 C 262.917969 94.910156 262.140625 94.359375 261.273438 94.375 C 260.40625 94.386719 259.648438 94.957031 259.394531 95.789062 C 258.109375 99.957031 256.308594 103.960938 254.042969 107.691406 C 252.683594 109.933594 251.160156 112.070312 249.484375 114.085938 C 249.5625 112.300781 249.589844 110.511719 249.566406 108.738281 C 249.523438 105.789062 249.347656 102.808594 249.035156 99.875 C 248.941406 99 248.289062 98.289062 247.425781 98.121094 C 246.566406 97.953125 245.695312 98.367188 245.28125 99.144531 C 240.816406 107.539062 237.105469 116.378906 234.253906 125.425781 C 232.03125 132.484375 230.308594 139.765625 229.121094 147.082031 L 225.867188 148.757812 C 217.800781 125.640625 223.167969 100.917969 239.65625 86.464844 Z M 225.296875 165.265625 C 223.230469 159.644531 224.960938 153.644531 229.144531 151.402344 C 230.070312 159.550781 231.503906 166.902344 233.3125 172.921875 C 229.917969 172.1875 226.773438 169.289062 225.296875 165.265625 Z M 260.734375 199.246094 L 263.535156 193.921875 C 264.046875 192.941406 263.675781 191.726562 262.695312 191.210938 C 261.71875 190.695312 260.507812 191.070312 259.996094 192.050781 L 257.242188 197.285156 C 255.59375 196.265625 254.027344 195.164062 252.558594 194.015625 L 255.914062 188.96875 C 256.523438 188.046875 256.273438 186.800781 255.355469 186.1875 C 254.433594 185.574219 253.195312 185.824219 252.582031 186.746094 L 249.480469 191.417969 C 245.8125 188.085938 242.972656 184.59375 241.230469 181.683594 C 237.4375 175.363281 234.328125 163.085938 232.890625 148.800781 C 234.054688 141.3125 235.796875 133.855469 238.070312 126.628906 C 240.117188 120.128906 242.621094 113.738281 245.539062 107.550781 C 245.550781 107.964844 245.558594 108.378906 245.566406 108.789062 C 245.613281 112.328125 245.453125 115.910156 245.089844 119.433594 C 245.003906 120.273438 245.449219 121.074219 246.207031 121.445312 C 246.964844 121.8125 247.871094 121.664062 248.472656 121.078125 C 251.9375 117.703125 254.960938 113.898438 257.464844 109.773438 C 259.003906 107.238281 260.34375 104.582031 261.46875 101.84375 C 263.035156 104.871094 265.03125 107.679688 267.371094 110.121094 C 270.308594 113.1875 273.753906 115.6875 277.605469 117.546875 C 278.320312 117.890625 279.167969 117.785156 279.769531 117.269531 C 280.375 116.753906 280.617188 115.933594 280.394531 115.171875 L 277.96875 106.964844 C 280.242188 108.945312 282.621094 110.804688 285.078125 112.535156 C 288.785156 115.140625 292.730469 117.480469 296.796875 119.488281 C 297.503906 119.835938 298.347656 119.738281 298.953125 119.238281 C 299.558594 118.738281 299.816406 117.925781 299.613281 117.164062 C 298.984375 114.847656 298.445312 112.476562 298.015625 110.113281 C 297.878906 109.378906 297.753906 108.644531 297.640625 107.90625 C 302.496094 113.164062 306.859375 118.871094 310.65625 124.929688 C 315.371094 132.460938 319.207031 140.539062 322.066406 148.941406 C 320.621094 163.164062 317.519531 175.382812 313.742188 181.683594 C 312.007812 184.582031 309.179688 188.058594 305.535156 191.378906 L 302.460938 186.746094 C 301.847656 185.824219 300.605469 185.574219 299.6875 186.1875 C 298.765625 186.800781 298.519531 188.046875 299.128906 188.96875 L 302.457031 193.980469 C 300.992188 195.128906 299.429688 196.230469 297.78125 197.25 L 295.046875 192.050781 C 294.53125 191.070312 293.324219 190.695312 292.34375 191.210938 C 291.367188 191.726562 290.992188 192.9375 291.507812 193.917969 L 294.292969 199.214844 C 292.433594 200.164062 290.488281 200.992188 288.472656 201.664062 L 287.527344 195.867188 C 287.347656 194.773438 286.320312 194.03125 285.230469 194.210938 C 284.140625 194.390625 283.402344 195.421875 283.578125 196.511719 L 284.59375 202.730469 C 282.929688 203.089844 281.226562 203.335938 279.496094 203.445312 L 279.519531 197.371094 C 279.523438 196.261719 278.632812 195.363281 277.527344 195.355469 C 277.523438 195.355469 277.523438 195.355469 277.519531 195.355469 C 276.417969 195.355469 275.523438 196.25 275.519531 197.355469 L 275.492188 203.445312 C 273.777344 203.339844 272.09375 203.101562 270.445312 202.746094 L 271.460938 196.515625 C 271.640625 195.421875 270.902344 194.390625 269.808594 194.210938 C 268.71875 194.035156 267.691406 194.773438 267.511719 195.867188 L 266.5625 201.6875 C 264.542969 201.019531 262.597656 200.191406 260.734375 199.246094 Z M 286.875 206.292969 L 286.871094 217.941406 L 277.519531 227 L 268.167969 217.941406 L 268.164062 206.308594 C 271.15625 207.078125 274.269531 207.523438 277.472656 207.523438 C 277.476562 207.523438 277.476562 207.523438 277.476562 207.523438 C 277.480469 207.523438 277.480469 207.523438 277.484375 207.523438 C 280.714844 207.523438 283.855469 207.074219 286.875 206.292969 Z M 265.648438 221.074219 L 276.128906 231.230469 C 276.515625 231.605469 277.019531 231.792969 277.519531 231.792969 C 278.019531 231.792969 278.523438 231.605469 278.910156 231.230469 L 289.394531 221.074219 C 291.027344 221.628906 292.855469 222.324219 294.835938 223.195312 L 277.519531 239.96875 L 260.203125 223.195312 C 262.183594 222.324219 264.011719 221.628906 265.648438 221.074219 Z M 234.164062 309.925781 L 205.792969 309.925781 C 206.109375 307.597656 206.464844 305.335938 206.847656 303.125 L 234.164062 303.125 Z M 234.164062 299.117188 L 207.59375 299.117188 C 207.90625 297.539062 208.234375 295.996094 208.578125 294.480469 L 234.164062 294.480469 Z M 318.875 262.367188 C 317.773438 262.367188 316.875 263.265625 316.875 264.375 L 316.875 309.925781 L 238.164062 309.925781 L 238.164062 264.375 C 238.164062 263.265625 237.265625 262.367188 236.164062 262.367188 C 235.058594 262.367188 234.164062 263.265625 234.164062 264.375 L 234.164062 290.46875 L 209.542969 290.46875 C 219.679688 250.699219 241.054688 232.890625 256.347656 225.035156 L 276.128906 244.199219 C 276.515625 244.574219 277.019531 244.761719 277.519531 244.761719 C 278.019531 244.761719 278.523438 244.574219 278.910156 244.199219 L 298.691406 225.035156 C 313.988281 232.890625 335.359375 250.699219 345.496094 290.46875 L 320.878906 290.46875 L 320.878906 264.375 C 320.878906 263.265625 319.980469 262.367188 318.875 262.367188 Z M 320.878906 309.925781 L 320.878906 303.125 L 348.191406 303.125 C 348.574219 305.335938 348.929688 307.597656 349.246094 309.925781 Z M 320.878906 309.925781 " fill-opacity="1" fill-rule="nonzero"/></g><path fill="#3a322b" d="M 300.800781 148.59375 C 300.800781 149.105469 300.703125 149.601562 300.507812 150.074219 C 300.308594 150.550781 300.027344 150.96875 299.664062 151.332031 C 299.300781 151.699219 298.878906 151.976562 298.402344 152.175781 C 297.925781 152.371094 297.429688 152.46875 296.914062 152.46875 C 296.398438 152.46875 295.90625 152.371094 295.429688 152.175781 C 294.953125 151.976562 294.53125 151.699219 294.167969 151.332031 C 293.804688 150.96875 293.523438 150.550781 293.324219 150.074219 C 293.128906 149.601562 293.027344 149.105469 293.027344 148.59375 C 293.027344 148.078125 293.128906 147.582031 293.324219 147.109375 C 293.523438 146.632812 293.804688 146.214844 294.167969 145.851562 C 294.53125 145.488281 294.953125 145.207031 295.429688 145.011719 C 295.90625 144.8125 296.398438 144.714844 296.914062 144.714844 C 297.429688 144.714844 297.925781 144.8125 298.402344 145.011719 C 298.878906 145.207031 299.300781 145.488281 299.664062 145.851562 C 300.027344 146.214844 300.308594 146.632812 300.507812 147.109375 C 300.703125 147.582031 300.800781 148.078125 300.800781 148.59375 Z M 300.800781 148.59375 " fill-opacity="1" fill-rule="nonzero"/><path fill="#3a322b" d="M 261.941406 148.59375 C 261.941406 149.105469 261.839844 149.601562 261.644531 150.074219 C 261.445312 150.550781 261.167969 150.96875 260.800781 151.332031 C 260.4375 151.699219 260.015625 151.976562 259.542969 152.175781 C 259.066406 152.371094 258.570312 152.46875 258.054688 152.46875 C 257.539062 152.46875 257.042969 152.371094 256.566406 152.175781 C 256.089844 151.976562 255.671875 151.699219 255.304688 151.332031 C 254.941406 150.96875 254.660156 150.550781 254.464844 150.074219 C 254.265625 149.601562 254.167969 149.105469 254.167969 148.59375 C 254.167969 148.078125 254.265625 147.582031 254.464844 147.109375 C 254.660156 146.632812 254.941406 146.214844 255.304688 145.851562 C 255.671875 145.488281 256.089844 145.207031 256.566406 145.011719 C 257.042969 144.8125 257.539062 144.714844 258.054688 144.714844 C 258.570312 144.714844 259.066406 144.8125 259.542969 145.011719 C 260.015625 145.207031 260.4375 145.488281 260.800781 145.851562 C 261.167969 146.214844 261.445312 146.632812 261.644531 147.109375 C 261.839844 147.582031 261.941406 148.078125 261.941406 148.59375 Z M 261.941406 148.59375 " fill-opacity="1" fill-rule="nonzero"/><path fill="#3a322b" d="M 277.410156 158.296875 C 277.417969 158.296875 277.425781 158.296875 277.433594 158.296875 L 277.53125 158.296875 C 277.539062 158.296875 277.546875 158.296875 277.558594 158.296875 C 283.710938 158.296875 287.847656 154.359375 288.023438 154.191406 C 288.8125 153.425781 288.835938 152.164062 288.074219 151.367188 C 287.3125 150.570312 286.046875 150.542969 285.25 151.300781 C 285.21875 151.332031 282.054688 154.285156 277.554688 154.285156 C 277.546875 154.285156 277.542969 154.285156 277.535156 154.285156 L 277.433594 154.285156 C 277.425781 154.285156 277.417969 154.285156 277.414062 154.285156 C 272.9375 154.285156 269.785156 151.359375 269.722656 151.300781 C 268.925781 150.539062 267.664062 150.5625 266.898438 151.355469 C 266.132812 152.152344 266.152344 153.421875 266.949219 154.191406 C 267.121094 154.359375 271.257812 158.296875 277.410156 158.296875 Z M 277.410156 158.296875 " fill-opacity="1" fill-rule="nonzero"/></svg>