<svg xmlns="http://www.w3.org/2000/svg" xmlns:xlink="http://www.w3.org/1999/xlink" width="500" zoomAndPan="magnify" viewBox="0 0 375 374.999991" height="500" preserveAspectRatio="xMidYMid meet" version="1.0"><defs><clipPath id="6b41411150"><path d="M 196.71875 67 L 357.96875 67 L 357.96875 313 L 196.71875 313 Z M 196.71875 67 " clip-rule="nonzero"/></clipPath><clipPath id="2b119ebcc6"><path d="M 196.71875 67 L 357.96875 67 L 357.96875 191 L 196.71875 191 Z M 196.71875 67 " clip-rule="nonzero"/></clipPath></defs><g clip-path="url(#6b41411150)"><path fill="#ffd0bc" d="M 341.246094 130.382812 C 341.246094 130.382812 342.574219 103.628906 319.160156 82.890625 C 297.988281 64.136719 266.527344 62.019531 239.300781 78.957031 C 215.4375 93.808594 209.882812 128.191406 209.882812 128.191406 C 209.882812 128.191406 197.195312 131.160156 196.964844 141.832031 C 196.738281 152.269531 209.214844 153.402344 209.214844 153.402344 C 209.214844 153.402344 200.183594 162.464844 204.902344 168.601562 C 209.441406 174.5 220.105469 170.191406 220.105469 170.191406 C 220.105469 170.191406 216.019531 179.039062 223.28125 184.484375 C 226.015625 186.535156 229.945312 186.847656 233.777344 186.441406 C 229.226562 189.660156 225.664062 192.878906 225.664062 192.878906 L 228.515625 195.128906 C 221.480469 203.011719 218.046875 211.402344 220.558594 216.929688 C 222.730469 221.707031 234.972656 223.601562 241.695312 224.289062 C 237.539062 231.949219 232.382812 240.304688 231.222656 245.96875 C 229.40625 254.816406 229.9375 263.664062 229.9375 263.664062 C 230.539062 277.730469 235.078125 291.34375 237.574219 297.46875 C 237.574219 297.46875 237.53125 297.492188 237.457031 297.535156 C 237.449219 297.539062 237.4375 297.546875 237.429688 297.550781 C 237.398438 297.566406 237.367188 297.585938 237.324219 297.609375 C 237.308594 297.621094 237.289062 297.632812 237.269531 297.644531 C 237.230469 297.667969 237.1875 297.691406 237.136719 297.71875 C 237.113281 297.734375 237.089844 297.75 237.0625 297.765625 C 237.015625 297.792969 236.964844 297.824219 236.910156 297.855469 C 236.878906 297.875 236.847656 297.894531 236.8125 297.917969 C 236.753906 297.953125 236.691406 297.988281 236.628906 298.027344 C 236.59375 298.050781 236.5625 298.070312 236.527344 298.089844 C 236.433594 298.148438 236.335938 298.210938 236.234375 298.277344 C 236.222656 298.28125 236.214844 298.289062 236.207031 298.292969 C 236.097656 298.363281 235.980469 298.4375 235.859375 298.519531 C 235.8125 298.546875 235.761719 298.582031 235.714844 298.613281 C 235.636719 298.664062 235.558594 298.714844 235.476562 298.769531 C 235.421875 298.808594 235.363281 298.847656 235.308594 298.886719 C 235.226562 298.9375 235.148438 298.992188 235.066406 299.046875 C 235.007812 299.089844 234.945312 299.132812 234.882812 299.175781 C 234.800781 299.234375 234.71875 299.289062 234.636719 299.347656 C 234.570312 299.394531 234.503906 299.441406 234.4375 299.492188 C 234.351562 299.550781 234.265625 299.617188 234.175781 299.679688 C 234.113281 299.726562 234.046875 299.773438 233.980469 299.824219 C 233.886719 299.894531 233.792969 299.964844 233.695312 300.035156 C 233.632812 300.085938 233.570312 300.132812 233.503906 300.179688 C 233.386719 300.269531 233.269531 300.363281 233.148438 300.457031 C 233.105469 300.492188 233.066406 300.523438 233.023438 300.554688 C 233.019531 300.554688 233.019531 300.558594 233.019531 300.558594 C 232.25 301.167969 231.453125 301.851562 230.6875 302.597656 C 230.6875 302.597656 230.683594 302.597656 230.683594 302.597656 C 229.832031 303.425781 229.019531 304.328125 228.324219 305.289062 C 228.300781 305.324219 228.273438 305.359375 228.25 305.390625 C 228.035156 305.691406 227.832031 305.996094 227.644531 306.308594 C 227.625 306.339844 227.609375 306.375 227.585938 306.40625 C 227.402344 306.71875 227.234375 307.03125 227.082031 307.351562 C 227.078125 307.359375 227.070312 307.371094 227.066406 307.382812 C 226.917969 307.695312 226.792969 308.015625 226.679688 308.335938 C 226.660156 308.390625 226.640625 308.449219 226.621094 308.507812 C 226.519531 308.820312 226.433594 309.132812 226.371094 309.453125 C 226.359375 309.507812 226.351562 309.566406 226.34375 309.625 C 226.285156 309.957031 226.242188 310.289062 226.230469 310.625 C 226.199219 311.617188 226.980469 312.25 228.320312 312.597656 C 228.855469 312.738281 229.480469 312.832031 230.179688 312.882812 C 230.355469 312.894531 230.535156 312.90625 230.71875 312.914062 C 231.265625 312.9375 231.855469 312.9375 232.476562 312.921875 C 232.894531 312.90625 233.320312 312.886719 233.761719 312.855469 C 234.644531 312.796875 235.574219 312.703125 236.535156 312.582031 C 237.019531 312.519531 237.507812 312.449219 238.003906 312.375 C 238.996094 312.222656 240.011719 312.046875 241.035156 311.847656 C 241.289062 311.796875 241.546875 311.746094 241.804688 311.695312 C 242.828125 311.484375 243.859375 311.253906 244.878906 311.007812 C 245.132812 310.945312 245.386719 310.882812 245.640625 310.820312 C 246.96875 310.488281 248.265625 310.128906 249.5 309.753906 C 250.324219 309.507812 251.117188 309.25 251.871094 308.992188 C 252.625 308.734375 253.339844 308.472656 254.003906 308.207031 C 256.992188 307.027344 258.957031 305.847656 258.898438 304.953125 C 258.898438 304.953125 258.898438 304.949219 258.898438 304.949219 C 258.886719 304.753906 258.871094 304.53125 258.851562 304.285156 C 258.84375 304.191406 258.832031 304.078125 258.824219 303.980469 C 258.8125 303.816406 258.796875 303.652344 258.78125 303.46875 C 258.765625 303.3125 258.75 303.140625 258.734375 302.96875 C 258.722656 302.828125 258.710938 302.691406 258.695312 302.539062 C 258.671875 302.285156 258.644531 302.011719 258.617188 301.730469 C 258.609375 301.667969 258.605469 301.609375 258.597656 301.546875 C 258.433594 299.875 258.226562 297.820312 258.003906 295.496094 C 257.097656 286.0625 255.988281 272.378906 256.988281 263.664062 L 269.761719 263.664062 C 270.433594 277.59375 274.90625 291.019531 277.378906 297.089844 C 277.378906 297.089844 277.367188 297.09375 277.347656 297.105469 C 277.347656 297.105469 277.34375 297.109375 277.34375 297.109375 C 277.324219 297.117188 277.300781 297.132812 277.269531 297.152344 C 277.253906 297.160156 277.238281 297.167969 277.222656 297.179688 C 277.195312 297.191406 277.167969 297.207031 277.136719 297.226562 C 277.113281 297.238281 277.089844 297.253906 277.066406 297.269531 C 277.03125 297.289062 276.992188 297.3125 276.953125 297.335938 C 276.925781 297.351562 276.894531 297.371094 276.863281 297.390625 C 276.820312 297.414062 276.773438 297.441406 276.726562 297.472656 C 276.691406 297.492188 276.652344 297.515625 276.613281 297.539062 C 276.5625 297.570312 276.507812 297.605469 276.453125 297.640625 C 276.410156 297.664062 276.371094 297.6875 276.328125 297.714844 C 276.25 297.761719 276.167969 297.816406 276.085938 297.867188 C 276.054688 297.886719 276.023438 297.90625 275.992188 297.925781 C 275.890625 297.992188 275.78125 298.0625 275.667969 298.136719 C 275.617188 298.171875 275.558594 298.207031 275.503906 298.246094 C 275.433594 298.292969 275.363281 298.339844 275.289062 298.386719 C 275.226562 298.429688 275.164062 298.46875 275.105469 298.511719 C 275.03125 298.5625 274.957031 298.613281 274.878906 298.667969 C 274.8125 298.710938 274.75 298.757812 274.683594 298.800781 C 274.605469 298.855469 274.527344 298.914062 274.445312 298.96875 C 274.378906 299.015625 274.3125 299.0625 274.242188 299.113281 C 274.160156 299.171875 274.074219 299.234375 273.988281 299.296875 C 273.921875 299.347656 273.851562 299.394531 273.785156 299.445312 C 273.695312 299.511719 273.601562 299.582031 273.511719 299.652344 C 273.441406 299.703125 273.378906 299.75 273.308594 299.804688 C 273.199219 299.886719 273.085938 299.976562 272.972656 300.0625 C 272.925781 300.101562 272.875 300.140625 272.828125 300.179688 C 272.824219 300.179688 272.824219 300.179688 272.824219 300.179688 C 272.054688 300.789062 271.257812 301.472656 270.492188 302.21875 C 269.636719 303.046875 268.824219 303.949219 268.128906 304.910156 C 268.105469 304.945312 268.082031 304.980469 268.054688 305.011719 C 267.839844 305.3125 267.640625 305.617188 267.453125 305.929688 C 267.433594 305.960938 267.414062 305.996094 267.394531 306.027344 C 267.210938 306.339844 267.039062 306.652344 266.886719 306.972656 C 266.882812 306.980469 266.878906 306.992188 266.871094 307.003906 C 266.726562 307.316406 266.597656 307.636719 266.484375 307.957031 C 266.464844 308.011719 266.445312 308.070312 266.425781 308.128906 C 266.324219 308.441406 266.242188 308.753906 266.175781 309.074219 C 266.164062 309.128906 266.15625 309.1875 266.148438 309.246094 C 266.089844 309.5625 266.050781 309.882812 266.039062 310.207031 C 266.039062 310.222656 266.035156 310.234375 266.035156 310.246094 C 266 311.339844 266.949219 311.996094 268.542969 312.3125 C 268.6875 312.34375 268.839844 312.371094 268.992188 312.394531 C 269.769531 312.511719 270.675781 312.5625 271.671875 312.554688 C 271.675781 312.554688 271.679688 312.554688 271.683594 312.554688 C 272.464844 312.546875 273.304688 312.503906 274.1875 312.429688 C 274.65625 312.390625 275.136719 312.34375 275.625 312.289062 C 276.539062 312.183594 277.488281 312.050781 278.453125 311.894531 C 278.738281 311.847656 279.023438 311.800781 279.3125 311.75 C 279.605469 311.699219 279.898438 311.644531 280.195312 311.589844 C 280.875 311.464844 281.558594 311.328125 282.246094 311.183594 C 282.546875 311.117188 282.847656 311.054688 283.148438 310.988281 C 283.453125 310.917969 283.761719 310.847656 284.066406 310.777344 C 284.78125 310.609375 285.496094 310.433594 286.199219 310.25 C 286.453125 310.183594 286.699219 310.117188 286.949219 310.050781 C 287.445312 309.917969 287.933594 309.78125 288.414062 309.640625 C 289.859375 309.222656 291.226562 308.78125 292.46875 308.335938 C 292.882812 308.1875 293.285156 308.035156 293.667969 307.886719 C 296.734375 306.6875 298.761719 305.484375 298.707031 304.574219 C 298.695312 304.378906 298.675781 304.152344 298.65625 303.90625 C 298.648438 303.8125 298.640625 303.703125 298.632812 303.605469 C 298.617188 303.4375 298.605469 303.273438 298.585938 303.089844 C 298.574219 302.9375 298.558594 302.761719 298.542969 302.597656 C 298.527344 302.453125 298.515625 302.3125 298.5 302.160156 C 298.476562 301.90625 298.449219 301.636719 298.421875 301.359375 C 298.417969 301.292969 298.410156 301.230469 298.402344 301.164062 C 298.242188 299.492188 298.03125 297.441406 297.808594 295.117188 C 296.917969 285.820312 295.824219 272.394531 296.75 263.660156 L 311.308594 263.660156 C 311.308594 263.660156 316.667969 216.269531 306.40625 189.839844 C 307.859375 190.078125 309.417969 190.125 311.082031 189.925781 C 324.46875 188.339844 322.652344 173.820312 322.652344 173.820312 C 322.652344 173.820312 332.632812 181.535156 339.894531 175.859375 C 346.761719 170.496094 337.625 160.207031 337.625 160.207031 C 337.625 160.207031 356.203125 160.566406 357.136719 147.957031 C 358.046875 135.707031 341.246094 130.382812 341.246094 130.382812 Z M 341.246094 130.382812 " fill-opacity="1" fill-rule="nonzero"/></g><path fill="#f63845" d="M 298.707031 304.578125 C 298.761719 305.484375 296.738281 306.691406 293.667969 307.886719 C 293.285156 308.039062 292.882812 308.1875 292.472656 308.335938 C 291.226562 308.785156 289.859375 309.222656 288.414062 309.640625 C 287.933594 309.78125 287.445312 309.917969 286.949219 310.050781 C 286.699219 310.117188 286.453125 310.183594 286.199219 310.25 C 285.496094 310.433594 284.785156 310.609375 284.066406 310.777344 C 283.761719 310.851562 283.457031 310.921875 283.148438 310.988281 C 282.847656 311.054688 282.546875 311.121094 282.246094 311.183594 C 281.558594 311.328125 280.875 311.464844 280.195312 311.59375 C 279.898438 311.648438 279.605469 311.703125 279.3125 311.753906 C 279.023438 311.800781 278.738281 311.851562 278.457031 311.894531 C 277.488281 312.050781 276.539062 312.183594 275.628906 312.289062 C 275.136719 312.34375 274.65625 312.394531 274.1875 312.433594 C 273.304688 312.503906 272.464844 312.546875 271.6875 312.554688 C 271.683594 312.554688 271.679688 312.554688 271.675781 312.554688 C 270.675781 312.5625 269.769531 312.511719 268.996094 312.394531 C 268.839844 312.371094 268.6875 312.34375 268.542969 312.316406 C 266.949219 311.996094 266 311.339844 266.035156 310.25 C 266.046875 309.910156 266.089844 309.578125 266.148438 309.246094 C 266.15625 309.1875 266.167969 309.132812 266.175781 309.074219 C 266.242188 308.757812 266.324219 308.441406 266.425781 308.128906 C 266.445312 308.070312 266.46875 308.015625 266.488281 307.957031 C 266.597656 307.636719 266.726562 307.320312 266.875 307.003906 C 266.878906 306.992188 266.882812 306.984375 266.886719 306.972656 C 267.039062 306.65625 267.210938 306.339844 267.394531 306.03125 C 267.414062 305.996094 267.433594 305.964844 267.453125 305.929688 C 267.640625 305.621094 267.84375 305.316406 268.054688 305.015625 C 268.082031 304.980469 268.105469 304.945312 268.128906 304.910156 C 268.824219 303.953125 269.636719 303.046875 270.492188 302.21875 C 271.445312 302.789062 272.722656 303.304688 274.429688 303.59375 C 279.800781 304.5 283.128906 301.402344 283.128906 301.402344 C 280.464844 297.941406 274.941406 299.746094 272.824219 300.179688 C 272.828125 300.179688 272.828125 300.179688 272.828125 300.179688 C 272.875 300.140625 272.925781 300.105469 272.976562 300.066406 C 273.085938 299.976562 273.199219 299.890625 273.308594 299.804688 C 273.378906 299.753906 273.445312 299.703125 273.511719 299.652344 C 273.601562 299.585938 273.695312 299.515625 273.785156 299.449219 C 273.851562 299.398438 273.921875 299.347656 273.988281 299.300781 C 274.074219 299.238281 274.160156 299.175781 274.246094 299.113281 C 274.3125 299.066406 274.378906 299.019531 274.445312 298.972656 C 274.527344 298.914062 274.605469 298.859375 274.683594 298.804688 C 274.75 298.757812 274.816406 298.714844 274.878906 298.667969 C 274.957031 298.617188 275.03125 298.566406 275.105469 298.515625 C 275.167969 298.472656 275.226562 298.429688 275.289062 298.390625 C 275.363281 298.339844 275.433594 298.292969 275.503906 298.246094 C 275.558594 298.210938 275.617188 298.171875 275.667969 298.140625 C 275.78125 298.066406 275.890625 297.996094 275.992188 297.929688 C 276.023438 297.910156 276.054688 297.890625 276.085938 297.871094 C 276.167969 297.816406 276.253906 297.765625 276.328125 297.71875 C 276.371094 297.691406 276.410156 297.667969 276.453125 297.640625 C 276.507812 297.605469 276.5625 297.574219 276.613281 297.542969 C 276.652344 297.515625 276.691406 297.496094 276.726562 297.472656 C 276.773438 297.445312 276.820312 297.417969 276.863281 297.390625 C 276.894531 297.371094 276.925781 297.355469 276.953125 297.335938 C 276.992188 297.3125 277.03125 297.292969 277.066406 297.269531 C 277.089844 297.257812 277.117188 297.242188 277.136719 297.230469 C 277.167969 297.210938 277.195312 297.195312 277.222656 297.179688 C 277.238281 297.171875 277.253906 297.160156 277.269531 297.152344 C 277.300781 297.136719 277.324219 297.121094 277.34375 297.109375 C 277.34375 297.109375 277.347656 297.109375 277.347656 297.109375 C 277.367188 297.097656 277.378906 297.089844 277.378906 297.089844 C 277.378906 297.089844 281.085938 295.050781 286.078125 298.527344 L 297.808594 295.121094 C 298.03125 297.441406 298.242188 299.496094 298.402344 301.167969 C 298.410156 301.234375 298.417969 301.296875 298.421875 301.359375 C 298.449219 301.636719 298.476562 301.910156 298.5 302.164062 C 298.515625 302.316406 298.527344 302.457031 298.542969 302.597656 C 298.558594 302.765625 298.574219 302.9375 298.585938 303.09375 C 298.601562 303.277344 298.617188 303.441406 298.632812 303.609375 C 298.640625 303.707031 298.648438 303.816406 298.65625 303.910156 C 298.675781 304.15625 298.695312 304.382812 298.707031 304.578125 Z M 258.851562 304.289062 C 258.84375 304.195312 258.835938 304.082031 258.824219 303.980469 C 258.8125 303.816406 258.796875 303.65625 258.78125 303.472656 C 258.769531 303.316406 258.75 303.140625 258.734375 302.972656 C 258.722656 302.832031 258.710938 302.691406 258.695312 302.542969 C 258.671875 302.285156 258.644531 302.011719 258.617188 301.730469 C 258.609375 301.667969 258.605469 301.609375 258.601562 301.546875 C 258.4375 299.878906 258.226562 297.824219 258.003906 295.5 L 246.269531 298.90625 C 241.28125 295.425781 237.574219 297.46875 237.574219 297.46875 C 237.574219 297.46875 237.53125 297.492188 237.457031 297.535156 C 237.449219 297.539062 237.441406 297.546875 237.429688 297.550781 C 237.398438 297.566406 237.367188 297.585938 237.324219 297.609375 C 237.308594 297.621094 237.289062 297.632812 237.269531 297.644531 C 237.230469 297.667969 237.1875 297.691406 237.136719 297.71875 C 237.113281 297.734375 237.089844 297.75 237.0625 297.765625 C 237.015625 297.792969 236.964844 297.824219 236.910156 297.855469 C 236.878906 297.875 236.847656 297.894531 236.8125 297.917969 C 236.753906 297.953125 236.691406 297.988281 236.628906 298.027344 C 236.59375 298.050781 236.5625 298.070312 236.527344 298.089844 C 236.433594 298.148438 236.335938 298.210938 236.234375 298.277344 C 236.222656 298.28125 236.214844 298.289062 236.207031 298.292969 C 236.097656 298.363281 235.980469 298.4375 235.859375 298.519531 C 235.8125 298.546875 235.761719 298.582031 235.714844 298.613281 C 235.636719 298.664062 235.558594 298.714844 235.476562 298.769531 C 235.421875 298.808594 235.363281 298.847656 235.308594 298.886719 C 235.230469 298.9375 235.148438 298.992188 235.070312 299.046875 C 235.007812 299.089844 234.945312 299.132812 234.882812 299.175781 C 234.800781 299.234375 234.71875 299.289062 234.636719 299.347656 C 234.574219 299.394531 234.507812 299.441406 234.4375 299.492188 C 234.351562 299.550781 234.265625 299.617188 234.175781 299.679688 C 234.113281 299.726562 234.046875 299.773438 233.980469 299.824219 C 233.886719 299.894531 233.792969 299.964844 233.695312 300.035156 C 233.632812 300.085938 233.570312 300.132812 233.507812 300.179688 C 233.386719 300.269531 233.269531 300.363281 233.148438 300.457031 C 233.105469 300.492188 233.066406 300.523438 233.023438 300.554688 C 233.023438 300.554688 233.019531 300.558594 233.019531 300.558594 C 235.136719 300.125 240.660156 298.320312 243.320312 301.777344 C 243.320312 301.777344 239.992188 304.878906 234.625 303.972656 C 232.917969 303.683594 231.640625 303.164062 230.6875 302.597656 C 229.832031 303.425781 229.019531 304.328125 228.324219 305.289062 C 228.300781 305.324219 228.273438 305.359375 228.25 305.390625 C 228.035156 305.691406 227.835938 305.996094 227.648438 306.308594 C 227.625 306.339844 227.609375 306.375 227.589844 306.40625 C 227.40625 306.71875 227.234375 307.03125 227.082031 307.351562 C 227.078125 307.359375 227.070312 307.371094 227.066406 307.382812 C 226.917969 307.695312 226.792969 308.015625 226.679688 308.335938 C 226.660156 308.390625 226.640625 308.449219 226.621094 308.507812 C 226.519531 308.820312 226.4375 309.132812 226.371094 309.453125 C 226.359375 309.507812 226.351562 309.566406 226.34375 309.625 C 226.285156 309.957031 226.242188 310.289062 226.230469 310.625 C 226.199219 311.617188 226.980469 312.25 228.320312 312.597656 C 228.855469 312.738281 229.480469 312.832031 230.179688 312.882812 C 230.355469 312.894531 230.535156 312.90625 230.71875 312.914062 C 231.269531 312.9375 231.859375 312.9375 232.480469 312.921875 C 232.894531 312.90625 233.324219 312.886719 233.761719 312.855469 C 234.644531 312.796875 235.574219 312.703125 236.539062 312.582031 C 237.019531 312.519531 237.507812 312.449219 238.003906 312.375 C 238.996094 312.222656 240.011719 312.046875 241.035156 311.847656 C 241.289062 311.796875 241.546875 311.746094 241.804688 311.695312 C 242.832031 311.484375 243.859375 311.253906 244.878906 311.007812 C 245.132812 310.945312 245.386719 310.882812 245.640625 310.820312 C 252.71875 309.042969 259 306.542969 258.902344 304.953125 C 258.902344 304.953125 258.902344 304.949219 258.902344 304.949219 C 258.886719 304.753906 258.871094 304.53125 258.851562 304.289062 Z M 270.53125 165.695312 C 271.128906 166.847656 271.515625 168.023438 271.839844 169.199219 C 272.128906 170.308594 272.355469 171.410156 272.539062 172.515625 C 272.707031 172.429688 272.875 172.34375 273.03125 172.25 C 273.136719 172.1875 273.234375 172.121094 273.335938 172.054688 C 273.496094 171.953125 273.652344 171.84375 273.796875 171.734375 C 273.894531 171.660156 273.992188 171.582031 274.085938 171.503906 C 274.222656 171.390625 274.355469 171.269531 274.484375 171.148438 C 274.570312 171.066406 274.65625 170.984375 274.738281 170.902344 C 274.867188 170.769531 274.984375 170.636719 275.101562 170.5 C 275.171875 170.417969 275.246094 170.335938 275.3125 170.25 C 275.4375 170.09375 275.550781 169.933594 275.660156 169.769531 C 275.710938 169.695312 275.765625 169.625 275.8125 169.550781 C 276.121094 169.070312 276.386719 168.558594 276.609375 168.03125 C 276.640625 167.957031 276.664062 167.882812 276.695312 167.808594 C 276.773438 167.617188 276.847656 167.417969 276.914062 167.21875 C 276.945312 167.128906 276.972656 167.039062 277 166.949219 C 277.058594 166.761719 277.113281 166.570312 277.164062 166.378906 C 277.1875 166.285156 277.210938 166.195312 277.234375 166.105469 C 277.28125 165.90625 277.324219 165.707031 277.367188 165.507812 C 277.382812 165.421875 277.398438 165.339844 277.414062 165.253906 C 277.453125 165.035156 277.488281 164.8125 277.519531 164.589844 C 277.527344 164.527344 277.539062 164.46875 277.546875 164.40625 C 277.582031 164.125 277.613281 163.84375 277.636719 163.566406 C 277.636719 163.5625 277.636719 163.558594 277.636719 163.558594 C 277.710938 162.65625 277.722656 161.761719 277.691406 160.90625 C 275.152344 160.722656 271.492188 161.035156 269.117188 163.746094 C 269.207031 163.835938 269.300781 163.921875 269.382812 164.015625 C 269.867188 164.546875 270.226562 165.117188 270.53125 165.695312 Z M 270.53125 165.695312 " fill-opacity="1" fill-rule="nonzero"/><g clip-path="url(#2b119ebcc6)"><path fill="#141414" d="M 357.136719 147.957031 C 356.203125 160.566406 337.625 160.210938 337.625 160.210938 C 337.625 160.210938 346.765625 170.496094 339.894531 175.863281 C 332.636719 181.535156 322.652344 173.820312 322.652344 173.820312 C 322.652344 173.820312 324.46875 188.339844 311.082031 189.929688 C 309.417969 190.125 307.863281 190.078125 306.410156 189.84375 C 304.015625 183.683594 300.777344 178.667969 296.421875 175.652344 C 302.363281 172.515625 307.746094 168.433594 312.214844 163.542969 C 314.363281 163.191406 328.058594 160.578125 335.199219 149.742188 C 340.546875 141.636719 338.058594 130.128906 330.207031 126.675781 C 329.75 126.472656 329.277344 126.292969 328.78125 126.148438 C 315.027344 122.132812 308.019531 136.941406 308.015625 136.941406 C 291.417969 129.710938 285.597656 111.507812 285.597656 111.507812 C 285.597656 111.507812 289.679688 125.421875 283.023438 127.386719 C 275.019531 129.753906 269.539062 119.898438 268.824219 117.792969 C 269.660156 120.597656 269.714844 130.414062 263.058594 131.167969 C 246.828125 133.015625 243.246094 97.289062 243.246094 97.289062 C 243.246094 97.289062 237.8125 119.304688 217.585938 132.164062 C 216.996094 148.652344 222.945312 164.738281 236.371094 173.828125 C 239.347656 175.84375 242.480469 177.488281 245.710938 178.816406 C 245.734375 178.855469 245.757812 178.894531 245.78125 178.933594 C 246.050781 179.328125 246.335938 179.710938 246.636719 180.078125 C 242.8125 180.617188 237.894531 183.527344 233.777344 186.441406 C 229.945312 186.847656 226.015625 186.535156 223.28125 184.484375 C 216.023438 179.039062 220.105469 170.191406 220.105469 170.191406 C 220.105469 170.191406 209.441406 174.5 204.90625 168.601562 C 200.183594 162.464844 209.214844 153.402344 209.214844 153.402344 C 209.214844 153.402344 196.738281 152.269531 196.964844 141.832031 C 197.195312 131.160156 209.882812 128.191406 209.882812 128.191406 C 209.882812 128.191406 215.4375 93.808594 239.300781 78.957031 C 266.527344 62.019531 297.988281 64.136719 319.164062 82.890625 C 342.574219 103.628906 341.246094 130.382812 341.246094 130.382812 C 341.246094 130.382812 358.046875 135.707031 357.136719 147.957031 Z M 233.203125 127.683594 C 228.921875 129.035156 225.8125 131.289062 226.265625 132.714844 C 226.714844 134.136719 230.550781 134.195312 234.835938 132.839844 C 239.117188 131.488281 242.226562 129.234375 241.777344 127.808594 C 241.324219 126.386719 237.488281 126.328125 233.203125 127.683594 Z M 233.203125 127.683594 " fill-opacity="1" fill-rule="nonzero"/></g><path fill="#fb6ea4" d="M 311.308594 263.664062 L 229.9375 263.664062 C 229.9375 263.664062 229.40625 254.816406 231.222656 245.96875 C 232.382812 240.304688 237.539062 231.949219 241.695312 224.289062 C 244.332031 224.558594 246.121094 224.640625 246.121094 224.640625 C 246.121094 224.640625 251.261719 236.4375 255.648438 235.230469 C 260.035156 234.019531 255.347656 224.945312 255.347656 224.945312 C 255.347656 224.945312 261.851562 233.414062 265.78125 230.84375 C 269.425781 228.460938 263.078125 222.058594 262.121094 221.128906 C 262.996094 221.960938 268.472656 227.003906 270.699219 224.640625 C 271.796875 223.472656 270.457031 220.339844 268.078125 217.109375 C 269.316406 218.070312 270.675781 218.703125 272.171875 218.855469 C 280.941406 219.765625 285.105469 216.132812 290.890625 209.667969 L 275.160156 186.527344 C 277.273438 185.152344 279.292969 183.625 281.167969 181.910156 C 281.4375 181.660156 281.695312 181.390625 281.957031 181.128906 C 286.992188 179.890625 291.871094 178.054688 296.421875 175.652344 C 300.777344 178.667969 304.019531 183.683594 306.410156 189.84375 C 316.667969 216.269531 311.308594 263.664062 311.308594 263.664062 Z M 242.433594 206.042969 C 242.4375 206.042969 242.441406 206.046875 242.445312 206.046875 C 242.480469 206.046875 242.523438 206.050781 242.582031 206.054688 C 242.636719 206.058594 242.691406 206.066406 242.761719 206.070312 C 242.773438 206.070312 242.789062 206.070312 242.800781 206.074219 C 242.875 206.078125 242.960938 206.085938 243.050781 206.09375 C 243.074219 206.097656 243.097656 206.097656 243.125 206.101562 C 243.242188 206.109375 243.363281 206.121094 243.503906 206.132812 C 243.644531 206.144531 243.792969 206.160156 243.953125 206.171875 C 243.96875 206.175781 243.984375 206.175781 244 206.179688 C 245.539062 206.320312 247.980469 206.578125 250.636719 206.976562 C 250.640625 206.976562 250.648438 206.976562 250.652344 206.980469 C 250.941406 207.023438 251.230469 207.066406 251.519531 207.113281 C 253.492188 207.429688 255.539062 207.824219 257.386719 208.308594 C 259.601562 208.886719 262.1875 210.738281 264.507812 213.011719 C 259.125 204.5625 257.160156 190.007812 257.160156 190.007812 C 257.160156 190.007812 256.464844 189.464844 255.414062 188.589844 C 253.828125 187.265625 251.429688 185.167969 249.320312 182.933594 C 248.382812 182.03125 247.460938 181.101562 246.632812 180.078125 C 242.8125 180.621094 237.894531 183.527344 233.777344 186.441406 C 229.226562 189.664062 225.664062 192.878906 225.664062 192.878906 L 228.515625 195.132812 L 242.335938 206.039062 C 242.339844 206.039062 242.378906 206.039062 242.433594 206.042969 Z M 242.433594 206.042969 " fill-opacity="1" fill-rule="nonzero"/><path fill="#342d2a" d="M 277.699219 162.335938 C 277.6875 162.742188 277.671875 163.148438 277.636719 163.558594 C 277.671875 163.148438 277.6875 162.742188 277.699219 162.335938 Z M 277.695312 160.945312 C 277.707031 161.324219 277.710938 161.714844 277.703125 162.109375 C 277.710938 161.714844 277.707031 161.328125 277.695312 160.945312 Z M 277.691406 160.90625 C 277.691406 160.917969 277.691406 160.933594 277.695312 160.945312 C 277.691406 160.933594 277.695312 160.917969 277.691406 160.90625 Z M 277.699219 162.335938 C 277.699219 162.261719 277.703125 162.183594 277.703125 162.109375 C 277.703125 162.183594 277.699219 162.261719 277.699219 162.335938 Z M 275.8125 169.550781 C 276.121094 169.070312 276.386719 168.558594 276.609375 168.03125 C 276.386719 168.558594 276.121094 169.070312 275.8125 169.550781 Z M 282.664062 172.078125 C 281.195312 171.828125 279.855469 172.101562 278.582031 172.4375 C 276.554688 173.015625 274.675781 173.832031 272.84375 174.789062 C 272.761719 174.027344 272.664062 173.273438 272.539062 172.519531 C 272.707031 172.433594 272.875 172.34375 273.03125 172.25 C 272.875 172.34375 272.707031 172.429688 272.539062 172.515625 C 272.355469 171.410156 272.128906 170.308594 271.839844 169.199219 C 271.515625 168.023438 271.125 166.847656 270.53125 165.695312 C 270.226562 165.117188 269.867188 164.546875 269.382812 164.015625 C 269.300781 163.921875 269.207031 163.835938 269.117188 163.746094 C 271.492188 161.035156 275.152344 160.722656 277.691406 160.90625 C 277.570312 157.496094 276.796875 154.742188 276.796875 154.742188 C 267.972656 162.851562 252.515625 162.753906 252.515625 162.753906 C 252.515625 162.753906 252.8125 163.523438 253.417969 164.652344 C 253.253906 164.761719 253.097656 164.882812 252.949219 165.007812 C 252.359375 165.570312 251.964844 166.28125 251.773438 166.972656 C 251.363281 168.375 251.511719 169.671875 251.695312 170.902344 C 251.910156 172.097656 252.21875 173.238281 252.597656 174.351562 C 252.125 174.003906 251.632812 173.671875 251.101562 173.382812 C 250.261719 172.945312 249.320312 172.59375 248.292969 172.578125 C 247.273438 172.554688 246.234375 172.96875 245.515625 173.636719 C 245.148438 173.925781 244.78125 174.398438 244.617188 174.910156 C 244.46875 175.433594 244.5 175.953125 244.59375 176.433594 C 244.804688 177.335938 245.242188 178.097656 245.710938 178.820312 C 245.734375 178.855469 245.757812 178.894531 245.78125 178.933594 C 246.050781 179.328125 246.335938 179.710938 246.632812 180.078125 C 247.460938 181.101562 248.382812 182.03125 249.320312 182.933594 C 248.183594 181.578125 247.09375 180.167969 246.246094 178.648438 C 245.832031 177.890625 245.472656 177.089844 245.359375 176.292969 C 245.3125 175.898438 245.328125 175.515625 245.449219 175.191406 C 245.597656 174.871094 245.792969 174.625 246.136719 174.386719 C 246.757812 173.902344 247.496094 173.679688 248.246094 173.75 C 248.996094 173.8125 249.75 174.121094 250.445312 174.542969 C 251.839844 175.398438 253.085938 176.660156 254.09375 177.957031 C 254.316406 178.242188 254.707031 178.355469 255.058594 178.210938 C 255.476562 178.035156 255.671875 177.554688 255.5 177.136719 L 255.484375 177.101562 C 254.617188 175.027344 253.898438 172.792969 253.613281 170.621094 C 253.484375 169.546875 253.460938 168.433594 253.746094 167.578125 C 253.878906 167.144531 254.101562 166.820312 254.363281 166.574219 C 254.671875 166.359375 254.964844 166.160156 255.277344 166.195312 C 255.902344 166.179688 256.789062 166.726562 257.519531 167.472656 C 258.269531 168.210938 258.941406 169.101562 259.578125 170.019531 C 260.214844 170.945312 260.800781 171.921875 261.351562 172.921875 L 262.882812 175.96875 L 262.894531 175.996094 C 263.125 176.449219 263.628906 176.722656 264.15625 176.636719 C 264.804688 176.527344 265.242188 175.914062 265.132812 175.265625 C 264.765625 173.070312 264.554688 170.753906 264.644531 168.578125 C 264.710938 167.515625 264.859375 166.40625 265.25 165.65625 C 265.4375 165.277344 265.660156 165.039062 265.871094 164.941406 C 266.082031 164.851562 266.441406 164.832031 266.742188 164.929688 C 267.367188 165.101562 268.019531 165.878906 268.519531 166.777344 C 269.019531 167.6875 269.402344 168.730469 269.722656 169.796875 C 270.351562 171.9375 270.742188 174.234375 270.980469 176.464844 L 270.984375 176.507812 C 271 176.652344 271.046875 176.792969 271.128906 176.925781 C 271.421875 177.398438 272.039062 177.542969 272.511719 177.25 C 274.558594 175.976562 276.792969 174.808594 279.0625 174.066406 C 280.191406 173.714844 281.378906 173.429688 282.417969 173.554688 C 282.929688 173.625 283.367188 173.808594 283.679688 174.121094 C 284.003906 174.453125 284.183594 174.863281 284.191406 175.359375 C 284.1875 176.375 283.601562 177.5 282.957031 178.503906 C 282.285156 179.519531 281.488281 180.472656 280.644531 181.386719 C 278.957031 183.21875 277.097656 184.921875 275.160156 186.527344 C 277.269531 185.152344 279.289062 183.625 281.167969 181.910156 C 281.4375 181.660156 281.695312 181.390625 281.957031 181.128906 C 282.597656 180.488281 283.222656 179.824219 283.789062 179.097656 C 284.183594 178.578125 284.550781 178.03125 284.863281 177.429688 C 285.175781 176.828125 285.425781 176.15625 285.46875 175.390625 C 285.519531 174.628906 285.234375 173.773438 284.699219 173.183594 C 284.164062 172.5625 283.382812 172.210938 282.664062 172.078125 Z M 247.5625 152.789062 C 248.113281 153.792969 248.851562 154.585938 249.652344 155.234375 C 251.253906 156.535156 253.0625 157.429688 255 157.882812 C 253.546875 156.546875 252.128906 155.273438 250.984375 153.886719 C 249.808594 152.527344 249.058594 150.988281 249.300781 149.726562 C 249.429688 149.109375 249.75 148.644531 250.355469 148.234375 C 250.960938 147.832031 251.78125 147.546875 252.640625 147.34375 C 254.382812 146.929688 256.289062 146.792969 258.253906 146.613281 C 256.4375 145.804688 254.464844 145.402344 252.390625 145.46875 C 251.355469 145.523438 250.269531 145.703125 249.203125 146.265625 C 248.675781 146.546875 248.167969 146.953125 247.753906 147.472656 C 247.507812 147.785156 247.316406 148.140625 247.171875 148.507812 C 246.65625 147.632812 246.003906 146.820312 245.261719 146.101562 C 244.480469 145.367188 243.585938 144.738281 242.628906 144.238281 C 242.386719 144.117188 242.144531 143.988281 241.898438 143.875 C 241.632812 143.773438 241.363281 143.652344 241.089844 143.570312 C 240.542969 143.378906 239.976562 143.269531 239.417969 143.1875 C 237.15625 142.890625 234.976562 143.359375 233.066406 144.183594 C 231.160156 145.023438 229.4375 146.203125 228.121094 147.808594 C 230.132812 147.375 231.988281 146.929688 233.808594 146.625 C 235.625 146.328125 237.382812 146.171875 239.003906 146.367188 C 239.414062 146.410156 239.804688 146.5 240.195312 146.585938 C 240.390625 146.628906 240.574219 146.695312 240.769531 146.75 C 240.96875 146.832031 241.175781 146.898438 241.382812 146.972656 C 242.1875 147.289062 243 147.632812 243.773438 148.082031 C 244.832031 148.679688 245.859375 149.398438 246.859375 150.242188 C 246.878906 151.167969 247.15625 152.058594 247.5625 152.789062 Z M 288.171875 137.246094 C 285.699219 136.769531 283.144531 136.542969 280.511719 136.875 C 279.199219 137.046875 277.863281 137.363281 276.5625 137.96875 C 276.238281 138.109375 275.910156 138.304688 275.613281 138.480469 L 274.773438 139.050781 C 274.242188 139.472656 273.714844 139.898438 273.253906 140.398438 C 271.394531 142.335938 270.148438 144.976562 270.390625 147.585938 C 271.738281 145.417969 273.335938 143.792969 275.117188 142.5 C 275.5625 142.175781 276.023438 141.878906 276.492188 141.601562 L 277.203125 141.191406 C 277.4375 141.078125 277.644531 140.964844 277.878906 140.867188 C 278.8125 140.46875 279.867188 140.191406 280.972656 140.015625 C 283.1875 139.648438 285.550781 139.578125 287.941406 139.566406 L 295.277344 139.640625 C 293.035156 138.496094 290.636719 137.742188 288.171875 137.246094 Z M 288.171875 137.246094 " fill-opacity="1" fill-rule="nonzero"/><path fill="#f8a680" d="M 177.5625 181.796875 C 172.910156 183.554688 169.203125 183.582031 167.382812 183.433594 C 168.722656 190.714844 170.542969 198.6875 173.121094 207.558594 C 173.121094 207.558594 157.582031 219.816406 120.808594 222.472656 L 121.601562 239.535156 L 130.039062 247.972656 C 133.613281 251.839844 138.375 256.503906 141.132812 259.164062 C 141.59375 259.148438 141.921875 259.1875 141.921875 259.1875 C 141.921875 259.1875 141.144531 255.410156 144.03125 255.410156 C 146.1875 255.410156 147.289062 258.507812 147.710938 260.074219 C 147.710938 260.074219 147.710938 260.074219 147.714844 260.074219 C 147.90625 260.023438 148.109375 259.976562 148.3125 259.925781 C 148.402344 259.90625 148.496094 259.882812 148.585938 259.859375 C 148.742188 259.824219 148.894531 259.789062 149.054688 259.75 C 149.132812 259.734375 149.214844 259.714844 149.292969 259.695312 C 149.519531 259.644531 149.746094 259.59375 149.976562 259.546875 C 150.054688 259.527344 150.132812 259.511719 150.214844 259.496094 C 150.394531 259.457031 150.574219 259.417969 150.757812 259.382812 C 150.835938 259.367188 150.914062 259.351562 150.992188 259.335938 C 151.234375 259.285156 151.480469 259.238281 151.726562 259.195312 C 151.789062 259.183594 151.855469 259.171875 151.917969 259.160156 C 152.121094 259.121094 152.320312 259.085938 152.523438 259.054688 C 152.597656 259.042969 152.671875 259.027344 152.746094 259.015625 C 153 258.976562 153.253906 258.933594 153.507812 258.898438 C 153.554688 258.890625 153.597656 258.886719 153.644531 258.878906 C 153.863281 258.847656 154.078125 258.820312 154.296875 258.792969 C 154.367188 258.785156 154.4375 258.777344 154.507812 258.765625 C 154.765625 258.738281 155.019531 258.710938 155.269531 258.683594 C 155.289062 258.683594 155.304688 258.683594 155.320312 258.679688 C 155.558594 258.660156 155.792969 258.640625 156.023438 258.625 C 156.089844 258.621094 156.15625 258.617188 156.222656 258.613281 C 156.449219 258.601562 156.679688 258.589844 156.902344 258.582031 C 156.921875 258.582031 156.9375 258.582031 156.957031 258.582031 C 157.195312 258.574219 157.425781 258.574219 157.65625 258.578125 C 157.714844 258.582031 157.773438 258.582031 157.832031 258.582031 C 158.027344 258.585938 158.222656 258.597656 158.410156 258.609375 C 158.445312 258.609375 158.480469 258.613281 158.511719 258.613281 C 158.726562 258.628906 158.933594 258.652344 159.136719 258.679688 C 159.1875 258.683594 159.234375 258.691406 159.28125 258.699219 C 159.449219 258.722656 159.609375 258.75 159.769531 258.785156 C 159.808594 258.792969 159.847656 258.800781 159.886719 258.808594 C 160.070312 258.847656 160.246094 258.898438 160.414062 258.949219 C 160.449219 258.960938 160.484375 258.976562 160.519531 258.988281 C 160.65625 259.035156 160.789062 259.085938 160.914062 259.140625 C 160.949219 259.15625 160.984375 259.171875 161.019531 259.191406 C 161.164062 259.261719 161.300781 259.335938 161.429688 259.421875 C 161.453125 259.4375 161.472656 259.453125 161.492188 259.46875 C 161.597656 259.542969 161.695312 259.625 161.78125 259.710938 C 161.808594 259.734375 161.835938 259.761719 161.863281 259.789062 C 161.960938 259.890625 162.054688 260 162.128906 260.121094 C 162.136719 260.136719 162.144531 260.152344 162.152344 260.164062 C 162.21875 260.277344 162.273438 260.394531 162.320312 260.515625 C 162.335938 260.550781 162.347656 260.585938 162.359375 260.625 C 162.40625 260.769531 162.441406 260.917969 162.460938 261.078125 C 162.480469 261.257812 162.480469 261.449219 162.460938 261.65625 C 162.425781 262.0625 162.308594 262.519531 162.125 263.011719 C 162.03125 263.261719 161.921875 263.515625 161.796875 263.78125 C 161.496094 264.417969 161.089844 265.105469 160.621094 265.828125 C 160.390625 266.183594 160.140625 266.550781 159.871094 266.921875 C 159.679688 267.191406 159.480469 267.460938 159.269531 267.734375 C 158.996094 268.09375 158.707031 268.460938 158.410156 268.832031 C 158.058594 269.257812 157.699219 269.691406 157.320312 270.128906 C 156.113281 271.527344 154.765625 272.957031 153.355469 274.347656 C 152.996094 274.703125 152.632812 275.054688 152.265625 275.402344 C 151.628906 276.011719 150.980469 276.609375 150.335938 277.1875 C 149.253906 278.15625 148.171875 279.078125 147.125 279.921875 C 146.105469 280.738281 145.117188 281.480469 144.191406 282.125 C 143.269531 282.765625 142.40625 283.308594 141.632812 283.722656 C 140.351562 284.414062 139.324219 284.753906 138.699219 284.613281 C 138.632812 284.601562 138.554688 284.574219 138.46875 284.539062 C 138.441406 284.527344 138.414062 284.515625 138.386719 284.503906 C 138.320312 284.476562 138.25 284.445312 138.175781 284.40625 C 138.140625 284.390625 138.105469 284.371094 138.070312 284.351562 C 137.984375 284.308594 137.890625 284.257812 137.792969 284.199219 C 137.765625 284.183594 137.742188 284.171875 137.714844 284.15625 C 137.585938 284.082031 137.449219 283.996094 137.304688 283.902344 C 137.277344 283.886719 137.25 283.867188 137.222656 283.851562 C 137.097656 283.769531 136.972656 283.6875 136.835938 283.597656 C 136.792969 283.566406 136.746094 283.535156 136.699219 283.503906 C 136.570312 283.417969 136.4375 283.324219 136.296875 283.226562 C 136.257812 283.199219 136.21875 283.171875 136.175781 283.140625 C 135.804688 282.878906 135.402344 282.585938 134.976562 282.265625 C 134.941406 282.242188 134.910156 282.214844 134.875 282.191406 C 134.691406 282.050781 134.5 281.90625 134.304688 281.757812 C 134.261719 281.722656 134.21875 281.691406 134.175781 281.660156 C 133.957031 281.492188 133.734375 281.320312 133.507812 281.140625 C 133.496094 281.136719 133.488281 281.128906 133.480469 281.121094 C 132.976562 280.730469 132.445312 280.308594 131.894531 279.871094 C 131.871094 279.851562 131.84375 279.828125 131.820312 279.808594 C 131.5625 279.605469 131.304688 279.394531 131.039062 279.179688 C 131.019531 279.164062 131 279.148438 130.980469 279.132812 C 130.566406 278.796875 130.144531 278.453125 129.714844 278.097656 C 129.585938 277.992188 129.453125 277.882812 129.320312 277.773438 C 129.019531 277.523438 128.714844 277.273438 128.402344 277.015625 C 128.347656 276.96875 128.292969 276.925781 128.238281 276.878906 C 122.625 272.210938 115.871094 266.300781 110.65625 261.679688 L 104.28125 266.1875 L 95.398438 256.191406 L 98.753906 269.820312 L 98.949219 270.625 C 100.03125 276.023438 82.753906 288.117188 76.152344 292.519531 C 76.035156 293.214844 75.855469 293.722656 75.855469 293.722656 C 75.855469 293.722656 78.820312 293.792969 78.742188 296.273438 C 78.6875 298.097656 76.738281 298.820312 74.792969 299.085938 C 74.847656 299.390625 74.90625 299.699219 74.960938 300.015625 C 74.96875 300.058594 74.976562 300.101562 74.984375 300.140625 C 75.035156 300.457031 75.089844 300.773438 75.136719 301.097656 C 75.140625 301.109375 75.140625 301.121094 75.144531 301.132812 C 75.195312 301.476562 75.246094 301.828125 75.289062 302.179688 C 75.292969 302.199219 75.292969 302.21875 75.296875 302.238281 C 75.335938 302.546875 75.371094 302.859375 75.402344 303.167969 C 75.410156 303.25 75.417969 303.328125 75.425781 303.40625 C 75.449219 303.675781 75.472656 303.941406 75.492188 304.207031 C 75.496094 304.285156 75.503906 304.363281 75.507812 304.441406 C 75.53125 304.777344 75.546875 305.113281 75.558594 305.445312 C 75.558594 305.449219 75.558594 305.453125 75.558594 305.457031 C 75.566406 305.773438 75.566406 306.089844 75.5625 306.398438 C 75.5625 306.492188 75.558594 306.578125 75.558594 306.667969 C 75.550781 306.898438 75.542969 307.125 75.527344 307.347656 C 75.523438 307.445312 75.515625 307.539062 75.507812 307.632812 C 75.488281 307.882812 75.460938 308.128906 75.429688 308.371094 C 75.421875 308.421875 75.417969 308.46875 75.414062 308.519531 C 75.371094 308.800781 75.320312 309.074219 75.261719 309.335938 C 75.246094 309.410156 75.226562 309.480469 75.207031 309.550781 C 75.160156 309.742188 75.105469 309.925781 75.046875 310.105469 C 75.023438 310.1875 74.996094 310.265625 74.964844 310.34375 C 74.902344 310.519531 74.828125 310.683594 74.753906 310.84375 C 74.726562 310.902344 74.699219 310.964844 74.671875 311.023438 C 74.5625 311.230469 74.441406 311.421875 74.308594 311.601562 C 74.28125 311.636719 74.25 311.667969 74.222656 311.703125 C 74.113281 311.839844 73.996094 311.96875 73.867188 312.085938 C 73.816406 312.132812 73.761719 312.175781 73.707031 312.222656 C 73.585938 312.316406 73.457031 312.40625 73.324219 312.480469 C 73.269531 312.515625 73.210938 312.550781 73.152344 312.582031 C 72.957031 312.675781 72.75 312.761719 72.523438 312.816406 C 71.691406 313.027344 70.359375 312.5 68.746094 311.46875 C 68.210938 311.128906 67.640625 310.726562 67.050781 310.28125 C 63.796875 307.824219 59.847656 303.929688 56.554688 300.015625 C 55.359375 298.59375 54.25 297.167969 53.292969 295.804688 C 52.8125 295.125 52.371094 294.460938 51.976562 293.824219 C 51.582031 293.183594 51.234375 292.570312 50.9375 291.988281 C 50.753906 291.625 50.589844 291.277344 50.453125 290.941406 C 50.03125 289.9375 49.824219 289.066406 49.875 288.390625 C 49.882812 288.289062 49.90625 288.175781 49.9375 288.058594 C 49.945312 288.023438 49.960938 287.980469 49.972656 287.945312 C 50 287.859375 50.03125 287.769531 50.070312 287.679688 C 50.089844 287.632812 50.109375 287.585938 50.132812 287.539062 C 50.175781 287.445312 50.222656 287.347656 50.277344 287.246094 C 50.300781 287.199219 50.324219 287.15625 50.351562 287.109375 C 50.429688 286.964844 50.519531 286.820312 50.617188 286.667969 C 50.621094 286.660156 50.625 286.652344 50.628906 286.644531 C 50.734375 286.484375 50.851562 286.316406 50.976562 286.144531 C 51.011719 286.089844 51.054688 286.035156 51.09375 285.980469 C 51.1875 285.855469 51.28125 285.730469 51.382812 285.601562 C 51.433594 285.535156 51.484375 285.472656 51.535156 285.40625 C 51.640625 285.273438 51.75 285.140625 51.863281 285.003906 C 51.914062 284.941406 51.960938 284.882812 52.011719 284.820312 C 52.171875 284.632812 52.339844 284.441406 52.511719 284.242188 C 52.519531 284.234375 52.527344 284.222656 52.539062 284.214844 C 52.722656 284.003906 52.917969 283.789062 53.121094 283.570312 C 53.179688 283.507812 53.238281 283.445312 53.296875 283.378906 C 53.449219 283.21875 53.597656 283.058594 53.753906 282.894531 C 53.824219 282.820312 53.898438 282.746094 53.96875 282.671875 C 54.128906 282.503906 54.296875 282.332031 54.464844 282.164062 C 54.53125 282.097656 54.59375 282.03125 54.660156 281.964844 C 54.886719 281.738281 55.117188 281.503906 55.359375 281.269531 C 55.367188 281.257812 55.375 281.25 55.382812 281.242188 C 55.636719 280.992188 55.898438 280.738281 56.164062 280.484375 C 56.226562 280.421875 56.292969 280.363281 56.355469 280.300781 C 56.558594 280.105469 56.769531 279.90625 56.980469 279.707031 C 57.058594 279.632812 57.140625 279.554688 57.21875 279.480469 C 57.429688 279.285156 57.640625 279.089844 57.851562 278.890625 C 57.929688 278.820312 58.003906 278.746094 58.082031 278.675781 C 58.367188 278.414062 58.65625 278.148438 58.949219 277.882812 C 58.949219 277.882812 58.949219 277.882812 58.953125 277.878906 C 61.617188 275.453125 64.644531 272.851562 67.71875 270.289062 L 58.09375 270.183594 L 56.167969 244.839844 C 52.890625 244.105469 50.984375 243.535156 50.984375 243.535156 C 50.984375 243.535156 49.566406 235.472656 54.527344 217.5 C 46.691406 214.484375 38.417969 208.859375 33.371094 198.382812 C 21.527344 173.804688 16.960938 116.558594 53.378906 88.132812 C 86.953125 61.929688 137.757812 74.753906 155.082031 109.007812 C 161.746094 122.1875 162.441406 134.355469 163.507812 149.914062 C 168.171875 148 171.933594 152.042969 171.933594 152.042969 C 171.933594 152.042969 178.703125 145.941406 182.445312 150.710938 C 184.777344 153.679688 182.839844 156.902344 182.839844 156.902344 C 182.839844 156.902344 186 155.742188 187.332031 159.742188 C 188.515625 163.292969 186.253906 166.25 186.253906 166.25 C 192.003906 171.101562 184.222656 179.28125 177.5625 181.796875 Z M 177.5625 181.796875 " fill-opacity="1" fill-rule="nonzero"/><path fill="#f63845" d="M 75.859375 293.714844 C 75.859375 293.714844 76.035156 293.210938 76.152344 292.515625 C 76.335938 291.402344 76.355469 289.808594 75.191406 289.054688 C 73.640625 288.050781 71.929688 289.21875 70.550781 290.734375 L 58.953125 277.875 C 58.953125 277.875 58.949219 277.875 58.949219 277.878906 C 58.65625 278.144531 58.367188 278.410156 58.082031 278.671875 C 58.007812 278.742188 57.929688 278.8125 57.851562 278.882812 C 57.640625 279.082031 57.429688 279.28125 57.222656 279.476562 C 57.140625 279.550781 57.0625 279.625 56.980469 279.703125 C 56.769531 279.902344 56.558594 280.101562 56.355469 280.296875 C 56.292969 280.355469 56.226562 280.417969 56.164062 280.476562 C 55.898438 280.734375 55.636719 280.988281 55.386719 281.238281 C 55.375 281.246094 55.367188 281.253906 55.359375 281.261719 C 55.121094 281.5 54.886719 281.730469 54.660156 281.960938 C 54.59375 282.027344 54.53125 282.089844 54.46875 282.15625 C 54.296875 282.328125 54.132812 282.5 53.96875 282.667969 C 53.898438 282.742188 53.828125 282.816406 53.757812 282.890625 C 53.601562 283.054688 53.449219 283.214844 53.300781 283.375 C 53.238281 283.4375 53.179688 283.503906 53.121094 283.566406 C 52.917969 283.785156 52.722656 284 52.539062 284.207031 C 52.53125 284.21875 52.523438 284.230469 52.511719 284.238281 C 52.339844 284.4375 52.171875 284.628906 52.015625 284.816406 C 51.960938 284.878906 51.914062 284.9375 51.863281 285 C 51.75 285.136719 51.640625 285.269531 51.535156 285.398438 C 51.484375 285.464844 51.433594 285.53125 51.382812 285.59375 C 51.28125 285.726562 51.1875 285.851562 51.09375 285.976562 C 51.054688 286.03125 51.011719 286.085938 50.976562 286.136719 C 50.851562 286.308594 50.734375 286.480469 50.628906 286.640625 C 50.625 286.648438 50.621094 286.652344 50.617188 286.660156 C 50.519531 286.816406 50.429688 286.960938 50.351562 287.101562 C 50.324219 287.148438 50.300781 287.195312 50.277344 287.242188 C 50.222656 287.339844 50.175781 287.4375 50.132812 287.535156 C 50.109375 287.582031 50.089844 287.628906 50.070312 287.675781 C 50.03125 287.765625 50 287.851562 49.976562 287.9375 C 49.960938 287.976562 49.949219 288.015625 49.9375 288.054688 C 49.90625 288.171875 49.882812 288.28125 49.875 288.386719 C 49.808594 289.289062 50.203125 290.53125 50.9375 291.984375 C 51.234375 292.566406 51.582031 293.179688 51.976562 293.816406 C 52.371094 294.457031 52.8125 295.121094 53.292969 295.800781 C 54.25 297.160156 55.359375 298.589844 56.558594 300.011719 C 59.847656 303.925781 63.796875 307.820312 67.050781 310.277344 C 69.417969 312.0625 71.414062 313.089844 72.527344 312.8125 C 72.75 312.757812 72.957031 312.671875 73.152344 312.574219 C 73.214844 312.546875 73.269531 312.511719 73.324219 312.476562 C 73.460938 312.398438 73.589844 312.3125 73.707031 312.214844 C 73.761719 312.171875 73.816406 312.128906 73.867188 312.082031 C 73.996094 311.964844 74.113281 311.835938 74.226562 311.695312 C 74.253906 311.660156 74.285156 311.632812 74.308594 311.597656 C 74.441406 311.417969 74.5625 311.222656 74.671875 311.015625 C 74.699219 310.960938 74.726562 310.898438 74.753906 310.839844 C 74.832031 310.679688 74.902344 310.511719 74.964844 310.339844 C 74.996094 310.261719 75.023438 310.179688 75.050781 310.101562 C 75.109375 309.921875 75.160156 309.734375 75.207031 309.546875 C 75.226562 309.472656 75.246094 309.40625 75.261719 309.332031 C 75.320312 309.066406 75.371094 308.796875 75.414062 308.511719 C 75.421875 308.464844 75.425781 308.414062 75.429688 308.367188 C 75.464844 308.125 75.488281 307.878906 75.507812 307.625 C 75.515625 307.53125 75.523438 307.4375 75.527344 307.34375 C 75.542969 307.121094 75.554688 306.894531 75.558594 306.664062 C 75.5625 306.574219 75.5625 306.484375 75.566406 306.394531 C 75.570312 306.082031 75.566406 305.769531 75.558594 305.449219 C 75.558594 305.449219 75.558594 305.445312 75.558594 305.441406 C 75.550781 305.109375 75.53125 304.773438 75.511719 304.433594 C 75.503906 304.359375 75.5 304.28125 75.492188 304.203125 C 75.472656 303.9375 75.453125 303.667969 75.425781 303.402344 C 75.417969 303.324219 75.410156 303.242188 75.402344 303.164062 C 75.371094 302.851562 75.335938 302.542969 75.296875 302.234375 C 75.292969 302.214844 75.292969 302.195312 75.289062 302.175781 C 75.246094 301.824219 75.195312 301.472656 75.144531 301.128906 C 75.140625 301.117188 75.140625 301.105469 75.136719 301.09375 C 75.089844 300.769531 75.035156 300.449219 74.984375 300.136719 C 74.976562 300.09375 74.96875 300.054688 74.960938 300.011719 C 74.90625 299.695312 74.851562 299.382812 74.792969 299.082031 C 76.738281 298.816406 78.6875 298.089844 78.746094 296.269531 C 78.820312 293.789062 75.859375 293.714844 75.859375 293.714844 Z M 58.09375 292.53125 C 56.050781 292.53125 54.390625 290.875 54.390625 288.832031 C 54.390625 286.785156 56.050781 285.128906 58.09375 285.128906 C 60.136719 285.128906 61.792969 286.785156 61.792969 288.832031 C 61.792969 290.875 60.136719 292.53125 58.09375 292.53125 Z M 162.460938 261.074219 C 162.441406 260.914062 162.40625 260.765625 162.359375 260.625 C 162.347656 260.585938 162.335938 260.550781 162.320312 260.511719 C 162.273438 260.390625 162.21875 260.273438 162.152344 260.164062 C 162.144531 260.148438 162.140625 260.132812 162.128906 260.121094 C 162.054688 260 161.960938 259.890625 161.863281 259.785156 C 161.835938 259.757812 161.808594 259.734375 161.785156 259.707031 C 161.695312 259.621094 161.597656 259.542969 161.492188 259.46875 C 161.472656 259.453125 161.453125 259.433594 161.429688 259.421875 C 161.304688 259.335938 161.167969 259.257812 161.019531 259.1875 C 160.984375 259.171875 160.949219 259.15625 160.914062 259.140625 C 160.789062 259.082031 160.65625 259.03125 160.519531 258.984375 C 160.484375 258.972656 160.449219 258.960938 160.414062 258.949219 C 160.246094 258.894531 160.070312 258.847656 159.886719 258.804688 C 159.847656 258.796875 159.808594 258.789062 159.769531 258.78125 C 159.613281 258.75 159.449219 258.722656 159.28125 258.695312 C 159.234375 258.6875 159.1875 258.683594 159.136719 258.675781 C 158.933594 258.648438 158.726562 258.628906 158.511719 258.613281 C 158.480469 258.609375 158.445312 258.609375 158.410156 258.605469 C 158.222656 258.59375 158.027344 258.585938 157.832031 258.582031 C 157.773438 258.578125 157.714844 258.578125 157.65625 258.578125 C 157.425781 258.574219 157.195312 258.574219 156.957031 258.578125 C 156.941406 258.582031 156.921875 258.582031 156.902344 258.582031 C 156.679688 258.585938 156.453125 258.597656 156.222656 258.613281 C 156.15625 258.617188 156.089844 258.621094 156.023438 258.625 C 155.792969 258.640625 155.558594 258.65625 155.320312 258.679688 C 155.304688 258.679688 155.289062 258.683594 155.269531 258.683594 C 155.019531 258.707031 154.765625 258.734375 154.507812 258.765625 C 154.4375 258.773438 154.367188 258.78125 154.296875 258.789062 C 154.078125 258.816406 153.863281 258.847656 153.644531 258.878906 C 153.597656 258.882812 153.554688 258.890625 153.507812 258.894531 C 153.253906 258.933594 153 258.972656 152.746094 259.015625 C 152.671875 259.027344 152.597656 259.039062 152.523438 259.050781 C 152.324219 259.085938 152.121094 259.121094 151.917969 259.15625 C 151.855469 259.167969 151.789062 259.179688 151.726562 259.191406 C 151.480469 259.238281 151.234375 259.285156 150.992188 259.332031 C 150.914062 259.347656 150.835938 259.363281 150.757812 259.378906 C 150.574219 259.417969 150.394531 259.453125 150.214844 259.492188 C 150.136719 259.507812 150.054688 259.527344 149.976562 259.542969 C 149.746094 259.59375 149.519531 259.644531 149.292969 259.695312 C 149.214844 259.710938 149.132812 259.730469 149.054688 259.75 C 148.898438 259.785156 148.742188 259.824219 148.585938 259.859375 C 148.496094 259.878906 148.402344 259.902344 148.3125 259.925781 C 148.109375 259.972656 147.910156 260.023438 147.714844 260.070312 C 147.710938 260.070312 147.710938 260.070312 147.710938 260.070312 C 147.289062 258.503906 146.1875 255.410156 144.03125 255.410156 C 141.144531 255.410156 141.921875 259.183594 141.921875 259.183594 C 141.921875 259.183594 141.59375 259.144531 141.132812 259.160156 C 139.917969 259.199219 137.734375 259.640625 137.8125 262.292969 C 137.84375 263.367188 138.785156 264.125 140.097656 264.660156 L 128.242188 276.871094 C 129.191406 277.664062 130.109375 278.417969 130.980469 279.125 C 131.003906 279.140625 131.023438 279.15625 131.042969 279.171875 C 131.304688 279.386719 131.566406 279.597656 131.820312 279.800781 C 131.847656 279.820312 131.871094 279.84375 131.898438 279.863281 C 132.449219 280.304688 132.976562 280.722656 133.480469 281.113281 C 133.488281 281.121094 133.5 281.128906 133.507812 281.136719 C 133.738281 281.3125 133.960938 281.484375 134.175781 281.652344 C 134.21875 281.683594 134.261719 281.71875 134.304688 281.75 C 134.5 281.898438 134.691406 282.042969 134.878906 282.183594 C 134.910156 282.207031 134.945312 282.234375 134.976562 282.257812 C 135.40625 282.578125 135.804688 282.871094 136.175781 283.132812 C 136.21875 283.164062 136.257812 283.191406 136.300781 283.21875 C 136.4375 283.316406 136.574219 283.410156 136.703125 283.496094 C 136.75 283.527344 136.792969 283.558594 136.839844 283.589844 C 136.972656 283.679688 137.101562 283.761719 137.222656 283.84375 C 137.25 283.859375 137.28125 283.878906 137.304688 283.894531 C 137.453125 283.988281 137.589844 284.074219 137.71875 284.148438 C 137.746094 284.164062 137.769531 284.179688 137.796875 284.191406 C 137.894531 284.25 137.984375 284.300781 138.074219 284.347656 C 138.109375 284.363281 138.140625 284.382812 138.175781 284.398438 C 138.25 284.4375 138.320312 284.46875 138.386719 284.496094 C 138.414062 284.507812 138.445312 284.523438 138.46875 284.53125 C 138.554688 284.566406 138.636719 284.59375 138.703125 284.605469 C 139.703125 284.828125 141.726562 283.832031 144.195312 282.117188 C 145.121094 281.472656 146.105469 280.730469 147.125 279.914062 C 148.175781 279.070312 149.257812 278.148438 150.335938 277.179688 C 150.984375 276.601562 151.628906 276.003906 152.269531 275.394531 C 152.632812 275.046875 153 274.695312 153.359375 274.339844 C 154.769531 272.949219 156.113281 271.519531 157.324219 270.121094 C 157.703125 269.683594 158.0625 269.25 158.410156 268.824219 C 158.710938 268.453125 159 268.085938 159.273438 267.726562 C 159.480469 267.453125 159.679688 267.183594 159.871094 266.914062 C 160.140625 266.542969 160.390625 266.175781 160.625 265.820312 C 161.09375 265.097656 161.496094 264.410156 161.796875 263.773438 C 161.921875 263.507812 162.03125 263.253906 162.125 263.003906 C 162.308594 262.511719 162.425781 262.054688 162.464844 261.648438 C 162.480469 261.449219 162.480469 261.253906 162.460938 261.074219 Z M 140.550781 279.355469 C 138.507812 279.355469 136.851562 277.699219 136.851562 275.65625 C 136.851562 273.613281 138.507812 271.953125 140.550781 271.953125 C 142.59375 271.953125 144.253906 273.609375 144.253906 275.65625 C 144.253906 277.699219 142.59375 279.355469 140.550781 279.355469 Z M 140.550781 279.355469 " fill-opacity="1" fill-rule="nonzero"/><path fill="#9ec2c1" d="M 89.625 247.972656 C 110.5 247.085938 121.601562 239.535156 121.601562 239.535156 L 130.039062 247.972656 L 110.65625 261.675781 L 104.28125 266.179688 L 95.398438 256.1875 L 98.753906 269.816406 L 98.953125 270.621094 L 67.722656 270.28125 L 58.09375 270.179688 L 56.167969 244.835938 C 62.929688 246.351562 75.566406 248.570312 89.625 247.972656 Z M 89.625 247.972656 " fill-opacity="1" fill-rule="nonzero"/><path fill="#100f0d" d="M 128.402344 162.78125 C 129.589844 161.480469 130.371094 159.996094 130.167969 158.757812 C 130.058594 158.148438 129.757812 157.6875 129.175781 157.265625 C 128.597656 156.855469 127.804688 156.554688 126.96875 156.328125 C 125.277344 155.875 123.414062 155.6875 121.5 155.457031 C 123.300781 154.714844 125.238281 154.382812 127.265625 154.503906 C 128.277344 154.585938 129.335938 154.792969 130.363281 155.375 C 130.871094 155.664062 131.359375 156.074219 131.746094 156.59375 C 131.859375 156.75 131.960938 156.917969 132.050781 157.085938 C 132.765625 156.6875 133.5 156.332031 134.253906 156.023438 C 136.042969 155.320312 137.945312 154.863281 139.953125 154.773438 C 140.984375 154.757812 141.941406 154.765625 143.09375 155.019531 C 144.214844 155.265625 145.269531 155.792969 146.136719 156.472656 C 147.867188 157.859375 148.894531 159.820312 148.980469 161.832031 C 147.46875 160.550781 146.011719 159.597656 144.582031 159.097656 C 143.871094 158.847656 143.179688 158.710938 142.488281 158.667969 C 142.308594 158.65625 142.152344 158.65625 141.953125 158.652344 L 141.355469 158.660156 C 140.957031 158.660156 140.539062 158.679688 140.128906 158.695312 L 134.949219 159.054688 C 134.160156 159.101562 133.359375 159.140625 132.546875 159.160156 C 132.53125 160.125 132.226562 161.054688 131.78125 161.804688 C 131.214844 162.769531 130.46875 163.527344 129.667969 164.136719 C 128.0625 165.363281 126.269531 166.1875 124.359375 166.574219 C 125.820312 165.308594 127.242188 164.105469 128.402344 162.78125 Z M 146.882812 147.777344 C 147.554688 146.480469 144.929688 143.789062 141.023438 141.773438 C 137.117188 139.753906 133.40625 139.171875 132.734375 140.472656 C 132.0625 141.769531 134.6875 144.460938 138.59375 146.476562 C 142.5 148.496094 146.210938 149.078125 146.882812 147.777344 Z M 99.960938 180.273438 C 100.113281 181.433594 100.292969 182.503906 100.28125 183.757812 C 100.25 184.960938 100.050781 186.128906 99.707031 187.253906 C 99.34375 188.367188 98.859375 189.453125 98.140625 190.386719 C 97.796875 190.863281 97.355469 191.269531 96.894531 191.625 C 96.425781 191.925781 95.90625 192.132812 95.371094 192.191406 C 95.332031 192.332031 95.304688 192.46875 95.25 192.605469 C 94.722656 191.539062 94.238281 190.585938 93.722656 189.726562 C 93.203125 188.867188 92.640625 188.136719 91.992188 187.578125 C 91.34375 187.023438 90.605469 186.582031 89.671875 186.332031 L 89.324219 186.207031 C 89.207031 186.171875 89.082031 186.164062 88.957031 186.132812 C 88.710938 186.082031 88.453125 186.023438 88.191406 185.957031 C 87.664062 185.851562 87.117188 185.816406 86.515625 185.648438 C 87 185.304688 87.53125 185.027344 88.089844 184.800781 C 88.378906 184.722656 88.671875 184.644531 88.972656 184.582031 C 89.273438 184.5 89.582031 184.480469 89.902344 184.488281 C 90.730469 184.441406 91.613281 184.644531 92.40625 185.042969 C 92.285156 184.546875 92.152344 184.070312 91.984375 183.636719 C 91.621094 182.605469 91.066406 181.875 90.335938 181.363281 C 89.597656 180.84375 88.59375 180.527344 87.480469 180.328125 C 86.359375 180.125 85.160156 180.019531 83.851562 179.875 C 84.917969 179.074219 86.183594 178.632812 87.523438 178.480469 C 88.375 178.390625 89.304688 178.4375 90.203125 178.714844 C 90.1875 177.824219 90.148438 176.996094 89.953125 176.269531 C 89.664062 175.207031 89.148438 174.449219 88.273438 173.878906 C 87.429688 173.304688 86.335938 172.886719 85.167969 172.535156 C 84.601562 172.429688 84.023438 172.359375 83.4375 172.363281 C 81.390625 172.296875 79.320312 172.824219 77.375 173.671875 C 75.4375 174.546875 73.628906 175.777344 71.972656 177.21875 C 70.28125 178.636719 68.875 180.367188 67.417969 182.09375 C 67.417969 182.09375 51.875 186.980469 45.507812 195.714844 C 40.792969 202.183594 42.816406 211.992188 52.613281 212.148438 C 53.734375 212.164062 54.945312 212.050781 56.210938 211.839844 C 56.097656 212.191406 55.980469 212.53125 55.871094 212.886719 C 55.375 214.492188 54.933594 216.023438 54.527344 217.492188 C 46.691406 214.476562 38.417969 208.855469 33.371094 198.378906 C 21.527344 173.804688 16.960938 116.558594 53.378906 88.132812 C 86.953125 61.929688 137.757812 74.753906 155.082031 109.007812 C 161.746094 122.1875 162.441406 134.355469 163.507812 149.914062 C 163.453125 149.933594 163.402344 149.945312 163.347656 149.96875 C 158.613281 152.042969 157.574219 159 157.574219 159 C 157.574219 159 156.636719 159.554688 155.039062 160.445312 C 156.503906 154.707031 157.058594 148.617188 156.730469 142.519531 L 143.597656 117.984375 C 135.726562 126.460938 121.800781 132.515625 116.957031 130.699219 C 112.113281 128.882812 115.445312 120.710938 115.445312 120.710938 C 115.445312 120.710938 103.636719 135.242188 96.675781 133.726562 C 89.714844 132.214844 94.253906 123.132812 94.253906 123.132812 C 94.253906 123.132812 89.109375 132.515625 81.84375 137.664062 C 75.929688 141.851562 69.90625 144.648438 67.871094 145.542969 C 66.273438 142.992188 57.828125 130.339844 48.644531 132.425781 C 48.511719 132.457031 48.382812 132.496094 48.25 132.53125 C 39.609375 134.847656 35.507812 147.589844 40.539062 156.125 C 45.214844 164.058594 59.351562 170.464844 61.703125 171.488281 C 63.855469 174.320312 66.304688 176.933594 68.988281 179.3125 C 69.632812 178.292969 70.34375 177.308594 71.15625 176.398438 C 72.691406 174.691406 74.476562 173.144531 76.558594 172.019531 C 78.625 170.871094 80.996094 170.191406 83.445312 170.128906 C 84.671875 170.074219 85.90625 170.296875 87.109375 170.640625 C 88.125 170.964844 89.097656 171.464844 89.988281 172.113281 C 91.074219 171.949219 92.175781 171.980469 93.222656 172.171875 C 94.4375 172.402344 95.734375 172.839844 96.785156 173.6875 C 97.855469 174.515625 98.574219 175.671875 99.054688 176.808594 C 99.539062 177.957031 99.789062 179.128906 99.960938 180.273438 Z M 98.742188 183.804688 C 98.640625 182.8125 98.398438 181.671875 98.160156 180.625 C 97.65625 178.53125 96.929688 176.496094 95.429688 175.457031 C 94.394531 174.710938 92.933594 174.332031 91.519531 174.335938 C 91.59375 174.519531 91.652344 174.707031 91.679688 174.902344 L 91.796875 175.496094 C 91.804688 175.695312 91.796875 175.890625 91.796875 176.082031 C 91.769531 177.175781 91.4375 178.152344 90.9375 179.003906 C 91.1875 179.125 91.4375 179.257812 91.679688 179.421875 C 92.992188 180.304688 93.753906 181.882812 93.804688 183.269531 C 93.859375 184.144531 93.734375 184.972656 93.480469 185.753906 C 93.5 185.769531 93.519531 185.78125 93.535156 185.796875 C 94.554688 186.679688 95.175781 187.875 95.445312 189.0625 C 95.671875 190.101562 95.675781 191.164062 95.378906 192.171875 C 96.425781 191.816406 97.113281 190.949219 97.59375 190.035156 C 98.09375 189.082031 98.414062 188.039062 98.585938 186.976562 C 98.773438 185.921875 98.835938 184.84375 98.742188 183.804688 Z M 104.640625 134.574219 C 100.285156 135.183594 96.917969 136.847656 97.121094 138.296875 C 97.320312 139.746094 101.015625 140.425781 105.371094 139.820312 C 109.726562 139.214844 113.09375 137.546875 112.890625 136.097656 C 112.6875 134.652344 108.996094 133.96875 104.640625 134.574219 Z M 58.09375 285.128906 C 56.050781 285.128906 54.390625 286.789062 54.390625 288.832031 C 54.390625 290.875 56.050781 292.53125 58.09375 292.53125 C 60.136719 292.53125 61.792969 290.875 61.792969 288.832031 C 61.792969 286.789062 60.136719 285.128906 58.09375 285.128906 Z M 106.675781 153.667969 C 108.285156 154.902344 109.746094 156.519531 111.089844 158.484375 C 111.222656 156.070312 110.355469 153.625 108.816406 151.589844 C 108.027344 150.582031 107.070312 149.667969 105.960938 148.964844 C 104.835938 148.238281 103.710938 147.777344 102.546875 147.355469 C 100.226562 146.585938 97.859375 146.222656 95.507812 146.1875 C 93.15625 146.167969 90.800781 146.398438 88.503906 147.199219 C 90.75 148.09375 92.925781 148.71875 95.070312 149.308594 C 97.210938 149.910156 99.3125 150.453125 101.320312 151.074219 C 102.292969 151.410156 103.308594 151.738281 104.164062 152.132812 C 105.035156 152.539062 105.875 153.050781 106.675781 153.667969 Z M 174.050781 176.117188 C 173.46875 175.335938 173.160156 174.433594 173.21875 173.585938 C 173.257812 172.730469 173.671875 171.917969 174.316406 171.191406 C 174.949219 170.484375 175.867188 169.789062 176.765625 169.21875 C 177.683594 168.648438 178.667969 168.160156 179.707031 167.765625 C 181.792969 166.996094 184.058594 166.554688 186.433594 166.429688 C 184.164062 165.640625 181.648438 165.574219 179.21875 166.066406 C 178.234375 166.277344 177.257812 166.59375 176.324219 167.019531 C 176.625 165.792969 176.738281 164.535156 176.625 163.296875 C 176.511719 162.238281 176.359375 161.230469 176.136719 160.222656 C 176.234375 160.183594 176.332031 160.148438 176.425781 160.109375 C 176.808594 159.972656 177.144531 159.800781 177.480469 159.644531 C 178.15625 159.339844 178.757812 159 179.367188 158.703125 C 179.972656 158.398438 180.558594 158.09375 181.191406 157.800781 C 181.828125 157.503906 182.472656 157.199219 183.328125 156.902344 C 182.671875 156.234375 181.734375 156.003906 180.851562 155.980469 C 179.957031 155.972656 179.078125 156.210938 178.300781 156.601562 C 177.511719 156.980469 176.855469 157.558594 176.308594 158.203125 C 176.125 158.4375 175.964844 158.6875 175.8125 158.945312 C 175.480469 157.695312 175.035156 156.46875 174.457031 155.304688 C 173.8125 154.085938 173.058594 152.855469 171.9375 152.042969 C 172.65625 153.191406 173.054688 154.449219 173.378906 155.714844 C 173.714844 156.972656 173.917969 158.265625 174.085938 159.554688 C 174.238281 160.832031 174.347656 162.171875 174.394531 163.425781 C 174.429688 164.636719 174.261719 165.839844 173.90625 166.96875 C 173.539062 168.078125 172.980469 169.144531 172.207031 169.886719 C 171.828125 170.257812 171.402344 170.53125 170.972656 170.675781 C 170.546875 170.808594 170.121094 170.800781 169.675781 170.636719 C 168.777344 170.289062 167.964844 169.269531 167.375 168.152344 C 166.757812 167.027344 166.324219 165.761719 165.867188 164.476562 C 165.804688 165.839844 165.9375 167.214844 166.300781 168.582031 C 166.511719 169.257812 166.761719 169.941406 167.15625 170.589844 C 167.550781 171.234375 168.101562 171.851562 168.855469 172.285156 C 169.476562 172.652344 170.257812 172.816406 171.007812 172.753906 C 170.96875 173.015625 170.941406 173.277344 170.945312 173.542969 C 170.945312 175.050781 171.644531 176.453125 172.644531 177.394531 C 173.140625 177.871094 173.707031 178.257812 174.3125 178.550781 C 174.921875 178.824219 175.570312 179 176.21875 179.074219 C 177.519531 179.199219 178.832031 178.859375 179.78125 178.113281 C 177.417969 178.640625 175.238281 177.667969 174.050781 176.117188 Z M 166.160156 183.28125 C 166.160156 183.28125 164.746094 184.328125 162.011719 185.976562 C 158.886719 187.863281 154.039062 190.539062 147.621094 193.332031 C 146.816406 193.679688 145.992188 194.03125 145.140625 194.382812 C 143.011719 195.261719 140.824219 196.058594 138.644531 196.785156 C 138.207031 196.929688 137.769531 197.070312 137.335938 197.207031 C 136.46875 197.484375 135.601562 197.75 134.746094 198.003906 C 133.460938 198.382812 132.191406 198.738281 130.960938 199.066406 C 130.140625 199.285156 129.332031 199.492188 128.546875 199.683594 C 127.757812 199.878906 126.992188 200.066406 126.25 200.238281 C 123.789062 200.8125 121.597656 201.261719 119.835938 201.597656 L 120.808594 222.472656 C 157.582031 219.816406 173.121094 207.558594 173.121094 207.558594 C 170.542969 198.6875 168.722656 190.714844 167.382812 183.433594 C 166.601562 183.371094 166.160156 183.28125 166.160156 183.28125 Z M 128.410156 175.285156 C 128.410156 175.285156 123.675781 175.582031 117.160156 172.027344 C 110.648438 168.476562 105.910156 163.441406 105.910156 163.441406 C 105.910156 163.441406 104.621094 165.011719 103.550781 167.3125 C 106.121094 168.613281 109.527344 170.804688 111.832031 174.101562 C 113.644531 176.691406 114.253906 180.402344 114.445312 183.09375 C 122.121094 182.636719 128.410156 175.285156 128.410156 175.285156 Z M 113.953125 183.121094 C 114.117188 183.117188 114.28125 183.117188 114.445312 183.105469 C 114.445312 183.101562 114.441406 183.097656 114.441406 183.09375 C 114.28125 183.105469 114.117188 183.117188 113.953125 183.121094 Z M 140.550781 271.953125 C 138.507812 271.953125 136.851562 273.613281 136.851562 275.65625 C 136.851562 277.699219 138.507812 279.355469 140.550781 279.355469 C 142.59375 279.355469 144.253906 277.699219 144.253906 275.65625 C 144.253906 273.613281 142.59375 271.953125 140.550781 271.953125 Z M 140.550781 271.953125 " fill-opacity="1" fill-rule="nonzero"/><path fill="#7f4da1" d="M 166.160156 183.28125 C 166.160156 183.28125 164.746094 184.328125 162.011719 185.976562 C 158.886719 187.863281 154.039062 190.539062 147.621094 193.332031 C 146.816406 193.679688 145.992188 194.03125 145.140625 194.382812 C 143.011719 195.261719 140.824219 196.058594 138.644531 196.785156 C 138.207031 196.929688 137.769531 197.070312 137.335938 197.207031 C 136.46875 197.484375 135.601562 197.75 134.746094 198.003906 C 133.460938 198.382812 132.191406 198.738281 130.960938 199.066406 C 130.140625 199.285156 129.332031 199.492188 128.546875 199.683594 C 127.757812 199.878906 126.992188 200.066406 126.25 200.238281 C 123.789062 200.8125 121.597656 201.261719 119.835938 201.597656 L 120.808594 222.472656 L 121.601562 239.535156 C 121.601562 239.535156 110.5 247.085938 89.625 247.972656 C 75.566406 248.570312 62.929688 246.351562 56.167969 244.835938 C 52.890625 244.101562 50.988281 243.53125 50.988281 243.53125 C 50.988281 243.53125 49.570312 235.46875 54.527344 217.496094 C 54.933594 216.023438 55.375 214.492188 55.871094 212.886719 C 55.984375 212.53125 56.097656 212.191406 56.210938 211.84375 C 54.945312 212.050781 53.734375 212.164062 52.613281 212.148438 C 42.816406 211.996094 40.792969 202.183594 45.507812 195.714844 C 51.875 186.980469 67.417969 182.09375 67.417969 182.09375 L 78.078125 203.265625 C 78.078125 203.265625 93.753906 203.695312 95.203125 192.914062 C 101.074219 194.335938 107.152344 194.90625 113.179688 194.480469 C 120.636719 193.949219 128.011719 191.914062 134.8125 188.136719 C 145.375 182.273438 152.070312 172.085938 155.039062 160.445312 C 156.636719 159.554688 157.574219 159 157.574219 159 Z M 102.167969 173.597656 C 102.171875 173.652344 102.175781 173.707031 102.179688 173.761719 C 102.195312 173.976562 102.21875 174.195312 102.253906 174.410156 C 102.257812 174.449219 102.265625 174.488281 102.273438 174.527344 C 102.304688 174.722656 102.34375 174.917969 102.390625 175.117188 C 102.402344 175.15625 102.410156 175.199219 102.417969 175.238281 C 102.476562 175.457031 102.539062 175.675781 102.613281 175.894531 C 102.628906 175.9375 102.648438 175.984375 102.664062 176.03125 C 102.738281 176.238281 102.824219 176.449219 102.917969 176.65625 C 102.925781 176.675781 102.929688 176.691406 102.9375 176.707031 C 103.039062 176.925781 103.15625 177.144531 103.277344 177.359375 C 103.304688 177.40625 103.332031 177.453125 103.359375 177.5 C 103.488281 177.714844 103.628906 177.929688 103.78125 178.144531 C 103.792969 178.164062 103.8125 178.183594 103.824219 178.203125 C 103.96875 178.398438 104.128906 178.59375 104.292969 178.789062 C 104.332031 178.832031 104.367188 178.875 104.402344 178.914062 C 104.585938 179.121094 104.777344 179.320312 104.988281 179.519531 C 105.027344 179.558594 105.066406 179.59375 105.109375 179.632812 C 105.300781 179.8125 105.507812 179.992188 105.726562 180.167969 C 105.761719 180.199219 105.796875 180.226562 105.832031 180.257812 C 106.074219 180.449219 106.332031 180.636719 106.605469 180.824219 C 106.664062 180.863281 106.726562 180.90625 106.789062 180.945312 C 107.074219 181.136719 107.367188 181.320312 107.683594 181.503906 C 107.992188 181.675781 108.296875 181.835938 108.605469 181.976562 C 108.710938 182.027344 108.816406 182.070312 108.921875 182.117188 C 109.121094 182.203125 109.320312 182.289062 109.519531 182.363281 C 109.644531 182.410156 109.773438 182.453125 109.898438 182.496094 C 110.078125 182.554688 110.253906 182.613281 110.429688 182.664062 C 110.566406 182.703125 110.703125 182.738281 110.839844 182.773438 C 111.003906 182.8125 111.167969 182.851562 111.332031 182.886719 C 111.476562 182.914062 111.621094 182.941406 111.761719 182.964844 C 111.917969 182.992188 112.070312 183.011719 112.222656 183.03125 C 112.371094 183.050781 112.523438 183.066406 112.671875 183.082031 C 112.8125 183.09375 112.957031 183.101562 113.101562 183.105469 C 113.257812 183.113281 113.410156 183.125 113.5625 183.125 C 113.695312 183.125 113.824219 183.121094 113.953125 183.117188 C 114.117188 183.117188 114.28125 183.117188 114.445312 183.105469 C 114.253906 180.410156 113.644531 176.691406 111.832031 174.101562 C 109.523438 170.804688 106.117188 168.613281 103.550781 167.3125 C 103.503906 167.417969 103.453125 167.523438 103.40625 167.628906 C 103.378906 167.691406 103.355469 167.75 103.328125 167.8125 C 103.261719 167.964844 103.199219 168.121094 103.136719 168.28125 C 103.101562 168.371094 103.066406 168.457031 103.03125 168.546875 C 102.996094 168.640625 102.964844 168.734375 102.929688 168.828125 C 102.882812 168.957031 102.839844 169.085938 102.796875 169.21875 C 102.761719 169.320312 102.730469 169.421875 102.699219 169.523438 C 102.664062 169.648438 102.628906 169.769531 102.59375 169.894531 C 102.574219 169.972656 102.550781 170.050781 102.53125 170.132812 C 102.484375 170.308594 102.441406 170.488281 102.402344 170.671875 C 102.390625 170.738281 102.375 170.808594 102.363281 170.878906 C 102.332031 171.03125 102.304688 171.1875 102.28125 171.34375 C 102.273438 171.398438 102.261719 171.457031 102.253906 171.511719 C 102.226562 171.710938 102.207031 171.910156 102.1875 172.113281 C 102.183594 172.175781 102.179688 172.238281 102.175781 172.300781 C 102.160156 172.503906 102.148438 172.710938 102.148438 172.917969 C 102.148438 172.941406 102.148438 172.96875 102.148438 172.992188 C 102.148438 173.195312 102.15625 173.398438 102.167969 173.597656 Z M 102.167969 173.597656 " fill-opacity="1" fill-rule="nonzero"/></svg>