<svg xmlns="http://www.w3.org/2000/svg" xmlns:xlink="http://www.w3.org/1999/xlink" width="500" zoomAndPan="magnify" viewBox="0 0 375 374.999991" height="500" preserveAspectRatio="xMidYMid meet" version="1.0"><defs><clipPath id="a5a577dc75"><path d="M 326.394531 94 L 347.804688 94 L 347.804688 125 L 326.394531 125 Z M 326.394531 94 " clip-rule="nonzero"/></clipPath><clipPath id="0727474538"><path d="M 221 190 L 336 190 L 336 275.328125 L 221 275.328125 Z M 221 190 " clip-rule="nonzero"/></clipPath><clipPath id="75bfbfd790"><path d="M 209.015625 72.828125 L 347 72.828125 L 347 204 L 209.015625 204 Z M 209.015625 72.828125 " clip-rule="nonzero"/></clipPath><clipPath id="47f245d431"><path d="M 307 222 L 311 222 L 311 275.328125 L 307 275.328125 Z M 307 222 " clip-rule="nonzero"/></clipPath><clipPath id="8b26b1992f"><path d="M 245 222 L 250 222 L 250 275.328125 L 245 275.328125 Z M 245 222 " clip-rule="nonzero"/></clipPath><clipPath id="de19dc3a2c"><path d="M 16 242 L 55 242 L 55 275.328125 L 16 275.328125 Z M 16 242 " clip-rule="nonzero"/></clipPath><clipPath id="9a0001d6e8"><path d="M 184 267 L 202.058594 267 L 202.058594 275.328125 L 184 275.328125 Z M 184 267 " clip-rule="nonzero"/></clipPath><clipPath id="0a1c84913a"><path d="M 142 228 L 193 228 L 193 275.328125 L 142 275.328125 Z M 142 228 " clip-rule="nonzero"/></clipPath><clipPath id="9cd5ed51ae"><path d="M 80 72.828125 L 131 72.828125 L 131 123 L 80 123 Z M 80 72.828125 " clip-rule="nonzero"/></clipPath><clipPath id="e993c820f4"><path d="M 11 255 L 41 255 L 41 275.328125 L 11 275.328125 Z M 11 255 " clip-rule="nonzero"/></clipPath><clipPath id="d74bba4c73"><path d="M 23 227 L 75 227 L 75 275.328125 L 23 275.328125 Z M 23 227 " clip-rule="nonzero"/></clipPath><clipPath id="8d27df9ffb"><path d="M 49 220 L 170 220 L 170 275.328125 L 49 275.328125 Z M 49 220 " clip-rule="nonzero"/></clipPath></defs><g clip-path="url(#a5a577dc75)"><path fill="#808080" d="M 336.074219 115.15625 C 340.578125 115.15625 344.4375 119.03125 346.082031 124.5625 C 347.628906 121.921875 348.59375 119.015625 346.933594 117.355469 C 343.28125 113.703125 346.460938 97.195312 338.238281 94.710938 C 334.414062 93.558594 330.160156 96.039062 326.695312 99.027344 C 329.953125 104.007812 332.421875 109.542969 334.015625 115.441406 C 334.679688 115.265625 335.375 115.15625 336.074219 115.15625 " fill-opacity="1" fill-rule="nonzero"/></g><path fill="#808080" d="M 220.730469 115.15625 C 221.441406 115.15625 222.121094 115.265625 222.800781 115.441406 C 224.382812 109.542969 226.863281 104.007812 230.121094 99.027344 C 226.660156 96.039062 222.390625 93.558594 218.5625 94.710938 C 210.359375 97.195312 213.535156 113.703125 209.882812 117.355469 C 208.222656 119.015625 209.1875 121.921875 210.722656 124.5625 C 212.367188 119.03125 216.222656 115.15625 220.730469 115.15625 " fill-opacity="1" fill-rule="nonzero"/><path fill="#000000" d="M 304.339844 138.398438 C 306.03125 138.398438 307.390625 135.582031 307.390625 132.121094 C 307.390625 128.644531 306.03125 125.828125 304.339844 125.828125 C 302.664062 125.828125 301.289062 128.644531 301.289062 132.121094 C 301.289062 135.582031 302.664062 138.398438 304.339844 138.398438 " fill-opacity="1" fill-rule="nonzero"/><path fill="#000000" d="M 252.464844 138.398438 C 254.15625 138.398438 255.515625 135.582031 255.515625 132.121094 C 255.515625 128.644531 254.15625 125.828125 252.464844 125.828125 C 250.789062 125.828125 249.410156 128.644531 249.410156 132.121094 C 249.410156 135.582031 250.789062 138.398438 252.464844 138.398438 " fill-opacity="1" fill-rule="nonzero"/><g clip-path="url(#0727474538)"><path fill="#4b99f5" d="M 289.96875 198.257812 C 289.953125 198.289062 289.9375 198.339844 289.917969 198.371094 C 289.414062 199.777344 288.277344 200.898438 286.773438 201.722656 C 284.734375 202.828125 282.015625 203.414062 279.230469 203.476562 C 273.050781 203.621094 266.582031 201.261719 266.582031 196.613281 L 266.582031 190.304688 C 251.878906 193.011719 238.421875 193.910156 230.46875 202.355469 C 227.925781 205.058594 226.546875 208.664062 226.25 212.378906 L 221.203125 275.210938 L 245.917969 275.210938 L 245.917969 222.972656 L 249.632812 222.972656 L 249.632812 275.210938 L 307.1875 275.210938 L 307.1875 222.972656 L 310.902344 222.972656 L 310.902344 275.210938 L 335.597656 275.210938 L 330.554688 212.363281 C 330.269531 208.664062 328.894531 205.058594 326.363281 202.371094 C 318.457031 193.941406 305.097656 193.042969 290.234375 190.304688 L 290.234375 196.613281 C 290.234375 197.199219 290.140625 197.753906 289.96875 198.257812 " fill-opacity="1" fill-rule="nonzero"/></g><g clip-path="url(#75bfbfd790)"><path fill="#f7bf89" d="M 252.464844 125.828125 C 254.15625 125.828125 255.515625 128.644531 255.515625 132.121094 C 255.515625 135.582031 254.15625 138.398438 252.464844 138.398438 C 250.789062 138.398438 249.410156 135.582031 249.410156 132.121094 C 249.410156 128.644531 250.789062 125.828125 252.464844 125.828125 Z M 278.410156 149.671875 C 278.410156 149.671875 290.269531 147.347656 295.375 152.453125 C 300.496094 157.578125 301.289062 162.460938 301.289062 162.460938 C 301.289062 162.460938 281.667969 165.65625 278.410156 155.804688 C 275.152344 165.65625 255.515625 162.460938 255.515625 162.460938 C 255.515625 162.460938 256.320312 157.578125 261.429688 152.453125 C 266.550781 147.347656 278.410156 149.671875 278.410156 149.671875 Z M 304.339844 125.828125 C 306.03125 125.828125 307.390625 128.644531 307.390625 132.121094 C 307.390625 135.582031 306.03125 138.398438 304.339844 138.398438 C 302.664062 138.398438 301.289062 135.582031 301.289062 132.121094 C 301.289062 128.644531 302.664062 125.828125 304.339844 125.828125 Z M 220.730469 115.15625 C 216.222656 115.15625 212.367188 119.03125 210.722656 124.5625 C 210.183594 126.398438 209.882812 128.390625 209.882812 130.492188 C 209.882812 138.96875 214.753906 145.84375 220.730469 145.84375 C 221.441406 145.84375 222.121094 145.734375 222.785156 145.5625 C 228.414062 166.351562 245.316406 182.511719 266.582031 186.9375 L 266.582031 196.613281 C 266.582031 201.261719 273.050781 203.621094 279.230469 203.476562 C 281.746094 203.367188 284.257812 202.796875 286.773438 201.722656 C 288.277344 200.898438 289.414062 199.777344 289.917969 198.371094 C 289.9375 198.339844 289.953125 198.289062 289.96875 198.257812 C 290.140625 197.753906 290.234375 197.199219 290.234375 196.613281 L 290.234375 186.9375 C 311.503906 182.511719 328.402344 166.351562 334.015625 145.5625 C 334.679688 145.734375 335.375 145.84375 336.074219 145.84375 C 342.066406 145.84375 346.933594 138.96875 346.933594 130.492188 C 346.933594 128.390625 346.617188 126.398438 346.082031 124.5625 C 344.4375 119.03125 340.578125 115.15625 336.074219 115.15625 C 335.375 115.15625 334.679688 115.265625 334.015625 115.441406 C 332.421875 109.542969 329.953125 104.007812 326.695312 99.027344 C 316.402344 83.265625 298.632812 72.828125 278.410156 72.828125 C 258.1875 72.828125 240.414062 83.265625 230.121094 99.027344 C 226.863281 104.007812 224.382812 109.542969 222.800781 115.441406 C 222.121094 115.265625 221.441406 115.15625 220.730469 115.15625 " fill-opacity="1" fill-rule="nonzero"/></g><path fill="#808080" d="M 278.410156 155.804688 C 281.667969 165.65625 301.289062 162.460938 301.289062 162.460938 C 301.289062 162.460938 300.496094 157.578125 295.375 152.453125 C 290.269531 147.347656 278.410156 149.671875 278.410156 149.671875 C 278.410156 149.671875 266.550781 147.347656 261.429688 152.453125 C 256.320312 157.578125 255.515625 162.460938 255.515625 162.460938 C 255.515625 162.460938 275.152344 165.65625 278.410156 155.804688 " fill-opacity="1" fill-rule="nonzero"/><g clip-path="url(#47f245d431)"><path fill="#153861" d="M 307.1875 222.972656 L 307.1875 275.210938 L 310.902344 275.210938 L 310.902344 222.972656 L 307.1875 222.972656 " fill-opacity="1" fill-rule="nonzero"/></g><g clip-path="url(#8b26b1992f)"><path fill="#153861" d="M 245.917969 222.972656 L 245.917969 275.210938 L 249.632812 275.210938 L 249.632812 222.972656 L 245.917969 222.972656 " fill-opacity="1" fill-rule="nonzero"/></g><path fill="#f7bf89" d="M 18.203125 274.203125 C 17.796875 274.203125 17.425781 273.957031 17.265625 273.582031 C 17.105469 273.207031 17.183594 272.773438 17.464844 272.476562 C 34.152344 254.84375 45.179688 243.589844 45.289062 243.480469 C 45.484375 243.28125 45.746094 243.171875 46.015625 243.171875 C 46.085938 243.171875 46.15625 243.179688 46.226562 243.191406 C 46.566406 243.261719 46.847656 243.5 46.96875 243.824219 L 53.734375 261.277344 C 53.902344 261.714844 53.757812 262.207031 53.375 262.476562 C 53.304688 262.527344 46.300781 267.539062 37.84375 273.992188 C 37.664062 274.125 37.445312 274.203125 37.222656 274.203125 L 18.203125 274.203125 " fill-opacity="1" fill-rule="nonzero"/><g clip-path="url(#de19dc3a2c)"><path fill="#000000" d="M 46.015625 242.152344 C 45.476562 242.152344 44.949219 242.367188 44.558594 242.761719 C 44.449219 242.875 33.417969 254.132812 16.722656 271.773438 C 16.15625 272.367188 16.003906 273.238281 16.328125 273.984375 C 16.648438 274.738281 17.386719 275.226562 18.203125 275.226562 L 37.222656 275.226562 C 37.671875 275.226562 38.109375 275.078125 38.460938 274.804688 C 46.90625 268.363281 53.898438 263.359375 53.972656 263.308594 C 54.730469 262.765625 55.023438 261.777344 54.6875 260.90625 L 47.925781 243.457031 C 47.675781 242.808594 47.109375 242.332031 46.429688 242.191406 C 46.292969 242.164062 46.15625 242.152344 46.015625 242.152344 Z M 46.015625 244.195312 L 52.78125 261.644531 C 52.78125 261.644531 45.792969 266.640625 37.222656 273.179688 L 18.203125 273.179688 C 35.082031 255.347656 46.015625 244.195312 46.015625 244.195312 " fill-opacity="1" fill-rule="nonzero"/></g><path fill="#ffffff" d="M 186.453125 274.203125 C 186.007812 274.203125 185.617188 273.917969 185.480469 273.5 C 185.339844 273.078125 185.488281 272.617188 185.84375 272.355469 L 190.105469 269.214844 C 190.269531 269.089844 190.472656 269.019531 190.683594 269.015625 C 190.683594 269.015625 190.867188 269.007812 191.183594 269.007812 C 194.832031 269.007812 200.964844 269.546875 201.074219 273.148438 C 201.085938 273.425781 200.980469 273.695312 200.785156 273.894531 C 200.59375 274.09375 200.328125 274.203125 200.050781 274.203125 L 186.453125 274.203125 " fill-opacity="1" fill-rule="nonzero"/><g clip-path="url(#9a0001d6e8)"><path fill="#000000" d="M 191.183594 267.984375 C 190.847656 267.984375 190.652344 267.992188 190.652344 267.992188 C 190.238281 268 189.832031 268.140625 189.496094 268.390625 L 185.238281 271.53125 C 184.523438 272.058594 184.230469 272.980469 184.507812 273.820312 C 184.78125 274.660156 185.566406 275.230469 186.453125 275.230469 L 200.050781 275.230469 C 200.605469 275.230469 201.136719 275.003906 201.523438 274.605469 C 201.90625 274.210938 202.117188 273.671875 202.101562 273.117188 C 202.050781 271.519531 201.078125 269.425781 196.71875 268.496094 C 194.613281 268.050781 192.347656 267.984375 191.183594 267.984375 Z M 191.183594 270.03125 C 193.070312 270.03125 199.960938 270.234375 200.050781 273.179688 L 186.453125 273.179688 L 190.710938 270.035156 C 190.710938 270.035156 190.886719 270.03125 191.183594 270.03125 " fill-opacity="1" fill-rule="nonzero"/></g><path fill="#fb6ea4" d="M 158.480469 274.171875 C 158.078125 274.171875 157.71875 273.925781 157.5625 273.554688 C 151.960938 259.882812 143.320312 230.664062 143.234375 230.371094 C 143.144531 230.070312 143.203125 229.746094 143.390625 229.496094 C 143.578125 229.246094 143.871094 229.097656 144.183594 229.097656 C 144.53125 229.097656 152.792969 229.152344 162.828125 234.128906 C 172.070312 238.707031 184.574219 248.511719 191.652344 269.199219 C 191.683594 269.292969 191.703125 269.394531 191.707031 269.496094 C 191.707031 269.558594 191.742188 271.109375 191.433594 273.316406 C 191.363281 273.804688 190.945312 274.171875 190.449219 274.171875 L 158.480469 274.171875 " fill-opacity="1" fill-rule="nonzero"/><g clip-path="url(#0a1c84913a)"><path fill="#000000" d="M 144.183594 228.105469 C 143.558594 228.105469 142.96875 228.398438 142.59375 228.902344 C 142.21875 229.402344 142.105469 230.050781 142.28125 230.652344 C 142.367188 230.945312 151.023438 260.210938 156.644531 273.933594 C 156.949219 274.675781 157.679688 275.164062 158.480469 275.164062 L 190.449219 275.164062 C 191.4375 275.164062 192.277344 274.433594 192.414062 273.457031 C 192.734375 271.167969 192.699219 269.539062 192.699219 269.472656 C 192.695312 269.269531 192.65625 269.066406 192.59375 268.875 C 185.402344 247.871094 172.679688 237.902344 163.273438 233.238281 C 153.027344 228.164062 144.542969 228.105469 144.183594 228.105469 Z M 144.183594 230.089844 C 144.183594 230.089844 177.222656 230.089844 190.714844 269.519531 C 190.714844 269.519531 190.75 271.027344 190.449219 273.179688 L 158.480469 273.179688 C 152.835938 259.390625 144.183594 230.089844 144.183594 230.089844 " fill-opacity="1" fill-rule="nonzero"/></g><path fill="#808080" d="M 105.746094 121.632812 C 92.5625 121.632812 81.835938 110.90625 81.835938 97.722656 C 81.835938 84.539062 92.5625 73.816406 105.746094 73.816406 C 118.929688 73.816406 129.65625 84.539062 129.65625 97.722656 C 129.65625 110.90625 118.929688 121.632812 105.746094 121.632812 " fill-opacity="1" fill-rule="nonzero"/><g clip-path="url(#9cd5ed51ae)"><path fill="#000000" d="M 105.746094 72.820312 C 92.011719 72.820312 80.84375 83.992188 80.84375 97.722656 C 80.84375 111.457031 92.011719 122.628906 105.746094 122.628906 C 119.476562 122.628906 130.648438 111.457031 130.648438 97.722656 C 130.648438 83.992188 119.476562 72.820312 105.746094 72.820312 Z M 105.746094 74.808594 C 118.402344 74.808594 128.664062 85.070312 128.664062 97.722656 C 128.664062 110.378906 118.402344 120.644531 105.746094 120.644531 C 93.085938 120.644531 82.824219 110.378906 82.824219 97.722656 C 82.824219 85.070312 93.085938 74.808594 105.746094 74.808594 " fill-opacity="1" fill-rule="nonzero"/></g><path fill="#ffffff" d="M 17.921875 274.203125 C 17.628906 274.203125 17.347656 274.074219 17.152344 273.855469 C 16.957031 273.632812 16.867188 273.335938 16.910156 273.042969 C 17.023438 272.203125 17.191406 271.414062 17.34375 270.800781 C 15.183594 270.523438 13.066406 269.898438 12.75 268.214844 C 12.398438 266.324219 14.832031 264.453125 16.90625 263.230469 C 15.640625 262.316406 15.242188 261.15625 15.222656 261.085938 L 15.191406 260.984375 C 14.902344 259.640625 15.320312 258.761719 15.726562 258.265625 C 16.53125 257.265625 18.007812 256.777344 20.234375 256.777344 C 23.050781 256.777344 26.144531 257.570312 26.273438 257.605469 C 26.476562 257.65625 26.65625 257.769531 26.792969 257.925781 L 39.390625 272.507812 C 39.652344 272.8125 39.714844 273.242188 39.546875 273.605469 C 39.378906 273.972656 39.015625 274.203125 38.617188 274.203125 L 17.921875 274.203125 " fill-opacity="1" fill-rule="nonzero"/><g clip-path="url(#e993c820f4)"><path fill="#000000" d="M 20.234375 255.753906 C 17.679688 255.753906 15.945312 256.363281 14.929688 257.621094 C 14.382812 258.292969 13.816406 259.457031 14.191406 261.199219 C 14.207031 261.269531 14.226562 261.339844 14.246094 261.40625 C 14.296875 261.558594 14.5625 262.296875 15.246094 263.09375 L 15.191406 263.132812 C 13.5 264.285156 11.308594 266.085938 11.742188 268.402344 C 12.109375 270.363281 13.996094 271.222656 16.105469 271.640625 C 16.027344 272.039062 15.953125 272.464844 15.894531 272.902344 C 15.8125 273.492188 15.992188 274.082031 16.378906 274.527344 C 16.769531 274.972656 17.332031 275.230469 17.921875 275.230469 L 38.617188 275.230469 C 39.417969 275.230469 40.144531 274.761719 40.480469 274.03125 C 40.8125 273.304688 40.691406 272.445312 40.167969 271.839844 L 27.566406 257.257812 C 27.296875 256.941406 26.933594 256.71875 26.53125 256.613281 C 26.394531 256.578125 23.179688 255.753906 20.234375 255.753906 Z M 20.234375 257.800781 C 22.953125 257.800781 26.019531 258.597656 26.019531 258.597656 L 38.617188 273.179688 L 17.921875 273.179688 C 18.160156 271.453125 18.648438 269.910156 18.648438 269.910156 C 7.277344 268.957031 19.21875 263.148438 19.21875 263.148438 C 16.796875 262.601562 16.195312 260.769531 16.195312 260.769531 C 15.691406 258.425781 17.824219 257.800781 20.234375 257.800781 " fill-opacity="1" fill-rule="nonzero"/></g><path fill="#fb6ea4" d="M 27.636719 274.171875 C 27.285156 274.171875 26.957031 273.984375 26.78125 273.679688 C 22.914062 267.015625 25.074219 258.21875 25.164062 257.851562 L 25.1875 257.777344 C 33.628906 232.707031 54.324219 228.964844 65.910156 228.964844 C 69.8125 228.964844 72.328125 229.40625 72.433594 229.425781 C 72.710938 229.472656 72.949219 229.636719 73.097656 229.875 C 73.25 230.113281 73.289062 230.402344 73.214844 230.671875 C 72.894531 231.808594 65.257812 258.710938 56.84375 270.375 C 55.949219 271.613281 54.980469 272.757812 53.875 273.875 C 53.6875 274.066406 53.4375 274.171875 53.167969 274.171875 L 27.636719 274.171875 " fill-opacity="1" fill-rule="nonzero"/><g clip-path="url(#d74bba4c73)"><path fill="#000000" d="M 65.910156 227.972656 C 60.425781 227.972656 52.222656 228.835938 44.277344 232.957031 C 34.808594 237.867188 28.070312 246.113281 24.246094 257.457031 L 24.203125 257.609375 C 24.105469 257.996094 21.859375 267.167969 25.921875 274.175781 C 26.277344 274.789062 26.929688 275.164062 27.636719 275.164062 L 53.167969 275.164062 C 53.703125 275.164062 54.210938 274.953125 54.582031 274.574219 C 55.722656 273.417969 56.726562 272.238281 57.648438 270.957031 C 66.160156 259.148438 73.847656 232.085938 74.167969 230.941406 C 74.320312 230.402344 74.238281 229.820312 73.9375 229.347656 C 73.644531 228.871094 73.15625 228.542969 72.605469 228.449219 C 72.496094 228.429688 69.898438 227.972656 65.910156 227.972656 Z M 65.910156 229.957031 C 69.769531 229.957031 72.257812 230.402344 72.257812 230.402344 C 72.257812 230.402344 64.445312 258.136719 56.035156 269.796875 C 55.101562 271.09375 54.140625 272.199219 53.167969 273.179688 L 27.636719 273.179688 C 23.933594 266.792969 26.128906 258.09375 26.128906 258.09375 C 34.488281 233.277344 55.347656 229.957031 65.910156 229.957031 " fill-opacity="1" fill-rule="nonzero"/></g><path fill="#fb6ea4" d="M 51.015625 274.171875 C 50.75 274.171875 50.496094 274.066406 50.308594 273.875 C 50.121094 273.683594 50.019531 273.429688 50.027344 273.164062 C 50.367188 252.160156 57.113281 239.382812 62.710938 232.363281 C 68.828125 224.695312 74.828125 222.074219 75.078125 221.964844 C 75.203125 221.910156 75.335938 221.882812 75.46875 221.882812 L 75.53125 221.882812 L 108.652344 223.910156 L 141.777344 221.882812 L 141.835938 221.882812 C 141.976562 221.882812 142.113281 221.914062 142.242188 221.972656 C 142.507812 222.085938 148.785156 224.960938 155.191406 232.738281 C 161.074219 239.878906 168.15625 252.6875 168.496094 273.164062 C 168.496094 273.429688 168.394531 273.683594 168.207031 273.875 C 168.023438 274.066406 167.765625 274.171875 167.5 274.171875 L 51.015625 274.171875 " fill-opacity="1" fill-rule="nonzero"/><g clip-path="url(#8d27df9ffb)"><path fill="#000000" d="M 75.46875 220.890625 C 75.203125 220.890625 74.933594 220.945312 74.6875 221.050781 C 74.425781 221.164062 68.207031 223.886719 61.9375 231.746094 C 56.242188 238.886719 49.378906 251.867188 49.035156 273.148438 C 49.023438 273.679688 49.230469 274.191406 49.601562 274.570312 C 49.976562 274.953125 50.484375 275.164062 51.015625 275.164062 L 167.5 275.164062 C 168.035156 275.164062 168.542969 274.953125 168.917969 274.570312 C 169.289062 274.191406 169.496094 273.679688 169.484375 273.148438 C 169.140625 252.382812 161.941406 239.367188 155.960938 232.105469 C 149.402344 224.152344 142.921875 221.1875 142.648438 221.066406 C 142.394531 220.949219 142.117188 220.890625 141.835938 220.890625 L 141.714844 220.894531 L 108.652344 222.917969 L 75.589844 220.894531 Z M 141.835938 222.875 C 141.835938 222.875 166.855469 234.09375 167.5 273.179688 L 51.015625 273.179688 C 51.671875 233.0625 75.46875 222.875 75.46875 222.875 L 108.652344 224.90625 L 141.835938 222.875 " fill-opacity="1" fill-rule="nonzero"/></g><path fill="#ffffff" d="M 124.613281 262.632812 C 119.96875 262.632812 113.84375 260.878906 106.414062 257.414062 L 105.40625 256.945312 L 121.121094 231.199219 L 132.285156 232.5 L 132.503906 233.046875 C 132.785156 233.746094 139.351562 250.292969 133.90625 258.355469 C 131.992188 261.195312 128.863281 262.632812 124.613281 262.632812 " fill-opacity="1" fill-rule="nonzero"/><path fill="#000000" d="M 120.605469 230.136719 L 119.941406 231.222656 L 105.140625 255.480469 L 103.984375 257.375 L 105.996094 258.3125 C 113.554688 261.835938 119.820312 263.625 124.613281 263.625 C 129.214844 263.625 132.617188 262.039062 134.726562 258.910156 C 140.464844 250.417969 133.714844 233.394531 133.425781 232.675781 L 132.984375 231.582031 L 131.8125 231.445312 L 121.867188 230.285156 Z M 121.636719 232.257812 L 131.585938 233.417969 C 131.585938 233.417969 142.949219 261.640625 124.613281 261.640625 C 120.414062 261.640625 114.652344 260.160156 106.832031 256.515625 L 121.636719 232.257812 " fill-opacity="1" fill-rule="nonzero"/><path fill="#ffffff" d="M 88.636719 263.378906 C 84.390625 263.378906 81.261719 261.9375 79.347656 259.101562 C 73.902344 251.039062 80.46875 234.492188 80.75 233.792969 L 80.96875 233.242188 L 92.132812 231.941406 L 107.847656 257.691406 L 106.839844 258.160156 C 99.410156 261.621094 93.285156 263.378906 88.640625 263.378906 L 88.636719 263.378906 " fill-opacity="1" fill-rule="nonzero"/><path fill="#000000" d="M 92.648438 230.882812 L 91.386719 231.03125 L 81.441406 232.191406 L 80.269531 232.328125 L 79.828125 233.421875 C 79.539062 234.140625 72.789062 251.160156 78.527344 259.660156 C 80.636719 262.785156 84.039062 264.371094 88.636719 264.371094 C 93.429688 264.371094 99.699219 262.582031 107.257812 259.058594 L 109.269531 258.117188 L 108.113281 256.222656 L 93.3125 231.96875 Z M 91.617188 233.003906 L 106.417969 257.257812 C 98.601562 260.902344 92.839844 262.386719 88.636719 262.386719 C 70.304688 262.386719 81.667969 234.160156 81.667969 234.160156 L 91.617188 233.003906 " fill-opacity="1" fill-rule="nonzero"/><path fill="#f7bf89" d="M 106.5625 257.46875 C 90.617188 252.96875 84.324219 235.101562 84.0625 234.34375 L 83.691406 233.253906 L 106.832031 229.019531 L 129.976562 233.253906 L 129.601562 234.34375 C 129.34375 235.101562 123.046875 252.96875 107.101562 257.46875 L 106.832031 257.546875 L 106.5625 257.46875 " fill-opacity="1" fill-rule="nonzero"/><path fill="#000000" d="M 106.832031 228.011719 L 106.476562 228.078125 L 84.648438 232.066406 L 82.378906 232.484375 L 83.125 234.667969 C 83.394531 235.445312 89.855469 253.785156 106.292969 258.425781 L 106.832031 258.574219 L 107.371094 258.425781 C 123.8125 253.785156 130.273438 235.445312 130.542969 234.667969 L 131.292969 232.484375 L 129.023438 232.066406 L 107.191406 228.078125 Z M 106.832031 230.03125 L 128.664062 234.019531 C 128.664062 234.019531 122.460938 252.105469 106.832031 256.515625 C 91.207031 252.105469 85 234.019531 85 234.019531 L 106.832031 230.03125 " fill-opacity="1" fill-rule="nonzero"/><path fill="#f7bf89" d="M 162.058594 200.976562 C 161.113281 200.976562 160.226562 200.726562 159.414062 200.238281 L 159 199.992188 L 155.90625 175.242188 L 156.210938 174.90625 C 156.40625 174.691406 160.972656 169.730469 165.867188 169.730469 C 168.894531 169.730469 171.316406 171.550781 173.058594 175.140625 C 176.238281 181.699219 173.859375 189.625 170.855469 194.414062 C 168.285156 198.523438 164.996094 200.976562 162.058594 200.976562 " fill-opacity="1" fill-rule="nonzero"/><path fill="#000000" d="M 165.867188 168.738281 C 160.628906 168.738281 155.992188 173.675781 155.480469 174.238281 L 154.867188 174.914062 L 154.976562 175.820312 L 157.957031 199.636719 L 158.074219 200.59375 L 158.902344 201.089844 C 159.871094 201.671875 160.933594 201.96875 162.058594 201.96875 C 165.339844 201.96875 168.941406 199.339844 171.699219 194.945312 C 174.835938 189.933594 177.308594 181.632812 173.949219 174.707031 C 171.554688 169.773438 168.234375 168.738281 165.867188 168.738281 Z M 165.867188 170.722656 C 168.121094 170.722656 170.398438 171.9375 172.164062 175.574219 C 176.917969 185.375 168.597656 199.980469 162.058594 199.980469 C 161.316406 199.980469 160.601562 199.792969 159.925781 199.390625 L 156.945312 175.574219 C 156.945312 175.574219 161.359375 170.722656 165.867188 170.722656 " fill-opacity="1" fill-rule="nonzero"/><path fill="#f7bf89" d="M 54.664062 200.976562 C 51.726562 200.972656 48.4375 198.523438 45.867188 194.414062 C 42.863281 189.621094 40.488281 181.699219 43.667969 175.140625 C 45.410156 171.550781 47.828125 169.730469 50.859375 169.730469 C 55.75 169.730469 60.320312 174.691406 60.511719 174.90625 L 60.816406 175.242188 L 57.726562 199.992188 L 57.3125 200.238281 C 56.5 200.726562 55.609375 200.976562 54.664062 200.976562 " fill-opacity="1" fill-rule="nonzero"/><path fill="#000000" d="M 50.859375 168.738281 C 48.492188 168.738281 45.167969 169.773438 42.777344 174.707031 C 39.417969 181.632812 41.890625 189.933594 45.027344 194.945312 C 47.78125 199.339844 51.386719 201.96875 54.664062 201.96875 C 55.792969 201.96875 56.851562 201.671875 57.820312 201.089844 L 58.648438 200.59375 L 58.769531 199.636719 L 61.746094 175.820312 L 61.859375 174.914062 L 61.242188 174.238281 C 60.734375 173.675781 56.09375 168.738281 50.859375 168.738281 Z M 50.859375 170.722656 C 55.367188 170.722656 59.777344 175.574219 59.777344 175.574219 L 56.800781 199.390625 C 56.125 199.792969 55.40625 199.980469 54.664062 199.980469 C 48.128906 199.980469 39.808594 185.375 44.558594 175.574219 C 46.324219 171.9375 48.601562 170.722656 50.859375 170.722656 " fill-opacity="1" fill-rule="nonzero"/><path fill="#f7bf89" d="M 109.703125 240.878906 C 109.359375 240.878906 109.007812 240.871094 108.652344 240.851562 C 108.296875 240.871094 107.945312 240.878906 107.601562 240.878906 C 101.261719 240.878906 96.851562 237.679688 95.707031 236.753906 C 81.375 236.195312 70.722656 231.582031 64.050781 223.039062 C 53.015625 208.921875 56.675781 189.21875 57.050781 187.386719 C 56.828125 165.136719 61.957031 148.554688 72.304688 138.097656 C 82.761719 127.523438 96.648438 125.304688 106.453125 125.304688 C 107.199219 125.304688 107.933594 125.316406 108.652344 125.339844 C 109.371094 125.316406 110.105469 125.304688 110.851562 125.304688 C 120.660156 125.304688 134.542969 127.523438 145 138.09375 C 155.347656 148.550781 160.476562 165.132812 160.253906 187.386719 C 160.628906 189.21875 164.289062 208.921875 153.253906 223.042969 C 146.582031 231.582031 135.929688 236.195312 121.601562 236.753906 C 120.457031 237.679688 116.046875 240.878906 109.703125 240.878906 " fill-opacity="1" fill-rule="nonzero"/><path fill="#000000" d="M 110.851562 124.3125 C 110.125 124.3125 109.386719 124.324219 108.652344 124.347656 C 107.917969 124.324219 107.179688 124.3125 106.457031 124.3125 C 92.121094 124.3125 80.066406 128.839844 71.597656 137.398438 C 61.078125 148.035156 55.847656 164.820312 56.054688 187.292969 C 55.574219 189.734375 52.152344 209.425781 63.265625 223.652344 C 70.082031 232.367188 80.871094 237.105469 95.347656 237.734375 C 96.898438 238.921875 101.378906 241.871094 107.601562 241.871094 C 107.949219 241.871094 108.304688 241.863281 108.652344 241.84375 C 109.003906 241.863281 109.355469 241.871094 109.703125 241.871094 C 115.929688 241.871094 120.40625 238.921875 121.960938 237.734375 C 136.433594 237.105469 147.222656 232.371094 154.035156 223.652344 C 165.152344 209.429688 161.730469 189.734375 161.25 187.292969 C 161.457031 164.820312 156.226562 148.035156 145.707031 137.398438 C 137.238281 128.839844 125.1875 124.3125 110.851562 124.3125 Z M 110.851562 126.296875 C 130.636719 126.296875 159.824219 135.128906 159.261719 187.480469 C 159.261719 187.480469 169.183594 234.125 121.222656 235.777344 C 121.222656 235.777344 116.664062 239.890625 109.703125 239.890625 C 109.359375 239.890625 109.007812 239.878906 108.652344 239.855469 C 108.296875 239.878906 107.945312 239.890625 107.601562 239.890625 C 100.644531 239.890625 96.085938 235.777344 96.085938 235.777344 C 48.117188 234.125 58.042969 187.480469 58.042969 187.480469 C 57.480469 135.132812 86.667969 126.296875 106.453125 126.296875 C 107.199219 126.296875 107.933594 126.308594 108.652344 126.332031 C 109.367188 126.308594 110.105469 126.296875 110.851562 126.296875 " fill-opacity="1" fill-rule="nonzero"/><path fill="#f7bf89" d="M 114.273438 196.746094 C 114.273438 196.746094 114.109375 191.78125 107.660156 191.617188 C 107.660156 191.617188 100.21875 190.957031 99.558594 196.746094 " fill-opacity="1" fill-rule="nonzero"/><path fill="#000000" d="M 115.265625 196.710938 C 115.265625 196.65625 115.25 196.28125 115.113281 195.726562 C 114.90625 194.898438 114.421875 193.652344 113.261719 192.582031 C 112.679688 192.046875 111.9375 191.570312 111.015625 191.222656 C 110.089844 190.875 108.988281 190.660156 107.6875 190.625 L 107.660156 191.617188 L 107.75 190.628906 C 107.726562 190.625 107.441406 190.601562 106.980469 190.601562 C 105.976562 190.605469 104.144531 190.707031 102.371094 191.496094 C 101.488281 191.890625 100.613281 192.472656 99.917969 193.320312 C 99.21875 194.167969 98.722656 195.28125 98.570312 196.628906 C 98.507812 197.175781 98.898438 197.667969 99.445312 197.730469 C 99.988281 197.792969 100.480469 197.402344 100.542969 196.859375 C 100.660156 195.847656 100.996094 195.140625 101.453125 194.578125 C 101.792969 194.160156 102.214844 193.824219 102.691406 193.554688 C 103.40625 193.148438 104.238281 192.898438 105.011719 192.757812 C 105.789062 192.617188 106.503906 192.585938 106.980469 192.585938 C 107.175781 192.585938 107.328125 192.589844 107.429688 192.597656 C 107.480469 192.597656 107.519531 192.601562 107.542969 192.601562 L 107.570312 192.605469 L 107.574219 192.605469 L 107.597656 192.285156 L 107.570312 192.605469 L 107.574219 192.605469 L 107.597656 192.285156 L 107.570312 192.605469 L 107.605469 192.605469 L 107.632812 192.609375 C 109.121094 192.648438 110.179688 192.957031 110.949219 193.363281 C 112.101562 193.976562 112.660156 194.824219 112.96875 195.550781 C 113.117188 195.910156 113.199219 196.234375 113.242188 196.464844 C 113.261719 196.574219 113.273438 196.664062 113.277344 196.722656 L 113.28125 196.777344 L 113.285156 196.777344 C 113.300781 197.324219 113.761719 197.753906 114.308594 197.738281 C 114.855469 197.71875 115.285156 197.257812 115.265625 196.710938 " fill-opacity="1" fill-rule="nonzero"/><path fill="#f7bf89" d="M 122.40625 202.867188 C 122.40625 202.867188 109.847656 215.929688 92.75 202.867188 " fill-opacity="1" fill-rule="nonzero"/><path fill="#000000" d="M 121.804688 202.289062 C 121.757812 202.339844 120.382812 203.738281 117.984375 205.113281 C 115.585938 206.492188 112.179688 207.839844 108.035156 207.835938 C 103.828125 207.835938 98.832031 206.464844 93.257812 202.203125 C 92.890625 201.925781 92.367188 201.992188 92.089844 202.359375 C 91.808594 202.726562 91.882812 203.246094 92.246094 203.527344 C 98.0625 207.976562 103.457031 209.507812 108.035156 209.503906 C 112.617188 209.503906 116.351562 207.992188 118.933594 206.488281 C 121.519531 204.980469 122.964844 203.480469 123.003906 203.441406 C 123.324219 203.109375 123.3125 202.585938 122.980469 202.265625 C 122.648438 201.945312 122.125 201.957031 121.804688 202.289062 " fill-opacity="1" fill-rule="nonzero"/><path fill="#f7bf89" d="M 93.105469 195.089844 C 93.105469 195.089844 80.535156 201.375 76.402344 207 " fill-opacity="1" fill-rule="nonzero"/><path fill="#000000" d="M 93.105469 195.089844 C 93.105469 195.089844 92.855469 195.3125 92.40625 195.671875 C 91.960938 196.03125 91.320312 196.539062 90.535156 197.109375 C 89.757812 197.691406 88.839844 198.339844 87.851562 199.023438 C 86.863281 199.703125 85.796875 200.410156 84.746094 201.125 C 83.691406 201.828125 82.636719 202.535156 81.648438 203.195312 C 81.144531 203.519531 80.691406 203.863281 80.230469 204.160156 C 79.773438 204.460938 79.371094 204.773438 78.96875 205.042969 C 78.570312 205.3125 78.242188 205.589844 77.917969 205.816406 C 77.757812 205.933594 77.613281 206.042969 77.476562 206.144531 C 77.34375 206.253906 77.222656 206.351562 77.117188 206.441406 C 76.679688 206.796875 76.402344 207 76.402344 207 C 76.402344 207 76.535156 206.699219 76.8125 206.1875 C 76.882812 206.058594 76.960938 205.914062 77.046875 205.757812 C 77.136719 205.609375 77.253906 205.460938 77.367188 205.292969 C 77.605469 204.972656 77.855469 204.570312 78.191406 204.207031 C 78.519531 203.839844 78.859375 203.410156 79.269531 203.019531 C 79.675781 202.628906 80.097656 202.191406 80.574219 201.800781 C 81.046875 201.40625 81.527344 200.984375 82.054688 200.605469 C 82.566406 200.214844 83.101562 199.835938 83.644531 199.472656 C 84.191406 199.109375 84.742188 198.761719 85.296875 198.4375 C 85.847656 198.101562 86.40625 197.804688 86.945312 197.519531 C 88.027344 196.949219 89.070312 196.472656 89.984375 196.117188 C 90.890625 195.746094 91.671875 195.488281 92.226562 195.324219 C 92.777344 195.15625 93.105469 195.089844 93.105469 195.089844 " fill-opacity="1" fill-rule="nonzero"/><path fill="#f7bf89" d="M 123.871094 195.089844 C 123.871094 195.089844 135.777344 203.691406 138.261719 207 " fill-opacity="1" fill-rule="nonzero"/><path fill="#000000" d="M 123.871094 195.089844 C 123.871094 195.089844 124.15625 195.195312 124.632812 195.40625 C 125.113281 195.617188 125.785156 195.941406 126.566406 196.367188 C 127.34375 196.792969 128.226562 197.324219 129.144531 197.9375 C 130.0625 198.546875 131.015625 199.238281 131.941406 199.964844 C 132.859375 200.699219 133.753906 201.472656 134.554688 202.242188 C 135.355469 203.007812 136.066406 203.769531 136.632812 204.46875 C 136.910156 204.824219 137.167969 205.140625 137.371094 205.453125 C 137.582031 205.753906 137.753906 206.019531 137.890625 206.253906 C 138.144531 206.726562 138.261719 207 138.261719 207 C 138.261719 207 138 206.824219 137.59375 206.515625 C 137.386719 206.363281 137.113281 206.195312 136.832031 205.988281 C 136.550781 205.777344 136.199219 205.566406 135.847656 205.3125 C 135.492188 205.058594 135.101562 204.789062 134.695312 204.503906 C 134.289062 204.214844 133.863281 203.90625 133.421875 203.585938 C 132.984375 203.261719 132.527344 202.9375 132.074219 202.582031 C 131.617188 202.242188 131.164062 201.878906 130.707031 201.519531 C 128.886719 200.074219 127.128906 198.535156 125.882812 197.285156 C 125.253906 196.660156 124.75 196.117188 124.402344 195.726562 C 124.054688 195.332031 123.871094 195.089844 123.871094 195.089844 " fill-opacity="1" fill-rule="nonzero"/><path fill="#000000" d="M 116.261719 185.351562 C 116.261719 187.457031 117.964844 189.15625 120.066406 189.15625 C 122.164062 189.15625 123.871094 187.457031 123.871094 185.351562 C 123.871094 183.25 122.164062 181.546875 120.066406 181.546875 C 117.964844 181.546875 116.261719 183.25 116.261719 185.351562 " fill-opacity="1" fill-rule="nonzero"/><path fill="#000000" d="M 91.285156 185.351562 C 91.285156 187.457031 92.988281 189.15625 95.089844 189.15625 C 97.191406 189.15625 98.894531 187.457031 98.894531 185.351562 C 98.894531 183.25 97.191406 181.546875 95.089844 181.546875 C 92.988281 181.546875 91.285156 183.25 91.285156 185.351562 " fill-opacity="1" fill-rule="nonzero"/><path fill="#000000" d="M 130.152344 168.464844 C 130.152344 168.464844 124.859375 164.851562 119.570312 163.167969 C 119.570312 163.167969 128.003906 159.53125 130.152344 168.464844 " fill-opacity="1" fill-rule="nonzero"/><path fill="#000000" d="M 85.167969 167.140625 C 85.167969 167.140625 90.457031 163.527344 95.753906 161.847656 C 95.753906 161.847656 87.316406 158.207031 85.167969 167.140625 " fill-opacity="1" fill-rule="nonzero"/><path fill="#808080" d="M 58.011719 190.675781 C 57.929688 190.675781 57.851562 190.667969 57.769531 190.648438 C 57.425781 190.5625 57.15625 190.296875 57.058594 189.957031 C 56.90625 189.429688 53.496094 177.382812 52.839844 171.472656 L 51.167969 170.9375 C 50.84375 170.835938 50.59375 170.574219 50.507812 170.246094 C 50.195312 169.0625 43.042969 141.03125 57.648438 122.082031 C 66.074219 111.152344 80.023438 105.609375 99.109375 105.609375 C 101.449219 105.609375 103.898438 105.695312 106.390625 105.863281 C 107.042969 105.777344 110.640625 105.351562 115.902344 105.351562 C 127.800781 105.351562 149.628906 107.625 162.097656 122.863281 C 171.265625 134.058594 173.800781 150.230469 169.632812 170.917969 C 169.402344 172.050781 168.519531 173.945312 165.15625 173.945312 C 164.003906 173.945312 162.847656 173.722656 162.011719 173.511719 C 161.625 177.632812 160.371094 188.175781 157.574219 190.457031 C 157.394531 190.601562 157.171875 190.675781 156.945312 190.675781 C 156.859375 190.675781 156.765625 190.667969 156.679688 190.640625 C 156.367188 190.554688 156.121094 190.320312 156.011719 190.015625 C 155.777344 189.355469 150.441406 174.117188 149.925781 163.425781 C 144.742188 163.332031 118.765625 161.898438 106.355469 142.746094 C 102.847656 147.390625 89.050781 163.734375 65.976562 167.996094 C 65.246094 171.769531 62.140625 186.875 58.722656 190.378906 C 58.535156 190.574219 58.277344 190.675781 58.011719 190.675781 " fill-opacity="1" fill-rule="nonzero"/><path fill="#000000" d="M 115.90625 104.359375 L 115.90625 106.34375 L 115.90625 104.359375 C 110.808594 104.359375 107.242188 104.753906 106.359375 104.867188 C 103.878906 104.703125 101.4375 104.621094 99.109375 104.621094 C 79.695312 104.621094 65.484375 110.289062 56.863281 121.476562 C 50.671875 129.507812 47.445312 140.546875 47.539062 153.398438 C 47.605469 163.015625 49.46875 170.199219 49.550781 170.5 C 49.722656 171.15625 50.21875 171.679688 50.867188 171.886719 L 51.933594 172.222656 C 52.757812 178.414062 55.957031 189.714844 56.105469 190.230469 C 56.296875 190.910156 56.839844 191.4375 57.527344 191.609375 C 57.6875 191.648438 57.851562 191.667969 58.011719 191.667969 C 58.542969 191.667969 59.054688 191.460938 59.433594 191.070312 C 62.867188 187.550781 65.824219 173.90625 66.824219 168.84375 C 80.625 166.136719 90.953125 159.214844 97.261719 153.792969 C 101.550781 150.101562 104.566406 146.644531 106.308594 144.449219 C 118.613281 161.988281 142.226562 164.140625 148.988281 164.390625 C 149.757812 175.164062 154.847656 189.695312 155.074219 190.347656 C 155.289062 190.953125 155.789062 191.421875 156.410156 191.597656 C 156.585938 191.644531 156.765625 191.667969 156.945312 191.667969 C 157.398438 191.667969 157.84375 191.519531 158.199219 191.226562 C 159.335938 190.300781 160.808594 188.230469 162.113281 180.367188 C 162.464844 178.234375 162.71875 176.199219 162.878906 174.714844 C 163.578125 174.84375 164.363281 174.9375 165.15625 174.9375 C 169.378906 174.9375 170.371094 172.265625 170.601562 171.113281 C 174.835938 150.117188 172.230469 133.671875 162.867188 122.234375 C 150.132812 106.683594 127.980469 104.359375 115.90625 104.359375 Z M 115.902344 106.34375 C 136.042969 106.34375 180.339844 112.742188 168.65625 170.722656 C 168.304688 172.46875 166.757812 172.953125 165.15625 172.953125 C 163.183594 172.953125 161.128906 172.21875 161.128906 172.21875 C 161.128906 172.21875 159.925781 187.261719 156.945312 189.6875 C 156.945312 189.6875 151.101562 173.113281 150.882812 162.433594 C 150.882812 162.433594 150.761719 162.4375 150.53125 162.4375 C 147.074219 162.4375 118.753906 161.792969 106.417969 140.964844 C 106.417969 140.964844 92.300781 162.433594 65.132812 167.140625 C 65.132812 167.140625 61.597656 186.007812 58.011719 189.6875 C 58.011719 189.6875 54.207031 176.304688 53.765625 170.722656 L 51.46875 169.996094 C 51.46875 169.996094 34.78125 106.601562 99.109375 106.601562 C 101.441406 106.601562 103.871094 106.6875 106.417969 106.859375 C 106.417969 106.859375 110.191406 106.34375 115.902344 106.34375 " fill-opacity="1" fill-rule="nonzero"/><path fill="#000000" d="M 103.800781 266.429688 C 103.800781 268.101562 105.160156 269.457031 106.832031 269.457031 C 108.507812 269.457031 109.867188 268.101562 109.867188 266.429688 C 109.867188 264.753906 108.507812 263.398438 106.832031 263.398438 C 105.160156 263.398438 103.800781 264.753906 103.800781 266.429688 " fill-opacity="1" fill-rule="nonzero"/><path fill="#000000" d="M 105.425781 144.597656 L 107.414062 144.597656 L 107.414062 106.859375 L 105.425781 106.859375 Z M 105.425781 144.597656 " fill-opacity="1" fill-rule="nonzero"/></svg>