<svg xmlns="http://www.w3.org/2000/svg" xmlns:xlink="http://www.w3.org/1999/xlink" width="500" zoomAndPan="magnify" viewBox="0 0 375 374.999991" height="500" preserveAspectRatio="xMidYMid meet" version="1.0"><defs><clipPath id="de76dd9e01"><path d="M 45 32.351562 L 330 32.351562 L 330 337 L 45 337 Z M 45 32.351562 " clip-rule="nonzero"/></clipPath></defs><g clip-path="url(#de76dd9e01)"><path fill="#612b15" d="M 212.007812 32.351562 C 193.113281 32.351562 177.6875 47.78125 177.6875 66.695312 C 177.6875 85.589844 193.113281 101.035156 212.007812 101.035156 C 230.941406 101.035156 246.367188 85.589844 246.367188 66.695312 C 246.367188 47.796875 230.941406 32.351562 212.007812 32.351562 Z M 212.007812 42.164062 C 225.632812 42.164062 236.558594 53.085938 236.558594 66.695312 C 236.558594 80.28125 225.632812 91.222656 212.007812 91.222656 C 198.421875 91.222656 187.5 80.28125 187.5 66.695312 C 187.5 53.085938 198.421875 42.164062 212.007812 42.164062 Z M 177.761719 105.941406 C 167.03125 105.941406 156.664062 109.851562 148.617188 116.921875 L 127.152344 135.816406 C 123.03125 139.4375 120.234375 144.324219 119.21875 149.730469 C 117.800781 157.453125 115.347656 170.597656 113.257812 181.90625 C 112.207031 187.578125 111.246094 192.769531 110.539062 196.621094 C 110.175781 198.539062 109.886719 200.109375 109.675781 201.242188 C 109.464844 202.371094 109.386719 202.734375 109.3125 203.273438 C 109.042969 204.957031 109.023438 206.585938 109.023438 206.585938 C 109.023438 206.664062 109.023438 206.742188 109.023438 206.816406 C 109.195312 216.09375 116.863281 223.679688 126.175781 223.679688 C 133.324219 223.679688 139.492188 219.253906 142.042969 212.988281 C 142.101562 212.890625 142.695312 211.664062 143.019531 209.863281 C 143.039062 209.710938 145.300781 197.503906 147.484375 185.8125 C 149.476562 174.988281 151.183594 165.828125 151.472656 164.292969 L 163.199219 154.480469 L 154.097656 196.738281 C 153.464844 199.652344 153.195312 202.601562 153.214844 205.535156 L 153.214844 205.554688 C 153.121094 205.800781 153.042969 206.070312 152.984375 206.339844 L 141.121094 258.003906 L 107.664062 305.625 C 107.070312 306.449219 106.761719 307.445312 106.78125 308.460938 C 105.460938 311.085938 104.097656 313.75 104.097656 316.894531 C 104.097656 327.683594 112.933594 336.515625 123.722656 336.515625 C 129.472656 336.515625 134.398438 333.699219 137.980469 329.730469 C 138.707031 329.367188 139.320312 328.832031 139.78125 328.179688 L 176.328125 276.152344 C 176.613281 275.769531 176.824219 275.347656 176.976562 274.90625 L 182.726562 257.964844 L 234.929688 327.71875 C 235.445312 328.410156 236.136719 328.945312 236.921875 329.292969 C 241.253906 334.253906 247.652344 337.492188 254.898438 336.191406 C 262.753906 334.773438 268.945312 328.621094 270.515625 320.839844 C 270.515625 320.839844 270.515625 320.820312 270.515625 320.820312 C 271.433594 316.242188 270.417969 311.910156 268.542969 308.191406 C 268.425781 307.539062 268.195312 306.929688 267.851562 306.390625 L 208.710938 213.140625 L 215.765625 181.847656 L 217.699219 184.605469 C 219.40625 187.058594 221.839844 188.9375 224.65625 189.972656 L 274.65625 208.464844 C 274.941406 208.582031 275.269531 208.65625 275.574219 208.714844 C 276.246094 208.8125 277.125 208.964844 278.257812 208.964844 C 287.6875 208.964844 295.425781 201.222656 295.425781 191.792969 C 295.425781 185.699219 292.1875 180.3125 287.378906 177.285156 C 287.109375 177.113281 286.824219 176.980469 286.515625 176.847656 L 243.550781 160.441406 L 226.574219 133.039062 C 227.972656 118.835938 216.683594 105.941406 202.003906 105.941406 Z M 177.761719 115.753906 L 202.003906 115.753906 C 211.664062 115.753906 218.640625 124.492188 216.53125 133.898438 L 198.691406 212.96875 C 198.402344 214.234375 198.632812 215.574219 199.324219 216.6875 L 257.003906 307.597656 L 260.953125 304.933594 C 258.730469 306.429688 258.097656 309.398438 259.535156 311.660156 C 260.855469 313.730469 261.449219 316.144531 260.894531 318.90625 C 260.128906 322.640625 256.851562 325.878906 253.152344 326.550781 C 248.765625 327.335938 245.085938 325.363281 243.015625 322.125 C 241.675781 320.015625 238.933594 319.25 236.691406 320.363281 L 240.332031 318.558594 L 169.023438 223.277344 C 163.792969 216.285156 161.839844 207.355469 163.679688 198.808594 L 175.808594 142.640625 C 176.25 140.589844 175.347656 138.480469 173.546875 137.40625 C 171.765625 136.316406 169.464844 136.488281 167.875 137.828125 L 143.824219 157.894531 C 142.945312 158.621094 142.347656 159.636719 142.136719 160.769531 C 142.136719 160.769531 139.992188 172.34375 137.828125 184.03125 C 135.660156 195.722656 133.535156 207.183594 133.363281 208.121094 C 133.324219 208.351562 133.054688 209.117188 133.054688 209.117188 C 133.015625 209.15625 132.996094 209.214844 132.996094 209.269531 C 131.886719 211.953125 129.300781 213.871094 126.175781 213.871094 C 122.113281 213.871094 118.949219 210.726562 118.855469 206.683594 C 118.875 206.414062 118.933594 205.246094 118.988281 204.824219 C 119.007812 204.824219 119.007812 204.824219 118.988281 204.824219 C 118.949219 205.132812 119.125 204.152344 119.335938 203.023438 C 119.527344 201.890625 119.8125 200.320312 120.175781 198.386719 C 120.886719 194.554688 121.84375 189.359375 122.898438 183.707031 C 124.988281 172.398438 127.441406 159.253906 128.878906 151.53125 C 129.492188 148.273438 131.140625 145.359375 133.609375 143.195312 L 155.09375 124.300781 C 161.359375 118.78125 169.425781 115.753906 177.761719 115.753906 Z M 223.640625 146.929688 L 236.097656 167.015625 C 236.652344 167.914062 237.496094 168.625 238.492188 169.007812 L 282.222656 185.71875 C 284.253906 187.039062 285.617188 189.1875 285.617188 191.792969 C 285.617188 195.914062 282.378906 199.152344 278.257812 199.152344 C 278.121094 199.152344 277.796875 199.09375 277.492188 199.074219 L 228.046875 180.773438 C 227.109375 180.429688 226.304688 179.816406 225.730469 178.992188 L 218.679688 168.929688 Z M 158.675781 225.367188 C 159.441406 226.671875 160.25 227.953125 161.167969 229.164062 L 175.597656 248.441406 L 167.894531 271.09375 L 132.058594 322.105469 C 132.039062 322.125 132.039062 322.125 132.039062 322.125 C 131.925781 322.257812 131.828125 322.375 131.734375 322.507812 C 129.949219 325.054688 127.074219 326.703125 123.722656 326.703125 C 118.242188 326.703125 113.910156 322.375 113.910156 316.894531 C 113.910156 314.785156 114.582031 312.886719 115.710938 311.277344 C 117.1875 309.167969 116.804688 306.277344 114.8125 304.648438 L 118.433594 307.367188 L 149.707031 262.851562 C 150.074219 262.316406 150.339844 261.738281 150.476562 261.109375 Z M 50.132812 302.175781 C 47.433594 302.175781 45.230469 304.378906 45.230469 307.082031 C 45.230469 309.78125 47.433594 311.988281 50.132812 311.988281 C 52.835938 311.988281 55.039062 309.78125 55.039062 307.082031 C 55.039062 304.378906 52.835938 302.175781 50.132812 302.175781 Z M 69.757812 302.175781 C 67.054688 302.175781 64.851562 304.378906 64.851562 307.082031 C 64.851562 309.78125 67.054688 311.988281 69.757812 311.988281 C 72.460938 311.988281 74.664062 309.78125 74.664062 307.082031 C 74.664062 304.378906 72.460938 302.175781 69.757812 302.175781 Z M 89.382812 302.175781 C 86.679688 302.175781 84.476562 304.378906 84.476562 307.082031 C 84.476562 309.78125 86.679688 311.988281 89.382812 311.988281 C 92.082031 311.988281 94.289062 309.78125 94.289062 307.082031 C 94.289062 304.378906 92.082031 302.175781 89.382812 302.175781 Z M 167.875 302.175781 C 165.171875 302.175781 162.96875 304.378906 162.96875 307.082031 C 162.96875 309.78125 165.171875 311.988281 167.875 311.988281 C 170.578125 311.988281 172.78125 309.78125 172.78125 307.082031 C 172.78125 304.378906 170.578125 302.175781 167.875 302.175781 Z M 187.5 302.175781 C 184.796875 302.175781 182.59375 304.378906 182.59375 307.082031 C 182.59375 309.78125 184.796875 311.988281 187.5 311.988281 C 190.199219 311.988281 192.40625 309.78125 192.40625 307.082031 C 192.40625 304.378906 190.199219 302.175781 187.5 302.175781 Z M 207.121094 302.175781 C 204.421875 302.175781 202.214844 304.378906 202.214844 307.082031 C 202.214844 309.78125 204.421875 311.988281 207.121094 311.988281 C 209.824219 311.988281 212.027344 309.78125 212.027344 307.082031 C 212.027344 304.378906 209.824219 302.175781 207.121094 302.175781 Z M 285.617188 302.175781 C 282.914062 302.175781 280.710938 304.378906 280.710938 307.082031 C 280.710938 309.78125 282.914062 311.988281 285.617188 311.988281 C 288.316406 311.988281 290.523438 309.78125 290.523438 307.082031 C 290.523438 304.378906 288.316406 302.175781 285.617188 302.175781 Z M 305.238281 302.175781 C 302.539062 302.175781 300.332031 304.378906 300.332031 307.082031 C 300.332031 309.78125 302.539062 311.988281 305.238281 311.988281 C 307.941406 311.988281 310.144531 309.78125 310.144531 307.082031 C 310.144531 304.378906 307.941406 302.175781 305.238281 302.175781 Z M 324.863281 302.175781 C 322.160156 302.175781 319.957031 304.378906 319.957031 307.082031 C 319.957031 309.78125 322.160156 311.988281 324.863281 311.988281 C 327.566406 311.988281 329.769531 309.78125 329.769531 307.082031 C 329.769531 304.378906 327.566406 302.175781 324.863281 302.175781 Z M 324.863281 302.175781 " fill-opacity="1" fill-rule="nonzero"/></g></svg>