<svg xmlns="http://www.w3.org/2000/svg" xmlns:xlink="http://www.w3.org/1999/xlink" width="500" zoomAndPan="magnify" viewBox="0 0 375 374.999991" height="500" preserveAspectRatio="xMidYMid meet" version="1.0"><defs><g/></defs><path stroke-linecap="butt" transform="matrix(0.704854, 0, 0, 0.704854, 17.909003, 16.894503)" fill="none" stroke-linejoin="miter" d="M 4.268923 282.062187 C 6.563282 270.673518 9.550383 257.932617 13.230226 243.833943 C 16.910069 229.740811 21.077601 215.259744 25.727282 200.396284 C 30.382504 185.46632 35.10423 171.057298 39.892459 157.169218 C 44.758275 143.209092 49.513252 130.43494 54.168474 118.835678 C 58.818155 107.241957 62.952436 97.937054 66.560233 90.920968 C 74.341105 88.283009 83.607215 85.850101 94.375187 83.627787 C 105.204122 81.338969 116.698088 80.053241 128.851544 79.776144 C 141.004999 79.427002 153.053159 80.989827 164.996021 84.464618 C 176.944425 87.867364 187.911908 93.941321 197.915094 102.692031 C 207.984784 111.370696 216.247804 123.596197 222.704154 139.35745 C 225.757758 146.927728 229.265801 156.648276 233.228282 168.524636 C 237.185221 180.32895 241.352754 193.452244 245.725338 207.900059 C 250.097922 222.27583 254.370751 237.100496 258.538283 252.37406 C 262.705816 267.653165 266.524207 282.549877 269.993456 297.064196 C 273.53475 311.578514 276.350051 324.807105 278.433817 336.749967 C 277.879624 341.820835 275.236123 346.891702 270.514397 351.957027 C 265.792672 356.95585 259.751966 361.228679 252.392281 364.769973 C 245.099099 368.244764 237.218473 370.533582 228.744859 371.64751 C 220.343291 372.827941 211.974975 372.168452 203.63991 369.669041 C 195.310386 367.236133 187.77336 362.40911 181.039913 355.187973 C 174.300924 347.966837 169.058257 337.930399 165.311911 325.084201 C 156.350608 324.668557 147.045705 324.56326 137.39166 324.773853 C 127.743157 324.978905 118.366209 324.978905 109.266358 324.773853 C 106.766946 330.67601 104.406084 337.132361 102.183769 344.148446 C 100.0335 351.158989 97.916482 358.346874 95.832715 365.706559 C 78.403341 372.168452 63.229532 374.490521 50.31129 372.689393 C 37.465093 370.882724 27.085055 365.917153 19.165635 357.792681 C 11.31826 349.596165 6.108844 338.972282 3.54293 325.915491 C 0.971473 312.792197 1.215318 298.172582 4.268923 282.062187 Z M 120.311427 243.418298 C 126.352132 243.418298 132.221038 243.418298 137.912602 243.418298 C 143.609707 243.418298 149.406568 243.418298 155.308725 243.418298 C 152.670765 231.819036 149.927509 220.397115 147.078956 209.146994 C 144.235945 197.83037 141.492689 186.508203 138.85473 175.191579 C 138.228492 175.330128 137.358408 175.396631 136.250022 175.396631 C 133.750611 186.580249 131.10711 197.791576 128.330602 209.041697 C 125.620597 220.225315 122.949386 231.680487 120.311427 243.418298 Z M 120.311427 243.418298 " stroke="#803a00" stroke-width="16.000013" stroke-opacity="1" stroke-miterlimit="4"/><g fill="#ff7c10" fill-opacity="1"><g transform="translate(17.909003, 276.280602)"><g><path d="M 3 -60.546875 C 4.601562 -68.566406 6.707031 -77.554688 9.3125 -87.515625 C 11.925781 -97.472656 14.867188 -107.695312 18.140625 -118.1875 C 21.421875 -128.675781 24.765625 -138.832031 28.171875 -148.65625 C 31.578125 -158.488281 34.914062 -167.476562 38.1875 -175.625 C 41.46875 -183.78125 44.378906 -190.332031 46.921875 -195.28125 C 52.398438 -197.144531 58.945312 -198.878906 66.5625 -200.484375 C 74.175781 -202.085938 82.257812 -202.988281 90.8125 -203.1875 C 99.375 -203.394531 107.863281 -202.296875 116.28125 -199.890625 C 124.707031 -197.484375 132.460938 -193.203125 139.546875 -187.046875 C 146.628906 -180.898438 152.441406 -172.28125 156.984375 -161.1875 C 159.117188 -155.84375 161.585938 -148.992188 164.390625 -140.640625 C 167.203125 -132.285156 170.144531 -123.03125 173.21875 -112.875 C 176.289062 -102.71875 179.296875 -92.257812 182.234375 -81.5 C 185.179688 -70.738281 187.890625 -60.242188 190.359375 -50.015625 C 192.835938 -39.796875 194.8125 -30.472656 196.28125 -22.046875 C 195.875 -18.441406 194 -14.867188 190.65625 -11.328125 C 187.320312 -7.785156 183.082031 -4.773438 177.9375 -2.296875 C 172.789062 0.171875 167.242188 1.804688 161.296875 2.609375 C 155.347656 3.410156 149.429688 2.941406 143.546875 1.203125 C 137.671875 -0.535156 132.359375 -3.941406 127.609375 -9.015625 C 122.867188 -14.097656 119.160156 -21.1875 116.484375 -30.28125 C 110.203125 -30.539062 103.648438 -30.601562 96.828125 -30.46875 C 90.015625 -30.34375 83.398438 -30.34375 76.984375 -30.46875 C 75.242188 -26.332031 73.601562 -21.789062 72.0625 -16.84375 C 70.53125 -11.894531 69.03125 -6.816406 67.5625 -1.609375 C 55.269531 2.941406 44.578125 4.582031 35.484375 3.3125 C 26.398438 2.039062 19.082031 -1.46875 13.53125 -7.21875 C 7.988281 -12.96875 4.3125 -20.453125 2.5 -29.671875 C 0.695312 -38.890625 0.863281 -49.179688 3 -60.546875 Z M 84.8125 -87.8125 C 89.082031 -87.8125 93.222656 -87.8125 97.234375 -87.8125 C 101.242188 -87.8125 105.320312 -87.8125 109.46875 -87.8125 C 107.59375 -95.96875 105.648438 -104.019531 103.640625 -111.96875 C 101.640625 -119.925781 99.707031 -127.914062 97.84375 -135.9375 C 97.4375 -135.800781 96.832031 -135.734375 96.03125 -135.734375 C 94.289062 -127.847656 92.453125 -119.960938 90.515625 -112.078125 C 88.578125 -104.191406 86.675781 -96.101562 84.8125 -87.8125 Z M 84.8125 -87.8125 "/></g></g></g><path stroke-linecap="butt" transform="matrix(0.57225, 0, 0, 0.57225, 215.394982, 13.083958)" fill="none" stroke-linejoin="miter" d="M 163.020589 255.068225 C 164.686162 239.095107 175.901476 231.108547 196.66653 231.108547 C 207.772626 231.108547 216.039056 231.975464 221.452169 233.709299 C 226.872107 235.449959 230.619647 238.432973 232.701613 242.671993 C 234.858667 246.904187 236.141977 250.692683 236.55837 254.023829 C 236.974764 257.286714 237.186373 262.181041 237.186373 268.713637 L 237.186373 417.980384 C 237.186373 424.574415 236.974764 429.509699 236.55837 432.772584 C 236.141977 436.035469 234.926928 439.783008 232.913223 444.022028 C 228.954074 451.448846 219.23368 455.169081 203.745216 455.169081 C 188.263578 455.169081 177.881051 453.257767 172.604461 449.43514 C 167.321044 445.551079 164.269769 439.926357 163.436983 432.560974 C 152.876976 447.633045 135.313372 455.169081 110.725691 455.169081 C 86.144836 455.169081 63.297815 443.953767 42.184629 421.52314 C 21.14653 399.024251 10.627481 372.914345 10.627481 343.186597 C 10.627481 313.465674 21.214791 287.45816 42.396239 265.170882 C 63.645948 242.808515 86.909361 231.627332 112.18648 231.627332 C 121.906874 231.627332 130.72622 233.327036 138.644518 236.733269 C 146.631077 240.132677 152.187538 243.327301 155.307075 246.317141 C 158.433437 249.300155 161.006884 252.221734 163.020589 255.068225 Z M 85.31205 343.8146 C 85.31205 353.186861 88.991328 361.658075 96.349884 369.228241 C 103.783528 376.730146 112.739396 380.477685 123.224315 380.477685 C 133.784321 380.477685 142.535406 376.661885 149.477569 369.023458 C 156.487993 361.316769 159.996619 352.838729 159.996619 343.60299 C 159.996619 334.367251 156.631342 325.759515 149.893962 317.772955 C 143.224844 309.786396 134.268976 305.793116 123.019531 305.793116 C 111.838348 305.793116 102.739132 309.786396 95.728707 317.772955 C 88.786544 325.759515 85.31205 334.442338 85.31205 343.8146 Z M 85.31205 343.8146 " stroke="#803a00" stroke-width="16.000013" stroke-opacity="1" stroke-miterlimit="4"/><g fill="#ff7c10" fill-opacity="1"><g transform="translate(215.394982, 274.030182)"><g><path d="M 93.265625 -115 C 94.242188 -124.113281 100.675781 -128.671875 112.5625 -128.671875 C 118.90625 -128.671875 123.625 -128.179688 126.71875 -127.203125 C 129.8125 -126.222656 131.96875 -124.515625 133.1875 -122.078125 C 134.40625 -119.640625 135.132812 -117.484375 135.375 -115.609375 C 135.625 -113.734375 135.75 -110.925781 135.75 -107.1875 L 135.75 -21.734375 C 135.75 -17.984375 135.625 -15.171875 135.375 -13.296875 C 135.132812 -11.429688 134.445312 -9.28125 133.3125 -6.84375 C 131.03125 -2.601562 125.453125 -0.484375 116.578125 -0.484375 C 107.710938 -0.484375 101.773438 -1.582031 98.765625 -3.78125 C 95.753906 -5.976562 94.003906 -9.191406 93.515625 -13.421875 C 87.492188 -4.796875 77.441406 -0.484375 63.359375 -0.484375 C 49.273438 -0.484375 36.210938 -6.910156 24.171875 -19.765625 C 12.128906 -32.628906 6.109375 -47.566406 6.109375 -64.578125 C 6.109375 -81.585938 12.171875 -96.476562 24.296875 -109.25 C 36.421875 -122.03125 49.726562 -128.421875 64.21875 -128.421875 C 69.75 -128.421875 74.789062 -127.441406 79.34375 -125.484375 C 83.90625 -123.535156 87.082031 -121.707031 88.875 -120 C 90.664062 -118.289062 92.128906 -116.625 93.265625 -115 Z M 48.828125 -64.203125 C 48.828125 -58.835938 50.941406 -54 55.171875 -49.6875 C 59.410156 -45.375 64.539062 -43.21875 70.5625 -43.21875 C 76.582031 -43.21875 81.585938 -45.414062 85.578125 -49.8125 C 89.566406 -54.207031 91.5625 -59.046875 91.5625 -64.328125 C 91.5625 -69.617188 89.644531 -74.539062 85.8125 -79.09375 C 81.988281 -83.65625 76.863281 -85.9375 70.4375 -85.9375 C 64.007812 -85.9375 58.800781 -83.65625 54.8125 -79.09375 C 50.820312 -74.539062 48.828125 -69.578125 48.828125 -64.203125 Z M 48.828125 -64.203125 "/></g></g></g></svg>