<svg xmlns="http://www.w3.org/2000/svg" xmlns:xlink="http://www.w3.org/1999/xlink" width="500" zoomAndPan="magnify" viewBox="0 0 375 374.999991" height="500" preserveAspectRatio="xMidYMid meet" version="1.0"><defs><g/></defs><path stroke-linecap="butt" transform="matrix(0.75, 0, 0, 0.75, 13.500004, 6.24999)" fill="none" stroke-linejoin="miter" d="M 222.817718 218.104195 C 235.526052 222.479195 245.390636 230.223987 252.401053 241.333363 C 259.416679 252.37503 262.750012 265.677114 262.401054 281.229199 C 262.192721 300.187533 257.296887 316.645868 247.713553 330.604202 C 238.130219 344.562536 224.520843 355.328162 206.880217 362.895871 C 189.244799 370.46358 168.031256 374.250038 143.239588 374.250038 C 109.833336 374.250038 83.968751 366.609413 65.635416 351.33337 C 47.36979 336.057327 36.640623 313.729201 33.447914 284.354199 C 32.130206 273.177115 31.260414 259.947947 30.843747 244.666696 C 30.494789 229.390654 30.494789 213.177111 30.843747 196.026068 C 31.260414 178.869817 31.885414 161.927108 32.718747 145.192731 C 33.552081 128.385439 34.630206 112.864604 35.947914 98.630228 C 45.046873 93.348978 55.947916 89.114603 68.65625 85.921894 C 81.364584 82.656269 94.869793 80.505227 109.177086 79.46356 C 123.552087 78.421894 137.578129 78.317727 151.260422 79.15106 C 165.010423 79.984394 177.578132 81.822936 188.968758 84.671894 C 200.354175 87.520853 209.453134 91.234395 216.255218 95.817728 C 227.645843 103.385437 236.187511 112.343771 241.880219 122.69273 C 247.578136 133.036481 250.703137 143.802106 251.25522 154.984399 C 251.88022 166.161483 250.250012 176.822942 246.359386 186.963568 C 242.473969 197.098985 236.536469 205.781277 228.546885 213.000028 C 227.786468 213.765653 226.953135 214.531278 226.046885 215.291694 C 225.213552 216.057319 224.140635 216.994819 222.817718 218.104195 Z M 131.781254 288.104199 C 135.250004 289.979199 139.140629 290.989616 143.447921 291.125033 C 147.822922 291.197949 151.812505 290.364616 155.427089 288.625033 C 159.593756 286.958366 162.473964 284.390657 164.072923 280.916699 C 165.739589 277.375032 166.364589 273.312532 165.947923 268.729198 C 165.739589 264.911489 164.385423 261.750031 161.885422 259.250031 C 159.453131 256.682322 156.468755 255.015655 152.927089 254.25003 C 150.07813 253.697947 146.536463 253.453155 142.302088 253.520864 C 138.135421 253.59378 134.729171 254.979197 132.093754 257.68753 C 131.885421 262.552114 131.781254 267.552114 131.781254 272.687531 C 131.781254 277.828157 131.781254 282.968782 131.781254 288.104199 Z M 129.802087 187.692734 C 132.854171 189.359401 136.260421 190.156276 140.010421 190.088568 C 143.82813 190.015651 147.197922 188.661484 150.114588 186.026067 C 153.098964 183.317734 154.489589 178.942734 154.281255 172.901067 C 154.072922 167.552108 152.197922 163.906274 148.656255 161.963566 C 145.182296 159.947941 141.536463 159.151066 137.718754 159.567732 C 133.968754 159.911482 131.328129 161.026066 129.802087 162.901066 C 128.687504 165.536483 128.062504 169.255233 127.927087 174.0469 C 127.85417 178.76565 128.47917 183.317734 129.802087 187.692734 Z M 129.802087 187.692734 " stroke="#005180" stroke-width="21.333349" stroke-opacity="1" stroke-miterlimit="4"/><g fill="#38b6ff" fill-opacity="1"><g transform="translate(31.945315, 282.249972)"><g><path d="M 148.6875 -112.421875 C 158.21875 -109.148438 165.613281 -103.351562 170.875 -95.03125 C 176.132812 -86.71875 178.625 -76.726562 178.34375 -65.0625 C 178.207031 -50.84375 174.546875 -38.503906 167.359375 -28.046875 C 160.179688 -17.597656 149.976562 -9.53125 136.75 -3.84375 C 123.519531 1.84375 107.585938 4.6875 88.953125 4.6875 C 63.921875 4.6875 44.539062 -1.035156 30.8125 -12.484375 C 17.09375 -23.929688 9.023438 -40.675781 6.609375 -62.71875 C 5.617188 -71.113281 4.976562 -81.035156 4.6875 -92.484375 C 4.40625 -103.929688 4.40625 -116.085938 4.6875 -128.953125 C 4.976562 -141.828125 5.441406 -154.554688 6.078125 -167.140625 C 6.722656 -179.734375 7.539062 -191.363281 8.53125 -202.03125 C 15.351562 -206.007812 23.53125 -209.207031 33.0625 -211.625 C 42.59375 -214.039062 52.726562 -215.640625 63.46875 -216.421875 C 74.207031 -217.203125 84.726562 -217.273438 95.03125 -216.640625 C 105.34375 -216.003906 114.765625 -214.617188 123.296875 -212.484375 C 131.835938 -210.347656 138.664062 -207.570312 143.78125 -204.15625 C 152.320312 -198.46875 158.722656 -191.75 162.984375 -184 C 167.253906 -176.25 169.601562 -168.175781 170.03125 -159.78125 C 170.457031 -151.394531 169.210938 -143.394531 166.296875 -135.78125 C 163.378906 -128.175781 158.929688 -121.671875 152.953125 -116.265625 C 152.390625 -115.691406 151.785156 -115.117188 151.140625 -114.546875 C 150.503906 -113.984375 149.6875 -113.273438 148.6875 -112.421875 Z M 80.421875 -59.953125 C 82.984375 -58.523438 85.898438 -57.773438 89.171875 -57.703125 C 92.441406 -57.628906 95.429688 -58.234375 98.140625 -59.515625 C 101.265625 -60.796875 103.429688 -62.75 104.640625 -65.375 C 105.847656 -68.007812 106.3125 -71.035156 106.03125 -74.453125 C 105.882812 -77.296875 104.882812 -79.675781 103.03125 -81.59375 C 101.1875 -83.519531 98.914062 -84.765625 96.21875 -85.328125 C 94.082031 -85.753906 91.445312 -85.929688 88.3125 -85.859375 C 85.1875 -85.796875 82.628906 -84.765625 80.640625 -82.765625 C 80.492188 -79.078125 80.421875 -75.3125 80.421875 -71.46875 C 80.421875 -67.625 80.421875 -63.785156 80.421875 -59.953125 Z M 78.9375 -135.25 C 81.207031 -133.96875 83.765625 -133.363281 86.609375 -133.4375 C 89.453125 -133.507812 91.976562 -134.539062 94.1875 -136.53125 C 96.394531 -138.519531 97.425781 -141.789062 97.28125 -146.34375 C 97.132812 -150.320312 95.742188 -153.054688 93.109375 -154.546875 C 90.484375 -156.046875 87.75 -156.65625 84.90625 -156.375 C 82.0625 -156.09375 80.070312 -155.238281 78.9375 -153.8125 C 78.082031 -151.820312 77.617188 -149.046875 77.546875 -145.484375 C 77.472656 -141.929688 77.9375 -138.519531 78.9375 -135.25 Z M 78.9375 -135.25 "/></g></g></g><path stroke-linecap="butt" transform="matrix(0.57225, 0, 0, 0.57225, 219.943965, 22.532459)" fill="none" stroke-linejoin="miter" d="M 140.415624 231.628586 C 165.692743 231.628586 188.922026 242.87803 210.103474 265.376919 C 231.278095 287.807546 241.872232 313.883321 241.872232 343.604243 C 241.872232 373.325166 231.353183 399.36681 210.308257 421.729176 C 189.270158 444.023281 166.662052 455.163508 142.49759 455.163508 C 118.333129 455.163508 101.11083 448.323736 90.830695 434.644194 C 88.612206 448.603607 76.386627 455.586727 54.167609 455.586727 C 36.249047 455.586727 25.313604 451.72997 21.354455 444.023281 C 19.34075 439.784261 18.1257 436.036722 17.709307 432.773837 C 17.292914 429.504126 17.081304 424.575668 17.081304 417.981637 L 17.081304 163.299134 C 17.081304 156.766538 17.292914 151.87221 17.709307 148.609325 C 18.1257 145.34644 19.34075 141.701293 21.354455 137.673882 C 25.313604 130.035455 36.385569 126.212829 54.584003 126.212829 C 72.495739 126.212829 83.32879 130.035455 87.083156 137.673882 C 89.301644 141.974338 90.625911 145.762834 91.042305 149.025719 C 91.526959 152.288603 91.772699 157.182931 91.772699 163.715527 L 91.772699 252.461901 C 103.090405 238.570749 119.302438 231.628586 140.415624 231.628586 Z M 103.022144 369.441104 C 110.032568 377.079531 118.783653 380.895332 129.268572 380.895332 C 139.821752 380.895332 148.784446 377.079531 156.143002 369.441104 C 163.576646 361.72759 167.290055 353.188115 167.290055 343.815853 C 167.290055 334.436765 163.849691 325.829029 156.975789 317.978992 C 150.170148 310.135781 141.070932 306.210763 129.684965 306.210763 C 118.298998 306.210763 109.268043 310.204043 102.60575 318.190602 C 95.936632 326.177161 92.605486 334.784897 92.605486 344.020637 C 92.605486 353.256376 96.073154 361.72759 103.022144 369.441104 Z M 103.022144 369.441104 " stroke="#005180" stroke-width="21.333349" stroke-opacity="1" stroke-miterlimit="4"/><g fill="#38b6ff" fill-opacity="1"><g transform="translate(219.943965, 283.478683)"><g><path d="M 80.328125 -128.421875 C 94.816406 -128.421875 108.125 -121.988281 120.25 -109.125 C 132.375 -96.269531 138.4375 -81.335938 138.4375 -64.328125 C 138.4375 -47.328125 132.410156 -32.4375 120.359375 -19.65625 C 108.316406 -6.875 95.378906 -0.484375 81.546875 -0.484375 C 67.710938 -0.484375 57.863281 -4.390625 52 -12.203125 C 50.695312 -4.234375 43.703125 -0.25 31.015625 -0.25 C 20.753906 -0.25 14.484375 -2.445312 12.203125 -6.84375 C 11.066406 -9.28125 10.375 -11.429688 10.125 -13.296875 C 9.882812 -15.171875 9.765625 -17.984375 9.765625 -21.734375 L 9.765625 -167.484375 C 9.765625 -171.234375 9.882812 -174.039062 10.125 -175.90625 C 10.375 -177.78125 11.066406 -179.859375 12.203125 -182.140625 C 14.484375 -186.535156 20.832031 -188.734375 31.25 -188.734375 C 41.507812 -188.734375 47.695312 -186.535156 49.8125 -182.140625 C 51.113281 -179.703125 51.882812 -177.546875 52.125 -175.671875 C 52.375 -173.796875 52.5 -170.988281 52.5 -167.25 L 52.5 -116.46875 C 59.007812 -124.4375 68.285156 -128.421875 80.328125 -128.421875 Z M 58.96875 -49.5625 C 62.957031 -45.164062 67.960938 -42.96875 73.984375 -42.96875 C 80.003906 -42.96875 85.128906 -45.164062 89.359375 -49.5625 C 93.585938 -53.957031 95.703125 -58.835938 95.703125 -64.203125 C 95.703125 -69.578125 93.75 -74.503906 89.84375 -78.984375 C 85.9375 -83.460938 80.726562 -85.703125 74.21875 -85.703125 C 67.707031 -85.703125 62.539062 -83.421875 58.71875 -78.859375 C 54.894531 -74.304688 52.984375 -69.382812 52.984375 -64.09375 C 52.984375 -58.800781 54.976562 -53.957031 58.96875 -49.5625 Z M 58.96875 -49.5625 "/></g></g></g></svg>