<svg xmlns="http://www.w3.org/2000/svg" xmlns:xlink="http://www.w3.org/1999/xlink" width="500" zoomAndPan="magnify" viewBox="0 0 375 374.999991" height="500" preserveAspectRatio="xMidYMid meet" version="1.0"><defs><g/></defs><path stroke-linecap="butt" transform="matrix(0.75, 0, 0, 0.75, 9.625411, 5.499961)" fill="none" stroke-linejoin="miter" d="M 275.629679 218.937567 C 275.629679 227.687567 274.765095 237.515693 273.025512 248.416736 C 271.358845 259.322986 268.442178 270.604237 264.275511 282.270904 C 260.108844 293.937572 254.416136 305.224031 247.192177 316.125073 C 239.973426 327.026116 230.874467 336.854241 219.900508 345.604242 C 208.931758 354.286534 195.739049 361.192785 180.322381 366.33341 C 164.973422 371.401119 146.952587 373.937577 126.259877 373.937577 C 103.551542 373.937577 84.660916 371.64591 69.593207 367.062577 C 54.525498 362.411535 42.994247 354.770909 35.009871 344.145908 C 27.025496 333.520908 22.19737 319.109448 20.530704 300.916739 C 18.44737 277.724029 17.442162 248.729236 17.50987 213.937567 C 17.577578 179.151106 18.864037 140.328187 21.364037 97.484434 C 30.806746 91.99485 42.056747 87.692767 55.114039 84.567766 C 68.23904 81.442766 82.093208 79.463599 96.676542 78.630266 C 111.327585 77.729224 125.739044 77.864641 139.905712 79.046933 C 154.140087 80.156308 167.19738 82.031308 179.072381 84.671933 C 190.947382 87.30735 200.666132 90.640683 208.233841 94.671934 C 231.150509 106.822976 248.098427 122.932352 259.067178 143.00527 C 270.108845 163.07298 275.629679 188.385482 275.629679 218.937567 Z M 133.134878 294.354239 C 140.561962 294.145905 147.718212 291.645905 154.593212 286.854238 C 161.535921 281.994863 167.265088 273.974029 171.780714 262.791736 C 176.364047 251.614652 178.655714 236.437568 178.655714 217.2709 C 178.655714 203.244858 176.707797 191.963607 172.82238 183.42194 C 168.931755 174.880272 163.931755 168.421939 157.822379 164.046938 C 151.780712 159.671938 145.353629 156.927146 138.551545 155.817771 C 131.744253 154.703188 125.494252 154.703188 119.801544 155.817771 C 119.801544 159.427146 119.801544 165.088605 119.801544 172.796939 C 119.801544 180.432356 119.728627 189.286523 119.59321 199.354232 C 119.520294 209.354233 119.489044 219.666734 119.489044 230.291734 C 119.489044 240.916735 119.489044 250.953194 119.489044 260.395903 C 119.489044 269.770904 119.59321 277.656321 119.801544 284.041738 C 119.93696 288.416738 121.676544 291.229238 125.009877 292.479238 C 128.343211 293.729238 131.051544 294.354239 133.134878 294.354239 Z M 133.134878 294.354239 " stroke="#436100" stroke-width="16.000013" stroke-opacity="1" stroke-miterlimit="4"/><g fill="#91c123" fill-opacity="1"><g transform="translate(10.492598, 281.499942)"><g><path d="M 205.859375 -111.78125 C 205.859375 -105.238281 205.21875 -97.878906 203.9375 -89.703125 C 202.664062 -81.523438 200.460938 -73.0625 197.328125 -64.3125 C 194.203125 -55.570312 189.9375 -47.113281 184.53125 -38.9375 C 179.125 -30.757812 172.296875 -23.398438 164.046875 -16.859375 C 155.804688 -10.316406 145.925781 -5.125 134.40625 -1.28125 C 122.882812 2.5625 109.367188 4.484375 93.859375 4.484375 C 76.796875 4.484375 62.609375 2.742188 51.296875 -0.734375 C 39.992188 -4.222656 31.351562 -9.945312 25.375 -17.90625 C 19.40625 -25.875 15.78125 -36.6875 14.5 -50.34375 C 12.9375 -67.695312 12.191406 -89.421875 12.265625 -115.515625 C 12.335938 -141.617188 13.296875 -170.738281 15.140625 -202.875 C 22.253906 -207 30.71875 -210.234375 40.53125 -212.578125 C 50.34375 -214.929688 60.722656 -216.425781 71.671875 -217.0625 C 82.628906 -217.707031 93.441406 -217.601562 104.109375 -216.75 C 114.773438 -215.894531 124.550781 -214.472656 133.4375 -212.484375 C 142.320312 -210.492188 149.613281 -208.003906 155.3125 -205.015625 C 172.519531 -195.910156 185.242188 -183.820312 193.484375 -168.75 C 201.734375 -153.675781 205.859375 -134.6875 205.859375 -111.78125 Z M 98.984375 -55.25 C 104.535156 -55.394531 109.90625 -57.28125 115.09375 -60.90625 C 120.28125 -64.53125 124.582031 -70.535156 128 -78.921875 C 131.414062 -87.316406 133.125 -98.695312 133.125 -113.0625 C 133.125 -123.59375 131.664062 -132.054688 128.75 -138.453125 C 125.832031 -144.847656 122.097656 -149.679688 117.546875 -152.953125 C 112.992188 -156.222656 108.15625 -158.285156 103.03125 -159.140625 C 97.914062 -159.992188 93.222656 -159.992188 88.953125 -159.140625 C 88.953125 -156.441406 88.953125 -152.210938 88.953125 -146.453125 C 88.953125 -140.691406 88.914062 -134.039062 88.84375 -126.5 C 88.78125 -118.96875 88.75 -111.21875 88.75 -103.25 C 88.75 -95.289062 88.75 -87.789062 88.75 -80.75 C 88.75 -73.707031 88.816406 -67.769531 88.953125 -62.9375 C 89.097656 -59.664062 90.414062 -57.566406 92.90625 -56.640625 C 95.394531 -55.710938 97.421875 -55.25 98.984375 -55.25 Z M 98.984375 -55.25 "/></g></g></g><path stroke-linecap="butt" transform="matrix(0.57225, 0, 0, 0.57225, 222.8116, 16.683222)" fill="none" stroke-linejoin="miter" d="M 167.808058 137.567428 C 169.965112 133.403496 173.746782 130.481917 179.16672 128.816344 C 184.579833 127.082509 191.767736 126.215592 200.723604 126.215592 C 209.686299 126.215592 216.874202 127.082509 222.287314 128.816344 C 227.707253 130.481917 231.454792 133.471757 233.536759 137.779038 C 235.693812 142.011232 236.977123 145.758771 237.393516 149.028482 C 237.878171 152.291367 238.123911 157.185695 238.123911 163.711465 L 238.123911 418.503186 C 238.123911 425.028956 237.878171 429.923283 237.393516 433.186168 C 236.977123 436.449053 235.652856 440.06007 233.434367 444.019219 C 229.127086 451.725908 217.078986 455.582665 197.290066 455.582665 C 177.569408 455.582665 166.558878 448.606371 164.265302 434.646958 C 152.32642 448.3265 135.691168 455.166272 114.373198 455.166272 C 88.747947 455.166272 65.416272 444.019219 44.371346 421.73194 C 23.333247 399.369574 12.814198 373.32793 12.814198 343.607007 C 12.814198 313.886085 23.401509 287.81031 44.582956 265.379682 C 65.764404 242.880794 89.027818 231.63135 114.373198 231.63135 C 135.411297 231.63135 151.766678 238.710035 163.432516 252.881058 L 163.432516 163.295071 C 163.432516 156.769301 163.644125 151.874974 164.060519 148.612089 C 164.476912 145.342378 165.726092 141.6631 167.808058 137.567428 Z M 98.543428 369.437042 C 105.970245 377.075469 114.926113 380.898096 125.417858 380.898096 C 135.971039 380.898096 144.722123 377.075469 151.664286 369.437042 C 158.606449 361.730353 162.080944 353.25914 162.080944 344.0234 C 162.080944 334.787661 158.749798 326.173099 152.08068 318.18654 C 145.411561 310.206806 136.387432 306.213527 124.994639 306.213527 C 113.608672 306.213527 104.509456 310.131719 97.703815 317.981756 C 90.898174 325.831793 87.498767 334.439529 87.498767 343.811791 C 87.498767 353.190878 91.178045 361.730353 98.543428 369.437042 Z M 98.543428 369.437042 " stroke="#436100" stroke-width="21.333349" stroke-opacity="1" stroke-miterlimit="4"/><g fill="#91c123" fill-opacity="1"><g transform="translate(222.8116, 277.629445)"><g><path d="M 96.078125 -182.25 C 97.296875 -184.613281 99.453125 -186.285156 102.546875 -187.265625 C 105.640625 -188.242188 109.75 -188.734375 114.875 -188.734375 C 120 -188.734375 124.109375 -188.242188 127.203125 -187.265625 C 130.296875 -186.285156 132.453125 -184.578125 133.671875 -182.140625 C 134.890625 -179.703125 135.617188 -177.546875 135.859375 -175.671875 C 136.109375 -173.796875 136.234375 -170.988281 136.234375 -167.25 L 136.234375 -21.484375 C 136.234375 -17.742188 136.109375 -14.9375 135.859375 -13.0625 C 135.617188 -11.1875 134.847656 -9.113281 133.546875 -6.84375 C 131.109375 -2.445312 124.234375 -0.25 112.921875 -0.25 C 101.609375 -0.25 95.300781 -4.234375 94 -12.203125 C 87.164062 -4.390625 77.644531 -0.484375 65.4375 -0.484375 C 50.78125 -0.484375 37.429688 -6.875 25.390625 -19.65625 C 13.347656 -32.4375 7.328125 -47.328125 7.328125 -64.328125 C 7.328125 -81.335938 13.390625 -96.269531 25.515625 -109.125 C 37.640625 -121.988281 50.945312 -128.421875 65.4375 -128.421875 C 77.476562 -128.421875 86.835938 -124.351562 93.515625 -116.21875 L 93.515625 -167.484375 C 93.515625 -171.234375 93.632812 -174.039062 93.875 -175.90625 C 94.125 -177.78125 94.859375 -179.894531 96.078125 -182.25 Z M 56.390625 -49.5625 C 60.628906 -45.164062 65.757812 -42.96875 71.78125 -42.96875 C 77.800781 -42.96875 82.804688 -45.164062 86.796875 -49.5625 C 90.785156 -53.957031 92.78125 -58.800781 92.78125 -64.09375 C 92.78125 -69.382812 90.863281 -74.304688 87.03125 -78.859375 C 83.207031 -83.421875 78.039062 -85.703125 71.53125 -85.703125 C 65.019531 -85.703125 59.8125 -83.460938 55.90625 -78.984375 C 52 -74.503906 50.046875 -69.578125 50.046875 -64.203125 C 50.046875 -58.835938 52.160156 -53.957031 56.390625 -49.5625 Z M 56.390625 -49.5625 "/></g></g></g></svg>