<svg xmlns="http://www.w3.org/2000/svg" xmlns:xlink="http://www.w3.org/1999/xlink" width="500" zoomAndPan="magnify" viewBox="0 0 375 374.999991" height="500" preserveAspectRatio="xMidYMid meet" version="1.0"><defs><g/></defs><path stroke-linecap="butt" transform="matrix(0.75, 0, 0, 0.75, 27.659021, 10.952577)" fill="none" stroke-linejoin="miter" d="M 15.689014 302.271583 C 15.340056 295.81325 15.064014 287.130957 14.855681 276.229915 C 14.647348 265.328873 14.543181 253.104913 14.543181 239.563246 C 14.543181 226.021578 14.678598 211.995536 14.959848 197.47991 C 15.235889 182.969492 15.616098 168.698658 16.105681 154.667407 C 16.590056 140.641364 17.147348 127.656989 17.772348 115.714279 C 18.465056 103.766362 19.29839 93.80282 20.272348 85.818444 C 29.715057 84.912194 41.209849 84.219486 54.751517 83.735111 C 68.360893 83.245527 82.944227 82.901777 98.496311 82.693444 C 114.053604 82.485111 129.642147 82.552819 145.267148 82.901777 C 160.892149 83.177819 175.683816 83.594486 189.642151 84.151777 C 203.600485 84.703861 215.579652 85.365319 225.579653 86.130944 C 227.314028 88.558028 228.845278 92.344486 230.162987 97.485112 C 231.480695 102.620529 232.178612 108.422612 232.24632 114.880946 C 232.386945 121.33928 231.584862 127.90178 229.850487 134.568447 C 228.18382 141.162198 225.199445 147.308032 220.892153 153.005949 C 216.657777 158.698657 210.787985 163.245533 203.287985 166.646574 C 195.787984 170.052825 186.345275 171.750741 174.95465 171.750741 C 171.204649 171.750741 167.699441 171.750741 164.433816 171.750741 C 161.241107 171.750741 157.631732 171.750741 153.600482 171.750741 C 149.642148 171.750741 144.715064 171.750741 138.808814 171.750741 C 132.97548 171.750741 125.511938 171.750741 116.412979 171.750741 C 116.412979 174.042408 116.412979 176.370533 116.412979 178.729909 C 116.412979 181.094492 116.412979 183.698659 116.412979 186.542409 C 120.579646 186.542409 126.308813 186.438242 133.60048 186.229909 C 140.892147 186.021576 148.808815 185.917409 157.350482 185.917409 C 165.892149 185.917409 174.2984 186.302826 182.558817 187.063242 C 190.824442 187.828868 197.975485 189.183034 204.017152 191.125743 C 209.70986 203.625744 212.074444 215.292411 211.100485 226.125745 C 210.199444 236.891371 205.996318 245.70908 198.496318 252.58408 C 190.996317 259.391372 180.230692 263.177831 166.204649 263.938248 C 161.412982 264.078873 156.933815 264.146581 152.767148 264.146581 C 148.600481 264.146581 143.777564 264.115331 138.287981 264.042414 C 132.803605 263.974706 125.616105 263.938248 116.725479 263.938248 C 116.725479 266.922623 116.725479 269.80804 116.725479 272.584081 C 116.725479 275.292415 116.725479 278.172623 116.725479 281.229915 C 117.631729 281.229915 118.636938 281.229915 119.746313 281.229915 C 120.928605 281.229915 122.074438 281.229915 123.183813 281.229915 C 138.392147 281.229915 153.600482 281.229915 168.808816 281.229915 C 184.084859 281.229915 199.329651 281.229915 214.537986 281.229915 C 220.022361 288.797624 223.532778 297.203875 225.05882 306.43825 C 226.584861 315.604918 225.928611 324.563251 223.079653 333.313252 C 220.230694 341.995544 214.814027 349.526795 206.829652 355.91742 C 198.912985 362.235129 188.220276 366.266379 174.746316 368.000754 C 169.954649 368.558046 163.532774 369.078879 155.475482 369.563254 C 147.423398 370.047629 138.569231 370.32888 128.91298 370.396588 C 119.261938 370.537213 109.642145 370.500755 100.058811 370.292421 C 90.475478 370.084088 81.829644 369.703879 74.12131 369.146588 C 66.485893 368.589296 60.584851 367.828879 56.418184 366.854921 C 43.152558 363.453879 33.324432 356.683045 26.939015 346.54242 C 20.616098 336.401794 16.866098 321.646585 15.689014 302.271583 Z M 15.689014 302.271583 " stroke="#800000" stroke-width="16.000013" stroke-opacity="1" stroke-miterlimit="4"/><g fill="#ff3131" fill-opacity="1"><g transform="translate(27.705896, 286.952559)"><g><path d="M 11.734375 -49.28125 C 11.453125 -54.113281 11.238281 -60.617188 11.09375 -68.796875 C 10.945312 -76.972656 10.875 -86.144531 10.875 -96.3125 C 10.875 -106.488281 10.976562 -117.015625 11.1875 -127.890625 C 11.40625 -138.773438 11.691406 -149.476562 12.046875 -160 C 12.410156 -170.519531 12.835938 -180.257812 13.328125 -189.21875 C 13.828125 -198.1875 14.429688 -205.65625 15.140625 -211.625 C 22.253906 -212.332031 30.894531 -212.863281 41.0625 -213.21875 C 51.226562 -213.582031 62.144531 -213.832031 73.8125 -213.96875 C 85.476562 -214.113281 97.175781 -214.078125 108.90625 -213.859375 C 120.632812 -213.648438 131.722656 -213.332031 142.171875 -212.90625 C 152.628906 -212.476562 161.628906 -211.976562 169.171875 -211.40625 C 170.453125 -209.5625 171.585938 -206.71875 172.578125 -202.875 C 173.578125 -199.039062 174.113281 -194.703125 174.1875 -189.859375 C 174.257812 -185.023438 173.65625 -180.117188 172.375 -175.140625 C 171.09375 -170.171875 168.851562 -165.550781 165.65625 -161.28125 C 162.457031 -157.007812 158.046875 -153.59375 152.421875 -151.03125 C 146.804688 -148.476562 139.734375 -147.203125 131.203125 -147.203125 C 128.359375 -147.203125 125.726562 -147.203125 123.3125 -147.203125 C 120.894531 -147.203125 118.191406 -147.203125 115.203125 -147.203125 C 112.210938 -147.203125 108.515625 -147.203125 104.109375 -147.203125 C 99.703125 -147.203125 94.082031 -147.203125 87.25 -147.203125 C 87.25 -145.492188 87.25 -143.75 87.25 -141.96875 C 87.25 -140.195312 87.25 -138.242188 87.25 -136.109375 C 90.382812 -136.109375 94.6875 -136.175781 100.15625 -136.3125 C 105.632812 -136.457031 111.570312 -136.53125 117.96875 -136.53125 C 124.375 -136.53125 130.671875 -136.242188 136.859375 -135.671875 C 143.046875 -135.109375 148.410156 -134.113281 152.953125 -132.6875 C 157.222656 -123.300781 159.003906 -114.554688 158.296875 -106.453125 C 157.585938 -98.347656 154.421875 -91.734375 148.796875 -86.609375 C 143.179688 -81.492188 135.113281 -78.648438 124.59375 -78.078125 C 121.03125 -77.929688 117.679688 -77.859375 114.546875 -77.859375 C 111.421875 -77.859375 107.796875 -77.894531 103.671875 -77.96875 C 99.554688 -78.039062 94.15625 -78.078125 87.46875 -78.078125 C 87.46875 -75.804688 87.46875 -73.640625 87.46875 -71.578125 C 87.46875 -69.515625 87.46875 -67.34375 87.46875 -65.0625 C 88.175781 -65.0625 88.957031 -65.0625 89.8125 -65.0625 C 90.664062 -65.0625 91.519531 -65.0625 92.375 -65.0625 C 103.75 -65.0625 115.160156 -65.0625 126.609375 -65.0625 C 138.054688 -65.0625 149.472656 -65.0625 160.859375 -65.0625 C 164.984375 -59.375 167.613281 -53.082031 168.75 -46.1875 C 169.882812 -39.289062 169.382812 -32.570312 167.25 -26.03125 C 165.113281 -19.488281 161.0625 -13.832031 155.09375 -9.0625 C 149.125 -4.300781 141.085938 -1.28125 130.984375 0 C 127.429688 0.425781 122.628906 0.816406 116.578125 1.171875 C 110.535156 1.523438 103.890625 1.738281 96.640625 1.8125 C 89.390625 1.882812 82.171875 1.847656 74.984375 1.703125 C 67.804688 1.566406 61.335938 1.285156 55.578125 0.859375 C 49.816406 0.429688 45.367188 -0.140625 42.234375 -0.859375 C 32.285156 -3.410156 24.925781 -8.488281 20.15625 -16.09375 C 15.394531 -23.707031 12.585938 -34.769531 11.734375 -49.28125 Z M 11.734375 -49.28125 "/></g></g></g><path stroke-linecap="butt" transform="matrix(0.57225, 0, 0, 0.57225, 207.388731, 20.281522)" fill="none" stroke-linejoin="miter" d="M 235.019764 316.73145 C 235.019764 334.23362 230.685179 347.182768 222.002355 355.58572 C 213.319532 363.920412 203.70153 368.084344 193.14835 368.084344 L 92.005743 368.084344 C 92.005743 376.070904 96.688461 382.774153 106.067548 388.187265 C 115.508071 393.607204 124.921289 396.310347 134.293551 396.310347 C 150.819585 396.310347 163.775559 394.576513 173.147821 391.102018 L 177.837365 389.436445 C 184.643005 386.316908 190.335989 384.753727 194.916315 384.753727 C 204.015531 384.753727 211.831438 391.142975 218.357208 403.914643 C 222.036486 411.628158 223.879538 418.188058 223.879538 423.607997 C 223.879538 448.885116 193.598874 461.520263 133.044371 461.520263 C 112.006272 461.520263 93.289054 457.909246 76.899542 450.687212 C 60.578291 443.396916 47.840753 433.778915 38.673275 421.833206 C 20.754712 398.849663 11.798844 373.12202 11.798844 344.650277 C 11.798844 308.813152 23.39642 280.170757 46.584747 258.709438 C 69.779899 237.186685 98.743123 226.421895 133.460764 226.421895 C 172.977168 226.421895 201.967696 240.381308 220.439174 268.293309 C 230.159567 283.085509 235.019764 299.229281 235.019764 316.73145 Z M 144.921818 329.230074 C 155.754869 329.230074 161.167982 324.683879 161.167982 315.584662 C 161.167982 309.058893 158.669622 303.816433 153.672903 299.857284 C 148.737619 295.898135 141.617977 293.91856 132.313976 293.91856 C 123.078237 293.91856 113.910759 297.707056 104.818369 305.270396 C 95.719152 312.772301 91.172957 320.758861 91.172957 329.230074 Z M 144.921818 329.230074 " stroke="#800000" stroke-width="21.333349" stroke-opacity="1" stroke-miterlimit="4"/><g fill="#ff3131" fill-opacity="1"><g transform="translate(208.059337, 281.227746)"><g><path d="M 133.796875 -79.71875 C 133.796875 -69.707031 131.3125 -62.300781 126.34375 -57.5 C 121.382812 -52.695312 115.894531 -50.296875 109.875 -50.296875 L 52 -50.296875 C 52 -45.734375 54.6875 -41.90625 60.0625 -38.8125 C 65.4375 -35.726562 70.804688 -34.1875 76.171875 -34.1875 C 85.617188 -34.1875 93.023438 -35.160156 98.390625 -37.109375 L 101.078125 -38.09375 C 104.984375 -39.882812 108.238281 -40.78125 110.84375 -40.78125 C 116.050781 -40.78125 120.53125 -37.113281 124.28125 -29.78125 C 126.394531 -25.382812 127.453125 -21.644531 127.453125 -18.5625 C 127.453125 -4.070312 110.113281 3.171875 75.4375 3.171875 C 63.394531 3.171875 52.691406 1.097656 43.328125 -3.046875 C 33.972656 -7.203125 26.691406 -12.695312 21.484375 -19.53125 C 11.234375 -32.71875 6.109375 -47.445312 6.109375 -63.71875 C 6.109375 -84.226562 12.738281 -100.628906 26 -112.921875 C 39.269531 -125.210938 55.832031 -131.359375 75.6875 -131.359375 C 98.3125 -131.359375 114.914062 -123.378906 125.5 -107.421875 C 131.03125 -98.960938 133.796875 -89.726562 133.796875 -79.71875 Z M 82.28125 -72.515625 C 88.46875 -72.515625 91.5625 -75.117188 91.5625 -80.328125 C 91.5625 -84.066406 90.132812 -87.078125 87.28125 -89.359375 C 84.4375 -91.640625 80.367188 -92.78125 75.078125 -92.78125 C 69.785156 -92.78125 64.535156 -90.625 59.328125 -86.3125 C 54.117188 -82 51.515625 -77.398438 51.515625 -72.515625 Z M 82.28125 -72.515625 "/></g></g></g></svg>