<svg xmlns="http://www.w3.org/2000/svg" xmlns:xlink="http://www.w3.org/1999/xlink" width="500" zoomAndPan="magnify" viewBox="0 0 375 374.999991" height="500" preserveAspectRatio="xMidYMid meet" version="1.0"><defs><g/></defs><path stroke-linecap="butt" transform="matrix(0.698125, 0, 0, 0.698125, 13.859124, 35.431638)" fill="none" stroke-linejoin="miter" d="M 185.206349 175.713486 C 176.662254 173.626421 169.024605 172.932598 162.287807 173.626421 C 155.551009 174.2531 148.400155 177.028392 140.829651 181.963488 C 130.970649 188.073607 124.614335 196.164479 121.766303 206.230509 C 118.923867 216.229394 118.263616 226.64793 119.791146 237.480522 C 121.245936 250.327439 126.007576 260.225608 134.059281 267.169434 C 142.183725 274.11326 151.248187 277.481659 161.247072 277.274631 C 169.024605 277.274631 175.034008 275.674362 179.269685 272.479418 C 183.572507 269.217331 186.700306 265.048797 188.641892 259.979413 C 190.656217 254.842884 191.903979 249.320277 192.390774 243.417186 C 192.87757 237.514094 193.224481 231.823626 193.437104 226.334591 C 196.072513 222.725592 200.794986 220.017444 207.598928 218.210147 C 214.475609 216.40285 222.21957 215.748194 230.830809 216.229394 C 239.442048 216.716189 247.879831 218.59063 256.144159 221.858313 C 264.402891 225.053256 271.313145 229.842874 276.869325 236.23276 C 282.498244 242.549907 285.586875 250.640779 286.140815 260.49978 C 286.560466 267.863257 285.793903 276.401757 283.852318 286.12647 C 281.972281 295.778444 278.296138 305.603873 272.807103 315.602758 C 267.323663 325.534499 259.686014 334.772418 249.894156 343.310917 C 240.102299 351.782273 227.669438 358.692526 212.601168 364.041678 C 197.532898 369.31809 179.303257 371.959094 157.912246 371.959094 C 134.719532 371.959094 114.995933 369.077491 98.747045 363.314283 C 82.570897 357.551076 69.198017 350.081287 58.645193 340.916109 C 48.159512 331.683786 39.788873 321.752045 33.53887 311.126481 C 27.288868 300.500917 22.465678 290.362148 19.063707 280.710174 C 13.367644 264.388546 10.659496 246.992612 10.939263 228.522372 C 11.213435 209.979391 14.095039 192.376429 19.584075 175.713486 C 25.901222 157.097766 35.37974 141.408413 48.019629 128.62864 C 60.726662 115.848867 75.901243 105.189731 93.537777 96.651231 C 117.290026 85.052077 143.123743 79.775664 171.03893 80.816399 C 199.026856 81.857134 228.189805 91.128624 258.538968 108.630869 C 261.386999 119.390722 261.868199 129.115435 259.993758 137.793818 C 258.119317 146.405058 254.616629 153.802107 249.474505 159.984965 C 244.337977 166.095084 238.155118 170.817557 230.931525 174.146789 C 223.780672 177.481615 216.210167 179.356057 208.225607 179.775708 C 200.241046 180.122619 192.56423 178.768545 185.206349 175.713486 Z M 185.206349 175.713486 " stroke="#804d00" stroke-width="16.000013" stroke-opacity="1" stroke-miterlimit="4"/><g fill="#ffbd59" fill-opacity="1"><g transform="translate(13.859124, 292.341527)"><g><path d="M 129.265625 -134.234375 C 123.304688 -135.691406 117.976562 -136.1875 113.28125 -135.71875 C 108.582031 -135.257812 103.585938 -133.304688 98.296875 -129.859375 C 91.410156 -125.628906 86.972656 -120.003906 84.984375 -112.984375 C 83.003906 -105.972656 82.539062 -98.691406 83.59375 -91.140625 C 84.65625 -82.140625 88 -75.222656 93.625 -70.390625 C 99.25 -65.554688 105.570312 -63.207031 112.59375 -63.34375 C 118.019531 -63.34375 122.222656 -64.46875 125.203125 -66.71875 C 128.179688 -68.96875 130.363281 -71.878906 131.75 -75.453125 C 133.144531 -79.023438 134.003906 -82.863281 134.328125 -86.96875 C 134.660156 -91.070312 134.894531 -95.046875 135.03125 -98.890625 C 136.882812 -101.398438 140.191406 -103.285156 144.953125 -104.546875 C 149.722656 -105.804688 155.117188 -106.269531 161.140625 -105.9375 C 167.160156 -105.601562 173.050781 -104.3125 178.8125 -102.0625 C 184.570312 -99.8125 189.40625 -96.46875 193.3125 -92.03125 C 197.21875 -87.601562 199.367188 -81.945312 199.765625 -75.0625 C 200.023438 -69.894531 199.492188 -63.9375 198.171875 -57.1875 C 196.847656 -50.4375 194.265625 -43.585938 190.421875 -36.640625 C 186.585938 -29.691406 181.257812 -23.238281 174.4375 -17.28125 C 167.625 -11.320312 158.953125 -6.488281 148.421875 -2.78125 C 137.898438 0.925781 125.160156 2.78125 110.203125 2.78125 C 94.054688 2.78125 80.320312 0.765625 69 -3.265625 C 57.6875 -7.304688 48.351562 -12.535156 41 -18.953125 C 33.65625 -25.378906 27.796875 -32.296875 23.421875 -39.703125 C 19.054688 -47.117188 15.679688 -54.207031 13.296875 -60.96875 C 9.328125 -72.351562 7.441406 -84.5 7.640625 -97.40625 C 7.835938 -110.3125 9.859375 -122.585938 13.703125 -134.234375 C 18.066406 -147.210938 24.679688 -158.164062 33.546875 -167.09375 C 42.421875 -176.03125 53.015625 -183.476562 65.328125 -189.4375 C 81.878906 -197.507812 99.914062 -201.179688 119.4375 -200.453125 C 138.96875 -199.722656 159.320312 -193.269531 180.5 -181.09375 C 182.488281 -173.550781 182.820312 -166.765625 181.5 -160.734375 C 180.175781 -154.710938 177.722656 -149.550781 174.140625 -145.25 C 170.566406 -140.945312 166.265625 -137.640625 161.234375 -135.328125 C 156.210938 -133.015625 150.921875 -131.722656 145.359375 -131.453125 C 139.796875 -131.191406 134.429688 -132.117188 129.265625 -134.234375 Z M 129.265625 -134.234375 "/></g></g></g><path stroke-linecap="butt" transform="matrix(0.57225, 0, 0, 0.57225, 224.893951, 24.781522)" fill="none" stroke-linejoin="miter" d="M 159.582027 427.874322 C 148.748976 442.038519 131.526678 449.124031 107.915132 449.124031 C 84.303586 449.124031 62.18696 438.256849 41.565254 416.522486 C 20.936722 394.788123 10.622456 369.401786 10.622456 340.377127 C 10.622456 311.352469 21.004983 285.897871 41.770038 264.026985 C 62.535092 242.081012 85.313851 231.104613 110.09949 231.104613 C 119.758448 231.104613 128.536837 232.913535 136.455136 236.524552 C 144.441695 240.067307 149.929895 243.330192 152.912909 246.313206 C 155.902749 249.303046 158.264586 252.081277 159.99842 254.647898 C 160.831207 246.661338 163.74596 240.620223 168.749505 236.524552 C 173.746224 232.360619 181.766914 230.271826 192.811575 230.271826 C 203.917671 230.271826 212.047578 231.14557 217.18082 232.879404 C 222.320888 234.544977 225.931905 237.45973 228.013871 241.630489 C 230.170925 245.72616 231.454235 249.337177 231.870628 252.46354 C 232.287021 255.583076 232.498631 260.415968 232.498631 266.941738 L 232.498631 443.6017 C 232.498631 476.312463 221.105838 502.70224 198.327079 522.77103 C 175.623407 542.83982 150.032286 552.874215 121.560544 552.874215 C 99.962703 552.874215 79.340997 547.597625 59.6886 537.037619 C 40.104464 526.5527 30.308984 517.043916 30.308984 508.497615 C 30.308984 497.391519 34.582134 487.561907 43.121609 479.022432 C 48.541548 473.049578 52.739611 468.919776 55.729451 466.6262 C 58.712465 464.400885 62.18696 463.288228 66.146109 463.288228 C 70.105258 463.288228 74.23506 464.994758 78.542341 468.394165 C 92.153623 478.879084 106.945823 484.121543 122.912115 484.121543 C 133.676905 484.121543 142.46212 479.855219 149.267761 471.308918 C 156.141663 462.837704 159.582027 452.632656 159.582027 440.686948 Z M 83.641452 340.581911 C 83.641452 349.824476 87.252469 358.152342 94.474503 365.585985 C 101.771624 372.944542 110.59097 376.62382 120.932541 376.62382 C 131.349198 376.62382 139.963761 372.87628 146.769401 365.374376 C 153.575042 357.804209 156.97445 349.544605 156.97445 340.581911 C 156.97445 331.626043 153.711565 323.257221 147.185795 315.482271 C 140.660025 307.632234 131.840679 303.714042 120.727757 303.714042 C 109.614835 303.714042 100.658967 307.563973 93.853326 315.270661 C 87.047686 322.909089 83.641452 331.346172 83.641452 340.581911 Z M 83.641452 340.581911 " stroke="#804d00" stroke-width="21.333349" stroke-opacity="1" stroke-miterlimit="4"/><g fill="#ffbd59" fill-opacity="1"><g transform="translate(224.893951, 285.727746)"><g><path d="M 91.3125 -16.109375 C 85.125 -7.972656 75.273438 -3.90625 61.765625 -3.90625 C 48.253906 -3.90625 35.597656 -10.128906 23.796875 -22.578125 C 12.003906 -35.035156 6.109375 -49.566406 6.109375 -66.171875 C 6.109375 -82.773438 12.046875 -97.34375 23.921875 -109.875 C 35.804688 -122.40625 48.832031 -128.671875 63 -128.671875 C 68.53125 -128.671875 73.570312 -127.648438 78.125 -125.609375 C 82.6875 -123.578125 85.820312 -121.707031 87.53125 -120 C 89.238281 -118.289062 90.582031 -116.703125 91.5625 -115.234375 C 92.050781 -119.796875 93.71875 -123.253906 96.5625 -125.609375 C 99.414062 -127.972656 104.015625 -129.15625 110.359375 -129.15625 C 116.703125 -129.15625 121.335938 -128.664062 124.265625 -127.6875 C 127.203125 -126.71875 129.28125 -125.050781 130.5 -122.6875 C 131.71875 -120.320312 132.445312 -118.242188 132.6875 -116.453125 C 132.9375 -114.671875 133.0625 -111.90625 133.0625 -108.15625 L 133.0625 -7.078125 C 133.0625 11.640625 126.550781 26.734375 113.53125 38.203125 C 100.507812 49.679688 85.859375 55.421875 69.578125 55.421875 C 57.210938 55.421875 45.410156 52.410156 34.171875 46.390625 C 22.941406 40.367188 17.328125 34.914062 17.328125 30.03125 C 17.328125 23.6875 19.769531 18.070312 24.65625 13.1875 C 27.75 9.769531 30.148438 7.410156 31.859375 6.109375 C 33.566406 4.804688 35.5625 4.15625 37.84375 4.15625 C 40.125 4.15625 42.484375 5.128906 44.921875 7.078125 C 52.734375 13.097656 61.195312 16.109375 70.3125 16.109375 C 76.5 16.109375 81.546875 13.664062 85.453125 8.78125 C 89.359375 3.90625 91.3125 -1.953125 91.3125 -8.796875 Z M 47.859375 -66.046875 C 47.859375 -60.753906 49.929688 -55.988281 54.078125 -51.75 C 58.234375 -47.519531 63.28125 -45.40625 69.21875 -45.40625 C 75.15625 -45.40625 80.078125 -47.5625 83.984375 -51.875 C 87.890625 -56.195312 89.84375 -60.921875 89.84375 -66.046875 C 89.84375 -71.171875 87.972656 -75.96875 84.234375 -80.4375 C 80.492188 -84.914062 75.445312 -87.15625 69.09375 -87.15625 C 62.75 -87.15625 57.625 -84.957031 53.71875 -80.5625 C 49.8125 -76.175781 47.859375 -71.335938 47.859375 -66.046875 Z M 47.859375 -66.046875 "/></g></g></g></svg>