<svg xmlns="http://www.w3.org/2000/svg" xmlns:xlink="http://www.w3.org/1999/xlink" width="500" zoomAndPan="magnify" viewBox="0 0 375 374.999991" height="500" preserveAspectRatio="xMidYMid meet" version="1.0"><defs><g/></defs><path stroke-linecap="butt" transform="matrix(0.696617, 0, 0, 0.696617, 13.435311, 34.109968)" fill="none" stroke-linejoin="miter" d="M 119.167179 181.961079 C 128.677424 181.961079 137.879258 181.961079 146.767075 181.961079 C 155.654892 181.961079 164.649251 181.961079 173.744544 181.961079 C 174.165103 171.334951 174.406223 160.293871 174.47912 148.837839 C 174.613699 137.3762 174.821175 126.856614 175.101548 117.273472 C 175.381921 107.690331 175.897807 100.333349 176.666028 95.191312 C 183.675347 89.707221 191.733261 85.989478 200.828554 84.043691 C 209.929454 82.030614 219.131288 81.755849 228.434057 83.213788 C 237.736826 84.604436 246.349877 87.654892 254.267605 92.381977 C 262.252621 97.103455 268.71241 103.423057 273.641363 111.335177 C 278.570317 119.185614 281.037597 128.522028 281.037597 139.355632 C 281.037597 144.97991 281.037597 152.897637 281.037597 163.108813 C 281.037597 173.247093 281.037597 184.9106 281.037597 198.104943 C 281.037597 211.231996 281.037597 225.295495 281.037597 240.295438 C 281.037597 255.295382 280.970308 270.536446 280.830121 286.024238 C 280.757224 301.439133 280.72358 316.332535 280.72358 330.71005 C 280.72358 335.639004 280.65629 341.089451 280.516104 347.061391 C 280.448814 353.033331 280.241338 357.653874 279.893676 360.917413 C 277.807703 363.210863 273.955381 365.358518 268.331103 367.377202 C 262.774115 369.317382 256.247036 370.70803 248.744261 371.543541 C 241.247093 372.373445 233.503197 372.513631 225.51818 371.958493 C 217.600453 371.403355 210.030388 369.698689 202.807986 366.855709 C 195.585583 364.007121 189.546353 359.874426 184.684689 354.457624 C 179.890315 349.040822 176.940793 342.098793 175.830517 333.625927 C 175.20809 329.80725 174.753886 325.186707 174.47912 319.769905 C 174.198748 314.353103 173.957627 308.661535 173.744544 302.689595 C 173.609965 296.717655 173.469778 291.194312 173.329592 286.125172 C 173.262303 280.988743 173.228658 276.889693 173.228658 273.833629 C 164.127758 273.833629 155.346482 273.833629 146.873617 273.833629 C 138.468041 273.833629 129.512935 273.833629 119.997083 273.833629 C 119.997083 287.656007 119.997083 301.960626 119.997083 316.753094 C 119.997083 331.539954 119.997083 346.332421 119.997083 361.124889 C 117.361579 363.418338 113.088698 365.672535 107.184047 367.893088 C 101.352293 370.046351 94.584095 371.577186 86.873843 372.479986 C 79.236489 373.450076 71.386051 373.522973 63.333745 372.687462 C 55.275832 371.851951 47.672122 369.597754 40.522616 365.919264 C 33.434792 362.167876 27.502105 356.644532 22.70773 349.35484 C 17.986253 342.065148 15.244207 332.616585 14.481593 321.020367 C 14.133931 315.743752 13.747016 307.898922 13.332065 297.480269 C 12.984402 287.061617 12.603095 275.016803 12.188144 261.334611 C 11.840481 247.65242 11.526464 233.213222 11.251699 218.000195 C 10.971326 202.725486 10.831139 187.691898 10.831139 172.899431 C 10.831139 158.106963 10.904036 144.323837 11.044223 131.544446 C 11.251699 118.697766 11.633006 108.004348 12.188144 99.464194 C 19.825498 93.211881 28.191822 88.770776 37.292722 86.129664 C 46.388015 83.488553 55.52256 82.518463 64.685142 83.213788 C 73.920621 83.836215 82.427131 85.989478 90.204672 89.673576 C 97.982213 93.352067 104.408357 98.353917 109.477496 104.67352 C 114.613926 110.920225 117.569055 118.383748 118.331669 127.064089 C 119.301758 135.396768 119.789607 143.594868 119.789607 151.647174 C 119.789607 159.705088 119.683065 166.546184 119.475589 172.170461 C 119.268114 177.72745 119.167179 180.990989 119.167179 181.961079 Z M 119.167179 181.961079 " stroke="#7b0008" stroke-width="16.000013" stroke-opacity="1" stroke-miterlimit="4"/><g fill="#f5505b" fill-opacity="1"><g transform="translate(13.435311, 290.465102)"><g><path d="M 83.015625 -129.59375 C 89.628906 -129.59375 96.039062 -129.59375 102.25 -129.59375 C 108.457031 -129.59375 114.726562 -129.59375 121.0625 -129.59375 C 121.332031 -136.988281 121.5 -144.679688 121.5625 -152.671875 C 121.625 -160.660156 121.753906 -167.988281 121.953125 -174.65625 C 122.148438 -181.332031 122.515625 -186.453125 123.046875 -190.015625 C 127.929688 -193.847656 133.546875 -196.457031 139.890625 -197.84375 C 146.234375 -199.226562 152.640625 -199.425781 159.109375 -198.4375 C 165.578125 -197.445312 171.585938 -195.300781 177.140625 -192 C 182.691406 -188.695312 187.179688 -184.304688 190.609375 -178.828125 C 194.046875 -173.347656 195.765625 -166.84375 195.765625 -159.3125 C 195.765625 -155.34375 195.765625 -149.820312 195.765625 -142.75 C 195.765625 -135.6875 195.765625 -127.566406 195.765625 -118.390625 C 195.765625 -109.210938 195.765625 -99.40625 195.765625 -88.96875 C 195.765625 -78.53125 195.726562 -67.925781 195.65625 -57.15625 C 195.59375 -46.394531 195.5625 -35.992188 195.5625 -25.953125 C 195.5625 -22.523438 195.53125 -18.726562 195.46875 -14.5625 C 195.40625 -10.40625 195.238281 -7.203125 194.96875 -4.953125 C 193.519531 -3.367188 190.847656 -1.882812 186.953125 -0.5 C 183.054688 0.882812 178.5 1.875 173.28125 2.46875 C 168.0625 3.070312 162.675781 3.171875 157.125 2.765625 C 151.582031 2.367188 146.300781 1.179688 141.28125 -0.796875 C 136.257812 -2.773438 132.0625 -5.644531 128.6875 -9.40625 C 125.320312 -13.175781 123.242188 -18.03125 122.453125 -23.96875 C 122.054688 -26.613281 121.757812 -29.816406 121.5625 -33.578125 C 121.363281 -37.347656 121.195312 -41.3125 121.0625 -45.46875 C 120.9375 -49.632812 120.835938 -53.5 120.765625 -57.0625 C 120.703125 -60.632812 120.671875 -63.476562 120.671875 -65.59375 C 114.328125 -65.59375 108.21875 -65.59375 102.34375 -65.59375 C 96.46875 -65.59375 90.226562 -65.59375 83.625 -65.59375 C 83.625 -55.945312 83.625 -45.96875 83.625 -35.65625 C 83.625 -25.351562 83.625 -15.050781 83.625 -4.75 C 81.769531 -3.164062 78.796875 -1.613281 74.703125 -0.09375 C 70.609375 1.414062 65.882812 2.5 60.53125 3.15625 C 55.1875 3.820312 49.707031 3.859375 44.09375 3.265625 C 38.476562 2.671875 33.191406 1.085938 28.234375 -1.484375 C 23.285156 -4.054688 19.15625 -7.882812 15.84375 -12.96875 C 12.539062 -18.0625 10.628906 -24.632812 10.109375 -32.6875 C 9.835938 -36.382812 9.570312 -41.863281 9.3125 -49.125 C 9.050781 -56.394531 8.785156 -64.785156 8.515625 -74.296875 C 8.253906 -83.816406 8.023438 -93.890625 7.828125 -104.515625 C 7.628906 -115.148438 7.53125 -125.617188 7.53125 -135.921875 C 7.53125 -146.234375 7.59375 -155.847656 7.71875 -164.765625 C 7.851562 -173.679688 8.117188 -181.109375 8.515625 -187.046875 C 13.804688 -191.410156 19.617188 -194.515625 25.953125 -196.359375 C 32.296875 -198.210938 38.671875 -198.90625 45.078125 -198.4375 C 51.484375 -197.976562 57.394531 -196.457031 62.8125 -193.875 C 68.226562 -191.300781 72.71875 -187.832031 76.28125 -183.46875 C 79.851562 -179.113281 81.898438 -173.898438 82.421875 -167.828125 C 83.085938 -162.015625 83.421875 -156.300781 83.421875 -150.6875 C 83.421875 -145.070312 83.351562 -140.316406 83.21875 -136.421875 C 83.082031 -132.523438 83.015625 -130.25 83.015625 -129.59375 Z M 83.015625 -129.59375 "/></g></g></g><path stroke-linecap="butt" transform="matrix(0.57225, 0, 0, 0.57225, 221.027378, 30.781488)" fill="none" stroke-linejoin="miter" d="M 142.775047 232.046676 C 171.178529 232.046676 194.824205 242.845596 213.712077 264.443437 C 232.66821 286.034452 242.149689 312.49249 242.149689 343.81755 L 242.149689 418.918512 C 242.149689 425.444282 241.938079 430.33861 241.521686 433.601494 C 241.105293 436.871206 239.753721 440.652876 237.460145 444.960157 C 233.780867 452.318713 222.845424 455.997991 204.646991 455.997991 C 187.28817 455.997991 176.455119 452.318713 172.147838 444.960157 C 169.929349 440.652876 168.570951 436.796118 168.086297 433.396711 C 167.669904 429.990477 167.458294 424.857236 167.458294 417.976508 L 167.458294 343.394331 C 167.458294 331.728493 164.195409 322.636102 157.669639 316.103507 C 151.143869 309.509475 142.809178 306.21246 132.672391 306.21246 C 122.603865 306.21246 113.709432 309.263735 106.002744 315.379938 C 98.364316 321.489314 93.988774 328.397347 92.876117 336.104035 L 92.876117 418.918512 C 92.876117 425.444282 92.637202 430.33861 92.152548 433.601494 C 91.736155 436.871206 90.411888 440.652876 88.193399 444.960157 C 84.439033 452.318713 73.46946 455.997991 55.277853 455.997991 C 37.35929 455.997991 26.423847 452.14806 22.464698 444.434545 C 20.450993 440.202352 19.235944 436.523073 18.819551 433.396711 C 18.403157 430.270348 18.191548 425.30776 18.191548 418.502119 L 18.191548 163.294004 C 18.191548 156.768235 18.403157 151.873907 18.819551 148.611022 C 19.235944 145.348137 20.450993 141.696164 22.464698 137.668753 C 26.423847 130.030326 37.495812 126.214526 55.694246 126.214526 C 73.605982 126.214526 84.439033 130.030326 88.193399 137.668753 C 90.411888 141.976035 91.736155 145.764531 92.152548 149.027416 C 92.637202 152.2903 92.876117 157.184628 92.876117 163.710398 L 92.876117 257.979102 C 107.04714 240.688543 123.675566 232.046676 142.775047 232.046676 Z M 142.775047 232.046676 " stroke="#7b0008" stroke-width="21.333349" stroke-opacity="1" stroke-miterlimit="4"/><g fill="#f5505b" fill-opacity="1"><g transform="translate(221.662218, 291.727712)"><g><path d="M 81.0625 -128.1875 C 97.332031 -128.1875 110.878906 -122 121.703125 -109.625 C 132.535156 -97.257812 137.953125 -82.125 137.953125 -64.21875 L 137.953125 -21.234375 C 137.953125 -17.492188 137.828125 -14.6875 137.578125 -12.8125 C 137.335938 -10.945312 136.566406 -8.789062 135.265625 -6.34375 C 133.148438 -2.113281 126.882812 0 116.46875 0 C 106.53125 0 100.34375 -2.113281 97.90625 -6.34375 C 96.601562 -8.789062 95.828125 -10.988281 95.578125 -12.9375 C 95.335938 -14.894531 95.21875 -17.828125 95.21875 -21.734375 L 95.21875 -64.453125 C 95.21875 -71.128906 93.34375 -76.335938 89.59375 -80.078125 C 85.851562 -83.828125 81.09375 -85.703125 75.3125 -85.703125 C 69.539062 -85.703125 64.457031 -83.953125 60.0625 -80.453125 C 55.664062 -76.953125 53.144531 -73.003906 52.5 -68.609375 L 52.5 -21.234375 C 52.5 -17.492188 52.375 -14.6875 52.125 -12.8125 C 51.882812 -10.945312 51.113281 -8.789062 49.8125 -6.34375 C 47.695312 -2.113281 41.429688 0 31.015625 0 C 20.753906 0 14.484375 -2.195312 12.203125 -6.59375 C 11.066406 -9.03125 10.375 -11.144531 10.125 -12.9375 C 9.882812 -14.726562 9.765625 -17.578125 9.765625 -21.484375 L 9.765625 -167.484375 C 9.765625 -171.234375 9.882812 -174.039062 10.125 -175.90625 C 10.375 -177.78125 11.066406 -179.859375 12.203125 -182.140625 C 14.484375 -186.535156 20.832031 -188.734375 31.25 -188.734375 C 41.507812 -188.734375 47.695312 -186.535156 49.8125 -182.140625 C 51.113281 -179.703125 51.882812 -177.546875 52.125 -175.671875 C 52.375 -173.796875 52.5 -170.988281 52.5 -167.25 L 52.5 -113.28125 C 60.632812 -123.21875 70.15625 -128.1875 81.0625 -128.1875 Z M 81.0625 -128.1875 "/></g></g></g></svg>