<svg xmlns="http://www.w3.org/2000/svg" xmlns:xlink="http://www.w3.org/1999/xlink" width="500" zoomAndPan="magnify" viewBox="0 0 375 374.999991" height="500" preserveAspectRatio="xMidYMid meet" version="1.0"><defs><g/></defs><path stroke-linecap="butt" transform="matrix(0.75, 0, 0, 0.75, 87.5, 5.49999)" fill="none" stroke-linejoin="miter" d="M 116.875007 139.359398 C 117.843757 144.984398 118.572924 153.177107 119.062507 163.942733 C 119.546882 174.635442 119.822924 186.927109 119.895841 200.812527 C 119.963549 214.635444 119.895841 229.041695 119.687507 244.041696 C 119.546882 258.973989 119.166674 273.765656 118.541674 288.416699 C 117.984382 303.000033 117.322924 316.401076 116.562507 328.625035 C 115.86459 340.848994 114.92709 350.953162 113.750007 358.937537 C 109.026048 364.005246 103.02084 367.687538 95.729172 369.979204 C 88.437505 372.270871 80.656255 372.895871 72.395838 371.854205 C 64.130212 370.812538 56.109378 367.963579 48.333336 363.312537 C 40.557294 358.661495 33.682293 352.026078 27.708335 343.416703 C 21.734376 334.807327 17.536459 324.145868 15.104167 311.437534 C 14.338542 307.828159 13.645834 301.82295 13.020834 293.416699 C 12.463542 284.947949 11.942709 274.979198 11.458334 263.520864 C 11.041667 251.994822 10.729167 239.598988 10.520834 226.333362 C 10.3125 213.072944 10.244792 199.77086 10.3125 186.442734 C 10.453125 173.036483 10.692709 160.260441 11.041667 148.109398 C 11.458334 135.953147 12.083334 125.19273 12.916667 115.817729 C 13.817709 106.442729 14.932292 99.286478 16.250001 94.359395 C 21.526043 89.635436 27.984376 86.062519 35.625002 83.630227 C 43.333336 81.130227 51.458336 80.08856 60.000003 80.505227 C 68.541671 80.854185 76.73438 83.109394 84.583338 87.276061 C 92.500006 91.442728 99.338548 97.760437 105.104173 106.234395 C 110.86459 114.635438 114.791674 125.677105 116.875007 139.359398 Z M 116.875007 139.359398 " stroke="#7e0030" stroke-width="16.000013" stroke-opacity="1" stroke-miterlimit="4"/><g fill="#fb6ea4" fill-opacity="1"><g transform="translate(87.5, 281.499972)"><g><path d="M 87.6875 -171.515625 C 88.394531 -167.253906 88.925781 -161.101562 89.28125 -153.0625 C 89.632812 -145.03125 89.847656 -135.820312 89.921875 -125.4375 C 89.992188 -115.050781 89.957031 -104.238281 89.8125 -93 C 89.664062 -81.769531 89.378906 -70.679688 88.953125 -59.734375 C 88.523438 -48.785156 88.023438 -38.722656 87.453125 -29.546875 C 86.890625 -20.367188 86.179688 -12.796875 85.328125 -6.828125 C 81.773438 -2.984375 77.257812 -0.210938 71.78125 1.484375 C 66.3125 3.191406 60.484375 3.65625 54.296875 2.875 C 48.109375 2.09375 42.097656 -0.0351562 36.265625 -3.515625 C 30.429688 -7.003906 25.273438 -11.984375 20.796875 -18.453125 C 16.316406 -24.921875 13.15625 -32.921875 11.3125 -42.453125 C 10.738281 -45.148438 10.238281 -49.664062 9.8125 -56 C 9.382812 -62.332031 8.992188 -69.800781 8.640625 -78.40625 C 8.285156 -87.007812 8.035156 -96.285156 7.890625 -106.234375 C 7.753906 -116.191406 7.71875 -126.179688 7.78125 -136.203125 C 7.851562 -146.234375 8.03125 -155.800781 8.3125 -164.90625 C 8.601562 -174.007812 9.066406 -182.082031 9.703125 -189.125 C 10.347656 -196.164062 11.164062 -201.535156 12.15625 -205.234375 C 16.144531 -208.785156 21.015625 -211.484375 26.765625 -213.328125 C 32.523438 -215.179688 38.601562 -215.960938 45 -215.671875 C 51.40625 -215.390625 57.554688 -213.679688 63.453125 -210.546875 C 69.359375 -207.421875 74.476562 -202.691406 78.8125 -196.359375 C 83.15625 -190.035156 86.113281 -181.753906 87.6875 -171.515625 Z M 87.6875 -171.515625 "/></g></g></g><path stroke-linecap="butt" transform="matrix(0.57225, 0, 0, 0.57225, 198.582385, 24.031493)" fill="none" stroke-linejoin="miter" d="M 17.085158 268.709754 C 17.085158 262.183984 17.289941 257.289657 17.706335 254.026772 C 18.122728 250.6888 19.337777 246.90713 21.351482 242.66811 C 25.310631 235.309553 36.389423 231.630275 54.58103 231.630275 C 68.260573 231.630275 77.946836 234.026243 83.646645 238.818179 C 88.438581 242.777328 91.005202 248.886704 91.353334 257.146308 C 91.633204 259.9928 91.769727 264.129428 91.769727 269.542541 L 91.769727 418.918505 C 91.769727 425.444275 91.523987 430.338602 91.039332 433.601487 C 90.622939 436.871198 89.305498 440.652868 87.080183 444.960149 C 83.332644 452.318706 72.36307 455.997984 54.164637 455.997984 C 36.246074 455.997984 25.310631 452.148053 21.351482 444.434538 C 19.337777 440.202344 18.122728 436.523066 17.706335 433.396703 C 17.289941 430.270341 17.085158 425.307752 17.085158 418.502112 Z M 87.189401 189.547251 C 85.100608 193.642922 81.353069 196.557675 75.933131 198.298336 C 70.520018 200.03217 63.332115 200.899087 54.376246 200.899087 C 45.413552 200.899087 38.225649 200.03217 32.812536 198.298336 C 27.467685 196.557675 23.713319 193.574661 21.563092 189.335641 C 19.406038 185.103447 18.122728 181.349082 17.706335 178.086197 C 17.289941 174.755051 17.085158 169.826593 17.085158 163.293997 C 17.085158 156.768227 17.289941 151.8739 17.706335 148.611015 C 18.122728 145.34813 19.337777 141.696156 21.351482 137.668746 C 25.310631 130.030319 36.389423 126.214518 54.58103 126.214518 C 72.499593 126.214518 83.332644 130.030319 87.080183 137.668746 C 89.305498 141.976027 90.622939 145.764523 91.039332 149.027408 C 91.523987 152.290293 91.769727 157.18462 91.769727 163.71039 C 91.769727 170.242986 91.523987 175.171444 91.039332 178.50259 C 90.622939 181.765475 89.339628 185.45158 87.189401 189.547251 Z M 87.189401 189.547251 " stroke="#7e0030" stroke-width="21.333349" stroke-opacity="1" stroke-miterlimit="4"/><g fill="#fb6ea4" fill-opacity="1"><g transform="translate(198.582385, 284.977716)"><g><path d="M 9.765625 -107.1875 C 9.765625 -110.925781 9.882812 -113.734375 10.125 -115.609375 C 10.375 -117.484375 11.066406 -119.640625 12.203125 -122.078125 C 14.484375 -126.304688 20.832031 -128.421875 31.25 -128.421875 C 39.0625 -128.421875 44.597656 -127.039062 47.859375 -124.28125 C 50.617188 -122 52.082031 -118.5 52.25 -113.78125 C 52.414062 -112.144531 52.5 -109.785156 52.5 -106.703125 L 52.5 -21.234375 C 52.5 -17.492188 52.375 -14.6875 52.125 -12.8125 C 51.882812 -10.945312 51.113281 -8.789062 49.8125 -6.34375 C 47.695312 -2.113281 41.429688 0 31.015625 0 C 20.753906 0 14.484375 -2.195312 12.203125 -6.59375 C 11.066406 -9.03125 10.375 -11.144531 10.125 -12.9375 C 9.882812 -14.726562 9.765625 -17.578125 9.765625 -21.484375 Z M 49.921875 -152.46875 C 48.703125 -150.113281 46.546875 -148.445312 43.453125 -147.46875 C 40.367188 -146.488281 36.257812 -146 31.125 -146 C 26 -146 21.890625 -146.488281 18.796875 -147.46875 C 15.703125 -148.445312 13.546875 -150.15625 12.328125 -152.59375 C 11.109375 -155.039062 10.375 -157.195312 10.125 -159.0625 C 9.882812 -160.9375 9.765625 -163.742188 9.765625 -167.484375 C 9.765625 -171.234375 9.882812 -174.039062 10.125 -175.90625 C 10.375 -177.78125 11.066406 -179.859375 12.203125 -182.140625 C 14.484375 -186.535156 20.832031 -188.734375 31.25 -188.734375 C 41.507812 -188.734375 47.695312 -186.535156 49.8125 -182.140625 C 51.113281 -179.703125 51.882812 -177.546875 52.125 -175.671875 C 52.375 -173.796875 52.5 -170.984375 52.5 -167.234375 C 52.5 -163.492188 52.375 -160.6875 52.125 -158.8125 C 51.882812 -156.945312 51.148438 -154.832031 49.921875 -152.46875 Z M 49.921875 -152.46875 "/></g></g></g></svg>