<svg xmlns="http://www.w3.org/2000/svg" xmlns:xlink="http://www.w3.org/1999/xlink" width="500" zoomAndPan="magnify" viewBox="0 0 375 374.999991" height="500" preserveAspectRatio="xMidYMid meet" version="1.0"><defs><g/></defs><path stroke-linecap="butt" transform="matrix(0.75, 0, 0, 0.75, 18.406507, 5.499961)" fill="none" stroke-linejoin="miter" d="M 118.332999 187.692773 C 121.525707 182.760481 124.301749 178.349023 126.666333 174.463606 C 129.093416 170.57298 131.629875 166.369855 134.2705 161.859438 C 136.905917 157.276105 140.030917 151.546937 143.645501 144.671937 C 145.937167 140.364645 148.676751 135.328186 151.874668 129.567769 C 155.135085 123.734436 158.504877 117.65631 161.978835 111.338602 C 165.520502 104.947976 168.921544 98.906309 172.187169 93.2136 C 175.520503 87.515683 178.504878 82.692766 181.145503 78.734433 C 189.338212 77.000058 197.702796 77.000058 206.244463 78.734433 C 214.78613 80.401099 222.739256 83.421933 230.098631 87.796933 C 237.530923 92.171934 243.713215 97.692767 248.640299 104.359434 C 253.572591 110.953185 256.4528 118.526102 257.286133 127.067769 C 258.119466 135.609436 256.176758 144.703187 251.452799 154.359438 C 247.843424 161.927147 244.546549 168.109439 241.556965 172.901106 C 238.640298 177.619856 235.864257 181.859439 233.223631 185.60944 C 230.588215 189.286523 227.598631 193.42194 224.265298 198.000066 C 220.931964 202.515691 217.010089 208.349025 212.494463 215.500067 C 210.41113 218.557359 210.306963 221.786525 212.181963 225.187567 C 219.197589 238.104235 226.489256 251.125069 234.056965 264.25007 C 241.69759 277.307362 248.780924 289.807363 255.306966 301.750072 C 261.838217 313.692781 266.905925 324.390699 270.515301 333.833408 C 268.431967 341.2657 264.301758 348.104242 258.119466 354.354242 C 251.942383 360.604243 244.614257 365.604243 236.140298 369.354243 C 227.739256 373.171952 218.921547 375.046952 209.681963 374.979244 C 200.515296 374.911535 191.697587 372.27091 183.228836 367.062577 C 174.822586 361.786535 167.603835 353.276117 161.562168 341.541742 C 158.504877 335.500075 154.926751 328.588616 150.833001 320.812574 C 146.801751 313.036531 141.458 302.583406 134.791333 289.458405 C 131.593416 294.59903 128.333 300.015697 124.999666 305.708406 C 121.666332 311.401115 119.718416 315.776115 119.166332 318.833407 C 118.609041 321.817782 118.364249 327.026116 118.437166 334.458408 C 118.572582 341.817783 119.025707 349.494867 119.791332 357.479243 C 114.85904 361.64591 108.504873 364.875076 100.728831 367.166743 C 92.947581 369.45841 84.582997 370.500077 75.624663 370.291744 C 66.734037 370.08341 58.19237 368.484452 49.999661 365.500077 C 41.874661 362.442785 34.963202 357.755284 29.270493 351.437576 C 23.577784 345.04695 20.067367 336.817783 18.749659 326.750074 C 17.640284 318.765698 16.629867 308.906323 15.728825 297.166739 C 14.895492 285.432363 14.202784 272.447987 13.645492 258.208403 C 13.0882 243.974027 12.671534 229.286526 12.395492 214.1459 C 12.11945 198.937566 12.015284 184.04694 12.082992 169.463605 C 12.1507 154.880271 12.43195 141.338603 12.916325 128.838603 C 13.4007 116.265685 14.129867 105.536518 15.103825 96.651101 C 19.619451 90.953184 25.93716 86.442767 34.06216 83.109433 C 42.254869 79.776099 51.077786 77.937558 60.520495 77.588599 C 70.036121 77.239641 79.093413 78.593808 87.707997 81.6511 C 96.385081 84.635475 103.541331 89.49485 109.166332 96.234434 C 114.85904 102.968809 117.916332 111.927143 118.332999 123.109436 C 118.676749 131.442769 118.885082 138.072978 118.957999 143.00527 C 119.093416 147.932354 119.166332 152.099021 119.166332 155.505271 C 119.166332 158.906313 119.062166 162.515688 118.853832 166.338605 C 118.713207 170.156314 118.541332 175.088606 118.332999 181.130273 C 118.124666 181.890689 118.051749 182.760481 118.124666 183.73444 C 118.260082 184.635481 118.332999 185.95319 118.332999 187.692773 Z M 118.332999 187.692773 " stroke="#006f73" stroke-width="16.000013" stroke-opacity="1" stroke-miterlimit="4"/><g fill="#5ce1e6" fill-opacity="1"><g transform="translate(18.406507, 281.499942)"><g><path d="M 88.75 -135.25 C 91.164062 -138.945312 93.257812 -142.253906 95.03125 -145.171875 C 96.8125 -148.085938 98.695312 -151.25 100.6875 -154.65625 C 102.6875 -158.070312 105.035156 -162.34375 107.734375 -167.46875 C 109.441406 -170.738281 111.503906 -174.539062 113.921875 -178.875 C 116.335938 -183.21875 118.859375 -187.769531 121.484375 -192.53125 C 124.117188 -197.300781 126.679688 -201.816406 129.171875 -206.078125 C 131.660156 -210.347656 133.898438 -213.972656 135.890625 -216.953125 C 142.003906 -218.234375 148.257812 -218.234375 154.65625 -216.953125 C 161.0625 -215.679688 167.035156 -213.410156 172.578125 -210.140625 C 178.128906 -206.867188 182.753906 -202.742188 186.453125 -197.765625 C 190.148438 -192.785156 192.316406 -187.09375 192.953125 -180.6875 C 193.597656 -174.289062 192.144531 -167.46875 188.59375 -160.21875 C 185.882812 -154.53125 183.425781 -149.90625 181.21875 -146.34375 C 179.019531 -142.789062 176.925781 -139.625 174.9375 -136.84375 C 172.945312 -134.070312 170.707031 -130.976562 168.21875 -127.5625 C 165.726562 -124.15625 162.773438 -119.75 159.359375 -114.34375 C 157.796875 -112.070312 157.722656 -109.65625 159.140625 -107.09375 C 164.410156 -97.425781 169.890625 -87.679688 175.578125 -77.859375 C 181.265625 -68.046875 186.5625 -58.660156 191.46875 -49.703125 C 196.375 -40.742188 200.175781 -32.707031 202.875 -25.59375 C 201.3125 -20.050781 198.21875 -14.929688 193.59375 -10.234375 C 188.976562 -5.546875 183.503906 -1.78125 177.171875 1.0625 C 170.847656 3.90625 164.234375 5.289062 157.328125 5.21875 C 150.429688 5.15625 143.816406 3.171875 137.484375 -0.734375 C 131.160156 -4.648438 125.722656 -11.019531 121.171875 -19.84375 C 118.898438 -24.394531 116.234375 -29.582031 113.171875 -35.40625 C 110.117188 -41.238281 106.101562 -49.0625 101.125 -58.875 C 98.707031 -55.039062 96.253906 -50.988281 93.765625 -46.71875 C 91.273438 -42.445312 89.816406 -39.175781 89.390625 -36.90625 C 88.960938 -34.632812 88.78125 -30.722656 88.84375 -25.171875 C 88.914062 -19.628906 89.238281 -13.867188 89.8125 -7.890625 C 86.113281 -4.765625 81.347656 -2.347656 75.515625 -0.640625 C 69.679688 1.066406 63.421875 1.847656 56.734375 1.703125 C 50.054688 1.566406 43.660156 0.363281 37.546875 -1.90625 C 31.429688 -4.1875 26.238281 -7.707031 21.96875 -12.46875 C 17.707031 -17.238281 15.078125 -23.394531 14.078125 -30.9375 C 13.222656 -36.90625 12.472656 -44.296875 11.828125 -53.109375 C 11.191406 -61.929688 10.660156 -71.675781 10.234375 -82.34375 C 9.804688 -93.007812 9.484375 -104.03125 9.265625 -115.40625 C 9.054688 -126.789062 8.988281 -137.957031 9.0625 -148.90625 C 9.132812 -159.851562 9.347656 -170.019531 9.703125 -179.40625 C 10.054688 -188.800781 10.59375 -196.835938 11.3125 -203.515625 C 14.71875 -207.785156 19.476562 -211.164062 25.59375 -213.65625 C 31.707031 -216.144531 38.320312 -217.53125 45.4375 -217.8125 C 52.550781 -218.09375 59.34375 -217.09375 65.8125 -214.8125 C 72.28125 -212.539062 77.644531 -208.878906 81.90625 -203.828125 C 86.175781 -198.785156 88.457031 -192.070312 88.75 -183.6875 C 89.03125 -177.425781 89.207031 -172.445312 89.28125 -168.75 C 89.351562 -165.050781 89.390625 -161.921875 89.390625 -159.359375 C 89.390625 -156.796875 89.316406 -154.09375 89.171875 -151.25 C 89.023438 -148.40625 88.882812 -144.707031 88.75 -140.15625 C 88.601562 -139.59375 88.566406 -138.953125 88.640625 -138.234375 C 88.710938 -137.523438 88.75 -136.53125 88.75 -135.25 Z M 88.75 -135.25 "/></g></g></g><path stroke-linecap="butt" transform="matrix(0.57225, 0, 0, 0.57225, 230.564886, 20.281522)" fill="none" stroke-linejoin="miter" d="M 149.371794 343.394272 L 206.035409 390.269231 C 213.189182 396.242086 217.667116 400.795107 219.476037 403.914643 C 221.35322 407.041006 222.288399 410.030846 222.288399 412.877338 C 222.288399 419.75124 217.878726 429.021109 209.05938 440.686947 C 199.407247 452.632655 190.867772 458.60551 183.434129 458.60551 C 177.181404 458.60551 168.505406 454.468881 157.392484 446.209277 L 153.119334 443.185307 C 146.593564 437.772194 136.490908 428.324845 122.811365 414.856912 C 109.200084 401.313892 98.851687 391.69589 91.766175 386.002907 L 91.766175 418.918453 C 91.766175 425.444223 91.527261 430.33855 91.042607 433.601435 C 90.626213 436.871146 89.301946 440.652816 87.083458 444.960098 C 83.329092 452.318654 72.359519 455.997932 54.167911 455.997932 C 36.249349 455.997932 25.313906 452.148001 21.354757 444.434486 C 19.341052 440.202293 18.126003 436.454753 17.709609 433.185042 C 17.293216 429.922157 17.081606 425.02783 17.081606 418.50206 L 17.081606 162.877552 C 17.081606 156.351782 17.293216 151.457455 17.709609 148.19457 C 18.126003 144.931685 19.341052 141.143189 21.354757 136.835908 C 25.313906 129.19748 36.385871 125.38168 54.584305 125.38168 C 68.263847 125.38168 77.95011 127.777648 83.643094 132.569583 C 88.435029 136.596994 91.008476 142.842893 91.349782 151.314106 C 91.629653 153.887553 91.766175 157.880833 91.766175 163.293945 L 91.766175 298.608104 C 96.837982 294.300823 104.54467 287.044658 114.893067 276.832784 C 125.309725 266.559475 133.0915 259.30331 138.224742 255.06429 L 143.330679 251.630753 C 153.330943 243.917238 161.870418 240.067307 168.95593 240.067307 C 176.041442 240.067307 184.198654 245.828551 193.434393 257.357866 C 202.738393 268.887182 207.393807 277.945442 207.393807 284.546299 C 207.393807 291.072069 202.117217 298.744627 191.55721 307.563972 Z M 149.371794 343.394272 " stroke="#006f73" stroke-width="21.333349" stroke-opacity="1" stroke-miterlimit="4"/><g fill="#5ce1e6" fill-opacity="1"><g transform="translate(230.564886, 281.227746)"><g><path d="M 85.453125 -64.453125 L 117.921875 -37.59375 C 121.992188 -34.175781 124.554688 -31.570312 125.609375 -29.78125 C 126.671875 -27.988281 127.203125 -26.28125 127.203125 -24.65625 C 127.203125 -20.75 124.679688 -15.460938 119.640625 -8.796875 C 114.097656 -1.953125 109.210938 1.46875 104.984375 1.46875 C 101.398438 1.46875 96.4375 -0.890625 90.09375 -5.609375 L 87.65625 -7.328125 C 83.90625 -10.421875 78.125 -15.832031 70.3125 -23.5625 C 62.5 -31.289062 56.5625 -36.785156 52.5 -40.046875 L 52.5 -21.234375 C 52.5 -17.492188 52.375 -14.6875 52.125 -12.8125 C 51.882812 -10.945312 51.113281 -8.789062 49.8125 -6.34375 C 47.695312 -2.113281 41.429688 0 31.015625 0 C 20.753906 0 14.484375 -2.195312 12.203125 -6.59375 C 11.066406 -9.03125 10.375 -11.1875 10.125 -13.0625 C 9.882812 -14.9375 9.765625 -17.742188 9.765625 -21.484375 L 9.765625 -167.734375 C 9.765625 -171.472656 9.882812 -174.28125 10.125 -176.15625 C 10.375 -178.03125 11.066406 -180.1875 12.203125 -182.625 C 14.484375 -187.019531 20.832031 -189.21875 31.25 -189.21875 C 39.0625 -189.21875 44.597656 -187.835938 47.859375 -185.078125 C 50.617188 -182.796875 52.082031 -179.210938 52.25 -174.328125 C 52.414062 -172.859375 52.5 -170.578125 52.5 -167.484375 L 52.5 -90.09375 C 55.425781 -92.53125 59.859375 -96.675781 65.796875 -102.53125 C 71.742188 -108.394531 76.179688 -112.550781 79.109375 -115 L 82.03125 -116.953125 C 87.726562 -121.347656 92.613281 -123.546875 96.6875 -123.546875 C 100.757812 -123.546875 105.4375 -120.25 110.71875 -113.65625 C 116.007812 -107.0625 118.65625 -101.890625 118.65625 -98.140625 C 118.65625 -94.398438 115.644531 -90.007812 109.625 -84.96875 Z M 85.453125 -64.453125 "/></g></g></g></svg>