<svg xmlns="http://www.w3.org/2000/svg" xmlns:xlink="http://www.w3.org/1999/xlink" width="500" zoomAndPan="magnify" viewBox="0 0 375 374.999991" height="500" preserveAspectRatio="xMidYMid meet" version="1.0"><defs><g/></defs><path stroke-linecap="butt" transform="matrix(0.75, 0, 0, 0.75, 33.239782, 21.224061)" fill="none" stroke-linejoin="miter" d="M 191.154261 367.164818 C 181.15426 367.722109 170.982385 368.034609 160.633426 368.102318 C 150.284467 368.242943 140.737591 368.206484 131.98759 367.998151 C 123.305298 367.789818 116.294881 367.617943 110.945922 367.477318 C 105.66988 367.268984 103.029255 367.164818 103.029255 367.164818 C 95.596963 367.164818 87.471962 366.539818 78.654254 365.289817 C 69.836545 364.039817 61.258419 361.331484 52.925085 357.164817 C 44.591751 352.99815 37.336542 346.821066 31.15425 338.623149 C 25.044875 330.362732 20.945916 319.284606 18.862583 305.399188 C 17.6855 297.482521 16.607374 287.446062 15.633416 275.29502 C 14.732374 263.138769 14.039666 249.737727 13.550083 235.086684 C 13.065708 220.362725 12.925083 205.050224 13.133416 189.149181 C 13.341749 173.175221 13.966749 157.341887 15.008416 141.649178 C 16.050083 125.883552 17.6855 110.987717 19.90425 96.961675 C 25.253208 92.170008 31.815709 88.524174 39.591751 86.024174 C 47.373001 83.456466 55.602169 82.378341 64.279253 82.795007 C 73.029253 83.143966 81.362587 85.399174 89.279254 89.565841 C 97.26363 93.732508 104.10738 100.086675 109.800089 108.628342 C 115.492798 117.170009 119.107381 128.456469 120.633423 142.482511 C 121.607381 150.815845 122.263631 160.435637 122.61259 171.33668 C 123.029256 182.237722 123.305298 193.560639 123.445923 205.295015 C 123.654256 217.029391 123.690715 228.451267 123.55009 239.565851 C 123.482381 250.675227 123.274048 260.675227 122.92509 269.565853 C 129.383424 269.008561 137.232382 268.696061 146.466758 268.628353 C 155.77405 268.487728 165.774051 268.524186 176.46676 268.732519 C 187.227177 268.940853 198.09697 269.425228 209.070929 270.190853 C 220.112596 270.95127 230.63343 271.88877 240.633431 273.003353 C 246.32614 283.836687 248.893848 294.670021 248.341765 305.503355 C 247.784473 316.263773 244.831348 326.196065 239.487597 335.289815 C 234.206347 344.388774 227.331347 351.852317 218.862596 357.68565 C 210.456346 363.451276 201.22197 366.612734 191.154261 367.164818 Z M 191.154261 367.164818 " stroke="#0e0069" stroke-width="16.000013" stroke-opacity="1" stroke-miterlimit="4"/><g fill="#7668d2" fill-opacity="1"><g transform="translate(34.341345, 297.224043)"><g><path d="M 142.296875 -0.640625 C 134.753906 -0.210938 127.109375 0.0351562 119.359375 0.109375 C 111.609375 0.179688 104.460938 0.144531 97.921875 0 C 91.378906 -0.144531 86.113281 -0.285156 82.125 -0.421875 C 78.144531 -0.566406 76.15625 -0.640625 76.15625 -0.640625 C 70.613281 -0.640625 64.535156 -1.097656 57.921875 -2.015625 C 51.304688 -2.941406 44.867188 -4.96875 38.609375 -8.09375 C 32.359375 -11.226562 26.921875 -15.890625 22.296875 -22.078125 C 17.671875 -28.265625 14.578125 -36.550781 13.015625 -46.9375 C 12.160156 -52.90625 11.375 -60.441406 10.65625 -69.546875 C 9.945312 -78.648438 9.414062 -88.710938 9.0625 -99.734375 C 8.707031 -110.753906 8.597656 -122.238281 8.734375 -134.1875 C 8.878906 -146.132812 9.34375 -158.007812 10.125 -169.8125 C 10.914062 -181.613281 12.160156 -192.78125 13.859375 -203.3125 C 17.847656 -206.863281 22.753906 -209.597656 28.578125 -211.515625 C 34.410156 -213.441406 40.597656 -214.257812 47.140625 -213.96875 C 53.679688 -213.6875 59.9375 -211.976562 65.90625 -208.84375 C 71.882812 -205.71875 77.007812 -200.953125 81.28125 -194.546875 C 85.550781 -188.148438 88.253906 -179.691406 89.390625 -169.171875 C 90.097656 -162.910156 90.59375 -155.691406 90.875 -147.515625 C 91.164062 -139.335938 91.378906 -130.835938 91.515625 -122.015625 C 91.660156 -113.203125 91.695312 -104.632812 91.625 -96.3125 C 91.550781 -88 91.375 -80.5 91.09375 -73.8125 C 95.925781 -74.238281 101.828125 -74.488281 108.796875 -74.5625 C 115.765625 -74.632812 123.265625 -74.597656 131.296875 -74.453125 C 139.335938 -74.304688 147.484375 -73.945312 155.734375 -73.375 C 163.984375 -72.8125 171.875 -72.101562 179.40625 -71.25 C 183.675781 -63.144531 185.597656 -55.035156 185.171875 -46.921875 C 184.742188 -38.816406 182.539062 -31.351562 178.5625 -24.53125 C 174.582031 -17.707031 169.425781 -12.125 163.09375 -7.78125 C 156.757812 -3.445312 149.828125 -1.066406 142.296875 -0.640625 Z M 142.296875 -0.640625 "/></g></g></g><path stroke-linecap="butt" transform="matrix(0.57225, 0, 0, 0.57225, 228.510033, 37.807966)" fill="none" stroke-linejoin="miter" d="M 17.129679 162.879124 C 17.129679 156.353354 17.341289 151.459027 17.757682 148.189316 C 18.174075 144.926431 19.389125 141.144761 21.40283 136.83748 C 25.361979 129.199053 36.433944 125.383252 54.632377 125.383252 C 71.991198 125.383252 82.824249 129.199053 87.13153 136.83748 C 89.350019 141.144761 90.66746 144.994692 91.083853 148.400926 C 91.575334 151.800333 91.814248 156.769748 91.814248 163.295518 L 91.814248 360.898013 C 91.814248 371.103061 92.647035 377.56057 94.319434 380.270539 C 96.053268 382.980508 99.834938 384.33208 105.67127 384.33208 C 111.500776 384.33208 115.391664 384.54369 117.337107 384.960083 C 119.350813 385.376476 121.780911 386.591525 124.627403 388.605231 C 130.320386 392.284509 133.166878 402.387165 133.166878 418.920025 C 133.166878 436.831762 130.320386 447.774031 124.627403 451.726354 C 117.268846 456.866422 99.630155 457.733339 71.711327 454.333931 C 49.840442 451.48744 35.635288 444.231275 29.109518 432.565438 C 21.122959 418.606024 17.129679 396.414311 17.129679 366.00395 Z M 17.129679 162.879124 " stroke="#0e0069" stroke-width="21.333349" stroke-opacity="1" stroke-miterlimit="4"/><g fill="#7668d2" fill-opacity="1"><g transform="translate(228.536857, 298.75419)"><g><path d="M 9.765625 -167.734375 C 9.765625 -171.472656 9.882812 -174.28125 10.125 -176.15625 C 10.375 -178.03125 11.066406 -180.1875 12.203125 -182.625 C 14.484375 -187.019531 20.832031 -189.21875 31.25 -189.21875 C 41.175781 -189.21875 47.363281 -187.019531 49.8125 -182.625 C 51.113281 -180.1875 51.882812 -177.988281 52.125 -176.03125 C 52.375 -174.082031 52.5 -171.234375 52.5 -167.484375 L 52.5 -54.453125 C 52.5 -48.585938 52.984375 -44.878906 53.953125 -43.328125 C 54.929688 -41.785156 57.085938 -41.015625 60.421875 -41.015625 C 63.765625 -41.015625 66.003906 -40.890625 67.140625 -40.640625 C 68.285156 -40.398438 69.671875 -39.710938 71.296875 -38.578125 C 74.546875 -36.460938 76.171875 -30.679688 76.171875 -21.234375 C 76.171875 -10.984375 74.546875 -4.71875 71.296875 -2.4375 C 67.066406 0.488281 56.972656 0.972656 41.015625 -0.984375 C 28.484375 -2.609375 20.347656 -6.753906 16.609375 -13.421875 C 12.046875 -21.398438 9.765625 -34.097656 9.765625 -51.515625 Z M 9.765625 -167.734375 "/></g></g></g></svg>