<svg xmlns="http://www.w3.org/2000/svg" xmlns:xlink="http://www.w3.org/1999/xlink" width="500" zoomAndPan="magnify" viewBox="0 0 375 374.999991" height="500" preserveAspectRatio="xMidYMid meet" version="1.0"><defs><g/></defs><path stroke-linecap="butt" transform="matrix(0.581582, 0, 0, 0.581582, -11.384136, 52.608748)" fill="none" stroke-linejoin="miter" d="M 207.222684 231.233316 C 207.56523 230.25941 207.88091 229.319086 208.156291 228.419063 C 208.505554 227.445156 208.747351 226.578715 208.8884 225.813023 C 213.260903 206.858791 217.673707 188.005307 222.113376 169.252572 C 226.559763 150.432671 230.972566 131.545604 235.34507 112.584654 C 236.110762 109.951749 237.010786 107.238244 238.051858 104.46429 C 239.09293 101.68362 239.999671 98.869366 240.765362 96.028246 C 252.149992 88.666857 263.99135 84.36152 276.28272 83.105516 C 288.641256 81.856229 300.307983 83.488362 311.2829 88.001914 C 322.324983 92.448301 331.560302 99.426844 338.988857 108.94426 C 346.491294 118.387793 351.213061 130.121686 353.154157 144.152654 C 353.919849 149.425181 354.819873 156.578356 355.867662 165.60546 C 356.908734 174.632565 358.084138 184.458944 359.407308 195.084598 C 360.72376 205.710253 361.973047 216.302324 363.155168 226.854096 C 364.404455 237.345418 365.51941 246.748652 366.486599 255.083947 C 368.367246 271.19706 370.167294 286.578064 371.906892 301.226959 C 373.639774 315.815405 375.446538 331.162826 377.320468 347.269222 C 371.074034 355.188088 363.954443 361.159142 355.968411 365.189099 C 347.982378 369.145174 339.821715 371.260902 331.493136 371.542999 C 323.157841 371.818379 315.272558 370.394461 307.844003 367.271244 C 300.482614 364.148027 294.336929 359.459843 289.406948 353.206693 C 284.476967 346.960259 281.528381 339.28319 280.554475 330.188919 C 279.647735 321.64541 279.063391 314.216855 278.781294 307.896539 C 278.505913 301.509056 278.297699 295.222323 278.15665 289.043055 C 278.089484 282.863787 277.982019 275.985993 277.847687 268.416389 C 277.773804 260.846786 277.56559 251.64505 277.223044 240.811181 C 276.806615 240.67685 276.141672 240.602967 275.241648 240.602967 C 274.617004 243.591852 274.025944 246.506855 273.468467 249.354691 C 272.917706 252.202528 272.252763 255.15783 271.493787 258.207164 C 267.672045 274.736706 263.816719 291.299831 259.92781 307.896539 C 256.038901 324.42608 252.008944 340.948906 247.844654 357.478447 C 244.096794 359.768807 238.992181 361.817368 232.530816 363.624132 C 226.076168 365.430897 219.064042 366.438386 211.494439 366.6466 C 203.924835 366.787649 196.455981 365.880909 189.094592 363.939812 C 181.807086 361.924834 175.312138 358.277722 169.616465 352.998478 C 163.994675 347.652068 160.031883 340.324262 157.741524 331.021777 C 156.008642 324.217866 153.993664 316.023619 151.703305 306.439037 C 149.480111 296.854455 147.256918 287.269873 145.033725 277.692008 C 142.884414 268.107426 140.903019 259.671382 139.096255 252.377159 C 137.28949 245.082936 135.905872 240.186538 134.931965 237.687964 C 134.025225 252.135362 133.091618 265.85065 132.117712 278.833829 C 131.143805 291.823725 130.243781 304.874071 129.410924 317.998298 C 128.578066 331.05536 127.671325 344.978863 126.704136 359.768807 C 117.394934 364.698788 107.984984 368.070519 98.474284 369.877283 C 89.030751 371.677331 80.037229 371.576582 71.49372 369.561603 C 62.95021 367.546624 55.662704 363.483084 49.617768 357.377698 C 43.579548 351.191714 39.27421 342.621338 36.701754 331.646421 C 34.136015 320.604337 33.994966 307.030098 36.285325 290.916985 C 38.575684 274.044897 41.564569 256.924294 45.245264 239.561895 C 48.925958 222.206212 52.082758 205.193075 54.72238 188.522485 C 57.362002 172.758635 60.102373 157.028368 62.95021 141.3384 C 65.798046 125.57455 68.578717 109.911449 71.285505 94.355814 C 75.590843 90.191525 81.595479 86.82651 89.306131 84.254054 C 97.016783 81.688315 105.419244 80.365145 114.513515 80.297979 C 123.614502 80.224097 132.641606 81.721897 141.594828 84.777948 C 150.621933 87.760117 158.648264 92.763981 165.66039 99.776107 C 172.672516 106.788232 177.810712 116.1646 181.074977 127.898492 C 182.948907 134.359857 184.930303 142.104092 187.012448 151.131197 C 189.094592 160.158301 191.284203 169.460786 193.574562 179.045368 C 195.864921 188.556067 198.054531 197.791386 200.136676 206.751325 C 200.277724 207.100588 200.586687 208.450624 201.076999 210.814865 C 201.560594 213.179107 202.185237 215.885895 202.950929 218.941946 C 203.716621 221.997997 204.341264 224.704785 204.824859 227.06231 C 205.308454 229.426552 205.624134 230.816887 205.765183 231.233316 C 206.181612 231.233316 206.456992 231.233316 206.598041 231.233316 C 206.806255 231.233316 207.014469 231.233316 207.222684 231.233316 Z M 207.222684 231.233316 " stroke="#7e0030" stroke-width="15.999975" stroke-opacity="1" stroke-miterlimit="4"/><g fill="#fb6ea4" fill-opacity="1"><g transform="translate(3.418939, 266.630863)"><g><path d="M 105.703125 -79.578125 C 105.921875 -80.117188 106.113281 -80.664062 106.28125 -81.21875 C 106.445312 -81.769531 106.585938 -82.269531 106.703125 -82.71875 C 109.234375 -93.738281 111.796875 -104.707031 114.390625 -115.625 C 116.984375 -126.550781 119.546875 -137.523438 122.078125 -148.546875 C 122.523438 -150.097656 123.050781 -151.671875 123.65625 -153.265625 C 124.257812 -154.867188 124.785156 -156.492188 125.234375 -158.140625 C 131.847656 -162.441406 138.738281 -164.953125 145.90625 -165.671875 C 153.070312 -166.390625 159.851562 -165.453125 166.25 -162.859375 C 172.644531 -160.265625 178.019531 -156.210938 182.375 -150.703125 C 186.738281 -145.191406 189.472656 -138.351562 190.578125 -130.1875 C 191.015625 -127.101562 191.535156 -122.941406 192.140625 -117.703125 C 192.742188 -112.460938 193.429688 -106.753906 194.203125 -100.578125 C 194.984375 -94.398438 195.726562 -88.25 196.4375 -82.125 C 197.15625 -76.007812 197.789062 -70.523438 198.34375 -65.671875 C 199.445312 -56.296875 200.492188 -47.363281 201.484375 -38.875 C 202.484375 -30.382812 203.535156 -21.453125 204.640625 -12.078125 C 200.992188 -7.441406 196.851562 -3.96875 192.21875 -1.65625 C 187.59375 0.65625 182.851562 1.894531 178 2.0625 C 173.144531 2.226562 168.566406 1.40625 164.265625 -0.40625 C 159.960938 -2.226562 156.378906 -4.957031 153.515625 -8.59375 C 150.648438 -12.238281 148.941406 -16.707031 148.390625 -22 C 147.835938 -26.96875 147.476562 -31.296875 147.3125 -34.984375 C 147.144531 -38.679688 147.035156 -42.320312 146.984375 -45.90625 C 146.929688 -49.488281 146.875 -53.484375 146.8125 -57.890625 C 146.757812 -62.304688 146.625 -67.660156 146.40625 -73.953125 C 146.1875 -74.054688 145.800781 -74.109375 145.25 -74.109375 C 144.914062 -72.347656 144.582031 -70.640625 144.25 -68.984375 C 143.914062 -67.328125 143.53125 -65.617188 143.09375 -63.859375 C 140.882812 -54.265625 138.648438 -44.640625 136.390625 -34.984375 C 134.128906 -25.335938 131.785156 -15.71875 129.359375 -6.125 C 127.160156 -4.800781 124.1875 -3.613281 120.4375 -2.5625 C 116.6875 -1.519531 112.601562 -0.941406 108.1875 -0.828125 C 103.78125 -0.710938 99.453125 -1.234375 95.203125 -2.390625 C 90.953125 -3.554688 87.171875 -5.679688 83.859375 -8.765625 C 80.554688 -11.859375 78.242188 -16.101562 76.921875 -21.5 C 75.929688 -25.46875 74.773438 -30.238281 73.453125 -35.8125 C 72.128906 -41.382812 70.832031 -46.953125 69.5625 -52.515625 C 68.289062 -58.085938 67.128906 -62.992188 66.078125 -67.234375 C 65.035156 -71.484375 64.238281 -74.328125 63.6875 -75.765625 C 63.132812 -67.378906 62.582031 -59.410156 62.03125 -51.859375 C 61.476562 -44.304688 60.953125 -36.722656 60.453125 -29.109375 C 59.960938 -21.503906 59.441406 -13.398438 58.890625 -4.796875 C 53.484375 -1.929688 48.023438 0.0195312 42.515625 1.0625 C 37.003906 2.113281 31.765625 2.0625 26.796875 0.90625 C 21.835938 -0.25 17.59375 -2.617188 14.0625 -6.203125 C 10.53125 -9.785156 8.019531 -14.773438 6.53125 -21.171875 C 5.039062 -27.566406 4.957031 -35.453125 6.28125 -44.828125 C 7.601562 -54.640625 9.335938 -64.59375 11.484375 -74.6875 C 13.640625 -84.78125 15.488281 -94.679688 17.03125 -104.390625 C 18.582031 -113.535156 20.179688 -122.6875 21.828125 -131.84375 C 23.484375 -141 25.085938 -150.097656 26.640625 -159.140625 C 29.171875 -161.566406 32.671875 -163.523438 37.140625 -165.015625 C 41.609375 -166.503906 46.488281 -167.273438 51.78125 -167.328125 C 57.070312 -167.378906 62.335938 -166.523438 67.578125 -164.765625 C 72.816406 -163.003906 77.472656 -160.082031 81.546875 -156 C 85.628906 -151.914062 88.609375 -146.457031 90.484375 -139.625 C 91.585938 -135.875 92.742188 -131.378906 93.953125 -126.140625 C 95.171875 -120.898438 96.441406 -115.492188 97.765625 -109.921875 C 99.085938 -104.359375 100.359375 -98.984375 101.578125 -93.796875 C 101.679688 -93.578125 101.867188 -92.773438 102.140625 -91.390625 C 102.421875 -90.015625 102.78125 -88.441406 103.21875 -86.671875 C 103.664062 -84.910156 104.023438 -83.34375 104.296875 -81.96875 C 104.578125 -80.59375 104.769531 -79.796875 104.875 -79.578125 C 105.101562 -79.578125 105.269531 -79.578125 105.375 -79.578125 C 105.488281 -79.578125 105.597656 -79.578125 105.703125 -79.578125 Z M 105.703125 -79.578125 "/></g></g></g><path stroke-linecap="butt" transform="matrix(0.443109, 0, 0, 0.443109, 215.320992, 66.01687)" fill="none" stroke-linejoin="miter" d="M 90.419521 260.999057 C 103.81915 240.793826 119.889891 230.69121 138.640557 230.69121 C 167.670149 230.69121 189.303499 243.085868 203.540605 267.875183 C 206.661309 263.573196 210.416731 259.094899 214.789242 254.440291 C 219.232277 249.715158 226.284714 244.575695 235.937736 239.021901 C 245.590759 233.468107 255.552326 230.69121 265.831253 230.69121 C 288.540099 230.69121 307.564047 239.445047 322.911912 256.943906 C 338.330302 274.442764 346.035089 303.401833 346.035089 343.812295 L 346.035089 418.4976 C 346.035089 425.029919 345.832331 429.922547 345.409185 433.184299 C 344.994854 436.454866 343.63726 440.201473 341.345218 444.441751 C 337.669136 452.146538 326.693781 455.998932 308.436786 455.998932 C 290.514781 455.998932 279.574689 452.005489 275.616508 444.018605 C 273.606564 439.787143 272.390019 436.03172 271.975688 432.769968 C 271.561357 429.508216 271.349784 424.580326 271.349784 417.977482 L 271.349784 343.397964 C 271.349784 318.608649 262.534238 306.213992 244.894331 306.213992 C 234.959211 306.213992 228.188872 309.511006 224.583313 316.105034 C 221.039464 322.637354 219.267539 331.86723 219.267539 343.812295 L 219.267539 418.4976 C 219.267539 425.303201 219.055966 430.275169 218.641635 433.395872 C 218.227305 436.525391 216.869711 440.201473 214.577669 444.441751 C 210.619489 452.146538 199.547163 455.998932 181.351876 455.998932 C 163.438687 455.998932 152.463333 452.005489 148.434628 444.018605 C 146.486392 439.787143 145.278663 436.03172 144.784992 432.769968 C 144.370661 429.508216 144.167904 424.580326 144.167904 417.977482 L 144.167904 343.397964 C 144.167904 318.608649 135.343542 306.213992 117.703635 306.213992 C 100.689632 306.213992 92.18263 318.608649 92.18263 343.397964 L 92.18263 418.920746 C 92.18263 425.44425 91.94461 430.336878 91.459755 433.607445 C 91.036609 436.869197 89.723093 440.651066 87.501575 444.961868 C 83.190773 452.322849 72.083185 455.998932 54.169996 455.998932 C 36.247991 455.998932 25.307899 452.146538 21.349719 444.441751 C 19.339774 440.201473 18.123229 436.525391 17.708898 433.395872 C 17.294568 430.275169 17.082995 425.303201 17.082995 418.4976 L 17.082995 268.298329 C 17.082995 261.766009 17.294568 256.873381 17.708898 253.611629 C 18.123229 250.270538 19.480823 246.629717 21.772865 242.671537 C 26.004327 234.957934 36.07168 231.105541 51.974925 231.105541 C 67.948694 231.105541 78.333407 233.67968 83.120249 238.819143 C 87.98643 243.958607 90.419521 251.346034 90.419521 260.999057 Z M 90.419521 260.999057 " stroke="#7e0030" stroke-width="21.333349" stroke-opacity="1" stroke-miterlimit="4"/><g fill="#fb6ea4" fill-opacity="1"><g transform="translate(215.320992, 268.074692)"><g><path d="M 40.078125 -86.40625 C 46.003906 -95.351562 53.128906 -99.828125 61.453125 -99.828125 C 74.304688 -99.828125 83.882812 -94.34375 90.1875 -83.375 C 91.570312 -85.269531 93.238281 -87.253906 95.1875 -89.328125 C 97.144531 -91.410156 100.265625 -93.679688 104.546875 -96.140625 C 108.835938 -98.597656 113.25 -99.828125 117.78125 -99.828125 C 127.863281 -99.828125 136.304688 -95.953125 143.109375 -88.203125 C 149.921875 -80.453125 153.328125 -67.625 153.328125 -49.71875 L 153.328125 -16.640625 C 153.328125 -13.742188 153.234375 -11.566406 153.046875 -10.109375 C 152.859375 -8.660156 152.257812 -6.992188 151.25 -5.109375 C 149.613281 -1.703125 144.757812 0 136.6875 0 C 128.75 0 123.898438 -1.765625 122.140625 -5.296875 C 121.253906 -7.179688 120.71875 -8.847656 120.53125 -10.296875 C 120.34375 -11.753906 120.25 -13.929688 120.25 -16.828125 L 120.25 -49.90625 C 120.25 -60.875 116.335938 -66.359375 108.515625 -66.359375 C 104.109375 -66.359375 101.113281 -64.910156 99.53125 -62.015625 C 97.957031 -59.117188 97.171875 -55.019531 97.171875 -49.71875 L 97.171875 -16.640625 C 97.171875 -13.609375 97.078125 -11.398438 96.890625 -10.015625 C 96.703125 -8.628906 96.101562 -6.992188 95.09375 -5.109375 C 93.332031 -1.703125 88.421875 0 80.359375 0 C 72.410156 0 67.554688 -1.765625 65.796875 -5.296875 C 64.910156 -7.179688 64.375 -8.847656 64.1875 -10.296875 C 64 -11.753906 63.90625 -13.929688 63.90625 -16.828125 L 63.90625 -49.90625 C 63.90625 -60.875 60 -66.359375 52.1875 -66.359375 C 44.625 -66.359375 40.84375 -60.875 40.84375 -49.90625 L 40.84375 -16.453125 C 40.84375 -13.546875 40.742188 -11.367188 40.546875 -9.921875 C 40.359375 -8.472656 39.765625 -6.804688 38.765625 -4.921875 C 36.867188 -1.640625 31.953125 0 24.015625 0 C 16.066406 0 11.210938 -1.703125 9.453125 -5.109375 C 8.566406 -6.992188 8.03125 -8.628906 7.84375 -10.015625 C 7.65625 -11.398438 7.5625 -13.609375 7.5625 -16.640625 L 7.5625 -83.1875 C 7.5625 -86.082031 7.65625 -88.253906 7.84375 -89.703125 C 8.03125 -91.160156 8.628906 -92.769531 9.640625 -94.53125 C 11.535156 -97.9375 16.007812 -99.640625 23.0625 -99.640625 C 30.125 -99.640625 34.722656 -98.503906 36.859375 -96.234375 C 39.003906 -93.960938 40.078125 -90.6875 40.078125 -86.40625 Z M 40.078125 -86.40625 "/></g></g></g></svg>