<svg xmlns="http://www.w3.org/2000/svg" xmlns:xlink="http://www.w3.org/1999/xlink" width="500" zoomAndPan="magnify" viewBox="0 0 375 374.999991" height="500" preserveAspectRatio="xMidYMid meet" version="1.0"><defs><g/></defs><path stroke-linecap="butt" transform="matrix(0.75, 0, 0, 0.75, 0.0000045, 5.499976)" fill="none" stroke-linejoin="miter" d="M 195.52084 208.104213 C 195.52084 195.260462 195.52084 183.244836 195.52084 172.067752 C 195.52084 160.817751 195.52084 149.567751 195.52084 138.31775 C 195.52084 127.067749 195.52084 114.880248 195.52084 101.755247 C 202.536466 93.421914 210.489591 87.520871 219.375008 84.046913 C 228.333342 80.505246 237.46876 79.151079 246.770844 79.984413 C 256.078136 80.817746 264.619803 83.421913 272.395845 87.796913 C 280.177096 92.171913 286.458346 98.072955 291.250013 105.505248 C 296.109388 112.864623 298.54168 121.369832 298.54168 131.026083 C 298.54168 136.718791 298.578139 144.843792 298.645847 155.401084 C 298.786472 165.88546 298.890639 177.864627 298.958347 191.338587 C 299.026055 204.807337 299.098972 219.041713 299.16668 234.041714 C 299.307305 249.041715 299.307305 263.9063 299.16668 278.625051 C 299.098972 293.281302 298.85418 307.099011 298.437514 320.083387 C 298.088555 333.067763 297.567722 344.39068 296.875013 354.041722 C 290.765638 360.151098 282.708346 364.838598 272.708345 368.104223 C 262.781261 371.437557 251.979177 372.755265 240.31251 372.062557 C 228.718759 371.437557 217.260425 368.349015 205.937508 362.791723 C 194.687507 357.166722 184.687506 348.380264 175.942714 336.437554 C 171.98438 330.953179 167.848963 324.734429 163.54688 317.79172 C 159.307296 310.849011 155.244796 303.937552 151.359379 297.062552 C 147.468754 290.119843 143.994795 283.869843 140.942712 278.312551 C 137.88542 272.68755 135.526045 268.62505 133.859378 266.12505 C 133.442711 265.224008 132.885419 264.390675 132.192711 263.62505 C 131.567711 262.864633 130.973961 262.099008 130.421878 261.333383 C 130.213544 261.333383 129.901044 261.4063 129.484378 261.541716 C 129.135419 261.614633 128.786461 261.645883 128.442711 261.645883 C 128.651044 270.18755 128.927086 278.000051 129.276044 285.083384 C 129.692711 292.166718 130.072919 299.182344 130.421878 306.125052 C 130.838544 313.067761 131.078128 320.463595 131.151044 328.312554 C 131.218753 336.161513 131.182294 345.224013 131.046878 355.500056 C 121.739585 363.067765 112.22396 368.067765 102.505209 370.500057 C 92.848958 373.000057 83.614583 373.52089 74.796874 372.062557 C 65.979165 370.671932 58.062498 367.828182 51.046872 363.52089 C 44.031247 359.145889 38.442705 353.869847 34.276038 347.687555 C 30.109371 341.505263 27.921871 335.015679 27.713537 328.208387 C 27.364579 316.401095 27.052079 303.453177 26.776037 289.354218 C 26.499996 275.260467 26.255204 260.572966 26.046871 245.291715 C 25.838537 230.015672 25.734371 214.979213 25.734371 200.187546 C 25.734371 185.401086 25.770829 171.406294 25.838537 158.213584 C 25.979162 145.015667 26.218746 133.348999 26.567704 123.213582 C 26.984371 113.072956 27.468746 105.260456 28.026038 99.776081 C 34.83333 94.078164 43.197914 89.531288 53.130206 86.130246 C 63.130206 82.729204 73.578124 81.166704 84.484375 81.442746 C 95.385417 81.718788 105.802084 84.531288 115.734377 89.880247 C 125.734377 95.156289 134.135419 103.489623 140.942712 114.880248 C 145.869795 123.213582 150.281254 130.781291 154.171879 137.588583 C 158.057296 144.390667 161.843755 151.093792 165.526047 157.692751 C 169.276047 164.218793 173.130214 171.057335 177.083339 178.213586 C 181.041673 185.29692 185.593756 193.385462 190.729173 202.479212 C 191.286465 203.593796 191.875007 204.666712 192.500007 205.708379 C 193.197923 206.750046 193.822923 207.760463 194.375007 208.729213 C 194.58334 208.520879 194.791673 208.416713 195.000007 208.416713 C 195.20834 208.416713 195.385423 208.312546 195.52084 208.104213 Z M 195.52084 208.104213 " stroke="#7b0008" stroke-width="16.000013" stroke-opacity="1" stroke-miterlimit="4"/><g fill="#f5505b" fill-opacity="1"><g transform="translate(7.582035, 281.499958)"><g><path d="M 139.09375 -119.890625 C 139.09375 -129.566406 139.09375 -138.597656 139.09375 -146.984375 C 139.09375 -155.378906 139.09375 -163.804688 139.09375 -172.265625 C 139.09375 -180.722656 139.09375 -189.863281 139.09375 -199.6875 C 144.351562 -205.9375 150.328125 -210.375 157.015625 -213 C 163.703125 -215.632812 170.53125 -216.632812 177.5 -216 C 184.46875 -215.363281 190.863281 -213.410156 196.6875 -210.140625 C 202.519531 -206.867188 207.25 -202.457031 210.875 -196.90625 C 214.5 -191.363281 216.3125 -184.960938 216.3125 -177.703125 C 216.3125 -173.441406 216.347656 -167.363281 216.421875 -159.46875 C 216.492188 -151.570312 216.566406 -142.570312 216.640625 -132.46875 C 216.710938 -122.375 216.78125 -111.707031 216.84375 -100.46875 C 216.914062 -89.238281 216.914062 -78.113281 216.84375 -67.09375 C 216.78125 -56.070312 216.601562 -45.6875 216.3125 -35.9375 C 216.03125 -26.195312 215.609375 -17.703125 215.046875 -10.453125 C 210.492188 -5.898438 204.484375 -2.378906 197.015625 0.109375 C 189.546875 2.597656 181.4375 3.59375 172.6875 3.09375 C 163.945312 2.59375 155.34375 0.25 146.875 -3.9375 C 138.414062 -8.132812 130.914062 -14.71875 124.375 -23.6875 C 121.382812 -27.800781 118.289062 -32.453125 115.09375 -37.640625 C 111.894531 -42.835938 108.835938 -48.03125 105.921875 -53.21875 C 103.003906 -58.414062 100.40625 -63.109375 98.125 -67.296875 C 95.851562 -71.492188 94.078125 -74.519531 92.796875 -76.375 C 92.515625 -77.082031 92.125 -77.71875 91.625 -78.28125 C 91.125 -78.851562 90.660156 -79.425781 90.234375 -80 C 90.097656 -80 89.882812 -79.960938 89.59375 -79.890625 C 89.3125 -79.816406 89.03125 -79.78125 88.75 -79.78125 C 88.882812 -73.382812 89.09375 -67.519531 89.375 -62.1875 C 89.664062 -56.851562 89.953125 -51.585938 90.234375 -46.390625 C 90.523438 -41.203125 90.703125 -35.65625 90.765625 -29.75 C 90.835938 -23.851562 90.804688 -17.066406 90.671875 -9.390625 C 83.703125 -3.703125 76.585938 0.0625 69.328125 1.90625 C 62.078125 3.757812 55.144531 4.15625 48.53125 3.09375 C 41.914062 2.03125 35.976562 -0.132812 30.71875 -3.40625 C 25.457031 -6.675781 21.257812 -10.625 18.125 -15.25 C 15 -19.875 13.367188 -24.742188 13.234375 -29.859375 C 12.941406 -38.679688 12.6875 -48.390625 12.46875 -58.984375 C 12.257812 -69.578125 12.082031 -80.597656 11.9375 -92.046875 C 11.800781 -103.503906 11.734375 -114.773438 11.734375 -125.859375 C 11.734375 -136.953125 11.769531 -147.441406 11.84375 -157.328125 C 11.914062 -167.210938 12.09375 -175.957031 12.375 -183.5625 C 12.65625 -191.175781 13.007812 -197.046875 13.4375 -201.171875 C 18.5625 -205.441406 24.851562 -208.851562 32.3125 -211.40625 C 39.78125 -213.96875 47.601562 -215.140625 55.78125 -214.921875 C 63.957031 -214.710938 71.78125 -212.617188 79.25 -208.640625 C 86.71875 -204.660156 93.015625 -198.398438 98.140625 -189.859375 C 101.835938 -183.609375 105.140625 -177.921875 108.046875 -172.796875 C 110.960938 -167.679688 113.804688 -162.671875 116.578125 -157.765625 C 119.359375 -152.859375 122.238281 -147.738281 125.21875 -142.40625 C 128.207031 -137.070312 131.625 -130.988281 135.46875 -124.15625 C 135.894531 -123.300781 136.351562 -122.484375 136.84375 -121.703125 C 137.34375 -120.921875 137.804688 -120.175781 138.234375 -119.46875 C 138.378906 -119.613281 138.519531 -119.6875 138.65625 -119.6875 C 138.800781 -119.6875 138.945312 -119.753906 139.09375 -119.890625 Z M 139.09375 -119.890625 "/></g></g></g><path stroke-linecap="butt" transform="matrix(0.497934, 0, 0, 0.497934, 237.042191, 55.477664)" fill="none" stroke-linejoin="miter" d="M 142.97511 231.108937 C 171.444301 231.108937 195.12025 242.013367 214.010801 263.814381 C 232.901353 285.552636 242.346629 312.076289 242.346629 343.401028 L 242.346629 418.500384 C 242.346629 425.027352 242.134816 429.922578 241.719036 433.186062 C 241.303255 436.449546 240.087294 440.066051 238.071151 444.019888 C 234.117315 451.731438 223.040297 455.58329 204.847943 455.58329 C 184.639446 455.58329 172.974059 450.303663 169.843939 439.752255 C 168.110213 434.959013 167.239428 427.702468 167.239428 417.98262 L 167.239428 342.977403 C 167.239428 331.312016 163.905339 322.219762 157.245008 315.692794 C 150.576831 309.095221 141.61794 305.792513 130.368334 305.792513 C 119.118729 305.792513 110.018629 309.228585 103.075881 316.108574 C 96.133132 322.910114 92.657835 331.869005 92.657835 342.977403 L 92.657835 418.500384 C 92.657835 425.027352 92.414643 429.922578 91.928259 433.186062 C 91.512478 436.449546 90.194533 440.066051 87.974422 444.019888 C 84.224554 451.731438 73.24952 455.58329 55.057165 455.58329 C 37.139383 455.58329 26.203574 451.731438 22.241892 444.019888 C 20.233595 439.783634 19.017633 436.033766 18.601853 432.770282 C 18.178227 429.506798 17.97426 424.580192 17.97426 417.98262 L 17.97426 266.936657 C 17.97426 260.692106 18.178227 255.930243 18.601853 252.666759 C 19.017633 249.403275 20.366958 245.794615 22.657673 241.832934 C 26.619354 234.686217 37.555164 231.108937 55.472946 231.108937 C 72.833739 231.108937 83.494977 234.403801 87.448813 241.001373 C 90.296517 245.794615 91.724291 251.631231 91.724291 258.503375 C 92.901028 256.487232 95.474159 253.639528 99.427996 249.960264 C 103.460281 246.210395 107.312134 243.229328 110.991398 241.001373 C 120.648487 234.403801 131.301879 231.108937 142.97511 231.108937 Z M 142.97511 231.108937 " stroke="#7b0008" stroke-width="21.333349" stroke-opacity="1" stroke-miterlimit="4"/><g fill="#f5505b" fill-opacity="1"><g transform="translate(237.485663, 282.535619)"><g><path d="M 70.75 -111.96875 C 84.914062 -111.96875 96.707031 -106.546875 106.125 -95.703125 C 115.539062 -84.867188 120.25 -71.664062 120.25 -56.09375 L 120.25 -18.703125 C 120.25 -15.441406 120.140625 -12.992188 119.921875 -11.359375 C 119.710938 -9.734375 119.113281 -7.929688 118.125 -5.953125 C 116.144531 -2.128906 110.617188 -0.21875 101.546875 -0.21875 C 91.492188 -0.21875 85.6875 -2.835938 84.125 -8.078125 C 83.28125 -10.484375 82.859375 -14.09375 82.859375 -18.90625 L 82.859375 -56.296875 C 82.859375 -62.109375 81.191406 -66.640625 77.859375 -69.890625 C 74.535156 -73.148438 70.078125 -74.78125 64.484375 -74.78125 C 58.890625 -74.78125 54.351562 -73.078125 50.875 -69.671875 C 47.40625 -66.273438 45.671875 -61.816406 45.671875 -56.296875 L 45.671875 -18.703125 C 45.671875 -15.441406 45.566406 -12.992188 45.359375 -11.359375 C 45.148438 -9.734375 44.476562 -7.929688 43.34375 -5.953125 C 41.5 -2.128906 36.046875 -0.21875 26.984375 -0.21875 C 18.054688 -0.21875 12.601562 -2.128906 10.625 -5.953125 C 9.632812 -8.078125 9.03125 -9.953125 8.8125 -11.578125 C 8.601562 -13.203125 8.5 -15.644531 8.5 -18.90625 L 8.5 -94.109375 C 8.5 -97.234375 8.601562 -99.609375 8.8125 -101.234375 C 9.03125 -102.859375 9.703125 -104.664062 10.828125 -106.65625 C 12.816406 -110.195312 18.269531 -111.96875 27.1875 -111.96875 C 35.832031 -111.96875 41.144531 -110.335938 43.125 -107.078125 C 44.539062 -104.671875 45.25 -101.765625 45.25 -98.359375 C 45.820312 -99.359375 47.097656 -100.773438 49.078125 -102.609375 C 51.054688 -104.453125 52.96875 -105.941406 54.8125 -107.078125 C 59.625 -110.335938 64.9375 -111.96875 70.75 -111.96875 Z M 70.75 -111.96875 "/></g></g></g></svg>