<svg xmlns="http://www.w3.org/2000/svg" xmlns:xlink="http://www.w3.org/1999/xlink" width="500" zoomAndPan="magnify" viewBox="0 0 375 374.999991" height="500" preserveAspectRatio="xMidYMid meet" version="1.0"><defs><g/></defs><path stroke-linecap="butt" transform="matrix(0.603211, 0, 0, 0.603211, -94.923973, 50.152847)" fill="none" stroke-linejoin="miter" d="M 355.497061 202.599942 C 355.497061 190.114667 355.497061 178.438863 355.497061 167.57253 C 355.497061 156.634964 355.497061 145.703873 355.497061 134.772782 C 355.497061 123.835215 355.497061 111.991041 355.497061 99.233785 C 362.316041 91.139079 370.041628 85.401551 378.686774 82.027678 C 387.390202 78.582571 396.262 77.267991 405.308643 78.077461 C 414.355287 78.886932 422.657217 81.418956 430.214434 85.673533 C 437.771652 89.921635 443.878298 95.659163 448.540849 102.87964 C 453.261681 110.03536 455.625335 118.304912 455.625335 127.681819 C 455.625335 133.218598 455.657714 141.112555 455.722472 151.376643 C 455.858463 161.563021 455.962075 173.206446 456.026833 186.300442 C 456.098066 199.394438 456.162824 213.233148 456.234057 227.810094 C 456.363573 242.38704 456.363573 256.827996 456.234057 271.139436 C 456.162824 285.379643 455.929696 298.810379 455.521723 311.431644 C 455.184983 324.05291 454.679874 335.055234 454.006394 344.432142 C 448.068118 350.370418 440.238918 354.929356 430.518795 358.102481 C 420.86343 361.340363 410.372691 362.622565 399.033627 361.949085 C 387.759321 361.340363 376.627481 358.335608 365.625157 352.941296 C 354.68759 347.469275 344.973943 338.934217 336.464788 327.323171 C 332.618184 321.993617 328.60321 315.951728 324.419866 309.203981 C 320.301279 302.456234 316.357538 295.740866 312.575692 289.057877 C 308.793845 282.31013 305.419972 276.235863 302.454072 270.835075 C 299.481696 265.36953 297.189275 261.419313 295.570334 258.990901 C 295.16236 258.110197 294.624872 257.300727 293.944917 256.56249 C 293.342671 255.817777 292.766327 255.073064 292.228839 254.334826 C 292.021615 254.334826 291.717254 254.399584 291.315756 254.535575 C 290.979016 254.600333 290.642277 254.639187 290.305537 254.639187 C 290.506286 262.934642 290.778268 270.530714 291.115007 277.414452 C 291.516505 284.29819 291.892099 291.11717 292.228839 297.864917 C 292.630336 304.612664 292.86994 311.800763 292.934697 319.429214 C 292.999455 327.057665 292.967076 335.864705 292.831085 345.850334 C 283.790918 353.206803 274.543525 358.070102 265.095385 360.42728 C 255.712002 362.862168 246.736592 363.367278 238.162679 361.949085 C 229.595242 360.59565 221.902034 357.830499 215.083053 353.647155 C 208.264073 349.392577 202.830907 344.263772 198.783554 338.260738 C 194.736201 332.251228 192.605674 325.943833 192.404925 319.325602 C 192.068185 307.850546 191.763825 295.268135 191.491842 281.565417 C 191.226336 267.862699 190.986733 253.590113 190.785984 238.741185 C 190.585235 223.892256 190.481623 209.282931 190.481623 194.906733 C 190.481623 180.530535 190.514002 166.931429 190.585235 154.109415 C 190.721226 141.280925 190.954354 129.941861 191.291094 120.092223 C 191.699067 110.236109 192.171798 102.646513 192.709286 97.310483 C 199.321042 91.780179 207.454603 87.357232 217.109968 84.048116 C 226.830091 80.745476 236.98409 79.223672 247.578441 79.495654 C 258.179268 79.767636 268.300888 82.500409 277.949778 87.693972 C 287.669901 92.822778 295.83584 100.923959 302.454072 111.991041 C 307.246137 120.092223 311.526618 127.448692 315.308465 134.060448 C 319.090311 140.678679 322.768546 147.186823 326.343168 153.59783 C 329.989023 159.944079 333.732015 166.59469 337.57862 173.543185 C 341.425224 180.426923 345.848171 188.288502 350.840986 197.134396 C 351.38495 198.215849 351.954817 199.258447 352.563539 200.268666 C 353.237019 201.285362 353.845741 202.263202 354.389705 203.208664 C 354.590454 203.007915 354.791202 202.904303 354.991951 202.904303 C 355.199176 202.904303 355.367545 202.80069 355.497061 202.599942 Z M 653.582988 171.114774 C 645.281058 169.087859 637.859831 168.41438 631.312833 169.087859 C 624.765835 169.696581 617.810864 172.396975 610.454395 177.189041 C 600.870263 183.127317 594.698859 190.988896 591.927232 200.780252 C 589.16208 210.493899 588.52098 220.621995 590.00393 231.151589 C 591.422122 243.636863 596.045818 253.253374 603.875018 260.001121 C 611.775451 266.748867 620.582491 270.025604 630.296138 269.824856 C 637.859831 269.824856 643.694496 268.270672 647.813082 265.162305 C 651.996426 261.995656 655.03356 257.941827 656.924483 253.01377 C 658.880164 248.020956 660.097608 242.659023 660.570338 236.921495 C 661.043069 231.183967 661.379809 225.647189 661.580558 220.317634 C 664.144961 216.80777 668.736278 214.172133 675.348034 212.417201 C 682.031023 210.662269 689.555862 210.021168 697.92255 210.493899 C 706.295713 210.96663 714.494032 212.792796 722.52398 215.96592 C 730.560404 219.067812 737.275772 223.723886 742.670084 229.934145 C 748.142105 236.07317 751.140384 243.941224 751.684349 253.525356 C 752.085846 260.6746 751.347609 268.976531 749.456686 278.424671 C 747.63052 287.808054 744.055898 297.359808 738.726343 307.07993 C 733.390313 316.72882 725.969087 325.70423 716.449713 334.00616 C 706.936814 342.243333 694.853037 348.958701 680.211333 354.152264 C 665.563153 359.28107 647.845461 361.845473 627.058256 361.845473 C 604.516119 361.845473 585.347855 359.047943 569.553465 353.446406 C 553.830308 347.84487 540.839924 340.585537 530.582312 331.681361 C 520.389459 322.699475 512.255898 313.050586 506.181631 302.721741 C 500.107364 292.399372 495.41891 282.543258 492.109794 273.159875 C 486.573015 257.300727 483.943855 240.392505 484.215837 222.441685 C 484.481343 204.419632 487.285349 187.310661 492.614904 171.114774 C 498.760404 153.027963 507.968942 137.771061 520.253468 125.35702 C 532.602751 112.936503 547.354543 102.575279 564.495893 94.273349 C 587.575518 83.005518 612.682058 77.876713 639.815512 78.886932 C 667.013724 79.897151 695.358147 88.911416 724.855255 105.916774 C 727.620407 116.38161 728.093138 125.829751 726.273448 134.267672 C 724.447282 142.63436 721.04103 149.822459 716.048215 155.825493 C 711.055401 161.770245 705.045891 166.355086 698.026162 169.599445 C 691.077666 172.837327 683.721198 174.657017 675.956756 175.06499 C 668.198789 175.40173 660.738708 174.08715 653.582988 171.114774 Z M 653.582988 171.114774 " stroke="#005180" stroke-width="15.550125" stroke-opacity="1" stroke-miterlimit="4"/><g fill="#38b6ff" fill-opacity="1"><g transform="translate(10.816964, 266.102245)"><g><path d="M 108.734375 -93.71875 C 108.734375 -101.28125 108.734375 -108.335938 108.734375 -114.890625 C 108.734375 -121.453125 108.734375 -128.039062 108.734375 -134.65625 C 108.734375 -141.269531 108.734375 -148.414062 108.734375 -156.09375 C 112.835938 -160.976562 117.503906 -164.445312 122.734375 -166.5 C 127.960938 -168.5625 133.300781 -169.34375 138.75 -168.84375 C 144.195312 -168.34375 149.195312 -166.8125 153.75 -164.25 C 158.3125 -161.695312 162.007812 -158.253906 164.84375 -153.921875 C 167.675781 -149.585938 169.09375 -144.582031 169.09375 -138.90625 C 169.09375 -135.570312 169.117188 -130.816406 169.171875 -124.640625 C 169.234375 -118.472656 169.289062 -111.441406 169.34375 -103.546875 C 169.394531 -95.660156 169.445312 -87.328125 169.5 -78.546875 C 169.5625 -69.765625 169.5625 -61.0625 169.5 -52.4375 C 169.445312 -43.820312 169.3125 -35.707031 169.09375 -28.09375 C 168.875 -20.476562 168.539062 -13.835938 168.09375 -8.171875 C 164.539062 -4.609375 159.84375 -1.859375 154 0.078125 C 148.164062 2.023438 141.828125 2.800781 134.984375 2.40625 C 128.148438 2.019531 121.425781 0.191406 114.8125 -3.078125 C 108.195312 -6.359375 102.332031 -11.503906 97.21875 -18.515625 C 94.882812 -21.734375 92.46875 -25.367188 89.96875 -29.421875 C 87.46875 -33.484375 85.078125 -37.539062 82.796875 -41.59375 C 80.515625 -45.65625 78.484375 -49.328125 76.703125 -52.609375 C 74.929688 -55.890625 73.546875 -58.253906 72.546875 -59.703125 C 72.316406 -60.253906 72.007812 -60.753906 71.625 -61.203125 C 71.238281 -61.648438 70.878906 -62.09375 70.546875 -62.53125 C 70.429688 -62.53125 70.257812 -62.503906 70.03125 -62.453125 C 69.8125 -62.398438 69.59375 -62.375 69.375 -62.375 C 69.488281 -57.363281 69.65625 -52.773438 69.875 -48.609375 C 70.09375 -44.441406 70.3125 -40.328125 70.53125 -36.265625 C 70.757812 -32.210938 70.898438 -27.878906 70.953125 -23.265625 C 71.015625 -18.648438 70.988281 -13.34375 70.875 -7.34375 C 65.425781 -2.894531 59.863281 0.0507812 54.1875 1.5 C 48.519531 2.945312 43.101562 3.253906 37.9375 2.421875 C 32.769531 1.585938 28.128906 -0.101562 24.015625 -2.65625 C 19.898438 -5.21875 16.617188 -8.304688 14.171875 -11.921875 C 11.722656 -15.535156 10.445312 -19.34375 10.34375 -23.34375 C 10.113281 -30.238281 9.914062 -37.828125 9.75 -46.109375 C 9.582031 -54.390625 9.441406 -63.003906 9.328125 -71.953125 C 9.222656 -80.898438 9.171875 -89.707031 9.171875 -98.375 C 9.171875 -107.050781 9.195312 -115.253906 9.25 -122.984375 C 9.3125 -130.710938 9.453125 -137.550781 9.671875 -143.5 C 9.890625 -149.445312 10.164062 -154.03125 10.5 -157.25 C 14.507812 -160.59375 19.429688 -163.265625 25.265625 -165.265625 C 31.097656 -167.265625 37.210938 -168.179688 43.609375 -168.015625 C 50.003906 -167.847656 56.117188 -166.207031 61.953125 -163.09375 C 67.785156 -159.976562 72.703125 -155.085938 76.703125 -148.421875 C 79.597656 -143.523438 82.179688 -139.078125 84.453125 -135.078125 C 86.734375 -131.078125 88.957031 -127.15625 91.125 -123.3125 C 93.300781 -119.476562 95.554688 -115.476562 97.890625 -111.3125 C 100.222656 -107.144531 102.890625 -102.390625 105.890625 -97.046875 C 106.222656 -96.378906 106.582031 -95.738281 106.96875 -95.125 C 107.363281 -94.519531 107.726562 -93.941406 108.0625 -93.390625 C 108.175781 -93.492188 108.285156 -93.546875 108.390625 -93.546875 C 108.503906 -93.546875 108.617188 -93.601562 108.734375 -93.71875 Z M 108.734375 -93.71875 "/></g></g></g><g fill="#38b6ff" fill-opacity="1"><g transform="translate(190.746232, 266.102245)"><g><path d="M 108.5625 -112.734375 C 103.5625 -113.953125 99.085938 -114.363281 95.140625 -113.96875 C 91.191406 -113.582031 86.992188 -111.945312 82.546875 -109.0625 C 76.765625 -105.5 73.039062 -100.769531 71.375 -94.875 C 69.707031 -88.988281 69.316406 -82.878906 70.203125 -76.546875 C 71.097656 -68.984375 73.90625 -63.171875 78.625 -59.109375 C 83.351562 -55.054688 88.660156 -53.085938 94.546875 -53.203125 C 99.109375 -53.203125 102.640625 -54.144531 105.140625 -56.03125 C 107.640625 -57.914062 109.472656 -60.359375 110.640625 -63.359375 C 111.804688 -66.367188 112.53125 -69.59375 112.8125 -73.03125 C 113.09375 -76.476562 113.285156 -79.816406 113.390625 -83.046875 C 114.953125 -85.160156 117.734375 -86.742188 121.734375 -87.796875 C 125.734375 -88.859375 130.257812 -89.25 135.3125 -88.96875 C 140.375 -88.6875 145.320312 -87.597656 150.15625 -85.703125 C 155 -83.816406 159.0625 -81.007812 162.34375 -77.28125 C 165.625 -73.5625 167.429688 -68.8125 167.765625 -63.03125 C 167.984375 -58.695312 167.535156 -53.691406 166.421875 -48.015625 C 165.316406 -42.347656 163.148438 -36.597656 159.921875 -30.765625 C 156.703125 -24.929688 152.226562 -19.507812 146.5 -14.5 C 140.769531 -9.5 133.484375 -5.441406 124.640625 -2.328125 C 115.804688 0.773438 105.109375 2.328125 92.546875 2.328125 C 78.984375 2.328125 67.445312 0.632812 57.9375 -2.75 C 48.4375 -6.144531 40.601562 -10.535156 34.4375 -15.921875 C 28.269531 -21.316406 23.347656 -27.125 19.671875 -33.34375 C 16.003906 -39.570312 13.171875 -45.523438 11.171875 -51.203125 C 7.835938 -60.753906 6.253906 -70.953125 6.421875 -81.796875 C 6.585938 -92.640625 8.28125 -102.953125 11.5 -112.734375 C 15.175781 -123.628906 20.738281 -132.828125 28.1875 -140.328125 C 35.632812 -147.828125 44.523438 -154.082031 54.859375 -159.09375 C 68.753906 -165.875 83.898438 -168.957031 100.296875 -168.34375 C 116.703125 -167.726562 133.796875 -162.304688 151.578125 -152.078125 C 153.253906 -145.742188 153.535156 -140.046875 152.421875 -134.984375 C 151.304688 -129.929688 149.25 -125.597656 146.25 -121.984375 C 143.25 -118.367188 139.632812 -115.585938 135.40625 -113.640625 C 131.1875 -111.703125 126.738281 -110.617188 122.0625 -110.390625 C 117.394531 -110.171875 112.894531 -110.953125 108.5625 -112.734375 Z M 108.5625 -112.734375 "/></g></g></g></svg>