<svg xmlns="http://www.w3.org/2000/svg" xmlns:xlink="http://www.w3.org/1999/xlink" width="500" zoomAndPan="magnify" viewBox="0 0 375 374.999991" height="500" preserveAspectRatio="xMidYMid meet" version="1.0"><defs><g/></defs><path stroke-linecap="butt" transform="matrix(0.708854, 0, 0, 0.708854, 9.131091, 20.725721)" fill="none" stroke-linejoin="miter" d="M 157.899298 77.899841 C 177.27477 77.690436 194.181468 79.878167 208.624901 84.463034 C 223.139973 88.976263 235.500378 94.845113 245.711626 102.064074 C 255.989002 109.288546 264.491947 116.964892 271.231481 125.087602 C 277.965504 133.210311 283.277778 140.952785 287.168302 148.315023 C 291.058827 155.605623 293.869262 161.507537 295.605119 166.026276 C 302.201376 184.216957 306.124964 202.583978 307.375884 221.127341 C 308.626803 239.599065 306.400497 258.208555 300.707988 276.961323 C 285.151402 326.821752 252.065414 357.720009 201.439004 369.667114 C 180.95589 374.599153 160.748308 376.158669 140.81626 374.356684 C 120.884212 372.549188 101.442612 366.751976 82.48044 356.959538 C 64.499164 347.652037 50.121859 335.572676 39.359545 320.710433 C 28.663358 305.776551 21.163354 288.555746 16.85953 269.042508 C 14.01052 256.682103 12.346301 244.079229 11.861364 231.233887 C 11.370915 218.316905 12.103833 205.78016 14.049095 193.62916 C 16.060485 181.472649 19.361369 170.572569 23.940725 160.917897 C 28.453953 150.849925 34.322804 140.952785 41.547276 131.231985 C 48.766237 121.439546 57.693502 112.517792 68.31805 104.461211 C 78.942598 96.404629 91.650174 89.984713 106.440779 85.190441 C 121.231383 80.330041 138.38606 77.899841 157.899298 77.899841 Z M 159.359623 179.670664 C 152.344556 179.670664 145.84749 181.615926 139.879448 185.50094 C 133.905896 189.391464 129.183262 195.188676 125.711548 202.898086 C 122.311472 210.535857 120.988914 220.052763 121.754896 231.437781 C 122.515367 242.481139 125.017205 251.232063 129.254901 257.690553 C 133.558724 264.077405 138.595465 268.662273 144.359613 271.439644 C 150.189889 274.217015 155.573801 275.396296 160.500329 274.982997 C 165.570134 274.635825 170.711577 272.99916 175.919149 270.084022 C 181.198358 267.097246 185.678523 262.374612 189.354132 255.916122 C 193.035251 249.457631 195.156854 240.916112 195.70792 230.291564 C 196.473901 219.52925 195.189918 210.398091 191.85597 202.898086 C 188.593661 195.398081 184.041858 189.666997 178.211582 185.710345 C 172.447434 181.682054 166.159774 179.670664 159.359623 179.670664 Z M 159.359623 179.670664 " stroke="#2b0080" stroke-width="16.000013" stroke-opacity="1" stroke-miterlimit="4"/><g fill="#8c52ff" fill-opacity="1"><g transform="translate(9.563049, 281.583885)"><g><path d="M 111.5 -205.65625 C 125.207031 -205.789062 137.203125 -204.242188 147.484375 -201.015625 C 157.765625 -197.796875 166.535156 -193.628906 173.796875 -188.515625 C 181.054688 -183.410156 187.070312 -177.96875 191.84375 -172.1875 C 196.613281 -166.40625 200.375 -160.925781 203.125 -155.75 C 205.882812 -150.582031 207.867188 -146.382812 209.078125 -143.15625 C 213.785156 -130.25 216.578125 -117.242188 217.453125 -104.140625 C 218.328125 -91.035156 216.75 -77.828125 212.71875 -64.515625 C 201.695312 -29.171875 178.238281 -7.265625 142.34375 1.203125 C 127.832031 4.703125 113.519531 5.8125 99.40625 4.53125 C 85.289062 3.257812 71.507812 -0.867188 58.0625 -7.859375 C 45.289062 -14.453125 35.109375 -23.019531 27.515625 -33.5625 C 19.921875 -44.113281 14.582031 -56.316406 11.5 -70.171875 C 9.476562 -78.898438 8.296875 -87.832031 7.953125 -96.96875 C 7.617188 -106.113281 8.15625 -114.988281 9.5625 -123.59375 C 10.976562 -132.195312 13.300781 -139.925781 16.53125 -146.78125 C 19.757812 -153.90625 23.925781 -160.925781 29.03125 -167.84375 C 34.144531 -174.769531 40.460938 -181.085938 47.984375 -186.796875 C 55.515625 -192.515625 64.519531 -197.085938 75 -200.515625 C 85.488281 -203.941406 97.65625 -205.65625 111.5 -205.65625 Z M 112.5 -133.46875 C 107.53125 -133.46875 102.925781 -132.085938 98.6875 -129.328125 C 94.457031 -126.578125 91.128906 -122.476562 88.703125 -117.03125 C 86.285156 -111.59375 85.347656 -104.84375 85.890625 -96.78125 C 86.429688 -88.976562 88.210938 -82.789062 91.234375 -78.21875 C 94.253906 -73.65625 97.816406 -70.398438 101.921875 -68.453125 C 106.023438 -66.503906 109.820312 -65.664062 113.3125 -65.9375 C 116.9375 -66.195312 120.597656 -67.367188 124.296875 -69.453125 C 127.992188 -71.535156 131.148438 -74.863281 133.765625 -79.4375 C 136.390625 -84.007812 137.90625 -90.0625 138.3125 -97.59375 C 138.851562 -105.25 137.945312 -111.726562 135.59375 -117.03125 C 133.238281 -122.34375 130.007812 -126.410156 125.90625 -129.234375 C 121.8125 -132.054688 117.34375 -133.46875 112.5 -133.46875 Z M 112.5 -133.46875 "/></g></g></g><path stroke-linecap="butt" transform="matrix(0.520702, 0, 0, 0.520702, 233.586565, 42.856639)" fill="none" stroke-linejoin="miter" d="M 10.621474 343.816968 C 10.621474 309.645849 22.571988 281.491249 46.458012 259.338161 C 70.419055 237.117557 97.740946 226.007255 128.438688 226.007255 C 159.128929 226.007255 186.278276 237.042538 209.894232 259.128108 C 233.502687 281.13866 245.310665 309.233245 245.310665 343.396862 C 245.310665 367.005316 239.196623 387.980606 226.976041 406.31523 C 214.755458 424.649855 199.89421 438.15326 182.392296 446.832949 C 164.890382 455.512639 146.735803 459.856234 127.913556 459.856234 C 109.166328 459.856234 90.97424 455.235069 73.329789 446.000239 C 55.760358 436.76541 40.89911 423.119469 28.746045 405.062414 C 16.667999 386.937843 10.621474 366.525195 10.621474 343.816968 Z M 99.788963 374.334665 C 108.956275 381.281417 118.228613 384.754793 127.598477 384.754793 C 136.975842 384.754793 146.353207 381.206398 155.72307 374.124612 C 165.100435 366.975308 169.789117 356.450154 169.789117 342.564152 C 169.789117 328.603131 165.378005 318.228014 156.563282 311.416296 C 147.741057 304.544563 138.191148 301.108696 127.913556 301.108696 C 117.703481 301.108696 108.191082 304.679597 99.376359 311.836402 C 90.554134 318.918188 86.143021 329.368324 86.143021 343.186809 C 86.143021 356.937777 90.69667 367.320396 99.788963 374.334665 Z M 99.788963 374.334665 " stroke="#2b0080" stroke-width="21.333349" stroke-opacity="1" stroke-miterlimit="4"/><g fill="#8c52ff" fill-opacity="1"><g transform="translate(233.586565, 280.296739)"><g><path d="M 5.546875 -58.421875 C 5.546875 -76.191406 11.765625 -90.851562 24.203125 -102.40625 C 36.648438 -113.96875 50.867188 -119.75 66.859375 -119.75 C 82.859375 -119.75 97.003906 -114.007812 109.296875 -102.53125 C 121.585938 -91.050781 127.734375 -76.425781 127.734375 -58.65625 C 127.734375 -46.351562 124.550781 -35.425781 118.1875 -25.875 C 111.820312 -16.320312 104.082031 -9.285156 94.96875 -4.765625 C 85.863281 -0.253906 76.421875 2 66.640625 2 C 56.867188 2 47.390625 -0.40625 38.203125 -5.21875 C 29.023438 -10.03125 21.285156 -17.140625 14.984375 -26.546875 C 8.691406 -35.953125 5.546875 -46.578125 5.546875 -58.421875 Z M 51.984375 -42.53125 C 56.722656 -38.90625 61.535156 -37.09375 66.421875 -37.09375 C 71.304688 -37.09375 76.191406 -38.941406 81.078125 -42.640625 C 85.972656 -46.347656 88.421875 -51.832031 88.421875 -59.09375 C 88.421875 -66.351562 86.125 -71.757812 81.53125 -75.3125 C 76.9375 -78.863281 71.972656 -80.640625 66.640625 -80.640625 C 61.316406 -80.640625 56.359375 -78.785156 51.765625 -75.078125 C 47.171875 -71.378906 44.875 -65.9375 44.875 -58.75 C 44.875 -51.570312 47.242188 -46.164062 51.984375 -42.53125 Z M 51.984375 -42.53125 "/></g></g></g></svg>