<svg xmlns="http://www.w3.org/2000/svg" xmlns:xlink="http://www.w3.org/1999/xlink" width="500" zoomAndPan="magnify" viewBox="0 0 375 374.999991" height="500" preserveAspectRatio="xMidYMid meet" version="1.0"><defs><g/></defs><path stroke-linecap="butt" transform="matrix(0.75, 0, 0, 0.75, 24.946418, 5.499961)" fill="none" stroke-linejoin="miter" d="M 224.37354 267.270903 C 213.607915 275.260487 202.670414 280.812571 191.561038 283.937571 C 180.446454 287.062571 170.102703 288.625071 160.519369 288.625071 C 151.003744 288.625071 143.159993 288.03653 136.977701 286.854238 C 130.795409 285.604238 127.149576 284.59903 126.0402 283.833405 C 125.831867 283.833405 125.7277 283.833405 125.7277 283.833405 C 125.7277 283.833405 125.623534 283.833405 125.4152 283.833405 C 125.4152 283.833405 125.034992 284.010488 124.269367 284.354238 C 124.269367 284.354238 124.232909 284.427155 124.1652 284.562571 C 124.097492 284.635488 124.061034 284.770905 124.061034 284.979238 C 124.061034 286.093821 124.061034 289.041738 124.061034 293.833405 C 124.061034 298.557364 123.956867 304.390698 123.748534 311.333406 C 123.5402 318.208407 123.2277 325.604241 122.811034 333.520908 C 122.462075 341.369867 121.909992 349.182367 121.144367 356.958409 C 116.420408 362.026118 110.347491 365.776118 102.915199 368.20841 C 95.555823 370.70841 87.602698 371.578202 79.061031 370.812577 C 70.519363 370.046952 62.253738 367.515702 54.269362 363.20841 C 46.352695 358.833409 39.30582 352.479242 33.123528 344.145908 C 26.946444 335.744866 22.639152 325.119866 20.20686 312.270906 C 19.446443 308.104239 18.784985 300.916739 18.227693 290.708405 C 17.67561 280.432363 17.222485 268.489653 16.873527 254.875069 C 16.597485 241.197985 16.493318 226.786526 16.561027 211.6459 C 16.701652 196.442774 17.014152 181.718814 17.498527 167.484439 C 17.98811 153.244854 18.680818 140.53652 19.58186 129.359436 C 20.555819 118.177144 21.805819 109.739643 23.33186 104.046934 C 27.498527 100.088601 33.993319 96.369851 42.811028 92.9011 C 51.628737 89.359433 62.014155 86.406308 73.956864 84.046933 C 85.899573 81.614641 98.644365 79.947974 112.186033 79.046933 C 125.7277 78.072974 139.337076 78.177141 153.019369 79.359433 C 166.696453 80.468808 179.717287 82.729225 192.081871 86.130267 C 204.508956 89.531308 215.482915 94.4636 224.99854 100.921934 C 234.092291 106.963601 241.665208 115.15631 247.706875 125.505269 C 253.81625 135.84902 258.154792 147.380271 260.722501 160.088605 C 263.295418 172.796939 263.816251 185.781315 262.285001 199.041732 C 260.758959 212.307358 256.904792 224.875067 250.727709 236.750068 C 244.545417 248.557361 235.758958 258.729236 224.37354 267.270903 Z M 167.811037 186.54694 C 167.811037 182.51569 166.003745 178.802148 162.394369 175.401106 C 158.779786 171.994855 154.128744 169.843814 148.436035 168.942772 C 142.743327 167.968814 136.769368 169.359439 130.519367 173.109439 C 130.519367 179.010481 130.519367 184.255273 130.519367 188.838607 C 130.519367 193.349024 130.623534 198.072982 130.831867 203.000066 C 130.831867 203.557358 131.212076 204.286524 131.977701 205.187566 C 132.743326 206.020899 133.399576 206.437566 133.956868 206.437566 C 137.566243 206.437566 141.10791 206.437566 144.581868 206.437566 C 148.123535 206.437566 151.696452 206.057358 155.311036 205.291733 C 163.64437 203.974024 167.811037 197.724024 167.811037 186.54694 Z M 167.811037 186.54694 " stroke="#806400" stroke-width="16.000013" stroke-opacity="1" stroke-miterlimit="4"/><g fill="#ffce1f" fill-opacity="1"><g transform="translate(24.946418, 281.499942)"><g><path d="M 168.3125 -75.515625 C 160.207031 -69.546875 151.992188 -65.382812 143.671875 -63.03125 C 135.359375 -60.6875 127.609375 -59.515625 120.421875 -59.515625 C 113.242188 -59.515625 107.34375 -59.976562 102.71875 -60.90625 C 98.09375 -61.832031 95.351562 -62.578125 94.5 -63.140625 C 94.363281 -63.140625 94.296875 -63.140625 94.296875 -63.140625 C 94.296875 -63.140625 94.222656 -63.140625 94.078125 -63.140625 C 94.078125 -63.140625 93.796875 -63 93.234375 -62.71875 C 93.234375 -62.71875 93.195312 -62.679688 93.125 -62.609375 C 93.050781 -62.535156 93.015625 -62.429688 93.015625 -62.296875 C 93.015625 -61.441406 93.015625 -59.234375 93.015625 -55.671875 C 93.015625 -52.117188 92.941406 -47.742188 92.796875 -42.546875 C 92.660156 -37.359375 92.445312 -31.8125 92.15625 -25.90625 C 91.875 -20.007812 91.445312 -14.144531 90.875 -8.3125 C 87.320312 -4.476562 82.769531 -1.640625 77.21875 0.203125 C 71.675781 2.054688 65.703125 2.695312 59.296875 2.125 C 52.898438 1.5625 46.710938 -0.351562 40.734375 -3.625 C 34.765625 -6.894531 29.46875 -11.660156 24.84375 -17.921875 C 20.226562 -24.179688 16.992188 -32.144531 15.140625 -41.8125 C 14.578125 -44.9375 14.082031 -50.335938 13.65625 -58.015625 C 13.226562 -65.703125 12.90625 -74.664062 12.6875 -84.90625 C 12.476562 -95.144531 12.410156 -105.953125 12.484375 -117.328125 C 12.554688 -128.710938 12.769531 -139.738281 13.125 -150.40625 C 13.476562 -161.070312 14.007812 -170.597656 14.71875 -178.984375 C 15.425781 -187.378906 16.351562 -193.707031 17.5 -197.96875 C 20.625 -200.957031 25.492188 -203.765625 32.109375 -206.390625 C 38.722656 -209.023438 46.507812 -211.234375 55.46875 -213.015625 C 64.425781 -214.796875 73.988281 -216.039062 84.15625 -216.75 C 94.320312 -217.457031 104.523438 -217.382812 114.765625 -216.53125 C 125.015625 -215.675781 134.796875 -213.96875 144.109375 -211.40625 C 153.421875 -208.851562 161.632812 -205.15625 168.75 -200.3125 C 175.570312 -195.769531 181.257812 -189.617188 185.8125 -181.859375 C 190.363281 -174.109375 193.597656 -165.46875 195.515625 -155.9375 C 197.441406 -146.414062 197.832031 -136.675781 196.6875 -126.71875 C 195.550781 -116.757812 192.671875 -107.335938 188.046875 -98.453125 C 183.429688 -89.566406 176.851562 -81.921875 168.3125 -75.515625 Z M 125.859375 -136.109375 C 125.859375 -139.097656 124.507812 -141.867188 121.8125 -144.421875 C 119.113281 -146.984375 115.628906 -148.617188 111.359375 -149.328125 C 107.085938 -150.046875 102.609375 -148.984375 97.921875 -146.140625 C 97.921875 -141.722656 97.921875 -137.804688 97.921875 -134.390625 C 97.921875 -130.984375 97.992188 -127.429688 98.140625 -123.734375 C 98.140625 -123.304688 98.421875 -122.769531 98.984375 -122.125 C 99.554688 -121.488281 100.054688 -121.171875 100.484375 -121.171875 C 103.179688 -121.171875 105.84375 -121.171875 108.46875 -121.171875 C 111.101562 -121.171875 113.773438 -121.457031 116.484375 -122.03125 C 122.734375 -123.019531 125.859375 -127.710938 125.859375 -136.109375 Z M 125.859375 -136.109375 "/></g></g></g><path stroke-linecap="butt" transform="matrix(0.520702, 0, 0, 0.520702, 230.118184, 1.878164)" fill="none" stroke-linejoin="miter" d="M 17.079895 517.039328 L 17.079895 267.878987 C 17.079895 261.277322 17.289948 256.416096 17.710054 253.295309 C 18.122658 250.16702 19.337964 246.626127 21.355973 242.67263 C 25.30947 234.960685 34.829371 231.104712 49.893171 231.104712 C 64.964472 231.104712 75.137037 233.055204 80.418369 236.941184 C 85.6922 240.759647 88.74547 246.348557 89.585682 253.707913 C 100.418414 238.989201 117.395195 231.629845 140.516027 231.629845 C 163.711877 231.629845 185.692421 242.567603 206.457658 264.443121 C 227.215393 286.318638 237.598012 311.765056 237.598012 340.789876 C 237.598012 369.822198 227.290412 395.306126 206.660209 417.24916 C 186.105025 439.124677 164.16199 450.062436 140.831106 450.062436 C 117.500222 450.062436 100.553448 443.49828 89.998286 430.377471 L 89.998286 516.626724 C 89.998286 523.15337 89.788233 527.977086 89.375629 531.105375 C 88.955523 534.226163 87.672699 537.842075 85.519656 541.938108 C 83.43413 546.101658 79.82572 549.019894 74.686924 550.685314 C 69.548128 552.425753 62.571368 553.28847 53.749143 553.28847 C 44.926918 553.28847 37.882642 552.425753 32.60131 550.685314 C 27.394996 549.019894 23.711567 546.169175 21.558524 542.148161 C 19.412983 538.187162 18.122658 534.646269 17.710054 531.51798 C 17.289948 528.397192 17.079895 523.565974 17.079895 517.039328 Z M 101.558701 316.108651 C 95.032055 323.745577 91.768732 332.110187 91.768732 341.209982 C 91.768732 350.309777 95.099572 358.636877 101.768754 366.206286 C 108.437936 373.708178 116.945082 377.459124 127.290191 377.459124 C 137.702817 377.459124 146.525042 373.775695 153.749364 366.416339 C 161.041203 358.989466 164.687123 350.587347 164.687123 341.209982 C 164.687123 331.832617 161.243754 323.40049 154.372021 315.898598 C 147.567805 308.329189 138.678063 304.540734 127.702795 304.540734 C 116.802546 304.540734 108.085347 308.396706 101.558701 316.108651 Z M 101.558701 316.108651 " stroke="#806400" stroke-width="21.333349" stroke-opacity="1" stroke-miterlimit="4"/><g fill="#ffce1f" fill-opacity="1"><g transform="translate(230.118184, 239.318264)"><g><path d="M 8.890625 31.765625 L 8.890625 -97.96875 C 8.890625 -101.375 9 -103.890625 9.21875 -105.515625 C 9.4375 -107.148438 10.066406 -109.003906 11.109375 -111.078125 C 13.179688 -115.078125 18.140625 -117.078125 25.984375 -117.078125 C 33.835938 -117.078125 39.132812 -116.078125 41.875 -114.078125 C 44.613281 -112.078125 46.207031 -109.148438 46.65625 -105.296875 C 52.28125 -113.003906 61.128906 -116.859375 73.203125 -116.859375 C 85.273438 -116.859375 96.710938 -111.15625 107.515625 -99.75 C 118.328125 -88.34375 123.734375 -75.085938 123.734375 -59.984375 C 123.734375 -44.878906 118.363281 -31.625 107.625 -20.21875 C 96.894531 -8.8125 85.457031 -3.109375 73.3125 -3.109375 C 61.164062 -3.109375 52.351562 -6.515625 46.875 -13.328125 L 46.875 31.546875 C 46.875 34.953125 46.757812 37.46875 46.53125 39.09375 C 46.3125 40.726562 45.644531 42.617188 44.53125 44.765625 C 43.425781 46.910156 41.539062 48.425781 38.875 49.3125 C 36.207031 50.207031 32.578125 50.65625 27.984375 50.65625 C 23.398438 50.65625 19.738281 50.207031 17 49.3125 C 14.257812 48.425781 12.332031 46.945312 11.21875 44.875 C 10.101562 42.800781 9.4375 40.945312 9.21875 39.3125 C 9 37.6875 8.890625 35.171875 8.890625 31.765625 Z M 52.875 -72.859375 C 49.46875 -68.867188 47.765625 -64.503906 47.765625 -59.765625 C 47.765625 -55.023438 49.503906 -50.691406 52.984375 -46.765625 C 56.460938 -42.835938 60.90625 -40.875 66.3125 -40.875 C 71.71875 -40.875 76.304688 -42.796875 80.078125 -46.640625 C 83.859375 -50.492188 85.75 -54.863281 85.75 -59.75 C 85.75 -64.644531 83.972656 -69.050781 80.421875 -72.96875 C 76.867188 -76.894531 72.238281 -78.859375 66.53125 -78.859375 C 60.832031 -78.859375 56.28125 -76.859375 52.875 -72.859375 Z M 52.875 -72.859375 "/></g></g></g></svg>