<svg xmlns="http://www.w3.org/2000/svg" xmlns:xlink="http://www.w3.org/1999/xlink" width="500" zoomAndPan="magnify" viewBox="0 0 375 374.999991" height="500" preserveAspectRatio="xMidYMid meet" version="1.0"><defs><g/></defs><path stroke-linecap="butt" transform="matrix(0.75, 0, 0, 0.75, 11.930743, 18.879608)" fill="none" stroke-linejoin="miter" d="M 241.529858 262.165748 C 244.9309 265.22304 248.993401 269.946999 253.717359 276.332416 C 258.43611 282.655333 263.264235 289.561583 268.196527 297.061584 C 273.12361 304.561584 277.566319 311.717835 281.524653 318.519918 C 285.555903 325.327211 288.331945 330.915753 289.857987 335.290753 C 287.982986 345.155337 284.09757 353.311587 278.191319 359.769921 C 272.290277 366.228255 265.175693 370.707422 256.842359 373.207422 C 248.509026 375.775131 239.686108 376.295964 230.384024 374.769922 C 221.076732 373.311589 211.977773 369.561588 203.092356 363.519921 C 194.20173 357.410546 186.425688 348.868879 179.759021 337.89492 C 177.467354 334.077211 174.863187 329.947003 171.946521 325.499086 C 169.029854 321.056377 165.623603 315.743877 161.738187 309.561585 C 157.847561 303.384501 152.951728 295.743875 147.050686 286.644916 C 146.285061 285.535541 145.524644 284.426166 144.759019 283.311583 C 143.993394 282.134499 143.232977 281.056374 142.467352 280.082416 C 141.701727 280.499083 141.045477 280.707416 140.488185 280.707416 C 140.488185 283.139708 140.451727 285.848041 140.384018 288.832416 C 140.31631 291.749083 140.175685 294.738667 139.967352 297.79075 C 139.41006 309.322001 138.680893 320.155335 137.779852 330.290753 C 136.946518 340.431378 136.045476 349.009504 135.071518 356.019921 C 130.347559 361.160546 124.342351 364.874088 117.050684 367.165755 C 109.759016 369.457422 101.982974 370.082422 93.717349 369.040755 C 85.451723 367.999088 77.430889 365.155338 69.654847 360.499088 C 61.878805 355.848046 55.035055 349.249087 49.134012 340.70742 C 43.300679 332.165753 39.17047 321.436585 36.738178 308.519918 C 35.977762 304.353251 35.248595 297.269917 34.550678 287.269916 C 33.925678 277.202207 33.373595 265.394915 32.884011 251.858456 C 32.399636 238.243871 32.087136 224.009496 31.946511 209.15012 C 31.878803 194.285535 31.98297 179.842826 32.259011 165.816783 C 32.540261 151.717824 33.165261 139.150115 34.134011 128.108448 C 35.10797 116.999072 36.321512 108.592821 37.779845 102.900113 C 42.019429 98.941779 48.545471 95.228237 57.36318 91.754279 C 66.180889 88.212612 76.493389 85.259486 88.300682 82.900111 C 100.175682 80.467819 112.884017 78.801153 126.425684 77.900111 C 139.967352 76.926153 153.613186 76.962611 167.363187 78.004278 C 181.113188 79.045944 194.20173 81.269903 206.634023 84.670945 C 219.061107 88.071987 230.035066 93.004279 239.550692 99.462612 C 248.644442 105.571988 256.738193 113.420947 263.821527 123.004281 C 270.90486 132.519906 276.420486 143.108449 280.378819 154.775116 C 284.41007 166.441783 286.180903 178.452201 285.69132 190.816785 C 285.206945 203.108453 281.941319 215.08762 275.899652 226.754287 C 269.863194 238.420955 260.384026 249.009497 247.467359 258.525123 C 246.144442 259.634498 244.165275 260.84804 241.529858 262.165748 Z M 182.363188 189.358452 C 182.363188 184.842826 180.727771 180.920951 177.467354 177.587618 C 174.269437 174.254284 169.863187 172.2022 164.238187 171.441784 C 158.680895 170.676159 152.295478 171.993867 145.071519 175.400117 C 145.071519 181.301159 145.00381 185.952201 144.863185 189.358452 C 144.795477 192.759493 144.863185 196.92616 145.071519 201.858452 C 145.071519 202.410536 145.488185 203.139703 146.321519 204.045953 C 147.222561 204.879286 147.951727 205.295953 148.509019 205.295953 C 152.118394 205.295953 155.660061 205.295953 159.13402 205.295953 C 162.675687 205.295953 166.144437 204.910536 169.550687 204.150119 C 178.092354 202.827202 182.363188 197.900119 182.363188 189.358452 Z M 182.363188 189.358452 " stroke="#00387b" stroke-width="16.000013" stroke-opacity="1" stroke-miterlimit="4"/><g fill="#4b99f5" fill-opacity="1"><g transform="translate(26.438555, 294.87959)"><g><path d="M 166.609375 -79.359375 C 169.171875 -77.085938 172.226562 -73.566406 175.78125 -68.796875 C 179.34375 -64.035156 182.972656 -58.84375 186.671875 -53.21875 C 190.367188 -47.601562 193.707031 -42.234375 196.6875 -37.109375 C 199.675781 -31.992188 201.738281 -27.800781 202.875 -24.53125 C 201.457031 -17.132812 198.539062 -11.019531 194.125 -6.1875 C 189.71875 -1.351562 184.382812 2.019531 178.125 3.9375 C 171.875 5.863281 165.265625 6.253906 158.296875 5.109375 C 151.328125 3.972656 144.5 1.132812 137.8125 -3.40625 C 131.125 -7.957031 125.289062 -14.359375 120.3125 -22.609375 C 118.613281 -25.453125 116.660156 -28.546875 114.453125 -31.890625 C 112.242188 -35.234375 109.679688 -39.210938 106.765625 -43.828125 C 103.859375 -48.453125 100.195312 -54.179688 95.78125 -61.015625 C 95.21875 -61.867188 94.648438 -62.722656 94.078125 -63.578125 C 93.515625 -64.429688 92.945312 -65.210938 92.375 -65.921875 C 91.800781 -65.640625 91.300781 -65.5 90.875 -65.5 C 90.875 -63.644531 90.835938 -61.613281 90.765625 -59.40625 C 90.703125 -57.207031 90.597656 -54.96875 90.453125 -52.6875 C 90.023438 -44.019531 89.488281 -35.878906 88.84375 -28.265625 C 88.207031 -20.660156 87.535156 -14.222656 86.828125 -8.953125 C 83.273438 -5.117188 78.757812 -2.347656 73.28125 -0.640625 C 67.800781 1.066406 61.96875 1.53125 55.78125 0.75 C 49.59375 -0.03125 43.582031 -2.160156 37.75 -5.640625 C 31.925781 -9.128906 26.804688 -14.070312 22.390625 -20.46875 C 17.984375 -26.875 14.859375 -34.914062 13.015625 -44.59375 C 12.441406 -47.71875 11.90625 -53.046875 11.40625 -60.578125 C 10.914062 -68.117188 10.488281 -76.972656 10.125 -87.140625 C 9.769531 -97.316406 9.554688 -107.984375 9.484375 -119.140625 C 9.421875 -130.304688 9.492188 -141.148438 9.703125 -151.671875 C 9.921875 -162.203125 10.382812 -171.625 11.09375 -179.9375 C 11.800781 -188.257812 12.722656 -194.554688 13.859375 -198.828125 C 16.992188 -201.816406 21.867188 -204.625 28.484375 -207.25 C 35.097656 -209.882812 42.847656 -212.085938 51.734375 -213.859375 C 60.617188 -215.640625 70.144531 -216.882812 80.3125 -217.59375 C 90.488281 -218.3125 100.726562 -218.273438 111.03125 -217.484375 C 121.34375 -216.703125 131.15625 -215.03125 140.46875 -212.46875 C 149.789062 -209.914062 158.007812 -206.222656 165.125 -201.390625 C 171.945312 -196.835938 178.023438 -190.96875 183.359375 -183.78125 C 188.691406 -176.601562 192.847656 -168.640625 195.828125 -159.890625 C 198.816406 -151.140625 200.132812 -142.144531 199.78125 -132.90625 C 199.425781 -123.664062 196.972656 -114.671875 192.421875 -105.921875 C 187.867188 -97.171875 180.757812 -89.242188 171.09375 -82.140625 C 170.09375 -81.285156 168.597656 -80.359375 166.609375 -79.359375 Z M 122.234375 -133.96875 C 122.234375 -137.382812 121.023438 -140.335938 118.609375 -142.828125 C 116.191406 -145.316406 112.882812 -146.84375 108.6875 -147.40625 C 104.5 -147.976562 99.703125 -146.984375 94.296875 -144.421875 C 94.296875 -140.015625 94.257812 -136.53125 94.1875 -133.96875 C 94.113281 -131.414062 94.148438 -128.289062 94.296875 -124.59375 C 94.296875 -124.164062 94.613281 -123.628906 95.25 -122.984375 C 95.894531 -122.347656 96.429688 -122.03125 96.859375 -122.03125 C 99.554688 -122.03125 102.21875 -122.03125 104.84375 -122.03125 C 107.476562 -122.03125 110.078125 -122.3125 112.640625 -122.875 C 119.035156 -123.875 122.234375 -127.570312 122.234375 -133.96875 Z M 122.234375 -133.96875 "/></g></g></g><path stroke-linecap="butt" transform="matrix(0.547218, 0, 0, 0.547218, 236.643299, 46.773513)" fill="none" stroke-linejoin="miter" d="M 169.788534 233.710304 C 175.206562 235.444929 179.682324 238.364525 183.222958 242.461953 C 186.770731 246.559381 188.541049 253.155241 188.541049 262.249532 C 188.541049 271.350962 185.828466 281.316136 180.410438 292.145053 C 175.063794 302.981108 167.254411 308.399136 156.975149 308.399136 C 151.906901 308.399136 147.009975 307.249857 142.291508 304.958438 C 137.565903 302.667019 131.355516 301.524879 123.646069 301.524879 C 116.008007 301.524879 108.855354 304.230324 102.18811 309.648351 C 95.520867 315.066379 92.187245 321.590855 92.187245 329.228918 L 92.187245 418.915478 C 92.187245 425.447093 91.94454 430.344019 91.45913 433.606257 C 91.037966 436.868495 89.717367 440.651834 87.497332 444.956275 C 83.192891 452.315941 72.085577 455.999343 54.168252 455.999343 C 40.555369 455.999343 30.761516 453.572295 24.793834 448.711061 C 20.210996 444.749262 17.641181 438.638812 17.084387 430.372572 C 17.084387 427.531498 17.084387 423.398379 17.084387 417.980351 L 17.084387 268.295737 C 17.084387 261.764123 17.2914 256.874335 17.705426 253.604959 C 18.12659 250.271337 19.340114 246.630765 21.353136 242.668966 C 25.314935 234.95952 36.386557 231.104796 54.582278 231.104796 C 71.664413 231.104796 82.322009 234.402726 86.562204 241.005724 C 89.753058 245.517178 91.352055 250.207092 91.352055 255.068326 C 92.744038 253.055304 94.792752 250.621117 97.498197 247.772905 C 100.203641 244.924693 105.97145 241.105662 114.787344 236.315811 C 123.610378 231.454577 131.355516 229.027529 138.015621 229.027529 C 144.682865 229.027529 150.272213 229.370171 154.790805 230.062594 C 159.373643 230.762154 164.370506 231.975678 169.788534 233.710304 Z M 169.788534 233.710304 " stroke="#00387b" stroke-width="21.333349" stroke-opacity="1" stroke-miterlimit="4"/><g fill="#4b99f5" fill-opacity="1"><g transform="translate(236.643299, 296.305047)"><g><path d="M 92.921875 -121.625 C 95.878906 -120.695312 98.328125 -119.101562 100.265625 -116.84375 C 102.210938 -114.59375 103.1875 -110.976562 103.1875 -106 C 103.1875 -101.019531 101.707031 -95.570312 98.75 -89.65625 C 95.800781 -83.738281 91.523438 -80.78125 85.921875 -80.78125 C 83.117188 -80.78125 80.429688 -81.398438 77.859375 -82.640625 C 75.296875 -83.890625 71.910156 -84.515625 67.703125 -84.515625 C 63.503906 -84.515625 59.570312 -83.035156 55.90625 -80.078125 C 52.25 -77.117188 50.421875 -73.539062 50.421875 -69.34375 L 50.421875 -20.3125 C 50.421875 -16.726562 50.304688 -14.039062 50.078125 -12.25 C 49.847656 -10.46875 49.109375 -8.40625 47.859375 -6.0625 C 45.523438 -2.019531 39.457031 0 29.65625 0 C 22.175781 0 16.804688 -1.320312 13.546875 -3.96875 C 11.054688 -6.144531 9.65625 -9.492188 9.34375 -14.015625 C 9.34375 -15.566406 9.34375 -17.820312 9.34375 -20.78125 L 9.34375 -102.71875 C 9.34375 -106.300781 9.457031 -108.988281 9.6875 -110.78125 C 9.925781 -112.570312 10.585938 -114.554688 11.671875 -116.734375 C 13.847656 -120.929688 19.921875 -123.03125 29.890625 -123.03125 C 39.222656 -123.03125 45.054688 -121.242188 47.390625 -117.671875 C 49.109375 -115.179688 49.96875 -112.613281 49.96875 -109.96875 C 50.738281 -111.050781 51.863281 -112.367188 53.34375 -113.921875 C 54.820312 -115.484375 57.972656 -117.585938 62.796875 -120.234375 C 67.628906 -122.878906 71.875 -124.203125 75.53125 -124.203125 C 79.1875 -124.203125 82.257812 -124.003906 84.75 -123.609375 C 87.238281 -123.222656 89.960938 -122.5625 92.921875 -121.625 Z M 92.921875 -121.625 "/></g></g></g></svg>