<svg xmlns="http://www.w3.org/2000/svg" xmlns:xlink="http://www.w3.org/1999/xlink" width="500" zoomAndPan="magnify" viewBox="0 0 375 374.999991" height="500" preserveAspectRatio="xMidYMid meet" version="1.0"><defs><g/></defs><path stroke-linecap="butt" transform="matrix(0.75, 0, 0, 0.75, 19.515342, 17.973183)" fill="none" stroke-linejoin="miter" d="M 223.677476 207.900353 C 238.125393 216.78577 248.781644 227.134729 255.656644 238.942022 C 262.604561 250.676397 266.354562 262.895148 266.906645 275.603482 C 267.531645 288.244108 265.656645 300.468067 261.281645 312.270151 C 256.906644 324.009735 250.588936 334.389944 242.32331 343.415987 C 234.062893 352.447237 224.651434 359.108696 214.094142 363.415988 C 206.458724 366.47328 197.151432 369.040988 186.177473 371.124322 C 175.208722 373.207655 163.260805 374.494114 150.349346 374.978489 C 137.432678 375.462864 124.203511 374.806614 110.661843 372.999322 C 97.120176 371.19203 84.026425 367.931613 71.391007 363.207655 C 58.81809 358.415988 47.396214 351.853487 37.120172 343.520153 C 31.635796 336.509736 28.370171 328.936819 27.328504 320.811819 C 26.286838 312.61911 27.083713 304.806609 29.724338 297.374317 C 32.364963 289.874317 36.458713 283.520149 42.016005 278.311816 C 47.641006 273.035774 54.338923 269.806607 62.120173 268.624315 C 69.896215 267.374315 78.437883 269.009732 87.745175 273.520149 C 107.880593 283.384733 124.583719 288.936816 137.849345 290.186817 C 151.109762 291.436817 158.885805 287.686816 161.177471 278.936816 C 162.292055 275.186816 162.708722 272.238899 162.427472 270.082649 C 162.15143 267.863898 160.58893 266.197232 157.74518 265.082648 C 154.896221 263.905565 149.859762 263.13994 142.641012 262.790981 C 131.109761 261.822231 119.651427 259.494106 108.26601 255.811814 C 96.875384 252.134731 86.250383 246.889939 76.391008 240.087855 C 66.526424 233.212854 58.229548 224.738896 51.495173 214.671187 C 44.760797 204.598269 40.245172 192.931602 37.953505 179.671184 C 37.18788 174.947226 37.120172 169.15035 37.745172 162.27535 C 38.43788 155.327433 40.177463 147.968057 42.953505 140.192015 C 45.729547 132.415973 49.896214 124.738889 55.453506 117.17118 C 61.078507 109.530555 68.50559 102.587846 77.745174 96.337845 C 87.047258 90.087845 98.542051 85.155553 112.224343 81.546178 C 121.667052 78.905553 131.703511 77.275344 142.328512 76.650344 C 152.953513 75.957636 163.505597 76.093052 173.989972 77.067011 C 184.547265 77.968053 194.37539 79.775344 203.469141 82.483678 C 212.635808 85.124303 220.239975 88.421178 226.281642 92.379512 C 236.146226 99.046179 243.26081 106.129513 247.63581 113.629513 C 252.010811 121.061805 254.130603 128.457639 253.989978 135.817015 C 253.922269 143.108682 252.187894 149.910766 248.781644 156.233683 C 245.380602 162.551391 240.901435 167.968059 235.344143 172.483684 C 229.859768 176.926392 223.818101 179.910768 217.219142 181.442018 C 213.052475 176.301392 207.500391 172.067017 200.552474 168.733684 C 193.609765 165.40035 186.146223 163.072225 178.156639 161.754516 C 170.239972 160.4316 162.77643 160.1191 155.766013 160.817016 C 148.750387 161.442016 142.953512 163.176392 138.370178 166.02535 C 133.854553 168.8691 131.495178 172.759725 131.286844 177.692017 C 131.286844 180.744101 132.604553 183.28056 135.245178 185.296185 C 137.880595 187.238893 142.812887 188.697227 150.036846 189.671185 C 170.937889 192.306602 187.151431 195.192019 198.677474 198.317019 C 210.276433 201.442019 218.609767 204.634728 223.677476 207.900353 Z M 223.677476 207.900353 " stroke="#7e0030" stroke-width="16.000013" stroke-opacity="1" stroke-miterlimit="4"/><g fill="#fb6ea4" fill-opacity="1"><g transform="translate(31.573935, 293.973165)"><g><path d="M 155.734375 -120.109375 C 166.546875 -113.421875 174.546875 -105.664062 179.734375 -96.84375 C 184.921875 -88.03125 187.726562 -78.859375 188.15625 -69.328125 C 188.582031 -59.804688 187.160156 -50.632812 183.890625 -41.8125 C 180.617188 -33 175.890625 -25.210938 169.703125 -18.453125 C 163.515625 -11.691406 156.441406 -6.675781 148.484375 -3.40625 C 142.796875 -1.132812 135.828125 0.78125 127.578125 2.34375 C 119.328125 3.90625 110.363281 4.863281 100.6875 5.21875 C 91.019531 5.582031 81.101562 5.085938 70.9375 3.734375 C 60.769531 2.378906 50.957031 -0.0703125 41.5 -3.625 C 32.039062 -7.175781 23.46875 -12.082031 15.78125 -18.34375 C 11.65625 -23.601562 9.203125 -29.289062 8.421875 -35.40625 C 7.640625 -41.53125 8.242188 -47.398438 10.234375 -53.015625 C 12.234375 -58.628906 15.328125 -63.390625 19.515625 -67.296875 C 23.710938 -71.210938 28.726562 -73.632812 34.5625 -74.5625 C 40.394531 -75.488281 46.796875 -74.242188 53.765625 -70.828125 C 68.835938 -63.429688 81.347656 -59.269531 91.296875 -58.34375 C 101.253906 -57.414062 107.085938 -60.222656 108.796875 -66.765625 C 109.648438 -69.617188 109.96875 -71.863281 109.75 -73.5 C 109.539062 -75.132812 108.367188 -76.375 106.234375 -77.21875 C 104.109375 -78.070312 100.34375 -78.644531 94.9375 -78.9375 C 86.257812 -79.644531 77.648438 -81.382812 69.109375 -84.15625 C 60.578125 -86.925781 52.613281 -90.875 45.21875 -96 C 37.832031 -101.125 31.613281 -107.453125 26.5625 -114.984375 C 21.507812 -122.523438 18.128906 -131.273438 16.421875 -141.234375 C 15.859375 -144.785156 15.820312 -149.15625 16.3125 -154.34375 C 16.8125 -159.539062 18.09375 -165.050781 20.15625 -170.875 C 22.21875 -176.707031 25.347656 -182.46875 29.546875 -188.15625 C 33.742188 -193.84375 39.328125 -199.03125 46.296875 -203.71875 C 53.265625 -208.414062 61.867188 -212.117188 72.109375 -214.828125 C 79.210938 -216.816406 86.75 -218.0625 94.71875 -218.5625 C 102.6875 -219.0625 110.613281 -218.953125 118.5 -218.234375 C 126.394531 -217.523438 133.753906 -216.175781 140.578125 -214.1875 C 147.410156 -212.195312 153.101562 -209.707031 157.65625 -206.71875 C 165.050781 -201.738281 170.382812 -196.441406 173.65625 -190.828125 C 176.925781 -185.210938 178.523438 -179.664062 178.453125 -174.1875 C 178.378906 -168.707031 177.0625 -163.585938 174.5 -158.828125 C 171.945312 -154.066406 168.609375 -150.015625 164.484375 -146.671875 C 160.359375 -143.328125 155.804688 -141.085938 150.828125 -139.953125 C 147.703125 -143.785156 143.539062 -146.945312 138.34375 -149.4375 C 133.15625 -151.925781 127.570312 -153.664062 121.59375 -154.65625 C 115.625 -155.65625 110.007812 -155.90625 104.75 -155.40625 C 99.488281 -154.914062 95.148438 -153.601562 91.734375 -151.46875 C 88.316406 -149.332031 86.539062 -146.414062 86.40625 -142.71875 C 86.40625 -140.445312 87.398438 -138.5625 89.390625 -137.0625 C 91.378906 -135.570312 95.078125 -134.472656 100.484375 -133.765625 C 116.128906 -131.765625 128.285156 -129.59375 136.953125 -127.25 C 145.628906 -124.90625 151.890625 -122.523438 155.734375 -120.109375 Z M 155.734375 -120.109375 "/></g></g></g><path stroke-linecap="butt" transform="matrix(0.547218, 0, 0, 0.547218, 233.192377, 46.773494)" fill="none" stroke-linejoin="miter" d="M 18.75074 435.897711 C 13.332713 432.492705 10.627268 427.110369 10.627268 419.750703 C 10.627268 412.319654 16.038157 401.069572 26.874213 386.00046 C 30.000821 381.210609 35.033377 378.812115 41.979017 378.812115 C 48.988903 378.812115 58.468666 382.288504 70.418308 389.227006 C 82.360812 396.172646 93.161175 399.649036 102.81226 399.649036 C 120.172792 399.649036 128.853057 396.24403 128.853057 389.441157 C 128.853057 384.02313 119.337602 380.025639 100.313829 377.462962 C 82.396504 374.893146 64.614808 368.225903 46.97588 357.461231 C 38.716779 352.3216 31.871076 344.298065 26.460187 333.397765 C 21.042159 322.42608 18.329576 309.405682 18.329576 294.336569 C 18.329576 249.336245 49.203054 226.836083 110.935733 226.836083 C 131.144476 226.836083 151.910013 231.697317 173.225205 241.419785 C 183.154686 245.931239 188.122996 251.627664 188.122996 258.50192 C 188.122996 265.311931 184.996387 273.7138 178.750308 283.707527 C 172.49709 293.644147 166.108243 298.605318 159.583767 298.605318 C 156.178762 298.605318 149.861299 296.485221 140.62424 292.252163 C 131.387181 287.947722 121.350624 285.791933 110.521707 285.791933 C 93.71083 285.791933 85.308961 288.918542 85.308961 295.171759 C 85.308961 303.709257 94.995738 309.262914 114.37643 311.83273 C 133.121806 313.781506 151.317528 319.163842 168.956456 327.979737 C 177.222695 332.005781 184.125505 338.91573 189.6863 348.709582 C 195.239957 358.503434 198.016786 370.795718 198.016786 385.586434 C 198.016786 400.37715 195.239957 412.976384 189.6863 423.398414 C 184.125505 433.741921 176.351813 441.487059 166.350948 446.62669 C 148.155227 455.442585 125.348114 459.854102 97.915334 459.854102 C 70.482554 459.854102 44.099115 451.866259 18.75074 435.897711 Z M 18.75074 435.897711 " stroke="#7e0030" stroke-width="21.333349" stroke-opacity="1" stroke-miterlimit="4"/><g fill="#fb6ea4" fill-opacity="1"><g transform="translate(233.192377, 296.305028)"><g><path d="M 10.265625 -10.96875 C 7.316406 -12.84375 5.84375 -15.800781 5.84375 -19.84375 C 5.84375 -23.894531 8.796875 -30.039062 14.703125 -38.28125 C 16.421875 -40.9375 19.1875 -42.265625 23 -42.265625 C 26.8125 -42.265625 31.984375 -40.351562 38.515625 -36.53125 C 45.054688 -32.71875 50.972656 -30.8125 56.265625 -30.8125 C 65.753906 -30.8125 70.5 -32.679688 70.5 -36.421875 C 70.5 -39.378906 65.285156 -41.554688 54.859375 -42.953125 C 45.054688 -44.359375 35.332031 -48.019531 25.6875 -53.9375 C 21.164062 -56.738281 17.425781 -61.132812 14.46875 -67.125 C 11.519531 -73.113281 10.046875 -80.234375 10.046875 -88.484375 C 10.046875 -113.078125 26.929688 -125.375 60.703125 -125.375 C 71.753906 -125.375 83.113281 -122.726562 94.78125 -117.4375 C 100.226562 -114.945312 102.953125 -111.832031 102.953125 -108.09375 C 102.953125 -104.363281 101.238281 -99.773438 97.8125 -94.328125 C 94.394531 -88.878906 90.894531 -86.15625 87.3125 -86.15625 C 85.445312 -86.15625 81.984375 -87.320312 76.921875 -89.65625 C 71.867188 -91.988281 66.382812 -93.15625 60.46875 -93.15625 C 51.28125 -93.15625 46.6875 -91.441406 46.6875 -88.015625 C 46.6875 -83.347656 51.976562 -80.3125 62.5625 -78.90625 C 72.84375 -77.820312 82.804688 -74.867188 92.453125 -70.046875 C 96.960938 -67.859375 100.734375 -64.078125 103.765625 -58.703125 C 106.804688 -53.335938 108.328125 -46.609375 108.328125 -38.515625 C 108.328125 -30.421875 106.804688 -23.535156 103.765625 -17.859375 C 100.734375 -12.179688 96.492188 -7.941406 91.046875 -5.140625 C 81.085938 -0.316406 68.597656 2.09375 53.578125 2.09375 C 38.554688 2.09375 24.117188 -2.257812 10.265625 -10.96875 Z M 10.265625 -10.96875 "/></g></g></g></svg>