<svg xmlns="http://www.w3.org/2000/svg" xmlns:xlink="http://www.w3.org/1999/xlink" width="500" zoomAndPan="magnify" viewBox="0 0 375 374.999991" height="500" preserveAspectRatio="xMidYMid meet" version="1.0"><defs><g/></defs><path stroke-linecap="butt" transform="matrix(0.75, 0, 0, 0.75, 11.97786, 16.587245)" fill="none" stroke-linejoin="miter" d="M 265.696204 84.149304 C 268.748288 88.107638 271.248288 93.800346 273.196205 101.232638 C 275.206622 108.592014 276.112872 116.612848 275.904538 125.29514 C 275.696205 133.904516 273.888913 142.206599 270.487871 150.190975 C 267.081621 158.107642 261.633704 164.810768 254.133704 170.295143 C 246.633703 175.779518 236.529536 178.904519 223.821202 179.670144 C 218.88891 179.878477 214.758701 180.123269 211.425367 180.39931 C 208.159742 180.675352 206.144117 180.815977 205.3837 180.815977 C 205.72745 191.440978 205.935784 203.107645 206.0087 215.815979 C 206.144117 228.524313 206.112867 241.612856 205.904534 255.086815 C 205.763909 268.555566 205.3837 281.680567 204.7587 294.461818 C 204.201409 307.23786 203.53995 319.180569 202.779533 330.289945 C 202.013908 341.404529 201.076408 350.847238 199.967033 358.62328 C 195.243075 363.904531 189.237866 367.685781 181.946199 369.977448 C 174.654532 372.269115 166.878489 372.894115 158.612864 371.852448 C 150.347238 370.810781 142.326405 367.894114 134.550362 363.102447 C 126.77432 358.243072 119.89932 351.43578 113.925361 342.685779 C 107.951402 333.935779 103.753485 322.93057 101.321193 309.670152 C 100.555568 305.711819 99.86286 299.321193 99.23786 290.503484 C 98.680568 281.680567 98.159735 271.368066 97.67536 259.565982 C 97.258693 247.690981 96.946193 234.982647 96.73786 221.44098 C 96.529527 207.826395 96.529527 194.18577 96.73786 180.503477 C 87.222234 181.269102 77.430567 181.612852 67.362858 181.545144 C 57.362857 181.477435 47.711815 180.467019 38.404523 178.52431 C 34.795147 173.800352 32.123272 167.690976 30.383689 160.190976 C 28.717022 152.690975 28.269105 144.774308 29.029522 136.440974 C 29.795147 128.10764 31.982647 120.154515 35.592023 112.586806 C 39.206606 105.019097 44.519106 98.732638 51.529524 93.732638 C 58.545149 88.664929 67.430566 85.748262 78.196192 84.982637 C 84.305567 84.638887 92.326401 84.357637 102.258694 84.149304 C 112.190986 83.940971 123.263903 83.836804 135.487862 83.836804 C 147.77953 83.836804 160.347239 83.836804 173.196198 83.836804 C 186.112866 83.836804 198.576408 83.909721 210.592034 84.045137 C 222.675368 84.118054 233.539952 84.149304 243.196203 84.149304 C 252.847245 84.149304 260.347246 84.149304 265.696204 84.149304 Z M 265.696204 84.149304 " stroke="#00387b" stroke-width="16.000013" stroke-opacity="1" stroke-miterlimit="4"/><g fill="#4b99f5" fill-opacity="1"><g transform="translate(19.454422, 292.587227)"><g><path d="M 191.78125 -212.90625 C 194.0625 -209.914062 195.945312 -205.644531 197.4375 -200.09375 C 198.9375 -194.550781 199.613281 -188.546875 199.46875 -182.078125 C 199.320312 -175.609375 197.96875 -169.382812 195.40625 -163.40625 C 192.851562 -157.4375 188.765625 -152.390625 183.140625 -148.265625 C 177.523438 -144.140625 169.953125 -141.796875 160.421875 -141.234375 C 156.722656 -141.085938 153.628906 -140.90625 151.140625 -140.6875 C 148.648438 -140.476562 147.125 -140.375 146.5625 -140.375 C 146.84375 -132.40625 147.019531 -123.65625 147.09375 -114.125 C 147.164062 -104.601562 147.128906 -94.789062 146.984375 -84.6875 C 146.835938 -74.59375 146.550781 -64.742188 146.125 -55.140625 C 145.707031 -45.546875 145.210938 -36.585938 144.640625 -28.265625 C 144.066406 -19.941406 143.351562 -12.867188 142.5 -7.046875 C 138.945312 -3.054688 134.429688 -0.210938 128.953125 1.484375 C 123.484375 3.191406 117.65625 3.65625 111.46875 2.875 C 105.28125 2.09375 99.269531 -0.109375 93.4375 -3.734375 C 87.601562 -7.359375 82.445312 -12.441406 77.96875 -18.984375 C 73.488281 -25.523438 70.328125 -33.773438 68.484375 -43.734375 C 67.910156 -46.722656 67.410156 -51.519531 66.984375 -58.125 C 66.554688 -64.738281 66.164062 -72.488281 65.8125 -81.375 C 65.457031 -90.269531 65.207031 -99.800781 65.0625 -109.96875 C 64.925781 -120.144531 64.925781 -130.351562 65.0625 -140.59375 C 57.957031 -140.019531 50.632812 -139.769531 43.09375 -139.84375 C 35.550781 -139.914062 28.296875 -140.660156 21.328125 -142.078125 C 18.628906 -145.628906 16.640625 -150.210938 15.359375 -155.828125 C 14.078125 -161.453125 13.71875 -167.394531 14.28125 -173.65625 C 14.851562 -179.914062 16.488281 -185.890625 19.1875 -191.578125 C 21.894531 -197.265625 25.878906 -201.988281 31.140625 -205.75 C 36.410156 -209.519531 43.097656 -211.691406 51.203125 -212.265625 C 55.753906 -212.546875 61.757812 -212.757812 69.21875 -212.90625 C 76.6875 -213.050781 85.007812 -213.125 94.1875 -213.125 C 103.363281 -213.125 112.785156 -213.125 122.453125 -213.125 C 132.117188 -213.125 141.46875 -213.085938 150.5 -213.015625 C 159.53125 -212.941406 167.671875 -212.90625 174.921875 -212.90625 C 182.179688 -212.90625 187.800781 -212.90625 191.78125 -212.90625 Z M 191.78125 -212.90625 "/></g></g></g><path stroke-linecap="butt" transform="matrix(0.547218, 0, 0, 0.547218, 211.696879, 45.387595)" fill="none" stroke-linejoin="miter" d="M 148.646686 306.627356 L 120.942647 304.964114 L 120.942647 363.812888 C 120.942647 371.522335 122.156171 377.075992 124.583219 380.480997 C 127.017405 383.886003 131.564551 385.584936 138.231795 385.584936 C 144.899038 385.584936 150.002977 385.791949 153.543612 386.205975 C 157.15563 386.627139 160.93897 387.983431 164.900769 390.27485 C 171.425245 393.951113 174.687483 403.502261 174.687483 418.914015 C 174.687483 436.83134 170.69713 447.774471 162.709287 451.729132 C 158.47623 453.742154 154.728582 454.955678 151.459206 455.376842 C 148.196968 455.790868 143.442809 455.997881 137.189592 455.997881 C 107.60816 455.997881 85.107998 449.330637 69.689105 436.003288 C 54.341596 422.597418 46.667841 399.961626 46.667841 368.081638 L 46.667841 304.964114 C 41.256952 305.792165 35.424898 306.21333 29.171681 306.21333 C 22.918463 306.21333 17.714587 303.814835 13.545775 299.024985 C 9.448347 294.16375 7.399633 285.897511 7.399633 274.233404 C 7.399633 262.562158 8.092055 254.131736 9.484039 248.920721 C 10.940268 243.645461 12.95329 239.854983 15.523105 237.563564 C 20.105943 233.887301 25.802367 232.045599 32.612378 232.045599 L 46.667841 233.708841 L 46.667841 189.75072 C 46.667841 183.226244 46.881992 178.400701 47.296018 175.274092 C 47.781428 172.147483 49.137719 168.749616 51.357754 165.066214 C 55.105402 157.913561 66.077086 154.337234 84.272808 154.337234 C 103.582116 154.337234 115.074902 159.612495 118.751166 170.170153 C 120.214533 174.681607 120.942647 181.941336 120.942647 191.942201 L 120.942647 233.708841 C 133.441944 232.602393 142.886016 232.045599 149.274863 232.045599 C 155.735093 232.045599 160.596328 232.252612 163.858566 232.666638 C 167.120804 233.087802 170.868451 234.444094 175.108647 236.735513 C 182.539697 240.411776 186.251652 251.347769 186.251652 269.54349 C 186.251652 287.460815 182.396929 298.396808 174.687483 302.358606 C 170.454425 304.371629 166.671086 305.585153 163.337464 305.999178 C 160.075226 306.420343 155.1783 306.627356 148.646686 306.627356 Z M 148.646686 306.627356 " stroke="#00387b" stroke-width="21.333349" stroke-opacity="1" stroke-miterlimit="4"/><g fill="#4b99f5" fill-opacity="1"><g transform="translate(212.269749, 294.919129)"><g><path d="M 80.78125 -81.71875 L 65.609375 -82.640625 L 65.609375 -50.421875 C 65.609375 -46.222656 66.269531 -43.1875 67.59375 -41.3125 C 68.914062 -39.445312 71.40625 -38.515625 75.0625 -38.515625 C 78.71875 -38.515625 81.519531 -38.398438 83.46875 -38.171875 C 85.414062 -37.941406 87.476562 -37.203125 89.65625 -35.953125 C 93.226562 -33.929688 95.015625 -28.71875 95.015625 -20.3125 C 95.015625 -10.507812 92.835938 -4.515625 88.484375 -2.328125 C 86.148438 -1.242188 84.085938 -0.582031 82.296875 -0.34375 C 80.503906 -0.113281 77.894531 0 74.46875 0 C 58.289062 0 46 -3.65625 37.59375 -10.96875 C 29.1875 -18.289062 24.984375 -30.664062 24.984375 -48.09375 L 24.984375 -82.640625 C 22.023438 -82.179688 18.832031 -81.953125 15.40625 -81.953125 C 11.976562 -81.953125 9.132812 -83.273438 6.875 -85.921875 C 4.625 -88.566406 3.5 -93.078125 3.5 -99.453125 C 3.5 -105.835938 3.890625 -110.46875 4.671875 -113.34375 C 5.453125 -116.226562 6.539062 -118.289062 7.9375 -119.53125 C 10.425781 -121.5625 13.539062 -122.578125 17.28125 -122.578125 L 24.984375 -121.640625 L 24.984375 -145.6875 C 24.984375 -149.257812 25.097656 -151.898438 25.328125 -153.609375 C 25.566406 -155.328125 26.304688 -157.195312 27.546875 -159.21875 C 29.566406 -163.113281 35.5625 -165.0625 45.53125 -165.0625 C 56.113281 -165.0625 62.414062 -162.179688 64.4375 -156.421875 C 65.21875 -153.929688 65.609375 -149.960938 65.609375 -144.515625 L 65.609375 -121.640625 C 72.453125 -122.265625 77.625 -122.578125 81.125 -122.578125 C 84.632812 -122.578125 87.28125 -122.457031 89.0625 -122.21875 C 90.851562 -121.988281 92.914062 -121.25 95.25 -120 C 99.300781 -117.976562 101.328125 -111.988281 101.328125 -102.03125 C 101.328125 -92.21875 99.222656 -86.222656 95.015625 -84.046875 C 92.679688 -82.960938 90.617188 -82.300781 88.828125 -82.0625 C 87.046875 -81.832031 84.363281 -81.71875 80.78125 -81.71875 Z M 80.78125 -81.71875 "/></g></g></g></svg>