<svg xmlns="http://www.w3.org/2000/svg" xmlns:xlink="http://www.w3.org/1999/xlink" width="500" zoomAndPan="magnify" viewBox="0 0 375 374.999991" height="500" preserveAspectRatio="xMidYMid meet" version="1.0"><defs><g/></defs><path stroke-linecap="butt" transform="matrix(0.731388, 0, 0, 0.731388, 3.225859, 26.299803)" fill="none" stroke-linejoin="miter" d="M 291.70854 271.333501 C 289.625601 289.529841 284.311437 305.189269 275.771387 318.311784 C 267.231338 331.370209 256.603009 342.169446 243.897082 350.709495 C 231.191155 359.180113 217.438417 365.466316 202.649551 369.562762 C 187.855344 373.659209 173.066478 375.710102 158.272271 375.710102 C 146.330088 375.710102 134.350519 375.015789 122.338905 373.627163 C 110.32195 372.307969 98.689538 369.664239 87.441668 365.706655 C 76.263229 361.749071 65.982056 355.986273 56.608831 348.418262 C 47.235606 340.78082 39.315098 330.814758 32.857987 318.520078 C 26.400877 306.161307 21.957274 290.779605 19.527178 272.374971 C 17.027652 255.156009 15.809934 236.404218 15.879365 216.124939 C 16.018228 195.851001 16.920834 175.155134 18.587185 154.042679 C 20.322968 132.866134 22.512724 112.485378 25.151113 92.900411 C 27.234052 90.67861 31.020728 88.627716 36.505801 86.753071 C 42.060304 84.808995 48.586846 83.388324 56.085426 82.485717 C 63.589347 81.513679 71.365652 81.374816 79.419682 82.069129 C 87.473713 82.694011 95.047065 84.429793 102.129057 87.276476 C 109.211049 90.12316 115.219527 94.219606 120.149149 99.565816 C 125.078771 104.842594 128.133748 111.82311 129.31408 120.502022 C 129.661236 123.556999 129.86953 129.426614 129.938962 138.105526 C 130.077824 146.720347 130.147255 156.964134 130.147255 168.836886 C 130.147255 180.640206 130.286118 193.036363 130.563843 206.025356 C 130.841568 219.009008 131.295542 231.405165 131.920424 243.208485 C 132.614737 254.947715 133.61882 264.876391 134.938015 272.999852 C 136.123688 279.25401 138.724691 284.183632 142.751706 287.794059 C 146.848153 291.404486 151.468004 293.348563 156.60592 293.626288 C 161.743836 293.904013 166.470505 292.307093 170.775245 288.835529 C 175.149417 285.294532 178.097577 279.633211 179.625065 271.856906 C 180.94426 265.052639 182.129933 256.160092 183.171402 245.189948 C 184.212872 234.150372 185.008661 222.101371 185.564111 209.042947 C 186.188993 195.920432 186.434673 182.621668 186.29581 169.146656 C 186.226379 155.676985 185.809791 142.933671 185.046047 130.922057 C 184.282303 118.905102 183.064585 108.62927 181.398234 100.089221 C 185.147524 96.2705 190.285439 93.001888 196.811981 90.294067 C 203.413295 87.516816 210.773013 85.610125 218.896474 84.568656 C 227.019936 83.527186 235.21817 83.628663 243.480494 84.878426 C 251.742818 86.058758 259.455033 88.697148 266.606456 92.793594 C 273.827311 96.895381 279.867834 102.72761 284.728025 110.295621 C 289.593556 117.863633 292.579102 127.450492 293.690003 139.045519 C 294.453747 146.821824 295.14806 153.903816 295.772941 160.296836 C 296.467254 166.615084 296.953274 173.04015 297.230999 179.566691 C 297.508724 186.093233 297.540769 193.452951 297.332475 201.645843 C 297.193613 209.774646 296.675548 219.425596 295.772941 230.604035 C 294.939766 241.787814 293.583185 255.364303 291.70854 271.333501 Z M 291.70854 271.333501 " stroke="#7b0008" stroke-width="16.000013" stroke-opacity="1" stroke-miterlimit="4"/><g fill="#f63845" fill-opacity="1"><g transform="translate(4.174379, 295.450764)"><g><path d="M 212.40625 -70.734375 C 210.875 -57.421875 206.988281 -45.976562 200.75 -36.40625 C 194.507812 -26.832031 186.742188 -18.925781 177.453125 -12.6875 C 168.160156 -6.445312 158.101562 -1.835938 147.28125 1.140625 C 136.46875 4.117188 125.648438 5.609375 114.828125 5.609375 C 106.097656 5.609375 97.328125 5.125 88.515625 4.15625 C 79.710938 3.1875 71.21875 1.25 63.03125 -1.65625 C 54.851562 -4.570312 47.332031 -8.800781 40.46875 -14.34375 C 33.601562 -19.894531 27.8125 -27.175781 23.09375 -36.1875 C 18.375 -45.207031 15.113281 -56.445312 13.3125 -69.90625 C 11.507812 -82.519531 10.640625 -96.242188 10.703125 -111.078125 C 10.773438 -125.921875 11.4375 -141.070312 12.6875 -156.53125 C 13.9375 -172 15.53125 -186.878906 17.46875 -201.171875 C 19 -202.828125 21.773438 -204.347656 25.796875 -205.734375 C 29.816406 -207.128906 34.566406 -208.171875 40.046875 -208.859375 C 45.523438 -209.554688 51.210938 -209.660156 57.109375 -209.171875 C 63.003906 -208.691406 68.550781 -207.410156 73.75 -205.328125 C 78.945312 -203.242188 83.347656 -200.257812 86.953125 -196.375 C 90.554688 -192.5 92.773438 -187.367188 93.609375 -180.984375 C 93.890625 -178.765625 94.0625 -174.5 94.125 -168.1875 C 94.195312 -161.882812 94.234375 -154.394531 94.234375 -145.71875 C 94.234375 -137.050781 94.335938 -127.96875 94.546875 -118.46875 C 94.753906 -108.96875 95.097656 -99.914062 95.578125 -91.3125 C 96.066406 -82.71875 96.800781 -75.441406 97.78125 -69.484375 C 98.601562 -64.910156 100.503906 -61.304688 103.484375 -58.671875 C 106.472656 -56.035156 109.835938 -54.613281 113.578125 -54.40625 C 117.328125 -54.195312 120.796875 -55.375 123.984375 -57.9375 C 127.171875 -60.5 129.320312 -64.625 130.4375 -70.3125 C 131.40625 -75.300781 132.269531 -81.816406 133.03125 -89.859375 C 133.800781 -97.910156 134.390625 -106.71875 134.796875 -116.28125 C 135.210938 -125.851562 135.382812 -135.5625 135.3125 -145.40625 C 135.25 -155.257812 134.941406 -164.585938 134.390625 -173.390625 C 133.835938 -182.203125 132.9375 -189.726562 131.6875 -195.96875 C 134.457031 -198.738281 138.234375 -201.128906 143.015625 -203.140625 C 147.804688 -205.148438 153.179688 -206.535156 159.140625 -207.296875 C 165.109375 -208.066406 171.109375 -208 177.140625 -207.09375 C 183.171875 -206.195312 188.820312 -204.253906 194.09375 -201.265625 C 199.363281 -198.285156 203.765625 -194.019531 207.296875 -188.46875 C 210.835938 -182.925781 213.023438 -175.925781 213.859375 -167.46875 C 214.410156 -161.78125 214.925781 -156.613281 215.40625 -151.96875 C 215.894531 -147.320312 216.242188 -142.601562 216.453125 -137.8125 C 216.660156 -133.03125 216.695312 -127.65625 216.5625 -121.6875 C 216.425781 -115.726562 216.046875 -108.65625 215.421875 -100.46875 C 214.796875 -92.289062 213.789062 -82.378906 212.40625 -70.734375 Z M 212.40625 -70.734375 "/></g></g></g><path stroke-linecap="butt" transform="matrix(0.547218, 0, 0, 0.547218, 230.276034, 46.630895)" fill="none" stroke-linejoin="miter" d="M 117.764188 455.167795 C 89.082192 455.167795 65.26143 444.296047 46.309041 422.559691 C 27.420897 400.75909 17.976825 374.232884 17.976825 342.981072 L 17.976825 268.29224 C 17.976825 261.417984 18.183838 256.42112 18.597864 253.294511 C 19.011889 250.167903 20.232552 246.491639 22.245574 242.251443 C 26.200234 234.541997 37.278994 230.694412 55.474716 230.694412 C 75.405063 230.694412 87.069169 236.105301 90.474175 246.941357 C 92.2088 251.45281 93.079682 258.712539 93.079682 268.713404 L 93.079682 343.395098 C 93.079682 355.066343 96.413304 364.160635 103.073409 370.692249 C 109.740653 377.216725 118.699315 380.478963 129.949396 380.478963 C 141.199477 380.478963 150.300907 377.081096 157.239409 370.271085 C 164.256433 363.396828 167.761376 354.438166 167.761376 343.395098 L 167.761376 267.878214 C 167.761376 261.282355 167.968389 256.349737 168.389553 253.087499 C 168.803579 249.825261 170.15987 246.070475 172.451289 241.837417 C 176.127553 234.406368 187.070684 230.694412 205.259267 230.694412 C 223.176591 230.694412 234.112584 234.541997 238.074383 242.251443 C 240.087405 246.491639 241.300929 250.274978 241.722093 253.6086 C 242.136119 256.870838 242.343132 261.767764 242.343132 268.29224 L 242.343132 419.333145 C 242.343132 425.586363 242.136119 430.340522 241.722093 433.60276 C 241.300929 436.864998 239.951776 440.477016 237.660357 444.438815 C 233.420161 451.869865 222.484169 455.58182 204.845241 455.58182 C 187.48471 455.58182 176.827114 452.183953 172.865315 445.373942 C 170.017103 440.512708 168.596566 434.680655 168.596566 427.877782 C 167.418734 429.81942 164.848918 432.667632 160.887119 436.41528 C 156.932459 440.098682 153.077736 443.225291 149.32295 445.795107 C 139.671865 452.041186 129.149898 455.167795 117.764188 455.167795 Z M 117.764188 455.167795 " stroke="#7b0008" stroke-width="21.333349" stroke-opacity="1" stroke-miterlimit="4"/><g fill="#f63845" fill-opacity="1"><g transform="translate(230.7634, 296.162429)"><g><path d="M 63.96875 -0.46875 C 48.25 -0.46875 35.210938 -6.421875 24.859375 -18.328125 C 14.515625 -30.234375 9.34375 -44.75 9.34375 -61.875 L 9.34375 -102.71875 C 9.34375 -106.457031 9.457031 -109.179688 9.6875 -110.890625 C 9.925781 -112.609375 10.585938 -114.632812 11.671875 -116.96875 C 13.847656 -121.164062 19.921875 -123.265625 29.890625 -123.265625 C 40.785156 -123.265625 47.164062 -120.3125 49.03125 -114.40625 C 49.957031 -111.914062 50.421875 -107.945312 50.421875 -102.5 L 50.421875 -61.640625 C 50.421875 -55.253906 52.25 -50.269531 55.90625 -46.6875 C 59.570312 -43.113281 64.476562 -41.328125 70.625 -41.328125 C 76.769531 -41.328125 81.75 -43.191406 85.5625 -46.921875 C 89.375 -50.660156 91.28125 -55.566406 91.28125 -61.640625 L 91.28125 -102.953125 C 91.28125 -106.535156 91.394531 -109.222656 91.625 -111.015625 C 91.863281 -112.804688 92.609375 -114.867188 93.859375 -117.203125 C 95.878906 -121.242188 101.867188 -123.265625 111.828125 -123.265625 C 121.640625 -123.265625 127.632812 -121.164062 129.8125 -116.96875 C 130.894531 -114.632812 131.550781 -112.570312 131.78125 -110.78125 C 132.019531 -108.988281 132.140625 -106.300781 132.140625 -102.71875 L 132.140625 -20.078125 C 132.140625 -16.648438 132.019531 -14.039062 131.78125 -12.25 C 131.550781 -10.46875 130.816406 -8.484375 129.578125 -6.296875 C 127.242188 -2.253906 121.25 -0.234375 111.59375 -0.234375 C 102.101562 -0.234375 96.269531 -2.101562 94.09375 -5.84375 C 92.53125 -8.488281 91.75 -11.675781 91.75 -15.40625 C 91.125 -14.320312 89.722656 -12.765625 87.546875 -10.734375 C 85.367188 -8.710938 83.269531 -7.003906 81.25 -5.609375 C 75.957031 -2.179688 70.195312 -0.46875 63.96875 -0.46875 Z M 63.96875 -0.46875 "/></g></g></g></svg>