<svg xmlns="http://www.w3.org/2000/svg" xmlns:xlink="http://www.w3.org/1999/xlink" width="500" zoomAndPan="magnify" viewBox="0 0 375 374.999991" height="500" preserveAspectRatio="xMidYMid meet" version="1.0"><defs><g/></defs><path stroke-linecap="butt" transform="matrix(0.536567, 0, 0, 0.536567, -24.724989, 56.28398)" fill="none" stroke-linejoin="miter" d="M 381.793376 91.854911 C 391.104593 87.275743 400.721574 84.152591 410.651597 82.485453 C 420.647142 80.745515 430.133081 80.643594 439.087575 82.17241 C 448.114869 83.701226 456.064712 86.9627 462.944384 91.964112 C 469.882296 96.965525 475.05843 103.837916 478.465506 112.588568 C 481.930822 121.266418 482.906352 131.96085 481.377536 144.671863 C 480.409286 152.658106 478.807669 162.55173 476.587246 174.360013 C 474.432344 186.095496 471.898877 198.799228 468.979567 212.478491 C 466.067536 226.092234 462.871583 240.048139 459.398987 254.353489 C 455.999191 268.658838 452.526595 282.622024 448.981198 296.228486 C 445.508602 309.769428 442.145206 322.130997 438.876452 333.313194 C 435.687779 344.49539 432.768469 353.762927 430.133081 361.123084 C 423.668373 363.277987 416.031574 365.607611 407.215402 368.104677 C 398.391949 370.674544 388.949691 372.756646 378.881346 374.350982 C 368.878521 376.01812 358.744655 376.542285 348.465188 375.916199 C 338.258521 375.362913 328.53234 373.13521 319.301203 369.247649 C 310.128307 365.360088 301.974622 359.077383 294.818307 350.399532 C 287.734793 341.648881 282.216496 329.876998 278.256134 315.083883 C 275.96291 306.544354 274.193852 298.594511 272.941679 291.227074 C 271.762307 283.801396 270.721256 275.778753 269.818526 267.166423 C 268.988598 258.554093 267.911146 248.172704 266.593453 236.022257 C 265.829045 236.022257 265.202958 236.022257 264.715193 236.022257 C 264.300229 236.022257 263.776063 236.022257 263.149977 236.022257 C 261.067875 253.108596 258.70913 272.408077 256.066463 293.935262 C 253.431075 315.469727 250.686486 336.924111 247.839977 358.312975 C 241.382549 360.395077 233.84767 362.6883 225.23534 365.185367 C 216.62301 367.616912 207.391874 369.633493 197.527371 371.22783 C 187.670148 372.894967 177.703724 373.521054 167.635379 373.106089 C 157.567034 372.756646 147.775331 370.914786 138.260272 367.580512 C 128.818013 364.253517 120.205683 358.80074 112.423282 351.229461 C 104.648161 343.658182 98.117933 333.415115 92.839877 320.50026 C 89.789525 313.067302 87.110458 303.384801 84.824514 291.438196 C 82.53129 279.491591 80.449188 266.125372 78.570928 251.332257 C 76.699949 236.546423 74.89449 221.054421 73.154552 204.878092 C 71.487414 188.628962 69.893078 172.518154 68.364262 156.545667 C 66.835446 140.500379 65.204709 125.365101 63.472051 111.132553 C 65.204709 105.293932 68.815626 100.052277 74.304804 95.400308 C 79.786701 90.74834 86.280529 87.064621 93.779007 84.356433 C 101.277486 81.582724 109.096287 80.090308 117.220852 79.879186 C 125.410938 79.668064 133.193339 80.956637 140.553496 83.730346 C 147.979173 86.438535 154.196358 91.024983 159.197771 97.48241 C 164.264704 103.939837 167.358736 112.486647 168.465307 123.108278 C 172.076225 155.744859 174.020005 184.493879 174.296648 209.355339 C 174.580571 234.151278 175.650742 254.601011 177.529002 270.71182 C 177.943966 270.71182 178.366211 270.71182 178.781175 270.71182 C 179.26894 270.71182 179.822226 270.71182 180.448313 270.71182 C 183.0837 259.740745 185.726368 248.76239 188.361755 237.791316 C 191.004423 226.75472 193.676211 215.536123 196.384399 204.150084 C 198.815944 194.285581 201.589653 183.489228 204.712806 171.753746 C 207.843239 160.018263 210.929991 148.457502 213.987623 137.064183 C 217.045255 125.678145 219.782564 115.6462 222.214109 106.961069 C 224.718455 98.210418 226.414713 92.029633 227.317442 88.418715 C 231.692768 86.889899 237.109145 85.368363 243.566572 83.839547 C 250.03128 82.310731 256.903671 81.371602 264.191027 81.022158 C 271.485664 80.607194 278.532777 81.23328 285.339648 82.900418 C 292.21204 84.494754 298.327304 87.588787 303.67088 92.167954 C 309.087256 96.681602 313.120419 103.284631 315.755806 111.962481 C 322.977642 134.945681 330.061156 160.083784 337.006348 187.376789 C 343.951541 214.669794 351.377218 243.00385 359.297941 272.378957 C 359.851227 272.240636 360.717556 272.167835 361.904208 272.167835 C 363.425744 263.417183 364.99096 252.897474 366.585297 240.608705 C 368.186914 228.247136 369.75213 215.121159 371.273666 201.230774 C 372.802482 187.274868 374.265777 173.420883 375.648992 159.66882 C 377.112287 145.916756 378.35718 133.176623 379.398231 121.44114 C 380.439282 109.632857 381.24009 99.775634 381.793376 91.854911 Z M 381.793376 91.854911 " stroke="#436100" stroke-width="16.000013" stroke-opacity="1" stroke-miterlimit="4"/><g fill="#91c123" fill-opacity="1"><g transform="translate(4.46762, 253.740709)"><g><path d="M 175.671875 -148.203125 C 180.660156 -150.640625 185.820312 -152.316406 191.15625 -153.234375 C 196.5 -154.148438 201.585938 -154.203125 206.421875 -153.390625 C 211.253906 -152.578125 215.523438 -150.820312 219.234375 -148.125 C 222.953125 -145.425781 225.726562 -141.734375 227.5625 -137.046875 C 229.394531 -132.367188 229.90625 -126.625 229.09375 -119.8125 C 228.582031 -115.539062 227.738281 -110.25 226.5625 -103.9375 C 225.394531 -97.625 224.019531 -90.804688 222.4375 -83.484375 C 220.863281 -76.160156 219.160156 -68.65625 217.328125 -60.96875 C 215.503906 -53.289062 213.648438 -45.8125 211.765625 -38.53125 C 209.878906 -31.257812 208.070312 -24.617188 206.34375 -18.609375 C 204.613281 -12.609375 203.039062 -7.625 201.625 -3.65625 C 198.15625 -2.539062 194.054688 -1.296875 189.328125 0.078125 C 184.597656 1.453125 179.535156 2.570312 174.140625 3.4375 C 168.753906 4.300781 163.3125 4.578125 157.8125 4.265625 C 152.320312 3.960938 147.109375 2.769531 142.171875 0.6875 C 137.234375 -1.394531 132.859375 -4.773438 129.046875 -9.453125 C 125.234375 -14.140625 122.253906 -20.453125 120.109375 -28.390625 C 118.890625 -32.960938 117.945312 -37.234375 117.28125 -41.203125 C 116.625 -45.171875 116.066406 -49.46875 115.609375 -54.09375 C 115.148438 -58.726562 114.566406 -64.300781 113.859375 -70.8125 C 113.453125 -70.8125 113.117188 -70.8125 112.859375 -70.8125 C 112.609375 -70.8125 112.332031 -70.8125 112.03125 -70.8125 C 110.90625 -61.65625 109.628906 -51.300781 108.203125 -39.75 C 106.785156 -28.207031 105.3125 -16.6875 103.78125 -5.1875 C 100.320312 -4.070312 96.273438 -2.851562 91.640625 -1.53125 C 87.015625 -0.207031 82.054688 0.882812 76.765625 1.75 C 71.472656 2.613281 66.128906 2.941406 60.734375 2.734375 C 55.347656 2.535156 50.109375 1.546875 45.015625 -0.234375 C 39.929688 -2.015625 35.300781 -4.9375 31.125 -9 C 26.957031 -13.070312 23.453125 -18.566406 20.609375 -25.484375 C 18.972656 -29.453125 17.546875 -34.640625 16.328125 -41.046875 C 15.109375 -47.460938 13.988281 -54.640625 12.96875 -62.578125 C 11.957031 -70.515625 10.992188 -78.832031 10.078125 -87.53125 C 9.160156 -96.226562 8.289062 -104.875 7.46875 -113.46875 C 6.65625 -122.070312 5.796875 -130.191406 4.890625 -137.828125 C 5.796875 -140.972656 7.722656 -143.789062 10.671875 -146.28125 C 13.628906 -148.78125 17.117188 -150.765625 21.140625 -152.234375 C 25.160156 -153.710938 29.359375 -154.503906 33.734375 -154.609375 C 38.109375 -154.710938 42.28125 -154.023438 46.25 -152.546875 C 50.21875 -151.066406 53.546875 -148.597656 56.234375 -145.140625 C 58.929688 -141.679688 60.585938 -137.101562 61.203125 -131.40625 C 63.140625 -113.90625 64.179688 -98.488281 64.328125 -85.15625 C 64.484375 -71.832031 65.070312 -60.847656 66.09375 -52.203125 C 66.289062 -52.203125 66.515625 -52.203125 66.765625 -52.203125 C 67.023438 -52.203125 67.304688 -52.203125 67.609375 -52.203125 C 69.035156 -58.097656 70.457031 -63.992188 71.875 -69.890625 C 73.300781 -75.796875 74.726562 -81.800781 76.15625 -87.90625 C 77.476562 -93.195312 78.976562 -99 80.65625 -105.3125 C 82.34375 -111.625 84 -117.832031 85.625 -123.9375 C 87.25 -130.039062 88.722656 -135.429688 90.046875 -140.109375 C 91.367188 -144.785156 92.285156 -148.09375 92.796875 -150.03125 C 95.140625 -150.84375 98.039062 -151.65625 101.5 -152.46875 C 104.957031 -153.28125 108.644531 -153.785156 112.5625 -153.984375 C 116.476562 -154.191406 120.265625 -153.863281 123.921875 -153 C 127.585938 -152.132812 130.867188 -150.484375 133.765625 -148.046875 C 136.671875 -145.609375 138.835938 -142.046875 140.265625 -137.359375 C 144.128906 -125.046875 147.914062 -111.5625 151.625 -96.90625 C 155.34375 -82.257812 159.335938 -67.050781 163.609375 -51.28125 C 163.921875 -51.382812 164.378906 -51.4375 164.984375 -51.4375 C 165.796875 -56.113281 166.632812 -61.757812 167.5 -68.375 C 168.363281 -74.988281 169.203125 -82.035156 170.015625 -89.515625 C 170.835938 -96.992188 171.628906 -104.421875 172.390625 -111.796875 C 173.148438 -119.171875 173.8125 -126.007812 174.375 -132.3125 C 174.9375 -138.625 175.367188 -143.921875 175.671875 -148.203125 Z M 175.671875 -148.203125 "/></g></g></g><path stroke-linecap="butt" transform="matrix(0.380292, 0, 0, 0.380292, 239.653554, 78.632572)" fill="none" stroke-linejoin="miter" d="M 305.323734 232.881097 C 323.514953 240.790322 332.615698 250.589544 332.615698 262.247948 C 332.615698 267.116744 330.325104 274.892437 325.743916 285.585299 C 321.224359 296.206258 317.403279 305.512438 314.280675 313.503837 L 267.308094 427.879454 C 263.065873 440.380139 255.94757 449.193275 245.953185 454.329136 C 241.710964 456.280763 236.297767 457.246305 229.703322 457.246305 C 223.170507 457.246305 216.853399 454.781092 210.741725 449.850666 C 204.63005 444.858609 200.603536 439.784379 198.66218 434.648518 L 195.221154 427.458313 C 192.93056 421.76778 184.528292 399.580862 170.01435 360.897559 C 167.169083 367.70771 162.967949 378.852528 157.410948 394.332012 C 151.853946 409.821768 148.279387 419.508001 146.676999 423.400983 C 145.156784 427.211792 144.180971 429.789994 143.75983 431.104774 C 143.348961 432.357924 142.126626 434.679333 140.113369 438.079273 C 138.172014 441.489484 135.912235 444.468284 133.344305 447.046486 C 126.544425 453.846365 118.727645 457.246305 109.914508 457.246305 C 101.0911 457.246305 93.69546 454.781092 87.72759 449.850666 C 81.749449 444.858609 77.753749 439.784379 75.740492 434.648518 L 11.264897 277.665801 C 8.41963 269.130001 6.991861 263.573 6.991861 261.005069 C 6.991861 249.613731 15.116792 240.65679 31.366656 234.123975 C 40.467401 230.446699 47.86304 228.608061 53.553574 228.608061 C 59.254379 228.608061 63.866382 229.820124 67.410126 232.254522 C 70.953869 234.617017 73.419083 237.010329 74.805765 239.444726 C 76.264349 241.868853 77.414782 244.375153 78.246792 246.943083 C 83.105316 258.334422 93.21269 285.061441 108.558641 327.144683 L 133.765445 257.985183 C 135.501366 252.35628 138.623969 247.395039 143.143527 243.091188 C 151.401991 234.822452 159.804259 230.69322 168.350331 230.69322 C 176.886131 230.69322 184.209869 232.983814 190.321543 237.565001 C 196.433217 242.084559 200.634351 246.62466 202.924945 251.216119 L 206.263254 258.498769 C 220.49986 298.291418 228.902128 321.033009 231.470058 326.733814 L 257.508872 255.900024 C 264.319023 237.708806 274.559929 228.608061 288.241862 228.608061 C 293.655059 228.608061 299.355864 230.03583 305.323734 232.881097 Z M 305.323734 232.881097 " stroke="#436100" stroke-width="21.333349" stroke-opacity="1" stroke-miterlimit="4"/><g fill="#91c123" fill-opacity="1"><g transform="translate(239.897178, 252.045572)"><g><path d="M 115.84375 -84.859375 C 122.769531 -81.828125 126.234375 -78.09375 126.234375 -73.65625 C 126.234375 -71.820312 125.363281 -68.875 123.625 -64.8125 C 121.894531 -60.757812 120.4375 -57.21875 119.25 -54.1875 L 101.40625 -10.703125 C 99.78125 -5.941406 97.078125 -2.59375 93.296875 -0.65625 C 91.671875 0.101562 89.613281 0.484375 87.125 0.484375 C 84.632812 0.484375 82.226562 -0.457031 79.90625 -2.34375 C 77.582031 -4.238281 76.039062 -6.160156 75.28125 -8.109375 L 73.984375 -10.875 C 73.117188 -13.03125 69.925781 -21.46875 64.40625 -36.1875 C 63.332031 -33.582031 61.738281 -29.332031 59.625 -23.4375 C 57.519531 -17.550781 56.164062 -13.875 55.5625 -12.40625 C 54.96875 -10.945312 54.585938 -9.972656 54.421875 -9.484375 C 54.265625 -9.003906 53.804688 -8.113281 53.046875 -6.8125 C 52.296875 -5.519531 51.429688 -4.382812 50.453125 -3.40625 C 47.859375 -0.8125 44.882812 0.484375 41.53125 0.484375 C 38.175781 0.484375 35.363281 -0.457031 33.09375 -2.34375 C 30.820312 -4.238281 29.3125 -6.160156 28.5625 -8.109375 L 4.0625 -67.828125 C 2.976562 -71.066406 2.4375 -73.171875 2.4375 -74.140625 C 2.4375 -78.472656 5.519531 -81.882812 11.6875 -84.375 C 15.144531 -85.78125 17.953125 -86.484375 20.109375 -86.484375 C 22.273438 -86.484375 24.035156 -86.019531 25.390625 -85.09375 C 26.742188 -84.175781 27.691406 -83.257812 28.234375 -82.34375 C 28.773438 -81.425781 29.207031 -80.476562 29.53125 -79.5 C 31.363281 -75.175781 35.203125 -65.007812 41.046875 -49 L 50.625 -75.28125 C 51.269531 -77.445312 52.457031 -79.34375 54.1875 -80.96875 C 57.320312 -84.101562 60.507812 -85.671875 63.75 -85.671875 C 67 -85.671875 69.785156 -84.800781 72.109375 -83.0625 C 74.441406 -81.332031 76.039062 -79.601562 76.90625 -77.875 L 78.203125 -75.125 C 83.609375 -59.976562 86.800781 -51.320312 87.78125 -49.15625 L 97.671875 -76.09375 C 100.265625 -83.019531 104.160156 -86.484375 109.359375 -86.484375 C 111.410156 -86.484375 113.570312 -85.941406 115.84375 -84.859375 Z M 115.84375 -84.859375 "/></g></g></g></svg>