<svg xmlns="http://www.w3.org/2000/svg" xmlns:xlink="http://www.w3.org/1999/xlink" width="500" zoomAndPan="magnify" viewBox="0 0 375 374.999991" height="500" preserveAspectRatio="xMidYMid meet" version="1.0"><defs><g/></defs><path stroke-linecap="butt" transform="matrix(0.885452, 0, 0, 0.885452, 14.483438, 5.505585)" fill="none" stroke-linejoin="miter" d="M 123.50789 163.623921 C 124.328445 161.859286 125.890148 158.241783 128.184174 152.771414 C 130.53555 147.301044 133.270735 140.802774 136.385317 133.276604 C 139.50431 125.746022 142.795355 117.924276 146.267275 109.811365 C 149.734783 101.694042 153.05671 94.10611 156.233053 87.05198 C 159.471159 79.936087 162.201933 74.143672 164.438608 69.670321 C 171.378037 67.733633 178.317465 67.204243 185.256894 68.086561 C 192.253673 68.968878 198.694593 71.024679 204.57524 74.258373 C 210.455888 77.434717 215.308635 81.727192 219.133482 87.140211 C 223.01568 92.491468 225.278825 98.755924 225.922917 105.929167 C 226.57142 113.045059 225.040599 120.955037 221.339276 129.659101 C 217.280615 138.949907 213.252835 147.53927 209.251524 155.418367 C 205.254625 163.297464 201.107732 171.150091 196.815256 178.971838 C 192.580131 186.736234 188.080311 195.11384 183.315795 204.113481 C 178.613042 213.10871 173.614712 223.286244 168.320806 234.637262 C 165.907667 238.987088 164.703303 243.425146 164.703303 247.955847 C 164.703303 253.249753 164.703303 259.042169 164.703303 265.333094 C 164.703303 271.566669 164.615071 277.62378 164.438608 283.504427 C 164.319495 289.327724 164.204794 294.268703 164.085681 298.327365 C 164.02833 302.324264 163.997449 304.794754 163.997449 305.738834 C 162.232814 308.147561 158.941769 310.234242 154.115491 311.998878 C 149.293625 313.763513 143.651203 314.998758 137.179403 315.704612 C 130.769364 316.467817 124.125512 316.353116 117.243434 315.351685 C 110.361356 314.412017 103.893967 312.470918 97.836856 309.528388 C 91.837096 306.528508 86.869647 302.236032 82.925687 296.650961 C 78.986138 291.004128 76.868576 283.830885 76.577411 275.126821 C 76.577411 273.715113 76.577411 271.566669 76.577411 268.685902 C 76.577411 265.747784 76.577411 262.686141 76.577411 259.509798 C 76.577411 256.276103 76.603881 253.426217 76.665643 250.955727 C 76.722994 248.427887 76.753875 246.777953 76.753875 246.014748 C 76.634762 243.897186 76.370066 242.220782 75.959789 240.985537 C 75.545099 239.692942 74.927477 238.223883 74.106922 236.573949 C 69.285055 227.283144 63.872036 216.787974 57.876687 205.08403 C 51.876927 193.322735 45.731584 181.146751 39.436248 168.560489 C 33.202673 155.978638 27.264675 143.537959 21.617842 131.247273 C 15.971008 118.956588 11.00356 107.574689 6.711084 97.10599 C 9.887428 89.403356 14.206373 83.112431 19.676743 78.228803 C 25.147112 73.349586 31.115992 69.820315 37.58338 67.645402 C 44.112531 65.466077 50.553451 64.55729 56.906138 64.910217 C 63.254414 65.201382 68.901247 66.674852 73.842226 69.321805 C 78.840556 71.964347 82.634522 75.612731 85.219713 80.258133 C 87.809316 85.08 90.57097 90.784183 93.513499 97.370685 C 96.51338 103.957187 99.51326 110.870146 102.51314 118.10074 C 105.570371 125.335745 108.451138 132.275173 111.155442 138.923437 C 113.921508 145.56729 116.418467 151.390586 118.655142 156.388916 C 119.184533 157.505048 119.683042 158.62118 120.155082 159.741723 C 120.627122 160.857855 121.094751 162.062219 121.566791 163.359226 C 122.56381 163.359226 123.212313 163.447458 123.50789 163.623921 Z M 123.50789 163.623921 " stroke="#803a00" stroke-width="13.550025" stroke-opacity="1" stroke-miterlimit="4"/><g fill="#ff7c10" fill-opacity="1"><g transform="translate(16.987607, 281.766619)"><g><path d="M 106.859375 -131.390625 C 107.566406 -132.953125 108.953125 -136.148438 111.015625 -140.984375 C 113.078125 -145.816406 115.492188 -151.570312 118.265625 -158.25 C 121.035156 -164.9375 123.945312 -171.867188 127 -179.046875 C 130.0625 -186.234375 133.015625 -192.953125 135.859375 -199.203125 C 138.703125 -205.460938 141.125 -210.585938 143.125 -214.578125 C 149.238281 -216.273438 155.382812 -216.734375 161.5625 -215.953125 C 167.75 -215.171875 173.4375 -213.359375 178.625 -210.515625 C 183.820312 -207.671875 188.125 -203.867188 191.53125 -199.109375 C 194.945312 -194.347656 196.9375 -188.800781 197.5 -182.46875 C 198.070312 -176.144531 196.722656 -169.144531 193.453125 -161.46875 C 189.898438 -153.21875 186.34375 -145.609375 182.78125 -138.640625 C 179.226562 -131.671875 175.566406 -124.738281 171.796875 -117.84375 C 168.035156 -110.945312 164.054688 -103.515625 159.859375 -95.546875 C 155.660156 -87.585938 151.21875 -78.5625 146.53125 -68.46875 C 144.394531 -64.625 143.328125 -60.710938 143.328125 -56.734375 C 143.328125 -52.046875 143.328125 -46.925781 143.328125 -41.375 C 143.328125 -35.832031 143.253906 -30.460938 143.109375 -25.265625 C 142.972656 -20.078125 142.867188 -15.707031 142.796875 -12.15625 C 142.722656 -8.601562 142.6875 -6.398438 142.6875 -5.546875 C 141.125 -3.410156 138.207031 -1.5625 133.9375 0 C 129.675781 1.5625 124.703125 2.660156 119.015625 3.296875 C 113.328125 3.941406 107.425781 3.835938 101.3125 2.984375 C 95.195312 2.128906 89.472656 0.390625 84.140625 -2.234375 C 78.804688 -4.867188 74.394531 -8.671875 70.90625 -13.640625 C 67.425781 -18.617188 65.546875 -24.953125 65.265625 -32.640625 C 65.265625 -33.910156 65.265625 -35.828125 65.265625 -38.390625 C 65.265625 -40.953125 65.265625 -43.65625 65.265625 -46.5 C 65.265625 -49.34375 65.300781 -51.863281 65.375 -54.0625 C 65.445312 -56.269531 65.484375 -57.726562 65.484375 -58.4375 C 65.335938 -60.289062 65.085938 -61.785156 64.734375 -62.921875 C 64.378906 -64.054688 63.847656 -65.335938 63.140625 -66.765625 C 58.867188 -75.003906 54.066406 -84.3125 48.734375 -94.6875 C 43.398438 -105.070312 37.960938 -115.847656 32.421875 -127.015625 C 26.878906 -138.179688 21.617188 -149.203125 16.640625 -160.078125 C 11.660156 -170.953125 7.25 -181.007812 3.40625 -190.25 C 6.25 -197.082031 10.085938 -202.664062 14.921875 -207 C 19.765625 -211.332031 25.0625 -214.457031 30.8125 -216.375 C 36.570312 -218.300781 42.257812 -219.117188 47.875 -218.828125 C 53.5 -218.546875 58.515625 -217.234375 62.921875 -214.890625 C 67.328125 -212.546875 70.671875 -209.3125 72.953125 -205.1875 C 75.222656 -200.914062 77.671875 -195.863281 80.296875 -190.03125 C 82.929688 -184.207031 85.597656 -178.097656 88.296875 -171.703125 C 91.003906 -165.304688 93.566406 -159.15625 95.984375 -153.25 C 98.398438 -147.351562 100.601562 -142.195312 102.59375 -137.78125 C 103.019531 -136.789062 103.445312 -135.796875 103.875 -134.796875 C 104.300781 -133.804688 104.726562 -132.738281 105.15625 -131.59375 C 106.007812 -131.59375 106.578125 -131.523438 106.859375 -131.390625 Z M 106.859375 -131.390625 "/></g></g></g><path stroke-linecap="butt" transform="matrix(0.46066, 0, 0, 0.46066, 221.925357, 29.431873)" fill="none" stroke-linejoin="miter" d="M 227.468585 233.71245 C 244.275329 241.072821 252.678701 250.027372 252.678701 260.584586 C 252.678701 265.723277 251.533943 270.582139 249.244427 275.169651 C 246.946431 279.680846 245.801673 282.080598 245.801673 282.360428 L 134.030889 532.350146 C 131.741373 537.768668 129.799524 541.898276 128.205342 544.747452 C 126.670519 547.596627 124.211409 550.301648 120.802574 552.870994 C 117.402218 555.44034 113.128455 556.729253 107.989763 556.729253 C 102.851072 556.729253 95.321108 554.575412 85.391391 550.26773 C 68.584647 542.907359 60.181275 534.088483 60.181275 523.811099 C 60.181275 517.001909 73.825095 484.439902 101.121215 426.10812 L 16.222566 283.191437 C 10.532695 273.812901 7.683519 266.834117 7.683519 262.255084 C 7.683519 253.156378 15.391557 244.057671 30.807632 234.958965 C 40.457518 229.269093 47.995962 226.419918 53.414483 226.419918 C 58.824525 226.419918 63.233963 227.564676 66.642798 229.854192 C 70.043154 232.152188 72.510743 234.509541 74.037087 236.943212 C 75.631269 239.368403 83.441063 252.596718 97.474949 276.628158 C 111.568192 300.651117 125.042418 323.054456 137.889148 343.812736 C 139.279817 339.233703 146.953935 321.663787 160.911504 291.102987 C 174.869072 260.550667 182.331199 244.269663 183.306363 242.251497 C 184.273048 240.241811 185.909628 237.80814 188.199144 234.958965 C 191.879329 230.16794 197.051939 227.776668 203.716975 227.776668 C 210.458328 227.776668 218.369878 229.752435 227.468585 233.71245 Z M 227.468585 233.71245 " stroke="#803a00" stroke-width="21.333349" stroke-opacity="1" stroke-miterlimit="4"/><g fill="#ff7c10" fill-opacity="1"><g transform="translate(222.537171, 239.492637)"><g><path d="M 104.171875 -102.40625 C 111.898438 -99 115.765625 -94.867188 115.765625 -90.015625 C 115.765625 -87.660156 115.238281 -85.429688 114.1875 -83.328125 C 113.144531 -81.234375 112.625 -80.125 112.625 -80 L 61.125 35.1875 C 60.070312 37.675781 59.1875 39.570312 58.46875 40.875 C 57.75 42.1875 56.601562 43.429688 55.03125 44.609375 C 53.457031 45.796875 51.488281 46.390625 49.125 46.390625 C 46.769531 46.390625 43.300781 45.40625 38.71875 43.4375 C 30.988281 40.03125 27.125 35.96875 27.125 31.25 C 27.125 28.101562 33.410156 13.097656 45.984375 -13.765625 L 6.875 -79.59375 C 4.257812 -83.925781 2.953125 -87.140625 2.953125 -89.234375 C 2.953125 -93.421875 6.488281 -97.613281 13.5625 -101.8125 C 18.019531 -104.425781 21.492188 -105.734375 23.984375 -105.734375 C 26.472656 -105.734375 28.503906 -105.207031 30.078125 -104.15625 C 31.648438 -103.113281 32.796875 -102.035156 33.515625 -100.921875 C 34.234375 -99.804688 37.832031 -93.710938 44.3125 -82.640625 C 50.800781 -71.578125 56.992188 -61.257812 62.890625 -51.6875 C 63.546875 -53.789062 67.082031 -61.882812 73.5 -75.96875 C 79.925781 -90.050781 83.367188 -97.550781 83.828125 -98.46875 C 84.285156 -99.382812 85.039062 -100.5 86.09375 -101.8125 C 87.789062 -104.039062 90.175781 -105.15625 93.25 -105.15625 C 96.332031 -105.15625 99.972656 -104.238281 104.171875 -102.40625 Z M 104.171875 -102.40625 "/></g></g></g></svg>