<svg xmlns="http://www.w3.org/2000/svg" xmlns:xlink="http://www.w3.org/1999/xlink" width="500" zoomAndPan="magnify" viewBox="0 0 375 374.999991" height="500" preserveAspectRatio="xMidYMid meet" version="1.0"><defs><clipPath id="ddabe2d4a0"><path d="M 79.5625 44 L 303.808594 44 L 303.808594 342.480469 L 79.5625 342.480469 Z M 79.5625 44 " clip-rule="nonzero"/></clipPath></defs><path fill="#eb921c" d="M 188.46875 51.488281 C 138.144531 51.488281 86.578125 62.296875 86.578125 75.621094 C 86.578125 76.878906 87.164062 78.105469 88.039062 79.3125 C 87.9375 80.617188 87.777344 81.90625 88.085938 83.328125 L 105.175781 162.25 C 106.625 168.878906 112.492188 174.28125 119.109375 176.003906 L 132.058594 310.746094 C 132.160156 311.800781 132.644531 312.738281 132.953125 313.734375 C 132.832031 314.464844 132.714844 315.199219 132.714844 315.726562 C 132.714844 326.363281 158.324219 334.988281 189.949219 334.988281 C 221.554688 334.988281 247.175781 326.363281 247.175781 315.726562 C 247.175781 315.417969 247.191406 314.847656 247.222656 314.363281 C 247.675781 313.191406 248.214844 312.0625 248.359375 310.773438 L 263.871094 175.191406 C 269.402344 172.839844 274.101562 168.023438 275.546875 162.367188 L 295.875 82.230469 C 296.152344 81.082031 296.007812 80.0625 296.019531 78.992188 C 296.515625 78.132812 296.8125 77.257812 296.8125 76.363281 C 296.8125 63.03125 238.761719 51.488281 188.46875 51.488281 Z M 188.46875 51.488281 " fill-opacity="1" fill-rule="nonzero"/><g clip-path="url(#ddabe2d4a0)"><path fill="#eb921c" d="M 189.949219 342.011719 C 159.003906 342.011719 125.699219 333.785156 125.699219 315.726562 C 125.699219 315.300781 125.726562 314.878906 125.765625 314.46875 C 125.488281 313.660156 125.191406 312.625 125.074219 311.421875 L 112.542969 181.039062 C 105.398438 177.609375 99.933594 171.117188 98.320312 163.75 L 81.226562 84.816406 C 80.925781 83.417969 80.867188 82.148438 80.894531 81.050781 C 80 79.261719 79.5625 77.464844 79.5625 75.621094 C 79.5625 50.058594 158.175781 44.460938 188.46875 44.460938 C 213.394531 44.460938 241.253906 47.304688 262.996094 52.0625 C 299.597656 60.070312 303.828125 69.765625 303.828125 76.359375 C 303.828125 77.75 303.570312 79.125 303.0625 80.476562 C 303.070312 81.390625 303.015625 82.5625 302.695312 83.878906 L 282.351562 164.09375 C 280.75 170.34375 276.324219 176.039062 270.417969 179.683594 L 255.332031 311.570312 C 255.136719 313.285156 254.632812 314.714844 254.191406 315.824219 C 254.066406 333.816406 220.832031 342.011719 189.949219 342.011719 Z M 139.742188 315.753906 C 140.636719 319.09375 157.3125 327.960938 189.949219 327.960938 C 222.667969 327.960938 239.347656 319.042969 240.164062 315.652344 C 240.15625 315.316406 240.175781 314.5625 240.214844 313.921875 L 240.285156 312.839844 L 240.972656 311.078125 C 241.132812 310.679688 241.355469 310.132812 241.394531 309.941406 L 257.363281 170.324219 L 261.128906 168.722656 C 264.910156 167.117188 267.902344 163.933594 268.75 160.617188 L 289.03125 80.667969 C 289.042969 80.460938 289.023438 80.257812 289.019531 80.058594 C 289.007812 79.675781 289 79.292969 289.003906 78.902344 L 289.027344 77.058594 L 289.378906 76.449219 C 282.929688 69.75 239.910156 58.511719 188.46875 58.511719 C 166.054688 58.511719 142.5 60.738281 123.835938 64.621094 C 103.757812 68.796875 96 73.433594 93.988281 75.546875 L 95.242188 77.277344 L 95 80.332031 C 94.949219 80.925781 94.894531 81.601562 94.945312 81.839844 L 112.035156 160.757812 C 112.859375 164.53125 116.578125 168.085938 120.875 169.203125 L 125.625 170.441406 L 139.023438 309.867188 C 139.078125 310.027344 139.140625 310.1875 139.203125 310.347656 C 139.363281 310.78125 139.519531 311.214844 139.65625 311.65625 L 140.140625 313.226562 L 139.882812 314.847656 C 139.828125 315.164062 139.769531 315.480469 139.742188 315.753906 Z M 139.742188 315.753906 " fill-opacity="1" fill-rule="nonzero"/></g><path fill="#fcca68" d="M 266.125 155.613281 C 267.019531 147.765625 261.3125 141.21875 253.441406 141.042969 L 129.773438 138.296875 C 121.886719 138.121094 116.0625 144.398438 116.824219 152.257812 L 132.058594 310.742188 C 132.160156 311.800781 132.644531 312.734375 132.949219 313.730469 C 132.832031 314.464844 132.714844 315.195312 132.714844 315.726562 C 132.714844 326.359375 158.324219 334.988281 189.945312 334.988281 C 221.554688 334.988281 247.175781 326.359375 247.175781 315.726562 C 247.175781 315.417969 247.191406 314.84375 247.21875 314.363281 C 247.671875 313.191406 248.214844 312.0625 248.359375 310.773438 Z M 266.125 155.613281 " fill-opacity="1" fill-rule="nonzero"/><path fill="#fab33e" d="M 265.894531 151.101562 C 263.667969 148.960938 261.449219 146.816406 259.246094 144.667969 C 259.097656 143.902344 258.71875 143.175781 258.097656 142.613281 C 257.554688 142.125 256.902344 141.832031 256.234375 141.71875 C 256.09375 141.585938 255.957031 141.449219 255.820312 141.316406 C 255.054688 141.164062 254.261719 141.0625 253.441406 141.042969 L 244.75 140.851562 C 246.480469 142.574219 248.222656 144.300781 249.988281 146.046875 C 246.617188 149.765625 242.835938 153.882812 238.710938 158.3125 C 234.6875 154.367188 230.722656 150.429688 226.839844 146.527344 C 228.878906 144.339844 230.722656 142.355469 232.367188 140.574219 L 222.46875 140.355469 C 222.191406 140.652344 221.902344 140.964844 221.621094 141.265625 C 221.308594 140.949219 220.992188 140.632812 220.679688 140.316406 L 210.0625 140.078125 C 212.171875 142.242188 214.332031 144.449219 216.542969 146.695312 C 212.910156 150.5625 209.0625 154.617188 205.039062 158.808594 C 201.023438 154.746094 197.109375 150.746094 193.328125 146.839844 C 195.648438 144.417969 197.878906 142.078125 199.992188 139.855469 L 189.996094 139.632812 C 189.398438 140.253906 188.796875 140.878906 188.195312 141.507812 C 187.566406 140.851562 186.9375 140.199219 186.320312 139.550781 L 175.886719 139.316406 C 178.148438 141.707031 180.550781 144.226562 183.058594 146.84375 C 179.28125 150.75 175.371094 154.75 171.355469 158.816406 C 167.328125 154.617188 163.476562 150.5625 159.839844 146.695312 C 162.375 144.121094 164.847656 141.59375 167.246094 139.125 L 157.109375 138.902344 C 156.335938 139.6875 155.554688 140.484375 154.769531 141.277344 C 153.992188 140.4375 153.226562 139.613281 152.472656 138.800781 L 142.164062 138.570312 C 144.222656 140.808594 146.703125 143.488281 149.554688 146.539062 C 145.671875 150.441406 141.707031 154.378906 137.683594 158.328125 C 133.554688 153.890625 129.765625 149.769531 126.394531 146.046875 C 129 143.472656 131.570312 140.917969 134.09375 138.390625 L 129.773438 138.296875 C 126.152344 138.214844 122.980469 139.507812 120.664062 141.675781 C 119.164062 143.082031 118.023438 144.855469 117.378906 146.878906 C 116.851562 148.53125 116.640625 150.347656 116.824219 152.257812 L 117.101562 155.117188 C 118.429688 153.828125 119.753906 152.542969 121.074219 151.257812 C 123.539062 153.960938 127.402344 158.167969 132.382812 163.5 C 128.394531 167.375 124.363281 171.242188 120.316406 175.070312 C 119.832031 174.550781 119.34375 174.027344 118.867188 173.515625 L 119.125 176.191406 L 120.027344 185.589844 L 120.03125 185.597656 C 120.03125 185.597656 120.03125 185.597656 120.035156 185.597656 C 123.492188 189.269531 127.332031 193.3125 131.476562 197.636719 C 128.324219 200.574219 125.167969 203.472656 122.023438 206.328125 L 122.621094 212.574219 L 122.914062 215.632812 L 123.757812 224.367188 C 125.910156 226.582031 128.125 228.839844 130.390625 231.136719 C 128.539062 232.765625 126.699219 234.371094 124.871094 235.953125 L 125.75 245.109375 C 128.96875 242.375 132.28125 239.496094 135.683594 236.488281 C 139.492188 240.316406 143.421875 244.226562 147.429688 248.167969 C 143.15625 251.929688 138.921875 255.578125 134.753906 259.066406 C 131.898438 256.265625 129.074219 253.46875 126.285156 250.683594 L 127.398438 262.289062 C 127.925781 262.808594 128.441406 263.324219 128.96875 263.839844 C 128.53125 264.199219 128.089844 264.558594 127.652344 264.914062 L 128.515625 273.863281 C 130.433594 272.347656 132.390625 270.777344 134.386719 269.148438 C 137.539062 272.21875 140.730469 275.300781 143.957031 278.378906 C 144.753906 279.136719 145.535156 279.875 146.324219 280.625 C 141.796875 284.3125 137.367188 287.785156 133.082031 291 C 132.007812 289.980469 130.9375 288.957031 129.867188 287.9375 L 130.355469 293.015625 L 130.957031 299.28125 L 131.183594 301.636719 C 131.613281 301.335938 132.046875 301.023438 132.480469 300.714844 C 136.648438 304.640625 140.703125 308.398438 144.648438 311.988281 C 140.867188 314.6875 137.21875 317.144531 133.730469 319.328125 C 134.792969 321.210938 136.664062 323 139.230469 324.648438 C 142.742188 322.421875 146.441406 319.921875 150.332031 317.128906 C 154.660156 321.003906 158.84375 324.664062 162.886719 328.121094 C 161.175781 329.351562 159.488281 330.542969 157.835938 331.675781 C 161.0625 332.414062 164.53125 333.039062 168.1875 333.546875 C 168.390625 333.402344 168.59375 333.253906 168.796875 333.105469 C 169.046875 333.316406 169.292969 333.519531 169.542969 333.726562 C 173.761719 334.269531 178.21875 334.644531 182.851562 334.835938 C 180.273438 332.796875 177.65625 330.671875 175.011719 328.488281 C 179.207031 325.292969 183.597656 321.804688 188.191406 318.019531 C 192.785156 321.804688 197.179688 325.296875 201.375 328.488281 C 198.679688 330.71875 196.019531 332.875 193.394531 334.953125 C 197.847656 334.863281 202.160156 334.601562 206.277344 334.191406 C 206.714844 333.832031 207.148438 333.472656 207.585938 333.105469 C 207.96875 333.386719 208.34375 333.652344 208.726562 333.925781 C 212.476562 333.484375 216.054688 332.921875 219.40625 332.242188 C 217.476562 330.9375 215.507812 329.558594 213.503906 328.117188 C 217.546875 324.660156 221.726562 321.003906 226.050781 317.128906 C 230.578125 320.378906 234.851562 323.246094 238.871094 325.726562 C 241.582031 324.226562 243.6875 322.589844 245.105469 320.859375 C 240.886719 318.320312 236.40625 315.347656 231.71875 312.003906 C 235.667969 308.40625 239.730469 304.644531 243.90625 300.714844 C 245.671875 301.976562 247.410156 303.195312 249.101562 304.335938 L 250.066406 295.898438 C 249.863281 295.753906 249.65625 295.605469 249.453125 295.460938 C 249.554688 295.367188 249.652344 295.273438 249.753906 295.179688 C 249.902344 295.035156 250.050781 294.894531 250.199219 294.753906 L 251.527344 283.125 C 248.808594 285.753906 246.070312 288.375 243.324219 290.984375 C 239.039062 287.773438 234.609375 284.296875 230.082031 280.605469 C 230.863281 279.863281 231.636719 279.132812 232.429688 278.378906 C 235.652344 275.304688 238.84375 272.222656 241.996094 269.148438 C 245.519531 272.023438 248.921875 274.722656 252.203125 277.238281 L 253.207031 268.472656 C 251.296875 266.96875 249.371094 265.425781 247.421875 263.835938 C 249.832031 261.460938 252.207031 259.101562 254.546875 256.765625 L 255.417969 249.140625 L 255.910156 244.867188 L 256.445312 240.164062 C 253 237.246094 249.511719 234.230469 245.996094 231.132812 C 250.019531 227.050781 253.894531 223.078125 257.5625 219.285156 C 257.945312 219.625 258.335938 219.976562 258.71875 220.3125 L 259.007812 217.78125 L 259.765625 211.164062 L 260.398438 205.652344 C 259.367188 206.734375 258.324219 207.824219 257.269531 208.921875 C 253.164062 205.234375 249.039062 201.457031 244.917969 197.625 C 249.0625 193.304688 252.894531 189.265625 256.347656 185.597656 C 258.28125 187.40625 260.199219 189.1875 262.082031 190.925781 L 263.140625 181.667969 C 262.589844 181.152344 262.039062 180.636719 261.484375 180.121094 C 262.207031 179.347656 262.90625 178.597656 263.578125 177.871094 L 265.007812 165.371094 C 262.261719 168.382812 259.277344 171.625 256.085938 175.054688 C 252.03125 171.226562 248.003906 167.363281 244.011719 163.488281 C 248.984375 158.160156 252.847656 153.960938 255.308594 151.261719 C 258.574219 154.449219 261.882812 157.644531 265.226562 160.835938 C 265.320312 160.921875 265.40625 161.003906 265.5 161.09375 L 266.125 155.613281 C 266.304688 154.039062 266.207031 152.527344 265.894531 151.101562 Z M 221.746094 151.960938 C 225.589844 155.828125 229.554688 159.777344 233.609375 163.765625 C 229.984375 167.621094 226.148438 171.660156 222.132812 175.839844 C 218.109375 171.894531 214.140625 167.960938 210.25 164.058594 C 214.417969 159.714844 218.273438 155.652344 221.746094 151.960938 Z M 193.539062 215.332031 C 197.570312 211.375 201.515625 207.453125 205.351562 203.605469 C 207.960938 206.140625 210.597656 208.679688 213.257812 211.214844 C 214.65625 212.550781 216.035156 213.855469 217.410156 215.15625 C 213.542969 219.027344 209.601562 222.9375 205.601562 226.851562 C 201.558594 223.042969 197.527344 219.195312 193.539062 215.332031 Z M 200.226562 232.085938 C 196.25 235.9375 192.234375 239.773438 188.207031 243.570312 C 184.167969 239.765625 180.148438 235.925781 176.164062 232.070312 C 177.582031 230.734375 179.003906 229.382812 180.449219 228.007812 C 183.050781 225.527344 185.632812 223.039062 188.1875 220.558594 C 190.742188 223.039062 193.328125 225.527344 195.929688 228.007812 C 197.378906 229.390625 198.804688 230.742188 200.226562 232.085938 Z M 200.035156 198.410156 C 196.15625 202.292969 192.203125 206.210938 188.195312 210.132812 C 184.183594 206.207031 180.230469 202.292969 176.347656 198.40625 C 180.390625 194.4375 184.347656 190.503906 188.191406 186.644531 C 192.03125 190.503906 195.992188 194.441406 200.035156 198.410156 Z M 193.421875 181.367188 C 197.480469 177.25 201.386719 173.25 205.089844 169.417969 C 208.933594 173.285156 212.902344 177.230469 216.953125 181.210938 C 213.183594 185.101562 209.289062 189.082031 205.292969 193.125 C 201.273438 189.1875 197.308594 185.261719 193.421875 181.367188 Z M 171.097656 193.125 C 167.097656 189.082031 163.199219 185.101562 159.429688 181.210938 C 163.480469 177.230469 167.445312 173.285156 171.292969 169.417969 C 175 173.25 178.902344 177.25 182.960938 181.371094 C 179.074219 185.261719 175.113281 189.191406 171.097656 193.125 Z M 165.777344 198.304688 C 161.785156 202.171875 157.75 206.027344 153.703125 209.84375 C 149.714844 205.8125 145.828125 201.839844 142.066406 197.957031 C 143.304688 196.789062 144.539062 195.617188 145.796875 194.417969 C 148.601562 191.742188 151.382812 189.0625 154.132812 186.386719 C 157.832031 190.210938 161.726562 194.199219 165.777344 198.304688 Z M 163.125 211.214844 C 165.78125 208.679688 168.417969 206.140625 171.03125 203.605469 C 174.867188 207.457031 178.816406 211.382812 182.847656 215.339844 C 178.859375 219.199219 174.835938 223.042969 170.796875 226.847656 C 166.796875 222.933594 162.851562 219.023438 158.980469 215.148438 C 160.351562 213.851562 161.726562 212.546875 163.125 211.214844 Z M 178.605469 244.796875 C 179.992188 246.117188 181.359375 247.414062 182.722656 248.703125 C 178.613281 252.523438 174.496094 256.28125 170.402344 259.953125 C 166.375 256.15625 162.371094 252.316406 158.398438 248.46875 C 162.386719 244.882812 166.480469 241.132812 170.710938 237.195312 C 173.316406 239.726562 175.949219 242.261719 178.605469 244.796875 Z M 188.191406 253.835938 C 192.40625 257.765625 196.492188 261.507812 200.46875 265.089844 C 196.367188 268.90625 192.261719 272.664062 188.175781 276.332031 C 184.09375 272.667969 179.996094 268.914062 175.898438 265.101562 C 179.878906 261.515625 183.972656 257.773438 188.191406 253.835938 Z M 182.546875 281.347656 C 178.285156 285.101562 174.066406 288.738281 169.90625 292.230469 C 165.835938 288.5625 161.75 284.808594 157.664062 281.003906 C 161.726562 277.589844 165.9375 273.957031 170.300781 270.101562 C 174.503906 274.023438 178.582031 277.765625 182.546875 281.347656 Z M 188.1875 286.390625 C 192.542969 290.246094 196.75 293.882812 200.808594 297.300781 C 196.558594 301.058594 192.347656 304.699219 188.199219 308.199219 C 184.042969 304.699219 179.832031 301.054688 175.582031 297.292969 C 179.636719 293.875 183.839844 290.242188 188.1875 286.390625 Z M 193.816406 281.359375 C 197.789062 277.777344 201.871094 274.027344 206.078125 270.101562 C 210.445312 273.957031 214.65625 277.589844 218.722656 281.007812 C 214.632812 284.820312 210.539062 288.578125 206.464844 292.25 C 202.304688 288.757812 198.082031 285.117188 193.816406 281.359375 Z M 205.984375 259.925781 C 201.894531 256.257812 197.78125 252.503906 193.671875 248.6875 C 195.03125 247.402344 196.394531 246.113281 197.777344 244.796875 C 200.429688 242.261719 203.0625 239.726562 205.671875 237.195312 C 209.894531 241.132812 213.988281 244.878906 217.972656 248.464844 C 215.613281 250.75 213.242188 253.03125 210.859375 255.300781 C 209.238281 256.847656 207.613281 258.390625 205.984375 259.925781 Z M 211.042969 231.945312 C 215.0625 227.996094 219.003906 224.082031 222.824219 220.242188 C 227.054688 224.1875 231.15625 227.941406 235.144531 231.535156 C 231.289062 235.398438 227.359375 239.296875 223.375 243.203125 C 219.277344 239.527344 215.160156 235.769531 211.042969 231.945312 Z M 210.605469 198.300781 C 214.65625 194.199219 218.546875 190.210938 222.246094 186.386719 C 224.996094 189.0625 227.777344 191.742188 230.582031 194.417969 C 231.839844 195.617188 233.078125 196.789062 234.320312 197.960938 C 230.558594 201.84375 226.675781 205.8125 222.6875 209.84375 C 218.636719 206.027344 214.605469 202.171875 210.605469 198.300781 Z M 188.191406 152.179688 C 191.898438 156.015625 195.8125 160.03125 199.878906 164.160156 C 196.105469 168.058594 192.199219 172.050781 188.191406 176.105469 C 184.183594 172.050781 180.28125 168.058594 176.5 164.15625 C 180.570312 160.03125 184.484375 156.015625 188.191406 152.179688 Z M 154.636719 151.960938 C 158.109375 155.652344 161.96875 159.71875 166.140625 164.070312 C 162.25 167.96875 158.285156 171.90625 154.261719 175.851562 C 150.242188 171.667969 146.402344 167.625 142.773438 163.765625 C 146.824219 159.78125 150.792969 155.828125 154.636719 151.960938 Z M 125.421875 180.523438 C 126.4375 179.5625 127.449219 178.605469 128.476562 177.625 C 131.511719 174.730469 134.515625 171.832031 137.484375 168.941406 C 140.953125 172.628906 144.800781 176.679688 148.960938 181.015625 C 144.964844 184.890625 140.929688 188.753906 136.875 192.578125 C 132.871094 188.40625 129.039062 184.375 125.421875 180.523438 Z M 124.339844 214.347656 C 128.332031 210.75 132.4375 206.980469 136.671875 203.03125 C 140.359375 206.84375 144.242188 210.824219 148.28125 214.921875 C 144.160156 218.753906 140.035156 222.523438 135.929688 226.207031 C 131.957031 222.183594 128.085938 218.21875 124.339844 214.347656 Z M 141.226562 231.539062 C 145.222656 227.945312 149.320312 224.1875 153.554688 220.242188 C 157.378906 224.082031 161.316406 228 165.339844 231.949219 C 161.222656 235.777344 157.101562 239.539062 153.003906 243.214844 C 149.019531 239.308594 145.085938 235.40625 141.226562 231.539062 Z M 140.171875 264.351562 C 144.242188 260.9375 148.457031 257.300781 152.828125 253.445312 C 155.617188 256.15625 158.4375 258.875 161.28125 261.585938 C 162.46875 262.71875 163.636719 263.824219 164.804688 264.929688 C 160.535156 268.691406 156.304688 272.332031 152.140625 275.820312 C 148.125 272.023438 144.132812 268.191406 140.171875 264.351562 Z M 138.613281 296.21875 C 142.820312 293.054688 147.226562 289.597656 151.84375 285.828125 C 156.023438 289.746094 160.09375 293.5 164.046875 297.078125 C 159.527344 300.765625 155.101562 304.242188 150.820312 307.464844 C 146.757812 303.785156 142.683594 300.027344 138.613281 296.21875 Z M 169.097656 323.53125 C 164.953125 320.007812 160.746094 316.34375 156.511719 312.574219 C 160.71875 309.402344 165.113281 305.941406 169.722656 302.167969 C 174.0625 306.023438 178.257812 309.667969 182.304688 313.097656 C 177.792969 316.796875 173.378906 320.289062 169.097656 323.53125 Z M 207.292969 323.527344 C 203.011719 320.28125 198.597656 316.789062 194.082031 313.09375 C 198.128906 309.664062 202.320312 306.023438 206.65625 302.167969 C 211.265625 305.945312 215.664062 309.402344 219.871094 312.578125 C 215.640625 316.34375 211.4375 320.007812 207.292969 323.527344 Z M 237.769531 296.21875 C 233.695312 300.035156 229.613281 303.796875 225.546875 307.480469 C 221.261719 304.261719 216.839844 300.78125 212.316406 297.089844 C 216.273438 293.507812 220.351562 289.75 224.535156 285.828125 C 229.152344 289.597656 233.5625 293.058594 237.769531 296.21875 Z M 224.265625 275.808594 C 220.101562 272.320312 215.863281 268.671875 211.59375 264.914062 C 212.757812 263.8125 213.917969 262.714844 215.101562 261.589844 C 217.945312 258.875 220.765625 256.15625 223.554688 253.445312 C 227.921875 257.304688 232.140625 260.941406 236.210938 264.359375 C 232.261719 268.191406 228.273438 272.019531 224.265625 275.808594 Z M 253.363281 247.421875 C 249.527344 251.273438 245.609375 255.164062 241.636719 259.0625 C 237.46875 255.574219 233.230469 251.925781 228.953125 248.160156 C 232.960938 244.222656 236.886719 240.316406 240.695312 236.488281 C 245.066406 240.355469 249.292969 243.996094 253.363281 247.421875 Z M 252.039062 214.347656 C 248.292969 218.214844 244.421875 222.175781 240.449219 226.195312 C 236.347656 222.515625 232.222656 218.746094 228.105469 214.917969 C 232.144531 210.824219 236.023438 206.84375 239.710938 203.03125 C 243.941406 206.980469 248.046875 210.746094 252.039062 214.347656 Z M 247.902344 177.625 C 248.933594 178.605469 249.945312 179.5625 250.964844 180.527344 C 247.347656 184.371094 243.523438 188.398438 239.523438 192.566406 C 235.46875 188.742188 231.429688 184.875 227.433594 181 C 231.585938 176.671875 235.429688 172.621094 238.894531 168.941406 C 241.867188 171.832031 244.867188 174.730469 247.902344 177.625 Z M 247.902344 177.625 " fill-opacity="1" fill-rule="nonzero"/><path fill="#fcca68" d="M 275.546875 162.367188 C 273.539062 170.296875 265.203125 176.789062 257.03125 176.789062 L 123.199219 176.789062 C 115.023438 176.789062 106.917969 170.246094 105.1875 162.246094 L 88.089844 83.328125 C 86.355469 75.328125 91.628906 68.757812 99.800781 68.71875 L 284.671875 67.875 C 292.84375 67.835938 297.886719 74.296875 295.875 82.226562 Z M 275.546875 162.367188 " fill-opacity="1" fill-rule="nonzero"/><path fill="#fcca68" d="M 296.8125 76.359375 C 296.8125 89.699219 238.761719 99.765625 188.46875 99.765625 C 138.144531 99.765625 86.578125 88.960938 86.578125 75.621094 C 86.578125 62.300781 138.144531 51.488281 188.46875 51.488281 C 238.761719 51.488281 296.8125 63.03125 296.8125 76.359375 Z M 296.8125 76.359375 " fill-opacity="1" fill-rule="nonzero"/><path fill="#eb921c" d="M 272.769531 75.621094 C 272.769531 86.042969 235.894531 94.480469 190.414062 94.480469 C 144.90625 94.480469 108.015625 86.042969 108.015625 75.621094 C 108.015625 65.214844 144.90625 56.769531 190.414062 56.769531 C 235.894531 56.769531 272.769531 65.214844 272.769531 75.621094 Z M 272.769531 75.621094 " fill-opacity="1" fill-rule="nonzero"/><path fill="#fab33e" d="M 193.589844 115.128906 C 159.910156 115.128906 127.210938 110.734375 101.511719 102.753906 C 98.738281 101.894531 97.1875 98.945312 98.046875 96.167969 C 98.910156 93.390625 101.851562 91.832031 104.628906 92.699219 C 129.347656 100.371094 160.9375 104.597656 193.589844 104.597656 C 223.503906 104.597656 251.894531 101.167969 275.6875 94.683594 C 278.496094 93.917969 281.382812 95.574219 282.144531 98.378906 C 282.90625 101.183594 281.253906 104.078125 278.453125 104.839844 C 253.769531 111.574219 224.421875 115.128906 193.589844 115.128906 Z M 193.589844 115.128906 " fill-opacity="1" fill-rule="nonzero"/><path fill="#fab33e" d="M 193.589844 178.359375 C 159.054688 178.359375 134.789062 175.195312 109.835938 167.4375 C 107.0625 166.574219 105.511719 163.625 106.375 160.847656 C 107.238281 158.070312 110.179688 156.519531 112.957031 157.382812 C 137.140625 164.902344 159.75 167.832031 193.589844 167.832031 C 223.589844 167.832031 243.082031 166.667969 266.382812 160.316406 C 269.1875 159.550781 272.078125 161.210938 272.839844 164.015625 C 273.601562 166.820312 271.949219 169.714844 269.144531 170.476562 C 244.699219 177.140625 224.519531 178.359375 193.589844 178.359375 Z M 193.589844 178.359375 " fill-opacity="1" fill-rule="nonzero"/></svg>