<svg xmlns="http://www.w3.org/2000/svg" xmlns:xlink="http://www.w3.org/1999/xlink" width="500" zoomAndPan="magnify" viewBox="0 0 375 374.999991" height="500" preserveAspectRatio="xMidYMid meet" version="1.0"><defs><clipPath id="403e4c1ea9"><path d="M 79.460938 34 L 295 34 L 295 364 L 79.460938 364 Z M 79.460938 34 " clip-rule="nonzero"/></clipPath><clipPath id="c07a3e47b2"><path d="M 79.460938 34 L 295 34 L 295 200 L 79.460938 200 Z M 79.460938 34 " clip-rule="nonzero"/></clipPath></defs><g clip-path="url(#403e4c1ea9)"><path fill="#ffd0bc" d="M 273.023438 119.195312 C 273.023438 119.195312 274.804688 83.363281 243.449219 55.589844 C 215.085938 30.472656 172.953125 27.636719 136.492188 50.324219 C 104.53125 70.210938 97.09375 116.261719 97.09375 116.261719 C 97.09375 116.261719 80.097656 120.242188 79.789062 134.53125 C 79.484375 148.507812 96.195312 150.027344 96.195312 150.027344 C 96.195312 150.027344 84.097656 162.164062 90.421875 170.382812 C 96.5 178.285156 110.78125 172.511719 110.78125 172.511719 C 110.78125 172.511719 105.3125 184.363281 115.035156 191.65625 C 118.699219 194.402344 123.960938 194.820312 129.09375 194.273438 C 123 198.585938 118.226562 202.898438 118.226562 202.898438 L 122.046875 205.914062 C 112.625 216.46875 108.023438 227.707031 111.386719 235.105469 C 114.296875 241.507812 130.691406 244.042969 139.695312 244.964844 C 134.128906 255.226562 127.226562 266.414062 125.667969 274 C 123.238281 285.847656 123.949219 297.699219 123.949219 297.699219 C 124.757812 316.539062 130.835938 334.769531 134.175781 342.972656 C 134.175781 342.972656 134.121094 343.003906 134.019531 343.0625 C 134.007812 343.066406 133.996094 343.074219 133.984375 343.082031 C 133.945312 343.105469 133.898438 343.132812 133.84375 343.164062 C 133.820312 343.175781 133.792969 343.191406 133.769531 343.207031 C 133.714844 343.238281 133.65625 343.273438 133.59375 343.308594 C 133.5625 343.328125 133.527344 343.347656 133.492188 343.367188 C 133.429688 343.40625 133.359375 343.449219 133.289062 343.492188 C 133.246094 343.519531 133.203125 343.542969 133.15625 343.570312 C 133.078125 343.621094 132.996094 343.671875 132.910156 343.722656 C 132.863281 343.75 132.824219 343.777344 132.773438 343.808594 C 132.652344 343.882812 132.519531 343.96875 132.382812 344.054688 C 132.367188 344.0625 132.359375 344.070312 132.347656 344.078125 C 132.199219 344.171875 132.042969 344.273438 131.878906 344.378906 C 131.816406 344.417969 131.75 344.464844 131.6875 344.503906 C 131.582031 344.574219 131.480469 344.644531 131.371094 344.714844 C 131.296875 344.765625 131.21875 344.820312 131.140625 344.871094 C 131.035156 344.941406 130.929688 345.015625 130.820312 345.089844 C 130.738281 345.144531 130.65625 345.203125 130.570312 345.261719 C 130.464844 345.335938 130.355469 345.414062 130.246094 345.492188 C 130.15625 345.554688 130.066406 345.617188 129.976562 345.679688 C 129.863281 345.765625 129.746094 345.847656 129.628906 345.933594 C 129.539062 346 129.453125 346.0625 129.367188 346.125 C 129.238281 346.21875 129.113281 346.316406 128.984375 346.414062 C 128.898438 346.476562 128.816406 346.539062 128.730469 346.605469 C 128.570312 346.726562 128.410156 346.851562 128.25 346.976562 C 128.195312 347.019531 128.136719 347.0625 128.082031 347.109375 C 128.078125 347.109375 128.078125 347.109375 128.078125 347.109375 C 127.046875 347.925781 125.980469 348.84375 124.953125 349.839844 C 124.953125 349.839844 124.953125 349.84375 124.953125 349.84375 C 123.808594 350.953125 122.71875 352.160156 121.789062 353.445312 C 121.753906 353.492188 121.722656 353.539062 121.6875 353.585938 C 121.402344 353.988281 121.132812 354.394531 120.882812 354.808594 C 120.855469 354.855469 120.828125 354.898438 120.804688 354.945312 C 120.558594 355.359375 120.328125 355.78125 120.125 356.207031 C 120.117188 356.222656 120.109375 356.234375 120.105469 356.25 C 119.90625 356.667969 119.738281 357.097656 119.585938 357.527344 C 119.558594 357.601562 119.53125 357.679688 119.507812 357.757812 C 119.371094 358.175781 119.257812 358.597656 119.175781 359.023438 C 119.160156 359.097656 119.148438 359.175781 119.132812 359.253906 C 119.054688 359.695312 119 360.144531 118.984375 360.59375 C 118.941406 361.925781 119.988281 362.769531 121.78125 363.234375 C 122.5 363.421875 123.339844 363.546875 124.273438 363.617188 C 124.507812 363.632812 124.746094 363.648438 124.992188 363.660156 C 125.730469 363.691406 126.519531 363.691406 127.351562 363.667969 C 127.90625 363.652344 128.480469 363.621094 129.074219 363.582031 C 130.253906 363.5 131.5 363.375 132.789062 363.210938 C 133.433594 363.128906 134.089844 363.039062 134.753906 362.9375 C 136.078125 362.734375 137.441406 362.496094 138.8125 362.230469 C 139.152344 362.164062 139.496094 362.097656 139.839844 362.027344 C 141.214844 361.746094 142.597656 361.4375 143.960938 361.105469 C 144.300781 361.023438 144.640625 360.941406 144.980469 360.855469 C 146.757812 360.410156 148.496094 359.925781 150.152344 359.425781 C 151.253906 359.09375 152.316406 358.753906 153.328125 358.40625 C 154.335938 358.058594 155.292969 357.707031 156.183594 357.355469 C 160.183594 355.777344 162.8125 354.195312 162.738281 352.996094 C 162.738281 352.996094 162.738281 352.992188 162.738281 352.988281 C 162.722656 352.730469 162.699219 352.429688 162.671875 352.101562 C 162.664062 351.976562 162.648438 351.828125 162.636719 351.691406 C 162.621094 351.472656 162.601562 351.253906 162.578125 351.011719 C 162.5625 350.800781 162.539062 350.566406 162.519531 350.339844 C 162.5 350.152344 162.484375 349.96875 162.464844 349.765625 C 162.433594 349.421875 162.394531 349.054688 162.359375 348.679688 C 162.351562 348.597656 162.34375 348.519531 162.335938 348.433594 C 162.117188 346.195312 161.835938 343.445312 161.539062 340.332031 C 160.324219 327.699219 158.839844 309.371094 160.179688 297.695312 L 177.289062 297.695312 C 178.183594 316.355469 184.175781 334.332031 187.488281 342.464844 C 187.488281 342.464844 187.472656 342.472656 187.445312 342.488281 C 187.445312 342.488281 187.441406 342.488281 187.441406 342.492188 C 187.414062 342.503906 187.382812 342.523438 187.339844 342.546875 C 187.320312 342.558594 187.296875 342.570312 187.277344 342.582031 C 187.242188 342.605469 187.207031 342.625 187.164062 342.648438 C 187.132812 342.667969 187.101562 342.6875 187.066406 342.707031 C 187.019531 342.734375 186.972656 342.761719 186.917969 342.792969 C 186.878906 342.816406 186.839844 342.839844 186.796875 342.867188 C 186.738281 342.902344 186.675781 342.9375 186.613281 342.976562 C 186.566406 343.007812 186.515625 343.035156 186.460938 343.070312 C 186.394531 343.109375 186.320312 343.15625 186.246094 343.199219 C 186.191406 343.234375 186.140625 343.265625 186.082031 343.300781 C 185.976562 343.367188 185.867188 343.4375 185.753906 343.507812 C 185.710938 343.535156 185.671875 343.558594 185.632812 343.585938 C 185.492188 343.675781 185.347656 343.769531 185.195312 343.867188 C 185.125 343.914062 185.050781 343.964844 184.976562 344.011719 C 184.882812 344.074219 184.785156 344.136719 184.6875 344.203125 C 184.605469 344.257812 184.523438 344.316406 184.441406 344.371094 C 184.339844 344.4375 184.242188 344.507812 184.136719 344.578125 C 184.050781 344.636719 183.964844 344.699219 183.878906 344.757812 C 183.773438 344.832031 183.667969 344.90625 183.558594 344.984375 C 183.46875 345.046875 183.378906 345.109375 183.289062 345.175781 C 183.175781 345.253906 183.0625 345.339844 182.945312 345.421875 C 182.855469 345.488281 182.765625 345.554688 182.671875 345.621094 C 182.550781 345.710938 182.429688 345.804688 182.304688 345.894531 C 182.214844 345.964844 182.128906 346.03125 182.035156 346.101562 C 181.886719 346.214844 181.738281 346.332031 181.589844 346.449219 C 181.523438 346.5 181.457031 346.550781 181.390625 346.601562 C 180.359375 347.417969 179.292969 348.335938 178.265625 349.332031 C 177.121094 350.445312 176.03125 351.652344 175.101562 352.9375 C 175.066406 352.984375 175.035156 353.03125 175 353.078125 C 174.714844 353.480469 174.441406 353.886719 174.191406 354.304688 C 174.167969 354.347656 174.140625 354.390625 174.113281 354.4375 C 173.871094 354.851562 173.640625 355.273438 173.4375 355.699219 C 173.429688 355.714844 173.421875 355.730469 173.417969 355.742188 C 173.21875 356.164062 173.050781 356.589844 172.898438 357.019531 C 172.871094 357.09375 172.84375 357.171875 172.820312 357.25 C 172.683594 357.667969 172.570312 358.089844 172.484375 358.515625 C 172.46875 358.589844 172.460938 358.667969 172.445312 358.742188 C 172.371094 359.171875 172.316406 359.601562 172.300781 360.035156 C 172.296875 360.050781 172.296875 360.070312 172.296875 360.085938 C 172.25 361.550781 173.519531 362.425781 175.652344 362.855469 C 175.847656 362.894531 176.050781 362.929688 176.257812 362.960938 C 177.296875 363.117188 178.507812 363.1875 179.847656 363.175781 C 179.851562 363.175781 179.855469 363.175781 179.863281 363.175781 C 180.90625 363.167969 182.03125 363.109375 183.210938 363.011719 C 183.839844 362.957031 184.484375 362.894531 185.140625 362.820312 C 186.363281 362.679688 187.632812 362.503906 188.929688 362.292969 C 189.308594 362.230469 189.691406 362.167969 190.078125 362.101562 C 190.46875 362.03125 190.863281 361.960938 191.261719 361.886719 C 192.171875 361.71875 193.089844 361.535156 194.003906 361.339844 C 194.410156 361.253906 194.8125 361.167969 195.214844 361.078125 C 195.625 360.984375 196.035156 360.890625 196.441406 360.796875 C 197.402344 360.570312 198.359375 360.335938 199.300781 360.089844 C 199.636719 360 199.972656 359.914062 200.304688 359.824219 C 200.96875 359.644531 201.621094 359.460938 202.265625 359.273438 C 204.199219 358.714844 206.035156 358.125 207.699219 357.527344 C 208.253906 357.328125 208.789062 357.125 209.304688 356.925781 C 213.414062 355.320312 216.125 353.707031 216.050781 352.492188 C 216.035156 352.230469 216.011719 351.925781 215.984375 351.59375 C 215.976562 351.472656 215.960938 351.324219 215.949219 351.191406 C 215.933594 350.96875 215.914062 350.75 215.890625 350.503906 C 215.871094 350.296875 215.851562 350.0625 215.832031 349.839844 C 215.8125 349.648438 215.796875 349.460938 215.777344 349.257812 C 215.742188 348.917969 215.707031 348.554688 215.671875 348.183594 C 215.664062 348.09375 215.65625 348.011719 215.648438 347.921875 C 215.425781 345.683594 215.148438 342.933594 214.847656 339.824219 C 213.652344 327.375 212.195312 309.390625 213.433594 297.695312 L 232.929688 297.695312 C 232.929688 297.695312 240.105469 234.222656 226.367188 198.828125 C 228.3125 199.144531 230.398438 199.207031 232.625 198.945312 C 250.550781 196.816406 248.121094 177.371094 248.121094 177.371094 C 248.121094 177.371094 261.492188 187.703125 271.214844 180.105469 C 280.414062 172.917969 268.175781 159.140625 268.175781 159.140625 C 268.175781 159.140625 293.054688 159.621094 294.304688 142.730469 C 295.523438 126.328125 273.023438 119.195312 273.023438 119.195312 Z M 273.023438 119.195312 " fill-opacity="1" fill-rule="nonzero"/></g><path fill="#f63845" d="M 216.050781 352.492188 C 216.125 353.707031 213.414062 355.324219 209.304688 356.929688 C 208.789062 357.128906 208.253906 357.328125 207.699219 357.527344 C 206.035156 358.125 204.199219 358.714844 202.269531 359.277344 C 201.625 359.464844 200.96875 359.648438 200.304688 359.824219 C 199.972656 359.914062 199.640625 360.003906 199.304688 360.089844 C 198.359375 360.335938 197.402344 360.574219 196.441406 360.796875 C 196.035156 360.894531 195.625 360.988281 195.214844 361.078125 C 194.8125 361.167969 194.410156 361.257812 194.007812 361.34375 C 193.089844 361.539062 192.171875 361.71875 191.261719 361.890625 C 190.863281 361.964844 190.46875 362.035156 190.078125 362.101562 C 189.691406 362.171875 189.308594 362.234375 188.929688 362.296875 C 187.632812 362.503906 186.363281 362.683594 185.140625 362.824219 C 184.484375 362.898438 183.839844 362.960938 183.210938 363.011719 C 182.03125 363.113281 180.910156 363.167969 179.863281 363.175781 C 179.859375 363.175781 179.851562 363.175781 179.847656 363.175781 C 178.507812 363.1875 177.296875 363.121094 176.257812 362.964844 C 176.050781 362.933594 175.847656 362.898438 175.65625 362.859375 C 173.519531 362.429688 172.25 361.550781 172.296875 360.089844 C 172.308594 359.636719 172.367188 359.191406 172.445312 358.746094 C 172.460938 358.671875 172.472656 358.59375 172.484375 358.515625 C 172.570312 358.089844 172.683594 357.667969 172.820312 357.25 C 172.84375 357.175781 172.875 357.097656 172.898438 357.023438 C 173.050781 356.589844 173.21875 356.164062 173.417969 355.746094 C 173.421875 355.730469 173.429688 355.71875 173.4375 355.703125 C 173.640625 355.277344 173.871094 354.855469 174.117188 354.4375 C 174.140625 354.394531 174.167969 354.351562 174.195312 354.304688 C 174.445312 353.890625 174.714844 353.480469 175 353.078125 C 175.035156 353.035156 175.066406 352.988281 175.101562 352.941406 C 176.03125 351.65625 177.121094 350.445312 178.265625 349.335938 C 179.539062 350.097656 181.25 350.789062 183.539062 351.175781 C 190.730469 352.390625 195.1875 348.238281 195.1875 348.238281 C 191.621094 343.605469 184.222656 346.023438 181.390625 346.605469 C 181.457031 346.550781 181.523438 346.503906 181.589844 346.449219 C 181.738281 346.332031 181.890625 346.214844 182.039062 346.101562 C 182.128906 346.035156 182.21875 345.96875 182.308594 345.898438 C 182.429688 345.808594 182.554688 345.714844 182.675781 345.625 C 182.765625 345.558594 182.855469 345.492188 182.945312 345.425781 C 183.0625 345.339844 183.175781 345.257812 183.289062 345.175781 C 183.378906 345.113281 183.46875 345.046875 183.558594 344.984375 C 183.667969 344.910156 183.773438 344.835938 183.878906 344.761719 C 183.964844 344.699219 184.054688 344.640625 184.136719 344.582031 C 184.242188 344.507812 184.339844 344.441406 184.441406 344.375 C 184.523438 344.316406 184.605469 344.261719 184.6875 344.207031 C 184.785156 344.140625 184.882812 344.078125 184.976562 344.015625 C 185.050781 343.96875 185.125 343.917969 185.199219 343.871094 C 185.347656 343.773438 185.492188 343.679688 185.632812 343.589844 C 185.675781 343.5625 185.714844 343.539062 185.753906 343.511719 C 185.867188 343.441406 185.976562 343.371094 186.082031 343.304688 C 186.140625 343.269531 186.191406 343.238281 186.246094 343.203125 C 186.320312 343.160156 186.394531 343.113281 186.460938 343.070312 C 186.515625 343.039062 186.566406 343.007812 186.613281 342.980469 C 186.679688 342.941406 186.738281 342.902344 186.796875 342.871094 C 186.839844 342.84375 186.878906 342.820312 186.917969 342.796875 C 186.972656 342.765625 187.019531 342.738281 187.070312 342.707031 C 187.101562 342.6875 187.136719 342.667969 187.164062 342.652344 C 187.207031 342.628906 187.242188 342.605469 187.277344 342.585938 C 187.296875 342.574219 187.320312 342.5625 187.339844 342.550781 C 187.382812 342.527344 187.417969 342.507812 187.441406 342.492188 C 187.441406 342.492188 187.445312 342.492188 187.449219 342.488281 C 187.472656 342.476562 187.488281 342.46875 187.488281 342.46875 C 187.488281 342.46875 192.453125 339.734375 199.136719 344.390625 L 214.847656 339.828125 C 215.148438 342.9375 215.425781 345.6875 215.648438 347.925781 C 215.65625 348.015625 215.664062 348.097656 215.671875 348.1875 C 215.707031 348.554688 215.742188 348.921875 215.777344 349.261719 C 215.796875 349.464844 215.8125 349.652344 215.832031 349.84375 C 215.851562 350.066406 215.875 350.300781 215.890625 350.503906 C 215.914062 350.753906 215.933594 350.972656 215.949219 351.195312 C 215.960938 351.328125 215.976562 351.476562 215.984375 351.597656 C 216.011719 351.929688 216.035156 352.230469 216.050781 352.492188 Z M 162.675781 352.105469 C 162.664062 351.980469 162.652344 351.832031 162.640625 351.695312 C 162.621094 351.476562 162.601562 351.257812 162.582031 351.011719 C 162.5625 350.804688 162.539062 350.570312 162.519531 350.34375 C 162.5 350.152344 162.484375 349.96875 162.464844 349.769531 C 162.433594 349.425781 162.398438 349.058594 162.359375 348.683594 C 162.351562 348.597656 162.34375 348.519531 162.335938 348.4375 C 162.117188 346.199219 161.835938 343.449219 161.539062 340.335938 L 145.824219 344.898438 C 139.140625 340.238281 134.179688 342.972656 134.179688 342.972656 C 134.179688 342.972656 134.121094 343.003906 134.019531 343.0625 C 134.011719 343.066406 133.996094 343.074219 133.984375 343.082031 C 133.945312 343.105469 133.898438 343.132812 133.84375 343.164062 C 133.820312 343.175781 133.792969 343.191406 133.769531 343.207031 C 133.714844 343.238281 133.65625 343.273438 133.59375 343.308594 C 133.5625 343.328125 133.527344 343.347656 133.496094 343.367188 C 133.429688 343.40625 133.363281 343.449219 133.289062 343.492188 C 133.246094 343.519531 133.203125 343.542969 133.15625 343.570312 C 133.078125 343.621094 132.996094 343.671875 132.910156 343.722656 C 132.867188 343.75 132.824219 343.777344 132.777344 343.808594 C 132.652344 343.882812 132.519531 343.96875 132.382812 344.054688 C 132.371094 344.0625 132.359375 344.070312 132.347656 344.078125 C 132.199219 344.171875 132.042969 344.273438 131.882812 344.378906 C 131.820312 344.417969 131.753906 344.464844 131.6875 344.503906 C 131.582031 344.574219 131.480469 344.644531 131.371094 344.714844 C 131.296875 344.765625 131.21875 344.820312 131.140625 344.871094 C 131.035156 344.941406 130.929688 345.015625 130.820312 345.089844 C 130.738281 345.144531 130.65625 345.203125 130.574219 345.261719 C 130.464844 345.335938 130.355469 345.414062 130.246094 345.492188 C 130.15625 345.554688 130.070312 345.617188 129.980469 345.679688 C 129.863281 345.765625 129.746094 345.847656 129.628906 345.933594 C 129.542969 346 129.453125 346.0625 129.367188 346.125 C 129.242188 346.21875 129.113281 346.316406 128.984375 346.414062 C 128.898438 346.476562 128.816406 346.539062 128.730469 346.605469 C 128.570312 346.726562 128.410156 346.851562 128.25 346.976562 C 128.195312 347.019531 128.140625 347.0625 128.082031 347.109375 C 128.082031 347.109375 128.078125 347.109375 128.078125 347.109375 C 130.914062 346.527344 138.3125 344.109375 141.875 348.746094 C 141.875 348.746094 137.417969 352.898438 130.226562 351.679688 C 127.941406 351.292969 126.230469 350.601562 124.953125 349.839844 C 124.953125 349.839844 124.953125 349.84375 124.953125 349.84375 C 123.808594 350.953125 122.722656 352.160156 121.789062 353.445312 C 121.757812 353.492188 121.722656 353.539062 121.691406 353.585938 C 121.402344 353.988281 121.132812 354.394531 120.882812 354.808594 C 120.855469 354.855469 120.832031 354.898438 120.804688 354.945312 C 120.558594 355.359375 120.328125 355.78125 120.125 356.207031 C 120.121094 356.222656 120.113281 356.234375 120.105469 356.25 C 119.90625 356.667969 119.738281 357.097656 119.589844 357.527344 C 119.5625 357.601562 119.535156 357.679688 119.507812 357.757812 C 119.371094 358.175781 119.261719 358.597656 119.175781 359.023438 C 119.160156 359.097656 119.148438 359.175781 119.136719 359.253906 C 119.058594 359.695312 119 360.144531 118.984375 360.59375 C 118.941406 361.925781 119.988281 362.769531 121.785156 363.234375 C 122.5 363.421875 123.339844 363.546875 124.273438 363.617188 C 124.507812 363.632812 124.75 363.648438 124.996094 363.660156 C 125.730469 363.691406 126.523438 363.691406 127.355469 363.667969 C 127.910156 363.652344 128.484375 363.621094 129.074219 363.582031 C 130.253906 363.5 131.5 363.375 132.789062 363.210938 C 133.433594 363.128906 134.089844 363.039062 134.753906 362.9375 C 136.082031 362.734375 137.441406 362.496094 138.8125 362.230469 C 139.15625 362.164062 139.5 362.097656 139.84375 362.027344 C 141.21875 361.746094 142.597656 361.4375 143.960938 361.105469 C 144.300781 361.023438 144.644531 360.941406 144.980469 360.855469 C 154.460938 358.472656 162.875 355.125 162.742188 352.996094 C 162.742188 352.996094 162.738281 352.992188 162.738281 352.988281 C 162.722656 352.730469 162.699219 352.433594 162.675781 352.105469 Z M 178.316406 166.488281 C 179.113281 168.035156 179.636719 169.609375 180.066406 171.183594 C 180.457031 172.667969 180.761719 174.144531 181.003906 175.625 C 181.230469 175.511719 181.457031 175.394531 181.667969 175.269531 C 181.804688 175.1875 181.9375 175.097656 182.074219 175.007812 C 182.285156 174.871094 182.492188 174.726562 182.691406 174.574219 C 182.824219 174.476562 182.949219 174.375 183.074219 174.269531 C 183.261719 174.117188 183.441406 173.957031 183.613281 173.792969 C 183.726562 173.683594 183.84375 173.574219 183.953125 173.460938 C 184.121094 173.289062 184.28125 173.109375 184.4375 172.925781 C 184.53125 172.8125 184.632812 172.703125 184.722656 172.589844 C 184.886719 172.378906 185.039062 172.164062 185.1875 171.945312 C 185.253906 171.847656 185.324219 171.753906 185.390625 171.65625 C 185.804688 171.007812 186.160156 170.324219 186.457031 169.617188 C 186.496094 169.519531 186.53125 169.421875 186.570312 169.324219 C 186.675781 169.0625 186.777344 168.796875 186.867188 168.53125 C 186.90625 168.414062 186.941406 168.292969 186.980469 168.171875 C 187.058594 167.917969 187.132812 167.660156 187.203125 167.402344 C 187.234375 167.28125 187.265625 167.160156 187.292969 167.039062 C 187.355469 166.773438 187.417969 166.503906 187.46875 166.238281 C 187.492188 166.125 187.515625 166.011719 187.535156 165.902344 C 187.589844 165.605469 187.636719 165.308594 187.675781 165.011719 C 187.6875 164.929688 187.699219 164.847656 187.710938 164.765625 C 187.761719 164.386719 187.800781 164.011719 187.832031 163.636719 C 187.832031 163.632812 187.832031 163.632812 187.832031 163.628906 C 187.933594 162.417969 187.949219 161.21875 187.90625 160.078125 C 184.507812 159.828125 179.605469 160.25 176.421875 163.878906 C 176.542969 164 176.667969 164.117188 176.78125 164.238281 C 177.429688 164.953125 177.910156 165.71875 178.316406 166.488281 Z M 178.316406 166.488281 " fill-opacity="1" fill-rule="nonzero"/><g clip-path="url(#c07a3e47b2)"><path fill="#141414" d="M 294.308594 142.734375 C 293.058594 159.621094 268.175781 159.144531 268.175781 159.144531 C 268.175781 159.144531 280.414062 172.921875 271.214844 180.109375 C 261.492188 187.703125 248.121094 177.375 248.121094 177.375 C 248.121094 177.375 250.554688 196.820312 232.625 198.949219 C 230.398438 199.210938 228.3125 199.148438 226.367188 198.832031 C 223.164062 190.582031 218.824219 183.863281 212.992188 179.824219 C 220.949219 175.625 228.160156 170.15625 234.140625 163.609375 C 237.019531 163.136719 255.359375 159.636719 264.925781 145.125 C 272.085938 134.265625 268.757812 118.855469 258.242188 114.230469 C 257.628906 113.960938 256.996094 113.722656 256.332031 113.527344 C 237.910156 108.148438 228.523438 127.980469 228.523438 127.984375 C 206.289062 118.292969 198.492188 93.914062 198.492188 93.914062 C 198.492188 93.914062 203.960938 112.550781 195.050781 115.1875 C 184.328125 118.351562 176.988281 105.15625 176.03125 102.332031 C 177.152344 106.09375 177.222656 119.238281 168.3125 120.25 C 146.570312 122.71875 141.773438 74.875 141.773438 74.875 C 141.773438 74.875 134.496094 104.359375 107.40625 121.582031 C 106.617188 143.664062 114.582031 165.207031 132.566406 177.382812 C 136.550781 180.082031 140.75 182.285156 145.074219 184.066406 C 145.109375 184.117188 145.136719 184.167969 145.171875 184.21875 C 145.53125 184.75 145.914062 185.257812 146.3125 185.753906 C 141.195312 186.476562 134.609375 190.371094 129.09375 194.273438 C 123.960938 194.820312 118.699219 194.402344 115.035156 191.65625 C 105.3125 184.363281 110.78125 172.511719 110.78125 172.511719 C 110.78125 172.511719 96.5 178.285156 90.421875 170.382812 C 84.101562 162.164062 96.195312 150.027344 96.195312 150.027344 C 96.195312 150.027344 79.484375 148.507812 79.789062 134.53125 C 80.097656 120.242188 97.09375 116.261719 97.09375 116.261719 C 97.09375 116.261719 104.53125 70.210938 136.492188 50.324219 C 172.953125 27.636719 215.089844 30.472656 243.449219 55.589844 C 274.804688 83.363281 273.023438 119.195312 273.023438 119.195312 C 273.023438 119.195312 295.523438 126.328125 294.308594 142.734375 Z M 128.324219 115.578125 C 122.589844 117.394531 118.425781 120.410156 119.03125 122.316406 C 119.632812 124.226562 124.773438 124.304688 130.511719 122.488281 C 136.246094 120.675781 140.410156 117.660156 139.804688 115.75 C 139.203125 113.84375 134.0625 113.765625 128.324219 115.578125 Z M 128.324219 115.578125 " fill-opacity="1" fill-rule="nonzero"/></g><path fill="#fb6ea4" d="M 232.929688 297.699219 L 123.949219 297.699219 C 123.949219 297.699219 123.238281 285.847656 125.671875 274 C 127.226562 266.414062 134.128906 255.226562 139.699219 244.964844 C 143.226562 245.324219 145.625 245.4375 145.625 245.4375 C 145.625 245.4375 152.511719 261.238281 158.386719 259.617188 C 164.257812 257.996094 157.980469 245.84375 157.980469 245.84375 C 157.980469 245.84375 166.691406 257.183594 171.957031 253.742188 C 176.835938 250.550781 168.332031 241.976562 167.054688 240.730469 C 168.222656 241.84375 175.5625 248.601562 178.539062 245.4375 C 180.011719 243.871094 178.21875 239.675781 175.03125 235.351562 C 176.691406 236.636719 178.511719 237.480469 180.515625 237.6875 C 192.261719 238.902344 197.835938 234.042969 205.582031 225.382812 L 184.515625 194.390625 C 187.34375 192.546875 190.050781 190.503906 192.5625 188.207031 C 192.925781 187.871094 193.269531 187.511719 193.621094 187.160156 C 200.359375 185.503906 206.894531 183.042969 212.992188 179.824219 C 218.824219 183.863281 223.164062 190.582031 226.367188 198.832031 C 240.109375 234.226562 232.929688 297.699219 232.929688 297.699219 Z M 140.6875 220.53125 C 140.691406 220.53125 140.695312 220.53125 140.699219 220.53125 C 140.75 220.535156 140.808594 220.539062 140.886719 220.546875 C 140.957031 220.550781 141.03125 220.558594 141.125 220.5625 C 141.144531 220.566406 141.160156 220.566406 141.179688 220.570312 C 141.277344 220.578125 141.390625 220.585938 141.511719 220.597656 C 141.542969 220.597656 141.574219 220.601562 141.613281 220.605469 C 141.765625 220.617188 141.933594 220.632812 142.117188 220.648438 C 142.117188 220.648438 142.121094 220.648438 142.121094 220.648438 C 142.304688 220.664062 142.507812 220.683594 142.722656 220.703125 C 142.742188 220.703125 142.761719 220.707031 142.785156 220.707031 C 144.84375 220.898438 148.113281 221.242188 151.667969 221.777344 C 151.679688 221.777344 151.6875 221.78125 151.695312 221.78125 C 152.078125 221.839844 152.46875 221.898438 152.855469 221.960938 C 155.5 222.382812 158.238281 222.910156 160.714844 223.558594 C 163.679688 224.335938 167.140625 226.816406 170.25 229.859375 C 163.039062 218.546875 160.410156 199.050781 160.410156 199.050781 C 160.410156 199.050781 159.476562 198.328125 158.070312 197.152344 C 155.949219 195.378906 152.734375 192.570312 149.910156 189.578125 C 148.65625 188.367188 147.417969 187.125 146.3125 185.753906 C 141.195312 186.476562 134.605469 190.371094 129.09375 194.273438 C 123 198.589844 118.222656 202.898438 118.222656 202.898438 L 122.042969 205.914062 L 140.558594 220.523438 C 140.558594 220.519531 140.609375 220.523438 140.6875 220.53125 Z M 140.6875 220.53125 " fill-opacity="1" fill-rule="nonzero"/><path fill="#342d2a" d="M 187.914062 161.992188 C 187.902344 162.535156 187.878906 163.078125 187.832031 163.628906 C 187.878906 163.078125 187.902344 162.535156 187.914062 161.992188 Z M 187.910156 160.128906 C 187.925781 160.636719 187.929688 161.160156 187.921875 161.6875 C 187.929688 161.160156 187.925781 160.640625 187.910156 160.128906 Z M 187.90625 160.078125 C 187.90625 160.09375 187.90625 160.113281 187.910156 160.128906 C 187.90625 160.113281 187.910156 160.09375 187.90625 160.078125 Z M 187.914062 161.992188 C 187.917969 161.890625 187.921875 161.789062 187.921875 161.6875 C 187.921875 161.789062 187.917969 161.890625 187.914062 161.992188 Z M 185.390625 171.65625 C 185.804688 171.007812 186.160156 170.324219 186.457031 169.617188 C 186.15625 170.324219 185.804688 171.007812 185.390625 171.65625 Z M 194.5625 175.039062 C 192.601562 174.707031 190.800781 175.070312 189.101562 175.519531 C 186.382812 176.296875 183.867188 177.390625 181.414062 178.671875 C 181.304688 177.652344 181.171875 176.636719 181.003906 175.628906 C 181.230469 175.511719 181.453125 175.398438 181.664062 175.269531 C 181.453125 175.398438 181.230469 175.511719 181.003906 175.625 C 180.761719 174.144531 180.457031 172.667969 180.066406 171.183594 C 179.636719 169.609375 179.113281 168.035156 178.316406 166.488281 C 177.910156 165.71875 177.429688 164.953125 176.78125 164.238281 C 176.667969 164.117188 176.542969 164 176.421875 163.878906 C 179.605469 160.25 184.503906 159.828125 187.90625 160.078125 C 187.746094 155.511719 186.707031 151.820312 186.707031 151.820312 C 174.886719 162.683594 154.1875 162.550781 154.1875 162.550781 C 154.1875 162.550781 154.585938 163.582031 155.394531 165.09375 C 155.175781 165.242188 154.96875 165.398438 154.769531 165.570312 C 153.980469 166.320312 153.453125 167.273438 153.195312 168.203125 C 152.644531 170.078125 152.84375 171.816406 153.089844 173.460938 C 153.375 175.066406 153.792969 176.59375 154.296875 178.082031 C 153.664062 177.617188 153.007812 177.175781 152.292969 176.789062 C 151.171875 176.199219 149.910156 175.726562 148.535156 175.710938 C 147.164062 175.675781 145.777344 176.234375 144.8125 177.125 C 144.320312 177.511719 143.832031 178.148438 143.613281 178.832031 C 143.414062 179.535156 143.453125 180.230469 143.578125 180.871094 C 143.863281 182.078125 144.445312 183.101562 145.074219 184.066406 C 145.105469 184.117188 145.136719 184.167969 145.171875 184.21875 C 145.527344 184.75 145.914062 185.261719 146.3125 185.753906 C 147.417969 187.125 148.65625 188.367188 149.910156 189.578125 C 148.386719 187.761719 146.925781 185.875 145.789062 183.839844 C 145.238281 182.824219 144.757812 181.75 144.605469 180.683594 C 144.539062 180.15625 144.566406 179.644531 144.722656 179.207031 C 144.921875 178.777344 145.183594 178.449219 145.644531 178.128906 C 146.476562 177.480469 147.464844 177.183594 148.46875 177.277344 C 149.472656 177.363281 150.484375 177.773438 151.417969 178.34375 C 153.285156 179.484375 154.949219 181.179688 156.304688 182.914062 C 156.601562 183.292969 157.125 183.449219 157.59375 183.253906 C 158.152344 183.019531 158.417969 182.375 158.183594 181.816406 L 158.164062 181.769531 C 157.003906 178.992188 156.042969 176 155.65625 173.085938 C 155.484375 171.644531 155.453125 170.15625 155.835938 169.015625 C 156.011719 168.433594 156.3125 168 156.660156 167.667969 C 157.074219 167.382812 157.472656 167.113281 157.886719 167.160156 C 158.726562 167.136719 159.914062 167.871094 160.890625 168.871094 C 161.894531 169.859375 162.792969 171.050781 163.648438 172.285156 C 164.5 173.523438 165.285156 174.832031 166.023438 176.167969 L 168.074219 180.25 L 168.089844 180.285156 C 168.398438 180.894531 169.070312 181.261719 169.777344 181.140625 C 170.648438 180.996094 171.234375 180.175781 171.085938 179.308594 C 170.597656 176.371094 170.308594 173.265625 170.429688 170.355469 C 170.519531 168.925781 170.722656 167.441406 171.242188 166.4375 C 171.496094 165.929688 171.789062 165.613281 172.074219 165.480469 C 172.355469 165.359375 172.839844 165.335938 173.242188 165.464844 C 174.082031 165.695312 174.953125 166.738281 175.621094 167.9375 C 176.292969 169.15625 176.808594 170.554688 177.234375 171.984375 C 178.078125 174.851562 178.601562 177.925781 178.917969 180.914062 L 178.921875 180.972656 C 178.945312 181.164062 179.007812 181.355469 179.117188 181.53125 C 179.511719 182.164062 180.339844 182.355469 180.96875 181.964844 C 183.710938 180.257812 186.699219 178.695312 189.742188 177.699219 C 191.253906 177.230469 192.84375 176.847656 194.234375 177.019531 C 194.925781 177.109375 195.503906 177.355469 195.925781 177.777344 C 196.359375 178.21875 196.601562 178.769531 196.609375 179.433594 C 196.609375 180.792969 195.824219 182.300781 194.960938 183.648438 C 194.058594 185.003906 192.992188 186.285156 191.863281 187.507812 C 189.601562 189.960938 187.113281 192.242188 184.515625 194.390625 C 187.34375 192.546875 190.046875 190.503906 192.5625 188.207031 C 192.921875 187.871094 193.265625 187.511719 193.617188 187.160156 C 194.476562 186.304688 195.3125 185.414062 196.070312 184.441406 C 196.597656 183.746094 197.09375 183.011719 197.511719 182.207031 C 197.925781 181.402344 198.261719 180.5 198.320312 179.476562 C 198.390625 178.453125 198.007812 177.3125 197.292969 176.519531 C 196.574219 175.6875 195.53125 175.21875 194.5625 175.039062 Z M 147.554688 149.203125 C 148.292969 150.550781 149.28125 151.613281 150.351562 152.480469 C 152.5 154.222656 154.917969 155.421875 157.515625 156.027344 C 155.566406 154.242188 153.671875 152.535156 152.136719 150.675781 C 150.566406 148.851562 149.558594 146.792969 149.882812 145.101562 C 150.054688 144.277344 150.484375 143.65625 151.296875 143.105469 C 152.109375 142.5625 153.203125 142.1875 154.355469 141.910156 C 156.6875 141.355469 159.242188 141.175781 161.871094 140.933594 C 159.4375 139.851562 156.796875 139.316406 154.019531 139.402344 C 152.636719 139.472656 151.179688 139.71875 149.753906 140.46875 C 149.046875 140.847656 148.363281 141.386719 147.8125 142.082031 C 147.480469 142.503906 147.226562 142.980469 147.03125 143.472656 C 146.34375 142.296875 145.46875 141.210938 144.472656 140.25 C 143.425781 139.265625 142.230469 138.421875 140.945312 137.75 C 140.621094 137.589844 140.300781 137.417969 139.96875 137.265625 C 139.609375 137.128906 139.25 136.972656 138.882812 136.855469 C 138.152344 136.601562 137.394531 136.457031 136.644531 136.347656 C 133.617188 135.945312 130.699219 136.578125 128.144531 137.679688 C 125.589844 138.804688 123.28125 140.382812 121.519531 142.53125 C 124.207031 141.957031 126.695312 141.359375 129.136719 140.953125 C 131.566406 140.550781 133.921875 140.34375 136.09375 140.605469 C 136.640625 140.664062 137.164062 140.78125 137.6875 140.898438 C 137.949219 140.957031 138.195312 141.046875 138.457031 141.117188 C 138.722656 141.226562 139 141.316406 139.277344 141.414062 C 140.355469 141.839844 141.441406 142.300781 142.476562 142.898438 C 143.898438 143.699219 145.273438 144.660156 146.613281 145.796875 C 146.640625 147.035156 147.011719 148.226562 147.554688 149.203125 Z M 201.941406 128.386719 C 198.632812 127.75 195.207031 127.449219 191.683594 127.890625 C 189.929688 128.121094 188.132812 128.542969 186.394531 129.355469 C 185.960938 129.542969 185.519531 129.804688 185.121094 130.042969 L 184 130.808594 C 183.285156 131.371094 182.582031 131.941406 181.964844 132.609375 C 179.472656 135.207031 177.804688 138.738281 178.125 142.234375 C 179.933594 139.332031 182.074219 137.15625 184.457031 135.425781 C 185.054688 134.992188 185.671875 134.59375 186.296875 134.21875 L 187.253906 133.675781 C 187.566406 133.519531 187.839844 133.371094 188.160156 133.238281 C 189.40625 132.703125 190.820312 132.332031 192.300781 132.097656 C 195.265625 131.605469 198.433594 131.515625 201.632812 131.496094 L 211.457031 131.59375 C 208.457031 130.058594 205.242188 129.050781 201.941406 128.386719 Z M 201.941406 128.386719 " fill-opacity="1" fill-rule="nonzero"/></svg>