<!DOCTYPE svg PUBLIC "-//W3C//DTD SVG 1.1//EN" "http://www.w3.org/Graphics/SVG/1.1/DTD/svg11.dtd">
<!-- Uploaded to: SVG Repo, www.svgrepo.com, Transformed by: SVG Repo Mixer Tools -->
<svg width="800px" height="800px" viewBox="0 0 1024 1024" class="icon" version="1.1" xmlns="http://www.w3.org/2000/svg" fill="#000000">
<g id="SVGRepo_bgCarrier" stroke-width="0"/>
<g id="SVGRepo_tracerCarrier" stroke-linecap="round" stroke-linejoin="round"/>
<g id="SVGRepo_iconCarrier">
<path d="M580.8 149.7H442.4c-10.1 0-18.3-8.2-18.3-18.3V43.7c0-10.1 8.2-18.3 18.3-18.3 0 0 51.9-6.9 69.2-6.9 17.3 0 69.2 6.9 69.2 6.9 10.1 0 18.3 8.2 18.3 18.3v87.8c0 10-8.2 18.2-18.3 18.2z" fill="#F96806"/>
<path d="M580.8 160.7H442.3c-16.2 0-29.3-13.2-29.3-29.3V43.7c0-15.9 12.7-28.9 28.5-29.3 6.3-0.8 53.1-6.9 70-6.9 17 0 63.7 6.1 70 6.9 15.8 0.4 28.5 13.4 28.5 29.3v87.8c0.1 16.1-13.1 29.2-29.2 29.2zM511.5 29.4c-16.4 0-67.3 6.7-67.8 6.8-0.5 0.1-1 0.1-1.5 0.1-4 0-7.3 3.3-7.3 7.3v87.8c0 4 3.3 7.3 7.3 7.3h138.4c4 0 7.3-3.3 7.3-7.3V43.7c0-4-3.3-7.3-7.3-7.3-0.5 0-1 0-1.5-0.1-0.3-0.1-51.2-6.9-67.6-6.9z" fill="#292929"/>
<path d="M580.8 149.7H442.4c-10.1 0-18.3-8.2-18.3-18.3V43.7c0-10.1 8.2-18.3 18.3-18.3 0 0 22.6-6.9 69.2-6.9 49.2 0 69.2 6.9 69.2 6.9 10.1 0 18.3 8.2 18.3 18.3v87.8c0 10-8.2 18.2-18.3 18.2z" fill="#f79f08"/>
<path d="M580.8 160.7H442.3c-16.2 0-29.3-13.2-29.3-29.3V43.7c0-15.6 12.3-28.4 27.7-29.3 6-1.6 29.4-7 70.9-7 43 0 64.9 5.2 71 7 15.3 0.9 27.5 13.7 27.5 29.3v87.8c0 16.1-13.2 29.2-29.3 29.2zM511.5 29.4c-44 0-65.8 6.4-66 6.4-1 0.3-2.1 0.5-3.2 0.5-4 0-7.3 3.3-7.3 7.3v87.8c0 4 3.3 7.3 7.3 7.3h138.4c4 0 7.3-3.3 7.3-7.3V43.7c0-4-3.3-7.3-7.3-7.3-1.2 0-2.4-0.2-3.6-0.6-0.1-0.1-19.5-6.4-65.6-6.4z" fill="#292929"/>
<path d="M556.5 120.4c-9.4 0-17-7.6-17-17V66.5c0-9.4 7.6-17 17-17s17 7.6 17 17v36.9c0 9.4-7.7 17-17 17z" fill="#FFD400"/>
<path d="M576.1 260.3V148H447v112.3c0 41.1-11 81.5-32 116.9L398.3 399c-10 13-15.4 28.9-15.4 45.2v557.9h257.2V444.2c0-16.4-5.4-32.2-15.4-45.2L608 377.2c-20.9-35.4-31.9-75.8-31.9-116.9z" fill="#E2B97F"/>
<path d="M640.1 1013.1H382.9c-6.1 0-11-4.9-11-11V444.2c0-18.7 6.3-37.1 17.6-51.9l16.3-21.3c19.7-33.6 30.1-71.8 30.1-110.8V148c0-6.1 4.9-11 11-11H576c6.1 0 11 4.9 11 11v112.3c0 38.9 10.4 77.2 30.1 110.8l16.3 21.3c11.4 14.8 17.6 33.2 17.6 51.9v557.9c0.1 6-4.8 10.9-10.9 10.9z m-246.2-22h235.2V444.2c0-13.9-4.6-27.5-13.1-38.5l-16.7-21.8c-0.3-0.4-0.5-0.7-0.7-1.1-21.9-37.1-33.5-79.4-33.5-122.5V159H458v101.3c0 43.1-11.6 85.4-33.5 122.5-0.2 0.4-0.5 0.7-0.7 1.1L407 405.7c-8.4 11-13.1 24.7-13.1 38.5v546.9z" fill="#292929"/>
<path d="M613.6 966.3H565c-5.5 0-10-4.5-10-10s4.5-10 10-10h38.6V791.8c0-5.5 4.5-10 10-10s10 4.5 10 10v164.5c0 5.6-4.5 10-10 10zM434.4 432.4c-2.4 0-4.8-0.8-6.8-2.4-4.8-3.8-5.6-10.7-1.8-15.5 9.4-11.8 17-24.9 22.9-38.8 2.3-5.6 8.8-8.2 14.4-5.9 5.6 2.3 8.2 8.8 5.9 14.4-6.6 15.8-15.3 30.6-25.9 44-2.2 2.8-5.5 4.2-8.7 4.2z" fill="#FFD400"/>
</g>
</svg>