<svg xmlns="http://www.w3.org/2000/svg" xmlns:xlink="http://www.w3.org/1999/xlink" width="500" zoomAndPan="magnify" viewBox="0 0 375 374.999991" height="500" preserveAspectRatio="xMidYMid meet" version="1.0"><path fill="#8db93f" d="M 179.390625 97.011719 C 158.484375 94.71875 122.527344 120.265625 109.355469 131.613281 C 58.484375 175.371094 71.65625 246.335938 119.992188 287.636719 C 145.652344 309.570312 185.726562 323.1875 220.65625 313.421875 C 253.863281 304.132812 288.183594 280.089844 292.195312 247.601562 C 297.027344 208.28125 316.484375 112.082031 179.390625 97.011719 Z M 179.390625 97.011719 " fill-opacity="1" fill-rule="nonzero"/><path fill="#8db93f" d="M 179.390625 97.011719 C 158.484375 94.71875 122.527344 120.265625 109.355469 131.613281 C 58.484375 175.371094 71.65625 246.335938 119.992188 287.636719 C 145.652344 309.570312 185.726562 323.1875 220.65625 313.421875 C 253.863281 304.132812 288.183594 280.089844 292.195312 247.601562 C 297.027344 208.28125 316.484375 112.082031 179.390625 97.011719 Z M 179.390625 97.011719 " fill-opacity="1" fill-rule="nonzero"/><path fill="#80b041" d="M 142.566406 287.71875 C 94.253906 246.441406 81.054688 175.476562 131.925781 131.691406 C 142.75 122.375 168.9375 103.480469 189.53125 98.304688 C 186.257812 97.832031 182.878906 97.382812 179.390625 97.011719 C 158.484375 94.71875 122.527344 120.265625 109.355469 131.613281 C 58.484375 175.371094 71.65625 246.335938 119.992188 287.636719 C 142.40625 306.796875 175.855469 319.625 207.242188 316.035156 C 183.140625 313.238281 159.644531 302.339844 142.566406 287.71875 Z M 142.566406 287.71875 " fill-opacity="1" fill-rule="nonzero"/><path fill="#b7cb6b" d="M 264.582031 136.414062 C 266.984375 137.074219 269.203125 138.5 270.839844 140.242188 C 278.074219 147.949219 279.867188 159.878906 282.71875 169.21875 C 288.660156 188.671875 289.320312 208.386719 287.046875 228.335938 C 285.09375 245.570312 281.242188 263.808594 266.640625 276.421875 C 264.636719 278.164062 262.046875 279.851562 259.277344 279.402344 C 256.398438 278.929688 254.628906 276.316406 253.757812 273.835938 C 249.429688 261.667969 258.539062 250.503906 264.082031 240 C 275.40625 218.464844 270.945312 199.941406 259.59375 180.066406 C 253.96875 170.222656 236.625 139.582031 260.332031 136.125 C 261.757812 135.914062 263.210938 136.019531 264.582031 136.414062 Z M 264.582031 136.414062 " fill-opacity="1" fill-rule="nonzero"/><path fill="#477a39" d="M 156.476562 120.132812 C 156.476562 120.132812 164.53125 133.75 186.757812 129.238281 C 208.984375 124.699219 204.128906 113.535156 204.128906 113.535156 C 204.128906 113.535156 227.886719 126.148438 249.457031 117.570312 C 232.585938 107.726562 209.855469 100.390625 179.390625 97.039062 C 161.546875 95.085938 132.769531 113.375 116.507812 125.859375 C 126.9375 130.054688 141.351562 131.640625 156.476562 120.132812 Z M 156.476562 120.132812 " fill-opacity="1" fill-rule="nonzero"/><path fill="#407236" d="M 176.414062 96.882812 C 177.671875 96.890625 178.921875 96.949219 180.15625 97.058594 C 181.390625 97.171875 182.589844 97.335938 183.753906 97.546875 C 184.917969 97.761719 186.023438 98.023438 187.070312 98.332031 C 188.117188 98.636719 189.082031 98.988281 189.972656 99.375 C 190.863281 99.765625 191.65625 100.191406 192.355469 100.648438 C 193.054688 101.101562 193.640625 101.585938 194.121094 102.089844 C 194.601562 102.597656 194.964844 103.121094 195.207031 103.65625 C 195.449219 104.191406 195.570312 104.734375 195.570312 105.277344 C 195.566406 105.824219 195.441406 106.363281 195.195312 106.898438 C 194.945312 107.433594 194.578125 107.953125 194.09375 108.453125 C 193.609375 108.957031 193.015625 109.433594 192.316406 109.882812 C 191.613281 110.335938 190.816406 110.75 189.921875 111.132812 C 189.03125 111.515625 188.058594 111.855469 187.011719 112.15625 C 185.960938 112.453125 184.855469 112.703125 183.6875 112.910156 C 182.523438 113.113281 181.324219 113.265625 180.085938 113.367188 C 178.851562 113.46875 177.601562 113.515625 176.339844 113.511719 C 175.082031 113.503906 173.832031 113.445312 172.597656 113.335938 C 171.363281 113.222656 170.164062 113.058594 169 112.847656 C 167.835938 112.632812 166.730469 112.371094 165.683594 112.0625 C 164.636719 111.753906 163.671875 111.40625 162.78125 111.015625 C 161.890625 110.628906 161.097656 110.203125 160.398438 109.746094 C 159.703125 109.289062 159.113281 108.808594 158.632812 108.300781 C 158.152344 107.796875 157.789062 107.273438 157.546875 106.738281 C 157.304688 106.203125 157.183594 105.660156 157.183594 105.113281 C 157.1875 104.570312 157.3125 104.027344 157.558594 103.496094 C 157.808594 102.960938 158.175781 102.441406 158.660156 101.941406 C 159.144531 101.4375 159.738281 100.960938 160.4375 100.511719 C 161.140625 100.058594 161.9375 99.644531 162.832031 99.261719 C 163.722656 98.878906 164.695312 98.539062 165.742188 98.238281 C 166.792969 97.941406 167.898438 97.6875 169.066406 97.484375 C 170.230469 97.28125 171.429688 97.128906 172.667969 97.027344 C 173.902344 96.925781 175.152344 96.878906 176.414062 96.882812 Z M 176.414062 96.882812 " fill-opacity="1" fill-rule="nonzero"/><path fill="#69923e" d="M 171.632812 89.519531 L 159.066406 78.910156 C 155.554688 75.953125 149.640625 78.011719 149.507812 82.3125 C 149.507812 82.367188 149.507812 82.445312 149.507812 82.496094 C 149.480469 88.542969 169.703125 110.050781 177.625 107.042969 C 185.542969 104.035156 225.671875 61.886719 225.695312 56.316406 C 225.722656 51.699219 191.324219 79.753906 179.496094 89.570312 C 177.28125 91.390625 173.820312 91.390625 171.632812 89.519531 Z M 171.632812 89.519531 " fill-opacity="1" fill-rule="nonzero"/></svg>