<svg xmlns="http://www.w3.org/2000/svg" xmlns:xlink="http://www.w3.org/1999/xlink" width="500" zoomAndPan="magnify" viewBox="0 0 375 374.999991" height="500" preserveAspectRatio="xMidYMid meet" version="1.0"><defs><clipPath id="caa7384ad9"><path d="M 107 200 L 269 200 L 269 313.660156 L 107 313.660156 Z M 107 200 " clip-rule="nonzero"/></clipPath></defs><path fill="#600707" d="M 296.398438 189.5625 C 296.398438 190.757812 296.355469 191.953125 296.269531 193.148438 C 296.179688 194.34375 296.050781 195.535156 295.875 196.726562 C 295.699219 197.917969 295.484375 199.101562 295.222656 200.285156 C 294.960938 201.46875 294.65625 202.648438 294.308594 203.820312 C 293.960938 204.996094 293.570312 206.160156 293.136719 207.324219 C 292.703125 208.484375 292.230469 209.636719 291.710938 210.78125 C 291.195312 211.925781 290.636719 213.0625 290.035156 214.1875 C 289.433594 215.3125 288.792969 216.429688 288.113281 217.535156 C 287.429688 218.640625 286.707031 219.734375 285.945312 220.816406 C 285.183594 221.894531 284.382812 222.964844 283.542969 224.019531 C 282.703125 225.074219 281.824219 226.113281 280.910156 227.140625 C 279.992188 228.167969 279.039062 229.175781 278.050781 230.171875 C 277.0625 231.167969 276.035156 232.144531 274.972656 233.105469 C 273.914062 234.066406 272.816406 235.007812 271.6875 235.933594 C 270.554688 236.859375 269.390625 237.765625 268.195312 238.652344 C 267 239.535156 265.769531 240.402344 264.511719 241.25 C 263.25 242.09375 261.960938 242.917969 260.640625 243.722656 C 259.320312 244.527344 257.972656 245.308594 256.59375 246.066406 C 255.214844 246.824219 253.8125 247.5625 252.378906 248.273438 C 250.949219 248.988281 249.492188 249.675781 248.011719 250.339844 C 246.53125 251.003906 245.023438 251.644531 243.496094 252.257812 C 241.96875 252.875 240.417969 253.464844 238.847656 254.027344 C 237.277344 254.589844 235.683594 255.128906 234.074219 255.640625 C 232.464844 256.152344 230.835938 256.636719 229.1875 257.09375 C 227.542969 257.550781 225.878906 257.984375 224.203125 258.386719 C 222.523438 258.789062 220.832031 259.164062 219.128906 259.511719 C 217.421875 259.859375 215.707031 260.175781 213.976562 260.46875 C 212.25 260.757812 210.511719 261.019531 208.765625 261.253906 C 207.015625 261.488281 205.261719 261.691406 203.5 261.867188 C 201.734375 262.042969 199.96875 262.191406 198.195312 262.308594 C 196.421875 262.425781 194.644531 262.511719 192.867188 262.570312 C 191.085938 262.628906 189.304688 262.660156 187.523438 262.660156 C 185.742188 262.660156 183.960938 262.628906 182.179688 262.570312 C 180.402344 262.511719 178.625 262.425781 176.851562 262.308594 C 175.078125 262.191406 173.308594 262.042969 171.546875 261.867188 C 169.785156 261.691406 168.03125 261.488281 166.28125 261.253906 C 164.535156 261.019531 162.796875 260.757812 161.066406 260.46875 C 159.339844 260.175781 157.625 259.859375 155.917969 259.511719 C 154.210938 259.164062 152.519531 258.789062 150.84375 258.386719 C 149.167969 257.984375 147.503906 257.550781 145.859375 257.09375 C 144.210938 256.636719 142.582031 256.152344 140.972656 255.640625 C 139.363281 255.128906 137.769531 254.589844 136.199219 254.027344 C 134.628906 253.464844 133.078125 252.875 131.550781 252.257812 C 130.019531 251.644531 128.515625 251.003906 127.035156 250.339844 C 125.554688 249.675781 124.097656 248.988281 122.664062 248.273438 C 121.234375 247.5625 119.828125 246.824219 118.453125 246.066406 C 117.074219 245.308594 115.726562 244.527344 114.40625 243.722656 C 113.085938 242.917969 111.796875 242.09375 110.535156 241.25 C 109.277344 240.402344 108.046875 239.535156 106.851562 238.652344 C 105.652344 237.765625 104.492188 236.859375 103.359375 235.933594 C 102.230469 235.007812 101.132812 234.066406 100.074219 233.105469 C 99.011719 232.144531 97.984375 231.167969 96.996094 230.171875 C 96.003906 229.175781 95.050781 228.167969 94.136719 227.140625 C 93.21875 226.113281 92.34375 225.074219 91.503906 224.019531 C 90.664062 222.964844 89.863281 221.894531 89.101562 220.816406 C 88.339844 219.734375 87.617188 218.640625 86.933594 217.535156 C 86.253906 216.429688 85.609375 215.3125 85.011719 214.1875 C 84.410156 213.0625 83.851562 211.925781 83.335938 210.78125 C 82.816406 209.636719 82.34375 208.484375 81.910156 207.324219 C 81.476562 206.160156 81.085938 204.996094 80.738281 203.820312 C 80.390625 202.648438 80.085938 201.46875 79.824219 200.285156 C 79.5625 199.101562 79.34375 197.917969 79.171875 196.726562 C 78.996094 195.535156 78.863281 194.34375 78.777344 193.148438 C 78.691406 191.953125 78.648438 190.757812 78.648438 189.5625 C 78.648438 188.363281 78.691406 187.167969 78.777344 185.972656 C 78.863281 184.78125 78.996094 183.585938 79.171875 182.394531 C 79.34375 181.207031 79.5625 180.019531 79.824219 178.835938 C 80.085938 177.652344 80.390625 176.472656 80.738281 175.300781 C 81.085938 174.128906 81.476562 172.960938 81.910156 171.800781 C 82.34375 170.640625 82.816406 169.488281 83.335938 168.34375 C 83.851562 167.195312 84.410156 166.0625 85.011719 164.933594 C 85.609375 163.808594 86.253906 162.691406 86.933594 161.585938 C 87.617188 160.484375 88.339844 159.390625 89.101562 158.308594 C 89.863281 157.226562 90.664062 156.15625 91.503906 155.101562 C 92.34375 154.046875 93.21875 153.007812 94.136719 151.980469 C 95.050781 150.957031 96.003906 149.945312 96.996094 148.949219 C 97.984375 147.957031 99.011719 146.976562 100.074219 146.015625 C 101.132812 145.054688 102.230469 144.113281 103.359375 143.1875 C 104.492188 142.261719 105.652344 141.359375 106.851562 140.472656 C 108.046875 139.585938 109.277344 138.71875 110.535156 137.875 C 111.796875 137.027344 113.085938 136.203125 114.40625 135.398438 C 115.726562 134.597656 117.074219 133.816406 118.453125 133.054688 C 119.828125 132.296875 121.234375 131.5625 122.664062 130.847656 C 124.097656 130.136719 125.554688 129.445312 127.035156 128.78125 C 128.515625 128.117188 130.019531 127.476562 131.550781 126.863281 C 133.078125 126.25 134.628906 125.660156 136.199219 125.09375 C 137.769531 124.53125 139.363281 123.992188 140.972656 123.480469 C 142.582031 122.96875 144.210938 122.484375 145.859375 122.027344 C 147.503906 121.570312 149.167969 121.140625 150.84375 120.738281 C 152.519531 120.332031 154.210938 119.957031 155.917969 119.609375 C 157.625 119.261719 159.339844 118.945312 161.066406 118.652344 C 162.796875 118.363281 164.535156 118.101562 166.28125 117.867188 C 168.03125 117.632812 169.785156 117.429688 171.546875 117.253906 C 173.308594 117.078125 175.078125 116.933594 176.851562 116.816406 C 178.625 116.699219 180.402344 116.609375 182.179688 116.550781 C 183.960938 116.492188 185.742188 116.464844 187.523438 116.464844 C 189.304688 116.464844 191.085938 116.492188 192.867188 116.550781 C 194.644531 116.609375 196.421875 116.699219 198.195312 116.816406 C 199.96875 116.933594 201.734375 117.078125 203.5 117.253906 C 205.261719 117.429688 207.015625 117.632812 208.765625 117.867188 C 210.511719 118.101562 212.25 118.363281 213.976562 118.652344 C 215.707031 118.945312 217.421875 119.261719 219.128906 119.609375 C 220.832031 119.957031 222.523438 120.332031 224.203125 120.738281 C 225.878906 121.140625 227.542969 121.570312 229.1875 122.027344 C 230.835938 122.484375 232.464844 122.96875 234.074219 123.480469 C 235.683594 123.992188 237.277344 124.53125 238.847656 125.09375 C 240.417969 125.660156 241.96875 126.25 243.496094 126.863281 C 245.023438 127.476562 246.53125 128.117188 248.011719 128.78125 C 249.492188 129.445312 250.949219 130.136719 252.378906 130.847656 C 253.8125 131.5625 255.214844 132.296875 256.59375 133.054688 C 257.972656 133.816406 259.320312 134.597656 260.640625 135.398438 C 261.960938 136.203125 263.25 137.027344 264.511719 137.875 C 265.769531 138.71875 267 139.585938 268.195312 140.472656 C 269.390625 141.359375 270.554688 142.261719 271.6875 143.1875 C 272.816406 144.113281 273.914062 145.054688 274.972656 146.015625 C 276.035156 146.976562 277.0625 147.957031 278.050781 148.949219 C 279.039062 149.945312 279.992188 150.957031 280.910156 151.980469 C 281.824219 153.007812 282.703125 154.046875 283.542969 155.101562 C 284.382812 156.15625 285.183594 157.226562 285.945312 158.308594 C 286.707031 159.390625 287.429688 160.484375 288.113281 161.585938 C 288.792969 162.691406 289.433594 163.808594 290.035156 164.933594 C 290.636719 166.0625 291.195312 167.195312 291.710938 168.34375 C 292.230469 169.488281 292.703125 170.640625 293.136719 171.800781 C 293.570312 172.960938 293.960938 174.128906 294.308594 175.300781 C 294.65625 176.472656 294.960938 177.652344 295.222656 178.835938 C 295.484375 180.019531 295.699219 181.207031 295.875 182.394531 C 296.050781 183.585938 296.179688 184.78125 296.269531 185.972656 C 296.355469 187.167969 296.398438 188.363281 296.398438 189.5625 Z M 296.398438 189.5625 " fill-opacity="1" fill-rule="nonzero"/><path fill="#ffffff" d="M 271 128.960938 C 271 129.613281 270.867188 130.265625 270.597656 130.914062 C 270.332031 131.566406 269.929688 132.210938 269.394531 132.851562 C 268.863281 133.492188 268.199219 134.125 267.40625 134.75 C 266.613281 135.375 265.691406 135.988281 264.644531 136.589844 C 263.597656 137.195312 262.433594 137.785156 261.144531 138.359375 C 259.855469 138.9375 258.449219 139.496094 256.933594 140.039062 C 255.414062 140.582031 253.785156 141.105469 252.050781 141.609375 C 250.316406 142.113281 248.484375 142.597656 246.550781 143.058594 C 244.617188 143.523438 242.59375 143.960938 240.480469 144.375 C 238.367188 144.789062 236.171875 145.175781 233.902344 145.539062 C 231.628906 145.902344 229.285156 146.238281 226.875 146.546875 C 224.460938 146.851562 221.996094 147.132812 219.46875 147.382812 C 216.941406 147.632812 214.371094 147.851562 211.753906 148.042969 C 209.140625 148.230469 206.488281 148.390625 203.808594 148.515625 C 201.128906 148.644531 198.425781 148.738281 195.707031 148.804688 C 192.984375 148.867188 190.257812 148.898438 187.523438 148.898438 C 184.789062 148.898438 182.0625 148.867188 179.339844 148.804688 C 176.621094 148.738281 173.917969 148.644531 171.238281 148.515625 C 168.554688 148.390625 165.90625 148.230469 163.292969 148.042969 C 160.675781 147.851562 158.105469 147.632812 155.578125 147.382812 C 153.050781 147.132812 150.582031 146.851562 148.171875 146.546875 C 145.761719 146.238281 143.417969 145.902344 141.144531 145.539062 C 138.871094 145.175781 136.679688 144.789062 134.566406 144.375 C 132.453125 143.960938 130.429688 143.523438 128.496094 143.058594 C 126.5625 142.597656 124.730469 142.113281 122.996094 141.609375 C 121.261719 141.105469 119.632812 140.582031 118.113281 140.039062 C 116.59375 139.496094 115.191406 138.9375 113.902344 138.359375 C 112.613281 137.785156 111.445312 137.195312 110.402344 136.589844 C 109.355469 135.988281 108.433594 135.375 107.640625 134.75 C 106.847656 134.125 106.183594 133.492188 105.648438 132.851562 C 105.117188 132.210938 104.714844 131.566406 104.449219 130.914062 C 104.179688 130.265625 104.046875 129.613281 104.046875 128.960938 C 104.046875 128.308594 104.179688 127.65625 104.449219 127.007812 C 104.714844 126.355469 105.117188 125.710938 105.648438 125.070312 C 106.183594 124.429688 106.847656 123.796875 107.640625 123.171875 C 108.433594 122.546875 109.355469 121.933594 110.402344 121.332031 C 111.445312 120.726562 112.613281 120.136719 113.902344 119.5625 C 115.191406 118.984375 116.59375 118.425781 118.113281 117.882812 C 119.632812 117.339844 121.261719 116.816406 122.996094 116.3125 C 124.730469 115.804688 126.5625 115.324219 128.496094 114.863281 C 130.429688 114.398438 132.453125 113.960938 134.566406 113.546875 C 136.679688 113.132812 138.871094 112.746094 141.144531 112.382812 C 143.417969 112.019531 145.761719 111.683594 148.171875 111.375 C 150.582031 111.066406 153.050781 110.789062 155.578125 110.539062 C 158.105469 110.289062 160.675781 110.070312 163.292969 109.878906 C 165.90625 109.691406 168.554688 109.53125 171.238281 109.40625 C 173.917969 109.277344 176.621094 109.179688 179.339844 109.117188 C 182.0625 109.054688 184.789062 109.019531 187.523438 109.019531 C 190.257812 109.019531 192.984375 109.054688 195.707031 109.117188 C 198.425781 109.179688 201.128906 109.277344 203.808594 109.40625 C 206.488281 109.53125 209.140625 109.691406 211.753906 109.878906 C 214.371094 110.070312 216.941406 110.289062 219.46875 110.539062 C 221.996094 110.789062 224.460938 111.066406 226.875 111.375 C 229.285156 111.683594 231.628906 112.019531 233.902344 112.382812 C 236.171875 112.746094 238.367188 113.132812 240.480469 113.546875 C 242.59375 113.960938 244.617188 114.398438 246.550781 114.863281 C 248.484375 115.324219 250.316406 115.804688 252.050781 116.3125 C 253.785156 116.816406 255.414062 117.339844 256.933594 117.882812 C 258.449219 118.425781 259.855469 118.984375 261.144531 119.5625 C 262.433594 120.136719 263.597656 120.726562 264.644531 121.332031 C 265.691406 121.933594 266.613281 122.546875 267.40625 123.171875 C 268.199219 123.796875 268.863281 124.429688 269.394531 125.070312 C 269.929688 125.710938 270.332031 126.355469 270.597656 127.007812 C 270.867188 127.65625 271 128.308594 271 128.960938 Z M 271 128.960938 " fill-opacity="1" fill-rule="nonzero"/><path fill="#f63845" d="M 212.179688 235.199219 L 162.867188 235.199219 C 151.179688 235.199219 145.894531 232.277344 139.84375 226.8125 C 133.550781 221.066406 127.664062 214.929688 122.179688 208.40625 L 80.082031 182.804688 C 74.453125 179.8125 67.941406 185.164062 70.460938 190.722656 C 89.214844 232.074219 118.132812 286.894531 162.089844 286.894531 L 212.957031 286.894531 C 256.914062 286.894531 285.832031 232.074219 304.585938 190.722656 C 307.109375 185.164062 300.59375 179.8125 294.964844 182.804688 L 252.867188 208.410156 C 247.382812 214.929688 241.496094 221.066406 235.203125 226.8125 C 229.152344 232.277344 223.867188 235.199219 212.179688 235.199219 Z M 212.179688 235.199219 " fill-opacity="1" fill-rule="nonzero"/><path fill="#f63845" d="M 305.027344 180.882812 C 281.824219 160.703125 263.375 61.667969 217.484375 75.464844 C 212.625 76.925781 207.6875 78.023438 202.664062 78.761719 C 197.644531 79.496094 192.597656 79.867188 187.523438 79.867188 C 182.449219 79.867188 177.402344 79.496094 172.382812 78.761719 C 167.359375 78.023438 162.421875 76.925781 157.5625 75.464844 C 111.671875 61.667969 93.222656 160.703125 70.019531 180.882812 C 66.023438 184.359375 68.253906 191.449219 73.332031 191.449219 L 148.433594 122.816406 C 149.238281 122.261719 150.097656 121.820312 151.015625 121.484375 C 151.933594 121.152344 152.875 120.9375 153.847656 120.847656 C 154.820312 120.753906 155.785156 120.785156 156.75 120.9375 C 157.714844 121.09375 158.644531 121.367188 159.535156 121.757812 C 165.304688 124.40625 175.671875 126.175781 187.523438 126.175781 C 199.375 126.175781 209.742188 124.40625 215.507812 121.757812 C 216.402344 121.367188 217.332031 121.09375 218.296875 120.9375 C 219.257812 120.785156 220.226562 120.753906 221.199219 120.847656 C 222.167969 120.9375 223.113281 121.152344 224.03125 121.484375 C 224.945312 121.820312 225.808594 122.261719 226.609375 122.816406 L 301.714844 191.449219 C 306.792969 191.449219 309.023438 184.359375 305.027344 180.882812 Z M 305.027344 180.882812 " fill-opacity="1" fill-rule="nonzero"/><path fill="#ff979f" d="M 205.515625 200.90625 C 205.515625 202.1875 205.433594 203.464844 205.277344 204.738281 C 205.117188 206.011719 204.882812 207.277344 204.566406 208.53125 C 204.253906 209.789062 203.863281 211.027344 203.394531 212.253906 C 202.925781 213.476562 202.382812 214.683594 201.765625 215.863281 C 201.148438 217.046875 200.460938 218.203125 199.699219 219.332031 C 198.9375 220.460938 198.109375 221.558594 197.214844 222.625 C 196.316406 223.6875 195.359375 224.714844 194.335938 225.703125 C 193.3125 226.695312 192.230469 227.640625 191.089844 228.546875 C 189.949219 229.453125 188.753906 230.3125 187.507812 231.121094 C 186.261719 231.933594 184.96875 232.695312 183.628906 233.40625 C 182.285156 234.121094 180.90625 234.777344 179.480469 235.378906 C 178.058594 235.984375 176.601562 236.53125 175.113281 237.019531 C 173.621094 237.511719 172.105469 237.941406 170.5625 238.3125 C 169.019531 238.683594 167.457031 238.996094 165.875 239.246094 C 164.292969 239.496094 162.699219 239.683594 161.09375 239.808594 C 159.488281 239.933594 157.878906 239.996094 156.265625 239.996094 C 154.65625 239.996094 153.046875 239.933594 151.441406 239.808594 C 149.835938 239.683594 148.242188 239.496094 146.660156 239.246094 C 145.078125 238.996094 143.515625 238.683594 141.972656 238.3125 C 140.429688 237.941406 138.910156 237.511719 137.421875 237.019531 C 135.929688 236.53125 134.476562 235.984375 133.050781 235.378906 C 131.628906 234.777344 130.25 234.121094 128.90625 233.40625 C 127.566406 232.695312 126.273438 231.933594 125.027344 231.121094 C 123.777344 230.3125 122.585938 229.453125 121.445312 228.546875 C 120.304688 227.640625 119.222656 226.695312 118.199219 225.703125 C 117.175781 224.714844 116.214844 223.6875 115.320312 222.625 C 114.425781 221.558594 113.597656 220.460938 112.835938 219.332031 C 112.074219 218.203125 111.386719 217.046875 110.769531 215.863281 C 110.152344 214.683594 109.609375 213.476562 109.140625 212.253906 C 108.671875 211.027344 108.28125 209.789062 107.96875 208.53125 C 107.652344 207.277344 107.414062 206.011719 107.257812 204.738281 C 107.101562 203.464844 107.019531 202.1875 107.019531 200.90625 C 107.019531 199.625 107.101562 198.347656 107.257812 197.074219 C 107.414062 195.800781 107.652344 194.535156 107.96875 193.28125 C 108.28125 192.023438 108.671875 190.785156 109.140625 189.558594 C 109.609375 188.332031 110.152344 187.128906 110.769531 185.945312 C 111.386719 184.765625 112.074219 183.609375 112.835938 182.480469 C 113.597656 181.351562 114.425781 180.253906 115.320312 179.1875 C 116.214844 178.125 117.175781 177.097656 118.199219 176.109375 C 119.222656 175.117188 120.304688 174.171875 121.445312 173.265625 C 122.585938 172.359375 123.777344 171.5 125.027344 170.6875 C 126.273438 169.878906 127.566406 169.117188 128.90625 168.402344 C 130.25 167.691406 131.628906 167.035156 133.050781 166.433594 C 134.476562 165.828125 135.929688 165.28125 137.421875 164.792969 C 138.910156 164.300781 140.429688 163.871094 141.972656 163.5 C 143.515625 163.128906 145.078125 162.816406 146.660156 162.566406 C 148.242188 162.316406 149.835938 162.128906 151.441406 162.003906 C 153.046875 161.878906 154.65625 161.816406 156.265625 161.816406 C 157.878906 161.816406 159.488281 161.878906 161.09375 162.003906 C 162.699219 162.128906 164.292969 162.316406 165.875 162.566406 C 167.457031 162.816406 169.019531 163.128906 170.5625 163.5 C 172.105469 163.871094 173.621094 164.300781 175.113281 164.792969 C 176.601562 165.28125 178.058594 165.828125 179.480469 166.433594 C 180.90625 167.035156 182.285156 167.691406 183.628906 168.402344 C 184.96875 169.117188 186.261719 169.878906 187.507812 170.6875 C 188.753906 171.5 189.949219 172.359375 191.089844 173.265625 C 192.230469 174.171875 193.3125 175.117188 194.335938 176.109375 C 195.359375 177.097656 196.316406 178.125 197.214844 179.1875 C 198.109375 180.253906 198.9375 181.351562 199.699219 182.480469 C 200.460938 183.609375 201.148438 184.765625 201.765625 185.945312 C 202.382812 187.128906 202.925781 188.332031 203.394531 189.558594 C 203.863281 190.785156 204.253906 192.023438 204.566406 193.28125 C 204.882812 194.535156 205.117188 195.800781 205.277344 197.074219 C 205.433594 198.347656 205.515625 199.625 205.515625 200.90625 Z M 205.515625 200.90625 " fill-opacity="1" fill-rule="nonzero"/><path fill="#ff979f" d="M 268.027344 200.90625 C 268.027344 202.1875 267.945312 203.464844 267.789062 204.738281 C 267.628906 206.011719 267.394531 207.277344 267.078125 208.53125 C 266.765625 209.789062 266.375 211.027344 265.90625 212.253906 C 265.4375 213.476562 264.894531 214.683594 264.277344 215.863281 C 263.660156 217.046875 262.972656 218.203125 262.210938 219.332031 C 261.449219 220.460938 260.621094 221.558594 259.726562 222.625 C 258.828125 223.6875 257.871094 224.714844 256.847656 225.703125 C 255.824219 226.695312 254.742188 227.640625 253.601562 228.546875 C 252.460938 229.453125 251.265625 230.3125 250.019531 231.121094 C 248.773438 231.933594 247.480469 232.695312 246.140625 233.40625 C 244.796875 234.121094 243.417969 234.777344 241.992188 235.378906 C 240.570312 235.984375 239.113281 236.53125 237.625 237.019531 C 236.136719 237.511719 234.617188 237.941406 233.074219 238.3125 C 231.53125 238.683594 229.96875 238.996094 228.386719 239.246094 C 226.804688 239.496094 225.210938 239.683594 223.605469 239.808594 C 222 239.933594 220.390625 239.996094 218.777344 239.996094 C 217.167969 239.996094 215.558594 239.933594 213.953125 239.808594 C 212.347656 239.683594 210.753906 239.496094 209.171875 239.246094 C 207.589844 238.996094 206.027344 238.683594 204.484375 238.3125 C 202.941406 237.941406 201.421875 237.511719 199.933594 237.019531 C 198.441406 236.53125 196.988281 235.984375 195.5625 235.378906 C 194.140625 234.777344 192.761719 234.121094 191.417969 233.40625 C 190.078125 232.695312 188.785156 231.933594 187.539062 231.121094 C 186.289062 230.3125 185.097656 229.453125 183.957031 228.546875 C 182.816406 227.640625 181.734375 226.695312 180.710938 225.703125 C 179.6875 224.714844 178.726562 223.6875 177.832031 222.625 C 176.9375 221.558594 176.109375 220.460938 175.347656 219.332031 C 174.585938 218.203125 173.898438 217.046875 173.28125 215.863281 C 172.664062 214.683594 172.121094 213.476562 171.652344 212.253906 C 171.183594 211.027344 170.792969 209.789062 170.480469 208.53125 C 170.164062 207.277344 169.929688 206.011719 169.769531 204.738281 C 169.613281 203.464844 169.53125 202.1875 169.53125 200.90625 C 169.53125 199.625 169.613281 198.347656 169.769531 197.074219 C 169.929688 195.800781 170.164062 194.535156 170.480469 193.28125 C 170.792969 192.023438 171.183594 190.785156 171.652344 189.558594 C 172.121094 188.332031 172.664062 187.128906 173.28125 185.945312 C 173.898438 184.765625 174.585938 183.609375 175.347656 182.480469 C 176.109375 181.351562 176.9375 180.253906 177.832031 179.1875 C 178.726562 178.125 179.6875 177.097656 180.710938 176.109375 C 181.734375 175.117188 182.816406 174.171875 183.957031 173.265625 C 185.097656 172.359375 186.289062 171.5 187.539062 170.6875 C 188.785156 169.878906 190.078125 169.117188 191.417969 168.402344 C 192.761719 167.691406 194.140625 167.035156 195.5625 166.433594 C 196.988281 165.828125 198.441406 165.28125 199.933594 164.792969 C 201.421875 164.300781 202.941406 163.871094 204.484375 163.5 C 206.027344 163.128906 207.589844 162.816406 209.171875 162.566406 C 210.753906 162.316406 212.347656 162.128906 213.953125 162.003906 C 215.558594 161.878906 217.167969 161.816406 218.777344 161.816406 C 220.390625 161.816406 222 161.878906 223.605469 162.003906 C 225.210938 162.128906 226.804688 162.316406 228.386719 162.566406 C 229.96875 162.816406 231.53125 163.128906 233.074219 163.5 C 234.617188 163.871094 236.136719 164.300781 237.625 164.792969 C 239.113281 165.28125 240.570312 165.828125 241.992188 166.433594 C 243.417969 167.035156 244.796875 167.691406 246.140625 168.402344 C 247.480469 169.117188 248.773438 169.878906 250.019531 170.6875 C 251.265625 171.5 252.460938 172.359375 253.601562 173.265625 C 254.742188 174.171875 255.824219 175.117188 256.847656 176.109375 C 257.871094 177.097656 258.828125 178.125 259.726562 179.1875 C 260.621094 180.253906 261.449219 181.351562 262.210938 182.480469 C 262.972656 183.609375 263.660156 184.765625 264.277344 185.945312 C 264.894531 187.128906 265.4375 188.332031 265.90625 189.558594 C 266.375 190.785156 266.765625 192.023438 267.078125 193.28125 C 267.394531 194.535156 267.628906 195.800781 267.789062 197.074219 C 267.945312 198.347656 268.027344 199.625 268.027344 200.90625 Z M 268.027344 200.90625 " fill-opacity="1" fill-rule="nonzero"/><g clip-path="url(#caa7384ad9)"><path fill="#ff979f" d="M 187.523438 313.316406 C 143.0625 313.316406 107.019531 274.933594 107.019531 227.589844 L 107.019531 200.90625 L 268.027344 200.90625 L 268.027344 227.589844 C 268.027344 274.933594 231.984375 313.316406 187.523438 313.316406 Z M 187.523438 313.316406 " fill-opacity="1" fill-rule="nonzero"/></g><path stroke-linecap="round" transform="matrix(0.532977, 0, 0, 0.532977, 54.27884, 60.48902)" fill="none" stroke-linejoin="round" d="M 250.000544 220.876073 L 250.000544 358.392209 " stroke="#f47d8c" stroke-width="4.184" stroke-opacity="1" stroke-miterlimit="4"/></svg>