<svg xmlns="http://www.w3.org/2000/svg" xmlns:xlink="http://www.w3.org/1999/xlink" width="500" zoomAndPan="magnify" viewBox="0 0 375 374.999991" height="500" preserveAspectRatio="xMidYMid meet" version="1.0"><defs><clipPath id="3cb8768650"><path d="M 110 75.066406 L 254 75.066406 L 254 300 L 110 300 Z M 110 75.066406 " clip-rule="nonzero"/></clipPath></defs><g clip-path="url(#3cb8768650)"><path fill="#e40011" d="M 181.953125 75.066406 C 166.800781 124.65625 132.582031 161.746094 116.113281 200.210938 C 112.417969 208.84375 110.371094 218.355469 110.371094 228.34375 C 110.371094 267.875 142.417969 299.925781 181.953125 299.925781 C 221.484375 299.925781 253.53125 267.875 253.53125 228.34375 C 253.53125 218.355469 251.484375 208.84375 247.789062 200.210938 C 231.324219 161.746094 197.105469 124.65625 181.953125 75.066406 Z M 181.953125 75.066406 " fill-opacity="1" fill-rule="evenodd"/></g><path fill="#b10000" d="M 237.15625 201.863281 C 237.15625 244.382812 202.6875 278.851562 160.167969 278.851562 C 146.847656 278.851562 134.320312 275.46875 123.390625 269.515625 C 136.347656 287.90625 157.746094 299.925781 181.953125 299.925781 C 221.484375 299.925781 253.53125 267.875 253.53125 228.34375 C 253.53125 218.355469 251.484375 208.84375 247.789062 200.210938 C 241.816406 186.261719 233.511719 172.492188 224.628906 158.242188 C 226.933594 162.691406 229.066406 167.140625 230.980469 171.605469 C 234.953125 180.890625 237.15625 191.117188 237.15625 201.863281 Z M 237.15625 201.863281 " fill-opacity="1" fill-rule="evenodd"/><path fill="#f6e8e8" d="M 148.226562 262.257812 C 150.09375 264.269531 149.984375 267.410156 147.972656 269.28125 C 145.964844 271.148438 142.820312 271.035156 140.949219 269.027344 C 136.113281 263.839844 132.347656 257.824219 129.789062 251.335938 C 127.234375 244.84375 125.886719 237.882812 125.886719 230.804688 C 125.886719 229.214844 125.972656 227.496094 126.140625 225.652344 C 126.304688 223.917969 126.539062 222.207031 126.851562 220.539062 C 127.34375 217.84375 129.933594 216.058594 132.628906 216.550781 C 135.324219 217.046875 137.109375 219.632812 136.617188 222.328125 C 136.351562 223.75 136.152344 225.160156 136.023438 226.546875 C 135.90625 227.828125 135.847656 229.25 135.847656 230.804688 C 135.847656 236.65625 136.953125 242.390625 139.050781 247.714844 C 141.148438 253.046875 144.246094 257.992188 148.226562 262.257812 Z M 148.226562 262.257812 " fill-opacity="1" fill-rule="nonzero"/><path fill="#f6e8e8" d="M 142.246094 207.347656 C 140.851562 209.710938 137.800781 210.496094 135.4375 209.097656 C 133.078125 207.703125 132.292969 204.65625 133.6875 202.289062 L 134.386719 201.144531 L 135.121094 200.015625 C 136.625 197.726562 139.703125 197.09375 141.988281 198.59375 C 144.277344 200.101562 144.914062 203.175781 143.410156 205.460938 Z M 142.246094 207.347656 " fill-opacity="1" fill-rule="nonzero"/><path fill="#e40011" d="M 255.203125 294.28125 C 255.203125 294.28125 275.210938 246.730469 301.851562 237.660156 C 329.566406 228.222656 341.714844 256.464844 313.613281 271.402344 C 296.824219 280.324219 276.171875 278.042969 255.203125 294.28125 Z M 255.203125 294.28125 " fill-opacity="1" fill-rule="evenodd"/><path fill="#e40011" d="M 285.28125 222.484375 C 285.28125 223.109375 285.21875 223.726562 285.097656 224.34375 C 284.976562 224.957031 284.796875 225.550781 284.554688 226.128906 C 284.316406 226.707031 284.023438 227.257812 283.675781 227.777344 C 283.328125 228.296875 282.933594 228.777344 282.488281 229.222656 C 282.046875 229.664062 281.566406 230.058594 281.046875 230.40625 C 280.527344 230.753906 279.976562 231.046875 279.398438 231.285156 C 278.820312 231.527344 278.222656 231.707031 277.609375 231.828125 C 276.996094 231.953125 276.378906 232.011719 275.75 232.011719 C 275.125 232.011719 274.507812 231.953125 273.890625 231.828125 C 273.277344 231.707031 272.683594 231.527344 272.105469 231.285156 C 271.527344 231.046875 270.976562 230.753906 270.457031 230.40625 C 269.9375 230.058594 269.457031 229.664062 269.011719 229.222656 C 268.570312 228.777344 268.175781 228.296875 267.828125 227.777344 C 267.480469 227.257812 267.1875 226.707031 266.949219 226.128906 C 266.707031 225.550781 266.527344 224.957031 266.40625 224.34375 C 266.28125 223.726562 266.222656 223.109375 266.222656 222.484375 C 266.222656 221.855469 266.28125 221.238281 266.40625 220.625 C 266.527344 220.011719 266.707031 219.414062 266.949219 218.835938 C 267.1875 218.257812 267.480469 217.707031 267.828125 217.1875 C 268.175781 216.667969 268.570312 216.1875 269.011719 215.746094 C 269.457031 215.300781 269.9375 214.90625 270.457031 214.558594 C 270.976562 214.210938 271.527344 213.917969 272.105469 213.679688 C 272.683594 213.4375 273.277344 213.257812 273.890625 213.136719 C 274.507812 213.015625 275.125 212.953125 275.75 212.953125 C 276.378906 212.953125 276.996094 213.015625 277.609375 213.136719 C 278.222656 213.257812 278.820312 213.4375 279.398438 213.679688 C 279.976562 213.917969 280.527344 214.210938 281.046875 214.558594 C 281.566406 214.90625 282.046875 215.300781 282.488281 215.746094 C 282.933594 216.1875 283.328125 216.667969 283.675781 217.1875 C 284.023438 217.707031 284.316406 218.257812 284.554688 218.835938 C 284.796875 219.414062 284.976562 220.011719 285.097656 220.625 C 285.21875 221.238281 285.28125 221.855469 285.28125 222.484375 Z M 285.28125 222.484375 " fill-opacity="1" fill-rule="nonzero"/><path fill="#e40011" d="M 277.066406 191.769531 C 277.066406 192.152344 277.027344 192.53125 276.953125 192.90625 C 276.878906 193.28125 276.769531 193.648438 276.621094 194 C 276.476562 194.355469 276.296875 194.691406 276.082031 195.007812 C 275.871094 195.328125 275.628906 195.621094 275.355469 195.894531 C 275.085938 196.164062 274.792969 196.40625 274.472656 196.617188 C 274.15625 196.832031 273.820312 197.011719 273.464844 197.15625 C 273.113281 197.304688 272.746094 197.414062 272.371094 197.488281 C 271.996094 197.5625 271.617188 197.601562 271.234375 197.601562 C 270.851562 197.601562 270.472656 197.5625 270.097656 197.488281 C 269.71875 197.414062 269.355469 197.304688 269.003906 197.15625 C 268.648438 197.011719 268.3125 196.832031 267.992188 196.617188 C 267.675781 196.40625 267.382812 196.164062 267.109375 195.894531 C 266.839844 195.621094 266.597656 195.328125 266.386719 195.007812 C 266.171875 194.691406 265.992188 194.355469 265.847656 194 C 265.699219 193.648438 265.589844 193.28125 265.515625 192.90625 C 265.441406 192.53125 265.402344 192.152344 265.402344 191.769531 C 265.402344 191.386719 265.441406 191.007812 265.515625 190.632812 C 265.589844 190.257812 265.699219 189.890625 265.847656 189.539062 C 265.992188 189.183594 266.171875 188.847656 266.386719 188.53125 C 266.597656 188.210938 266.839844 187.917969 267.109375 187.644531 C 267.382812 187.375 267.675781 187.132812 267.992188 186.921875 C 268.3125 186.707031 268.648438 186.527344 269.003906 186.382812 C 269.355469 186.234375 269.71875 186.125 270.097656 186.050781 C 270.472656 185.976562 270.851562 185.9375 271.234375 185.9375 C 271.617188 185.9375 271.996094 185.976562 272.371094 186.050781 C 272.746094 186.125 273.113281 186.234375 273.464844 186.382812 C 273.820312 186.527344 274.15625 186.707031 274.472656 186.921875 C 274.792969 187.132812 275.085938 187.375 275.355469 187.644531 C 275.628906 187.917969 275.871094 188.210938 276.082031 188.53125 C 276.296875 188.847656 276.476562 189.183594 276.621094 189.539062 C 276.769531 189.890625 276.878906 190.257812 276.953125 190.632812 C 277.027344 191.007812 277.066406 191.386719 277.066406 191.769531 Z M 277.066406 191.769531 " fill-opacity="1" fill-rule="nonzero"/><path fill="#e40011" d="M 311.109375 218.808594 C 311.109375 219.167969 311.042969 219.515625 310.902344 219.847656 C 310.765625 220.183594 310.570312 220.476562 310.3125 220.730469 C 310.058594 220.988281 309.765625 221.183594 309.429688 221.320312 C 309.097656 221.460938 308.75 221.527344 308.390625 221.527344 C 308.027344 221.527344 307.679688 221.460938 307.347656 221.320312 C 307.015625 221.183594 306.71875 220.988281 306.464844 220.730469 C 306.210938 220.476562 306.011719 220.183594 305.875 219.847656 C 305.738281 219.515625 305.667969 219.167969 305.667969 218.808594 C 305.667969 218.445312 305.738281 218.097656 305.875 217.765625 C 306.011719 217.433594 306.210938 217.136719 306.464844 216.882812 C 306.71875 216.628906 307.015625 216.429688 307.347656 216.292969 C 307.679688 216.15625 308.027344 216.085938 308.390625 216.085938 C 308.75 216.085938 309.097656 216.15625 309.429688 216.292969 C 309.765625 216.429688 310.058594 216.628906 310.3125 216.882812 C 310.570312 217.136719 310.765625 217.433594 310.902344 217.765625 C 311.042969 218.097656 311.109375 218.445312 311.109375 218.808594 Z M 311.109375 218.808594 " fill-opacity="1" fill-rule="nonzero"/><path fill="#e40011" d="M 111.339844 296.148438 C 111.339844 296.148438 93.292969 253.253906 69.253906 245.070312 C 44.253906 236.554688 33.292969 262.035156 58.644531 275.511719 C 73.792969 283.5625 92.421875 281.503906 111.339844 296.148438 Z M 111.339844 296.148438 " fill-opacity="1" fill-rule="evenodd"/><path fill="#e40011" d="M 95.585938 224.644531 C 95.585938 225.410156 95.507812 226.167969 95.359375 226.921875 C 95.210938 227.671875 94.988281 228.402344 94.695312 229.109375 C 94.402344 229.816406 94.042969 230.492188 93.617188 231.128906 C 93.191406 231.765625 92.707031 232.355469 92.167969 232.894531 C 91.625 233.4375 91.035156 233.921875 90.398438 234.347656 C 89.761719 234.773438 89.089844 235.132812 88.382812 235.425781 C 87.671875 235.71875 86.945312 235.941406 86.191406 236.089844 C 85.441406 236.238281 84.683594 236.3125 83.914062 236.3125 C 83.148438 236.3125 82.390625 236.238281 81.640625 236.089844 C 80.886719 235.941406 80.160156 235.71875 79.449219 235.425781 C 78.742188 235.132812 78.070312 234.773438 77.433594 234.347656 C 76.796875 233.921875 76.207031 233.4375 75.664062 232.894531 C 75.125 232.355469 74.640625 231.765625 74.214844 231.128906 C 73.789062 230.492188 73.429688 229.816406 73.136719 229.109375 C 72.84375 228.402344 72.621094 227.671875 72.472656 226.921875 C 72.320312 226.167969 72.246094 225.410156 72.246094 224.644531 C 72.246094 223.878906 72.320312 223.121094 72.472656 222.367188 C 72.621094 221.617188 72.84375 220.886719 73.136719 220.179688 C 73.429688 219.472656 73.789062 218.800781 74.214844 218.160156 C 74.640625 217.523438 75.125 216.9375 75.664062 216.394531 C 76.207031 215.851562 76.796875 215.367188 77.433594 214.941406 C 78.070312 214.515625 78.742188 214.15625 79.449219 213.863281 C 80.160156 213.570312 80.886719 213.351562 81.640625 213.199219 C 82.390625 213.050781 83.148438 212.976562 83.914062 212.976562 C 84.683594 212.976562 85.441406 213.050781 86.191406 213.199219 C 86.945312 213.351562 87.671875 213.570312 88.382812 213.863281 C 89.089844 214.15625 89.761719 214.515625 90.398438 214.941406 C 91.035156 215.367188 91.625 215.851562 92.167969 216.394531 C 92.707031 216.9375 93.191406 217.523438 93.617188 218.160156 C 94.042969 218.800781 94.402344 219.472656 94.695312 220.179688 C 94.988281 220.886719 95.210938 221.617188 95.359375 222.367188 C 95.507812 223.121094 95.585938 223.878906 95.585938 224.644531 Z M 95.585938 224.644531 " fill-opacity="1" fill-rule="nonzero"/><path fill="#e40011" d="M 55.902344 227.761719 C 55.902344 228.144531 55.863281 228.523438 55.789062 228.898438 C 55.714844 229.273438 55.605469 229.636719 55.457031 229.992188 C 55.3125 230.34375 55.132812 230.683594 54.917969 231 C 54.707031 231.320312 54.464844 231.613281 54.191406 231.882812 C 53.921875 232.15625 53.628906 232.394531 53.308594 232.609375 C 52.992188 232.820312 52.65625 233 52.300781 233.148438 C 51.949219 233.292969 51.582031 233.40625 51.207031 233.480469 C 50.832031 233.554688 50.453125 233.589844 50.070312 233.589844 C 49.6875 233.589844 49.308594 233.554688 48.933594 233.480469 C 48.554688 233.40625 48.191406 233.292969 47.839844 233.148438 C 47.484375 233 47.148438 232.820312 46.828125 232.609375 C 46.511719 232.394531 46.21875 232.15625 45.945312 231.882812 C 45.675781 231.613281 45.433594 231.320312 45.222656 231 C 45.007812 230.683594 44.828125 230.34375 44.683594 229.992188 C 44.535156 229.636719 44.425781 229.273438 44.351562 228.898438 C 44.277344 228.523438 44.238281 228.144531 44.238281 227.761719 C 44.238281 227.378906 44.277344 227 44.351562 226.621094 C 44.425781 226.246094 44.535156 225.882812 44.683594 225.527344 C 44.828125 225.175781 45.007812 224.839844 45.222656 224.519531 C 45.433594 224.203125 45.675781 223.90625 45.945312 223.636719 C 46.21875 223.367188 46.511719 223.125 46.828125 222.910156 C 47.148438 222.699219 47.484375 222.519531 47.839844 222.371094 C 48.191406 222.226562 48.554688 222.117188 48.933594 222.039062 C 49.308594 221.964844 49.6875 221.929688 50.070312 221.929688 C 50.453125 221.929688 50.832031 221.964844 51.207031 222.039062 C 51.582031 222.117188 51.949219 222.226562 52.300781 222.371094 C 52.65625 222.519531 52.992188 222.699219 53.308594 222.910156 C 53.628906 223.125 53.921875 223.367188 54.191406 223.636719 C 54.464844 223.90625 54.707031 224.203125 54.917969 224.519531 C 55.132812 224.839844 55.3125 225.175781 55.457031 225.527344 C 55.605469 225.882812 55.714844 226.246094 55.789062 226.621094 C 55.863281 227 55.902344 227.378906 55.902344 227.761719 Z M 55.902344 227.761719 " fill-opacity="1" fill-rule="nonzero"/><path fill="#e40011" d="M 96.75 204.859375 C 96.75 204.859375 88.710938 187.640625 78.777344 184.683594 C 68.441406 181.601562 64.371094 192.167969 74.925781 197.265625 C 81.230469 200.3125 88.800781 199.179688 96.75 204.859375 Z M 96.75 204.859375 " fill-opacity="1" fill-rule="evenodd"/><path fill="#e40011" d="M 290.878906 206.027344 C 290.878906 206.027344 298.921875 188.808594 308.855469 185.847656 C 319.191406 182.769531 323.257812 193.335938 312.703125 198.433594 C 306.394531 201.480469 298.828125 200.34375 290.878906 206.027344 Z M 290.878906 206.027344 " fill-opacity="1" fill-rule="evenodd"/></svg>