<!DOCTYPE svg PUBLIC "-//W3C//DTD SVG 1.1//EN" "http://www.w3.org/Graphics/SVG/1.1/DTD/svg11.dtd">
<!-- Uploaded to: SVG Repo, www.svgrepo.com, Transformed by: SVG Repo Mixer Tools -->
<svg height="800px" width="800px" version="1.1" id="Layer_1" xmlns="http://www.w3.org/2000/svg" xmlns:xlink="http://www.w3.org/1999/xlink" viewBox="-51.2 -51.2 614.40 614.40" xml:space="preserve" fill="#000000" stroke="#000000" stroke-width="3.072">
<g id="SVGRepo_bgCarrier" stroke-width="0"/>
<g id="SVGRepo_tracerCarrier" stroke-linecap="round" stroke-linejoin="round"/>
<g id="SVGRepo_iconCarrier"> <path style="fill:#B8004F;" d="M272.168,305.404h-32.337c-40.421,0-73.656-33.235-73.656-73.656V89.825 C166.175,40.421,206.596,0,256,0s89.825,40.421,89.825,89.825v141.923C345.825,272.168,312.589,305.404,272.168,305.404"/> <path style="fill:#FABA81;" d="M345.825,176.954v54.793c0,40.421-33.235,73.656-73.656,73.656h-32.337 c-40.421,0-73.656-33.235-73.656-73.656v-54.793c-26.947,17.067-44.912,47.607-44.912,81.74v145.516 c0,59.284,48.505,107.789,107.789,107.789h53.895c59.284,0,107.789-48.505,107.789-107.789V258.695 C390.737,224.561,372.772,194.021,345.825,176.954"/> <path style="fill:#8e0129;" d="M256,53.895c-49.404,0-89.825,40.421-89.825,89.825v88.028c0,40.421,33.235,73.656,73.656,73.656 h32.337c40.421,0,73.656-33.235,73.656-73.656v-88.028C345.825,94.316,305.404,53.895,256,53.895"/> <g> <path style="fill:#F4935E;" d="M318.877,467.088H193.123c-5.389,0-8.982-3.593-8.982-8.982c0-5.389,3.593-8.982,8.982-8.982 h125.754c5.389,0,8.982,3.593,8.982,8.982C327.86,463.495,324.267,467.088,318.877,467.088z"/> <path style="fill:#F4935E;" d="M318.877,431.158H193.123c-5.389,0-8.982-3.593-8.982-8.982s3.593-8.982,8.982-8.982h125.754 c5.389,0,8.982,3.593,8.982,8.982S324.267,431.158,318.877,431.158z"/> </g> </g>
</svg>