<svg xmlns="http://www.w3.org/2000/svg" xmlns:xlink="http://www.w3.org/1999/xlink" width="500" zoomAndPan="magnify" viewBox="0 0 375 374.999991" height="500" preserveAspectRatio="xMidYMid meet" version="1.0"><defs><clipPath id="17bdba18e5"><path d="M 74 206 L 296 206 L 296 352.035156 L 74 352.035156 Z M 74 206 " clip-rule="nonzero"/></clipPath><clipPath id="9faddd3597"><path d="M 74 197 L 296 197 L 296 352.035156 L 74 352.035156 Z M 74 197 " clip-rule="nonzero"/></clipPath></defs><path fill="#141414" d="M 155.625 49.507812 C 113.675781 50.933594 117.730469 94.894531 124.285156 120.238281 C 127.949219 134.398438 140.238281 138.40625 153.675781 144.269531 C 168.277344 150.644531 222.527344 138.960938 222.527344 138.960938 C 222.527344 138.960938 240.167969 144.066406 247.707031 121.027344 C 270.59375 51.140625 205.417969 13.84375 155.625 49.507812 Z M 155.625 49.507812 " fill-opacity="1" fill-rule="evenodd"/><path fill="#ffcebe" d="M 205.785156 156.082031 L 164.625 156.082031 L 164.625 210.789062 L 164.949219 252.351562 L 186.433594 252.113281 L 205.519531 253.171875 L 205.785156 210.789062 Z M 205.785156 156.082031 " fill-opacity="1" fill-rule="evenodd"/><path fill="#141414" d="M 206.050781 192.414062 L 205.777344 168.609375 C 194.28125 166.261719 171.125 162.9375 166.363281 179.511719 C 178.210938 190.890625 191.199219 191.488281 206.050781 192.414062 Z M 206.050781 192.414062 " fill-opacity="1" fill-rule="evenodd"/><g clip-path="url(#17bdba18e5)"><path fill="#ffcebe" d="M 185.074219 206.804688 L 206.09375 206.988281 C 206.09375 206.988281 254.890625 230.582031 271.628906 249.242188 C 293.429688 273.554688 295.695312 351.855469 295.695312 351.855469 L 194.027344 352.226562 L 194.027344 352.289062 L 185.074219 352.257812 L 176.125 352.289062 L 176.125 352.226562 L 74.453125 351.855469 C 74.453125 351.855469 76.992188 273.691406 98.796875 249.378906 C 115.53125 230.71875 164.058594 206.988281 164.058594 206.988281 Z M 185.074219 206.804688 " fill-opacity="1" fill-rule="evenodd"/></g><g clip-path="url(#9faddd3597)"><path fill="#51ade5" d="M 186.984375 214.992188 L 210.871094 197.160156 L 220.699219 211.039062 C 220.699219 211.039062 260.578125 232.828125 272.445312 248.96875 C 297.628906 283.214844 295.695312 351.855469 295.695312 351.855469 L 194.027344 352.226562 L 194.027344 352.289062 L 185.074219 352.257812 L 176.125 352.289062 L 176.125 352.226562 L 74.453125 351.855469 C 74.453125 351.855469 71.476562 278.011719 97.707031 248.96875 C 114.183594 230.722656 148.378906 212.582031 148.378906 212.582031 L 158.324219 197.84375 Z M 186.984375 214.992188 " fill-opacity="1" fill-rule="evenodd"/></g><path fill="#141414" d="M 186.023438 238.558594 L 187.113281 340.089844 C 187.113281 340.527344 187.484375 340.878906 187.917969 340.875 C 188.355469 340.871094 188.710938 340.511719 188.699219 340.074219 L 187.605469 238.539062 C 187.605469 238.101562 187.238281 237.75 186.800781 237.753906 C 186.363281 237.761719 186.007812 238.117188 186.023438 238.558594 Z M 186.023438 238.558594 " fill-opacity="1" fill-rule="evenodd"/><path fill="#141414" d="M 112.117188 292.914062 L 114.984375 348.730469 C 115.011719 349.289062 115.488281 349.71875 116.042969 349.691406 C 116.601562 349.660156 117.03125 349.1875 117.003906 348.628906 L 114.136719 292.8125 C 114.109375 292.253906 113.632812 291.824219 113.074219 291.855469 C 112.515625 291.882812 112.089844 292.355469 112.117188 292.914062 Z M 112.117188 292.914062 " fill-opacity="1" fill-rule="evenodd"/><path fill="#141414" d="M 257.746094 292.8125 L 254.878906 348.628906 C 254.851562 349.1875 255.28125 349.660156 255.839844 349.691406 C 256.394531 349.71875 256.871094 349.289062 256.898438 348.730469 L 259.765625 292.914062 C 259.792969 292.355469 259.367188 291.882812 258.808594 291.855469 C 258.25 291.824219 257.773438 292.253906 257.746094 292.8125 Z M 257.746094 292.8125 " fill-opacity="1" fill-rule="evenodd"/><path fill="#ffcebe" d="M 252.21875 131.53125 C 252.21875 132.386719 252.132812 133.238281 251.964844 134.078125 C 251.796875 134.917969 251.550781 135.734375 251.222656 136.527344 C 250.894531 137.320312 250.492188 138.070312 250.015625 138.785156 C 249.539062 139.496094 249 140.15625 248.394531 140.761719 C 247.785156 141.371094 247.128906 141.910156 246.414062 142.386719 C 245.703125 142.863281 244.949219 143.265625 244.15625 143.59375 C 243.363281 143.921875 242.546875 144.167969 241.707031 144.335938 C 240.867188 144.503906 240.019531 144.585938 239.160156 144.585938 C 238.304688 144.585938 237.453125 144.503906 236.613281 144.335938 C 235.773438 144.167969 234.957031 143.921875 234.164062 143.59375 C 233.371094 143.265625 232.621094 142.863281 231.90625 142.386719 C 231.195312 141.910156 230.535156 141.371094 229.929688 140.761719 C 229.320312 140.15625 228.78125 139.496094 228.304688 138.785156 C 227.828125 138.070312 227.425781 137.320312 227.097656 136.527344 C 226.769531 135.734375 226.523438 134.917969 226.355469 134.078125 C 226.1875 133.238281 226.105469 132.386719 226.105469 131.53125 C 226.105469 130.671875 226.1875 129.824219 226.355469 128.984375 C 226.523438 128.144531 226.769531 127.324219 227.097656 126.535156 C 227.425781 125.742188 227.828125 124.988281 228.304688 124.277344 C 228.78125 123.5625 229.320312 122.90625 229.929688 122.296875 C 230.535156 121.691406 231.195312 121.152344 231.90625 120.675781 C 232.621094 120.199219 233.371094 119.796875 234.164062 119.46875 C 234.957031 119.140625 235.773438 118.890625 236.613281 118.726562 C 237.453125 118.558594 238.304688 118.472656 239.160156 118.472656 C 240.019531 118.472656 240.867188 118.558594 241.707031 118.726562 C 242.546875 118.890625 243.363281 119.140625 244.15625 119.46875 C 244.949219 119.796875 245.703125 120.199219 246.414062 120.675781 C 247.128906 121.152344 247.785156 121.691406 248.394531 122.296875 C 249 122.902344 249.539062 123.5625 250.015625 124.277344 C 250.492188 124.988281 250.894531 125.742188 251.222656 126.535156 C 251.550781 127.324219 251.796875 128.144531 251.964844 128.984375 C 252.132812 129.824219 252.21875 130.671875 252.21875 131.53125 Z M 252.21875 131.53125 " fill-opacity="1" fill-rule="nonzero"/><path fill="#ffcebe" d="M 145.519531 131.53125 C 145.519531 132.386719 145.4375 133.238281 145.269531 134.078125 C 145.101562 134.917969 144.855469 135.734375 144.527344 136.527344 C 144.199219 137.320312 143.796875 138.070312 143.320312 138.785156 C 142.84375 139.496094 142.300781 140.15625 141.695312 140.761719 C 141.089844 141.371094 140.429688 141.910156 139.71875 142.386719 C 139.003906 142.863281 138.253906 143.265625 137.460938 143.59375 C 136.667969 143.921875 135.851562 144.167969 135.011719 144.335938 C 134.171875 144.503906 133.320312 144.585938 132.464844 144.585938 C 131.605469 144.585938 130.757812 144.503906 129.917969 144.335938 C 129.074219 144.167969 128.257812 143.921875 127.46875 143.59375 C 126.675781 143.265625 125.921875 142.863281 125.210938 142.386719 C 124.496094 141.910156 123.835938 141.371094 123.230469 140.761719 C 122.625 140.15625 122.082031 139.496094 121.609375 138.785156 C 121.132812 138.070312 120.730469 137.320312 120.402344 136.527344 C 120.074219 135.734375 119.824219 134.917969 119.65625 134.078125 C 119.492188 133.238281 119.40625 132.386719 119.40625 131.53125 C 119.40625 130.671875 119.492188 129.824219 119.660156 128.984375 C 119.824219 128.144531 120.074219 127.324219 120.402344 126.535156 C 120.730469 125.742188 121.132812 124.988281 121.609375 124.277344 C 122.082031 123.5625 122.625 122.90625 123.230469 122.296875 C 123.835938 121.691406 124.496094 121.152344 125.210938 120.675781 C 125.921875 120.199219 126.675781 119.796875 127.46875 119.46875 C 128.257812 119.140625 129.074219 118.890625 129.917969 118.726562 C 130.757812 118.558594 131.605469 118.472656 132.464844 118.472656 C 133.320312 118.472656 134.171875 118.558594 135.011719 118.726562 C 135.851562 118.890625 136.667969 119.140625 137.460938 119.46875 C 138.253906 119.796875 139.003906 120.199219 139.71875 120.675781 C 140.429688 121.152344 141.089844 121.691406 141.695312 122.296875 C 142.300781 122.902344 142.84375 123.5625 143.320312 124.277344 C 143.796875 124.988281 144.199219 125.742188 144.527344 126.535156 C 144.855469 127.324219 145.101562 128.144531 145.269531 128.984375 C 145.4375 129.824219 145.519531 130.671875 145.519531 131.53125 Z M 145.519531 131.53125 " fill-opacity="1" fill-rule="nonzero"/><path fill="#ffcebe" d="M 183.507812 59.09375 C 212.078125 59.09375 236.96875 86.867188 236.96875 121.730469 C 236.96875 156.589844 218.285156 185.585938 185.203125 184.890625 C 154.039062 184.242188 133.4375 156.589844 133.4375 121.730469 C 133.4375 86.867188 154.9375 59.09375 183.507812 59.09375 Z M 183.507812 59.09375 " fill-opacity="1" fill-rule="evenodd"/><path fill="#ffbaaf" d="M 223.089844 139.675781 C 223.089844 140.253906 223.015625 140.828125 222.871094 141.394531 C 222.722656 141.960938 222.507812 142.511719 222.222656 143.046875 C 221.933594 143.578125 221.585938 144.085938 221.167969 144.566406 C 220.753906 145.046875 220.28125 145.492188 219.75 145.902344 C 219.222656 146.308594 218.648438 146.675781 218.023438 146.996094 C 217.402344 147.316406 216.746094 147.589844 216.054688 147.808594 C 215.363281 148.03125 214.652344 148.199219 213.917969 148.308594 C 213.183594 148.421875 212.441406 148.480469 211.695312 148.480469 C 210.945312 148.480469 210.203125 148.421875 209.46875 148.308594 C 208.738281 148.199219 208.023438 148.03125 207.332031 147.808594 C 206.640625 147.589844 205.984375 147.316406 205.363281 146.996094 C 204.742188 146.675781 204.164062 146.308594 203.636719 145.902344 C 203.105469 145.492188 202.632812 145.046875 202.21875 144.566406 C 201.804688 144.085938 201.453125 143.578125 201.164062 143.046875 C 200.878906 142.511719 200.664062 141.960938 200.515625 141.394531 C 200.371094 140.828125 200.296875 140.253906 200.296875 139.675781 C 200.296875 139.097656 200.371094 138.527344 200.515625 137.960938 C 200.664062 137.394531 200.878906 136.84375 201.164062 136.308594 C 201.453125 135.773438 201.804688 135.265625 202.21875 134.785156 C 202.632812 134.304688 203.105469 133.863281 203.636719 133.453125 C 204.164062 133.042969 204.742188 132.679688 205.363281 132.359375 C 205.984375 132.039062 206.640625 131.765625 207.332031 131.546875 C 208.023438 131.324219 208.738281 131.15625 209.46875 131.042969 C 210.203125 130.929688 210.945312 130.875 211.695312 130.875 C 212.441406 130.875 213.183594 130.929688 213.917969 131.042969 C 214.652344 131.15625 215.363281 131.324219 216.054688 131.546875 C 216.746094 131.765625 217.402344 132.039062 218.023438 132.359375 C 218.648438 132.679688 219.222656 133.042969 219.75 133.453125 C 220.28125 133.863281 220.753906 134.304688 221.167969 134.785156 C 221.585938 135.265625 221.933594 135.773438 222.222656 136.308594 C 222.507812 136.84375 222.722656 137.394531 222.871094 137.960938 C 223.015625 138.527344 223.089844 139.097656 223.089844 139.675781 Z M 223.089844 139.675781 " fill-opacity="1" fill-rule="nonzero"/><path fill="#ffbaaf" d="M 170.003906 139.675781 C 170.003906 140.253906 169.929688 140.828125 169.785156 141.394531 C 169.640625 141.960938 169.421875 142.511719 169.136719 143.046875 C 168.851562 143.578125 168.5 144.085938 168.082031 144.566406 C 167.667969 145.046875 167.195312 145.492188 166.667969 145.902344 C 166.136719 146.308594 165.5625 146.675781 164.9375 146.996094 C 164.316406 147.316406 163.660156 147.589844 162.96875 147.808594 C 162.277344 148.03125 161.566406 148.199219 160.832031 148.308594 C 160.097656 148.421875 159.355469 148.480469 158.609375 148.480469 C 157.859375 148.480469 157.121094 148.421875 156.386719 148.308594 C 155.652344 148.199219 154.9375 148.03125 154.246094 147.808594 C 153.554688 147.589844 152.898438 147.316406 152.277344 146.996094 C 151.65625 146.675781 151.078125 146.308594 150.550781 145.902344 C 150.023438 145.492188 149.550781 145.046875 149.132812 144.566406 C 148.71875 144.085938 148.367188 143.578125 148.082031 143.046875 C 147.792969 142.511719 147.578125 141.960938 147.433594 141.394531 C 147.285156 140.828125 147.214844 140.253906 147.214844 139.675781 C 147.214844 139.097656 147.285156 138.527344 147.433594 137.960938 C 147.578125 137.394531 147.792969 136.84375 148.082031 136.308594 C 148.367188 135.773438 148.71875 135.265625 149.132812 134.785156 C 149.550781 134.304688 150.023438 133.863281 150.550781 133.453125 C 151.078125 133.042969 151.65625 132.679688 152.277344 132.359375 C 152.898438 132.039062 153.554688 131.765625 154.246094 131.546875 C 154.9375 131.324219 155.652344 131.15625 156.386719 131.042969 C 157.121094 130.929688 157.859375 130.875 158.609375 130.875 C 159.355469 130.875 160.097656 130.929688 160.832031 131.042969 C 161.566406 131.15625 162.277344 131.324219 162.96875 131.546875 C 163.660156 131.765625 164.316406 132.039062 164.9375 132.359375 C 165.5625 132.679688 166.136719 133.042969 166.667969 133.453125 C 167.195312 133.863281 167.667969 134.304688 168.082031 134.785156 C 168.5 135.265625 168.851562 135.773438 169.136719 136.308594 C 169.421875 136.84375 169.640625 137.394531 169.785156 137.960938 C 169.929688 138.527344 170.003906 139.097656 170.003906 139.675781 Z M 170.003906 139.675781 " fill-opacity="1" fill-rule="nonzero"/><path fill="#141414" d="M 196.714844 108.542969 C 199.585938 106.386719 202.414062 105.339844 205.21875 105.367188 C 208.089844 105.414062 210.910156 106.5625 213.714844 108.6875 C 214.253906 109.09375 215.023438 108.992188 215.433594 108.453125 C 215.84375 107.914062 215.738281 107.144531 215.199219 106.738281 C 211.925781 104.25 208.601562 102.953125 205.25 102.910156 C 201.953125 102.878906 198.605469 104.042969 195.230469 106.589844 C 194.691406 107 194.582031 107.769531 194.992188 108.308594 C 195.398438 108.847656 196.171875 108.964844 196.714844 108.542969 Z M 196.714844 108.542969 " fill-opacity="1" fill-rule="evenodd"/><path fill="#141414" d="M 175.171875 106.589844 C 171.796875 104.042969 168.453125 102.878906 165.152344 102.910156 C 161.800781 102.953125 158.476562 104.25 155.207031 106.738281 C 154.664062 107.144531 154.558594 107.914062 154.96875 108.453125 C 155.378906 108.992188 156.152344 109.09375 156.691406 108.6875 C 159.492188 106.5625 162.316406 105.414062 165.183594 105.367188 C 167.992188 105.339844 170.820312 106.386719 173.691406 108.542969 C 174.234375 108.964844 175.003906 108.847656 175.414062 108.308594 C 175.820312 107.769531 175.714844 107 175.171875 106.589844 Z M 175.171875 106.589844 " fill-opacity="1" fill-rule="evenodd"/><path fill="#141414" d="M 172.152344 148.738281 C 176.003906 151.425781 180.648438 152.804688 185.316406 152.722656 C 189.859375 152.640625 194.421875 151.167969 198.289062 148.179688 C 198.566406 147.960938 198.617188 147.566406 198.402344 147.277344 C 198.1875 147.003906 197.785156 146.949219 197.507812 147.167969 C 193.867188 149.992188 189.570312 151.371094 185.292969 151.441406 C 180.894531 151.523438 176.515625 150.226562 172.878906 147.703125 C 172.589844 147.496094 172.191406 147.566406 171.992188 147.851562 C 171.792969 148.152344 171.863281 148.546875 172.152344 148.738281 Z M 172.152344 148.738281 " fill-opacity="1" fill-rule="evenodd"/><path fill="#141414" d="M 181.773438 128.894531 L 181.636719 138.992188 C 181.632812 139.347656 181.910156 139.636719 182.257812 139.648438 L 188.128906 139.785156 C 188.480469 139.785156 188.769531 139.511719 188.78125 139.15625 C 188.789062 138.800781 188.507812 138.515625 188.15625 138.503906 L 182.917969 138.378906 C 182.917969 138.378906 183.046875 128.921875 183.046875 128.921875 C 183.050781 128.566406 182.769531 128.28125 182.417969 128.265625 C 182.066406 128.265625 181.777344 128.554688 181.773438 128.894531 Z M 181.773438 128.894531 " fill-opacity="1" fill-rule="evenodd"/><path fill="#141414" d="M 170.648438 123.210938 C 170.648438 123.570312 170.613281 123.921875 170.542969 124.273438 C 170.472656 124.625 170.371094 124.96875 170.234375 125.300781 C 170.097656 125.628906 169.925781 125.945312 169.730469 126.242188 C 169.53125 126.539062 169.304688 126.816406 169.050781 127.070312 C 168.796875 127.324219 168.519531 127.550781 168.222656 127.75 C 167.925781 127.949219 167.609375 128.117188 167.277344 128.253906 C 166.949219 128.390625 166.605469 128.492188 166.253906 128.5625 C 165.902344 128.632812 165.550781 128.667969 165.191406 128.667969 C 164.832031 128.667969 164.476562 128.632812 164.125 128.5625 C 163.773438 128.492188 163.433594 128.390625 163.101562 128.253906 C 162.769531 128.117188 162.457031 127.949219 162.160156 127.75 C 161.859375 127.550781 161.585938 127.324219 161.332031 127.070312 C 161.078125 126.816406 160.851562 126.539062 160.652344 126.242188 C 160.453125 125.945312 160.285156 125.628906 160.148438 125.300781 C 160.011719 124.96875 159.90625 124.625 159.839844 124.273438 C 159.769531 123.921875 159.734375 123.570312 159.734375 123.210938 C 159.734375 122.851562 159.769531 122.496094 159.839844 122.144531 C 159.90625 121.792969 160.011719 121.453125 160.148438 121.121094 C 160.285156 120.789062 160.453125 120.476562 160.652344 120.179688 C 160.851562 119.878906 161.078125 119.605469 161.332031 119.351562 C 161.585938 119.097656 161.859375 118.871094 162.160156 118.671875 C 162.457031 118.472656 162.769531 118.304688 163.101562 118.167969 C 163.433594 118.03125 163.773438 117.929688 164.125 117.859375 C 164.476562 117.789062 164.832031 117.753906 165.191406 117.753906 C 165.550781 117.753906 165.902344 117.789062 166.253906 117.859375 C 166.605469 117.929688 166.949219 118.03125 167.277344 118.167969 C 167.609375 118.304688 167.925781 118.472656 168.222656 118.671875 C 168.519531 118.871094 168.796875 119.097656 169.050781 119.351562 C 169.304688 119.605469 169.53125 119.878906 169.730469 120.179688 C 169.925781 120.476562 170.097656 120.789062 170.234375 121.121094 C 170.371094 121.453125 170.472656 121.792969 170.542969 122.144531 C 170.613281 122.496094 170.648438 122.851562 170.648438 123.210938 Z M 170.648438 123.210938 " fill-opacity="1" fill-rule="nonzero"/><path fill="#141414" d="M 210.671875 123.210938 C 210.671875 123.570312 210.636719 123.921875 210.566406 124.273438 C 210.496094 124.625 210.390625 124.96875 210.253906 125.300781 C 210.117188 125.628906 209.949219 125.945312 209.75 126.242188 C 209.550781 126.539062 209.324219 126.816406 209.070312 127.070312 C 208.820312 127.324219 208.542969 127.550781 208.246094 127.75 C 207.945312 127.949219 207.632812 128.117188 207.300781 128.253906 C 206.96875 128.390625 206.628906 128.492188 206.277344 128.5625 C 205.925781 128.632812 205.570312 128.667969 205.214844 128.667969 C 204.855469 128.667969 204.5 128.632812 204.148438 128.5625 C 203.796875 128.492188 203.457031 128.390625 203.125 128.253906 C 202.792969 128.117188 202.480469 127.949219 202.179688 127.75 C 201.882812 127.550781 201.605469 127.324219 201.355469 127.070312 C 201.101562 126.816406 200.875 126.539062 200.675781 126.242188 C 200.476562 125.945312 200.308594 125.628906 200.171875 125.300781 C 200.035156 124.96875 199.929688 124.625 199.859375 124.273438 C 199.789062 123.921875 199.753906 123.570312 199.753906 123.210938 C 199.753906 122.851562 199.789062 122.496094 199.859375 122.144531 C 199.929688 121.792969 200.035156 121.453125 200.171875 121.121094 C 200.308594 120.789062 200.476562 120.476562 200.675781 120.179688 C 200.875 119.878906 201.101562 119.605469 201.355469 119.351562 C 201.605469 119.097656 201.882812 118.871094 202.179688 118.671875 C 202.480469 118.472656 202.792969 118.304688 203.125 118.167969 C 203.457031 118.03125 203.796875 117.929688 204.148438 117.859375 C 204.5 117.789062 204.855469 117.753906 205.214844 117.753906 C 205.570312 117.753906 205.925781 117.789062 206.277344 117.859375 C 206.628906 117.929688 206.96875 118.03125 207.300781 118.167969 C 207.632812 118.304688 207.945312 118.472656 208.246094 118.671875 C 208.542969 118.871094 208.820312 119.097656 209.070312 119.351562 C 209.324219 119.605469 209.550781 119.878906 209.75 120.179688 C 209.949219 120.476562 210.117188 120.789062 210.253906 121.121094 C 210.390625 121.453125 210.496094 121.792969 210.566406 122.144531 C 210.636719 122.496094 210.671875 122.851562 210.671875 123.210938 Z M 210.671875 123.210938 " fill-opacity="1" fill-rule="nonzero"/><path fill="#141414" d="M 132.859375 127.847656 C 134.210938 127.882812 135.050781 116.433594 135.050781 116.433594 C 142.941406 111.347656 148.898438 90.792969 147.664062 81.566406 C 169.523438 95.34375 194.59375 98.335938 224.375 85.527344 C 218.972656 93.933594 229.773438 117.238281 236.003906 117.816406 C 236.003906 117.816406 235.785156 125.796875 239.058594 127.179688 C 243.25 128.9375 243.957031 115.199219 243.589844 109.253906 C 242.621094 93.558594 232.878906 73.296875 229.410156 61.164062 C 229.410156 61.164062 171.566406 37.371094 156.917969 58.15625 L 126.523438 83.667969 C 126.523438 83.667969 125.484375 127.652344 132.859375 127.847656 Z M 132.859375 127.847656 " fill-opacity="1" fill-rule="evenodd"/><path fill="#141414" d="M 149.777344 217.492188 L 177.207031 237.417969 C 177.546875 237.664062 178.011719 237.605469 178.285156 237.28125 L 186.71875 227.089844 C 186.71875 227.089844 192.957031 237.457031 192.957031 237.457031 C 193.078125 237.652344 193.269531 237.789062 193.5 237.828125 C 193.71875 237.871094 193.953125 237.8125 194.128906 237.667969 L 220.605469 216.515625 C 220.945312 216.242188 221.011719 215.742188 220.726562 215.398438 C 220.453125 215.058594 219.960938 215 219.621094 215.273438 L 193.855469 235.863281 C 193.855469 235.863281 187.496094 225.3125 187.496094 225.3125 C 187.359375 225.089844 187.128906 224.949219 186.867188 224.929688 C 186.621094 224.910156 186.363281 225.015625 186.199219 225.214844 L 177.535156 235.695312 C 173.507812 232.769531 150.703125 216.207031 150.703125 216.207031 C 150.347656 215.949219 149.859375 216.027344 149.597656 216.382812 C 149.339844 216.738281 149.421875 217.234375 149.777344 217.492188 Z M 149.777344 217.492188 " fill-opacity="1" fill-rule="evenodd"/></svg>