<!DOCTYPE svg PUBLIC "-//W3C//DTD SVG 1.1//EN" "http://www.w3.org/Graphics/SVG/1.1/DTD/svg11.dtd">
<!-- Uploaded to: SVG Repo, www.svgrepo.com, Transformed by: SVG Repo Mixer Tools -->
<svg version="1.1" id="Layer_1" xmlns="http://www.w3.org/2000/svg" xmlns:xlink="http://www.w3.org/1999/xlink" viewBox="0 0 512 512" xml:space="preserve" width="800px" height="800px" fill="#000000">
<g id="SVGRepo_bgCarrier" stroke-width="0"/>
<g id="SVGRepo_tracerCarrier" stroke-linecap="round" stroke-linejoin="round"/>
<g id="SVGRepo_iconCarrier"> <rect x="179.2" y="341.333" style="fill:#B0BEC5;" width="153.6" height="136.533"/> <path style="fill:#90A4AE;" d="M170.667,377.771c0,8.32,6.016,15.292,14.199,16.836c22.605,4.258,46.362,6.46,71.134,6.46 c24.772,0,48.529-2.202,71.134-6.46c8.175-1.545,14.199-8.516,14.199-16.836v-87.637H170.667V377.771z"/> <path style="fill:#B0BEC5;" d="M465.937,307.2H46.063C100.992,360.09,174.788,384,256,384S411.008,360.09,465.937,307.2z"/> <path style="fill:#CFD8DC;" d="M0,255.778v34.355c0,9.429,7.637,17.067,17.067,17.067h477.867c9.429,0,17.067-7.637,17.067-17.067 v-34.355c0-2.79-0.239-5.564-0.691-8.311H0.691C0.239,250.206,0,252.988,0,255.778z"/> <path style="fill:#ECEFF1;" d="M488.149,175.923c-0.572-1.715-0.998-3.473-1.297-5.257H25.139c-0.29,1.783-0.725,3.541-1.297,5.257 L2.62,239.582c-0.853,2.577-1.493,5.214-1.929,7.885h510.626c-0.444-2.671-1.084-5.308-1.937-7.885L488.149,175.923z"/> <path style="fill:#B0BEC5;" d="M443.597,238.933H68.403c-8.576,0-14.72-8.269-12.262-16.478l0,0 c4.668-15.548,18.97-26.189,35.2-26.189h329.318c16.23,0,30.532,10.641,35.2,26.189l0,0 C458.317,230.665,452.173,238.933,443.597,238.933z"/> <path style="fill:#CFD8DC;" d="M486.4,165.129v-18.099c0-7.74-5.18-14.601-12.663-16.563C404.224,112.171,331.255,102.4,256,102.4 s-148.224,9.771-217.737,28.066C30.78,132.437,25.6,139.29,25.6,147.029v18.099c0,1.86-0.162,3.712-0.461,5.538h461.713 C486.554,168.841,486.4,166.989,486.4,165.129z"/> <path style="fill:#757575;" d="M196.267,196.267c0-9.429,7.637-17.067,17.067-17.067h85.333c9.429,0,17.067,7.637,17.067,17.067 H196.267z"/> <path style="fill:#424242;" d="M226.133,187.733h-17.067v-17.067c0-4.71,3.823-8.533,8.533-8.533l0,0 c4.71,0,8.533,3.823,8.533,8.533V187.733z"/> <path style="fill:#616161;" d="M217.6,149.333c0,4.71-42.223,8.533-46.933,8.533s-8.533-3.823-8.533-8.533s3.823-8.533,8.533-8.533 S217.6,144.623,217.6,149.333z"/> <circle style="fill:#757575;" cx="217.6" cy="149.333" r="12.8"/> <path style="fill:#424242;" d="M285.867,187.733h17.067v-17.067c0-4.71-3.823-8.533-8.533-8.533l0,0 c-4.71,0-8.533,3.823-8.533,8.533V187.733z"/> <path style="fill:#616161;" d="M294.4,149.333c0,4.71,42.223,8.533,46.933,8.533c4.71,0,8.533-3.823,8.533-8.533 s-3.823-8.533-8.533-8.533S294.4,144.623,294.4,149.333z"/> <g> <circle style="fill:#757575;" cx="294.4" cy="149.333" r="12.8"/> <path style="fill:#757575;" d="M243.2,82.91c0.29-14.473,3.558-28.151,16.512-38.716c10.812-8.815,27.204-10.061,37.444-10.061 c21.777,0,42.121,16.58,42.462,40.286l-25.6,0.367c-0.145-10.112-8.329-18.765-18.236-19.285 c-6.989-0.247-13.295,2.287-18.287,7.108c-5.521,5.333-8.841,12.732-8.687,20.292c0.521,26.231,4.258,104.832,4.258,104.832 h-34.133C238.933,187.733,242.662,109.133,243.2,82.91z"/> </g> </g>
</svg>