<!DOCTYPE svg PUBLIC "-//W3C//DTD SVG 1.1//EN" "http://www.w3.org/Graphics/SVG/1.1/DTD/svg11.dtd">
<!-- Uploaded to: SVG Repo, www.svgrepo.com, Transformed by: SVG Repo Mixer Tools -->
<svg height="800px" width="800px" version="1.1" id="Layer_1" xmlns="http://www.w3.org/2000/svg" xmlns:xlink="http://www.w3.org/1999/xlink" viewBox="0 0 512 512" xml:space="preserve" fill="#000000" stroke="#000000" stroke-width="0.00512">
<g id="SVGRepo_bgCarrier" stroke-width="0"/>
<g id="SVGRepo_tracerCarrier" stroke-linecap="round" stroke-linejoin="round"/>
<g id="SVGRepo_iconCarrier"> <g> <path style="fill:#4f4f4f;" d="M105.805,512c-3.534,0-6.4-2.865-6.4-6.4c0-16.684,7.83-25.199,14.736-32.711 c6.349-6.905,11.364-12.358,11.364-24.061c0-11.702-5.015-17.157-11.364-24.062c-6.907-7.512-14.736-16.027-14.736-32.709 c0-16.693,7.831-25.21,14.74-32.725c6.346-6.902,11.359-12.354,11.359-24.048c0-3.535,2.866-6.4,6.4-6.4c3.534,0,6.4,2.865,6.4,6.4 c0,16.683-7.83,25.197-14.736,32.71c-6.349,6.905-11.364,12.36-11.364,24.062c0,11.693,5.013,17.144,11.359,24.048 c6.909,7.514,14.74,16.032,14.74,32.725c0,16.692-7.831,25.209-14.74,32.723c-6.346,6.902-11.359,12.354-11.359,24.048 C112.204,509.135,109.338,512,105.805,512z"/> <path style="fill:#4f4f4f;" d="M362.446,512c-3.534,0-6.4-2.865-6.4-6.4c0-16.685,7.832-25.2,14.743-32.712 c6.351-6.905,11.368-12.358,11.368-24.059c0-11.702-5.017-17.156-11.368-24.061c-6.909-7.512-14.743-16.027-14.743-32.711 c0-16.693,7.834-25.211,14.747-32.726c6.349-6.902,11.364-12.354,11.364-24.047c0-3.535,2.866-6.4,6.4-6.4 c3.534,0,6.4,2.865,6.4,6.4c0,16.683-7.832,25.199-14.743,32.711c-6.351,6.905-11.368,12.358-11.368,24.061 c0,11.693,5.015,17.144,11.364,24.047c6.912,7.514,14.747,16.032,14.747,32.726s-7.834,25.21-14.747,32.725 c-6.349,6.902-11.364,12.354-11.364,24.047C368.845,509.135,365.98,512,362.446,512z"/> <path style="fill:#4f4f4f;" d="M233.054,453.355c-3.534,0-6.4-2.865-6.4-6.4c0-16.683,7.832-25.199,14.743-32.711 c6.351-6.905,11.368-12.358,11.368-24.061c0-11.701-5.017-17.155-11.368-24.059c-6.909-7.512-14.743-16.027-14.743-32.712 c0-16.693,7.834-25.21,14.747-32.725c6.348-6.902,11.364-12.354,11.364-24.047c0-3.535,2.866-6.4,6.4-6.4s6.4,2.865,6.4,6.4 c0,16.683-7.832,25.199-14.743,32.711c-6.351,6.905-11.368,12.358-11.368,24.059c0,11.693,5.015,17.144,11.364,24.047 c6.912,7.514,14.747,16.032,14.747,32.725c0,16.693-7.834,25.211-14.747,32.726c-6.348,6.902-11.364,12.354-11.364,24.047 C239.454,450.49,236.588,453.355,233.054,453.355z"/> </g> <polygon style="fill:#f73b3b;" points="383.249,299.809 405.078,337.614 398.446,337.614 361.421,337.614 "/> <polygon style="fill:#5629fa;" points="128.739,299.809 150.579,337.614 141.794,337.614 106.91,337.614 "/> <polygon style="fill:#9AD14B;" points="256,241.164 277.829,278.969 269.055,278.969 234.171,278.969 "/> <path style="fill:#f73b3b;" d="M383.249,58.645c53.222,0,96.38,55.549,96.38,124.061c0,68.523-43.157,124.073-96.38,124.073 c-38.189,0-71.2-28.613-86.792-70.083c33.023-19.676,52.466-150.3,46.334-166.614C355.091,62.74,368.809,58.645,383.249,58.645z"/> <path style="fill:#e02e2e;" d="M336.916,182.718c0-57.38,30.257-105.655,71.347-119.84c-7.979-2.754-16.361-4.233-25.014-4.233 c-53.222,0-96.368,55.549-96.368,124.073s43.146,124.073,96.368,124.073c8.652,0,17.033-1.481,25.01-4.234 C367.171,288.37,336.916,240.096,336.916,182.718z"/> <path style="fill:#9AD14B;" d="M342.792,70.083c6.132,16.313,9.576,34.64,9.576,53.99c0,49.918-22.888,92.947-55.91,112.623 c-12.299,7.342-26.006,11.438-40.458,11.438c-14.452,0-28.17-4.096-40.458-11.438c6.132-16.325-13.323-146.926-46.334-166.614 C184.789,28.613,217.8,0,256,0S327.211,28.613,342.792,70.083z"/> <path style="fill:#90BC42;" d="M209.666,124.073c0-57.38,30.257-105.655,71.347-119.84C273.035,1.479,264.652,0,256,0 c-53.222,0-96.368,55.549-96.368,124.073S202.778,248.146,256,248.146c8.652,0,17.033-1.481,25.01-4.234 C239.922,229.725,209.666,181.452,209.666,124.073z"/> <path style="fill:#5629fa;" d="M225.118,182.718c0,19.339-3.444,37.654-9.576,53.979c-15.592,41.482-48.603,70.094-86.803,70.094 c-53.222,0-96.368-55.549-96.368-124.073S75.517,58.645,128.739,58.645c14.452,0,28.159,4.096,40.469,11.438 C202.219,89.77,225.118,132.8,225.118,182.718z"/> <path style="fill:#522ae5;" d="M82.405,182.718c0-57.38,30.257-105.655,71.347-119.84c-7.979-2.754-16.361-4.233-25.014-4.233 c-53.222,0-96.368,55.549-96.368,124.073S75.517,306.79,128.739,306.79c8.652,0,17.033-1.481,25.01-4.234 C112.66,288.37,82.405,240.096,82.405,182.718z"/> </g>
</svg>