<svg xmlns="http://www.w3.org/2000/svg" xmlns:xlink="http://www.w3.org/1999/xlink" width="500" zoomAndPan="magnify" viewBox="0 0 375 374.999991" height="500" preserveAspectRatio="xMidYMid meet" version="1.0"><defs><clipPath id="3d20910ca4"><path d="M 85 267 L 131 267 L 131 305.558594 L 85 305.558594 Z M 85 267 " clip-rule="nonzero"/></clipPath><clipPath id="d9649b12dd"><path d="M 280 297 L 301.394531 297 L 301.394531 305.558594 L 280 305.558594 Z M 280 297 " clip-rule="nonzero"/></clipPath><clipPath id="7dcb17474a"><path d="M 231 251 L 291 251 L 291 305.558594 L 231 305.558594 Z M 231 251 " clip-rule="nonzero"/></clipPath><clipPath id="a592ae7898"><path d="M 160 70.8125 L 219 70.8125 L 219 129 L 160 129 Z M 160 70.8125 " clip-rule="nonzero"/></clipPath><clipPath id="2d47f3af5e"><path d="M 80 283 L 114 283 L 114 305.558594 L 80 305.558594 Z M 80 283 " clip-rule="nonzero"/></clipPath><clipPath id="6aa6a1e1a0"><path d="M 93 250 L 153 250 L 153 305.558594 L 93 305.558594 Z M 93 250 " clip-rule="nonzero"/></clipPath><clipPath id="735f349209"><path d="M 123 242 L 264 242 L 264 305.558594 L 123 305.558594 Z M 123 242 " clip-rule="nonzero"/></clipPath></defs><path fill="#f7bf89" d="M 87.839844 304.667969 C 87.367188 304.667969 86.9375 304.386719 86.753906 303.949219 C 86.5625 303.515625 86.65625 303.011719 86.980469 302.664062 C 106.363281 282.1875 119.167969 269.117188 119.296875 268.988281 C 119.519531 268.761719 119.828125 268.632812 120.140625 268.632812 C 120.222656 268.632812 120.304688 268.640625 120.382812 268.65625 C 120.777344 268.738281 121.105469 269.015625 121.25 269.390625 L 129.105469 289.660156 C 129.300781 290.164062 129.128906 290.738281 128.6875 291.054688 C 128.605469 291.109375 120.46875 296.929688 110.648438 304.425781 C 110.441406 304.582031 110.1875 304.667969 109.929688 304.667969 L 87.839844 304.667969 " fill-opacity="1" fill-rule="nonzero"/><g clip-path="url(#3d20910ca4)"><path fill="#141414" d="M 120.140625 267.449219 C 119.511719 267.449219 118.898438 267.699219 118.445312 268.15625 C 118.320312 268.289062 105.507812 281.363281 86.117188 301.847656 C 85.464844 302.535156 85.285156 303.550781 85.660156 304.417969 C 86.035156 305.289062 86.894531 305.855469 87.839844 305.855469 L 109.929688 305.855469 C 110.449219 305.855469 110.957031 305.683594 111.367188 305.367188 C 121.171875 297.886719 129.296875 292.078125 129.378906 292.019531 C 130.257812 291.386719 130.601562 290.242188 130.210938 289.230469 L 122.359375 268.960938 C 122.066406 268.210938 121.410156 267.660156 120.621094 267.496094 C 120.460938 267.464844 120.304688 267.449219 120.140625 267.449219 Z M 120.140625 269.820312 L 127.996094 290.085938 C 127.996094 290.085938 119.878906 295.886719 109.929688 303.480469 L 87.839844 303.480469 C 107.441406 282.773438 120.140625 269.820312 120.140625 269.820312 " fill-opacity="1" fill-rule="nonzero"/></g><path fill="#ffffff" d="M 283.230469 304.671875 C 282.71875 304.671875 282.261719 304.339844 282.101562 303.851562 C 281.941406 303.363281 282.113281 302.828125 282.527344 302.523438 L 287.472656 298.875 C 287.667969 298.734375 287.902344 298.648438 288.144531 298.644531 C 288.144531 298.644531 288.359375 298.636719 288.726562 298.636719 C 292.960938 298.636719 300.085938 299.261719 300.214844 303.445312 C 300.226562 303.765625 300.101562 304.078125 299.878906 304.308594 C 299.652344 304.542969 299.347656 304.671875 299.023438 304.671875 L 283.230469 304.671875 " fill-opacity="1" fill-rule="nonzero"/><g clip-path="url(#d9649b12dd)"><path fill="#141414" d="M 288.726562 297.449219 C 288.335938 297.449219 288.109375 297.453125 288.109375 297.453125 C 287.625 297.46875 287.15625 297.632812 286.765625 297.917969 L 281.820312 301.566406 C 280.992188 302.175781 280.652344 303.25 280.972656 304.222656 C 281.292969 305.199219 282.203125 305.863281 283.230469 305.863281 L 299.023438 305.863281 C 299.667969 305.863281 300.285156 305.601562 300.734375 305.136719 C 301.179688 304.675781 301.421875 304.050781 301.402344 303.410156 C 301.347656 301.554688 300.21875 299.121094 295.152344 298.042969 C 292.710938 297.527344 290.078125 297.449219 288.726562 297.449219 Z M 288.726562 299.828125 C 290.917969 299.828125 298.917969 300.0625 299.023438 303.480469 L 283.230469 303.480469 L 288.179688 299.832031 C 288.179688 299.832031 288.378906 299.828125 288.726562 299.828125 " fill-opacity="1" fill-rule="nonzero"/></g><path fill="#51ade5" d="M 250.75 304.632812 C 250.28125 304.632812 249.863281 304.351562 249.683594 303.917969 C 243.175781 288.039062 233.140625 254.109375 233.042969 253.765625 C 232.9375 253.417969 233.007812 253.042969 233.222656 252.75 C 233.441406 252.457031 233.78125 252.289062 234.144531 252.289062 C 234.546875 252.289062 244.140625 252.351562 255.796875 258.132812 C 266.53125 263.449219 281.050781 274.832031 289.269531 298.859375 C 289.308594 298.96875 289.332031 299.085938 289.332031 299.203125 C 289.335938 299.277344 289.375 301.078125 289.015625 303.640625 C 288.933594 304.210938 288.449219 304.632812 287.871094 304.632812 L 250.75 304.632812 " fill-opacity="1" fill-rule="nonzero"/><g clip-path="url(#7dcb17474a)"><path fill="#141414" d="M 234.144531 251.136719 C 233.417969 251.136719 232.734375 251.476562 232.300781 252.0625 C 231.863281 252.640625 231.730469 253.394531 231.933594 254.09375 C 232.035156 254.433594 242.089844 288.421875 248.617188 304.355469 C 248.972656 305.21875 249.816406 305.785156 250.75 305.785156 L 287.871094 305.785156 C 289.023438 305.785156 289.996094 304.9375 290.15625 303.800781 C 290.527344 301.144531 290.488281 299.253906 290.484375 299.175781 C 290.480469 298.9375 290.4375 298.703125 290.363281 298.484375 C 282.015625 274.089844 267.238281 262.515625 256.3125 257.097656 C 244.414062 251.203125 234.558594 251.136719 234.144531 251.136719 Z M 234.144531 253.441406 C 234.144531 253.441406 272.511719 253.441406 288.183594 299.230469 C 288.183594 299.230469 288.226562 300.980469 287.871094 303.480469 L 250.75 303.480469 C 244.191406 287.46875 234.144531 253.441406 234.144531 253.441406 " fill-opacity="1" fill-rule="nonzero"/></g><path fill="#808080" d="M 189.503906 127.488281 C 174.195312 127.488281 161.738281 115.03125 161.738281 99.71875 C 161.738281 84.410156 174.195312 71.957031 189.503906 71.957031 C 204.816406 71.957031 217.273438 84.410156 217.273438 99.71875 C 217.273438 115.03125 204.816406 127.488281 189.503906 127.488281 " fill-opacity="1" fill-rule="nonzero"/><g clip-path="url(#a592ae7898)"><path fill="#141414" d="M 189.503906 70.800781 C 173.558594 70.800781 160.585938 83.773438 160.585938 99.71875 C 160.585938 115.667969 173.558594 128.644531 189.503906 128.644531 C 205.453125 128.644531 218.425781 115.667969 218.425781 99.71875 C 218.425781 83.773438 205.453125 70.800781 189.503906 70.800781 Z M 189.503906 73.105469 C 204.207031 73.105469 216.121094 85.027344 216.121094 99.71875 C 216.121094 114.417969 204.207031 126.335938 189.503906 126.335938 C 174.804688 126.335938 162.886719 114.417969 162.886719 99.71875 C 162.886719 85.027344 174.804688 73.105469 189.503906 73.105469 " fill-opacity="1" fill-rule="nonzero"/></g><path fill="#ffffff" d="M 87.515625 304.671875 C 87.171875 304.671875 86.847656 304.519531 86.621094 304.265625 C 86.394531 304.003906 86.289062 303.660156 86.339844 303.320312 C 86.46875 302.347656 86.664062 301.429688 86.839844 300.71875 C 84.332031 300.394531 81.875 299.671875 81.507812 297.714844 C 81.097656 295.519531 83.925781 293.347656 86.332031 291.925781 C 84.863281 290.863281 84.402344 289.519531 84.378906 289.4375 L 84.34375 289.316406 C 84.007812 287.757812 84.496094 286.738281 84.960938 286.160156 C 85.898438 285 87.613281 284.433594 90.199219 284.433594 C 93.46875 284.433594 97.0625 285.355469 97.214844 285.394531 C 97.449219 285.453125 97.660156 285.582031 97.816406 285.765625 L 112.449219 302.703125 C 112.75 303.054688 112.820312 303.554688 112.628906 303.976562 C 112.433594 304.402344 112.011719 304.671875 111.546875 304.671875 L 87.515625 304.671875 " fill-opacity="1" fill-rule="nonzero"/><g clip-path="url(#2d47f3af5e)"><path fill="#141414" d="M 90.199219 283.246094 C 87.230469 283.246094 85.214844 283.953125 84.035156 285.414062 C 83.40625 286.191406 82.746094 287.542969 83.183594 289.566406 C 83.199219 289.648438 83.222656 289.730469 83.246094 289.808594 C 83.304688 289.984375 83.613281 290.839844 84.40625 291.769531 L 84.339844 291.816406 C 82.378906 293.152344 79.835938 295.242188 80.339844 297.933594 C 80.761719 300.207031 82.957031 301.210938 85.40625 301.691406 C 85.3125 302.15625 85.226562 302.648438 85.160156 303.160156 C 85.066406 303.84375 85.273438 304.527344 85.722656 305.046875 C 86.175781 305.566406 86.828125 305.863281 87.515625 305.863281 L 111.546875 305.863281 C 112.476562 305.863281 113.324219 305.316406 113.710938 304.472656 C 114.097656 303.625 113.957031 302.628906 113.347656 301.925781 L 98.714844 284.988281 C 98.402344 284.621094 97.980469 284.363281 97.511719 284.242188 C 97.355469 284.203125 93.621094 283.246094 90.199219 283.246094 Z M 90.199219 285.625 C 93.355469 285.625 96.917969 286.546875 96.917969 286.546875 L 111.546875 303.480469 L 87.515625 303.480469 C 87.789062 301.476562 88.359375 299.683594 88.359375 299.683594 C 75.152344 298.578125 89.019531 291.832031 89.019531 291.832031 C 86.210938 291.195312 85.507812 289.070312 85.507812 289.070312 C 84.925781 286.34375 87.402344 285.625 90.199219 285.625 " fill-opacity="1" fill-rule="nonzero"/></g><path fill="#51ade5" d="M 98.796875 304.632812 C 98.386719 304.632812 98.007812 304.414062 97.800781 304.0625 C 93.3125 296.324219 95.816406 286.109375 95.925781 285.679688 L 95.953125 285.59375 C 105.757812 256.480469 129.789062 252.132812 143.242188 252.132812 C 147.773438 252.132812 150.699219 252.644531 150.816406 252.667969 C 151.140625 252.726562 151.417969 252.914062 151.59375 253.191406 C 151.765625 253.464844 151.8125 253.800781 151.726562 254.117188 C 151.355469 255.4375 142.484375 286.675781 132.710938 300.226562 C 131.675781 301.664062 130.550781 302.992188 129.269531 304.289062 C 129.050781 304.511719 128.757812 304.632812 128.449219 304.632812 L 98.796875 304.632812 " fill-opacity="1" fill-rule="nonzero"/><g clip-path="url(#6aa6a1e1a0)"><path fill="#141414" d="M 143.242188 250.980469 C 136.875 250.980469 127.347656 251.984375 118.121094 256.769531 C 107.125 262.472656 99.296875 272.046875 94.859375 285.222656 L 94.808594 285.398438 C 94.695312 285.847656 92.085938 296.503906 96.804688 304.640625 C 97.214844 305.347656 97.976562 305.785156 98.796875 305.785156 L 128.449219 305.785156 C 129.066406 305.785156 129.65625 305.539062 130.089844 305.097656 C 131.414062 303.757812 132.578125 302.386719 133.648438 300.898438 C 143.535156 287.1875 152.460938 255.757812 152.835938 254.425781 C 153.011719 253.800781 152.914062 253.128906 152.566406 252.578125 C 152.222656 252.027344 151.660156 251.644531 151.019531 251.53125 C 150.894531 251.511719 147.875 250.980469 143.242188 250.980469 Z M 143.242188 253.289062 C 147.726562 253.289062 150.617188 253.800781 150.617188 253.800781 C 150.617188 253.800781 141.542969 286.011719 131.777344 299.550781 C 130.691406 301.058594 129.574219 302.339844 128.449219 303.480469 L 98.796875 303.480469 C 94.496094 296.0625 97.046875 285.960938 97.046875 285.960938 C 106.75 257.140625 130.976562 253.289062 143.242188 253.289062 " fill-opacity="1" fill-rule="nonzero"/></g><path fill="#51ade5" d="M 125.949219 304.632812 C 125.640625 304.632812 125.34375 304.511719 125.125 304.289062 C 124.910156 304.070312 124.792969 303.773438 124.796875 303.460938 C 125.195312 279.070312 133.03125 264.234375 139.53125 256.082031 C 146.632812 247.175781 153.597656 244.128906 153.890625 244.003906 C 154.035156 243.941406 154.191406 243.910156 154.34375 243.910156 L 154.417969 243.910156 L 192.878906 246.265625 L 231.347656 243.910156 L 231.417969 243.910156 C 231.582031 243.910156 231.742188 243.945312 231.890625 244.011719 C 232.195312 244.148438 239.484375 247.480469 246.929688 256.515625 C 253.757812 264.808594 261.980469 279.679688 262.378906 303.460938 C 262.378906 303.773438 262.261719 304.070312 262.046875 304.289062 C 261.828125 304.511719 261.53125 304.632812 261.222656 304.632812 L 125.949219 304.632812 " fill-opacity="1" fill-rule="nonzero"/><g clip-path="url(#735f349209)"><path fill="#141414" d="M 154.34375 242.757812 C 154.035156 242.757812 153.726562 242.820312 153.4375 242.941406 C 153.132812 243.074219 145.910156 246.234375 138.628906 255.363281 C 132.015625 263.65625 124.046875 278.730469 123.644531 303.445312 C 123.632812 304.0625 123.871094 304.65625 124.304688 305.097656 C 124.738281 305.539062 125.328125 305.785156 125.949219 305.785156 L 261.222656 305.785156 C 261.839844 305.785156 262.433594 305.539062 262.867188 305.097656 C 263.300781 304.65625 263.539062 304.0625 263.527344 303.445312 C 263.128906 279.328125 254.765625 264.214844 247.820312 255.78125 C 240.207031 246.542969 232.679688 243.101562 232.363281 242.960938 C 232.066406 242.828125 231.742188 242.757812 231.417969 242.757812 L 231.277344 242.761719 L 192.878906 245.109375 L 154.488281 242.761719 Z M 231.417969 245.0625 C 231.417969 245.0625 260.472656 258.089844 261.222656 303.480469 L 125.949219 303.480469 C 126.707031 256.890625 154.34375 245.0625 154.34375 245.0625 L 192.878906 247.417969 L 231.417969 245.0625 " fill-opacity="1" fill-rule="nonzero"/></g><path fill="#ffffff" d="M 211.417969 291.234375 C 206.023438 291.234375 198.910156 289.195312 190.28125 285.171875 L 189.113281 284.628906 L 207.359375 254.726562 L 220.324219 256.238281 L 220.582031 256.875 C 220.910156 257.6875 228.53125 276.902344 222.207031 286.265625 C 219.984375 289.5625 216.355469 291.234375 211.417969 291.234375 " fill-opacity="1" fill-rule="nonzero"/><path fill="#141414" d="M 206.761719 253.496094 L 205.992188 254.757812 L 188.800781 282.929688 L 187.457031 285.125 L 189.792969 286.21875 C 198.574219 290.308594 205.851562 292.386719 211.417969 292.386719 C 216.757812 292.386719 220.710938 290.542969 223.164062 286.910156 C 229.828125 277.046875 221.988281 257.277344 221.648438 256.445312 L 221.140625 255.171875 L 219.777344 255.011719 L 208.226562 253.667969 Z M 207.957031 255.957031 L 219.511719 257.304688 C 219.511719 257.304688 232.710938 290.082031 211.417969 290.082031 C 206.539062 290.082031 199.847656 288.359375 190.769531 284.128906 L 207.957031 255.957031 " fill-opacity="1" fill-rule="nonzero"/><path fill="#ffffff" d="M 169.636719 292.097656 C 164.703125 292.097656 161.074219 290.425781 158.847656 287.132812 C 152.527344 277.769531 160.148438 258.550781 160.476562 257.738281 L 160.734375 257.101562 L 173.699219 255.589844 L 191.945312 285.492188 L 190.777344 286.039062 C 182.148438 290.058594 175.035156 292.097656 169.640625 292.097656 L 169.636719 292.097656 " fill-opacity="1" fill-rule="nonzero"/><path fill="#141414" d="M 174.296875 254.363281 L 172.832031 254.53125 L 161.277344 255.878906 L 159.917969 256.039062 L 159.40625 257.308594 C 159.070312 258.144531 151.230469 277.910156 157.894531 287.777344 C 160.347656 291.410156 164.296875 293.25 169.636719 293.25 C 175.203125 293.25 182.480469 291.171875 191.261719 287.082031 L 193.597656 285.992188 L 192.257812 283.789062 L 175.066406 255.621094 Z M 173.097656 256.824219 L 190.289062 284.992188 C 181.210938 289.226562 174.519531 290.945312 169.636719 290.945312 C 148.347656 290.945312 161.546875 258.167969 161.546875 258.167969 L 173.097656 256.824219 " fill-opacity="1" fill-rule="nonzero"/><path fill="#f7bf89" d="M 190.457031 285.238281 C 171.9375 280.011719 164.628906 259.261719 164.328125 258.378906 L 163.890625 257.113281 L 190.769531 252.199219 L 217.648438 257.113281 L 217.210938 258.378906 C 216.910156 259.261719 209.597656 280.011719 191.082031 285.238281 L 190.769531 285.324219 L 190.457031 285.238281 " fill-opacity="1" fill-rule="nonzero"/><path fill="#141414" d="M 190.769531 251.027344 L 190.355469 251.105469 L 165.003906 255.738281 L 162.367188 256.21875 L 163.234375 258.753906 C 163.546875 259.65625 171.050781 280.960938 190.140625 286.34375 L 190.769531 286.519531 L 191.394531 286.34375 C 210.484375 280.960938 217.992188 259.65625 218.304688 258.753906 L 219.171875 256.21875 L 216.539062 255.738281 L 191.183594 251.105469 Z M 190.769531 253.371094 L 216.121094 258.003906 C 216.121094 258.003906 208.914062 279.007812 190.769531 284.128906 C 172.621094 279.007812 165.414062 258.003906 165.414062 258.003906 L 190.769531 253.371094 " fill-opacity="1" fill-rule="nonzero"/><path fill="#f7bf89" d="M 254.902344 219.628906 C 253.808594 219.628906 252.773438 219.339844 251.832031 218.773438 L 251.351562 218.488281 L 247.757812 189.746094 L 248.113281 189.355469 C 248.335938 189.105469 253.644531 183.34375 259.324219 183.34375 C 262.84375 183.34375 265.652344 185.457031 267.675781 189.628906 C 271.371094 197.246094 268.609375 206.445312 265.121094 212.011719 C 262.132812 216.78125 258.3125 219.628906 254.902344 219.628906 " fill-opacity="1" fill-rule="nonzero"/><path fill="#141414" d="M 259.324219 182.191406 C 253.242188 182.191406 247.859375 187.925781 247.261719 188.578125 L 246.550781 189.363281 L 246.679688 190.414062 L 250.136719 218.074219 L 250.277344 219.1875 L 251.238281 219.761719 C 252.363281 220.441406 253.597656 220.78125 254.902344 220.78125 C 258.714844 220.78125 262.898438 217.730469 266.097656 212.625 C 269.738281 206.808594 272.613281 197.164062 268.710938 189.125 C 265.933594 183.394531 262.074219 182.191406 259.324219 182.191406 Z M 259.324219 184.496094 C 261.941406 184.496094 264.585938 185.90625 266.636719 190.128906 C 272.160156 201.511719 262.496094 218.476562 254.902344 218.476562 C 254.039062 218.476562 253.207031 218.257812 252.425781 217.785156 L 248.964844 190.128906 C 248.964844 190.128906 254.089844 184.496094 259.324219 184.496094 " fill-opacity="1" fill-rule="nonzero"/><path fill="#f7bf89" d="M 130.183594 219.628906 C 126.773438 219.628906 122.953125 216.78125 119.964844 212.007812 C 116.480469 206.441406 113.71875 197.242188 117.414062 189.628906 C 119.433594 185.457031 122.246094 183.34375 125.765625 183.34375 C 131.441406 183.34375 136.75 189.105469 136.976562 189.355469 L 137.328125 189.746094 L 133.738281 218.488281 L 133.257812 218.773438 C 132.316406 219.339844 131.28125 219.628906 130.183594 219.628906 " fill-opacity="1" fill-rule="nonzero"/><path fill="#141414" d="M 125.765625 182.191406 C 123.015625 182.191406 119.15625 183.394531 116.378906 189.125 C 112.476562 197.167969 115.347656 206.808594 118.992188 212.625 C 122.191406 217.730469 126.375 220.78125 130.183594 220.78125 C 131.492188 220.78125 132.726562 220.441406 133.847656 219.761719 L 134.8125 219.1875 L 134.949219 218.074219 L 138.410156 190.414062 L 138.539062 189.363281 L 137.824219 188.578125 C 137.230469 187.925781 131.84375 182.191406 125.765625 182.191406 Z M 125.765625 184.496094 C 131 184.496094 136.121094 190.128906 136.121094 190.128906 L 132.664062 217.785156 C 131.878906 218.257812 131.046875 218.476562 130.183594 218.476562 C 122.59375 218.476562 112.933594 201.511719 118.449219 190.128906 C 120.5 185.90625 123.144531 184.496094 125.765625 184.496094 " fill-opacity="1" fill-rule="nonzero"/><path fill="#f7bf89" d="M 194.101562 265.972656 C 193.703125 265.972656 193.296875 265.960938 192.878906 265.9375 C 192.46875 265.960938 192.058594 265.972656 191.660156 265.972656 C 184.296875 265.972656 179.175781 262.253906 177.84375 261.179688 C 161.203125 260.53125 148.832031 255.175781 141.082031 245.253906 C 128.269531 228.859375 132.523438 205.976562 132.953125 203.847656 C 132.695312 178.007812 138.65625 158.75 150.667969 146.609375 C 162.816406 134.328125 178.941406 131.75 190.328125 131.75 C 191.195312 131.75 192.046875 131.765625 192.878906 131.792969 C 193.714844 131.765625 194.570312 131.75 195.433594 131.75 C 206.824219 131.75 222.949219 134.328125 235.09375 146.605469 C 247.109375 158.75 253.066406 178.003906 252.808594 203.847656 C 253.242188 205.976562 257.492188 228.859375 244.679688 245.257812 C 236.929688 255.175781 224.558594 260.53125 207.917969 261.179688 C 206.589844 262.253906 201.46875 265.972656 194.101562 265.972656 " fill-opacity="1" fill-rule="nonzero"/><path fill="#141414" d="M 195.433594 130.597656 C 194.59375 130.597656 193.734375 130.613281 192.878906 130.640625 C 192.03125 130.613281 191.171875 130.597656 190.332031 130.597656 C 173.683594 130.597656 159.683594 135.855469 149.851562 145.796875 C 137.632812 158.148438 131.558594 177.644531 131.800781 203.738281 C 131.242188 206.578125 127.265625 229.445312 140.171875 245.964844 C 148.085938 256.085938 160.617188 261.589844 177.429688 262.316406 C 179.234375 263.699219 184.433594 267.125 191.660156 267.125 C 192.066406 267.125 192.476562 267.109375 192.878906 267.089844 C 193.289062 267.109375 193.699219 267.125 194.101562 267.125 C 201.332031 267.125 206.53125 263.699219 208.335938 262.316406 C 225.144531 261.589844 237.675781 256.089844 245.585938 245.964844 C 258.496094 229.445312 254.519531 206.578125 253.964844 203.738281 C 254.203125 177.640625 248.132812 158.148438 235.914062 145.796875 C 226.078125 135.855469 212.082031 130.597656 195.433594 130.597656 Z M 195.433594 132.90625 C 218.414062 132.90625 252.308594 143.164062 251.65625 203.957031 C 251.65625 203.957031 263.179688 258.125 207.480469 260.042969 C 207.480469 260.042969 202.183594 264.820312 194.101562 264.820312 C 193.703125 264.820312 193.296875 264.808594 192.878906 264.78125 C 192.46875 264.808594 192.058594 264.820312 191.660156 264.820312 C 183.582031 264.820312 178.285156 260.042969 178.285156 260.042969 C 122.582031 258.125 134.105469 203.957031 134.105469 203.957031 C 133.453125 143.164062 167.347656 132.90625 190.328125 132.90625 C 191.195312 132.90625 192.046875 132.917969 192.878906 132.945312 C 193.710938 132.917969 194.566406 132.90625 195.433594 132.90625 " fill-opacity="1" fill-rule="nonzero"/><path fill="#f7bf89" d="M 199.410156 214.714844 C 199.410156 214.714844 199.21875 208.953125 191.726562 208.761719 C 191.726562 208.761719 183.085938 207.996094 182.320312 214.714844 " fill-opacity="1" fill-rule="nonzero"/><path fill="#141414" d="M 200.5625 214.675781 C 200.558594 214.613281 200.542969 214.179688 200.382812 213.535156 C 200.144531 212.574219 199.578125 211.121094 198.234375 209.878906 C 197.558594 209.261719 196.699219 208.707031 195.625 208.304688 C 194.550781 207.898438 193.273438 207.648438 191.757812 207.605469 L 191.726562 208.761719 L 191.832031 207.613281 C 191.804688 207.609375 191.472656 207.582031 190.941406 207.582031 C 189.773438 207.585938 187.644531 207.703125 185.585938 208.621094 C 184.558594 209.082031 183.542969 209.753906 182.734375 210.742188 C 181.925781 211.722656 181.347656 213.015625 181.171875 214.582031 C 181.101562 215.214844 181.554688 215.789062 182.1875 215.859375 C 182.820312 215.933594 183.390625 215.476562 183.464844 214.847656 C 183.601562 213.675781 183.988281 212.851562 184.519531 212.203125 C 184.917969 211.714844 185.40625 211.324219 185.960938 211.007812 C 186.789062 210.539062 187.753906 210.25 188.652344 210.085938 C 189.554688 209.921875 190.386719 209.886719 190.941406 209.886719 C 191.164062 209.886719 191.34375 209.890625 191.460938 209.898438 C 191.523438 209.902344 191.566406 209.902344 191.59375 209.90625 L 191.621094 209.910156 L 191.628906 209.910156 L 191.65625 209.539062 L 191.625 209.910156 L 191.628906 209.910156 L 191.65625 209.539062 L 191.625 209.910156 L 191.664062 209.910156 L 191.699219 209.914062 C 193.425781 209.957031 194.65625 210.316406 195.550781 210.789062 C 196.886719 211.503906 197.535156 212.484375 197.894531 213.328125 C 198.066406 213.746094 198.164062 214.125 198.210938 214.390625 C 198.238281 214.519531 198.25 214.625 198.253906 214.6875 L 198.257812 214.753906 L 198.261719 214.753906 C 198.28125 215.386719 198.816406 215.886719 199.449219 215.867188 C 200.085938 215.84375 200.585938 215.3125 200.5625 214.675781 " fill-opacity="1" fill-rule="nonzero"/><path fill="#f7bf89" d="M 208.851562 221.824219 C 208.851562 221.824219 194.269531 236.996094 174.414062 221.824219 " fill-opacity="1" fill-rule="nonzero"/><path fill="#141414" d="M 208.15625 221.152344 L 208.152344 221.152344 C 208.101562 221.210938 206.5 222.839844 203.71875 224.433594 C 200.933594 226.035156 196.976562 227.601562 192.167969 227.597656 C 187.28125 227.597656 181.480469 226 175 221.054688 C 174.578125 220.730469 173.96875 220.8125 173.644531 221.238281 C 173.320312 221.660156 173.40625 222.269531 173.828125 222.59375 C 180.582031 227.757812 186.847656 229.539062 192.167969 229.53125 C 197.484375 229.53125 201.820312 227.777344 204.820312 226.03125 C 207.824219 224.28125 209.503906 222.539062 209.550781 222.492188 C 209.917969 222.109375 209.90625 221.5 209.523438 221.128906 C 209.136719 220.757812 208.527344 220.769531 208.15625 221.152344 " fill-opacity="1" fill-rule="nonzero"/><path fill="#f7bf89" d="M 174.824219 212.796875 C 174.824219 212.796875 160.230469 220.09375 155.425781 226.625 " fill-opacity="1" fill-rule="nonzero"/><path fill="#141414" d="M 174.824219 212.796875 C 174.824219 212.796875 174.535156 213.054688 174.015625 213.472656 C 173.496094 213.886719 172.753906 214.476562 171.84375 215.136719 C 170.941406 215.816406 169.871094 216.570312 168.726562 217.363281 C 167.578125 218.152344 166.339844 218.972656 165.117188 219.800781 C 163.894531 220.621094 162.667969 221.441406 161.519531 222.207031 C 160.933594 222.582031 160.410156 222.980469 159.875 223.328125 C 159.34375 223.679688 158.875 224.039062 158.410156 224.351562 C 157.945312 224.664062 157.566406 224.988281 157.191406 225.253906 C 157.003906 225.386719 156.832031 225.515625 156.675781 225.632812 C 156.519531 225.757812 156.382812 225.871094 156.257812 225.976562 C 155.75 226.390625 155.425781 226.625 155.425781 226.625 C 155.425781 226.625 155.582031 226.277344 155.90625 225.683594 C 155.988281 225.53125 156.078125 225.367188 156.175781 225.183594 C 156.28125 225.011719 156.414062 224.835938 156.550781 224.644531 C 156.824219 224.269531 157.113281 223.804688 157.503906 223.382812 C 157.886719 222.953125 158.28125 222.457031 158.757812 222.003906 C 159.230469 221.546875 159.71875 221.039062 160.273438 220.585938 C 160.820312 220.128906 161.382812 219.636719 161.992188 219.199219 C 162.585938 218.746094 163.207031 218.304688 163.839844 217.882812 C 164.472656 217.460938 165.113281 217.058594 165.761719 216.679688 C 166.394531 216.292969 167.046875 215.949219 167.671875 215.613281 C 168.929688 214.957031 170.136719 214.402344 171.203125 213.988281 C 172.253906 213.558594 173.164062 213.257812 173.804688 213.066406 C 174.445312 212.871094 174.824219 212.796875 174.824219 212.796875 " fill-opacity="1" fill-rule="nonzero"/><path fill="#f7bf89" d="M 210.554688 212.796875 C 210.554688 212.796875 224.382812 222.78125 227.265625 226.625 " fill-opacity="1" fill-rule="nonzero"/><path fill="#141414" d="M 210.554688 212.796875 C 210.554688 212.796875 210.886719 212.914062 211.441406 213.164062 C 212 213.410156 212.777344 213.785156 213.683594 214.277344 C 214.585938 214.773438 215.613281 215.390625 216.679688 216.097656 C 217.746094 216.808594 218.855469 217.613281 219.925781 218.457031 C 220.992188 219.308594 222.03125 220.207031 222.960938 221.097656 C 223.890625 221.992188 224.714844 222.875 225.375 223.6875 C 225.699219 224.097656 225.996094 224.464844 226.234375 224.828125 C 226.476562 225.175781 226.679688 225.488281 226.835938 225.757812 C 227.128906 226.304688 227.265625 226.625 227.265625 226.625 C 227.265625 226.625 226.964844 226.421875 226.492188 226.0625 C 226.25 225.886719 225.933594 225.691406 225.609375 225.449219 C 225.28125 225.203125 224.871094 224.960938 224.464844 224.664062 C 224.050781 224.371094 223.597656 224.058594 223.125 223.730469 C 222.652344 223.390625 222.15625 223.03125 221.644531 222.664062 C 221.136719 222.285156 220.605469 221.90625 220.082031 221.496094 C 219.554688 221.097656 219.023438 220.679688 218.496094 220.261719 C 216.378906 218.582031 214.339844 216.792969 212.890625 215.34375 C 212.164062 214.617188 211.574219 213.988281 211.171875 213.53125 C 210.769531 213.078125 210.554688 212.796875 210.554688 212.796875 " fill-opacity="1" fill-rule="nonzero"/><path fill="#141414" d="M 201.714844 201.484375 C 201.714844 203.929688 203.695312 205.902344 206.136719 205.902344 C 208.574219 205.902344 210.554688 203.929688 210.554688 201.484375 C 210.554688 199.046875 208.574219 197.070312 206.136719 197.070312 C 203.695312 197.070312 201.714844 199.046875 201.714844 201.484375 " fill-opacity="1" fill-rule="nonzero"/><path fill="#141414" d="M 172.710938 201.484375 C 172.710938 203.929688 174.691406 205.902344 177.132812 205.902344 C 179.574219 205.902344 181.550781 203.929688 181.550781 201.484375 C 181.550781 199.046875 179.574219 197.070312 177.132812 197.070312 C 174.691406 197.070312 172.710938 199.046875 172.710938 201.484375 " fill-opacity="1" fill-rule="nonzero"/><path fill="#141414" d="M 217.851562 181.871094 C 217.851562 181.871094 211.703125 177.675781 205.558594 175.722656 C 205.558594 175.722656 215.351562 171.5 217.851562 181.871094 " fill-opacity="1" fill-rule="nonzero"/><path fill="#141414" d="M 165.605469 180.335938 C 165.605469 180.335938 171.753906 176.140625 177.902344 174.1875 C 177.902344 174.1875 168.105469 169.960938 165.605469 180.335938 " fill-opacity="1" fill-rule="nonzero"/><path fill="#808080" d="M 134.074219 207.671875 C 133.976562 207.671875 133.882812 207.660156 133.789062 207.636719 C 133.390625 207.535156 133.078125 207.230469 132.964844 206.832031 C 132.789062 206.21875 128.824219 192.230469 128.066406 185.367188 L 126.121094 184.746094 C 125.746094 184.628906 125.457031 184.324219 125.355469 183.941406 C 124.996094 182.566406 116.6875 150.015625 133.648438 128.007812 C 143.433594 115.316406 159.632812 108.878906 181.796875 108.878906 C 184.515625 108.878906 187.359375 108.980469 190.253906 109.171875 C 191.011719 109.074219 195.1875 108.578125 201.300781 108.578125 C 215.121094 108.578125 240.46875 111.222656 254.949219 128.914062 C 265.59375 141.917969 268.539062 160.695312 263.695312 184.722656 C 263.433594 186.035156 262.40625 188.238281 258.5 188.238281 C 257.164062 188.238281 255.820312 187.976562 254.851562 187.734375 C 254.398438 192.523438 252.945312 204.765625 249.695312 207.414062 C 249.488281 207.582031 249.226562 207.671875 248.964844 207.671875 C 248.863281 207.671875 248.757812 207.65625 248.65625 207.628906 C 248.296875 207.527344 248.007812 207.253906 247.878906 206.902344 C 247.609375 206.132812 241.414062 188.4375 240.8125 176.019531 C 234.792969 175.914062 204.625 174.25 190.214844 152.007812 C 186.136719 157.398438 170.117188 176.378906 143.320312 181.328125 C 142.472656 185.710938 138.867188 203.253906 134.898438 207.324219 C 134.679688 207.550781 134.378906 207.671875 134.074219 207.671875 " fill-opacity="1" fill-rule="nonzero"/><path fill="#141414" d="M 201.308594 107.425781 L 201.308594 109.734375 L 201.304688 107.425781 C 195.382812 107.425781 191.242188 107.886719 190.21875 108.015625 C 187.335938 107.828125 184.503906 107.730469 181.796875 107.730469 C 159.253906 107.730469 142.75 114.316406 132.734375 127.304688 C 125.546875 136.632812 121.800781 149.453125 121.90625 164.375 C 121.988281 175.546875 124.148438 183.886719 124.242188 184.238281 C 124.445312 185 125.019531 185.605469 125.773438 185.847656 L 127.011719 186.238281 C 127.96875 193.425781 131.6875 206.550781 131.855469 207.148438 C 132.078125 207.9375 132.710938 208.550781 133.507812 208.753906 C 133.695312 208.800781 133.882812 208.820312 134.074219 208.820312 C 134.6875 208.820312 135.28125 208.578125 135.722656 208.128906 C 139.707031 204.039062 143.144531 188.191406 144.304688 182.316406 C 160.332031 179.171875 172.328125 171.128906 179.652344 164.832031 C 184.632812 160.546875 188.136719 156.53125 190.160156 153.984375 C 204.449219 174.355469 231.871094 176.851562 239.726562 177.144531 C 240.617188 189.652344 246.527344 206.53125 246.792969 207.285156 C 247.042969 207.992188 247.621094 208.53125 248.34375 208.738281 C 248.550781 208.792969 248.757812 208.820312 248.964844 208.820312 C 249.492188 208.820312 250.007812 208.644531 250.421875 208.304688 C 251.742188 207.234375 253.453125 204.824219 254.964844 195.699219 C 255.375 193.222656 255.671875 190.855469 255.855469 189.132812 C 256.667969 189.28125 257.578125 189.390625 258.5 189.390625 C 263.402344 189.390625 264.558594 186.285156 264.828125 184.949219 C 269.738281 160.570312 266.71875 141.46875 255.839844 128.183594 C 241.054688 110.125 215.328125 107.425781 201.308594 107.425781 Z M 201.300781 109.734375 C 224.691406 109.730469 276.132812 117.164062 262.566406 184.496094 C 262.15625 186.523438 260.359375 187.085938 258.5 187.085938 C 256.207031 187.085938 253.824219 186.234375 253.824219 186.234375 C 253.824219 186.234375 252.425781 203.703125 248.964844 206.519531 C 248.964844 206.519531 242.179688 187.273438 241.921875 174.871094 C 241.921875 174.871094 241.785156 174.875 241.519531 174.875 C 237.503906 174.875 204.613281 174.128906 190.289062 149.9375 C 190.289062 149.9375 173.890625 174.871094 142.339844 180.335938 C 142.339844 180.335938 138.238281 202.246094 134.074219 206.519531 C 134.074219 206.519531 129.652344 190.976562 129.140625 184.496094 L 126.472656 183.652344 C 126.472656 183.652344 107.089844 110.03125 181.796875 110.03125 C 184.507812 110.03125 187.328125 110.128906 190.289062 110.328125 C 190.289062 110.328125 194.671875 109.734375 201.300781 109.734375 " fill-opacity="1" fill-rule="nonzero"/><path fill="#141414" d="M 187.246094 295.640625 C 187.246094 297.585938 188.824219 299.160156 190.769531 299.160156 C 192.714844 299.160156 194.289062 297.585938 194.289062 295.640625 C 194.289062 293.699219 192.714844 292.121094 190.769531 292.121094 C 188.824219 292.121094 187.246094 293.699219 187.246094 295.640625 " fill-opacity="1" fill-rule="nonzero"/><path fill="#141414" d="M 189.136719 154.15625 L 191.441406 154.15625 L 191.441406 110.332031 L 189.136719 110.332031 Z M 189.136719 154.15625 " fill-opacity="1" fill-rule="nonzero"/></svg>