<svg xmlns="http://www.w3.org/2000/svg" xmlns:xlink="http://www.w3.org/1999/xlink" width="500" zoomAndPan="magnify" viewBox="0 0 375 374.999991" height="500" preserveAspectRatio="xMidYMid meet" version="1.0"><defs><clipPath id="e203583030"><path d="M 258.195312 79 L 289.488281 79 L 289.488281 124 L 258.195312 124 Z M 258.195312 79 " clip-rule="nonzero"/></clipPath><clipPath id="e17b9fc8a8"><path d="M 104 219 L 272 219 L 272 343.421875 L 104 343.421875 Z M 104 219 " clip-rule="nonzero"/></clipPath><clipPath id="88b1abf4b8"><path d="M 87 47.921875 L 289 47.921875 L 289 239 L 87 239 Z M 87 47.921875 " clip-rule="nonzero"/></clipPath><clipPath id="b2bb012d41"><path d="M 230 267 L 236 267 L 236 343.421875 L 230 343.421875 Z M 230 267 " clip-rule="nonzero"/></clipPath><clipPath id="f55f200ff4"><path d="M 140 267 L 146 267 L 146 343.421875 L 140 343.421875 Z M 140 267 " clip-rule="nonzero"/></clipPath></defs><g clip-path="url(#e203583030)"><path fill="#808080" d="M 272.339844 109.789062 C 278.925781 109.789062 284.566406 115.449219 286.96875 123.539062 C 289.234375 119.679688 290.644531 115.425781 288.21875 113 C 282.878906 107.664062 287.523438 83.535156 275.507812 79.90625 C 269.914062 78.21875 263.695312 81.847656 258.636719 86.214844 C 263.394531 93.496094 267 101.585938 269.335938 110.203125 C 270.304688 109.949219 271.324219 109.789062 272.339844 109.789062 " fill-opacity="1" fill-rule="nonzero"/></g><path fill="#808080" d="M 103.746094 109.789062 C 104.789062 109.789062 105.78125 109.949219 106.773438 110.203125 C 109.085938 101.585938 112.714844 93.496094 117.476562 86.214844 C 112.414062 81.847656 106.175781 78.21875 100.582031 79.90625 C 88.585938 83.535156 93.234375 107.664062 87.894531 113 C 85.46875 115.425781 86.878906 119.679688 89.117188 123.539062 C 91.523438 115.449219 97.160156 109.789062 103.746094 109.789062 " fill-opacity="1" fill-rule="nonzero"/><path fill="#000000" d="M 225.957031 143.761719 C 228.429688 143.761719 230.417969 139.648438 230.417969 134.585938 C 230.417969 129.503906 228.429688 125.386719 225.957031 125.386719 C 223.507812 125.386719 221.496094 129.503906 221.496094 134.585938 C 221.496094 139.648438 223.507812 143.761719 225.957031 143.761719 " fill-opacity="1" fill-rule="nonzero"/><path fill="#000000" d="M 150.132812 143.761719 C 152.605469 143.761719 154.589844 139.648438 154.589844 134.585938 C 154.589844 129.503906 152.605469 125.386719 150.132812 125.386719 C 147.679688 125.386719 145.671875 129.503906 145.671875 134.585938 C 145.671875 139.648438 147.679688 143.761719 150.132812 143.761719 " fill-opacity="1" fill-rule="nonzero"/><g clip-path="url(#e17b9fc8a8)"><path fill="#4b99f5" d="M 204.949219 231.257812 C 204.925781 231.304688 204.902344 231.375 204.878906 231.421875 C 204.140625 233.476562 202.476562 235.117188 200.28125 236.320312 C 197.300781 237.9375 193.324219 238.792969 189.257812 238.882812 C 180.222656 239.09375 170.769531 235.648438 170.769531 228.855469 L 170.769531 219.632812 C 149.277344 223.585938 129.609375 224.902344 117.984375 237.242188 C 114.261719 241.195312 112.253906 246.464844 111.8125 251.894531 L 104.441406 343.738281 L 140.5625 343.738281 L 140.5625 267.378906 L 145.992188 267.378906 L 145.992188 343.738281 L 230.117188 343.738281 L 230.117188 267.378906 L 235.546875 267.378906 L 235.546875 343.738281 L 271.648438 343.738281 L 264.273438 251.871094 C 263.859375 246.464844 261.847656 241.195312 258.148438 237.265625 C 246.59375 224.949219 227.066406 223.632812 205.34375 219.632812 L 205.34375 228.855469 C 205.34375 229.710938 205.203125 230.519531 204.949219 231.257812 " fill-opacity="1" fill-rule="nonzero"/></g><g clip-path="url(#88b1abf4b8)"><path fill="#f7bf89" d="M 150.132812 125.386719 C 152.605469 125.386719 154.589844 129.503906 154.589844 134.585938 C 154.589844 139.648438 152.605469 143.761719 150.132812 143.761719 C 147.679688 143.761719 145.671875 139.648438 145.671875 134.585938 C 145.671875 129.503906 147.679688 125.386719 150.132812 125.386719 Z M 188.054688 160.238281 C 188.054688 160.238281 205.386719 156.84375 212.851562 164.304688 C 220.339844 171.792969 221.496094 178.9375 221.496094 178.9375 C 221.496094 178.9375 192.816406 183.605469 188.054688 169.207031 C 183.292969 183.605469 154.589844 178.9375 154.589844 178.9375 C 154.589844 178.9375 155.769531 171.792969 163.234375 164.304688 C 170.722656 156.84375 188.054688 160.238281 188.054688 160.238281 Z M 225.957031 125.386719 C 228.429688 125.386719 230.417969 129.503906 230.417969 134.585938 C 230.417969 139.648438 228.429688 143.761719 225.957031 143.761719 C 223.507812 143.761719 221.496094 139.648438 221.496094 134.585938 C 221.496094 129.503906 223.507812 125.386719 225.957031 125.386719 Z M 103.746094 109.789062 C 97.160156 109.789062 91.523438 115.449219 89.117188 123.539062 C 88.332031 126.21875 87.894531 129.132812 87.894531 132.207031 C 87.894531 144.59375 95.011719 154.644531 103.746094 154.644531 C 104.789062 154.644531 105.78125 154.484375 106.753906 154.230469 C 114.980469 184.621094 139.683594 208.238281 170.769531 214.710938 L 170.769531 228.855469 C 170.769531 235.648438 180.222656 239.09375 189.257812 238.882812 C 192.933594 238.722656 196.605469 237.890625 200.28125 236.320312 C 202.476562 235.117188 204.140625 233.476562 204.878906 231.421875 C 204.902344 231.375 204.925781 231.304688 204.949219 231.257812 C 205.203125 230.519531 205.34375 229.710938 205.34375 228.855469 L 205.34375 214.710938 C 236.425781 208.238281 261.132812 184.621094 269.335938 154.230469 C 270.304688 154.484375 271.324219 154.644531 272.339844 154.644531 C 281.097656 154.644531 288.21875 144.59375 288.21875 132.207031 C 288.21875 129.132812 287.753906 126.21875 286.96875 123.539062 C 284.566406 115.449219 278.925781 109.789062 272.339844 109.789062 C 271.324219 109.789062 270.304688 109.949219 269.335938 110.203125 C 267 101.585938 263.394531 93.496094 258.636719 86.214844 C 243.589844 63.175781 217.613281 47.921875 188.054688 47.921875 C 158.496094 47.921875 132.519531 63.175781 117.476562 86.214844 C 112.714844 93.496094 109.085938 101.585938 106.773438 110.203125 C 105.78125 109.949219 104.789062 109.789062 103.746094 109.789062 " fill-opacity="1" fill-rule="nonzero"/></g><path fill="#808080" d="M 188.054688 169.207031 C 192.816406 183.605469 221.496094 178.9375 221.496094 178.9375 C 221.496094 178.9375 220.339844 171.792969 212.851562 164.304688 C 205.386719 156.84375 188.054688 160.238281 188.054688 160.238281 C 188.054688 160.238281 170.722656 156.84375 163.234375 164.304688 C 155.769531 171.792969 154.589844 178.9375 154.589844 178.9375 C 154.589844 178.9375 183.292969 183.605469 188.054688 169.207031 " fill-opacity="1" fill-rule="nonzero"/><g clip-path="url(#b2bb012d41)"><path fill="#004aad" d="M 230.117188 267.378906 L 230.117188 343.738281 L 235.546875 343.738281 L 235.546875 267.378906 L 230.117188 267.378906 " fill-opacity="1" fill-rule="nonzero"/></g><g clip-path="url(#f55f200ff4)"><path fill="#004aad" d="M 140.5625 267.378906 L 140.5625 343.738281 L 145.992188 343.738281 L 145.992188 267.378906 L 140.5625 267.378906 " fill-opacity="1" fill-rule="nonzero"/></g></svg>