<svg xmlns="http://www.w3.org/2000/svg" xmlns:xlink="http://www.w3.org/1999/xlink" width="500" zoomAndPan="magnify" viewBox="0 0 375 374.999991" height="500" preserveAspectRatio="xMidYMid meet" version="1.0"><defs><clipPath id="2d0191144d"><path d="M 69 47 L 288.433594 47 L 288.433594 353.96875 L 69 353.96875 Z M 69 47 " clip-rule="nonzero"/></clipPath></defs><path fill="#f48ca7" d="M 219.796875 250.992188 L 219.773438 250.992188 C 215.875 248.488281 212.074219 246.421875 208.472656 244.742188 L 152.738281 244.742188 C 148.625 246.664062 144.238281 249.097656 139.734375 252.089844 C 117.785156 266.757812 93.28125 295.464844 84.074219 351.539062 L 277.136719 351.539062 C 267.683594 294.03125 242.15625 265.324219 219.796875 250.992188 Z M 219.796875 250.992188 " fill-opacity="1" fill-rule="nonzero"/><path fill="#ea728c" d="M 180.605469 310.257812 C 183.625 310.257812 186.085938 312.738281 186.085938 315.777344 C 186.085938 318.792969 183.625 321.277344 180.605469 321.277344 C 177.585938 321.277344 175.125 318.792969 175.125 315.777344 C 175.125 312.738281 177.585938 310.257812 180.605469 310.257812 Z M 180.605469 310.257812 " fill-opacity="1" fill-rule="nonzero"/><path fill="#ea728c" d="M 180.605469 285.492188 C 183.625 285.492188 186.085938 287.972656 186.085938 290.988281 C 186.085938 294.03125 183.625 296.511719 180.605469 296.511719 C 177.585938 296.511719 175.125 294.03125 175.125 290.988281 C 175.125 287.972656 177.585938 285.492188 180.605469 285.492188 Z M 180.605469 285.492188 " fill-opacity="1" fill-rule="nonzero"/><path fill="#ea728c" d="M 208.472656 244.742188 C 208.980469 246.273438 211.273438 253.5 207.546875 260.894531 C 204.109375 267.730469 196.875 272.085938 188.8125 272.257812 L 195.511719 239.730469 C 199.335938 240.898438 203.722656 242.503906 208.472656 244.71875 Z M 208.472656 244.742188 " fill-opacity="1" fill-rule="nonzero"/><path fill="#ea728c" d="M 165.699219 239.730469 L 172.398438 272.257812 C 164.335938 272.085938 157.101562 267.730469 153.664062 260.894531 C 149.9375 253.5 152.230469 246.273438 152.738281 244.742188 L 152.738281 244.71875 C 157.488281 242.503906 161.875 240.898438 165.699219 239.730469 Z M 165.699219 239.730469 " fill-opacity="1" fill-rule="nonzero"/><path fill="#604533" d="M 272.09375 213.601562 C 268.804688 205.890625 272.386719 200.078125 271.628906 190.003906 C 271.3125 185.820312 270.097656 180.347656 266.296875 173.972656 C 263.640625 169.519531 262.691406 164.167969 264.03125 159.15625 C 265.296875 154.488281 266.125 148.1875 264.640625 141.007812 C 262.59375 131.132812 257.160156 124.394531 253.167969 120.574219 C 250.511719 118.042969 248.613281 114.832031 247.710938 111.257812 C 238.308594 73.332031 210.710938 49.074219 184.40625 49.902344 C 167.71875 50.414062 155.03125 60.898438 148.722656 67.222656 C 133.789062 67.492188 126.484375 72.792969 123.046875 76.128906 C 119.664062 79.4375 110.84375 86.222656 107.996094 104.25 C 107.386719 108.09375 105.707031 111.671875 103.148438 114.589844 C 98.933594 119.359375 93.332031 127.582031 91.578125 139.136719 C 90.164062 148.285156 91.722656 156.214844 93.820312 162.148438 C 96.132812 168.742188 94.988281 176.015625 90.796875 181.585938 C 87.144531 186.476562 85.828125 190.832031 85.511719 194.382812 C 84.660156 203.359375 89.824219 209.054688 86.777344 215.355469 C 84.148438 220.804688 77.207031 222.945312 71.507812 223.894531 C 73.625 225.960938 79.667969 231.335938 89.238281 232.917969 C 97.910156 234.378906 104.753906 231.921875 107.53125 230.753906 C 107.507812 232.261719 107.265625 234.769531 105.898438 237.492188 C 103.636719 242.042969 99.8125 244.085938 98.445312 244.71875 C 100.980469 245.570312 110.1875 248.246094 120.246094 243.9375 C 126.652344 241.164062 130.527344 236.8125 132.328125 234.453125 C 131.988281 235.570312 130.84375 239.828125 132.839844 244.621094 C 134.863281 249.414062 138.6875 251.554688 139.734375 252.089844 C 144.238281 249.097656 148.625 246.664062 152.738281 244.742188 L 152.738281 244.71875 C 157.488281 242.503906 161.875 240.898438 165.699219 239.730469 L 195.511719 239.730469 C 199.335938 240.898438 203.722656 242.503906 208.472656 244.71875 L 208.472656 244.742188 C 212.074219 246.421875 215.875 248.488281 219.773438 250.992188 L 219.796875 250.992188 C 220.675781 250.554688 223.523438 249 225.105469 245.519531 C 226.984375 241.335938 225.617188 237.515625 225.328125 236.785156 C 227.496094 238.976562 235.433594 246.421875 247.320312 246.738281 C 252.167969 246.859375 256.164062 245.761719 258.914062 244.71875 C 257.136719 243.621094 254.703125 241.824219 252.386719 239 C 249.707031 235.765625 248.320312 232.578125 247.613281 230.460938 C 251.414062 231.945312 260.644531 234.9375 271.800781 232.335938 C 278.160156 230.851562 282.882812 228.101562 285.855469 226.007812 C 281.058594 223.894531 274.894531 220.195312 272.09375 213.601562 Z M 272.09375 213.601562 " fill-opacity="1" fill-rule="nonzero"/><path fill="#fec4b9" d="M 126.019531 182.535156 C 119.34375 183.339844 113.011719 178.472656 110.113281 170.566406 C 106.777344 161.445312 111.234375 150.714844 118.738281 147.722656 L 119.175781 147.554688 C 125.46875 159.539062 126.714844 172.164062 126.019531 182.535156 Z M 126.019531 182.535156 " fill-opacity="1" fill-rule="nonzero"/><path fill="#fec4b9" d="M 243.59375 148.625 C 251.097656 151.617188 254.457031 161.445312 251.097656 170.566406 C 248.199219 178.472656 241.230469 183.242188 234.558594 182.4375 L 234.4375 182.390625 C 230.671875 173.007812 231.796875 160.878906 241.183594 147.992188 L 241.378906 147.992188 C 242.132812 148.136719 242.863281 148.332031 243.59375 148.625 Z M 243.59375 148.625 " fill-opacity="1" fill-rule="nonzero"/><path fill="#ffd7d2" d="M 241.183594 147.992188 C 239.890625 161.128906 237.554688 173.21875 234.4375 182.390625 C 233.070312 186.429688 231.539062 189.90625 229.90625 192.632812 C 224.207031 202.144531 211.273438 214.574219 195.511719 219.878906 C 190.714844 221.507812 185.625 222.457031 180.410156 222.457031 L 180.019531 222.457031 C 175.101562 222.457031 170.277344 221.605469 165.699219 220.148438 C 149.574219 214.988281 136.273438 202.316406 130.5 192.632812 C 128.894531 189.933594 127.382812 186.5 126.019531 182.535156 C 122.851562 173.242188 120.464844 160.933594 119.175781 147.554688 C 119.125 143.003906 119.6875 135.875 123.460938 128.699219 C 129.113281 117.945312 137.25 116.050781 144.289062 106.5625 C 148.039062 101.5 152.449219 93.011719 152.960938 78.828125 C 155.566406 84.351562 160.414062 92.9375 169.109375 100.429688 C 185.28125 114.347656 199.996094 111.890625 219.140625 125.195312 C 224.9375 129.210938 233.242188 136.121094 241.183594 147.992188 Z M 241.183594 147.992188 " fill-opacity="1" fill-rule="nonzero"/><path fill="#ffd7d2" d="M 165.699219 220.148438 L 165.699219 239.730469 L 172.398438 272.257812 L 188.8125 272.257812 L 195.511719 239.730469 L 195.511719 219.878906 C 185.003906 214.589844 175.066406 214.679688 165.699219 220.148438 Z M 165.699219 220.148438 " fill-opacity="1" fill-rule="nonzero"/><path fill="#f7b6ad" d="M 195.511719 219.878906 L 195.511719 232.480469 C 192.515625 233.355469 189.351562 233.820312 186.085938 233.820312 C 178.414062 233.820312 171.324219 231.238281 165.699219 226.859375 L 165.699219 220.148438 C 170.277344 221.605469 175.101562 222.457031 180.019531 222.457031 L 180.410156 222.457031 C 185.625 222.457031 190.714844 221.507812 195.511719 219.878906 Z M 195.511719 219.878906 " fill-opacity="1" fill-rule="nonzero"/><path fill="#db7d9b" d="M 126.578125 351.539062 L 128.46875 303.671875 C 128.527344 302.195312 127.34375 300.960938 125.863281 300.960938 C 124.675781 300.960938 123.640625 301.769531 123.339844 302.910156 C 117.753906 324.039062 111.414062 342.910156 101.617188 351.5 Z M 126.578125 351.539062 " fill-opacity="1" fill-rule="nonzero"/><path fill="#db7d9b" d="M 234.632812 351.539062 L 232.75 303.890625 C 232.683594 302.292969 233.964844 300.960938 235.570312 300.960938 C 236.734375 300.960938 237.78125 301.679688 238.199219 302.761719 C 242.164062 323.796875 246.589844 343.890625 257.089844 351.5 Z M 234.632812 351.539062 " fill-opacity="1" fill-rule="nonzero"/><path fill="#3a322b" d="M 180.605469 283.066406 C 176.242188 283.066406 172.6875 286.625 172.6875 291 C 172.6875 295.378906 176.242188 298.9375 180.605469 298.9375 C 184.96875 298.9375 188.523438 295.378906 188.523438 291 C 188.523438 286.625 184.972656 283.066406 180.605469 283.066406 Z M 180.605469 294.070312 C 178.925781 294.070312 177.5625 292.695312 177.5625 291 C 177.5625 289.304688 178.925781 287.929688 180.605469 287.929688 C 182.285156 287.929688 183.648438 289.304688 183.648438 291 C 183.652344 292.695312 182.285156 294.070312 180.605469 294.070312 Z M 180.605469 294.070312 " fill-opacity="1" fill-rule="nonzero"/><path fill="#3a322b" d="M 180.605469 307.832031 C 176.242188 307.832031 172.6875 311.390625 172.6875 315.769531 C 172.6875 320.144531 176.242188 323.703125 180.605469 323.703125 C 184.96875 323.703125 188.523438 320.144531 188.523438 315.769531 C 188.523438 311.390625 184.972656 307.832031 180.605469 307.832031 Z M 180.605469 318.839844 C 178.925781 318.839844 177.5625 317.460938 177.5625 315.769531 C 177.5625 314.074219 178.925781 312.695312 180.605469 312.695312 C 182.285156 312.695312 183.648438 314.074219 183.648438 315.769531 C 183.652344 317.460938 182.285156 318.839844 180.605469 318.839844 Z M 180.605469 318.839844 " fill-opacity="1" fill-rule="nonzero"/><path fill="#3a322b" d="M 194.328125 133.703125 C 194.386719 133.695312 200.296875 132.75 204.339844 135.597656 C 204.765625 135.902344 205.253906 136.042969 205.742188 136.042969 C 206.507812 136.042969 207.261719 135.6875 207.734375 135.015625 C 208.507812 133.917969 208.25 132.398438 207.152344 131.625 C 201.40625 127.570312 193.804688 128.855469 193.484375 128.910156 C 192.160156 129.144531 191.273438 130.40625 191.507812 131.730469 C 191.742188 133.054688 193.011719 133.933594 194.328125 133.703125 Z M 194.328125 133.703125 " fill-opacity="1" fill-rule="nonzero"/><path fill="#3a322b" d="M 150.84375 136.042969 C 151.328125 136.042969 151.816406 135.898438 152.246094 135.597656 C 156.292969 132.742188 162.15625 133.683594 162.261719 133.707031 C 163.589844 133.933594 164.84375 133.050781 165.078125 131.730469 C 165.3125 130.40625 164.425781 129.144531 163.101562 128.910156 C 162.78125 128.855469 155.183594 127.574219 149.433594 131.625 C 148.335938 132.398438 148.074219 133.914062 148.851562 135.015625 C 149.324219 135.683594 150.078125 136.042969 150.84375 136.042969 Z M 150.84375 136.042969 " fill-opacity="1" fill-rule="nonzero"/><path fill="#3a322b" d="M 165.441406 167.5 C 165.65625 167.710938 170.800781 172.671875 178.578125 172.671875 C 178.601562 172.671875 178.621094 172.671875 178.640625 172.671875 C 186.304688 172.671875 191.445312 167.710938 191.664062 167.5 C 192.625 166.558594 192.636719 165.015625 191.695312 164.058594 C 190.75 163.097656 189.207031 163.085938 188.25 164.027344 C 188.210938 164.066406 184.335938 167.804688 178.511719 167.804688 C 178.5 167.804688 178.480469 167.804688 178.464844 167.804688 C 172.878906 167.804688 168.9375 164.105469 168.851562 164.023438 C 167.886719 163.089844 166.355469 163.105469 165.410156 164.058594 C 164.472656 165.019531 164.484375 166.558594 165.441406 167.5 Z M 165.441406 167.5 " fill-opacity="1" fill-rule="nonzero"/><path fill="#3a322b" d="M 206.507812 152.207031 C 205.832031 152.496094 205.066406 152.644531 204.308594 152.714844 C 204.738281 152.367188 205.128906 151.964844 205.480469 151.507812 C 206.300781 150.441406 206.097656 148.914062 205.03125 148.097656 C 203.964844 147.28125 202.433594 147.480469 201.617188 148.546875 C 201.003906 149.34375 200.097656 149.433594 199.179688 149.390625 C 199.128906 149.390625 199.078125 149.378906 199.023438 149.378906 C 198.992188 149.378906 198.964844 149.386719 198.933594 149.386719 C 198.832031 149.382812 198.679688 149.375 198.636719 149.375 C 198.492188 149.375 198.367188 149.429688 198.230469 149.457031 C 198.074219 149.484375 197.917969 149.515625 197.769531 149.554688 C 197.75 149.558594 197.730469 149.5625 197.71875 149.570312 C 195.527344 150.152344 193.902344 152.132812 193.902344 154.507812 C 193.902344 157.339844 196.195312 159.632812 199.023438 159.632812 C 200.675781 159.632812 202.125 158.839844 203.0625 157.628906 C 203.152344 157.628906 203.234375 157.640625 203.328125 157.640625 C 205.023438 157.640625 206.824219 157.371094 208.425781 156.679688 C 209.660156 156.152344 210.234375 154.71875 209.703125 153.488281 C 209.175781 152.25 207.742188 151.675781 206.507812 152.207031 Z M 206.507812 152.207031 " fill-opacity="1" fill-rule="nonzero"/><path fill="#3a322b" d="M 148.640625 156.664062 C 150.140625 157.332031 151.945312 157.601562 153.683594 157.601562 C 153.792969 157.601562 153.898438 157.585938 154.007812 157.582031 C 154.941406 158.820312 156.410156 159.628906 158.078125 159.628906 C 160.90625 159.628906 163.199219 157.335938 163.199219 154.503906 C 163.199219 152.144531 161.601562 150.179688 159.4375 149.582031 C 159.402344 149.566406 159.367188 149.5625 159.332031 149.550781 C 159.179688 149.511719 159.03125 149.484375 158.875 149.457031 C 158.734375 149.433594 158.609375 149.375 158.464844 149.375 C 158.425781 149.375 158.273438 149.382812 158.167969 149.386719 C 158.136719 149.386719 158.109375 149.378906 158.078125 149.378906 C 158.027344 149.378906 157.976562 149.390625 157.921875 149.390625 C 157.007812 149.433594 156.097656 149.347656 155.484375 148.546875 C 154.667969 147.480469 153.140625 147.277344 152.070312 148.097656 C 151 148.914062 150.800781 150.4375 151.621094 151.507812 C 151.96875 151.960938 152.355469 152.359375 152.78125 152.699219 C 152.003906 152.636719 151.246094 152.5 150.628906 152.222656 C 149.40625 151.675781 147.964844 152.222656 147.414062 153.449219 C 146.863281 154.675781 147.414062 156.113281 148.640625 156.664062 Z M 148.640625 156.664062 " fill-opacity="1" fill-rule="nonzero"/><g clip-path="url(#2d0191144d)"><path fill="#3a322b" d="M 286.839844 223.785156 C 280.5 220.988281 276.292969 217.242188 274.335938 212.648438 C 272.640625 208.667969 273.054688 205.230469 273.574219 200.878906 C 273.953125 197.726562 274.382812 194.152344 274.054688 189.820312 C 273.617188 184.070312 271.710938 178.316406 268.390625 172.730469 C 265.988281 168.691406 265.257812 163.976562 266.390625 159.800781 C 268.128906 153.378906 268.335938 146.886719 267.011719 140.503906 C 264.863281 130.140625 259.21875 122.996094 254.859375 118.828125 C 252.496094 116.566406 250.839844 113.746094 250.082031 110.675781 C 240.769531 73.15625 213.011719 46.535156 184.320312 47.46875 C 168.335938 47.960938 155.679688 57.015625 147.679688 64.820312 C 136.339844 65.183594 127.484375 68.402344 121.347656 74.386719 C 121.066406 74.664062 120.742188 74.96875 120.386719 75.300781 C 116.46875 78.960938 108.316406 86.582031 105.582031 103.878906 C 105.046875 107.277344 103.570312 110.417969 101.320312 112.96875 C 96.777344 118.113281 90.976562 126.761719 89.152344 138.765625 C 87.917969 146.890625 88.707031 155.027344 91.503906 162.957031 C 93.554688 168.773438 92.5625 175.191406 88.851562 180.132812 C 85.464844 184.644531 83.519531 189.367188 83.070312 194.171875 C 82.660156 198.601562 83.558594 202.226562 84.347656 205.421875 C 85.238281 209.023438 85.878906 211.621094 84.585938 214.304688 C 82.859375 217.878906 78.324219 220.300781 71.101562 221.507812 C 70.195312 221.65625 69.453125 222.304688 69.179688 223.179688 C 68.902344 224.050781 69.144531 225.003906 69.800781 225.648438 C 72.800781 228.578125 79.265625 233.730469 88.828125 235.320312 C 94.992188 236.347656 100.375 235.597656 104.523438 234.398438 C 104.3125 235.09375 104.042969 235.765625 103.726562 236.40625 C 101.953125 239.953125 98.996094 241.769531 97.390625 242.535156 C 96.496094 242.964844 95.949219 243.894531 96.011719 244.886719 C 96.074219 245.875 96.734375 246.730469 97.679688 247.039062 C 101.339844 248.246094 110.953125 250.574219 121.214844 246.164062 C 124.503906 244.75 127.210938 242.925781 129.394531 241.0625 C 129.574219 242.480469 129.941406 244.007812 130.597656 245.574219 C 131.84375 248.535156 133.667969 250.625 135.386719 252.078125 C 113.554688 267.703125 90.589844 296.824219 81.664062 351.148438 C 81.550781 351.855469 81.75 352.574219 82.210938 353.117188 C 82.675781 353.664062 83.355469 353.976562 84.066406 353.976562 L 277.136719 353.976562 C 277.851562 353.976562 278.53125 353.664062 278.992188 353.117188 C 279.457031 352.574219 279.65625 351.855469 279.542969 351.148438 C 270.390625 295.441406 246.472656 266.21875 224.15625 250.890625 C 225.3125 249.824219 226.46875 248.398438 227.320312 246.507812 C 227.933594 245.144531 228.265625 243.816406 228.414062 242.574219 C 232.730469 245.664062 239.179688 248.953125 247.246094 249.171875 C 251.496094 249.304688 255.707031 248.558594 259.78125 247.003906 C 260.644531 246.675781 261.25 245.886719 261.339844 244.96875 C 261.429688 244.046875 260.992188 243.15625 260.210938 242.667969 C 257.953125 241.257812 255.953125 239.507812 254.261719 237.464844 C 253.480469 236.511719 252.769531 235.511719 252.132812 234.460938 C 257.601562 235.839844 264.582031 236.507812 272.355469 234.707031 C 277.6875 233.46875 282.699219 231.210938 287.257812 228.003906 C 287.972656 227.496094 288.367188 226.644531 288.277344 225.769531 C 288.195312 224.898438 287.644531 224.140625 286.839844 223.785156 Z M 274.25 349.105469 L 236.980469 349.105469 L 235.066406 300.871094 C 235.011719 299.527344 233.914062 298.511719 232.535156 298.539062 C 231.1875 298.589844 230.144531 299.722656 230.199219 301.066406 L 232.105469 349.109375 L 129.105469 349.109375 L 131.011719 301.066406 C 131.066406 299.722656 130.019531 298.589844 128.675781 298.539062 C 127.308594 298.515625 126.199219 299.53125 126.144531 300.871094 L 124.230469 349.105469 L 86.960938 349.105469 C 96.296875 296.144531 119.414062 268.613281 140.710938 254.300781 C 140.957031 254.191406 141.1875 254.050781 141.390625 253.863281 C 144.070312 252.097656 146.714844 250.53125 149.300781 249.15625 C 148.898438 252.691406 149.121094 257.292969 151.492188 262 C 155.332031 269.628906 163.320312 274.496094 172.339844 274.695312 C 172.359375 274.695312 172.375 274.695312 172.390625 274.695312 L 188.875 274.695312 C 197.894531 274.496094 205.878906 269.628906 209.71875 262 C 212.085938 257.296875 212.308594 252.691406 211.910156 249.152344 C 213.957031 250.242188 216.042969 251.445312 218.152344 252.78125 C 218.261719 252.875 218.382812 252.933594 218.503906 253.007812 C 240.339844 266.921875 264.621094 294.484375 274.25 349.105469 Z M 117.132812 151.425781 C 118.34375 162.265625 120.242188 172.023438 122.640625 179.976562 C 118.339844 179.078125 114.441406 175.28125 112.410156 169.722656 C 110.019531 163.199219 112.3125 155.15625 117.132812 151.425781 Z M 121.617188 147.464844 C 121.566406 140.929688 122.910156 134.996094 125.621094 129.832031 C 128.570312 124.210938 132.308594 121.148438 136.265625 117.90625 C 139.566406 115.203125 142.976562 112.40625 146.234375 108.023438 C 150.523438 102.253906 153.335938 95.210938 154.621094 87.027344 C 158.214844 92.859375 162.535156 97.964844 167.527344 102.269531 C 176.402344 109.917969 184.730469 112.773438 193.550781 115.800781 C 201.136719 118.40625 208.980469 121.101562 217.757812 127.191406 C 225.671875 132.6875 232.699219 139.90625 238.671875 148.632812 C 236.78125 167.199219 232.742188 183.144531 227.8125 191.390625 C 221.199219 202.464844 202.472656 220.03125 180.398438 220.03125 L 180.011719 220.03125 C 157.9375 220.03125 139.210938 202.464844 132.597656 191.390625 C 127.558594 182.960938 123.457031 166.542969 121.617188 147.464844 Z M 243.308594 151.140625 C 249.136719 153.941406 251.609375 162.097656 248.816406 169.726562 C 246.800781 175.226562 242.429688 179.144531 237.777344 179.941406 C 240.191406 171.925781 242.097656 162.078125 243.308594 151.140625 Z M 206.449219 246.460938 C 207.222656 249.1875 208.066406 254.453125 205.367188 259.8125 C 202.777344 264.957031 197.746094 268.488281 191.871094 269.511719 L 197.339844 242.875 C 200.1875 243.824219 203.25 245.011719 206.449219 246.460938 Z M 180.011719 224.894531 L 180.398438 224.894531 C 184.769531 224.894531 189.011719 224.253906 193.078125 223.160156 L 193.078125 239.421875 L 186.832031 269.832031 L 174.378906 269.832031 L 168.144531 239.492188 L 168.144531 223.347656 C 171.96875 224.3125 175.929688 224.894531 180.011719 224.894531 Z M 163.867188 242.875 L 169.335938 269.503906 C 163.441406 268.472656 158.425781 264.945312 155.84375 259.8125 C 153.121094 254.402344 154.070312 248.96875 154.765625 246.460938 C 157.960938 245.011719 161.023438 243.824219 163.867188 242.875 Z M 271.25 229.964844 C 261.8125 232.160156 253.664062 230.214844 248.488281 228.195312 C 247.605469 227.855469 246.601562 228.046875 245.914062 228.707031 C 245.230469 229.359375 244.992188 230.351562 245.296875 231.25 C 246.46875 234.664062 248.21875 237.792969 250.503906 240.558594 C 251.453125 241.703125 252.480469 242.769531 253.582031 243.757812 C 251.53125 244.175781 249.445312 244.351562 247.378906 244.304688 C 237.035156 244.027344 229.71875 237.753906 227.058594 235.070312 C 226.246094 234.257812 224.976562 234.117188 224.011719 234.738281 C 223.046875 235.359375 222.644531 236.570312 223.050781 237.644531 C 223.363281 238.46875 224.273438 241.402344 222.875 244.511719 C 222.074219 246.289062 220.835938 247.410156 219.847656 248.101562 C 211.953125 243.238281 204.40625 240.042969 197.949219 237.960938 L 197.949219 221.597656 C 214.007812 215.632812 226.660156 202.8125 231.996094 193.882812 C 233.464844 191.429688 234.839844 188.429688 236.109375 184.960938 C 243.457031 184.941406 250.386719 179.59375 253.390625 171.394531 C 257.175781 161.058594 253.1875 149.824219 244.5 146.351562 C 243.921875 146.121094 243.289062 145.9375 242.617188 145.777344 C 236.324219 136.609375 228.90625 129.003906 220.539062 123.191406 C 211.203125 116.714844 203.035156 113.910156 195.128906 111.195312 C 186.769531 108.324219 178.871094 105.613281 170.707031 98.582031 C 164.285156 93.046875 159.050781 86.050781 155.160156 77.785156 C 154.679688 76.769531 153.5625 76.207031 152.46875 76.4375 C 151.367188 76.664062 150.5625 77.609375 150.519531 78.730469 C 150.128906 89.453125 147.371094 98.332031 142.324219 105.121094 C 139.421875 109.023438 136.246094 111.625 133.171875 114.140625 C 129.011719 117.546875 124.714844 121.074219 121.304688 127.574219 C 118.4375 133.042969 116.925781 139.226562 116.769531 145.96875 C 108.566406 150.046875 104.316406 161.789062 107.832031 171.390625 C 110.855469 179.652344 117.320312 184.910156 124.324219 185.039062 C 125.585938 188.46875 126.953125 191.441406 128.410156 193.878906 C 133.835938 202.957031 146.824219 216.054688 163.269531 221.882812 L 163.269531 237.949219 C 156.335938 240.1875 148.144531 243.695312 139.617188 249.1875 C 138.199219 248.21875 136.265625 246.480469 135.09375 243.6875 C 133.503906 239.902344 134.265625 236.457031 134.664062 235.152344 C 135.011719 234.027344 134.5 232.8125 133.449219 232.277344 C 132.402344 231.738281 131.117188 232.027344 130.402344 232.960938 C 128.347656 235.644531 124.753906 239.339844 119.289062 241.6875 C 113.699219 244.09375 108.316406 244.136719 104.347656 243.589844 C 105.707031 242.308594 107.042969 240.660156 108.085938 238.566406 C 109.273438 236.1875 109.925781 233.5 109.976562 230.792969 C 109.988281 229.96875 109.589844 229.195312 108.902344 228.734375 C 108.222656 228.273438 107.351562 228.1875 106.59375 228.507812 C 102.84375 230.089844 96.855469 231.722656 89.632812 230.515625 C 84.171875 229.609375 79.878906 227.347656 76.847656 225.191406 C 82.941406 223.417969 87.011719 220.476562 88.976562 216.410156 C 91.035156 212.148438 90.039062 208.132812 89.078125 204.25 C 88.34375 201.289062 87.589844 198.226562 87.925781 194.617188 C 88.292969 190.667969 89.871094 186.882812 92.75 183.046875 C 97.441406 176.800781 98.695312 168.6875 96.101562 161.335938 C 93.574219 154.167969 92.855469 146.816406 93.96875 139.488281 C 95.613281 128.65625 100.859375 120.835938 104.972656 116.183594 C 107.839844 112.941406 109.714844 108.949219 110.398438 104.632812 C 112.867188 88.988281 119.925781 82.390625 123.714844 78.847656 C 124.101562 78.488281 124.449219 78.164062 124.753906 77.863281 C 130.144531 72.601562 138.21875 69.839844 148.75 69.65625 C 149.382812 69.644531 149.984375 69.390625 150.429688 68.945312 C 157.753906 61.617188 169.609375 52.785156 184.46875 52.324219 C 211.050781 51.570312 236.589844 76.535156 245.351562 111.839844 C 246.335938 115.804688 248.457031 119.4375 251.492188 122.335938 C 255.351562 126.027344 260.347656 132.34375 262.246094 141.484375 C 263.414062 147.113281 263.222656 152.847656 261.6875 158.527344 C 260.214844 163.964844 261.132812 170.042969 264.203125 175.207031 C 267.140625 180.148438 268.820312 185.1875 269.199219 190.183594 C 269.492188 194.039062 269.109375 197.21875 268.742188 200.292969 C 268.179688 204.960938 267.652344 209.371094 269.855469 214.542969 C 271.855469 219.230469 275.566406 223.152344 280.917969 226.234375 C 277.867188 227.929688 274.628906 229.183594 271.25 229.964844 Z M 271.25 229.964844 " fill-opacity="1" fill-rule="nonzero"/></g></svg>