<svg xmlns="http://www.w3.org/2000/svg" xmlns:xlink="http://www.w3.org/1999/xlink" width="500" zoomAndPan="magnify" viewBox="0 0 375 374.999991" height="500" preserveAspectRatio="xMidYMid meet" version="1.0"><defs><clipPath id="06c1ea3a20"><path d="M 19.425781 115 L 179.925781 115 L 179.925781 170 L 19.425781 170 Z M 19.425781 115 " clip-rule="nonzero"/></clipPath><clipPath id="4d76084bc7"><path d="M 21 190 L 147 190 L 147 234.519531 L 21 234.519531 Z M 21 190 " clip-rule="nonzero"/></clipPath><clipPath id="03dcfb544f"><path d="M 195.621094 115 L 355.933594 115 L 355.933594 170 L 195.621094 170 Z M 195.621094 115 " clip-rule="nonzero"/></clipPath><clipPath id="5a64b3771a"><path d="M 228 190 L 355 190 L 355 234.519531 L 228 234.519531 Z M 228 190 " clip-rule="nonzero"/></clipPath></defs><path fill="#4b99f5" d="M 122.09375 194 C 122.09375 206.886719 111.195312 217.332031 97.753906 217.332031 C 84.308594 217.332031 73.414062 206.886719 73.414062 194 C 73.414062 181.113281 84.308594 170.664062 97.753906 170.664062 C 111.195312 170.664062 122.09375 181.113281 122.09375 194 " fill-opacity="1" fill-rule="nonzero"/><path fill="#004aad" d="M 79.136719 188.109375 C 78.925781 188.769531 78.753906 189.441406 78.617188 190.125 L 84.757812 189.132812 Z M 82.890625 206.644531 C 83.59375 207.472656 84.363281 208.238281 85.195312 208.941406 C 87.605469 205.644531 90.195312 202.136719 90.269531 202.035156 C 90.167969 202.097656 86.011719 204.652344 82.890625 206.644531 Z M 83.117188 194 L 86.871094 191.125 L 78.273438 192.671875 C 78.246094 193.109375 78.226562 193.550781 78.226562 194 C 78.226562 195.179688 78.332031 196.335938 78.535156 197.457031 L 87.339844 193.472656 Z M 83.351562 202.96875 L 86.285156 197.339844 L 79.886719 201.871094 C 80.558594 203.390625 81.417969 204.808594 82.441406 206.09375 C 84.875 203.644531 87.945312 200.488281 88.042969 200.390625 Z M 81.34375 183.425781 C 80.523438 184.699219 79.84375 186.070312 79.332031 187.523438 L 88.78125 187.609375 Z M 86.257812 209.769531 C 86.695312 210.089844 87.144531 210.394531 87.609375 210.675781 L 88.78125 207.308594 C 88.78125 207.308594 87.652344 208.414062 86.257812 209.769531 Z M 87.320312 177.5 C 86.671875 177.910156 86.050781 178.359375 85.457031 178.839844 L 89.332031 182.800781 Z M 82.957031 181.269531 C 82.550781 181.746094 82.164062 182.238281 81.800781 182.75 L 90.386719 185.613281 Z M 90.019531 211.925781 C 90.714844 212.226562 91.429688 212.488281 92.160156 212.707031 C 92.390625 208.835938 92.734375 203.789062 92.734375 203.789062 Z M 94.140625 206.71875 C 94.140625 206.71875 93.398438 209.945312 92.78125 212.882812 C 93.675781 213.117188 94.597656 213.292969 95.539062 213.398438 Z M 96.367188 183.738281 L 91.472656 175.511719 C 90.257812 175.921875 89.09375 176.453125 88 177.085938 L 92.382812 184.207031 L 90.859375 179.28125 Z M 96.492188 174.515625 C 95.851562 174.554688 95.21875 174.625 94.597656 174.730469 L 97.015625 181.746094 Z M 97.753906 204.960938 C 97.578125 204.726562 97.011719 209.898438 96.625 213.488281 C 96.996094 213.511719 97.375 213.523438 97.753906 213.523438 C 97.957031 213.523438 98.160156 213.519531 98.363281 213.511719 C 98.207031 210.335938 97.929688 205.207031 97.753906 204.960938 Z M 97.753906 174.472656 C 97.570312 174.472656 97.390625 174.476562 97.210938 174.484375 L 99.769531 183.269531 L 100.171875 174.625 C 99.378906 174.527344 98.570312 174.472656 97.753906 174.472656 Z M 100.003906 204.953125 L 101.671875 213.128906 C 102.09375 213.039062 102.507812 212.941406 102.917969 212.828125 Z M 102.9375 208.128906 L 103.359375 212.703125 C 104.117188 212.472656 104.855469 212.203125 105.574219 211.886719 Z M 109.121094 178.136719 C 107.542969 177 105.792969 176.097656 103.914062 175.46875 L 100.824219 183.738281 L 105.515625 178.929688 L 102.9375 185.027344 Z M 109.421875 178.355469 L 105.398438 186.203125 L 111.101562 179.761719 C 110.566406 179.261719 110.007812 178.792969 109.421875 178.355469 Z M 104.226562 201.328125 L 108.917969 207.777344 L 103.402344 203.671875 L 108.429688 210.335938 C 109.558594 209.597656 110.609375 208.738281 111.5625 207.785156 Z M 108.332031 201.332031 L 111.980469 207.351562 C 112.464844 206.84375 112.914062 206.304688 113.335938 205.746094 C 111.652344 204.425781 108.457031 201.453125 108.332031 201.332031 Z M 113.5 182.46875 C 111.148438 184.214844 106.101562 187.140625 106.101562 187.140625 L 115.28125 185.402344 C 114.773438 184.371094 114.175781 183.386719 113.5 182.46875 Z M 107.273438 197.925781 L 115.089844 202.972656 C 115.4375 202.300781 115.75 201.609375 116.015625 200.898438 Z M 116.789062 189.65625 C 116.492188 188.339844 116.054688 187.074219 115.507812 185.875 L 107.976562 189.484375 L 113.136719 189.484375 L 107.976562 192.765625 Z M 107.863281 195.699219 L 116.113281 200.632812 C 116.550781 199.433594 116.871094 198.179688 117.0625 196.882812 Z M 117.269531 193.480469 L 114.308594 194.527344 L 117.179688 195.960938 C 117.242188 195.316406 117.277344 194.660156 117.277344 194 C 117.277344 193.824219 117.273438 193.652344 117.269531 193.480469 " fill-opacity="1" fill-rule="nonzero"/><path fill="#100f0d" d="M 152.324219 220.355469 C 146.007812 223.980469 148.960938 204.097656 138.992188 193.070312 C 99.121094 148.96875 43.539062 198.105469 43.539062 198.105469 C 43.539062 198.105469 34.179688 199.414062 24.109375 191.660156 C 24.109375 191.660156 29.046875 195.210938 37.601562 195.585938 C 37.601562 195.585938 30.050781 194.277344 23.101562 185.417969 C 23.101562 185.417969 30.550781 192.46875 37.5 192.96875 C 37.5 192.96875 27.230469 189.914062 23.101562 179.445312 C 23.101562 179.445312 26.625 186.492188 36.761719 191.191406 C 36.761719 191.191406 33.136719 189.378906 30.382812 185.214844 C 30.382812 185.214844 34.144531 188.507812 36.292969 188.574219 C 36.292969 188.574219 26.960938 183.203125 23.875 172.664062 C 23.875 172.664062 28.503906 182.195312 37.769531 187.164062 C 37.769531 187.164062 32.867188 183.269531 31.660156 179.710938 C 31.660156 179.710938 34.007812 183.671875 39.78125 186.828125 C 39.78125 186.828125 29.3125 178.167969 28.503906 167.898438 C 28.503906 167.898438 31.792969 178.972656 42.667969 184.546875 C 42.667969 184.546875 37.703125 181.054688 35.820312 175.015625 C 35.820312 175.015625 39.042969 181.390625 45.824219 184.210938 C 45.824219 184.210938 36.15625 176.355469 33.671875 163.199219 C 33.671875 163.199219 37.769531 175.28125 47.636719 180.988281 C 47.636719 180.988281 42.9375 175.953125 41.929688 170.179688 C 41.929688 170.179688 44.949219 177.96875 52.871094 181.257812 C 52.871094 181.257812 40.722656 168.636719 39.515625 159.105469 C 39.515625 159.105469 44.28125 171.054688 55.960938 178.773438 C 55.960938 178.773438 48.039062 170.652344 46.898438 163.335938 C 46.898438 163.335938 50.589844 171.457031 57.035156 175.015625 C 57.035156 175.015625 48.777344 164.609375 47.570312 154.539062 C 47.570312 154.539062 52.199219 167.898438 62.203125 175.347656 C 62.203125 175.347656 57.503906 168.769531 56.832031 161.453125 C 56.832031 161.453125 60.457031 172.53125 68.511719 176.085938 C 68.511719 176.085938 60.457031 168.570312 58.039062 152.191406 C 58.039062 152.191406 61.730469 165.4375 69.316406 171.097656 C 69.316406 171.097656 63.476562 159.375 64.484375 147.761719 C 64.484375 147.761719 65.828125 161.589844 73.480469 167.5625 C 73.480469 167.5625 70.457031 162.597656 71.734375 155.144531 C 71.734375 155.144531 72.472656 165.414062 81.332031 170.179688 C 81.332031 170.179688 73.882812 160.515625 75.894531 148.296875 C 75.894531 148.296875 76.691406 160.382812 85.832031 167.628906 C 85.832031 167.628906 83.515625 162.964844 84.320312 156.621094 C 84.320312 156.621094 84.019531 163.367188 90.058594 168.703125 C 90.058594 168.703125 90.855469 162.765625 86.832031 152.191406 C 86.832031 152.191406 91.570312 158.535156 93.28125 168.601562 C 93.28125 168.601562 95.597656 157.832031 91.066406 145.042969 C 91.066406 145.042969 97.308594 156.117188 97.8125 167.898438 C 97.8125 167.898438 100.730469 164.476562 100.730469 156.722656 C 100.730469 156.722656 103.148438 164.476562 101.234375 170.417969 C 101.234375 170.417969 106.472656 163.570312 105.867188 146.050781 C 105.867188 146.050781 108.183594 158.234375 106.472656 167.796875 C 106.472656 167.796875 110.195312 163.570312 112.007812 153.601562 C 112.007812 153.601562 113.441406 164.726562 110.5 170.011719 C 110.5 170.011719 117.144531 167.597656 120.367188 153.296875 C 120.367188 153.296875 119.863281 164.230469 115.332031 171.097656 C 115.332031 171.097656 120.566406 168.300781 122.78125 162.964844 C 122.78125 162.964844 120.566406 170.214844 117.648438 172.328125 C 117.648438 172.328125 128.121094 168.804688 131.339844 153.398438 C 131.339844 153.398438 131.242188 166.890625 122.378906 174.644531 C 122.378906 174.644531 128.421875 174.847656 132.347656 167.695312 C 132.347656 167.695312 131.339844 173.539062 125.703125 177.164062 C 125.703125 177.164062 130.636719 177.363281 137.886719 170.515625 C 137.886719 170.515625 133.859375 177.765625 130.335938 179.378906 C 130.335938 179.378906 135.367188 180.886719 140.804688 177.5625 C 140.804688 177.5625 137.640625 181.964844 132.851562 182.699219 C 132.851562 182.699219 138.085938 186.324219 144.328125 182.699219 C 144.328125 182.699219 142.71875 186.425781 137.082031 187.332031 C 137.082031 187.332031 139.800781 189.144531 147.753906 188.339844 C 147.753906 188.339844 142.316406 190.957031 139.597656 190.25 C 139.597656 190.25 142.921875 193.273438 149.667969 193.171875 C 149.667969 193.171875 146.34375 194.277344 143.625 194.277344 C 140.90625 194.277344 161.625 215.019531 152.324219 220.355469 " fill-opacity="1" fill-rule="nonzero"/><path fill="#100f0d" d="M 151.078125 197.269531 C 151.078125 197.269531 150.867188 196.820312 150.417969 196.007812 C 149.976562 195.191406 149.28125 194.023438 148.347656 192.566406 C 147.410156 191.117188 146.207031 189.394531 144.710938 187.511719 C 143.210938 185.636719 141.425781 183.59375 139.339844 181.507812 C 138.296875 180.464844 137.175781 179.410156 135.972656 178.375 C 135.378906 177.847656 134.753906 177.339844 134.125 176.8125 C 133.480469 176.308594 132.835938 175.78125 132.15625 175.285156 C 129.464844 173.253906 126.445312 171.359375 123.195312 169.652344 C 121.566406 168.804688 119.871094 168.03125 118.128906 167.300781 C 117.6875 167.128906 117.25 166.957031 116.804688 166.78125 C 116.363281 166.609375 115.921875 166.4375 115.46875 166.285156 C 115.019531 166.125 114.566406 165.964844 114.117188 165.804688 C 113.660156 165.660156 113.203125 165.511719 112.742188 165.367188 C 109.074219 164.195312 105.226562 163.390625 101.347656 162.875 C 97.46875 162.339844 93.539062 162.144531 89.679688 162.222656 C 85.820312 162.304688 82.019531 162.605469 78.367188 163.117188 C 74.714844 163.621094 71.214844 164.324219 67.917969 165.09375 C 64.617188 165.859375 61.539062 166.753906 58.707031 167.609375 C 55.882812 168.507812 53.308594 169.375 51.042969 170.199219 C 49.917969 170.621094 48.859375 171.015625 47.882812 171.382812 C 46.914062 171.769531 46.027344 172.125 45.222656 172.449219 C 43.613281 173.082031 42.367188 173.636719 41.507812 173.988281 C 40.652344 174.34375 40.195312 174.535156 40.195312 174.535156 C 40.195312 174.535156 40.636719 174.316406 41.472656 173.90625 C 41.886719 173.703125 42.402344 173.449219 43.003906 173.148438 C 43.308594 173 43.632812 172.839844 43.976562 172.671875 C 44.332031 172.511719 44.703125 172.339844 45.097656 172.160156 C 45.886719 171.800781 46.761719 171.402344 47.714844 170.96875 C 48.675781 170.558594 49.714844 170.113281 50.828125 169.640625 C 51.9375 169.160156 53.144531 168.710938 54.402344 168.203125 C 55.03125 167.941406 55.6875 167.710938 56.359375 167.472656 C 57.027344 167.230469 57.714844 166.984375 58.417969 166.730469 C 61.238281 165.773438 64.3125 164.765625 67.628906 163.925781 C 70.9375 163.070312 74.464844 162.265625 78.164062 161.714844 C 81.859375 161.15625 85.714844 160.75 89.648438 160.667969 C 93.578125 160.570312 97.589844 160.75 101.558594 161.28125 C 105.523438 161.824219 109.457031 162.667969 113.210938 163.882812 C 115.097656 164.460938 116.921875 165.183594 118.707031 165.921875 C 120.476562 166.691406 122.203125 167.511719 123.855469 168.402344 C 127.164062 170.179688 130.191406 172.203125 132.886719 174.335938 C 135.59375 176.449219 137.957031 178.6875 140 180.867188 C 142.054688 183.042969 143.761719 185.191406 145.1875 187.152344 C 146.605469 189.117188 147.738281 190.902344 148.613281 192.402344 C 149.492188 193.902344 150.097656 195.128906 150.496094 195.96875 C 150.894531 196.804688 151.078125 197.269531 151.078125 197.269531 " fill-opacity="1" fill-rule="nonzero"/><path fill="#100f0d" d="M 110.507812 194 C 110.507812 201.042969 104.796875 206.753906 97.753906 206.753906 C 90.707031 206.753906 84.996094 201.042969 84.996094 194 C 84.996094 186.953125 90.707031 181.242188 97.753906 181.242188 C 104.796875 181.242188 110.507812 186.953125 110.507812 194 " fill-opacity="1" fill-rule="nonzero"/><path fill="#ffffff" d="M 112.511719 187.140625 C 112.511719 190.03125 110.164062 192.375 107.273438 192.375 C 104.382812 192.375 102.039062 190.03125 102.039062 187.140625 C 102.039062 184.246094 104.382812 181.902344 107.273438 181.902344 C 110.164062 181.902344 112.511719 184.246094 112.511719 187.140625 " fill-opacity="1" fill-rule="nonzero"/><path fill="#ffffff" d="M 89.277344 194.9375 C 89.277344 196.261719 88.199219 197.339844 86.871094 197.339844 C 85.542969 197.339844 84.46875 196.261719 84.46875 194.9375 C 84.46875 193.609375 85.542969 192.53125 86.871094 192.53125 C 88.199219 192.53125 89.277344 193.609375 89.277344 194.9375 " fill-opacity="1" fill-rule="nonzero"/><g clip-path="url(#06c1ea3a20)"><path fill="#100f0d" d="M 179.707031 159.695312 C 179.6875 160.621094 179.5625 161.539062 179.363281 162.433594 C 179.25 162.925781 179.113281 163.414062 178.957031 163.886719 C 178.878906 164.140625 178.789062 164.394531 178.695312 164.640625 C 178.601562 164.898438 178.5 165.152344 178.394531 165.402344 C 178.289062 165.644531 178.1875 165.882812 178.078125 166.117188 C 176.816406 163.355469 174.089844 158.246094 169.1875 152.625 C 170.019531 153.734375 175.539062 161.222656 176.585938 166.878906 C 176.585938 166.878906 174.65625 162.632812 171.414062 158.96875 C 171.847656 159.574219 175.390625 164.601562 175.515625 168.5 C 175.515625 168.5 170.71875 157.667969 165.210938 151.710938 C 165.402344 151.96875 171.367188 160.191406 173.273438 167.882812 C 173.085938 167.46875 170.089844 160.765625 166.050781 156.285156 C 166.289062 156.628906 170.121094 162.210938 170.742188 165.984375 C 170.742188 165.984375 166.367188 157.546875 160.539062 151.273438 C 160.539062 151.273438 167.546875 160.425781 169.71875 167.613281 C 169.542969 167.304688 166.707031 162.304688 162.558594 157.945312 C 162.734375 158.175781 168.433594 165.550781 168.6875 169.835938 C 168.6875 169.835938 166.023438 163.15625 156.660156 152.84375 C 157.082031 153.367188 163.863281 161.828125 165.464844 167.117188 C 165.289062 166.855469 159.628906 158.496094 152.46875 152.050781 C 153.011719 152.632812 160.339844 160.484375 162.25 165.941406 C 162.207031 165.910156 162.160156 165.882812 162.117188 165.851562 C 161.394531 165.390625 160.628906 164.910156 159.824219 164.410156 C 158.988281 163.894531 158.101562 163.355469 157.167969 162.800781 C 157.167969 162.800781 157.167969 162.800781 157.164062 162.792969 C 156.476562 162.382812 155.765625 161.964844 155.023438 161.535156 C 143.496094 154.835938 125.484375 145.773438 98.578125 135.425781 C 41.308594 113.394531 19.453125 149.472656 19.453125 149.472656 C 27.789062 123.398438 55.765625 113.011719 78.757812 115.851562 C 98.359375 118.277344 117.613281 124.425781 136.136719 131.496094 C 148.605469 136.253906 162.363281 141.0625 173.523438 148.910156 C 177.894531 151.988281 179.53125 155.492188 179.695312 158.875 C 179.707031 159.148438 179.710938 159.421875 179.707031 159.695312 " fill-opacity="1" fill-rule="nonzero"/></g><g clip-path="url(#4d76084bc7)"><path fill="#100f0d" d="M 112.648438 225.21875 C 115.523438 229.832031 115.6875 233.328125 115.6875 233.328125 C 114.800781 228.78125 111.304688 225.960938 111.304688 225.960938 C 110.820312 232.160156 109.074219 234.324219 108.96875 234.453125 C 110.558594 230.265625 109.859375 226.902344 109.417969 225.484375 C 106.238281 225.6875 103.273438 225.695312 100.515625 225.558594 C 99.570312 233.472656 97.980469 234.179688 97.875 234.21875 C 99.386719 230.839844 98.984375 227.171875 98.660156 225.445312 C 95.867188 225.234375 93.316406 224.882812 91.003906 224.433594 C 90.761719 230.417969 88.828125 232.3125 88.707031 232.425781 C 90.339844 228.832031 89.949219 225.714844 89.554688 224.136719 C 89.042969 224.03125 88.542969 223.914062 88.058594 223.796875 C 83.179688 227.449219 81.917969 234.117188 81.917969 234.117188 C 81.800781 229.964844 84.929688 224.441406 85.691406 223.164062 C 85.570312 223.128906 85.453125 223.097656 85.335938 223.0625 C 79.453125 225.078125 74.941406 231.90625 74.664062 232.332031 C 77.09375 226.910156 80.6875 223.785156 82.882812 222.269531 C 79.925781 221.234375 77.722656 220.152344 76.28125 219.355469 C 71.289062 221.648438 69.902344 230.828125 69.902344 230.828125 C 69.941406 223.972656 74.253906 218.097656 74.253906 218.097656 C 64.945312 213.867188 61.246094 228.078125 61.246094 228.078125 C 61.214844 221.617188 67.421875 215.53125 67.421875 215.53125 C 56.988281 215.976562 52.355469 225.140625 52.078125 225.707031 C 54.867188 216.824219 63.125 213.996094 63.125 213.996094 C 49.394531 209.101562 44.960938 224.277344 44.960938 224.277344 C 45.441406 214.257812 56.683594 209.132812 56.683594 209.132812 C 47.667969 202.929688 38.34375 217.472656 38.101562 217.84375 C 42.433594 207.09375 50.578125 205.289062 50.578125 205.289062 C 39.980469 203.746094 30.683594 210.285156 30.171875 210.652344 C 36.296875 204.34375 45.925781 201.785156 45.925781 201.785156 C 33.542969 198.359375 21.597656 205.5 21.003906 205.863281 C 30.882812 198.195312 40.535156 198.832031 40.671875 198.550781 C 43.839844 191.839844 51.765625 190.671875 51.765625 190.671875 C 55.695312 195.449219 62.875 202.339844 62.875 202.339844 C 91.511719 232.832031 144.472656 216.644531 146.507812 216.007812 C 146.519531 216.003906 146.53125 216 146.542969 215.996094 C 133.507812 221.574219 122.195312 224.261719 112.648438 225.21875 " fill-opacity="1" fill-rule="nonzero"/></g><path fill="#4b99f5" d="M 253.265625 194 C 253.265625 206.886719 264.164062 217.332031 277.605469 217.332031 C 291.046875 217.332031 301.945312 206.886719 301.945312 194 C 301.945312 181.113281 291.046875 170.664062 277.605469 170.664062 C 264.164062 170.664062 253.265625 181.113281 253.265625 194 " fill-opacity="1" fill-rule="nonzero"/><path fill="#004aad" d="M 296.21875 188.109375 C 296.429688 188.769531 296.605469 189.441406 296.742188 190.125 L 290.597656 189.132812 Z M 292.46875 206.644531 C 291.765625 207.472656 290.992188 208.238281 290.160156 208.941406 C 287.753906 205.644531 285.164062 202.136719 285.085938 202.035156 C 285.191406 202.097656 289.347656 204.652344 292.46875 206.644531 Z M 292.238281 194 L 288.488281 191.125 L 297.082031 192.671875 C 297.113281 193.109375 297.128906 193.550781 297.128906 194 C 297.128906 195.179688 297.023438 196.335938 296.820312 197.457031 L 288.019531 193.472656 Z M 292.003906 202.96875 L 289.074219 197.339844 L 295.46875 201.871094 C 294.796875 203.390625 293.9375 204.808594 292.917969 206.09375 C 290.480469 203.644531 287.414062 200.488281 287.316406 200.390625 Z M 294.015625 183.425781 C 294.835938 184.699219 295.511719 186.070312 296.023438 187.523438 L 286.574219 187.609375 Z M 289.101562 209.769531 C 288.660156 210.089844 288.210938 210.394531 287.746094 210.675781 L 286.574219 207.308594 C 286.574219 207.308594 287.703125 208.414062 289.101562 209.769531 Z M 288.039062 177.5 C 288.683594 177.910156 289.304688 178.359375 289.898438 178.839844 L 286.023438 182.800781 Z M 292.398438 181.269531 C 292.808594 181.746094 293.195312 182.238281 293.554688 182.75 L 284.96875 185.613281 Z M 285.335938 211.925781 C 284.644531 212.226562 283.929688 212.488281 283.195312 212.707031 C 282.96875 208.835938 282.625 203.789062 282.625 203.789062 Z M 281.214844 206.71875 C 281.214844 206.71875 281.960938 209.945312 282.578125 212.882812 C 281.679688 213.117188 280.761719 213.292969 279.820312 213.398438 Z M 278.988281 183.738281 L 283.882812 175.511719 C 285.101562 175.921875 286.261719 176.453125 287.355469 177.085938 L 282.976562 184.207031 L 284.5 179.28125 Z M 278.867188 174.515625 C 279.507812 174.554688 280.136719 174.625 280.757812 174.730469 L 278.34375 181.746094 Z M 277.605469 204.960938 C 277.777344 204.726562 278.34375 209.898438 278.734375 213.488281 C 278.359375 213.511719 277.984375 213.523438 277.605469 213.523438 C 277.402344 213.523438 277.195312 213.519531 276.996094 213.511719 C 277.148438 210.335938 277.425781 205.207031 277.605469 204.960938 Z M 277.605469 174.472656 C 277.785156 174.472656 277.96875 174.476562 278.148438 174.484375 L 275.585938 183.269531 L 275.1875 174.625 C 275.980469 174.527344 276.785156 174.472656 277.605469 174.472656 Z M 275.351562 204.953125 L 273.683594 213.128906 C 273.261719 213.039062 272.847656 212.941406 272.4375 212.828125 Z M 272.421875 208.128906 L 272 212.703125 C 271.238281 212.472656 270.5 212.203125 269.78125 211.886719 Z M 266.238281 178.136719 C 267.816406 177 269.566406 176.097656 271.445312 175.46875 L 274.53125 183.738281 L 269.84375 178.929688 L 272.421875 185.027344 Z M 265.9375 178.355469 L 269.957031 186.203125 L 264.257812 179.761719 C 264.792969 179.261719 265.351562 178.792969 265.9375 178.355469 Z M 271.132812 201.328125 L 266.441406 207.777344 L 271.953125 203.671875 L 266.929688 210.335938 C 265.796875 209.597656 264.746094 208.738281 263.792969 207.785156 Z M 267.023438 201.332031 L 263.375 207.351562 C 262.894531 206.84375 262.441406 206.304688 262.019531 205.746094 C 263.707031 204.425781 266.898438 201.453125 267.023438 201.332031 Z M 261.859375 182.46875 C 264.207031 184.214844 269.253906 187.140625 269.253906 187.140625 L 260.078125 185.402344 C 260.582031 184.371094 261.183594 183.386719 261.859375 182.46875 Z M 268.082031 197.925781 L 260.269531 202.972656 C 259.917969 202.300781 259.609375 201.609375 259.339844 200.898438 Z M 258.566406 189.65625 C 258.867188 188.339844 259.300781 187.074219 259.851562 185.875 L 267.378906 189.484375 L 262.21875 189.484375 L 267.378906 192.765625 Z M 267.496094 195.699219 L 259.242188 200.632812 C 258.804688 199.433594 258.484375 198.179688 258.292969 196.882812 Z M 258.085938 193.480469 L 261.046875 194.527344 L 258.175781 195.960938 C 258.113281 195.316406 258.082031 194.660156 258.082031 194 C 258.082031 193.824219 258.082031 193.652344 258.085938 193.480469 " fill-opacity="1" fill-rule="nonzero"/><path fill="#100f0d" d="M 223.035156 220.355469 C 229.347656 223.980469 226.394531 204.097656 236.363281 193.070312 C 276.234375 148.96875 331.816406 198.105469 331.816406 198.105469 C 331.816406 198.105469 341.179688 199.414062 351.25 191.660156 C 351.25 191.660156 346.308594 195.210938 337.757812 195.585938 C 337.757812 195.585938 345.308594 194.277344 352.257812 185.417969 C 352.257812 185.417969 344.804688 192.46875 337.855469 192.96875 C 337.855469 192.96875 348.128906 189.914062 352.257812 179.445312 C 352.257812 179.445312 348.730469 186.492188 338.59375 191.191406 C 338.59375 191.191406 342.21875 189.378906 344.972656 185.214844 C 344.972656 185.214844 341.214844 188.507812 339.066406 188.574219 C 339.066406 188.574219 348.394531 183.203125 351.484375 172.664062 C 351.484375 172.664062 346.851562 182.195312 337.589844 187.164062 C 337.589844 187.164062 342.488281 183.269531 343.695312 179.710938 C 343.695312 179.710938 341.347656 183.671875 335.574219 186.828125 C 335.574219 186.828125 346.046875 178.167969 346.851562 167.898438 C 346.851562 167.898438 343.5625 178.972656 332.6875 184.546875 C 332.6875 184.546875 337.65625 181.054688 339.535156 175.015625 C 339.535156 175.015625 336.3125 181.390625 329.535156 184.210938 C 329.535156 184.210938 339.199219 176.355469 341.683594 163.199219 C 341.683594 163.199219 337.589844 175.28125 327.722656 180.988281 C 327.722656 180.988281 332.417969 175.953125 333.425781 170.179688 C 333.425781 170.179688 330.40625 177.96875 322.484375 181.257812 C 322.484375 181.257812 334.636719 168.636719 335.84375 159.105469 C 335.84375 159.105469 331.078125 171.054688 319.398438 178.773438 C 319.398438 178.773438 327.320312 170.652344 328.460938 163.335938 C 328.460938 163.335938 324.765625 171.457031 318.324219 175.015625 C 318.324219 175.015625 326.582031 164.609375 327.789062 154.539062 C 327.789062 154.539062 323.15625 167.898438 313.15625 175.347656 C 313.15625 175.347656 317.855469 168.769531 318.523438 161.453125 C 318.523438 161.453125 314.898438 172.53125 306.84375 176.085938 C 306.84375 176.085938 314.898438 168.570312 317.316406 152.191406 C 317.316406 152.191406 313.625 165.4375 306.039062 171.097656 C 306.039062 171.097656 311.878906 159.375 310.871094 147.761719 C 310.871094 147.761719 309.53125 161.589844 301.878906 167.5625 C 301.878906 167.5625 304.898438 162.597656 303.625 155.144531 C 303.625 155.144531 302.886719 165.414062 294.023438 170.179688 C 294.023438 170.179688 301.476562 160.515625 299.460938 148.296875 C 299.460938 148.296875 298.667969 160.382812 289.527344 167.628906 C 289.527344 167.628906 291.84375 162.964844 291.039062 156.621094 C 291.039062 156.621094 291.339844 163.367188 285.296875 168.703125 C 285.296875 168.703125 284.503906 162.765625 288.523438 152.191406 C 288.523438 152.191406 283.789062 158.535156 282.078125 168.601562 C 282.078125 168.601562 279.761719 157.832031 284.289062 145.042969 C 284.289062 145.042969 278.046875 156.117188 277.542969 167.898438 C 277.542969 167.898438 274.625 164.476562 274.625 156.722656 C 274.625 156.722656 272.207031 164.476562 274.121094 170.417969 C 274.121094 170.417969 268.886719 163.570312 269.488281 146.050781 C 269.488281 146.050781 267.175781 158.234375 268.886719 167.796875 C 268.886719 167.796875 265.160156 163.570312 263.347656 153.601562 C 263.347656 153.601562 261.914062 164.726562 264.859375 170.011719 C 264.859375 170.011719 258.210938 167.597656 254.992188 153.296875 C 254.992188 153.296875 255.496094 164.230469 260.023438 171.097656 C 260.023438 171.097656 254.789062 168.300781 252.574219 162.964844 C 252.574219 162.964844 254.789062 170.214844 257.710938 172.328125 C 257.710938 172.328125 247.238281 168.804688 244.015625 153.398438 C 244.015625 153.398438 244.117188 166.890625 252.976562 174.644531 C 252.976562 174.644531 246.933594 174.847656 243.007812 167.695312 C 243.007812 167.695312 244.015625 173.539062 249.652344 177.164062 C 249.652344 177.164062 244.71875 177.363281 237.472656 170.515625 C 237.472656 170.515625 241.5 177.765625 245.023438 179.378906 C 245.023438 179.378906 239.988281 180.886719 234.550781 177.5625 C 234.550781 177.5625 237.714844 181.964844 242.503906 182.699219 C 242.503906 182.699219 237.269531 186.324219 231.027344 182.699219 C 231.027344 182.699219 232.636719 186.425781 238.277344 187.332031 C 238.277344 187.332031 235.558594 189.144531 227.605469 188.339844 C 227.605469 188.339844 233.039062 190.957031 235.757812 190.25 C 235.757812 190.25 232.4375 193.273438 225.691406 193.171875 C 225.691406 193.171875 229.011719 194.277344 231.730469 194.277344 C 234.449219 194.277344 213.734375 215.019531 223.035156 220.355469 " fill-opacity="1" fill-rule="nonzero"/><path fill="#100f0d" d="M 224.28125 197.269531 C 224.28125 197.269531 224.492188 196.820312 224.9375 196.007812 C 225.378906 195.191406 226.078125 194.023438 227.007812 192.566406 C 227.949219 191.117188 229.152344 189.394531 230.648438 187.511719 C 232.144531 185.636719 233.933594 183.59375 236.019531 181.507812 C 237.0625 180.464844 238.179688 179.410156 239.382812 178.375 C 239.976562 177.847656 240.605469 177.339844 241.234375 176.8125 C 241.878906 176.308594 242.519531 175.78125 243.203125 175.285156 C 245.894531 173.253906 248.910156 171.359375 252.160156 169.652344 C 253.789062 168.804688 255.488281 168.03125 257.230469 167.300781 C 257.667969 167.128906 258.109375 166.957031 258.550781 166.78125 C 258.992188 166.609375 259.4375 166.4375 259.890625 166.285156 C 260.339844 166.125 260.789062 165.964844 261.242188 165.804688 C 261.699219 165.660156 262.15625 165.511719 262.613281 165.367188 C 266.285156 164.195312 270.128906 163.390625 274.011719 162.875 C 277.890625 162.339844 281.816406 162.144531 285.675781 162.222656 C 289.539062 162.304688 293.335938 162.605469 296.988281 163.117188 C 300.640625 163.621094 304.144531 164.324219 307.4375 165.09375 C 310.738281 165.859375 313.820312 166.753906 316.652344 167.609375 C 319.472656 168.507812 322.046875 169.375 324.3125 170.199219 C 325.441406 170.621094 326.496094 171.015625 327.472656 171.382812 C 328.441406 171.769531 329.332031 172.125 330.136719 172.449219 C 331.746094 173.082031 332.992188 173.636719 333.851562 173.988281 C 334.707031 174.34375 335.164062 174.535156 335.164062 174.535156 C 335.164062 174.535156 334.71875 174.316406 333.886719 173.90625 C 333.46875 173.703125 332.957031 173.449219 332.351562 173.148438 C 332.050781 173 331.722656 172.839844 331.378906 172.671875 C 331.027344 172.511719 330.652344 172.339844 330.257812 172.160156 C 329.46875 171.800781 328.59375 171.402344 327.644531 170.96875 C 326.679688 170.558594 325.640625 170.113281 324.53125 169.640625 C 323.417969 169.160156 322.214844 168.710938 320.953125 168.203125 C 320.328125 167.941406 319.671875 167.710938 319 167.472656 C 318.328125 167.230469 317.640625 166.984375 316.941406 166.730469 C 314.121094 165.773438 311.046875 164.765625 307.730469 163.925781 C 304.417969 163.070312 300.894531 162.265625 297.195312 161.714844 C 293.5 161.15625 289.644531 160.75 285.710938 160.667969 C 281.777344 160.570312 277.769531 160.75 273.796875 161.28125 C 269.832031 161.824219 265.898438 162.667969 262.144531 163.882812 C 260.257812 164.460938 258.4375 165.183594 256.652344 165.921875 C 254.878906 166.691406 253.152344 167.511719 251.5 168.402344 C 248.191406 170.179688 245.167969 172.203125 242.472656 174.335938 C 239.761719 176.449219 237.402344 178.6875 235.355469 180.867188 C 233.300781 183.042969 231.59375 185.191406 230.171875 187.152344 C 228.75 189.117188 227.621094 190.902344 226.742188 192.402344 C 225.863281 193.902344 225.257812 195.128906 224.859375 195.96875 C 224.460938 196.804688 224.28125 197.269531 224.28125 197.269531 " fill-opacity="1" fill-rule="nonzero"/><path fill="#100f0d" d="M 264.847656 194 C 264.847656 201.042969 270.558594 206.753906 277.605469 206.753906 C 284.648438 206.753906 290.359375 201.042969 290.359375 194 C 290.359375 186.953125 284.648438 181.242188 277.605469 181.242188 C 270.558594 181.242188 264.847656 186.953125 264.847656 194 " fill-opacity="1" fill-rule="nonzero"/><path fill="#ffffff" d="M 262.847656 187.140625 C 262.847656 190.03125 265.191406 192.375 268.082031 192.375 C 270.976562 192.375 273.320312 190.03125 273.320312 187.140625 C 273.320312 184.246094 270.976562 181.902344 268.082031 181.902344 C 265.191406 181.902344 262.847656 184.246094 262.847656 187.140625 " fill-opacity="1" fill-rule="nonzero"/><path fill="#ffffff" d="M 286.082031 194.9375 C 286.082031 196.261719 287.15625 197.339844 288.484375 197.339844 C 289.8125 197.339844 290.890625 196.261719 290.890625 194.9375 C 290.890625 193.609375 289.8125 192.53125 288.484375 192.53125 C 287.15625 192.53125 286.082031 193.609375 286.082031 194.9375 " fill-opacity="1" fill-rule="nonzero"/><g clip-path="url(#03dcfb544f)"><path fill="#100f0d" d="M 195.648438 159.695312 C 195.667969 160.621094 195.792969 161.539062 195.996094 162.433594 C 196.109375 162.925781 196.242188 163.414062 196.398438 163.886719 C 196.480469 164.140625 196.570312 164.394531 196.664062 164.640625 C 196.753906 164.898438 196.859375 165.152344 196.960938 165.402344 C 197.066406 165.644531 197.171875 165.882812 197.28125 166.117188 C 198.539062 163.355469 201.265625 158.246094 206.171875 152.625 C 205.335938 153.734375 199.820312 161.222656 198.773438 166.878906 C 198.773438 166.878906 200.699219 162.632812 203.945312 158.96875 C 203.507812 159.574219 199.964844 164.601562 199.84375 168.5 C 199.84375 168.5 204.636719 157.667969 210.144531 151.710938 C 209.957031 151.96875 203.992188 160.191406 202.085938 167.882812 C 202.273438 167.46875 205.269531 160.765625 209.308594 156.285156 C 209.066406 156.628906 205.234375 162.210938 204.613281 165.984375 C 204.613281 165.984375 208.988281 157.546875 214.820312 151.273438 C 214.820312 151.273438 207.8125 160.425781 205.640625 167.613281 C 205.8125 167.304688 208.648438 162.304688 212.800781 157.945312 C 212.625 158.175781 206.921875 165.550781 206.667969 169.835938 C 206.667969 169.835938 209.332031 163.15625 218.695312 152.84375 C 218.277344 153.367188 211.496094 161.828125 209.894531 167.117188 C 210.070312 166.855469 215.730469 158.496094 222.890625 152.050781 C 222.34375 152.632812 215.015625 160.484375 213.105469 165.941406 C 213.148438 165.910156 213.195312 165.882812 213.242188 165.851562 C 213.964844 165.390625 214.726562 164.910156 215.535156 164.410156 C 216.371094 163.894531 217.253906 163.355469 218.1875 162.800781 C 218.1875 162.800781 218.1875 162.800781 218.191406 162.792969 C 218.878906 162.382812 219.589844 161.964844 220.332031 161.535156 C 231.863281 154.835938 249.875 145.773438 276.78125 135.425781 C 334.046875 113.394531 355.902344 149.472656 355.902344 149.472656 C 347.566406 123.398438 319.589844 113.011719 296.597656 115.851562 C 276.996094 118.277344 257.742188 124.425781 239.21875 131.496094 C 226.75 136.253906 212.992188 141.0625 201.835938 148.910156 C 197.464844 151.988281 195.824219 155.492188 195.664062 158.875 C 195.648438 159.148438 195.648438 159.421875 195.648438 159.695312 " fill-opacity="1" fill-rule="nonzero"/></g><g clip-path="url(#5a64b3771a)"><path fill="#100f0d" d="M 262.710938 225.21875 C 259.835938 229.832031 259.667969 233.328125 259.667969 233.328125 C 260.554688 228.78125 264.050781 225.960938 264.050781 225.960938 C 264.539062 232.160156 266.28125 234.324219 266.390625 234.453125 C 264.800781 230.265625 265.496094 226.902344 265.9375 225.484375 C 269.117188 225.6875 272.085938 225.695312 274.839844 225.558594 C 275.785156 233.472656 277.378906 234.179688 277.480469 234.21875 C 275.972656 230.839844 276.375 227.171875 276.695312 225.445312 C 279.488281 225.234375 282.042969 224.882812 284.351562 224.433594 C 284.59375 230.417969 286.527344 232.3125 286.648438 232.425781 C 285.019531 228.832031 285.410156 225.714844 285.804688 224.136719 C 286.316406 224.03125 286.816406 223.914062 287.296875 223.796875 C 292.179688 227.449219 293.4375 234.117188 293.4375 234.117188 C 293.554688 229.964844 290.425781 224.441406 289.664062 223.164062 C 289.785156 223.128906 289.902344 223.097656 290.019531 223.0625 C 295.90625 225.078125 300.414062 231.90625 300.691406 232.332031 C 298.265625 226.910156 294.667969 223.785156 292.472656 222.269531 C 295.433594 221.234375 297.636719 220.152344 299.074219 219.355469 C 304.066406 221.648438 305.453125 230.828125 305.453125 230.828125 C 305.417969 223.972656 301.105469 218.097656 301.105469 218.097656 C 310.410156 213.867188 314.113281 228.078125 314.113281 228.078125 C 314.140625 221.617188 307.933594 215.53125 307.933594 215.53125 C 318.371094 215.976562 323 225.140625 323.28125 225.707031 C 320.488281 216.824219 312.230469 213.996094 312.230469 213.996094 C 325.960938 209.101562 330.394531 224.277344 330.394531 224.277344 C 329.917969 214.257812 318.671875 209.132812 318.671875 209.132812 C 327.691406 202.929688 337.011719 217.472656 337.253906 217.84375 C 332.925781 207.09375 324.777344 205.289062 324.777344 205.289062 C 335.378906 203.746094 344.671875 210.285156 345.183594 210.652344 C 339.058594 204.34375 329.433594 201.785156 329.433594 201.785156 C 341.8125 198.359375 353.761719 205.5 354.355469 205.863281 C 344.476562 198.195312 334.824219 198.832031 334.6875 198.550781 C 331.515625 191.839844 323.59375 190.671875 323.59375 190.671875 C 319.664062 195.449219 312.480469 202.339844 312.480469 202.339844 C 283.847656 232.832031 230.882812 216.644531 228.851562 216.007812 C 228.839844 216.003906 228.824219 216 228.8125 215.996094 C 241.851562 221.574219 253.160156 224.261719 262.710938 225.21875 " fill-opacity="1" fill-rule="nonzero"/></g></svg>