<svg xmlns="http://www.w3.org/2000/svg" xmlns:xlink="http://www.w3.org/1999/xlink" width="500" zoomAndPan="magnify" viewBox="0 0 375 374.999991" height="500" preserveAspectRatio="xMidYMid meet" version="1.0"><path fill="#f63845" d="M 159.921875 101.320312 C 158.074219 97.011719 156.695312 95.425781 155.3125 93.484375 C 154.320312 92.085938 153.3125 90.867188 153.125 88.28125 C 153.015625 86.8125 153.0625 86.089844 153.125 85.285156 C 153.214844 84.101562 153.371094 82.613281 153.460938 81.773438 C 153.960938 81.945312 154.539062 82.101562 155.242188 82.226562 C 156.203125 82.394531 157.085938 82.5 157.347656 82.535156 C 158.304688 82.648438 159.117188 82.648438 159.808594 82.546875 C 159.28125 82.320312 158.84375 82.15625 158.535156 82.046875 C 158.160156 81.914062 157.882812 81.828125 157.5 81.636719 C 157.195312 81.484375 156.964844 81.332031 156.808594 81.226562 C 157.222656 81.109375 158.394531 80.886719 159.015625 80.328125 C 159.242188 80.125 159.660156 79.738281 159.9375 79.101562 C 159.992188 78.972656 160.113281 78.667969 160.191406 77.566406 C 160.289062 76.199219 160.164062 74.40625 160.269531 73.746094 C 160.289062 73.636719 160.308594 73.53125 160.371094 73.414062 C 160.554688 73.078125 160.921875 72.960938 161.089844 72.902344 C 161.941406 72.605469 162.554688 72.128906 163.011719 71.832031 C 163.660156 71.410156 164.8125 70.292969 164.917969 69.992188 C 164.527344 70.175781 163.933594 70.609375 163.316406 70.980469 C 162.246094 71.628906 161.367188 71.917969 160.78125 72.109375 C 159.667969 72.46875 159.214844 72.453125 158.914062 72.414062 C 158.363281 72.34375 157.984375 72.136719 157.886719 72.082031 C 157.328125 71.765625 157.027344 71.320312 156.761719 70.902344 C 156.121094 69.894531 155.726562 69.070312 155.503906 68.625 C 154.554688 66.707031 154.367188 66.839844 153.867188 65.574219 C 153.613281 64.933594 153.328125 64.203125 153.203125 63.195312 C 153.128906 62.632812 153.144531 61.910156 153.175781 60.480469 C 153.195312 59.582031 153.21875 58.964844 153.226562 58.765625 C 153.261719 57.738281 153.222656 56.234375 152.867188 54.207031 C 154.578125 53.78125 157.988281 55.070312 160.074219 56.855469 C 164.910156 61.003906 167.75 62.636719 170.695312 63.835938 C 170.171875 64.496094 169.621094 65.261719 169.078125 66.140625 C 168.515625 67.058594 168.0625 67.929688 167.695312 68.726562 C 167.515625 70.167969 167.484375 72.117188 167.828125 74.386719 C 168.449219 78.550781 169.519531 80.054688 170.183594 80.789062 C 170.515625 81.164062 170.867188 81.722656 171.105469 81.558594 C 170.777344 81.789062 170.214844 81.890625 169.074219 82.238281 C 167.792969 82.625 167.21875 82.828125 167.21875 82.828125 C 167.21875 82.828125 170.644531 83.09375 171.714844 83.019531 C 172.054688 82.996094 172.375 82.972656 172.679688 82.945312 C 172.246094 84.09375 171.886719 86.445312 171.183594 87.476562 C 167.660156 92.625 163.097656 95.992188 159.921875 101.320312 Z M 257.878906 342.644531 C 254.074219 340.097656 250.480469 337.226562 246.976562 334.292969 C 237.070312 326.003906 220.820312 310.007812 218.851562 307.785156 C 207.316406 294.742188 192.984375 281.039062 183.089844 256.90625 C 177.65625 243.652344 172.59375 231.179688 173.988281 211.234375 C 174.65625 201.640625 177.289062 192.496094 180.355469 183.429688 C 183.035156 175.507812 185.828125 167.507812 186.148438 159.066406 C 186.386719 152.808594 185.257812 146.597656 183.183594 140.703125 C 182.144531 137.75 181.214844 135.011719 179.589844 132.304688 C 177.929688 129.535156 176.03125 126.800781 175.355469 123.585938 C 174.804688 120.945312 175.136719 118.207031 175.46875 115.527344 C 176.03125 110.996094 177.480469 106.703125 179.265625 102.515625 C 179.976562 100.847656 180.21875 98.988281 179.949219 97.195312 C 179.816406 96.285156 179.539062 95.417969 179.167969 94.582031 C 178.808594 93.769531 177.203125 89.78125 176.902344 88.570312 C 176.453125 86.777344 176 84.988281 175.546875 83.199219 C 175.511719 83.066406 175.488281 82.84375 175.445312 82.636719 C 176.992188 82.40625 177.832031 82.152344 178.449219 81.941406 C 179.742188 81.507812 181.15625 81.21875 182.523438 81.3125 C 183.449219 81.375 184.386719 81.476562 185.226562 81.90625 C 186.277344 82.445312 186.976562 83.464844 187.308594 84.582031 C 187.503906 85.242188 187.738281 86.113281 187.875 87.15625 C 188.015625 88.230469 188.105469 88.328125 188.195312 88.628906 C 188.355469 87.234375 188.15625 85.898438 188.109375 85.046875 C 188.109375 85.046875 188.03125 83.492188 187.492188 82.515625 C 187.3125 82.183594 187.101562 81.96875 187.058594 81.925781 C 186.773438 81.648438 186.476562 81.519531 186.214844 81.355469 C 189.332031 81.234375 191.855469 80.789062 193.644531 80.382812 C 195.492188 79.960938 197.683594 79.507812 199.015625 78.054688 C 200.132812 76.84375 200.433594 75.082031 200.378906 73.4375 C 200.273438 70.519531 199.203125 67.695312 197.644531 65.226562 C 196.089844 62.761719 194.058594 60.625 191.917969 58.644531 C 183.554688 50.921875 173.238281 45.59375 162.496094 41.992188 C 153.953125 39.132812 146.644531 37.691406 137.636719 38.113281 C 135.753906 38.199219 131.597656 38.742188 129.949219 39.660156 C 119.792969 45.320312 132.207031 59.855469 137.21875 64.515625 C 140.351562 67.425781 143.839844 69.921875 147.421875 72.25 C 149.042969 73.304688 150.691406 74.304688 152.390625 75.238281 C 153.160156 75.65625 157.535156 78.089844 158.710938 78.371094 C 158.300781 78.984375 157.039062 79.390625 155.480469 79.542969 C 154.117188 79.675781 153.273438 79.777344 151.125 79.355469 C 148.328125 78.804688 147.589844 78.914062 146.457031 79.449219 C 145.800781 79.757812 144.964844 80.707031 144.339844 82.136719 C 143.609375 83.808594 143.464844 84.878906 143.183594 85.554688 C 143.566406 85.09375 144.011719 84.351562 144.550781 83.492188 C 145.453125 82.054688 145.652344 81.601562 146.511719 80.945312 C 147.164062 80.445312 147.9375 80.011719 149.34375 80.242188 C 150.230469 80.386719 150.871094 80.65625 151.53125 80.960938 C 150.183594 84.074219 147.460938 94.847656 147.289062 95.441406 C 147.085938 96.152344 146.570312 98.625 147.445312 101.019531 C 148.539062 104.019531 151.25 105.949219 152.230469 109.101562 C 153.660156 113.679688 154.410156 118.046875 153.523438 122.808594 C 153.019531 125.550781 151.851562 128.035156 150.609375 130.5 C 149.539062 129.394531 148.785156 128.398438 148.28125 127.664062 C 147.027344 125.824219 146.691406 125.085938 143.953125 119.210938 C 142.671875 116.457031 140.273438 112.449219 139.140625 110.347656 C 138.449219 109.066406 139.113281 108.429688 139.269531 108.121094 C 140.402344 105.820312 143.414062 101.542969 145.175781 98.253906 C 145.320312 97.980469 145.359375 97.667969 145.28125 97.371094 C 145.167969 96.914062 144.996094 96.378906 144.722656 95.800781 C 144.484375 95.292969 143.960938 94.203125 142.828125 93.1875 C 141.996094 92.441406 141.148438 92.007812 140.507812 91.757812 C 140.34375 91.695312 140.160156 91.773438 140.089844 91.933594 C 139.15625 94.019531 138.316406 95.652344 137.757812 96.695312 C 135.746094 100.453125 134.015625 104.355469 132.070312 108.144531 C 131.855469 108.5625 131.300781 109.636719 131.53125 110.910156 C 131.621094 111.402344 131.796875 111.753906 131.917969 111.988281 C 133.28125 114.652344 134.066406 115.675781 134.066406 115.675781 C 137.21875 119.777344 143.261719 127.050781 144.195312 128.96875 C 144.914062 130.4375 145.238281 132.6875 145.972656 135.191406 C 146.292969 136.292969 146.738281 137.273438 147.183594 138.167969 C 143.667969 148.328125 142.457031 159.023438 144.132812 169.695312 C 148.496094 197.425781 152.515625 204.722656 153.386719 232.867188 C 153.59375 239.675781 153.566406 246.503906 153.390625 253.3125 C 153.246094 258.925781 152.984375 264.539062 152.421875 270.125 C 151.574219 278.5 149.273438 287.15625 146.25 294.980469 C 144.769531 298.800781 142.644531 302.167969 142.617188 304.082031 C 142.605469 304.890625 144.320312 308.632812 146.226562 309.972656 C 150.472656 312.953125 156.292969 312.179688 160.007812 316.117188 C 163.304688 319.609375 163.882812 325.433594 168.503906 327.710938 C 171.992188 329.4375 176.222656 328.03125 180.035156 328.824219 C 185.269531 329.910156 188.710938 334.804688 193.21875 337.679688 C 196.769531 339.945312 201.105469 340.953125 205.292969 340.476562 C 207.625 340.214844 209.976562 339.511719 212.277344 339.964844 C 214.941406 340.488281 217.042969 342.453125 219.402344 343.800781 C 222.992188 345.84375 227.378906 346.445312 231.386719 345.441406 C 233.542969 344.898438 235.6875 343.902344 237.890625 344.203125 C 240.363281 344.535156 242.296875 346.402344 244.449219 347.667969 C 249.386719 350.578125 255.5 350.3125 261.222656 349.964844 C 270.554688 349.390625 260.328125 344.285156 257.878906 342.644531 " fill-opacity="1" fill-rule="nonzero"/><path fill="#f63845" d="M 197.628906 132.902344 C 196.980469 130.136719 196.09375 127.25 196.09375 127.25 C 195.398438 124.988281 194.945312 123.832031 194.429688 122.304688 C 193.082031 118.328125 192.472656 116.171875 192.054688 114.171875 C 191.425781 111.179688 191.097656 110.15625 190.199219 103.367188 C 189.742188 99.890625 189.332031 97.019531 189.050781 95.066406 C 189.007812 94.769531 188.816406 94.511719 188.535156 94.40625 C 186.289062 93.558594 183.214844 95.445312 181.605469 98.601562 C 181.433594 98.9375 181.386719 99.324219 181.46875 99.695312 C 182.117188 102.597656 181.585938 100.132812 182.046875 102.089844 C 183.0625 106.40625 182.65625 105.375 184.101562 111.617188 C 185.335938 116.964844 186.433594 121.070312 186.589844 122.382812 C 187.234375 127.738281 187.09375 128.871094 187.648438 132.710938 C 187.976562 134.972656 187.960938 135.75 191.910156 146.238281 C 194.640625 153.5 196.253906 160.753906 196.15625 164.183594 C 196.109375 165.71875 195.726562 166.34375 195.484375 167.65625 C 195.304688 168.609375 195.253906 168.671875 195.28125 169.679688 C 195.320312 171.066406 195.539062 172.132812 195.867188 174.109375 C 196.316406 176.84375 196.121094 178.101562 196.519531 178.164062 C 196.847656 178.214844 197.421875 177.347656 197.613281 176.703125 C 197.820312 176 197.652344 174.9375 197.894531 173.855469 C 198.03125 173.242188 198.109375 172.902344 198.234375 172.894531 C 198.582031 172.875 198.957031 175.265625 199.246094 177.890625 C 199.382812 179.117188 198.917969 179.949219 197.917969 183.507812 C 197.632812 184.519531 198.953125 183.699219 199.238281 183.480469 C 200.234375 182.710938 202.574219 179.472656 203.421875 177.5625 C 203.894531 176.492188 203.730469 172.359375 203.433594 171.078125 C 202.964844 169.039062 200.824219 166.230469 200.480469 164.789062 C 199.523438 160.722656 199 157.066406 198.6875 150.484375 C 198.355469 143.460938 198.699219 137.46875 197.628906 132.902344 " fill-opacity="1" fill-rule="nonzero"/></svg>