<svg xmlns="http://www.w3.org/2000/svg" xmlns:xlink="http://www.w3.org/1999/xlink" width="500" zoomAndPan="magnify" viewBox="0 0 375 374.999991" height="500" preserveAspectRatio="xMidYMid meet" version="1.0"><path fill="#ffcebe" d="M 270.175781 98.597656 C 269.84375 98.429688 148.386719 47.824219 108.152344 126.199219 C 103.972656 134.398438 101.292969 142.59375 99.957031 150.707031 C 95.941406 175.636719 104.558594 200.058594 121.117188 221.890625 C 137.679688 243.722656 162.273438 262.960938 190.210938 277.347656 C 212.878906 288.976562 237.722656 297.339844 262.230469 301.355469 L 261.980469 303.027344 C 237.304688 299.015625 212.210938 290.566406 189.375 278.855469 C 161.269531 264.382812 136.425781 245.0625 119.695312 222.894531 C 102.882812 200.730469 94.183594 175.886719 98.285156 150.457031 C 99.621094 142.09375 102.382812 133.730469 106.648438 125.363281 C 147.636719 45.566406 270.511719 96.839844 270.847656 97.007812 Z M 270.175781 98.597656 " fill-opacity="1" fill-rule="nonzero"/><path fill="#ffcebe" d="M 270.175781 98.847656 C 269.925781 98.679688 160.097656 56.105469 123.710938 122.019531 C 119.613281 129.296875 117.1875 136.65625 116.101562 144.015625 C 113.257812 162.921875 119.695312 181.492188 132.328125 198.386719 C 144.957031 215.367188 163.863281 230.589844 185.777344 242.71875 C 209.367188 255.769531 236.382812 265.136719 263.066406 269.152344 L 262.816406 270.824219 C 235.964844 266.808594 208.695312 257.359375 184.941406 244.226562 C 162.773438 232.011719 143.703125 216.621094 130.90625 199.476562 C 118.023438 182.160156 111.414062 163.171875 114.34375 143.683594 C 115.429688 136.238281 118.023438 128.710938 122.121094 121.183594 C 159.261719 53.929688 270.511719 97.089844 270.847656 97.175781 Z M 270.175781 98.847656 " fill-opacity="1" fill-rule="nonzero"/><path fill="#ffcebe" d="M 270.261719 99.097656 C 269.925781 99.015625 171.726562 64.46875 139.1875 117.835938 C 135.339844 124.191406 133.082031 130.550781 132.160156 136.824219 C 130.402344 150.039062 134.753906 162.921875 143.367188 174.964844 C 151.984375 187.09375 165.035156 198.21875 180.589844 207.753906 C 204.515625 222.308594 234.460938 232.933594 263.820312 236.949219 L 263.570312 238.621094 C 234.042969 234.605469 203.84375 223.898438 179.671875 209.179688 C 163.945312 199.640625 150.730469 188.265625 141.945312 175.96875 C 133.082031 163.589844 128.648438 150.289062 130.488281 136.65625 C 131.324219 130.046875 133.664062 123.441406 137.679688 116.914062 C 170.972656 62.292969 270.511719 97.34375 270.847656 97.425781 Z M 270.261719 99.097656 " fill-opacity="1" fill-rule="nonzero"/><path fill="#ffcebe" d="M 270.261719 99.351562 C 270.007812 99.265625 183.351562 72.75 154.660156 113.652344 C 151.0625 118.839844 148.972656 124.109375 148.386719 129.210938 C 147.46875 137.074219 149.808594 144.855469 154.578125 152.214844 C 159.429688 159.660156 166.875 166.683594 175.992188 173.125 C 198.660156 189.019531 232.035156 200.8125 264.65625 204.746094 L 264.40625 206.417969 C 231.617188 202.570312 197.90625 190.609375 175.070312 174.546875 C 165.703125 168.023438 158.089844 160.746094 153.15625 153.132812 C 148.136719 145.4375 145.710938 137.324219 146.632812 129.042969 C 147.300781 123.609375 149.390625 118.085938 153.238281 112.648438 C 182.597656 70.742188 270.511719 97.59375 270.761719 97.675781 Z M 270.261719 99.351562 " fill-opacity="1" fill-rule="nonzero"/><path fill="#7668d2" d="M 255.539062 205.328125 C 255.539062 205.328125 252.277344 165.597656 269.675781 156.144531 C 269.675781 156.144531 278.542969 160.328125 277.371094 180.152344 C 276.199219 200.058594 268.085938 207.253906 259.804688 214.699219 L 260.472656 231.929688 C 260.472656 231.929688 276.535156 232.347656 279.878906 248.742188 C 283.308594 265.136719 270.761719 274.839844 263.988281 275.925781 C 263.988281 275.925781 265.074219 291.738281 264.238281 300.6875 C 263.402344 309.636719 253.867188 318.671875 240.230469 310.304688 C 226.511719 302.023438 237.386719 286.214844 245.667969 288.222656 C 253.949219 290.230469 251.605469 299.765625 247.675781 303.363281 C 243.746094 306.960938 241.066406 305.539062 241.066406 305.539062 C 241.066406 305.539062 245.917969 312.730469 255.707031 308.382812 C 265.410156 304.03125 260.558594 276.679688 260.558594 276.679688 C 260.558594 276.679688 231.867188 278.9375 229.105469 249.496094 C 226.347656 220.050781 255.539062 205.328125 255.539062 205.328125 Z M 258.300781 242.636719 L 260.472656 274.589844 C 258.800781 274.839844 256.960938 274.757812 255.035156 274.421875 C 237.472656 270.992188 232.621094 262.210938 234.878906 246.484375 C 237.054688 230.84375 256.625 216.621094 256.625 216.621094 L 257.628906 232.429688 C 257.628906 232.429688 244.664062 235.695312 244.582031 249.496094 C 244.414062 263.296875 254.367188 265.054688 254.367188 265.054688 C 254.367188 265.054688 249.097656 260.871094 248.761719 253.511719 C 248.429688 246.234375 252.609375 243.136719 258.300781 242.636719 Z M 263.820312 273.753906 L 261.308594 242.71875 C 263.820312 243.054688 266.496094 244.226562 269.089844 246.566406 C 276.703125 253.425781 274.277344 269.570312 263.820312 273.753906 Z M 258.96875 202.902344 C 258.96875 202.902344 257.878906 173.210938 269.675781 169.613281 C 269.675781 169.613281 284.5625 180.988281 258.96875 202.902344 Z M 258.96875 202.902344 " fill-opacity="1" fill-rule="evenodd"/><path fill="#f63845" d="M 195.480469 217.878906 L 194.558594 221.304688 C 195.144531 223.984375 196.484375 228.082031 199.664062 232.851562 C 214.71875 255.433594 203.84375 274.421875 191.132812 277.515625 C 191.132812 277.515625 201.753906 270.40625 203.175781 261.207031 C 204.597656 252.089844 201.335938 240.964844 190.210938 236.613281 L 176.660156 283.289062 C 175.992188 285.628906 170.21875 288.894531 168.628906 289.226562 C 163.277344 290.316406 158.175781 287.722656 157.335938 283.371094 C 156.417969 279.105469 160.097656 274.757812 165.453125 273.667969 C 169.71875 272.75 173.734375 274.253906 175.65625 277.015625 L 192.886719 217.125 Z M 195.480469 217.878906 " fill-opacity="1" fill-rule="nonzero"/><path fill="#91c123" d="M 170.050781 146.359375 L 196.316406 170.867188 L 196.066406 171.371094 L 196.148438 171.371094 L 174.066406 219.300781 C 173.398438 220.804688 171.140625 221.890625 168.210938 220.46875 C 164.78125 218.796875 162.273438 214.027344 162.441406 209.847656 C 162.609375 205.664062 165.535156 203.574219 168.882812 205.328125 C 171.640625 206.667969 173.816406 210.015625 174.484375 213.527344 L 189.625 180.570312 L 166.121094 158.65625 L 149.058594 195.710938 C 148.21875 197.214844 146.632812 198.386719 143.035156 196.628906 C 139.6875 194.957031 137.09375 190.191406 137.347656 186.007812 C 137.511719 181.824219 140.359375 179.816406 143.789062 181.492188 C 146.546875 182.914062 148.890625 186.507812 149.390625 190.105469 L 169.71875 145.859375 Z M 170.050781 146.359375 " fill-opacity="1" fill-rule="evenodd"/><path fill="#7668d2" d="M 125.886719 164.007812 L 92.679688 187.179688 L 92.59375 187.09375 C 91.007812 188.015625 88.746094 188.015625 86.742188 186.929688 C 83.8125 185.421875 82.472656 182.328125 83.644531 179.984375 C 84.898438 177.726562 88.164062 177.058594 91.089844 178.5625 C 93.347656 179.734375 94.6875 181.910156 94.519531 183.917969 L 124.964844 162.671875 Z M 125.886719 164.007812 " fill-opacity="1" fill-rule="nonzero"/><path fill="#f63845" d="M 161.019531 133.730469 L 159.429688 134.148438 C 158.507812 135.066406 157.253906 136.574219 156.167969 139 C 150.898438 150.542969 140.691406 150.875 136.34375 146.609375 C 136.34375 146.609375 141.78125 149.121094 145.710938 147.363281 C 149.726562 145.691406 153.324219 141.675781 152.320312 136.238281 L 130.488281 142.34375 C 129.398438 142.59375 126.722656 141.089844 126.136719 140.585938 C 124.382812 138.746094 124.214844 136.070312 125.71875 134.648438 C 127.140625 133.308594 129.816406 133.644531 131.574219 135.484375 C 132.914062 136.992188 133.332031 138.914062 132.746094 140.421875 L 160.683594 132.472656 Z M 161.019531 133.730469 " fill-opacity="1" fill-rule="nonzero"/><path fill="#91c123" d="M 135.757812 109.472656 L 122.207031 123.523438 L 121.957031 123.355469 L 96.109375 110.976562 C 95.355469 110.640625 94.769531 109.386719 95.523438 107.796875 C 96.527344 105.957031 99.121094 104.621094 101.378906 104.785156 C 103.636719 104.871094 104.722656 106.460938 103.804688 108.300781 C 103.050781 109.804688 101.128906 110.976562 99.289062 111.226562 L 117.019531 119.761719 L 129.066406 107.210938 L 109.15625 97.675781 C 108.320312 97.175781 107.734375 96.253906 108.65625 94.332031 C 109.660156 92.574219 112.253906 91.238281 114.511719 91.320312 C 116.769531 91.488281 117.855469 93.078125 116.9375 94.832031 C 116.101562 96.421875 114.175781 97.59375 112.167969 97.84375 L 136.007812 109.21875 Z M 135.757812 109.472656 " fill-opacity="1" fill-rule="evenodd"/><path fill="#7668d2" d="M 175.738281 108.96875 L 153.238281 101.609375 L 153.238281 101.523438 C 152.234375 101.105469 151.484375 100.019531 151.230469 98.679688 C 150.898438 96.839844 151.902344 95.085938 153.40625 94.832031 C 154.910156 94.582031 156.417969 95.921875 156.667969 97.84375 C 156.917969 99.265625 156.417969 100.6875 155.414062 101.273438 L 175.992188 108.132812 Z M 175.738281 108.96875 " fill-opacity="1" fill-rule="nonzero"/><path fill="#f63845" d="M 189.039062 88.558594 L 188.285156 87.640625 C 187.367188 87.304688 186.027344 86.886719 184.105469 86.886719 C 175.070312 86.804688 171.890625 80.277344 173.480469 76.179688 C 173.480469 76.179688 173.398438 80.445312 175.65625 82.539062 C 177.914062 84.628906 181.59375 85.800781 184.859375 83.625 L 174.570312 71.160156 C 174.066406 70.492188 174.234375 68.316406 174.402344 67.816406 C 175.15625 66.140625 176.828125 65.222656 178.164062 65.808594 C 179.503906 66.394531 180.007812 68.148438 179.335938 69.824219 C 178.75 71.160156 177.582031 71.996094 176.492188 72.082031 L 189.710938 87.972656 Z M 189.039062 88.558594 " fill-opacity="1" fill-rule="nonzero"/><path fill="#91c123" d="M 216.308594 98.179688 L 206.4375 98.09375 L 206.355469 98.011719 L 201.835938 84.210938 C 201.671875 83.707031 201.921875 83.121094 202.839844 82.871094 C 203.761719 82.539062 205.183594 83.039062 205.9375 83.875 C 206.6875 84.796875 206.523438 85.714844 205.519531 86.050781 C 204.683594 86.300781 203.59375 85.964844 202.839844 85.464844 L 205.9375 94.917969 L 214.804688 94.917969 L 211.289062 84.292969 C 211.207031 83.792969 211.289062 83.207031 212.378906 82.957031 C 213.296875 82.621094 214.71875 83.121094 215.472656 83.960938 C 216.226562 84.878906 216.058594 85.800781 215.054688 86.132812 C 214.21875 86.386719 213.046875 86.050781 212.292969 85.464844 L 216.476562 98.179688 Z M 216.308594 98.179688 " fill-opacity="1" fill-rule="evenodd"/></svg>