<svg xmlns="http://www.w3.org/2000/svg" xmlns:xlink="http://www.w3.org/1999/xlink" width="500" zoomAndPan="magnify" viewBox="0 0 375 374.999991" height="500" preserveAspectRatio="xMidYMid meet" version="1.0"><defs><clipPath id="3f3357bb71"><path d="M 189 16.484375 L 310.644531 16.484375 L 310.644531 258 L 189 258 Z M 189 16.484375 " clip-rule="nonzero"/></clipPath></defs><path fill="#f08048" d="M 84.636719 196.394531 C 88.632812 194.734375 90.519531 189.882812 88.84375 185.574219 C 87.167969 181.261719 82.5625 179.117188 78.558594 180.789062 C 74.5625 182.453125 72.675781 187.292969 74.351562 191.613281 C 76.03125 195.921875 80.632812 198.058594 84.636719 196.394531 Z M 189.941406 195.261719 C 190.082031 205.027344 188.558594 210.707031 186.53125 220.847656 C 184.324219 231.871094 177.328125 244.921875 173.519531 254.121094 C 153.128906 303.382812 181.910156 341.550781 147.636719 359.90625 C 136.289062 365.976562 117.71875 361.0625 110.140625 348.820312 C 97.460938 328.328125 106.902344 308.6875 99.175781 287.144531 C 91.597656 266.011719 77.394531 238.402344 79.429688 215.667969 C 79.914062 210.242188 80.121094 207.691406 80.859375 205.273438 C 81.636719 202.738281 82.28125 200.988281 83.964844 198.929688 C 86.332031 196.054688 88.492188 194.082031 89.507812 190.195312 C 89.988281 188.332031 89.96875 186.226562 90.773438 184.476562 C 91.949219 181.886719 93.882812 181.820312 96.484375 180.289062 C 91.695312 182.632812 85.859375 180.203125 83.445312 174.855469 C 81.03125 169.484375 82.960938 163.21875 87.761719 160.855469 C 92.566406 158.484375 98.410156 160.914062 100.832031 166.28125 C 102.785156 170.621094 101.855469 175.515625 98.910156 178.492188 C 99.070312 178.34375 99.230469 178.230469 99.402344 178.058594 C 101.277344 176.195312 101.230469 173.898438 102.632812 171.40625 C 104.28125 168.476562 107.886719 168.410156 110.453125 167.351562 C 111.429688 166.945312 112.367188 166.535156 113.285156 166.082031 C 107.539062 168.390625 100.945312 165.121094 98.484375 158.664062 C 95.992188 152.132812 98.671875 144.835938 104.46875 142.359375 C 110.265625 139.890625 116.980469 143.191406 119.472656 149.722656 C 121.546875 155.148438 120.011719 161.0625 116.109375 164.34375 C 116.242188 164.25 116.375 164.164062 116.496094 164.058594 C 118.417969 162.480469 120.125 160.621094 122.484375 159.617188 C 125.183594 158.464844 127.871094 159.269531 130.628906 159.664062 C 131.6875 159.816406 132.710938 159.910156 133.722656 159.96875 C 128.203125 159.277344 123.617188 154.285156 122.871094 147.527344 C 121.988281 139.503906 126.828125 132.046875 133.6875 130.863281 C 140.542969 129.683594 146.820312 135.230469 147.703125 143.246094 C 148.582031 151.222656 143.792969 158.644531 136.992188 159.882812 C 137.578125 159.824219 138.15625 159.769531 138.761719 159.636719 C 141.734375 159.023438 145.070312 158.171875 148.109375 158.9375 C 150.390625 159.515625 151.773438 161.128906 153.621094 162.464844 C 155.554688 163.851562 158.953125 165.941406 161.179688 166.8125 C 161.910156 167.09375 162.617188 167.320312 163.308594 167.519531 C 155.296875 165.15625 149.730469 156.40625 150.390625 146.222656 C 151.160156 134.542969 159.84375 125.402344 169.796875 125.816406 C 179.742188 126.234375 187.195312 136.054688 186.429688 147.738281 C 185.671875 159.429688 176.984375 168.558594 167.03125 168.144531 C 166.597656 168.125 166.171875 168.078125 165.746094 168.019531 C 169.058594 168.578125 172.261719 168.425781 176 168.171875 C 187.128906 167.417969 189.808594 186.035156 189.941406 195.261719 " fill-opacity="1" fill-rule="nonzero"/><path fill="#f8ac81" d="M 82.402344 185.5625 C 81.570312 183.4375 80.015625 181.832031 78.1875 180.96875 C 74.4375 182.765625 72.734375 187.4375 74.363281 191.605469 C 75.175781 193.738281 76.722656 195.335938 78.546875 196.214844 C 82.316406 194.421875 84.003906 189.730469 82.402344 185.5625 Z M 89.183594 180.488281 C 89.34375 180.449219 89.507812 180.367188 89.667969 180.28125 C 94.476562 177.90625 96.410156 171.652344 93.984375 166.28125 C 92.765625 163.578125 90.671875 161.613281 88.265625 160.640625 C 88.105469 160.695312 87.914062 160.78125 87.753906 160.855469 C 82.972656 163.21875 81.039062 169.496094 83.433594 174.863281 C 84.65625 177.558594 86.777344 179.535156 89.183594 180.488281 Z M 105.566406 166.082031 C 105.632812 166.0625 105.671875 166.035156 105.730469 166.015625 C 111.535156 163.558594 114.222656 156.242188 111.714844 149.722656 C 110.351562 146.148438 107.726562 143.53125 104.648438 142.3125 C 104.59375 142.3125 104.527344 142.347656 104.46875 142.367188 C 98.664062 144.824219 96.003906 152.121094 98.484375 158.664062 C 99.847656 162.265625 102.488281 164.863281 105.566406 166.082031 Z M 179.269531 195.261719 C 179.410156 205.035156 177.886719 210.707031 175.867188 220.839844 C 173.671875 231.871094 166.644531 244.914062 162.855469 254.121094 C 142.457031 303.394531 171.246094 341.550781 136.964844 359.898438 C 135.105469 360.898438 133.070312 361.589844 130.910156 361.996094 C 122.671875 360.570312 114.546875 355.917969 110.152344 348.800781 C 97.472656 328.328125 106.894531 308.695312 99.175781 287.136719 C 91.597656 266.011719 77.394531 238.402344 79.429688 215.660156 C 79.914062 210.234375 80.121094 207.691406 80.851562 205.28125 C 81.625 202.738281 82.28125 200.988281 83.964844 198.9375 C 86.332031 196.054688 88.492188 194.082031 89.507812 190.195312 C 89.988281 188.332031 89.96875 186.234375 90.765625 184.46875 C 92.355469 181 95.292969 182.152344 99.402344 178.050781 C 101.277344 176.195312 101.230469 173.898438 102.640625 171.40625 C 104.269531 168.484375 107.886719 168.417969 110.453125 167.339844 C 112.613281 166.441406 114.667969 165.574219 116.496094 164.070312 C 118.25 162.625 119.820312 160.941406 121.894531 159.902344 C 122.074219 159.796875 122.285156 159.703125 122.484375 159.617188 C 124.679688 158.664062 126.90625 159.050781 129.140625 159.417969 C 129.640625 159.316406 130.164062 159.210938 130.675781 159.117188 C 126.582031 157.3125 123.476562 153 122.871094 147.527344 C 122.074219 140.496094 125.703125 133.917969 131.222656 131.601562 C 135.371094 133.386719 138.527344 137.738281 139.140625 143.246094 C 139.917969 150.15625 136.414062 156.621094 131.042969 159.042969 C 133.175781 158.644531 135.363281 158.40625 137.425781 158.929688 C 138.015625 159.089844 138.574219 159.316406 139.054688 159.582031 C 141.972656 158.964844 145.164062 158.199219 148.101562 158.929688 C 150.390625 159.515625 151.785156 161.121094 153.613281 162.464844 C 155.542969 163.84375 158.945312 165.941406 161.171875 166.8125 C 161.484375 166.933594 161.777344 167 162.089844 167.105469 C 154.738281 164.25 149.765625 155.882812 150.390625 146.234375 C 151.027344 136.515625 157.136719 128.550781 164.890625 126.394531 C 173 128.691406 178.632812 137.492188 177.980469 147.738281 C 177.355469 157.433594 171.265625 165.363281 163.539062 167.578125 C 164.53125 167.839844 165.496094 168.050781 166.464844 168.171875 C 166.824219 168.238281 167.191406 168.277344 167.5625 168.3125 C 176.824219 170.007812 179.144531 186.6875 179.269531 195.261719 " fill-opacity="1" fill-rule="nonzero"/><path fill="#f08048" d="M 303.164062 88.90625 C 299.953125 90.316406 296.449219 89.664062 294.210938 87.527344 C 295.234375 89.058594 296.484375 90.382812 297.800781 91.988281 C 299.496094 94.058594 300.140625 95.808594 300.917969 98.339844 C 301.65625 100.761719 301.863281 103.300781 302.347656 108.726562 C 304.375 131.46875 290.179688 159.078125 282.601562 180.214844 C 274.875 201.753906 284.316406 221.386719 271.636719 241.878906 C 264.058594 254.128906 245.476562 259.035156 234.140625 252.96875 C 199.867188 234.621094 228.648438 196.453125 208.257812 147.179688 C 204.449219 137.992188 197.441406 124.929688 195.246094 113.917969 C 193.21875 103.773438 191.695312 98.09375 191.835938 88.320312 C 191.957031 79.09375 194.648438 60.484375 205.777344 61.242188 C 209.507812 61.496094 212.71875 61.636719 216.023438 61.078125 C 215.605469 61.136719 215.179688 61.195312 214.746094 61.210938 C 204.792969 61.628906 196.105469 52.496094 195.347656 40.804688 C 194.582031 29.113281 202.035156 19.300781 211.980469 18.886719 C 221.933594 18.46875 230.617188 27.609375 231.375 39.292969 C 232.046875 49.472656 226.480469 58.214844 218.457031 60.589844 C 219.160156 60.390625 219.867188 60.164062 220.597656 59.878906 C 222.8125 59.011719 226.222656 56.921875 228.15625 55.523438 C 230.003906 54.199219 231.386719 52.582031 233.667969 52.007812 C 236.707031 51.230469 240.03125 52.089844 243.015625 52.707031 C 243.621094 52.828125 244.199219 52.894531 244.785156 52.949219 C 237.984375 51.714844 233.195312 44.292969 234.074219 36.316406 C 234.957031 28.289062 241.234375 22.75 248.089844 23.933594 C 254.949219 25.113281 259.789062 32.574219 258.90625 40.585938 C 258.160156 47.355469 253.574219 52.335938 248.054688 53.035156 C 249.066406 52.980469 250.089844 52.875 251.148438 52.734375 C 253.898438 52.335938 256.59375 51.523438 259.292969 52.675781 C 261.644531 53.679688 263.359375 55.550781 265.28125 57.128906 C 265.402344 57.234375 265.535156 57.308594 265.667969 57.402344 C 261.765625 54.132812 260.230469 48.214844 262.296875 42.78125 C 264.789062 36.25 271.511719 32.960938 277.308594 35.425781 C 283.105469 37.894531 285.785156 45.191406 283.292969 51.730469 C 280.832031 58.1875 274.230469 61.457031 268.480469 59.140625 C 269.398438 59.597656 270.347656 60.011719 271.324219 60.410156 C 273.878906 61.476562 277.496094 61.542969 279.144531 64.472656 C 279.171875 64.53125 279.203125 64.597656 279.230469 64.652344 C 279.171875 60.398438 282.003906 56.183594 286.53125 54.464844 C 292.035156 52.382812 297.898438 54.792969 299.609375 59.851562 C 301.324219 64.917969 298.257812 70.710938 292.746094 72.792969 C 289.449219 74.039062 286.050781 73.660156 283.464844 72.082031 C 287.003906 75.003906 289.570312 74.378906 291.003906 77.535156 C 291.589844 78.832031 291.742188 80.304688 291.96875 81.742188 C 292.148438 78.699219 294.082031 75.777344 297.195312 74.40625 C 301.4375 72.546875 306.203125 74.273438 307.859375 78.28125 C 309.507812 82.28125 307.40625 87.035156 303.164062 88.90625 " fill-opacity="1" fill-rule="nonzero"/><path fill="#f8ac81" d="M 303.425781 74.113281 C 301.515625 73.441406 299.28125 73.492188 297.195312 74.417969 C 293.09375 76.222656 290.992188 80.730469 292.375 84.632812 C 294.269531 85.324219 296.503906 85.285156 298.605469 84.359375 C 302.6875 82.554688 304.820312 78.035156 303.425781 74.113281 Z M 294.773438 55.011719 C 294.714844 54.839844 294.65625 54.671875 294.574219 54.53125 C 292.195312 53.507812 289.308594 53.40625 286.523438 54.453125 C 281.019531 56.550781 277.941406 62.355469 279.65625 67.402344 C 279.714844 67.574219 279.789062 67.761719 279.863281 67.921875 C 282.25 68.925781 285.128906 69.011719 287.90625 67.960938 C 293.417969 65.871094 296.484375 60.085938 294.773438 55.011719 Z M 268.28125 59.074219 C 268.347656 59.09375 268.40625 59.140625 268.472656 59.140625 C 271.539062 57.921875 274.171875 55.296875 275.535156 51.722656 C 278.035156 45.199219 275.347656 37.882812 269.550781 35.425781 C 269.484375 35.40625 269.445312 35.390625 269.382812 35.371094 C 266.3125 36.589844 263.671875 39.1875 262.296875 42.78125 C 259.816406 49.320312 262.484375 56.617188 268.28125 59.074219 Z M 209.839844 60.636719 C 217.945312 58.339844 223.582031 49.539062 222.9375 39.300781 C 222.300781 29.585938 216.195312 21.644531 208.457031 19.445312 C 200.332031 21.722656 194.675781 30.539062 195.347656 40.804688 C 195.972656 50.511719 202.082031 58.480469 209.839844 60.636719 Z M 289.789062 108.71875 C 291.828125 131.460938 277.640625 159.070312 270.042969 180.203125 C 262.324219 201.765625 271.75 221.386719 259.085938 241.890625 C 254.851562 248.714844 247.199219 253.269531 239.285156 254.875 C 237.457031 254.441406 235.742188 253.816406 234.148438 252.96875 C 199.867188 234.621094 228.65625 196.460938 208.257812 147.1875 C 204.449219 137.980469 197.441406 124.9375 195.246094 113.90625 C 193.207031 103.765625 191.683594 98.09375 191.828125 88.320312 C 191.96875 79.09375 194.640625 60.484375 205.777344 61.242188 C 211.183594 61.601562 215.464844 61.882812 220.589844 59.878906 C 222.8125 59 226.234375 56.910156 228.144531 55.53125 C 229.386719 54.652344 230.410156 53.640625 231.632812 52.886719 C 232.238281 52.515625 232.910156 52.195312 233.667969 52.015625 C 236.0625 51.402344 238.675781 51.808594 241.140625 52.316406 L 241.160156 52.316406 C 241.539062 52.261719 241.917969 52.214844 242.304688 52.175781 C 236.859375 49.8125 233.289062 43.28125 234.074219 36.304688 C 234.691406 30.785156 237.84375 26.4375 242 24.671875 C 247.511719 26.984375 251.140625 33.566406 250.34375 40.597656 C 249.738281 46.011719 246.671875 50.304688 242.617188 52.136719 C 243.992188 52.023438 245.371094 52.089844 246.753906 52.6875 C 247.039062 52.808594 247.324219 52.941406 247.589844 53.066406 C 249.519531 54.125 251.046875 55.75 252.742188 57.128906 C 254.550781 58.640625 256.605469 59.511719 258.765625 60.398438 C 261.332031 61.476562 264.949219 61.542969 266.605469 64.464844 C 267.988281 66.96875 267.949219 69.265625 269.816406 71.109375 C 273.957031 75.21875 276.882812 74.058594 278.453125 77.535156 C 279.25 79.304688 279.25 81.390625 279.730469 83.265625 C 280.726562 87.140625 282.894531 89.113281 285.253906 91.996094 C 286.9375 94.050781 287.59375 95.796875 288.371094 98.339844 C 289.117188 100.761719 289.308594 103.292969 289.789062 108.71875 " fill-opacity="1" fill-rule="nonzero"/><g clip-path="url(#3f3357bb71)"><path fill="#100f0d" d="M 297.507812 86.867188 C 296.941406 86.628906 296.449219 86.308594 296.011719 85.921875 C 295.40625 84.964844 294.921875 83.945312 294.589844 82.660156 C 294.496094 82.308594 294.449219 81.941406 294.382812 81.570312 C 294.621094 79.511719 295.992188 77.546875 298.152344 76.589844 C 299.6875 75.917969 301.402344 75.863281 302.851562 76.449219 C 304.136719 76.96875 305.132812 77.941406 305.644531 79.191406 C 306.800781 81.996094 305.253906 85.382812 302.195312 86.722656 C 300.671875 87.394531 298.96875 87.441406 297.507812 86.867188 Z M 286.097656 164.582031 C 284.003906 169.789062 282.035156 174.722656 280.347656 179.410156 C 276.84375 189.195312 276.738281 198.523438 276.636719 207.558594 C 276.511719 218.921875 276.390625 229.648438 269.597656 240.632812 C 262.882812 251.472656 245.882812 256.550781 235.269531 250.867188 C 217.453125 241.320312 217.917969 226.238281 218.550781 205.347656 C 219.054688 188.949219 219.679688 168.53125 210.464844 146.273438 C 209.421875 143.738281 208.144531 140.941406 206.789062 137.980469 C 203.199219 130.117188 199.136719 121.203125 197.585938 113.445312 L 196.75 109.359375 C 195.160156 101.609375 194.109375 96.488281 194.222656 88.359375 C 194.34375 79.804688 196.429688 69.378906 200.804688 65.363281 C 202.082031 64.179688 203.503906 63.605469 205.121094 63.605469 C 205.285156 63.605469 205.445312 63.605469 205.617188 63.621094 C 209.953125 63.914062 213.84375 64.160156 218.105469 63.140625 C 218.335938 63.082031 218.5625 63.027344 218.789062 62.96875 C 219.660156 62.734375 220.550781 62.460938 221.46875 62.101562 C 224.101562 61.070312 227.75 58.765625 229.558594 57.460938 C 230.097656 57.074219 230.609375 56.65625 231.101562 56.25 C 232.226562 55.332031 233.109375 54.605469 234.253906 54.3125 C 236.46875 53.753906 239.113281 54.320312 241.671875 54.859375 L 242.523438 55.039062 C 243.195312 55.183594 243.839844 55.257812 244.484375 55.324219 C 244.8125 55.363281 245.144531 55.390625 245.476562 55.410156 C 245.894531 55.445312 246.3125 55.523438 246.726562 55.523438 C 246.992188 55.523438 247.257812 55.464844 247.53125 55.457031 C 248.914062 55.410156 250.230469 55.265625 251.480469 55.085938 C 252.003906 55.019531 252.515625 54.9375 253.015625 54.839844 C 255.042969 54.5 256.785156 54.207031 258.355469 54.871094 C 259.777344 55.476562 261.007812 56.570312 262.304688 57.714844 C 262.78125 58.140625 263.261719 58.554688 263.746094 58.960938 C 264.796875 59.917969 266 60.710938 267.34375 61.277344 C 267.410156 61.308594 267.476562 61.316406 267.542969 61.34375 C 268.519531 61.816406 269.484375 62.234375 270.402344 62.609375 C 271.246094 62.960938 272.117188 63.207031 272.960938 63.441406 C 274.910156 63.980469 276.160156 64.425781 276.863281 65.398438 C 276.9375 66.335938 277.082031 67.261719 277.394531 68.179688 C 278.207031 70.578125 279.828125 72.554688 281.949219 73.933594 C 283.691406 75.363281 285.234375 76.097656 286.417969 76.628906 C 287.933594 77.320312 288.386719 77.554688 288.824219 78.527344 C 289.183594 79.3125 289.335938 80.332031 289.496094 81.410156 C 289.515625 81.554688 289.554688 81.675781 289.570312 81.808594 C 289.515625 83.199219 289.742188 84.597656 290.292969 85.9375 C 290.765625 87.09375 291.457031 88.113281 292.308594 88.992188 C 293.078125 90.105469 293.917969 91.109375 294.800781 92.140625 C 295.179688 92.574219 295.558594 93.027344 295.957031 93.5 C 297.414062 95.277344 297.933594 96.78125 298.625 99.03125 C 299.269531 101.109375 299.476562 103.5 299.90625 108.265625 L 299.960938 108.945312 C 301.496094 126.109375 293.3125 146.546875 286.097656 164.582031 Z M 197.734375 40.644531 C 197.367188 35.058594 199.082031 29.71875 202.441406 25.984375 C 205.039062 23.09375 208.464844 21.417969 212.082031 21.269531 C 220.789062 20.910156 228.316406 29.066406 229 39.445312 C 229.359375 45.039062 227.644531 50.378906 224.292969 54.105469 C 222.398438 56.203125 220.078125 57.660156 217.558594 58.359375 C 217.347656 58.40625 217.152344 58.460938 216.941406 58.507812 C 216.195312 58.679688 215.417969 58.792969 214.640625 58.832031 C 205.9375 59.140625 198.410156 51.03125 197.734375 40.644531 Z M 233.296875 46.109375 C 233.828125 47.269531 234.472656 48.359375 235.210938 49.359375 C 234.5 49.417969 233.789062 49.511719 233.082031 49.691406 C 232.757812 49.773438 232.484375 49.898438 232.179688 50.003906 C 232.652344 48.746094 233.023438 47.449219 233.296875 46.109375 Z M 236.453125 36.582031 C 236.847656 32.988281 238.527344 29.851562 241.042969 27.949219 C 242.625 26.757812 244.398438 26.15625 246.234375 26.15625 C 246.71875 26.15625 247.199219 26.203125 247.683594 26.285156 C 253.308594 27.25 257.277344 33.554688 256.53125 40.332031 C 256.132812 43.914062 254.464844 47.054688 251.9375 48.953125 C 250.582031 49.964844 249.085938 50.523438 247.53125 50.671875 C 246.917969 50.703125 246.292969 50.691406 245.675781 50.644531 C 245.542969 50.636719 245.421875 50.644531 245.296875 50.625 C 239.671875 49.652344 235.703125 43.347656 236.453125 36.582031 Z M 258.992188 47.949219 C 259 48.679688 259.066406 49.398438 259.171875 50.105469 C 258.6875 49.964844 258.214844 49.878906 257.75 49.8125 C 258.207031 49.21875 258.621094 48.601562 258.992188 47.949219 Z M 264.53125 43.632812 C 265.582031 40.890625 267.601562 38.714844 270.074219 37.667969 C 272.136719 36.789062 274.371094 36.769531 276.371094 37.621094 C 280.992188 39.59375 283.09375 45.539062 281.058594 50.882812 C 280.007812 53.621094 277.988281 55.796875 275.527344 56.84375 C 273.527344 57.695312 271.378906 57.722656 269.4375 56.957031 C 268.574219 56.523438 267.808594 56.050781 267.089844 55.492188 C 264.03125 52.847656 262.855469 48.054688 264.53125 43.632812 Z M 287.375 56.695312 C 288.417969 56.296875 289.507812 56.109375 290.566406 56.109375 C 291.742188 56.109375 292.886719 56.34375 293.910156 56.835938 C 295.558594 57.609375 296.78125 58.953125 297.347656 60.617188 C 298.65625 64.464844 296.210938 68.933594 291.902344 70.558594 C 289.6875 71.402344 287.308594 71.34375 285.359375 70.429688 C 285.179688 70.34375 285.015625 70.21875 284.835938 70.117188 C 284.582031 69.898438 284.324219 69.699219 284.058594 69.4375 C 283.332031 68.707031 283.027344 67.820312 282.613281 66.582031 C 282.355469 65.835938 282.035156 64.992188 281.617188 64.125 C 281.777344 61.015625 283.984375 57.980469 287.375 56.695312 Z M 310.066406 77.375 C 309.0625 74.925781 307.128906 73.027344 304.640625 72.027344 C 302.8125 71.289062 300.785156 71.136719 298.816406 71.476562 C 301.980469 68.121094 303.34375 63.40625 301.875 59.085938 C 300.890625 56.183594 298.785156 53.847656 295.957031 52.515625 C 292.839844 51.042969 289.089844 50.949219 285.679688 52.234375 C 285.660156 52.242188 285.652344 52.25 285.632812 52.261719 C 288.359375 44.632812 285.101562 36.15625 278.246094 33.234375 C 275.054688 31.863281 271.472656 31.882812 268.195312 33.273438 C 265.414062 34.453125 263.027344 36.570312 261.386719 39.253906 C 261.625 30.636719 256.101562 22.882812 248.5 21.578125 C 244.878906 20.957031 241.207031 21.863281 238.175781 24.140625 C 235.515625 26.136719 233.535156 29.046875 232.464844 32.421875 C 229.320312 22.855469 221.117188 16.105469 211.886719 16.503906 C 206.96875 16.710938 202.347656 18.941406 198.882812 22.800781 C 194.667969 27.476562 192.507812 34.09375 192.953125 40.957031 C 193.457031 48.554688 197.042969 55.171875 202.195312 59.265625 C 200.519531 59.726562 198.96875 60.558594 197.566406 61.84375 C 190.09375 68.71875 189.488281 85.078125 189.441406 88.28125 C 189.316406 96.933594 190.472656 102.546875 192.074219 110.324219 L 192.894531 114.378906 C 194.554688 122.6875 198.75 131.867188 202.441406 139.96875 C 203.769531 142.878906 205.027344 145.636719 206.042969 148.097656 C 214.867188 169.410156 214.289062 188.417969 213.769531 205.195312 C 213.136719 226.09375 212.585938 244.136719 233.015625 255.074219 C 236.726562 257.058594 241.015625 257.984375 245.4375 257.984375 C 256.300781 257.984375 267.949219 252.382812 273.671875 243.136719 C 281.152344 231.027344 281.292969 219.117188 281.417969 207.605469 C 281.511719 198.976562 281.609375 190.042969 284.847656 181.019531 C 286.503906 176.414062 288.453125 171.527344 290.539062 166.347656 C 297.953125 147.820312 306.363281 126.828125 304.726562 108.519531 L 304.667969 107.839844 C 304.214844 102.746094 303.988281 100.191406 303.199219 97.640625 C 302.574219 95.589844 301.929688 93.804688 300.699219 91.921875 C 301.863281 91.816406 303.03125 91.574219 304.128906 91.089844 C 309.535156 88.707031 312.207031 82.554688 310.066406 77.375 " fill-opacity="1" fill-rule="nonzero"/></g><path fill="#100f0d" d="M 185.015625 216.3125 L 184.183594 220.386719 C 182.640625 228.144531 178.566406 237.058594 174.976562 244.921875 C 173.632812 247.882812 172.355469 250.679688 171.3125 253.203125 C 162.097656 275.464844 162.722656 295.878906 163.226562 312.277344 C 163.859375 333.167969 164.3125 348.261719 146.5 357.800781 C 135.894531 363.480469 118.882812 358.414062 112.179688 347.5625 C 105.378906 336.589844 105.265625 325.851562 105.140625 314.492188 C 105.039062 305.464844 104.933594 296.125 101.429688 286.34375 C 99.742188 281.652344 97.773438 276.71875 95.679688 271.503906 C 88.453125 253.476562 80.273438 233.042969 81.816406 215.875 L 81.871094 215.148438 C 82.300781 210.414062 82.507812 208.042969 83.140625 205.972656 C 83.929688 203.417969 84.46875 202.085938 85.820312 200.441406 C 86.210938 199.960938 86.597656 199.515625 86.976562 199.070312 C 88.964844 196.746094 90.839844 194.554688 91.816406 190.792969 C 92.023438 190.007812 92.148438 189.175781 92.28125 188.34375 C 92.441406 187.265625 92.59375 186.246094 92.945312 185.460938 C 93.390625 184.488281 93.84375 184.25 95.359375 183.558594 C 96.324219 183.125 97.546875 182.539062 98.910156 181.574219 C 99.429688 181.214844 99.90625 180.828125 100.359375 180.394531 C 100.605469 180.175781 100.84375 179.996094 101.097656 179.742188 C 102.613281 178.238281 103.179688 176.546875 103.691406 175.054688 C 103.988281 174.191406 104.261719 173.378906 104.714844 172.578125 C 105.378906 171.40625 106.703125 170.960938 108.808594 170.375 C 109.660156 170.136719 110.53125 169.902344 111.375 169.550781 C 112.28125 169.175781 113.257812 168.757812 114.234375 168.277344 C 114.300781 168.246094 114.367188 168.238281 114.433594 168.21875 C 115.785156 167.644531 116.988281 166.839844 118.050781 165.875 C 118.535156 165.476562 119.007812 165.0625 119.472656 164.648438 C 120.777344 163.503906 122 162.414062 123.421875 161.8125 C 124.101562 161.519531 124.820312 161.40625 125.589844 161.40625 C 126.574219 161.40625 127.625 161.585938 128.761719 161.78125 C 129.261719 161.867188 129.773438 161.953125 130.285156 162.027344 C 131.566406 162.207031 132.910156 162.351562 134.3125 162.386719 C 134.558594 162.40625 134.804688 162.453125 135.050781 162.453125 C 135.457031 162.453125 135.863281 162.386719 136.273438 162.351562 C 137.238281 162.292969 138.214844 162.1875 139.246094 161.980469 L 140.097656 161.800781 C 142.65625 161.253906 145.296875 160.6875 147.523438 161.253906 C 148.667969 161.535156 149.550781 162.265625 150.667969 163.179688 C 151.167969 163.589844 151.679688 164.003906 152.21875 164.402344 C 154.027344 165.695312 157.664062 168.003906 160.308594 169.03125 C 161.226562 169.390625 162.117188 169.664062 162.996094 169.902344 C 163.214844 169.957031 163.433594 170.015625 163.660156 170.070312 C 167.921875 171.09375 171.804688 170.847656 176.160156 170.554688 C 177.980469 170.429688 179.5625 171 180.972656 172.292969 C 185.347656 176.320312 187.433594 186.746094 187.554688 195.289062 C 187.667969 203.429688 186.617188 208.550781 185.015625 216.3125 Z M 76.578125 190.742188 C 75.367188 187.632812 76.671875 184.15625 79.476562 182.984375 C 80.09375 182.738281 80.726562 182.605469 81.378906 182.605469 C 82.050781 182.605469 82.734375 182.746094 83.386719 183.019531 C 84.835938 183.636719 86.011719 184.882812 86.617188 186.433594 C 87.820312 189.542969 86.523438 193.023438 83.710938 194.195312 C 82.460938 194.714844 81.078125 194.695312 79.796875 194.15625 C 78.359375 193.542969 77.183594 192.304688 76.578125 190.742188 Z M 88.824219 162.992188 C 89.703125 162.558594 90.671875 162.339844 91.644531 162.339844 C 92.402344 162.339844 93.179688 162.472656 93.929688 162.738281 C 95.964844 163.464844 97.679688 165.121094 98.65625 167.253906 C 100.167969 170.628906 99.515625 174.402344 97.328125 176.707031 C 96.828125 177.171875 96.34375 177.558594 95.878906 177.871094 C 95.738281 177.957031 95.613281 178.070312 95.453125 178.144531 C 93.882812 178.917969 92.0625 179.003906 90.347656 178.390625 C 88.3125 177.660156 86.597656 176.015625 85.632812 173.871094 C 83.738281 169.675781 85.167969 164.796875 88.824219 162.992188 Z M 105.40625 144.550781 C 106.390625 144.136719 107.425781 143.925781 108.476562 143.925781 C 109.554688 143.925781 110.652344 144.15625 111.703125 144.597656 C 114.175781 145.648438 116.195312 147.820312 117.234375 150.5625 C 118.921875 154.976562 117.746094 159.769531 114.6875 162.425781 C 113.96875 162.992188 113.191406 163.464844 112.332031 163.890625 C 110.386719 164.65625 108.25 164.628906 106.25 163.777344 C 103.777344 162.738281 101.761719 160.5625 100.71875 157.8125 C 98.683594 152.472656 100.785156 146.527344 105.40625 144.550781 Z M 122.785156 154.882812 C 123.15625 155.535156 123.582031 156.160156 124.027344 156.746094 C 123.5625 156.8125 123.089844 156.894531 122.605469 157.039062 C 122.710938 156.328125 122.777344 155.609375 122.785156 154.882812 Z M 134.09375 133.21875 C 134.578125 133.132812 135.058594 133.085938 135.542969 133.085938 C 137.378906 133.085938 139.152344 133.699219 140.734375 134.890625 C 143.25 136.78125 144.929688 139.929688 145.324219 143.511719 C 146.074219 150.289062 142.105469 156.59375 136.480469 157.558594 C 136.339844 157.585938 136.207031 157.566406 136.074219 157.585938 C 135.464844 157.625 134.859375 157.632812 134.253906 157.613281 C 132.703125 157.464844 131.195312 156.90625 129.839844 155.882812 C 127.320312 153.992188 125.644531 150.847656 125.246094 147.265625 C 124.5 140.488281 128.46875 134.183594 134.09375 133.21875 Z M 149.597656 156.933594 C 149.292969 156.828125 149.019531 156.707031 148.695312 156.621094 C 147.988281 156.441406 147.277344 156.347656 146.566406 156.289062 C 147.304688 155.296875 147.949219 154.210938 148.480469 153.039062 C 148.746094 154.382812 149.125 155.6875 149.597656 156.933594 Z M 152.789062 146.386719 C 153.441406 136.214844 160.726562 128.191406 169.144531 128.191406 C 169.324219 128.191406 169.503906 128.199219 169.695312 128.199219 C 173.3125 128.351562 176.738281 130.03125 179.335938 132.925781 C 182.695312 136.648438 184.410156 141.988281 184.042969 147.585938 C 183.367188 157.972656 175.820312 166.101562 167.136719 165.761719 C 166.304688 165.722656 165.488281 165.601562 164.691406 165.414062 C 164.558594 165.382812 164.417969 165.347656 164.285156 165.308594 C 161.746094 164.617188 159.398438 163.164062 157.484375 161.046875 C 154.132812 157.320312 152.417969 151.972656 152.789062 146.386719 Z M 184.210938 168.785156 C 182.808594 167.5 181.257812 166.667969 179.582031 166.195312 C 184.722656 162.105469 188.320312 155.496094 188.816406 147.898438 C 189.269531 141.027344 187.109375 134.410156 182.894531 129.730469 C 179.429688 125.882812 174.808594 123.644531 169.890625 123.433594 C 160.707031 123.046875 152.464844 129.796875 149.3125 139.363281 C 148.253906 135.988281 146.261719 133.078125 143.601562 131.074219 C 140.570312 128.792969 136.90625 127.886719 133.277344 128.511719 C 125.675781 129.824219 120.152344 137.574219 120.390625 146.195312 C 118.742188 143.511719 116.363281 141.394531 113.582031 140.214844 C 110.304688 138.8125 106.734375 138.804688 103.53125 140.164062 C 96.902344 142.992188 93.644531 150.996094 95.890625 158.40625 C 95.777344 158.371094 95.671875 158.292969 95.546875 158.246094 C 92.59375 157.1875 89.457031 157.359375 86.703125 158.710938 C 80.773438 161.640625 78.332031 169.316406 81.265625 175.828125 C 81.609375 176.585938 82.023438 177.273438 82.480469 177.945312 C 80.839844 177.757812 79.191406 177.9375 77.640625 178.578125 C 72.457031 180.742188 69.976562 186.972656 72.117188 192.472656 C 73.1875 195.214844 75.308594 197.4375 77.921875 198.550781 C 78.859375 198.949219 79.828125 199.148438 80.800781 199.242188 C 79.730469 200.988281 79.15625 202.671875 78.578125 204.570312 C 77.789062 207.113281 77.5625 209.667969 77.109375 214.722656 L 77.050781 215.453125 C 75.414062 233.761719 83.824219 254.753906 91.238281 273.269531 C 93.3125 278.449219 95.273438 283.347656 96.921875 287.949219 C 100.160156 296.984375 100.265625 305.90625 100.359375 314.546875 C 100.480469 326.058594 100.613281 337.96875 108.105469 350.066406 C 113.828125 359.320312 125.464844 364.925781 136.328125 364.925781 C 140.75 364.925781 145.050781 364 148.761719 362.007812 C 169.191406 351.070312 168.640625 333.027344 168 312.136719 C 167.488281 295.359375 166.910156 276.34375 175.726562 255.027344 C 176.738281 252.578125 178 249.820312 179.335938 246.90625 C 183.027344 238.808594 187.214844 229.621094 188.882812 221.3125 L 189.703125 217.277344 C 191.296875 209.496094 192.460938 203.871094 192.335938 195.222656 C 192.289062 192.011719 191.683594 175.648438 184.210938 168.785156 " fill-opacity="1" fill-rule="nonzero"/></svg>