<svg xmlns="http://www.w3.org/2000/svg" xmlns:xlink="http://www.w3.org/1999/xlink" width="500" zoomAndPan="magnify" viewBox="0 0 375 374.999991" height="500" preserveAspectRatio="xMidYMid meet" version="1.0"><defs><clipPath id="ccaf97415c"><path d="M 88.199219 23.027344 L 286.949219 23.027344 L 286.949219 352.277344 L 88.199219 352.277344 Z M 88.199219 23.027344 " clip-rule="nonzero"/></clipPath></defs><path fill="#ba6a7e" d="M 214.75 233.289062 L 160.402344 233.289062 C 138.285156 244.011719 108.675781 268.730469 95.492188 324.320312 L 133.585938 349.667969 L 241.566406 349.667969 L 279.660156 324.320312 C 266.472656 268.730469 236.863281 244.011719 214.75 233.289062 Z M 214.75 233.289062 " fill-opacity="1" fill-rule="nonzero"/><path fill="#ffc05a" d="M 282.023438 335.585938 C 268.0625 340.253906 254.539062 340.609375 241.566406 335.585938 L 241.566406 324.320312 L 279.660156 324.320312 C 280.519531 327.945312 281.3125 331.699219 282.023438 335.585938 Z M 282.023438 335.585938 " fill-opacity="1" fill-rule="nonzero"/><path fill="#ffc05a" d="M 133.585938 324.320312 L 133.585938 335.585938 C 120.609375 340.609375 107.085938 340.253906 93.128906 335.585938 C 93.839844 331.699219 94.628906 327.945312 95.492188 324.320312 Z M 133.585938 324.320312 " fill-opacity="1" fill-rule="nonzero"/><path fill="#ffc05a" d="M 202.390625 228.339844 L 172.757812 228.339844 C 169.082031 229.511719 164.898438 231.109375 160.402344 233.289062 L 187.574219 259.554688 L 214.75 233.289062 C 210.25 231.109375 206.066406 229.511719 202.390625 228.339844 Z M 202.390625 228.339844 " fill-opacity="1" fill-rule="nonzero"/><path fill="#655f68" d="M 255.769531 84.96875 C 255.042969 82.101562 254.242188 79.359375 253.367188 76.746094 C 251.644531 71.5625 251.460938 66.035156 252.695312 60.71875 C 252.777344 60.359375 252.855469 59.996094 252.929688 59.628906 C 254.941406 49.488281 251.859375 41.042969 250.082031 37.097656 C 249.234375 40.082031 247.074219 46.011719 241.566406 51.179688 C 238.496094 54.054688 235.363281 55.777344 233.039062 56.808594 C 234.378906 51.207031 235.492188 44.574219 235.878906 37.097656 C 236.089844 33.078125 236.054688 29.300781 235.878906 25.835938 C 232.757812 28.550781 228.984375 31.464844 224.515625 34.285156 C 218.300781 38.203125 212.417969 40.878906 207.464844 42.734375 C 209.1875 40.824219 211.34375 38.023438 213.148438 34.285156 C 214.695312 31.070312 215.527344 28.128906 215.988281 25.835938 C 209.480469 28.703125 202.980469 31.566406 196.472656 34.433594 C 192.816406 36.039062 188.859375 36.910156 184.859375 36.910156 C 174.265625 36.921875 153.578125 38.992188 136.429688 53.996094 C 113.410156 74.128906 106.136719 109.359375 119.085938 141.742188 L 177.128906 177.304688 L 255.972656 141.742188 C 259.050781 128.363281 261.578125 108.027344 255.769531 84.96875 Z M 255.769531 84.96875 " fill-opacity="1" fill-rule="nonzero"/><path fill="#ffd7d2" d="M 284.183594 349.667969 L 241.566406 349.667969 L 241.566406 335.585938 L 282.023438 335.585938 C 282.851562 340.09375 283.570312 344.785156 284.183594 349.667969 Z M 284.183594 349.667969 " fill-opacity="1" fill-rule="nonzero"/><path fill="#fec4b9" d="M 255.972656 141.742188 C 259.46875 146.207031 260.488281 153.039062 258.105469 159.515625 C 255.207031 167.382812 248.242188 172.140625 241.558594 171.351562 C 234.1875 159.121094 234.019531 146.296875 248.378906 137.035156 C 249.117188 137.171875 249.867188 137.367188 250.59375 137.660156 C 252.746094 138.515625 254.5625 139.933594 255.972656 141.742188 Z M 255.972656 141.742188 " fill-opacity="1" fill-rule="nonzero"/><path fill="#fec4b9" d="M 133.5 171.351562 C 126.816406 172.140625 119.851562 167.382812 116.953125 159.515625 C 114.570312 153.039062 115.589844 146.207031 119.085938 141.742188 C 120.496094 139.933594 122.3125 138.515625 124.464844 137.660156 C 125.191406 137.367188 125.933594 137.171875 126.679688 137.035156 C 132.070312 146.820312 134.800781 158.601562 133.5 171.351562 Z M 133.5 171.351562 " fill-opacity="1" fill-rule="nonzero"/><path fill="#ffd7d2" d="M 133.5 171.351562 C 130.355469 162.230469 127.976562 150.160156 126.679688 137.035156 C 126.6875 137.035156 126.6875 137.035156 126.691406 137.035156 C 128.035156 128.304688 130.171875 118.316406 133.585938 107.5 C 137.800781 94.148438 142.917969 82.839844 147.796875 73.707031 C 148.167969 77.179688 148.414062 80.957031 148.476562 85.007812 C 148.539062 90.171875 148.277344 94.917969 147.835938 99.179688 C 151.210938 95.898438 155.359375 91.214844 159.160156 84.96875 C 162.84375 78.914062 165.046875 73.269531 166.40625 68.875 C 167.679688 72.589844 170.402344 78.921875 176.210938 84.96875 C 180.792969 89.742188 185.5625 92.527344 188.820312 94.101562 C 186.84375 87.4375 184.871094 80.777344 182.894531 74.109375 C 187.019531 78.355469 192.320312 83.140625 198.9375 87.789062 C 204.265625 91.523438 209.363281 94.410156 213.894531 96.640625 C 213.109375 93.753906 212.378906 90.613281 211.757812 87.238281 C 211.054688 83.421875 210.597656 79.828125 210.304688 76.519531 C 217.125 83.179688 225.371094 92.460938 233.039062 104.683594 C 240.632812 116.777344 245.363281 128.089844 248.378906 137.035156 C 247.082031 150.160156 244.703125 162.230469 241.558594 171.351562 C 240.199219 175.28125 238.707031 178.664062 237.09375 181.347656 C 234.234375 186.097656 229.554688 191.582031 223.605469 196.53125 C 220.402344 199.203125 216.824219 201.722656 212.96875 203.882812 C 209.632812 205.757812 206.09375 207.363281 202.398438 208.578125 C 197.652344 210.140625 192.660156 211.054688 187.527344 211.054688 C 182.429688 211.054688 177.46875 210.152344 172.75 208.605469 C 156.816406 203.394531 143.703125 190.898438 137.964844 181.347656 C 136.351562 178.664062 134.859375 175.28125 133.5 171.351562 Z M 133.5 171.351562 " fill-opacity="1" fill-rule="nonzero"/><path fill="#ffd7d2" d="M 172.75 208.605469 L 172.75 217.71875 L 172.757812 228.339844 L 187.574219 242.660156 L 202.390625 228.339844 L 202.390625 224.242188 L 202.398438 208.578125 Z M 172.75 208.605469 " fill-opacity="1" fill-rule="nonzero"/><path fill="#ffd7d2" d="M 133.585938 335.585938 L 133.585938 349.667969 L 90.964844 349.667969 C 91.582031 344.785156 92.296875 340.09375 93.128906 335.585938 Z M 133.585938 335.585938 " fill-opacity="1" fill-rule="nonzero"/><path fill="#f7b6ad" d="M 202.398438 208.578125 L 202.390625 224.242188 C 191.921875 223.828125 181.933594 221.550781 172.75 217.71875 L 172.75 208.605469 C 177.46875 210.152344 182.429688 211.054688 187.527344 211.054688 C 192.660156 211.054688 197.652344 210.140625 202.398438 208.578125 Z M 202.398438 208.578125 " fill-opacity="1" fill-rule="nonzero"/><path fill="#3a322b" d="M 207.789062 114.574219 C 207.855469 114.5625 214.496094 113.488281 218.929688 116.609375 C 219.386719 116.933594 219.910156 117.085938 220.429688 117.085938 C 221.253906 117.085938 222.058594 116.699219 222.570312 115.976562 C 223.398438 114.796875 223.113281 113.167969 221.933594 112.339844 C 215.710938 107.957031 207.257812 109.363281 206.902344 109.425781 C 205.484375 109.675781 204.535156 111.019531 204.78125 112.441406 C 205.023438 113.859375 206.371094 114.808594 207.789062 114.574219 Z M 207.789062 114.574219 " fill-opacity="1" fill-rule="nonzero"/><path fill="#3a322b" d="M 168.144531 109.425781 C 167.789062 109.363281 159.347656 107.957031 153.121094 112.339844 C 151.941406 113.167969 151.660156 114.796875 152.488281 115.976562 C 152.996094 116.699219 153.804688 117.085938 154.625 117.085938 C 155.144531 117.085938 155.671875 116.929688 156.128906 116.609375 C 160.542969 113.5 167.136719 114.554688 167.253906 114.574219 C 168.667969 114.816406 170.019531 113.867188 170.269531 112.449219 C 170.515625 111.027344 169.566406 109.675781 168.144531 109.425781 Z M 168.144531 109.425781 " fill-opacity="1" fill-rule="nonzero"/><g clip-path="url(#ccaf97415c)"><path fill="#3a322b" d="M 286.773438 349.34375 C 281.953125 310.835938 269.683594 279.976562 250.296875 257.617188 C 234.472656 239.367188 217.25 230.621094 205.003906 226.449219 L 205.007812 210.433594 C 221.519531 203.421875 231.957031 195.8125 239.332031 182.691406 C 240.765625 180.304688 242.117188 177.398438 243.367188 174.046875 C 250.6875 173.898438 257.558594 168.558594 260.554688 160.417969 C 263.078125 153.570312 262.179688 146.328125 258.761719 141.183594 C 263.0625 121.769531 262.914062 102.648438 258.300781 84.332031 C 257.589844 81.515625 256.765625 78.683594 255.84375 75.921875 C 254.300781 71.292969 254.089844 66.238281 255.234375 61.308594 C 256.46875 53.191406 255.398438 44.742188 252.46875 36.027344 C 252.015625 35.027344 250.992188 34.417969 249.898438 34.496094 C 248.804688 34.574219 247.875 35.328125 247.574219 36.382812 C 246.582031 39.859375 244.421875 44.921875 239.777344 49.273438 C 238.835938 50.152344 237.835938 50.964844 236.78125 51.707031 C 237.664062 46.917969 238.234375 42.070312 238.484375 37.234375 C 238.683594 33.410156 238.683594 29.53125 238.484375 25.699219 C 238.433594 24.703125 237.816406 23.824219 236.898438 23.433594 C 235.980469 23.042969 234.917969 23.210938 234.164062 23.863281 C 230.707031 26.871094 226.992188 29.632812 223.121094 32.074219 C 220.453125 33.757812 217.691406 35.300781 214.851562 36.699219 L 218.546875 26.351562 C 218.742188 25.394531 218.386719 24.410156 217.625 23.800781 C 216.867188 23.1875 215.828125 23.050781 214.9375 23.445312 L 195.421875 32.042969 C 192.027344 33.535156 188.472656 34.296875 184.855469 34.300781 C 173.6875 34.308594 152.320312 36.628906 134.710938 52.027344 C 110.960938 72.800781 103.601562 108.558594 116.164062 141.390625 C 112.855469 146.519531 112.015625 153.660156 114.503906 160.417969 C 117.5 168.558594 124.371094 173.902344 131.691406 174.046875 C 132.941406 177.398438 134.289062 180.304688 135.726562 182.691406 C 141.109375 191.652344 153.902344 204.546875 170.140625 210.46875 L 170.144531 226.449219 C 157.902344 230.621094 140.675781 239.367188 124.851562 257.617188 C 105.46875 279.976562 93.195312 310.835938 88.375 349.34375 C 88.285156 350.085938 88.511719 350.832031 89.007812 351.394531 C 89.503906 351.957031 90.21875 352.277344 90.964844 352.277344 L 284.183594 352.277344 C 284.933594 352.277344 285.644531 351.957031 286.140625 351.394531 C 286.636719 350.832031 286.867188 350.085938 286.773438 349.34375 Z M 278.855469 332.976562 L 244.171875 332.976562 L 244.171875 326.933594 L 277.570312 326.933594 C 278.019531 328.910156 278.449219 330.921875 278.855469 332.976562 Z M 255.65625 158.613281 C 253.726562 163.851562 249.621094 167.632812 245.191406 168.585938 C 247.550781 160.746094 249.421875 151.167969 250.628906 140.550781 C 256.089844 143.472656 258.351562 151.289062 255.65625 158.613281 Z M 138.148438 55.960938 C 154.472656 41.679688 174.421875 39.53125 184.863281 39.523438 C 189.207031 39.519531 193.464844 38.609375 197.527344 36.820312 L 211.945312 30.46875 C 211.601562 31.378906 211.21875 32.273438 210.796875 33.148438 C 209.425781 35.988281 207.652344 38.625 205.527344 40.980469 C 204.71875 41.875 204.628906 43.203125 205.304688 44.199219 C 205.984375 45.195312 207.253906 45.597656 208.378906 45.175781 C 214.503906 42.886719 220.398438 39.964844 225.90625 36.492188 C 228.480469 34.867188 230.992188 33.109375 233.414062 31.238281 C 233.417969 33.152344 233.371094 35.066406 233.269531 36.964844 C 232.9375 43.417969 232.003906 49.890625 230.496094 56.203125 C 230.265625 57.171875 230.605469 58.183594 231.367188 58.820312 C 232.132812 59.453125 233.1875 59.601562 234.097656 59.199219 C 237.53125 57.671875 240.644531 55.617188 243.347656 53.085938 C 246.300781 50.316406 248.410156 47.3125 249.90625 44.488281 C 250.289062 49.339844 250.304688 51.953125 250.148438 60.128906 C 248.789062 65.996094 249.042969 72.03125 250.890625 77.574219 C 251.769531 80.214844 252.558594 82.917969 253.238281 85.609375 C 257.386719 102.082031 257.753906 119.253906 254.359375 136.71875 L 250.367188 134.828125 C 246.539062 123.800781 241.464844 113.195312 235.25 103.292969 C 228.71875 92.890625 220.941406 83.253906 212.128906 74.652344 C 211.347656 73.890625 210.175781 73.695312 209.1875 74.164062 C 208.203125 74.632812 207.609375 75.664062 207.707031 76.753906 C 208.027344 80.410156 208.527344 84.097656 209.191406 87.710938 C 209.429688 89.019531 209.691406 90.328125 209.980469 91.636719 C 206.695312 89.800781 203.503906 87.800781 200.441406 85.648438 C 194.824219 81.707031 189.550781 77.214844 184.769531 72.292969 C 183.933594 71.429688 182.613281 71.25 181.578125 71.859375 C 180.539062 72.464844 180.050781 73.703125 180.394531 74.855469 L 184.457031 88.5625 C 182.160156 86.984375 180.03125 85.179688 178.09375 83.164062 C 173.992188 78.894531 170.804688 73.660156 168.878906 68.03125 C 168.511719 66.960938 167.5 66.246094 166.367188 66.265625 C 165.238281 66.28125 164.246094 67.023438 163.914062 68.105469 C 162.238281 73.535156 159.886719 78.753906 156.929688 83.613281 C 155.15625 86.53125 153.164062 89.316406 150.980469 91.941406 C 151.078125 89.617188 151.113281 87.289062 151.082031 84.972656 C 151.03125 81.132812 150.796875 77.25 150.390625 73.429688 C 150.269531 72.289062 149.417969 71.363281 148.292969 71.144531 C 147.167969 70.925781 146.03125 71.46875 145.492188 72.480469 C 139.660156 83.410156 134.816406 94.929688 131.097656 106.714844 C 128.195312 115.910156 125.949219 125.394531 124.394531 134.921875 L 120.148438 137.105469 C 109.621094 106.992188 116.625 74.789062 138.148438 55.960938 Z M 119.402344 158.613281 C 116.707031 151.289062 118.96875 143.472656 124.429688 140.550781 C 125.636719 151.167969 127.507812 160.746094 129.867188 168.585938 C 125.4375 167.632812 121.332031 163.851562 119.402344 158.613281 Z M 165.660156 202.875 L 169.316406 195.9375 C 169.988281 194.664062 169.5 193.082031 168.226562 192.410156 C 166.949219 191.738281 165.371094 192.226562 164.699219 193.503906 L 161.105469 200.324219 C 158.953125 198.992188 156.910156 197.5625 154.992188 196.066406 L 159.371094 189.488281 C 160.167969 188.289062 159.84375 186.667969 158.640625 185.867188 C 157.441406 185.070312 155.820312 185.394531 155.023438 186.59375 L 150.972656 192.679688 C 146.1875 188.339844 142.476562 183.789062 140.203125 180 C 135.253906 171.765625 131.195312 155.769531 129.320312 137.164062 C 130.835938 127.410156 133.109375 117.695312 136.078125 108.28125 C 138.75 99.816406 142.019531 91.492188 145.828125 83.429688 C 145.84375 83.96875 145.855469 84.503906 145.863281 85.039062 C 145.921875 89.652344 145.714844 94.316406 145.242188 98.90625 C 145.128906 100 145.710938 101.046875 146.699219 101.527344 C 147.6875 102.003906 148.871094 101.8125 149.660156 101.046875 C 154.179688 96.652344 158.125 91.699219 161.394531 86.324219 C 163.402344 83.019531 165.152344 79.5625 166.621094 75.992188 C 168.664062 79.9375 171.273438 83.59375 174.328125 86.777344 C 178.164062 90.769531 182.65625 94.027344 187.6875 96.453125 C 188.617188 96.902344 189.726562 96.757812 190.511719 96.089844 C 191.300781 95.417969 191.621094 94.347656 191.324219 93.355469 L 188.160156 82.667969 C 191.128906 85.242188 194.230469 87.667969 197.441406 89.921875 C 202.28125 93.316406 207.429688 96.367188 212.742188 98.980469 C 213.660156 99.433594 214.761719 99.308594 215.554688 98.652344 C 216.347656 98 216.683594 96.945312 216.414062 95.953125 C 215.59375 92.933594 214.890625 89.84375 214.328125 86.765625 C 214.152344 85.8125 213.988281 84.851562 213.839844 83.890625 C 220.179688 90.742188 225.875 98.175781 230.828125 106.070312 C 236.988281 115.878906 241.992188 126.402344 245.722656 137.347656 C 243.839844 155.875 239.789062 171.792969 234.859375 180 C 232.59375 183.773438 228.902344 188.304688 224.144531 192.628906 L 220.132812 186.59375 C 219.332031 185.394531 217.710938 185.070312 216.511719 185.867188 C 215.3125 186.667969 214.984375 188.289062 215.785156 189.488281 L 220.128906 196.015625 C 218.214844 197.511719 216.175781 198.949219 214.023438 200.277344 L 210.453125 193.503906 C 209.78125 192.226562 208.203125 191.738281 206.925781 192.410156 C 205.652344 193.082031 205.164062 194.660156 205.835938 195.9375 L 209.472656 202.835938 C 207.042969 204.070312 204.503906 205.152344 201.875 206.027344 L 200.636719 198.472656 C 200.40625 197.050781 199.0625 196.085938 197.640625 196.316406 C 196.214844 196.550781 195.253906 197.894531 195.484375 199.316406 L 196.808594 207.414062 C 194.636719 207.886719 192.414062 208.203125 190.152344 208.347656 L 190.1875 200.433594 C 190.191406 198.992188 189.027344 197.816406 187.585938 197.8125 C 187.582031 197.8125 187.578125 197.8125 187.574219 197.8125 C 186.136719 197.8125 184.96875 198.972656 184.964844 200.414062 L 184.929688 208.351562 C 182.691406 208.210938 180.492188 207.898438 178.339844 207.4375 L 179.667969 199.320312 C 179.898438 197.898438 178.933594 196.554688 177.511719 196.320312 C 176.085938 196.089844 174.746094 197.050781 174.511719 198.476562 L 173.273438 206.058594 C 170.636719 205.1875 168.09375 204.109375 165.660156 202.875 Z M 199.785156 212.054688 L 199.78125 227.230469 L 187.574219 239.03125 L 175.367188 227.230469 L 175.363281 212.078125 C 179.269531 213.082031 183.332031 213.660156 187.515625 213.660156 C 187.515625 213.660156 187.515625 213.660156 187.519531 213.660156 C 187.523438 213.660156 187.527344 213.660156 187.53125 213.660156 C 191.746094 213.664062 195.847656 213.074219 199.785156 212.054688 Z M 172.074219 231.3125 L 185.761719 244.539062 C 186.265625 245.027344 186.921875 245.273438 187.574219 245.273438 C 188.230469 245.273438 188.882812 245.027344 189.390625 244.539062 L 203.074219 231.3125 C 205.207031 232.035156 207.59375 232.941406 210.179688 234.074219 L 187.574219 255.925781 L 164.972656 234.074219 C 167.558594 232.941406 169.945312 232.035156 172.074219 231.3125 Z M 130.976562 347.054688 L 93.941406 347.054688 C 94.355469 344.023438 94.820312 341.078125 95.324219 338.199219 L 130.976562 338.199219 Z M 130.976562 332.976562 L 96.296875 332.976562 C 96.703125 330.921875 97.132812 328.910156 97.582031 326.933594 L 130.976562 326.933594 Z M 241.5625 285.105469 C 240.121094 285.105469 238.949219 286.273438 238.949219 287.714844 L 238.949219 347.054688 L 136.199219 347.054688 L 136.199219 287.714844 C 136.199219 286.273438 135.03125 285.105469 133.589844 285.105469 C 132.144531 285.105469 130.976562 286.273438 130.976562 287.714844 L 130.976562 321.710938 L 98.839844 321.710938 C 112.070312 269.902344 139.972656 246.703125 159.933594 236.472656 L 185.761719 261.433594 C 186.265625 261.925781 186.921875 262.167969 187.574219 262.167969 C 188.230469 262.167969 188.882812 261.925781 189.390625 261.433594 L 215.214844 236.472656 C 235.179688 246.703125 263.078125 269.902344 276.308594 321.710938 L 244.171875 321.710938 L 244.171875 287.714844 C 244.171875 286.273438 243.003906 285.105469 241.5625 285.105469 Z M 244.171875 347.054688 L 244.171875 338.199219 L 279.828125 338.199219 C 280.328125 341.078125 280.792969 344.023438 281.207031 347.054688 Z M 244.171875 347.054688 " fill-opacity="1" fill-rule="nonzero"/></g><path fill="#3a322b" d="M 217.96875 136.890625 C 217.96875 137.222656 217.933594 137.550781 217.871094 137.878906 C 217.804688 138.203125 217.707031 138.519531 217.582031 138.824219 C 217.453125 139.132812 217.296875 139.421875 217.113281 139.699219 C 216.925781 139.972656 216.71875 140.230469 216.480469 140.464844 C 216.246094 140.699219 215.988281 140.90625 215.710938 141.089844 C 215.4375 141.277344 215.144531 141.429688 214.835938 141.558594 C 214.527344 141.683594 214.210938 141.78125 213.882812 141.847656 C 213.558594 141.910156 213.226562 141.941406 212.894531 141.941406 C 212.5625 141.941406 212.230469 141.910156 211.90625 141.847656 C 211.578125 141.78125 211.261719 141.683594 210.953125 141.558594 C 210.644531 141.429688 210.351562 141.277344 210.074219 141.089844 C 209.796875 140.90625 209.542969 140.699219 209.308594 140.464844 C 209.070312 140.230469 208.859375 139.972656 208.675781 139.699219 C 208.492188 139.421875 208.335938 139.132812 208.207031 138.824219 C 208.078125 138.519531 207.984375 138.203125 207.917969 137.878906 C 207.851562 137.550781 207.820312 137.222656 207.820312 136.890625 C 207.820312 136.5625 207.851562 136.230469 207.917969 135.90625 C 207.984375 135.582031 208.078125 135.265625 208.207031 134.960938 C 208.335938 134.652344 208.492188 134.363281 208.675781 134.085938 C 208.859375 133.808594 209.070312 133.554688 209.308594 133.320312 C 209.542969 133.085938 209.796875 132.878906 210.074219 132.691406 C 210.351562 132.507812 210.644531 132.351562 210.953125 132.226562 C 211.261719 132.097656 211.578125 132.003906 211.90625 131.9375 C 212.230469 131.875 212.5625 131.839844 212.894531 131.839844 C 213.226562 131.839844 213.558594 131.875 213.882812 131.9375 C 214.210938 132.003906 214.527344 132.097656 214.835938 132.226562 C 215.144531 132.351562 215.4375 132.507812 215.710938 132.691406 C 215.988281 132.878906 216.246094 133.085938 216.480469 133.320312 C 216.71875 133.554688 216.925781 133.808594 217.113281 134.085938 C 217.296875 134.363281 217.453125 134.652344 217.582031 134.960938 C 217.707031 135.265625 217.804688 135.582031 217.871094 135.90625 C 217.933594 136.230469 217.96875 136.5625 217.96875 136.890625 Z M 217.96875 136.890625 " fill-opacity="1" fill-rule="nonzero"/><path fill="#3a322b" d="M 167.238281 136.890625 C 167.238281 137.222656 167.203125 137.550781 167.140625 137.878906 C 167.074219 138.203125 166.980469 138.519531 166.851562 138.824219 C 166.722656 139.132812 166.566406 139.421875 166.382812 139.699219 C 166.199219 139.972656 165.988281 140.230469 165.75 140.464844 C 165.515625 140.699219 165.261719 140.90625 164.984375 141.089844 C 164.707031 141.277344 164.414062 141.429688 164.105469 141.558594 C 163.796875 141.683594 163.480469 141.78125 163.152344 141.847656 C 162.828125 141.910156 162.496094 141.941406 162.164062 141.941406 C 161.832031 141.941406 161.5 141.910156 161.175781 141.847656 C 160.847656 141.78125 160.53125 141.683594 160.222656 141.558594 C 159.914062 141.429688 159.621094 141.277344 159.347656 141.089844 C 159.070312 140.90625 158.8125 140.699219 158.578125 140.464844 C 158.339844 140.230469 158.132812 139.972656 157.945312 139.699219 C 157.761719 139.421875 157.605469 139.132812 157.476562 138.824219 C 157.351562 138.519531 157.253906 138.203125 157.1875 137.878906 C 157.125 137.550781 157.089844 137.222656 157.089844 136.890625 C 157.089844 136.5625 157.125 136.230469 157.1875 135.90625 C 157.253906 135.582031 157.351562 135.265625 157.476562 134.960938 C 157.605469 134.652344 157.761719 134.363281 157.945312 134.085938 C 158.132812 133.808594 158.339844 133.554688 158.578125 133.320312 C 158.8125 133.085938 159.070312 132.878906 159.347656 132.691406 C 159.621094 132.507812 159.914062 132.351562 160.222656 132.226562 C 160.53125 132.097656 160.847656 132.003906 161.175781 131.9375 C 161.5 131.875 161.832031 131.839844 162.164062 131.839844 C 162.496094 131.839844 162.828125 131.875 163.152344 131.9375 C 163.480469 132.003906 163.796875 132.097656 164.105469 132.226562 C 164.414062 132.351562 164.707031 132.507812 164.984375 132.691406 C 165.261719 132.878906 165.515625 133.085938 165.75 133.320312 C 165.988281 133.554688 166.199219 133.808594 166.382812 134.085938 C 166.566406 134.363281 166.722656 134.652344 166.851562 134.960938 C 166.980469 135.265625 167.074219 135.582031 167.140625 135.90625 C 167.203125 136.230469 167.238281 136.5625 167.238281 136.890625 Z M 167.238281 136.890625 " fill-opacity="1" fill-rule="nonzero"/><path fill="#3a322b" d="M 187.429688 149.53125 C 187.441406 149.53125 187.453125 149.53125 187.464844 149.53125 L 187.589844 149.53125 C 187.601562 149.53125 187.613281 149.53125 187.625 149.53125 C 195.660156 149.53125 201.058594 144.40625 201.285156 144.1875 C 202.316406 143.1875 202.34375 141.546875 201.351562 140.507812 C 200.359375 139.46875 198.707031 139.433594 197.664062 140.421875 C 197.625 140.460938 193.496094 144.308594 187.621094 144.308594 C 187.613281 144.308594 187.605469 144.308594 187.597656 144.308594 L 187.460938 144.308594 C 187.453125 144.308594 187.445312 144.308594 187.4375 144.308594 C 181.59375 144.308594 177.476562 140.5 177.394531 140.421875 C 176.359375 139.425781 174.710938 139.460938 173.710938 140.492188 C 172.710938 141.53125 172.738281 143.183594 173.777344 144.1875 C 174 144.40625 179.398438 149.53125 187.429688 149.53125 Z M 187.429688 149.53125 " fill-opacity="1" fill-rule="nonzero"/></svg>