<svg xmlns="http://www.w3.org/2000/svg" xmlns:xlink="http://www.w3.org/1999/xlink" width="500" zoomAndPan="magnify" viewBox="0 0 375 374.999991" height="500" preserveAspectRatio="xMidYMid meet" version="1.0"><defs><clipPath id="1ec176c9bc"><path d="M 158 37.5 L 183 37.5 L 183 62 L 158 62 Z M 158 37.5 " clip-rule="nonzero"/></clipPath></defs><path fill="#f63845" d="M 122.71875 318.179688 C 114.074219 322.714844 97.308594 334.769531 107.523438 343.152344 C 117.738281 351.535156 162.015625 334.160156 166.203125 330.667969 C 170.398438 327.171875 164.632812 317.253906 164.632812 317.253906 Z M 122.71875 318.179688 " fill-opacity="1" fill-rule="nonzero"/><path fill="#f63845" d="M 257.683594 322.203125 C 266.328125 326.742188 283.09375 338.796875 272.878906 347.179688 C 262.664062 355.5625 218.386719 338.183594 214.199219 334.695312 C 210.003906 331.199219 215.769531 321.28125 215.769531 321.28125 Z M 257.683594 322.203125 " fill-opacity="1" fill-rule="nonzero"/><path fill="#fda769" d="M 173.9375 119.949219 C 174.683594 119.535156 208.234375 80.023438 208.234375 80.023438 L 220.105469 128.28125 Z M 173.9375 119.949219 " fill-opacity="1" fill-rule="nonzero"/><path fill="#fda769" d="M 119.578125 311.976562 C 110.671875 318.527344 115.914062 326.125 130.316406 319.050781 C 131.625 332.152344 148.394531 326.941406 152.585938 320.097656 C 160.707031 329.789062 177.996094 322.191406 166.207031 311.714844 C 166.207031 311.714844 125.867188 305.949219 119.578125 311.976562 Z M 119.578125 311.976562 " fill-opacity="1" fill-rule="nonzero"/><path fill="#fda769" d="M 252.222656 313.285156 C 269.867188 318.179688 262.234375 329.558594 248.171875 321.824219 C 246.253906 334.851562 229.089844 331.964844 225.222656 324.941406 C 216.660156 334.246094 199.746094 325.851562 212.003906 315.933594 C 212.003906 315.929688 246.226562 306.972656 252.222656 313.285156 Z M 252.222656 313.285156 " fill-opacity="1" fill-rule="nonzero"/><path fill="#7668d2" d="M 229.011719 176.804688 C 229.238281 177.03125 244.867188 186.542969 248.035156 187.90625 C 254.375 177.941406 264.949219 173.042969 275.886719 179.980469 C 297.707031 193.808594 289.519531 219.84375 271.417969 230.058594 C 253.769531 240.015625 239.128906 228 239.128906 228 C 239.128906 228 240.953125 244.105469 238.917969 251.578125 C 255.421875 259.699219 270.808594 289.214844 257.289062 315.175781 C 247.144531 321.992188 217.550781 318.265625 211.523438 316.433594 C 214.40625 304.648438 210.234375 285.699219 189.273438 284.914062 C 168.316406 284.128906 166.203125 311.722656 166.203125 311.722656 C 148.390625 316.175781 119.570312 311.984375 119.570312 311.984375 C 113.804688 286.3125 120.828125 260.160156 136.023438 252.480469 C 134.191406 245.855469 133.667969 232.488281 136.023438 226.992188 C 125.808594 235.375 105.820312 230.0625 96.054688 217.492188 C 87.421875 206.378906 91.039062 192.332031 100.179688 183.84375 C 112.671875 172.246094 124.019531 180.214844 127.683594 186.503906 C 139.210938 173.664062 159.644531 171.308594 161.476562 171.046875 Z M 229.011719 176.804688 " fill-opacity="1" fill-rule="nonzero"/><path fill="#f63845" d="M 138.53125 120.601562 C 139.757812 121.050781 140.824219 121.742188 141.703125 122.597656 C 143.246094 119.71875 146.328125 117.792969 149.816406 117.898438 C 152.660156 117.984375 155.144531 119.398438 156.714844 121.519531 C 159.703125 119.292969 163.710938 118.5625 167.46875 119.929688 C 173.414062 122.085938 176.484375 128.65625 174.324219 134.601562 C 173.164062 137.804688 170.714844 140.160156 167.785156 141.324219 C 168.8125 144.011719 168.925781 147.058594 167.871094 149.96875 C 165.542969 156.402344 158.4375 159.71875 152.011719 157.386719 C 147.804688 155.859375 144.941406 152.289062 144.109375 148.199219 C 143.054688 148.28125 141.96875 148.148438 140.917969 147.761719 C 136.933594 146.316406 134.878906 141.917969 136.324219 137.933594 C 136.335938 137.898438 136.355469 137.859375 136.375 137.824219 C 135.089844 137.953125 133.757812 137.808594 132.460938 137.34375 C 127.835938 135.664062 125.449219 130.554688 127.125 125.929688 C 128.792969 121.3125 133.90625 118.925781 138.53125 120.601562 Z M 138.53125 120.601562 " fill-opacity="1" fill-rule="nonzero"/><path fill="#fda769" d="M 191.320312 190.480469 L 200.992188 207.402344 L 191.257812 225.621094 L 183.285156 207.4375 Z M 191.320312 190.480469 " fill-opacity="1" fill-rule="nonzero"/><path fill="#ffffff" d="M 156.105469 177.929688 L 157.632812 197.363281 L 141.054688 209.683594 L 141.609375 189.839844 Z M 156.105469 177.929688 " fill-opacity="1" fill-rule="nonzero"/><path fill="#fda769" d="M 126.582031 219.640625 L 110.945312 213.785156 L 107.398438 196.453125 L 122.59375 204.074219 Z M 126.582031 219.640625 " fill-opacity="1" fill-rule="nonzero"/><path fill="#fda769" d="M 148.613281 169.558594 C 142.722656 178.84375 145.21875 193.109375 164.695312 183.601562 C 162.65625 199.679688 178.734375 200.136719 183.492188 190.847656 C 189.148438 203.308594 201.152344 200.8125 203.191406 190.167969 C 217.234375 200.359375 225.03125 192.1875 222.152344 184.386719 C 232.402344 188.132812 236.929688 182.921875 234.554688 174.542969 C 221.988281 170.011719 168.320312 166.617188 148.613281 169.558594 Z M 148.613281 169.558594 " fill-opacity="1" fill-rule="nonzero"/><path fill="#ffffff" d="M 227.609375 149.347656 C 227.609375 150.46875 227.554688 151.585938 227.441406 152.703125 C 227.328125 153.820312 227.15625 154.929688 226.929688 156.027344 C 226.703125 157.128906 226.421875 158.214844 226.082031 159.289062 C 225.746094 160.363281 225.355469 161.417969 224.910156 162.453125 C 224.464844 163.492188 223.96875 164.503906 223.421875 165.492188 C 222.875 166.484375 222.277344 167.445312 221.632812 168.375 C 220.988281 169.308594 220.296875 170.210938 219.558594 171.078125 C 218.824219 171.945312 218.042969 172.773438 217.222656 173.566406 C 216.402344 174.359375 215.542969 175.113281 214.644531 175.824219 C 213.746094 176.535156 212.8125 177.203125 211.847656 177.828125 C 210.882812 178.449219 209.886719 179.027344 208.863281 179.554688 C 207.835938 180.085938 206.789062 180.5625 205.714844 180.992188 C 204.640625 181.421875 203.550781 181.800781 202.4375 182.125 C 201.328125 182.449219 200.199219 182.722656 199.0625 182.941406 C 197.921875 183.160156 196.773438 183.324219 195.617188 183.433594 C 194.460938 183.546875 193.304688 183.601562 192.140625 183.601562 C 190.980469 183.601562 189.820312 183.546875 188.664062 183.433594 C 187.507812 183.324219 186.363281 183.160156 185.222656 182.941406 C 184.082031 182.722656 182.957031 182.449219 181.847656 182.125 C 180.734375 181.800781 179.640625 181.421875 178.570312 180.992188 C 177.496094 180.5625 176.445312 180.085938 175.421875 179.554688 C 174.398438 179.027344 173.402344 178.449219 172.4375 177.828125 C 171.46875 177.203125 170.539062 176.535156 169.640625 175.824219 C 168.742188 175.113281 167.882812 174.359375 167.0625 173.566406 C 166.238281 172.773438 165.460938 171.945312 164.722656 171.078125 C 163.988281 170.210938 163.296875 169.308594 162.652344 168.375 C 162.003906 167.445312 161.410156 166.484375 160.859375 165.492188 C 160.3125 164.503906 159.816406 163.492188 159.371094 162.453125 C 158.929688 161.417969 158.539062 160.363281 158.199219 159.289062 C 157.863281 158.214844 157.582031 157.128906 157.355469 156.027344 C 157.128906 154.929688 156.957031 153.820312 156.84375 152.703125 C 156.730469 151.585938 156.671875 150.46875 156.671875 149.347656 C 156.671875 148.222656 156.730469 147.105469 156.84375 145.988281 C 156.957031 144.871094 157.128906 143.765625 157.355469 142.664062 C 157.582031 141.5625 157.863281 140.476562 158.199219 139.402344 C 158.539062 138.328125 158.929688 137.273438 159.371094 136.238281 C 159.816406 135.203125 160.3125 134.1875 160.859375 133.199219 C 161.410156 132.210938 162.003906 131.25 162.652344 130.316406 C 163.296875 129.382812 163.988281 128.484375 164.722656 127.617188 C 165.460938 126.75 166.238281 125.917969 167.0625 125.125 C 167.882812 124.332031 168.742188 123.578125 169.640625 122.867188 C 170.539062 122.15625 171.46875 121.488281 172.4375 120.867188 C 173.402344 120.242188 174.398438 119.664062 175.421875 119.136719 C 176.445312 118.609375 177.496094 118.128906 178.570312 117.699219 C 179.640625 117.269531 180.734375 116.894531 181.847656 116.566406 C 182.957031 116.242188 184.082031 115.96875 185.222656 115.75 C 186.363281 115.53125 187.507812 115.367188 188.664062 115.257812 C 189.820312 115.148438 190.980469 115.09375 192.140625 115.09375 C 193.304688 115.09375 194.460938 115.148438 195.617188 115.257812 C 196.773438 115.367188 197.921875 115.53125 199.0625 115.75 C 200.199219 115.96875 201.328125 116.242188 202.4375 116.566406 C 203.550781 116.894531 204.640625 117.269531 205.714844 117.699219 C 206.789062 118.128906 207.835938 118.609375 208.863281 119.136719 C 209.886719 119.664062 210.882812 120.242188 211.847656 120.867188 C 212.8125 121.488281 213.746094 122.15625 214.644531 122.867188 C 215.542969 123.578125 216.402344 124.332031 217.222656 125.125 C 218.042969 125.917969 218.824219 126.75 219.558594 127.617188 C 220.296875 128.484375 220.988281 129.382812 221.632812 130.316406 C 222.277344 131.25 222.875 132.210938 223.421875 133.199219 C 223.96875 134.1875 224.464844 135.203125 224.910156 136.238281 C 225.355469 137.273438 225.746094 138.328125 226.082031 139.402344 C 226.421875 140.476562 226.703125 141.5625 226.929688 142.664062 C 227.15625 143.765625 227.328125 144.871094 227.441406 145.988281 C 227.554688 147.105469 227.609375 148.222656 227.609375 149.347656 Z M 227.609375 149.347656 " fill-opacity="1" fill-rule="nonzero"/><path fill="#f63845" d="M 256.835938 131.671875 C 255.527344 131.671875 254.292969 131.957031 253.171875 132.460938 C 252.695312 129.226562 250.464844 126.367188 247.144531 125.277344 C 244.4375 124.386719 241.621094 124.863281 239.421875 126.328125 C 237.371094 123.21875 233.855469 121.167969 229.855469 121.167969 C 223.527344 121.167969 218.40625 126.296875 218.40625 132.617188 C 218.40625 136.019531 219.902344 139.074219 222.257812 141.167969 C 220.375 143.34375 219.226562 146.167969 219.226562 149.265625 C 219.226562 156.101562 224.773438 161.648438 231.613281 161.648438 C 236.085938 161.648438 239.996094 159.269531 242.171875 155.710938 C 243.128906 156.144531 244.195312 156.390625 245.316406 156.390625 C 249.554688 156.390625 252.988281 152.953125 252.988281 148.714844 C 252.988281 148.671875 252.984375 148.636719 252.984375 148.59375 C 254.148438 149.152344 255.445312 149.472656 256.824219 149.472656 C 261.738281 149.472656 265.730469 145.480469 265.730469 140.566406 C 265.730469 135.648438 261.753906 131.671875 256.835938 131.671875 Z M 256.835938 131.671875 " fill-opacity="1" fill-rule="nonzero"/><path fill="#f63845" d="M 208.234375 80.023438 C 193.4375 80.84375 192.066406 62.484375 205.492188 70.15625 C 200.289062 51.796875 220.101562 54.539062 216.667969 68.679688 C 228.117188 56.183594 229.875 82.757812 208.234375 80.023438 Z M 208.234375 80.023438 " fill-opacity="1" fill-rule="nonzero"/><path fill="#7668d2" d="M 113.550781 131.738281 C 113.550781 132.53125 113.472656 133.3125 113.320312 134.089844 C 113.164062 134.867188 112.9375 135.617188 112.632812 136.351562 C 112.332031 137.082031 111.960938 137.773438 111.519531 138.433594 C 111.082031 139.089844 110.582031 139.699219 110.023438 140.257812 C 109.460938 140.816406 108.855469 141.316406 108.195312 141.757812 C 107.539062 142.195312 106.84375 142.566406 106.113281 142.871094 C 105.382812 143.171875 104.628906 143.402344 103.851562 143.554688 C 103.078125 143.710938 102.292969 143.785156 101.503906 143.785156 C 100.710938 143.785156 99.929688 143.710938 99.152344 143.554688 C 98.375 143.402344 97.625 143.171875 96.890625 142.871094 C 96.160156 142.566406 95.46875 142.195312 94.808594 141.757812 C 94.152344 141.316406 93.542969 140.816406 92.984375 140.257812 C 92.425781 139.699219 91.925781 139.089844 91.484375 138.433594 C 91.046875 137.773438 90.675781 137.082031 90.371094 136.351562 C 90.070312 135.617188 89.839844 134.867188 89.6875 134.089844 C 89.53125 133.3125 89.457031 132.53125 89.457031 131.738281 C 89.457031 130.949219 89.53125 130.164062 89.6875 129.390625 C 89.839844 128.613281 90.070312 127.859375 90.371094 127.128906 C 90.675781 126.398438 91.046875 125.703125 91.484375 125.046875 C 91.925781 124.386719 92.425781 123.78125 92.984375 123.21875 C 93.542969 122.660156 94.152344 122.160156 94.808594 121.722656 C 95.46875 121.28125 96.160156 120.910156 96.890625 120.609375 C 97.625 120.304688 98.375 120.078125 99.152344 119.921875 C 99.929688 119.769531 100.710938 119.691406 101.503906 119.691406 C 102.292969 119.691406 103.078125 119.769531 103.851562 119.921875 C 104.628906 120.078125 105.382812 120.304688 106.113281 120.609375 C 106.84375 120.910156 107.539062 121.28125 108.195312 121.722656 C 108.855469 122.160156 109.460938 122.660156 110.023438 123.21875 C 110.582031 123.78125 111.082031 124.386719 111.519531 125.046875 C 111.960938 125.703125 112.332031 126.398438 112.632812 127.128906 C 112.9375 127.859375 113.164062 128.613281 113.320312 129.390625 C 113.472656 130.164062 113.550781 130.949219 113.550781 131.738281 Z M 113.550781 131.738281 " fill-opacity="1" fill-rule="nonzero"/><g clip-path="url(#1ec176c9bc)"><path fill="#f63845" d="M 182.769531 49.855469 C 182.769531 50.648438 182.691406 51.429688 182.535156 52.207031 C 182.382812 52.984375 182.152344 53.738281 181.851562 54.46875 C 181.546875 55.199219 181.175781 55.890625 180.738281 56.550781 C 180.296875 57.207031 179.800781 57.816406 179.238281 58.375 C 178.679688 58.933594 178.070312 59.433594 177.414062 59.875 C 176.757812 60.3125 176.0625 60.683594 175.332031 60.988281 C 174.601562 61.289062 173.847656 61.519531 173.070312 61.671875 C 172.296875 61.828125 171.511719 61.90625 170.722656 61.90625 C 169.929688 61.90625 169.144531 61.828125 168.371094 61.671875 C 167.59375 61.519531 166.839844 61.289062 166.109375 60.988281 C 165.378906 60.683594 164.683594 60.3125 164.027344 59.875 C 163.371094 59.433594 162.761719 58.933594 162.203125 58.375 C 161.644531 57.816406 161.144531 57.207031 160.703125 56.550781 C 160.265625 55.890625 159.894531 55.199219 159.589844 54.46875 C 159.289062 53.738281 159.058594 52.984375 158.90625 52.207031 C 158.75 51.429688 158.671875 50.648438 158.671875 49.855469 C 158.671875 49.066406 158.75 48.28125 158.90625 47.507812 C 159.058594 46.730469 159.289062 45.976562 159.589844 45.246094 C 159.894531 44.515625 160.265625 43.820312 160.703125 43.164062 C 161.144531 42.507812 161.644531 41.898438 162.203125 41.339844 C 162.761719 40.777344 163.371094 40.28125 164.027344 39.839844 C 164.683594 39.402344 165.378906 39.03125 166.109375 38.726562 C 166.839844 38.425781 167.59375 38.195312 168.371094 38.042969 C 169.144531 37.886719 169.929688 37.808594 170.722656 37.808594 C 171.511719 37.808594 172.296875 37.886719 173.070312 38.042969 C 173.847656 38.195312 174.601562 38.425781 175.332031 38.726562 C 176.0625 39.03125 176.757812 39.402344 177.414062 39.839844 C 178.070312 40.28125 178.679688 40.777344 179.238281 41.339844 C 179.800781 41.898438 180.296875 42.507812 180.738281 43.164062 C 181.175781 43.820312 181.546875 44.515625 181.851562 45.246094 C 182.152344 45.976562 182.382812 46.730469 182.535156 47.507812 C 182.691406 48.28125 182.769531 49.066406 182.769531 49.855469 Z M 182.769531 49.855469 " fill-opacity="1" fill-rule="nonzero"/></g><path fill="#fda769" d="M 288.121094 98.527344 C 288.121094 99.316406 288.046875 100.101562 287.890625 100.875 C 287.738281 101.652344 287.507812 102.40625 287.207031 103.136719 C 286.902344 103.867188 286.53125 104.5625 286.09375 105.21875 C 285.652344 105.878906 285.152344 106.484375 284.59375 107.046875 C 284.035156 107.605469 283.425781 108.105469 282.769531 108.542969 C 282.109375 108.984375 281.417969 109.355469 280.683594 109.65625 C 279.953125 109.960938 279.199219 110.1875 278.425781 110.34375 C 277.648438 110.496094 276.867188 110.574219 276.074219 110.574219 C 275.285156 110.574219 274.5 110.496094 273.722656 110.34375 C 272.949219 110.1875 272.195312 109.960938 271.464844 109.65625 C 270.734375 109.355469 270.039062 108.984375 269.382812 108.542969 C 268.722656 108.105469 268.117188 107.605469 267.554688 107.046875 C 266.996094 106.484375 266.496094 105.878906 266.058594 105.21875 C 265.617188 104.5625 265.246094 103.867188 264.945312 103.136719 C 264.640625 102.40625 264.414062 101.652344 264.257812 100.875 C 264.105469 100.101562 264.027344 99.316406 264.027344 98.527344 C 264.027344 97.734375 264.105469 96.953125 264.257812 96.175781 C 264.414062 95.398438 264.640625 94.648438 264.945312 93.917969 C 265.246094 93.183594 265.617188 92.492188 266.058594 91.832031 C 266.496094 91.175781 266.996094 90.566406 267.554688 90.007812 C 268.117188 89.449219 268.722656 88.949219 269.382812 88.507812 C 270.039062 88.070312 270.734375 87.699219 271.464844 87.394531 C 272.195312 87.09375 272.949219 86.863281 273.722656 86.710938 C 274.5 86.554688 275.285156 86.480469 276.074219 86.480469 C 276.867188 86.480469 277.648438 86.554688 278.425781 86.710938 C 279.199219 86.863281 279.953125 87.09375 280.683594 87.394531 C 281.417969 87.699219 282.109375 88.070312 282.769531 88.507812 C 283.425781 88.949219 284.035156 89.449219 284.59375 90.007812 C 285.152344 90.566406 285.652344 91.175781 286.09375 91.832031 C 286.53125 92.492188 286.902344 93.183594 287.207031 93.917969 C 287.507812 94.648438 287.738281 95.398438 287.890625 96.175781 C 288.046875 96.953125 288.121094 97.734375 288.121094 98.527344 Z M 288.121094 98.527344 " fill-opacity="1" fill-rule="nonzero"/><path fill="#fda769" d="M 273.113281 186.367188 C 262.648438 176.027344 262.371094 164.167969 266.851562 160.859375 C 271.332031 157.546875 275.789062 169.183594 275.789062 169.183594 C 287.082031 151.601562 302.539062 154.867188 290.945312 167.359375 C 305.210938 160.519531 305.703125 173.003906 295.058594 176.867188 C 305.808594 174.417969 308.484375 183.667969 292.433594 189.242188 C 287.019531 191.121094 278.167969 191.351562 273.113281 186.367188 Z M 273.113281 186.367188 " fill-opacity="1" fill-rule="nonzero"/><path fill="#fda769" d="M 101.882812 189.695312 C 112.347656 179.355469 112.628906 167.496094 108.148438 164.1875 C 103.664062 160.875 99.210938 172.511719 99.210938 172.511719 C 87.914062 154.929688 72.460938 158.195312 84.050781 170.6875 C 69.785156 163.847656 69.292969 176.332031 79.9375 180.195312 C 69.1875 177.746094 66.511719 186.996094 82.5625 192.570312 C 87.984375 194.449219 96.828125 194.6875 101.882812 189.695312 Z M 101.882812 189.695312 " fill-opacity="1" fill-rule="nonzero"/><path fill="#f63845" d="M 185.964844 166.679688 C 185.820312 166.679688 185.679688 166.679688 185.535156 166.671875 C 180.707031 166.472656 177.207031 163.320312 176.417969 158.4375 C 176.28125 157.59375 176.855469 156.789062 177.707031 156.652344 C 178.5625 156.507812 179.359375 157.085938 179.496094 157.941406 C 180.289062 162.816406 184.078125 163.492188 185.667969 163.554688 C 188.976562 163.679688 193.015625 161.722656 193.980469 157.816406 C 194.1875 156.980469 195.035156 156.46875 195.867188 156.675781 C 196.703125 156.882812 197.214844 157.730469 197.007812 158.5625 C 195.683594 163.90625 190.414062 166.679688 185.964844 166.679688 Z M 185.964844 166.679688 " fill-opacity="1" fill-rule="nonzero"/><path fill="#fda769" d="M 216.667969 151.027344 C 216.667969 151.554688 216.617188 152.070312 216.511719 152.585938 C 216.410156 153.097656 216.261719 153.597656 216.058594 154.082031 C 215.859375 154.566406 215.613281 155.027344 215.324219 155.460938 C 215.03125 155.898438 214.699219 156.300781 214.332031 156.671875 C 213.960938 157.039062 213.558594 157.371094 213.121094 157.664062 C 212.6875 157.953125 212.226562 158.199219 211.742188 158.398438 C 211.257812 158.601562 210.757812 158.75 210.246094 158.851562 C 209.730469 158.957031 209.214844 159.007812 208.6875 159.007812 C 208.164062 159.007812 207.648438 158.957031 207.132812 158.851562 C 206.617188 158.75 206.121094 158.601562 205.636719 158.398438 C 205.152344 158.199219 204.691406 157.953125 204.257812 157.664062 C 203.820312 157.371094 203.417969 157.039062 203.046875 156.671875 C 202.679688 156.300781 202.347656 155.898438 202.054688 155.460938 C 201.765625 155.027344 201.519531 154.566406 201.320312 154.082031 C 201.117188 153.597656 200.96875 153.097656 200.863281 152.585938 C 200.761719 152.070312 200.710938 151.554688 200.710938 151.027344 C 200.710938 150.503906 200.761719 149.988281 200.863281 149.472656 C 200.96875 148.957031 201.117188 148.460938 201.320312 147.976562 C 201.519531 147.492188 201.765625 147.03125 202.054688 146.597656 C 202.347656 146.160156 202.679688 145.757812 203.046875 145.386719 C 203.417969 145.019531 203.820312 144.6875 204.257812 144.394531 C 204.691406 144.105469 205.152344 143.859375 205.636719 143.660156 C 206.121094 143.457031 206.617188 143.308594 207.132812 143.203125 C 207.648438 143.101562 208.164062 143.050781 208.6875 143.050781 C 209.214844 143.050781 209.730469 143.101562 210.246094 143.203125 C 210.757812 143.308594 211.257812 143.457031 211.742188 143.660156 C 212.226562 143.859375 212.6875 144.105469 213.121094 144.394531 C 213.558594 144.6875 213.960938 145.019531 214.332031 145.386719 C 214.699219 145.757812 215.03125 146.160156 215.324219 146.597656 C 215.613281 147.03125 215.859375 147.492188 216.058594 147.976562 C 216.261719 148.460938 216.410156 148.957031 216.511719 149.472656 C 216.617188 149.988281 216.667969 150.503906 216.667969 151.027344 Z M 216.667969 151.027344 " fill-opacity="1" fill-rule="nonzero"/><path fill="#f63845" d="M 194.222656 148.792969 C 194.222656 149.285156 194.175781 149.773438 194.078125 150.253906 C 193.984375 150.738281 193.839844 151.207031 193.652344 151.664062 C 193.464844 152.117188 193.234375 152.550781 192.957031 152.960938 C 192.683594 153.371094 192.375 153.75 192.027344 154.097656 C 191.675781 154.445312 191.296875 154.757812 190.886719 155.03125 C 190.480469 155.304688 190.046875 155.535156 189.589844 155.722656 C 189.136719 155.914062 188.667969 156.054688 188.183594 156.152344 C 187.699219 156.246094 187.210938 156.296875 186.71875 156.296875 C 186.226562 156.296875 185.738281 156.246094 185.253906 156.152344 C 184.773438 156.054688 184.304688 155.914062 183.847656 155.722656 C 183.394531 155.535156 182.960938 155.304688 182.550781 155.03125 C 182.140625 154.757812 181.761719 154.445312 181.414062 154.097656 C 181.066406 153.75 180.753906 153.371094 180.480469 152.960938 C 180.207031 152.550781 179.976562 152.117188 179.785156 151.664062 C 179.597656 151.207031 179.457031 150.738281 179.359375 150.253906 C 179.265625 149.773438 179.214844 149.285156 179.214844 148.792969 C 179.214844 148.300781 179.265625 147.8125 179.359375 147.328125 C 179.457031 146.84375 179.597656 146.375 179.785156 145.917969 C 179.976562 145.464844 180.207031 145.03125 180.480469 144.621094 C 180.753906 144.214844 181.066406 143.832031 181.414062 143.484375 C 181.761719 143.136719 182.140625 142.824219 182.550781 142.550781 C 182.960938 142.277344 183.394531 142.046875 183.847656 141.859375 C 184.304688 141.671875 184.773438 141.527344 185.253906 141.433594 C 185.738281 141.335938 186.226562 141.289062 186.71875 141.289062 C 187.210938 141.289062 187.699219 141.335938 188.183594 141.433594 C 188.667969 141.527344 189.136719 141.671875 189.589844 141.859375 C 190.046875 142.046875 190.480469 142.277344 190.886719 142.550781 C 191.296875 142.824219 191.675781 143.136719 192.027344 143.484375 C 192.375 143.832031 192.683594 144.214844 192.957031 144.621094 C 193.234375 145.03125 193.464844 145.464844 193.652344 145.917969 C 193.839844 146.375 193.984375 146.84375 194.078125 147.328125 C 194.175781 147.8125 194.222656 148.300781 194.222656 148.792969 Z M 194.222656 148.792969 " fill-opacity="1" fill-rule="nonzero"/><path fill="#7668d2" d="M 180.644531 139.898438 C 180.644531 140.226562 180.578125 140.546875 180.453125 140.851562 C 180.328125 141.15625 180.148438 141.425781 179.914062 141.660156 C 179.679688 141.894531 179.410156 142.074219 179.105469 142.199219 C 178.796875 142.328125 178.480469 142.390625 178.148438 142.390625 C 177.820312 142.390625 177.5 142.328125 177.195312 142.199219 C 176.890625 142.074219 176.621094 141.894531 176.386719 141.660156 C 176.152344 141.425781 175.972656 141.15625 175.847656 140.851562 C 175.71875 140.546875 175.65625 140.226562 175.65625 139.898438 C 175.65625 139.566406 175.71875 139.25 175.847656 138.945312 C 175.972656 138.636719 176.152344 138.367188 176.386719 138.136719 C 176.621094 137.902344 176.890625 137.722656 177.195312 137.59375 C 177.5 137.46875 177.820312 137.40625 178.148438 137.40625 C 178.480469 137.40625 178.796875 137.46875 179.105469 137.59375 C 179.410156 137.722656 179.679688 137.902344 179.914062 138.136719 C 180.148438 138.367188 180.328125 138.636719 180.453125 138.945312 C 180.578125 139.25 180.644531 139.566406 180.644531 139.898438 Z M 180.644531 139.898438 " fill-opacity="1" fill-rule="nonzero"/><path fill="#7668d2" d="M 198.441406 139.898438 C 198.441406 140.226562 198.378906 140.546875 198.253906 140.851562 C 198.125 141.15625 197.945312 141.425781 197.710938 141.660156 C 197.480469 141.894531 197.210938 142.074219 196.902344 142.199219 C 196.597656 142.328125 196.28125 142.390625 195.949219 142.390625 C 195.621094 142.390625 195.300781 142.328125 194.996094 142.199219 C 194.691406 142.074219 194.421875 141.894531 194.1875 141.660156 C 193.953125 141.425781 193.773438 141.15625 193.648438 140.851562 C 193.519531 140.546875 193.457031 140.226562 193.457031 139.898438 C 193.457031 139.566406 193.519531 139.25 193.648438 138.945312 C 193.773438 138.636719 193.953125 138.367188 194.1875 138.136719 C 194.421875 137.902344 194.691406 137.722656 194.996094 137.59375 C 195.300781 137.46875 195.621094 137.40625 195.949219 137.40625 C 196.28125 137.40625 196.597656 137.46875 196.902344 137.59375 C 197.210938 137.722656 197.480469 137.902344 197.710938 138.136719 C 197.945312 138.367188 198.125 138.636719 198.253906 138.945312 C 198.378906 139.25 198.441406 139.566406 198.441406 139.898438 Z M 198.441406 139.898438 " fill-opacity="1" fill-rule="nonzero"/><path fill="#fda769" d="M 173.820312 151.027344 C 173.820312 151.554688 173.765625 152.070312 173.664062 152.585938 C 173.5625 153.097656 173.410156 153.597656 173.210938 154.082031 C 173.011719 154.566406 172.765625 155.027344 172.472656 155.460938 C 172.183594 155.898438 171.851562 156.300781 171.480469 156.671875 C 171.113281 157.039062 170.707031 157.371094 170.273438 157.664062 C 169.835938 157.953125 169.378906 158.199219 168.894531 158.398438 C 168.410156 158.601562 167.910156 158.75 167.398438 158.851562 C 166.882812 158.957031 166.363281 159.007812 165.839844 159.007812 C 165.316406 159.007812 164.796875 158.957031 164.285156 158.851562 C 163.769531 158.75 163.273438 158.601562 162.789062 158.398438 C 162.304688 158.199219 161.84375 157.953125 161.410156 157.664062 C 160.972656 157.371094 160.570312 157.039062 160.199219 156.671875 C 159.828125 156.300781 159.5 155.898438 159.207031 155.460938 C 158.917969 155.027344 158.671875 154.566406 158.46875 154.082031 C 158.269531 153.597656 158.117188 153.097656 158.015625 152.585938 C 157.914062 152.070312 157.863281 151.554688 157.863281 151.027344 C 157.863281 150.503906 157.914062 149.988281 158.015625 149.472656 C 158.117188 148.957031 158.269531 148.460938 158.46875 147.976562 C 158.671875 147.492188 158.917969 147.03125 159.207031 146.597656 C 159.5 146.160156 159.828125 145.757812 160.199219 145.386719 C 160.570312 145.019531 160.972656 144.6875 161.410156 144.394531 C 161.84375 144.105469 162.304688 143.859375 162.789062 143.660156 C 163.273438 143.457031 163.769531 143.308594 164.285156 143.203125 C 164.796875 143.101562 165.316406 143.050781 165.839844 143.050781 C 166.363281 143.050781 166.882812 143.101562 167.398438 143.203125 C 167.910156 143.308594 168.410156 143.457031 168.894531 143.660156 C 169.378906 143.859375 169.835938 144.105469 170.273438 144.394531 C 170.707031 144.6875 171.113281 145.019531 171.480469 145.386719 C 171.851562 145.757812 172.183594 146.160156 172.472656 146.597656 C 172.765625 147.03125 173.011719 147.492188 173.210938 147.976562 C 173.410156 148.460938 173.5625 148.957031 173.664062 149.472656 C 173.765625 149.988281 173.820312 150.503906 173.820312 151.027344 Z M 173.820312 151.027344 " fill-opacity="1" fill-rule="nonzero"/><path fill="#fda769" d="M 162.574219 221.121094 L 149.34375 235.4375 L 154.734375 255.378906 L 166.589844 239.449219 Z M 162.574219 221.121094 " fill-opacity="1" fill-rule="nonzero"/><path fill="#ffffff" d="M 145.667969 269.789062 L 132.429688 284.105469 L 137.824219 304.042969 L 153.226562 288.050781 Z M 145.667969 269.789062 " fill-opacity="1" fill-rule="nonzero"/><path fill="#ffffff" d="M 232.539062 271.023438 L 224.589844 290.71875 L 241.242188 305.078125 L 247.03125 284.667969 Z M 232.539062 271.023438 " fill-opacity="1" fill-rule="nonzero"/><path fill="#ffffff" d="M 221.121094 208.050781 L 230.796875 224.972656 L 221.0625 243.195312 L 213.089844 225.007812 Z M 221.121094 208.050781 " fill-opacity="1" fill-rule="nonzero"/><path fill="#fda769" d="M 272.859375 193.808594 L 268.863281 212.886719 L 249.488281 220.046875 L 255.59375 201.164062 Z M 272.859375 193.808594 " fill-opacity="1" fill-rule="nonzero"/><path fill="#fda769" d="M 192.632812 243.789062 L 202.3125 260.714844 L 192.578125 278.933594 L 184.605469 260.753906 Z M 192.632812 243.789062 " fill-opacity="1" fill-rule="nonzero"/></svg>