<svg xmlns="http://www.w3.org/2000/svg" xmlns:xlink="http://www.w3.org/1999/xlink" width="500" zoomAndPan="magnify" viewBox="0 0 375 374.999991" height="500" preserveAspectRatio="xMidYMid meet" version="1.0"><defs><clipPath id="99cfa92eb8"><path d="M 26.554688 84.09375 L 348.101562 84.09375 L 348.101562 273.09375 L 26.554688 273.09375 Z M 26.554688 84.09375 " clip-rule="nonzero"/></clipPath><clipPath id="2383fbac91"><path d="M 26.554688 262 L 348.101562 262 L 348.101562 273.09375 L 26.554688 273.09375 Z M 26.554688 262 " clip-rule="nonzero"/></clipPath></defs><path fill="#23673a" d="M 335.5 263.398438 C 335.5 265.929688 333.464844 267.972656 330.941406 267.972656 L 43.714844 267.972656 C 41.195312 267.972656 39.160156 265.929688 39.160156 263.398438 L 39.160156 90.761719 C 39.160156 88.238281 41.195312 86.1875 43.714844 86.1875 L 330.941406 86.1875 C 333.464844 86.1875 335.5 88.238281 335.5 90.761719 L 335.5 263.398438 " fill-opacity="1" fill-rule="nonzero"/><g clip-path="url(#99cfa92eb8)"><path stroke-linecap="butt" transform="matrix(0.268849, 0, 0, -0.269231, 26.556122, 273.202981)" fill="none" stroke-linejoin="miter" d="M 1149.136927 36.416873 C 1149.136927 27.015088 1141.567031 19.426919 1132.18094 19.426919 L 63.822986 19.426919 C 54.451425 19.426919 46.881528 27.015088 46.881528 36.416873 L 46.881528 677.638906 C 46.881528 687.011673 54.451425 694.628859 63.822986 694.628859 L 1132.18094 694.628859 C 1141.567031 694.628859 1149.136927 687.011673 1149.136927 677.638906 Z M 1149.136927 36.416873 " stroke="#a37547" stroke-width="15.546" stroke-opacity="1" stroke-miterlimit="10"/></g><g clip-path="url(#2383fbac91)"><path fill="#a37547" d="M 342.882812 273.199219 L 31.785156 273.199219 C 28.898438 273.199219 26.554688 270.863281 26.554688 267.972656 C 26.554688 265.089844 28.898438 262.746094 31.785156 262.746094 L 342.882812 262.746094 C 345.761719 262.746094 348.101562 265.089844 348.101562 267.972656 C 348.101562 270.863281 345.761719 273.199219 342.882812 273.199219 " fill-opacity="1" fill-rule="nonzero"/></g><path fill="#f470a4" d="M 103.734375 262.746094 L 78.308594 262.746094 L 78.308594 256.464844 L 103.734375 256.464844 L 103.734375 262.746094 " fill-opacity="1" fill-rule="nonzero"/><path fill="#ffffff" d="M 72.617188 262.746094 L 51.960938 262.746094 L 51.960938 256.464844 L 72.617188 256.464844 L 72.617188 262.746094 " fill-opacity="1" fill-rule="nonzero"/><path fill="#bcaf8f" d="M 284.585938 254.5625 L 284.585938 259.632812 C 284.585938 261.347656 285.972656 262.746094 287.695312 262.746094 L 318.90625 262.746094 C 320.628906 262.746094 322.015625 261.347656 322.015625 259.632812 L 322.015625 254.5625 L 284.585938 254.5625 " fill-opacity="1" fill-rule="nonzero"/><path stroke-linecap="butt" transform="matrix(0.268849, 0, 0, -0.269231, 26.556122, 273.20295)" fill="none" stroke-linejoin="miter" d="M 979.330054 70.483726 L 979.330054 38.839752 " stroke="#6e6356" stroke-width="3.886" stroke-opacity="1" stroke-miterlimit="10"/><path stroke-linecap="butt" transform="matrix(0.268849, 0, 0, -0.269231, 26.556122, 273.20295)" fill="none" stroke-linejoin="miter" d="M 999.380835 70.483726 L 999.380835 38.839752 " stroke="#6e6356" stroke-width="3.886" stroke-opacity="1" stroke-miterlimit="10"/><path stroke-linecap="butt" transform="matrix(0.268849, 0, 0, -0.269231, 26.556122, 273.20295)" fill="none" stroke-linejoin="miter" d="M 1019.373499 70.483726 L 1019.373499 38.839752 " stroke="#6e6356" stroke-width="3.886" stroke-opacity="1" stroke-miterlimit="10"/><path stroke-linecap="butt" transform="matrix(0.268849, 0, 0, -0.269231, 26.556122, 273.20295)" fill="none" stroke-linejoin="miter" d="M 1039.409751 70.483726 L 1039.409751 38.839752 " stroke="#6e6356" stroke-width="3.886" stroke-opacity="1" stroke-miterlimit="10"/><path stroke-linecap="butt" transform="matrix(0.268849, 0, 0, -0.269231, 26.556122, 273.20295)" fill="none" stroke-linejoin="miter" d="M 1059.416944 70.483726 L 1059.416944 38.839752 " stroke="#6e6356" stroke-width="3.886" stroke-opacity="1" stroke-miterlimit="10"/><path stroke-linecap="butt" transform="matrix(0.268849, 0, 0, -0.269231, 26.556122, 273.20295)" fill="none" stroke-linejoin="miter" d="M 1079.409608 70.483726 L 1079.409608 38.839752 " stroke="#6e6356" stroke-width="3.886" stroke-opacity="1" stroke-miterlimit="10"/><path fill="#704725" d="M 325.890625 251.871094 C 325.890625 253.953125 324.199219 255.625 322.132812 255.625 L 284.472656 255.625 C 282.394531 255.625 280.722656 253.953125 280.722656 251.871094 L 280.722656 248.746094 C 280.722656 246.675781 282.394531 244.992188 284.472656 244.992188 L 322.132812 244.992188 C 324.199219 244.992188 325.890625 246.675781 325.890625 248.746094 L 325.890625 251.871094 " fill-opacity="1" fill-rule="nonzero"/></svg>