<svg xmlns="http://www.w3.org/2000/svg" xmlns:xlink="http://www.w3.org/1999/xlink" width="500" zoomAndPan="magnify" viewBox="0 0 375 374.999991" height="500" preserveAspectRatio="xMidYMid meet" version="1.0"><defs><clipPath id="d8991e3e49"><path d="M 61.230469 94 L 304 94 L 304 337.5 L 61.230469 337.5 Z M 61.230469 94 " clip-rule="nonzero"/></clipPath><clipPath id="e63bc855f3"><path d="M 62 126 L 304 126 L 304 337.5 L 62 337.5 Z M 62 126 " clip-rule="nonzero"/></clipPath><clipPath id="7d101af7d4"><path d="M 99 37.5 L 281 37.5 L 281 209 L 99 209 Z M 99 37.5 " clip-rule="nonzero"/></clipPath></defs><g clip-path="url(#d8991e3e49)"><path fill="#ff979f" d="M 303.941406 130.847656 L 303.941406 170.589844 L 295.066406 173.421875 L 295.066406 286.863281 L 262.378906 299.835938 L 261.675781 300.113281 C 261.707031 299.640625 261.722656 299.167969 261.722656 298.695312 C 261.726562 294.992188 258.636719 291.910156 254.941406 291.910156 C 252.996094 291.910156 251.230469 292.765625 249.984375 294.109375 C 249.832031 294.136719 249.683594 294.164062 249.535156 294.207031 C 249.339844 294.261719 249.148438 294.328125 248.960938 294.398438 C 247.15625 293.734375 245.105469 293.824219 243.285156 294.890625 C 241.875 295.714844 240.839844 297.0625 240.3125 298.578125 C 240.089844 298.488281 239.859375 298.410156 239.617188 298.34375 C 236.609375 297.515625 232.507812 299.339844 231.953125 302.695312 C 231.78125 303.753906 231.617188 304.816406 231.464844 305.878906 C 228.558594 307.210938 227.386719 310.542969 227.933594 313.496094 L 227.167969 313.800781 L 167.992188 337.277344 L 130.664062 316.21875 L 129.480469 315.550781 C 129.597656 313.097656 128.351562 310.667969 126.144531 309.296875 C 124.238281 308.109375 123.289062 307.242188 121.566406 305.222656 C 121.152344 304.738281 120.898438 304.332031 120.140625 303.199219 C 119.3125 301.957031 118.546875 300.664062 117.777344 299.382812 C 116.761719 297.699219 115.382812 296.742188 113.90625 296.351562 C 113.738281 296.230469 113.566406 296.109375 113.390625 296 C 112.355469 294.222656 110.492188 292.9375 107.800781 292.9375 C 103.464844 292.9375 101.28125 296.265625 101.242188 299.628906 L 100.5 299.210938 L 67.671875 280.6875 L 67.671875 160.480469 L 61.242188 157.859375 L 61.242188 126.605469 L 185.101562 94.191406 Z M 303.941406 130.847656 " fill-opacity="1" fill-rule="nonzero"/></g><g clip-path="url(#e63bc855f3)"><path fill="#342d2a" d="M 302.785156 133.136719 C 301.261719 133.039062 299.875 133.378906 298.480469 134.015625 C 295.988281 135.15625 293.597656 135.6875 290.933594 136.25 C 285.523438 137.390625 280.152344 139.355469 274.832031 140.875 C 263.042969 144.242188 250.933594 146.695312 239.058594 149.777344 C 233.445312 151.230469 227.855469 152.808594 222.214844 154.148438 C 216.726562 155.453125 211.132812 156.21875 205.636719 157.484375 C 194.664062 160.011719 184.007812 163.886719 172.804688 165.382812 C 172.734375 165.335938 172.652344 165.300781 172.554688 165.285156 C 170.464844 164.914062 169.132812 163.558594 167.152344 163.054688 C 164.761719 162.449219 162.402344 161.347656 160.082031 160.496094 C 155.398438 158.785156 150.84375 156.851562 146.125 155.210938 C 136.273438 151.785156 126.40625 148.441406 116.429688 145.394531 C 106.589844 142.386719 97.3125 138.316406 87.726562 134.628906 C 82.871094 132.761719 77.980469 130.976562 73.070312 129.265625 C 69.75 128.109375 65.894531 125.988281 62.304688 126.640625 C 61.886719 126.714844 62.007812 127.335938 62.398438 127.347656 C 66.730469 127.507812 71.34375 129.980469 75.394531 131.40625 C 80.675781 133.269531 85.992188 135.15625 91.152344 137.335938 C 99.808594 140.992188 108.453125 144.277344 117.445312 147.03125 C 126.96875 149.945312 136.378906 153.183594 145.773438 156.488281 C 150.480469 158.144531 155.054688 160.066406 159.714844 161.828125 C 161.6875 162.574219 163.632812 163.378906 165.621094 164.078125 C 167.648438 164.789062 169.492188 166.011719 171.566406 166.5 C 171.738281 179.785156 171.914062 193.089844 172.207031 206.402344 C 171.699219 206.027344 171.183594 205.664062 170.628906 205.359375 C 168.613281 204.261719 166.394531 203.421875 164.3125 202.441406 C 159.796875 200.3125 155.226562 198.304688 150.707031 196.175781 C 141.082031 191.640625 131.113281 187.820312 121.414062 183.425781 C 103.726562 175.410156 85.582031 168.464844 68.265625 159.726562 C 67.503906 159.339844 66.875 160.410156 67.597656 160.871094 C 71.484375 163.355469 75.992188 164.59375 79.902344 167.09375 C 83.820312 169.601562 88.429688 171.386719 92.632812 173.371094 C 102.132812 177.859375 111.988281 181.667969 121.566406 186.003906 C 131.234375 190.382812 141.160156 194.199219 150.753906 198.71875 C 155.292969 200.855469 159.886719 202.867188 164.425781 205.007812 C 164.984375 205.269531 165.582031 205.589844 166.207031 205.933594 C 166.167969 206.054688 166.140625 206.1875 166.140625 206.339844 L 166.140625 206.597656 C 166.144531 228.332031 166.148438 250.066406 166.152344 271.796875 C 166.152344 282.449219 166.15625 293.101562 166.179688 303.753906 C 166.207031 314.6875 165.886719 325.695312 166.667969 336.613281 C 167.082031 336.898438 167.5 337.179688 167.933594 337.425781 C 168.035156 337.339844 168.144531 337.285156 168.253906 337.257812 C 169.058594 326.632812 168.75 315.921875 168.777344 305.273438 C 168.804688 294.113281 168.808594 282.957031 168.808594 271.796875 C 168.8125 250.3125 168.816406 228.828125 168.820312 207.339844 C 170.015625 207.945312 171.246094 208.46875 172.445312 208.722656 C 172.898438 209.429688 174.007812 209.359375 174.550781 208.820312 C 174.699219 208.761719 174.816406 208.628906 174.863281 208.480469 C 174.960938 208.542969 175.074219 208.59375 175.199219 208.632812 C 175.855469 208.6875 177.367188 208.390625 178.007812 208.292969 C 180.773438 207.859375 183.523438 207.144531 186.273438 206.617188 C 191.695312 205.570312 197.027344 204.390625 202.339844 202.871094 C 213.210938 199.765625 224.121094 196.648438 234.917969 193.296875 C 245.164062 190.117188 255.632812 187.886719 265.988281 185.078125 C 271.152344 183.675781 276.332031 182.339844 281.457031 180.792969 C 285.445312 179.585938 290.597656 178.703125 294.253906 176.410156 C 294.269531 176.425781 294.289062 176.4375 294.304688 176.453125 C 294.542969 176.207031 294.882812 176.042969 295.328125 176.042969 C 295.398438 176.042969 295.457031 176.054688 295.523438 176.0625 C 295.523438 176.039062 295.53125 176.019531 295.53125 175.992188 C 295.539062 175.738281 295.542969 175.488281 295.550781 175.238281 C 295.679688 174.664062 295.332031 174.144531 294.851562 173.984375 C 294.449219 174.109375 294.039062 174.210938 293.625 174.285156 C 289.769531 176.390625 285.042969 177.40625 280.878906 178.691406 C 275.765625 180.265625 270.570312 181.566406 265.410156 182.980469 C 255.507812 185.695312 245.410156 187.660156 235.636719 190.796875 C 215.734375 197.1875 195.417969 203.410156 174.8125 207.070312 C 174.871094 193.570312 174.171875 179.902344 173.179688 166.472656 C 177.4375 166.488281 182.042969 165.292969 186.136719 164.390625 C 191.511719 163.203125 196.742188 161.421875 202.097656 160.15625 C 213.621094 157.441406 225.230469 155.292969 236.734375 152.460938 C 248.222656 149.632812 259.78125 147.117188 271.273438 144.320312 C 276.785156 142.976562 282.191406 141.277344 287.636719 139.691406 C 290.261719 138.925781 292.867188 138.320312 295.546875 137.785156 C 295.820312 137.730469 296.085938 137.65625 296.347656 137.574219 C 296.511719 137.429688 296.71875 137.3125 296.988281 137.253906 C 297.160156 137.214844 297.328125 137.167969 297.496094 137.128906 C 298.957031 136.492188 300.324219 135.671875 301.933594 135.519531 C 301.964844 135.550781 302.003906 135.570312 302.039062 135.59375 C 302.21875 135.542969 302.398438 135.496094 302.578125 135.449219 C 303.039062 135.25 303.496094 135.050781 303.949219 134.824219 C 303.953125 134.785156 303.96875 134.75 303.96875 134.703125 C 303.96875 134.578125 303.96875 134.449219 303.96875 134.320312 C 303.96875 133.644531 303.425781 133.179688 302.785156 133.136719 Z M 302.785156 133.136719 " fill-opacity="1" fill-rule="nonzero"/></g><path fill="#f63845" d="M 263.035156 290.457031 C 262.886719 293.589844 262.585938 296.707031 262.378906 299.835938 L 227.164062 313.800781 C 227.234375 311.542969 227.351562 309.289062 227.328125 307.027344 C 227.242188 299.632812 226.710938 292.25 226.863281 284.855469 C 227.195312 269.34375 226.324219 253.65625 225.714844 238.160156 C 225.429688 230.929688 225.113281 223.796875 225.707031 216.566406 C 226.308594 209.191406 226.664062 201.921875 226.847656 194.519531 C 227.027344 187.398438 226.578125 180.304688 226.726562 173.191406 C 226.828125 168.515625 227.105469 163.863281 227.136719 159.199219 C 226.632812 159.460938 226.015625 159.375 225.683594 158.808594 C 225.5625 158.421875 225.296875 158.171875 224.898438 158.074219 C 224.695312 157.980469 224.664062 157.789062 224.734375 157.625 C 221.832031 155.671875 219.15625 153.1875 216.410156 151.113281 C 212.164062 147.902344 207.875 144.730469 203.519531 141.660156 C 199.167969 138.585938 194.460938 135.925781 190.214844 132.714844 C 186.503906 129.914062 182.976562 126.550781 178.515625 125.007812 C 177.429688 126.324219 176.21875 127.4375 175.207031 128.078125 C 170.414062 131.101562 165.160156 133.292969 160.457031 136.511719 C 155.425781 139.953125 150.898438 144.121094 146.953125 148.765625 C 139.089844 158.027344 135.316406 169.230469 135.6875 181.394531 C 135.710938 182.082031 134.574219 182.257812 134.46875 181.554688 C 134.421875 181.253906 134.375 180.960938 134.351562 180.660156 C 134.230469 182.289062 134.082031 183.925781 134.050781 185.613281 C 133.972656 189.710938 134.460938 193.765625 134.605469 197.855469 C 134.898438 206.257812 133.765625 214.800781 133.503906 223.21875 C 132.96875 240.144531 132.515625 257.066406 131.960938 274 C 131.503906 288.066406 130.785156 302.160156 130.664062 316.21875 L 100.496094 299.210938 C 100.722656 292.265625 100.765625 285.328125 101 278.382812 C 101.523438 262.308594 101.824219 246.234375 102.949219 230.195312 C 104.109375 213.699219 104.441406 196.976562 104.585938 180.4375 C 104.625 176.1875 104.6875 171.925781 104.964844 167.683594 C 105.210938 163.992188 105.953125 160.265625 106.007812 156.578125 C 106.046875 153.558594 105.9375 150.527344 105.828125 147.507812 C 105.777344 146.097656 105.660156 144.570312 106.191406 143.242188 C 105.777344 143.171875 105.667969 142.53125 106.140625 142.386719 C 114.28125 139.785156 121.972656 135.726562 130.0625 132.886719 C 134.515625 131.320312 138.328125 128.464844 142.609375 126.503906 C 146.398438 124.765625 150.242188 123.199219 154.144531 121.757812 C 154.09375 121.070312 153.945312 120.40625 153.722656 119.757812 C 153.628906 119.410156 154.121094 119.054688 154.378906 119.378906 C 154.753906 119.859375 155.117188 120.285156 155.519531 120.675781 C 156.699219 119.984375 157.710938 117.960938 159.246094 118.152344 C 160.953125 118.378906 162.371094 118.492188 163.914062 118.046875 C 164.363281 117.875 164.804688 117.699219 165.25 117.519531 C 166.007812 117.15625 166.785156 116.742188 167.589844 116.488281 C 167.9375 116.378906 168.289062 116.269531 168.652344 116.171875 C 170.496094 115.4375 172.34375 114.6875 174.179688 113.933594 C 174.625 112.453125 175.484375 111.117188 176.640625 110.28125 C 179.945312 107.914062 184.410156 107.984375 188.308594 108.074219 C 188.480469 108.082031 188.640625 108.082031 188.808594 108.097656 C 193.5625 106.410156 198.378906 104.625 202.277344 101.839844 C 202.640625 101.578125 202.980469 102.125 202.722656 102.425781 C 200.285156 105.34375 197.03125 107.28125 193.527344 108.847656 C 197.316406 109.828125 200.996094 111.609375 204.34375 113.421875 C 209.785156 116.371094 214.523438 120.285156 219.445312 123.980469 C 224.785156 127.984375 230.589844 131.003906 236.277344 134.453125 C 239.882812 136.632812 243.464844 138.84375 247.148438 140.871094 C 246.378906 141.175781 246.210938 142.484375 247.214844 142.722656 C 249.988281 143.386719 252.339844 145.027344 254.394531 147.035156 C 255.667969 149.203125 256.867188 151.429688 258.617188 153.277344 C 258.6875 153.347656 258.757812 153.402344 258.832031 153.449219 C 259.601562 157.585938 260.207031 161.761719 260.554688 165.960938 C 261.410156 176.417969 261.363281 187.023438 261.8125 197.507812 C 262.675781 218.050781 261.988281 238.539062 262.503906 259.082031 C 262.78125 269.46875 263.519531 280.078125 263.035156 290.457031 Z M 263.035156 290.457031 " fill-opacity="1" fill-rule="nonzero"/><g clip-path="url(#7d101af7d4)"><path fill="#f63845" d="M 278.320312 177.800781 C 278.816406 178.765625 279.351562 179.699219 279.898438 180.621094 C 279.496094 180.691406 279.058594 180.617188 278.746094 180.351562 C 278.691406 180.3125 278.628906 180.265625 278.578125 180.21875 C 278.46875 180.191406 278.367188 180.144531 278.277344 180.082031 C 271.894531 177.019531 265.757812 173.46875 259.570312 170.042969 C 256.769531 168.492188 252.214844 167.046875 249.984375 164.386719 C 249.953125 164.4375 249.90625 164.484375 249.855469 164.523438 C 248.933594 166.714844 248.632812 170.25 248.214844 172.410156 C 247.546875 175.953125 246.636719 179.625 245.441406 183.027344 C 245.398438 183.148438 245.351562 183.273438 245.3125 183.394531 C 244.332031 185.425781 243.277344 187.421875 242.21875 189.40625 C 240.441406 192.734375 238.636719 196.109375 236.636719 199.332031 C 234.984375 197.535156 234.691406 193.5625 234.058594 191.371094 C 232.867188 187.195312 231.539062 183.050781 230.074219 178.96875 C 226.871094 170.0625 222.496094 161.636719 217.503906 153.609375 C 212.609375 145.746094 207.308594 138.476562 201.523438 131.277344 C 198.945312 128.066406 196.976562 124.441406 194.136719 121.421875 C 192.355469 119.527344 190.6875 117.605469 188.613281 116.015625 C 188.578125 115.992188 187.292969 114.75 186.550781 114.214844 C 186.171875 114.601562 185.601562 114.664062 185.09375 114.484375 C 184.882812 114.492188 184.667969 114.457031 184.476562 114.339844 C 182.382812 117.1875 181.273438 120.773438 179.421875 123.777344 C 177.460938 126.941406 175.691406 130.003906 174.195312 133.414062 C 167.128906 149.519531 161.308594 165.808594 158.46875 183.234375 C 157.171875 191.230469 157.003906 199.21875 156.230469 207.242188 C 156.183594 207.722656 155.96875 208.035156 155.683594 208.210938 C 151.886719 202.277344 148.246094 196.242188 144.523438 190.257812 C 144.296875 189.746094 144.074219 189.234375 143.84375 188.730469 C 142.65625 186.105469 141.847656 183.375 140.867188 180.675781 C 140.71875 180.28125 140.542969 179.292969 140.355469 178.398438 C 137.054688 181.675781 132.988281 184.140625 129.863281 187.695312 C 126.429688 191.601562 122.230469 195.738281 119.527344 200.152344 C 119.472656 200.25 119.359375 200.34375 119.238281 200.378906 C 119.171875 199.890625 119.09375 199.40625 119.003906 198.921875 C 119.226562 197.667969 118.746094 196.082031 118.71875 194.894531 C 118.664062 192.496094 118.789062 190.128906 119.128906 187.75 C 119.835938 182.78125 120.964844 177.84375 122.199219 172.980469 C 124.644531 163.355469 128.511719 153.734375 134.035156 145.460938 C 139.523438 137.242188 146.128906 129.308594 153.660156 122.882812 C 154.203125 122.417969 154.75 121.953125 155.304688 121.5 C 153.628906 121.675781 151.949219 121.976562 150.273438 121.847656 C 148.621094 121.714844 146.984375 122.488281 145.359375 122.347656 C 141.910156 122.054688 138.429688 121.230469 134.941406 121.238281 C 131.183594 121.246094 127.855469 121.011719 124.453125 119.277344 C 121.273438 117.65625 117.46875 116.660156 114.78125 114.230469 C 105.269531 105.613281 96.992188 91.457031 100.929688 78.582031 C 101.335938 76.542969 101.839844 74.367188 102.746094 72.578125 C 105.402344 67.34375 108.316406 62.234375 111.652344 57.402344 C 114.707031 52.988281 118.257812 48.792969 121.6875 44.664062 C 122.707031 43.4375 124.285156 40.828125 126.03125 39.917969 C 126.429688 39.410156 126.824219 38.902344 127.21875 38.394531 C 127.871094 38.125 128.515625 37.84375 129.148438 37.550781 C 131.027344 37.59375 132.90625 37.65625 134.785156 37.78125 C 143.425781 38.359375 151.136719 41.027344 158.585938 45.335938 C 169.355469 51.5625 178.398438 60.289062 183.347656 71.566406 C 183.722656 71.929688 184.066406 72.320312 184.335938 72.800781 C 185.285156 74.492188 186.082031 76.308594 186.675781 78.160156 C 188.160156 82.8125 189.285156 87.632812 190.015625 92.460938 C 190.167969 93.472656 190.257812 94.484375 190.316406 95.496094 C 192.195312 92.773438 193.894531 89.921875 196.042969 87.367188 C 201.738281 80.574219 208.722656 75.652344 216.421875 71.351562 C 224.265625 66.976562 232.519531 63.328125 241.015625 60.425781 C 249.511719 57.515625 258.488281 54.4375 267.59375 55.347656 C 267.648438 55.339844 267.703125 55.335938 267.753906 55.335938 C 271.988281 60.925781 274.460938 68.195312 276.921875 74.6875 C 278.875 79.851562 281.480469 84.65625 279.324219 90.238281 C 277.5625 94.796875 273.316406 98.488281 269.671875 101.554688 C 261.894531 108.097656 252.453125 111.949219 242.707031 114.5625 C 237.441406 115.972656 232.046875 116.886719 226.617188 117.347656 C 228.871094 119.363281 230.992188 121.460938 232.960938 123.375 C 239.398438 129.65625 245.554688 136.253906 251.574219 142.9375 C 257.742188 149.78125 263.613281 156.820312 269.40625 163.980469 C 271.707031 166.8125 273.222656 170.503906 275.8125 173.070312 C 275.816406 173.074219 275.816406 173.078125 275.820312 173.078125 C 276.136719 173.503906 276.445312 173.933594 276.738281 174.378906 C 277.25 175.546875 277.757812 176.703125 278.320312 177.800781 Z M 278.320312 177.800781 " fill-opacity="1" fill-rule="nonzero"/></g><path fill="#342d2a" d="M 280.421875 85.703125 C 280.425781 86.328125 280.023438 86.953125 279.214844 86.953125 C 279.082031 86.953125 278.964844 86.949219 278.855469 86.941406 C 275.925781 86.882812 273.144531 86.058594 270.117188 86.375 C 266.617188 86.738281 263.191406 87.441406 259.785156 88.3125 C 253.089844 90.027344 246.433594 91.890625 239.886719 94.125 C 232.804688 96.539062 225.84375 99.28125 219.019531 102.355469 C 214.128906 104.558594 209.304688 107.753906 204.265625 109.671875 C 212.074219 110.894531 219.769531 112.757812 227 116.039062 C 227.691406 116.351562 227.730469 117.105469 227.414062 117.660156 C 224.65625 116.820312 221.839844 116.160156 219.058594 115.371094 C 214.089844 113.957031 209.21875 112.167969 204.007812 111.992188 C 203.925781 111.988281 203.847656 111.996094 203.777344 112.007812 C 203.609375 111.980469 203.445312 111.945312 203.277344 111.917969 C 198.9375 111.199219 194.539062 110.628906 190.144531 110.351562 C 188.148438 110.222656 185.746094 110.441406 183.730469 109.96875 C 183.582031 110.066406 183.398438 110.128906 183.171875 110.125 C 182.984375 110.121094 182.800781 110.128906 182.613281 110.132812 C 184 111.402344 185.675781 112.28125 187.160156 113.460938 C 189.316406 115.183594 191.410156 117.011719 193.328125 119.003906 C 196.714844 122.527344 199.621094 126.445312 202.570312 130.335938 C 205.875 134.695312 209.003906 139.003906 211.96875 143.59375 C 212.042969 143.710938 212.128906 143.820312 212.210938 143.933594 C 212.535156 144.65625 212.996094 145.300781 213.441406 145.957031 C 214.167969 147.613281 214.832031 149.300781 215.632812 150.925781 C 215.546875 150.953125 215.457031 150.972656 215.359375 150.976562 C 215.242188 150.871094 215.125 150.765625 215.007812 150.660156 C 214.738281 150.335938 214.46875 150.007812 214.1875 149.695312 C 214.1875 149.691406 214.1875 149.6875 214.1875 149.683594 C 213.867188 148.960938 213.324219 148.28125 212.742188 147.648438 C 211.652344 145.757812 210.351562 143.976562 208.84375 142.421875 C 206.214844 138.109375 202.953125 134.199219 199.917969 130.167969 C 196.53125 125.675781 193.179688 121.246094 189 117.441406 C 187.953125 116.488281 186.804688 115.566406 185.667969 114.625 C 185.65625 114.636719 185.652344 114.652344 185.644531 114.667969 C 183.945312 116.785156 183.050781 119.269531 181.75 121.613281 C 181.167969 122.660156 180.28125 125.21875 178.925781 125.371094 C 178.902344 125.375 178.875 125.351562 178.871094 125.328125 C 178.550781 123.535156 180.265625 121.265625 180.992188 119.722656 C 181.949219 117.6875 182.921875 115.703125 184.296875 113.921875 C 184.335938 113.808594 184.402344 113.707031 184.484375 113.621094 C 183.269531 112.5625 182.121094 111.453125 181.167969 110.222656 C 176.664062 110.726562 172.007812 113.023438 167.949219 114.664062 C 164 116.265625 160.464844 119.230469 156.605469 120.984375 C 155.796875 121.449219 154.976562 121.9375 154.226562 122.5625 C 151.136719 125.121094 148.292969 127.875 145.6875 130.925781 C 140.15625 137.402344 135.929688 145.011719 131.644531 152.339844 C 127.542969 159.363281 124.890625 167.113281 122.960938 174.992188 C 121.046875 182.816406 119.609375 190.871094 119.90625 198.945312 C 120.253906 198.382812 120.703125 197.859375 121.140625 197.320312 C 122.808594 195.265625 124.304688 193.074219 126.039062 191.070312 C 127.105469 189.835938 128.257812 188.675781 129.421875 187.527344 C 131.109375 186.332031 132.863281 185.191406 134.25 183.664062 C 134.269531 184.339844 134.300781 185.015625 134.367188 185.699219 C 132.378906 187.6875 130.1875 189.488281 128.292969 191.589844 C 125.511719 194.671875 123.132812 198.382812 119.984375 201.113281 C 119.847656 201.664062 118.878906 201.746094 118.765625 201.105469 C 117.265625 192.738281 118.851562 183.882812 120.824219 175.710938 C 122.75 167.730469 125.15625 159.589844 129.324219 152.453125 C 136.570312 140.039062 144.714844 123.738281 158.414062 117.171875 C 161.269531 115.226562 164.828125 113.789062 167.429688 112.78125 C 170.085938 111.75 172.867188 110.464844 175.707031 109.5 C 175.699219 109.433594 175.695312 109.363281 175.699219 109.292969 C 173.863281 106.394531 170.578125 103.644531 168.15625 101.421875 C 164.917969 98.449219 161.496094 95.664062 157.835938 93.222656 C 151.613281 89.0625 144.960938 85.507812 137.898438 82.984375 C 130.933594 80.492188 123.566406 78.496094 116.125 78.34375 C 112.253906 78.265625 108.445312 78.558594 104.683594 79.523438 C 103.648438 79.789062 101.839844 80.5625 100.730469 80.046875 C 100.710938 80.039062 100.691406 80.03125 100.671875 80.023438 C 100.644531 80.007812 100.613281 80.003906 100.585938 79.988281 C 100.570312 79.976562 100.5625 79.960938 100.546875 79.949219 C 100.542969 79.945312 100.539062 79.941406 100.535156 79.941406 C 100.390625 79.828125 100.335938 79.679688 100.34375 79.527344 C 100.335938 79.375 100.390625 79.226562 100.535156 79.113281 C 100.539062 79.109375 100.542969 79.109375 100.546875 79.105469 C 100.5625 79.09375 100.570312 79.078125 100.585938 79.066406 C 112.011719 72.179688 129.4375 77.097656 140.886719 81.578125 C 155.144531 87.15625 169.113281 96.066406 178.484375 108.390625 C 178.546875 108.46875 178.582031 108.5625 178.613281 108.65625 C 180.121094 108.300781 181.644531 108.082031 183.171875 108.097656 C 183.398438 108.097656 183.585938 108.164062 183.730469 108.269531 C 185.085938 107.628906 187.320312 107.96875 188.632812 108.054688 C 188.773438 104.996094 189.367188 101.945312 189.417969 98.910156 C 189.4375 97.644531 189.136719 95.730469 190.558594 95.214844 C 190.675781 95.171875 190.804688 95.242188 190.867188 95.339844 C 191.628906 96.554688 191.386719 99.191406 191.398438 100.621094 C 191.414062 103.15625 191.558594 105.6875 191.617188 108.222656 C 194.792969 108.433594 197.960938 108.777344 201.109375 109.203125 C 201.550781 109.265625 201.988281 109.335938 202.425781 109.398438 C 207.453125 105.144531 214.789062 102.398438 220.726562 99.707031 C 227.257812 96.742188 233.90625 94.023438 240.675781 91.652344 C 247.585938 89.234375 254.652344 87.058594 261.785156 85.382812 C 264.945312 84.640625 268.191406 83.917969 271.445312 83.796875 C 274.101562 83.695312 276.648438 84.445312 279.21875 84.453125 C 280.023438 84.453125 280.425781 85.078125 280.421875 85.703125 Z M 251.839844 165.339844 C 251.644531 165.257812 251.445312 165.171875 251.246094 165.089844 C 251.042969 165.003906 250.84375 164.917969 250.640625 164.835938 C 250.441406 164.75 250.246094 164.667969 250.050781 164.585938 C 249.96875 164.550781 249.898438 164.511719 249.832031 164.464844 C 249.503906 164.65625 249.269531 164.96875 249.273438 165.394531 C 248.050781 172.425781 245.671875 179.132812 242.707031 185.613281 C 241.484375 188.28125 240.0625 190.851562 238.8125 193.507812 C 238.144531 194.925781 237.253906 196.410156 236.714844 197.945312 C 236.007812 196.226562 235.308594 193.4375 235.039062 192.40625 C 234.378906 189.902344 233.480469 187.460938 232.695312 185 C 231.300781 180.636719 229.660156 174.882812 226.925781 171.195312 C 226.753906 170.964844 226.289062 171 226.320312 171.359375 C 226.75 176.539062 229.921875 181.65625 231.1875 186.722656 C 231.816406 189.25 232.429688 192.140625 233.445312 194.53125 C 234.136719 196.152344 234.648438 199.320312 235.902344 200.675781 C 236.023438 200.808594 236.15625 200.882812 236.289062 200.933594 C 236.722656 200.445312 237.152344 199.953125 237.582031 199.460938 C 237.5625 199.414062 237.519531 199.371094 237.488281 199.324219 C 237.753906 199.082031 238 198.8125 238.226562 198.527344 C 238.242188 198.476562 238.265625 198.433594 238.28125 198.386719 C 238.34375 198.210938 238.460938 198.097656 238.59375 198.027344 C 239.347656 196.917969 239.917969 195.621094 240.507812 194.5 C 242.089844 191.496094 243.796875 188.578125 245.277344 185.523438 C 248.21875 179.441406 250.214844 172.992188 251.664062 166.410156 C 252.769531 167.167969 254.074219 167.742188 255.207031 168.417969 C 257.117188 169.226562 258.976562 170.148438 260.867188 171.007812 C 261.0625 170.898438 261.1875 170.703125 261.242188 170.484375 C 258.378906 168.238281 255.171875 166.753906 251.84375 165.339844 Z M 251.839844 165.339844 " fill-opacity="1" fill-rule="nonzero"/></svg>