<svg xmlns="http://www.w3.org/2000/svg" xmlns:xlink="http://www.w3.org/1999/xlink" width="500" zoomAndPan="magnify" viewBox="0 0 375 374.999991" height="500" preserveAspectRatio="xMidYMid meet" version="1.0"><defs><filter x="0%" y="0%" width="100%" height="100%" id="87484d5f44"><feColorMatrix values="0 0 0 0 1 0 0 0 0 1 0 0 0 0 1 0 0 0 1 0" color-interpolation-filters="sRGB"/></filter><clipPath id="1d14522b03"><path d="M 298 250 L 337.515625 250 L 337.515625 264 L 298 264 Z M 298 250 " clip-rule="nonzero"/></clipPath><mask id="10b0978be6"><g filter="url(#87484d5f44)"><rect x="-37.5" width="450" fill="#000000" y="-37.499999" height="449.999989" fill-opacity="0.5"/></g></mask><clipPath id="0cba6f99c2"><path d="M 0.078125 0.078125 L 29.359375 0.078125 L 29.359375 50.960938 L 0.078125 50.960938 Z M 0.078125 0.078125 " clip-rule="nonzero"/></clipPath><clipPath id="67e824611f"><rect x="0" width="30" y="0" height="51"/></clipPath></defs><path fill="#fcdbc7" d="M 273.722656 275.753906 L 163.460938 339.410156 C 156.71875 343.304688 148.09375 340.992188 144.199219 334.25 L 126.429688 303.46875 C 122.535156 296.726562 124.847656 288.101562 131.589844 284.207031 L 199.132812 245.210938 L 137.988281 162.328125 L 101.832031 162.3125 C 96.617188 162.3125 91.75 159.6875 88.882812 155.328125 L 76.683594 136.792969 C 72.71875 130.765625 73.429688 122.800781 78.402344 117.574219 L 80.878906 114.96875 L 60.503906 89.71875 C 57.054688 85.441406 57.304688 79.269531 61.09375 75.289062 C 65.207031 70.964844 72.027344 70.726562 76.429688 74.757812 L 79.535156 77.601562 L 77.820312 75.054688 C 74.3125 69.84375 75.808594 62.765625 81.125 59.421875 C 85.296875 56.796875 90.695312 57.226562 94.394531 60.476562 L 100.464844 65.804688 L 98.082031 61.972656 C 94.882812 56.820312 96.492188 50.042969 101.671875 46.882812 C 106.230469 44.09375 112.140625 45.019531 115.636719 49.0625 L 120.902344 55.160156 L 117.324219 48.75 C 114.597656 43.863281 116.101562 37.699219 120.773438 34.621094 C 125.234375 31.679688 131.179688 32.488281 134.695312 36.511719 L 181.863281 90.488281 C 185.125 94.21875 186.40625 99.289062 185.3125 104.125 L 180.628906 124.769531 L 279.652344 241.625 C 288.75 252.363281 285.910156 268.714844 273.722656 275.753906 Z M 273.722656 275.753906 " fill-opacity="1" fill-rule="nonzero"/><path fill="#f46064" d="M 315.742188 214.757812 C 318.160156 217.3125 318.050781 221.34375 315.496094 223.761719 L 299.949219 238.476562 C 297.394531 240.898438 293.363281 240.785156 290.945312 238.230469 C 288.527344 235.675781 288.640625 231.644531 291.191406 229.226562 L 306.738281 214.511719 C 309.292969 212.09375 313.324219 212.203125 315.742188 214.757812 Z M 315.742188 214.757812 " fill-opacity="1" fill-rule="nonzero"/><path fill="#f46064" d="M 317.0625 299.414062 C 319.480469 296.859375 319.371094 292.828125 316.816406 290.410156 L 301.273438 275.691406 C 298.71875 273.273438 294.6875 273.382812 292.269531 275.9375 C 289.851562 278.492188 289.960938 282.523438 292.515625 284.941406 L 308.058594 299.660156 C 310.613281 302.078125 314.644531 301.96875 317.0625 299.414062 Z M 317.0625 299.414062 " fill-opacity="1" fill-rule="nonzero"/><g clip-path="url(#1d14522b03)"><path fill="#f46064" d="M 331.015625 263.601562 C 334.53125 263.640625 337.414062 260.824219 337.457031 257.304688 C 337.496094 253.789062 334.675781 250.90625 331.160156 250.863281 L 305.308594 250.570312 C 301.792969 250.53125 298.910156 253.347656 298.867188 256.867188 C 298.828125 260.382812 301.648438 263.265625 305.164062 263.308594 Z M 331.015625 263.601562 " fill-opacity="1" fill-rule="nonzero"/></g><path fill="#612b15" d="M 97.550781 133.183594 C 96.210938 134.324219 94.203125 134.164062 93.0625 132.828125 L 79.238281 116.625 C 78.09375 115.289062 78.253906 113.277344 79.59375 112.136719 C 80.929688 110.996094 82.941406 111.152344 84.082031 112.492188 L 97.90625 128.691406 C 99.046875 130.03125 98.886719 132.039062 97.550781 133.183594 Z M 97.550781 133.183594 " fill-opacity="1" fill-rule="evenodd"/><g mask="url(#10b0978be6)"><g transform="matrix(1, 0, 0, 1, 256, 232)"><g clip-path="url(#67e824611f)"><g clip-path="url(#0cba6f99c2)"><path fill="#612b15" d="M 5.65625 50.71875 L 17.722656 43.753906 C 29.910156 36.71875 32.75 20.363281 23.652344 9.628906 L 15.792969 0.351562 C 6.375 7.324219 0.269531 18.515625 0.269531 31.132812 C 0.269531 38.292969 2.234375 44.992188 5.65625 50.71875 Z M 5.65625 50.71875 " fill-opacity="1" fill-rule="nonzero"/></g></g></g></g></svg>