<svg xmlns="http://www.w3.org/2000/svg" xmlns:xlink="http://www.w3.org/1999/xlink" width="500" zoomAndPan="magnify" viewBox="0 0 375 374.999991" height="500" preserveAspectRatio="xMidYMid meet" version="1.0"><defs><clipPath id="793dd333fe"><path d="M 82.121094 76.445312 L 279 76.445312 L 279 107 L 82.121094 107 Z M 82.121094 76.445312 " clip-rule="nonzero"/></clipPath><clipPath id="6d4559b599"><path d="M 82.121094 104 L 279 104 L 279 145 L 82.121094 145 Z M 82.121094 104 " clip-rule="nonzero"/></clipPath><clipPath id="7165fba49f"><path d="M 82.121094 96 L 279 96 L 279 317 L 82.121094 317 Z M 82.121094 96 " clip-rule="nonzero"/></clipPath><clipPath id="13ab82358d"><path d="M 82.121094 97 L 273 97 L 273 311 L 82.121094 311 Z M 82.121094 97 " clip-rule="nonzero"/></clipPath></defs><path fill="#5b5f97" d="M 251.871094 248.78125 C 247.84375 248.183594 243.921875 246.976562 240.171875 245.121094 C 226.945312 238.570312 218.429688 225.160156 216.191406 207.367188 C 214.152344 191.191406 217.617188 172.972656 225.933594 156.066406 C 244.125 119.097656 278.878906 100.308594 305.058594 113.273438 C 331.234375 126.246094 337.488281 165.367188 319.300781 202.335938 C 303.710938 234.003906 275.964844 252.335938 251.871094 248.78125 Z M 290.222656 130.832031 C 275.542969 128.667969 256.101562 143.101562 245.058594 165.542969 C 238.664062 178.527344 235.859375 192.78125 237.355469 204.652344 C 238.113281 210.691406 240.726562 221.484375 249.636719 225.898438 C 264.5625 233.292969 287.71875 218.171875 300.179688 192.855469 C 312.636719 167.542969 310.542969 139.898438 295.601562 132.496094 C 293.90625 131.65625 292.105469 131.105469 290.222656 130.828125 Z M 290.222656 130.832031 " fill-opacity="1" fill-rule="nonzero"/><g clip-path="url(#793dd333fe)"><path fill="#e6e7e8" d="M 278.542969 96.53125 C 278.542969 100.1875 273.792969 103.605469 265.484375 106.574219 C 248.519531 100.589844 216.757812 96.53125 180.34375 96.53125 C 143.933594 96.53125 112.175781 100.589844 95.207031 106.574219 C 86.898438 103.609375 82.144531 100.195312 82.144531 96.53125 C 82.144531 85.449219 126.128906 76.445312 180.34375 76.445312 C 234.5625 76.445312 278.542969 85.449219 278.542969 96.53125 Z M 278.542969 96.53125 " fill-opacity="1" fill-rule="nonzero"/></g><path fill="#acb2b7" d="M 265.484375 106.574219 C 248.519531 112.558594 216.757812 116.617188 180.34375 116.617188 C 143.933594 116.617188 112.175781 112.558594 95.207031 106.574219 C 112.171875 100.589844 143.933594 96.53125 180.34375 96.53125 C 216.757812 96.53125 248.519531 100.589844 265.484375 106.574219 Z M 265.484375 106.574219 " fill-opacity="1" fill-rule="nonzero"/><g clip-path="url(#6d4559b599)"><path fill="#6d4111" d="M 278.542969 124.234375 C 278.542969 135.316406 234.5625 144.316406 180.34375 144.316406 C 126.128906 144.316406 82.144531 135.316406 82.144531 124.234375 C 82.144531 120.574219 86.898438 117.160156 95.207031 114.191406 C 112.171875 108.203125 143.933594 104.144531 180.34375 104.144531 C 216.757812 104.144531 248.519531 108.203125 265.484375 114.191406 C 273.796875 117.160156 278.542969 120.570312 278.542969 124.234375 Z M 278.542969 124.234375 " fill-opacity="1" fill-rule="nonzero"/></g><g clip-path="url(#7165fba49f)"><path fill="#5b5f97" d="M 278.542969 96.53125 C 278.542969 332.257812 234.5625 316.527344 180.34375 316.527344 C 154.964844 316.527344 131.863281 319.988281 114.398438 299.460938 C 94.664062 276.261719 82.195312 222.238281 82.144531 97.574219 L 82.144531 96.535156 C 82.144531 96.929688 82.195312 97.277344 82.34375 97.675781 C 85.160156 108.207031 128.003906 116.625 180.34375 116.625 C 222.742188 116.625 258.90625 111.132812 272.660156 103.460938 C 276.46875 101.285156 278.542969 98.960938 278.542969 96.535156 Z M 278.542969 96.53125 " fill-opacity="1" fill-rule="nonzero"/></g><g clip-path="url(#13ab82358d)"><path fill="#5b5f97" d="M 272.660156 103.457031 C 271.074219 325.828125 227.742188 310.6875 174.511719 310.6875 C 151.851562 310.6875 131.023438 313.410156 114.402344 299.460938 C 94.664062 276.261719 82.195312 222.238281 82.144531 97.574219 C 82.246094 97.574219 82.292969 97.625 82.34375 97.675781 C 85.160156 108.207031 128.003906 116.625 180.34375 116.625 C 222.742188 116.625 258.90625 111.132812 272.660156 103.460938 Z M 272.660156 103.457031 " fill-opacity="1" fill-rule="nonzero"/></g></svg>