<svg xmlns="http://www.w3.org/2000/svg" xmlns:xlink="http://www.w3.org/1999/xlink" width="500" zoomAndPan="magnify" viewBox="0 0 375 374.999991" height="500" preserveAspectRatio="xMidYMid meet" version="1.0"><defs><clipPath id="e4029291d4"><path d="M 26.703125 86.589844 L 326.703125 86.589844 L 326.703125 288.339844 L 26.703125 288.339844 Z M 26.703125 86.589844 " clip-rule="nonzero"/></clipPath><clipPath id="69baeba939"><path d="M 26.703125 86.589844 L 326.703125 86.589844 L 326.703125 288.339844 L 26.703125 288.339844 Z M 26.703125 86.589844 " clip-rule="nonzero"/></clipPath></defs><path fill="#6d4111" d="M 135.433594 88.507812 C 142.308594 88.429688 149.21875 89.359375 155.855469 91.273438 C 171.445312 95.757812 185.507812 104.8125 198.332031 115.226562 C 197.261719 116.136719 196.042969 116.820312 194.800781 116.828125 C 193.035156 116.949219 191.304688 115.789062 189.742188 114.496094 L 188.578125 115.84375 C 189.226562 116.425781 189.964844 116.988281 190.761719 117.445312 L 190.761719 118.792969 C 189.203125 118.820312 187.683594 118.867188 186.210938 118.753906 C 184.214844 118.597656 182.234375 118.0625 180.714844 116.933594 L 179.660156 118.355469 C 180.242188 118.773438 180.871094 119.121094 181.515625 119.410156 L 181.515625 121.8125 C 179.699219 121.839844 177.941406 122.035156 176.273438 121.921875 C 174.207031 121.769531 172.125 120.921875 171.070312 119.300781 L 169.648438 120.285156 C 171.175781 122.417969 173.683594 123.527344 176.164062 123.667969 C 178.011719 123.785156 179.808594 123.589844 181.515625 123.558594 L 181.515625 123.597656 L 183.261719 123.597656 L 183.261719 122.433594 L 183.296875 121.847656 L 183.261719 121.847656 L 183.261719 119.992188 C 184.191406 120.25 185.128906 120.4375 186.066406 120.503906 C 188.277344 120.660156 190.433594 120.46875 192.507812 120.503906 L 192.542969 118.753906 L 192.507812 118.753906 L 192.507812 118.171875 C 193.257812 118.417969 194.046875 118.582031 194.875 118.574219 C 196.785156 118.464844 198.445312 117.511719 199.714844 116.316406 C 200.171875 116.695312 200.644531 117.0625 201.097656 117.445312 L 201.132812 117.410156 L 240.664062 128.765625 L 234.292969 133.570312 L 235.351562 134.953125 L 243.101562 129.128906 C 255.417969 129.945312 264.511719 131.808594 275.789062 137.429688 C 284.714844 141.878906 296.347656 150.121094 302.03125 158.25 C 306.640625 164.839844 309.988281 172.140625 310.1875 180.125 C 310.371094 187.238281 307.515625 193.949219 303.890625 200.035156 C 301.597656 203.882812 301.480469 208.898438 303.050781 212.046875 C 304.425781 214.324219 306.902344 215.488281 309.421875 215.6875 C 309.410156 216.636719 309.214844 217.527344 308.65625 218.125 C 308.195312 218.722656 307.332031 219.164062 306.472656 219.871094 L 306.402344 219.871094 L 306.21875 221.621094 C 308.785156 221.921875 311.53125 221.824219 314.046875 220.746094 C 315.183594 220.238281 316.195312 219.53125 317.03125 218.632812 L 316.921875 222.675781 L 318.59375 222.710938 L 318.59375 222.746094 C 320.5 222.277344 322.539062 221.476562 324.019531 219.910156 C 323.394531 222.578125 322.183594 225.027344 320.195312 226.789062 C 317.609375 229.144531 313.917969 230.308594 310.441406 229.882812 C 307.304688 229.542969 304.492188 227.355469 302.433594 224.75 C 300.3125 222.015625 298.84375 218.761719 298.210938 215.359375 C 297.742188 212.941406 298.222656 210.339844 298.832031 207.789062 C 299.585938 204.695312 300.652344 201.695312 301.707031 198.613281 C 302.835938 195.316406 303.972656 191.945312 304.761719 188.496094 C 305.535156 185.144531 305.992188 181.65625 305.671875 178.160156 C 305.183594 173.097656 301.945312 168.554688 298.140625 165.417969 C 296.527344 164.089844 292.476562 163.347656 292.058594 163.269531 C 291.664062 160.566406 291.136719 157.859375 290.421875 155.226562 L 288.710938 155.699219 C 290.875 163.71875 291.679688 172.15625 290.347656 180.304688 C 289.207031 187.371094 286.480469 194.15625 282.886719 200.398438 L 284.417969 201.273438 C 285.097656 200.089844 285.730469 198.855469 286.34375 197.632812 C 285.816406 205.449219 286.101562 213.394531 288.710938 220.855469 C 290.773438 226.761719 295.070312 232.066406 300.941406 234.394531 C 300.964844 234.660156 300.996094 234.929688 301.015625 235.195312 C 301.117188 236.664062 301.164062 238.136719 301.125 239.601562 C 301.074219 241.300781 300.925781 242.984375 300.539062 244.585938 C 300.140625 246.066406 299.660156 247.484375 298.722656 248.410156 L 298.285156 274.179688 C 297.777344 274.160156 297.265625 274.125 296.753906 274.144531 C 295.410156 274.128906 293.734375 274.28125 292.386719 275.417969 C 291.519531 276.277344 291.082031 277.347656 290.820312 278.367188 C 289.722656 277.488281 288.589844 276.613281 287.292969 275.890625 C 286.066406 275.214844 284.714844 274.785156 283.324219 274.617188 C 284.125 273.699219 284.746094 272.683594 285.253906 271.707031 C 285.617188 271.035156 285.957031 270.320312 286.273438 269.628906 C 286.371094 269.417969 286.433594 269.230469 286.527344 269.011719 C 286.554688 268.949219 286.609375 268.894531 286.636719 268.828125 C 286.625 268.824219 286.609375 268.835938 286.601562 268.828125 C 288.964844 260.488281 288.347656 251.464844 285.398438 243.351562 C 282.433594 235.183594 277.003906 227.964844 270.074219 222.75 C 270.332031 222.773438 270.578125 222.800781 270.839844 222.820312 L 270.984375 221.109375 C 262.121094 220.453125 253.261719 216.761719 247.726562 209.9375 C 240.949219 201.707031 239.265625 190.210938 239.789062 179.359375 L 239.824219 179.359375 C 240.214844 170.695312 237.765625 162.242188 234.367188 154.390625 C 234.347656 154.332031 234.347656 154.265625 234.328125 154.207031 C 234.308594 154.160156 234.277344 154.113281 234.257812 154.0625 C 233.5625 151.644531 233.242188 149.117188 233.710938 146.746094 C 234.109375 144.671875 235.171875 142.707031 236.769531 141.359375 C 241.285156 137.382812 248.40625 137.859375 254.714844 138.882812 L 255.003906 137.136719 C 248.566406 135.941406 240.980469 135.640625 235.640625 140.046875 C 233.726562 141.6875 232.46875 143.964844 232 146.417969 C 231.472656 149.238281 231.851562 152.105469 232.65625 154.753906 C 236.023438 162.511719 238.445312 170.78125 238.078125 179.105469 L 238.042969 179.105469 C 237.410156 190.253906 239.226562 202.195312 246.378906 211.027344 C 247.847656 212.820312 249.5 214.449219 251.328125 215.832031 C 249.683594 216.199219 248.101562 216.640625 246.597656 216.667969 C 243.070312 216.808594 239.632812 215.011719 236.441406 213.027344 L 236.222656 213.394531 L 236.113281 213.210938 C 232.472656 215.496094 228.941406 217.863281 225.121094 219.582031 C 220.742188 221.558594 215.988281 222.726562 211.179688 223.292969 L 210.707031 218.707031 C 214.042969 217.699219 217.320312 216.488281 220.496094 214.996094 L 219.769531 213.429688 C 207.390625 219.285156 193.410156 220.90625 179.546875 221.328125 C 182.386719 218.910156 184.71875 215.832031 185.882812 212.226562 C 186.75 209.4375 186.753906 206.601562 187.121094 203.964844 L 185.410156 203.746094 C 185.011719 206.542969 185 209.28125 184.207031 211.71875 C 183.128906 215.171875 180.773438 218.160156 177.875 220.492188 C 178.144531 219.390625 178.277344 218.234375 178.273438 217.070312 L 176.527344 217.105469 C 176.632812 221.214844 174.34375 225.070312 171.214844 228.023438 C 171.113281 227.566406 170.957031 227.101562 170.738281 226.640625 C 170.53125 226.246094 170.292969 225.957031 170.085938 225.695312 C 170.15625 225.503906 170.242188 225.308594 170.304688 225.113281 L 168.628906 224.640625 C 167.710938 227.890625 164.96875 230.355469 161.785156 231.917969 C 161.785156 229.140625 161.726562 226.378906 161.859375 223.65625 L 160.113281 223.585938 C 159.886719 228.238281 160.203125 232.84375 159.894531 237.34375 C 159.75 239.316406 159.554688 241.242188 158.910156 242.984375 C 158.414062 244.207031 157.75 245.382812 156.726562 245.679688 L 156.761719 245.75 C 155.851562 250.722656 155.59375 255.773438 155.378906 260.746094 C 155.167969 265.632812 155.046875 270.5 154.722656 275.34375 L 153.851562 275.308594 C 153.171875 275.316406 152.46875 275.359375 151.738281 275.527344 C 151.199219 275.59375 150.507812 275.910156 149.957031 276.617188 C 149.476562 277.398438 149.230469 278.203125 149.046875 278.984375 C 148.03125 277.847656 146.984375 276.699219 145.734375 275.707031 C 144.539062 274.769531 143.148438 274.085938 141.695312 273.671875 C 142.195312 273.082031 142.6875 272.472656 143.113281 271.8125 C 144.234375 270.074219 144.90625 268.027344 144.859375 265.917969 L 144.898438 265.917969 L 144.242188 250.230469 C 145.027344 250.675781 145.863281 251.042969 146.753906 251.285156 L 147.191406 249.609375 C 145.0625 249.070312 143.222656 247.566406 141.765625 245.789062 C 139.976562 243.585938 138.707031 240.949219 137.652344 238.21875 C 135.015625 231.335938 133.742188 223.964844 132.484375 216.59375 L 130.738281 216.886719 C 131.75 222.855469 132.832031 228.878906 134.632812 234.722656 C 133.078125 234.234375 131.664062 233.410156 131.027344 232.101562 C 130.25 230.683594 129.984375 228.851562 129.097656 227.042969 L 127.535156 227.808594 C 127.578125 227.898438 127.601562 228.003906 127.644531 228.097656 C 126.796875 229.660156 126.246094 231.359375 125.859375 233.046875 C 124.640625 231.925781 123.5 230.710938 122.730469 229.335938 C 121.75 227.628906 121.164062 225.667969 120.507812 223.65625 L 118.871094 224.167969 C 118.90625 224.273438 118.945312 224.386719 118.980469 224.496094 C 118.867188 225.433594 118.78125 226.316406 118.507812 227.042969 C 118.285156 227.683594 117.863281 228.234375 117.304688 228.644531 C 116.878906 227.21875 116.484375 225.789062 116.105469 224.347656 L 115.59375 224.496094 C 111.238281 221.511719 107.980469 217.019531 105.804688 212.117188 C 103.578125 207.101562 102.242188 201.699219 100.308594 196.394531 L 98.667969 196.976562 C 100.5625 202.167969 101.941406 207.644531 104.238281 212.847656 C 104.324219 213.042969 104.402344 213.234375 104.492188 213.429688 L 101.109375 217.722656 L 101.070312 214.449219 L 99.324219 214.484375 L 99.359375 217.542969 C 97.316406 218.714844 95.804688 220.453125 94.445312 222.203125 L 94.265625 219.542969 L 92.515625 219.652344 L 92.664062 221.910156 C 90.453125 222.558594 88.628906 223.964844 87.128906 225.585938 C 86.902344 216.105469 85.164062 206.273438 79.667969 198.46875 C 81.546875 197.5625 83.320312 196.347656 84.65625 194.648438 C 85.761719 193.253906 86.421875 191.382812 86.148438 189.515625 L 95.285156 180.304688 L 94.046875 179.066406 L 85.3125 187.875 C 84.878906 187.015625 84.605469 186.007812 84.363281 184.964844 C 83.941406 182.984375 83.695312 180.929688 83.34375 178.847656 L 83.492188 178.738281 L 82.363281 177.394531 L 72.5 185.621094 L 73.589844 186.964844 L 81.816406 180.160156 C 82.078125 181.859375 82.285156 183.585938 82.652344 185.328125 C 82.945312 186.800781 83.414062 188.382812 84.402344 189.734375 C 84.652344 190.992188 84.125 192.410156 83.273438 193.554688 C 82.21875 194.945312 80.742188 196.011719 79.085938 196.832031 C 79.214844 194.3125 79.332031 191.785156 79.195312 189.222656 L 77.449219 189.296875 C 77.609375 192.285156 77.394531 195.339844 77.230469 198.394531 C 74.449219 200.339844 70.800781 200.886719 67.148438 201.199219 C 67.820312 199.890625 68.492188 198.25 68.492188 198.25 C 68.492188 198.25 69.929688 196.003906 69.878906 194.757812 C 69.839844 193.851562 69.351562 192.953125 68.675781 192.355469 C 67.460938 191.273438 66.125 191.15625 64.089844 190.679688 L 62.597656 192.972656 C 64.214844 194.039062 66.289062 195.378906 66.601562 196.03125 C 66.527344 195.90625 66.617188 196.0625 66.675781 196.175781 C 66.8125 196.492188 66.945312 197.101562 66.78125 197.886719 C 66.59375 198.808594 65.828125 200.171875 65.074219 201.308594 L 65.144531 201.34375 C 63.253906 201.457031 61.378906 201.496094 59.503906 201.382812 C 58.777344 201.335938 58.042969 201.277344 57.355469 201.164062 C 56.929688 201.078125 56.597656 201.0625 56.371094 200.945312 C 56.351562 200.910156 56.300781 200.828125 56.15625 200.726562 C 55.890625 200.472656 55.664062 200.179688 55.425781 199.851562 C 54.796875 198.980469 54.273438 198.023438 53.96875 197.011719 C 53.664062 195.945312 53.585938 194.816406 53.933594 193.882812 C 54.289062 192.753906 55.355469 191.855469 56.554688 191.261719 L 55.828125 189.695312 C 54.679688 190.21875 53.609375 191.027344 52.878906 192.136719 C 50.078125 189.6875 47.542969 186.960938 45.707031 183.800781 C 44.203125 181.21875 43.191406 178.347656 42.796875 175.390625 C 42.140625 170.664062 42.984375 165.808594 43.816406 160.90625 L 47.347656 165.382812 L 48.691406 164.328125 L 44.179688 158.574219 C 44.195312 158.464844 44.234375 158.359375 44.25 158.25 L 42.542969 157.992188 C 42.25 159.792969 41.921875 161.617188 41.632812 163.453125 C 40.542969 162.792969 39.589844 161.832031 38.792969 160.761719 C 37.644531 159.207031 36.820312 157.402344 36.207031 155.519531 C 34.773438 151.097656 34.519531 146.292969 35.296875 141.6875 C 36.125 136.867188 38.191406 132.210938 41.632812 128.839844 C 45.566406 124.921875 51.308594 123.074219 56.957031 122.941406 C 57.429688 123.769531 57.769531 124.671875 57.902344 125.597656 C 58.023438 126.34375 58.042969 127.09375 57.972656 127.855469 C 56.785156 127.960938 55.566406 128.269531 54.515625 128.949219 C 53.476562 129.636719 52.695312 130.640625 52.1875 131.75 C 51.148438 134.058594 51.238281 136.671875 52.078125 138.957031 C 52.902344 141.304688 54.644531 143.429688 57.0625 144.378906 C 60.109375 145.453125 63.359375 144.433594 65.835938 142.742188 C 67.789062 141.277344 69.539062 139.449219 70.75 137.246094 C 71.746094 135.425781 72.308594 133.363281 72.316406 131.277344 C 72.308594 129.589844 71.980469 127.949219 71.40625 126.398438 C 74.554688 124.835938 77.515625 123.023438 80.542969 121.414062 C 83.214844 120.023438 85.867188 118.5625 88.585938 118.429688 C 88.789062 122.742188 88.269531 127.125 85.710938 130.257812 C 83.953125 132.488281 81.074219 133.828125 78.210938 133.859375 C 77.324219 133.828125 76.464844 133.542969 76.101562 132.914062 C 75.574219 132.234375 75.5625 131.175781 75.808594 130.183594 C 76.546875 127.164062 80.128906 125.359375 83.453125 125.089844 L 83.34375 123.339844 C 79.453125 123.539062 75.351562 125.769531 74.136719 129.710938 C 73.726562 131.054688 73.789062 132.625 74.644531 133.933594 C 75.664062 135.273438 77.304688 135.777344 78.792969 135.609375 L 78.792969 135.570312 C 80.925781 135.4375 82.980469 134.714844 84.726562 133.496094 C 87.117188 133.679688 89.523438 134.339844 90.878906 136.046875 C 92.085938 137.429688 92.636719 139.375 93.246094 141.359375 L 91.28125 141.542969 L 91.207031 141.46875 L 91.132812 141.542969 L 91.097656 141.542969 L 91.097656 141.578125 L 89.96875 142.742188 C 91.644531 144.382812 93.453125 145.71875 94.628906 147.4375 C 96.226562 149.6875 96.875 152.542969 97.140625 155.445312 L 93.9375 153.917969 L 93.171875 155.519531 L 98.195312 157.921875 L 98.886719 156.464844 L 98.996094 156.464844 C 98.828125 153.023438 98.128906 149.402344 96.085938 146.417969 C 95.1875 145.152344 94.101562 144.121094 93.027344 143.144531 L 95.210938 142.960938 L 95.066406 141.214844 L 95.027344 141.214844 C 94.417969 139.109375 93.738281 136.847656 92.191406 134.953125 C 90.695312 133.246094 88.640625 132.3125 86.511719 131.933594 C 86.695312 131.734375 86.890625 131.558594 87.058594 131.351562 C 90.308594 127.164062 90.710938 121.578125 90.1875 116.570312 L 88.949219 116.71875 L 88.949219 116.644531 C 85.515625 116.742188 82.496094 118.382812 79.742188 119.882812 C 76.671875 121.519531 73.710938 123.289062 70.679688 124.796875 C 69.835938 123.109375 68.742188 121.539062 67.476562 120.175781 C 67.101562 119.769531 66.707031 119.355469 66.308594 118.972656 C 73.9375 114.191406 81.324219 109.042969 88.949219 104.378906 C 98.609375 98.476562 108.742188 93.265625 119.5625 90.546875 C 124.761719 89.234375 130.085938 88.566406 135.433594 88.507812 Z M 135.433594 88.507812 " fill-opacity="1" fill-rule="nonzero"/><g clip-path="url(#e4029291d4)"><path fill="#6d4111" d="M 135.433594 86.730469 C 129.953125 86.789062 124.496094 87.464844 119.164062 88.804688 C 108.097656 91.601562 97.804688 96.898438 88.078125 102.855469 C 80.234375 107.65625 72.710938 112.941406 64.964844 117.78125 C 62.355469 115.621094 59.339844 114.011719 56.121094 112.976562 C 51.800781 111.566406 46.988281 111.28125 42.617188 112.757812 C 42.605469 112.753906 42.589844 112.761719 42.578125 112.757812 L 42.542969 112.792969 L 42.542969 112.828125 L 41.996094 114.394531 C 44.503906 115.289062 47.003906 116.144531 49.386719 117.195312 C 51.503906 118.140625 53.554688 119.195312 55.175781 120.691406 C 55.371094 120.875 55.539062 121.078125 55.71875 121.273438 C 50.105469 121.617188 44.472656 123.582031 40.394531 127.570312 C 39.515625 128.441406 38.746094 129.410156 38.03125 130.410156 C 36.632812 129.828125 35.351562 128.921875 34.644531 127.714844 C 34.019531 126.714844 33.808594 125.453125 33.808594 124.1875 C 33.804688 121.75 34.714844 119.324219 35.480469 116.761719 L 33.84375 116.25 C 33.839844 116.261719 33.847656 116.277344 33.84375 116.289062 C 32.519531 117.085938 31.515625 118.164062 30.640625 119.273438 C 29.257812 120.984375 28.148438 122.964844 27.511719 125.097656 C 26.734375 127.695312 26.707031 130.492188 27.4375 133.105469 C 28.46875 136.714844 30.722656 139.8125 33.335938 142.347656 L 33.480469 142.203125 C 32.808594 146.828125 33.09375 151.609375 34.535156 156.070312 C 35.183594 158.089844 36.09375 160.070312 37.375 161.824219 C 38.394531 163.226562 39.734375 164.457031 41.34375 165.28125 C 40.867188 168.6875 40.597656 172.132812 41.050781 175.617188 C 41.480469 178.8125 42.5625 181.902344 44.179688 184.679688 C 46.253906 188.226562 49.074219 191.238281 52.152344 193.855469 C 51.867188 195.09375 51.941406 196.355469 52.296875 197.496094 C 52.667969 198.714844 53.273438 199.867188 54.007812 200.878906 C 54.28125 201.257812 54.59375 201.617188 54.957031 201.972656 C 55.046875 202.097656 55.257812 202.253906 55.539062 202.410156 L 55.539062 202.445312 C 55.601562 202.476562 55.65625 202.492188 55.71875 202.515625 C 55.804688 202.558594 55.875 202.589844 55.976562 202.625 L 55.976562 202.589844 C 56.382812 202.730469 56.78125 202.839844 57.101562 202.882812 C 57.878906 203.007812 58.640625 203.089844 59.394531 203.136719 C 61.496094 203.265625 63.574219 203.203125 65.65625 203.0625 C 69.949219 202.816406 74.671875 202.34375 78.433594 199.714844 C 83.902344 207.558594 85.339844 217.847656 85.421875 227.667969 C 85.375 227.730469 85.320312 227.789062 85.277344 227.851562 L 86.695312 228.871094 C 88.414062 226.621094 90.367188 224.46875 92.8125 223.703125 L 92.847656 224.25 L 92.921875 224.25 C 92.898438 224.273438 92.867188 224.296875 92.847656 224.320312 L 94.230469 225.414062 C 95.953125 223.296875 97.421875 220.988281 99.398438 219.589844 L 99.398438 219.878906 L 99.328125 219.988281 L 99.398438 220.0625 L 99.398438 220.171875 L 99.542969 220.171875 L 100.710938 221.082031 L 105.367188 215.183594 C 107.613281 219.4375 110.722656 223.257812 114.722656 225.996094 C 115.992188 230.71875 117.484375 235.445312 119.820312 239.828125 C 121.542969 243.144531 124.039062 246.4375 127.644531 248.015625 C 129.300781 253.257812 130.6875 258.558594 131.210938 263.960938 C 131.328125 265.746094 130.746094 267.574219 129.757812 269.128906 C 128.625 270.914062 127.019531 272.445312 125.351562 273.933594 C 121.605469 277.242188 117.378906 280.421875 114.6875 284.960938 L 114.613281 284.960938 L 114.613281 286.710938 L 126.480469 286.710938 L 126.480469 288.347656 L 149.777344 288.347656 L 149.777344 287.730469 L 149.8125 287.730469 C 149.8125 287.71875 149.8125 287.703125 149.8125 287.691406 C 149.8125 287.667969 149.8125 287.644531 149.8125 287.621094 C 149.8125 287.53125 149.808594 287.453125 149.8125 287.363281 C 149.824219 287.050781 149.832031 286.734375 149.847656 286.417969 C 149.898438 285.40625 149.964844 284.402344 150.066406 283.398438 C 150.1875 282.234375 150.335938 281.09375 150.578125 279.976562 C 150.789062 279.054688 150.988281 278.203125 151.414062 277.574219 C 151.390625 277.460938 151.734375 277.40625 152.140625 277.246094 C 152.660156 277.117188 153.214844 277.078125 153.816406 277.0625 L 156.292969 277.171875 L 156.328125 277.171875 C 156.746094 271.714844 156.890625 266.253906 157.128906 260.832031 C 157.339844 256.085938 157.574219 251.355469 158.367188 246.742188 C 159.464844 245.945312 160.160156 244.75 160.550781 243.578125 C 161.273438 241.5625 161.511719 239.480469 161.640625 237.460938 C 161.722656 236.261719 161.769531 235.050781 161.789062 233.859375 C 164.820312 232.550781 167.597656 230.433594 169.25 227.5625 C 169.484375 228.066406 169.578125 228.703125 169.648438 229.382812 C 169.550781 229.460938 169.460938 229.558594 169.359375 229.636719 L 170.414062 231.019531 C 173.144531 229 175.519531 226.304688 176.929688 223.195312 C 187.683594 223 198.65625 222.121094 209.035156 219.226562 L 209.472656 223.484375 C 209.4375 223.488281 209.398438 223.480469 209.363281 223.484375 L 209.507812 225.195312 C 215.09375 224.714844 220.664062 223.472656 225.816406 221.15625 C 228.070312 220.136719 230.207031 218.929688 232.292969 217.660156 C 236.636719 226.234375 239.152344 236.050781 237.097656 245.289062 C 235.367188 253.292969 230.496094 260.367188 224.796875 266.4375 C 221.433594 269.496094 217.109375 271.503906 213.039062 274.042969 C 208.707031 276.710938 204.535156 280.195312 202.375 285 L 202.335938 285 L 202.335938 285.074219 C 202.324219 285.097656 202.3125 285.121094 202.300781 285.144531 L 202.335938 285.144531 L 202.335938 286.746094 L 226.617188 286.746094 L 226.617188 286.089844 L 227.78125 282.234375 C 228.21875 281.089844 228.707031 279.976562 229.34375 278.992188 C 229.921875 278.152344 230.523438 277.363281 231.273438 277.066406 C 231.816406 276.691406 232.765625 277.144531 233.824219 277.464844 L 235.824219 278.375 L 235.859375 278.300781 L 237.027344 278.628906 C 240.046875 267.855469 246.957031 258.230469 256.355469 252.203125 L 256.390625 252.238281 C 256.628906 252.101562 256.835938 251.933594 257.046875 251.765625 L 257.226562 251.65625 L 257.226562 251.621094 C 258.347656 250.628906 259.015625 249.21875 259.121094 247.761719 C 259.226562 246.234375 259.019531 244.789062 258.792969 243.394531 L 258.902344 243.359375 C 258.828125 243.179688 258.753906 242.996094 258.683594 242.8125 C 258.65625 242.648438 258.636719 242.464844 258.609375 242.304688 L 258.5 242.304688 C 256.003906 235.296875 256.757812 227.390625 259.449219 220.316406 C 261.773438 221.226562 264.191406 221.882812 266.65625 222.320312 L 266.582031 222.429688 C 274.425781 227.511719 280.582031 235.160156 283.761719 243.941406 C 286.570312 251.691406 287.175781 260.320312 284.964844 268.21875 C 284.949219 268.25 284.941406 268.296875 284.925781 268.328125 C 284.839844 268.53125 284.765625 268.742188 284.671875 268.945312 C 284.375 269.605469 284.070312 270.246094 283.726562 270.875 C 282.898438 272.328125 282.140625 273.761719 280.960938 274.480469 C 277.539062 276.703125 274.476562 279.398438 271.640625 282.269531 C 270.660156 283.261719 269.691406 284.277344 268.765625 285.328125 C 268.5 285.625 268.226562 285.929688 267.964844 286.238281 L 267.929688 286.273438 L 267.746094 286.273438 L 267.746094 286.527344 C 267.738281 286.539062 267.71875 286.554688 267.710938 286.5625 C 267.703125 286.574219 267.71875 286.589844 267.710938 286.601562 L 267.746094 286.636719 L 267.746094 288.019531 L 290.570312 288.019531 L 290.570312 288.128906 C 290.691406 288.109375 290.765625 288.050781 290.863281 288.019531 L 291.40625 288.019531 L 291.40625 287.691406 L 291.445312 287.621094 C 291.585938 287.378906 291.679688 287.195312 291.699219 287.074219 C 291.800781 286.640625 291.828125 286.242188 291.84375 285.910156 C 291.914062 284.800781 291.929688 283.75 291.988281 282.707031 C 292.0625 281.480469 292.148438 280.269531 292.425781 279.136719 C 292.691406 278.167969 292.988281 277.25 293.589844 276.734375 C 294.203125 276.042969 295.5 276.054688 296.832031 275.933594 C 297.414062 275.910156 298.023438 275.902344 298.613281 275.933594 C 298.800781 275.945312 298.976562 275.957031 299.160156 275.972656 L 299.304688 275.972656 C 299.3125 275.921875 299.332031 275.875 299.34375 275.824219 L 299.996094 275.824219 L 300.214844 249.070312 C 301.414062 247.925781 301.964844 246.410156 302.253906 244.996094 C 302.675781 243.222656 302.828125 241.414062 302.875 239.644531 C 302.914062 238.117188 302.871094 236.613281 302.765625 235.09375 C 302.730469 234.617188 302.703125 234.117188 302.65625 233.640625 C 302.640625 233.503906 302.597656 233.375 302.582031 233.238281 L 302.617188 233.164062 C 296.792969 231.398438 292.433594 226.132812 290.351562 220.28125 C 287.300781 211.675781 287.597656 202.160156 288.53125 192.90625 C 290.15625 188.949219 291.371094 184.84375 292.0625 180.605469 C 292.894531 175.472656 292.917969 170.25 292.316406 165.097656 C 293.703125 165.402344 296.207031 166.019531 297.378906 166.992188 C 300.730469 169.78125 303.519531 173.792969 303.929688 178.347656 C 304.238281 181.585938 303.792969 184.898438 303.054688 188.140625 C 302.292969 191.480469 301.199219 194.75 300.070312 198.039062 C 299.019531 201.101562 297.910156 204.183594 297.121094 207.394531 C 296.460938 210.027344 295.996094 212.867188 296.503906 215.695312 C 297.1875 219.375 298.796875 222.894531 301.089844 225.851562 C 303.296875 228.742188 306.457031 231.140625 310.226562 231.636719 C 314.226562 232.117188 318.378906 230.8125 321.363281 228.105469 C 325.367188 224.398438 326.679688 218.648438 326.242188 213.402344 L 324.496094 213.546875 C 324.496094 213.558594 324.496094 213.570312 324.496094 213.582031 C 324.269531 215.390625 324.015625 217.167969 323.039062 218.386719 C 322.113281 219.6875 320.457031 220.332031 318.707031 220.863281 L 318.851562 215.949219 L 318.816406 215.949219 C 318.851562 215.875 318.894531 215.804688 318.925781 215.730469 L 317.289062 215.039062 C 316.527344 216.847656 315.121094 218.394531 313.355469 219.152344 C 312.097656 219.71875 310.6875 219.949219 309.242188 219.988281 C 309.503906 219.773438 309.765625 219.539062 310.007812 219.261719 C 310.847656 218.191406 311.191406 216.902344 311.210938 215.660156 L 311.28125 215.660156 L 311.136719 213.910156 C 308.554688 214.101562 305.640625 213.292969 304.546875 211.179688 C 303.039062 207.503906 303.835938 203.34375 305.566406 200.625 C 309.496094 194.453125 312.09375 187.351562 311.902344 180.058594 C 311.671875 171.679688 308.207031 164.089844 303.417969 157.273438 C 297.523438 148.875 285.699219 140.449219 276.558594 135.90625 C 264.726562 130.027344 255.238281 128.175781 242.269531 127.390625 L 201.902344 115.8125 C 188.34375 104.464844 173.238281 94.460938 156.328125 89.570312 C 149.539062 87.613281 142.480469 86.660156 135.4375 86.730469 Z M 135.433594 86.730469 " fill-opacity="1" fill-rule="nonzero"/></g><path fill="#342d2a" d="M 49.3125 113.515625 C 51.425781 113.566406 53.550781 113.957031 55.574219 114.609375 C 59.609375 115.914062 63.3125 118.230469 66.167969 121.34375 C 68.691406 124.125 70.613281 127.660156 70.570312 131.277344 C 70.570312 133.058594 70.082031 134.835938 69.222656 136.410156 C 68.183594 138.339844 66.582031 139.957031 64.785156 141.324219 L 64.785156 141.363281 C 62.5625 142.757812 59.886719 143.660156 57.6875 142.746094 C 55.84375 142.078125 54.4375 140.316406 53.71875 138.375 C 53.039062 136.4375 52.914062 134.25 53.753906 132.480469 C 54.140625 131.648438 54.753906 130.925781 55.503906 130.441406 C 56.121094 130.023438 56.867188 129.765625 57.648438 129.640625 C 57.359375 130.839844 56.917969 132.046875 56.410156 133.207031 L 58.011719 133.898438 C 59.203125 131.289062 60.042969 128.324219 59.613281 125.308594 C 59.25 122.992188 58.027344 120.949219 56.339844 119.414062 C 54.484375 117.726562 52.273438 116.550781 50.078125 115.589844 C 48.589844 114.933594 47.078125 114.355469 45.566406 113.808594 C 46.789062 113.585938 48.058594 113.484375 49.3125 113.515625 Z M 49.3125 113.515625 " fill-opacity="1" fill-rule="nonzero"/><path fill="#342d2a" d="M 32.859375 119.378906 C 32.421875 120.914062 32.085938 122.507812 32.058594 124.183594 C 32.035156 125.695312 32.332031 127.253906 33.148438 128.625 C 34.09375 130.136719 35.539062 131.195312 37.082031 131.863281 C 35.503906 134.457031 34.421875 137.347656 33.804688 140.308594 C 31.683594 138.066406 29.933594 135.5 29.144531 132.628906 C 28.503906 130.34375 28.5 127.878906 29.183594 125.605469 C 29.742188 123.714844 30.734375 121.917969 31.984375 120.363281 C 32.269531 120.015625 32.5625 119.699219 32.859375 119.378906 Z M 32.859375 119.378906 " fill-opacity="1" fill-rule="nonzero"/><path fill="#6d4111" d="M 62.238281 154.324219 L 56.234375 165.171875 L 56.199219 165.171875 L 56.199219 165.242188 L 56.125 165.390625 L 56.199219 165.425781 L 56.234375 166.917969 C 58.550781 166.90625 61.058594 166.972656 63.476562 166.082031 C 64.601562 165.65625 65.644531 164.945312 66.425781 163.96875 C 67.355469 162.765625 67.820312 161.320312 68.027344 159.929688 L 66.316406 159.675781 C 66.113281 160.871094 65.738281 162.023438 65.042969 162.878906 C 64.503906 163.574219 63.722656 164.109375 62.859375 164.441406 C 61.886719 164.828125 60.835938 164.984375 59.726562 165.0625 C 62.542969 162.867188 66.65625 158.015625 62.238281 154.324219 Z M 62.238281 154.324219 " fill-opacity="1" fill-rule="nonzero"/><path fill="#6d4111" d="M 236.441406 215.109375 C 239.484375 216.960938 242.941406 218.488281 246.667969 218.421875 C 249.105469 218.335938 251.277344 217.527344 253.367188 217.222656 C 254.792969 218.132812 256.292969 218.929688 257.84375 219.625 C 254.964844 227.105469 254.207031 235.574219 256.96875 243.175781 C 257.21875 244.71875 257.492188 246.210938 257.371094 247.617188 C 257.285156 248.613281 256.886719 249.597656 256.207031 250.234375 C 246.527344 256.179688 239.320312 265.6875 235.859375 276.480469 L 234.511719 275.859375 C 233.480469 275.378906 232.042969 274.917969 230.542969 275.460938 C 229.316406 276.050781 228.488281 277.0625 227.886719 278.042969 C 227.4375 278.75 227.054688 279.484375 226.722656 280.230469 C 225.847656 278.542969 224.675781 277.027344 223.300781 275.75 C 221.984375 274.527344 220.554688 273.496094 219.152344 272.476562 C 221.625 271.027344 224.085938 269.492188 226.25 267.488281 L 226.210938 267.453125 C 231.988281 261.3125 236.953125 254.042969 238.808594 245.6875 C 240.929688 235.847656 238.285156 225.609375 233.746094 216.785156 C 234.644531 216.222656 235.550781 215.671875 236.441406 215.109375 Z M 236.441406 215.109375 " fill-opacity="1" fill-rule="nonzero"/><path fill="#6d4111" d="M 120.074219 227.773438 C 120.398438 228.59375 120.796875 229.421875 121.238281 230.210938 C 122.34375 232.132812 123.863281 233.683594 125.460938 235.054688 C 125.453125 235.113281 125.433594 235.175781 125.425781 235.234375 L 127.171875 235.488281 C 127.453125 233.734375 127.839844 232.023438 128.484375 230.429688 C 128.746094 231.253906 129.0625 232.101562 129.503906 232.941406 C 130.746094 235.128906 133.015625 236.300781 135.289062 236.726562 C 135.527344 237.429688 135.753906 238.144531 136.019531 238.839844 C 137.089844 241.664062 138.433594 244.457031 140.386719 246.882812 C 140.996094 247.644531 141.699219 248.363281 142.460938 248.992188 L 143.152344 265.554688 L 143.078125 265.554688 C 143.246094 267.398438 142.679688 269.300781 141.660156 270.90625 C 140.527344 272.691406 138.921875 274.183594 137.253906 275.675781 C 136.949219 275.941406 136.617188 276.207031 136.308594 276.476562 C 134.589844 274.199219 131.8125 273.0625 129.066406 272.761719 C 129.847656 271.929688 130.613281 271.054688 131.25 270.070312 C 132.367188 268.332031 133.003906 266.277344 132.960938 264.171875 L 132.996094 264.171875 C 132.441406 258.089844 130.847656 252.183594 128.992188 246.445312 L 128.664062 246.554688 C 125.445312 245.394531 123.167969 242.230469 121.386719 238.984375 C 119.921875 236.253906 118.8125 233.34375 117.855469 230.359375 C 118.855469 229.769531 119.636719 228.859375 120.074219 227.773438 Z M 120.074219 227.773438 " fill-opacity="1" fill-rule="nonzero"/><path fill="#6d4111" d="M 295.8125 234.761719 C 295.492188 234.769531 295.207031 234.78125 294.902344 234.800781 L 292.535156 235.054688 L 292.71875 236.800781 L 295.046875 236.546875 C 295.617188 236.507812 296.152344 236.515625 296.683594 236.546875 C 297.015625 236.59375 297.277344 236.585938 297.414062 236.621094 C 297.421875 236.636719 297.429688 236.628906 297.449219 236.65625 C 297.511719 236.859375 297.503906 237.128906 297.519531 237.421875 C 297.5625 238.265625 297.472656 239.15625 297.304688 240.042969 C 296.824219 242.253906 296.054688 244.433594 294.574219 245.902344 C 294.472656 247.894531 294.414062 249.878906 294.390625 251.871094 C 294.398438 252.449219 294.414062 253.039062 294.425781 253.617188 C 294.433594 253.777344 294.421875 253.929688 294.425781 254.089844 C 294.429688 254.136719 294.425781 254.15625 294.425781 254.199219 C 294.714844 254.207031 295.011719 254.238281 295.300781 254.238281 L 296.175781 254.164062 C 296.171875 254.121094 296.175781 254.0625 296.175781 254.019531 C 296.167969 253.863281 296.179688 253.703125 296.175781 253.546875 C 296.160156 252.972656 296.144531 252.40625 296.136719 251.835938 C 296.074219 250.066406 296.050781 248.289062 296.066406 246.519531 C 297.800781 244.839844 298.632812 242.578125 299.015625 240.367188 C 299.203125 239.402344 299.308594 238.382812 299.269531 237.347656 C 299.257812 236.996094 299.238281 236.597656 299.121094 236.183594 C 299.113281 235.941406 298.921875 235.585938 298.46875 235.199219 C 297.808594 234.835938 297.203125 234.785156 296.792969 234.800781 C 296.464844 234.78125 296.128906 234.757812 295.8125 234.761719 Z M 295.8125 234.761719 " fill-opacity="1" fill-rule="nonzero"/><path fill="#6d4111" d="M 251.332031 242.371094 L 250.273438 243.753906 L 252.132812 245.136719 C 252.578125 245.496094 253.03125 245.847656 253.40625 246.230469 C 253.621094 246.488281 253.800781 246.660156 253.878906 246.773438 C 253.871094 246.792969 253.847656 246.777344 253.84375 246.8125 C 253.753906 247.003906 253.625 247.238281 253.441406 247.464844 C 252.90625 248.121094 252.230469 248.671875 251.511719 249.214844 C 249.671875 250.53125 247.628906 251.632812 245.542969 251.726562 C 244.128906 253.132812 242.746094 254.59375 241.394531 256.058594 C 241.011719 256.492188 240.644531 256.925781 240.265625 257.367188 C 240.160156 257.488281 240.042969 257.609375 239.9375 257.730469 C 239.910156 257.765625 239.894531 257.769531 239.863281 257.804688 C 240.074219 258 240.273438 258.226562 240.484375 258.421875 C 240.488281 258.433594 240.515625 258.421875 240.519531 258.421875 C 240.75 258.597656 240.945312 258.796875 241.175781 258.96875 C 241.203125 258.9375 241.257812 258.890625 241.285156 258.859375 C 241.386719 258.738281 241.472656 258.613281 241.574219 258.496094 C 241.949219 258.0625 242.324219 257.648438 242.703125 257.222656 C 243.84375 255.867188 245.003906 254.519531 246.199219 253.21875 C 248.613281 253.136719 250.804688 252.015625 252.566406 250.632812 C 253.355469 250.046875 254.125 249.355469 254.789062 248.558594 C 255.015625 248.292969 255.214844 247.996094 255.40625 247.613281 C 255.5625 247.425781 255.667969 247 255.589844 246.410156 C 255.34375 245.699219 254.960938 245.253906 254.644531 244.992188 C 254.179688 244.527344 253.707031 244.136719 253.222656 243.753906 Z M 251.332031 242.371094 " fill-opacity="1" fill-rule="nonzero"/><path fill="#342d2a" d="M 217.480469 273.417969 C 219.101562 274.601562 220.707031 275.710938 222.105469 277.019531 C 223.707031 278.519531 225.035156 280.324219 225.78125 282.335938 L 225.964844 282.261719 L 225.125 284.992188 L 209.546875 284.992188 L 213.84375 279.679688 L 212.457031 278.585938 L 207.289062 284.992188 L 204.304688 284.992188 C 206.292969 281.011719 210.015625 278.003906 213.949219 275.527344 C 215.097656 274.816406 216.289062 274.101562 217.480469 273.417969 Z M 217.480469 273.417969 " fill-opacity="1" fill-rule="nonzero"/><path fill="#342d2a" d="M 127.429688 274.4375 C 130.371094 274.523438 133.539062 275.398438 135 277.640625 C 132.410156 279.863281 129.777344 282.132812 127.722656 284.957031 L 122.007812 284.957031 L 126.59375 279.679688 L 125.28125 278.550781 L 119.675781 284.957031 L 116.765625 284.957031 C 119.214844 281.234375 122.992188 278.390625 126.519531 275.238281 C 126.820312 274.972656 127.132812 274.710938 127.429688 274.4375 Z M 127.429688 274.4375 " fill-opacity="1" fill-rule="nonzero"/><path fill="#342d2a" d="M 140.347656 275.164062 C 141.90625 275.460938 143.402344 276.113281 144.644531 277.09375 C 146.082031 278.214844 147.3125 279.671875 148.609375 281.132812 C 148.503906 281.832031 148.425781 282.511719 148.355469 283.207031 C 148.25 284.246094 148.152344 285.300781 148.101562 286.335938 C 148.097656 286.421875 148.105469 286.507812 148.101562 286.59375 L 132.15625 286.59375 L 137.144531 280.878906 L 135.796875 279.75 L 129.828125 286.59375 L 128.699219 286.59375 C 131.152344 282.925781 134.925781 280.105469 138.417969 276.984375 C 139.070312 276.40625 139.71875 275.789062 140.347656 275.164062 Z M 140.347656 275.164062 " fill-opacity="1" fill-rule="nonzero"/><path fill="#342d2a" d="M 281.574219 276.152344 L 281.574219 276.296875 C 283.246094 276.191406 284.964844 276.609375 286.453125 277.425781 C 287.835938 278.179688 289.097656 279.246094 290.421875 280.300781 C 290.3125 281.066406 290.28125 281.808594 290.238281 282.558594 C 290.175781 283.660156 290.160156 284.757812 290.09375 285.796875 C 290.078125 285.988281 290.035156 286.113281 290.019531 286.269531 L 275.859375 286.269531 L 280.121094 281.539062 L 278.808594 280.375 L 273.496094 286.269531 L 270.253906 286.269531 C 271.101562 285.324219 271.980469 284.410156 272.875 283.503906 C 275.5625 280.789062 278.425781 278.238281 281.574219 276.152344 Z M 281.574219 276.152344 " fill-opacity="1" fill-rule="nonzero"/><g clip-path="url(#69baeba939)"><path fill="#000000" d="M 135.433594 86.730469 C 129.953125 86.789062 124.496094 87.464844 119.164062 88.804688 C 108.097656 91.601562 97.804688 96.898438 88.078125 102.855469 C 80.234375 107.65625 72.710938 112.941406 64.964844 117.78125 C 62.355469 115.621094 59.339844 114.011719 56.121094 112.976562 C 51.800781 111.566406 46.988281 111.28125 42.617188 112.757812 L 42.578125 112.757812 L 42.542969 112.792969 L 42.542969 112.828125 L 41.996094 114.394531 C 44.503906 115.289062 47.003906 116.144531 49.386719 117.195312 C 51.503906 118.140625 53.554688 119.195312 55.175781 120.691406 C 55.371094 120.871094 55.539062 121.078125 55.71875 121.273438 C 50.105469 121.617188 44.472656 123.582031 40.394531 127.570312 C 39.515625 128.441406 38.746094 129.410156 38.03125 130.410156 C 36.632812 129.824219 35.351562 128.921875 34.644531 127.714844 C 34.019531 126.714844 33.808594 125.453125 33.808594 124.183594 C 33.804688 121.75 34.714844 119.324219 35.480469 116.761719 L 33.84375 116.25 C 33.839844 116.261719 33.847656 116.277344 33.84375 116.285156 C 32.519531 117.085938 31.515625 118.164062 30.640625 119.269531 C 29.257812 120.984375 28.148438 122.964844 27.511719 125.09375 C 26.734375 127.691406 26.707031 130.492188 27.4375 133.101562 C 28.46875 136.714844 30.722656 139.8125 33.335938 142.347656 L 33.480469 142.203125 C 32.808594 146.824219 33.09375 151.605469 34.535156 156.070312 C 35.183594 158.089844 36.09375 160.070312 37.375 161.820312 C 38.394531 163.222656 39.734375 164.457031 41.34375 165.28125 C 40.867188 168.6875 40.597656 172.132812 41.050781 175.617188 C 41.480469 178.808594 42.5625 181.902344 44.179688 184.679688 C 46.253906 188.226562 49.074219 191.234375 52.152344 193.851562 C 51.867188 195.09375 51.941406 196.351562 52.296875 197.492188 C 52.667969 198.710938 53.273438 199.867188 54.007812 200.878906 C 54.28125 201.257812 54.59375 201.617188 54.957031 201.96875 C 55.046875 202.097656 55.257812 202.253906 55.539062 202.40625 L 55.539062 202.441406 C 55.601562 202.472656 55.65625 202.488281 55.71875 202.515625 C 55.804688 202.554688 55.875 202.589844 55.976562 202.625 L 55.976562 202.589844 C 56.382812 202.730469 56.78125 202.839844 57.101562 202.882812 C 57.878906 203.003906 58.640625 203.089844 59.394531 203.136719 C 61.496094 203.265625 63.574219 203.203125 65.65625 203.0625 C 69.949219 202.816406 74.671875 202.34375 78.433594 199.714844 C 83.902344 207.5625 85.339844 217.851562 85.421875 227.671875 C 85.375 227.730469 85.320312 227.789062 85.277344 227.851562 L 86.695312 228.871094 C 88.414062 226.621094 90.367188 224.46875 92.8125 223.703125 L 92.847656 224.25 L 92.921875 224.25 C 92.898438 224.273438 92.867188 224.296875 92.847656 224.320312 L 94.230469 225.414062 C 95.953125 223.296875 97.421875 220.988281 99.398438 219.589844 L 99.398438 219.878906 L 99.328125 219.988281 L 99.398438 220.0625 L 99.398438 220.171875 L 99.542969 220.171875 L 100.710938 221.082031 L 105.367188 215.183594 C 107.613281 219.4375 110.722656 223.257812 114.722656 225.996094 C 115.992188 230.71875 117.484375 235.441406 119.820312 239.828125 C 121.542969 243.144531 124.039062 246.4375 127.644531 248.015625 C 129.300781 253.257812 130.6875 258.558594 131.210938 263.960938 C 131.328125 265.746094 130.746094 267.574219 129.757812 269.128906 C 128.625 270.914062 127.019531 272.445312 125.351562 273.933594 C 121.605469 277.242188 117.378906 280.421875 114.6875 284.960938 L 114.613281 284.960938 L 114.613281 286.710938 L 126.480469 286.710938 L 126.480469 288.347656 L 149.777344 288.347656 L 149.777344 287.730469 L 149.8125 287.730469 C 149.8125 287.71875 149.8125 287.703125 149.8125 287.691406 C 149.8125 287.667969 149.8125 287.644531 149.8125 287.621094 C 149.8125 287.53125 149.808594 287.453125 149.8125 287.363281 C 149.824219 287.050781 149.832031 286.734375 149.847656 286.417969 C 149.898438 285.40625 149.964844 284.402344 150.066406 283.398438 C 150.1875 282.230469 150.335938 281.09375 150.578125 279.976562 C 150.789062 279.054688 150.988281 278.203125 151.414062 277.574219 C 151.390625 277.460938 151.734375 277.40625 152.140625 277.246094 C 152.660156 277.117188 153.214844 277.078125 153.816406 277.0625 L 156.292969 277.171875 L 156.328125 277.171875 C 156.746094 271.714844 156.890625 266.253906 157.128906 260.832031 C 157.339844 256.085938 157.574219 251.355469 158.367188 246.742188 C 159.464844 245.945312 160.160156 244.75 160.550781 243.578125 C 161.273438 241.5625 161.511719 239.480469 161.640625 237.460938 C 161.722656 236.261719 161.769531 235.050781 161.789062 233.859375 C 164.820312 232.550781 167.597656 230.433594 169.25 227.5625 C 169.484375 228.066406 169.578125 228.703125 169.648438 229.382812 C 169.550781 229.460938 169.460938 229.558594 169.359375 229.636719 L 170.414062 231.019531 C 173.144531 229 175.519531 226.304688 176.929688 223.195312 C 187.683594 223 198.65625 222.121094 209.035156 219.226562 L 209.472656 223.484375 L 209.363281 223.484375 L 209.507812 225.195312 C 215.09375 224.714844 220.664062 223.472656 225.816406 221.15625 C 228.070312 220.136719 230.207031 218.929688 232.292969 217.660156 C 236.636719 226.234375 239.152344 236.050781 237.097656 245.289062 C 235.367188 253.292969 230.496094 260.367188 224.796875 266.4375 C 221.433594 269.496094 217.109375 271.503906 213.039062 274.042969 C 208.707031 276.710938 204.535156 280.195312 202.375 285 L 202.335938 285 L 202.335938 285.074219 C 202.324219 285.097656 202.3125 285.121094 202.300781 285.144531 L 202.335938 285.144531 L 202.335938 286.746094 L 226.617188 286.746094 L 226.617188 286.089844 L 227.78125 282.234375 C 228.21875 281.089844 228.707031 279.976562 229.34375 278.992188 C 229.921875 278.152344 230.523438 277.363281 231.273438 277.066406 C 231.816406 276.691406 232.765625 277.144531 233.824219 277.464844 L 235.824219 278.375 L 235.859375 278.300781 L 237.027344 278.628906 C 240.046875 267.855469 246.957031 258.230469 256.355469 252.203125 L 256.390625 252.238281 C 256.628906 252.101562 256.835938 251.933594 257.046875 251.765625 L 257.226562 251.65625 L 257.226562 251.621094 C 258.347656 250.628906 259.015625 249.21875 259.121094 247.761719 C 259.226562 246.234375 259.019531 244.789062 258.792969 243.394531 L 258.902344 243.359375 C 258.828125 243.179688 258.753906 242.992188 258.683594 242.8125 C 258.65625 242.644531 258.636719 242.464844 258.609375 242.300781 L 258.5 242.300781 C 256.003906 235.296875 256.757812 227.390625 259.449219 220.316406 C 261.773438 221.226562 264.191406 221.878906 266.65625 222.320312 L 266.582031 222.429688 C 274.425781 227.511719 280.582031 235.160156 283.761719 243.941406 C 286.570312 251.691406 287.175781 260.320312 284.964844 268.21875 C 284.949219 268.25 284.941406 268.296875 284.925781 268.328125 C 284.839844 268.53125 284.765625 268.746094 284.671875 268.945312 C 284.375 269.605469 284.070312 270.246094 283.726562 270.875 C 282.898438 272.328125 282.140625 273.761719 280.960938 274.480469 C 277.539062 276.703125 274.476562 279.398438 271.640625 282.269531 C 270.660156 283.261719 269.691406 284.277344 268.765625 285.328125 C 268.5 285.628906 268.226562 285.929688 267.964844 286.238281 L 267.929688 286.273438 L 267.746094 286.273438 L 267.746094 286.527344 C 267.738281 286.539062 267.71875 286.554688 267.710938 286.5625 C 267.703125 286.574219 267.71875 286.589844 267.710938 286.601562 L 267.746094 286.636719 L 267.746094 288.019531 L 290.570312 288.019531 L 290.570312 288.128906 C 290.691406 288.109375 290.765625 288.050781 290.863281 288.019531 L 291.40625 288.019531 L 291.40625 287.691406 L 291.445312 287.617188 C 291.585938 287.375 291.679688 287.191406 291.699219 287.070312 C 291.800781 286.636719 291.828125 286.242188 291.84375 285.90625 C 291.914062 284.800781 291.929688 283.746094 291.988281 282.703125 C 292.0625 281.476562 292.148438 280.265625 292.425781 279.136719 C 292.691406 278.164062 292.988281 277.25 293.589844 276.734375 C 294.203125 276.039062 295.5 276.050781 296.832031 275.933594 C 297.414062 275.910156 298.023438 275.902344 298.613281 275.933594 L 299.160156 275.96875 L 299.304688 275.96875 C 299.3125 275.917969 299.332031 275.875 299.34375 275.824219 L 299.996094 275.824219 L 300.214844 249.070312 C 301.414062 247.921875 301.964844 246.40625 302.253906 244.992188 C 302.675781 243.21875 302.828125 241.410156 302.875 239.640625 C 302.914062 238.113281 302.871094 236.609375 302.765625 235.09375 C 302.730469 234.617188 302.703125 234.113281 302.65625 233.636719 C 302.640625 233.503906 302.597656 233.371094 302.582031 233.234375 L 302.617188 233.164062 C 296.792969 231.398438 292.433594 226.128906 290.351562 220.277344 C 287.300781 211.675781 287.597656 202.15625 288.53125 192.90625 C 290.15625 188.945312 291.371094 184.839844 292.0625 180.601562 C 292.894531 175.46875 292.917969 170.246094 292.316406 165.097656 C 293.703125 165.402344 296.207031 166.015625 297.378906 166.988281 C 300.730469 169.777344 303.519531 173.789062 303.929688 178.34375 C 304.238281 181.582031 303.792969 184.894531 303.054688 188.136719 C 302.292969 191.476562 301.199219 194.746094 300.070312 198.039062 C 299.019531 201.097656 297.910156 204.183594 297.121094 207.390625 C 296.460938 210.023438 295.996094 212.863281 296.503906 215.691406 C 297.1875 219.371094 298.796875 222.890625 301.089844 225.847656 C 303.296875 228.738281 306.457031 231.136719 310.226562 231.632812 C 314.226562 232.117188 318.378906 230.808594 321.363281 228.105469 C 325.367188 224.394531 326.679688 218.648438 326.242188 213.398438 L 324.496094 213.542969 C 324.496094 213.558594 324.496094 213.570312 324.496094 213.578125 C 324.269531 215.386719 324.015625 217.164062 323.039062 218.386719 C 322.113281 219.683594 320.457031 220.328125 318.707031 220.859375 L 318.851562 215.945312 L 318.816406 215.945312 C 318.851562 215.871094 318.894531 215.800781 318.925781 215.726562 L 317.289062 215.035156 C 316.527344 216.84375 315.121094 218.390625 313.355469 219.148438 C 312.097656 219.714844 310.6875 219.945312 309.242188 219.988281 C 309.503906 219.773438 309.765625 219.535156 310.007812 219.257812 C 310.847656 218.1875 311.191406 216.898438 311.210938 215.65625 L 311.28125 215.65625 L 311.136719 213.90625 C 308.554688 214.097656 305.640625 213.292969 304.546875 211.175781 C 303.039062 207.5 303.835938 203.339844 305.566406 200.621094 C 309.496094 194.453125 312.09375 187.351562 311.902344 180.054688 C 311.671875 171.675781 308.207031 164.089844 303.417969 157.269531 C 297.523438 148.871094 285.699219 140.445312 276.558594 135.902344 C 264.726562 130.027344 255.238281 128.171875 242.269531 127.386719 L 201.902344 115.8125 C 188.34375 104.460938 173.238281 94.457031 156.328125 89.566406 C 149.539062 87.609375 142.480469 86.65625 135.4375 86.726562 Z M 135.433594 88.515625 C 142.308594 88.4375 149.21875 89.367188 155.855469 91.28125 C 171.445312 95.765625 185.507812 104.820312 198.332031 115.230469 C 197.261719 116.140625 196.042969 116.828125 194.800781 116.832031 C 193.035156 116.953125 191.304688 115.796875 189.742188 114.503906 L 188.578125 115.851562 C 189.226562 116.433594 189.964844 116.996094 190.761719 117.453125 L 190.761719 118.796875 C 189.203125 118.824219 187.683594 118.875 186.210938 118.761719 C 184.214844 118.601562 182.234375 118.070312 180.714844 116.941406 L 179.660156 118.363281 C 180.242188 118.78125 180.871094 119.128906 181.515625 119.417969 L 181.515625 121.820312 C 179.699219 121.847656 177.941406 122.042969 176.273438 121.929688 C 174.207031 121.777344 172.125 120.929688 171.070312 119.308594 L 169.648438 120.292969 C 171.175781 122.425781 173.683594 123.535156 176.164062 123.675781 C 178.011719 123.792969 179.808594 123.597656 181.515625 123.566406 L 181.515625 123.601562 L 183.261719 123.601562 L 183.261719 122.4375 L 183.296875 121.855469 L 183.261719 121.855469 L 183.261719 120 C 184.191406 120.253906 185.128906 120.445312 186.066406 120.507812 C 188.277344 120.667969 190.433594 120.472656 192.507812 120.507812 L 192.542969 118.761719 L 192.507812 118.761719 L 192.507812 118.179688 C 193.257812 118.421875 194.046875 118.589844 194.875 118.582031 C 196.785156 118.472656 198.445312 117.519531 199.714844 116.324219 C 200.171875 116.703125 200.644531 117.070312 201.097656 117.453125 L 201.132812 117.414062 L 240.664062 128.773438 L 234.292969 133.578125 L 235.351562 134.960938 L 243.101562 129.136719 C 255.417969 129.953125 264.511719 131.816406 275.789062 137.4375 C 284.714844 141.886719 296.347656 150.128906 302.03125 158.257812 C 306.640625 164.847656 309.988281 172.148438 310.1875 180.132812 C 310.371094 187.242188 307.515625 193.957031 303.890625 200.042969 C 301.597656 203.890625 301.480469 208.90625 303.050781 212.054688 C 304.425781 214.332031 306.902344 215.496094 309.421875 215.695312 C 309.410156 216.644531 309.214844 217.535156 308.65625 218.132812 C 308.195312 218.730469 307.332031 219.167969 306.472656 219.878906 L 306.402344 219.878906 L 306.21875 221.625 C 308.785156 221.929688 311.53125 221.832031 314.046875 220.753906 C 315.183594 220.246094 316.195312 219.539062 317.03125 218.640625 L 316.921875 222.683594 L 318.59375 222.71875 L 318.59375 222.753906 C 320.5 222.285156 322.539062 221.484375 324.019531 219.914062 C 323.394531 222.585938 322.183594 225.035156 320.195312 226.792969 C 317.609375 229.148438 313.917969 230.3125 310.441406 229.886719 C 307.304688 229.546875 304.492188 227.363281 302.433594 224.757812 C 300.3125 222.019531 298.84375 218.765625 298.210938 215.367188 C 297.742188 212.945312 298.222656 210.347656 298.832031 207.792969 C 299.585938 204.699219 300.652344 201.699219 301.707031 198.621094 C 302.835938 195.324219 303.972656 191.953125 304.761719 188.503906 C 305.535156 185.152344 305.992188 181.664062 305.671875 178.164062 C 305.183594 173.101562 301.945312 168.558594 298.140625 165.425781 C 296.527344 164.097656 292.476562 163.355469 292.058594 163.277344 C 291.664062 160.574219 291.136719 157.863281 290.421875 155.234375 L 288.710938 155.707031 C 290.875 163.726562 291.679688 172.160156 290.347656 180.3125 C 289.207031 187.378906 286.480469 194.164062 282.886719 200.40625 L 284.417969 201.277344 C 285.097656 200.09375 285.730469 198.859375 286.34375 197.640625 C 285.816406 205.457031 286.101562 213.402344 288.710938 220.863281 C 290.773438 226.765625 295.070312 232.074219 300.941406 234.402344 C 300.964844 234.667969 300.996094 234.9375 301.015625 235.203125 C 301.117188 236.671875 301.164062 238.144531 301.125 239.605469 C 301.074219 241.308594 300.925781 242.992188 300.539062 244.59375 C 300.140625 246.074219 299.660156 247.492188 298.722656 248.414062 L 298.285156 274.1875 C 297.777344 274.167969 297.265625 274.128906 296.753906 274.152344 C 295.410156 274.136719 293.734375 274.285156 292.386719 275.425781 C 291.519531 276.28125 291.082031 277.355469 290.820312 278.375 C 289.722656 277.496094 288.589844 276.617188 287.292969 275.898438 C 286.066406 275.222656 284.714844 274.792969 283.324219 274.625 C 284.125 273.707031 284.746094 272.6875 285.253906 271.710938 C 285.617188 271.042969 285.957031 270.328125 286.273438 269.636719 C 286.371094 269.421875 286.433594 269.234375 286.527344 269.019531 C 286.554688 268.957031 286.609375 268.898438 286.636719 268.835938 L 286.601562 268.835938 C 288.964844 260.492188 288.347656 251.472656 285.398438 243.355469 C 282.433594 235.191406 277.003906 227.972656 270.074219 222.753906 C 270.332031 222.777344 270.578125 222.808594 270.839844 222.828125 L 270.984375 221.117188 C 262.121094 220.460938 253.261719 216.769531 247.726562 209.941406 C 240.949219 201.710938 239.265625 190.214844 239.789062 179.367188 L 239.824219 179.367188 C 240.214844 170.703125 237.765625 162.25 234.367188 154.394531 C 234.347656 154.339844 234.347656 154.273438 234.328125 154.214844 L 234.257812 154.070312 C 233.5625 151.648438 233.242188 149.125 233.710938 146.753906 C 234.109375 144.679688 235.171875 142.714844 236.769531 141.367188 C 241.285156 137.390625 248.40625 137.867188 254.714844 138.890625 L 255.003906 137.144531 C 248.566406 135.945312 240.980469 135.644531 235.640625 140.054688 C 233.726562 141.691406 232.46875 143.972656 232 146.425781 C 231.472656 149.242188 231.851562 152.109375 232.65625 154.761719 C 236.023438 162.515625 238.445312 170.785156 238.078125 179.109375 L 238.042969 179.109375 C 237.410156 190.257812 239.226562 202.203125 246.378906 211.035156 C 247.847656 212.824219 249.5 214.457031 251.328125 215.839844 C 249.683594 216.207031 248.101562 216.648438 246.597656 216.675781 C 243.070312 216.8125 239.632812 215.019531 236.441406 213.035156 L 236.222656 213.398438 L 236.113281 213.21875 C 232.472656 215.5 228.941406 217.871094 225.121094 219.585938 C 220.742188 221.5625 215.988281 222.730469 211.179688 223.300781 L 210.707031 218.714844 C 214.042969 217.707031 217.320312 216.496094 220.496094 215 L 219.769531 213.4375 C 207.390625 219.289062 193.410156 220.914062 179.546875 221.335938 C 182.386719 218.917969 184.71875 215.839844 185.882812 212.234375 C 186.75 209.445312 186.753906 206.609375 187.121094 203.972656 L 185.410156 203.753906 C 185.011719 206.550781 185 209.285156 184.207031 211.726562 C 183.128906 215.179688 180.773438 218.164062 177.875 220.496094 C 178.144531 219.394531 178.277344 218.238281 178.273438 217.074219 L 176.527344 217.113281 C 176.632812 221.222656 174.34375 225.078125 171.214844 228.03125 C 171.113281 227.574219 170.957031 227.105469 170.738281 226.648438 C 170.53125 226.25 170.292969 225.964844 170.085938 225.703125 C 170.15625 225.511719 170.242188 225.3125 170.304688 225.117188 L 168.628906 224.644531 C 167.710938 227.898438 164.96875 230.363281 161.785156 231.925781 C 161.785156 229.148438 161.726562 226.382812 161.859375 223.664062 L 160.113281 223.589844 C 159.886719 228.242188 160.203125 232.851562 159.894531 237.351562 C 159.75 239.320312 159.554688 241.25 158.910156 242.992188 C 158.414062 244.214844 157.75 245.390625 156.726562 245.683594 L 156.761719 245.757812 C 155.851562 250.730469 155.59375 255.78125 155.378906 260.753906 C 155.167969 265.640625 155.046875 270.507812 154.722656 275.351562 L 153.851562 275.316406 C 153.171875 275.328125 152.46875 275.367188 151.738281 275.535156 C 151.199219 275.601562 150.507812 275.914062 149.957031 276.625 C 149.476562 277.40625 149.230469 278.210938 149.046875 278.992188 C 148.03125 277.855469 146.984375 276.707031 145.734375 275.714844 C 144.539062 274.777344 143.148438 274.09375 141.695312 273.675781 C 142.195312 273.089844 142.6875 272.480469 143.113281 271.820312 C 144.234375 270.078125 144.90625 268.03125 144.859375 265.925781 L 144.898438 265.925781 L 144.242188 250.234375 C 145.027344 250.683594 145.863281 251.050781 146.753906 251.292969 L 147.191406 249.617188 C 145.0625 249.078125 143.222656 247.574219 141.765625 245.796875 C 139.976562 243.59375 138.707031 240.957031 137.652344 238.222656 C 135.015625 231.34375 133.742188 223.972656 132.484375 216.601562 L 130.738281 216.894531 C 131.75 222.863281 132.832031 228.886719 134.632812 234.730469 C 133.078125 234.242188 131.664062 233.417969 131.027344 232.109375 C 130.25 230.6875 129.984375 228.859375 129.097656 227.050781 L 127.535156 227.8125 C 127.578125 227.90625 127.601562 228.011719 127.644531 228.105469 C 126.796875 229.667969 126.246094 231.363281 125.859375 233.054688 C 124.640625 231.929688 123.5 230.71875 122.730469 229.34375 C 121.75 227.636719 121.164062 225.671875 120.507812 223.664062 L 118.871094 224.175781 C 118.90625 224.28125 118.945312 224.394531 118.980469 224.5 C 118.867188 225.441406 118.78125 226.324219 118.507812 227.050781 C 118.285156 227.691406 117.863281 228.242188 117.304688 228.652344 C 116.878906 227.226562 116.484375 225.796875 116.105469 224.355469 L 115.59375 224.5 C 111.238281 221.519531 107.984375 217.027344 105.804688 212.125 C 103.578125 207.109375 102.242188 201.707031 100.308594 196.402344 L 98.667969 196.984375 C 100.5625 202.175781 101.941406 207.652344 104.238281 212.855469 C 104.324219 213.046875 104.402344 213.242188 104.492188 213.4375 L 101.109375 217.730469 L 101.070312 214.457031 L 99.324219 214.492188 L 99.359375 217.550781 C 97.316406 218.722656 95.804688 220.457031 94.445312 222.207031 L 94.265625 219.550781 L 92.515625 219.660156 L 92.664062 221.917969 C 90.453125 222.566406 88.628906 223.972656 87.128906 225.59375 C 86.902344 216.113281 85.164062 206.28125 79.667969 198.476562 C 81.546875 197.570312 83.320312 196.355469 84.65625 194.65625 C 85.761719 193.261719 86.421875 191.390625 86.148438 189.523438 L 95.285156 180.3125 L 94.046875 179.074219 L 85.3125 187.882812 C 84.878906 187.023438 84.605469 186.015625 84.363281 184.972656 C 83.941406 182.992188 83.695312 180.9375 83.34375 178.855469 L 83.492188 178.746094 L 82.363281 177.398438 L 72.5 185.625 L 73.589844 186.972656 L 81.816406 180.167969 C 82.078125 181.867188 82.285156 183.59375 82.652344 185.335938 C 82.945312 186.808594 83.414062 188.390625 84.402344 189.738281 C 84.652344 191 84.125 192.414062 83.273438 193.5625 C 82.21875 194.953125 80.742188 196.019531 79.085938 196.835938 C 79.214844 194.320312 79.332031 191.789062 79.195312 189.230469 L 77.449219 189.300781 C 77.609375 192.289062 77.394531 195.34375 77.230469 198.402344 C 74.449219 200.347656 70.800781 200.890625 67.148438 201.207031 C 67.820312 199.898438 68.492188 198.257812 68.492188 198.257812 C 68.492188 198.257812 69.929688 196.011719 69.878906 194.761719 C 69.839844 193.859375 69.351562 192.960938 68.675781 192.359375 C 67.460938 191.277344 66.125 191.164062 64.089844 190.6875 L 62.597656 192.980469 C 64.214844 194.042969 66.289062 195.382812 66.601562 196.035156 C 66.527344 195.914062 66.617188 196.070312 66.675781 196.183594 C 66.8125 196.5 66.945312 197.105469 66.78125 197.894531 C 66.59375 198.816406 65.828125 200.179688 65.074219 201.316406 L 65.144531 201.351562 C 63.253906 201.460938 61.378906 201.503906 59.503906 201.386719 C 58.777344 201.339844 58.042969 201.28125 57.355469 201.167969 C 56.929688 201.085938 56.597656 201.066406 56.371094 200.949219 C 56.351562 200.917969 56.300781 200.832031 56.15625 200.730469 C 55.890625 200.480469 55.664062 200.183594 55.425781 199.859375 C 54.796875 198.984375 54.273438 198.03125 53.96875 197.019531 C 53.664062 195.949219 53.585938 194.820312 53.933594 193.886719 C 54.289062 192.757812 55.355469 191.863281 56.554688 191.269531 L 55.828125 189.703125 C 54.679688 190.222656 53.609375 191.035156 52.878906 192.140625 C 50.078125 189.695312 47.542969 186.964844 45.707031 183.804688 C 44.203125 181.222656 43.191406 178.355469 42.796875 175.398438 C 42.140625 170.667969 42.984375 165.816406 43.816406 160.910156 L 47.347656 165.386719 L 48.691406 164.332031 L 44.179688 158.582031 C 44.195312 158.472656 44.234375 158.363281 44.253906 158.253906 L 42.542969 158 C 42.25 159.800781 41.921875 161.625 41.632812 163.460938 C 40.542969 162.800781 39.589844 161.839844 38.792969 160.765625 C 37.644531 159.210938 36.820312 157.410156 36.207031 155.523438 C 34.773438 151.101562 34.519531 146.300781 35.296875 141.691406 C 36.125 136.871094 38.191406 132.21875 41.632812 128.84375 C 45.566406 124.929688 51.308594 123.082031 56.957031 122.945312 C 57.429688 123.777344 57.769531 124.675781 57.902344 125.605469 C 58.023438 126.347656 58.042969 127.101562 57.972656 127.859375 C 56.785156 127.96875 55.566406 128.273438 54.515625 128.953125 C 53.476562 129.644531 52.695312 130.644531 52.1875 131.757812 C 51.148438 134.0625 51.238281 136.679688 52.078125 138.964844 C 52.902344 141.3125 54.644531 143.4375 57.066406 144.386719 C 60.109375 145.460938 63.359375 144.4375 65.835938 142.75 C 67.789062 141.28125 69.539062 139.453125 70.75 137.253906 C 71.746094 135.433594 72.308594 133.371094 72.316406 131.28125 C 72.308594 129.597656 71.980469 127.953125 71.40625 126.40625 C 74.554688 124.84375 77.515625 123.03125 80.542969 121.417969 C 83.214844 120.027344 85.867188 118.570312 88.585938 118.433594 C 88.789062 122.746094 88.269531 127.132812 85.710938 130.261719 C 83.953125 132.496094 81.074219 133.832031 78.210938 133.867188 C 77.324219 133.832031 76.464844 133.546875 76.101562 132.921875 C 75.574219 132.238281 75.5625 131.179688 75.808594 130.191406 C 76.546875 127.171875 80.128906 125.367188 83.453125 125.09375 L 83.34375 123.347656 C 79.453125 123.542969 75.351562 125.773438 74.136719 129.71875 C 73.726562 131.0625 73.789062 132.632812 74.644531 133.941406 C 75.664062 135.28125 77.304688 135.78125 78.792969 135.613281 L 78.792969 135.578125 C 80.925781 135.445312 82.980469 134.71875 84.726562 133.503906 C 87.117188 133.683594 89.523438 134.347656 90.878906 136.050781 C 92.085938 137.4375 92.636719 139.378906 93.246094 141.367188 L 91.28125 141.546875 L 91.207031 141.476562 L 91.132812 141.546875 L 91.097656 141.546875 L 91.097656 141.582031 L 89.96875 142.75 C 91.644531 144.390625 93.453125 145.726562 94.628906 147.445312 C 96.226562 149.695312 96.875 152.546875 97.140625 155.453125 L 93.9375 153.921875 L 93.171875 155.523438 L 98.195312 157.925781 L 98.886719 156.46875 L 98.996094 156.46875 C 98.828125 153.03125 98.128906 149.40625 96.085938 146.425781 C 95.1875 145.15625 94.101562 144.125 93.027344 143.148438 L 95.210938 142.96875 L 95.066406 141.21875 L 95.027344 141.21875 C 94.417969 139.117188 93.738281 136.851562 92.191406 134.960938 C 90.695312 133.25 88.640625 132.316406 86.511719 131.9375 C 86.695312 131.742188 86.890625 131.566406 87.058594 131.355469 C 90.308594 127.167969 90.710938 121.582031 90.1875 116.578125 L 88.949219 116.722656 L 88.949219 116.652344 C 85.515625 116.746094 82.496094 118.390625 79.742188 119.890625 C 76.671875 121.523438 73.710938 123.296875 70.679688 124.804688 C 69.835938 123.113281 68.742188 121.546875 67.476562 120.183594 C 67.101562 119.777344 66.707031 119.359375 66.308594 118.980469 C 73.9375 114.199219 81.324219 109.050781 88.949219 104.382812 C 98.609375 98.480469 108.742188 93.269531 119.5625 90.550781 C 124.761719 89.242188 130.085938 88.574219 135.433594 88.515625 Z M 49.3125 113.519531 C 51.425781 113.570312 53.550781 113.964844 55.574219 114.613281 C 59.609375 115.917969 63.3125 118.234375 66.167969 121.347656 C 68.691406 124.128906 70.613281 127.664062 70.570312 131.285156 C 70.570312 133.0625 70.082031 134.839844 69.226562 136.414062 C 68.183594 138.34375 66.582031 139.960938 64.785156 141.328125 L 64.785156 141.367188 C 62.5625 142.761719 59.886719 143.664062 57.6875 142.75 C 55.84375 142.082031 54.4375 140.320312 53.71875 138.378906 C 53.039062 136.441406 52.914062 134.253906 53.753906 132.484375 C 54.140625 131.652344 54.757812 130.929688 55.503906 130.445312 C 56.121094 130.027344 56.867188 129.773438 57.648438 129.644531 C 57.359375 130.84375 56.917969 132.050781 56.410156 133.210938 L 58.011719 133.902344 C 59.203125 131.292969 60.042969 128.328125 59.613281 125.3125 C 59.25 122.996094 58.027344 120.953125 56.339844 119.417969 C 54.484375 117.730469 52.273438 116.554688 50.078125 115.59375 C 48.589844 114.9375 47.078125 114.359375 45.566406 113.8125 C 46.789062 113.589844 48.058594 113.488281 49.3125 113.519531 Z M 32.863281 119.378906 C 32.425781 120.917969 32.085938 122.511719 32.0625 124.1875 C 32.039062 125.695312 32.335938 127.253906 33.152344 128.625 C 34.09375 130.136719 35.539062 131.199219 37.082031 131.867188 C 35.507812 134.457031 34.421875 137.347656 33.808594 140.308594 C 31.6875 138.070312 29.9375 135.5 29.148438 132.628906 C 28.507812 130.34375 28.503906 127.878906 29.183594 125.605469 C 29.746094 123.714844 30.738281 121.917969 31.988281 120.363281 C 32.273438 120.015625 32.566406 119.703125 32.859375 119.378906 Z M 62.234375 154.324219 L 56.230469 165.171875 L 56.195312 165.171875 L 56.195312 165.246094 L 56.121094 165.390625 L 56.195312 165.425781 L 56.230469 166.917969 C 58.546875 166.90625 61.054688 166.972656 63.472656 166.082031 C 64.597656 165.660156 65.640625 164.945312 66.421875 163.96875 C 67.351562 162.769531 67.816406 161.320312 68.023438 159.929688 L 66.3125 159.675781 C 66.109375 160.875 65.734375 162.023438 65.039062 162.878906 C 64.5 163.574219 63.71875 164.109375 62.855469 164.445312 C 61.882812 164.828125 60.832031 164.984375 59.722656 165.0625 C 62.539062 162.867188 66.652344 158.015625 62.234375 154.324219 Z M 236.445312 215.109375 C 239.488281 216.960938 242.941406 218.492188 246.671875 218.421875 C 249.109375 218.335938 251.28125 217.527344 253.371094 217.222656 C 254.796875 218.136719 256.296875 218.933594 257.847656 219.625 C 254.96875 227.105469 254.210938 235.574219 256.972656 243.175781 C 257.222656 244.722656 257.496094 246.210938 257.375 247.617188 C 257.289062 248.613281 256.890625 249.597656 256.210938 250.238281 C 246.53125 256.179688 239.324219 265.6875 235.863281 276.480469 L 234.515625 275.863281 C 233.484375 275.378906 232.046875 274.917969 230.546875 275.460938 C 229.320312 276.050781 228.492188 277.0625 227.890625 278.046875 C 227.441406 278.75 227.058594 279.484375 226.726562 280.230469 C 225.851562 278.542969 224.679688 277.027344 223.304688 275.753906 C 221.988281 274.527344 220.558594 273.496094 219.15625 272.476562 C 221.628906 271.027344 224.089844 269.492188 226.253906 267.488281 L 226.214844 267.453125 C 231.992188 261.3125 236.957031 254.046875 238.808594 245.6875 C 240.933594 235.847656 238.289062 225.609375 233.75 216.785156 C 234.648438 216.226562 235.554688 215.671875 236.445312 215.113281 Z M 120.078125 227.777344 C 120.402344 228.597656 120.800781 229.429688 121.242188 230.21875 C 122.347656 232.136719 123.867188 233.6875 125.464844 235.058594 C 125.457031 235.117188 125.4375 235.179688 125.429688 235.242188 L 127.175781 235.496094 C 127.457031 233.738281 127.84375 232.027344 128.488281 230.4375 C 128.75 231.261719 129.066406 232.105469 129.507812 232.949219 C 130.75 235.132812 133.019531 236.304688 135.292969 236.734375 C 135.53125 237.433594 135.757812 238.152344 136.023438 238.84375 C 137.09375 241.667969 138.4375 244.460938 140.390625 246.886719 C 141 247.648438 141.703125 248.367188 142.464844 249 L 143.15625 265.5625 L 143.082031 265.5625 C 143.25 267.402344 142.683594 269.304688 141.664062 270.910156 C 140.53125 272.695312 138.925781 274.191406 137.257812 275.679688 C 136.953125 275.949219 136.621094 276.214844 136.3125 276.480469 C 134.589844 274.207031 131.816406 273.066406 129.070312 272.769531 C 129.851562 271.9375 130.617188 271.058594 131.253906 270.074219 C 132.371094 268.335938 133.007812 266.28125 132.964844 264.179688 L 133 264.179688 C 132.445312 258.097656 130.851562 252.191406 128.996094 246.453125 L 128.667969 246.5625 C 125.449219 245.402344 123.171875 242.234375 121.390625 238.988281 C 119.925781 236.261719 118.816406 233.347656 117.859375 230.363281 C 118.859375 229.773438 119.640625 228.867188 120.078125 227.777344 Z M 295.816406 234.765625 C 295.5 234.777344 295.214844 234.785156 294.90625 234.804688 L 292.542969 235.058594 L 292.722656 236.804688 L 295.054688 236.550781 C 295.625 236.511719 296.15625 236.519531 296.691406 236.550781 C 297.023438 236.597656 297.285156 236.585938 297.417969 236.621094 C 297.425781 236.640625 297.4375 236.632812 297.457031 236.660156 C 297.519531 236.863281 297.511719 237.132812 297.527344 237.421875 C 297.566406 238.269531 297.476562 239.160156 297.308594 240.042969 C 296.832031 242.253906 296.0625 244.4375 294.578125 245.902344 C 294.476562 247.898438 294.421875 249.882812 294.398438 251.875 C 294.402344 252.453125 294.417969 253.039062 294.433594 253.621094 C 294.4375 253.78125 294.429688 253.933594 294.433594 254.09375 C 294.4375 254.136719 294.433594 254.160156 294.433594 254.203125 C 294.722656 254.203125 295.019531 254.238281 295.308594 254.238281 L 296.179688 254.167969 C 296.179688 254.125 296.183594 254.0625 296.179688 254.023438 C 296.175781 253.863281 296.1875 253.707031 296.179688 253.546875 C 296.167969 252.976562 296.152344 252.410156 296.144531 251.835938 C 296.082031 250.066406 296.058594 248.289062 296.074219 246.523438 C 297.808594 244.839844 298.640625 242.582031 299.019531 240.371094 C 299.210938 239.40625 299.316406 238.386719 299.277344 237.351562 C 299.265625 237 299.242188 236.601562 299.128906 236.1875 C 299.121094 235.945312 298.929688 235.585938 298.472656 235.203125 C 297.816406 234.839844 297.210938 234.785156 296.800781 234.804688 C 296.472656 234.785156 296.136719 234.757812 295.816406 234.765625 Z M 251.339844 242.375 L 250.28125 243.757812 L 252.140625 245.140625 C 252.585938 245.5 253.039062 245.851562 253.414062 246.234375 C 253.625 246.492188 253.808594 246.664062 253.886719 246.777344 C 253.878906 246.796875 253.851562 246.777344 253.847656 246.816406 C 253.761719 247.007812 253.632812 247.242188 253.449219 247.46875 C 252.910156 248.125 252.238281 248.675781 251.519531 249.21875 C 249.679688 250.535156 247.632812 251.632812 245.550781 251.730469 C 244.136719 253.136719 242.753906 254.597656 241.402344 256.0625 C 241.015625 256.496094 240.652344 256.929688 240.273438 257.371094 C 240.167969 257.492188 240.050781 257.613281 239.945312 257.734375 C 239.917969 257.769531 239.902344 257.773438 239.871094 257.808594 C 240.082031 258.003906 240.28125 258.226562 240.492188 258.425781 C 240.496094 258.4375 240.523438 258.425781 240.527344 258.425781 C 240.757812 258.597656 240.953125 258.800781 241.183594 258.972656 C 241.210938 258.941406 241.265625 258.894531 241.292969 258.863281 C 241.394531 258.742188 241.480469 258.617188 241.582031 258.5 C 241.957031 258.066406 242.332031 257.652344 242.710938 257.222656 C 243.851562 255.867188 245.007812 254.519531 246.207031 253.21875 C 248.621094 253.136719 250.8125 252.019531 252.574219 250.636719 C 253.363281 250.046875 254.132812 249.359375 254.796875 248.5625 C 255.023438 248.292969 255.21875 248 255.414062 247.613281 C 255.570312 247.429688 255.675781 247.003906 255.597656 246.414062 C 255.351562 245.703125 254.964844 245.257812 254.652344 244.996094 C 254.1875 244.53125 253.714844 244.136719 253.230469 243.757812 Z M 217.488281 273.421875 C 219.105469 274.605469 220.710938 275.71875 222.109375 277.027344 C 223.710938 278.527344 225.039062 280.332031 225.785156 282.339844 L 225.96875 282.269531 L 225.128906 285 L 209.550781 285 L 213.847656 279.683594 L 212.464844 278.59375 L 207.292969 285 L 204.308594 285 C 206.296875 281.019531 210.019531 278.011719 213.957031 275.535156 C 215.101562 274.824219 216.292969 274.105469 217.488281 273.421875 Z M 127.433594 274.441406 C 130.378906 274.527344 133.542969 275.40625 135.003906 277.644531 C 132.417969 279.871094 129.78125 282.140625 127.726562 284.960938 L 122.011719 284.960938 L 126.597656 279.683594 L 125.285156 278.554688 L 119.679688 284.960938 L 116.769531 284.960938 C 119.222656 281.242188 122.996094 278.398438 126.523438 275.242188 C 126.824219 274.980469 127.136719 274.714844 127.433594 274.441406 Z M 140.355469 275.171875 C 141.914062 275.46875 143.410156 276.121094 144.652344 277.097656 C 146.09375 278.222656 147.320312 279.679688 148.621094 281.140625 C 148.511719 281.839844 148.433594 282.519531 148.363281 283.214844 C 148.261719 284.25 148.160156 285.308594 148.109375 286.34375 C 148.105469 286.429688 148.113281 286.515625 148.109375 286.601562 L 132.167969 286.601562 L 137.152344 280.886719 L 135.808594 279.757812 L 129.835938 286.601562 L 128.710938 286.601562 C 131.164062 282.933594 134.933594 280.113281 138.425781 276.992188 C 139.078125 276.414062 139.726562 275.796875 140.355469 275.171875 Z M 281.585938 276.152344 L 281.585938 276.296875 C 283.257812 276.195312 284.976562 276.609375 286.460938 277.425781 C 287.84375 278.179688 289.105469 279.246094 290.429688 280.300781 C 290.324219 281.070312 290.289062 281.808594 290.246094 282.558594 C 290.183594 283.664062 290.167969 284.757812 290.101562 285.800781 C 290.085938 285.992188 290.046875 286.117188 290.027344 286.273438 L 275.871094 286.273438 L 280.128906 281.539062 L 278.820312 280.375 L 273.503906 286.273438 L 270.265625 286.273438 C 271.109375 285.324219 271.992188 284.410156 272.886719 283.503906 C 275.574219 280.789062 278.4375 278.238281 281.585938 276.152344 Z M 281.585938 276.152344 " fill-opacity="1" fill-rule="nonzero"/></g></svg>