<svg xmlns="http://www.w3.org/2000/svg" xmlns:xlink="http://www.w3.org/1999/xlink" width="500" zoomAndPan="magnify" viewBox="0 0 375 374.999991" height="500" preserveAspectRatio="xMidYMid meet" version="1.0"><defs><clipPath id="2059695507"><path d="M 230 19 L 278.625 19 L 278.625 99 L 230 99 Z M 230 19 " clip-rule="nonzero"/></clipPath></defs><path fill="#000000" d="M 119.460938 60.609375 C 117.246094 49.890625 110.792969 42.164062 105.035156 43.351562 C 99.28125 44.535156 96.410156 54.191406 98.621094 64.910156 C 100.835938 75.628906 107.292969 83.355469 113.046875 82.171875 C 118.804688 80.984375 121.675781 71.328125 119.460938 60.609375 Z M 112.863281 80.265625 C 107.769531 81.3125 102.023438 74.316406 100.023438 64.625 C 98.023438 54.933594 100.527344 46.226562 105.621094 45.179688 C 110.714844 44.128906 116.460938 51.125 118.460938 60.816406 C 120.460938 70.507812 117.953125 79.214844 112.863281 80.265625 Z M 112.863281 80.265625 " fill-opacity="1" fill-rule="nonzero"/><path fill="#000000" d="M 112.140625 81.722656 L 122.167969 108.945312 L 123.382812 108.464844 L 113.625 81.164062 Z M 112.140625 81.722656 " fill-opacity="1" fill-rule="nonzero"/><path fill="#000000" d="M 178.257812 92.683594 C 177.785156 95.105469 177.601562 97.582031 177.683594 100.046875 C 176.070312 98.425781 174.613281 96.652344 173.335938 94.753906 C 173.050781 95.652344 172.757812 96.554688 172.472656 97.445312 C 170.242188 94.554688 168.671875 91.148438 167.921875 87.570312 C 167.144531 89.289062 166.714844 91.167969 166.671875 93.054688 C 165.753906 90.210938 164.824219 87.277344 165.066406 84.292969 C 165.308594 81.3125 167.015625 78.242188 169.859375 77.328125 C 168.074219 77.394531 166.300781 77.898438 164.753906 78.792969 C 168.980469 74.921875 171.207031 69.09375 175.886719 65.78125 C 179.183594 63.445312 183.371094 62.640625 187.414062 62.773438 C 191.453125 62.910156 195.402344 63.917969 199.324219 64.910156 C 197.167969 65.28125 195.003906 65.644531 192.847656 66.015625 C 196.9375 66.722656 200.601562 69.582031 202.289062 73.378906 C 199.625 72.972656 196.980469 72.394531 194.390625 71.652344 C 198.953125 73.574219 200.894531 79.964844 198.179688 84.105469 C 197.617188 82.8125 196.832031 81.613281 195.816406 80.640625 C 195.859375 81.90625 195.144531 83.0625 194.417969 84.105469 C 191.460938 88.332031 187.5625 92.324219 178.257812 92.683594 Z M 178.257812 92.683594 " fill-opacity="1" fill-rule="nonzero"/><path fill="#b4726b" d="M 183.628906 68.222656 L 195.21875 73.195312 L 196.753906 88.511719 L 194.390625 90.40625 L 193.738281 97.324219 L 181.207031 105.308594 C 181.207031 105.308594 174.699219 90.941406 174.464844 91.082031 C 172.75 91.210938 171.015625 90.15625 170.335938 88.578125 C 169.660156 87 170.085938 85.011719 171.359375 83.855469 C 171.609375 83.628906 171.902344 83.421875 172.238281 83.371094 C 172.914062 83.257812 173.523438 83.75 174.164062 83.992188 C 173.484375 82.457031 172.792969 80.871094 172.742188 79.191406 C 172.679688 77.101562 173.609375 75.121094 174.171875 72.902344 C 176.777344 70.957031 179.707031 69.445312 183.628906 68.222656 Z M 183.628906 68.222656 " fill-opacity="1" fill-rule="nonzero"/><g clip-path="url(#2059695507)"><path fill="#b4726b" d="M 230.375 84.941406 L 231.726562 98.597656 L 252.476562 83.777344 L 264.511719 45.683594 L 270.1875 36.835938 L 278.679688 33.746094 L 278.59375 31.003906 L 270.632812 33.480469 L 276.289062 24.183594 L 274.703125 22.53125 L 275.066406 20.398438 L 273.179688 19.425781 L 264.945312 30.09375 L 267.933594 22.773438 L 266.289062 21.496094 L 258.125 33.074219 L 256.132812 26.488281 L 253.457031 26.730469 L 254.605469 31.851562 L 254.921875 36.628906 L 258.054688 44.5 L 242.507812 77.863281 Z M 230.375 84.941406 " fill-opacity="1" fill-rule="nonzero"/></g><path fill="#b4726b" d="M 151.40625 131.417969 L 144.097656 138.722656 L 136.414062 126.0625 L 135.136719 117.019531 L 129.488281 112.273438 L 127.074219 109.335938 L 124.96875 109.863281 L 125.265625 111.601562 C 125.265625 111.601562 122.703125 112.730469 122.667969 112.664062 C 122.4375 114.058594 122.574219 115.515625 122.761719 117.25 C 121.753906 117.984375 120.847656 118.933594 120.433594 120.121094 C 120.019531 121.296875 120.175781 122.726562 121.046875 123.625 C 121.3125 123.90625 121.644531 124.132812 121.832031 124.46875 C 122.066406 124.890625 122.03125 125.40625 122.03125 125.882812 C 122.03125 127.996094 122.804688 130.097656 124.167969 131.703125 C 124.46875 132.054688 124.839844 132.402344 125.304688 132.4375 C 125.632812 132.460938 125.960938 132.316406 126.273438 132.390625 C 126.59375 132.46875 126.816406 132.746094 127.007812 133.011719 C 132.03125 139.757812 137.066406 146.515625 142.707031 152.757812 C 142.84375 152.90625 143.050781 153.078125 143.234375 152.984375 C 143.421875 152.890625 143.171875 152.527344 143.09375 152.722656 L 160.683594 140.378906 Z M 151.40625 131.417969 " fill-opacity="1" fill-rule="nonzero"/><path fill="#b4726b" d="M 218.847656 240.003906 L 235.703125 233.785156 L 234.179688 259.894531 L 186.667969 284.789062 L 183.027344 275.527344 L 208.988281 251.84375 L 220.828125 248.351562 Z M 218.847656 240.003906 " fill-opacity="1" fill-rule="nonzero"/><path fill="#000000" d="M 218.847656 240.003906 L 235.703125 233.785156 L 234.179688 259.894531 L 186.667969 284.789062 L 183.027344 275.527344 L 208.988281 251.84375 L 220.828125 248.351562 Z M 218.847656 240.003906 " fill-opacity="0.4" fill-rule="nonzero"/><path fill="#b4726b" d="M 202.300781 242.738281 L 200.179688 263.992188 L 205.496094 277.347656 L 205.953125 311.046875 L 196.082031 313.625 L 183.484375 244.710938 L 184.242188 244.253906 Z M 202.300781 242.738281 " fill-opacity="1" fill-rule="nonzero"/><path fill="#abc270" d="M 150.632812 130.96875 L 172.765625 109.457031 L 204.410156 88.683594 L 230.367188 83.992188 L 232.347656 99.316406 L 220.234375 108.34375 L 224.191406 165.953125 L 183.019531 177.945312 L 170.535156 136.28125 L 161.511719 141.964844 Z M 150.632812 130.96875 " fill-opacity="1" fill-rule="nonzero"/><path fill="#3871e6" d="M 182.941406 176.953125 L 183.089844 245.074219 L 202.738281 243.183594 L 209.292969 208.6875 L 218.898438 240.566406 L 237.53125 235.035156 L 224.285156 165.011719 Z M 182.941406 176.953125 " fill-opacity="1" fill-rule="nonzero"/><path fill="#000000" d="M 186.25 272.890625 C 185.890625 271.683594 185.457031 270.496094 184.949219 269.339844 C 184.804688 269.019531 184.640625 268.683594 184.335938 268.511719 C 183.914062 268.277344 183.390625 268.449219 182.949219 268.621094 C 180.136719 269.699219 177.320312 270.777344 174.507812 271.855469 C 173.972656 272.0625 173.402344 272.289062 173.085938 272.769531 C 172.75 273.28125 172.785156 273.941406 172.859375 274.546875 C 173.414062 279.460938 175.34375 284.214844 178.355469 288.136719 C 179.363281 289.445312 180.492188 290.660156 181.347656 292.066406 C 182.554688 294.027344 183.191406 296.285156 184.035156 298.429688 C 186.019531 303.484375 189.175781 307.976562 192.304688 312.417969 C 191.382812 305.605469 190.460938 298.785156 189.539062 291.972656 C 189.246094 289.808594 188.949219 287.601562 188.019531 285.625 C 187.414062 284.324219 186.546875 283.152344 185.925781 281.851562 C 184.503906 278.902344 184.449219 275.324219 186.25 272.890625 Z M 186.25 272.890625 " fill-opacity="1" fill-rule="nonzero"/><path fill="#000000" d="M 194.605469 310.953125 C 197.472656 312.609375 201.644531 311.277344 203.023438 308.253906 C 203.375 307.492188 203.835938 306.46875 204.664062 306.613281 C 204.851562 306.640625 205.015625 306.734375 205.171875 306.832031 C 208.335938 308.746094 209.777344 312.667969 209.9375 316.359375 C 210.09375 320.050781 209.207031 323.710938 208.828125 327.386719 C 207.929688 336.050781 209.777344 345.160156 206.636719 353.28125 C 206.230469 354.324219 205.539062 355.496094 204.421875 355.554688 C 203.835938 355.582031 203.289062 355.289062 202.808594 354.945312 C 198.667969 352.019531 198.167969 346.191406 197.902344 341.121094 C 197.410156 331.671875 196.417969 322.238281 194.605469 310.953125 Z M 194.605469 310.953125 " fill-opacity="1" fill-rule="nonzero"/><path fill="#3871e6" d="M 120.804688 108.5 L 123.765625 117.277344 L 127.210938 115.199219 L 123.851562 106.980469 Z M 120.804688 108.5 " fill-opacity="1" fill-rule="nonzero"/><path fill="#3871e6" d="M 128.417969 130.824219 L 132.671875 142.679688 L 135.84375 141.152344 L 131.25 127.875 Z M 128.417969 130.824219 " fill-opacity="1" fill-rule="nonzero"/><path fill="#000000" d="M 184.027344 73.117188 C 182.941406 72.707031 181.804688 72.378906 180.648438 72.378906 C 179.492188 72.378906 178.292969 72.742188 177.472656 73.558594 C 179.542969 72.695312 181.949219 72.695312 184.027344 73.117188 Z M 184.027344 73.117188 " fill-opacity="1" fill-rule="nonzero"/><path fill="#000000" d="M 188.234375 71.457031 C 189.140625 71 190.074219 70.542969 191.082031 70.410156 C 192.089844 70.273438 193.203125 70.515625 193.875 71.28125 C 192.097656 70.789062 190.160156 70.871094 188.234375 71.457031 Z M 188.234375 71.457031 " fill-opacity="1" fill-rule="nonzero"/><path fill="#000000" d="M 186.382812 70.703125 C 186.371094 71.542969 186.355469 72.386719 186.347656 73.222656 C 186.882812 72.492188 187.539062 71.84375 188.285156 71.324219 C 188.933594 72.707031 188.660156 74.644531 189.253906 76.050781 C 188.453125 75.179688 188.660156 73.664062 188.105469 72.621094 C 187.269531 73.101562 186.511719 73.707031 185.863281 74.421875 C 185.710938 73.285156 185.8125 72.101562 186.382812 70.703125 Z M 186.382812 70.703125 " fill-opacity="1" fill-rule="nonzero"/><path fill="#000000" d="M 187.097656 75.464844 C 186.5 75.730469 185.917969 76.066406 185.398438 76.457031 C 185.347656 76.566406 185.449219 76.691406 185.5625 76.714844 C 185.675781 76.734375 185.792969 76.691406 185.898438 76.644531 C 186.527344 76.363281 187.089844 75.941406 187.097656 75.464844 Z M 187.097656 75.464844 " fill-opacity="1" fill-rule="nonzero"/><path fill="#ffffff" d="M 192.074219 78.328125 C 190.03125 78.164062 187.96875 78.300781 185.960938 78.714844 C 185.15625 78.886719 184.320312 79.113281 183.71875 79.683594 C 183.277344 80.105469 183.011719 80.679688 182.804688 81.25 C 182.390625 82.441406 182.234375 83.769531 182.648438 84.96875 C 182.863281 85.597656 183.363281 86.242188 184.019531 86.207031 C 184.285156 86.191406 184.527344 86.070312 184.761719 85.949219 C 187.847656 84.328125 190.433594 81.777344 192.074219 78.328125 Z M 192.074219 78.328125 " fill-opacity="1" fill-rule="nonzero"/><path fill="#000000" d="M 183.078125 74.113281 C 182.5 73.992188 181.90625 73.878906 181.320312 73.9375 C 180.734375 73.992188 180.136719 74.257812 179.8125 74.75 C 180.84375 74.59375 181.878906 74.4375 183.078125 74.113281 Z M 183.078125 74.113281 " fill-opacity="1" fill-rule="nonzero"/><path fill="#000000" d="M 190.917969 71.972656 C 190.527344 71.851562 190.070312 71.730469 189.734375 71.972656 C 189.570312 72.09375 189.460938 72.28125 189.375 72.464844 C 189.867188 72.179688 190.449219 72.050781 190.917969 71.972656 Z M 190.917969 71.972656 " fill-opacity="1" fill-rule="nonzero"/></svg>