<svg xmlns="http://www.w3.org/2000/svg" xmlns:xlink="http://www.w3.org/1999/xlink" width="500" zoomAndPan="magnify" viewBox="0 0 375 374.999991" height="500" preserveAspectRatio="xMidYMid meet" version="1.0"><defs><clipPath id="6fb126d644"><path d="M 95.097656 58 L 279.597656 58 L 279.597656 317 L 95.097656 317 Z M 95.097656 58 " clip-rule="nonzero"/></clipPath></defs><path fill="#a46243" d="M 160.742188 183.882812 L 154.078125 179.640625 L 146.183594 181.761719 L 145.675781 179.640625 L 141.941406 172.785156 L 138.316406 181.488281 L 135.386719 183.882812 L 126.300781 184.117188 L 120.59375 181.570312 L 116.582031 177.328125 L 113.546875 170.472656 L 112.355469 172.9375 L 111.355469 176.863281 L 107.921875 169.078125 L 106.800781 161.539062 L 107.03125 154.792969 L 103.023438 160.074219 L 101.941406 155.257812 L 103.363281 148.550781 L 106.636719 137.261719 L 99.164062 139.066406 L 104.597656 131.855469 L 111.808594 125.070312 L 116.050781 119.828125 L 120.703125 112.042969 L 124.246094 103.171875 L 127.941406 98.671875 L 130.554688 95.550781 L 126.3125 94.003906 C 126.3125 94.003906 126.65625 90.625 129.089844 88.285156 L 134.867188 85.710938 L 145.308594 85.398438 L 144.308594 76.230469 L 150.671875 81.894531 L 152.984375 82.167969 L 154.175781 74.996094 L 159.71875 66.484375 L 163.398438 62.914062 C 163.398438 62.914062 165.421875 61.859375 167.75 61.382812 L 165.613281 64.871094 L 162.644531 72.042969 L 166.191406 71.195312 L 171.308594 67.417969 L 175.808594 66.335938 L 170.800781 74.585938 L 178.011719 71.617188 L 182.734375 70.03125 L 188.125 70.988281 L 191.945312 71.523438 L 201.496094 67.664062 L 207.3125 64.007812 L 207.925781 65.816406 L 204.722656 71.945312 L 214.441406 71.480469 L 225.074219 71.824219 L 229.425781 71.207031 L 226.8125 75.132812 L 221.570312 77.96875 L 229.042969 81.703125 L 237.253906 86.207031 L 245.957031 90.40625 L 255.164062 93.183594 L 256.945312 95.648438 L 250.238281 95.921875 L 255.054688 101.121094 L 259.832031 107.554688 L 264.496094 117.269531 L 265.429688 124.082031 L 263.15625 131.089844 L 259.378906 127.847656 L 259.1875 134.785156 L 258.460938 142.804688 L 256.425781 149.46875 L 253.878906 152.082031 L 249.9375 158.457031 L 244.75 161.238281 L 238.894531 161.960938 L 233.351562 160.003906 L 227.550781 156.144531 L 223.210938 170.335938 L 195.992188 191.027344 Z M 160.742188 183.882812 " fill-opacity="1" fill-rule="nonzero"/><path fill="#a46243" d="M 232.488281 214.085938 C 236.183594 220.953125 240.972656 227.125 245.296875 233.832031 C 241.507812 231.65625 237.730469 229.492188 233.558594 227.113281 C 237.335938 233.242188 241.507812 238.964844 241.945312 246.367188 C 240.644531 244.859375 239.511719 243.273438 238.101562 242 C 236.636719 240.671875 234.898438 239.648438 233.105469 238.578125 C 236.265625 244.65625 238.878906 250.8125 237.582031 258.203125 C 236.238281 254.851562 235.800781 251.265625 232.710938 248.9375 C 233.214844 251.894531 233.871094 254.632812 234.105469 257.410156 C 234.597656 263.429688 232.929688 269.179688 231.476562 274.925781 C 229.382812 283.191406 230.394531 290.9375 235.023438 298.148438 C 237.210938 301.570312 239.457031 304.960938 241.878906 308.683594 C 239.6875 309.339844 237.527344 309.984375 235.433594 310.613281 C 234.488281 309.011719 233.789062 307.660156 232.941406 306.425781 C 232.132812 305.25 231.175781 304.183594 230.285156 303.0625 C 230.011719 303.253906 229.738281 303.457031 229.480469 303.648438 C 230.246094 306.03125 231.011719 308.410156 231.875 311.066406 C 229.480469 311.242188 227.25 311.488281 225.019531 311.53125 C 224.511719 311.542969 223.9375 310.902344 223.472656 310.476562 C 221.71875 308.863281 219.996094 307.21875 218.257812 305.59375 C 218.011719 305.757812 217.753906 305.933594 217.503906 306.097656 C 218.285156 307.972656 219.066406 309.863281 219.789062 311.613281 C 217.65625 311.613281 215.398438 311.613281 213.015625 311.613281 C 212.769531 309.148438 212.539062 306.863281 212.25 304.058594 C 209.488281 306.25 209.789062 308.78125 210.074219 311.667969 C 206.941406 310.96875 204.066406 310.328125 201.097656 309.65625 C 202.671875 306.46875 204.066406 303.785156 205.339844 301.035156 C 206.503906 298.53125 206.460938 295.945312 206.1875 293.167969 C 205.859375 289.785156 206.132812 286.269531 206.667969 282.902344 C 208.789062 269.21875 208.296875 255.65625 205.21875 242.179688 C 204.902344 240.796875 204.421875 239.457031 203.644531 238.15625 C 203.644531 241.125 203.574219 244.09375 203.65625 247.0625 C 203.863281 254.644531 204.4375 262.242188 204.257812 269.808594 C 204.136719 274.800781 203.109375 279.796875 202.234375 284.765625 C 201.261719 290.347656 200.097656 295.902344 198.839844 301.433594 C 198.085938 304.6875 197.921875 304.648438 194.515625 304.320312 C 193.871094 302.636719 193.230469 300.953125 192.421875 298.804688 C 192.039062 300.582031 191.75 301.882812 191.464844 303.183594 C 191.246094 303.292969 191.039062 303.390625 190.820312 303.5 C 189.65625 301.992188 188.371094 300.554688 187.359375 298.957031 C 185.058594 295.300781 185.046875 291.074219 184.59375 286.96875 C 183.417969 276.335938 182.089844 265.730469 181.089844 255.082031 C 180.433594 248.078125 180.242188 241.03125 179.847656 233.996094 C 179.792969 233.050781 179.722656 232.109375 179.65625 231.164062 C 179.476562 231.148438 179.300781 231.136719 179.121094 231.121094 C 178.710938 233.695312 178.191406 236.253906 177.929688 238.839844 C 176.835938 249.679688 177.300781 260.503906 178.464844 271.300781 C 179.066406 276.785156 179.984375 282.234375 180.667969 287.707031 C 180.832031 289.0625 181.023438 290.582031 180.585938 291.796875 C 179.175781 295.710938 180.023438 299.269531 181.734375 302.785156 C 182.761719 304.878906 183.871094 306.933594 185.210938 309.519531 C 181.421875 310.175781 177.902344 310.792969 174.195312 311.433594 C 174.125 308.589844 174.867188 305.839844 171.71875 303.8125 C 171.71875 306.660156 171.71875 308.890625 171.71875 311.324219 C 168.925781 311.324219 166.339844 311.324219 163.589844 311.324219 C 164.4375 309.535156 165.273438 307.769531 166.109375 306.015625 C 165.984375 305.894531 165.859375 305.785156 165.738281 305.660156 C 164.289062 306.851562 162.496094 307.808594 161.441406 309.300781 C 159.636719 311.832031 157.542969 311.230469 154.886719 310.585938 C 155.886719 307.550781 156.855469 304.660156 157.925781 301.390625 C 154.722656 303.773438 153.023438 306.769531 151.972656 310.421875 C 150.21875 309.808594 148.632812 309.246094 146.800781 308.601562 C 148.617188 305.6875 150.109375 302.894531 151.984375 300.378906 C 158.472656 291.703125 159.441406 282.328125 156.363281 272.132812 C 154.050781 264.457031 151.929688 256.683594 151.644531 248.554688 C 151.382812 248.542969 151.109375 248.542969 150.847656 248.527344 C 150.492188 251.882812 150.136719 255.234375 149.699219 259.257812 C 149.152344 257.175781 148.605469 255.628906 148.386719 254.03125 C 148.167969 252.414062 148.097656 250.730469 148.277344 249.101562 C 148.46875 247.421875 149.015625 245.765625 149.480469 243.808594 C 148.851562 244.109375 148.46875 244.300781 147.960938 244.546875 C 147.675781 243.726562 147.375 242.90625 146.976562 241.769531 C 146.183594 242.398438 145.554688 242.917969 144.472656 243.78125 C 146.058594 238.238281 146.867188 232.859375 151.574219 229.234375 C 151.464844 229.082031 151.34375 228.917969 151.234375 228.769531 C 148.742188 229.835938 146.25 230.917969 143.554688 232.078125 C 144.664062 228.222656 145.800781 224.5 146.773438 220.75 C 147.867188 216.546875 148.921875 212.332031 149.78125 208.089844 C 150.109375 206.519531 150.535156 205.273438 151.972656 204.398438 C 152.695312 203.945312 153.191406 203.136719 153.792969 202.480469 C 153.710938 202.316406 153.628906 202.152344 153.53125 202 C 151.644531 202.753906 149.753906 203.492188 148.070312 204.164062 C 150.683594 198.445312 153.328125 192.667969 156.035156 186.742188 C 163.097656 190.972656 170.542969 195.117188 178.75 196.433594 C 178.203125 198.949219 177.261719 201.480469 177.207031 204.027344 C 177.136719 206.820312 178.75 209.144531 181.148438 210.707031 C 184.484375 212.882812 188.699219 212.414062 191.628906 209.636719 C 195.1875 206.257812 195.625 201.480469 192.777344 196.472656 C 204.667969 193.324219 215.027344 187.6875 223.128906 178.039062 C 225.988281 188.277344 228.46875 198.664062 238.332031 205.328125 C 236.101562 205.21875 234.242188 205.121094 232.324219 205.011719 C 233.96875 208.941406 235.527344 212.6875 237.101562 216.4375 C 236.882812 216.5625 236.664062 216.671875 236.445312 216.792969 C 235.324219 215.726562 234.214844 214.671875 233.09375 213.605469 C 232.902344 213.785156 232.695312 213.933594 232.488281 214.085938 Z M 163.875 283.273438 C 168.449219 280.46875 172.113281 273.011719 170.570312 269.5625 C 169.800781 275.007812 166.421875 278.90625 163.875 283.273438 Z M 171.992188 280.671875 C 169.855469 282.5625 166.410156 285.597656 162.960938 288.636719 C 167.339844 286.460938 170.691406 283.3125 171.992188 280.671875 Z M 219.269531 277.195312 C 217.503906 281.464844 215.742188 285.75 213.988281 290.019531 C 217.121094 286.3125 218.792969 281.972656 219.269531 277.195312 Z M 214.6875 280.03125 C 214.933594 280.097656 215.179688 280.167969 215.4375 280.234375 C 216.261719 277.238281 217.082031 274.242188 217.902344 271.246094 C 217.710938 271.191406 217.519531 271.136719 217.328125 271.082031 C 216.453125 274.0625 215.5625 277.046875 214.6875 280.03125 Z M 196.761719 279.457031 C 197.019531 279.484375 197.265625 279.511719 197.527344 279.539062 C 197.894531 277.621094 198.265625 275.691406 198.636719 273.777344 C 198.347656 273.722656 198.058594 273.679688 197.785156 273.625 C 197.445312 275.570312 197.101562 277.511719 196.761719 279.457031 Z M 168.089844 208.695312 C 167.832031 208.722656 167.570312 208.75 167.3125 208.777344 C 167.613281 211.71875 167.898438 214.660156 168.199219 217.601562 C 168.394531 217.589844 168.570312 217.5625 168.761719 217.546875 C 168.53125 214.605469 168.3125 211.648438 168.089844 208.695312 Z M 160.238281 215.78125 C 160.402344 215.808594 160.578125 215.835938 160.742188 215.851562 C 161.234375 212.660156 161.742188 209.488281 162.234375 206.296875 C 162.015625 206.269531 161.796875 206.230469 161.578125 206.203125 C 161.140625 209.40625 160.6875 212.59375 160.238281 215.78125 Z M 198.484375 220.898438 C 198.320312 220.816406 198.167969 220.734375 198.003906 220.667969 C 196.5 223.226562 194.996094 225.785156 193.503906 228.359375 C 193.652344 228.441406 193.789062 228.523438 193.941406 228.617188 C 195.460938 226.03125 196.964844 223.472656 198.484375 220.898438 Z M 198.484375 220.898438 " fill-opacity="1" fill-rule="nonzero"/><path fill="#a46243" d="M 244.464844 248.992188 C 246.269531 256.382812 251.484375 258.765625 258.09375 259.53125 C 256 259.859375 253.890625 260.175781 251.796875 260.503906 C 258.367188 263.527344 263.527344 267.742188 265.730469 275.1875 C 263.636719 273.515625 261.746094 271.996094 259.859375 270.492188 C 259.734375 270.585938 259.625 270.667969 259.503906 270.765625 C 261.898438 274.144531 264.292969 277.539062 266.6875 280.917969 C 266.5625 281.042969 266.441406 281.152344 266.316406 281.273438 C 263.539062 279.59375 260.761719 277.894531 257.519531 275.925781 C 258.160156 277.019531 258.546875 277.757812 259.011719 278.429688 C 263.566406 285.011719 265.578125 292.042969 262.773438 299.914062 C 262.675781 300.171875 262.566406 300.417969 262.457031 300.679688 C 262.402344 300.800781 262.320312 300.898438 262.238281 301.007812 C 261.84375 299.476562 261.625 297.859375 260.980469 296.4375 C 260.324219 294.988281 259.230469 293.742188 258.324219 292.414062 C 258.175781 292.496094 258.023438 292.578125 257.875 292.660156 C 258.121094 293.90625 258.367188 295.136719 258.613281 296.382812 C 258.640625 296.519531 258.628906 296.65625 258.640625 296.792969 C 258.804688 301.691406 257.328125 303.199219 252.578125 303.101562 C 250.171875 303.046875 247.777344 303.101562 245.367188 303.089844 C 244.230469 303.089844 242.945312 303.238281 243.519531 301.363281 C 243.589844 301.132812 243.546875 300.636719 243.4375 300.597656 C 241.386719 299.816406 242.492188 297.710938 241.671875 296.410156 C 240.496094 294.5625 239.304688 292.703125 238.222656 290.800781 C 237.144531 288.898438 235.71875 287.023438 235.28125 284.957031 C 234.71875 282.382812 234.707031 279.605469 235.007812 276.964844 C 235.597656 271.738281 237.292969 266.824219 239.578125 262.035156 C 241.496094 258.011719 242.738281 253.675781 244.464844 248.992188 Z M 247.707031 291.441406 C 248.171875 288.363281 248.609375 285.296875 246.980469 282.453125 C 246.980469 285.476562 246.296875 288.554688 247.707031 291.441406 Z M 247.707031 291.441406 " fill-opacity="1" fill-rule="nonzero"/><path fill="#a46243" d="M 133.742188 300.0625 C 130.308594 293.140625 128.679688 286.203125 133.320312 279.152344 C 131.238281 279.441406 130.242188 280.261719 124.464844 286.476562 C 125.355469 278.976562 127.75 272.214844 132.417969 266.195312 C 128.871094 267.644531 125.316406 269.109375 121.769531 270.558594 C 121.703125 270.4375 121.621094 270.300781 121.550781 270.175781 C 123.222656 269.054688 124.863281 267.890625 126.574219 266.839844 C 130.445312 264.457031 134.511719 262.335938 138.191406 259.695312 C 140.765625 257.859375 142.84375 255.355469 145.035156 253.277344 C 144.527344 256.902344 146.746094 260.121094 148.851562 263.28125 C 151.179688 266.769531 151.425781 270.792969 152.136719 274.691406 C 152.601562 277.265625 152.832031 279.878906 153.132812 282.480469 C 153.464844 285.257812 152.191406 287.582031 150.890625 289.867188 C 150.710938 290.183594 150.300781 290.347656 149.660156 290.867188 C 149.304688 288.554688 149.003906 286.558594 148.699219 284.574219 C 148.535156 292.042969 147.347656 298.847656 138.535156 301.28125 C 136.386719 297.996094 136.414062 293.878906 135.195312 289.566406 C 133.347656 293.222656 133.429688 296.617188 133.742188 300.0625 Z M 140.214844 280.359375 C 138.972656 284.859375 138.875 289.28125 141.214844 293.070312 C 140.902344 289.046875 140.558594 284.695312 140.214844 280.359375 Z M 140.214844 280.359375 " fill-opacity="1" fill-rule="nonzero"/><path fill="#a46243" d="M 200.539062 181.296875 C 200.90625 179.382812 201.261719 177.507812 201.714844 175.167969 C 198.910156 177.765625 196.597656 179.902344 194.285156 182.035156 C 194.121094 181.914062 193.953125 181.789062 193.789062 181.679688 C 193.789062 180.710938 193.789062 179.738281 193.789062 178.066406 C 190.726562 181.296875 188.507812 184.675781 184.582031 186.429688 C 185.539062 184.566406 186.375 182.980469 187.195312 181.378906 C 187.058594 181.203125 186.90625 181.011719 186.769531 180.832031 C 181.886719 185.636719 176.109375 187.113281 169.324219 185.855469 C 172.085938 185.28125 174.578125 184.773438 177.070312 184.253906 C 177.042969 184.0625 177 183.855469 176.972656 183.664062 C 173.90625 183.664062 170.828125 183.664062 167.761719 183.664062 C 167.734375 183.542969 167.722656 183.40625 167.695312 183.28125 C 168.84375 182.636719 170.007812 181.996094 171.15625 181.351562 C 171.117188 181.230469 171.089844 181.121094 171.046875 180.996094 C 167.585938 181.351562 164.109375 181.707031 160.648438 182.078125 C 160.578125 181.871094 160.511719 181.652344 160.441406 181.449219 C 170.925781 180.324219 179.054688 175.671875 184.117188 166.082031 C 194.023438 171.621094 204.53125 173.457031 215.726562 170.417969 C 215.824219 170.664062 215.933594 170.898438 216.027344 171.144531 C 214.332031 172.199219 212.621094 173.238281 210.949219 174.320312 C 209.214844 175.441406 207.515625 176.632812 205.804688 177.78125 C 204.027344 178.957031 202.261719 180.132812 200.539062 181.296875 Z M 200.539062 181.296875 " fill-opacity="1" fill-rule="nonzero"/><path fill="#a46243" d="M 217.148438 179.027344 C 209.664062 186.933594 200.070312 190.957031 189.425781 193.492188 C 189.371094 192.476562 189.328125 191.628906 189.289062 190.5625 C 199.375 188.523438 208.773438 185.046875 216.574219 178 C 216.765625 178.339844 216.957031 178.683594 217.148438 179.027344 Z M 217.148438 179.027344 " fill-opacity="1" fill-rule="nonzero"/><path fill="#a46243" d="M 221.0625 170.089844 C 212.632812 180.558594 201.726562 186.03125 189.070312 188.316406 C 188.945312 188.085938 188.835938 187.867188 188.714844 187.632812 C 191.394531 186.347656 194.09375 185.0625 196.910156 183.707031 C 198.429688 185.59375 200.003906 184.730469 201.507812 183.664062 C 204.890625 181.285156 208.296875 178.929688 211.566406 176.414062 C 214.125 174.441406 217.683594 173.851562 219.394531 170.691406 C 219.597656 170.363281 220.378906 170.335938 221.0625 170.089844 Z M 221.0625 170.089844 " fill-opacity="1" fill-rule="nonzero"/><path fill="#a46243" d="M 186.332031 199.894531 C 186.933594 199.660156 187.523438 199.441406 188.140625 199.210938 C 189.878906 200.8125 190.289062 202.808594 189.273438 204.699219 C 188.277344 206.546875 186.128906 207.3125 184.363281 206.464844 C 182.515625 205.574219 181.667969 203.316406 182.460938 201.414062 C 183.269531 199.511719 184.128906 199.183594 186.359375 199.9375 Z M 186.332031 199.894531 " fill-opacity="1" fill-rule="nonzero"/><path fill="#a46243" d="M 163.589844 186.730469 C 164.875 187.03125 166.175781 187.292969 167.449219 187.648438 C 170.210938 188.441406 172.9375 189.425781 175.742188 190.082031 C 178.53125 190.726562 181.40625 191.066406 184.320312 191.546875 C 184.320312 192.121094 184.320312 192.695312 184.320312 193.832031 C 180.941406 193.121094 177.671875 192.710938 174.589844 191.710938 C 171.089844 190.574219 167.75 188.933594 164.34375 187.46875 C 164.054688 187.347656 163.875 186.933594 163.644531 186.660156 C 163.644531 186.660156 163.589844 186.730469 163.589844 186.730469 Z M 163.589844 186.730469 " fill-opacity="1" fill-rule="nonzero"/><path fill="#a46243" d="M 190.984375 206.4375 C 192.476562 202.796875 191.957031 199.6875 188.550781 197.265625 C 188.742188 197.101562 188.945312 196.925781 189.136719 196.761719 C 189.796875 197.253906 190.617188 197.621094 191.082031 198.253906 C 192.792969 200.605469 192.738281 203.902344 190.984375 206.4375 Z M 190.984375 206.4375 " fill-opacity="1" fill-rule="nonzero"/><path fill="#a46243" d="M 186.359375 199.9375 C 186.359375 196.964844 186.359375 193.996094 186.359375 191.027344 C 186.632812 191.039062 186.894531 191.039062 187.167969 191.054688 C 187.425781 194.023438 187.332031 196.980469 186.332031 199.894531 C 186.332031 199.894531 186.359375 199.9375 186.359375 199.9375 Z M 186.359375 199.9375 " fill-opacity="1" fill-rule="nonzero"/><path fill="#a46243" d="M 163.589844 186.730469 C 163.589844 186.730469 163.644531 186.660156 163.644531 186.660156 C 161.507812 185.648438 159.386719 184.648438 157.253906 183.636719 C 157.375 183.417969 157.488281 183.199219 157.609375 182.980469 C 159.605469 184.226562 161.589844 185.484375 163.589844 186.730469 Z M 163.589844 186.730469 " fill-opacity="1" fill-rule="nonzero"/><path fill="#000000" d="M 163.875 283.273438 C 166.421875 278.90625 169.800781 275.007812 170.570312 269.5625 C 172.113281 273.011719 168.449219 280.46875 163.875 283.273438 Z M 163.875 283.273438 " fill-opacity="1" fill-rule="nonzero"/><path fill="#000000" d="M 171.992188 280.671875 C 170.691406 283.3125 167.351562 286.460938 162.960938 288.636719 C 166.410156 285.597656 169.84375 282.5625 171.992188 280.671875 Z M 171.992188 280.671875 " fill-opacity="1" fill-rule="nonzero"/><path fill="#000000" d="M 219.269531 277.195312 C 218.777344 281.988281 217.121094 286.3125 213.988281 290.019531 C 215.753906 285.734375 217.519531 281.464844 219.269531 277.195312 Z M 219.269531 277.195312 " fill-opacity="1" fill-rule="nonzero"/><path fill="#000000" d="M 214.6875 280.03125 C 215.5625 277.046875 216.453125 274.0625 217.328125 271.09375 C 217.519531 271.148438 217.710938 271.203125 217.902344 271.257812 C 217.082031 274.253906 216.261719 277.25 215.4375 280.25 C 215.179688 280.167969 214.933594 280.097656 214.6875 280.03125 Z M 214.6875 280.03125 " fill-opacity="1" fill-rule="nonzero"/><path fill="#000000" d="M 196.761719 279.457031 C 197.101562 277.511719 197.445312 275.570312 197.785156 273.625 C 198.074219 273.679688 198.363281 273.722656 198.636719 273.777344 C 198.265625 275.691406 197.894531 277.621094 197.527344 279.539062 C 197.265625 279.511719 197.019531 279.484375 196.761719 279.457031 Z M 196.761719 279.457031 " fill-opacity="1" fill-rule="nonzero"/><path fill="#000000" d="M 168.089844 208.695312 C 168.3125 211.648438 168.53125 214.589844 168.761719 217.546875 C 168.570312 217.5625 168.394531 217.589844 168.199219 217.601562 C 167.898438 214.660156 167.613281 211.71875 167.3125 208.777344 C 167.570312 208.75 167.832031 208.722656 168.089844 208.695312 Z M 168.089844 208.695312 " fill-opacity="1" fill-rule="nonzero"/><path fill="#000000" d="M 160.238281 215.78125 C 160.6875 212.59375 161.140625 209.40625 161.589844 206.214844 C 161.8125 206.242188 162.03125 206.285156 162.25 206.3125 C 161.753906 209.5 161.25 212.675781 160.757812 215.863281 C 160.578125 215.835938 160.414062 215.808594 160.238281 215.78125 Z M 160.238281 215.78125 " fill-opacity="1" fill-rule="nonzero"/><path fill="#000000" d="M 198.484375 220.898438 C 196.964844 223.472656 195.460938 226.03125 193.941406 228.605469 C 193.789062 228.523438 193.652344 228.441406 193.503906 228.34375 C 195.007812 225.785156 196.515625 223.226562 198.003906 220.652344 C 198.167969 220.75 198.320312 220.816406 198.484375 220.898438 Z M 198.484375 220.898438 " fill-opacity="1" fill-rule="nonzero"/><path fill="#000000" d="M 247.707031 291.441406 C 246.285156 288.554688 246.980469 285.476562 246.980469 282.453125 C 248.609375 285.296875 248.171875 288.363281 247.707031 291.441406 Z M 247.707031 291.441406 " fill-opacity="1" fill-rule="nonzero"/><path fill="#000000" d="M 140.214844 280.359375 C 140.558594 284.695312 140.902344 289.046875 141.214844 293.070312 C 138.875 289.28125 138.972656 284.859375 140.214844 280.359375 Z M 140.214844 280.359375 " fill-opacity="1" fill-rule="nonzero"/><path fill="#000000" d="M 129.695312 109.8125 C 125.230469 111.382812 121.496094 115.09375 121.210938 117.925781 C 123.113281 116.503906 125.109375 115.011719 127.105469 113.503906 C 124.492188 119.484375 124.179688 125.519531 125.273438 131.679688 C 126.464844 138.410156 130.242188 145.703125 133.769531 147.8125 C 133.128906 146.582031 132.609375 145.71875 132.210938 144.789062 C 130.609375 140.996094 128.625 137.300781 127.558594 133.363281 C 125.902344 127.246094 126.246094 121.074219 128.859375 115.148438 C 129.613281 113.449219 130.707031 112.273438 132.648438 112.097656 C 135.726562 111.824219 138.792969 111.535156 141.941406 111.246094 C 138.164062 108.222656 134.003906 108.292969 129.695312 109.8125 Z M 129.695312 109.8125 " fill-opacity="1" fill-rule="nonzero"/><path fill="#000000" d="M 207.859375 94.292969 C 214.480469 93.128906 219.230469 96.058594 222.1875 101.628906 C 223.9375 104.898438 224.839844 108.648438 225.851562 112.261719 C 226.523438 114.65625 226.6875 117.1875 227.070312 119.664062 C 227.261719 119.621094 227.453125 119.566406 227.644531 119.527344 C 228.960938 110.78125 227.523438 102.777344 220.695312 96.398438 C 217.355469 93.265625 211.664062 91.472656 206.625 94.292969 C 207.324219 94.292969 207.597656 94.332031 207.859375 94.292969 Z M 207.859375 94.292969 " fill-opacity="1" fill-rule="nonzero"/><path fill="#000000" d="M 148.726562 112.34375 C 144.171875 112.601562 138.410156 117.554688 137.398438 122.878906 C 138.316406 121.523438 139.066406 120.003906 140.175781 118.828125 C 142.117188 116.75 143.691406 114.148438 147.429688 114.804688 C 149.480469 115.175781 151.726562 114.503906 154.214844 114.273438 C 152.683594 111.988281 150.644531 112.234375 148.726562 112.34375 Z M 148.726562 112.34375 " fill-opacity="1" fill-rule="nonzero"/><path fill="#000000" d="M 183.882812 132.375 C 177.410156 131.171875 167.40625 134.90625 164.492188 139.519531 C 167.625 138.097656 170.625 136.523438 173.785156 135.359375 C 176.988281 134.183594 180.339844 133.402344 183.882812 132.375 Z M 183.882812 132.375 " fill-opacity="1" fill-rule="nonzero"/><path fill="#000000" d="M 192.902344 103.542969 C 197.101562 102.707031 201.085938 101.914062 205.175781 101.109375 C 202.054688 98.382812 195.050781 99.738281 192.902344 103.542969 Z M 192.902344 103.542969 " fill-opacity="1" fill-rule="nonzero"/><path fill="#000000" d="M 113.421875 149.808594 C 115.175781 143.964844 116.941406 138.136719 118.691406 132.292969 C 118.429688 132.226562 118.171875 132.15625 117.910156 132.074219 C 114.269531 137.410156 113.832031 143.636719 113.421875 149.808594 Z M 113.421875 149.808594 " fill-opacity="1" fill-rule="nonzero"/><path fill="#000000" d="M 232.765625 115.761719 C 231.65625 121.949219 232.710938 127.710938 235.800781 133.25 C 234.773438 127.328125 233.761719 121.550781 232.765625 115.761719 Z M 232.765625 115.761719 " fill-opacity="1" fill-rule="nonzero"/><path fill="#000000" d="M 125.957031 165.574219 C 127.160156 161.015625 128.285156 156.789062 129.40625 152.558594 C 126.929688 154.1875 125.203125 161.578125 125.957031 165.574219 Z M 125.957031 165.574219 " fill-opacity="1" fill-rule="nonzero"/><path fill="#000000" d="M 237.703125 119.183594 C 239.675781 122.839844 241.578125 126.367188 243.765625 130.433594 C 243.929688 126.503906 240.113281 119.636719 237.703125 119.183594 Z M 237.703125 119.183594 " fill-opacity="1" fill-rule="nonzero"/><path fill="#000000" d="M 120.964844 154.996094 C 121.921875 151.21875 122.890625 147.375 123.878906 143.515625 C 123.6875 143.472656 123.496094 143.433594 123.304688 143.378906 C 121.238281 145.894531 120.292969 150.660156 120.964844 154.996094 Z M 120.964844 154.996094 " fill-opacity="1" fill-rule="nonzero"/><path fill="#000000" d="M 242.316406 113.875 C 243.765625 116.941406 245.203125 119.992188 246.777344 123.316406 C 246.914062 120.019531 245.1875 116.09375 242.316406 113.875 Z M 242.316406 113.875 " fill-opacity="1" fill-rule="nonzero"/><path fill="#000000" d="M 185.675781 116.394531 C 186.988281 118.460938 188.304688 120.527344 189.917969 123.058594 C 190.191406 120.183594 188.304688 117.160156 185.675781 116.394531 Z M 185.675781 116.394531 " fill-opacity="1" fill-rule="nonzero"/><path fill="#000000" d="M 249.828125 113.148438 C 248.460938 111.710938 247.089844 110.277344 245.722656 108.839844 C 245.53125 109.015625 245.339844 109.195312 245.160156 109.371094 C 246.503906 110.835938 247.832031 112.300781 249.171875 113.777344 C 249.390625 113.558594 249.609375 113.355469 249.828125 113.148438 Z M 249.828125 113.148438 " fill-opacity="1" fill-rule="nonzero"/><path fill="#000000" d="M 171.921875 94.265625 C 171.171875 92.28125 170.417969 90.296875 169.664062 88.3125 C 169.390625 88.410156 169.132812 88.519531 168.859375 88.613281 C 169.582031 90.597656 170.292969 92.597656 171.019531 94.578125 C 171.320312 94.484375 171.621094 94.375 171.921875 94.265625 Z M 171.921875 94.265625 " fill-opacity="1" fill-rule="nonzero"/><path fill="#000000" d="M 131.953125 161.550781 C 132.089844 161.550781 132.238281 161.550781 132.375 161.550781 C 132.375 159.839844 132.375 158.117188 132.375 156.40625 C 132.238281 156.40625 132.089844 156.40625 131.953125 156.40625 C 131.953125 158.117188 131.953125 159.828125 131.953125 161.550781 Z M 131.953125 161.550781 " fill-opacity="1" fill-rule="nonzero"/><path fill="#000000" d="M 188.550781 98.972656 C 187.097656 100.082031 186.019531 101.328125 186.796875 103.761719 C 187.496094 101.832031 188.03125 100.410156 188.550781 98.972656 Z M 188.550781 98.972656 " fill-opacity="1" fill-rule="nonzero"/><path fill="#000000" d="M 182.800781 128.488281 C 181.421875 127.886719 180.023438 127.273438 178.640625 126.667969 C 178.503906 127 178.367188 127.328125 178.230469 127.640625 C 179.628906 128.257812 181.023438 128.859375 182.417969 129.476562 C 182.542969 129.148438 182.679688 128.816406 182.800781 128.488281 Z M 182.800781 128.488281 " fill-opacity="1" fill-rule="nonzero"/><path fill="#000000" d="M 189.4375 96.261719 C 189.4375 96.261719 189.355469 96.289062 189.34375 96.304688 C 189.371094 96.316406 189.382812 96.316406 189.410156 96.316406 C 189.425781 96.289062 189.4375 96.277344 189.4375 96.261719 Z M 189.4375 96.261719 " fill-opacity="1" fill-rule="nonzero"/><path fill="#000000" d="M 189.492188 96.332031 C 189.464844 96.332031 189.453125 96.316406 189.425781 96.316406 C 189.410156 96.34375 189.410156 96.359375 189.398438 96.386719 C 189.425781 96.359375 189.453125 96.34375 189.492188 96.332031 Z M 189.492188 96.332031 " fill-opacity="1" fill-rule="nonzero"/><g clip-path="url(#6fb126d644)"><path fill="#000000" d="M 279.78125 304.976562 C 279.671875 303.128906 277.675781 303.347656 276.292969 303.253906 C 272.75 303.003906 269.191406 302.882812 265.621094 302.703125 C 267.742188 296.011719 267.742188 296.011719 266.25 284.585938 C 267.617188 285.339844 268.929688 286.066406 270.230469 286.804688 C 270.449219 286.613281 270.65625 286.433594 270.875 286.242188 C 271.066406 276.375 267.933594 267.933594 259.53125 261.570312 C 262.992188 261.199219 266.03125 260.585938 268.355469 257.777344 C 267.726562 257.574219 267.359375 257.394531 266.972656 257.328125 C 264.113281 256.875 261.253906 256.382812 258.378906 256.054688 C 253.332031 255.464844 249.773438 253.332031 246.886719 248.691406 C 244.230469 244.421875 244.464844 239.566406 242.136719 235.40625 C 245.269531 236.71875 248.296875 237.511719 251.769531 237.226562 C 248.898438 233.351562 246.285156 229.726562 243.5625 226.167969 C 241.863281 223.964844 240.25 221.804688 240.808594 218.765625 C 240.90625 218.257812 240.769531 217.644531 240.578125 217.136719 C 239.238281 213.632812 237.855469 210.144531 236.59375 206.957031 C 238.988281 207.148438 241.960938 207.394531 244.914062 207.625 C 244.96875 207.449219 245.023438 207.269531 245.09375 207.09375 C 244.246094 206.4375 243.4375 205.722656 242.5625 205.136719 C 237.785156 201.890625 234.226562 197.539062 232.242188 192.21875 C 229.726562 185.457031 227.753906 178.492188 225.621094 171.59375 C 225.304688 170.597656 225.113281 169.378906 225.402344 168.421875 C 226.375 165.175781 227.589844 161.988281 228.632812 159.003906 C 230.863281 160.8125 232.984375 162.769531 235.351562 164.398438 C 237.539062 165.902344 240.261719 166.558594 242.601562 165.164062 C 245.230469 163.589844 247.832031 162.167969 250.746094 161.113281 C 253.671875 160.046875 254.222656 156.898438 254.933594 154.132812 C 255.070312 153.585938 255.273438 152.847656 255.683594 152.613281 C 258.257812 151.152344 259.585938 148.742188 259.886719 146.046875 C 260.472656 140.777344 260.640625 135.453125 260.953125 130.636719 C 261.460938 131.488281 262.28125 132.867188 263.308594 134.578125 C 266.058594 130.40625 266.753906 126.164062 266.46875 121.796875 C 265.796875 111.644531 261.652344 103.242188 253.234375 96.976562 C 255.957031 97.414062 258.492188 97.824219 261.007812 98.234375 C 261.160156 98.015625 261.308594 97.796875 261.445312 97.578125 C 260.242188 96.125 259.3125 94.265625 257.792969 93.335938 C 254.835938 91.5 251.714844 89.625 248.390625 88.777344 C 239.769531 86.601562 232.257812 82.304688 224.773438 77.597656 C 228.355469 75.765625 231.136719 73.179688 232.023438 69.277344 C 228.523438 69.621094 225.074219 70.113281 221.609375 70.261719 C 216.617188 70.46875 211.609375 70.441406 206.832031 70.496094 C 209.378906 67.15625 211.636719 63.078125 211.265625 58 C 210.949219 58.082031 210.800781 58.070312 210.703125 58.152344 C 210.5 58.332031 210.320312 58.550781 210.15625 58.769531 C 205.492188 64.816406 199.074219 68.167969 191.984375 70.414062 C 191.328125 70.617188 190.246094 70.808594 189.890625 70.46875 C 186.921875 67.636719 183.609375 68.03125 180.257812 69.332031 C 177.875 70.261719 175.605469 71.46875 173.277344 72.546875 C 173.167969 72.4375 173.046875 72.328125 172.9375 72.234375 C 175.480469 69.292969 178.011719 66.347656 180.871094 63.023438 C 177.753906 64.351562 174.988281 65.515625 172.222656 66.691406 C 172.167969 66.582031 172.113281 66.484375 172.074219 66.375 C 172.582031 65.746094 173.085938 65.117188 173.605469 64.488281 C 173.441406 64.28125 173.265625 64.078125 173.101562 63.859375 C 170.226562 66.101562 167.339844 68.359375 164.34375 70.699219 C 164.808594 69.15625 165.21875 67.566406 165.777344 66.035156 C 166.328125 64.527344 167.050781 63.078125 167.761719 61.421875 C 167.761719 61.421875 165.109375 61.492188 162.398438 63.597656 C 162.386719 63.597656 162.386719 63.613281 162.386719 63.613281 C 156.363281 67.675781 153.121094 73.574219 151.710938 80.785156 C 147.8125 78.199219 145.429688 74.683594 143.460938 70.386719 C 141.816406 75.328125 143.117188 79.679688 144.144531 84.085938 C 139.449219 83.523438 135.152344 84.25 131.992188 86.042969 C 128.707031 87.65625 127.023438 90.914062 126.464844 92.183594 C 126.394531 92.226562 126.328125 92.253906 126.257812 92.292969 C 121.484375 94.992188 117.582031 99.398438 117.652344 102.148438 C 119.199219 101.300781 120.660156 100.410156 122.195312 99.644531 C 123.699219 98.890625 125.261719 98.261719 126.792969 97.589844 C 122.769531 101.65625 120.523438 106.554688 118.703125 111.628906 C 116.554688 117.636719 113.109375 122.675781 108.304688 126.820312 C 106.527344 128.351562 104.625 129.761719 102.953125 131.390625 C 100.75 133.554688 98.519531 135.742188 96.660156 138.191406 C 95.730469 139.382812 95.59375 141.1875 95.097656 142.734375 C 95.332031 142.898438 95.566406 143.050781 95.8125 143.214844 C 98.792969 141.96875 101.777344 140.710938 105.019531 139.355469 C 100.832031 149.097656 99.875 158.472656 102.40625 164.015625 C 103.664062 161.8125 104.925781 159.636719 106.171875 157.460938 C 104.515625 166.53125 107.320312 174.140625 112.957031 180.957031 C 113.054688 179.96875 112.902344 179.039062 112.847656 178.09375 C 112.792969 177.207031 112.753906 176.304688 112.820312 175.398438 C 112.875 174.511719 113.066406 173.632812 113.300781 172.15625 C 114.738281 178.394531 118.59375 183.253906 123.878906 185.664062 C 124.945312 186.15625 126.503906 186.621094 127.410156 186.195312 C 129.640625 185.144531 131.664062 185.582031 133.824219 186.074219 C 136.960938 186.796875 138.945312 185.882812 140.078125 182.832031 C 140.996094 180.351562 141.476562 177.710938 142.117188 175.125 C 142.570312 176.496094 143.460938 178.257812 145.144531 180.105469 C 145.128906 181.078125 145.15625 182.078125 145.226562 183.078125 C 147.8125 182.390625 150.464844 181.707031 153.492188 180.914062 C 151.492188 191.175781 147.210938 199.714844 141.53125 207.640625 C 141.640625 207.804688 141.761719 207.980469 141.871094 208.144531 C 144.019531 207.75 146.183594 207.351562 148.359375 206.941406 C 144.953125 217.09375 140.4375 226.894531 139.082031 238.320312 C 141.214844 236.898438 142.859375 235.816406 144.457031 234.75 C 143.582031 237.15625 142.488281 239.484375 141.898438 241.917969 C 141.285156 244.449219 140.601562 247.160156 140.941406 249.664062 C 141.449219 253.425781 139.4375 255.21875 136.851562 256.957031 C 136.5625 257.148438 136.289062 257.355469 135.988281 257.53125 C 131.925781 260.007812 127.765625 262.351562 123.835938 265.019531 C 121.46875 266.621094 119.375 268.671875 117.335938 270.695312 C 116.707031 271.328125 116.695312 272.542969 116.390625 273.503906 C 117.390625 273.804688 118.457031 274.460938 119.402344 274.324219 C 121.320312 274.0625 123.179688 273.367188 125.039062 272.859375 C 121.742188 281.917969 120.964844 290.457031 123.234375 293.234375 C 124.480469 291.238281 125.710938 289.253906 126.957031 287.269531 C 127.011719 292.46875 128.023438 297.257812 130.308594 301.597656 C 127.132812 301.597656 124.054688 301.554688 120.976562 301.625 C 120.320312 301.636719 119.664062 302.089844 119.007812 302.335938 C 119.484375 302.910156 119.867188 303.730469 120.484375 304.019531 C 121.785156 304.605469 123.195312 305.097656 124.601562 305.292969 C 130.746094 306.152344 136.90625 306.890625 143.035156 307.671875 C 142.253906 310.792969 142.734375 311.886719 145.964844 313.253906 C 147.605469 313.941406 149.34375 314.472656 151.082031 314.828125 C 159.332031 316.527344 167.707031 316.375 176.042969 315.921875 C 179.230469 315.746094 182.417969 314.882812 185.539062 314.050781 C 187.894531 313.417969 189.574219 311.929688 189.300781 309.203125 C 192.027344 309.203125 194.625 309.203125 197.390625 309.203125 C 196.679688 312.011719 198.320312 313.363281 200.425781 314.226562 C 202 314.871094 203.683594 315.375 205.367188 315.648438 C 213.878906 316.992188 222.460938 316.910156 230.984375 315.921875 C 235.1875 315.429688 239.402344 314.433594 243.421875 313.117188 C 246.421875 312.148438 246.777344 310.902344 246.449219 307.851562 C 247.28125 307.851562 248.117188 307.878906 248.9375 307.851562 C 258.121094 307.523438 267.304688 307.234375 276.472656 306.808594 C 277.742188 306.753906 279.890625 307.027344 279.78125 304.976562 Z M 147.195312 180.230469 C 147.539062 174.632812 149.113281 169.773438 152.722656 165.136719 C 147.988281 167.449219 145.894531 171.828125 145.308594 177.070312 C 144.554688 175.753906 143.882812 174.058594 144.117188 172.363281 C 144.597656 171.621094 144.761719 170.691406 145.074219 169.898438 C 146.757812 165.671875 149.425781 162.234375 152.914062 159.402344 C 154.285156 158.28125 155.789062 157.324219 157.226562 156.296875 C 151.589844 157.335938 147.414062 160.566406 144.046875 165.027344 C 145.582031 157.199219 149.769531 151.683594 157.746094 149.222656 C 152.246094 148.070312 147.621094 150.496094 142.96875 156.472656 C 143.1875 155.84375 143.390625 155.203125 143.636719 154.570312 C 146.195312 148.429688 150.164062 143.417969 155.585938 139.53125 C 156.925781 138.574219 158.265625 137.5625 159.429688 136.398438 C 162.03125 133.757812 162.332031 129.914062 160.484375 126.21875 C 158.375 121.976562 156.351562 121.320312 152.421875 121.769531 C 150.753906 121.960938 148.976562 122.851562 147.632812 123.917969 C 143.515625 127.175781 141.625 134.003906 143.417969 137.835938 C 144.527344 134.648438 145.675781 131.351562 146.8125 128.066406 C 147.058594 128.105469 147.304688 128.148438 147.550781 128.1875 C 147.566406 132.484375 148.617188 136.25 152.777344 138.535156 C 147.566406 142.789062 143.378906 147.648438 140.738281 154.148438 C 140.449219 151.808594 140.214844 149.972656 139.929688 147.703125 C 139.421875 148.757812 139.121094 149.398438 138.792969 150.082031 C 137 144.390625 135.277344 138.792969 133.496094 133.238281 C 132.046875 128.722656 131.953125 124.136719 132.730469 119.527344 C 133.046875 117.679688 133.566406 115.871094 134.003906 114.039062 C 133.8125 113.957031 133.621094 113.859375 133.429688 113.777344 C 132.484375 115.339844 131.320312 116.804688 130.636719 118.472656 C 128.503906 123.742188 128.542969 129.175781 130.296875 134.496094 C 133.550781 144.417969 135.808594 154.558594 137.453125 164.847656 C 138.261719 169.871094 138.316406 174.878906 136.808594 179.820312 C 136.25 181.667969 135.234375 182.515625 133.167969 182.296875 C 131.199219 182.089844 129.117188 181.980469 127.203125 182.40625 C 125.65625 182.734375 125.09375 182.199219 124.480469 181.078125 C 122.824219 178.09375 122.113281 174.988281 123.605469 171.199219 C 120.648438 173.195312 120.441406 175.90625 119.8125 178.574219 C 116.335938 174.824219 115.570312 170.226562 114.832031 165.164062 C 114.3125 166 113.984375 166.367188 113.832031 166.792969 C 112.945312 169.160156 112.082031 171.527344 111.207031 173.921875 C 109.714844 170.28125 108.730469 166.476562 108.632812 162.414062 C 108.539062 158.292969 109.644531 154.640625 112.601562 151.042969 C 108.539062 152.175781 105.980469 154.351562 103.636719 157.035156 C 103.707031 154.585938 103.886719 152.191406 104.242188 149.835938 C 105.199219 143.542969 108.015625 138.125 112.121094 133.25 C 108.550781 134.769531 104.980469 136.289062 101.40625 137.796875 C 102.160156 136.523438 103.078125 135.578125 104.105469 134.785156 C 113.121094 127.875 119.976562 119.472656 123.660156 108.46875 C 125.78125 102.148438 130.078125 97.25 136.699219 94.894531 C 136.78125 94.867188 136.78125 94.664062 136.917969 94.265625 C 134.195312 94.085938 131.539062 93.910156 128.886719 93.730469 C 128.84375 93.527344 128.816406 93.335938 128.777344 93.128906 C 133.195312 92.007812 137.601562 90.886719 141.898438 89.789062 C 139.503906 88.257812 134.457031 88.683594 129.472656 90.707031 C 131.5 87.765625 134.222656 87 134.429688 86.957031 C 138.808594 86.097656 143.199219 86.042969 147.714844 88.492188 C 146.949219 85.328125 146.277344 82.539062 145.527344 79.417969 C 147.976562 81.730469 150.082031 83.976562 153.65625 83.535156 C 154.121094 77.199219 156.898438 72 160.320312 67.117188 C 160.441406 66.953125 162.824219 63.941406 166.421875 62.65625 C 162.398438 66.964844 160.921875 74.039062 163.015625 79.679688 C 165.21875 74.546875 167.394531 69.496094 173.785156 67.691406 C 170.199219 71.425781 168.214844 75.519531 167.160156 80.117188 C 167.652344 79.980469 167.96875 79.746094 168.285156 79.484375 C 172.277344 76.09375 176.851562 73.726562 181.789062 72.027344 C 183.253906 71.523438 184.484375 71.863281 185.921875 72.398438 C 187.785156 73.09375 189.917969 73.546875 191.859375 73.34375 C 194.066406 73.109375 196.28125 72.246094 198.320312 71.304688 C 200.933594 70.070312 203.382812 68.484375 205.914062 67.0625 C 206.011719 67.144531 206.105469 67.226562 206.1875 67.308594 C 203.027344 70.808594 199.867188 74.328125 196.5 78.0625 C 197.15625 78.0625 197.375 78.117188 197.539062 78.050781 C 197.921875 77.898438 198.320312 77.722656 198.636719 77.460938 C 202.21875 74.449219 206.558594 73.726562 211.019531 73.535156 C 216.4375 73.300781 221.871094 73.273438 227.25 73.152344 C 222.871094 76.351562 217.421875 77.417969 212.238281 79.171875 C 213.414062 79.445312 214.523438 79.429688 215.617188 79.457031 C 219.859375 79.554688 223.828125 80.5 227.222656 83.179688 C 232.40625 87.285156 238.402344 89.640625 244.683594 91.417969 C 247.445312 92.199219 250.238281 92.910156 253.441406 93.773438 C 250.445312 93.949219 247.925781 94.101562 245.066406 94.277344 C 257.640625 101.3125 265.15625 118.664062 262.265625 127.710938 C 260.789062 126.300781 259.078125 124.671875 257.039062 122.714844 C 257.585938 126.53125 258.023438 129.625 258.460938 132.71875 C 258.285156 132.757812 258.09375 132.785156 257.914062 132.828125 C 256.617188 129.503906 254.769531 126.628906 251.101562 124.34375 C 254.769531 131.980469 257.410156 139.230469 255.34375 147.292969 C 254.441406 143.324219 253.398438 140.929688 251.101562 138 C 250.976562 139.355469 251.878906 148.070312 251.769531 149.289062 C 251.441406 150.917969 249.992188 158.839844 241.246094 159.691406 C 238.742188 160.523438 236.15625 160.539062 234.105469 158.484375 C 232.847656 157.226562 231.382812 155.953125 230.683594 154.378906 C 228.78125 150.125 226.90625 145.800781 225.621094 141.339844 C 223.363281 133.511719 223.664062 125.355469 223.035156 117.308594 C 222.746094 113.710938 222.0625 110.015625 220.804688 106.648438 C 218.519531 100.503906 213.742188 96.726562 207.476562 94.949219 C 206.585938 94.703125 205.464844 95.25 204.449219 95.429688 C 205.164062 96.042969 205.804688 96.796875 206.613281 97.261719 C 208.800781 98.519531 211.253906 99.425781 213.234375 100.929688 C 215.945312 102.980469 217.367188 106.035156 218.246094 109.304688 C 219.121094 112.546875 219.160156 113.859375 218.519531 118.019531 C 218.449219 118.488281 218.449219 118.992188 218.53125 119.472656 C 219.542969 125.125 219.078125 130.84375 219.1875 135.949219 C 214.808594 132.730469 210.089844 129.257812 205.367188 125.78125 C 207.925781 122.769531 208.0625 119.117188 206.75 114.75 C 209.226562 116.585938 211.28125 118.101562 213.59375 119.8125 C 211.417969 114.710938 208.078125 111.234375 202.863281 110.085938 C 197.839844 108.976562 194.257812 111.480469 191.820312 115.023438 C 192.164062 116.421875 192.585938 117.433594 192.640625 118.460938 C 192.914062 123.125 194.53125 125.699219 198.417969 126.765625 C 204.476562 128.421875 209.652344 131.625 214.34375 135.6875 C 217.449219 138.382812 220.214844 141.394531 222.007812 144.460938 C 219.148438 142.777344 216.097656 140.558594 212.714844 139.109375 C 208.5 137.316406 203.765625 137.933594 201.714844 139.984375 C 208.582031 139.164062 214.453125 141.121094 219.558594 145.472656 C 218.011719 145.007812 216.535156 144.269531 214.988281 143.855469 C 213.46875 143.460938 211.855469 143.378906 210.28125 143.171875 C 220.941406 148.167969 225.511719 152.339844 224.855469 157.214844 C 221.582031 153.394531 217.929688 150.355469 212.59375 150.464844 C 216.109375 151.929688 219.421875 153.640625 221.980469 156.636719 C 224.511719 159.609375 225.15625 162.617188 223.074219 165.65625 C 220.777344 163.742188 218.4375 161.785156 216.082031 159.828125 C 215.878906 160.046875 215.671875 160.265625 215.464844 160.496094 C 217.792969 162.945312 220.121094 165.394531 222.515625 167.914062 C 219.050781 168.203125 216.097656 168.351562 213.167969 168.707031 C 203.78125 169.859375 195.089844 167.625 186.796875 163.425781 C 185.113281 162.578125 184.949219 160.003906 185.921875 158.335938 C 186.90625 156.652344 187.453125 154.722656 188.207031 152.902344 C 188.425781 152.382812 188.605469 151.753906 189 151.410156 C 192.09375 148.703125 191.410156 143.542969 187.6875 141.761719 C 183.128906 139.585938 171.210938 143.296875 168.75 147.675781 C 166.558594 151.574219 168.980469 155.886719 173.402344 156.089844 C 173.878906 156.117188 174.46875 156.527344 174.796875 156.941406 C 176.273438 158.773438 177.984375 160.140625 180.40625 160.496094 C 182.078125 160.742188 182.1875 162.042969 181.832031 163.300781 C 181.558594 164.273438 180.96875 165.175781 180.476562 166.09375 C 176.027344 174.332031 169.0625 178.78125 159.773438 178.972656 C 155.542969 179.039062 151.328125 178.246094 147.195312 180.230469 Z M 154.96875 125.070312 C 156.335938 124.851562 157.664062 125.972656 157.925781 127.585938 C 158.183594 129.203125 157.28125 130.679688 155.914062 130.898438 C 154.542969 131.117188 153.21875 129.996094 152.957031 128.378906 C 152.695312 126.765625 153.601562 125.289062 154.96875 125.070312 Z M 201.207031 119.59375 C 199.839844 119.8125 198.511719 118.691406 198.25 117.078125 C 197.992188 115.460938 198.894531 113.984375 200.261719 113.765625 C 201.632812 113.546875 202.960938 114.667969 203.21875 116.285156 C 203.480469 117.898438 202.574219 119.363281 201.207031 119.59375 Z M 188.535156 197.265625 C 188.726562 197.101562 188.933594 196.925781 189.125 196.761719 C 189.78125 197.253906 190.601562 197.621094 191.066406 198.253906 C 192.777344 200.59375 192.722656 203.890625 190.957031 206.4375 C 192.476562 202.796875 191.957031 199.703125 188.535156 197.265625 Z M 160.648438 182.0625 C 160.578125 181.859375 160.511719 181.640625 160.441406 181.433594 C 170.925781 180.3125 179.054688 175.660156 184.117188 166.066406 C 194.023438 171.609375 204.53125 173.441406 215.726562 170.40625 C 215.824219 170.652344 215.933594 170.882812 216.027344 171.128906 C 214.332031 172.183594 212.621094 173.222656 210.949219 174.304688 C 209.214844 175.425781 207.515625 176.617188 205.804688 177.765625 C 204.039062 178.945312 202.273438 180.121094 200.550781 181.285156 C 200.921875 179.367188 201.277344 177.492188 201.726562 175.152344 C 198.921875 177.753906 196.609375 179.886719 194.296875 182.023438 C 194.132812 181.898438 193.96875 181.777344 193.804688 181.667969 C 193.804688 180.695312 193.804688 179.722656 193.804688 178.054688 C 190.738281 181.285156 188.523438 184.664062 184.59375 186.414062 C 185.554688 184.554688 186.386719 182.96875 187.207031 181.367188 C 187.070312 181.1875 186.921875 180.996094 186.785156 180.820312 C 181.898438 185.621094 176.125 187.101562 169.335938 185.839844 C 172.101562 185.265625 174.589844 184.757812 177.082031 184.238281 C 177.054688 184.046875 177.015625 183.84375 176.988281 183.652344 C 173.921875 183.652344 170.84375 183.652344 167.777344 183.652344 C 167.75 183.527344 167.734375 183.390625 167.707031 183.269531 C 168.859375 182.625 170.019531 181.980469 171.171875 181.339844 C 171.128906 181.214844 171.101562 181.105469 171.0625 180.984375 C 167.585938 181.351562 164.109375 181.707031 160.648438 182.0625 Z M 163.015625 186.375 C 161.097656 185.472656 159.167969 184.554688 157.253906 183.652344 C 157.375 183.433594 157.488281 183.214844 157.609375 182.996094 C 159.402344 184.101562 161.207031 185.238281 163.015625 186.375 Z M 186.359375 199.757812 C 186.359375 196.84375 186.359375 193.929688 186.359375 191.011719 C 186.632812 191.027344 186.894531 191.027344 187.167969 191.039062 C 187.425781 193.984375 187.332031 196.898438 186.359375 199.757812 Z M 167.449219 187.648438 C 170.210938 188.441406 172.9375 189.425781 175.742188 190.082031 C 178.53125 190.726562 181.40625 191.066406 184.320312 191.546875 C 184.320312 192.121094 184.320312 192.695312 184.320312 193.832031 C 180.941406 193.121094 177.671875 192.710938 174.589844 191.710938 C 171.089844 190.574219 167.75 188.933594 164.34375 187.46875 C 164.082031 187.359375 163.917969 187.019531 163.710938 186.742188 C 164.957031 187.046875 166.21875 187.304688 167.449219 187.648438 Z M 182.460938 201.414062 C 183.269531 199.511719 184.128906 199.183594 186.359375 199.9375 C 186.359375 199.910156 186.359375 199.894531 186.359375 199.867188 C 186.960938 199.660156 187.550781 199.441406 188.140625 199.210938 C 189.878906 200.8125 190.289062 202.808594 189.273438 204.699219 C 188.277344 206.546875 186.128906 207.3125 184.363281 206.464844 C 182.515625 205.574219 181.667969 203.316406 182.460938 201.414062 Z M 189.425781 193.503906 C 189.371094 192.492188 189.328125 191.644531 189.289062 190.574219 C 199.375 188.535156 208.773438 185.0625 216.574219 178.011719 C 216.765625 178.355469 216.972656 178.699219 217.164062 179.039062 C 209.664062 186.933594 200.085938 190.957031 189.425781 193.503906 Z M 189.082031 188.316406 C 188.960938 188.085938 188.851562 187.867188 188.726562 187.632812 C 191.410156 186.347656 194.105469 185.0625 196.925781 183.707031 C 198.445312 185.59375 200.015625 184.730469 201.523438 183.664062 C 204.902344 181.285156 208.308594 178.929688 211.582031 176.414062 C 214.140625 174.441406 217.683594 173.851562 219.40625 170.691406 C 219.597656 170.351562 220.378906 170.324219 221.078125 170.078125 C 212.632812 180.558594 201.726562 186.03125 189.082031 188.316406 Z M 138.535156 301.269531 C 136.386719 297.984375 136.414062 293.863281 135.195312 289.554688 C 133.347656 293.222656 133.429688 296.617188 133.742188 300.0625 C 130.308594 293.140625 128.679688 286.203125 133.320312 279.152344 C 131.238281 279.441406 130.242188 280.261719 124.464844 286.476562 C 125.355469 278.976562 127.75 272.214844 132.417969 266.195312 C 128.871094 267.644531 125.316406 269.109375 121.769531 270.558594 C 121.703125 270.4375 121.621094 270.300781 121.550781 270.175781 C 123.222656 269.054688 124.863281 267.890625 126.574219 266.839844 C 130.445312 264.457031 134.511719 262.335938 138.191406 259.695312 C 140.765625 257.859375 142.84375 255.355469 145.035156 253.277344 C 144.527344 256.902344 146.746094 260.121094 148.851562 263.28125 C 151.179688 266.769531 151.425781 270.792969 152.136719 274.691406 C 152.601562 277.265625 152.832031 279.878906 153.132812 282.480469 C 153.464844 285.257812 152.191406 287.582031 150.890625 289.867188 C 150.710938 290.183594 150.300781 290.347656 149.660156 290.867188 C 149.304688 288.554688 149.003906 286.558594 148.699219 284.574219 C 148.535156 292.03125 147.347656 298.832031 138.535156 301.269531 Z M 235.445312 310.613281 C 234.5 309.011719 233.804688 307.660156 232.957031 306.425781 C 232.148438 305.25 231.191406 304.183594 230.300781 303.0625 C 230.027344 303.253906 229.753906 303.457031 229.492188 303.648438 C 230.257812 306.03125 231.027344 308.410156 231.886719 311.066406 C 229.492188 311.242188 227.261719 311.488281 225.03125 311.53125 C 224.527344 311.542969 223.949219 310.902344 223.484375 310.476562 C 221.734375 308.863281 220.011719 307.21875 218.273438 305.59375 C 218.027344 305.757812 217.765625 305.933594 217.519531 306.097656 C 218.300781 307.972656 219.078125 309.863281 219.804688 311.613281 C 217.671875 311.613281 215.410156 311.613281 213.03125 311.613281 C 212.785156 309.148438 212.550781 306.863281 212.265625 304.058594 C 209.5 306.25 209.800781 308.78125 210.089844 311.667969 C 206.957031 310.96875 204.082031 310.328125 201.113281 309.65625 C 202.6875 306.46875 204.082031 303.785156 205.355469 301.035156 C 206.515625 298.53125 206.476562 295.945312 206.203125 293.167969 C 205.875 289.785156 206.148438 286.269531 206.679688 282.902344 C 208.800781 269.21875 208.308594 255.65625 205.230469 242.179688 C 204.917969 240.796875 204.4375 239.457031 203.65625 238.15625 C 203.65625 241.125 203.589844 244.09375 203.671875 247.0625 C 203.875 254.644531 204.449219 262.242188 204.273438 269.808594 C 204.148438 274.800781 203.125 279.796875 202.246094 284.765625 C 201.277344 290.347656 200.113281 295.902344 198.855469 301.433594 C 198.101562 304.6875 197.9375 304.648438 194.53125 304.320312 C 193.886719 302.636719 193.242188 300.953125 192.4375 298.804688 C 192.054688 300.582031 191.765625 301.882812 191.476562 303.183594 C 191.257812 303.292969 191.054688 303.390625 190.835938 303.5 C 189.671875 301.992188 188.386719 300.554688 187.371094 298.957031 C 185.074219 295.300781 185.058594 291.074219 184.609375 286.96875 C 183.433594 276.335938 182.105469 265.730469 181.105469 255.082031 C 180.449219 248.078125 180.257812 241.03125 179.859375 233.996094 C 179.804688 233.050781 179.738281 232.109375 179.667969 231.164062 C 179.492188 231.148438 179.3125 231.136719 179.136719 231.121094 C 178.722656 233.695312 178.203125 236.253906 177.945312 238.839844 C 176.851562 249.679688 177.316406 260.503906 178.476562 271.300781 C 179.082031 276.785156 179.996094 282.234375 180.679688 287.707031 C 180.84375 289.0625 181.035156 290.582031 180.597656 291.796875 C 179.191406 295.710938 180.039062 299.269531 181.75 302.785156 C 182.773438 304.878906 183.882812 306.933594 185.222656 309.519531 C 181.433594 310.175781 177.917969 310.792969 174.207031 311.433594 C 174.140625 308.589844 174.878906 305.839844 171.730469 303.8125 C 171.730469 306.660156 171.730469 308.890625 171.730469 311.324219 C 168.941406 311.324219 166.355469 311.324219 163.601562 311.324219 C 164.453125 309.535156 165.285156 307.769531 166.121094 306.015625 C 165.996094 305.894531 165.875 305.785156 165.75 305.660156 C 164.300781 306.851562 162.507812 307.808594 161.453125 309.300781 C 159.648438 311.832031 157.554688 311.230469 154.898438 310.585938 C 155.898438 307.550781 156.871094 304.660156 157.9375 301.390625 C 154.734375 303.773438 153.039062 306.769531 151.984375 310.421875 C 150.234375 309.808594 148.644531 309.246094 146.8125 308.601562 C 148.632812 305.6875 150.125 302.894531 152 300.378906 C 158.484375 291.703125 159.457031 282.328125 156.378906 272.132812 C 154.066406 264.457031 151.945312 256.683594 151.65625 248.554688 C 151.398438 248.542969 151.125 248.542969 150.863281 248.527344 C 150.507812 251.882812 150.152344 255.234375 149.714844 259.257812 C 149.167969 257.175781 148.617188 255.628906 148.398438 254.03125 C 148.179688 252.414062 148.113281 250.730469 148.289062 249.101562 C 148.480469 247.421875 149.03125 245.765625 149.496094 243.808594 C 148.867188 244.109375 148.480469 244.300781 147.976562 244.546875 C 147.6875 243.726562 147.386719 242.90625 146.992188 241.769531 C 146.195312 242.398438 145.566406 242.917969 144.484375 243.78125 C 146.074219 238.238281 146.882812 232.859375 151.589844 229.234375 C 151.480469 229.082031 151.355469 228.917969 151.246094 228.769531 C 148.753906 229.835938 146.265625 230.917969 143.570312 232.078125 C 144.679688 228.222656 145.8125 224.5 146.785156 220.75 C 147.878906 216.546875 148.933594 212.332031 149.796875 208.089844 C 150.125 206.519531 150.546875 205.273438 151.984375 204.398438 C 152.710938 203.945312 153.203125 203.136719 153.804688 202.480469 C 153.722656 202.316406 153.640625 202.152344 153.546875 202 C 151.65625 202.753906 149.769531 203.492188 148.085938 204.164062 C 150.699219 198.445312 153.339844 192.667969 156.050781 186.742188 C 163.109375 190.972656 170.554688 195.117188 178.765625 196.433594 C 178.21875 198.949219 177.273438 201.480469 177.21875 204.027344 C 177.152344 206.820312 178.765625 209.144531 181.160156 210.707031 C 184.5 212.882812 188.714844 212.414062 191.640625 209.636719 C 195.199219 206.257812 195.636719 201.480469 192.792969 196.472656 C 204.683594 193.324219 215.042969 187.6875 223.144531 178.039062 C 226.003906 188.277344 228.480469 198.664062 238.347656 205.328125 C 236.117188 205.21875 234.253906 205.121094 232.339844 205.011719 C 233.980469 208.941406 235.542969 212.6875 237.117188 216.4375 C 236.894531 216.5625 236.675781 216.671875 236.457031 216.792969 C 235.335938 215.726562 234.226562 214.671875 233.105469 213.605469 C 232.902344 213.757812 232.695312 213.90625 232.503906 214.058594 C 236.199219 220.925781 240.988281 227.097656 245.3125 233.804688 C 241.523438 231.628906 237.746094 229.464844 233.570312 227.085938 C 237.347656 233.214844 241.523438 238.9375 241.960938 246.339844 C 240.660156 244.832031 239.523438 243.246094 238.113281 241.972656 C 236.648438 240.644531 234.914062 239.621094 233.121094 238.554688 C 236.28125 244.628906 238.894531 250.785156 237.59375 258.175781 C 236.253906 254.824219 235.816406 251.238281 232.722656 248.910156 C 233.230469 251.867188 233.886719 254.605469 234.117188 257.382812 C 234.609375 263.402344 232.941406 269.152344 231.492188 274.898438 C 229.398438 283.164062 230.410156 290.910156 235.035156 298.121094 C 237.226562 301.542969 239.46875 304.933594 241.890625 308.65625 C 239.714844 309.339844 237.539062 309.984375 235.445312 310.613281 Z M 262.789062 299.898438 C 262.691406 300.160156 262.582031 300.40625 262.472656 300.664062 C 262.417969 300.789062 262.335938 300.882812 262.265625 300.996094 C 261.855469 299.460938 261.652344 297.847656 261.007812 296.421875 C 260.351562 294.972656 259.257812 293.726562 258.351562 292.402344 C 258.203125 292.484375 258.050781 292.566406 257.902344 292.648438 C 258.148438 293.890625 258.394531 295.125 258.640625 296.367188 C 258.667969 296.503906 258.65625 296.644531 258.667969 296.78125 C 258.832031 301.679688 257.355469 303.183594 252.605469 303.089844 C 250.199219 303.03125 247.804688 303.089844 245.394531 303.074219 C 244.257812 303.074219 242.972656 303.226562 243.546875 301.351562 C 243.617188 301.117188 243.574219 300.625 243.464844 300.582031 C 241.414062 299.804688 242.519531 297.695312 241.699219 296.394531 C 240.523438 294.550781 239.332031 292.6875 238.25 290.785156 C 237.171875 288.882812 235.746094 287.007812 235.308594 284.941406 C 234.746094 282.371094 234.734375 279.59375 235.035156 276.949219 C 235.625 271.722656 237.320312 266.8125 239.605469 262.019531 C 241.523438 258.011719 242.78125 253.675781 244.503906 248.992188 C 246.3125 256.382812 251.523438 258.765625 258.132812 259.53125 C 256.039062 259.859375 253.933594 260.175781 251.839844 260.503906 C 258.40625 263.527344 263.566406 267.742188 265.769531 275.1875 C 263.675781 273.515625 261.789062 271.996094 259.898438 270.492188 C 259.777344 270.585938 259.667969 270.667969 259.542969 270.765625 C 261.9375 274.144531 264.332031 277.539062 266.726562 280.917969 C 266.605469 281.042969 266.480469 281.152344 266.359375 281.273438 C 263.582031 279.59375 260.804688 277.894531 257.558594 275.925781 C 258.203125 277.019531 258.585938 277.757812 259.050781 278.429688 C 263.582031 284.996094 265.59375 292.03125 262.789062 299.898438 Z M 262.789062 299.898438 " fill-opacity="1" fill-rule="nonzero"/></g></svg>