<svg xmlns="http://www.w3.org/2000/svg" xmlns:xlink="http://www.w3.org/1999/xlink" width="500" zoomAndPan="magnify" viewBox="0 0 375 374.999991" height="500" preserveAspectRatio="xMidYMid meet" version="1.0"><defs><filter x="0%" y="0%" width="100%" height="100%" id="946d6b7880"><feColorMatrix values="0 0 0 0 1 0 0 0 0 1 0 0 0 0 1 0 0 0 1 0" color-interpolation-filters="sRGB"/></filter><clipPath id="47e33d8cb8"><path d="M 30.316406 321 L 103 321 L 103 364 L 30.316406 364 Z M 30.316406 321 " clip-rule="nonzero"/></clipPath><clipPath id="7577243d1b"><path d="M 30.316406 326 L 101 326 L 101 364 L 30.316406 364 Z M 30.316406 326 " clip-rule="nonzero"/></clipPath><clipPath id="a40de91e9c"><path d="M 215 18.007812 L 232 18.007812 L 232 33 L 215 33 Z M 215 18.007812 " clip-rule="nonzero"/></clipPath><clipPath id="b440f2034d"><path d="M 202 18.007812 L 226 18.007812 L 226 49 L 202 49 Z M 202 18.007812 " clip-rule="nonzero"/></clipPath><mask id="129bffe082"><g filter="url(#946d6b7880)"><rect x="-37.5" width="450" fill="#000000" y="-37.499999" height="449.999989" fill-opacity="0.6"/></g></mask><clipPath id="03780c27c8"><path d="M 0.160156 0.519531 L 6.878906 0.519531 L 6.878906 45 L 0.160156 45 Z M 0.160156 0.519531 " clip-rule="nonzero"/></clipPath><clipPath id="6f77ca773d"><rect x="0" width="7" y="0" height="46"/></clipPath><mask id="b03761f2f5"><g filter="url(#946d6b7880)"><rect x="-37.5" width="450" fill="#000000" y="-37.499999" height="449.999989" fill-opacity="0.6"/></g></mask><clipPath id="1a0355766d"><path d="M 0.398438 0.640625 L 8.320312 0.640625 L 8.320312 22 L 0.398438 22 Z M 0.398438 0.640625 " clip-rule="nonzero"/></clipPath><clipPath id="0fd2d757b7"><rect x="0" width="9" y="0" height="22"/></clipPath><mask id="667d167234"><g filter="url(#946d6b7880)"><rect x="-37.5" width="450" fill="#000000" y="-37.499999" height="449.999989" fill-opacity="0.6"/></g></mask><clipPath id="7f8cc97297"><path d="M 0.519531 0.441406 L 32.679688 0.441406 L 32.679688 20.601562 L 0.519531 20.601562 Z M 0.519531 0.441406 " clip-rule="nonzero"/></clipPath><clipPath id="08d5cbdf3a"><rect x="0" width="33" y="0" height="21"/></clipPath><mask id="1963d147e2"><g filter="url(#946d6b7880)"><rect x="-37.5" width="450" fill="#000000" y="-37.499999" height="449.999989" fill-opacity="0.6"/></g></mask><clipPath id="7b8452d274"><path d="M 1 0.519531 L 15.519531 0.519531 L 15.519531 5 L 1 5 Z M 1 0.519531 " clip-rule="nonzero"/></clipPath><clipPath id="686228d508"><rect x="0" width="16" y="0" height="6"/></clipPath><mask id="35ade5450e"><g filter="url(#946d6b7880)"><rect x="-37.5" width="450" fill="#000000" y="-37.499999" height="449.999989" fill-opacity="0.6"/></g></mask><clipPath id="fe8b4cd356"><path d="M 0.0390625 0.558594 L 29.800781 0.558594 L 29.800781 81.921875 L 0.0390625 81.921875 Z M 0.0390625 0.558594 " clip-rule="nonzero"/></clipPath><clipPath id="69a6ee1c23"><rect x="0" width="30" y="0" height="82"/></clipPath></defs><path fill="#fda769" d="M 304.289062 131.871094 C 304.484375 133.152344 304.859375 134.417969 304.882812 135.714844 C 304.953125 141.304688 302.632812 146.785156 299.296875 151.171875 C 298.394531 152.34375 297.3125 153.367188 296.511719 154.617188 C 295.679688 155.941406 295.5625 157.488281 294.96875 158.917969 C 294.054688 161.15625 292.640625 163.441406 293.402344 165.945312 C 293.757812 167.09375 294.476562 168.152344 295.449219 168.855469 C 297.378906 170.238281 300.246094 171.019531 300.015625 173.929688 C 299.71875 177.574219 296.726562 180.058594 294.660156 182.773438 C 291.757812 186.582031 290.617188 191.375 292.683594 195.832031 C 293.335938 197.226562 294.238281 198.308594 295.46875 199.222656 C 297.011719 200.363281 298.75 201.214844 300.53125 201.9375 C 305.570312 203.988281 311.304688 205.160156 316.089844 201.789062 C 319.871094 199.125 321.023438 194.507812 321.296875 190.125 C 321.378906 188.769531 321.386719 187.410156 321.378906 186.050781 C 321.367188 185.265625 321.261719 184.414062 321.535156 183.664062 C 321.914062 182.652344 322.953125 182.0625 323.890625 181.660156 C 326.039062 180.746094 328.390625 180.886719 330.59375 180.257812 C 333.714844 179.371094 335.609375 176.789062 336.308594 173.722656 C 337.402344 168.921875 335.871094 163.835938 332.355469 160.390625 C 330.09375 158.160156 326.78125 157.234375 324.679688 154.863281 C 322.941406 152.90625 323.636719 150.601562 324.679688 148.464844 C 326.699219 144.292969 330.753906 141.375 332.890625 137.273438 C 335.597656 132.085938 333.839844 124.769531 330.285156 120.449219 C 326.757812 116.160156 320.769531 111.492188 314.773438 113.050781 C 312.453125 113.652344 310.957031 115.667969 308.765625 116.394531 C 306.867188 117.019531 304.882812 114.914062 303.042969 116.515625 C 302.710938 116.8125 302.4375 117.214844 302.21875 117.601562 C 301.03125 119.699219 301.796875 122.171875 302.355469 124.34375 C 302.925781 126.589844 303.613281 128.808594 304.207031 131.050781 C 304.273438 131.316406 304.253906 131.597656 304.285156 131.871094 Z M 304.289062 131.871094 " fill-opacity="1" fill-rule="evenodd"/><path fill="#c791d3" d="M 304.894531 121.085938 C 304.941406 120.3125 304.988281 119.535156 305.101562 118.769531 C 305.617188 119.148438 306.117188 119.542969 306.5625 120.015625 C 308.996094 122.574219 309.691406 125.894531 309.554688 129.34375 C 309.488281 131.1875 308.949219 132.5625 308.027344 134.113281 C 307.820312 134.460938 307.625 134.816406 307.363281 135.136719 C 307.363281 135.140625 307.15625 135.390625 307.144531 135.375 C 306.585938 134.902344 306.644531 133.613281 306.585938 132.96875 C 306.414062 130.910156 305.933594 128.910156 305.488281 126.898438 C 305.042969 124.898438 304.78125 123.140625 304.894531 121.085938 Z M 304.894531 121.085938 " fill-opacity="1" fill-rule="evenodd"/><path fill="#fda769" d="M 140.40625 302.785156 C 141.542969 301.800781 142.808594 300.945312 144.167969 300.308594 C 151.347656 296.949219 159.058594 300.808594 165.117188 304.738281 C 172.28125 309.386719 179.070312 314.59375 186.246094 319.234375 C 194.648438 324.667969 203.457031 329.664062 212.988281 332.824219 C 227.265625 337.554688 246.855469 338.929688 261.875 338.390625 C 259.636719 340.976562 257.238281 343.421875 254.304688 345.203125 C 241.121094 353.179688 223.542969 350.289062 209.257812 347.5 C 198.015625 345.304688 186.847656 342.53125 175.707031 339.871094 C 175.554688 340.355469 175.363281 340.820312 175.109375 341.253906 C 174.050781 343.074219 171.042969 344.097656 169.109375 344.5625 C 162.878906 346.070312 156.074219 344.570312 149.726562 344.9375 C 144.46875 345.238281 135.988281 347.636719 134.816406 341.984375 C 133.769531 336.949219 134.214844 331.675781 134.703125 326.605469 C 135.097656 322.492188 135.757812 318.53125 136.429688 314.460938 C 136.996094 311.035156 137.195312 307.414062 138.933594 304.320312 C 139.285156 303.695312 139.867188 303.25 140.402344 302.785156 Z M 140.40625 302.785156 " fill-opacity="1" fill-rule="evenodd"/><path fill="#ffd0bc" d="M 102.214844 312.988281 C 101.371094 311.699219 100.519531 310.398438 99.40625 309.414062 C 98.578125 308.683594 97.289062 307.355469 96.074219 307.488281 C 94.667969 307.640625 93.535156 309.679688 92.691406 310.648438 C 90.171875 313.546875 87.429688 316.246094 84.722656 318.96875 C 83.273438 320.421875 80.605469 322.386719 80.144531 324.511719 C 79.558594 327.195312 83.414062 329.707031 84.890625 331.425781 C 85.898438 332.597656 86.683594 333.929688 87.75 335.070312 C 89.488281 336.9375 92.242188 338.246094 94.769531 338.519531 C 95.796875 338.628906 97.222656 338.746094 98.167969 338.207031 C 98.988281 337.734375 99.285156 336.625 99.832031 335.902344 C 100.964844 334.40625 102.390625 332.957031 103.773438 331.707031 C 105.320312 330.3125 107.003906 329.109375 108.5625 327.734375 C 109.824219 326.625 110.984375 325.558594 110.449219 323.707031 C 109.792969 321.4375 107.921875 320.105469 106.367188 318.46875 C 105.742188 317.8125 105.246094 317.0625 104.695312 316.347656 C 103.839844 315.242188 102.976562 314.160156 102.214844 312.988281 Z M 102.214844 312.988281 " fill-opacity="1" fill-rule="evenodd"/><g clip-path="url(#47e33d8cb8)"><path fill="#c791d3" d="M 60.15625 362.945312 C 65.53125 363.132812 70.914062 363.257812 76.292969 363.171875 C 80.105469 363.105469 83.902344 362.84375 87.714844 362.84375 C 90.269531 362.84375 92.855469 362.832031 95.378906 362.429688 C 96.480469 362.253906 97.847656 362.035156 98.703125 361.257812 C 99.316406 360.703125 99.605469 359.761719 99.792969 358.984375 C 100.230469 357.167969 100.15625 355.277344 100.316406 353.425781 C 100.636719 349.671875 101.125 345.945312 101.675781 342.21875 C 101.96875 340.238281 102.441406 337.320312 101.328125 335.5 C 100.035156 333.386719 96.554688 334.511719 94.648438 334.511719 C 92.785156 334.511719 90.699219 333.847656 89.050781 332.992188 C 87.226562 332.046875 85.414062 330.664062 84.152344 329.023438 C 83.332031 327.953125 82.796875 326.664062 82.046875 325.539062 C 81.183594 324.25 81.140625 322.667969 79.714844 321.78125 C 78.242188 320.867188 76.425781 321.601562 74.96875 322.257812 C 72.96875 323.15625 71.582031 325.140625 70.085938 326.675781 C 67.121094 329.722656 63.453125 332.128906 60.050781 334.648438 C 56.960938 336.9375 53.933594 339.5 50.3125 340.921875 C 44.765625 343.09375 37.109375 340.964844 33.21875 346.539062 C 31.160156 349.492188 30.414062 353.699219 30.929688 357.222656 C 31.203125 359.113281 31.960938 361.050781 33.574219 362.1875 C 35.753906 363.722656 39.046875 363.363281 41.574219 363.355469 C 47.277344 363.335938 52.972656 362.851562 58.679688 362.890625 C 59.171875 362.910156 59.664062 362.925781 60.15625 362.945312 Z M 60.15625 362.945312 " fill-opacity="1" fill-rule="evenodd"/></g><g clip-path="url(#7577243d1b)"><path fill="#ffd0bc" d="M 72.136719 357.445312 C 67.699219 357.402344 63.253906 357.550781 58.820312 357.445312 C 58.429688 357.4375 58.039062 357.425781 57.644531 357.417969 C 57.542969 356.554688 57.382812 355.703125 57.132812 354.890625 C 56.65625 353.316406 55.960938 351.820312 55.085938 350.4375 C 57.417969 349.609375 59.539062 348.332031 61.746094 347.148438 C 63.210938 346.367188 64.753906 345.726562 66.1875 344.871094 C 68.945312 343.226562 73.234375 340.9375 74.347656 337.636719 C 75.042969 335.566406 75.117188 332.449219 74.027344 330.472656 C 73.164062 328.902344 71.550781 327.640625 70.046875 326.71875 C 67.085938 329.746094 63.4375 332.140625 60.050781 334.648438 C 56.960938 336.9375 53.929688 339.5 50.3125 340.921875 C 48.597656 341.59375 46.675781 341.855469 44.730469 342.058594 C 43.964844 342.136719 43.191406 342.210938 42.425781 342.296875 C 42.378906 342.300781 42.332031 342.304688 42.285156 342.3125 C 41.914062 342.351562 41.546875 342.398438 41.179688 342.449219 C 41.136719 342.453125 41.097656 342.460938 41.058594 342.46875 C 40.75 342.511719 40.445312 342.5625 40.140625 342.617188 C 40.050781 342.632812 39.964844 342.648438 39.875 342.664062 C 39.582031 342.722656 39.292969 342.785156 39.003906 342.855469 C 38.949219 342.867188 38.894531 342.878906 38.839844 342.894531 C 38.503906 342.976562 38.175781 343.074219 37.851562 343.183594 C 37.785156 343.207031 37.71875 343.230469 37.652344 343.253906 C 37.398438 343.347656 37.148438 343.445312 36.898438 343.554688 C 36.8125 343.59375 36.730469 343.628906 36.644531 343.667969 C 36.371094 343.796875 36.105469 343.9375 35.847656 344.09375 C 35.816406 344.109375 35.78125 344.125 35.75 344.144531 C 35.460938 344.320312 35.1875 344.519531 34.917969 344.730469 C 34.847656 344.785156 34.785156 344.84375 34.714844 344.902344 C 34.511719 345.074219 34.316406 345.257812 34.125 345.453125 C 34.054688 345.523438 33.984375 345.597656 33.914062 345.671875 C 33.671875 345.941406 33.4375 346.222656 33.21875 346.535156 C 32.933594 346.949219 32.675781 347.386719 32.441406 347.84375 C 32.363281 347.992188 32.300781 348.144531 32.226562 348.300781 C 32.078125 348.617188 31.933594 348.9375 31.808594 349.273438 C 31.78125 349.34375 31.742188 349.414062 31.71875 349.484375 C 31.722656 349.484375 31.730469 349.484375 31.734375 349.484375 C 30.839844 351.957031 30.566406 354.753906 30.925781 357.222656 C 31.203125 359.113281 31.960938 361.050781 33.574219 362.1875 C 35.753906 363.71875 39.046875 363.363281 41.574219 363.355469 C 46.96875 363.335938 52.351562 362.902344 57.746094 362.886719 C 58.058594 362.886719 58.367188 362.886719 58.675781 362.890625 C 59.167969 362.90625 59.660156 362.925781 60.15625 362.945312 C 65.53125 363.132812 70.910156 363.257812 76.289062 363.171875 C 80.101562 363.105469 83.902344 362.84375 87.714844 362.84375 C 90.265625 362.84375 92.851562 362.832031 95.378906 362.429688 C 96.476562 362.253906 97.84375 362.035156 98.703125 361.257812 C 99.3125 360.703125 99.601562 359.761719 99.789062 358.984375 C 99.972656 358.226562 100.066406 357.453125 100.125 356.679688 C 90.761719 357.417969 81.515625 357.53125 72.136719 357.445312 Z M 72.136719 357.445312 " fill-opacity="1" fill-rule="evenodd"/><path fill="#ffd0bc" d="M 72.136719 357.445312 C 67.699219 357.402344 63.253906 357.550781 58.820312 357.445312 C 58.429688 357.4375 58.039062 357.425781 57.644531 357.417969 C 57.542969 356.554688 57.382812 355.703125 57.132812 354.890625 C 56.65625 353.316406 55.960938 351.820312 55.085938 350.4375 C 57.417969 349.609375 59.539062 348.332031 61.746094 347.148438 C 63.210938 346.367188 64.753906 345.726562 66.1875 344.871094 C 68.945312 343.226562 73.234375 340.9375 74.347656 337.636719 C 75.042969 335.566406 75.117188 332.449219 74.027344 330.472656 C 73.164062 328.902344 71.550781 327.640625 70.046875 326.71875 C 67.085938 329.746094 63.4375 332.140625 60.050781 334.648438 C 56.960938 336.9375 53.929688 339.5 50.3125 340.921875 C 48.597656 341.59375 46.675781 341.855469 44.730469 342.058594 C 43.964844 342.136719 43.191406 342.210938 42.425781 342.296875 C 42.378906 342.300781 42.332031 342.304688 42.285156 342.3125 C 41.914062 342.351562 41.546875 342.398438 41.179688 342.449219 C 41.136719 342.453125 41.097656 342.460938 41.058594 342.46875 C 40.75 342.511719 40.445312 342.5625 40.140625 342.617188 C 40.050781 342.632812 39.964844 342.648438 39.875 342.664062 C 39.582031 342.722656 39.292969 342.785156 39.003906 342.855469 C 38.949219 342.867188 38.894531 342.878906 38.839844 342.894531 C 38.503906 342.976562 38.175781 343.074219 37.851562 343.183594 C 37.785156 343.207031 37.71875 343.230469 37.652344 343.253906 C 37.398438 343.347656 37.148438 343.445312 36.898438 343.554688 C 36.8125 343.59375 36.730469 343.628906 36.644531 343.667969 C 36.371094 343.796875 36.105469 343.9375 35.847656 344.09375 C 35.816406 344.109375 35.78125 344.125 35.75 344.144531 C 35.460938 344.320312 35.1875 344.519531 34.917969 344.730469 C 34.847656 344.785156 34.785156 344.84375 34.714844 344.902344 C 34.511719 345.074219 34.316406 345.257812 34.125 345.453125 C 34.054688 345.523438 33.984375 345.597656 33.914062 345.671875 C 33.671875 345.941406 33.4375 346.222656 33.21875 346.535156 C 32.933594 346.949219 32.675781 347.386719 32.441406 347.84375 C 32.363281 347.992188 32.300781 348.144531 32.226562 348.300781 C 32.078125 348.617188 31.933594 348.9375 31.808594 349.273438 C 31.78125 349.34375 31.742188 349.414062 31.71875 349.484375 C 31.722656 349.484375 31.730469 349.484375 31.734375 349.484375 C 30.839844 351.957031 30.566406 354.753906 30.925781 357.222656 C 31.203125 359.113281 31.960938 361.050781 33.574219 362.1875 C 35.753906 363.71875 39.046875 363.363281 41.574219 363.355469 C 46.96875 363.335938 52.351562 362.902344 57.746094 362.886719 C 58.058594 362.886719 58.367188 362.886719 58.675781 362.890625 C 59.167969 362.90625 59.660156 362.925781 60.15625 362.945312 C 65.53125 363.132812 70.910156 363.257812 76.289062 363.171875 C 80.101562 363.105469 83.902344 362.84375 87.714844 362.84375 C 90.265625 362.84375 92.851562 362.832031 95.378906 362.429688 C 96.476562 362.253906 97.84375 362.035156 98.703125 361.257812 C 99.3125 360.703125 99.601562 359.761719 99.789062 358.984375 C 99.972656 358.226562 100.066406 357.453125 100.125 356.679688 C 90.761719 357.417969 81.515625 357.53125 72.136719 357.445312 Z M 72.136719 357.445312 " fill-opacity="1" fill-rule="evenodd"/></g><path fill="#ffd0bc" d="M 94.394531 345.199219 C 94.515625 343.679688 94.601562 341.867188 93.789062 340.503906 C 92.601562 338.519531 89.402344 338.789062 87.695312 339.863281 C 85.105469 341.488281 83.699219 344.289062 83.84375 347.328125 C 83.894531 348.398438 84.121094 349.757812 84.777344 350.640625 C 86.175781 352.523438 89.046875 352.960938 91.003906 351.777344 C 93.316406 350.375 94.1875 347.765625 94.394531 345.199219 Z M 94.394531 345.199219 " fill-opacity="1" fill-rule="evenodd"/><path fill="#fda769" d="M 218.152344 346.0625 C 221.566406 347.292969 225.015625 348.515625 228.601562 349.066406 C 237.582031 350.449219 247.246094 348.769531 255.390625 344.855469 C 263.636719 340.894531 270.328125 333.960938 274.636719 325.941406 C 275.894531 323.613281 276.679688 320.898438 277.480469 318.398438 C 276.566406 318.589844 275.628906 319.007812 274.683594 318.90625 C 273.6875 318.800781 272.695312 317.941406 271.804688 317.5 C 269.964844 316.574219 268.035156 315.832031 266.207031 314.875 C 260.472656 311.859375 254.921875 308.332031 249.3125 305.089844 C 242.390625 301.082031 235.570312 296.832031 228.738281 292.652344 C 223.578125 289.484375 218.859375 283.976562 212.773438 283.984375 C 209.671875 283.988281 207.675781 282.246094 205.152344 280.652344 C 201.867188 278.582031 198.558594 276.550781 195.207031 274.585938 C 185.871094 269.109375 176.347656 264.050781 166.609375 259.335938 C 159.398438 255.839844 151.398438 252.359375 143.21875 254.78125 C 139.238281 255.957031 135.773438 259.472656 132.761719 262.183594 C 129.925781 264.738281 127.207031 267.3125 124.480469 269.972656 C 117.03125 277.257812 109.476562 284.398438 101.835938 291.488281 C 98.867188 294.242188 96.132812 297.378906 92.921875 299.863281 C 91.019531 301.335938 88.894531 301.464844 89.019531 304.484375 C 89.105469 306.519531 91.40625 308.109375 92.429688 309.6875 C 93.761719 311.738281 95.871094 313.128906 97.609375 314.847656 C 98.945312 316.164062 100.300781 317.445312 101.683594 318.710938 C 102.859375 319.789062 103.972656 320.910156 105.191406 321.949219 C 108.324219 324.617188 111.851562 329.066406 116.355469 329.078125 C 119.707031 329.085938 120.96875 326.066406 122.953125 323.964844 C 125.488281 321.273438 128.699219 319.382812 131.699219 317.269531 C 135.054688 314.90625 138.261719 312.335938 141.539062 309.863281 C 143.800781 308.152344 145.933594 306.203125 148.507812 304.949219 C 149.546875 304.445312 150.796875 303.882812 151.984375 304.039062 C 153.390625 304.226562 154.523438 305.253906 155.578125 306.117188 C 164.433594 313.347656 173.550781 319.953125 182.9375 326.460938 C 194.003906 334.132812 205.429688 341.449219 218.148438 346.058594 Z M 218.152344 346.0625 " fill-opacity="1" fill-rule="evenodd"/><path fill="#ffd0bc" d="M 231.699219 174.800781 C 233.515625 170.066406 234.882812 165.332031 235.878906 160.507812 C 233.058594 158.421875 230.625 155.84375 227.871094 153.660156 C 224.683594 151.121094 220.753906 148.652344 218.675781 145.046875 C 217.554688 143.085938 217.144531 140.855469 216.574219 138.695312 C 215.761719 135.625 214.875 132.570312 214.011719 129.511719 C 210.878906 118.386719 207.523438 107.234375 205.09375 95.925781 C 204.375 92.585938 203.835938 89.265625 205.488281 86.09375 C 206.792969 83.585938 208.539062 81.46875 210.300781 79.277344 C 210.933594 78.492188 211.742188 77.59375 212.003906 76.59375 C 212.222656 75.765625 212.09375 74.859375 212.019531 74.019531 C 211.921875 72.90625 211.839844 71.753906 211.828125 70.636719 C 211.816406 69.820312 211.859375 68.988281 211.96875 68.179688 C 212.039062 67.675781 212.234375 67.097656 212.136719 66.589844 C 211.953125 65.65625 210.726562 65.511719 210.003906 65.828125 C 209.632812 65.988281 209.421875 66.460938 209.246094 66.796875 C 208.75 67.75 208.398438 68.8125 208.121094 69.847656 C 207.691406 71.421875 207.953125 73.144531 207.480469 74.683594 C 207.046875 76.085938 205.199219 77.183594 203.917969 77.726562 C 203.769531 76.320312 203.582031 74.917969 203.390625 73.511719 C 203.191406 72.054688 203.011719 70.582031 202.46875 69.203125 C 201.101562 65.746094 198.464844 62.941406 196.429688 59.875 C 195.722656 58.808594 195.0625 57.707031 194.546875 56.535156 C 194.238281 55.820312 194.003906 54.824219 193.308594 54.371094 C 191.945312 53.484375 191.042969 55.558594 191.203125 56.613281 C 191.4375 58.179688 192.269531 59.78125 193.03125 61.144531 C 193.585938 62.140625 194.230469 63.105469 194.429688 64.242188 C 194.574219 65.058594 194.265625 65.902344 194.113281 66.691406 C 191.5625 63.785156 188.550781 61.265625 186.351562 58.066406 C 186.050781 57.632812 185.835938 57.066406 185.371094 56.769531 C 184.519531 56.226562 183.386719 56.976562 183.238281 57.867188 C 183.128906 58.515625 183.484375 59.097656 183.699219 59.679688 C 184.433594 61.660156 185.785156 63.496094 187.042969 65.171875 C 187.558594 65.855469 189.101562 67.316406 188.234375 68.1875 C 187.761719 67.996094 187.269531 67.898438 186.828125 67.640625 C 184.855469 66.503906 183.113281 64.605469 181.503906 63.015625 C 181.003906 62.519531 180.535156 61.964844 180.117188 61.398438 C 179.78125 60.949219 179.527344 60.484375 178.9375 60.359375 C 177.277344 60.011719 176.570312 61.859375 177.289062 63.105469 C 178.347656 64.933594 179.671875 66.5 181.09375 68.054688 C 181.9375 68.972656 182.722656 69.910156 183.707031 70.6875 C 181.882812 69.882812 180.027344 68.871094 178.429688 67.675781 C 177.769531 67.179688 176.972656 66.105469 176.0625 66.199219 C 174.019531 66.410156 174.738281 69.050781 175.53125 70.0625 C 177.386719 72.429688 180.363281 73.480469 182.277344 75.757812 C 183.734375 77.492188 184.117188 79.789062 184.621094 81.929688 C 185.382812 85.175781 186.1875 88.871094 187.742188 91.84375 C 188.253906 92.820312 188.976562 93.675781 189.421875 94.691406 C 189.949219 95.886719 190.199219 97.25 190.390625 98.535156 C 190.710938 100.707031 190.488281 102.914062 190.429688 105.09375 C 190.359375 107.78125 190.402344 110.480469 190.492188 113.167969 C 190.863281 124.746094 191.464844 136.492188 193.25 147.945312 C 193.703125 150.863281 193.972656 153.871094 195.132812 156.621094 C 196.789062 160.542969 200.28125 162.929688 202.921875 166.101562 C 204.394531 167.871094 206.066406 170.164062 208.421875 170.761719 C 211.578125 171.5625 214.695312 169.664062 217.886719 169.914062 C 219.472656 170.039062 221.085938 170.6875 222.582031 171.214844 C 225.664062 172.300781 228.648438 173.640625 231.695312 174.8125 C 231.695312 174.8125 231.695312 174.800781 231.695312 174.800781 Z M 231.699219 174.800781 " fill-opacity="1" fill-rule="evenodd"/><path fill="#c791d3" d="M 250.660156 184.328125 C 253.207031 184.527344 255.570312 185.074219 258.015625 185.761719 C 259.945312 182.285156 261.113281 176.59375 258.519531 173.34375 C 257.457031 172.007812 255.59375 171.613281 254.222656 170.683594 C 250.957031 168.476562 247.839844 166.0625 244.628906 163.785156 C 241.339844 161.453125 237.832031 159.394531 234.875 156.632812 C 232.210938 154.160156 230.214844 148.78125 226.089844 148.375 C 223.828125 148.152344 223.039062 149.875 221.828125 151.3125 C 219.910156 153.601562 217.773438 155.84375 215.671875 157.96875 C 212.679688 161 209.121094 163.527344 206.054688 166.511719 C 205.398438 167.152344 203.078125 168.496094 203.0625 169.527344 C 203.046875 170.480469 204.238281 171.5625 204.769531 172.230469 C 205.410156 173.042969 205.570312 174.109375 206.21875 174.917969 C 209.207031 178.625 214.230469 179.546875 218.539062 180.78125 C 226.796875 183.148438 235.125 184.90625 243.761719 184.894531 C 246.078125 184.890625 248.421875 184.785156 250.660156 184.328125 Z M 250.660156 184.328125 " fill-opacity="1" fill-rule="evenodd"/><path fill="#ffd0bc" d="M 269.941406 182.632812 C 272.476562 183.253906 275.105469 183.894531 277.414062 184.976562 C 277.6875 180.660156 279.101562 176.40625 280.574219 172.382812 C 281.46875 169.964844 282.390625 167.441406 283.671875 165.195312 C 284.550781 163.648438 285.625 162.144531 286.34375 160.515625 C 286.617188 159.902344 286.996094 159.050781 286.332031 158.546875 C 285.578125 157.964844 284.675781 158.363281 283.921875 158.726562 C 282.1875 159.554688 280.507812 160.480469 278.75 161.285156 C 274.488281 163.238281 269.964844 164.085938 265.304688 164.378906 C 263.40625 164.496094 261.386719 164.710938 259.511719 164.285156 C 257.777344 163.894531 256.28125 163.042969 254.964844 161.84375 C 254.898438 161.785156 254.828125 161.722656 254.75 161.652344 C 254.601562 164.980469 253.972656 168.261719 253.113281 171.472656 C 252.863281 172.449219 252.542969 173.414062 252.269531 174.386719 C 252.121094 174.933594 251.882812 175.554688 252.0625 176.125 C 252.210938 176.601562 252.703125 176.867188 253.113281 177.101562 C 254.152344 177.703125 255.285156 178.128906 256.425781 178.480469 C 258.402344 179.089844 260.4375 179.480469 262.402344 180.085938 C 264.296875 180.671875 266.148438 181.382812 267.976562 182.136719 C 268.617188 182.304688 269.277344 182.46875 269.941406 182.632812 Z M 269.941406 182.632812 " fill-opacity="1" fill-rule="evenodd"/><path fill="#000000" d="M 285.714844 161.773438 C 283.820312 163.378906 281.796875 164.71875 279.660156 166.0625 C 273.835938 169.738281 267.003906 171.449219 260.175781 171.277344 C 257.957031 171.21875 255.546875 170.984375 253.480469 170.035156 C 254.15625 167.285156 254.625 164.484375 254.75 161.652344 C 254.828125 161.722656 254.898438 161.785156 254.964844 161.84375 C 256.28125 163.042969 257.777344 163.894531 259.511719 164.285156 C 261.386719 164.710938 263.40625 164.496094 265.304688 164.378906 C 269.964844 164.085938 274.488281 163.238281 278.75 161.285156 C 280.507812 160.480469 282.1875 159.554688 283.921875 158.726562 C 284.675781 158.363281 285.582031 157.964844 286.332031 158.546875 C 286.996094 159.050781 286.621094 159.902344 286.34375 160.515625 C 286.164062 160.941406 285.945312 161.359375 285.71875 161.773438 Z M 285.714844 161.773438 " fill-opacity="1" fill-rule="evenodd"/><g clip-path="url(#a40de91e9c)"><path fill="#4c4f60" d="M 231.035156 31.09375 C 229.367188 29.652344 228.121094 27.933594 226.773438 26.207031 C 225.757812 24.910156 224.695312 23.65625 223.679688 22.359375 C 222.765625 21.179688 222.035156 19.304688 220.5625 18.695312 C 218.894531 18.007812 217.453125 19.46875 216.355469 20.515625 C 215.933594 20.917969 215.523438 21.277344 215.289062 21.832031 C 215.082031 22.324219 215.082031 22.894531 215.171875 23.414062 C 215.546875 25.578125 217.238281 26.871094 218.757812 28.25 C 219.566406 28.984375 220.332031 29.777344 221.199219 30.457031 C 222 31.089844 222.925781 31.9375 223.988281 32.070312 C 225.199219 32.222656 229.894531 31.308594 231.035156 31.09375 Z M 231.035156 31.09375 " fill-opacity="1" fill-rule="evenodd"/></g><path fill="#ffd0bc" d="M 218.160156 29.035156 C 217.886719 28.140625 217.980469 27.191406 218.117188 26.15625 C 218.128906 25.894531 218.160156 25.636719 218.21875 25.382812 C 218.515625 23.964844 219.808594 23 221.15625 23.960938 C 222.34375 24.800781 223.152344 26.160156 224.035156 27.289062 C 224.582031 27.992188 225.152344 28.675781 225.210938 29.613281 C 225.277344 30.996094 223.863281 31.269531 222.777344 31.449219 C 220.871094 31.761719 218.78125 31.027344 218.164062 29.035156 Z M 218.160156 29.035156 " fill-opacity="1" fill-rule="evenodd"/><g clip-path="url(#b440f2034d)"><path fill="#4c4f60" d="M 225.792969 30.601562 C 221.667969 29.703125 218.46875 27.042969 215.742188 23.949219 C 214.277344 22.285156 213.097656 20.039062 211.015625 19.046875 C 209.285156 18.222656 207.371094 19.109375 205.914062 20.101562 C 203.914062 21.464844 203.636719 23.246094 203.132812 25.480469 C 201.449219 32.96875 202.296875 40.867188 202.503906 48.464844 C 205.804688 41.429688 215.425781 30.90625 225.792969 30.601562 Z M 225.792969 30.601562 " fill-opacity="1" fill-rule="evenodd"/></g><path fill="#4c4f60" d="M 152.105469 140.363281 C 153.109375 143.667969 154.65625 146.8125 155.867188 150.042969 C 157.9375 155.566406 159.828125 161.171875 162.492188 166.445312 C 163.695312 168.820312 165.632812 172.589844 168.78125 172.675781 C 170.84375 172.734375 170.800781 169.632812 170.683594 168.347656 C 170.304688 164.101562 168.28125 160.210938 167.695312 155.976562 C 166.867188 150.011719 166.679688 143.898438 166.351562 137.878906 C 166.203125 135.15625 166.730469 131.515625 165.375 128.953125 C 163.617188 125.625 160.324219 127.398438 158.140625 129.289062 C 154.9375 132.0625 151.683594 134.582031 151.648438 138.609375 C 151.777344 139.207031 151.933594 139.789062 152.105469 140.363281 Z M 152.105469 140.363281 " fill-opacity="1" fill-rule="evenodd"/><path fill="#000000" d="M 166.523438 141.242188 C 165.769531 141.992188 165.015625 142.746094 164.28125 143.515625 C 161.601562 146.335938 159.007812 149.21875 156.726562 152.359375 C 156.441406 151.585938 156.15625 150.816406 155.867188 150.042969 C 154.65625 146.8125 153.109375 143.667969 152.101562 140.363281 C 151.929688 139.789062 151.773438 139.207031 151.644531 138.613281 C 151.679688 134.582031 154.933594 132.0625 158.136719 129.289062 C 160.320312 127.398438 163.617188 125.625 165.375 128.953125 C 166.726562 131.515625 166.203125 135.15625 166.347656 137.878906 C 166.410156 138.996094 166.46875 140.117188 166.523438 141.242188 Z M 166.523438 141.242188 " fill-opacity="1" fill-rule="evenodd"/><path fill="#4c4f60" d="M 202.046875 109.996094 C 203.605469 111.847656 204.414062 114.011719 205.3125 116.234375 C 207.585938 121.855469 209.78125 127.375 211.691406 133.140625 C 212.691406 136.167969 213.5 139.011719 215.980469 141.210938 C 217.066406 142.179688 218.414062 143.082031 219.875 143.3125 C 222.375 143.699219 225.65625 142.152344 225.859375 139.367188 C 226.089844 136.292969 223.429688 134.210938 221.644531 132.132812 C 220.628906 130.953125 219.957031 129.503906 219.417969 128.058594 C 218.46875 125.503906 218.09375 122.8125 217.523438 120.164062 C 216.289062 114.394531 215.472656 108.558594 214.351562 102.761719 C 213.582031 98.78125 213.460938 94.738281 213.613281 90.695312 C 213.679688 88.953125 214.5 86.339844 213.597656 84.730469 C 213.058594 83.773438 211.964844 84.050781 211.265625 84.671875 C 209.71875 86.054688 208.945312 88.3125 207.996094 90.109375 C 206.722656 92.519531 205.496094 94.949219 204.230469 97.363281 C 203.125 99.464844 202.015625 101.589844 201.632812 103.960938 C 201.339844 105.78125 201.625 108.167969 202.035156 109.984375 C 202.039062 109.988281 202.042969 109.992188 202.046875 109.996094 Z M 202.046875 109.996094 " fill-opacity="1" fill-rule="evenodd"/><path fill="#000000" d="M 213.675781 97.390625 C 213.660156 97.417969 213.644531 97.445312 213.632812 97.472656 C 210.398438 103.402344 207.53125 109.445312 205.097656 115.699219 C 204.28125 113.664062 203.480469 111.699219 202.042969 109.996094 C 202.042969 109.992188 202.039062 109.988281 202.035156 109.984375 C 201.625 108.171875 201.339844 105.78125 201.632812 103.960938 C 202.011719 101.59375 203.125 99.464844 204.230469 97.363281 C 205.496094 94.953125 206.722656 92.519531 207.996094 90.109375 C 208.945312 88.3125 209.71875 86.058594 211.265625 84.671875 C 211.960938 84.050781 213.058594 83.773438 213.597656 84.730469 C 214.5 86.339844 213.675781 88.957031 213.613281 90.695312 C 213.53125 92.929688 213.53125 95.164062 213.675781 97.390625 Z M 213.675781 97.390625 " fill-opacity="1" fill-rule="evenodd"/><path fill="#ffd0bc" d="M 285.109375 159.804688 C 287.738281 158.191406 290 156.097656 292.136719 153.894531 C 295.027344 150.90625 297.617188 147.695312 299.492188 143.964844 C 301.058594 140.835938 302.085938 137.347656 301.671875 133.820312 C 301.375 131.367188 300.441406 129.023438 299.390625 126.808594 C 296.601562 120.984375 292.25 115.996094 287.007812 112.257812 C 285.167969 110.945312 283.316406 109.535156 281.203125 108.691406 C 277.996094 107.414062 274.453125 107.550781 271.082031 108.007812 C 267.769531 108.453125 264.183594 109.210938 261.15625 110.710938 C 257.628906 112.46875 254.476562 115.296875 252.179688 118.492188 C 249.425781 122.335938 248.148438 127.003906 246.089844 131.222656 C 242.585938 138.429688 237.933594 146.574219 241.03125 154.761719 C 241.476562 155.960938 242.070312 157.101562 242.800781 158.152344 C 243.691406 159.4375 244.789062 160.578125 246.035156 161.511719 C 249.335938 163.964844 253.390625 164.96875 257.398438 165.519531 C 263.648438 166.375 270.101562 166.011719 276.097656 164 C 279.226562 162.949219 282.289062 161.527344 285.113281 159.804688 Z M 285.109375 159.804688 " fill-opacity="1" fill-rule="evenodd"/><path fill="#fda769" d="M 305.132812 149.628906 C 306.800781 146.585938 307.921875 143.144531 308.117188 139.667969 C 308.300781 136.347656 307.738281 133.003906 307.339844 129.71875 C 306.871094 125.882812 306.621094 122.046875 305.808594 118.257812 C 305.113281 115.039062 303.957031 111.71875 301.433594 109.464844 C 296.691406 105.238281 289.175781 103.894531 283.019531 104.527344 C 280.679688 101.78125 278.109375 99.265625 275.070312 97.277344 C 272.316406 95.480469 269.359375 94.378906 266.082031 95.273438 C 264.996094 95.570312 263.96875 96.039062 263.007812 96.617188 C 261.148438 97.742188 259.546875 99.261719 258.085938 100.867188 C 253.195312 106.25 248.648438 111.996094 244.273438 117.808594 C 242.058594 120.765625 239.042969 124.140625 239.25 128.097656 C 239.363281 130.515625 242.152344 133.074219 244.582031 131.800781 C 245.875 131.132812 246.503906 129.578125 247.128906 128.359375 C 248.320312 126.042969 249.265625 123.757812 250.886719 121.679688 C 252.832031 119.1875 255.605469 117.273438 258.3125 115.726562 C 262.574219 113.296875 267.269531 111.308594 272.238281 111.328125 C 270.945312 120.398438 270.933594 129.726562 272.15625 138.8125 C 272.535156 141.667969 272.84375 146.03125 275.882812 147.414062 C 277.640625 148.21875 279.664062 147.988281 281.480469 148.613281 C 283.101562 149.167969 285.453125 149.820312 286.21875 151.5625 C 286.609375 152.449219 286.402344 153.582031 286.277344 154.503906 C 286.058594 156.066406 285.878906 157.605469 285.773438 159.179688 C 285.730469 159.808594 285.398438 161.417969 285.832031 161.949219 C 286.175781 162.363281 286.949219 162.191406 287.386719 162.085938 C 294.421875 160.433594 301.5625 156.070312 305.136719 149.628906 Z M 305.132812 149.628906 " fill-opacity="1" fill-rule="evenodd"/><g mask="url(#129bffe082)"><g transform="matrix(1, 0, 0, 1, 284, 107)"><g clip-path="url(#6f77ca773d)"><g clip-path="url(#03780c27c8)"><path fill="#ffd0bc" d="M 5.472656 45 C 5.390625 45 5.304688 44.984375 5.226562 44.945312 C 4.933594 44.808594 4.8125 44.460938 4.949219 44.167969 C 6.5625 40.742188 5.082031 37.132812 3.648438 33.640625 C 2.800781 31.578125 1.921875 29.441406 1.71875 27.386719 C 1.484375 25.070312 2.4375 21.925781 3.449219 18.59375 C 5.59375 11.527344 7.808594 4.21875 0.648438 1.753906 C 0.34375 1.648438 0.179688 1.320312 0.285156 1.015625 C 0.390625 0.710938 0.722656 0.546875 1.027344 0.652344 C 9.25 3.480469 6.648438 12.046875 4.5625 18.929688 C 3.585938 22.148438 2.667969 25.183594 2.878906 27.269531 C 3.066406 29.15625 3.871094 31.121094 4.726562 33.199219 C 6.253906 36.925781 7.835938 40.777344 6 44.667969 C 5.902344 44.878906 5.691406 45 5.476562 45 Z M 5.472656 45 " fill-opacity="1" fill-rule="nonzero"/></g></g></g></g><g mask="url(#b03761f2f5)"><g transform="matrix(1, 0, 0, 1, 272, 104)"><g clip-path="url(#0fd2d757b7)"><g clip-path="url(#1a0355766d)"><path fill="#ffd0bc" d="M 1.355469 21.898438 C 1.074219 21.898438 0.828125 21.695312 0.78125 21.410156 C 0.585938 20.222656 0.628906 18.972656 0.671875 17.761719 L 0.695312 16.992188 C 0.855469 8.46875 3.019531 3.183594 7.300781 0.847656 C 7.582031 0.691406 7.9375 0.796875 8.09375 1.078125 C 8.246094 1.359375 8.140625 1.714844 7.859375 1.867188 C 4.03125 3.957031 2.011719 9.054688 1.859375 17.019531 L 1.835938 17.800781 C 1.792969 18.953125 1.753906 20.148438 1.929688 21.21875 C 1.980469 21.535156 1.769531 21.835938 1.449219 21.890625 C 1.417969 21.894531 1.386719 21.898438 1.355469 21.898438 Z M 1.355469 21.898438 " fill-opacity="1" fill-rule="nonzero"/></g></g></g></g><g mask="url(#667d167234)"><g transform="matrix(1, 0, 0, 1, 245, 103)"><g clip-path="url(#08d5cbdf3a)"><g clip-path="url(#7f8cc97297)"><path fill="#ffd0bc" d="M 1.207031 20.371094 C 1.09375 20.371094 0.980469 20.339844 0.878906 20.269531 C 0.613281 20.089844 0.542969 19.726562 0.722656 19.464844 C 6.933594 10.308594 13.5 4.46875 20.800781 1.601562 C 22.71875 0.851562 29.21875 -1.238281 32.386719 3.542969 C 32.5625 3.8125 32.488281 4.175781 32.21875 4.351562 C 31.957031 4.53125 31.589844 4.457031 31.414062 4.1875 C 28.730469 0.132812 22.9375 2.015625 21.226562 2.6875 C 14.152344 5.464844 7.761719 11.164062 1.6875 20.117188 C 1.574219 20.28125 1.390625 20.371094 1.207031 20.371094 Z M 1.207031 20.371094 " fill-opacity="1" fill-rule="nonzero"/></g></g></g></g><g mask="url(#1963d147e2)"><g transform="matrix(1, 0, 0, 1, 260, 107)"><g clip-path="url(#686228d508)"><g clip-path="url(#7b8452d274)"><path fill="#ffd0bc" d="M 1.589844 4.847656 C 1.410156 4.847656 1.230469 4.761719 1.117188 4.601562 C 0.929688 4.339844 0.992188 3.976562 1.253906 3.789062 C 4.804688 1.273438 11.449219 -1.152344 15.203125 2.476562 C 15.433594 2.699219 15.441406 3.070312 15.214844 3.300781 C 14.992188 3.53125 14.621094 3.535156 14.394531 3.3125 C 11.175781 0.203125 5.042969 2.535156 1.929688 4.742188 C 1.828125 4.8125 1.710938 4.847656 1.59375 4.847656 Z M 1.589844 4.847656 " fill-opacity="1" fill-rule="nonzero"/></g></g></g></g><g mask="url(#35ade5450e)"><g transform="matrix(1, 0, 0, 1, 299, 118)"><g clip-path="url(#69a6ee1c23)"><g clip-path="url(#fe8b4cd356)"><path fill="#ffd0bc" d="M 6.351562 81.792969 C 3.75 81.792969 1.953125 81.042969 1 79.554688 C -1.507812 75.648438 2.644531 67.6875 5.394531 62.421875 C 6.230469 60.820312 6.953125 59.4375 7.242188 58.621094 L 7.335938 58.355469 C 8.21875 55.890625 9.125 53.34375 7.972656 50.960938 C 7.546875 50.074219 6.777344 49.308594 5.964844 48.496094 C 4.613281 47.144531 3.082031 45.613281 3.257812 43.332031 C 3.378906 41.773438 4.832031 39.734375 6.519531 37.375 C 8.234375 34.96875 10.175781 32.246094 10.765625 29.839844 C 11.300781 27.652344 11.496094 25.355469 11.683594 23.132812 C 11.894531 20.664062 12.109375 18.109375 12.792969 15.648438 C 13.703125 12.25 14.773438 10.683594 15.988281 10.816406 C 16.324219 10.851562 16.613281 11.023438 16.828125 11.308594 C 17.554688 12.285156 17.246094 14.628906 16.894531 16.566406 L 16.863281 16.738281 C 16.140625 20.609375 15.269531 24.496094 14.425781 28.25 C 14.019531 30.070312 13.609375 31.886719 13.214844 33.714844 C 12.492188 37.082031 12.113281 39.824219 14.324219 41.921875 C 14.984375 42.542969 15.964844 43.082031 17 43.648438 C 19.367188 44.945312 22.316406 46.558594 21.515625 49.972656 C 20.929688 52.449219 19.214844 53.867188 17.554688 55.234375 C 16.347656 56.234375 15.203125 57.179688 14.484375 58.503906 C 13.070312 61.105469 12.683594 64.210938 12.304688 67.214844 C 11.921875 70.28125 11.523438 73.453125 10.050781 76.199219 C 9.074219 78.019531 7.980469 78.066406 7.425781 77.925781 C 6.300781 77.652344 5.492188 76.207031 5.460938 74.410156 C 5.425781 71.789062 6.539062 69.179688 7.617188 66.652344 C 7.957031 65.855469 8.289062 65.074219 8.570312 64.316406 C 9.65625 61.386719 10.617188 58.527344 11.425781 55.816406 C 11.523438 55.484375 11.648438 55.117188 11.78125 54.734375 C 12.25 53.359375 12.832031 51.648438 12.417969 50.46875 C 12.03125 49.371094 11.398438 48.582031 10.785156 47.816406 C 9.710938 46.484375 8.605469 45.101562 8.890625 42.308594 C 8.925781 41.988281 9.210938 41.769531 9.53125 41.789062 C 9.851562 41.820312 10.082031 42.105469 10.050781 42.425781 C 9.8125 44.746094 10.683594 45.832031 11.691406 47.085938 C 12.335938 47.886719 13.066406 48.796875 13.515625 50.082031 C 14.066406 51.640625 13.410156 53.566406 12.882812 55.113281 C 12.757812 55.476562 12.636719 55.828125 12.542969 56.144531 C 11.726562 58.882812 10.757812 61.765625 9.664062 64.722656 C 9.375 65.496094 9.035156 66.292969 8.6875 67.109375 C 7.660156 69.519531 6.59375 72.015625 6.628906 74.390625 C 6.652344 75.734375 7.191406 76.667969 7.699219 76.792969 C 8.101562 76.886719 8.589844 76.457031 9.027344 75.644531 C 10.394531 73.089844 10.761719 70.164062 11.148438 67.066406 C 11.539062 63.957031 11.941406 60.738281 13.460938 57.945312 C 14.289062 56.421875 15.574219 55.363281 16.816406 54.335938 C 18.394531 53.03125 19.890625 51.796875 20.386719 49.703125 C 20.941406 47.332031 19.183594 46.167969 16.441406 44.667969 C 15.339844 44.0625 14.296875 43.492188 13.527344 42.765625 C 10.660156 40.050781 11.445312 36.398438 12.078125 33.46875 C 12.472656 31.636719 12.882812 29.816406 13.289062 27.992188 C 14.132812 24.246094 15 20.375 15.71875 16.53125 L 15.75 16.355469 C 16.472656 12.371094 15.890625 11.988281 15.867188 11.976562 C 15.824219 11.976562 14.964844 12.050781 13.925781 15.921875 C 13.265625 18.316406 13.050781 20.8125 12.847656 23.230469 C 12.65625 25.496094 12.457031 27.84375 11.898438 30.117188 C 11.257812 32.738281 9.242188 35.5625 7.464844 38.050781 C 5.949219 40.175781 4.515625 42.183594 4.421875 43.421875 C 4.285156 45.167969 5.503906 46.382812 6.789062 47.671875 C 7.636719 48.515625 8.511719 49.390625 9.023438 50.457031 C 10.390625 53.277344 9.351562 56.183594 8.4375 58.746094 L 8.339844 59.011719 C 8.023438 59.90625 7.320312 61.253906 6.429688 62.960938 C 3.964844 67.683594 -0.160156 75.589844 1.980469 78.929688 C 2.78125 80.175781 4.488281 80.738281 7.042969 80.609375 C 15.167969 80.195312 15.097656 75.074219 15.019531 69.652344 C 14.976562 66.800781 14.9375 64.105469 16.105469 62.085938 C 17.613281 59.484375 19.886719 58.34375 22.078125 57.242188 C 23.539062 56.511719 25.046875 55.753906 26.308594 54.5625 C 28.316406 52.667969 29.109375 49.402344 28.230469 46.613281 C 27.511719 44.28125 25.097656 43.46875 22.757812 42.683594 C 21.957031 42.414062 21.125 42.136719 20.390625 41.800781 C 16.890625 40.207031 14.878906 37.316406 14.410156 33.214844 C 13.601562 25.914062 16.890625 21.523438 20.070312 17.28125 C 22 14.703125 23.824219 12.269531 24.816406 9.203125 C 25.574219 6.871094 25.300781 5.015625 24.003906 3.699219 C 21.863281 1.527344 17.613281 1.359375 14.523438 2.316406 C 14.21875 2.414062 13.886719 2.242188 13.792969 1.933594 C 13.699219 1.625 13.871094 1.296875 14.179688 1.203125 C 17.605469 0.144531 22.363281 0.378906 24.832031 2.882812 C 25.953125 4.015625 27.050781 6.097656 25.925781 9.5625 C 24.871094 12.8125 22.90625 15.441406 21 17.980469 C 17.816406 22.226562 14.808594 26.242188 15.566406 33.082031 C 15.988281 36.75 17.769531 39.328125 20.871094 40.742188 C 21.554688 41.050781 22.320312 41.308594 23.128906 41.578125 C 25.625 42.417969 28.449219 43.367188 29.34375 46.265625 C 30.347656 49.460938 29.429688 53.222656 27.105469 55.410156 C 25.722656 56.71875 24.136719 57.515625 22.601562 58.285156 C 20.464844 59.355469 18.449219 60.367188 17.113281 62.671875 C 16.109375 64.410156 16.144531 66.949219 16.183594 69.636719 C 16.261719 75.105469 16.351562 81.304688 7.101562 81.777344 C 6.84375 81.789062 6.59375 81.792969 6.355469 81.792969 Z M 6.351562 81.792969 " fill-opacity="1" fill-rule="nonzero"/></g></g></g></g><path fill="#c791d3" d="M 245.929688 184.816406 C 242.664062 190.800781 237.582031 193.832031 231.925781 197.246094 C 224.992188 201.4375 217.464844 206.828125 215.285156 215.0625 C 212.199219 226.761719 219.945312 235.609375 222.023438 246.539062 C 223.484375 254.238281 220.445312 262.078125 217.714844 269.144531 C 216.503906 272.289062 215.429688 275.578125 213.582031 278.417969 C 212.675781 279.8125 210.90625 281.011719 210.503906 282.671875 C 210.230469 283.800781 211.054688 284.617188 211.757812 285.375 C 214.753906 288.601562 218.503906 291.054688 221.65625 294.117188 C 235.71875 307.761719 247.769531 320.839844 268.789062 322.027344 C 271.972656 322.207031 276.488281 322.847656 278.769531 320.003906 C 280.050781 318.40625 280.472656 316.078125 280.757812 314.105469 C 281.398438 309.660156 281.011719 305.179688 281.15625 300.710938 C 281.753906 282.574219 280.839844 264.289062 282.402344 246.203125 C 283.523438 233.253906 285.839844 220.328125 284.265625 207.308594 C 283.808594 203.542969 282.984375 199.824219 282.574219 196.054688 C 282.335938 193.886719 282.335938 191.722656 280.792969 190.0625 C 281.660156 188.324219 282.199219 186.457031 282.230469 184.308594 C 282.242188 183.695312 282.34375 182.953125 281.910156 182.453125 C 281.179688 181.628906 279.925781 181.410156 278.894531 181.25 C 276.761719 180.917969 274.613281 180.765625 272.476562 180.390625 C 267.027344 179.433594 261.683594 177.8125 256.394531 176.210938 C 254.976562 175.78125 253.5625 175.390625 252.074219 175.289062 C 251.539062 175.25 250.875 175.152344 250.394531 175.453125 C 249.539062 175.984375 249.34375 177.734375 249.015625 178.644531 C 248.238281 180.773438 247.003906 182.824219 245.929688 184.816406 Z M 245.929688 184.816406 " fill-opacity="1" fill-rule="evenodd"/><path fill="#4c4f60" d="M 149.1875 141.636719 C 155.230469 141.085938 161.105469 138.738281 166.414062 135.886719 C 174.804688 131.382812 181.335938 123.609375 186.132812 115.507812 C 187.394531 113.382812 188.617188 111.15625 189.183594 108.730469 C 190.300781 118.109375 190.46875 127.597656 191.59375 136.984375 C 191.984375 140.226562 192.089844 143.546875 193.105469 146.675781 C 194.390625 150.628906 197.4375 153.929688 201.015625 155.96875 C 202.074219 156.570312 203.332031 157.320312 204.601562 157.113281 C 207 156.722656 208.8125 153.976562 209.789062 151.984375 C 210.347656 150.847656 210.855469 149.601562 210.535156 148.324219 C 209.800781 145.378906 207.292969 143.351562 205.703125 140.886719 C 204.503906 139.03125 204.183594 136.777344 203.988281 134.621094 C 203.628906 130.609375 203.449219 126.585938 203.464844 122.5625 C 203.5 110.5625 203.980469 96.289062 213.261719 87.417969 C 215.671875 85.117188 218.503906 83.324219 221.484375 81.878906 C 224.214844 80.550781 227.082031 79.246094 230.042969 78.507812 C 232.703125 77.84375 235.445312 77.601562 238.0625 76.746094 C 244.296875 74.699219 249.5625 70.40625 251.6875 64.070312 C 252.339844 62.105469 252.671875 60.023438 252.417969 57.953125 C 252.191406 55.984375 251.46875 53.878906 249.824219 52.652344 C 248.019531 51.300781 245.898438 50.949219 244.59375 48.929688 C 242.355469 45.429688 243.007812 40.867188 240.925781 37.289062 C 237.214844 30.894531 229.710938 28.941406 222.765625 29.171875 C 220.058594 29.261719 217.375 29.585938 214.867188 30.664062 C 212.246094 31.789062 209.910156 33.539062 207.980469 35.628906 C 206.308594 37.4375 204.910156 39.535156 203.894531 41.777344 C 203.335938 43.007812 203.148438 44.535156 202.335938 45.625 C 200.855469 47.613281 198.132812 47.457031 195.925781 47.5625 C 194.273438 47.640625 192.636719 47.925781 191.019531 48.28125 C 181.046875 50.472656 170.660156 53.613281 161.667969 58.53125 C 141.121094 69.777344 123.5 90.761719 121.898438 114.855469 C 120.738281 132.285156 125.699219 149.875 123.480469 167.28125 C 122.648438 173.796875 120.429688 181.273438 115.234375 185.679688 C 113.875 186.835938 112.3125 187.652344 110.523438 187.871094 C 109.347656 188.015625 108.046875 187.664062 106.941406 188.195312 C 105.15625 189.050781 104.429688 191.375 105.488281 193.054688 C 106.949219 195.363281 110.433594 195.0625 112.6875 194.402344 C 118.503906 192.707031 122.527344 187.214844 124.929688 181.945312 C 130.425781 169.902344 130.03125 156.070312 129.65625 143.136719 C 129.554688 139.757812 129.582031 136.371094 129.535156 132.988281 C 133.636719 138.625 140.375 141.289062 147.15625 141.769531 C 147.835938 141.816406 148.515625 141.703125 149.191406 141.644531 Z M 149.1875 141.636719 " fill-opacity="1" fill-rule="evenodd"/><path fill="#fda769" d="M 201.277344 46.597656 C 201.433594 47.480469 201.589844 48.363281 201.742188 49.242188 C 203.0625 56.914062 200.851562 72.058594 191.484375 73.832031 C 184.117188 75.226562 177.808594 62.707031 177.785156 56.820312 C 177.777344 55.207031 177.578125 53.546875 177.441406 51.894531 C 181.941406 50.445312 186.523438 49.265625 191.019531 48.277344 C 192.636719 47.921875 194.273438 47.636719 195.925781 47.558594 C 197.679688 47.476562 199.757812 47.554688 201.277344 46.597656 Z M 201.277344 46.597656 " fill-opacity="1" fill-rule="evenodd"/><path fill="#000000" d="M 142.214844 73.140625 C 148.015625 67.316406 154.671875 62.359375 161.667969 58.527344 C 163.878906 57.320312 166.171875 56.21875 168.523438 55.210938 C 169.203125 60.339844 169.058594 65.546875 167.695312 70.511719 C 165.691406 77.789062 157.414062 82.613281 150.125 79.523438 C 146.78125 78.105469 144.59375 75.578125 142.214844 73.140625 Z M 142.214844 73.140625 " fill-opacity="1" fill-rule="evenodd"/><path fill="#ffd0bc" d="M 124.839844 100.335938 C 127.371094 92.90625 131.351562 85.96875 136.308594 79.753906 C 136.988281 80.882812 137.636719 82.03125 138.242188 83.210938 C 141.292969 89.132812 142.539062 103.015625 132.34375 102.914062 C 129.824219 102.886719 126.9375 101.71875 124.839844 100.335938 Z M 124.839844 100.335938 " fill-opacity="1" fill-rule="evenodd"/><path fill="#ffd0bc" d="M 249.484375 68.519531 C 247.230469 70.289062 244.503906 71.414062 241.667969 71.054688 C 241.144531 70.988281 240.664062 70.722656 240.164062 70.574219 C 239.25 70.296875 238.472656 69.75 237.796875 69.066406 C 234.65625 65.867188 235.570312 60.257812 238.539062 57.277344 C 240.925781 54.878906 244.457031 53.679688 247.804688 53.691406 C 248.96875 53.699219 250.054688 53.757812 251.105469 54.019531 C 251.871094 55.175781 252.257812 56.59375 252.417969 57.949219 C 252.671875 60.019531 252.339844 62.101562 251.6875 64.066406 C 251.152344 65.683594 250.398438 67.167969 249.484375 68.519531 Z M 249.484375 68.519531 " fill-opacity="1" fill-rule="evenodd"/><path fill="#4c4f60" d="M 161.296875 114.988281 C 160.863281 111.195312 161.160156 107.375 160.128906 103.65625 C 159.644531 103.121094 159.097656 102.648438 158.460938 102.261719 C 152.945312 98.9375 146.011719 101.230469 140.929688 104.253906 C 138.765625 105.542969 136.664062 107.136719 135.335938 109.320312 C 133.871094 111.734375 133.988281 114.277344 134.164062 116.992188 C 134.339844 119.734375 134.574219 122.476562 134.980469 125.195312 C 135.886719 131.207031 137.183594 137.203125 137.738281 143.261719 C 137.851562 144.507812 137.992188 145.828125 137.703125 147.058594 C 137.375 148.460938 136.597656 149.777344 136.859375 151.261719 C 137.257812 153.527344 138.496094 155.679688 139.261719 157.824219 C 140.246094 160.589844 141.09375 163.464844 141.792969 166.316406 C 142.488281 169.140625 143.027344 171.992188 143.59375 174.84375 C 144.007812 176.929688 144.160156 179.765625 145.515625 181.503906 C 146.304688 182.519531 147.773438 183.140625 148.941406 183.570312 C 151.8125 184.613281 156.179688 183.363281 156.136719 179.753906 C 156.105469 177.253906 153.792969 175.941406 152.988281 173.734375 C 152.128906 171.371094 151.886719 168.863281 151.46875 166.390625 C 151.007812 163.644531 150.425781 160.582031 150.773438 157.796875 C 151.128906 154.953125 152.738281 152.535156 154.175781 150.113281 C 155.410156 148.03125 156.515625 145.863281 157.519531 143.664062 C 160.253906 137.671875 162.535156 130.773438 162.519531 124.089844 C 162.511719 121.003906 161.652344 118.039062 161.300781 114.992188 Z M 161.296875 114.988281 " fill-opacity="1" fill-rule="evenodd"/><path fill="#fda769" d="M 251.230469 54.382812 C 251.070312 54.097656 250.878906 53.832031 250.636719 53.601562 C 249.859375 52.863281 249.015625 52.960938 248.042969 53.265625 C 247.496094 53.4375 246.957031 53.671875 246.730469 54.246094 C 246.320312 55.292969 246.949219 56.496094 247.539062 57.339844 C 247.976562 57.945312 248.636719 58.855469 249.402344 59.035156 C 250.613281 59.316406 251.136719 58.332031 251.367188 57.339844 C 251.585938 56.339844 251.746094 55.316406 251.230469 54.382812 Z M 251.230469 54.382812 " fill-opacity="1" fill-rule="evenodd"/><path fill="#ffd0bc" d="M 278.15625 148.097656 C 279.421875 147.632812 280.703125 147.21875 282.0625 147.164062 C 285.398438 147.03125 288.640625 150.058594 286.925781 153.457031 C 285.546875 156.1875 281.820312 158.476562 278.738281 158.519531 C 276.625 158.550781 274.25 157.441406 273.574219 155.277344 Z M 278.15625 148.097656 " fill-opacity="1" fill-rule="evenodd"/><path fill="#ffd0bc" d="M 204.007812 202.253906 C 207.449219 193.238281 209.332031 184.230469 209.941406 174.609375 C 208.4375 173.964844 206.8125 173.761719 205.207031 173.523438 C 203.34375 173.242188 201.5 172.921875 199.628906 172.691406 C 196.390625 172.296875 193.042969 171.503906 189.957031 170.441406 C 188.890625 165.914062 187.578125 161.441406 186.316406 156.964844 C 183.183594 145.839844 179.828125 134.6875 177.398438 123.378906 C 176.683594 120.039062 176.140625 116.71875 177.792969 113.546875 C 179.097656 111.042969 180.84375 108.921875 182.605469 106.730469 C 183.238281 105.945312 184.050781 105.046875 184.3125 104.050781 C 184.53125 103.21875 184.402344 102.316406 184.328125 101.472656 C 184.230469 100.359375 184.144531 99.210938 184.132812 98.089844 C 184.125 97.273438 184.167969 96.441406 184.277344 95.632812 C 184.34375 95.128906 184.542969 94.550781 184.441406 94.042969 C 184.261719 93.109375 183.035156 92.96875 182.3125 93.28125 C 181.941406 93.441406 181.726562 93.914062 181.550781 94.25 C 181.054688 95.199219 180.707031 96.269531 180.425781 97.300781 C 180 98.878906 180.261719 100.597656 179.785156 102.136719 C 179.351562 103.539062 177.507812 104.636719 176.222656 105.183594 C 176.078125 103.773438 175.890625 102.371094 175.699219 100.96875 C 175.496094 99.511719 175.320312 98.035156 174.773438 96.65625 C 173.40625 93.203125 170.769531 90.394531 168.738281 87.332031 C 168.03125 86.265625 167.371094 85.160156 166.855469 83.988281 C 166.546875 83.273438 166.3125 82.277344 165.617188 81.828125 C 164.253906 80.9375 163.351562 83.007812 163.507812 84.066406 C 163.746094 85.632812 164.578125 87.238281 165.339844 88.597656 C 165.890625 89.59375 166.535156 90.558594 166.738281 91.699219 C 166.882812 92.511719 166.574219 93.355469 166.421875 94.148438 C 163.871094 91.238281 160.859375 88.722656 158.660156 85.519531 C 158.359375 85.085938 158.140625 84.519531 157.679688 84.226562 C 156.828125 83.679688 155.691406 84.433594 155.546875 85.324219 C 155.4375 85.96875 155.789062 86.550781 156.007812 87.132812 C 156.742188 89.113281 158.09375 90.953125 159.351562 92.625 C 159.863281 93.308594 161.410156 94.769531 160.539062 95.640625 C 160.070312 95.449219 159.578125 95.351562 159.132812 95.09375 C 157.164062 93.960938 155.421875 92.0625 153.808594 90.46875 C 153.308594 89.976562 152.84375 89.417969 152.421875 88.855469 C 152.085938 88.402344 151.835938 87.941406 151.246094 87.816406 C 149.585938 87.464844 148.878906 89.3125 149.597656 90.558594 C 150.652344 92.386719 151.976562 93.953125 153.402344 95.507812 C 154.246094 96.425781 155.027344 97.363281 156.011719 98.140625 C 154.1875 97.335938 152.335938 96.324219 150.734375 95.128906 C 150.078125 94.636719 149.28125 93.558594 148.371094 93.652344 C 146.328125 93.863281 147.046875 96.503906 147.839844 97.515625 C 149.691406 99.882812 152.671875 100.933594 154.585938 103.210938 C 156.039062 104.945312 156.421875 107.242188 156.925781 109.382812 C 157.691406 112.632812 158.492188 116.328125 160.046875 119.296875 C 160.558594 120.277344 161.285156 121.132812 161.730469 122.148438 C 162.253906 123.34375 162.503906 124.703125 162.695312 125.988281 C 163.019531 128.160156 162.796875 130.363281 162.738281 132.546875 C 162.664062 135.234375 162.710938 137.9375 162.796875 140.621094 C 163.167969 152.199219 163.773438 163.945312 165.554688 175.398438 C 166.277344 180.023438 166.515625 184.042969 169.730469 187.746094 C 171.972656 190.328125 176.167969 191.375 179.191406 192.738281 C 187.230469 196.363281 195.761719 199.109375 204.003906 202.265625 C 204.003906 202.261719 204.003906 202.257812 204.007812 202.253906 Z M 204.007812 202.253906 " fill-opacity="1" fill-rule="evenodd"/><path fill="#c791d3" d="M 250.441406 217.253906 C 254.464844 216.304688 258.390625 214.851562 262.105469 213.132812 C 264.273438 212.007812 266.410156 210.800781 268.332031 209.277344 C 274.085938 204.707031 278.3125 195.808594 273.871094 188.890625 C 272.234375 186.347656 269.4375 184.726562 266.84375 183.308594 C 255.136719 176.890625 240.960938 175.378906 227.972656 173.253906 C 224.113281 172.621094 220.207031 172.199219 216.4375 171.179688 C 214.222656 170.585938 211.023438 168.523438 208.6875 169.441406 C 206.695312 170.226562 206.933594 173.273438 206.363281 174.902344 C 204.378906 180.546875 204.066406 186.8125 202.953125 192.671875 C 202.503906 195.042969 201.128906 197.148438 199.832031 199.125 C 199.003906 200.382812 198.070312 202.042969 199.03125 203.480469 C 199.957031 204.863281 201.578125 205.453125 203.042969 206.066406 C 205.800781 207.21875 208.589844 208.15625 211.382812 209.210938 C 219.050781 212.109375 227.21875 213.769531 235.214844 215.503906 C 239.085938 216.347656 243.0625 217.550781 247.0625 217.933594 C 248.191406 217.75 249.324219 217.523438 250.441406 217.253906 Z M 250.441406 217.253906 " fill-opacity="1" fill-rule="evenodd"/><path fill="#ffd0bc" d="M 158.285156 328.625 C 158.816406 328.097656 159.347656 327.570312 159.921875 327.085938 C 159.460938 326.675781 158.992188 326.269531 158.394531 326.085938 C 156.964844 325.644531 155.363281 326.007812 153.941406 326.285156 C 150.730469 326.910156 147.394531 327.875 144.453125 329.316406 C 142.910156 330.074219 141.578125 330.824219 140.527344 332.226562 C 140.269531 332.574219 139.570312 333.367188 139.921875 333.859375 C 140.273438 334.347656 141.105469 334.144531 141.589844 334.039062 C 143.101562 333.703125 144.558594 333.101562 146.050781 332.667969 C 147.6875 332.191406 149.339844 331.746094 151.027344 331.488281 C 152.605469 331.25 154.476562 331.253906 155.949219 330.570312 C 156.128906 330.488281 156.308594 330.394531 156.480469 330.289062 C 157.125 329.773438 157.707031 329.199219 158.285156 328.625 Z M 158.285156 328.625 " fill-opacity="1" fill-rule="evenodd"/><path fill="#c791d3" d="M 171.375 333.859375 C 169.351562 332.277344 167.085938 330.972656 165.167969 329.257812 C 163.992188 328.199219 162.789062 326.574219 161.113281 326.347656 C 158.347656 325.96875 155.867188 328.332031 153.40625 329.152344 C 151.105469 329.917969 148.554688 329.605469 146.1875 330.039062 C 145.492188 330.167969 144.785156 330.273438 144.101562 330.453125 C 141.09375 331.238281 136.429688 333.410156 136.671875 337.160156 C 136.695312 337.5625 136.792969 337.949219 136.933594 338.328125 C 133.375 338.796875 129.570312 340.53125 127.019531 343.03125 C 126.191406 343.839844 125.390625 344.679688 124.828125 345.703125 C 122.8125 349.359375 123.167969 353.769531 124.964844 357.4375 C 125.617188 358.761719 126.398438 360.167969 127.65625 361 C 130.410156 362.820312 133.648438 363.375 136.835938 363.921875 C 141.722656 364.761719 146.441406 365.101562 151.378906 364.464844 C 154.167969 364.105469 156.863281 362.703125 159.699219 362.839844 C 163.179688 363.007812 166.628906 363.222656 170.125 363.1875 C 171.984375 363.167969 173.910156 363.003906 175.628906 362.242188 C 180.910156 359.914062 183.433594 353.945312 183.074219 348.4375 C 182.96875 346.828125 182.84375 345.15625 182.164062 343.671875 C 181.273438 341.730469 179.613281 340.3125 177.988281 339 C 175.820312 337.242188 173.574219 335.578125 171.375 333.859375 Z M 171.375 333.859375 " fill-opacity="1" fill-rule="evenodd"/><path fill="#ffd0bc" d="M 126.328125 359.738281 C 126.269531 359.617188 126.210938 359.5 126.15625 359.378906 C 122.929688 352.328125 128.96875 344.234375 135.417969 341.558594 C 139.660156 339.800781 144.175781 339.105469 148.800781 339.402344 C 152.6875 339.652344 156.609375 341.070312 160.4375 341.699219 C 161.269531 341.835938 162.203125 341.488281 163.007812 341.328125 C 164.296875 341.066406 165.582031 340.933594 166.886719 340.785156 C 170.21875 340.40625 173.863281 341.207031 176.847656 342.554688 C 180.074219 344.011719 181.679688 346.964844 182.746094 350.132812 C 182.847656 350.433594 182.9375 350.792969 183.019531 351.179688 C 182.527344 355.8125 180.042969 360.296875 175.628906 362.246094 C 173.90625 363.003906 171.984375 363.171875 170.125 363.1875 C 166.628906 363.226562 163.179688 363.011719 159.699219 362.84375 C 156.863281 362.707031 154.167969 364.109375 151.378906 364.464844 C 146.441406 365.101562 141.722656 364.761719 136.835938 363.925781 C 133.648438 363.378906 130.410156 362.824219 127.65625 361.003906 C 127.140625 360.660156 126.707031 360.226562 126.328125 359.738281 Z M 126.328125 359.738281 " fill-opacity="1" fill-rule="evenodd"/><path fill="#000000" d="M 252.214844 143.605469 C 252.105469 143.605469 251.992188 143.574219 251.894531 143.511719 C 251.445312 143.21875 251.074219 142.910156 250.789062 142.597656 C 250.179688 141.929688 249.902344 141.203125 249.972656 140.429688 C 250.128906 138.628906 252.144531 137.097656 253.617188 135.976562 C 253.960938 135.714844 254.273438 135.476562 254.519531 135.265625 C 255.003906 134.847656 255.480469 134.421875 255.953125 133.984375 L 256.121094 133.828125 C 256.71875 133.269531 257.28125 132.746094 257.789062 132.148438 C 258 131.90625 258.367188 131.878906 258.613281 132.085938 C 258.859375 132.296875 258.886719 132.664062 258.675781 132.90625 C 258.125 133.554688 257.511719 134.125 256.917969 134.679688 L 256.746094 134.839844 C 256.257812 135.289062 255.773438 135.726562 255.277344 136.152344 C 255.015625 136.371094 254.6875 136.625 254.324219 136.902344 C 253.023438 137.890625 251.246094 139.246094 251.132812 140.53125 C 251.09375 140.96875 251.261719 141.386719 251.648438 141.808594 C 251.871094 142.050781 252.167969 142.292969 252.53125 142.535156 C 252.800781 142.707031 252.878906 143.070312 252.703125 143.339844 C 252.589844 143.511719 252.402344 143.601562 252.214844 143.601562 Z M 252.214844 143.605469 " fill-opacity="1" fill-rule="nonzero"/><path fill="#000000" d="M 256.488281 152.941406 C 252.453125 152.941406 248.96875 151.375 247.078125 148.683594 C 246.890625 148.417969 246.953125 148.054688 247.21875 147.871094 C 247.476562 147.6875 247.84375 147.746094 248.027344 148.011719 C 249.796875 150.523438 253.1875 151.941406 257.101562 151.761719 C 257.449219 151.75 257.691406 152 257.707031 152.320312 C 257.722656 152.640625 257.472656 152.914062 257.148438 152.925781 C 256.925781 152.9375 256.707031 152.941406 256.488281 152.941406 Z M 256.488281 152.941406 " fill-opacity="1" fill-rule="nonzero"/><path fill="#000000" d="M 271.882812 139.40625 C 271.601562 139.40625 271.355469 139.203125 271.308594 138.914062 C 270.710938 135.195312 267.003906 133.984375 264.84375 133.59375 C 264.527344 133.535156 264.316406 133.234375 264.375 132.917969 C 264.433594 132.601562 264.742188 132.382812 265.050781 132.449219 C 269.238281 133.207031 271.9375 135.5 272.457031 138.730469 C 272.507812 139.050781 272.292969 139.347656 271.976562 139.398438 C 271.945312 139.402344 271.914062 139.40625 271.882812 139.40625 Z M 271.882812 139.40625 " fill-opacity="1" fill-rule="nonzero"/><path fill="#000000" d="M 258.691406 129.199219 C 258.460938 129.199219 258.242188 129.0625 258.148438 128.835938 C 258.105469 128.730469 258.066406 128.617188 258.027344 128.503906 C 257.960938 128.320312 257.898438 128.132812 257.800781 127.972656 C 256.753906 126.140625 254.242188 125.207031 252.25 125.207031 C 252.207031 125.207031 252.152344 125.210938 252.121094 125.207031 C 251.804688 125.207031 251.542969 124.957031 251.539062 124.636719 C 251.53125 124.316406 251.789062 124.050781 252.109375 124.042969 C 254.363281 124 257.457031 125.027344 258.804688 127.382812 C 258.945312 127.617188 259.039062 127.882812 259.125 128.113281 C 259.160156 128.210938 259.191406 128.304688 259.230469 128.398438 C 259.351562 128.695312 259.207031 129.035156 258.910156 129.15625 C 258.835938 129.1875 258.761719 129.199219 258.691406 129.199219 Z M 258.691406 129.199219 " fill-opacity="1" fill-rule="nonzero"/><path fill="#000000" d="M 253.160156 130.085938 C 253.710938 130.671875 253.503906 131.761719 252.703125 132.527344 C 251.894531 133.292969 250.785156 133.441406 250.238281 132.859375 C 249.6875 132.273438 249.894531 131.183594 250.707031 130.417969 C 251.503906 129.652344 252.613281 129.503906 253.160156 130.085938 Z M 253.160156 130.085938 " fill-opacity="1" fill-rule="evenodd"/><path fill="#000000" d="M 266.296875 139.394531 C 266.859375 139.980469 266.652344 141.074219 265.839844 141.835938 C 265.03125 142.601562 263.933594 142.75 263.375 142.167969 C 262.824219 141.585938 263.03125 140.492188 263.84375 139.726562 C 264.640625 138.960938 265.75 138.8125 266.296875 139.394531 Z M 266.296875 139.394531 " fill-opacity="1" fill-rule="evenodd"/><path fill="#ffd0bc" d="M 166.4375 336.96875 C 166.808594 336.371094 167.210938 335.640625 166.820312 334.789062 C 166.253906 333.546875 163.695312 332.558594 162.160156 332.425781 C 159.828125 332.21875 158.207031 332.910156 157.761719 334.238281 C 157.605469 334.707031 157.53125 335.351562 157.886719 335.949219 C 158.636719 337.21875 160.8125 338.390625 162.566406 338.566406 C 164.640625 338.773438 165.800781 337.972656 166.4375 336.96875 Z M 166.4375 336.96875 " fill-opacity="1" fill-rule="evenodd"/><path fill="#ffd0bc" d="M 217.523438 31.113281 C 217.246094 30.394531 216.402344 29.808594 215.921875 29.34375 C 214.777344 28.140625 213.734375 26.820312 212.417969 25.800781 C 211.757812 25.292969 211.070312 24.703125 210.214844 24.570312 C 208.828125 24.355469 208.28125 26.042969 208.078125 27.101562 C 207.691406 29.109375 207.707031 31.476562 208.183594 33.476562 C 208.53125 34.941406 209.320312 37.183594 211.230469 36.945312 C 213.035156 36.71875 213.839844 35.152344 215.046875 34.042969 C 215.886719 33.269531 218.140625 32.6875 217.523438 31.113281 Z M 217.523438 31.113281 " fill-opacity="1" fill-rule="evenodd"/><path fill="#000000" d="M 236.453125 50.425781 C 235.066406 50.425781 233.644531 49.613281 232.972656 48.308594 C 232.828125 48.023438 232.941406 47.671875 233.226562 47.523438 C 233.507812 47.382812 233.863281 47.488281 234.011719 47.777344 C 234.597656 48.921875 236.136719 49.558594 237.234375 49.113281 C 238.121094 48.757812 238.878906 47.824219 239.125 46.789062 C 239.203125 46.476562 239.511719 46.277344 239.828125 46.355469 C 240.140625 46.429688 240.335938 46.746094 240.257812 47.058594 C 239.921875 48.464844 238.910156 49.695312 237.671875 50.195312 C 237.285156 50.351562 236.867188 50.425781 236.449219 50.425781 Z M 236.453125 50.425781 " fill-opacity="1" fill-rule="nonzero"/><path fill="#000000" d="M 247.136719 66.019531 C 246.980469 66.019531 246.824219 66.003906 246.664062 65.980469 C 245.371094 65.757812 244.15625 64.722656 242.949219 62.816406 C 242.773438 62.542969 242.855469 62.183594 243.128906 62.011719 C 243.398438 61.839844 243.761719 61.921875 243.933594 62.191406 C 244.941406 63.785156 245.925781 64.671875 246.863281 64.832031 C 247.386719 64.925781 247.863281 64.761719 248.316406 64.34375 C 249.289062 63.453125 249.847656 61.625 249.757812 60.476562 C 249.734375 60.15625 249.972656 59.878906 250.292969 59.851562 C 250.601562 59.820312 250.894531 60.066406 250.921875 60.386719 C 251.035156 61.835938 250.386719 64.03125 249.101562 65.203125 C 248.511719 65.742188 247.839844 66.019531 247.136719 66.019531 Z M 247.136719 66.019531 " fill-opacity="1" fill-rule="nonzero"/><path fill="#000000" d="M 228.074219 59.066406 C 227.804688 59.066406 227.5625 58.875 227.507812 58.597656 C 227.441406 58.285156 227.648438 57.976562 227.960938 57.914062 C 230.691406 57.367188 233.492188 57.09375 235.90625 56.882812 C 236.214844 56.859375 236.523438 56.824219 236.835938 56.792969 C 237.929688 56.675781 239.058594 56.554688 240.1875 56.675781 C 240.507812 56.707031 240.738281 56.996094 240.707031 57.3125 C 240.671875 57.632812 240.390625 57.863281 240.066406 57.832031 C 239.058594 57.730469 237.988281 57.84375 236.957031 57.949219 C 236.636719 57.984375 236.320312 58.015625 236.007812 58.042969 C 233.625 58.25 230.863281 58.519531 228.191406 59.054688 C 228.152344 59.0625 228.113281 59.066406 228.074219 59.066406 Z M 228.074219 59.066406 " fill-opacity="1" fill-rule="nonzero"/><path fill="#000000" d="M 230.019531 70.667969 C 229.898438 70.667969 229.777344 70.632812 229.671875 70.554688 C 229.414062 70.363281 229.359375 70 229.550781 69.738281 C 231.554688 67.035156 233.664062 64.882812 236 63.152344 L 236.289062 62.9375 C 237.046875 62.371094 237.832031 61.785156 238.710938 61.367188 C 239 61.226562 239.351562 61.347656 239.488281 61.640625 C 239.628906 61.929688 239.503906 62.277344 239.214844 62.417969 C 238.4375 62.789062 237.699219 63.339844 236.988281 63.871094 L 236.695312 64.089844 C 234.453125 65.75 232.421875 67.824219 230.488281 70.433594 C 230.371094 70.585938 230.195312 70.667969 230.019531 70.667969 Z M 230.019531 70.667969 " fill-opacity="1" fill-rule="nonzero"/><path fill="#000000" d="M 235.71875 75.152344 C 235.613281 75.152344 235.511719 75.125 235.414062 75.066406 C 235.140625 74.898438 235.054688 74.542969 235.222656 74.265625 L 235.695312 73.484375 C 236.84375 71.582031 238.03125 69.613281 239.636719 68.015625 C 239.867188 67.789062 240.234375 67.789062 240.460938 68.015625 C 240.6875 68.246094 240.6875 68.613281 240.460938 68.839844 C 238.957031 70.339844 237.804688 72.242188 236.691406 74.089844 L 236.214844 74.875 C 236.105469 75.054688 235.914062 75.152344 235.71875 75.152344 Z M 235.71875 75.152344 " fill-opacity="1" fill-rule="nonzero"/><path fill="#000000" d="M 138.09375 143.0625 C 137.828125 143.0625 137.585938 142.878906 137.527344 142.605469 C 136.917969 139.789062 136.492188 136.9375 136.078125 134.179688 C 135.878906 132.855469 135.679688 131.527344 135.460938 130.191406 L 135.09375 128.007812 C 134.199219 122.683594 133.355469 117.652344 133.195312 112.269531 C 133.183594 111.945312 133.4375 111.679688 133.761719 111.667969 C 134.097656 111.679688 134.351562 111.914062 134.359375 112.234375 C 134.515625 117.539062 135.355469 122.53125 136.242188 127.816406 L 136.609375 130.003906 C 136.828125 131.34375 137.03125 132.675781 137.230469 134.007812 C 137.640625 136.746094 138.066406 139.578125 138.664062 142.359375 C 138.734375 142.671875 138.535156 142.984375 138.21875 143.050781 C 138.179688 143.058594 138.136719 143.0625 138.09375 143.0625 Z M 138.09375 143.0625 " fill-opacity="1" fill-rule="nonzero"/><path fill="#000000" d="M 190.039062 112.457031 C 189.761719 112.457031 189.511719 112.253906 189.464844 111.96875 C 189.238281 110.589844 189.027344 109.191406 188.816406 107.785156 C 188.179688 103.507812 187.515625 99.085938 186.265625 95.035156 C 186.171875 94.730469 186.34375 94.402344 186.652344 94.308594 C 186.957031 94.214844 187.285156 94.386719 187.378906 94.691406 C 188.65625 98.828125 189.324219 103.292969 189.96875 107.609375 C 190.179688 109.015625 190.386719 110.410156 190.617188 111.777344 C 190.667969 112.097656 190.453125 112.394531 190.136719 112.449219 C 190.105469 112.453125 190.074219 112.457031 190.039062 112.457031 Z M 190.039062 112.457031 " fill-opacity="1" fill-rule="nonzero"/><path fill="#000000" d="M 153.902344 183.652344 C 153.84375 183.652344 153.78125 183.644531 153.71875 183.625 C 153.414062 183.523438 153.25 183.191406 153.351562 182.886719 C 153.878906 181.292969 153.175781 179.992188 152.363281 178.484375 C 152.089844 177.976562 151.808594 177.449219 151.570312 176.902344 C 151.441406 176.605469 151.578125 176.261719 151.875 176.136719 C 152.167969 176.003906 152.511719 176.144531 152.640625 176.4375 C 152.859375 176.949219 153.128906 177.445312 153.390625 177.933594 C 154.25 179.53125 155.140625 181.183594 154.457031 183.253906 C 154.375 183.496094 154.148438 183.652344 153.902344 183.652344 Z M 153.902344 183.652344 " fill-opacity="1" fill-rule="nonzero"/><path fill="#000000" d="M 149.914062 184.167969 C 149.800781 184.167969 149.691406 184.136719 149.589844 184.070312 C 149.320312 183.894531 149.25 183.53125 149.425781 183.261719 C 150.40625 181.78125 149.609375 180.390625 148.28125 178.433594 L 148.707031 178.019531 L 149.1875 177.695312 L 148.707031 178.019531 L 149.246094 177.777344 C 150.417969 179.507812 151.878906 181.664062 150.398438 183.90625 C 150.285156 184.074219 150.101562 184.167969 149.914062 184.167969 Z M 149.914062 184.167969 " fill-opacity="1" fill-rule="nonzero"/><path fill="#000000" d="M 204.820312 157.183594 C 204.714844 157.183594 204.609375 157.152344 204.515625 157.097656 C 204.238281 156.925781 204.152344 156.570312 204.320312 156.296875 C 205.546875 154.296875 203.730469 152.390625 201.417969 150.28125 C 201.101562 149.992188 200.796875 149.71875 200.535156 149.460938 C 200.304688 149.238281 200.300781 148.867188 200.523438 148.640625 C 200.746094 148.410156 201.117188 148.402344 201.347656 148.628906 C 201.601562 148.875 201.894531 149.140625 202.199219 149.417969 C 204.167969 151.210938 207.144531 153.917969 205.3125 156.902344 C 205.203125 157.082031 205.011719 157.183594 204.816406 157.183594 Z M 204.820312 157.183594 " fill-opacity="1" fill-rule="nonzero"/><path fill="#000000" d="M 208.746094 152.554688 C 208.726562 152.554688 208.710938 152.554688 208.691406 152.550781 C 208.371094 152.523438 208.136719 152.238281 208.164062 151.917969 C 208.339844 149.976562 206.070312 148.089844 204.566406 146.84375 L 204.0625 146.417969 C 203.816406 146.210938 203.785156 145.84375 203.992188 145.597656 C 204.203125 145.351562 204.570312 145.324219 204.816406 145.53125 L 205.3125 145.949219 C 207 147.351562 209.554688 149.46875 209.324219 152.023438 C 209.296875 152.324219 209.042969 152.550781 208.746094 152.550781 Z M 208.746094 152.554688 " fill-opacity="1" fill-rule="nonzero"/><path fill="#000000" d="M 223.632812 143.050781 C 223.566406 143.050781 223.5 143.039062 223.433594 143.015625 C 223.132812 142.90625 222.976562 142.570312 223.085938 142.269531 C 223.203125 141.945312 223.121094 141.542969 222.828125 140.953125 C 222.105469 139.472656 221.054688 138.617188 219.753906 137.648438 C 219.496094 137.457031 219.445312 137.09375 219.636719 136.835938 C 219.828125 136.578125 220.191406 136.523438 220.453125 136.714844 C 221.832031 137.742188 223.042969 138.730469 223.871094 140.4375 C 224.171875 141.035156 224.480469 141.835938 224.179688 142.667969 C 224.09375 142.902344 223.871094 143.050781 223.632812 143.050781 Z M 223.632812 143.050781 " fill-opacity="1" fill-rule="nonzero"/><path fill="#000000" d="M 225.589844 140.328125 C 225.574219 140.328125 225.558594 140.328125 225.546875 140.328125 C 225.226562 140.304688 224.984375 140.027344 225.003906 139.707031 C 225.027344 139.398438 224.859375 139.058594 224.683594 138.695312 C 224.105469 137.523438 223.195312 136.648438 221.617188 135.738281 C 221.339844 135.578125 221.242188 135.21875 221.402344 134.941406 C 221.5625 134.660156 221.921875 134.566406 222.199219 134.730469 C 223.390625 135.414062 224.867188 136.425781 225.710938 138.144531 C 225.945312 138.621094 226.210938 139.167969 226.167969 139.789062 C 226.148438 140.09375 225.890625 140.328125 225.589844 140.328125 Z M 225.589844 140.328125 " fill-opacity="1" fill-rule="nonzero"/><path fill="#000000" d="M 279.40625 156.105469 C 279.3125 156.105469 279.21875 156.101562 279.125 156.097656 C 278.804688 156.070312 278.566406 155.792969 278.589844 155.46875 C 278.613281 155.148438 278.910156 154.910156 279.214844 154.933594 C 280.449219 155.046875 281.628906 154.175781 282.054688 152.859375 C 282.195312 152.449219 282.363281 151.714844 281.96875 151.375 C 281.390625 150.875 280.078125 151.003906 279.582031 151.050781 C 279.285156 151.074219 278.976562 150.84375 278.945312 150.523438 C 278.917969 150.203125 279.152344 149.917969 279.472656 149.890625 C 280.542969 149.789062 281.882812 149.765625 282.726562 150.492188 C 283.402344 151.074219 283.558594 152.042969 283.164062 153.222656 C 282.601562 154.953125 281.078125 156.105469 279.40625 156.105469 Z M 279.40625 156.105469 " fill-opacity="1" fill-rule="nonzero"/><path fill="#000000" d="M 278.886719 159.738281 C 277.925781 159.738281 276.976562 159.480469 276.070312 158.898438 C 275.28125 158.390625 274.808594 157.605469 274.394531 156.910156 L 274.152344 156.515625 C 273.980469 156.242188 274.066406 155.882812 274.339844 155.714844 C 274.609375 155.542969 274.972656 155.625 275.140625 155.898438 L 275.394531 156.3125 C 275.777344 156.953125 276.140625 157.558594 276.699219 157.917969 C 280.683594 160.472656 285.355469 154.84375 286.25 153.691406 C 286.449219 153.4375 286.816406 153.390625 287.070312 153.589844 C 287.324219 153.785156 287.367188 154.152344 287.171875 154.40625 C 284.96875 157.242188 281.882812 159.738281 278.886719 159.738281 Z M 278.886719 159.738281 " fill-opacity="1" fill-rule="nonzero"/><path fill="#000000" d="M 273.355469 188.554688 C 273.179688 188.554688 273.007812 188.472656 272.890625 188.320312 C 269.910156 184.378906 264.832031 182.15625 259.78125 180.335938 C 252.515625 177.714844 245.179688 176.433594 238.085938 175.199219 C 236.597656 174.9375 235.113281 174.660156 233.625 174.378906 C 230.902344 173.863281 228.085938 173.332031 225.3125 172.949219 C 220.960938 172.351562 217.074219 171.621094 213.421875 170.726562 C 211.390625 170.226562 209.128906 169.816406 207.96875 171.226562 C 207.429688 171.886719 207.390625 172.78125 207.347656 173.730469 C 207.324219 174.332031 207.296875 174.949219 207.140625 175.550781 C 207.0625 175.863281 206.746094 176.046875 206.433594 175.96875 C 206.121094 175.890625 205.933594 175.574219 206.015625 175.261719 C 206.136719 174.777344 206.160156 174.246094 206.1875 173.683594 C 206.230469 172.632812 206.285156 171.445312 207.070312 170.488281 C 208.789062 168.386719 211.980469 169.171875 213.699219 169.59375 C 217.3125 170.480469 221.164062 171.199219 225.46875 171.796875 C 228.277344 172.183594 231.105469 172.71875 233.839844 173.234375 C 235.324219 173.511719 236.804688 173.792969 238.285156 174.050781 C 245.429688 175.296875 252.816406 176.582031 260.175781 179.238281 C 265.394531 181.117188 270.65625 183.4375 273.820312 187.621094 C 274.015625 187.875 273.964844 188.242188 273.707031 188.4375 C 273.601562 188.515625 273.480469 188.554688 273.355469 188.554688 Z M 273.355469 188.554688 " fill-opacity="1" fill-rule="nonzero"/><path fill="#000000" d="M 269.976562 209.828125 C 269.808594 209.828125 269.644531 209.757812 269.527344 209.617188 C 269.320312 209.371094 269.355469 209.003906 269.601562 208.796875 C 271.855469 206.910156 275.515625 202.929688 274.699219 197.46875 C 274.652344 197.148438 274.871094 196.851562 275.191406 196.804688 C 275.503906 196.753906 275.804688 196.976562 275.851562 197.296875 C 276.519531 201.757812 274.566406 206.160156 270.351562 209.6875 C 270.242188 209.78125 270.109375 209.824219 269.976562 209.824219 Z M 269.976562 209.828125 " fill-opacity="1" fill-rule="nonzero"/><path fill="#000000" d="M 249.652344 217.191406 C 237.269531 217.191406 223.078125 213.851562 213.121094 210.398438 C 212.816406 210.292969 212.65625 209.960938 212.761719 209.65625 C 212.867188 209.351562 213.203125 209.191406 213.503906 209.296875 C 224.289062 213.039062 241.589844 216.988281 254.859375 215.804688 C 255.152344 215.761719 255.460938 216.011719 255.488281 216.335938 C 255.519531 216.65625 255.28125 216.9375 254.960938 216.964844 C 253.242188 217.121094 251.46875 217.191406 249.652344 217.191406 Z M 249.652344 217.191406 " fill-opacity="1" fill-rule="nonzero"/><path fill="#000000" d="M 293.484375 160.054688 C 293.175781 160.054688 292.917969 159.8125 292.902344 159.503906 C 292.886719 159.179688 293.132812 158.90625 293.453125 158.890625 C 296.214844 158.746094 298.578125 156.730469 300.472656 155.113281 C 302.953125 152.992188 304.894531 150.460938 305.933594 147.992188 C 308.214844 142.617188 307.445312 136.816406 306.703125 131.207031 L 306.578125 130.273438 C 306.417969 129.019531 306.308594 127.746094 306.199219 126.511719 C 306.089844 125.230469 305.976562 123.90625 305.800781 122.625 C 305.234375 118.515625 304.484375 115.148438 302.667969 112.066406 C 302.507812 111.789062 302.597656 111.433594 302.875 111.269531 C 303.152344 111.105469 303.511719 111.199219 303.671875 111.476562 C 305.585938 114.726562 306.367188 118.21875 306.957031 122.464844 C 307.132812 123.777344 307.25 125.117188 307.359375 126.410156 C 307.464844 127.632812 307.574219 128.894531 307.734375 130.121094 L 307.855469 131.054688 C 308.621094 136.820312 309.410156 142.78125 307.007812 148.449219 C 305.585938 151.820312 303.082031 154.414062 301.230469 156 C 299.304688 157.640625 296.667969 159.886719 293.515625 160.054688 Z M 293.484375 160.054688 " fill-opacity="1" fill-rule="nonzero"/><path fill="#000000" d="M 220.308594 348.554688 C 220.238281 348.554688 220.167969 348.542969 220.09375 348.515625 C 218.558594 347.90625 216.972656 347.332031 215.375 346.753906 C 211.566406 345.371094 207.636719 343.945312 204.144531 341.996094 C 200.078125 339.726562 196.289062 336.945312 192.625 334.253906 C 190.5 332.691406 188.304688 331.078125 186.082031 329.585938 C 181.042969 326.203125 176.210938 322.164062 171.542969 318.257812 C 166.296875 313.871094 160.875 309.339844 155.132812 305.714844 C 154.933594 305.585938 154.738281 305.453125 154.539062 305.320312 C 153.847656 304.847656 153.195312 304.40625 152.4375 304.308594 C 150.410156 304.050781 148.0625 305.828125 146.167969 307.257812 C 145.757812 307.566406 145.371094 307.859375 145.011719 308.113281 C 141.769531 310.394531 138.519531 312.757812 135.375 315.039062 L 132.6875 316.988281 C 132.429688 317.175781 132.066406 317.121094 131.875 316.859375 C 131.6875 316.597656 131.746094 316.234375 132.007812 316.046875 L 134.691406 314.097656 C 137.835938 311.8125 141.09375 309.449219 144.339844 307.160156 C 144.691406 306.914062 145.066406 306.628906 145.46875 306.328125 C 147.527344 304.769531 150.097656 302.832031 152.589844 303.152344 C 153.621094 303.285156 154.421875 303.832031 155.195312 304.355469 C 155.382812 304.480469 155.570312 304.609375 155.757812 304.730469 C 161.566406 308.394531 167.015625 312.953125 172.289062 317.363281 C 176.9375 321.25 181.746094 325.269531 186.730469 328.617188 C 188.972656 330.125 191.183594 331.746094 193.320312 333.3125 C 196.953125 335.984375 200.710938 338.746094 204.714844 340.980469 C 208.121094 342.882812 212.011719 344.292969 215.773438 345.65625 C 217.378906 346.238281 218.976562 346.816406 220.523438 347.429688 C 220.824219 347.546875 220.972656 347.886719 220.851562 348.1875 C 220.761719 348.414062 220.542969 348.554688 220.3125 348.554688 Z M 220.308594 348.554688 " fill-opacity="1" fill-rule="nonzero"/><path fill="#000000" d="M 129.929688 341.632812 C 129.734375 341.632812 129.542969 341.535156 129.433594 341.355469 C 129.265625 341.082031 129.351562 340.722656 129.625 340.554688 C 132.792969 338.613281 136.574219 337.257812 140.855469 336.527344 C 141.160156 336.476562 141.480469 336.40625 141.804688 336.339844 C 142.863281 336.121094 144.0625 335.875 145.164062 336.023438 C 145.480469 336.066406 145.707031 336.359375 145.660156 336.679688 C 145.617188 337 145.320312 337.234375 145.003906 337.175781 C 144.101562 337.054688 143.054688 337.273438 142.042969 337.480469 C 141.703125 337.554688 141.371094 337.621094 141.050781 337.675781 C 136.914062 338.382812 133.277344 339.6875 130.234375 341.546875 C 130.140625 341.605469 130.035156 341.632812 129.929688 341.632812 Z M 129.929688 341.632812 " fill-opacity="1" fill-rule="nonzero"/><path fill="#000000" d="M 134.433594 361.300781 C 134.136719 361.300781 133.878906 361.070312 133.855469 360.765625 C 133.640625 358.0625 133.800781 355.328125 133.953125 352.6875 C 134.105469 350.132812 134.261719 347.488281 134.066406 344.921875 C 134.039062 344.597656 134.28125 344.320312 134.601562 344.292969 C 134.921875 344.277344 135.203125 344.507812 135.226562 344.832031 C 135.429688 347.476562 135.269531 350.160156 135.117188 352.757812 C 134.964844 355.359375 134.808594 358.050781 135.019531 360.671875 C 135.042969 360.992188 134.804688 361.273438 134.484375 361.300781 C 134.46875 361.300781 134.449219 361.300781 134.4375 361.300781 Z M 134.433594 361.300781 " fill-opacity="1" fill-rule="nonzero"/><path fill="#000000" d="M 146.863281 362.019531 C 146.550781 362.019531 146.289062 361.769531 146.28125 361.453125 L 146.234375 359.417969 C 146.113281 354.453125 145.992188 349.320312 146.179688 344.289062 C 146.191406 343.964844 146.429688 343.6875 146.78125 343.726562 C 147.105469 343.738281 147.355469 344.007812 147.34375 344.332031 C 147.15625 349.328125 147.277344 354.445312 147.398438 359.390625 L 147.445312 361.425781 C 147.453125 361.746094 147.199219 362.011719 146.878906 362.019531 Z M 146.863281 362.019531 " fill-opacity="1" fill-rule="nonzero"/><path fill="#000000" d="M 160.539062 359.519531 C 160.238281 359.519531 159.980469 359.285156 159.960938 358.980469 C 159.765625 356.210938 159.871094 353.394531 159.972656 350.667969 C 160.046875 348.75 160.121094 346.769531 160.089844 344.835938 C 160.082031 344.511719 160.339844 344.25 160.660156 344.242188 C 160.992188 344.277344 161.25 344.492188 161.253906 344.816406 C 161.285156 346.78125 161.210938 348.78125 161.140625 350.714844 C 161.035156 353.40625 160.933594 356.191406 161.121094 358.894531 C 161.144531 359.21875 160.902344 359.496094 160.582031 359.519531 C 160.566406 359.519531 160.554688 359.519531 160.539062 359.519531 Z M 160.539062 359.519531 " fill-opacity="1" fill-rule="nonzero"/><path fill="#000000" d="M 172.679688 360.914062 C 172.363281 360.914062 172.101562 360.65625 172.097656 360.339844 C 172.089844 359.550781 172.035156 358.761719 171.980469 357.972656 C 171.914062 356.945312 171.839844 355.882812 171.867188 354.828125 C 171.890625 353.964844 172 353.105469 172.105469 352.277344 C 172.199219 351.558594 172.292969 350.820312 172.328125 350.097656 C 172.382812 348.925781 172.371094 347.714844 172.355469 346.542969 C 172.347656 345.957031 172.34375 345.371094 172.34375 344.785156 C 172.34375 344.464844 172.605469 344.207031 172.925781 344.207031 C 173.25 344.207031 173.507812 344.46875 173.507812 344.789062 C 173.507812 345.367188 173.515625 345.949219 173.519531 346.527344 C 173.535156 347.71875 173.546875 348.945312 173.492188 350.152344 C 173.457031 350.921875 173.355469 351.6875 173.261719 352.425781 C 173.15625 353.261719 173.054688 354.054688 173.03125 354.859375 C 173.003906 355.859375 173.074219 356.894531 173.144531 357.890625 C 173.199219 358.703125 173.253906 359.515625 173.261719 360.324219 C 173.265625 360.648438 173.007812 360.910156 172.6875 360.914062 Z M 172.679688 360.914062 " fill-opacity="1" fill-rule="nonzero"/><path fill="#000000" d="M 78.871094 358.4375 C 75.8125 358.4375 72.765625 358.398438 69.769531 358.363281 C 65.890625 358.320312 61.882812 358.273438 57.941406 358.304688 L 57.9375 358.304688 C 57.640625 358.304688 57.394531 358.082031 57.359375 357.789062 C 56.628906 351.640625 52.035156 345.921875 45.652344 343.214844 C 45.355469 343.089844 45.21875 342.746094 45.34375 342.449219 C 45.46875 342.152344 45.808594 342.015625 46.105469 342.140625 C 52.6875 344.933594 57.480469 350.777344 58.445312 357.132812 C 62.234375 357.113281 66.066406 357.15625 69.78125 357.199219 C 75.378906 357.261719 81.164062 357.332031 86.847656 357.164062 L 88.640625 357.113281 C 92.160156 357.023438 95.800781 356.929688 99.277344 356.375 C 99.59375 356.335938 99.894531 356.542969 99.945312 356.859375 C 99.996094 357.175781 99.777344 357.476562 99.460938 357.527344 C 95.90625 358.089844 92.226562 358.1875 88.667969 358.277344 L 86.882812 358.328125 C 84.222656 358.40625 81.542969 358.433594 78.871094 358.433594 Z M 78.871094 358.4375 " fill-opacity="1" fill-rule="nonzero"/><path fill="#000000" d="M 59.871094 348.046875 C 59.597656 348.046875 59.355469 347.859375 59.300781 347.582031 C 59.148438 346.824219 58.734375 346.0625 58.332031 345.328125 L 58.21875 345.121094 C 57.082031 343.019531 55.65625 341.183594 53.859375 339.507812 C 53.621094 339.289062 53.609375 338.921875 53.828125 338.6875 C 54.050781 338.453125 54.417969 338.4375 54.652344 338.65625 C 56.542969 340.421875 58.046875 342.351562 59.242188 344.566406 L 59.355469 344.773438 C 59.777344 345.546875 60.253906 346.421875 60.441406 347.351562 C 60.503906 347.664062 60.300781 347.972656 59.984375 348.035156 C 59.945312 348.042969 59.90625 348.046875 59.867188 348.046875 Z M 59.871094 348.046875 " fill-opacity="1" fill-rule="nonzero"/><path fill="#000000" d="M 65.421875 345.679688 C 65.164062 345.679688 64.925781 345.507812 64.859375 345.246094 C 64.605469 344.273438 64.097656 343.332031 63.605469 342.417969 L 63.382812 342.007812 C 62.199219 339.792969 60.6875 337.65625 58.894531 335.664062 C 58.679688 335.425781 58.699219 335.054688 58.9375 334.839844 C 59.179688 334.625 59.546875 334.644531 59.761719 334.882812 C 61.617188 336.945312 63.179688 339.160156 64.410156 341.457031 L 64.628906 341.863281 C 65.15625 342.835938 65.699219 343.84375 65.984375 344.949219 C 66.066406 345.261719 65.882812 345.582031 65.570312 345.660156 C 65.519531 345.675781 65.46875 345.679688 65.421875 345.679688 Z M 65.421875 345.679688 " fill-opacity="1" fill-rule="nonzero"/><path fill="#000000" d="M 70.953125 342.023438 C 70.707031 342.023438 70.480469 341.867188 70.398438 341.621094 C 69.257812 338.117188 66.894531 334.488281 63.914062 331.675781 C 63.679688 331.457031 63.671875 331.085938 63.890625 330.851562 C 64.113281 330.621094 64.480469 330.609375 64.714844 330.828125 C 67.875 333.816406 70.289062 337.519531 71.507812 341.261719 C 71.605469 341.566406 71.4375 341.894531 71.132812 341.996094 C 71.074219 342.015625 71.011719 342.023438 70.953125 342.023438 Z M 70.953125 342.023438 " fill-opacity="1" fill-rule="nonzero"/></svg>