<svg xmlns="http://www.w3.org/2000/svg" xmlns:xlink="http://www.w3.org/1999/xlink" width="500" zoomAndPan="magnify" viewBox="0 0 375 374.999991" height="500" preserveAspectRatio="xMidYMid meet" version="1.0"><defs><filter x="0%" y="0%" width="100%" height="100%" id="60f510ed9b"><feColorMatrix values="0 0 0 0 1 0 0 0 0 1 0 0 0 0 1 0 0 0 1 0" color-interpolation-filters="sRGB"/></filter><clipPath id="06e724ea8a"><path d="M 20.492188 127 L 361.742188 127 L 361.742188 255.714844 L 20.492188 255.714844 Z M 20.492188 127 " clip-rule="nonzero"/></clipPath><clipPath id="92114bae7e"><path d="M 20.492188 196 L 361.742188 196 L 361.742188 255.714844 L 20.492188 255.714844 Z M 20.492188 196 " clip-rule="nonzero"/></clipPath><mask id="deae4ad840"><g filter="url(#60f510ed9b)"><rect x="-37.5" width="450" fill="#000000" y="-37.499999" height="449.999989" fill-opacity="0.32"/></g></mask><clipPath id="5ae4e4e76d"><path d="M 0.492188 3 L 341.679688 3 L 341.679688 59.714844 L 0.492188 59.714844 Z M 0.492188 3 " clip-rule="nonzero"/></clipPath><clipPath id="adbbc1cf04"><rect x="0" width="342" y="0" height="60"/></clipPath><mask id="c7c98d31c9"><g filter="url(#60f510ed9b)"><rect x="-37.5" width="450" fill="#000000" y="-37.499999" height="449.999989" fill-opacity="0.4"/></g></mask><clipPath id="d8cac0785f"><path d="M 1 0.480469 L 233.199219 0.480469 L 233.199219 57.359375 L 1 57.359375 Z M 1 0.480469 " clip-rule="nonzero"/></clipPath><clipPath id="84bf4c58d9"><rect x="0" width="234" y="0" height="58"/></clipPath><mask id="a95228a720"><g filter="url(#60f510ed9b)"><rect x="-37.5" width="450" fill="#000000" y="-37.499999" height="449.999989" fill-opacity="0.25"/></g></mask><clipPath id="a6c253fd9f"><path d="M 0.320312 0 L 229.761719 0 L 229.761719 54 L 0.320312 54 Z M 0.320312 0 " clip-rule="nonzero"/></clipPath><clipPath id="d36bcda473"><rect x="0" width="230" y="0" height="54"/></clipPath><mask id="1ca8605892"><g filter="url(#60f510ed9b)"><rect x="-37.5" width="450" fill="#000000" y="-37.499999" height="449.999989" fill-opacity="0.25"/></g></mask><clipPath id="6ae1e9cb46"><path d="M 0.121094 1 L 194.761719 1 L 194.761719 42 L 0.121094 42 Z M 0.121094 1 " clip-rule="nonzero"/></clipPath><clipPath id="b4047dfe12"><rect x="0" width="195" y="0" height="43"/></clipPath><mask id="afd60af6ce"><g filter="url(#60f510ed9b)"><rect x="-37.5" width="450" fill="#000000" y="-37.499999" height="449.999989" fill-opacity="0.21"/></g></mask><clipPath id="d4bf00e191"><path d="M 1 0.199219 L 172 0.199219 L 172 36.921875 L 1 36.921875 Z M 1 0.199219 " clip-rule="nonzero"/></clipPath><clipPath id="4eecd2e114"><rect x="0" width="173" y="0" height="37"/></clipPath><mask id="45a9841b4f"><g filter="url(#60f510ed9b)"><rect x="-37.5" width="450" fill="#000000" y="-37.499999" height="449.999989" fill-opacity="0.21"/></g></mask><clipPath id="4441657657"><path d="M 1 0.441406 L 107 0.441406 L 107 23 L 1 23 Z M 1 0.441406 " clip-rule="nonzero"/></clipPath><clipPath id="63d49b90a3"><rect x="0" width="108" y="0" height="24"/></clipPath><clipPath id="5939caca91"><path d="M 310 122.214844 L 318 122.214844 L 318 147 L 310 147 Z M 310 122.214844 " clip-rule="nonzero"/></clipPath><clipPath id="6f992a1c50"><path d="M 311 122.214844 L 319 122.214844 L 319 148 L 311 148 Z M 311 122.214844 " clip-rule="nonzero"/></clipPath><mask id="eaa060edd2"><g filter="url(#60f510ed9b)"><rect x="-37.5" width="450" fill="#000000" y="-37.499999" height="449.999989" fill-opacity="0.09"/></g></mask><clipPath id="784f8b2efb"><path d="M 0.28125 0.398438 L 7 0.398438 L 7 25 L 0.28125 25 Z M 0.28125 0.398438 " clip-rule="nonzero"/></clipPath><clipPath id="c285c03c4b"><rect x="0" width="8" y="0" height="26"/></clipPath><mask id="de52693f7f"><g filter="url(#60f510ed9b)"><rect x="-37.5" width="450" fill="#000000" y="-37.499999" height="449.999989" fill-opacity="0.09"/></g></mask><clipPath id="ba0d9cd66c"><path d="M 0.320312 0.28125 L 11 0.28125 L 11 22 L 0.320312 22 Z M 0.320312 0.28125 " clip-rule="nonzero"/></clipPath><clipPath id="59176770ff"><rect x="0" width="12" y="0" height="23"/></clipPath><mask id="6fa6f73562"><g filter="url(#60f510ed9b)"><rect x="-37.5" width="450" fill="#000000" y="-37.499999" height="449.999989" fill-opacity="0.09"/></g></mask><clipPath id="4885100a7d"><path d="M 0.121094 1 L 5.878906 1 L 5.878906 21.480469 L 0.121094 21.480469 Z M 0.121094 1 " clip-rule="nonzero"/></clipPath><clipPath id="980d7bf4bb"><rect x="0" width="6" y="0" height="22"/></clipPath><mask id="44d72b247a"><g filter="url(#60f510ed9b)"><rect x="-37.5" width="450" fill="#000000" y="-37.499999" height="449.999989" fill-opacity="0.09"/></g></mask><clipPath id="bfb871deef"><path d="M 1 1 L 11.679688 1 L 11.679688 22 L 1 22 Z M 1 1 " clip-rule="nonzero"/></clipPath><clipPath id="7cb47691bb"><rect x="0" width="12" y="0" height="23"/></clipPath><mask id="658eb57485"><g filter="url(#60f510ed9b)"><rect x="-37.5" width="450" fill="#000000" y="-37.499999" height="449.999989" fill-opacity="0.09"/></g></mask><clipPath id="b5407162fa"><path d="M 0.839844 1 L 6.601562 1 L 6.601562 22 L 0.839844 22 Z M 0.839844 1 " clip-rule="nonzero"/></clipPath><clipPath id="3d0b8d041b"><rect x="0" width="7" y="0" height="23"/></clipPath><clipPath id="1e5b5f4e6f"><path d="M 117.621094 158 L 183.621094 158 L 183.621094 220.574219 L 117.621094 220.574219 Z M 117.621094 158 " clip-rule="nonzero"/></clipPath></defs><g clip-path="url(#06e724ea8a)"><path fill="#257205" d="M 359.882812 225.238281 C 356.320312 224.945312 353.09375 223.742188 350.203125 221.632812 L 361.484375 219.90625 C 357.339844 219.746094 353.363281 216.921875 351.425781 212.847656 C 354.390625 208.90625 356.722656 204.621094 358.414062 199.988281 C 357.320312 201.609375 355.980469 202.996094 354.394531 204.148438 C 352.808594 205.296875 351.074219 206.140625 349.1875 206.675781 C 348.371094 205.285156 347.425781 203.988281 346.351562 202.78125 C 346.925781 200.855469 347.652344 198.992188 348.539062 197.191406 C 347.40625 198.601562 346.191406 199.9375 344.882812 201.1875 C 344.253906 200.566406 343.570312 199.929688 342.785156 199.28125 C 343.332031 196.980469 343.84375 194.675781 344.289062 192.347656 C 343.828125 194.546875 343.046875 196.625 341.949219 198.582031 C 341.324219 198.070312 340.660156 197.5625 339.949219 197.039062 C 340.003906 194.640625 340.058594 192.246094 340.109375 189.84375 C 339.738281 191.917969 338.902344 193.78125 337.601562 195.4375 C 335.433594 194.015625 333.195312 192.710938 330.890625 191.523438 C 330.34375 189.574219 329.953125 187.59375 329.722656 185.582031 L 339.230469 162.335938 C 333.277344 169.207031 328.617188 176.867188 325.25 185.316406 C 325.167969 184.894531 325.082031 184.46875 324.992188 184.050781 C 327.867188 165.023438 331.652344 146.167969 336.347656 127.484375 C 333.796875 131.539062 331.539062 135.753906 329.578125 140.125 C 327.613281 144.496094 325.964844 148.984375 324.628906 153.585938 C 323.292969 158.1875 322.285156 162.859375 321.605469 167.601562 C 320.921875 172.34375 320.574219 177.113281 320.558594 181.90625 C 320.039062 180.726562 319.515625 179.542969 318.996094 178.359375 C 319.359375 179.792969 319.484375 181.242188 319.363281 182.714844 C 317.761719 175.179688 314.964844 168.121094 310.976562 161.53125 C 310.960938 169.308594 311.96875 176.953125 313.996094 184.464844 C 312.960938 184.121094 311.898438 183.765625 310.859375 183.464844 C 309.460938 181.554688 307.992188 179.6875 306.449219 177.871094 C 307.6875 176.035156 309.226562 174.492188 311.0625 173.25 C 308.890625 173.9375 306.792969 174.804688 304.769531 175.851562 C 303.640625 174.523438 302.484375 173.21875 301.277344 171.9375 C 301.898438 173.523438 302.578125 175.089844 303.296875 176.636719 C 301.46875 177.671875 299.722656 178.835938 298.066406 180.128906 L 297.550781 180.019531 C 297.6875 179.527344 297.769531 179.03125 297.796875 178.523438 C 297.796875 178.082031 297.796875 177.398438 296.804688 174.117188 C 296.339844 172.601562 295.957031 171.324219 295.257812 169.546875 C 294.441406 167.410156 293.554688 165.125 293.203125 165.226562 C 292.855469 165.332031 293.804688 167.941406 293.511719 171.566406 C 293.230469 175.019531 291.964844 177.464844 291.75 178.816406 L 290.351562 178.550781 C 289.136719 174.863281 288.339844 171.089844 287.96875 167.226562 C 287.710938 170.800781 287.160156 174.328125 286.3125 177.808594 L 284.96875 177.585938 C 284.75 172.730469 284.375 167.890625 283.835938 163.066406 C 284.234375 167.214844 283.792969 171.269531 282.523438 175.238281 L 279.027344 162.328125 C 279.140625 164.929688 278.871094 167.492188 278.21875 170.015625 C 277.660156 172.207031 276.820312 174.28125 275.695312 176.242188 C 259.101562 174.148438 241.292969 173.292969 223.273438 173.257812 C 222.667969 170.441406 222.390625 167.59375 222.441406 164.710938 C 221.785156 167.652344 220.855469 170.503906 219.644531 173.265625 L 218.945312 173.265625 C 217.632812 166.808594 216.800781 163.082031 216.703125 162.613281 C 217.5 166.128906 217.484375 169.644531 216.660156 173.152344 L 211.964844 162.507812 C 212.433594 164.367188 212.503906 166.242188 212.183594 168.128906 C 211.863281 170.019531 211.175781 171.765625 210.117188 173.363281 C 198.976562 173.566406 187.878906 174.0625 177.050781 174.648438 L 183.910156 157.875 C 179.472656 163.019531 175.890625 168.699219 173.160156 174.914062 L 172.132812 174.976562 C 174.523438 159.378906 177.648438 143.914062 181.511719 128.582031 C 179.324219 132.054688 177.398438 135.664062 175.726562 139.410156 C 174.054688 143.160156 172.65625 147.007812 171.535156 150.953125 C 170.410156 154.898438 169.570312 158.90625 169.019531 162.96875 C 168.464844 167.035156 168.203125 171.121094 168.230469 175.222656 L 167.246094 175.285156 C 165.910156 168.890625 163.554688 162.898438 160.179688 157.308594 C 160.171875 163.492188 160.933594 169.582031 162.464844 175.574219 L 160.082031 175.738281 C 157.550781 172.363281 154.847656 169.121094 151.980469 166.023438 C 153.335938 169.476562 154.964844 172.792969 156.871094 175.972656 C 151.40625 176.363281 146.058594 176.78125 140.867188 177.199219 C 139.914062 175.910156 139.273438 174.476562 138.949219 172.902344 C 138.625 171.332031 138.644531 169.761719 139.007812 168.199219 L 134.695312 177.710938 L 134.375 177.710938 C 133.421875 174.671875 133.273438 171.589844 133.925781 168.472656 C 133.199219 171.59375 132.585938 174.734375 132.089844 177.898438 L 131.082031 177.992188 C 129.769531 175.675781 128.703125 173.253906 127.886719 170.722656 C 128.078125 173.269531 127.941406 175.800781 127.476562 178.3125 L 116.835938 179.226562 C 115.125 176.957031 113.847656 174.464844 113 171.75 C 112.210938 169.246094 111.808594 166.683594 111.789062 164.0625 L 108.960938 177.125 C 107.492188 173.226562 106.84375 169.199219 107.023438 165.039062 C 106.730469 170.023438 106.601562 175.03125 106.640625 180.050781 L 105.382812 180.15625 C 104.320312 176.636719 103.566406 173.054688 103.117188 169.40625 C 102.933594 173.160156 102.351562 176.847656 101.371094 180.472656 L 99.742188 180.597656 C 99.28125 179.199219 98.167969 177.003906 97.769531 174 C 97.292969 170.394531 98.125 167.75 97.769531 167.660156 C 97.414062 167.570312 96.652344 169.898438 95.929688 172.070312 C 95.332031 173.902344 95.007812 175.179688 94.625 176.710938 C 93.875 179.71875 93.820312 180.5625 93.847656 181.023438 L 91.171875 181.207031 C 88.003906 179.296875 84.640625 177.835938 81.078125 176.832031 L 86.539062 163.488281 C 81.796875 168.96875 78.027344 175.054688 75.234375 181.742188 L 74.578125 181.742188 C 76.996094 165.746094 80.183594 149.890625 84.132812 134.171875 C 81.914062 137.699219 79.960938 141.367188 78.269531 145.175781 C 76.582031 148.988281 75.171875 152.898438 74.050781 156.910156 C 72.925781 160.921875 72.09375 164.996094 71.558594 169.128906 C 71.023438 173.261719 70.789062 177.410156 70.851562 181.578125 L 69.992188 181.578125 C 68.695312 174.933594 66.296875 168.714844 62.800781 162.921875 C 62.785156 169.269531 63.578125 175.511719 65.183594 181.652344 C 64.484375 181.695312 63.785156 181.75 63.019531 181.828125 C 61.507812 179.796875 59.9375 177.808594 58.308594 175.867188 C 58.308594 175.699219 58.363281 175.53125 58.398438 175.363281 L 58.238281 175.78125 C 57.0625 174.382812 55.859375 173.015625 54.625 171.679688 C 55.449219 173.796875 56.378906 175.871094 57.417969 177.894531 L 55.324219 183.449219 C 54.625 183.671875 53.988281 183.933594 53.332031 184.21875 C 52.832031 181.375 52.832031 178.535156 53.332031 175.691406 C 52.730469 178.757812 52.210938 181.855469 51.773438 184.960938 C 51.199219 185.265625 50.640625 185.597656 50.101562 185.957031 C 48.960938 183.472656 48.03125 180.910156 47.304688 178.269531 C 47.546875 181.792969 47.328125 185.289062 46.65625 188.753906 C 45.8125 187.691406 45.050781 186.574219 44.375 185.398438 C 44.578125 187.238281 44.851562 189.0625 45.171875 190.878906 C 44.324219 192.234375 43.667969 193.679688 43.210938 195.214844 L 41.679688 191.898438 C 41.761719 193.394531 41.851562 194.890625 41.945312 196.386719 L 41.546875 196.582031 C 40.085938 195.566406 38.855469 194.324219 37.855469 192.851562 C 36.859375 191.382812 36.15625 189.78125 35.75 188.046875 C 36.039062 191.972656 36.328125 195.894531 36.617188 199.820312 C 36.359375 200.042969 36.101562 200.273438 35.851562 200.519531 C 33.605469 197.734375 32.027344 194.609375 31.117188 191.152344 C 32.050781 194.878906 33.089844 198.59375 34.234375 202.292969 C 33.980469 202.625 33.726562 202.964844 33.480469 203.320312 C 30.964844 201.425781 28.664062 199.296875 26.574219 196.9375 C 28.269531 199.988281 29.5625 203.199219 30.453125 206.570312 C 28.242188 205.296875 26.230469 203.757812 24.421875 201.957031 C 25.664062 204.882812 27.242188 207.613281 29.160156 210.148438 C 29.964844 211.226562 30.828125 212.25 31.761719 213.21875 C 32.019531 213.742188 32.332031 214.234375 32.703125 214.6875 C 30.976562 213.578125 29.5 212.203125 28.265625 210.5625 C 29.015625 212.320312 29.859375 214.027344 30.796875 215.691406 C 27.113281 217.609375 23.777344 220.011719 20.789062 222.890625 C 22.207031 222.136719 23.707031 221.621094 25.289062 221.339844 C 26.871094 221.058594 28.457031 221.027344 30.046875 221.25 C 30.144531 221.667969 30.265625 222.085938 30.40625 222.519531 C 30.988281 224.257812 31.824219 225.863281 32.914062 227.335938 C 42.699219 240.46875 59.097656 245.082031 59.097656 245.082031 C 61.59375 245.796875 64.132812 246.316406 66.707031 246.640625 C 140.097656 255.253906 186.710938 255.46875 186.710938 255.46875 C 186.710938 255.46875 214.765625 255.59375 265.105469 254.28125 C 297.136719 253.449219 324.878906 252.289062 342.625 232.84375 C 343.515625 231.871094 344.722656 230.539062 345.933594 228.921875 C 349.429688 229.035156 352.804688 229.734375 356.058594 231.019531 C 353.382812 229.132812 350.953125 226.972656 348.761719 224.539062 L 348.992188 224.109375 C 352.578125 224.640625 356.242188 225.003906 359.882812 225.238281 Z M 58.734375 182.464844 C 58.414062 181.40625 58.21875 180.328125 58.140625 179.226562 C 58.6875 180.25 59.269531 181.25 59.878906 182.234375 C 59.496094 182.304688 59.117188 182.378906 58.734375 182.464844 Z M 79.085938 181.765625 L 81 177.089844 C 82.785156 178.300781 84.296875 179.792969 85.539062 181.554688 C 83.214844 181.65625 81.0625 181.722656 79.085938 181.75 Z M 305.105469 180.261719 C 305.441406 180.890625 305.804688 181.511719 306.148438 182.136719 C 305.589844 181.980469 305.042969 181.820312 304.476562 181.675781 C 304.667969 181.207031 304.882812 180.710938 305.105469 180.25 Z M 305.105469 180.261719 " fill-opacity="1" fill-rule="nonzero"/></g><path fill="#257205" d="M 216.71875 162.621094 C 216.714844 162.605469 216.714844 162.59375 216.71875 162.578125 C 216.71875 162.578125 216.703125 162.566406 216.71875 162.621094 Z M 216.71875 162.621094 " fill-opacity="1" fill-rule="nonzero"/><g clip-path="url(#92114bae7e)"><g mask="url(#deae4ad840)"><g transform="matrix(1, 0, 0, 1, 20, 196)"><g clip-path="url(#adbbc1cf04)"><path fill="#000000" d="M 327.140625 3.226562 C 327.015625 3.410156 326.90625 3.605469 326.804688 3.804688 C 326.375 4.742188 326.214844 5.722656 326.324219 6.746094 C 326.785156 5.21875 327.347656 3.726562 328 2.265625 C 328.167969 1.898438 328.335938 1.535156 328.511719 1.183594 C 328.253906 1.449219 328.019531 1.730469 327.8125 2.035156 C 327.546875 2.410156 327.324219 2.804688 327.140625 3.226562 Z M 327.140625 3.226562 " fill-opacity="1" fill-rule="nonzero"/><g clip-path="url(#5ae4e4e76d)"><path fill="#000000" d="M 339.882812 29.238281 C 336.320312 28.9375 333.097656 27.734375 330.210938 25.625 L 341.492188 23.90625 C 337.339844 23.738281 333.367188 20.921875 331.425781 16.839844 C 334.394531 12.902344 336.722656 8.617188 338.414062 3.988281 C 337.320312 5.609375 335.976562 6.996094 334.394531 8.144531 C 332.808594 9.296875 331.074219 10.136719 329.1875 10.675781 C 328.707031 9.851562 328.175781 9.0625 327.59375 8.304688 L 326.351562 6.78125 C 325.566406 6.621094 324.773438 6.558594 323.976562 6.585938 C 322.714844 6.625 321.5 6.882812 320.335938 7.367188 C 319.171875 7.847656 318.128906 8.519531 317.210938 9.382812 C 314.492188 12.3125 316.460938 17.195312 316.449219 20.089844 C 316.414062 29.210938 296.449219 38.621094 267.359375 45.484375 C 261.167969 46.953125 240.535156 48.425781 199.519531 51.328125 C 189.804688 52.027344 179.871094 52.691406 166.4375 52.871094 C 159.589844 52.960938 147.617188 53.128906 135.257812 52.324219 C 110.507812 50.710938 100.679688 46.292969 40.53125 33.894531 L 32.925781 32.335938 C 32.925781 32.335938 19.925781 28.6875 10.1875 18.628906 C 10.382812 19 10.585938 19.363281 10.789062 19.726562 C 7.109375 21.648438 3.773438 24.050781 0.78125 26.925781 C 2.199219 26.171875 3.699219 25.65625 5.28125 25.378906 C 6.863281 25.097656 8.449219 25.070312 10.042969 25.289062 C 10.144531 25.703125 10.257812 26.128906 10.398438 26.5625 C 10.984375 28.285156 11.824219 29.878906 12.914062 31.335938 C 22.699219 44.476562 39.097656 49.082031 39.097656 49.082031 C 41.59375 49.792969 44.132812 50.3125 46.707031 50.640625 C 120.097656 59.246094 166.710938 59.460938 166.710938 59.460938 C 166.710938 59.460938 194.765625 59.59375 245.105469 58.28125 C 277.144531 57.441406 304.878906 56.289062 322.625 36.835938 C 323.515625 35.867188 324.722656 34.539062 325.9375 32.921875 C 329.4375 33.027344 332.808594 33.726562 336.058594 35.019531 C 333.386719 33.132812 330.953125 30.972656 328.761719 28.539062 L 328.992188 28.109375 C 332.578125 28.632812 336.242188 28.996094 339.882812 29.238281 Z M 339.882812 29.238281 " fill-opacity="1" fill-rule="nonzero"/></g></g></g></g></g><g mask="url(#c7c98d31c9)"><g transform="matrix(1, 0, 0, 1, 74, 180)"><g clip-path="url(#84bf4c58d9)"><g clip-path="url(#d8cac0785f)"><path fill="#000000" d="M 223.664062 17.238281 C 213.144531 10.984375 204.386719 18.289062 189.359375 12.011719 C 185.289062 10.3125 183.355469 8.777344 180.761719 7.078125 C 168.179688 -1.191406 153.699219 -0.0507812 110.007812 3.378906 C 94.042969 4.628906 78.105469 6.421875 62.105469 7.210938 C 59.882812 7.320312 49.660156 7.734375 36.203125 9.433594 C 9.988281 12.730469 5.324219 16.582031 3.269531 20.390625 C 0.703125 25.179688 0.933594 32.371094 4.402344 36.027344 C 5.988281 37.707031 7.386719 37.71875 11.691406 39.003906 C 25.839844 43.246094 29.222656 48.691406 42.144531 49.789062 C 42.410156 49.789062 42.703125 49.839844 43.390625 49.878906 C 70.285156 51.621094 86.722656 46.855469 108.484375 49.878906 C 126.332031 52.335938 135.742188 58.359375 153.125 56.78125 C 156.460938 56.484375 159.765625 55.964844 163.035156 55.226562 C 171.820312 52.328125 174.527344 48.121094 189.40625 43.785156 C 190.804688 43.367188 198.695312 41.519531 214.5 38.039062 C 227.710938 35.125 231.769531 34.308594 232.785156 31.253906 C 234.167969 27.066406 229.28125 20.585938 223.664062 17.238281 Z M 223.664062 17.238281 " fill-opacity="1" fill-rule="nonzero"/></g></g></g></g><path fill="#4b99f5" d="M 111.113281 194.640625 C 124.394531 193.046875 134.472656 192.667969 136.671875 192.542969 C 152.449219 191.84375 168.160156 190.136719 183.914062 188.972656 C 227.003906 185.777344 241.285156 184.714844 253.710938 192.5625 C 256.269531 194.179688 258.1875 195.640625 262.199219 197.246094 C 277.023438 203.214844 285.65625 196.304688 296.042969 202.25 C 301.589844 205.425781 306.414062 211.5625 305.058594 215.53125 C 304.058594 218.433594 300.058594 219.199219 287.03125 221.941406 C 271.445312 225.21875 263.695312 226.960938 262.289062 227.351562 C 247.609375 231.441406 244.949219 235.421875 236.289062 238.164062 C 233.058594 238.855469 229.796875 239.339844 226.503906 239.617188 C 209.335938 241.09375 200.066406 235.375 182.46875 233.019531 C 160.988281 230.152344 144.789062 234.65625 118.261719 232.964844 L 117.027344 232.878906 C 104.285156 231.816406 100.949219 226.660156 86.972656 222.617188 C 82.722656 221.394531 81.378906 221.382812 79.773438 219.824219 C 76.355469 216.328125 76.117188 209.542969 78.640625 205.003906 C 80.6875 201.363281 85.257812 197.730469 111.113281 194.640625 Z M 111.113281 194.640625 " fill-opacity="1" fill-rule="nonzero"/><g mask="url(#a95228a720)"><g transform="matrix(1, 0, 0, 1, 76, 186)"><g clip-path="url(#d36bcda473)"><g clip-path="url(#a6c253fd9f)"><path fill="#000000" d="M 35.113281 8.640625 C 48.394531 7.046875 58.472656 6.667969 60.671875 6.542969 C 76.449219 5.84375 92.160156 4.136719 107.914062 2.972656 C 151.003906 -0.222656 165.285156 -1.285156 177.710938 6.5625 C 180.269531 8.179688 182.1875 9.640625 186.199219 11.246094 C 201.023438 17.214844 209.65625 10.304688 220.042969 16.25 C 225.589844 19.425781 230.414062 25.5625 229.058594 29.53125 C 228.058594 32.433594 224.058594 33.199219 211.03125 35.941406 C 195.445312 39.21875 187.695312 40.960938 186.289062 41.351562 C 171.609375 45.441406 168.949219 49.421875 160.289062 52.164062 C 157.058594 52.855469 153.796875 53.339844 150.503906 53.617188 C 133.335938 55.09375 124.066406 49.375 106.46875 47.019531 C 84.988281 44.152344 68.789062 48.65625 42.261719 46.964844 L 41.027344 46.878906 C 28.285156 45.816406 24.949219 40.660156 10.972656 36.617188 C 6.722656 35.394531 5.378906 35.382812 3.773438 33.824219 C 0.355469 30.328125 0.117188 23.542969 2.640625 19.003906 C 4.6875 15.363281 9.257812 11.730469 35.113281 8.640625 Z M 35.113281 8.640625 " fill-opacity="1" fill-rule="nonzero"/></g></g></g></g><g mask="url(#1ca8605892)"><g transform="matrix(1, 0, 0, 1, 93, 195)"><g clip-path="url(#b4047dfe12)"><g clip-path="url(#6ae1e9cb46)"><path fill="#4b99f5" d="M 29.839844 6.839844 C 41.082031 5.664062 49.621094 5.441406 51.507812 5.335938 C 64.878906 4.824219 78.179688 3.597656 91.523438 2.75 C 128.015625 0.4375 140.109375 -0.332031 150.660156 5.6875 C 152.9375 7.128906 155.339844 8.328125 157.859375 9.277344 C 170.441406 13.863281 177.730469 8.621094 186.554688 13.179688 C 191.257812 15.609375 195.359375 20.300781 194.242188 23.304688 C 193.402344 25.507812 190.046875 26.101562 178.988281 28.136719 C 165.800781 30.589844 159.230469 31.890625 158.023438 32.191406 C 145.609375 35.265625 143.34375 38.285156 136.027344 40.347656 C 133.277344 40.867188 130.511719 41.226562 127.722656 41.421875 C 113.183594 42.5 105.320312 38.117188 90.390625 36.277344 C 72.21875 34.027344 58.476562 37.410156 36 36.054688 L 34.957031 35.984375 C 24.160156 35.140625 21.308594 31.199219 9.472656 28.085938 C 5.875 27.136719 4.707031 27.128906 3.363281 25.914062 C 0.457031 23.25 0.269531 18.078125 2.367188 14.632812 C 4.0625 11.878906 7.957031 9.125 29.839844 6.839844 Z M 29.839844 6.839844 " fill-opacity="1" fill-rule="nonzero"/></g></g></g></g><g mask="url(#afd60af6ce)"><g transform="matrix(1, 0, 0, 1, 103, 199)"><g clip-path="url(#4eecd2e114)"><g clip-path="url(#d4bf00e191)"><path fill="#ffffff" d="M 26.859375 5.664062 C 36.761719 4.636719 44.289062 4.410156 45.925781 4.347656 C 57.703125 3.894531 69.433594 2.816406 81.179688 2.078125 C 113.332031 0.0585938 124 -0.621094 133.292969 4.664062 C 135.304688 5.929688 137.417969 6.980469 139.640625 7.816406 C 150.726562 11.847656 157.148438 7.242188 164.921875 11.246094 C 169.066406 13.386719 172.6875 17.503906 171.679688 20.136719 C 170.949219 22.074219 167.960938 22.578125 158.242188 24.378906 C 146.617188 26.535156 140.828125 27.679688 139.789062 27.9375 C 128.84375 30.636719 126.863281 33.292969 120.40625 35.101562 C 117.992188 35.546875 115.5625 35.851562 113.117188 36.023438 C 100.304688 36.960938 93.371094 33.117188 80.214844 31.496094 C 64.175781 29.523438 52.097656 32.488281 32.289062 31.292969 L 31.367188 31.238281 C 21.855469 30.488281 19.34375 27.042969 8.910156 24.296875 C 5.734375 23.464844 4.714844 23.457031 3.535156 22.386719 C 0.96875 20.0625 0.773438 15.496094 2.648438 12.46875 C 4.144531 10.085938 7.566406 7.667969 26.859375 5.664062 Z M 26.859375 5.664062 " fill-opacity="1" fill-rule="nonzero"/></g></g></g></g><g mask="url(#45a9841b4f)"><g transform="matrix(1, 0, 0, 1, 132, 205)"><g clip-path="url(#63d49b90a3)"><g clip-path="url(#4441657657)"><path fill="#ffffff" d="M 17.34375 4.113281 C 23.453125 3.480469 28.101562 3.339844 29.109375 3.296875 C 36.378906 3.023438 43.613281 2.359375 50.867188 1.898438 C 70.710938 0.65625 77.28125 0.234375 83.019531 3.492188 C 84.257812 4.277344 85.5625 4.925781 86.933594 5.441406 C 93.777344 7.929688 97.738281 5.085938 102.535156 7.539062 C 105.089844 8.855469 107.328125 11.398438 106.726562 13.027344 C 106.273438 14.222656 104.433594 14.53125 98.429688 15.640625 C 91.257812 16.96875 87.695312 17.675781 87.042969 17.835938 C 80.292969 19.5 79.078125 21.140625 75.085938 22.253906 C 73.597656 22.535156 72.101562 22.730469 70.589844 22.839844 C 62.6875 23.421875 58.410156 21.050781 50.320312 20.042969 C 40.425781 18.828125 32.972656 20.660156 20.75 19.917969 L 20.183594 19.882812 C 14.3125 19.421875 12.761719 17.289062 6.324219 15.597656 C 4.367188 15.089844 3.730469 15.082031 3.011719 14.425781 C 1.421875 12.984375 1.304688 10.175781 2.464844 8.300781 C 3.332031 6.839844 5.441406 5.351562 17.34375 4.113281 Z M 17.34375 4.113281 " fill-opacity="1" fill-rule="nonzero"/></g></g></g></g><path fill="#257205" d="M 313.988281 138.722656 L 318.734375 187.1875 L 320.078125 200.917969 C 320.191406 202.019531 321.9375 202.035156 321.824219 200.917969 L 317.078125 152.449219 L 315.738281 138.722656 C 315.632812 137.621094 313.878906 137.605469 313.988281 138.722656 Z M 313.988281 138.722656 " fill-opacity="1" fill-rule="nonzero"/><g clip-path="url(#5939caca91)"><path fill="#842c49" d="M 312.886719 122.332031 C 312.5 122.371094 312.132812 122.484375 311.789062 122.667969 C 311.445312 122.851562 311.152344 123.09375 310.902344 123.394531 C 310.65625 123.695312 310.476562 124.03125 310.359375 124.402344 C 310.246094 124.773438 310.207031 125.152344 310.242188 125.542969 L 312.039062 144.058594 C 312.078125 144.445312 312.1875 144.8125 312.371094 145.15625 C 312.554688 145.5 312.800781 145.796875 313.101562 146.042969 C 313.402344 146.292969 313.738281 146.472656 314.113281 146.585938 C 314.484375 146.699219 314.867188 146.738281 315.253906 146.699219 C 315.644531 146.660156 316.011719 146.550781 316.355469 146.367188 C 316.699219 146.183594 316.996094 145.941406 317.242188 145.636719 C 317.488281 145.335938 317.671875 145 317.785156 144.625 C 317.898438 144.253906 317.933594 143.871094 317.898438 143.484375 L 316.09375 124.976562 C 316.054688 124.589844 315.945312 124.222656 315.761719 123.878906 C 315.578125 123.535156 315.335938 123.242188 315.035156 122.992188 C 314.734375 122.746094 314.398438 122.566406 314.023438 122.449219 C 313.652344 122.335938 313.273438 122.296875 312.886719 122.332031 Z M 312.886719 122.332031 " fill-opacity="1" fill-rule="nonzero"/></g><g clip-path="url(#6f992a1c50)"><g mask="url(#eaa060edd2)"><g transform="matrix(1, 0, 0, 1, 311, 122)"><g clip-path="url(#c285c03c4b)"><g clip-path="url(#784f8b2efb)"><path fill="#000000" d="M 5.078125 2.976562 C 5.03125 2.488281 4.871094 2.039062 4.601562 1.628906 C 4.328125 1.21875 3.976562 0.902344 3.542969 0.667969 L 5.148438 17.199219 C 5.207031 17.738281 5.117188 18.253906 4.886719 18.746094 C 4.65625 19.238281 4.3125 19.636719 3.859375 19.9375 C 3.40625 20.238281 2.910156 20.398438 2.367188 20.425781 C 1.824219 20.449219 1.316406 20.332031 0.835938 20.070312 L 1.027344 22.058594 C 1.0625 22.445312 1.175781 22.8125 1.359375 23.15625 C 1.542969 23.5 1.785156 23.796875 2.085938 24.042969 C 2.386719 24.292969 2.726562 24.472656 3.097656 24.585938 C 3.472656 24.699219 3.851562 24.738281 4.242188 24.699219 C 4.628906 24.660156 4.996094 24.550781 5.339844 24.367188 C 5.683594 24.183594 5.980469 23.941406 6.226562 23.636719 C 6.476562 23.335938 6.65625 23 6.769531 22.625 C 6.882812 22.253906 6.921875 21.871094 6.882812 21.484375 Z M 5.078125 2.976562 " fill-opacity="1" fill-rule="nonzero"/></g></g></g></g></g><path fill="#257205" d="M 338.054688 139.378906 L 325.941406 182.375 L 322.523438 194.484375 C 322.464844 194.699219 322.492188 194.898438 322.601562 195.089844 C 322.707031 195.28125 322.867188 195.40625 323.082031 195.464844 C 323.292969 195.523438 323.492188 195.5 323.683594 195.390625 C 323.878906 195.285156 324.003906 195.125 324.0625 194.914062 L 336.183594 151.917969 L 339.585938 139.835938 C 339.625 139.628906 339.589844 139.4375 339.480469 139.257812 C 339.367188 139.082031 339.210938 138.964844 339.011719 138.910156 C 338.808594 138.851562 338.613281 138.875 338.429688 138.96875 C 338.242188 139.066406 338.113281 139.210938 338.042969 139.410156 Z M 338.054688 139.378906 " fill-opacity="1" fill-rule="nonzero"/><path fill="#842c49" d="M 342.597656 124.949219 C 342.253906 124.851562 341.90625 124.824219 341.550781 124.863281 C 341.199219 124.90625 340.863281 125.015625 340.554688 125.191406 C 340.242188 125.363281 339.976562 125.589844 339.753906 125.871094 C 339.535156 126.152344 339.375 126.464844 339.277344 126.804688 L 334.644531 143.195312 C 334.527344 143.546875 334.484375 143.90625 334.515625 144.273438 C 334.542969 144.640625 334.644531 144.988281 334.816406 145.3125 C 334.988281 145.640625 335.21875 145.917969 335.503906 146.152344 C 335.792969 146.382812 336.113281 146.546875 336.46875 146.648438 C 336.824219 146.75 337.183594 146.777344 337.546875 146.730469 C 337.914062 146.679688 338.257812 146.5625 338.574219 146.375 C 338.890625 146.1875 339.160156 145.945312 339.378906 145.648438 C 339.597656 145.351562 339.746094 145.023438 339.832031 144.664062 L 344.457031 128.265625 C 344.554688 127.925781 344.578125 127.574219 344.539062 127.222656 C 344.496094 126.867188 344.386719 126.535156 344.210938 126.222656 C 344.039062 125.914062 343.8125 125.648438 343.53125 125.425781 C 343.253906 125.203125 342.941406 125.046875 342.597656 124.949219 Z M 342.597656 124.949219 " fill-opacity="1" fill-rule="nonzero"/><g mask="url(#de52693f7f)"><g transform="matrix(1, 0, 0, 1, 334, 125)"><g clip-path="url(#59176770ff)"><g clip-path="url(#ba0d9cd66c)"><path fill="#000000" d="M 10.449219 3.265625 C 10.570312 2.832031 10.582031 2.398438 10.484375 1.957031 C 10.386719 1.519531 10.191406 1.128906 9.898438 0.785156 L 5.765625 15.421875 C 5.667969 15.765625 5.507812 16.078125 5.285156 16.355469 C 5.066406 16.636719 4.796875 16.863281 4.488281 17.039062 C 4.175781 17.210938 3.84375 17.320312 3.488281 17.363281 C 3.132812 17.402344 2.785156 17.378906 2.441406 17.28125 C 1.90625 17.140625 1.460938 16.859375 1.105469 16.4375 L 0.609375 18.191406 C 0.492188 18.539062 0.449219 18.898438 0.480469 19.265625 C 0.507812 19.632812 0.609375 19.980469 0.78125 20.304688 C 0.953125 20.632812 1.183594 20.910156 1.472656 21.144531 C 1.757812 21.375 2.078125 21.542969 2.433594 21.640625 C 2.789062 21.742188 3.148438 21.769531 3.515625 21.722656 C 3.878906 21.675781 4.222656 21.558594 4.539062 21.371094 C 4.855469 21.183594 5.125 20.941406 5.34375 20.640625 C 5.5625 20.34375 5.710938 20.015625 5.796875 19.65625 Z M 10.449219 3.265625 " fill-opacity="1" fill-rule="nonzero"/></g></g></g></g><path fill="#257205" d="M 237.699219 221.96875 C 237.6875 227.40625 238.582031 232.691406 240.382812 237.820312 C 238.007812 234.210938 235.351562 230.816406 232.421875 227.636719 C 234.054688 231.832031 236.300781 235.667969 239.152344 239.148438 L 241.417969 239.429688 L 240.832031 238.511719 L 242.894531 237.8125 C 242.378906 232.132812 240.648438 226.851562 237.699219 221.96875 Z M 237.699219 221.96875 " fill-opacity="1" fill-rule="nonzero"/><path fill="#257205" d="M 253.046875 222.375 C 249.5625 226.394531 246.898438 230.894531 245.050781 235.886719 C 246.640625 224.953125 248.789062 214.136719 251.488281 203.425781 C 249.851562 206.023438 248.4375 208.738281 247.25 211.570312 C 246.058594 214.402344 245.109375 217.3125 244.402344 220.300781 C 243.691406 223.289062 243.234375 226.316406 243.027344 229.378906 C 242.816406 232.445312 242.859375 235.503906 243.160156 238.5625 L 244.792969 237.632812 C 244.792969 237.519531 244.792969 237.402344 244.84375 237.289062 L 247.050781 237.03125 Z M 253.046875 222.375 " fill-opacity="1" fill-rule="nonzero"/><path fill="#257205" d="M 65.308594 143.652344 L 69.300781 184.421875 L 70.433594 196.039062 C 70.523438 196.972656 72 196.980469 71.910156 196.039062 L 67.898438 155.273438 L 66.757812 143.652344 C 66.667969 142.722656 65.191406 142.707031 65.289062 143.652344 Z M 65.308594 143.652344 " fill-opacity="1" fill-rule="nonzero"/><path fill="#842c49" d="M 64.351562 129.847656 C 64.027344 129.878906 63.71875 129.972656 63.429688 130.125 C 63.136719 130.28125 62.890625 130.484375 62.679688 130.738281 C 62.472656 130.992188 62.320312 131.277344 62.226562 131.589844 C 62.128906 131.90625 62.097656 132.226562 62.128906 132.550781 L 63.648438 148.144531 C 63.710938 148.441406 63.824219 148.71875 63.992188 148.972656 C 64.15625 149.226562 64.363281 149.445312 64.609375 149.625 C 64.851562 149.800781 65.121094 149.929688 65.414062 150.011719 C 65.707031 150.089844 66.007812 150.117188 66.308594 150.085938 C 66.609375 150.054688 66.898438 149.972656 67.167969 149.839844 C 67.441406 149.703125 67.679688 149.523438 67.886719 149.300781 C 68.089844 149.078125 68.25 148.824219 68.363281 148.542969 C 68.476562 148.261719 68.535156 147.96875 68.539062 147.664062 L 67.058594 132.070312 C 67.027344 131.742188 66.933594 131.433594 66.777344 131.144531 C 66.625 130.855469 66.417969 130.605469 66.167969 130.398438 C 65.914062 130.1875 65.628906 130.039062 65.3125 129.941406 C 65 129.847656 64.679688 129.816406 64.351562 129.847656 Z M 64.351562 129.847656 " fill-opacity="1" fill-rule="nonzero"/><g mask="url(#6fa6f73562)"><g transform="matrix(1, 0, 0, 1, 63, 129)"><g clip-path="url(#980d7bf4bb)"><g clip-path="url(#4885100a7d)"><path fill="#000000" d="M 4.050781 3.070312 C 4.007812 2.65625 3.875 2.28125 3.644531 1.9375 C 3.414062 1.59375 3.117188 1.320312 2.75 1.125 L 4.105469 15.058594 C 4.136719 15.382812 4.101562 15.703125 4.003906 16.015625 C 3.910156 16.332031 3.753906 16.613281 3.546875 16.867188 C 3.339844 17.121094 3.089844 17.324219 2.800781 17.480469 C 2.511719 17.632812 2.203125 17.726562 1.878906 17.761719 C 1.382812 17.808594 0.917969 17.710938 0.480469 17.476562 L 0.640625 19.144531 C 0.671875 19.472656 0.765625 19.78125 0.917969 20.070312 C 1.074219 20.359375 1.277344 20.609375 1.53125 20.816406 C 1.785156 21.027344 2.070312 21.175781 2.382812 21.273438 C 2.699219 21.367188 3.019531 21.398438 3.34375 21.367188 C 3.671875 21.335938 3.980469 21.242188 4.269531 21.089844 C 4.558594 20.933594 4.808594 20.730469 5.015625 20.476562 C 5.226562 20.222656 5.375 19.9375 5.472656 19.625 C 5.566406 19.308594 5.597656 18.988281 5.566406 18.664062 Z M 4.050781 3.070312 " fill-opacity="1" fill-rule="nonzero"/></g></g></g></g><path fill="#257205" d="M 90.667969 147.578125 L 78.589844 190.570312 L 75.179688 202.664062 C 75.140625 202.871094 75.175781 203.0625 75.285156 203.238281 C 75.398438 203.417969 75.554688 203.535156 75.753906 203.589844 C 75.957031 203.644531 76.152344 203.625 76.335938 203.53125 C 76.523438 203.433594 76.652344 203.285156 76.722656 203.089844 L 88.835938 160.097656 L 92.25 148.003906 C 92.289062 147.800781 92.25 147.609375 92.140625 147.429688 C 92.03125 147.253906 91.875 147.136719 91.671875 147.078125 C 91.46875 147.023438 91.277344 147.042969 91.089844 147.140625 C 90.902344 147.234375 90.773438 147.382812 90.703125 147.578125 Z M 90.667969 147.578125 " fill-opacity="1" fill-rule="nonzero"/><path fill="#842c49" d="M 95.210938 133.152344 C 94.867188 133.054688 94.519531 133.027344 94.164062 133.070312 C 93.8125 133.113281 93.476562 133.222656 93.167969 133.394531 C 92.855469 133.570312 92.589844 133.796875 92.367188 134.078125 C 92.148438 134.355469 91.988281 134.667969 91.890625 135.011719 L 87.257812 151.402344 C 87.167969 151.742188 87.144531 152.089844 87.191406 152.441406 C 87.234375 152.789062 87.34375 153.121094 87.519531 153.425781 C 87.695312 153.734375 87.921875 153.996094 88.199219 154.214844 C 88.480469 154.429688 88.789062 154.585938 89.128906 154.683594 C 89.46875 154.777344 89.8125 154.808594 90.164062 154.765625 C 90.515625 154.726562 90.84375 154.621094 91.15625 154.453125 C 91.464844 154.28125 91.730469 154.058594 91.953125 153.785156 C 92.175781 153.507812 92.335938 153.203125 92.4375 152.863281 L 97.070312 136.472656 C 97.167969 136.128906 97.195312 135.78125 97.152344 135.425781 C 97.109375 135.070312 97.003906 134.738281 96.828125 134.429688 C 96.65625 134.117188 96.425781 133.851562 96.148438 133.628906 C 95.867188 133.410156 95.554688 133.25 95.210938 133.152344 Z M 95.210938 133.152344 " fill-opacity="1" fill-rule="nonzero"/><g mask="url(#44d72b247a)"><g transform="matrix(1, 0, 0, 1, 86, 133)"><g clip-path="url(#7cb47691bb)"><g clip-path="url(#bfb871deef)"><path fill="#000000" d="M 11.058594 3.472656 C 11.179688 3.042969 11.191406 2.605469 11.09375 2.167969 C 10.996094 1.730469 10.804688 1.339844 10.511719 1 L 6.375 15.636719 C 6.242188 16.113281 5.992188 16.523438 5.632812 16.863281 C 5.269531 17.207031 4.847656 17.429688 4.363281 17.535156 C 3.875 17.640625 3.398438 17.617188 2.925781 17.457031 C 2.457031 17.296875 2.0625 17.027344 1.738281 16.648438 L 1.242188 18.402344 C 1.164062 18.742188 1.152344 19.082031 1.203125 19.421875 C 1.257812 19.765625 1.371094 20.085938 1.546875 20.386719 C 1.722656 20.683594 1.949219 20.9375 2.222656 21.152344 C 2.5 21.363281 2.804688 21.515625 3.136719 21.609375 C 3.46875 21.703125 3.808594 21.734375 4.15625 21.699219 C 4.5 21.660156 4.824219 21.5625 5.132812 21.398438 C 5.4375 21.238281 5.703125 21.023438 5.929688 20.761719 C 6.152344 20.496094 6.320312 20.199219 6.429688 19.871094 Z M 11.058594 3.472656 " fill-opacity="1" fill-rule="nonzero"/></g></g></g></g><path fill="#257205" d="M 206.933594 217.550781 C 206.917969 226.03125 208.316406 234.269531 211.125 242.265625 C 207.414062 236.632812 203.269531 231.332031 198.699219 226.371094 C 201.238281 232.921875 204.734375 238.914062 209.183594 244.347656 L 212.71875 244.789062 C 212.417969 244.308594 212.105469 243.832031 211.796875 243.355469 L 215.019531 242.28125 C 214.625 237.90625 213.746094 233.628906 212.382812 229.457031 C 211.015625 225.28125 209.199219 221.3125 206.933594 217.550781 Z M 206.933594 217.550781 " fill-opacity="1" fill-rule="nonzero"/><path fill="#257205" d="M 230.886719 218.171875 C 225.441406 224.445312 221.273438 231.46875 218.378906 239.253906 C 220.863281 222.195312 224.210938 205.308594 228.425781 188.59375 C 225.871094 192.648438 223.667969 196.886719 221.816406 201.304688 C 219.960938 205.722656 218.484375 210.261719 217.382812 214.925781 C 216.277344 219.585938 215.5625 224.308594 215.242188 229.089844 C 214.917969 233.871094 214.988281 238.644531 215.453125 243.414062 L 218.003906 241.964844 L 218.085938 241.425781 L 221.527344 241.027344 Z M 230.886719 218.171875 " fill-opacity="1" fill-rule="nonzero"/><path fill="#257205" d="M 209.699219 189.203125 L 213.734375 230.355469 L 214.886719 242.015625 C 214.976562 242.953125 216.457031 242.964844 216.367188 242.015625 L 212.339844 200.851562 L 211.203125 189.222656 C 211.113281 188.277344 209.621094 188.273438 209.714844 189.222656 Z M 209.699219 189.203125 " fill-opacity="1" fill-rule="nonzero"/><path fill="#842c49" d="M 208.761719 175.285156 C 208.433594 175.320312 208.125 175.414062 207.832031 175.570312 C 207.539062 175.722656 207.289062 175.929688 207.078125 176.1875 C 206.867188 176.441406 206.714844 176.726562 206.617188 177.042969 C 206.519531 177.359375 206.488281 177.683594 206.519531 178.011719 L 208.050781 193.722656 C 208.082031 194.054688 208.175781 194.363281 208.332031 194.65625 C 208.488281 194.949219 208.695312 195.199219 208.949219 195.410156 C 209.203125 195.617188 209.492188 195.773438 209.808594 195.867188 C 210.125 195.964844 210.445312 195.996094 210.777344 195.964844 C 211.105469 195.933594 211.414062 195.839844 211.707031 195.683594 C 212 195.527344 212.25 195.324219 212.460938 195.066406 C 212.671875 194.8125 212.824219 194.527344 212.921875 194.210938 C 213.019531 193.894531 213.050781 193.570312 213.019531 193.242188 L 211.488281 177.53125 C 211.457031 177.199219 211.363281 176.890625 211.207031 176.597656 C 211.050781 176.304688 210.84375 176.054688 210.589844 175.84375 C 210.332031 175.632812 210.046875 175.480469 209.730469 175.382812 C 209.414062 175.289062 209.09375 175.253906 208.761719 175.285156 Z M 208.761719 175.285156 " fill-opacity="1" fill-rule="nonzero"/><g mask="url(#658eb57485)"><g transform="matrix(1, 0, 0, 1, 207, 174)"><g clip-path="url(#3d0b8d041b)"><g clip-path="url(#b5407162fa)"><path fill="#000000" d="M 4.476562 3.53125 C 4.4375 3.113281 4.300781 2.734375 4.070312 2.386719 C 3.835938 2.039062 3.535156 1.765625 3.167969 1.574219 L 4.53125 15.59375 C 4.5625 15.921875 4.53125 16.246094 4.433594 16.558594 C 4.335938 16.875 4.183594 17.160156 3.972656 17.417969 C 3.765625 17.671875 3.515625 17.878906 3.222656 18.035156 C 2.933594 18.191406 2.621094 18.285156 2.292969 18.320312 C 1.796875 18.363281 1.332031 18.265625 0.894531 18.027344 L 1.058594 19.710938 C 1.089844 20.039062 1.183594 20.351562 1.339844 20.640625 C 1.496094 20.933594 1.699219 21.183594 1.957031 21.394531 C 2.210938 21.605469 2.496094 21.757812 2.8125 21.855469 C 3.128906 21.949219 3.453125 21.980469 3.78125 21.949219 C 4.113281 21.917969 4.421875 21.824219 4.714844 21.667969 C 5.007812 21.515625 5.257812 21.308594 5.46875 21.054688 C 5.679688 20.796875 5.832031 20.511719 5.929688 20.195312 C 6.027344 19.878906 6.058594 19.558594 6.027344 19.226562 Z M 4.476562 3.53125 " fill-opacity="1" fill-rule="nonzero"/></g></g></g></g><g clip-path="url(#1e5b5f4e6f)"><path fill="#000000" d="M 180.667969 190.757812 C 179.957031 189.054688 179.285156 187.445312 178.96875 185.71875 C 178.90625 185.394531 178.855469 185.058594 178.804688 184.71875 C 178.539062 182.984375 178.238281 181.015625 176.671875 179.886719 C 175.140625 178.78125 173.117188 179.066406 171.730469 179.707031 C 170.628906 180.210938 169.699219 180.953125 168.792969 181.671875 C 168.523438 181.890625 168.253906 182.113281 167.96875 182.320312 C 164.671875 184.828125 160.535156 186.339844 156.375 186.605469 C 158.175781 185.121094 159.601562 183.097656 160.472656 180.71875 C 161.457031 178.03125 161.734375 174.886719 161.261719 171.625 C 160.855469 168.839844 159.976562 166.550781 158.640625 164.8125 C 157.335938 163.113281 155.429688 161.699219 152.8125 160.496094 C 147.5625 158.070312 142.035156 157.5625 137.230469 159.058594 C 131.808594 160.75 127.636719 165.097656 126.574219 170.15625 C 126.089844 170.636719 125.207031 170.640625 124.519531 170.472656 C 124.125 170.378906 123.738281 170.238281 123.324219 170.085938 C 122.769531 169.886719 122.207031 169.683594 121.589844 169.574219 C 120.472656 169.378906 118.910156 169.601562 118.1875 170.851562 C 117.664062 171.753906 117.742188 172.890625 118.414062 174.242188 C 119.609375 176.636719 121.640625 178.574219 124.082031 179.679688 C 123.640625 180.195312 123.222656 180.78125 122.976562 181.480469 C 122.550781 182.722656 122.886719 184.0625 123.792969 184.742188 C 124.40625 185.199219 125.136719 185.296875 125.835938 185.335938 C 126.160156 185.355469 126.488281 185.363281 126.808594 185.363281 C 127.609375 185.363281 128.410156 185.308594 129.195312 185.195312 C 129.59375 185.75 130.070312 186.367188 130.691406 186.847656 C 130.984375 187.074219 131.328125 187.234375 131.664062 187.363281 C 130.265625 187.960938 128.828125 188.605469 127.492188 189.578125 C 125.804688 190.800781 124.375 192.273438 123.230469 193.957031 C 120.90625 197.398438 119.847656 201.742188 120.328125 205.867188 C 120.757812 209.523438 122.335938 212.738281 124.769531 214.925781 C 127.59375 217.46875 131.378906 218.480469 134.710938 219.144531 C 139.5625 220.097656 144.671875 220.582031 150.011719 220.582031 C 154.988281 220.582031 160.160156 220.167969 165.492188 219.332031 C 169.328125 218.734375 173.320312 217.863281 176.503906 215.578125 C 179.742188 213.257812 182.054688 209.472656 182.851562 205.1875 C 183.558594 201.410156 183.125 197.230469 181.605469 193.09375 C 181.316406 192.308594 180.988281 191.515625 180.667969 190.757812 " fill-opacity="1" fill-rule="nonzero"/><path fill="#000000" d="M 131.269531 180.203125 C 131.074219 180.207031 130.886719 180.214844 130.695312 180.214844 C 129.074219 180.214844 127.445312 180.039062 125.863281 179.695312 C 125.859375 179.699219 125.859375 179.703125 125.855469 179.707031 C 125.828125 179.804688 125.78125 179.894531 125.703125 179.976562 C 125.144531 180.582031 124.5625 181.207031 124.308594 181.933594 C 124.210938 182.222656 124.175781 182.570312 124.234375 182.882812 C 125.1875 183.125 126.179688 182.832031 126.730469 182.605469 C 127.445312 182.320312 128.09375 181.917969 128.785156 181.496094 C 129.089844 181.304688 129.402344 181.113281 129.714844 180.9375 C 130.136719 180.691406 130.667969 180.414062 131.269531 180.203125 Z M 133.035156 179.152344 C 132.910156 178.8125 132.738281 178.507812 132.515625 178.257812 C 132.21875 177.933594 131.832031 177.6875 131.425781 177.429688 C 131.1875 177.273438 130.9375 177.113281 130.699219 176.929688 C 129.882812 176.3125 129.261719 175.476562 128.898438 174.523438 C 128.78125 174.214844 128.691406 173.898438 128.605469 173.597656 C 128.476562 173.136719 128.351562 172.703125 128.140625 172.328125 C 127.925781 171.933594 127.535156 171.578125 127.132812 171.496094 C 126.371094 171.976562 125.324219 172.105469 124.191406 171.835938 C 123.71875 171.71875 123.273438 171.558594 122.835938 171.402344 C 122.328125 171.214844 121.839844 171.039062 121.351562 170.953125 C 120.648438 170.835938 119.742188 170.96875 119.402344 171.550781 C 119.0625 172.132812 119.367188 173 119.675781 173.617188 C 120.734375 175.75 122.554688 177.46875 124.738281 178.433594 C 127.40625 179.214844 130.269531 179.464844 133.035156 179.152344 Z M 133.210938 180.800781 C 132.0625 180.753906 130.929688 181.3125 130.179688 181.742188 C 129.875 181.917969 129.574219 182.101562 129.273438 182.289062 C 128.582031 182.714844 127.871094 183.15625 127.082031 183.472656 C 126.515625 183.703125 125.949219 183.835938 125.410156 183.886719 C 125.574219 183.910156 125.746094 183.929688 125.917969 183.9375 C 126.644531 183.980469 127.382812 183.960938 128.113281 183.90625 L 131.300781 182.960938 C 131.753906 182.828125 132.269531 182.675781 132.601562 182.363281 C 132.90625 182.078125 133.109375 181.613281 133.191406 180.984375 C 133.203125 180.921875 133.203125 180.859375 133.210938 180.800781 Z M 181.472656 204.929688 C 182.128906 201.398438 181.71875 197.476562 180.285156 193.574219 C 180.003906 192.816406 179.683594 192.039062 179.371094 191.292969 C 178.664062 189.597656 177.925781 187.839844 177.585938 185.972656 C 177.519531 185.632812 177.46875 185.285156 177.414062 184.929688 C 177.167969 183.324219 176.9375 181.808594 175.84375 181.019531 C 174.808594 180.265625 173.347656 180.507812 172.320312 180.976562 C 171.375 181.410156 170.546875 182.070312 169.675781 182.765625 C 169.394531 182.992188 169.109375 183.21875 168.824219 183.429688 C 164.808594 186.484375 159.640625 188.148438 154.578125 188.039062 C 154.304688 188.167969 153.996094 188.304688 153.671875 188.472656 C 152.628906 188.96875 151.804688 189.464844 151.652344 189.296875 C 151.523438 189.15625 152.074219 188.453125 153.054688 187.90625 C 153.058594 187.867188 153.058594 187.832031 153.070312 187.785156 C 153.09375 187.671875 153.148438 187.550781 153.226562 187.425781 C 152.9375 187.523438 152.671875 187.601562 152.417969 187.660156 C 151.390625 187.890625 150.734375 187.855469 150.722656 187.761719 C 150.707031 187.640625 151.324219 187.484375 152.253906 187.125 C 152.71875 186.949219 153.261719 186.707031 153.839844 186.40625 C 154.414062 186.089844 155.023438 185.714844 155.628906 185.265625 C 155.980469 184.988281 156.308594 184.710938 156.613281 184.425781 C 157.691406 183.246094 158.570312 181.820312 159.152344 180.238281 C 160.0625 177.769531 160.308594 174.859375 159.867188 171.828125 C 159.5 169.28125 158.710938 167.207031 157.527344 165.664062 C 156.359375 164.148438 154.625 162.875 152.222656 161.761719 C 147.292969 159.488281 142.121094 159 137.648438 160.394531 C 132.6875 161.941406 128.875 165.910156 127.941406 170.507812 C 127.921875 170.585938 127.886719 170.660156 127.851562 170.726562 C 127.847656 170.742188 127.839844 170.753906 127.835938 170.769531 C 128.308594 171.015625 128.714844 171.421875 128.964844 171.878906 C 129.226562 172.351562 129.367188 172.859375 129.503906 173.34375 C 129.589844 173.640625 129.667969 173.921875 129.773438 174.1875 C 130.074219 174.972656 130.601562 175.683594 131.273438 176.195312 C 131.480469 176.351562 131.699219 176.492188 131.9375 176.644531 C 132.371094 176.925781 132.828125 177.21875 133.207031 177.632812 C 133.976562 178.476562 134.308594 179.742188 134.121094 181.109375 C 134.007812 181.957031 133.714844 182.605469 133.242188 183.042969 C 132.753906 183.503906 132.09375 183.703125 131.566406 183.855469 L 130.238281 184.25 C 130.25 184.265625 130.265625 184.28125 130.277344 184.296875 C 130.480469 184.582031 130.707031 184.886719 130.960938 185.171875 C 131.535156 185.503906 132.324219 185.933594 133.277344 186.238281 C 135.15625 186.878906 136.824219 186.734375 136.851562 186.964844 C 136.871094 187.066406 136.464844 187.238281 135.753906 187.3125 C 135.285156 187.363281 134.667969 187.351562 134.003906 187.230469 C 134.007812 187.285156 134.003906 187.339844 134 187.398438 C 134.160156 187.472656 134.320312 187.550781 134.492188 187.636719 C 135.773438 188.277344 136.792969 188.863281 136.710938 189.070312 C 136.632812 189.269531 135.457031 189 134.140625 188.339844 C 133.945312 188.242188 133.753906 188.144531 133.578125 188.042969 C 133.515625 188.082031 133.445312 188.125 133.367188 188.15625 C 133.082031 188.28125 132.796875 188.40625 132.515625 188.527344 C 131.023438 189.160156 129.617188 189.757812 128.3125 190.707031 C 126.769531 191.832031 125.445312 193.1875 124.398438 194.742188 C 122.257812 197.910156 121.28125 201.910156 121.726562 205.707031 C 122.117188 209.023438 123.53125 211.929688 125.710938 213.886719 C 128.28125 216.199219 131.84375 217.148438 134.988281 217.769531 C 144.191406 219.589844 154.375 219.652344 165.277344 217.949219 C 168.941406 217.375 172.734375 216.554688 175.683594 214.441406 C 178.632812 212.332031 180.738281 208.863281 181.472656 204.929688 Z M 181.605469 193.09375 C 183.125 197.230469 183.558594 201.410156 182.851562 205.1875 C 182.054688 209.472656 179.742188 213.257812 176.503906 215.578125 C 173.320312 217.863281 169.328125 218.734375 165.492188 219.332031 C 160.160156 220.167969 154.988281 220.582031 150.011719 220.582031 C 144.671875 220.582031 139.5625 220.097656 134.710938 219.144531 C 131.378906 218.480469 127.59375 217.46875 124.769531 214.925781 C 122.335938 212.738281 120.757812 209.523438 120.328125 205.867188 C 119.847656 201.742188 120.90625 197.398438 123.230469 193.957031 C 124.375 192.273438 125.804688 190.800781 127.492188 189.578125 C 128.828125 188.605469 130.265625 187.960938 131.664062 187.363281 C 131.328125 187.234375 130.984375 187.074219 130.691406 186.847656 C 130.070312 186.367188 129.59375 185.75 129.195312 185.195312 C 128.410156 185.308594 127.609375 185.363281 126.808594 185.363281 C 126.488281 185.363281 126.160156 185.355469 125.835938 185.335938 C 125.136719 185.296875 124.40625 185.199219 123.792969 184.742188 C 122.886719 184.0625 122.550781 182.722656 122.976562 181.480469 C 123.222656 180.78125 123.640625 180.195312 124.082031 179.679688 C 121.640625 178.574219 119.609375 176.636719 118.414062 174.242188 C 117.742188 172.890625 117.664062 171.753906 118.1875 170.851562 C 118.910156 169.601562 120.472656 169.378906 121.589844 169.574219 C 122.207031 169.683594 122.769531 169.886719 123.324219 170.085938 C 123.738281 170.238281 124.125 170.378906 124.519531 170.472656 C 125.207031 170.640625 126.089844 170.636719 126.574219 170.15625 C 127.636719 165.097656 131.808594 160.75 137.230469 159.058594 C 142.035156 157.5625 147.5625 158.070312 152.8125 160.496094 C 155.429688 161.699219 157.335938 163.113281 158.640625 164.8125 C 159.976562 166.550781 160.855469 168.839844 161.261719 171.625 C 161.734375 174.886719 161.457031 178.03125 160.472656 180.71875 C 159.601562 183.097656 158.175781 185.121094 156.375 186.605469 C 160.535156 186.339844 164.671875 184.828125 167.96875 182.320312 C 168.253906 182.113281 168.523438 181.890625 168.792969 181.671875 C 169.699219 180.953125 170.628906 180.210938 171.730469 179.707031 C 173.117188 179.066406 175.140625 178.78125 176.671875 179.886719 C 178.238281 181.015625 178.539062 182.984375 178.804688 184.71875 C 178.855469 185.058594 178.90625 185.394531 178.96875 185.71875 C 179.285156 187.445312 179.957031 189.054688 180.667969 190.757812 C 180.988281 191.515625 181.316406 192.308594 181.605469 193.09375 " fill-opacity="1" fill-rule="nonzero"/></g><path fill="#fcce0b" d="M 138.269531 171.679688 C 138.441406 171.074219 138.957031 169.039062 138.210938 167.925781 C 137.523438 166.910156 135.960938 167.144531 135.101562 167.703125 C 134.21875 168.269531 133.773438 169.183594 133.558594 169.84375 C 133.289062 170.652344 133.210938 171.476562 133.136719 172.28125 C 133.082031 172.910156 133.058594 173.566406 133.472656 174.101562 C 133.820312 174.539062 134.355469 174.714844 134.882812 174.714844 C 135.179688 174.714844 135.472656 174.660156 135.730469 174.570312 C 136.910156 174.160156 137.855469 173.078125 138.269531 171.679688 Z M 172.925781 202.605469 C 172.980469 201.875 172.984375 201.152344 172.945312 200.4375 C 172.933594 200.074219 172.898438 199.734375 172.863281 199.367188 C 172.816406 198.992188 172.746094 198.609375 172.613281 198.222656 C 172.476562 197.835938 172.273438 197.421875 171.925781 197.078125 C 171.578125 196.730469 171.097656 196.496094 170.609375 196.445312 C 170.121094 196.382812 169.6875 196.488281 169.316406 196.609375 C 168.945312 196.738281 168.621094 196.894531 168.324219 197.0625 C 168.042969 197.214844 167.765625 197.363281 167.488281 197.515625 C 167.226562 197.660156 166.953125 197.789062 166.683594 197.898438 C 166.136719 198.144531 165.582031 198.335938 165.023438 198.492188 C 163.914062 198.804688 162.785156 198.960938 161.699219 198.976562 C 160.601562 199 159.554688 198.871094 158.558594 198.640625 C 157.558594 198.414062 156.609375 198.089844 155.695312 197.78125 C 153.867188 197.136719 152.136719 196.550781 150.539062 196.359375 C 148.941406 196.140625 147.507812 196.339844 146.445312 196.753906 C 145.378906 197.167969 144.671875 197.742188 144.289062 198.191406 C 143.898438 198.636719 143.78125 198.929688 143.820312 198.960938 C 143.871094 198.996094 144.074219 198.769531 144.507812 198.417969 C 144.941406 198.066406 145.636719 197.628906 146.640625 197.335938 C 147.644531 197.042969 148.933594 196.953125 150.402344 197.230469 C 151.878906 197.484375 153.488281 198.109375 155.304688 198.824219 C 156.21875 199.175781 157.199219 199.542969 158.265625 199.824219 C 159.335938 200.101562 160.496094 200.28125 161.699219 200.285156 C 162.902344 200.292969 164.148438 200.152344 165.390625 199.828125 C 166.007812 199.667969 166.628906 199.464844 167.238281 199.207031 C 167.546875 199.085938 167.847656 198.945312 168.148438 198.792969 C 168.453125 198.640625 168.742188 198.476562 169.007812 198.339844 C 169.535156 198.058594 170.078125 197.855469 170.425781 197.910156 C 170.601562 197.933594 170.746094 198.007812 170.867188 198.128906 C 170.988281 198.257812 171.101562 198.453125 171.179688 198.703125 C 171.265625 198.949219 171.316406 199.238281 171.347656 199.539062 C 171.382812 199.847656 171.40625 200.179688 171.417969 200.507812 C 171.445312 201.160156 171.433594 201.824219 171.382812 202.492188 C 171.179688 205.148438 170.300781 207.859375 168.613281 210.105469 C 167.777344 211.230469 166.777344 212.210938 165.667969 212.992188 C 164.558594 213.777344 163.332031 214.347656 162.050781 214.738281 C 159.492188 215.535156 156.824219 215.667969 154.289062 215.660156 C 151.753906 215.648438 149.359375 215.417969 147.230469 214.808594 C 145.109375 214.210938 143.269531 213.226562 141.855469 212.015625 C 140.4375 210.816406 139.480469 209.382812 138.976562 208.007812 C 138.460938 206.625 138.367188 205.324219 138.441406 204.285156 C 138.523438 203.242188 138.777344 202.449219 138.976562 201.925781 C 139.175781 201.40625 139.316406 201.132812 139.261719 201.101562 C 139.230469 201.074219 138.996094 201.289062 138.6875 201.792969 C 138.390625 202.289062 138.019531 203.097656 137.828125 204.214844 C 137.65625 205.320312 137.65625 206.742188 138.136719 208.289062 C 138.613281 209.835938 139.609375 211.472656 141.109375 212.847656 C 142.605469 214.230469 144.585938 215.359375 146.855469 216.0625 C 149.128906 216.769531 151.652344 217.058594 154.269531 217.109375 C 156.871094 217.15625 159.683594 217.0625 162.511719 216.214844 C 163.917969 215.792969 165.3125 215.160156 166.570312 214.273438 C 167.828125 213.394531 168.949219 212.300781 169.886719 211.042969 C 171.765625 208.523438 172.730469 205.503906 172.925781 202.605469 Z M 180.285156 193.574219 C 181.71875 197.476562 182.128906 201.398438 181.472656 204.929688 C 180.738281 208.863281 178.632812 212.332031 175.683594 214.441406 C 172.734375 216.554688 168.941406 217.375 165.277344 217.949219 C 154.375 219.652344 144.191406 219.589844 134.988281 217.769531 C 131.84375 217.148438 128.28125 216.199219 125.710938 213.886719 C 123.53125 211.929688 122.117188 209.023438 121.726562 205.707031 C 121.28125 201.910156 122.257812 197.910156 124.398438 194.742188 C 125.445312 193.1875 126.769531 191.832031 128.3125 190.707031 C 129.617188 189.757812 131.023438 189.160156 132.515625 188.527344 C 132.796875 188.40625 133.082031 188.28125 133.367188 188.15625 C 133.445312 188.125 133.515625 188.082031 133.578125 188.042969 C 133.753906 188.144531 133.945312 188.242188 134.140625 188.339844 C 135.457031 189 136.632812 189.269531 136.710938 189.070312 C 136.792969 188.863281 135.773438 188.277344 134.492188 187.636719 C 134.320312 187.550781 134.160156 187.472656 134 187.398438 C 134.003906 187.339844 134.007812 187.285156 134.003906 187.230469 C 134.667969 187.351562 135.285156 187.363281 135.753906 187.3125 C 136.464844 187.238281 136.871094 187.066406 136.851562 186.964844 C 136.824219 186.734375 135.15625 186.878906 133.277344 186.238281 C 132.324219 185.933594 131.535156 185.503906 130.960938 185.171875 C 130.707031 184.886719 130.480469 184.582031 130.277344 184.296875 C 130.265625 184.28125 130.25 184.265625 130.238281 184.25 L 131.566406 183.855469 C 132.09375 183.703125 132.753906 183.503906 133.242188 183.042969 C 133.714844 182.605469 134.007812 181.957031 134.121094 181.109375 C 134.308594 179.742188 133.976562 178.476562 133.207031 177.632812 C 132.828125 177.21875 132.371094 176.925781 131.9375 176.644531 C 131.699219 176.492188 131.480469 176.351562 131.273438 176.195312 C 130.601562 175.683594 130.074219 174.972656 129.773438 174.1875 C 129.667969 173.921875 129.589844 173.640625 129.503906 173.34375 C 129.367188 172.859375 129.226562 172.351562 128.964844 171.878906 C 128.714844 171.421875 128.308594 171.015625 127.835938 170.769531 C 127.839844 170.753906 127.847656 170.742188 127.851562 170.726562 C 127.886719 170.660156 127.921875 170.585938 127.941406 170.507812 C 128.875 165.910156 132.6875 161.941406 137.648438 160.394531 C 142.121094 159 147.292969 159.488281 152.222656 161.761719 C 154.625 162.875 156.359375 164.148438 157.527344 165.664062 C 158.710938 167.207031 159.5 169.28125 159.867188 171.828125 C 160.308594 174.859375 160.0625 177.769531 159.152344 180.238281 C 158.570312 181.820312 157.691406 183.246094 156.613281 184.425781 C 156.308594 184.710938 155.980469 184.988281 155.628906 185.265625 C 155.023438 185.714844 154.414062 186.089844 153.839844 186.40625 C 153.261719 186.707031 152.71875 186.949219 152.253906 187.125 C 151.324219 187.484375 150.707031 187.640625 150.722656 187.761719 C 150.734375 187.855469 151.390625 187.890625 152.417969 187.660156 C 152.671875 187.601562 152.9375 187.523438 153.226562 187.425781 C 153.148438 187.550781 153.09375 187.671875 153.070312 187.785156 C 153.058594 187.832031 153.058594 187.867188 153.054688 187.90625 C 152.074219 188.453125 151.523438 189.15625 151.652344 189.296875 C 151.804688 189.464844 152.628906 188.96875 153.671875 188.472656 C 153.996094 188.304688 154.304688 188.167969 154.578125 188.039062 C 159.640625 188.148438 164.808594 186.484375 168.824219 183.429688 C 169.109375 183.21875 169.394531 182.992188 169.675781 182.765625 C 170.546875 182.070312 171.375 181.410156 172.320312 180.976562 C 173.347656 180.507812 174.808594 180.265625 175.84375 181.019531 C 176.9375 181.808594 177.167969 183.324219 177.414062 184.929688 C 177.46875 185.285156 177.519531 185.632812 177.585938 185.972656 C 177.925781 187.839844 178.664062 189.597656 179.371094 191.292969 C 179.683594 192.039062 180.003906 192.816406 180.285156 193.574219 " fill-opacity="1" fill-rule="nonzero"/><path fill="#000000" d="M 172.945312 200.4375 C 172.984375 201.152344 172.980469 201.875 172.925781 202.605469 C 172.730469 205.503906 171.765625 208.523438 169.886719 211.042969 C 168.949219 212.300781 167.828125 213.394531 166.570312 214.273438 C 165.3125 215.160156 163.917969 215.792969 162.511719 216.214844 C 159.683594 217.0625 156.871094 217.15625 154.269531 217.109375 C 151.652344 217.058594 149.128906 216.769531 146.855469 216.0625 C 144.585938 215.359375 142.605469 214.230469 141.109375 212.847656 C 139.609375 211.472656 138.613281 209.835938 138.136719 208.289062 C 137.65625 206.742188 137.65625 205.320312 137.828125 204.214844 C 138.019531 203.097656 138.390625 202.289062 138.6875 201.792969 C 138.996094 201.289062 139.230469 201.074219 139.261719 201.101562 C 139.316406 201.132812 139.175781 201.40625 138.976562 201.925781 C 138.777344 202.449219 138.523438 203.242188 138.441406 204.285156 C 138.367188 205.324219 138.460938 206.625 138.976562 208.007812 C 139.480469 209.382812 140.4375 210.816406 141.855469 212.015625 C 143.269531 213.226562 145.109375 214.210938 147.230469 214.808594 C 149.359375 215.417969 151.753906 215.648438 154.289062 215.660156 C 156.824219 215.667969 159.492188 215.535156 162.050781 214.738281 C 163.332031 214.347656 164.558594 213.777344 165.667969 212.992188 C 166.777344 212.210938 167.777344 211.230469 168.613281 210.105469 C 170.300781 207.859375 171.179688 205.148438 171.382812 202.492188 C 171.433594 201.824219 171.445312 201.160156 171.417969 200.507812 C 171.40625 200.179688 171.382812 199.847656 171.347656 199.539062 C 171.316406 199.238281 171.265625 198.949219 171.179688 198.703125 C 171.101562 198.453125 170.988281 198.257812 170.867188 198.128906 C 170.746094 198.007812 170.601562 197.933594 170.425781 197.910156 C 170.078125 197.855469 169.535156 198.058594 169.007812 198.339844 C 168.742188 198.476562 168.453125 198.640625 168.148438 198.792969 C 167.847656 198.945312 167.546875 199.085938 167.238281 199.207031 C 166.628906 199.464844 166.007812 199.667969 165.390625 199.828125 C 164.148438 200.152344 162.902344 200.292969 161.699219 200.285156 C 160.496094 200.28125 159.335938 200.101562 158.265625 199.824219 C 157.199219 199.542969 156.21875 199.175781 155.304688 198.824219 C 153.488281 198.109375 151.878906 197.484375 150.402344 197.230469 C 148.933594 196.953125 147.644531 197.042969 146.640625 197.335938 C 145.636719 197.628906 144.941406 198.066406 144.507812 198.417969 C 144.074219 198.769531 143.871094 198.996094 143.820312 198.960938 C 143.78125 198.929688 143.898438 198.636719 144.289062 198.191406 C 144.671875 197.742188 145.378906 197.167969 146.445312 196.753906 C 147.507812 196.339844 148.941406 196.140625 150.539062 196.359375 C 152.136719 196.550781 153.867188 197.136719 155.695312 197.78125 C 156.609375 198.089844 157.558594 198.414062 158.558594 198.640625 C 159.554688 198.871094 160.601562 199 161.699219 198.976562 C 162.785156 198.960938 163.914062 198.804688 165.023438 198.492188 C 165.582031 198.335938 166.136719 198.144531 166.683594 197.898438 C 166.953125 197.789062 167.226562 197.660156 167.488281 197.515625 C 167.765625 197.363281 168.042969 197.214844 168.324219 197.0625 C 168.621094 196.894531 168.945312 196.738281 169.316406 196.609375 C 169.6875 196.488281 170.121094 196.382812 170.609375 196.445312 C 171.097656 196.496094 171.578125 196.730469 171.925781 197.078125 C 172.273438 197.421875 172.476562 197.835938 172.613281 198.222656 C 172.746094 198.609375 172.816406 198.992188 172.863281 199.367188 C 172.898438 199.734375 172.933594 200.074219 172.945312 200.4375 " fill-opacity="1" fill-rule="nonzero"/><path fill="#000000" d="M 137.289062 168.902344 C 137.390625 168.640625 137.296875 168.515625 137.265625 168.472656 C 137.195312 168.382812 137.011719 168.324219 136.78125 168.3125 C 136.773438 168.3125 136.757812 168.3125 136.746094 168.3125 C 136.335938 168.3125 135.925781 168.476562 135.792969 168.636719 C 135.644531 168.808594 135.640625 169.117188 135.777344 169.320312 C 135.929688 169.53125 136.230469 169.648438 136.511719 169.601562 C 136.765625 169.558594 137.148438 169.261719 137.289062 168.902344 Z M 137.367188 171.417969 C 137.5 170.960938 137.597656 170.460938 137.640625 169.988281 C 137.355469 170.265625 137.003906 170.464844 136.667969 170.523438 C 136.574219 170.539062 136.476562 170.542969 136.386719 170.542969 C 135.84375 170.542969 135.316406 170.289062 135.011719 169.851562 C 134.90625 169.707031 134.835938 169.539062 134.789062 169.371094 C 134.636719 169.636719 134.523438 169.90625 134.449219 170.140625 C 134.214844 170.84375 134.140625 171.617188 134.074219 172.371094 C 134.027344 172.828125 134.007812 173.265625 134.214844 173.523438 C 134.460938 173.839844 135.015625 173.832031 135.425781 173.6875 C 136.300781 173.382812 137.042969 172.507812 137.367188 171.417969 Z M 138.210938 167.925781 C 138.957031 169.039062 138.441406 171.074219 138.269531 171.679688 C 137.855469 173.078125 136.910156 174.160156 135.730469 174.570312 C 135.472656 174.660156 135.179688 174.714844 134.882812 174.714844 C 134.355469 174.714844 133.820312 174.539062 133.472656 174.101562 C 133.058594 173.566406 133.082031 172.910156 133.136719 172.28125 C 133.210938 171.476562 133.289062 170.652344 133.558594 169.84375 C 133.773438 169.183594 134.21875 168.269531 135.101562 167.703125 C 135.960938 167.144531 137.523438 166.910156 138.210938 167.925781 " fill-opacity="1" fill-rule="nonzero"/><path fill="#333333" d="M 137.640625 169.988281 C 137.597656 170.460938 137.5 170.960938 137.367188 171.417969 C 137.042969 172.507812 136.300781 173.382812 135.425781 173.6875 C 135.015625 173.832031 134.460938 173.839844 134.214844 173.523438 C 134.007812 173.265625 134.027344 172.828125 134.074219 172.371094 C 134.140625 171.617188 134.214844 170.84375 134.449219 170.140625 C 134.523438 169.90625 134.636719 169.636719 134.789062 169.371094 C 134.835938 169.539062 134.90625 169.707031 135.011719 169.851562 C 135.316406 170.289062 135.84375 170.542969 136.386719 170.542969 C 136.476562 170.542969 136.574219 170.539062 136.667969 170.523438 C 137.003906 170.464844 137.355469 170.265625 137.640625 169.988281 " fill-opacity="1" fill-rule="nonzero"/><path fill="#ffffff" d="M 137.265625 168.472656 C 137.296875 168.515625 137.390625 168.640625 137.289062 168.902344 C 137.148438 169.261719 136.765625 169.558594 136.511719 169.601562 C 136.230469 169.648438 135.929688 169.53125 135.777344 169.320312 C 135.640625 169.117188 135.644531 168.808594 135.792969 168.636719 C 135.925781 168.476562 136.335938 168.3125 136.746094 168.3125 C 136.757812 168.3125 136.773438 168.3125 136.78125 168.3125 C 137.011719 168.324219 137.195312 168.382812 137.265625 168.472656 " fill-opacity="1" fill-rule="nonzero"/><path fill="#ff6622" d="M 130.179688 181.742188 C 130.929688 181.3125 132.0625 180.753906 133.210938 180.800781 C 133.203125 180.859375 133.203125 180.921875 133.191406 180.984375 C 133.109375 181.613281 132.90625 182.078125 132.601562 182.363281 C 132.269531 182.675781 131.753906 182.828125 131.300781 182.960938 L 128.113281 183.90625 C 127.382812 183.960938 126.644531 183.980469 125.917969 183.9375 C 125.746094 183.929688 125.574219 183.910156 125.410156 183.886719 C 125.949219 183.835938 126.515625 183.703125 127.082031 183.472656 C 127.871094 183.15625 128.582031 182.714844 129.273438 182.289062 C 129.574219 182.101562 129.875 181.917969 130.179688 181.742188 " fill-opacity="1" fill-rule="nonzero"/><path fill="#ff6622" d="M 132.515625 178.257812 C 132.738281 178.507812 132.910156 178.8125 133.035156 179.152344 C 130.269531 179.464844 127.40625 179.214844 124.738281 178.433594 C 122.554688 177.46875 120.734375 175.75 119.675781 173.617188 C 119.367188 173 119.0625 172.132812 119.402344 171.550781 C 119.742188 170.96875 120.648438 170.835938 121.351562 170.953125 C 121.839844 171.039062 122.328125 171.214844 122.835938 171.402344 C 123.273438 171.558594 123.71875 171.71875 124.191406 171.835938 C 125.324219 172.105469 126.371094 171.976562 127.132812 171.496094 C 127.535156 171.578125 127.925781 171.933594 128.140625 172.328125 C 128.351562 172.703125 128.476562 173.136719 128.605469 173.597656 C 128.691406 173.898438 128.78125 174.214844 128.898438 174.523438 C 129.261719 175.476562 129.882812 176.3125 130.699219 176.929688 C 130.9375 177.113281 131.1875 177.273438 131.425781 177.429688 C 131.832031 177.6875 132.21875 177.933594 132.515625 178.257812 " fill-opacity="1" fill-rule="nonzero"/><path fill="#df5028" d="M 130.695312 180.214844 C 130.886719 180.214844 131.074219 180.207031 131.269531 180.203125 C 130.667969 180.414062 130.136719 180.691406 129.714844 180.9375 C 129.402344 181.113281 129.089844 181.304688 128.785156 181.496094 C 128.09375 181.917969 127.445312 182.320312 126.730469 182.605469 C 126.179688 182.832031 125.1875 183.125 124.234375 182.882812 C 124.175781 182.570312 124.210938 182.222656 124.308594 181.933594 C 124.5625 181.207031 125.144531 180.582031 125.703125 179.976562 C 125.78125 179.894531 125.828125 179.804688 125.855469 179.707031 C 125.859375 179.703125 125.859375 179.699219 125.863281 179.695312 C 127.445312 180.039062 129.074219 180.214844 130.695312 180.214844 " fill-opacity="1" fill-rule="nonzero"/></svg>