<svg xmlns="http://www.w3.org/2000/svg" xmlns:xlink="http://www.w3.org/1999/xlink" width="500" zoomAndPan="magnify" viewBox="0 0 375 374.999991" height="500" preserveAspectRatio="xMidYMid meet" version="1.0"><defs><clipPath id="ec7fcc858b"><path d="M 56 131 L 305 131 L 305 223.988281 L 56 223.988281 Z M 56 131 " clip-rule="nonzero"/></clipPath><clipPath id="7fa9887b40"><path d="M 57 133 L 305 133 L 305 223.988281 L 57 223.988281 Z M 57 133 " clip-rule="nonzero"/></clipPath></defs><path fill="#7f4c38" d="M 359.589844 177.457031 C 358.902344 176.269531 357.332031 176.078125 355.992188 176.230469 C 355.492188 176.269531 355.035156 176.347656 354.535156 176.382812 C 352.390625 176.574219 350.25 176.691406 348.105469 176.921875 C 345.769531 177.148438 343.394531 177.496094 341.023438 177.378906 C 335.433594 177.074219 329.382812 176.421875 323.871094 175.351562 C 320.695312 174.738281 317.515625 174.125 314.339844 173.550781 C 313.917969 172.976562 313.574219 172.363281 313.226562 171.753906 C 312.042969 169.800781 310.316406 168.726562 308.441406 167.539062 C 306.453125 166.316406 304.421875 165.050781 302.46875 163.75 C 301.742188 163.292969 300.976562 164.363281 301.550781 164.9375 C 303.234375 166.699219 304.996094 168.34375 306.757812 170.027344 C 307.5625 170.796875 308.519531 171.523438 309.246094 172.363281 C 309.324219 172.480469 309.363281 172.59375 309.4375 172.671875 C 303.542969 171.636719 297.683594 170.796875 291.710938 170.21875 C 281.144531 169.261719 270.695312 166.507812 260.167969 166.125 C 249.332031 165.703125 238.34375 165.207031 227.550781 166.199219 C 217.441406 167.121094 207.410156 168.574219 197.535156 170.796875 C 196.5 170.949219 195.503906 171.140625 194.472656 171.292969 C 190.71875 171.945312 186.96875 172.554688 183.179688 173.128906 C 179.121094 173.78125 175.101562 173.859375 171.003906 174.203125 C 162.847656 174.890625 154.960938 177.722656 146.847656 178.757812 C 145.925781 178.871094 145.046875 178.988281 144.089844 179.140625 C 141.714844 179.101562 139.34375 178.988281 136.96875 178.910156 C 131.148438 177.6875 125.101562 177.148438 119.28125 175.964844 C 115.683594 175.234375 112.160156 174.203125 108.601562 173.285156 C 105.230469 172.363281 101.746094 171.90625 98.457031 170.796875 C 92.558594 168.878906 86.585938 165.972656 81.304688 162.71875 C 75.828125 159.386719 70.777344 154.792969 67.597656 149.164062 C 67.175781 148.4375 66.144531 149.089844 66.488281 149.816406 C 67.714844 152.496094 69.246094 155.058594 71.082031 157.394531 C 71.121094 157.472656 71.199219 157.511719 71.234375 157.550781 C 77.324219 165.625 86.359375 171.675781 95.585938 175.199219 C 98.339844 176.230469 101.210938 176.921875 104.082031 177.53125 L 101.785156 177.53125 C 100.214844 177.53125 98.6875 177.496094 97.152344 177.53125 C 84.558594 177.761719 71.695312 179.867188 59.175781 177.609375 C 53.433594 176.574219 47.882812 174.660156 42.179688 173.285156 C 38.042969 172.289062 33.792969 172.402344 29.582031 171.945312 C 25.449219 171.484375 21.464844 170.257812 17.292969 170.296875 C 16.796875 170.296875 16.222656 170.335938 15.839844 170.679688 C 15.113281 171.292969 15.496094 172.480469 15.878906 173.359375 C 16.527344 174.699219 17.140625 176.039062 17.753906 177.378906 C 18.210938 178.335938 18.671875 179.292969 19.171875 180.210938 C 20.203125 182.203125 20.625 182.050781 22.617188 182.125 C 24.914062 182.242188 27.285156 182.855469 29.621094 183.046875 C 31.996094 183.277344 34.332031 183.429688 36.664062 183.886719 C 42.0625 184.960938 47.269531 186.914062 52.628906 188.175781 C 64.078125 190.855469 75.5625 190.433594 87.160156 189.859375 C 92.597656 189.59375 98.035156 189.285156 103.472656 189.746094 C 109.367188 190.242188 115.222656 191.238281 121.15625 191.582031 C 125.484375 191.8125 129.121094 190.816406 132.988281 189.898438 C 136.738281 189.628906 140.453125 189.09375 144.167969 188.445312 C 147.878906 188.328125 151.59375 188.445312 155.308594 188.328125 C 160.589844 188.175781 166.179688 187.832031 171.234375 186.222656 C 173.835938 185.417969 175.941406 184.691406 178.699219 184.578125 C 181.835938 184.460938 184.9375 184.84375 188.039062 184.769531 C 189.226562 184.730469 190.375 184.691406 191.5625 184.578125 L 191.753906 184.578125 C 193.324219 184.460938 194.929688 184.269531 196.539062 184.042969 C 196.578125 184.003906 196.652344 184.003906 196.691406 184.042969 C 205.078125 182.777344 213.539062 180.519531 221.921875 179.675781 C 225.289062 179.371094 228.660156 178.910156 232.066406 178.414062 C 231.875 178.488281 231.683594 178.605469 231.453125 178.679688 C 231.148438 178.835938 230.839844 178.949219 230.496094 179.101562 C 227.28125 180.289062 224.140625 181.554688 221.039062 183.082031 C 215.222656 186.03125 209.289062 189.363281 204.578125 193.917969 C 199.945312 198.359375 195.503906 203.375 191.714844 208.582031 C 191.253906 209.269531 192.328125 210.113281 192.863281 209.5 C 200.519531 200.734375 210.511719 194.453125 220.582031 188.789062 C 221.804688 188.097656 222.992188 187.449219 224.179688 186.796875 C 227.128906 185.152344 230.113281 184.003906 233.214844 182.738281 C 236.277344 181.476562 239.035156 179.828125 242.25 178.988281 C 245.582031 178.105469 248.949219 177.53125 252.320312 176.765625 C 252.664062 176.691406 253.085938 176.574219 253.503906 176.5 C 254.691406 176.5 255.917969 176.5 257.105469 176.574219 C 261.964844 176.84375 266.332031 179.0625 271.039062 180.097656 C 276.78125 181.324219 282.523438 181.820312 288.152344 183.582031 C 294.125 185.417969 300.363281 186.300781 306.488281 187.332031 C 312.84375 188.40625 319.046875 190.050781 325.402344 190.894531 C 331.71875 191.699219 338.226562 190.855469 344.507812 190.242188 C 348.488281 189.859375 354.574219 192.425781 357.597656 189.054688 C 358.671875 187.832031 359.054688 186.148438 359.285156 184.539062 C 359.320312 184.386719 359.320312 184.269531 359.359375 184.117188 C 359.589844 182.738281 359.742188 181.324219 359.894531 179.90625 C 359.972656 179.0625 360.011719 178.183594 359.589844 177.457031 Z M 359.589844 177.457031 " fill-opacity="1" fill-rule="nonzero"/><path fill="#7f4c38" d="M 221.921875 179.675781 C 213.535156 180.519531 205.074219 182.777344 196.691406 184.042969 C 196.652344 184.003906 196.578125 184.003906 196.539062 184.042969 C 195.964844 184.003906 195.390625 184.003906 194.816406 184.003906 C 194.738281 184.042969 194.664062 184.078125 194.585938 184.078125 C 193.628906 184.234375 192.671875 184.425781 191.753906 184.578125 L 191.5625 184.578125 C 190.375 184.691406 189.226562 184.730469 188.039062 184.769531 C 184.9375 184.84375 181.835938 184.460938 178.699219 184.578125 C 175.941406 184.691406 173.835938 185.417969 171.234375 186.222656 C 166.179688 187.832031 160.589844 188.175781 155.308594 188.328125 C 151.59375 188.445312 147.878906 188.328125 144.167969 188.445312 C 140.453125 189.09375 136.738281 189.628906 132.988281 189.898438 C 129.121094 190.816406 125.484375 191.8125 121.15625 191.582031 C 115.222656 191.238281 109.367188 190.242188 103.472656 189.746094 C 98.035156 189.285156 92.597656 189.59375 87.160156 189.859375 C 75.5625 190.433594 64.078125 190.855469 52.628906 188.175781 C 47.269531 186.914062 42.0625 184.960938 36.664062 183.886719 C 34.332031 183.429688 31.996094 183.277344 29.621094 183.046875 C 27.285156 182.855469 24.914062 182.242188 22.617188 182.125 C 20.625 182.050781 20.203125 182.203125 19.167969 180.210938 C 18.671875 179.292969 18.210938 178.335938 17.753906 177.378906 C 23.496094 176.804688 29.351562 177.722656 35.019531 178.183594 C 38.160156 178.414062 41.375 178.757812 44.4375 179.636719 C 47.578125 180.558594 50.5625 182.050781 53.511719 183.429688 C 56.191406 184.652344 58.945312 185.839844 61.894531 186.339844 C 64.957031 186.835938 68.058594 186.605469 71.121094 186.300781 C 76.710938 185.726562 82.148438 185.574219 87.734375 185.6875 C 86.816406 185.574219 85.9375 185.535156 84.941406 185.574219 C 81.878906 185.6875 78.855469 185.304688 75.867188 184.691406 C 69.550781 183.351562 63.195312 182.816406 56.804688 181.859375 C 56.496094 181.820312 56.574219 181.324219 56.878906 181.324219 C 63.273438 181.820312 69.703125 182.664062 76.136719 182.816406 C 79.160156 182.855469 82.261719 183.007812 85.324219 182.816406 C 88.121094 182.625 90.339844 183.695312 93.058594 183.925781 C 105.230469 184.882812 117.292969 182.050781 129.425781 182.320312 C 129.808594 182.320312 129.886719 182.816406 129.542969 182.929688 C 126.632812 183.851562 123.457031 183.851562 120.429688 184.078125 C 117.101562 184.308594 113.808594 184.808594 110.554688 185.304688 C 108.523438 185.609375 106.535156 186.109375 104.503906 186.453125 C 105.613281 186.492188 106.6875 186.566406 107.796875 186.605469 C 113.960938 186.875 119.816406 188.597656 126.058594 187.488281 C 131.839844 186.453125 137.160156 184.347656 143.132812 184.308594 C 146.082031 184.308594 148.992188 184.652344 151.898438 185.113281 C 154.503906 185.496094 157.296875 186.070312 159.9375 185.765625 C 164.839844 185.152344 169.164062 182.472656 173.875 181.132812 C 172.996094 181.054688 172.074219 180.941406 171.117188 180.824219 C 165.835938 180.289062 160.707031 181.246094 155.5 181.898438 C 155 181.972656 154.886719 181.132812 155.382812 181.015625 C 160.476562 180.019531 165.492188 178.757812 170.695312 178.679688 C 175.867188 178.644531 180.6875 179.523438 185.78125 178.296875 C 190.988281 177.074219 196.15625 176 201.4375 175.082031 C 206.378906 174.242188 211.929688 173.589844 216.945312 174.277344 C 217.25 174.316406 217.402344 174.816406 217.019531 174.890625 C 214.1875 175.464844 211.238281 175.582031 208.367188 176.039062 C 205.765625 176.460938 203.199219 176.882812 200.636719 177.378906 C 196.460938 178.144531 192.328125 179.0625 188.230469 180.097656 C 190.183594 180.289062 192.097656 180.59375 194.011719 180.671875 C 200.558594 180.019531 207.105469 179.484375 213.574219 178.335938 C 218.898438 177.417969 224.21875 176.652344 229.539062 175.847656 C 232.144531 175.464844 234.824219 174.851562 237.347656 174.203125 C 239.453125 173.628906 241.5625 172.59375 243.703125 172.402344 C 244.164062 172.402344 244.46875 173.054688 244.085938 173.359375 C 242.25 174.890625 239.644531 175.617188 237.464844 176.613281 C 235.472656 177.570312 233.597656 178.261719 231.453125 178.679688 C 231.683594 178.605469 231.875 178.488281 232.066406 178.414062 C 228.660156 178.910156 225.289062 179.371094 221.921875 179.675781 Z M 356.066406 184.15625 C 355.875 184.15625 355.648438 184.195312 355.457031 184.195312 C 344.199219 182.511719 332.21875 184.269531 321.34375 180.328125 C 316.023438 178.414062 310.664062 177.609375 305.113281 176.765625 C 302.277344 176.347656 299.484375 175.65625 296.652344 175.199219 C 293.894531 174.738281 291.101562 174.738281 288.34375 174.394531 C 287.960938 174.355469 287.882812 175.007812 288.230469 175.042969 C 299.597656 176.921875 310.855469 179.828125 321.6875 183.734375 C 325.363281 185.035156 329.34375 185.609375 333.328125 185.917969 C 333.210938 185.917969 333.136719 185.957031 333.058594 185.957031 C 327.738281 186.375 322.644531 186.070312 317.402344 185 C 312.308594 183.964844 307.292969 182.585938 302.164062 181.820312 C 296.804688 181.015625 291.558594 180.558594 286.316406 179.179688 C 281.183594 177.839844 276.09375 176.84375 270.886719 175.847656 C 266.253906 175.007812 261.160156 172.441406 256.453125 173.359375 C 251.285156 174.355469 246.613281 176.84375 241.753906 178.757812 C 238.957031 179.867188 236.238281 180.902344 233.367188 181.667969 C 230.765625 182.320312 228.316406 183.199219 226.054688 184.617188 C 224.101562 185.839844 222.378906 187.332031 220.582031 188.789062 C 221.804688 188.097656 222.992188 187.449219 224.179688 186.796875 C 227.128906 185.152344 230.113281 184.003906 233.214844 182.738281 C 236.277344 181.476562 239.035156 179.828125 242.25 178.988281 C 245.582031 178.105469 248.949219 177.53125 252.320312 176.765625 C 252.664062 176.691406 253.085938 176.574219 253.503906 176.5 C 254.691406 176.5 255.917969 176.5 257.105469 176.574219 C 261.964844 176.84375 266.332031 179.0625 271.039062 180.097656 C 276.78125 181.324219 282.523438 181.820312 288.152344 183.582031 C 294.125 185.417969 300.363281 186.300781 306.488281 187.332031 C 312.84375 188.40625 319.046875 190.050781 325.402344 190.894531 C 331.71875 191.699219 338.226562 190.855469 344.503906 190.242188 C 348.488281 189.859375 354.574219 192.425781 357.597656 189.054688 C 358.671875 187.832031 359.054688 186.148438 359.285156 184.539062 C 359.320312 184.386719 359.320312 184.269531 359.359375 184.117188 C 358.25 184.15625 357.140625 184.117188 356.066406 184.15625 Z M 95.585938 175.199219 C 98.339844 176.230469 101.210938 176.921875 104.082031 177.53125 L 101.785156 177.53125 C 101.824219 177.53125 101.902344 177.570312 101.9375 177.570312 C 104.542969 178.105469 107.375 178.375 110.054688 178.453125 C 110.9375 178.488281 111.050781 177.226562 110.246094 176.957031 C 107.835938 176.191406 105.269531 176.539062 102.820312 175.964844 C 100.40625 175.390625 98.417969 173.742188 96.121094 172.746094 C 91.640625 170.832031 86.777344 169.683594 82.722656 166.8125 C 80.652344 165.320312 78.929688 163.40625 76.902344 161.875 C 74.988281 160.417969 73.035156 159.15625 71.234375 157.550781 C 77.324219 165.625 86.359375 171.675781 95.585938 175.199219 Z M 95.585938 175.199219 " fill-opacity="1" fill-rule="nonzero"/><g clip-path="url(#ec7fcc858b)"><path fill="#789b45" d="M 207.183594 206.324219 C 208.636719 208.773438 208.90625 211.796875 208.40625 214.589844 C 207.949219 217.425781 206.761719 220.066406 205.382812 222.59375 C 205.265625 222.785156 205.191406 222.976562 205.039062 223.128906 C 204.921875 223.242188 204.808594 223.359375 204.617188 223.398438 C 204.15625 223.550781 203.699219 223.28125 203.316406 222.976562 C 201.246094 221.367188 199.640625 219.148438 198.796875 216.660156 C 198.183594 214.820312 198.054688 212.988281 198.144531 211.164062 C 196.609375 213.617188 194.144531 215.292969 191.5625 216.621094 C 186.546875 219.261719 180.765625 220.945312 175.136719 219.988281 C 174.640625 219.914062 174.066406 219.722656 173.761719 219.378906 C 173.644531 219.222656 173.570312 219.109375 173.53125 218.917969 C 173.453125 218.613281 173.53125 218.304688 173.644531 218 C 174.449219 215.203125 175.253906 212.332031 176.554688 209.730469 C 177.855469 207.089844 179.695312 204.636719 182.144531 203.03125 C 184.632812 201.382812 187.65625 200.695312 190.644531 200.542969 C 192.558594 200.464844 194.507812 200.617188 196.421875 200.808594 C 197.226562 200.925781 198.914062 200.769531 199.679688 201.34375 C 199.753906 201.382812 199.832031 201.421875 199.871094 201.5 C 199.933594 201.574219 199.9375 201.71875 199.984375 201.820312 C 200.5 200.203125 201.105469 200.539062 202.742188 201.765625 C 204.464844 203.066406 206.109375 204.445312 207.183594 206.324219 Z M 65.875 131.210938 C 65.570312 131.324219 65.378906 131.667969 65.226562 131.9375 C 64.652344 133.125 64.039062 134.273438 63.425781 135.457031 C 62.507812 137.257812 61.550781 139.132812 61.207031 141.164062 C 61.207031 141.203125 61.207031 141.203125 61.207031 141.238281 C 60.785156 143.691406 61.359375 146.292969 62.773438 148.324219 C 63.746094 149.761719 65.179688 150.898438 66.78125 151.671875 C 65.132812 151.085938 62.738281 151.003906 61.855469 151.078125 C 60.285156 151.195312 58.71875 151.613281 57.339844 152.378906 C 56.878906 152.609375 56.417969 152.992188 56.457031 153.492188 C 56.496094 153.796875 56.726562 154.027344 56.957031 154.21875 C 57.222656 154.449219 57.53125 154.675781 57.796875 154.867188 C 59.253906 155.941406 60.9375 156.589844 62.699219 156.628906 C 63.921875 156.667969 65.148438 156.398438 66.21875 155.789062 C 67.023438 155.367188 68.59375 154.332031 68.519531 153.261719 C 68.484375 152.644531 67.988281 152.246094 67.320312 151.921875 C 67.363281 151.933594 67.40625 151.960938 67.445312 151.960938 C 68.097656 152.265625 68.671875 152.34375 68.746094 151.421875 C 68.785156 150.273438 68.519531 149.316406 68.785156 148.132812 C 69.128906 146.714844 69.742188 145.335938 70.125 143.917969 C 71.234375 139.746094 70.085938 135 67.140625 131.785156 C 66.832031 131.4375 66.335938 131.054688 65.875 131.210938 Z M 303.773438 164.441406 C 303.542969 163.980469 303.464844 163.484375 303.390625 162.984375 C 303.042969 161.070312 303.3125 159.082031 302.777344 157.203125 C 302.203125 155.058594 300.632812 153.261719 298.792969 151.996094 C 296.957031 150.734375 294.851562 149.890625 292.746094 149.089844 C 292.058594 148.820312 291.136719 148.628906 290.71875 149.242188 C 290.527344 149.546875 290.527344 149.929688 290.527344 150.273438 C 290.527344 150.464844 290.527344 150.695312 290.5625 150.886719 C 290.601562 152.152344 290.640625 153.375 290.679688 154.675781 C 290.71875 156.207031 290.792969 157.816406 291.328125 159.269531 C 292.132812 161.378906 293.972656 163.023438 296 164.058594 C 298.027344 165.128906 300.25 165.664062 302.46875 166.199219 C 302.96875 166.316406 303.886719 166.390625 304.230469 165.972656 C 304.382812 165.855469 304.421875 165.625 304.382812 165.359375 C 304.347656 165.089844 303.886719 164.707031 303.773438 164.441406 Z M 303.773438 164.441406 " fill-opacity="1" fill-rule="nonzero"/></g><g clip-path="url(#7fa9887b40)"><path fill="#587e60" d="M 201.167969 203.214844 C 200.960938 202.503906 200.621094 201.878906 200.355469 201.191406 C 200.300781 201.050781 200.464844 200.894531 200.605469 200.945312 C 201.878906 201.40625 202.082031 202.941406 202.417969 204.082031 C 202.9375 205.855469 203.5625 207.589844 203.890625 209.414062 C 204.210938 211.179688 204.226562 212.898438 204.074219 214.683594 C 203.917969 216.570312 203.792969 218.425781 204.382812 220.253906 C 204.457031 220.484375 204.109375 220.570312 204.03125 220.351562 C 202.878906 217.171875 203.632812 213.640625 203.082031 210.347656 C 202.796875 208.636719 202.308594 206.964844 201.78125 205.3125 C 201.558594 204.617188 201.371094 203.917969 201.167969 203.214844 Z M 303.246094 165.554688 C 303.3125 165.46875 303.339844 165.351562 303.222656 165.300781 C 302.558594 164.996094 301.972656 164.730469 301.402344 164.257812 C 300.855469 163.804688 300.351562 163.300781 299.808594 162.84375 C 298.511719 161.765625 297.285156 160.59375 296.542969 159.050781 C 295.78125 157.464844 295.1875 155.78125 294.535156 154.144531 C 293.941406 152.65625 293.074219 151.527344 292.050781 150.3125 C 291.933594 150.171875 291.695312 150.355469 291.800781 150.503906 C 292.300781 151.234375 292.84375 151.945312 293.257812 152.730469 C 293.699219 153.558594 293.917969 154.484375 294.183594 155.378906 C 294.679688 157.070312 295.183594 158.949219 296.097656 160.472656 C 296.816406 161.664062 297.816406 162.53125 298.851562 163.386719 C 298.832031 163.382812 298.816406 163.375 298.792969 163.367188 C 298.792969 163.367188 298.792969 163.367188 298.757812 163.367188 C 297.109375 162.792969 295.3125 162.449219 293.972656 161.300781 C 292.324219 159.921875 291.75 157.703125 291.445312 155.558594 C 291.328125 154.601562 291.214844 153.605469 291.023438 152.648438 C 290.910156 152.035156 290.71875 151.460938 290.5625 150.886719 C 290.601562 152.152344 290.640625 153.375 290.679688 154.675781 C 290.71875 156.207031 290.792969 157.816406 291.328125 159.273438 C 292.132812 161.378906 293.972656 163.023438 296 164.058594 C 298.027344 165.128906 300.25 165.664062 302.46875 166.199219 C 302.96875 166.316406 303.886719 166.390625 304.230469 165.972656 C 303.890625 165.855469 303.585938 165.707031 303.246094 165.554688 Z M 67.320312 151.921875 C 67.363281 151.933594 67.40625 151.960938 67.445312 151.960938 C 67.46875 151.972656 67.339844 151.824219 67.164062 151.632812 C 67.230469 151.148438 67.078125 150.695312 66.855469 150.253906 C 66.480469 149.507812 66.050781 148.847656 65.761719 148.050781 C 65.191406 146.476562 64.734375 144.875 64.617188 143.195312 C 64.5 141.480469 64.742188 139.902344 65.238281 138.265625 C 65.5 137.414062 65.75 136.550781 65.972656 135.6875 C 66.179688 134.886719 66.023438 134.125 66.128906 133.324219 C 66.15625 133.121094 65.816406 133.078125 65.769531 133.277344 C 65.566406 134.144531 65.613281 134.996094 65.316406 135.859375 C 65.007812 136.746094 64.6875 137.613281 64.324219 138.480469 C 63.679688 140.011719 63.40625 141.535156 63.5 143.195312 C 63.578125 144.601562 63.890625 145.929688 64.363281 147.238281 C 63.921875 146.808594 63.433594 146.410156 63.003906 145.949219 C 61.816406 144.722656 61.242188 142.960938 61.207031 141.238281 C 60.785156 143.691406 61.359375 146.292969 62.773438 148.324219 C 63.730469 149.734375 65.128906 150.84375 66.691406 151.617188 C 66.726562 151.675781 66.761719 151.730469 66.796875 151.789062 C 66.8125 151.816406 66.851562 151.789062 66.875 151.804688 C 66.726562 151.871094 66.582031 151.949219 66.464844 152.074219 C 66.003906 152.308594 65.558594 152.714844 65.160156 152.921875 C 64.417969 153.304688 63.617188 153.570312 62.804688 153.757812 C 61.054688 154.164062 59.355469 153.335938 57.609375 153.359375 C 57.363281 153.363281 57.363281 153.730469 57.609375 153.742188 C 58.59375 153.789062 59.523438 154.097656 60.46875 154.351562 C 61.351562 154.589844 62.238281 154.6875 63.144531 154.578125 C 63.804688 154.5 64.441406 154.28125 65.054688 154.015625 C 64.222656 154.847656 63.066406 155.367188 61.894531 155.519531 C 60.515625 155.671875 59.101562 155.367188 57.796875 154.867188 C 59.253906 155.941406 60.9375 156.589844 62.699219 156.628906 C 63.921875 156.667969 65.148438 156.398438 66.21875 155.789062 C 67.023438 155.367188 68.59375 154.332031 68.519531 153.261719 C 68.484375 152.644531 67.988281 152.246094 67.320312 151.921875 Z M 186.125 209.953125 C 188.101562 208.359375 190 206.597656 192.078125 205.136719 C 194.144531 203.6875 196.578125 202.875 198.726562 201.5625 C 198.882812 201.46875 198.773438 201.253906 198.609375 201.28125 C 193.753906 202.113281 190.128906 205.414062 186.464844 208.40625 C 184.589844 209.933594 182.738281 211.46875 180.972656 213.128906 C 179.222656 214.773438 177.46875 216.367188 175.292969 217.441406 C 175.109375 217.53125 175.242188 217.851562 175.433594 217.773438 C 179.554688 216.105469 182.71875 212.695312 186.125 209.953125 Z M 200.941406 218.230469 C 199.871094 215.777344 199.90625 213.058594 200.0625 210.417969 C 200.175781 209.003906 200.289062 207.546875 200.289062 206.132812 C 200.328125 205.554688 200.445312 204.601562 200.214844 204.023438 C 200.199219 203.988281 200.183594 203.980469 200.167969 203.953125 C 200.277344 202.976562 200.28125 201.992188 199.871094 201.5 C 199.832031 201.421875 199.753906 201.382812 199.679688 201.34375 C 198.222656 204.5625 195.582031 207.125 192.980469 209.578125 C 189.226562 213.097656 185.320312 216.734375 180.460938 218.421875 C 178.316406 219.148438 176.019531 219.492188 173.761719 219.378906 C 174.066406 219.722656 174.640625 219.914062 175.136719 219.988281 C 180.765625 220.945312 186.546875 219.261719 191.5625 216.621094 C 194.144531 215.292969 196.609375 213.617188 198.144531 211.164062 C 198.054688 212.988281 198.183594 214.820312 198.796875 216.660156 C 199.640625 219.148438 201.246094 221.367188 203.316406 222.976562 C 203.699219 223.28125 204.15625 223.550781 204.617188 223.398438 C 204.808594 223.359375 204.921875 223.242188 205.039062 223.128906 C 203.316406 221.75 201.820312 220.179688 200.941406 218.230469 Z M 200.941406 218.230469 " fill-opacity="1" fill-rule="nonzero"/></g></svg>