<svg xmlns="http://www.w3.org/2000/svg" xmlns:xlink="http://www.w3.org/1999/xlink" width="500" zoomAndPan="magnify" viewBox="0 0 375 374.999991" height="500" preserveAspectRatio="xMidYMid meet" version="1.0"><defs><clipPath id="83e492cf58"><path d="M 8.035156 181.554688 L 177 181.554688 L 177 306.054688 L 8.035156 306.054688 Z M 8.035156 181.554688 " clip-rule="nonzero"/></clipPath><clipPath id="d67ccae79b"><path d="M 219 155.351562 L 363.550781 155.351562 L 363.550781 303.289062 L 219 303.289062 Z M 219 155.351562 " clip-rule="nonzero"/></clipPath><clipPath id="c1090f1eaa"><path d="M 248 180.085938 L 363.550781 180.085938 L 363.550781 303.289062 L 248 303.289062 Z M 248 180.085938 " clip-rule="nonzero"/></clipPath><clipPath id="668cc80ca9"><path d="M 219 155.136719 L 270 155.136719 L 270 303.636719 L 219 303.636719 Z M 219 155.136719 " clip-rule="nonzero"/></clipPath><clipPath id="6d7bb93d98"><path d="M 210.597656 169 L 345 169 L 345 303.636719 L 210.597656 303.636719 Z M 210.597656 169 " clip-rule="nonzero"/></clipPath><clipPath id="f87637d972"><path d="M 152.105469 275 L 186 275 L 186 309 L 152.105469 309 Z M 152.105469 275 " clip-rule="nonzero"/></clipPath><clipPath id="29ecd46df7"><path d="M 172 274.921875 L 181 274.921875 L 181 286 L 172 286 Z M 172 274.921875 " clip-rule="nonzero"/></clipPath><clipPath id="47d946cf5a"><path d="M 152.105469 284 L 162 284 L 162 295 L 152.105469 295 Z M 152.105469 284 " clip-rule="nonzero"/></clipPath><clipPath id="0526f09487"><path d="M 183 296 L 219.605469 296 L 219.605469 317.671875 L 183 317.671875 Z M 183 296 " clip-rule="nonzero"/></clipPath><clipPath id="decec845fb"><path d="M 218 252 L 253 252 L 253 286 L 218 286 Z M 218 252 " clip-rule="nonzero"/></clipPath><clipPath id="37c5467ff2"><path d="M 184.433594 255.6875 L 251.785156 251.207031 L 254.625 293.863281 L 187.273438 298.34375 Z M 184.433594 255.6875 " clip-rule="nonzero"/></clipPath><clipPath id="ffa1242235"><path d="M 251.644531 251.21875 L 184.292969 255.699219 L 187.132812 298.355469 L 254.484375 293.875 Z M 251.644531 251.21875 " clip-rule="nonzero"/></clipPath><clipPath id="d85661e19b"><path d="M 231 256 L 248 256 L 248 266 L 231 266 Z M 231 256 " clip-rule="nonzero"/></clipPath><clipPath id="4be69f1ace"><path d="M 184.433594 255.6875 L 251.785156 251.207031 L 254.625 293.863281 L 187.273438 298.34375 Z M 184.433594 255.6875 " clip-rule="nonzero"/></clipPath><clipPath id="536de53b6e"><path d="M 251.644531 251.21875 L 184.292969 255.699219 L 187.132812 298.355469 L 254.484375 293.875 Z M 251.644531 251.21875 " clip-rule="nonzero"/></clipPath><clipPath id="3b9e82b02a"><path d="M 227 252 L 242 252 L 242 265 L 227 265 Z M 227 252 " clip-rule="nonzero"/></clipPath><clipPath id="b07b592ef4"><path d="M 184.433594 255.6875 L 251.785156 251.207031 L 254.625 293.863281 L 187.273438 298.34375 Z M 184.433594 255.6875 " clip-rule="nonzero"/></clipPath><clipPath id="00baa5bd1f"><path d="M 251.644531 251.21875 L 184.292969 255.699219 L 187.132812 298.355469 L 254.484375 293.875 Z M 251.644531 251.21875 " clip-rule="nonzero"/></clipPath><clipPath id="5927bfaadf"><path d="M 224 252 L 232 252 L 232 264 L 224 264 Z M 224 252 " clip-rule="nonzero"/></clipPath><clipPath id="7cc2271196"><path d="M 184.433594 255.6875 L 251.785156 251.207031 L 254.625 293.863281 L 187.273438 298.34375 Z M 184.433594 255.6875 " clip-rule="nonzero"/></clipPath><clipPath id="05ca44652f"><path d="M 251.644531 251.21875 L 184.292969 255.699219 L 187.132812 298.355469 L 254.484375 293.875 Z M 251.644531 251.21875 " clip-rule="nonzero"/></clipPath><clipPath id="cf32c4c648"><path d="M 234 261 L 252 261 L 252 268 L 234 268 Z M 234 261 " clip-rule="nonzero"/></clipPath><clipPath id="135eb0b0ca"><path d="M 184.433594 255.6875 L 251.785156 251.207031 L 254.625 293.863281 L 187.273438 298.34375 Z M 184.433594 255.6875 " clip-rule="nonzero"/></clipPath><clipPath id="8c95f6658e"><path d="M 251.644531 251.21875 L 184.292969 255.699219 L 187.132812 298.355469 L 254.484375 293.875 Z M 251.644531 251.21875 " clip-rule="nonzero"/></clipPath><clipPath id="d8042b00dd"><path d="M 219 263 L 249 263 L 249 281 L 219 281 Z M 219 263 " clip-rule="nonzero"/></clipPath><clipPath id="384387982e"><path d="M 184.433594 255.6875 L 251.785156 251.207031 L 254.625 293.863281 L 187.273438 298.34375 Z M 184.433594 255.6875 " clip-rule="nonzero"/></clipPath><clipPath id="be27451400"><path d="M 251.644531 251.21875 L 184.292969 255.699219 L 187.132812 298.355469 L 254.484375 293.875 Z M 251.644531 251.21875 " clip-rule="nonzero"/></clipPath><clipPath id="d991c706d1"><path d="M 218 266 L 247 266 L 247 283 L 218 283 Z M 218 266 " clip-rule="nonzero"/></clipPath><clipPath id="a541bdfe25"><path d="M 184.433594 255.6875 L 251.785156 251.207031 L 254.625 293.863281 L 187.273438 298.34375 Z M 184.433594 255.6875 " clip-rule="nonzero"/></clipPath><clipPath id="1180b2e92c"><path d="M 251.644531 251.21875 L 184.292969 255.699219 L 187.132812 298.355469 L 254.484375 293.875 Z M 251.644531 251.21875 " clip-rule="nonzero"/></clipPath><clipPath id="887b933f80"><path d="M 243 261 L 253 261 L 253 271 L 243 271 Z M 243 261 " clip-rule="nonzero"/></clipPath><clipPath id="6c4d40894d"><path d="M 184.433594 255.6875 L 251.785156 251.207031 L 254.625 293.863281 L 187.273438 298.34375 Z M 184.433594 255.6875 " clip-rule="nonzero"/></clipPath><clipPath id="12c4570342"><path d="M 251.644531 251.21875 L 184.292969 255.699219 L 187.132812 298.355469 L 254.484375 293.875 Z M 251.644531 251.21875 " clip-rule="nonzero"/></clipPath><clipPath id="47058d863e"><path d="M 239 263 L 253 263 L 253 275 L 239 275 Z M 239 263 " clip-rule="nonzero"/></clipPath><clipPath id="4cf926aa0f"><path d="M 184.433594 255.6875 L 251.785156 251.207031 L 254.625 293.863281 L 187.273438 298.34375 Z M 184.433594 255.6875 " clip-rule="nonzero"/></clipPath><clipPath id="4f6f5c2b3c"><path d="M 251.644531 251.21875 L 184.292969 255.699219 L 187.132812 298.355469 L 254.484375 293.875 Z M 251.644531 251.21875 " clip-rule="nonzero"/></clipPath><clipPath id="848fd92826"><path d="M 218 271 L 244 271 L 244 285 L 218 285 Z M 218 271 " clip-rule="nonzero"/></clipPath><clipPath id="2ecc241b7e"><path d="M 184.433594 255.6875 L 251.785156 251.207031 L 254.625 293.863281 L 187.273438 298.34375 Z M 184.433594 255.6875 " clip-rule="nonzero"/></clipPath><clipPath id="77e392e135"><path d="M 251.644531 251.21875 L 184.292969 255.699219 L 187.132812 298.355469 L 254.484375 293.875 Z M 251.644531 251.21875 " clip-rule="nonzero"/></clipPath><clipPath id="8fdec9c31d"><path d="M 223 271 L 230 271 L 230 285 L 223 285 Z M 223 271 " clip-rule="nonzero"/></clipPath><clipPath id="36b90861f5"><path d="M 184.433594 255.6875 L 251.785156 251.207031 L 254.625 293.863281 L 187.273438 298.34375 Z M 184.433594 255.6875 " clip-rule="nonzero"/></clipPath><clipPath id="7def4c36bd"><path d="M 251.644531 251.21875 L 184.292969 255.699219 L 187.132812 298.355469 L 254.484375 293.875 Z M 251.644531 251.21875 " clip-rule="nonzero"/></clipPath><clipPath id="0a564c7ff0"><path d="M 227 271 L 235 271 L 235 287 L 227 287 Z M 227 271 " clip-rule="nonzero"/></clipPath><clipPath id="87ce395a6b"><path d="M 184.433594 255.6875 L 251.785156 251.207031 L 254.625 293.863281 L 187.273438 298.34375 Z M 184.433594 255.6875 " clip-rule="nonzero"/></clipPath><clipPath id="b5b1c0b588"><path d="M 251.644531 251.21875 L 184.292969 255.699219 L 187.132812 298.355469 L 254.484375 293.875 Z M 251.644531 251.21875 " clip-rule="nonzero"/></clipPath><clipPath id="8b47f9a3f2"><path d="M 232 273 L 240 273 L 240 286 L 232 286 Z M 232 273 " clip-rule="nonzero"/></clipPath><clipPath id="efa9bff460"><path d="M 184.433594 255.6875 L 251.785156 251.207031 L 254.625 293.863281 L 187.273438 298.34375 Z M 184.433594 255.6875 " clip-rule="nonzero"/></clipPath><clipPath id="f443bf18fd"><path d="M 251.644531 251.21875 L 184.292969 255.699219 L 187.132812 298.355469 L 254.484375 293.875 Z M 251.644531 251.21875 " clip-rule="nonzero"/></clipPath><clipPath id="428522f359"><path d="M 187 274 L 223 274 L 223 299 L 187 299 Z M 187 274 " clip-rule="nonzero"/></clipPath><clipPath id="7bf139ae1e"><path d="M 184.433594 255.6875 L 251.785156 251.207031 L 254.625 293.863281 L 187.273438 298.34375 Z M 184.433594 255.6875 " clip-rule="nonzero"/></clipPath><clipPath id="a24cc535ec"><path d="M 251.644531 251.21875 L 184.292969 255.699219 L 187.132812 298.355469 L 254.484375 293.875 Z M 251.644531 251.21875 " clip-rule="nonzero"/></clipPath></defs><g clip-path="url(#83e492cf58)"><path fill="#aa6535" d="M 21.386719 227.664062 C 18.683594 229.386719 16.402344 231.71875 14.828125 234.839844 C 12.859375 238.742188 12.355469 243.296875 12.09375 247.734375 C 11.535156 257.152344 13.316406 264.660156 14.59375 273.996094 C 15.777344 282.648438 19.878906 293.144531 27.953125 293.105469 C 29.570312 293.101562 31.234375 292.582031 32.410156 291.382812 C 35.636719 288.085938 33.582031 282.179688 30.808594 278.433594 C 28.039062 274.683594 27.203125 271.835938 27.976562 267.105469 C 28.710938 262.640625 29.171875 260.683594 33.351562 260.875 C 35.675781 260.984375 37.882812 261.757812 40.003906 262.816406 C 41.699219 263.667969 43.339844 264.699219 44.9375 265.734375 C 46.429688 266.695312 47.933594 267.667969 49.445312 268.644531 C 67.933594 280.550781 88.074219 292.683594 108.8125 287.925781 C 107.113281 293.714844 109.355469 300.585938 114.035156 303.929688 C 118.714844 307.269531 125.425781 306.789062 129.660156 302.808594 C 128.839844 298.96875 125.890625 296.1875 123.703125 293.039062 C 121.515625 289.890625 120.125 285.195312 122.488281 282.203125 C 124.085938 282.628906 125.6875 282.800781 127.277344 282.746094 C 127.335938 282.746094 127.398438 282.742188 127.460938 282.738281 C 127.644531 282.734375 127.824219 282.722656 128.003906 282.707031 C 133.101562 282.324219 138 279.664062 141.953125 275.730469 C 145.1875 272.511719 147.789062 268.4375 149.355469 264.058594 C 152.367188 255.632812 152.464844 246.484375 151.511719 237.417969 C 152.34375 236.507812 153.175781 235.621094 154.011719 234.78125 C 157.332031 231.464844 159.117188 231.253906 160.082031 226.289062 C 166.792969 226.898438 176.855469 227.648438 176.855469 227.648438 C 176.855469 227.648438 166.277344 217.070312 163.003906 207.933594 C 163.003906 207.933594 160.5 198.832031 155.078125 200.1875 C 151.738281 195.90625 147.152344 192.664062 141.863281 191.015625 C 139.246094 190.082031 136.460938 189.574219 133.566406 189.574219 C 127.464844 189.574219 121.835938 191.820312 117.304688 195.609375 C 115.5625 196.992188 113.996094 198.589844 112.648438 200.363281 C 107.28125 199.183594 104.835938 208.140625 104.835938 208.140625 C 101.566406 217.246094 90.988281 227.824219 90.988281 227.824219 C 90.988281 227.824219 100.40625 227.125 107.097656 226.53125 C 107.546875 227.148438 107.929688 227.6875 108.273438 228.164062 C 104.832031 232.070312 99.441406 233.9375 94.34375 233.941406 C 88.042969 233.941406 81.964844 231.636719 75.910156 229.75 C 65.609375 226.535156 55.003906 224.472656 44.3125 223.597656 C 39.414062 223.199219 34.085938 223.304688 29.210938 224.472656 C 23.25 216.890625 20.03125 207.164062 20.410156 197.519531 C 20.617188 192.113281 21.898438 186.8125 23.171875 181.554688 C 16.023438 183.820312 10.28125 190.058594 8.613281 197.367188 C 8.121094 199.523438 7.960938 201.75 8.046875 203.957031 C 8.417969 213.367188 13.667969 222.339844 21.386719 227.664062 " fill-opacity="1" fill-rule="nonzero"/></g><path fill="#b8793c" d="M 116.269531 211.183594 C 115.960938 210.019531 117.179688 208.691406 118.988281 208.210938 C 120.800781 207.726562 122.527344 208.292969 122.839844 209.457031 C 123.152344 210.617188 121.933594 211.945312 120.121094 212.429688 C 118.308594 212.910156 116.582031 212.34375 116.269531 211.183594 Z M 146.738281 212.429688 C 144.925781 211.945312 143.707031 210.617188 144.019531 209.457031 C 144.332031 208.292969 146.058594 207.726562 147.871094 208.210938 C 149.683594 208.691406 150.898438 210.019531 150.589844 211.183594 C 150.277344 212.34375 148.550781 212.910156 146.738281 212.429688 Z M 154.128906 234.515625 C 149.964844 238.875 143.511719 241.933594 137.566406 228.453125 L 141.246094 247.566406 C 141.246094 247.566406 141.246094 256.855469 133.542969 256.855469 C 125.839844 256.855469 125.839844 247.566406 125.839844 247.566406 L 129.523438 228.453125 C 123.578125 241.933594 117.121094 238.902344 112.957031 234.515625 C 114.34375 236.835938 115.988281 238.816406 117.941406 240.148438 L 118.988281 250.003906 C 118.988281 258.015625 125.53125 264.554688 133.542969 264.554688 C 141.558594 264.554688 148.097656 258.015625 148.097656 250.003906 L 149.144531 240.148438 C 151.070312 238.789062 152.742188 236.835938 154.128906 234.515625 " fill-opacity="1" fill-rule="nonzero"/><path fill="#6d4111" d="M 109.617188 200.59375 C 109.078125 200.5625 101.039062 199.347656 95.941406 213.902344 C 95.941406 213.902344 95.0625 220.921875 85.945312 226.53125 C 85.945312 226.53125 81.558594 232.476562 88.75 239.835938 C 88.75 239.835938 93.476562 242.472656 92.261719 254.222656 C 92.261719 254.222656 89.457031 269.113281 99.453125 270.871094 C 109.445312 272.625 125.757812 255.976562 109.617188 231.425781 C 109.617188 231.425781 106.105469 227.945312 108.03125 217.242188 C 109.984375 206.539062 110.890625 200.59375 109.617188 200.59375 Z M 157.46875 200.59375 C 158.007812 200.5625 166.046875 199.347656 171.144531 213.902344 C 171.144531 213.902344 172.023438 220.921875 181.140625 226.53125 C 181.140625 226.53125 185.53125 232.476562 178.335938 239.835938 C 178.335938 239.835938 173.609375 242.472656 174.824219 254.222656 C 174.824219 254.222656 177.628906 269.113281 167.632812 270.871094 C 157.640625 272.625 141.328125 255.976562 157.46875 231.425781 C 157.46875 231.425781 160.980469 227.945312 159.054688 217.242188 C 157.101562 206.539062 156.195312 200.59375 157.46875 200.59375 Z M 143.425781 287.625 C 145.070312 289.835938 147.839844 291.5625 148.214844 294.207031 C 148.539062 296.5 146.761719 298.746094 144.441406 299.6875 C 142.121094 300.625 139.414062 300.453125 136.984375 299.769531 C 133.039062 298.65625 129.421875 296.011719 128.257812 292.40625 C 127.710938 290.714844 127.722656 288.921875 127.777344 287.160156 C 127.828125 285.675781 127.90625 284.191406 128.003906 282.707031 C 133.101562 282.324219 138 279.664062 141.953125 275.730469 C 142.21875 280.074219 141.734375 285.351562 143.425781 287.625 Z M 44.9375 265.734375 C 43.339844 264.699219 41.699219 263.667969 40 262.816406 C 39.074219 265.632812 38.351562 268.496094 38.203125 271.445312 C 37.957031 276.199219 39.378906 281.292969 43.152344 284.746094 C 43.988281 285.511719 44.9375 286.191406 46.015625 286.625 C 49.816406 288.136719 54.464844 285.949219 55.882812 282.519531 C 57.300781 279.089844 55.917969 274.984375 53.171875 272.140625 C 51.996094 270.925781 50.578125 269.875 49.445312 268.644531 C 47.933594 267.667969 46.429688 266.695312 44.9375 265.734375 " fill-opacity="1" fill-rule="nonzero"/><path fill="#000000" d="M 27.257812 291.964844 C 27.214844 291.136719 27.285156 290.007812 26.957031 288.882812 C 26.636719 287.742188 26.019531 286.832031 25.503906 286.238281 C 24.984375 285.640625 24.585938 285.324219 24.644531 285.226562 C 24.691406 285.144531 25.207031 285.304688 25.878906 285.851562 C 26.539062 286.398438 27.324219 287.378906 27.6875 288.675781 C 27.875 289.316406 27.925781 289.964844 27.914062 290.523438 C 27.902344 291.085938 27.847656 291.578125 27.796875 291.988281 C 27.6875 292.808594 27.570312 293.3125 27.464844 293.304688 C 27.359375 293.300781 27.289062 292.789062 27.257812 291.964844 Z M 32.632812 290.042969 C 32.582031 289.828125 32.53125 289.59375 32.453125 289.347656 C 32.390625 289.097656 32.292969 288.839844 32.203125 288.566406 C 32.003906 288.027344 31.75 287.445312 31.429688 286.867188 C 31.101562 286.289062 30.738281 285.769531 30.382812 285.316406 C 30.199219 285.097656 30.027344 284.878906 29.847656 284.695312 C 29.675781 284.503906 29.507812 284.335938 29.347656 284.179688 C 28.71875 283.570312 28.273438 283.226562 28.332031 283.125 C 28.378906 283.042969 28.929688 283.226562 29.691406 283.769531 C 29.882812 283.90625 30.085938 284.058594 30.289062 284.246094 C 30.5 284.421875 30.699219 284.636719 30.914062 284.859375 C 31.328125 285.320312 31.738281 285.871094 32.09375 286.492188 C 32.441406 287.121094 32.691406 287.757812 32.871094 288.351562 C 32.949219 288.648438 33.027344 288.933594 33.066406 289.207031 C 33.121094 289.476562 33.148438 289.730469 33.164062 289.964844 C 33.226562 290.894531 33.09375 291.464844 33.003906 291.460938 C 32.886719 291.457031 32.824219 290.898438 32.632812 290.042969 Z M 120.761719 304.792969 C 120.714844 304.457031 120.636719 304.0625 120.523438 303.636719 C 120.40625 303.210938 120.253906 302.75 120.046875 302.28125 C 119.839844 301.820312 119.601562 301.398438 119.363281 301.023438 C 119.117188 300.65625 118.878906 300.332031 118.660156 300.074219 C 118.230469 299.550781 117.917969 299.242188 117.984375 299.148438 C 118.039062 299.070312 118.46875 299.226562 119.039062 299.691406 C 119.324219 299.921875 119.632812 300.234375 119.933594 300.617188 C 120.226562 301.003906 120.511719 301.460938 120.742188 301.972656 C 120.96875 302.488281 121.117188 303.007812 121.210938 303.484375 C 121.292969 303.964844 121.320312 304.402344 121.296875 304.765625 C 121.261719 305.5 121.089844 305.929688 120.996094 305.914062 C 120.882812 305.902344 120.859375 305.464844 120.761719 304.792969 Z M 125.625 301.449219 C 124.871094 299.242188 123.566406 297.792969 123.730469 297.636719 C 123.800781 297.570312 124.226562 297.84375 124.765625 298.453125 C 125.039062 298.757812 125.324219 299.148438 125.605469 299.613281 C 125.875 300.078125 126.136719 300.613281 126.34375 301.199219 C 126.546875 301.789062 126.679688 302.371094 126.753906 302.90625 C 126.824219 303.441406 126.847656 303.925781 126.824219 304.332031 C 126.777344 305.144531 126.617188 305.625 126.519531 305.613281 C 126.292969 305.59375 126.414062 303.648438 125.625 301.449219 Z M 142.359375 299.179688 C 142.332031 298.984375 142.304688 298.769531 142.25 298.542969 C 142.214844 298.3125 142.136719 298.078125 142.070312 297.828125 C 141.914062 297.332031 141.703125 296.800781 141.417969 296.277344 C 141.121094 295.757812 140.785156 295.292969 140.449219 294.898438 C 140.273438 294.710938 140.113281 294.519531 139.9375 294.367188 C 139.777344 294.199219 139.609375 294.0625 139.457031 293.9375 C 138.84375 293.433594 138.398438 293.179688 138.441406 293.070312 C 138.472656 292.984375 139.007812 293.0625 139.761719 293.492188 C 139.949219 293.601562 140.152344 293.726562 140.347656 293.886719 C 140.558594 294.035156 140.753906 294.222656 140.960938 294.421875 C 141.363281 294.828125 141.757812 295.328125 142.082031 295.910156 C 142.398438 296.492188 142.613281 297.089844 142.75 297.648438 C 142.804688 297.929688 142.859375 298.195312 142.875 298.449219 C 142.90625 298.703125 142.90625 298.941406 142.898438 299.15625 C 142.863281 300.023438 142.644531 300.519531 142.554688 300.5 C 142.4375 300.480469 142.460938 299.96875 142.359375 299.179688 Z M 146.8125 297.335938 C 146.789062 297.15625 146.761719 296.957031 146.714844 296.75 C 146.683594 296.539062 146.617188 296.320312 146.558594 296.089844 C 146.425781 295.628906 146.246094 295.136719 146.003906 294.640625 C 145.753906 294.152344 145.46875 293.714844 145.183594 293.328125 C 145.03125 293.144531 144.898438 292.960938 144.746094 292.808594 C 144.609375 292.644531 144.46875 292.503906 144.339844 292.375 C 143.8125 291.863281 143.433594 291.582031 143.488281 291.480469 C 143.53125 291.394531 144.015625 291.511719 144.679688 291.957031 C 144.839844 292.070312 145.019531 292.199219 145.191406 292.355469 C 145.375 292.507812 145.542969 292.691406 145.722656 292.882812 C 146.070312 293.28125 146.40625 293.757812 146.683594 294.304688 C 146.953125 294.851562 147.132812 295.410156 147.242188 295.925781 C 147.285156 296.183594 147.332031 296.433594 147.339844 296.667969 C 147.363281 296.898438 147.359375 297.117188 147.351562 297.316406 C 147.308594 298.113281 147.109375 298.570312 147.019531 298.554688 C 146.902344 298.535156 146.90625 298.0625 146.8125 297.335938 Z M 114.515625 224.886719 C 114.515625 220.722656 116.78125 216.507812 119.554688 216.507812 C 122.332031 216.507812 124.59375 220.722656 124.59375 224.886719 C 124.59375 224.886719 123.519531 218.996094 119.554688 218.941406 C 115.59375 218.882812 114.800781 224.886719 114.800781 224.886719 M 141.953125 224.886719 C 141.953125 220.722656 144.21875 216.507812 146.992188 216.507812 C 149.765625 216.507812 152.03125 220.722656 152.03125 224.886719 C 152.03125 224.886719 150.957031 218.996094 146.992188 218.941406 C 143.027344 218.855469 142.234375 224.886719 142.234375 224.886719 M 126.410156 259.828125 C 126.265625 259.996094 126.292969 260.25 126.464844 260.394531 C 127.425781 261.1875 128.445312 261.554688 129.4375 261.554688 C 129.664062 261.554688 129.890625 261.527344 130.117188 261.496094 C 131.789062 261.214844 132.976562 259.910156 133.542969 259.175781 C 134.109375 259.882812 135.296875 261.1875 136.96875 261.496094 C 137.195312 261.527344 137.421875 261.554688 137.648438 261.554688 C 138.640625 261.554688 139.660156 261.160156 140.621094 260.394531 C 140.792969 260.25 140.820312 259.996094 140.679688 259.828125 C 140.535156 259.65625 140.28125 259.628906 140.113281 259.769531 C 139.09375 260.5625 138.101562 260.902344 137.082031 260.734375 C 135.382812 260.449219 134.195312 258.835938 133.910156 258.414062 L 133.910156 256.769531 C 140.765625 256.542969 141.667969 247.738281 141.667969 247.738281 C 137.449219 243.914062 133.515625 245.101562 133.515625 245.101562 C 133.515625 245.101562 129.578125 243.914062 125.359375 247.738281 C 125.359375 247.738281 126.265625 256.570312 133.117188 256.769531 L 133.117188 258.414062 C 132.835938 258.835938 131.648438 260.449219 129.949219 260.734375 C 128.957031 260.902344 127.9375 260.589844 126.917969 259.769531 C 126.777344 259.65625 126.550781 259.65625 126.410156 259.828125 " fill-opacity="1" fill-rule="nonzero"/><g clip-path="url(#d67ccae79b)"><path fill="#808080" d="M 358.105469 216.203125 C 355.367188 211.609375 351.941406 207.363281 350.074219 202.355469 C 348.199219 197.347656 348.246094 191.128906 351.957031 187.273438 C 353.453125 185.71875 355.660156 183.917969 354.820312 181.929688 C 354.140625 180.320312 351.902344 180.125 350.222656 180.601562 C 344.324219 182.292969 340.941406 188.914062 341.066406 195.046875 C 341.195312 201.179688 344.050781 206.894531 347.058594 212.238281 C 350.070312 217.585938 353.351562 222.949219 354.476562 228.980469 C 355.1875 232.816406 354.886719 237.097656 352.445312 240.140625 C 352.433594 240.15625 352.417969 240.175781 352.40625 240.1875 C 350.445312 242.585938 346.875 242.863281 344.480469 240.902344 C 334.800781 232.976562 326.582031 223.1875 316.898438 215.175781 C 304.886719 205.242188 288.597656 197.921875 273.882812 203.058594 C 271.980469 203.71875 270.015625 204.59375 268.035156 204.222656 C 264.996094 203.652344 263.242188 200.277344 263.273438 197.164062 C 263.277344 197.019531 263.28125 196.875 263.289062 196.730469 C 263.496094 193.5 265.109375 190.5625 266.363281 187.582031 C 270.003906 178.925781 270.714844 169.082031 268.425781 159.980469 C 268.160156 158.917969 267.058594 158.316406 266.019531 158.652344 C 261.832031 160.011719 258.039062 162.625 255.332031 166.09375 C 252.839844 164.464844 250.058594 163.273438 247.15625 162.617188 C 243.332031 161.753906 239.308594 161.820312 235.507812 162.777344 C 234.652344 161.300781 233.449219 159.96875 232.253906 158.746094 C 231.386719 157.863281 230.484375 156.960938 229.675781 156.003906 C 228.996094 155.203125 227.792969 155.136719 227.015625 155.835938 C 223.28125 159.167969 221.039062 164.183594 221.140625 169.1875 C 218.429688 175.25 218.308594 182.5 221.105469 188.550781 C 222.300781 191.140625 223.96875 193.5 225.015625 196.15625 C 227.25 201.835938 226.410156 208.183594 226.132812 214.28125 C 225.832031 220.980469 226.332031 227.996094 229.726562 233.773438 C 232.351562 238.246094 236.476562 241.589844 240.507812 244.835938 C 241.699219 245.796875 242.890625 246.753906 244.082031 247.714844 C 250.570312 257.046875 255.617188 267.382812 258.964844 278.246094 C 259.8125 281.007812 260.5625 283.859375 260.390625 286.742188 C 260.222656 289.625 258.992188 292.574219 256.601562 294.191406 C 254.714844 295.46875 251.882812 296.355469 251.839844 298.636719 C 251.8125 300.03125 252.988281 301.15625 254.203125 301.847656 C 255.171875 302.398438 256.203125 302.78125 257.269531 303.015625 C 261.535156 303.941406 266.339844 302.441406 269.839844 299.65625 C 274.207031 296.175781 276.9375 291.066406 279.277344 285.996094 C 281.972656 280.140625 284.304688 274.132812 286.488281 268.0625 C 286.730469 267.382812 287.609375 267.226562 288.082031 267.769531 C 291.460938 271.621094 295.804688 274.636719 300.65625 276.289062 C 303.554688 277.277344 306.980469 278.109375 308.292969 280.875 C 310.011719 284.488281 306.789062 288.542969 303.371094 290.636719 C 301.800781 291.597656 300.125 292.410156 298.332031 292.832031 C 295.785156 293.433594 293.105469 293.230469 290.539062 293.734375 C 287.964844 294.234375 285.300781 295.742188 284.652344 298.28125 C 284.460938 299.046875 284.472656 299.878906 284.8125 300.589844 C 285.804688 302.644531 288.691406 302.605469 290.960938 302.359375 C 297.015625 301.707031 303.152344 301.832031 309.179688 302.726562 C 310.660156 302.945312 312.164062 303.210938 313.648438 302.984375 C 317.832031 302.339844 320.339844 298.179688 323.214844 295.066406 C 325.5625 292.527344 328.46875 290.511719 331.667969 289.195312 C 333.351562 288.503906 335.21875 287.925781 336.316406 286.472656 C 337.957031 284.285156 337.125 281.15625 335.90625 278.707031 C 334.6875 276.257812 333.101562 273.730469 333.445312 271.015625 C 333.929688 267.230469 337.804688 265.019531 340.359375 262.183594 C 342.007812 260.359375 343.113281 258.085938 343.640625 255.6875 C 344.023438 253.957031 345.539062 252.726562 347.308594 252.714844 C 350.210938 252.699219 353.144531 251.839844 355.546875 250.210938 C 360.734375 246.683594 363.472656 240.242188 363.546875 233.96875 C 363.621094 227.695312 361.3125 221.589844 358.105469 216.203125 " fill-opacity="1" fill-rule="nonzero"/></g><g clip-path="url(#c1090f1eaa)"><path fill="#808080" d="M 358.105469 216.203125 C 361.3125 221.589844 363.621094 227.695312 363.546875 233.96875 C 363.472656 240.242188 360.734375 246.683594 355.546875 250.210938 C 353.144531 251.839844 350.210938 252.699219 347.308594 252.714844 C 345.539062 252.726562 344.023438 253.957031 343.640625 255.6875 C 343.113281 258.085938 342.007812 260.359375 340.359375 262.183594 C 337.804688 265.019531 333.929688 267.230469 333.445312 271.015625 C 333.101562 273.730469 334.6875 276.257812 335.90625 278.707031 C 337.125 281.15625 337.957031 284.285156 336.316406 286.472656 C 335.21875 287.925781 333.351562 288.503906 331.667969 289.195312 C 328.46875 290.511719 325.5625 292.527344 323.214844 295.066406 C 320.339844 298.179688 317.832031 302.339844 313.648438 302.984375 C 312.164062 303.210938 310.660156 302.945312 309.179688 302.726562 C 303.152344 301.832031 297.015625 301.707031 290.960938 302.359375 C 288.691406 302.605469 285.804688 302.644531 284.8125 300.589844 C 284.472656 299.878906 284.460938 299.046875 284.652344 298.28125 C 285.300781 295.742188 287.964844 294.234375 290.539062 293.734375 C 293.105469 293.230469 295.785156 293.433594 298.332031 292.832031 C 300.125 292.410156 301.800781 291.597656 303.371094 290.636719 C 306.789062 288.542969 310.011719 284.488281 308.292969 280.875 C 306.980469 278.109375 303.554688 277.277344 300.65625 276.289062 C 295.804688 274.636719 291.460938 271.621094 288.082031 267.769531 C 287.609375 267.226562 286.730469 267.382812 286.488281 268.0625 C 284.304688 274.132812 281.972656 280.140625 279.277344 285.996094 C 276.9375 291.066406 274.207031 296.175781 269.839844 299.65625 C 266.339844 302.441406 261.535156 303.941406 257.269531 303.015625 C 257.386719 301.328125 257.9375 299.675781 258.921875 298.296875 C 260.273438 296.398438 262.3125 295.042969 263.507812 293.042969 C 264.433594 291.5 264.789062 289.679688 265.03125 287.894531 C 266.179688 279.480469 265.261719 270.792969 262.382812 262.804688 C 262.320312 262.625 262.253906 262.449219 262.183594 262.269531 C 260.488281 257.707031 258.21875 253.316406 257.300781 248.535156 C 256.414062 243.921875 256.777344 238.960938 254.671875 234.757812 C 253.34375 232.097656 251.125 229.976562 249.726562 227.355469 C 246.660156 221.609375 248.074219 214.304688 251.59375 208.824219 C 254.582031 204.171875 258.863281 200.554688 263.273438 197.164062 C 263.242188 200.277344 264.996094 203.652344 268.035156 204.222656 C 270.015625 204.59375 271.980469 203.71875 273.882812 203.058594 C 288.597656 197.921875 304.886719 205.242188 316.898438 215.175781 C 326.582031 223.1875 334.800781 232.976562 344.480469 240.902344 C 346.875 242.863281 350.445312 242.585938 352.40625 240.1875 C 352.417969 240.175781 352.433594 240.15625 352.445312 240.140625 C 354.886719 237.097656 355.1875 232.816406 354.476562 228.980469 C 353.351562 222.949219 350.070312 217.585938 347.058594 212.238281 C 344.050781 206.894531 341.195312 201.179688 341.066406 195.046875 C 340.941406 188.914062 344.324219 182.292969 350.222656 180.601562 C 351.902344 180.125 354.140625 180.320312 354.820312 181.929688 C 355.660156 183.917969 353.453125 185.71875 351.957031 187.273438 C 348.246094 191.128906 348.199219 197.347656 350.074219 202.355469 C 351.941406 207.363281 355.367188 211.609375 358.105469 216.203125 " fill-opacity="1" fill-rule="nonzero"/></g><g clip-path="url(#668cc80ca9)"><path fill="#808080" d="M 268.425781 159.980469 C 270.714844 169.082031 270.003906 178.925781 266.363281 187.582031 C 265.109375 190.5625 263.496094 193.5 263.289062 196.730469 C 263.28125 196.875 263.277344 197.019531 263.273438 197.164062 C 258.863281 200.554688 254.582031 204.171875 251.59375 208.824219 C 248.074219 214.304688 246.660156 221.609375 249.726562 227.355469 C 251.125 229.976562 253.34375 232.097656 254.671875 234.757812 C 256.777344 238.960938 256.414062 243.921875 257.300781 248.535156 C 258.21875 253.316406 260.488281 257.707031 262.183594 262.269531 C 262.253906 262.449219 262.320312 262.625 262.382812 262.804688 C 265.261719 270.792969 266.179688 279.480469 265.03125 287.894531 C 264.789062 289.679688 264.433594 291.5 263.507812 293.042969 C 262.3125 295.042969 260.273438 296.398438 258.921875 298.296875 C 257.9375 299.675781 257.386719 301.328125 257.269531 303.015625 C 256.203125 302.78125 255.171875 302.398438 254.203125 301.847656 C 252.988281 301.15625 251.8125 300.03125 251.839844 298.636719 C 251.882812 296.355469 254.714844 295.46875 256.601562 294.191406 C 258.992188 292.574219 260.222656 289.625 260.390625 286.742188 C 260.5625 283.859375 259.8125 281.007812 258.964844 278.246094 C 255.617188 267.382812 250.570312 257.046875 244.082031 247.714844 C 242.890625 246.753906 241.699219 245.796875 240.507812 244.835938 C 236.476562 241.589844 232.351562 238.246094 229.726562 233.773438 C 226.332031 227.996094 225.832031 220.980469 226.132812 214.28125 C 226.410156 208.183594 227.25 201.835938 225.015625 196.15625 C 223.96875 193.5 222.300781 191.140625 221.105469 188.550781 C 218.308594 182.5 218.429688 175.25 221.140625 169.1875 C 221.039062 164.183594 223.28125 159.167969 227.015625 155.835938 C 227.792969 155.136719 228.996094 155.203125 229.675781 156.003906 C 230.484375 156.960938 231.386719 157.863281 232.253906 158.746094 C 233.449219 159.96875 234.652344 161.300781 235.507812 162.777344 C 239.308594 161.820312 243.332031 161.753906 247.15625 162.617188 C 250.058594 163.273438 252.839844 164.464844 255.332031 166.09375 C 258.039062 162.625 261.832031 160.011719 266.019531 158.652344 C 267.058594 158.316406 268.160156 158.917969 268.425781 159.980469 " fill-opacity="1" fill-rule="nonzero"/></g><path fill="#f49274" d="M 229.28125 158.863281 C 229.09375 158.648438 228.863281 158.414062 228.578125 158.421875 C 228.304688 158.429688 228.09375 158.652344 227.917969 158.863281 C 226.027344 161.15625 224.6875 163.898438 223.996094 166.789062 C 223.816406 167.542969 224.636719 168.121094 225.289062 167.703125 C 227.445312 166.3125 229.859375 165.304688 232.367188 164.761719 C 232.96875 164.628906 233.246094 163.933594 232.882812 163.429688 C 231.753906 161.855469 230.550781 160.332031 229.28125 158.863281 Z M 266.117188 162.832031 C 267.015625 164.984375 266.386719 167.46875 265.484375 169.621094 C 265.019531 170.714844 264.484375 171.800781 264.039062 172.90625 C 263.785156 173.53125 262.941406 173.621094 262.5625 173.0625 C 261.445312 171.429688 260.128906 169.9375 258.640625 168.628906 C 258.261719 168.300781 258.257812 167.714844 258.628906 167.375 C 260.398438 165.746094 262.199219 164.148438 264.03125 162.585938 C 264.445312 162.230469 264.988281 161.855469 265.492188 162.066406 C 265.800781 162.199219 265.984375 162.519531 266.117188 162.832031 " fill-opacity="1" fill-rule="nonzero"/><path fill="#f49274" d="M 240.046875 177.609375 C 240.636719 179.042969 241.570312 180.308594 242.835938 181.066406 C 240.75 182.328125 238.382812 182.519531 236.410156 180.753906 C 237.898438 180.230469 239.152344 179.039062 240.046875 177.609375 " fill-opacity="1" fill-rule="nonzero"/><g clip-path="url(#6d7bb93d98)"><path fill="#3e393a" d="M 263.015625 300.039062 C 262.824219 299.167969 263.03125 298.40625 263.199219 297.558594 C 263.25 297.292969 262.835938 297.1875 262.683594 297.367188 C 261.421875 298.871094 261.859375 301.644531 263.453125 302.734375 C 263.722656 302.917969 264.472656 302.644531 264.199219 302.257812 C 263.707031 301.558594 263.199219 300.894531 263.015625 300.039062 Z M 289.539062 296.613281 C 287.722656 297.746094 287.253906 301.070312 288.933594 302.527344 C 289.222656 302.78125 289.925781 302.613281 289.738281 302.136719 C 289.378906 301.222656 288.984375 300.445312 289.011719 299.433594 C 289.035156 298.449219 289.425781 297.640625 289.828125 296.769531 C 289.898438 296.617188 289.632812 296.550781 289.539062 296.613281 Z M 308.550781 297.019531 C 306.714844 297.828125 305.304688 300.5625 306.980469 302.21875 C 307.148438 302.382812 307.652344 302.347656 307.597656 302.027344 C 307.460938 301.222656 307.171875 300.488281 307.316406 299.65625 C 307.480469 298.714844 308.054688 297.902344 308.847656 297.367188 C 309.144531 297.164062 308.804688 296.90625 308.550781 297.019531 Z M 240.046875 177.609375 C 239.152344 179.039062 237.898438 180.230469 236.410156 180.753906 C 238.382812 182.519531 240.75 182.328125 242.835938 181.066406 C 241.570312 180.308594 240.636719 179.042969 240.046875 177.609375 Z M 239.402344 175.304688 C 239.386719 175.203125 239.378906 175.105469 239.367188 175.003906 L 237.269531 173.816406 C 236.078125 173.136719 236.695312 171.3125 238.054688 171.496094 L 243.296875 172.214844 C 244.65625 172.398438 244.761719 174.324219 243.433594 174.65625 L 241.140625 175.230469 C 241.136719 175.238281 241.136719 175.246094 241.132812 175.253906 C 241.53125 176.53125 241.898438 177.816406 242.710938 178.914062 C 244.222656 180.960938 246.789062 181.496094 248.800781 179.851562 C 248.910156 179.761719 249.273438 179.785156 249.1875 180.003906 C 248.390625 182.058594 245.691406 182.175781 243.8125 181.523438 C 241.707031 184.023438 237.65625 183.519531 235.625 181.089844 C 235.59375 181.050781 235.570312 181.011719 235.558594 180.972656 C 233.621094 181.316406 231.085938 180.792969 230.660156 178.652344 C 230.617188 178.4375 230.976562 178.425781 231.074219 178.535156 C 232.648438 180.210938 234.988281 180.535156 236.863281 179.035156 C 238.082031 178.054688 238.738281 176.675781 239.402344 175.304688 Z M 231.464844 175.445312 C 225.222656 176.050781 219.613281 179.722656 216.679688 185.285156 C 216.476562 185.667969 217.132812 185.816406 217.320312 185.511719 C 220.429688 180.445312 225.617188 176.878906 231.503906 175.917969 C 231.863281 175.859375 231.84375 175.40625 231.464844 175.445312 Z M 232.070312 174.382812 C 232.335938 174.386719 232.457031 174.027344 232.183594 173.929688 C 228.734375 172.691406 224.347656 173.21875 220.867188 174.074219 C 217.25 174.960938 213.886719 176.535156 211 178.890625 C 210.609375 179.210938 211.273438 179.601562 211.597656 179.378906 C 214.535156 177.339844 217.75 175.722656 221.238281 174.875 C 224.902344 173.980469 228.363281 174.316406 232.070312 174.382812 Z M 249.394531 177.613281 C 254.289062 179.804688 257.535156 183.167969 260.332031 187.667969 C 260.558594 188.035156 261.3125 187.859375 261.140625 187.386719 C 259.375 182.507812 254.570312 178.589844 249.664062 177.167969 C 249.355469 177.078125 249.019531 177.445312 249.394531 177.613281 Z M 249.804688 175.90625 C 253.773438 175.660156 257.699219 176.050781 261.480469 177.332031 C 265.351562 178.648438 268.484375 180.886719 271.652344 183.398438 C 271.949219 183.632812 272.582031 183.261719 272.273438 182.90625 C 267.058594 176.910156 257.449219 174.226562 249.777344 175.515625 C 249.484375 175.566406 249.492188 175.925781 249.804688 175.90625 Z M 227.316406 170.46875 C 228.539062 170.59375 229.628906 170.429688 230.8125 170.921875 C 231.957031 171.398438 232.917969 172.144531 233.59375 173.1875 C 233.71875 173.378906 234.140625 173.238281 234.050781 172.996094 C 233.148438 170.558594 229.683594 168.15625 227.128906 169.824219 C 226.808594 170.035156 226.964844 170.429688 227.316406 170.46875 Z M 250.238281 174.117188 C 252.238281 171.605469 254.847656 171.484375 257.691406 172.414062 C 257.960938 172.5 258.570312 172.175781 258.21875 171.878906 C 255.519531 169.582031 251.304688 171.015625 249.738281 173.929688 C 249.574219 174.238281 250.074219 174.324219 250.238281 174.117188 Z M 299.480469 239.300781 C 291.796875 243.957031 287.367188 253.011719 289.105469 261.90625 C 290.09375 266.988281 292.910156 272.128906 297.335938 274.960938 C 297.757812 275.230469 298.621094 274.714844 298.152344 274.25 C 295.109375 271.203125 292.523438 267.929688 291.234375 263.757812 C 290 259.773438 289.953125 255.460938 291.265625 251.488281 C 293.953125 243.34375 301.554688 237.480469 310.128906 237.078125 C 315.335938 236.832031 320.4375 238.304688 324.800781 241.117188 C 324.886719 241.175781 325.050781 241.085938 324.945312 240.992188 C 317.941406 234.925781 307.28125 234.578125 299.480469 239.300781 Z M 286.050781 222.199219 C 285.402344 217.214844 282.015625 212.601562 278.089844 209.625 C 276.230469 208.210938 274.207031 207.183594 272.035156 206.339844 C 269.40625 205.324219 266.675781 204.425781 264.640625 202.378906 C 264.570312 202.308594 264.378906 202.367188 264.457031 202.472656 C 267.367188 206.328125 272.789062 207.085938 276.519531 209.941406 C 280.761719 213.183594 283.160156 217.570312 285.03125 222.464844 C 285.207031 222.925781 286.117188 222.695312 286.050781 222.199219 Z M 251.863281 194.625 C 252.351562 194.160156 251.476562 193.769531 251.074219 194.027344 C 248.0625 195.976562 244.664062 197.125 241.050781 196.664062 C 237.332031 196.1875 234.085938 194.078125 230.984375 192.121094 C 230.707031 191.945312 230.242188 192.269531 230.566406 192.523438 C 233.875 195.128906 237.394531 197.691406 241.734375 198.007812 C 245.390625 198.277344 249.183594 197.167969 251.863281 194.625 Z M 259.636719 256.222656 C 257.621094 251.765625 255.304688 247.121094 252.148438 243.351562 C 252.046875 243.230469 251.703125 243.304688 251.796875 243.492188 C 253.785156 247.433594 256.082031 251.175781 257.851562 255.238281 C 258.28125 256.222656 258.691406 257.214844 259.089844 258.210938 C 258.824219 257.9375 258.558594 257.671875 258.304688 257.417969 C 256.710938 255.816406 254.925781 254.445312 253.089844 253.144531 C 249.417969 250.546875 245.71875 248.042969 242.113281 245.351562 C 242.023438 245.285156 241.804688 245.371094 241.90625 245.492188 C 244.632812 248.742188 248.558594 251.054688 251.90625 253.597656 C 253.542969 254.839844 255.148438 256.140625 256.613281 257.582031 C 258.214844 259.160156 259.285156 261.097656 260.753906 262.746094 C 261.351562 264.511719 261.894531 266.296875 262.378906 268.101562 C 263.542969 272.453125 264.375 276.890625 264.839844 281.375 C 265.078125 283.679688 265.308594 286.042969 265.234375 288.355469 C 265.148438 290.976562 264.089844 292.699219 262.039062 294.265625 C 259.628906 296.109375 255.703125 299.179688 257.140625 302.710938 C 257.414062 303.386719 258.746094 302.886719 258.441406 302.140625 C 257.679688 300.269531 259.433594 298.046875 260.71875 296.847656 C 262.121094 295.542969 263.867188 294.640625 265.089844 293.136719 C 267.566406 290.089844 266.652344 285.226562 266.300781 281.621094 C 265.457031 272.894531 263.261719 264.214844 259.636719 256.222656 Z M 317.898438 280.875 C 316.523438 280.007812 314.6875 280.085938 313.144531 279.785156 C 311.054688 279.375 309.105469 278.636719 307.074219 278.042969 C 306.820312 277.96875 306.390625 278.257812 306.722656 278.476562 C 309.507812 280.34375 312.757812 280.511719 315.898438 281.308594 C 317.617188 281.742188 318.628906 283.296875 318.265625 285.0625 C 317.890625 286.886719 316.003906 288.109375 314.457031 288.871094 C 311.460938 290.34375 308.265625 291.109375 305.765625 293.445312 C 303.714844 295.363281 302.171875 297.917969 301.761719 300.722656 C 301.609375 301.746094 303.363281 301.53125 303.554688 300.664062 C 304.375 296.972656 306.625 293.949219 310.027344 292.238281 C 313.027344 290.722656 316.859375 289.992188 318.847656 287.011719 C 320.152344 285.058594 320.035156 282.214844 317.898438 280.875 Z M 343.449219 248.203125 C 343.261719 247.890625 342.621094 248.027344 342.757812 248.429688 C 343.753906 251.355469 343.640625 253.996094 342.664062 256.90625 C 342.523438 257.332031 343.277344 257.351562 343.449219 257.070312 C 345.085938 254.441406 345.042969 250.851562 343.449219 248.203125 Z M 286.1875 252.746094 C 287.378906 257.914062 288.695312 263.632812 286.707031 268.777344 C 286.476562 269.371094 285.082031 269.335938 285.285156 268.601562 C 286.875 262.882812 285.617188 257.351562 284.34375 251.707031 C 283.203125 246.65625 281.964844 240.671875 284.371094 235.785156 C 284.476562 235.574219 284.910156 235.652344 284.859375 235.914062 C 284.265625 238.84375 284.125 241.601562 284.507812 244.574219 C 284.867188 247.332031 285.566406 250.039062 286.1875 252.746094 " fill-opacity="1" fill-rule="nonzero"/></g><g clip-path="url(#f87637d972)"><path fill="#3871e6" d="M 185.917969 291.773438 C 185.917969 292.320312 185.890625 292.867188 185.835938 293.410156 C 185.785156 293.953125 185.703125 294.492188 185.597656 295.027344 C 185.492188 295.5625 185.359375 296.089844 185.199219 296.613281 C 185.042969 297.136719 184.859375 297.648438 184.648438 298.15625 C 184.441406 298.660156 184.207031 299.152344 183.949219 299.632812 C 183.691406 300.113281 183.410156 300.582031 183.109375 301.035156 C 182.804688 301.492188 182.480469 301.929688 182.132812 302.351562 C 181.789062 302.773438 181.421875 303.175781 181.035156 303.5625 C 180.648438 303.949219 180.246094 304.316406 179.824219 304.660156 C 179.402344 305.007812 178.964844 305.332031 178.507812 305.636719 C 178.054688 305.9375 177.585938 306.21875 177.105469 306.476562 C 176.625 306.734375 176.132812 306.96875 175.625 307.175781 C 175.121094 307.386719 174.609375 307.570312 174.085938 307.726562 C 173.5625 307.886719 173.035156 308.019531 172.5 308.125 C 171.964844 308.230469 171.425781 308.3125 170.882812 308.363281 C 170.335938 308.417969 169.792969 308.445312 169.246094 308.445312 C 168.703125 308.445312 168.15625 308.417969 167.613281 308.363281 C 167.070312 308.3125 166.53125 308.230469 165.996094 308.125 C 165.460938 308.019531 164.929688 307.886719 164.40625 307.726562 C 163.886719 307.570312 163.371094 307.386719 162.867188 307.175781 C 162.363281 306.96875 161.871094 306.734375 161.386719 306.476562 C 160.90625 306.21875 160.4375 305.9375 159.984375 305.636719 C 159.53125 305.332031 159.09375 305.007812 158.671875 304.660156 C 158.25 304.316406 157.84375 303.949219 157.460938 303.5625 C 157.074219 303.175781 156.707031 302.773438 156.359375 302.351562 C 156.015625 301.929688 155.6875 301.492188 155.386719 301.035156 C 155.082031 300.582031 154.800781 300.113281 154.542969 299.632812 C 154.289062 299.152344 154.054688 298.660156 153.84375 298.15625 C 153.636719 297.648438 153.453125 297.136719 153.292969 296.613281 C 153.136719 296.089844 153.003906 295.5625 152.898438 295.027344 C 152.789062 294.492188 152.710938 293.953125 152.65625 293.410156 C 152.601562 292.867188 152.578125 292.320312 152.578125 291.773438 C 152.578125 291.230469 152.601562 290.683594 152.65625 290.140625 C 152.710938 289.597656 152.789062 289.058594 152.898438 288.523438 C 153.003906 287.988281 153.136719 287.457031 153.292969 286.933594 C 153.453125 286.414062 153.636719 285.898438 153.84375 285.394531 C 154.054688 284.890625 154.289062 284.398438 154.542969 283.917969 C 154.800781 283.433594 155.082031 282.96875 155.386719 282.511719 C 155.6875 282.058594 156.015625 281.621094 156.359375 281.199219 C 156.707031 280.777344 157.074219 280.371094 157.460938 279.988281 C 157.84375 279.601562 158.25 279.234375 158.671875 278.886719 C 159.09375 278.542969 159.53125 278.214844 159.984375 277.914062 C 160.4375 277.609375 160.90625 277.328125 161.386719 277.074219 C 161.871094 276.816406 162.363281 276.582031 162.867188 276.371094 C 163.371094 276.164062 163.886719 275.980469 164.40625 275.820312 C 164.929688 275.664062 165.460938 275.53125 165.996094 275.425781 C 166.53125 275.316406 167.070312 275.238281 167.613281 275.183594 C 168.15625 275.128906 168.703125 275.105469 169.246094 275.105469 C 169.792969 275.105469 170.335938 275.128906 170.882812 275.183594 C 171.425781 275.238281 171.964844 275.316406 172.5 275.425781 C 173.035156 275.53125 173.5625 275.664062 174.085938 275.820312 C 174.609375 275.980469 175.121094 276.164062 175.625 276.371094 C 176.132812 276.582031 176.625 276.816406 177.105469 277.074219 C 177.585938 277.328125 178.054688 277.609375 178.507812 277.914062 C 178.964844 278.214844 179.402344 278.542969 179.824219 278.886719 C 180.246094 279.234375 180.648438 279.601562 181.035156 279.988281 C 181.421875 280.371094 181.789062 280.777344 182.132812 281.199219 C 182.480469 281.621094 182.804688 282.058594 183.109375 282.511719 C 183.410156 282.96875 183.691406 283.433594 183.949219 283.917969 C 184.207031 284.398438 184.441406 284.890625 184.648438 285.394531 C 184.859375 285.898438 185.042969 286.414062 185.199219 286.933594 C 185.359375 287.457031 185.492188 287.988281 185.597656 288.523438 C 185.703125 289.058594 185.785156 289.597656 185.835938 290.140625 C 185.890625 290.683594 185.917969 291.230469 185.917969 291.773438 Z M 185.917969 291.773438 " fill-opacity="1" fill-rule="nonzero"/></g><path fill="#153861" d="M 172.710938 288.070312 C 172.558594 288.085938 172.402344 288.03125 172.292969 287.910156 C 166.375 281.421875 157.53125 280.453125 157.441406 280.441406 C 157.167969 280.414062 156.972656 280.171875 157 279.898438 C 157.027344 279.628906 157.261719 279.429688 157.542969 279.457031 C 157.917969 279.496094 166.855469 280.476562 173.023438 287.242188 C 173.207031 287.445312 173.195312 287.757812 172.992188 287.941406 C 172.910156 288.015625 172.8125 288.058594 172.710938 288.070312 Z M 172.710938 288.070312 " fill-opacity="1" fill-rule="nonzero"/><path fill="#153861" d="M 176.3125 286.644531 C 176.117188 286.664062 175.921875 286.566406 175.824219 286.382812 C 171.679688 278.574219 163.105469 276.773438 163.019531 276.757812 C 162.75 276.703125 162.578125 276.441406 162.628906 276.175781 C 162.683594 275.90625 162.949219 275.734375 163.214844 275.785156 C 163.582031 275.859375 172.328125 277.683594 176.699219 285.917969 C 176.828125 286.160156 176.734375 286.460938 176.496094 286.589844 C 176.4375 286.617188 176.375 286.636719 176.3125 286.644531 Z M 176.3125 286.644531 " fill-opacity="1" fill-rule="nonzero"/><g clip-path="url(#29ecd46df7)"><path fill="#153861" d="M 179.929688 285.84375 C 179.6875 285.867188 179.457031 285.710938 179.394531 285.46875 C 177.910156 279.421875 172.609375 275.941406 172.554688 275.90625 C 172.328125 275.757812 172.261719 275.453125 172.410156 275.222656 C 172.558594 274.992188 172.867188 274.925781 173.09375 275.074219 C 173.324219 275.222656 178.78125 278.808594 180.359375 285.230469 C 180.421875 285.496094 180.261719 285.765625 179.996094 285.832031 C 179.972656 285.835938 179.949219 285.839844 179.929688 285.84375 Z M 179.929688 285.84375 " fill-opacity="1" fill-rule="nonzero"/></g><path fill="#153861" d="M 169.320312 290.039062 C 169.203125 290.050781 169.082031 290.019531 168.976562 289.945312 C 159.589844 283.128906 153.914062 286.417969 153.859375 286.449219 C 153.628906 286.589844 153.320312 286.519531 153.179688 286.285156 C 153.035156 286.050781 153.105469 285.75 153.339844 285.605469 C 153.589844 285.453125 159.59375 281.910156 169.5625 289.144531 C 169.78125 289.304688 169.832031 289.613281 169.671875 289.835938 C 169.585938 289.953125 169.457031 290.023438 169.320312 290.039062 Z M 169.320312 290.039062 " fill-opacity="1" fill-rule="nonzero"/><path fill="#153861" d="M 157.289062 303.835938 C 157.203125 303.84375 157.113281 303.832031 157.03125 303.792969 C 156.78125 303.679688 156.675781 303.382812 156.789062 303.132812 C 156.875 302.945312 165.78125 284.085938 184.65625 284.859375 C 184.929688 284.871094 185.140625 285.101562 185.128906 285.375 C 185.117188 285.648438 184.890625 285.859375 184.613281 285.851562 C 166.410156 285.109375 157.773438 303.367188 157.6875 303.550781 C 157.613281 303.714844 157.457031 303.816406 157.289062 303.835938 Z M 157.289062 303.835938 " fill-opacity="1" fill-rule="nonzero"/><path fill="#153861" d="M 159.910156 306.042969 C 159.835938 306.050781 159.757812 306.042969 159.679688 306.015625 C 159.425781 305.917969 159.296875 305.628906 159.394531 305.375 C 159.457031 305.214844 165.75 289.246094 185.636719 288.335938 C 185.910156 288.320312 186.140625 288.53125 186.152344 288.808594 C 186.167969 289.078125 185.964844 289.320312 185.683594 289.324219 C 166.4375 290.199219 160.378906 305.574219 160.320312 305.726562 C 160.253906 305.910156 160.089844 306.027344 159.910156 306.042969 Z M 159.910156 306.042969 " fill-opacity="1" fill-rule="nonzero"/><g clip-path="url(#47d946cf5a)"><path fill="#153861" d="M 152.730469 294.160156 C 152.5 294.183594 152.273438 294.039062 152.203125 293.804688 C 152.128906 293.542969 152.28125 293.265625 152.542969 293.191406 C 152.605469 293.171875 158.929688 291.25 160.3125 285.34375 C 160.371094 285.074219 160.640625 284.910156 160.90625 284.972656 C 161.171875 285.035156 161.339844 285.300781 161.277344 285.566406 C 159.757812 292.046875 153.101562 294.058594 152.820312 294.140625 C 152.789062 294.148438 152.761719 294.15625 152.730469 294.160156 Z M 152.730469 294.160156 " fill-opacity="1" fill-rule="nonzero"/></g><path fill="#153861" d="M 153.601562 297.878906 C 153.367188 297.902344 153.140625 297.757812 153.074219 297.523438 C 152.996094 297.261719 153.148438 296.988281 153.410156 296.910156 C 153.496094 296.882812 162.152344 294.253906 164.582031 286.824219 C 164.667969 286.5625 164.949219 286.421875 165.207031 286.507812 C 165.46875 286.59375 165.609375 286.871094 165.523438 287.132812 C 162.929688 295.0625 154.066406 297.75 153.6875 297.859375 C 153.660156 297.867188 153.628906 297.875 153.601562 297.878906 Z M 153.601562 297.878906 " fill-opacity="1" fill-rule="nonzero"/><path fill="#153861" d="M 162.730469 307.589844 C 162.644531 307.597656 162.554688 307.585938 162.46875 307.546875 C 162.222656 307.429688 162.117188 307.136719 162.230469 306.886719 C 162.304688 306.734375 169.6875 291.328125 185.882812 293.03125 C 186.152344 293.058594 186.351562 293.304688 186.324219 293.578125 C 186.292969 293.847656 186.050781 294.050781 185.777344 294.015625 C 170.277344 292.382812 163.199219 307.15625 163.128906 307.304688 C 163.050781 307.46875 162.898438 307.574219 162.730469 307.589844 Z M 162.730469 307.589844 " fill-opacity="1" fill-rule="nonzero"/><path fill="#153861" d="M 177.316406 306.886719 C 177.183594 306.898438 177.046875 306.859375 176.9375 306.765625 C 176.730469 306.585938 176.710938 306.273438 176.890625 306.066406 C 176.9375 306.011719 181.539062 300.625 180.363281 293.621094 C 180.316406 293.351562 180.5 293.097656 180.769531 293.050781 C 181.019531 293.011719 181.296875 293.1875 181.339844 293.460938 C 182.59375 300.933594 177.839844 306.484375 177.636719 306.71875 C 177.550781 306.816406 177.433594 306.871094 177.316406 306.886719 Z M 177.316406 306.886719 " fill-opacity="1" fill-rule="nonzero"/><path fill="#153861" d="M 172.082031 308.707031 C 171.945312 308.722656 171.804688 308.679688 171.695312 308.582031 C 171.496094 308.398438 171.480469 308.082031 171.664062 307.882812 C 177.570312 301.386719 176.898438 294.375 176.890625 294.304688 C 176.863281 294.03125 177.058594 293.789062 177.332031 293.761719 C 177.605469 293.730469 177.847656 293.929688 177.878906 294.199219 C 177.910156 294.503906 178.601562 301.726562 172.398438 308.546875 C 172.3125 308.640625 172.199219 308.695312 172.082031 308.707031 Z M 172.082031 308.707031 " fill-opacity="1" fill-rule="nonzero"/><path fill="#153861" d="M 166.746094 308.742188 C 166.601562 308.757812 166.453125 308.710938 166.339844 308.597656 C 166.148438 308.402344 166.152344 308.089844 166.347656 307.894531 C 171.5625 302.777344 171.910156 296.511719 171.910156 296.449219 C 171.925781 296.175781 172.15625 295.964844 172.429688 295.976562 C 172.703125 295.988281 172.914062 296.21875 172.902344 296.492188 C 172.890625 296.761719 172.546875 303.203125 167.042969 308.601562 C 166.960938 308.683594 166.855469 308.730469 166.746094 308.742188 Z M 166.746094 308.742188 " fill-opacity="1" fill-rule="nonzero"/><g clip-path="url(#0526f09487)"><path fill="#3871e6" d="M 216.585938 317.90625 C 216.5 317.914062 216.414062 317.921875 216.324219 317.921875 C 214.648438 317.949219 213.125 316.59375 212.257812 314.296875 C 210.683594 310.125 208.964844 309.703125 204.925781 310.597656 C 201.804688 311.289062 199.488281 310.273438 198.101562 308.863281 C 196.949219 309.554688 195.585938 309.992188 194.113281 310.097656 C 191.207031 310.308594 188.375 309.175781 186.347656 306.984375 C 181.929688 302.214844 183.3125 297.140625 183.375 296.925781 C 183.472656 296.578125 183.839844 296.378906 184.191406 296.472656 C 184.539062 296.574219 184.742188 296.9375 184.644531 297.289062 C 184.59375 297.472656 183.421875 301.882812 187.316406 306.085938 C 189.097656 308.007812 191.476562 308.964844 194.019531 308.777344 C 195.230469 308.6875 196.332031 308.351562 197.277344 307.816406 C 196.253906 306.160156 196.203125 304.289062 197.15625 303.019531 C 198.09375 301.773438 199.429688 301.730469 200.265625 302.332031 C 201.277344 303.054688 201.730469 304.761719 200.335938 306.789062 C 200.011719 307.261719 199.625 307.691406 199.183594 308.074219 C 200.105469 308.945312 201.835938 309.929688 204.640625 309.308594 C 209.011719 308.339844 211.585938 308.769531 213.496094 313.828125 C 214.15625 315.582031 215.207031 316.617188 216.304688 316.601562 C 217.089844 316.582031 217.769531 316.027344 218.074219 315.140625 C 218.191406 314.796875 218.566406 314.609375 218.914062 314.730469 C 219.257812 314.847656 219.441406 315.222656 219.324219 315.566406 C 218.875 316.882812 217.816406 317.777344 216.585938 317.90625 Z M 199.015625 303.273438 C 198.742188 303.304688 198.457031 303.488281 198.214844 303.8125 C 197.613281 304.613281 197.675781 305.894531 198.355469 307.046875 C 198.695312 306.746094 198.996094 306.410156 199.246094 306.042969 C 200.097656 304.804688 200.015625 303.777344 199.496094 303.40625 C 199.347656 303.296875 199.183594 303.257812 199.015625 303.273438 Z M 199.015625 303.273438 " fill-opacity="1" fill-rule="nonzero"/></g><g clip-path="url(#decec845fb)"><g clip-path="url(#37c5467ff2)"><g clip-path="url(#ffa1242235)"><path fill="#f63845" d="M 219.027344 270.277344 C 219.0625 270.824219 219.125 271.367188 219.214844 271.902344 C 219.304688 272.441406 219.421875 272.976562 219.5625 273.503906 C 219.703125 274.03125 219.871094 274.550781 220.066406 275.058594 C 220.257812 275.570312 220.476562 276.070312 220.71875 276.558594 C 220.960938 277.050781 221.222656 277.527344 221.511719 277.988281 C 221.800781 278.453125 222.113281 278.902344 222.445312 279.335938 C 222.777344 279.765625 223.132812 280.183594 223.503906 280.582031 C 223.878906 280.980469 224.269531 281.359375 224.683594 281.71875 C 225.09375 282.078125 225.519531 282.414062 225.964844 282.734375 C 226.410156 283.050781 226.867188 283.34375 227.339844 283.617188 C 227.8125 283.890625 228.296875 284.140625 228.796875 284.363281 C 229.292969 284.589844 229.800781 284.789062 230.316406 284.964844 C 230.835938 285.140625 231.359375 285.289062 231.890625 285.410156 C 232.421875 285.535156 232.960938 285.632812 233.5 285.703125 C 234.042969 285.773438 234.585938 285.816406 235.132812 285.835938 C 235.679688 285.851562 236.222656 285.84375 236.769531 285.808594 C 237.3125 285.769531 237.855469 285.707031 238.394531 285.617188 C 238.933594 285.527344 239.464844 285.414062 239.992188 285.269531 C 240.519531 285.128906 241.039062 284.960938 241.550781 284.769531 C 242.058594 284.578125 242.558594 284.359375 243.050781 284.117188 C 243.539062 283.875 244.015625 283.609375 244.480469 283.320312 C 244.941406 283.03125 245.390625 282.722656 245.824219 282.386719 C 246.253906 282.054688 246.671875 281.703125 247.070312 281.328125 C 247.46875 280.957031 247.847656 280.5625 248.207031 280.152344 C 248.566406 279.742188 248.902344 279.3125 249.222656 278.871094 C 249.539062 278.425781 249.835938 277.96875 250.105469 277.492188 C 250.378906 277.019531 250.628906 276.535156 250.851562 276.039062 C 251.078125 275.539062 251.277344 275.03125 251.453125 274.515625 C 251.628906 274 251.777344 273.472656 251.902344 272.941406 C 252.023438 272.410156 252.121094 271.875 252.191406 271.332031 C 252.261719 270.792969 252.304688 270.246094 252.324219 269.703125 C 252.339844 269.15625 252.332031 268.609375 252.296875 268.066406 C 252.257812 267.519531 252.195312 266.980469 252.105469 266.441406 C 252.015625 265.902344 251.902344 265.371094 251.761719 264.84375 C 251.617188 264.316406 251.449219 263.796875 251.257812 263.285156 C 251.066406 262.773438 250.847656 262.273438 250.605469 261.785156 C 250.363281 261.296875 250.097656 260.820312 249.808594 260.355469 C 249.519531 259.890625 249.210938 259.445312 248.878906 259.011719 C 248.542969 258.578125 248.191406 258.164062 247.816406 257.765625 C 247.445312 257.367188 247.050781 256.988281 246.640625 256.628906 C 246.230469 256.269531 245.804688 255.929688 245.359375 255.613281 C 244.914062 255.292969 244.457031 255 243.984375 254.726562 C 243.507812 254.453125 243.023438 254.207031 242.527344 253.980469 C 242.03125 253.757812 241.523438 253.554688 241.003906 253.382812 C 240.488281 253.207031 239.964844 253.058594 239.429688 252.933594 C 238.898438 252.808594 238.363281 252.714844 237.820312 252.640625 C 237.28125 252.570312 236.738281 252.527344 236.191406 252.511719 C 235.644531 252.492188 235.101562 252.503906 234.554688 252.539062 C 234.011719 252.574219 233.46875 252.636719 232.929688 252.726562 C 232.390625 252.816406 231.859375 252.933594 231.332031 253.074219 C 230.804688 253.214844 230.285156 253.382812 229.773438 253.574219 C 229.261719 253.769531 228.761719 253.984375 228.273438 254.226562 C 227.785156 254.46875 227.308594 254.734375 226.84375 255.023438 C 226.382812 255.3125 225.933594 255.625 225.5 255.957031 C 225.066406 256.289062 224.652344 256.644531 224.253906 257.015625 C 223.855469 257.390625 223.476562 257.78125 223.117188 258.191406 C 222.757812 258.605469 222.417969 259.03125 222.101562 259.476562 C 221.785156 259.917969 221.488281 260.378906 221.214844 260.851562 C 220.945312 261.324219 220.695312 261.808594 220.46875 262.308594 C 220.246094 262.804688 220.046875 263.3125 219.871094 263.828125 C 219.695312 264.347656 219.546875 264.871094 219.421875 265.402344 C 219.300781 265.933594 219.203125 266.472656 219.132812 267.011719 C 219.058594 267.554688 219.015625 268.097656 219 268.644531 C 218.980469 269.1875 218.992188 269.734375 219.027344 270.277344 Z M 219.027344 270.277344 " fill-opacity="1" fill-rule="nonzero"/></g></g></g><g clip-path="url(#d85661e19b)"><g clip-path="url(#4be69f1ace)"><g clip-path="url(#536de53b6e)"><path fill="#b21a19" d="M 231.960938 265.703125 C 232.113281 265.710938 232.265625 265.644531 232.367188 265.519531 C 237.839844 258.652344 246.601562 257.097656 246.691406 257.082031 C 246.957031 257.035156 247.140625 256.78125 247.09375 256.511719 C 247.050781 256.242188 246.800781 256.058594 246.523438 256.105469 C 246.148438 256.167969 237.296875 257.738281 231.59375 264.902344 C 231.421875 265.113281 231.457031 265.425781 231.671875 265.597656 C 231.757812 265.664062 231.859375 265.699219 231.960938 265.703125 Z M 231.960938 265.703125 " fill-opacity="1" fill-rule="nonzero"/></g></g></g><g clip-path="url(#3b9e82b02a)"><g clip-path="url(#b07b592ef4)"><g clip-path="url(#00baa5bd1f)"><path fill="#b21a19" d="M 228.269531 264.523438 C 228.464844 264.527344 228.65625 264.417969 228.742188 264.230469 C 232.359375 256.160156 240.792969 253.796875 240.878906 253.773438 C 241.140625 253.703125 241.296875 253.433594 241.226562 253.167969 C 241.15625 252.902344 240.882812 252.75 240.621094 252.816406 C 240.257812 252.917969 231.652344 255.316406 227.835938 263.824219 C 227.726562 264.074219 227.835938 264.367188 228.085938 264.476562 C 228.144531 264.503906 228.207031 264.519531 228.269531 264.523438 Z M 228.269531 264.523438 " fill-opacity="1" fill-rule="nonzero"/></g></g></g><g clip-path="url(#5927bfaadf)"><g clip-path="url(#7cc2271196)"><g clip-path="url(#05ca44652f)"><path fill="#b21a19" d="M 224.609375 263.964844 C 224.855469 263.972656 225.074219 263.800781 225.117188 263.554688 C 226.199219 257.421875 231.257812 253.597656 231.304688 253.558594 C 231.527344 253.394531 231.570312 253.085938 231.40625 252.867188 C 231.246094 252.648438 230.933594 252.601562 230.714844 252.765625 C 230.492188 252.929688 225.289062 256.867188 224.140625 263.382812 C 224.09375 263.652344 224.273438 263.910156 224.542969 263.957031 C 224.566406 263.960938 224.589844 263.960938 224.609375 263.964844 Z M 224.609375 263.964844 " fill-opacity="1" fill-rule="nonzero"/></g></g></g><g clip-path="url(#cf32c4c648)"><g clip-path="url(#135eb0b0ca)"><g clip-path="url(#8c95f6658e)"><path fill="#b21a19" d="M 235.472656 267.445312 C 235.589844 267.449219 235.710938 267.410156 235.808594 267.328125 C 244.726562 259.902344 250.605469 262.808594 250.664062 262.839844 C 250.902344 262.964844 251.203125 262.871094 251.332031 262.628906 C 251.457031 262.386719 251.367188 262.089844 251.125 261.960938 C 250.863281 261.824219 244.640625 258.6875 235.175781 266.566406 C 234.964844 266.742188 234.9375 267.054688 235.109375 267.265625 C 235.203125 267.378906 235.335938 267.4375 235.472656 267.445312 Z M 235.472656 267.445312 " fill-opacity="1" fill-rule="nonzero"/></g></g></g><g clip-path="url(#d8042b00dd)"><g clip-path="url(#384387982e)"><g clip-path="url(#be27451400)"><path fill="#b21a19" d="M 248.390625 280.414062 C 248.480469 280.417969 248.566406 280.398438 248.648438 280.351562 C 248.890625 280.222656 248.976562 279.921875 248.847656 279.679688 C 248.746094 279.496094 238.609375 261.269531 219.828125 263.296875 C 219.558594 263.324219 219.359375 263.570312 219.386719 263.839844 C 219.417969 264.113281 219.660156 264.308594 219.933594 264.28125 C 238.046875 262.335938 247.878906 279.976562 247.976562 280.15625 C 248.0625 280.3125 248.222656 280.40625 248.390625 280.414062 Z M 248.390625 280.414062 " fill-opacity="1" fill-rule="nonzero"/></g></g></g><g clip-path="url(#d991c706d1)"><g clip-path="url(#a541bdfe25)"><g clip-path="url(#1180b2e92c)"><path fill="#b21a19" d="M 245.925781 282.792969 C 246 282.792969 246.078125 282.78125 246.152344 282.746094 C 246.402344 282.632812 246.507812 282.335938 246.394531 282.089844 C 246.324219 281.929688 238.980469 266.417969 219.082031 266.828125 C 218.808594 266.832031 218.589844 267.058594 218.59375 267.332031 C 218.601562 267.605469 218.816406 267.832031 219.101562 267.820312 C 238.363281 267.414062 245.425781 282.351562 245.492188 282.503906 C 245.574219 282.679688 245.746094 282.785156 245.925781 282.792969 Z M 245.925781 282.792969 " fill-opacity="1" fill-rule="nonzero"/></g></g></g><g clip-path="url(#887b933f80)"><g clip-path="url(#6c4d40894d)"><g clip-path="url(#12c4570342)"><path fill="#b21a19" d="M 252.296875 270.453125 C 252.53125 270.464844 252.75 270.304688 252.800781 270.066406 C 252.859375 269.800781 252.691406 269.535156 252.425781 269.476562 C 252.359375 269.460938 245.921875 267.960938 244.152344 262.160156 C 244.070312 261.898438 243.792969 261.753906 243.53125 261.832031 C 243.269531 261.914062 243.125 262.191406 243.203125 262.449219 C 245.144531 268.8125 251.921875 270.378906 252.210938 270.445312 C 252.242188 270.449219 252.269531 270.453125 252.296875 270.453125 Z M 252.296875 270.453125 " fill-opacity="1" fill-rule="nonzero"/></g></g></g><g clip-path="url(#47058d863e)"><g clip-path="url(#4cf926aa0f)"><g clip-path="url(#4f6f5c2b3c)"><path fill="#b21a19" d="M 251.679688 274.222656 C 251.914062 274.234375 252.128906 274.074219 252.179688 273.835938 C 252.242188 273.570312 252.070312 273.304688 251.804688 273.246094 C 251.714844 273.226562 242.90625 271.171875 239.988281 263.921875 C 239.886719 263.667969 239.59375 263.546875 239.34375 263.648438 C 239.089844 263.75 238.964844 264.039062 239.066406 264.292969 C 242.183594 272.035156 251.207031 274.128906 251.589844 274.210938 C 251.617188 274.21875 251.648438 274.222656 251.679688 274.222656 Z M 251.679688 274.222656 " fill-opacity="1" fill-rule="nonzero"/></g></g></g><g clip-path="url(#848fd92826)"><g clip-path="url(#2ecc241b7e)"><g clip-path="url(#77e392e135)"><path fill="#b21a19" d="M 243.210938 284.519531 C 243.300781 284.523438 243.390625 284.503906 243.46875 284.460938 C 243.710938 284.328125 243.796875 284.027344 243.664062 283.785156 C 243.582031 283.636719 235.191406 268.757812 219.148438 271.53125 C 218.878906 271.578125 218.695312 271.835938 218.742188 272.105469 C 218.789062 272.371094 219.046875 272.558594 219.316406 272.507812 C 234.675781 269.847656 242.71875 284.121094 242.796875 284.265625 C 242.882812 284.421875 243.042969 284.515625 243.210938 284.519531 Z M 243.210938 284.519531 " fill-opacity="1" fill-rule="nonzero"/></g></g></g><g clip-path="url(#8fdec9c31d)"><g clip-path="url(#36b90861f5)"><g clip-path="url(#7def4c36bd)"><path fill="#b21a19" d="M 228.613281 284.785156 C 228.746094 284.789062 228.882812 284.742188 228.984375 284.640625 C 229.175781 284.449219 229.179688 284.136719 228.984375 283.941406 C 228.933594 283.890625 223.984375 278.820312 224.691406 271.753906 C 224.71875 271.484375 224.519531 271.238281 224.25 271.210938 C 223.996094 271.1875 223.734375 271.382812 223.707031 271.65625 C 222.949219 279.199219 228.0625 284.421875 228.28125 284.640625 C 228.375 284.734375 228.492188 284.78125 228.613281 284.785156 Z M 228.613281 284.785156 " fill-opacity="1" fill-rule="nonzero"/></g></g></g><g clip-path="url(#0a564c7ff0)"><g clip-path="url(#87ce395a6b)"><g clip-path="url(#b5b1c0b588)"><path fill="#b21a19" d="M 233.957031 286.257812 C 234.09375 286.261719 234.230469 286.210938 234.332031 286.105469 C 234.523438 285.90625 234.515625 285.59375 234.320312 285.402344 C 227.992188 279.316406 228.199219 272.277344 228.203125 272.203125 C 228.210938 271.929688 228 271.703125 227.726562 271.691406 C 227.453125 271.679688 227.222656 271.890625 227.210938 272.164062 C 227.199219 272.472656 226.988281 279.722656 233.632812 286.117188 C 233.722656 286.207031 233.839844 286.25 233.957031 286.257812 Z M 233.957031 286.257812 " fill-opacity="1" fill-rule="nonzero"/></g></g></g><g clip-path="url(#8b47f9a3f2)"><g clip-path="url(#efa9bff460)"><g clip-path="url(#f443bf18fd)"><path fill="#b21a19" d="M 239.28125 285.9375 C 239.429688 285.941406 239.574219 285.882812 239.675781 285.765625 C 239.855469 285.558594 239.832031 285.246094 239.625 285.066406 C 234.082031 280.304688 233.320312 274.074219 233.3125 274.011719 C 233.28125 273.738281 233.039062 273.546875 232.765625 273.574219 C 232.492188 273.605469 232.296875 273.851562 232.328125 274.121094 C 232.359375 274.390625 233.128906 280.792969 238.976562 285.816406 C 239.066406 285.894531 239.171875 285.933594 239.28125 285.9375 Z M 239.28125 285.9375 " fill-opacity="1" fill-rule="nonzero"/></g></g></g><g clip-path="url(#428522f359)"><g clip-path="url(#7bf139ae1e)"><g clip-path="url(#a24cc535ec)"><path fill="#f63845" d="M 190.160156 298.390625 C 190.25 298.394531 190.335938 298.390625 190.425781 298.386719 C 192.097656 298.304688 193.527344 296.847656 194.238281 294.5 C 195.53125 290.234375 197.222656 289.695312 201.3125 290.324219 C 204.46875 290.804688 206.714844 289.636719 208.007812 288.136719 C 209.199219 288.753906 210.589844 289.097656 212.066406 289.105469 C 214.980469 289.125 217.730469 287.804688 219.609375 285.484375 C 223.699219 280.433594 221.980469 275.460938 221.90625 275.25 C 221.785156 274.910156 221.40625 274.734375 221.0625 274.855469 C 220.71875 274.976562 220.542969 275.355469 220.664062 275.695312 C 220.726562 275.878906 222.1875 280.199219 218.582031 284.652344 C 216.933594 286.6875 214.621094 287.800781 212.074219 287.785156 C 210.859375 287.773438 209.738281 287.511719 208.757812 287.039062 C 209.667969 285.320312 209.59375 283.449219 208.558594 282.246094 C 207.542969 281.0625 206.207031 281.109375 205.410156 281.765625 C 204.453125 282.554688 204.113281 284.285156 205.636719 286.21875 C 205.992188 286.667969 206.40625 287.070312 206.871094 287.425781 C 206.011719 288.355469 204.347656 289.453125 201.511719 289.019531 C 197.082031 288.339844 194.542969 288.941406 192.976562 294.113281 C 192.429688 295.910156 191.453125 297.011719 190.355469 297.066406 C 189.570312 297.101562 188.855469 296.59375 188.492188 295.726562 C 188.351562 295.390625 187.96875 295.230469 187.628906 295.371094 C 187.292969 295.511719 187.132812 295.898438 187.273438 296.238281 C 187.808594 297.519531 188.925781 298.339844 190.160156 298.390625 Z M 206.722656 282.621094 C 206.996094 282.632812 207.292969 282.800781 207.558594 283.105469 C 208.210938 283.863281 208.234375 285.148438 207.632812 286.34375 C 207.269531 286.0625 206.949219 285.75 206.675781 285.402344 C 205.742188 284.21875 205.757812 283.191406 206.25 282.785156 C 206.390625 282.667969 206.550781 282.617188 206.722656 282.621094 Z M 206.722656 282.621094 " fill-opacity="1" fill-rule="nonzero"/></g></g></g></svg>