<svg xmlns="http://www.w3.org/2000/svg" xmlns:xlink="http://www.w3.org/1999/xlink" width="500" zoomAndPan="magnify" viewBox="0 0 375 374.999991" height="500" preserveAspectRatio="xMidYMid meet" version="1.0"><path fill="#000000" d="M 137.089844 94.144531 C 137.089844 94.144531 124.777344 112.496094 134.050781 130.902344 C 143.324219 149.304688 147.96875 97.46875 147.96875 97.46875 Z M 137.089844 94.144531 " fill-opacity="1" fill-rule="nonzero"/><path fill="#000000" d="M 244.585938 122.660156 C 244.585938 122.660156 256.746094 114.070312 254.75 106.101562 C 252.757812 98.132812 241.902344 105 241.902344 105 Z M 244.585938 122.660156 " fill-opacity="1" fill-rule="nonzero"/><path fill="#000000" d="M 246.269531 120.175781 C 246.269531 120.175781 251.871094 68.449219 214.613281 47.070312 C 202.59375 40.171875 208.097656 56.117188 208.097656 56.117188 C 208.097656 56.117188 184.527344 39.578125 175.078125 44.007812 C 165.625 48.4375 172.652344 56.707031 172.652344 56.707031 C 172.652344 56.707031 153.515625 37.507812 138.746094 49.027344 C 123.976562 60.546875 143.753906 68.523438 143.753906 68.523438 C 143.753906 68.523438 133.40625 72.066406 133.269531 75.90625 C 133.132812 79.746094 139.042969 80.207031 139.042969 80.207031 C 139.042969 80.207031 128.113281 84.410156 130.476562 90.054688 C 132.839844 95.695312 143.753906 100.71875 143.753906 100.71875 L 233.855469 80.929688 " fill-opacity="1" fill-rule="nonzero"/><path fill="#fcdbc7" d="M 186.265625 61.921875 C 156.210938 64.226562 133.683594 90.058594 135.953125 119.617188 C 138.222656 149.179688 152.828125 170.488281 194.484375 168.960938 C 227.554688 167.75 247.066406 140.820312 244.796875 111.265625 C 242.527344 81.703125 216.320312 59.613281 186.265625 61.921875 Z M 186.265625 61.921875 " fill-opacity="1" fill-rule="nonzero"/><path fill="#fcdbc7" d="M 241.878906 121.328125 C 241.878906 121.328125 252.40625 119.746094 253.449219 126.34375 C 254.496094 132.9375 246.816406 136.101562 238.988281 132.921875 Z M 241.878906 121.328125 " fill-opacity="1" fill-rule="nonzero"/><path fill="#fcdbc7" d="M 139.125 128.636719 C 139.125 128.636719 128.550781 129.867188 129.269531 136.507812 C 129.984375 143.148438 138.226562 144.1875 144.945312 139.070312 Z M 139.125 128.636719 " fill-opacity="1" fill-rule="nonzero"/><path fill="#000000" d="M 189.417969 135.25 C 188.101562 134.746094 186.882812 134.074219 185.742188 133.183594 C 185.464844 132.941406 185.167969 132.734375 184.910156 132.453125 C 184.640625 132.199219 184.386719 131.90625 184.148438 131.59375 C 183.898438 131.292969 183.683594 130.925781 183.488281 130.554688 C 183.320312 130.148438 183.148438 129.746094 183.09375 129.257812 C 183.042969 129.023438 183.019531 128.789062 183.046875 128.539062 C 183.066406 128.292969 183.066406 128.039062 183.128906 127.800781 C 183.195312 127.570312 183.277344 127.339844 183.363281 127.109375 L 183.429688 126.941406 L 183.441406 126.90625 L 183.519531 126.769531 L 183.550781 126.71875 L 183.683594 126.503906 C 183.734375 126.425781 183.75 126.378906 183.832031 126.273438 L 184.097656 125.953125 C 184.191406 125.851562 184.285156 125.742188 184.378906 125.652344 L 184.660156 125.425781 C 184.847656 125.269531 185.042969 125.140625 185.25 125.035156 C 185.453125 124.914062 185.660156 124.820312 185.871094 124.75 C 186.292969 124.589844 186.71875 124.503906 187.128906 124.453125 C 187.539062 124.394531 187.941406 124.386719 188.332031 124.398438 C 188.726562 124.410156 189.109375 124.449219 189.484375 124.515625 C 189.871094 124.585938 190.207031 124.660156 190.636719 124.792969 L 189.023438 126.101562 C 188.949219 124.789062 188.90625 123.472656 188.890625 122.152344 C 188.871094 120.835938 188.882812 119.515625 188.957031 118.1875 C 188.980469 117.832031 189.285156 117.558594 189.636719 117.582031 C 189.929688 117.597656 190.167969 117.804688 190.230469 118.078125 C 190.53125 119.371094 190.773438 120.671875 190.980469 121.972656 C 191.1875 123.273438 191.375 124.578125 191.523438 125.886719 C 191.601562 126.558594 191.121094 127.167969 190.445312 127.246094 C 190.308594 127.261719 190.171875 127.253906 190.042969 127.226562 L 189.914062 127.195312 C 189.699219 127.148438 189.378906 127.09375 189.109375 127.0625 C 188.824219 127.039062 188.542969 127.011719 188.269531 127.011719 C 187.996094 127.007812 187.730469 127.019531 187.480469 127.0625 C 187.234375 127.097656 186.996094 127.152344 186.800781 127.238281 C 186.695312 127.277344 186.597656 127.3125 186.515625 127.363281 C 186.421875 127.40625 186.335938 127.457031 186.269531 127.519531 L 186.152344 127.597656 C 186.128906 127.625 186.117188 127.644531 186.09375 127.664062 C 186.074219 127.679688 186.050781 127.695312 186.027344 127.710938 C 185.996094 127.730469 185.941406 127.835938 185.898438 127.894531 L 185.765625 128.105469 L 185.730469 128.160156 L 185.714844 128.183594 L 185.710938 128.1875 C 185.699219 128.210938 185.820312 127.996094 185.769531 128.089844 L 185.769531 128.09375 L 185.765625 128.101562 L 185.746094 128.164062 C 185.71875 128.25 185.6875 128.332031 185.640625 128.414062 C 185.609375 128.496094 185.625 128.582031 185.601562 128.667969 C 185.570312 128.75 185.578125 128.84375 185.597656 128.9375 C 185.589844 129.125 185.667969 129.339844 185.734375 129.558594 C 185.84375 129.773438 185.921875 130.015625 186.078125 130.242188 C 186.222656 130.476562 186.378906 130.710938 186.574219 130.933594 C 186.746094 131.167969 186.960938 131.386719 187.15625 131.617188 C 188.003906 132.5 189 133.34375 190.019531 134.125 L 190.039062 134.140625 C 190.320312 134.355469 190.375 134.757812 190.160156 135.039062 C 189.980469 135.273438 189.675781 135.347656 189.417969 135.25 Z M 189.417969 135.25 " fill-opacity="1" fill-rule="nonzero"/><path fill="#f08048" d="M 206.601562 135.535156 C 207.636719 141.824219 214.28125 145.964844 221.4375 144.789062 C 228.59375 143.609375 233.558594 137.554688 232.519531 131.265625 C 231.484375 124.976562 224.84375 120.832031 217.683594 122.011719 C 210.527344 123.1875 205.566406 129.246094 206.601562 135.535156 Z M 206.601562 135.535156 " fill-opacity="1" fill-rule="nonzero"/><path fill="#f08048" d="M 151.890625 141.808594 C 152.320312 147.390625 157.816406 151.519531 164.167969 151.03125 C 170.519531 150.546875 175.320312 145.628906 174.894531 140.042969 C 174.46875 134.464844 168.96875 130.332031 162.617188 130.820312 C 156.265625 131.304688 151.464844 136.226562 151.890625 141.808594 Z M 151.890625 141.808594 " fill-opacity="1" fill-rule="nonzero"/><path fill="#000000" d="M 157.445312 125.726562 C 157.445312 125.746094 157.429688 125.433594 157.480469 124.96875 C 157.535156 124.503906 157.636719 123.832031 157.902344 123.074219 C 158.015625 122.683594 158.199219 122.289062 158.390625 121.863281 C 158.613281 121.457031 158.808594 121 159.117188 120.59375 C 159.398438 120.171875 159.699219 119.738281 160.070312 119.347656 C 160.410156 118.933594 160.828125 118.582031 161.222656 118.207031 C 161.640625 117.855469 162.09375 117.558594 162.519531 117.238281 C 162.976562 116.964844 163.445312 116.730469 163.886719 116.488281 C 164.347656 116.289062 164.804688 116.125 165.230469 115.964844 C 165.65625 115.800781 166.085938 115.734375 166.464844 115.636719 C 167.226562 115.429688 167.890625 115.421875 168.34375 115.382812 C 168.796875 115.355469 169.054688 115.351562 169.054688 115.351562 C 169.410156 115.347656 169.703125 115.636719 169.707031 115.996094 C 169.707031 116.246094 169.5625 116.46875 169.351562 116.574219 L 169.292969 116.605469 C 169.292969 116.605469 169.070312 116.71875 168.6875 116.890625 C 168.492188 116.976562 168.261719 117.082031 167.996094 117.1875 C 167.722656 117.28125 167.441406 117.445312 167.125 117.59375 C 166.816406 117.757812 166.46875 117.894531 166.125 118.085938 C 165.785156 118.28125 165.429688 118.496094 165.054688 118.6875 C 164.707031 118.921875 164.351562 119.175781 163.980469 119.402344 C 163.640625 119.679688 163.277344 119.929688 162.949219 120.226562 C 162.628906 120.527344 162.269531 120.789062 161.988281 121.121094 C 161.84375 121.28125 161.691406 121.4375 161.535156 121.585938 C 161.398438 121.75 161.261719 121.910156 161.128906 122.070312 C 160.851562 122.378906 160.632812 122.71875 160.386719 123.019531 C 160.1875 123.347656 159.953125 123.636719 159.789062 123.933594 C 159.421875 124.511719 159.160156 125.023438 158.972656 125.378906 C 158.792969 125.746094 158.707031 125.921875 158.703125 125.941406 C 158.644531 126.289062 158.3125 126.523438 157.96875 126.460938 C 157.621094 126.402344 157.386719 126.074219 157.445312 125.726562 Z M 157.445312 125.726562 " fill-opacity="1" fill-rule="nonzero"/><path fill="#000000" d="M 172.398438 125.214844 C 173.058594 129.359375 170.234375 133.25 166.09375 133.90625 C 161.957031 134.566406 158.0625 131.746094 157.40625 127.605469 C 156.746094 123.460938 159.570312 119.574219 163.710938 118.910156 C 167.847656 118.253906 171.742188 121.078125 172.398438 125.214844 Z M 172.398438 125.214844 " fill-opacity="1" fill-rule="nonzero"/><path fill="#000000" d="M 205.152344 118.667969 C 205.152344 118.691406 205.140625 118.378906 205.1875 117.914062 C 205.242188 117.445312 205.34375 116.773438 205.613281 116.015625 C 205.726562 115.625 205.910156 115.230469 206.097656 114.804688 C 206.320312 114.402344 206.519531 113.945312 206.824219 113.539062 C 207.105469 113.113281 207.410156 112.679688 207.777344 112.292969 C 208.117188 111.875 208.539062 111.527344 208.929688 111.148438 C 209.347656 110.800781 209.800781 110.5 210.230469 110.183594 C 210.683594 109.90625 211.152344 109.675781 211.59375 109.433594 C 212.054688 109.234375 212.511719 109.066406 212.9375 108.90625 C 213.363281 108.746094 213.792969 108.675781 214.175781 108.578125 C 214.9375 108.371094 215.597656 108.367188 216.050781 108.324219 C 216.503906 108.296875 216.761719 108.296875 216.761719 108.296875 C 217.117188 108.292969 217.410156 108.578125 217.414062 108.9375 C 217.414062 109.191406 217.269531 109.410156 217.0625 109.515625 L 217 109.546875 C 217 109.546875 216.777344 109.660156 216.394531 109.835938 C 216.199219 109.917969 215.96875 110.023438 215.703125 110.128906 C 215.429688 110.226562 215.148438 110.386719 214.832031 110.535156 C 214.523438 110.699219 214.175781 110.839844 213.832031 111.027344 C 213.492188 111.226562 213.136719 111.4375 212.761719 111.628906 C 212.414062 111.863281 212.0625 112.117188 211.6875 112.347656 C 211.351562 112.621094 210.984375 112.875 210.65625 113.167969 C 210.335938 113.46875 209.976562 113.734375 209.695312 114.066406 C 209.550781 114.226562 209.398438 114.378906 209.246094 114.527344 C 209.105469 114.691406 208.972656 114.851562 208.839844 115.011719 C 208.558594 115.324219 208.339844 115.664062 208.09375 115.960938 C 207.894531 116.289062 207.664062 116.578125 207.496094 116.875 C 207.132812 117.453125 206.871094 117.964844 206.683594 118.324219 C 206.5 118.6875 206.414062 118.863281 206.410156 118.882812 C 206.351562 119.230469 206.023438 119.464844 205.675781 119.40625 C 205.328125 119.347656 205.09375 119.015625 205.152344 118.667969 Z M 205.152344 118.667969 " fill-opacity="1" fill-rule="nonzero"/><path fill="#000000" d="M 220.199219 119.351562 C 220.199219 119.851562 220.152344 120.34375 220.054688 120.832031 C 219.957031 121.324219 219.8125 121.796875 219.621094 122.257812 C 219.433594 122.71875 219.199219 123.15625 218.921875 123.570312 C 218.644531 123.984375 218.328125 124.367188 217.976562 124.71875 C 217.625 125.074219 217.242188 125.386719 216.828125 125.664062 C 216.414062 125.941406 215.976562 126.175781 215.515625 126.367188 C 215.054688 126.554688 214.578125 126.699219 214.089844 126.796875 C 213.601562 126.894531 213.109375 126.945312 212.609375 126.945312 C 212.109375 126.945312 211.617188 126.894531 211.128906 126.796875 C 210.640625 126.699219 210.164062 126.554688 209.703125 126.367188 C 209.246094 126.175781 208.808594 125.941406 208.390625 125.664062 C 207.976562 125.386719 207.59375 125.074219 207.242188 124.71875 C 206.890625 124.367188 206.574219 123.984375 206.296875 123.570312 C 206.019531 123.15625 205.789062 122.71875 205.597656 122.257812 C 205.40625 121.796875 205.261719 121.324219 205.164062 120.832031 C 205.066406 120.34375 205.019531 119.851562 205.019531 119.351562 C 205.019531 118.855469 205.066406 118.359375 205.164062 117.871094 C 205.261719 117.382812 205.40625 116.910156 205.597656 116.449219 C 205.789062 115.988281 206.019531 115.550781 206.296875 115.136719 C 206.574219 114.722656 206.890625 114.335938 207.242188 113.984375 C 207.59375 113.632812 207.976562 113.316406 208.390625 113.042969 C 208.808594 112.765625 209.246094 112.53125 209.703125 112.339844 C 210.164062 112.148438 210.640625 112.003906 211.128906 111.90625 C 211.617188 111.808594 212.109375 111.761719 212.609375 111.761719 C 213.109375 111.761719 213.601562 111.808594 214.089844 111.90625 C 214.578125 112.003906 215.054688 112.148438 215.515625 112.339844 C 215.976562 112.53125 216.414062 112.765625 216.828125 113.042969 C 217.242188 113.316406 217.625 113.632812 217.976562 113.984375 C 218.328125 114.335938 218.644531 114.722656 218.921875 115.136719 C 219.199219 115.550781 219.433594 115.988281 219.621094 116.449219 C 219.8125 116.910156 219.957031 117.382812 220.054688 117.871094 C 220.152344 118.359375 220.199219 118.855469 220.199219 119.351562 Z M 220.199219 119.351562 " fill-opacity="1" fill-rule="nonzero"/><path fill="#f08048" d="M 208.097656 171.820312 C 208.097656 171.820312 234.972656 177.117188 253.410156 200.460938 C 271.851562 223.804688 266.9375 237.03125 266.9375 237.03125 C 266.9375 237.03125 255.667969 251.589844 247.621094 251.722656 C 247.621094 251.722656 243.144531 231.0625 228.269531 224.785156 C 213.394531 218.507812 208.097656 171.820312 208.097656 171.820312 Z M 208.097656 171.820312 " fill-opacity="1" fill-rule="nonzero"/><path fill="#f08048" d="M 181.863281 171.703125 C 181.863281 171.703125 154.089844 176.316406 136.550781 200.34375 C 122.058594 220.195312 128.703125 239.425781 128.703125 239.425781 C 128.703125 239.425781 134.292969 251.472656 142.339844 251.605469 C 142.339844 251.605469 146.816406 230.945312 161.691406 224.667969 C 176.566406 218.390625 181.863281 171.703125 181.863281 171.703125 Z M 181.863281 171.703125 " fill-opacity="1" fill-rule="nonzero"/><path fill="#f08048" d="M 180.535156 172.996094 C 180.535156 172.996094 202.210938 173.390625 208.097656 171.820312 L 232.027344 224.390625 C 232.027344 224.390625 231.832031 240.671875 235.167969 249.894531 C 235.167969 249.894531 170.433594 255.386719 143.753906 245.96875 C 143.753906 245.96875 143.949219 217.3125 151.011719 199.175781 Z M 180.535156 172.996094 " fill-opacity="1" fill-rule="nonzero"/><path fill="#fcdbc7" d="M 179.328125 170.742188 L 179.238281 159.15625 L 205.605469 160.710938 L 206.566406 172.132812 C 206.566406 172.132812 198.574219 182.574219 188.996094 180.558594 C 179.414062 178.542969 179.328125 170.742188 179.328125 170.742188 Z M 179.328125 170.742188 " fill-opacity="1" fill-rule="nonzero"/><path fill="#000000" d="M 140.546875 93.449219 C 140.546875 93.449219 133.804688 102.265625 134.058594 116.957031 C 134.3125 131.648438 139.503906 131.105469 141.101562 130.800781 C 142.699219 130.492188 140.039062 118.511719 140.039062 118.511719 C 140.039062 118.511719 150.1875 104.148438 147.527344 94.613281 C 144.867188 85.082031 140.546875 93.449219 140.546875 93.449219 Z M 140.546875 93.449219 " fill-opacity="1" fill-rule="nonzero"/><path fill="#fcdbc7" d="M 122.996094 208.09375 L 122.996094 199.648438 C 122.996094 199.648438 133.453125 206.296875 154.363281 203.175781 C 175.273438 200.050781 188.238281 187.414062 196.167969 203.871094 C 196.167969 203.871094 205.835938 190.332031 216.695312 195.59375 C 227.550781 200.855469 264.949219 204.03125 268.570312 201.234375 L 268.570312 210.105469 C 268.570312 210.105469 227.148438 236.644531 202.621094 234.230469 C 178.089844 231.820312 122.996094 208.09375 122.996094 208.09375 Z M 122.996094 208.09375 " fill-opacity="1" fill-rule="nonzero"/><path fill="#94b6c7" d="M 114.550781 204.070312 L 185.730469 218.144531 C 185.730469 218.144531 199 224.179688 210.261719 218.144531 C 210.261719 218.144531 281.4375 198.84375 282.644531 204.070312 C 283.851562 209.300781 268.167969 284.5 261.734375 286.109375 C 255.296875 287.714844 207.515625 291.738281 207.515625 291.738281 C 207.515625 291.738281 196.988281 296.160156 184.925781 291.738281 C 184.925781 291.738281 117.367188 283.695312 114.550781 275.652344 C 111.738281 267.609375 105.035156 202.191406 114.550781 204.070312 Z M 114.550781 204.070312 " fill-opacity="1" fill-rule="nonzero"/><path fill="#000000" d="M 195.695312 323.527344 C 195.695312 323.527344 247.355469 315.605469 253.226562 305.917969 C 259.097656 296.230469 263.207031 269.226562 241.191406 268.640625 C 219.175781 268.054688 180.433594 298.285156 178.085938 302.6875 C 175.738281 307.09375 195.695312 323.527344 195.695312 323.527344 Z M 195.695312 323.527344 " fill-opacity="1" fill-rule="nonzero"/><path fill="#000000" d="M 193.933594 299.460938 C 193.933594 299.460938 165.167969 274.804688 150.199219 270.402344 C 135.230469 266 118.203125 274.804688 121.433594 287.425781 C 124.664062 300.046875 152.84375 310.320312 163.40625 314.136719 C 173.976562 317.953125 190.117188 309.441406 190.707031 307.972656 C 191.292969 306.503906 193.933594 299.460938 193.933594 299.460938 Z M 193.933594 299.460938 " fill-opacity="1" fill-rule="nonzero"/><path fill="#f08048" d="M 241.371094 313.375 C 241.371094 313.375 231.316406 300.382812 219.429688 303.136719 C 207.542969 305.890625 206 319.320312 210.402344 322.402344 C 214.808594 325.484375 236.234375 322.183594 241.371094 313.375 Z M 241.371094 313.375 " fill-opacity="1" fill-rule="nonzero"/><path fill="#fcdbc7" d="M 174.152344 315.46875 L 184.28125 307.542969 L 196.167969 318.109375 C 196.167969 318.109375 190.445312 324.933594 184.28125 327.796875 C 178.117188 330.660156 170.863281 327.136719 171.40625 325.816406 C 171.953125 324.492188 174.152344 315.46875 174.152344 315.46875 Z M 174.152344 315.46875 " fill-opacity="1" fill-rule="nonzero"/><path fill="#f08048" d="M 174.152344 315.46875 C 174.152344 315.46875 156.980469 314.148438 151.039062 310.625 C 145.09375 307.101562 142.453125 313.707031 143.996094 318.769531 C 145.535156 323.835938 164.46875 337.480469 173.050781 336.160156 C 181.636719 334.839844 184.28125 327.796875 184.28125 327.796875 C 184.28125 327.796875 172.613281 322.074219 174.152344 315.46875 Z M 174.152344 315.46875 " fill-opacity="1" fill-rule="nonzero"/><path fill="#fcdbc7" d="M 285.179688 243.273438 C 285.179688 243.273438 289.3125 238.695312 283.851562 236.039062 C 278.386719 233.378906 268.785156 234.117188 270.117188 236.925781 C 270.117188 236.925781 266.71875 240.46875 269.230469 243.273438 C 269.230469 243.273438 266.34375 245.785156 268.304688 248.738281 C 268.304688 248.738281 266.273438 249.328125 268.785156 252.726562 C 271.296875 256.125 278.386719 258.78125 280.011719 257.453125 C 281.636719 256.125 280.601562 253.464844 280.601562 253.464844 C 280.601562 253.464844 284.144531 252.28125 283.554688 250.066406 C 283.554688 250.066406 287.691406 246.96875 285.179688 243.273438 Z M 285.179688 243.273438 " fill-opacity="1" fill-rule="nonzero"/><path fill="#fcdbc7" d="M 103.386719 240.617188 C 103.386719 240.617188 99.253906 236.039062 104.714844 233.378906 C 110.179688 230.722656 119.78125 231.460938 118.449219 234.265625 C 118.449219 234.265625 121.847656 237.8125 119.335938 240.617188 C 119.335938 240.617188 122.222656 243.125 120.261719 246.082031 C 120.261719 246.082031 122.292969 246.671875 119.78125 250.066406 C 117.269531 253.464844 110.179688 256.125 108.554688 254.792969 C 106.933594 253.464844 107.964844 250.808594 107.964844 250.808594 C 107.964844 250.808594 104.421875 249.625 105.011719 247.410156 C 105.011719 247.410156 100.875 244.308594 103.386719 240.617188 Z M 103.386719 240.617188 " fill-opacity="1" fill-rule="nonzero"/><path fill="#000000" d="M 246.269531 118.46875 C 246.269531 118.46875 244.761719 125.304688 240.933594 125.121094 C 237.101562 124.9375 238.988281 113.117188 238.988281 113.117188 C 238.988281 113.117188 222.777344 102.171875 221.300781 92.128906 C 221.300781 92.128906 208.097656 105.296875 206.566406 87.722656 C 206.566406 87.722656 191.671875 112.453125 189.460938 92.742188 C 189.460938 92.742188 182.011719 111.769531 170.5 106.589844 C 163.476562 103.429688 156.019531 95.105469 156.019531 95.105469 C 156.019531 95.105469 148.015625 119.167969 138.449219 121.160156 C 138.449219 121.160156 125.75 68.523438 177.441406 60.253906 C 221.65625 53.179688 245.980469 80.390625 246.269531 118.46875 Z M 246.269531 118.46875 " fill-opacity="1" fill-rule="nonzero"/><path fill="#000000" d="M 245.851562 104.707031 C 245.851562 104.707031 252.351562 99.390625 250.578125 95.84375 C 248.804688 92.300781 241.652344 96.613281 241.652344 96.613281 L 246.269531 105.296875 " fill-opacity="1" fill-rule="nonzero"/><path fill="#000000" d="M 181.042969 147.117188 C 181.042969 147.117188 181.175781 147.164062 181.417969 147.246094 C 181.667969 147.320312 182.039062 147.429688 182.503906 147.570312 C 182.972656 147.703125 183.550781 147.84375 184.207031 148.003906 C 184.867188 148.15625 185.613281 148.292969 186.429688 148.4375 C 187.246094 148.566406 188.128906 148.65625 189.0625 148.742188 C 189.53125 148.761719 190.007812 148.78125 190.5 148.796875 C 190.984375 148.789062 191.480469 148.78125 191.988281 148.773438 C 192.488281 148.726562 193 148.707031 193.511719 148.640625 C 194.019531 148.550781 194.535156 148.5 195.046875 148.390625 C 195.550781 148.265625 196.074219 148.1875 196.574219 148.019531 C 197.054688 147.851562 197.613281 147.707031 198.035156 147.519531 L 199.617188 146.875 C 200.132812 146.65625 200.554688 146.40625 201.023438 146.175781 C 201.488281 145.964844 201.925781 145.664062 202.371094 145.40625 C 202.589844 145.273438 202.808594 145.140625 203.027344 145.007812 C 203.230469 144.859375 203.433594 144.710938 203.632812 144.5625 C 203.835938 144.414062 204.035156 144.269531 204.234375 144.125 C 204.421875 143.972656 204.59375 143.804688 204.78125 143.652344 C 205.148438 143.34375 205.503906 143.039062 205.808594 142.699219 C 206.132812 142.378906 206.433594 142.054688 206.691406 141.714844 C 206.832031 141.550781 206.964844 141.386719 207.101562 141.226562 C 207.21875 141.058594 207.335938 140.890625 207.449219 140.730469 C 207.6875 140.40625 207.882812 140.078125 208.0625 139.761719 C 208.261719 139.453125 208.410156 139.140625 208.554688 138.847656 C 208.84375 138.261719 209.050781 137.726562 209.203125 137.277344 C 209.347656 136.828125 209.449219 136.472656 209.503906 136.226562 C 209.550781 135.992188 209.578125 135.867188 209.578125 135.867188 L 209.585938 135.8125 C 209.636719 135.5625 209.882812 135.398438 210.132812 135.449219 C 210.34375 135.488281 210.492188 135.664062 210.507812 135.867188 C 210.507812 135.867188 210.519531 136.042969 210.527344 136.324219 C 210.523438 136.609375 210.519531 137.03125 210.449219 137.554688 C 210.378906 138.078125 210.269531 138.714844 210.046875 139.417969 C 209.832031 140.125 209.542969 140.917969 209.101562 141.71875 C 208.996094 141.921875 208.886719 142.128906 208.773438 142.339844 C 208.644531 142.539062 208.515625 142.742188 208.382812 142.949219 C 208.125 143.375 207.808594 143.773438 207.472656 144.179688 C 207.15625 144.601562 206.785156 144.988281 206.394531 145.375 C 206.019531 145.785156 205.589844 146.144531 205.144531 146.5 C 204.921875 146.679688 204.703125 146.863281 204.476562 147.046875 C 204.238281 147.210938 204 147.375 203.757812 147.539062 C 203.277344 147.867188 202.796875 148.207031 202.246094 148.472656 C 201.710938 148.75 201.15625 149.070312 200.628906 149.304688 L 199.058594 149.96875 C 197.851562 150.421875 196.710938 150.726562 195.515625 150.945312 C 194.929688 151.0625 194.332031 151.089844 193.753906 151.160156 C 193.171875 151.203125 192.59375 151.195312 192.03125 151.214844 C 191.464844 151.203125 190.914062 151.171875 190.375 151.136719 C 189.839844 151.066406 189.316406 151 188.804688 150.9375 C 188.304688 150.839844 187.8125 150.757812 187.34375 150.652344 C 186.882812 150.53125 186.433594 150.414062 186.007812 150.300781 C 185.152344 150.054688 184.390625 149.777344 183.726562 149.511719 C 183.0625 149.246094 182.5 148.980469 182.039062 148.75 C 181.578125 148.523438 181.234375 148.3125 180.992188 148.175781 C 180.753906 148.027344 180.628906 147.949219 180.628906 147.949219 C 180.410156 147.816406 180.339844 147.527344 180.476562 147.308594 C 180.59375 147.121094 180.820312 147.042969 181.023438 147.109375 Z M 181.042969 147.117188 " fill-opacity="1" fill-rule="nonzero"/><path fill="#fcdbc7" d="M 184.234375 224.355469 C 184.234375 224.355469 184.226562 225.238281 184.171875 226.777344 C 184.101562 228.316406 184.046875 230.519531 183.851562 233.160156 C 183.683594 235.796875 183.445312 238.875 183.15625 242.167969 C 183.015625 243.8125 182.855469 245.511719 182.636719 247.234375 C 182.429688 248.957031 182.222656 250.707031 182.011719 252.457031 C 181.554688 255.953125 181.109375 259.453125 180.613281 262.71875 C 180.027344 265.980469 179.4375 269.015625 178.902344 271.609375 C 177.851562 276.800781 176.996094 280.222656 177 280.222656 C 176.9375 280.472656 176.683594 280.625 176.433594 280.5625 C 176.210938 280.507812 176.066406 280.296875 176.082031 280.074219 L 176.085938 280.046875 C 176.085938 280.046875 176.359375 276.519531 177 271.289062 C 177.3125 268.675781 177.710938 265.632812 178.179688 262.378906 C 178.371094 260.742188 178.53125 259.046875 178.75 257.332031 C 178.957031 255.617188 179.164062 253.871094 179.378906 252.128906 C 179.605469 250.386719 179.835938 248.644531 180.0625 246.929688 C 180.292969 245.21875 180.542969 243.53125 180.730469 241.898438 C 181.144531 238.628906 181.558594 235.582031 181.949219 232.972656 C 182.347656 230.359375 182.679688 228.183594 182.914062 226.660156 C 183.152344 225.136719 183.308594 224.265625 183.308594 224.265625 C 183.355469 224.011719 183.597656 223.84375 183.851562 223.890625 C 184.078125 223.929688 184.238281 224.128906 184.234375 224.355469 Z M 184.234375 224.355469 " fill-opacity="1" fill-rule="nonzero"/><path fill="#fcdbc7" d="M 207.027344 224.375 C 207.027344 224.375 206.972656 225.316406 206.835938 226.957031 C 206.683594 228.597656 206.515625 230.949219 206.226562 233.757812 C 205.949219 236.566406 205.589844 239.839844 205.167969 243.339844 C 204.746094 246.839844 204.292969 250.570312 203.839844 254.304688 C 203.589844 256.167969 203.34375 258.027344 203.097656 259.863281 C 202.863281 261.699219 202.582031 263.496094 202.335938 265.242188 C 201.828125 268.730469 201.316406 271.980469 200.847656 274.761719 C 200.394531 277.546875 199.9375 279.859375 199.652344 281.484375 C 199.351562 283.101562 199.15625 284.027344 199.15625 284.027344 L 199.152344 284.039062 C 199.101562 284.292969 198.851562 284.453125 198.601562 284.398438 C 198.375 284.351562 198.222656 284.144531 198.230469 283.921875 C 198.230469 283.921875 198.273438 282.980469 198.394531 281.335938 C 198.527344 279.695312 198.667969 277.34375 198.933594 274.53125 C 199.179688 271.71875 199.507812 268.441406 199.898438 264.933594 C 200.097656 263.179688 200.285156 261.367188 200.519531 259.527344 C 200.746094 257.6875 200.976562 255.820312 201.207031 253.953125 C 201.457031 252.085938 201.707031 250.222656 201.953125 248.382812 C 202.1875 246.546875 202.484375 244.75 202.75 243.003906 C 203.296875 239.519531 203.835938 236.273438 204.332031 233.492188 C 204.816406 230.714844 205.289062 228.40625 205.585938 226.785156 C 205.902344 225.167969 206.105469 224.246094 206.105469 224.246094 C 206.160156 223.996094 206.410156 223.835938 206.660156 223.890625 C 206.886719 223.941406 207.039062 224.148438 207.027344 224.375 Z M 207.027344 224.375 " fill-opacity="1" fill-rule="nonzero"/></svg>