<svg xmlns="http://www.w3.org/2000/svg" xmlns:xlink="http://www.w3.org/1999/xlink" width="500" zoomAndPan="magnify" viewBox="0 0 375 374.999991" height="500" preserveAspectRatio="xMidYMid meet" version="1.0"><defs><clipPath id="cb63834305"><path d="M 9.179688 131 L 168 131 L 168 289 L 9.179688 289 Z M 9.179688 131 " clip-rule="nonzero"/></clipPath></defs><path fill="#38b6ff" d="M 79.582031 108.023438 C 90.707031 108.023438 99.730469 117.042969 99.730469 128.171875 C 99.730469 139.300781 90.707031 148.320312 79.582031 148.320312 C 68.453125 148.320312 59.433594 139.300781 59.433594 128.171875 C 59.433594 117.042969 68.453125 108.023438 79.582031 108.023438 " fill-opacity="1" fill-rule="evenodd"/><path fill="#ff7828" d="M 127.480469 221.160156 C 129.507812 224.660156 132.488281 229.316406 134.707031 233.292969 C 136.921875 237.265625 138.375 240.558594 137.324219 246.226562 C 136.273438 251.886719 132.722656 259.917969 130.898438 267.3125 C 129.074219 274.707031 128.972656 281.460938 130.226562 285.070312 C 131.476562 288.675781 134.089844 289.132812 136.226562 285.941406 C 138.367188 282.75 140.03125 275.90625 141.886719 271.644531 C 143.75 267.382812 145.804688 265.703125 147.695312 266.621094 C 149.585938 267.542969 151.3125 271.0625 153.496094 275.222656 C 155.683594 279.378906 158.320312 284.179688 160.957031 286.5 C 163.605469 288.824219 166.246094 288.679688 167.390625 286.988281 C 168.539062 285.292969 168.183594 282.058594 166.917969 277.550781 C 165.65625 273.039062 163.476562 267.253906 161.898438 261.433594 C 160.320312 255.621094 159.34375 249.765625 162.054688 245.519531 C 164.765625 241.269531 171.160156 238.628906 176.378906 235.382812 C 181.601562 232.140625 185.644531 228.304688 186.476562 225.722656 C 187.3125 223.148438 184.9375 221.832031 181.042969 222.953125 C 177.152344 224.070312 171.730469 227.625 167.070312 230.113281 C 162.40625 232.605469 158.5 234.023438 155.101562 234.03125 C 151.714844 234.035156 148.84375 232.628906 145.488281 229.5625 C 142.132812 226.496094 138.289062 221.761719 134.511719 218.71875 C 130.738281 215.671875 127.027344 214.3125 125.703125 214.808594 C 124.386719 215.304688 125.457031 217.652344 127.480469 221.160156 Z M 156.59375 204.933594 C 163.691406 204.933594 169.445312 210.683594 169.445312 217.78125 C 169.445312 224.878906 163.691406 230.632812 156.59375 230.632812 C 149.5 230.632812 143.742188 224.878906 143.742188 217.78125 C 143.742188 210.683594 149.5 204.933594 156.59375 204.933594 " fill-opacity="1" fill-rule="evenodd"/><path fill="#91c123" d="M 188.957031 225.65625 C 190.636719 225.5 193.574219 226.863281 196.355469 228.960938 C 199.136719 231.058594 201.683594 234.050781 205.273438 235.785156 C 227.738281 246.621094 233.851562 224.214844 234.453125 212.382812 C 234.632812 208.753906 235.550781 207.554688 236.027344 206.449219 C 236.496094 205.347656 237.4375 204.511719 238.699219 206.242188 C 239.960938 207.972656 241.53125 212.277344 241.53125 217.472656 C 241.53125 222.664062 239.960938 228.75 238.070312 233.632812 C 235.179688 241.113281 228.039062 247.945312 236.367188 253.972656 C 238.363281 255.417969 243.503906 256.625 245.316406 257.382812 C 247.128906 258.144531 248.125 258.617188 246.339844 260.269531 C 245.167969 261.355469 242.800781 262.949219 239.636719 264.535156 C 241.851562 270.585938 243.988281 277.429688 244.3125 281.75 C 244.683594 286.578125 242.792969 288.253906 240.535156 287.363281 C 238.28125 286.472656 235.65625 283.007812 233.03125 278.441406 C 231.222656 275.289062 229.414062 271.613281 227.5625 268.964844 C 223.347656 270.082031 218.996094 270.910156 215.351562 271.421875 L 215.324219 271.425781 C 214.351562 273.234375 213.503906 275.203125 212.515625 277.078125 C 210.890625 280.175781 208.898438 283.007812 207.058594 284.84375 C 205.222656 286.679688 203.546875 287.523438 202.023438 287.574219 C 200.5 287.625 199.136719 286.890625 199.554688 284.949219 C 199.976562 283.007812 202.179688 279.859375 203.808594 275.082031 C 204.125 274.144531 204.421875 273.148438 204.695312 272.105469 C 204.3125 272.085938 203.964844 272.058594 203.652344 272.027344 C 201.476562 271.789062 201.054688 271.261719 201.054688 270.710938 C 201.054688 270.164062 201.476562 269.585938 202.523438 268.0625 C 207.125 261.398438 207.050781 254.667969 201.917969 248.324219 C 199.242188 245.019531 195.359375 241.34375 192.578125 238.09375 C 189.796875 234.839844 188.121094 232.007812 187.488281 229.75 C 186.859375 227.492188 187.277344 225.8125 188.957031 225.65625 Z M 232.539062 216.851562 C 232.851562 215.222656 232.878906 214.410156 232.894531 214.003906 C 232.90625 213.597656 232.90625 213.597656 232.445312 214.515625 C 229.730469 219.957031 226.800781 217.597656 224.421875 213.664062 C 222.171875 209.945312 218.082031 207.449219 213.414062 207.449219 C 206.320312 207.449219 200.5625 213.203125 200.5625 220.300781 C 200.5625 227.398438 206.867188 233.625 213.96875 233.625 C 223.816406 233.625 230.71875 226.265625 232.539062 216.851562 " fill-opacity="1" fill-rule="evenodd"/><path fill="#ff3131" d="M 178.988281 210.082031 C 174.964844 206.214844 169.304688 200.558594 164.242188 194.660156 C 159.183594 188.757812 154.71875 182.621094 151.492188 177.203125 C 148.265625 171.78125 146.269531 167.082031 146.46875 161.0625 C 146.960938 146.3125 156.671875 137.816406 171.339844 141.613281 C 176.71875 143.011719 180.222656 145.878906 182.9375 149.464844 C 185.644531 153.050781 187.558594 157.355469 189.546875 157.035156 C 191.542969 156.71875 193.617188 151.777344 195.726562 148.191406 C 197.839844 144.605469 199.992188 142.371094 203.417969 141.058594 C 218.042969 135.449219 227.441406 146.910156 228.691406 157.707031 C 230.105469 169.949219 212.988281 193.359375 204.253906 201.949219 C 199.273438 206.855469 194.492188 210.4375 191.78125 212.910156 C 189.074219 215.382812 188.433594 216.734375 186.917969 216.378906 C 185.40625 216.019531 183.015625 213.945312 178.988281 210.082031 Z M 172.722656 96.429688 C 170.359375 94.585938 165.503906 90.59375 165.285156 87.367188 C 164.972656 82.808594 169.730469 81.582031 172.285156 84.332031 C 172.890625 84.984375 173.359375 85.800781 173.746094 85.695312 C 174.136719 85.597656 174.445312 84.570312 174.792969 83.820312 C 176.34375 80.445312 180.75 81.535156 181.523438 85.039062 C 182.210938 88.160156 177.984375 93.929688 175.882812 96.464844 C 174.96875 97.570312 174.386719 97.734375 172.722656 96.429688 Z M 203.144531 99.613281 C 203.367188 96.625 203.988281 90.363281 206.550781 88.390625 C 210.167969 85.601562 213.832031 88.871094 212.960938 92.523438 C 212.753906 93.394531 212.335938 94.234375 212.636719 94.5 C 212.941406 94.765625 213.960938 94.457031 214.78125 94.328125 C 218.449219 93.742188 219.992188 98.011719 217.503906 100.601562 C 215.292969 102.90625 208.148438 102.597656 204.867188 102.257812 C 203.445312 102.113281 202.988281 101.722656 203.144531 99.613281 Z M 159.503906 118.503906 C 159.277344 115.515625 158.660156 109.257812 156.097656 107.28125 C 152.484375 104.492188 148.820312 107.765625 149.683594 111.414062 C 149.894531 112.285156 150.3125 113.125 150.007812 113.390625 C 149.707031 113.65625 148.6875 113.347656 147.863281 113.21875 C 144.199219 112.632812 142.65625 116.902344 145.144531 119.492188 C 147.355469 121.796875 154.5 121.488281 157.777344 121.148438 C 159.203125 121.003906 159.660156 120.613281 159.503906 118.503906 Z M 198.867188 130.953125 C 197.804688 128.152344 195.71875 122.222656 197.199219 119.347656 C 199.296875 115.289062 203.996094 116.699219 204.757812 120.375 C 204.941406 121.253906 204.917969 122.191406 205.304688 122.304688 C 205.691406 122.417969 206.484375 121.703125 207.171875 121.238281 C 210.242188 119.15625 213.453125 122.371094 212.292969 125.769531 C 211.265625 128.792969 204.664062 131.539062 201.546875 132.621094 C 200.195312 133.089844 199.617188 132.929688 198.867188 130.953125 Z M 183.753906 126.816406 C 179.71875 125.449219 171.328125 122.375 169.519531 118.152344 C 166.957031 112.183594 172.761719 108.304688 177.476562 110.792969 C 178.605469 111.386719 179.613281 112.261719 180.085938 111.9375 C 180.558594 111.617188 180.496094 110.101562 180.605469 108.929688 C 181.101562 103.671875 187.523438 103.0625 190.207031 107.402344 C 192.59375 111.269531 189.632812 120.988281 188.007812 125.386719 C 187.300781 127.292969 186.601562 127.785156 183.753906 126.816406 " fill-opacity="1" fill-rule="evenodd"/><g clip-path="url(#cb63834305)"><path fill="#38b6ff" d="M 160.558594 139.351562 C 92.636719 161.25 105.566406 193.910156 118.371094 251.273438 C 120.785156 262.082031 122.988281 273.417969 123.515625 280.027344 C 124.039062 286.636719 122.882812 288.527344 120.367188 287.691406 C 117.847656 286.851562 113.960938 283.28125 111.128906 277.71875 C 108.296875 272.15625 106.511719 264.601562 103.890625 257.570312 C 101.265625 250.539062 97.800781 244.03125 94.550781 240.097656 C 91.296875 236.160156 88.25 234.796875 84.632812 235.113281 C 81.011719 235.425781 76.8125 237.421875 73.351562 241.722656 C 69.886719 246.023438 67.160156 252.636719 65.007812 258.933594 C 62.855469 265.230469 61.28125 271.214844 59.339844 276.359375 C 57.398438 281.5 55.089844 285.800781 52.835938 287.375 C 50.574219 288.949219 48.371094 287.796875 47.273438 283.648438 C 46.167969 279.503906 46.167969 272.367188 47.957031 263.132812 C 49.738281 253.898438 53.304688 242.5625 56.296875 233.589844 C 59.289062 224.617188 61.699219 218.003906 63.167969 211.917969 C 64.640625 205.835938 65.164062 200.269531 64.851562 195.390625 C 64.535156 190.507812 63.382812 186.316406 60.546875 184.53125 C 57.714844 182.746094 53.199219 183.375 47.742188 185.785156 C 42.289062 188.203125 35.882812 192.398438 29.902344 195.390625 C 23.921875 198.378906 17.570312 200.324219 13.6875 201.003906 C 9.804688 201.6875 9.175781 199.222656 9.648438 197.226562 C 10.695312 192.816406 29.679688 181.65625 34.050781 179.074219 C 70.792969 157.351562 108.804688 140.585938 151.21875 132.789062 C 156.363281 131.847656 160.769531 131.636719 163.65625 132.214844 C 166.539062 132.789062 167.902344 134.15625 167.589844 135.417969 C 167.273438 136.675781 165.28125 137.828125 160.558594 139.351562 " fill-opacity="1" fill-rule="evenodd"/></g><path fill="#6a6ab5" d="M 267.796875 219.671875 C 262.65625 227.644531 256.882812 233.523438 254.207031 236.777344 C 251.53125 240.03125 251.949219 240.660156 255.308594 242.234375 C 258.667969 243.808594 268.496094 247.070312 273.414062 248.109375 C 278.328125 249.144531 278.453125 248.519531 279.945312 248.769531 C 279.148438 255.179688 278.128906 294.164062 285.753906 288.910156 C 287.9375 287.40625 289.574219 283.847656 290.75 277.730469 C 292.382812 269.199219 292.070312 259.28125 293.363281 250.328125 C 296.417969 250.363281 300.132812 250.183594 302.535156 249.945312 C 304.933594 249.710938 309.363281 248.273438 311.097656 247.976562 C 316.746094 258.3125 316.40625 278.515625 322.929688 285.164062 C 332.453125 294.867188 324.148438 247.699219 323.332031 244.910156 C 325.933594 243.90625 325.320312 244.34375 330.972656 241.550781 C 336.628906 238.757812 342.835938 235.308594 345.511719 232.109375 C 350.058594 226.664062 330.042969 222.726562 320.050781 208.855469 C 310.054688 194.984375 307.0625 176.445312 328.121094 186.140625 C 333.355469 188.550781 339.492188 192.742188 345.226562 195.726562 C 350.960938 198.710938 357.046875 200.648438 360.769531 201.328125 C 364.488281 202.007812 365.09375 199.546875 364.636719 197.558594 C 363.636719 193.15625 345.441406 182.019531 341.25 179.4375 C 306.03125 157.765625 269.597656 141.035156 228.945312 133.25 C 224.011719 132.308594 219.789062 132.101562 217.023438 132.679688 C 214.257812 133.25 212.949219 134.613281 213.253906 135.871094 C 213.554688 137.128906 215.464844 138.28125 219.992188 139.800781 C 227.78125 142.414062 234.339844 145.460938 240.167969 148.128906 C 271.542969 162.496094 287.738281 188.753906 267.796875 219.671875 Z M 321.566406 156.6875 C 324.726562 156.679688 327.839844 154.675781 329.960938 152.21875 C 332.082031 149.765625 333.214844 146.847656 333.402344 144.628906 C 333.59375 142.414062 332.835938 140.890625 331.941406 139.90625 C 331.046875 138.921875 330.007812 138.46875 329.488281 138.132812 C 328.96875 137.808594 328.96875 137.597656 328.96875 138.542969 C 328.96875 139.488281 328.96875 141.582031 328.164062 143.054688 C 327.363281 144.527344 325.765625 145.375 324.160156 145.488281 C 322.558594 145.597656 320.957031 144.976562 320.246094 142.457031 C 318.988281 137.957031 319.691406 132.25 318.140625 126.898438 C 316.6875 117.195312 308.320312 109.746094 298.210938 109.746094 C 287.082031 109.746094 278.0625 118.769531 278.0625 129.898438 C 278.0625 138.160156 281.417969 143.648438 289.964844 148.132812 C 299.566406 153.171875 314.816406 156.710938 321.566406 156.6875 " fill-opacity="1" fill-rule="evenodd"/></svg>