<svg xmlns="http://www.w3.org/2000/svg" xmlns:xlink="http://www.w3.org/1999/xlink" width="500" zoomAndPan="magnify" viewBox="0 0 375 374.999991" height="500" preserveAspectRatio="xMidYMid meet" version="1.0"><defs><clipPath id="b7f48764d9"><path d="M 37.5 38 L 281 38 L 281 326 L 37.5 326 Z M 37.5 38 " clip-rule="nonzero"/></clipPath></defs><g clip-path="url(#b7f48764d9)"><path fill="#004aad" d="M 276.460938 131.019531 C 276.628906 133.777344 275.980469 136.492188 275.71875 139.222656 C 275.632812 140.144531 275.824219 146.894531 273.367188 144.371094 C 272.003906 142.972656 271.90625 140.792969 271.898438 138.996094 C 271.898438 137.707031 272.757812 131.203125 270.011719 133.179688 C 268.183594 134.5 268.710938 138.253906 268.886719 140.140625 C 269.148438 142.855469 269.75 144.957031 271.304688 147.214844 C 272.832031 149.433594 272.894531 151.222656 271.578125 153.605469 C 271 154.648438 270.652344 155.519531 269.601562 154.804688 C 268.609375 154.121094 267.371094 152.441406 266.644531 151.453125 C 263.332031 146.925781 264.171875 141.230469 265.085938 136.070312 C 265.34375 134.582031 265.675781 133.113281 266.089844 131.660156 C 266.265625 131.050781 266.960938 129.535156 266.203125 128.980469 C 264.160156 127.5 263.070312 132.472656 263.003906 133.425781 C 262.824219 135.683594 261.414062 137.566406 261.492188 139.855469 C 261.558594 141.042969 261.4375 142.210938 261.128906 143.359375 C 260.992188 143.890625 260.675781 144.574219 260.71875 145.136719 C 260.769531 145.792969 261.359375 146.375 261.480469 147.082031 C 261.644531 148.027344 261.4375 148.960938 261.664062 149.910156 C 261.941406 151.066406 262.601562 152.078125 263.195312 153.085938 C 263.992188 154.441406 264.796875 155.886719 266.074219 156.855469 C 267.476562 157.910156 269.335938 158.199219 268.535156 160.347656 C 267.582031 162.902344 265.667969 165.097656 264.542969 167.589844 C 262.6875 171.710938 258.515625 174.554688 255.386719 177.625 C 251.871094 181.074219 248.101562 184.851562 243.625 187.046875 C 241.535156 188.070312 239.710938 189.4375 237.6875 190.582031 C 235.269531 191.953125 232.859375 192.230469 230.21875 192.90625 C 229.257812 193.15625 228.035156 193.953125 227.085938 193.957031 C 225.765625 193.957031 225.171875 192.433594 224.347656 191.613281 C 222.53125 189.8125 220.433594 188.589844 217.855469 188.40625 C 215.46875 188.242188 213.730469 189.152344 211.539062 189.847656 C 208.902344 190.683594 207.140625 192.464844 205.394531 194.59375 C 204.863281 195.253906 204.222656 196.433594 203.253906 196.554688 C 202.652344 196.632812 202.261719 196.226562 201.738281 196.046875 C 201.042969 195.804688 200.632812 195.816406 199.890625 195.8125 C 197.15625 195.792969 194.554688 195.664062 191.875 195.046875 C 188.441406 194.261719 184.226562 193.585938 181.304688 191.496094 C 179.367188 190.109375 177.582031 188.8125 175.445312 187.722656 C 173.085938 186.519531 170.664062 185.414062 168.519531 183.855469 C 166.542969 182.421875 164.386719 181.320312 162.359375 179.949219 C 160.121094 178.4375 157.980469 176.753906 155.8125 175.136719 C 153.789062 173.625 152.035156 171.792969 150.039062 170.238281 C 147.746094 168.46875 145.632812 166.5 143.703125 164.339844 C 140.078125 160.207031 137.898438 155.089844 135.425781 150.226562 C 132.976562 145.398438 130.378906 139.667969 130.007812 134.1875 C 129.738281 130.09375 129.164062 126.035156 129.246094 121.917969 C 129.320312 118.539062 129.46875 115.042969 130.214844 111.734375 C 130.425781 110.796875 130.507812 109.808594 130.75 108.882812 C 131.015625 107.855469 131.660156 106.980469 132.109375 106.023438 C 133.273438 103.53125 133.921875 100.8125 135.296875 98.410156 C 136.527344 96.257812 138.382812 94.566406 139.660156 92.441406 C 141.03125 90.167969 142.6875 88.304688 144.535156 86.402344 C 148.285156 82.53125 151.984375 78.816406 156.1875 75.417969 C 158.277344 73.730469 160.386719 72.515625 162.792969 71.359375 C 165.433594 70.085938 167.945312 68.554688 170.726562 67.59375 C 173.203125 66.742188 175.582031 65.761719 178.007812 64.792969 C 180.355469 63.855469 182.878906 63.472656 185.175781 62.4375 C 190.121094 60.214844 196.582031 60.742188 201.890625 60.789062 C 204.617188 60.8125 207.414062 60.523438 209.992188 61.472656 C 212.851562 62.527344 215.6875 62.75 218.648438 63.335938 C 224.085938 64.410156 229.035156 66.410156 234.257812 68.152344 C 236.476562 68.890625 238.820312 69.402344 240.828125 70.664062 C 242.902344 71.960938 245.21875 73.042969 247.234375 74.414062 C 247.996094 74.9375 248.535156 75.402344 249.285156 75.742188 C 250.425781 76.261719 251.242188 76.703125 252.238281 77.566406 C 254.066406 79.15625 256.171875 80.558594 257.863281 82.28125 C 259.550781 84.007812 260.578125 86.390625 261.769531 88.492188 C 263.21875 91.054688 264.851562 93.496094 266.667969 95.816406 C 267.382812 96.722656 269.378906 101.226562 270.96875 100.925781 C 273.457031 100.449219 269.925781 95.648438 269.484375 94.824219 C 267.082031 90.316406 265.023438 85.710938 261.128906 82.25 C 260.226562 81.449219 259.429688 80.796875 258.785156 79.769531 C 258.324219 79.03125 257.9375 78.234375 257.234375 77.691406 C 256.300781 76.96875 255.230469 76.617188 254.308594 75.824219 C 253.234375 74.890625 252.074219 74.1875 250.863281 73.433594 C 245.90625 70.34375 241.136719 67.378906 235.609375 65.386719 C 234.265625 64.902344 232.941406 64.382812 231.628906 63.820312 C 230.917969 63.515625 228.703125 62.988281 228.316406 62.292969 C 227.457031 60.761719 232.5625 62.421875 233.277344 62.601562 C 235.613281 63.234375 237.898438 64.015625 240.132812 64.957031 C 242.753906 66.039062 244.914062 66.125 247.765625 66.0625 C 253.132812 65.945312 257.101562 63.878906 260.714844 59.960938 C 262.378906 58.160156 263.503906 56.191406 264.507812 53.980469 C 265.589844 51.582031 267.777344 49.496094 269.808594 47.839844 C 270.507812 47.273438 275.382812 44.648438 272.589844 43.332031 C 271.214844 42.683594 268.21875 44.980469 267.277344 45.835938 C 267.027344 46.066406 266.289062 47.03125 266.046875 46.449219 C 265.921875 46.152344 267.382812 44.925781 267.621094 44.695312 C 269.230469 43.167969 271.222656 42.6875 273.28125 42.125 C 274.269531 41.855469 279.351562 41.660156 278.347656 39.550781 C 277.441406 37.636719 273.535156 39.105469 272.105469 39.25 C 269.421875 39.527344 266.949219 39.957031 264.429688 40.996094 C 263.402344 41.421875 262.40625 41.902344 261.4375 42.4375 C 261.03125 42.664062 260.683594 43.035156 260.207031 43.125 C 259.660156 43.230469 259.238281 42.945312 258.722656 42.980469 C 257.789062 43.042969 257.121094 43.777344 256.144531 43.84375 C 254.90625 43.925781 254.167969 43.746094 252.941406 44.125 C 250.425781 44.898438 247.261719 44.738281 244.660156 44.371094 C 241.859375 43.976562 239.164062 43.085938 236.320312 42.984375 C 233.1875 42.871094 230.140625 43.789062 227.019531 43.90625 C 224.605469 43.992188 222.457031 44.640625 220.085938 45.046875 C 217.410156 45.503906 215.15625 45.734375 212.902344 47.273438 C 210.953125 48.601562 208.726562 49.5 206.769531 50.847656 C 204.554688 52.394531 202.566406 54.195312 200.804688 56.246094 C 200.105469 57.042969 199.613281 57.566406 198.535156 57.789062 C 197.226562 58.0625 196.257812 57.511719 195.03125 57.449219 C 194.117188 57.40625 193.269531 57.90625 192.347656 57.925781 C 190.996094 57.949219 189.644531 57.800781 188.277344 57.890625 C 185.804688 58.054688 184.035156 59.171875 181.824219 59.96875 C 180.753906 60.355469 179.582031 60.382812 178.476562 60.761719 C 177.324219 61.160156 176.160156 61.128906 175.042969 61.695312 C 172.703125 62.878906 170.261719 63.632812 167.847656 64.695312 C 165.035156 65.933594 162.335938 67.414062 159.601562 68.816406 C 158.46875 69.402344 157.277344 69.90625 156.160156 70.519531 C 155.089844 71.113281 154.453125 71.992188 153.5625 72.84375 C 151.667969 74.660156 149.515625 76.164062 147.597656 77.957031 C 143.25 82.035156 139.144531 86.347656 135.285156 90.890625 C 133.625 92.835938 133 95.089844 131.839844 97.332031 C 130.550781 99.824219 129.335938 102.144531 128.601562 104.878906 C 127.941406 107.308594 127.234375 109.785156 126.691406 112.238281 C 126.382812 113.621094 126.707031 115.042969 126.582031 116.457031 C 126.457031 117.867188 126.140625 119.222656 125.941406 120.605469 C 125.566406 123.222656 125.738281 126.007812 125.75 128.644531 C 125.757812 131.144531 126.191406 134.039062 126.8125 136.460938 C 127.371094 138.648438 127.363281 140.988281 128.320312 143.054688 C 129.445312 145.484375 130.464844 147.914062 131.4375 150.40625 C 133.277344 155.105469 136.035156 159.738281 138.796875 163.964844 C 140.980469 167.304688 143.921875 170.117188 146.875 172.765625 C 148.863281 174.546875 150.964844 176.199219 153.070312 177.839844 C 153.828125 178.429688 156.296875 179.734375 156.53125 180.675781 C 156.816406 181.792969 155.121094 182.472656 154.433594 183.101562 C 152.878906 184.523438 151.730469 187.007812 149.359375 185.914062 C 146.800781 184.695312 144.324219 183.332031 141.929688 181.820312 C 137.28125 178.941406 132.222656 177.359375 127.296875 175.042969 C 121.992188 172.550781 116.492188 170.386719 111.382812 167.503906 C 109.011719 166.164062 106.757812 164.578125 104.210938 163.585938 C 101.738281 162.621094 99.0625 162.429688 96.496094 161.804688 C 94.238281 161.253906 91.890625 161.480469 89.597656 160.980469 C 86.960938 160.398438 84.285156 161.019531 81.632812 161.015625 C 80.398438 161.015625 79.710938 160.371094 78.5 160.226562 C 77.464844 160.105469 76.429688 160.363281 75.390625 160.226562 C 74.101562 160.0625 72.894531 159.554688 71.585938 159.472656 C 69.929688 159.367188 68.21875 159.605469 66.550781 159.609375 C 63.597656 159.609375 60.734375 159.644531 57.8125 160.105469 C 55.089844 160.53125 52.355469 160.238281 49.625 160.546875 C 46.921875 160.871094 44.269531 161.425781 41.664062 162.210938 C 39.613281 162.835938 37.878906 164.101562 37.6875 166.378906 C 37.496094 168.65625 38.835938 170.5625 39.949219 172.398438 C 41.324219 174.679688 42.171875 177.140625 43.832031 179.269531 C 47.035156 183.371094 51.351562 186.445312 55.117188 189.988281 C 56.835938 191.605469 58.316406 194.019531 60.265625 195.335938 C 61.203125 195.96875 62.136719 196.324219 62.972656 197.125 C 63.9375 198.050781 64.671875 199.042969 65.792969 199.804688 C 67.78125 201.15625 69.15625 202.976562 71.046875 204.449219 C 72.9375 205.921875 75.003906 207.085938 76.96875 208.425781 C 81.542969 211.539062 86.71875 214.078125 91.640625 216.59375 C 94.097656 217.84375 96.640625 218.910156 99.152344 220.042969 C 100.257812 220.535156 105.03125 223.640625 106.027344 222.148438 C 107.019531 220.65625 103.152344 219.507812 102.3125 219.058594 C 101.355469 218.539062 100.773438 217.769531 99.933594 217.109375 C 98.96875 216.347656 97.800781 215.925781 96.710938 215.382812 C 94.644531 214.355469 93.015625 213.117188 90.808594 212.34375 C 89.71875 211.960938 88.863281 211.453125 87.878906 210.882812 C 86.59375 210.136719 85.199219 209.777344 83.871094 209.140625 C 80.453125 207.503906 83.988281 206.535156 85.636719 205.136719 C 87.53125 203.53125 88.953125 202.0625 89.488281 199.609375 C 89.886719 197.765625 89.082031 196.0625 91.011719 195.035156 C 91.941406 194.542969 92.960938 194.324219 93.691406 193.5 C 94.558594 192.53125 95.207031 191.347656 96.09375 190.359375 C 98 188.246094 97.703125 186.1875 96.996094 183.546875 C 96.738281 182.570312 96.207031 181.519531 96.589844 180.5 C 97.011719 179.375 98.316406 178.964844 99.269531 178.398438 C 101.179688 177.261719 102.988281 175.820312 103.417969 173.527344 C 103.570312 172.722656 103.632812 166.109375 103.222656 166.179688 C 104.238281 165.992188 106.980469 168.355469 107.910156 168.898438 C 109.832031 170.027344 111.792969 171.105469 113.808594 172.058594 C 117.578125 173.847656 121.207031 175.863281 124.953125 177.695312 C 128.375 179.371094 131.953125 180.574219 135.339844 182.371094 C 136.902344 183.195312 138.511719 183.550781 140.160156 184.226562 C 141.957031 184.964844 143.625 185.964844 145.226562 187.046875 C 151.964844 191.597656 159.464844 195.003906 166.230469 199.507812 C 169.816406 201.890625 173.535156 203.75 177.359375 205.707031 C 181.132812 207.644531 184.902344 209.625 188.867188 211.148438 C 190.03125 211.601562 193.042969 213.609375 194.183594 212.621094 C 195.859375 211.167969 191.617188 209.636719 190.71875 209.125 C 188.679688 207.953125 186.679688 206.707031 184.597656 205.605469 C 183.503906 205.023438 182.34375 204.566406 181.246094 203.996094 C 181.070312 203.902344 179.554688 203.167969 179.550781 203.148438 C 179.316406 202.214844 180.667969 202.925781 180.597656 202.914062 C 181.03125 202.976562 181.742188 203.265625 182.363281 203.195312 C 184.382812 202.96875 186.921875 201.175781 187.863281 199.457031 C 188.296875 198.671875 188.238281 198.214844 189.183594 197.871094 C 190.109375 197.539062 191.273438 197.839844 192.183594 198 C 193.609375 198.25 195.015625 198.597656 196.429688 198.898438 C 197.898438 199.214844 199.917969 199.132812 201.277344 199.703125 C 201.875 199.953125 202.535156 200.226562 201.871094 200.90625 C 201.28125 201.511719 200.371094 200.824219 199.808594 200.609375 C 198.925781 200.269531 194.863281 199.59375 195.402344 201.585938 C 195.671875 202.585938 196.527344 202.1875 197.304688 202.410156 C 198.023438 202.617188 199.449219 202.96875 200.027344 203.402344 C 200.605469 203.835938 200.988281 204.707031 200.40625 205.296875 C 199.550781 206.15625 198.507812 204.917969 197.582031 205.007812 C 196.789062 205.082031 196.335938 205.5 196.417969 206.28125 C 196.550781 207.585938 197.722656 207.15625 198.394531 207.828125 C 199.839844 209.285156 197.105469 212.300781 196.546875 213.886719 C 195.761719 216.121094 196.449219 218.707031 197.515625 220.757812 C 198.449219 222.554688 201.371094 223.964844 201.570312 225.964844 C 201.699219 227.296875 200.457031 228.09375 199.699219 229.015625 C 198.988281 229.878906 198.398438 230.84375 197.691406 231.71875 C 195.996094 233.777344 194.066406 235.585938 191.902344 237.144531 C 190.167969 238.402344 188.285156 239.289062 186.460938 240.363281 C 185.585938 240.882812 185.101562 241.636719 184.285156 242.222656 C 183.242188 242.972656 181.835938 243.378906 180.667969 243.894531 C 179.195312 244.539062 175.488281 245.335938 174.816406 246.746094 C 173.695312 249.097656 177.40625 249.28125 178.660156 248.828125 C 180.726562 248.074219 182.910156 247.515625 184.820312 246.390625 C 186.847656 245.195312 188.53125 243.71875 190.742188 242.980469 C 194.933594 241.585938 199.148438 237.632812 201.785156 234.175781 C 202.578125 233.132812 203.273438 232.03125 203.871094 230.867188 C 204.289062 230.054688 204.554688 229.054688 205.394531 228.574219 C 207.292969 227.476562 210.355469 228.976562 212.351562 229.175781 C 213.667969 229.308594 214.75 229.234375 215.855469 228.4375 C 216.699219 227.832031 217.335938 226.515625 218.308594 226.152344 C 219.296875 225.777344 219.394531 226.289062 220.167969 226.757812 C 221.613281 227.636719 223.339844 228.207031 224.84375 229.019531 C 229.671875 231.632812 234.429688 234.507812 239.054688 237.46875 C 243.640625 240.402344 247.90625 243.96875 252.769531 246.429688 C 254.707031 247.410156 255.355469 249.269531 254.808594 251.453125 C 254.613281 252.234375 254.148438 252.710938 254.085938 253.554688 C 253.964844 254.980469 253.988281 256.105469 253.628906 257.550781 C 253.367188 258.597656 253.269531 259.703125 252.921875 260.726562 C 252.496094 261.96875 251.691406 263.054688 251.078125 264.207031 C 249.964844 266.285156 249.070312 268.46875 247.871094 270.503906 C 246.667969 272.546875 245.183594 274.359375 243.421875 275.945312 C 241.917969 277.320312 240.886719 279.207031 239.328125 280.625 C 237.921875 281.90625 235.160156 282.746094 233.324219 282.917969 C 232.292969 283.015625 231.367188 282.289062 230.425781 281.894531 C 228.878906 281.242188 227.277344 280.78125 225.765625 280.042969 C 223.644531 279.007812 221.640625 277.734375 219.558594 276.648438 C 217.132812 275.378906 214.613281 274.660156 212.425781 272.976562 C 210.78125 271.730469 209.0625 270.59375 207.265625 269.574219 C 206.113281 268.90625 205.179688 268.789062 203.921875 268.511719 C 202.738281 268.257812 201.984375 267.304688 200.894531 266.71875 C 196.503906 264.367188 191.945312 262.429688 187.4375 260.324219 C 185.273438 259.3125 183.300781 258.183594 181.101562 257.273438 C 180.183594 256.898438 179.285156 256.082031 178.269531 256.042969 C 177.253906 256 176.066406 256.617188 176.621094 257.691406 C 177.097656 258.601562 179.226562 259.175781 180.085938 259.699219 C 181.089844 260.304688 182.0625 260.980469 183.070312 261.574219 C 185.464844 262.960938 188.121094 263.742188 190.601562 264.945312 C 195.878906 267.503906 201.210938 270.304688 206.25 273.308594 C 207.539062 274.074219 211.285156 275.664062 211.554688 277.152344 C 211.574219 277.261719 211.292969 278 211.296875 278.207031 C 211.316406 278.734375 211.820312 279.234375 211.808594 279.734375 C 211.78125 280.746094 210.847656 280.992188 209.992188 281.132812 C 208.863281 281.3125 207.355469 281.175781 206.203125 281.097656 C 205.046875 281.019531 204.058594 280.394531 202.980469 280.292969 C 201.027344 280.109375 200.015625 281.863281 198.035156 280.570312 C 197.332031 280.109375 196.789062 279.085938 195.871094 278.988281 C 194.058594 278.796875 194.984375 280.269531 194.660156 281.089844 C 194 282.765625 189.714844 283.46875 188.117188 283.957031 C 184.769531 284.984375 185.527344 282.488281 184.519531 280.273438 C 183.53125 278.109375 181.664062 279.074219 181.40625 281.058594 C 181.277344 282.078125 183.375 285.980469 180.875 285.585938 C 179.871094 285.417969 179.589844 283.90625 179.351562 283.125 C 178.855469 281.476562 178.378906 279.804688 178.03125 278.117188 C 177.8125 277.050781 177.589844 272.585938 175.421875 274.105469 C 173.785156 275.261719 175.285156 280.054688 175.605469 281.585938 C 176.019531 283.574219 177.546875 285.890625 174.9375 286.742188 C 172.089844 287.667969 168.746094 286.785156 165.902344 286.28125 C 162.585938 285.691406 156.359375 282.421875 157.25 278.21875 C 157.472656 277.171875 159.871094 272.375 157.324219 272.292969 C 156.367188 272.261719 156.179688 273.523438 155.839844 274.117188 C 155.628906 274.472656 155.128906 274.792969 154.964844 275.132812 C 154.78125 275.527344 154.917969 276.121094 154.730469 276.453125 C 153.707031 278.238281 150.984375 275.175781 150.28125 274.289062 C 148.722656 272.320312 151.125 269.214844 151.824219 267.214844 C 152.769531 264.523438 151.128906 263.457031 149.121094 265.433594 C 148.382812 266.140625 147.839844 266.972656 147.496094 267.933594 C 147.148438 268.957031 147.117188 270.445312 145.847656 270.78125 C 143.925781 271.289062 142.386719 268.5625 142.925781 266.972656 C 143.75 264.550781 145.414062 262.289062 146.386719 259.882812 C 146.71875 259.058594 148.996094 251.320312 146.660156 252.449219 C 144.902344 253.296875 144.527344 257.066406 143.898438 258.605469 C 143.378906 259.859375 142.796875 261.082031 142.152344 262.273438 C 141.59375 263.320312 140.757812 265.582031 139.84375 266.285156 C 138.714844 267.160156 135.902344 266.503906 136.132812 264.742188 C 136.289062 263.5625 137.1875 262.183594 137.617188 261.066406 C 138.164062 259.632812 138.683594 258.199219 139.101562 256.722656 C 139.820312 254.175781 140.273438 251.445312 141.535156 249.09375 C 142.109375 248.011719 144.171875 244.003906 141.242188 244.242188 C 139.9375 244.347656 139.96875 245.726562 139.625 246.660156 C 139.246094 247.675781 138.597656 248.605469 138.125 249.585938 C 136.84375 252.246094 135.851562 255.042969 134.828125 257.8125 C 134.023438 259.984375 133.296875 262.261719 132.132812 264.28125 C 131.351562 265.636719 128.328125 267.636719 129.945312 269.316406 C 131.59375 271.039062 133.425781 269.042969 135.160156 268.867188 C 137.371094 268.644531 140.082031 271.632812 141.792969 272.824219 C 143.667969 274.132812 145.234375 275.527344 147.289062 276.585938 C 149.578125 277.769531 150.957031 279.410156 152.792969 281.109375 C 154.183594 282.394531 156.078125 283.140625 157.105469 284.808594 C 158.195312 286.582031 159.734375 287.210938 161.679688 288 C 162.667969 288.402344 163.640625 288.972656 164.695312 289.191406 C 165.796875 289.417969 166.882812 289.113281 167.949219 289.480469 C 170.527344 290.359375 172.789062 289.925781 175.492188 289.519531 C 176.972656 289.28125 178.460938 289.175781 179.960938 289.199219 C 181.078125 289.226562 181.46875 288.65625 182.539062 288.492188 C 185.144531 288.101562 185.304688 290.472656 186.015625 292.300781 C 187.382812 295.816406 190.21875 297.710938 193.667969 298.9375 C 194.414062 299.207031 195.863281 299.351562 196.1875 300.175781 C 196.546875 301.085938 195.34375 302.363281 194.894531 303.105469 C 193.359375 305.585938 192.324219 308.261719 191.785156 311.125 C 191.324219 313.589844 192.128906 315.542969 192.554688 317.925781 C 192.941406 320.066406 193.34375 322.75 195.25 324.179688 C 196.980469 325.472656 199.484375 326.109375 201.148438 324.644531 C 202.972656 323.082031 204.414062 321.21875 205.46875 319.058594 C 206.550781 316.828125 207.308594 314.441406 207.4375 311.953125 C 207.492188 310.839844 207.324219 309.769531 207.3125 308.664062 C 207.304688 307.53125 208.03125 306.429688 207.886719 305.398438 C 207.761719 304.519531 206.785156 303.417969 205.855469 303.445312 C 204.867188 303.46875 204.738281 304.175781 204.449219 304.929688 C 203.523438 307.367188 203.847656 309.5625 203.5625 312.132812 C 203.34375 314.265625 202.65625 316.238281 201.5 318.050781 C 200.476562 319.632812 197.875 322.8125 197.03125 319.453125 C 196.484375 317.285156 195.441406 315.257812 195.398438 312.984375 C 195.34375 310.257812 196.148438 307.320312 197.394531 304.90625 C 198.332031 303.09375 199.996094 300.554688 201.714844 299.445312 C 202.582031 298.882812 203.84375 299.089844 204.582031 298.375 C 205.382812 297.597656 205.117188 296.679688 204.519531 295.902344 C 202.773438 293.632812 201.152344 294.8125 198.863281 295.128906 C 196.625 295.441406 194.007812 295.519531 192.074219 294.21875 C 190.453125 293.125 188.195312 290.730469 187.789062 288.726562 C 187.351562 286.539062 190.996094 286.203125 192.546875 285.574219 C 194.6875 284.699219 197.144531 284.730469 199.421875 284.371094 C 202.296875 283.917969 205.015625 284.207031 207.90625 284.136719 C 209.34375 284.101562 210.785156 284.011719 212.222656 284.148438 C 213.03125 284.226562 214.59375 284.796875 215.414062 284.425781 C 218.160156 283.1875 214.347656 280.375 214.785156 278.964844 C 215.390625 277.019531 219.183594 280.132812 220.195312 280.699219 C 222.9375 282.234375 225.714844 283.679688 228.578125 284.972656 C 229.601562 285.4375 230.664062 286 231.773438 286.253906 C 233.117188 286.5625 234.027344 286.128906 235.320312 285.882812 C 236.613281 285.636719 237.71875 285.714844 238.878906 285.027344 C 239.921875 284.402344 240.777344 283.476562 241.734375 282.734375 C 243.515625 281.347656 244.777344 279.726562 246.3125 278.082031 C 247.90625 276.371094 248.824219 274.542969 250.046875 272.601562 C 252.582031 268.589844 255.390625 264.207031 256.574219 259.558594 C 257.234375 256.996094 256.851562 254.402344 257.566406 251.890625 C 258.074219 250.121094 258.238281 247.933594 257.027344 246.425781 C 254.667969 243.488281 251.878906 241.863281 248.808594 239.699219 C 244.113281 236.402344 239.222656 233.554688 234.25 230.695312 C 232.074219 229.445312 229.980469 227.78125 227.675781 226.800781 C 226.117188 226.140625 221.945312 225.203125 221.398438 223.339844 C 221.121094 222.398438 221.957031 221.140625 222.269531 220.265625 C 222.78125 218.824219 223.246094 217.367188 223.699219 215.90625 C 224.523438 213.242188 225.550781 210.582031 226.042969 207.828125 C 226.527344 205.132812 226.519531 202.386719 226.585938 199.65625 C 226.613281 198.699219 226.445312 197.4375 227.300781 196.757812 C 227.628906 196.5 228.234375 196.511719 228.617188 196.347656 C 229.214844 196.09375 229.457031 195.828125 230.132812 195.789062 C 231.484375 195.710938 232.59375 195.890625 233.925781 195.441406 C 235 195.078125 235.996094 194.511719 237 193.988281 C 239.660156 192.609375 242.375 191.328125 244.988281 189.867188 C 249.71875 187.214844 253.921875 183.671875 257.808594 179.90625 C 261.457031 176.371094 265.183594 172.902344 267.722656 168.46875 C 268.164062 167.699219 268.3125 167.09375 269.128906 167.171875 C 269.339844 167.191406 270.011719 168.003906 270.320312 168.113281 C 270.921875 168.324219 271.445312 168.199219 272.046875 168.0625 C 272.816406 167.886719 273.792969 167.296875 274.578125 167.75 C 275.402344 168.230469 275.523438 169.472656 275.554688 170.320312 C 275.640625 172.859375 274.320312 173.683594 272.285156 174.902344 C 271.332031 175.46875 270.636719 175.890625 269.480469 175.8125 C 268.242188 175.734375 266.832031 174.824219 265.582031 175.121094 C 262.527344 175.851562 266.367188 178.417969 267.546875 178.664062 C 269.5 179.074219 272.511719 179.0625 274.304688 178.144531 C 278.375 176.0625 280.519531 171.582031 278.90625 167.140625 C 278.761719 166.726562 278.566406 166.339844 278.3125 165.980469 C 278.058594 165.625 277.761719 165.308594 277.417969 165.03125 C 277.078125 164.757812 276.703125 164.539062 276.296875 164.371094 C 275.894531 164.203125 275.472656 164.09375 275.035156 164.042969 C 274.5 163.984375 273.566406 163.816406 273.066406 163.878906 C 272.445312 163.949219 272.167969 164.460938 271.683594 164.539062 C 270.757812 164.691406 270.761719 163.628906 270.847656 162.890625 C 271.09375 160.714844 272.652344 158.65625 273.652344 156.78125 C 274.957031 154.320312 275.617188 151.789062 276.628906 149.234375 C 277.617188 146.75 278.621094 144.511719 279.003906 141.8125 C 279.335938 139.453125 279.335938 137.109375 279.21875 134.742188 C 279.136719 132.867188 280.941406 131.070312 279.550781 129.148438 C 278.121094 127.1875 276.359375 129.222656 276.460938 131.019531 Z M 215.367188 49.503906 C 216.4375 49.09375 217.480469 48.464844 218.625 48.289062 C 219.722656 48.125 220.769531 48.40625 221.867188 48.125 C 224.453125 47.476562 226.671875 46.882812 229.382812 46.765625 C 230.488281 46.714844 231.617188 46.753906 232.714844 46.617188 C 233.84375 46.480469 234.855469 45.910156 235.984375 45.816406 C 238.53125 45.617188 241.113281 47.230469 243.652344 47.492188 C 244.621094 47.589844 245.609375 47.394531 246.539062 47.761719 C 247.410156 48.105469 247.8125 48.53125 248.800781 48.429688 C 249.699219 48.34375 250.257812 47.71875 251.074219 47.527344 C 252.394531 47.210938 253.980469 47.453125 255.363281 47.21875 C 256.613281 47.007812 257.84375 46.679688 259.078125 46.375 C 259.96875 46.15625 261.296875 45.476562 261.089844 46.695312 C 260.957031 47.492188 259.007812 48.511719 258.332031 48.921875 C 257.160156 49.660156 255.839844 50.160156 254.683594 50.902344 C 254.066406 51.296875 253.011719 52 253.460938 52.914062 C 253.886719 53.769531 255.277344 53.464844 256.023438 53.269531 C 258.425781 52.648438 260.214844 50.582031 262.105469 49.105469 C 262.773438 48.582031 263.644531 47.671875 264.382812 47.265625 C 265.0625 46.890625 265.074219 46.585938 264.917969 47.414062 C 264.941406 47.304688 264.226562 48.429688 264.222656 48.433594 C 263.8125 49.148438 263.460938 49.898438 263.042969 50.609375 C 261.289062 53.578125 259.292969 56.53125 256.972656 59.074219 C 254.28125 62.019531 250.082031 63.082031 246.242188 63.058594 C 243.902344 63.046875 242 62.246094 239.8125 61.433594 C 238.53125 60.960938 237.40625 60.117188 236.097656 59.703125 C 234.789062 59.292969 233.339844 59.304688 232 59.011719 C 228.910156 58.332031 226.316406 58.785156 223.261719 59.4375 C 221.921875 59.722656 220.507812 60.117188 219.128906 59.980469 C 218.710938 59.9375 215.976562 59.4375 215.851562 59.222656 C 215.191406 58.085938 222.894531 57.609375 220.933594 55.492188 C 219.207031 53.640625 215.152344 56.421875 213.589844 57.257812 C 212.644531 57.761719 212.691406 57.984375 213.175781 56.972656 C 213.691406 55.890625 214.257812 55.285156 215.371094 54.726562 C 218.140625 53.371094 221.066406 52.695312 224.152344 52.691406 C 225.785156 52.691406 227.417969 52.679688 229.046875 52.679688 C 229.929688 52.679688 232.429688 53.125 233.003906 52.148438 C 234.273438 50.003906 226.699219 50.347656 225.886719 50.34375 C 219.632812 50.300781 213.539062 51.488281 208.621094 55.597656 C 207.625 56.4375 206.660156 57.917969 205.183594 57.503906 C 202.992188 56.882812 204.554688 55.992188 205.609375 55.226562 C 208.652344 53.007812 211.824219 50.867188 215.367188 49.503906 Z M 48.945312 179.429688 C 47.851562 178.542969 46.871094 178.195312 46.035156 176.988281 C 45.234375 175.835938 44.550781 174.585938 43.859375 173.363281 C 42.921875 171.683594 39.648438 167.65625 41.707031 165.953125 C 43.121094 164.78125 46.101562 164.59375 47.902344 164.113281 C 49.304688 163.71875 50.726562 163.445312 52.175781 163.289062 C 54.445312 163.074219 57.203125 162.792969 59.441406 163.183594 C 62.738281 163.75 61.136719 167.542969 60.089844 169.480469 C 58.679688 172.089844 57.144531 174.40625 55.046875 176.53125 C 54.210938 177.382812 53.246094 178.058594 52.160156 178.554688 C 51.273438 178.96875 49.90625 180.210938 48.945312 179.429688 Z M 98.738281 174.953125 C 97.667969 175.835938 96.496094 176.554688 95.222656 177.109375 C 94.039062 177.621094 92.636719 177.738281 91.527344 178.382812 C 90.890625 178.757812 89.988281 179.566406 90.175781 180.417969 C 90.425781 181.539062 91.90625 181.488281 92.699219 182.078125 C 94.054688 183.089844 94.476562 186.367188 93.597656 187.726562 C 92.425781 189.539062 89.792969 191.933594 87.644531 192.195312 C 85.285156 192.476562 84.265625 192.820312 85.785156 195.082031 C 87.15625 197.121094 86.550781 199.792969 84.996094 201.488281 C 83.726562 202.875 81.800781 204.6875 79.773438 204.664062 C 77.84375 204.640625 75.226562 203.015625 73.675781 201.890625 C 72.789062 201.246094 72.125 200.445312 71.367188 199.660156 C 70.480469 198.734375 69.335938 198.25 68.292969 197.492188 C 66.132812 195.925781 64.304688 193.953125 62.140625 192.382812 C 60.066406 190.871094 58.457031 188.964844 56.640625 187.144531 C 55.863281 186.367188 54.6875 185.546875 54.105469 184.609375 C 53.132812 183.039062 54.851562 182.300781 55.90625 181.355469 C 59.640625 177.976562 63.789062 173.183594 64.84375 168.140625 C 65.183594 166.519531 64.398438 163.289062 66.292969 162.453125 C 67.46875 161.929688 68.273438 162.804688 69.347656 163.078125 C 70.546875 163.382812 71.898438 163.160156 73.140625 163.207031 C 76.601562 163.339844 80.035156 163.753906 83.488281 163.945312 C 86.621094 164.117188 89.589844 164.144531 92.695312 164.601562 C 95.589844 165.023438 98.527344 164.082031 100.191406 167.195312 C 100.914062 168.546875 100.542969 169.71875 100.21875 171.140625 C 99.925781 172.378906 99.808594 174.070312 98.742188 174.953125 Z M 154.464844 188.097656 C 155.289062 186.570312 156.59375 185.320312 157.871094 184.167969 C 159.40625 182.773438 160.273438 183.203125 161.9375 184.21875 C 163.367188 185.09375 165.359375 185.785156 165.707031 187.613281 C 166.007812 189.207031 165.871094 190.796875 166.3125 192.410156 C 166.539062 193.234375 168 196.019531 167.023438 196.378906 C 166.578125 196.542969 164.914062 195.410156 164.476562 195.214844 C 163.574219 194.808594 162.664062 194.4375 161.746094 194.0625 C 159.988281 193.328125 152.882812 191.035156 154.464844 188.097656 Z M 178.8125 198.863281 C 177.328125 198.777344 175.601562 197.691406 174.195312 197.171875 C 172.449219 196.523438 171.316406 195.203125 170.402344 193.605469 C 170.011719 192.925781 167.960938 189.269531 168.886719 188.78125 C 169.472656 188.476562 170.734375 189.5625 171.21875 189.8125 C 172.042969 190.230469 172.890625 190.398438 173.734375 190.746094 C 176.785156 192.007812 179.386719 194.726562 182.605469 195.515625 C 183.507812 195.738281 186.5 196.289062 185.28125 197.734375 C 184.765625 198.351562 183.203125 198.378906 182.449219 198.542969 C 181.25 198.824219 180.039062 198.929688 178.8125 198.863281 Z M 221.042969 204.726562 C 222.871094 204.867188 222.296875 207.304688 220.859375 207.453125 C 220.332031 207.503906 219.84375 207.023438 219.246094 207.414062 C 219.09375 207.519531 218.972656 207.648438 218.875 207.804688 C 218.777344 207.957031 218.710938 208.125 218.679688 208.304688 C 218.648438 208.484375 218.65625 208.664062 218.695312 208.84375 C 218.734375 209.023438 218.808594 209.183594 218.914062 209.335938 C 219.59375 210.222656 222.046875 210.203125 221.058594 212.058594 C 220.699219 212.742188 219.832031 212.738281 219.28125 213.191406 C 218.148438 214.132812 219.078125 214.304688 218.75 215.300781 C 218.441406 216.230469 216.511719 216.117188 217.070312 217.675781 C 217.472656 218.792969 218.03125 218.121094 218.554688 218.394531 C 219.132812 218.695312 219.175781 217.722656 218.734375 218.941406 C 218.230469 220.351562 217.464844 222.125 216.527344 223.3125 C 215.078125 225.15625 214.066406 226.1875 211.65625 226.164062 C 207.9375 226.125 204.558594 223.890625 202.027344 221.269531 C 200.886719 220.085938 199.226562 218.277344 198.910156 216.617188 C 198.546875 214.714844 200.558594 212.636719 201.34375 211.039062 C 202.277344 209.132812 203.058594 207.160156 203.902344 205.214844 C 204.636719 203.507812 205.015625 201.953125 206.089844 200.472656 C 208.214844 197.550781 210.128906 194 213.703125 192.632812 C 217.132812 191.3125 222.804688 193.042969 222.988281 197.316406 C 223.035156 198.402344 222.824219 199.324219 223.101562 200.410156 C 223.308594 201.234375 223.679688 201.84375 222.769531 202.332031 C 222.011719 202.738281 220.910156 202.113281 220.253906 202.957031 C 219.980469 203.304688 219.933594 203.679688 220.113281 204.082031 C 220.292969 204.484375 220.601562 204.699219 221.042969 204.726562 Z M 221.042969 204.726562 " fill-opacity="1" fill-rule="nonzero"/></g><path fill="#004aad" d="M 180.4375 203.296875 C 180.820312 203.277344 179.851562 202.933594 180.058594 203.148438 C 180.164062 203.246094 180.292969 203.296875 180.4375 203.296875 Z M 180.4375 203.296875 " fill-opacity="1" fill-rule="nonzero"/><path fill="#004aad" d="M 346.429688 122.449219 C 344.378906 122.53125 342.839844 123.828125 340.824219 123.894531 C 339 123.957031 336.703125 124.171875 334.949219 123.519531 C 333.300781 122.902344 331.835938 121.414062 330.421875 120.386719 C 328.757812 119.167969 328.664062 117.96875 328.296875 116.097656 C 328.035156 114.742188 326.734375 113.507812 326.28125 112 C 325.710938 110.089844 325.046875 108.21875 324.285156 106.378906 C 322.675781 102.523438 320.523438 98.988281 317.351562 96.21875 C 310.59375 90.316406 301.898438 91.832031 294.003906 94.292969 C 292.539062 94.75 290.984375 96.433594 289.839844 97.4375 C 288.242188 98.835938 286.664062 100.683594 284.773438 101.699219 C 283.070312 102.617188 281.335938 102.007812 279.535156 101.78125 C 277.371094 101.515625 275.191406 101.355469 273.132812 102.175781 C 270.074219 103.394531 266.066406 105.179688 264.460938 108.242188 C 262.855469 111.300781 263.683594 116.867188 265.253906 119.871094 C 266.78125 122.792969 270.421875 126.492188 273.824219 126.863281 C 277.515625 127.261719 281.003906 126.496094 283.855469 124.058594 C 284.84375 123.210938 285.621094 122.203125 286.195312 121.039062 C 286.921875 119.566406 286.878906 117.773438 287.585938 116.359375 C 288.457031 114.617188 290.746094 115 292.367188 115 C 294.523438 115 296.304688 115.109375 298.261719 116.101562 C 299.871094 116.917969 301.230469 118.101562 302.667969 119.167969 C 304.175781 120.289062 304.515625 120.984375 305.304688 122.59375 C 306.09375 124.199219 307.878906 125.535156 308.835938 127.164062 C 309.824219 128.855469 310.375 130.765625 311.507812 132.371094 C 312.636719 133.976562 314.179688 135.503906 315.652344 136.824219 C 317.203125 138.207031 319.6875 138.28125 321.699219 138.648438 C 326.167969 139.460938 331.835938 138.210938 335.972656 136.484375 C 337.992188 135.640625 339.910156 134.515625 341.507812 133.011719 C 342.132812 132.421875 343.179688 131.546875 343.363281 130.671875 C 343.527344 129.921875 343.007812 129.496094 343.167969 128.800781 C 343.347656 128.019531 343.992188 127.910156 344.601562 127.566406 C 345.304688 127.175781 345.929688 126.6875 346.480469 126.101562 C 347.65625 124.90625 349.65625 122.320312 346.429688 122.449219 Z M 279.492188 122.367188 C 274.574219 125.265625 269.644531 121.210938 268.058594 116.632812 C 267.296875 114.421875 266.824219 111.402344 268.289062 109.386719 C 269.605469 107.566406 271.902344 105.679688 274.058594 104.992188 C 278.992188 103.417969 283.441406 107.792969 284.363281 112.421875 C 285.15625 116.433594 282.808594 120.414062 279.496094 122.367188 Z M 328.21875 135.0625 C 326.121094 134.691406 323.847656 135.007812 321.726562 135.007812 C 319.671875 135.007812 318.71875 134.488281 317.011719 133.453125 C 315.460938 132.515625 314.902344 131.285156 314.132812 129.648438 C 313.378906 128.039062 312.292969 126.644531 311.464844 125.078125 C 310.660156 123.554688 309.671875 122.261719 308.609375 120.910156 C 307.507812 119.515625 306.628906 117.953125 305.339844 116.722656 C 304.050781 115.488281 302.511719 114.570312 300.910156 113.824219 C 300.132812 113.457031 296.691406 112.582031 296.523438 111.574219 C 296.523438 111.574219 300.378906 110.90625 300.8125 110.929688 C 302.203125 111.003906 304.832031 112.390625 306.164062 111.695312 C 307.886719 110.808594 305.257812 109.34375 304.417969 109.035156 C 302.769531 108.425781 300.964844 108.246094 299.210938 108.261719 C 297.644531 108.28125 296.273438 108.960938 294.730469 109.070312 C 293.0625 109.1875 291.839844 109.070312 290.320312 109.917969 C 289.773438 110.226562 287.300781 111.976562 287.703125 110.414062 C 288.03125 109.136719 291.300781 107.8125 292.347656 107.199219 C 295.523438 105.324219 298.757812 103.414062 302.527344 103.164062 C 304.046875 103.054688 305.535156 103.214844 306.996094 103.644531 C 308.75 104.179688 309.679688 105.210938 311.058594 106.304688 C 311.902344 106.980469 313.199219 107.480469 313.355469 105.964844 C 313.507812 104.480469 311.890625 103.304688 310.824219 102.628906 C 309.476562 101.769531 308.070312 101.066406 306.472656 100.878906 C 305.875 100.808594 305.382812 100.921875 304.796875 100.683594 C 304.214844 100.449219 303.972656 100.011719 303.285156 99.980469 C 302.625 99.949219 302.394531 100.308594 301.835938 100.496094 C 301.042969 100.765625 300.339844 100.800781 299.511719 100.875 C 298.0625 101.003906 296.605469 101.382812 295.207031 101.792969 C 293.53125 102.289062 292.179688 103.308594 290.683594 104.175781 C 289.746094 104.71875 287.417969 106.492188 286.296875 106.28125 C 284.429688 105.933594 286.078125 104.074219 286.882812 103.480469 C 288.410156 102.339844 290.082031 101.464844 291.476562 100.144531 C 293.972656 97.78125 296.445312 96.710938 299.773438 95.910156 C 302.855469 95.167969 306.863281 94.167969 309.917969 95.4375 C 311.132812 95.945312 312.621094 96.359375 313.6875 97.121094 C 315.066406 98.101562 316.398438 99.457031 317.546875 100.695312 C 319.660156 102.984375 320.78125 106.136719 322.042969 108.957031 C 322.683594 110.378906 322.890625 111.667969 323.144531 113.179688 C 323.429688 114.914062 324.695312 116.113281 325.207031 117.796875 C 326.238281 121.195312 328.566406 123.261719 331.304688 125.394531 C 332.703125 126.480469 334.34375 127.253906 336.148438 127.066406 C 336.660156 127.011719 337.390625 126.570312 337.742188 127.199219 C 338.109375 127.859375 336.980469 128.375 336.507812 128.566406 C 334.628906 129.332031 332.386719 129.128906 330.40625 129.273438 C 329.425781 129.347656 325.964844 129.679688 327.25 131.351562 C 328.265625 132.671875 331.480469 132.117188 332.855469 131.964844 C 333.484375 131.898438 338.34375 130.648438 338.554688 131.023438 C 338.996094 131.816406 334.609375 133.738281 334.039062 133.914062 C 332.378906 134.4375 329.980469 135.378906 328.226562 135.066406 Z M 328.21875 135.0625 " fill-opacity="1" fill-rule="nonzero"/><path fill="#004aad" d="M 150.53125 156.414062 C 151.277344 158.152344 152.710938 159.363281 154.023438 160.664062 C 155.703125 162.324219 157.367188 164 159.035156 165.667969 C 160.257812 166.886719 161.429688 168.34375 162.949219 169.183594 C 164.859375 170.234375 166.953125 171.058594 168.917969 172.007812 C 172.617188 173.792969 176.027344 175.285156 180.222656 175.097656 C 183.832031 174.933594 187.296875 175.628906 190.832031 174.371094 C 192.414062 173.804688 193.882812 172.859375 195.480469 172.246094 C 197.042969 171.644531 198.589844 170.859375 200.117188 170.171875 C 201.640625 169.484375 202.839844 168.277344 204.160156 167.265625 C 205.71875 166.070312 207.128906 164.894531 208.28125 163.292969 C 210.410156 160.378906 211.605469 157.011719 213.046875 153.746094 C 213.925781 151.753906 215.070312 152.699219 216.839844 152.65625 C 218.261719 152.621094 219.621094 151.433594 219.1875 149.875 C 218.835938 148.605469 217.605469 148.617188 216.550781 148.394531 C 215.144531 148.101562 213.128906 146.152344 211.710938 146.800781 C 210.328125 147.433594 210.378906 149.699219 210.109375 150.9375 C 209.683594 152.871094 208.800781 154.675781 207.851562 156.402344 C 207.027344 157.886719 206.203125 159.390625 205.308594 160.835938 C 204.210938 162.621094 202.671875 163.640625 200.976562 164.8125 C 197.761719 167.027344 194.421875 168.578125 190.871094 170.152344 C 187.410156 171.683594 183.636719 171.5625 179.902344 171.28125 C 175.800781 170.96875 172.417969 169.550781 168.710938 167.910156 C 165.816406 166.628906 162.824219 165.3125 160.75 162.820312 C 159.574219 161.40625 158.949219 160.308594 157.378906 159.261719 C 155.886719 158.308594 154.625 157.113281 153.597656 155.675781 C 152.441406 154.027344 151.636719 152.082031 151.027344 150.175781 C 150.480469 148.476562 149.25 146.21875 149.460938 144.417969 C 149.578125 143.410156 150.082031 142.582031 150.109375 141.527344 C 150.132812 140.46875 150.019531 139.601562 150.351562 138.558594 C 150.777344 137.21875 151.644531 134.601562 150.410156 133.335938 C 148.78125 131.679688 148.144531 136 148.058594 136.890625 C 147.957031 137.972656 148.101562 139.0625 147.992188 140.136719 C 147.878906 141.210938 147.441406 142.222656 147.257812 143.28125 C 146.421875 148.0625 148.71875 152.171875 150.53125 156.414062 Z M 150.53125 156.414062 " fill-opacity="1" fill-rule="nonzero"/><path fill="#004aad" d="M 151.773438 285.289062 C 150.785156 286.5625 150.023438 287.988281 149.121094 289.324219 C 148.140625 290.769531 146.917969 291.941406 145.742188 293.21875 C 143.574219 295.570312 141.964844 298.210938 140.164062 300.832031 C 139.46875 301.839844 138.273438 304.210938 137.175781 304.738281 C 135.953125 305.324219 135.535156 302.707031 135.042969 301.839844 C 133.621094 299.347656 131.335938 297.414062 129.320312 295.410156 C 127.191406 293.300781 124.761719 291.542969 121.769531 290.941406 C 119.089844 290.402344 114.703125 290.066406 112.792969 292.34375 C 110.992188 294.484375 108.976562 298.171875 109.507812 301.066406 C 110.0625 304.082031 112.851562 306.835938 115.21875 308.597656 C 116.3125 309.414062 117.402344 309.785156 118.738281 309.9375 C 120.175781 310.101562 121.523438 310.742188 122.964844 310.816406 C 124.648438 310.902344 126.378906 310.75 128.074219 310.785156 C 129.285156 310.808594 131.394531 311.488281 132.207031 310.289062 C 134.425781 307.003906 127.386719 307.304688 126.167969 307.128906 C 124.488281 306.890625 122.953125 306.5 121.242188 306.40625 C 119.613281 306.320312 118.351562 306.058594 117.066406 305.007812 C 114.90625 303.238281 113.351562 300.933594 114.324219 298.09375 C 115.441406 294.832031 117.707031 294.074219 120.894531 294.707031 C 123.957031 295.316406 125.464844 297.214844 127.847656 298.925781 C 130.628906 300.917969 132.195312 302.820312 133.679688 305.910156 C 134.402344 307.410156 135.191406 308.945312 136.824219 309.605469 C 138.621094 310.332031 139.503906 308.53125 140.519531 307.207031 C 142.773438 304.285156 144.71875 301.171875 146.363281 297.867188 C 147.074219 296.402344 148.269531 295.5 149.277344 294.230469 C 150.328125 292.902344 151.175781 291.425781 152.042969 289.984375 C 152.726562 288.828125 154.398438 287.0625 154.699219 285.796875 C 155.234375 283.5 152.707031 284.085938 151.773438 285.289062 Z M 151.773438 285.289062 " fill-opacity="1" fill-rule="nonzero"/><path fill="#004aad" d="M 216.257812 68.242188 C 217.09375 68.242188 220.152344 68.523438 219.589844 66.859375 C 219.160156 65.589844 216.226562 66.035156 215.277344 66.035156 C 211.566406 66.035156 208.175781 66.53125 204.761719 68.125 C 202.3125 69.257812 199.652344 71.144531 197.519531 72.832031 C 195.628906 74.335938 194.164062 76.191406 192.925781 78.253906 C 192.226562 79.425781 188.21875 86.117188 192.265625 85.527344 C 193.683594 85.316406 194.492188 83.03125 195.035156 81.910156 C 195.785156 80.363281 196.332031 79.011719 197.527344 77.738281 C 202.445312 72.5 208.796875 68.285156 216.257812 68.242188 Z M 216.257812 68.242188 " fill-opacity="1" fill-rule="nonzero"/><path fill="#004aad" d="M 240.734375 98.503906 C 242.964844 94.628906 245.503906 90.425781 249.847656 88.707031 C 250.863281 88.304688 255.144531 87.6875 254.828125 86.171875 C 254.371094 83.980469 248.421875 86.027344 247.257812 86.570312 C 241.816406 89.089844 237.105469 94.71875 236.128906 100.671875 C 235.902344 102.058594 235.351562 103.785156 235.964844 105.109375 C 236.492188 106.265625 237.507812 106.925781 238.636719 106.039062 C 240.875 104.28125 239.457031 100.734375 240.734375 98.503906 Z M 240.734375 98.503906 " fill-opacity="1" fill-rule="nonzero"/><path fill="#004aad" d="M 244.191406 77.871094 C 245.25 77.773438 246.808594 77.472656 246.269531 76.183594 C 245.746094 74.921875 244.472656 74.996094 243.484375 75.28125 C 241.9375 75.730469 240.550781 75.773438 239.105469 76.554688 C 237.824219 77.242188 236.578125 78.007812 235.363281 78.8125 C 232.953125 80.410156 231.21875 82.527344 229.074219 84.417969 C 227.050781 86.199219 225.539062 89.027344 225.117188 91.695312 C 224.871094 93.246094 224.828125 98.484375 227.769531 95.945312 C 228.914062 94.957031 228.8125 93.582031 228.875 92.25 C 228.941406 90.914062 229.371094 89.738281 230.109375 88.601562 C 231.796875 85.980469 234.359375 83.820312 236.59375 81.6875 C 238.703125 79.667969 241.234375 78.144531 244.191406 77.871094 Z M 244.191406 77.871094 " fill-opacity="1" fill-rule="nonzero"/><path fill="#004aad" d="M 192.261719 64.660156 C 186.644531 66.789062 181.769531 69.605469 178.65625 74.90625 C 177.878906 76.238281 174.734375 80.132812 177.296875 81.398438 C 179.582031 82.53125 181.175781 77.363281 182.097656 76 C 183.480469 73.953125 185.167969 72.203125 187.171875 70.753906 C 189.171875 69.308594 191.359375 68.246094 193.738281 67.574219 C 195.0625 67.214844 196.410156 66.949219 197.773438 66.777344 C 198.730469 66.644531 200.621094 66.667969 200.222656 65.382812 C 199.40625 62.765625 193.902344 64.039062 192.261719 64.660156 Z M 192.261719 64.660156 " fill-opacity="1" fill-rule="nonzero"/><path fill="#004aad" d="M 124.300781 231.710938 C 124.300781 232.992188 126.503906 233.628906 127.332031 234.109375 C 128.628906 234.863281 129.859375 235.71875 131.1875 236.429688 C 134.144531 238.003906 137.210938 239.410156 140.230469 240.859375 C 143.148438 242.257812 146.074219 243.628906 149.007812 244.980469 C 150.144531 245.503906 155.667969 248.730469 155.335938 245.328125 C 155.210938 244.0625 153.890625 243.613281 152.910156 243.203125 C 151.324219 242.542969 149.742188 241.886719 148.15625 241.226562 C 145.253906 240.007812 142.367188 238.75 139.5 237.453125 C 136.695312 236.175781 133.902344 234.878906 131.1875 233.425781 C 130.460938 233.042969 124.300781 228.90625 124.300781 231.710938 Z M 124.300781 231.710938 " fill-opacity="1" fill-rule="nonzero"/><path fill="#004aad" d="M 263.398438 96.390625 C 264.351562 96.410156 262.941406 94.609375 262.535156 94.445312 C 261.390625 93.988281 259.941406 94.421875 258.839844 94.777344 C 256.480469 95.546875 254.359375 96.742188 252.476562 98.359375 C 250.582031 99.996094 249.085938 101.941406 247.992188 104.195312 C 246.992188 106.242188 245.558594 109.105469 246.359375 111.402344 C 246.953125 113.105469 249.226562 114.476562 250.109375 112.277344 C 250.535156 111.207031 250.164062 109.953125 250.46875 108.839844 C 250.808594 107.6875 251.222656 106.566406 251.714844 105.472656 C 252.703125 103.164062 254.554688 101.234375 256.453125 99.621094 C 258.117188 98.207031 261.132812 96.351562 263.398438 96.390625 Z M 263.398438 96.390625 " fill-opacity="1" fill-rule="nonzero"/><path fill="#004aad" d="M 111.859375 232.464844 C 111.246094 233.59375 113.695312 234.761719 114.441406 234.960938 C 115.863281 235.304688 117.246094 235.195312 118.59375 234.632812 C 120.785156 233.71875 124.175781 231.617188 124.175781 228.921875 C 124.175781 227.605469 123.441406 226.707031 122.085938 227.308594 C 120.945312 227.816406 120.167969 229.371094 119.121094 230.140625 C 118.128906 230.875 116.753906 232.027344 115.445312 232.0625 C 115.007812 232.074219 114.292969 231.949219 113.972656 231.605469 C 113.386719 230.976562 113.582031 231.175781 114.035156 230.78125 C 114.367188 230.496094 115.558594 230.527344 116.015625 230.355469 C 116.535156 230.160156 117.027344 229.902344 117.484375 229.585938 C 118.597656 228.820312 119.472656 227.847656 119.6875 226.460938 C 119.8125 225.671875 119.828125 224.214844 118.78125 224.085938 C 117.628906 223.945312 116.261719 225.882812 115.414062 226.492188 C 114.214844 227.339844 112.894531 227.914062 111.457031 228.222656 C 110.527344 228.425781 108.875 228.222656 108.265625 229.140625 C 106.503906 231.804688 112.671875 230.972656 111.859375 232.464844 Z M 111.859375 232.464844 " fill-opacity="1" fill-rule="nonzero"/><path fill="#004aad" d="M 230.285156 72.375 C 230.285156 70.082031 224.171875 71.296875 223.03125 71.667969 C 220.335938 72.554688 217.820312 73.976562 215.472656 75.554688 C 213.09375 77.167969 211.585938 79.183594 210.265625 81.691406 C 209.441406 83.273438 207.058594 86.355469 208.109375 88.296875 C 209.59375 91.050781 211.820312 85.902344 212.308594 84.929688 C 213.410156 82.726562 214.84375 80.769531 216.613281 79.0625 C 218.464844 77.285156 220.605469 76.140625 222.941406 75.136719 C 224.300781 74.554688 225.660156 73.972656 227.109375 73.664062 C 227.890625 73.496094 230.285156 73.65625 230.285156 72.375 Z M 230.285156 72.375 " fill-opacity="1" fill-rule="nonzero"/><path fill="#004aad" d="M 170.144531 249.957031 C 169.03125 250.097656 168.066406 250.714844 166.929688 250.769531 C 165.613281 250.832031 164.265625 250.65625 162.941406 250.683594 C 161.832031 250.703125 160.757812 250.476562 160.109375 251.277344 C 159.597656 251.90625 159.566406 253.042969 159.921875 253.757812 C 161.15625 256.222656 163.386719 254.441406 165.257812 254.644531 C 167.074219 254.847656 166.394531 257.578125 168.371094 257.859375 C 169.144531 257.964844 170.113281 257.3125 170.917969 257.257812 C 172.445312 257.152344 173.210938 257.257812 174.480469 256.269531 C 175.371094 255.566406 178.511719 252.269531 175.574219 252.035156 C 174.585938 251.957031 171.132812 254.863281 170.417969 253.503906 C 170.085938 252.878906 171.679688 252.273438 171.777344 251.59375 C 171.898438 250.742188 171.011719 249.847656 170.144531 249.957031 Z M 170.144531 249.957031 " fill-opacity="1" fill-rule="nonzero"/><path fill="#004aad" d="M 189.496094 107.988281 C 186.105469 109.167969 184.09375 111.972656 182.796875 115.253906 C 182.261719 116.617188 181.742188 118.441406 182.484375 119.828125 C 183.226562 121.21875 184.679688 121.238281 185.5 119.902344 C 186.207031 118.746094 185.980469 117.253906 186.476562 116.003906 C 187.121094 114.449219 188.058594 113.09375 189.292969 111.945312 C 190.078125 111.203125 192.214844 110.398438 192.464844 109.347656 C 192.878906 107.605469 190.449219 107.65625 189.496094 107.988281 Z M 189.496094 107.988281 " fill-opacity="1" fill-rule="nonzero"/><path fill="#004aad" d="M 166.675781 78.925781 C 166.511719 80.058594 167.191406 82.03125 168.640625 81.453125 C 169.957031 80.925781 170.125 78.300781 170.675781 77.167969 C 171.441406 75.644531 172.441406 74.304688 173.6875 73.144531 C 175.007812 71.882812 176.445312 71.71875 177.917969 70.800781 C 179.210938 69.996094 179.261719 68.824219 177.667969 68.410156 C 176.042969 67.992188 174.183594 69.121094 172.910156 70.015625 C 169.910156 72.128906 167.210938 75.179688 166.675781 78.925781 Z M 166.675781 78.925781 " fill-opacity="1" fill-rule="nonzero"/><path fill="#004aad" d="M 160.71875 244.875 C 159.464844 244.875 159.097656 245.953125 159.277344 247.019531 C 159.53125 248.539062 160.566406 248.996094 161.972656 249.195312 C 164.589844 249.558594 167.316406 249.253906 169.679688 248.074219 C 170.421875 247.707031 171.9375 246.980469 171.792969 245.875 C 171.613281 244.484375 169.796875 244.859375 168.941406 245.074219 C 167.710938 245.382812 166.800781 245.75 165.523438 245.417969 C 163.796875 244.960938 162.527344 244.878906 160.71875 244.875 Z M 160.71875 244.875 " fill-opacity="1" fill-rule="nonzero"/><path fill="#004aad" d="M 117.316406 220.660156 C 116.246094 217.859375 111.859375 222.429688 110.644531 222.992188 C 109.160156 223.6875 107.65625 223.835938 106.027344 223.894531 C 104.847656 223.933594 102.957031 223.761719 103.914062 225.464844 C 106.230469 229.570312 118.964844 224.964844 117.316406 220.660156 Z M 117.316406 220.660156 " fill-opacity="1" fill-rule="nonzero"/><path fill="#004aad" d="M 190.050781 253.039062 C 188.707031 253.089844 187.222656 253.292969 186.296875 254.378906 C 185.273438 255.59375 185.691406 256.558594 187.339844 256.550781 C 187.707031 256.550781 189.390625 255.917969 189.480469 256.21875 C 189.558594 256.445312 188.730469 257.25 188.804688 257.710938 C 188.898438 258.285156 189.332031 258.5 189.816406 258.714844 C 191.226562 259.332031 192.398438 258.457031 193.722656 258.203125 C 194.695312 258.015625 196.007812 257.429688 195.421875 256.050781 C 194.878906 254.78125 193.382812 255.554688 192.492188 254.980469 C 191.378906 254.261719 191.847656 252.976562 190.050781 253.039062 Z M 190.050781 253.039062 " fill-opacity="1" fill-rule="nonzero"/><path fill="#004aad" d="M 193.675781 123.484375 C 194.597656 125.375 196.832031 123.945312 197.34375 122.628906 C 197.75 121.585938 197.625 120.425781 198.03125 119.382812 C 198.453125 118.285156 199.453125 117.75 199.980469 116.765625 C 200.585938 115.632812 199.925781 115.117188 198.777344 115.09375 C 197.628906 115.070312 196.554688 115.796875 195.808594 116.636719 C 194.441406 118.167969 192.679688 121.449219 193.675781 123.484375 Z M 193.675781 123.484375 " fill-opacity="1" fill-rule="nonzero"/><path fill="#004aad" d="M 247.816406 181.722656 C 248.679688 181.722656 249.449219 180.6875 250.035156 180.171875 C 250.917969 179.394531 251.878906 178.71875 252.769531 177.957031 C 253.414062 177.40625 256.859375 173.527344 254 173.800781 C 252.378906 173.957031 250.539062 176.867188 249.445312 177.898438 C 248.921875 178.394531 244.78125 181.722656 247.816406 181.722656 Z M 247.816406 181.722656 " fill-opacity="1" fill-rule="nonzero"/><path fill="#004aad" d="M 197.398438 257.9375 C 194.175781 259.257812 196.125 262.109375 199.046875 260.8125 C 202.027344 259.503906 200.066406 256.847656 197.398438 257.9375 Z M 197.398438 257.9375 " fill-opacity="1" fill-rule="nonzero"/><path fill="#004aad" d="M 203.15625 261.375 C 202.289062 261.707031 200.714844 262.402344 200.691406 263.585938 C 200.664062 264.871094 202.199219 264.886719 203.121094 264.671875 C 203.925781 264.488281 205.730469 263.996094 205.9375 263.0625 C 206.28125 261.492188 204.203125 260.972656 203.15625 261.375 Z M 203.15625 261.375 " fill-opacity="1" fill-rule="nonzero"/><path fill="#004aad" d="M 139.839844 228.925781 C 139.257812 227.785156 133.394531 230.542969 135.457031 232.039062 C 136.292969 232.644531 138.203125 231.886719 138.996094 231.511719 C 140.476562 230.816406 140.5625 230.324219 139.839844 228.925781 Z M 139.839844 228.925781 " fill-opacity="1" fill-rule="nonzero"/><path fill="#004aad" d="M 206.429688 265.351562 C 205.480469 265.984375 207.097656 267.402344 207.675781 267.535156 C 208.421875 267.699219 210.542969 267.148438 210.925781 266.488281 C 212.117188 264.453125 207.296875 264.78125 206.429688 265.351562 Z M 206.429688 265.351562 " fill-opacity="1" fill-rule="nonzero"/><path fill="#004aad" d="M 140.695312 234.339844 C 143.246094 234.339844 144.253906 230.546875 141.375 231 C 139.636719 231.269531 137.9375 234.339844 140.695312 234.339844 Z M 140.695312 234.339844 " fill-opacity="1" fill-rule="nonzero"/><path fill="#004aad" d="M 91.792969 205.632812 C 91.628906 203.984375 87.386719 205.335938 87.433594 207.152344 C 87.503906 209.761719 91.988281 207.570312 91.792969 205.632812 Z M 91.792969 205.632812 " fill-opacity="1" fill-rule="nonzero"/><path fill="#004aad" d="M 218.75 274.34375 C 221.4375 274.34375 221.058594 271.402344 218.417969 271.621094 C 215.445312 271.859375 216.054688 274.34375 218.75 274.34375 Z M 218.75 274.34375 " fill-opacity="1" fill-rule="nonzero"/><path fill="#004aad" d="M 92.914062 210.453125 C 94.265625 208.953125 93.128906 206.960938 91.292969 208.300781 C 89.179688 209.835938 91.28125 212.253906 92.914062 210.453125 Z M 92.914062 210.453125 " fill-opacity="1" fill-rule="nonzero"/><path fill="#004aad" d="M 212.992188 268.574219 C 210.886719 268.574219 210.402344 270.882812 212.839844 270.777344 C 214.863281 270.699219 215.550781 268.574219 212.992188 268.574219 Z M 212.992188 268.574219 " fill-opacity="1" fill-rule="nonzero"/><path fill="#004aad" d="M 237.550781 188.882812 C 239.097656 187.679688 238.347656 185.570312 236.53125 186.863281 C 236.210938 187.089844 235.234375 188.210938 235.277344 188.597656 C 235.386719 189.632812 237.042969 189.28125 237.550781 188.882812 Z M 237.550781 188.882812 " fill-opacity="1" fill-rule="nonzero"/><path fill="#004aad" d="M 145.066406 234.367188 C 143.300781 234.367188 143.296875 236.664062 145.066406 236.664062 C 146.835938 236.664062 146.835938 234.363281 145.066406 234.367188 Z M 145.066406 234.367188 " fill-opacity="1" fill-rule="nonzero"/><path fill="#004aad" d="M 224.757812 273.816406 C 223.46875 273.257812 222.09375 275.21875 223.769531 275.8125 C 225.121094 276.292969 226.058594 274.378906 224.757812 273.816406 Z M 224.757812 273.816406 " fill-opacity="1" fill-rule="nonzero"/><path fill="#004aad" d="M 149.414062 238.847656 C 150.644531 238.785156 150.503906 236.375 148.996094 236.628906 C 147.417969 236.886719 147.949219 238.925781 149.414062 238.847656 Z M 149.414062 238.847656 " fill-opacity="1" fill-rule="nonzero"/><path fill="#004aad" d="M 96.082031 211.96875 C 96.082031 213.054688 98.199219 212.792969 98.0625 211.507812 C 97.898438 210.085938 96.078125 210.777344 96.082031 211.96875 Z M 96.082031 211.96875 " fill-opacity="1" fill-rule="nonzero"/><path fill="#004aad" d="M 152.28125 238.652344 C 151.46875 239.613281 152.609375 240.960938 153.601562 239.941406 C 154.589844 238.917969 153.101562 237.683594 152.28125 238.652344 Z M 152.28125 238.652344 " fill-opacity="1" fill-rule="nonzero"/><path fill="#004aad" d="M 100.597656 214 C 101.421875 213.160156 100.242188 211.609375 99.34375 212.726562 C 98.613281 213.640625 99.78125 214.847656 100.597656 214 Z M 100.597656 214 " fill-opacity="1" fill-rule="nonzero"/><path fill="#004aad" d="M 70.917969 173.328125 C 72.183594 174.421875 74.363281 174.496094 75.914062 174.9375 C 77.507812 175.382812 79.058594 175.941406 80.566406 176.617188 C 81.980469 177.257812 84.101562 179.101562 85.726562 178.871094 C 87.148438 178.671875 87.410156 177.527344 86.585938 176.503906 C 85.597656 175.285156 83.453125 174.640625 82.039062 174.097656 C 80.390625 173.460938 78.683594 172.960938 76.984375 172.476562 C 75.398438 172.027344 73.59375 171.210938 71.953125 171.078125 C 70.492188 170.96875 69.601562 172.199219 70.917969 173.328125 Z M 70.917969 173.328125 " fill-opacity="1" fill-rule="nonzero"/><path fill="#004aad" d="M 65.820312 181.375 C 65.820312 183.101562 68.414062 183.8125 69.578125 184.578125 C 70.890625 185.457031 72.125 186.433594 73.277344 187.511719 C 74.035156 188.207031 78.988281 193.726562 79.738281 190.445312 C 80.207031 188.386719 75.121094 185.167969 73.691406 184.199219 C 72.726562 183.542969 65.820312 179.113281 65.820312 181.375 Z M 65.820312 181.375 " fill-opacity="1" fill-rule="nonzero"/></svg>