<svg xmlns="http://www.w3.org/2000/svg" xmlns:xlink="http://www.w3.org/1999/xlink" width="500" zoomAndPan="magnify" viewBox="0 0 375 374.999991" height="500" preserveAspectRatio="xMidYMid meet" version="1.0"><defs><filter x="0%" y="0%" width="100%" height="100%" id="e6e77e6be5"><feColorMatrix values="0 0 0 0 1 0 0 0 0 1 0 0 0 0 1 0 0 0 1 0" color-interpolation-filters="sRGB"/></filter><clipPath id="3660992da0"><path d="M 88.75 145 L 134 145 L 134 186 L 88.75 186 Z M 88.75 145 " clip-rule="nonzero"/></clipPath><clipPath id="4d570c558b"><path d="M 136 338 L 183 338 L 183 363.660156 L 136 363.660156 Z M 136 338 " clip-rule="nonzero"/></clipPath><mask id="8b77eb84df"><g filter="url(#e6e77e6be5)"><rect x="-37.5" width="450" fill="#000000" y="-37.499999" height="449.999989" fill-opacity="0.54"/></g></mask><clipPath id="a23b53567c"><path d="M 0.121094 0.078125 L 85 0.078125 L 85 141.921875 L 0.121094 141.921875 Z M 0.121094 0.078125 " clip-rule="nonzero"/></clipPath><clipPath id="eb45ed0981"><rect x="0" width="86" y="0" height="142"/></clipPath></defs><path fill="#f2cec2" d="M 260.503906 164.601562 C 264.53125 157.449219 267.898438 148.769531 273.960938 143.238281 C 278.1875 139.382812 281.832031 134.894531 284.734375 129.96875 C 285.148438 129.265625 285.539062 128.339844 285.042969 127.691406 C 284.527344 127.011719 283.433594 127.203125 282.714844 127.667969 C 281.980469 128.140625 281.394531 128.808594 280.816406 129.46875 C 279.8125 130.621094 278.53125 131.363281 277.527344 132.515625 C 278.945312 130.175781 280.363281 127.832031 281.78125 125.492188 C 282.226562 124.757812 282.6875 123.945312 282.582031 123.09375 C 282.476562 122.296875 281.824219 121.601562 281.035156 121.449219 C 280.246094 121.300781 279.183594 121.578125 278.796875 122.285156 C 279.007812 121.65625 278.769531 120.832031 278.273438 120.238281 C 277.777344 119.640625 276.882812 119.324219 276.191406 119.679688 C 275.753906 119.90625 275.476562 120.347656 275.21875 120.769531 C 273.597656 123.441406 271.667969 125.703125 270.042969 128.375 C 270.480469 127.660156 270.648438 126.570312 270.886719 125.769531 C 271.167969 124.8125 271.421875 123.84375 271.648438 122.871094 C 271.890625 121.832031 272.527344 120.558594 272.113281 119.453125 C 271.722656 118.414062 270.152344 117.800781 269.15625 118.347656 C 268.632812 118.636719 268.378906 119.242188 268.167969 119.800781 C 266.851562 123.261719 265.679688 126.410156 264.367188 129.867188 C 263.917969 128.574219 263.472656 127.28125 263.023438 125.988281 C 262.710938 125.082031 262.359375 124.125 261.609375 123.523438 C 260.859375 122.925781 259.574219 122.894531 259.070312 123.710938 C 258.746094 124.230469 258.839844 124.898438 258.9375 125.503906 C 259.539062 129.078125 260.203125 132.757812 260.800781 136.332031 C 256.988281 141.925781 252.546875 147.09375 247.589844 151.703125 C 248.839844 154.25 250.394531 156.902344 252.1875 159.097656 C 253.980469 161.292969 257.722656 164.039062 260.503906 164.601562 Z M 260.503906 164.601562 " fill-opacity="1" fill-rule="nonzero"/><path fill="#1a171b" d="M 260.675781 165.054688 C 260.59375 165.085938 260.5 165.097656 260.40625 165.078125 C 257.472656 164.480469 253.660156 161.667969 251.8125 159.40625 C 250.179688 157.402344 248.609375 154.882812 247.15625 151.914062 C 247.0625 151.722656 247.105469 151.492188 247.261719 151.347656 C 252.144531 146.808594 256.527344 141.71875 260.292969 136.21875 C 260.003906 134.492188 259.699219 132.746094 259.394531 130.996094 C 259.078125 129.183594 258.761719 127.367188 258.464844 125.582031 C 258.367188 125.015625 258.226562 124.15625 258.660156 123.453125 C 258.925781 123.019531 259.378906 122.730469 259.925781 122.632812 C 260.609375 122.515625 261.371094 122.710938 261.914062 123.144531 C 262.796875 123.847656 263.175781 124.945312 263.480469 125.828125 L 264.386719 128.445312 C 264.875 127.164062 265.34375 125.914062 265.816406 124.664062 C 266.4375 123.011719 267.058594 121.359375 267.71875 119.628906 C 267.917969 119.105469 268.21875 118.308594 268.925781 117.921875 C 269.519531 117.59375 270.273438 117.570312 271.007812 117.84375 C 271.75 118.117188 272.332031 118.65625 272.566406 119.28125 C 272.9375 120.273438 272.617188 121.308594 272.339844 122.21875 C 272.257812 122.484375 272.179688 122.738281 272.121094 122.980469 C 271.945312 123.746094 271.746094 124.519531 271.53125 125.277344 C 271.769531 124.945312 272.003906 124.617188 272.242188 124.289062 C 273.109375 123.085938 274.007812 121.839844 274.808594 120.519531 C 275.074219 120.085938 275.402344 119.546875 275.972656 119.25 C 276.824219 118.804688 277.964844 119.105469 278.648438 119.929688 C 278.972656 120.316406 279.191406 120.765625 279.292969 121.214844 C 279.863281 120.941406 280.558594 120.867188 281.128906 120.976562 C 282.121094 121.164062 282.933594 122.03125 283.0625 123.035156 C 283.1875 124.011719 282.726562 124.875 282.199219 125.742188 L 279.640625 129.960938 C 279.929688 129.707031 280.203125 129.445312 280.457031 129.152344 C 281.019531 128.507812 281.65625 127.777344 282.457031 127.261719 C 283.394531 126.65625 284.75 126.503906 285.429688 127.398438 C 286.207031 128.417969 285.414062 129.769531 285.152344 130.214844 C 282.214844 135.195312 278.558594 139.699219 274.289062 143.59375 C 269.808594 147.679688 266.800781 153.546875 263.894531 159.222656 C 262.933594 161.097656 261.941406 163.035156 260.925781 164.839844 C 260.867188 164.941406 260.78125 165.015625 260.675781 165.054688 Z M 248.183594 151.8125 C 249.5625 154.570312 251.035156 156.917969 252.5625 158.792969 C 254.238281 160.84375 257.65625 163.367188 260.261719 164.050781 C 261.199219 162.359375 262.09375 160.621094 263.035156 158.78125 C 265.980469 153.03125 269.03125 147.085938 273.636719 142.878906 C 277.835938 139.050781 281.429688 134.621094 284.320312 129.722656 C 284.800781 128.902344 284.914062 128.320312 284.660156 127.984375 C 284.347656 127.570312 283.542969 127.710938 282.980469 128.074219 C 282.296875 128.515625 281.730469 129.164062 281.1875 129.789062 C 280.65625 130.394531 280.058594 130.886719 279.484375 131.363281 C 278.910156 131.839844 278.371094 132.285156 277.894531 132.832031 C 277.730469 133.019531 277.445312 133.054688 277.242188 132.90625 C 277.039062 132.757812 276.984375 132.480469 277.113281 132.265625 L 281.367188 125.242188 C 281.820312 124.496094 282.1875 123.824219 282.101562 123.15625 C 282.027344 122.566406 281.53125 122.035156 280.945312 121.925781 C 280.332031 121.808594 279.496094 122.015625 279.222656 122.515625 C 279.101562 122.734375 278.832031 122.828125 278.601562 122.726562 C 278.371094 122.625 278.257812 122.363281 278.339844 122.128906 C 278.488281 121.683594 278.308594 121.035156 277.902344 120.546875 C 277.558594 120.128906 276.902344 119.855469 276.417969 120.109375 C 276.085938 120.28125 275.847656 120.675781 275.636719 121.023438 C 274.8125 122.375 273.90625 123.636719 273.027344 124.855469 C 272.15625 126.0625 271.261719 127.308594 270.457031 128.625 C 270.320312 128.855469 270.023438 128.929688 269.792969 128.789062 C 269.5625 128.648438 269.492188 128.351562 269.628906 128.125 C 269.90625 127.667969 270.070312 127.011719 270.226562 126.371094 C 270.289062 126.113281 270.351562 125.863281 270.421875 125.632812 C 270.699219 124.691406 270.953125 123.722656 271.175781 122.761719 C 271.238281 122.5 271.324219 122.222656 271.410156 121.9375 C 271.660156 121.136719 271.914062 120.308594 271.660156 119.625 C 271.523438 119.261719 271.144531 118.929688 270.671875 118.753906 C 270.203125 118.582031 269.726562 118.59375 269.390625 118.773438 C 269.027344 118.972656 268.816406 119.457031 268.621094 119.976562 C 267.960938 121.703125 267.339844 123.355469 266.71875 125.003906 C 266.097656 126.660156 265.476562 128.3125 264.816406 130.039062 C 264.746094 130.230469 264.5625 130.355469 264.359375 130.351562 C 264.15625 130.347656 263.976562 130.21875 263.90625 130.027344 L 262.566406 126.148438 C 262.226562 125.175781 261.921875 124.394531 261.308594 123.902344 C 260.980469 123.640625 260.5 123.519531 260.089844 123.589844 C 259.894531 123.621094 259.632812 123.714844 259.480469 123.964844 C 259.253906 124.328125 259.320312 124.863281 259.414062 125.425781 C 259.714844 127.210938 260.03125 129.023438 260.347656 130.835938 C 260.664062 132.648438 260.976562 134.464844 261.277344 136.253906 C 261.296875 136.375 261.269531 136.503906 261.199219 136.605469 C 257.4375 142.125 253.058594 147.238281 248.183594 151.8125 Z M 248.183594 151.8125 " fill-opacity="1" fill-rule="nonzero"/><path fill="#1a171b" d="M 273.277344 131.003906 C 273.125 131.0625 272.941406 131.039062 272.804688 130.929688 C 272.59375 130.765625 272.558594 130.460938 272.722656 130.25 C 274.765625 127.671875 276.707031 124.957031 278.492188 122.183594 C 278.640625 121.960938 278.9375 121.894531 279.164062 122.039062 C 279.386719 122.183594 279.453125 122.484375 279.308594 122.707031 C 277.503906 125.507812 275.542969 128.246094 273.484375 130.851562 C 273.425781 130.921875 273.355469 130.972656 273.277344 131.003906 Z M 273.277344 131.003906 " fill-opacity="1" fill-rule="nonzero"/><path fill="#1a171b" d="M 278.167969 134.53125 C 278.019531 134.589844 277.847656 134.570312 277.707031 134.46875 C 274.710938 132.253906 271.453125 130.378906 268.023438 128.902344 C 267.78125 128.796875 267.667969 128.511719 267.773438 128.269531 C 267.878906 128.023438 268.164062 127.910156 268.410156 128.015625 C 271.902344 129.519531 275.226562 131.429688 278.285156 133.691406 C 278.5 133.847656 278.546875 134.152344 278.386719 134.367188 C 278.328125 134.445312 278.253906 134.5 278.167969 134.53125 Z M 278.167969 134.53125 " fill-opacity="1" fill-rule="nonzero"/><path fill="#1a171b" d="M 266.460938 139.890625 C 266.324219 139.945312 266.164062 139.933594 266.03125 139.851562 C 265.804688 139.710938 265.734375 139.414062 265.875 139.183594 C 266.179688 138.691406 266.332031 138.0625 266.355469 137.195312 C 266.394531 135.738281 266.082031 134.269531 265.449219 132.953125 C 265.335938 132.710938 265.4375 132.421875 265.675781 132.308594 C 265.898438 132.199219 266.207031 132.292969 266.324219 132.535156 C 267.023438 133.988281 267.367188 135.609375 267.324219 137.222656 C 267.296875 138.269531 267.097656 139.054688 266.699219 139.695312 C 266.640625 139.789062 266.554688 139.855469 266.460938 139.890625 Z M 266.460938 139.890625 " fill-opacity="1" fill-rule="nonzero"/><path fill="#f2cec2" d="M 131.886719 176.921875 C 132.703125 174.207031 133.125 171.164062 133.304688 168.332031 C 126.960938 165.96875 120.878906 162.894531 115.21875 159.183594 C 114.402344 155.652344 113.605469 152 112.792969 148.46875 C 112.65625 147.871094 112.484375 147.21875 111.988281 146.859375 C 111.207031 146.300781 110.03125 146.820312 109.570312 147.660156 C 109.105469 148.503906 109.148438 149.519531 109.207031 150.480469 C 109.289062 151.84375 109.367188 153.210938 109.449219 154.574219 C 106.910156 151.886719 104.625 149.421875 102.085938 146.730469 C 101.675781 146.292969 101.210938 145.832031 100.613281 145.765625 C 99.488281 145.640625 98.269531 146.8125 98.308594 147.917969 C 98.347656 149.097656 99.421875 150.03125 100.042969 150.898438 C 100.625 151.710938 101.230469 152.507812 101.859375 153.285156 C 102.382812 153.933594 102.957031 154.875 103.632812 155.367188 C 101.109375 153.523438 98.460938 152.171875 95.941406 150.324219 C 95.542969 150.035156 95.117188 149.730469 94.625 149.691406 C 93.851562 149.625 93.148438 150.257812 92.914062 151 C 92.683594 151.742188 92.777344 152.59375 93.214844 153.089844 C 92.589844 152.589844 91.503906 152.738281 90.828125 153.179688 C 90.15625 153.621094 89.820312 154.515625 90.03125 155.289062 C 90.257812 156.117188 90.996094 156.6875 91.6875 157.199219 C 93.894531 158.820312 96.097656 160.441406 98.304688 162.058594 C 96.933594 161.378906 95.46875 161.183594 94.097656 160.503906 C 93.3125 160.117188 92.515625 159.722656 91.652344 159.566406 C 90.8125 159.414062 89.730469 159.652344 89.511719 160.480469 C 89.304688 161.269531 90.019531 161.972656 90.671875 162.464844 C 95.238281 165.90625 100.324219 168.65625 105.699219 170.601562 C 113.421875 173.390625 119.851562 180.121094 126.308594 185.191406 C 128.664062 183.605469 131.070312 179.640625 131.886719 176.921875 Z M 131.886719 176.921875 " fill-opacity="1" fill-rule="nonzero"/><g clip-path="url(#3660992da0)"><path fill="#1a171b" d="M 126.011719 185.570312 C 124.382812 184.292969 122.722656 182.882812 121.121094 181.519531 C 116.261719 177.386719 111.238281 173.117188 105.535156 171.054688 C 100.097656 169.089844 95 166.332031 90.378906 162.851562 C 89.96875 162.539062 88.71875 161.597656 89.046875 160.355469 C 89.332031 159.269531 90.644531 158.894531 91.742188 159.089844 C 92.675781 159.261719 93.546875 159.695312 94.3125 160.074219 C 94.660156 160.246094 95.011719 160.386719 95.375 160.511719 L 91.398438 157.589844 C 90.578125 156.988281 89.820312 156.371094 89.5625 155.417969 C 89.296875 154.445312 89.71875 153.332031 90.5625 152.777344 C 91.046875 152.457031 91.71875 152.261719 92.347656 152.292969 C 92.269531 151.839844 92.304688 151.34375 92.453125 150.859375 C 92.769531 149.839844 93.707031 149.125 94.664062 149.207031 C 95.308594 149.261719 95.816406 149.636719 96.226562 149.9375 C 97.472656 150.847656 98.78125 151.65625 100.042969 152.4375 C 100.386719 152.648438 100.730469 152.863281 101.078125 153.078125 C 100.589844 152.457031 100.109375 151.820312 99.652344 151.179688 C 99.507812 150.980469 99.335938 150.773438 99.160156 150.5625 C 98.550781 149.824219 97.859375 148.992188 97.824219 147.933594 C 97.800781 147.265625 98.132812 146.542969 98.710938 146.007812 C 99.289062 145.476562 99.996094 145.207031 100.664062 145.285156 C 101.46875 145.371094 102.050781 145.988281 102.4375 146.398438 C 103.707031 147.746094 104.914062 149.035156 106.121094 150.320312 C 107.035156 151.296875 107.945312 152.269531 108.886719 153.269531 L 108.722656 150.503906 C 108.667969 149.574219 108.597656 148.414062 109.144531 147.425781 C 109.480469 146.816406 110.109375 146.34375 110.785156 146.191406 C 111.324219 146.070312 111.855469 146.167969 112.269531 146.464844 C 112.941406 146.949219 113.136719 147.796875 113.265625 148.355469 C 113.671875 150.121094 114.074219 151.917969 114.476562 153.714844 C 114.863281 155.445312 115.25 157.179688 115.644531 158.882812 C 121.226562 162.519531 127.226562 165.546875 133.472656 167.875 C 133.671875 167.949219 133.800781 168.144531 133.785156 168.359375 C 133.578125 171.65625 133.09375 174.582031 132.351562 177.058594 C 131.507812 179.855469 129.066406 183.914062 126.582031 185.589844 C 126.503906 185.640625 126.414062 185.667969 126.324219 185.671875 C 126.214844 185.675781 126.101562 185.644531 126.011719 185.570312 Z M 114.953125 159.589844 C 114.847656 159.519531 114.773438 159.414062 114.746094 159.292969 C 114.339844 157.527344 113.933594 155.726562 113.53125 153.929688 C 113.132812 152.136719 112.730469 150.339844 112.324219 148.574219 C 112.195312 148.023438 112.050781 147.503906 111.703125 147.253906 C 111.464844 147.082031 111.1875 147.09375 110.996094 147.140625 C 110.589844 147.230469 110.195312 147.527344 109.992188 147.894531 C 109.613281 148.585938 109.628906 149.421875 109.691406 150.449219 L 109.933594 154.546875 C 109.945312 154.75 109.828125 154.9375 109.640625 155.019531 C 109.453125 155.101562 109.238281 155.058594 109.097656 154.90625 C 107.828125 153.5625 106.621094 152.273438 105.414062 150.984375 C 104.210938 149.699219 103.003906 148.410156 101.734375 147.066406 C 101.351562 146.660156 100.976562 146.292969 100.5625 146.246094 C 100.183594 146.210938 99.738281 146.382812 99.371094 146.71875 C 99 147.0625 98.78125 147.515625 98.792969 147.90625 C 98.820312 148.632812 99.371094 149.300781 99.90625 149.945312 C 100.097656 150.175781 100.28125 150.398438 100.4375 150.617188 C 101.011719 151.421875 101.621094 152.214844 102.238281 152.980469 C 102.386719 153.167969 102.542969 153.375 102.699219 153.589844 C 103.089844 154.117188 103.492188 154.664062 103.921875 154.980469 C 104.136719 155.136719 104.183594 155.441406 104.027344 155.65625 C 103.867188 155.871094 103.5625 155.921875 103.347656 155.761719 C 102.101562 154.851562 100.796875 154.042969 99.535156 153.261719 C 98.253906 152.46875 96.933594 151.652344 95.65625 150.71875 C 95.328125 150.476562 94.953125 150.207031 94.585938 150.171875 C 94.039062 150.125 93.539062 150.628906 93.378906 151.148438 C 93.191406 151.753906 93.273438 152.421875 93.582031 152.773438 C 93.746094 152.964844 93.742188 153.246094 93.566406 153.429688 C 93.394531 153.609375 93.109375 153.628906 92.914062 153.46875 C 92.472656 153.117188 91.617188 153.242188 91.097656 153.585938 C 90.597656 153.914062 90.34375 154.589844 90.5 155.164062 C 90.675781 155.816406 91.269531 156.296875 91.972656 156.8125 L 98.589844 161.671875 C 98.792969 161.820312 98.847656 162.097656 98.714844 162.3125 C 98.585938 162.527344 98.3125 162.605469 98.089844 162.496094 C 97.4375 162.171875 96.765625 161.964844 96.058594 161.746094 C 95.339844 161.527344 94.601562 161.300781 93.882812 160.941406 C 93.136719 160.574219 92.371094 160.191406 91.566406 160.046875 C 90.90625 159.925781 90.113281 160.105469 89.980469 160.605469 C 89.871094 161.011719 90.203125 161.507812 90.960938 162.082031 C 95.503906 165.503906 100.519531 168.21875 105.863281 170.148438 C 111.730469 172.269531 116.820312 176.597656 121.746094 180.785156 C 123.320312 182.121094 124.808594 183.386719 126.324219 184.589844 C 128.46875 182.960938 130.660156 179.324219 131.425781 176.785156 C 132.121094 174.46875 132.582031 171.738281 132.796875 168.660156 C 126.542969 166.300781 120.539062 163.25 114.953125 159.589844 Z M 114.953125 159.589844 " fill-opacity="1" fill-rule="nonzero"/></g><path fill="#f2cec2" d="M 155.257812 301.796875 L 178.738281 301.222656 L 179.851562 346.691406 L 156.375 347.269531 Z M 155.257812 301.796875 " fill-opacity="1" fill-rule="nonzero"/><path fill="#1a171b" d="M 155.925781 347.277344 L 154.792969 301.808594 C 154.785156 301.550781 154.988281 301.335938 155.246094 301.328125 L 178.722656 300.742188 C 178.980469 300.738281 179.195312 300.941406 179.199219 301.199219 L 180.335938 346.667969 C 180.34375 346.925781 180.136719 347.140625 179.878906 347.148438 L 156.40625 347.734375 C 156.148438 347.742188 155.933594 347.535156 155.925781 347.277344 Z M 178.277344 301.691406 L 155.738281 302.253906 L 156.847656 346.789062 L 179.390625 346.226562 Z M 178.277344 301.691406 " fill-opacity="1" fill-rule="nonzero"/><path fill="#463220" d="M 181.390625 348.625 C 181.707031 351.40625 181.859375 354.195312 181.851562 356.984375 C 181.847656 357.847656 181.816406 358.761719 181.335938 359.480469 C 180.738281 360.375 179.617188 360.867188 178.511719 361.042969 C 172.160156 362.046875 165.710938 362.339844 159.269531 362.625 C 152.714844 362.914062 146.121094 363.039062 139.554688 362.417969 C 138.238281 362.292969 137.628906 361.523438 137.386719 360.371094 C 136.914062 358.136719 136.46875 355.695312 137.578125 353.722656 C 138.40625 352.246094 139.964844 351.308594 141.460938 350.429688 C 143.542969 349.210938 145.621094 347.992188 147.703125 346.773438 C 149.414062 345.769531 151.175781 344.71875 152.238281 343.09375 C 152.964844 341.984375 153.339844 340.636719 154.316406 339.726562 C 155.878906 338.269531 158.421875 338.398438 160.597656 338.855469 C 163.082031 339.375 165.503906 340.199219 167.789062 341.300781 C 168.257812 341.527344 168.753906 341.796875 168.980469 342.25 C 169.320312 342.9375 168.914062 343.753906 169.125 344.480469 C 169.507812 345.808594 171.421875 345.90625 172.828125 345.714844 C 176.789062 345.167969 180.808594 343.457031 181.390625 348.625 Z M 181.390625 348.625 " fill-opacity="1" fill-rule="nonzero"/><g clip-path="url(#4d570c558b)"><path fill="#1a171b" d="M 139.511719 362.878906 C 138.109375 362.742188 137.242188 361.929688 136.933594 360.464844 C 136.40625 357.964844 136.027344 355.546875 137.175781 353.5 C 138.089844 351.871094 139.828125 350.851562 141.226562 350.035156 L 147.472656 346.375 C 149.046875 345.453125 150.828125 344.410156 151.851562 342.84375 C 152.101562 342.460938 152.308594 342.050781 152.527344 341.617188 C 152.914062 340.835938 153.320312 340.027344 154.003906 339.390625 C 155.390625 338.097656 157.644531 337.765625 160.691406 338.40625 C 163.214844 338.933594 165.667969 339.769531 167.988281 340.886719 C 168.511719 341.140625 169.097656 341.460938 169.390625 342.046875 C 169.636719 342.539062 169.589844 343.050781 169.546875 343.5 C 169.519531 343.8125 169.492188 344.109375 169.566406 344.355469 C 169.84375 345.308594 171.398438 345.445312 172.765625 345.261719 C 173.378906 345.175781 173.992188 345.0625 174.59375 344.953125 C 176.789062 344.550781 178.859375 344.167969 180.289062 345.230469 C 181.160156 345.875 181.667969 346.96875 181.851562 348.574219 C 182.164062 351.363281 182.320312 354.195312 182.3125 356.988281 C 182.308594 357.933594 182.261719 358.925781 181.722656 359.738281 C 180.898438 360.96875 179.402344 361.371094 178.585938 361.5 C 172.148438 362.515625 165.613281 362.804688 159.289062 363.085938 C 157.574219 363.160156 155.820312 363.226562 154.039062 363.273438 C 149.351562 363.386719 144.464844 363.347656 139.511719 362.878906 Z M 174.761719 345.855469 C 174.148438 345.96875 173.519531 346.085938 172.894531 346.167969 C 170.628906 346.480469 169.058594 345.898438 168.6875 344.609375 C 168.566406 344.195312 168.601562 343.78125 168.636719 343.414062 C 168.667969 343.039062 168.699219 342.714844 168.570312 342.457031 C 168.40625 342.128906 167.980469 341.902344 167.589844 341.714844 C 165.335938 340.628906 162.953125 339.820312 160.503906 339.304688 C 157.761719 338.730469 155.785156 338.984375 154.628906 340.0625 C 154.066406 340.585938 153.71875 341.285156 153.347656 342.027344 C 153.128906 342.464844 152.898438 342.917969 152.621094 343.34375 C 151.480469 345.09375 149.597656 346.195312 147.933594 347.167969 L 141.691406 350.828125 C 140.320312 351.628906 138.765625 352.539062 137.976562 353.945312 C 136.984375 355.71875 137.34375 357.949219 137.835938 360.277344 C 138.0625 361.363281 138.589844 361.867188 139.597656 361.960938 C 146.375 362.601562 153.046875 362.4375 159.246094 362.164062 C 165.542969 361.886719 172.054688 361.597656 178.441406 360.589844 C 179.578125 360.410156 180.496094 359.914062 180.953125 359.226562 C 181.355469 358.625 181.390625 357.824219 181.390625 356.984375 C 181.398438 354.226562 181.246094 351.429688 180.933594 348.675781 C 180.78125 347.339844 180.390625 346.453125 179.738281 345.96875 C 179.199219 345.566406 178.476562 345.445312 177.648438 345.464844 C 176.773438 345.484375 175.78125 345.667969 174.761719 345.855469 Z M 174.761719 345.855469 " fill-opacity="1" fill-rule="nonzero"/></g><path fill="#463220" d="M 152.601562 346.195312 C 154.78125 345.925781 157.066406 346.359375 159.011719 347.40625 " fill-opacity="1" fill-rule="nonzero"/><path fill="#1a171b" d="M 158.796875 347.808594 C 156.925781 346.808594 154.746094 346.390625 152.65625 346.652344 C 152.410156 346.671875 152.175781 346.503906 152.144531 346.25 C 152.113281 345.996094 152.292969 345.769531 152.542969 345.738281 C 154.816406 345.464844 157.195312 345.90625 159.230469 347 C 159.453125 347.121094 159.539062 347.398438 159.417969 347.621094 C 159.335938 347.773438 159.183594 347.859375 159.023438 347.863281 C 158.945312 347.867188 158.867188 347.851562 158.796875 347.808594 Z M 158.796875 347.808594 " fill-opacity="1" fill-rule="nonzero"/><path fill="#463220" d="M 150.082031 349.53125 C 152.175781 348.898438 154.445312 349.804688 156.480469 350.691406 " fill-opacity="1" fill-rule="nonzero"/><path fill="#1a171b" d="M 156.296875 351.113281 C 154.167969 350.183594 152.105469 349.402344 150.214844 349.96875 C 149.964844 350.042969 149.714844 349.90625 149.640625 349.664062 C 149.566406 349.421875 149.707031 349.164062 149.949219 349.089844 C 152.136719 348.429688 154.464844 349.3125 156.664062 350.269531 C 156.894531 350.371094 157.003906 350.644531 156.902344 350.875 C 156.828125 351.042969 156.664062 351.148438 156.492188 351.152344 C 156.425781 351.152344 156.359375 351.140625 156.296875 351.113281 Z M 156.296875 351.113281 " fill-opacity="1" fill-rule="nonzero"/><path fill="#463220" d="M 136.9375 359.566406 C 137.433594 359.644531 137.9375 359.707031 138.4375 359.753906 C 141.878906 360.089844 145.371094 359.894531 148.816406 359.859375 C 152.476562 359.820312 156.136719 359.699219 159.789062 359.484375 C 167.089844 359.050781 174.355469 358.234375 181.511719 356.910156 " fill-opacity="1" fill-rule="nonzero"/><path fill="#1a171b" d="M 148.820312 360.320312 C 148.035156 360.328125 147.242188 360.34375 146.449219 360.359375 C 143.804688 360.414062 141.070312 360.472656 138.394531 360.210938 C 137.882812 360.160156 137.371094 360.101562 136.863281 360.015625 C 136.613281 359.972656 136.445312 359.738281 136.484375 359.488281 C 136.527344 359.234375 136.765625 359.066406 137.011719 359.109375 C 137.5 359.191406 137.992188 359.25 138.484375 359.296875 C 141.109375 359.554688 143.8125 359.496094 146.429688 359.441406 C 147.226562 359.421875 148.019531 359.40625 148.8125 359.398438 C 152.542969 359.355469 156.230469 359.234375 159.761719 359.023438 C 167.359375 358.574219 174.648438 357.710938 181.429688 356.457031 C 181.679688 356.414062 181.917969 356.578125 181.964844 356.824219 C 182.011719 357.074219 181.84375 357.316406 181.59375 357.363281 C 174.777344 358.625 167.449219 359.492188 159.816406 359.945312 C 157.363281 360.089844 154.835938 360.195312 152.273438 360.257812 C 151.128906 360.289062 149.976562 360.304688 148.820312 360.320312 Z M 148.820312 360.320312 " fill-opacity="1" fill-rule="nonzero"/><path fill="#f2cec2" d="M 199.171875 299.675781 L 222.648438 299.101562 L 223.761719 344.574219 L 200.285156 345.148438 Z M 199.171875 299.675781 " fill-opacity="1" fill-rule="nonzero"/><path fill="#1a171b" d="M 199.839844 345.15625 L 198.703125 299.6875 C 198.695312 299.429688 198.902344 299.214844 199.160156 299.207031 L 222.636719 298.621094 C 222.894531 298.613281 223.105469 298.820312 223.113281 299.078125 L 224.246094 344.546875 C 224.253906 344.804688 224.050781 345.019531 223.792969 345.027344 L 200.316406 345.613281 C 200.058594 345.617188 199.84375 345.414062 199.839844 345.15625 Z M 222.191406 299.566406 L 199.648438 300.128906 L 200.757812 344.667969 L 223.300781 344.105469 Z M 222.191406 299.566406 " fill-opacity="1" fill-rule="nonzero"/><path fill="#ffffff" d="M 224.945312 235.921875 C 224.257812 221.117188 223.835938 204.574219 219.894531 190.484375 C 216.796875 188.566406 213.640625 188.011719 210.253906 186.921875 C 201.546875 184.117188 192.3125 184.226562 183.316406 185.410156 C 174.324219 186.59375 167.75 189.191406 158.777344 190.582031 C 158.488281 191.523438 158.019531 192.699219 157.671875 193.613281 C 153.359375 204.871094 151.855469 217.328125 150.792969 229.464844 C 149.476562 244.472656 149.484375 259.472656 148.867188 274.503906 C 148.542969 282.328125 148.207031 290.152344 148.011719 297.984375 C 147.953125 300.34375 146.652344 320.765625 148.007812 321.347656 C 159.558594 326.28125 173.046875 326.40625 184.777344 321.984375 C 184.328125 305.496094 185.285156 288.964844 186.875 272.5625 C 187.371094 279.613281 187.992188 285.457031 188.433594 291.417969 C 189.257812 302.445312 190.636719 311.078125 191.488281 320.742188 C 203.878906 326.011719 219.6875 325.007812 231.507812 318.089844 C 228.414062 290.816406 226.226562 263.398438 224.945312 235.921875 Z M 224.945312 235.921875 " fill-opacity="1" fill-rule="nonzero"/><g mask="url(#8b77eb84df)"><g transform="matrix(1, 0, 0, 1, 147, 184)"><g clip-path="url(#eb45ed0981)"><g clip-path="url(#a23b53567c)"><path fill="#463220" d="M 77.945312 51.921875 C 77.257812 37.117188 76.835938 20.574219 72.894531 6.484375 C 69.796875 4.566406 66.640625 4.011719 63.253906 2.921875 C 54.546875 0.117188 45.3125 0.226562 36.316406 1.410156 C 27.324219 2.59375 20.75 5.191406 11.777344 6.582031 C 11.488281 7.523438 11.019531 8.699219 10.671875 9.613281 C 6.359375 20.871094 4.855469 33.328125 3.792969 45.464844 C 2.476562 60.472656 2.484375 75.472656 1.867188 90.503906 C 1.542969 98.328125 1.207031 106.152344 1.011719 113.984375 C 0.953125 116.34375 -0.347656 136.765625 1.007812 137.347656 C 12.558594 142.28125 26.046875 142.40625 37.777344 137.984375 C 37.328125 121.496094 38.285156 104.964844 39.875 88.5625 C 40.371094 95.613281 40.992188 101.457031 41.433594 107.417969 C 42.257812 118.445312 43.636719 127.078125 44.488281 136.742188 C 56.878906 142.011719 72.6875 141.007812 84.507812 134.089844 C 81.414062 106.816406 79.226562 79.398438 77.945312 51.921875 Z M 77.945312 51.921875 " fill-opacity="1" fill-rule="nonzero"/></g></g></g></g><path fill="#1a171b" d="M 225.480469 235.894531 L 225.300781 231.980469 C 224.703125 218.515625 224.023438 203.257812 220.40625 190.339844 C 220.371094 190.210938 220.285156 190.101562 220.171875 190.03125 C 217.796875 188.558594 215.433594 187.878906 212.929688 187.164062 C 212.105469 186.925781 211.269531 186.6875 210.417969 186.414062 C 202.734375 183.941406 194.101562 183.453125 183.25 184.882812 C 178.476562 185.511719 174.300781 186.554688 170.269531 187.5625 C 166.648438 188.46875 162.910156 189.402344 158.695312 190.054688 C 158.492188 190.085938 158.328125 190.230469 158.269531 190.425781 C 158.027344 191.207031 157.660156 192.15625 157.335938 192.996094 L 157.171875 193.421875 C 152.675781 205.164062 151.25 218.15625 150.261719 229.417969 C 149.367188 239.628906 149.078125 250 148.800781 260.03125 C 148.667969 264.765625 148.53125 269.664062 148.332031 274.484375 L 148.234375 276.894531 C 147.949219 283.800781 147.652344 290.941406 147.476562 297.976562 C 147.46875 298.371094 147.421875 299.292969 147.359375 300.546875 C 146.40625 319.691406 146.964844 321.484375 147.796875 321.839844 C 154.242188 324.59375 161.300781 325.886719 168.363281 325.710938 C 173.992188 325.570312 179.628906 324.496094 184.96875 322.484375 C 185.179688 322.402344 185.316406 322.199219 185.3125 321.972656 C 184.953125 308.855469 185.4375 295.023438 186.832031 278.851562 C 186.960938 280.390625 187.09375 281.886719 187.226562 283.359375 C 187.46875 286.117188 187.707031 288.773438 187.902344 291.457031 C 188.367188 297.6875 189.011719 303.167969 189.632812 308.464844 C 190.125 312.640625 190.585938 316.582031 190.957031 320.789062 C 190.972656 320.984375 191.097656 321.15625 191.277344 321.230469 C 203.914062 326.605469 219.8125 325.554688 231.777344 318.550781 C 231.957031 318.445312 232.058594 318.242188 232.035156 318.03125 C 228.960938 290.882812 226.753906 263.25 225.480469 235.894531 Z M 191.988281 320.375 C 191.621094 316.273438 191.167969 312.417969 190.691406 308.339844 C 190.070312 303.054688 189.425781 297.585938 188.964844 291.378906 C 188.765625 288.691406 188.527344 286.027344 188.285156 283.265625 C 187.984375 279.886719 187.675781 276.394531 187.402344 272.527344 C 187.382812 272.25 187.15625 272.035156 186.878906 272.03125 C 186.601562 272.042969 186.371094 272.234375 186.34375 272.511719 C 184.523438 291.300781 183.851562 306.917969 184.234375 321.617188 C 172.570312 325.910156 159.503906 325.652344 148.304688 320.894531 C 147.492188 319.378906 148.191406 305.269531 148.425781 300.597656 C 148.488281 299.332031 148.535156 298.402344 148.546875 298 C 148.722656 290.976562 149.015625 283.835938 149.300781 276.933594 L 149.402344 274.523438 C 149.597656 269.695312 149.734375 264.796875 149.867188 260.058594 C 150.144531 250.042969 150.433594 239.6875 151.324219 229.507812 C 152.304688 218.320312 153.726562 205.410156 158.167969 193.800781 L 158.332031 193.378906 C 158.621094 192.632812 158.941406 191.796875 159.1875 191.054688 C 163.316406 190.398438 166.984375 189.480469 170.53125 188.59375 C 174.535156 187.59375 178.675781 186.558594 183.390625 185.9375 C 194.082031 184.53125 202.566406 185.003906 210.09375 187.425781 C 210.957031 187.703125 211.804688 187.945312 212.636719 188.1875 C 215.003906 188.863281 217.246094 189.507812 219.441406 190.828125 C 222.972656 203.578125 223.617188 218.042969 224.242188 232.03125 L 224.417969 235.945312 C 225.6875 263.207031 227.882812 290.746094 230.941406 317.804688 C 219.378906 324.4375 204.171875 325.441406 191.988281 320.375 Z M 191.988281 320.375 " fill-opacity="1" fill-rule="nonzero"/><path fill="#004aad" d="M 147.296875 146.863281 C 145 152.03125 143.371094 157.519531 140.960938 162.648438 C 140.304688 164.050781 139.527344 165.492188 138.214844 166.320312 C 135.988281 167.726562 132.570312 166.878906 130.082031 166.023438 C 127.730469 171.964844 124.289062 178.910156 121.410156 184.613281 C 123.960938 186.800781 126.632812 188.207031 129.429688 190.070312 C 132.238281 191.9375 135.230469 193.664062 138.546875 194.292969 C 141.859375 194.921875 145.566406 194.296875 147.996094 191.953125 C 148.878906 191.101562 149.5625 190.0625 150.234375 189.035156 C 151.566406 186.996094 152.828125 184.792969 154.109375 182.636719 C 153.828125 177.230469 153.1875 171.835938 151.25 166.472656 C 149.523438 159.945312 148.261719 153.410156 147.296875 146.863281 Z M 147.296875 146.863281 " fill-opacity="1" fill-rule="nonzero"/><path fill="#004aad" d="M 225.445312 136.46875 C 220.441406 131.996094 213.335938 129.214844 206.929688 131.210938 C 198.796875 133.746094 190.804688 135.863281 182.371094 134.644531 C 176.667969 133.824219 171.683594 129.988281 165.933594 130.363281 C 158.746094 130.832031 152.847656 136.464844 149.328125 142.746094 C 148.578125 144.085938 147.917969 145.464844 147.296875 146.863281 C 148.261719 153.410156 149.523438 159.949219 151.25 166.472656 C 153.1875 171.835938 153.828125 177.230469 154.109375 182.636719 C 154.816406 181.441406 155.527344 180.257812 156.265625 179.132812 C 156.761719 183.351562 157.902344 187.53125 158.398438 191.75 C 178.546875 196.410156 199.886719 195.691406 219.894531 190.484375 C 220.761719 184.03125 220.746094 177.742188 221.613281 171.289062 C 221.652344 171.292969 221.6875 171.300781 221.726562 171.304688 C 221.75 170.976562 221.804688 170.644531 221.847656 170.316406 C 221.953125 169.558594 221.976562 168.683594 222.207031 167.890625 C 222.238281 167.777344 222.28125 167.667969 222.328125 167.558594 C 222.300781 167.5 222.273438 167.4375 222.246094 167.378906 C 222.234375 167.3125 222.222656 167.246094 222.214844 167.175781 C 222.210938 167.160156 222.207031 167.140625 222.207031 167.121094 C 222.183594 167.070312 222.152344 167.027344 222.136719 166.96875 C 222.121094 166.917969 222.113281 166.863281 222.105469 166.8125 C 222.097656 166.761719 222.085938 166.707031 222.085938 166.65625 C 222.082031 166.570312 222.097656 166.484375 222.109375 166.402344 C 222.113281 166.375 222.117188 166.351562 222.121094 166.328125 C 222.144531 166.230469 222.1875 166.144531 222.25 166.066406 C 222.304688 165.984375 222.371094 165.917969 222.460938 165.867188 L 222.640625 165.785156 C 222.707031 165.773438 222.773438 165.765625 222.839844 165.753906 C 222.945312 165.746094 223.042969 165.765625 223.132812 165.8125 C 223.199219 165.828125 223.253906 165.859375 223.304688 165.90625 C 223.386719 165.957031 223.457031 166.027344 223.503906 166.113281 C 223.519531 166.144531 223.53125 166.171875 223.542969 166.203125 C 223.558594 166.207031 223.574219 166.203125 223.585938 166.210938 C 223.730469 166.257812 223.859375 166.335938 223.976562 166.429688 C 224.046875 166.433594 224.113281 166.433594 224.1875 166.445312 C 224.828125 166.566406 225.277344 167.058594 225.722656 167.5 C 226.089844 167.386719 226.472656 167.324219 226.855469 167.347656 C 228.101562 158.691406 228.773438 149.925781 229.878906 141.265625 C 228.53125 139.546875 227.078125 137.929688 225.445312 136.46875 Z M 225.445312 136.46875 " fill-opacity="1" fill-rule="nonzero"/><path fill="#1a171b" d="M 152.820312 183.832031 C 151.847656 185.484375 150.84375 187.191406 149.816406 188.761719 C 149.167969 189.753906 148.496094 190.78125 147.648438 191.597656 C 145.519531 193.648438 142.152344 194.472656 138.636719 193.808594 C 135.304688 193.171875 132.25 191.355469 129.699219 189.65625 C 128.84375 189.085938 127.996094 188.558594 127.160156 188.035156 C 125.371094 186.917969 123.675781 185.859375 122.023438 184.488281 C 124.90625 178.773438 128.109375 172.257812 130.363281 166.640625 C 134.03125 167.835938 136.6875 167.867188 138.476562 166.738281 C 139.929688 165.820312 140.75 164.253906 141.40625 162.855469 C 142.707031 160.085938 143.792969 157.171875 144.84375 154.355469 C 145.660156 152.167969 146.492188 149.9375 147.433594 147.753906 C 147.339844 147.152344 147.25 146.542969 147.164062 145.9375 C 145.945312 148.59375 144.917969 151.332031 143.921875 154.011719 C 142.875 156.8125 141.796875 159.703125 140.515625 162.441406 C 139.917969 163.710938 139.179688 165.128906 137.953125 165.90625 C 136.363281 166.910156 133.839844 166.796875 130.242188 165.558594 C 129.988281 165.472656 129.71875 165.597656 129.621094 165.84375 C 127.324219 171.636719 123.960938 178.472656 120.96875 184.394531 C 120.867188 184.597656 120.917969 184.84375 121.089844 184.988281 C 122.890625 186.535156 124.710938 187.671875 126.640625 188.875 C 127.46875 189.394531 128.304688 189.914062 129.15625 190.484375 C 131.789062 192.234375 134.953125 194.113281 138.453125 194.78125 C 142.285156 195.507812 145.980469 194.585938 148.339844 192.3125 C 149.265625 191.417969 149.96875 190.34375 150.648438 189.308594 C 151.6875 187.714844 152.699219 185.996094 153.675781 184.335938 C 153.832031 184.070312 153.996094 183.796875 154.152344 183.527344 C 154.128906 182.933594 154.097656 182.335938 154.0625 181.742188 C 153.640625 182.441406 153.226562 183.140625 152.820312 183.832031 Z M 152.820312 183.832031 " fill-opacity="1" fill-rule="nonzero"/><path fill="#1a171b" d="M 221.882812 172.816406 C 221.917969 172.164062 221.96875 171.507812 222.144531 170.875 C 222.152344 170.855469 221.667969 170.800781 221.648438 170.796875 C 221.390625 170.777344 221.15625 170.964844 221.121094 171.222656 C 220.683594 174.46875 220.46875 177.714844 220.257812 180.855469 C 220.054688 183.871094 219.847656 186.988281 219.445312 190.089844 C 199.121094 195.324219 178.183594 195.757812 158.84375 191.347656 C 158.589844 189.332031 158.195312 187.308594 157.8125 185.351562 C 157.414062 183.292969 157 181.167969 156.753906 179.074219 C 156.726562 178.867188 156.578125 178.699219 156.375 178.652344 C 156.171875 178.601562 155.960938 178.6875 155.847656 178.863281 C 155.238281 179.792969 154.644531 180.765625 154.058594 181.742188 C 154.09375 182.339844 154.125 182.933594 154.152344 183.527344 C 154.742188 182.527344 155.339844 181.519531 155.953125 180.542969 C 156.199219 182.226562 156.527344 183.90625 156.84375 185.542969 C 157.246094 187.597656 157.660156 189.722656 157.90625 191.8125 C 157.929688 192.019531 158.082031 192.1875 158.285156 192.234375 C 177.976562 196.789062 199.324219 196.347656 220.019531 190.964844 C 220.214844 190.914062 220.359375 190.75 220.382812 190.554688 C 220.820312 187.308594 221.035156 184.0625 221.246094 180.921875 C 221.363281 179.191406 221.480469 177.457031 221.632812 175.726562 C 221.703125 174.933594 221.8125 174.140625 221.855469 173.34375 C 221.863281 173.167969 221.871094 172.992188 221.882812 172.816406 Z M 221.882812 172.816406 " fill-opacity="1" fill-rule="nonzero"/><path fill="#1a171b" d="M 229.792969 141.96875 C 229.839844 141.605469 229.878906 141.234375 229.925781 140.871094 C 229.9375 140.773438 229.964844 140.695312 229.980469 140.605469 C 228.699219 138.996094 227.3125 137.480469 225.773438 136.101562 C 221.253906 132.058594 213.890625 128.527344 206.78125 130.742188 C 198.777344 133.238281 190.886719 135.378906 182.441406 134.15625 C 180.089844 133.820312 177.808594 132.933594 175.601562 132.078125 C 172.519531 130.882812 169.324219 129.65625 165.902344 129.871094 C 159.453125 130.292969 153.09375 135.015625 148.894531 142.507812 C 148.269531 143.625 147.699219 144.773438 147.164062 145.941406 C 147.25 146.546875 147.339844 147.152344 147.433594 147.757812 C 148.136719 146.128906 148.894531 144.523438 149.753906 142.988281 C 153.789062 135.789062 159.847656 131.253906 165.960938 130.855469 C 169.1875 130.648438 172.121094 131.789062 175.238281 132.996094 C 177.5 133.871094 179.835938 134.777344 182.296875 135.132812 C 190.941406 136.382812 199.277344 134.113281 207.074219 131.683594 C 208.371094 131.28125 209.675781 131.082031 210.96875 131.050781 C 216.386719 130.914062 221.628906 133.71875 225.117188 136.839844 C 226.84375 138.382812 228.375 140.125 229.792969 141.96875 Z M 229.792969 141.96875 " fill-opacity="1" fill-rule="nonzero"/><path fill="#f2cec2" d="M 197.90625 130.914062 L 197.222656 105.871094 L 174.007812 108.230469 L 175.21875 132.027344 C 172.0625 132.4375 169.914062 131.929688 166.828125 132.710938 C 170.277344 139.554688 175.9375 145.414062 182.589844 149.261719 C 182.589844 149.261719 190.71875 142.988281 193.53125 141.949219 C 198.117188 140.253906 202.429688 136.441406 205.066406 132.195312 C 202.695312 131.65625 200.308594 131.230469 197.90625 130.914062 Z M 197.90625 130.914062 " fill-opacity="1" fill-rule="nonzero"/><path fill="#1a171b" d="M 182.375 149.660156 C 175.546875 145.710938 169.886719 139.765625 166.4375 132.917969 C 166.375 132.792969 166.371094 132.644531 166.425781 132.519531 C 166.480469 132.390625 166.589844 132.296875 166.722656 132.265625 C 168.570312 131.796875 170.070312 131.78125 171.65625 131.761719 C 172.628906 131.753906 173.632812 131.742188 174.753906 131.621094 L 173.566406 108.253906 C 173.550781 108.011719 173.726562 107.800781 173.960938 107.777344 L 197.175781 105.417969 C 197.300781 105.402344 197.421875 105.445312 197.511719 105.527344 C 197.605469 105.613281 197.660156 105.730469 197.660156 105.859375 L 198.335938 130.511719 C 200.617188 130.824219 202.910156 131.238281 205.15625 131.75 C 205.296875 131.78125 205.414062 131.882812 205.46875 132.019531 C 205.523438 132.160156 205.511719 132.316406 205.433594 132.441406 C 202.660156 136.917969 198.152344 140.726562 193.675781 142.378906 C 190.960938 143.382812 182.933594 149.5625 182.855469 149.625 C 182.777344 149.683594 182.691406 149.714844 182.601562 149.71875 C 182.523438 149.71875 182.445312 149.699219 182.375 149.660156 Z M 197.851562 131.367188 C 197.636719 131.339844 197.472656 131.152344 197.464844 130.925781 L 196.796875 106.371094 L 174.46875 108.640625 L 175.65625 132 C 175.667969 132.238281 175.5 132.449219 175.273438 132.476562 C 173.9375 132.652344 172.785156 132.664062 171.667969 132.675781 C 170.296875 132.691406 168.996094 132.703125 167.488281 133.023438 C 170.835938 139.410156 176.160156 144.960938 182.554688 148.71875 C 183.925781 147.667969 190.773438 142.480469 193.378906 141.519531 C 197.496094 140 201.644531 136.574219 204.339844 132.5 C 202.195312 132.03125 200.015625 131.652344 197.851562 131.367188 Z M 197.851562 131.367188 " fill-opacity="1" fill-rule="nonzero"/><path fill="#004aad" d="M 197.285156 128.867188 C 200.460938 128.019531 203.835938 129.503906 206.882812 131.542969 C 203.402344 137.609375 201.21875 142.746094 197.742188 148.8125 C 197.742188 148.8125 197.066406 150.070312 197.039062 149.964844 C 196.132812 148.011719 192.863281 146.378906 190.082031 146.597656 C 187.304688 146.816406 184.714844 148.054688 182.214844 149.269531 C 186.742188 142.238281 191.421875 135.003906 197.285156 128.867188 Z M 197.285156 128.867188 " fill-opacity="1" fill-rule="nonzero"/><path fill="#1a171b" d="M 196.988281 150.464844 C 196.816406 150.445312 196.664062 150.332031 196.59375 150.175781 C 195.75 148.359375 192.671875 146.886719 190.121094 147.089844 C 187.394531 147.304688 184.757812 148.585938 182.433594 149.714844 C 182.234375 149.8125 181.992188 149.765625 181.847656 149.597656 C 181.699219 149.433594 181.679688 149.1875 181.800781 149 C 186.097656 142.328125 190.96875 134.765625 196.929688 128.523438 C 196.992188 128.457031 197.070312 128.410156 197.160156 128.386719 C 199.996094 127.632812 203.265625 128.527344 207.15625 131.128906 C 207.375 131.273438 207.441406 131.5625 207.3125 131.789062 C 205.578125 134.808594 204.144531 137.652344 202.753906 140.398438 C 201.359375 143.160156 199.917969 146.011719 198.179688 149.046875 C 197.558594 150.199219 197.398438 150.460938 197.09375 150.46875 C 197.058594 150.46875 197.023438 150.464844 196.988281 150.464844 Z M 197.546875 129.308594 C 192.109375 135.023438 187.746094 141.609375 183.574219 148.070312 C 185.570312 147.140625 187.75 146.285156 190.042969 146.101562 C 192.65625 145.90625 195.652344 147.195312 197.042969 149.054688 C 197.132812 148.894531 197.226562 148.726562 197.3125 148.566406 C 199.046875 145.542969 200.484375 142.703125 201.871094 139.953125 C 203.203125 137.316406 204.582031 134.59375 206.222656 131.699219 C 202.8125 129.5 199.972656 128.71875 197.546875 129.308594 Z M 197.546875 129.308594 " fill-opacity="1" fill-rule="nonzero"/><path fill="#004aad" d="M 173.054688 127.199219 C 170.390625 125.746094 167.179688 129.585938 163.941406 130.878906 C 165.632812 137.324219 166.191406 139.5 167.878906 145.945312 C 167.878906 145.945312 168.1875 147.269531 168.238281 147.179688 C 169.523438 145.519531 172.867188 144.648438 175.324219 145.425781 C 177.78125 146.207031 179.820312 147.90625 181.785156 149.570312 C 179.378906 142 176.882812 134.207031 173.054688 127.199219 Z M 173.054688 127.199219 " fill-opacity="1" fill-rule="nonzero"/><path fill="#1a171b" d="M 181.472656 149.949219 C 179.644531 148.40625 177.574219 146.660156 175.175781 145.898438 C 172.941406 145.191406 169.820312 145.945312 168.675781 147.414062 C 168.578125 147.59375 168.378906 147.703125 168.167969 147.675781 C 167.777344 147.621094 167.707031 147.371094 167.402344 146.070312 C 166.558594 142.847656 165.996094 140.691406 165.433594 138.539062 C 164.871094 136.382812 164.308594 134.230469 163.464844 131.007812 C 163.398438 130.765625 163.527344 130.515625 163.757812 130.421875 C 164.816406 130 165.90625 129.269531 166.957031 128.5625 C 169.078125 127.140625 171.273438 125.664062 173.289062 126.765625 C 173.371094 126.8125 173.441406 126.882812 173.488281 126.964844 C 177.375 134.082031 179.859375 141.878906 182.257812 149.417969 C 182.324219 149.628906 182.246094 149.859375 182.0625 149.980469 C 181.984375 150.035156 181.890625 150.0625 181.800781 150.066406 C 181.683594 150.066406 181.5625 150.027344 181.472656 149.949219 Z M 167.507812 129.386719 C 166.539062 130.035156 165.542969 130.703125 164.527344 131.167969 C 165.3125 134.167969 165.851562 136.226562 166.390625 138.289062 C 166.953125 140.445312 167.511719 142.597656 168.363281 145.835938 C 168.394531 145.964844 168.429688 146.109375 168.460938 146.246094 C 170.136719 144.828125 173.167969 144.226562 175.472656 144.957031 C 177.484375 145.59375 179.234375 146.832031 180.804688 148.105469 C 178.585938 141.164062 176.222656 134.070312 172.691406 127.574219 C 171.222656 126.890625 169.417969 128.101562 167.507812 129.386719 Z M 167.507812 129.386719 " fill-opacity="1" fill-rule="nonzero"/><path fill="#463220" d="M 198.882812 347.160156 C 198.707031 349.953125 198.691406 352.75 198.839844 355.535156 C 198.886719 356.398438 198.960938 357.304688 199.476562 358 C 200.121094 358.867188 201.261719 359.300781 202.375 359.421875 C 208.773438 360.109375 215.226562 360.078125 221.675781 360.039062 C 228.234375 360.003906 234.824219 359.800781 241.351562 358.851562 C 242.660156 358.660156 243.234375 357.863281 243.417969 356.699219 C 243.777344 354.445312 244.101562 351.984375 242.898438 350.070312 C 241.996094 348.632812 240.390625 347.773438 238.855469 346.972656 C 236.714844 345.859375 234.574219 344.746094 232.4375 343.632812 C 230.679688 342.71875 228.867188 341.753906 227.722656 340.183594 C 226.945312 339.113281 226.503906 337.785156 225.480469 336.921875 C 223.84375 335.546875 221.316406 335.804688 219.164062 336.367188 C 216.710938 337.011719 214.332031 337.953125 212.105469 339.167969 C 211.648438 339.417969 211.164062 339.710938 210.960938 340.175781 C 210.65625 340.878906 211.105469 341.671875 210.929688 342.410156 C 210.609375 343.753906 208.707031 343.949219 207.289062 343.828125 C 203.304688 343.480469 199.207031 341.96875 198.882812 347.160156 Z M 198.882812 347.160156 " fill-opacity="1" fill-rule="nonzero"/><path fill="#1a171b" d="M 221.679688 360.5 C 215.351562 360.539062 208.808594 360.574219 202.328125 359.878906 C 201.503906 359.792969 199.992188 359.464844 199.109375 358.277344 C 198.527344 357.492188 198.429688 356.503906 198.382812 355.558594 C 198.234375 352.769531 198.25 349.933594 198.425781 347.132812 C 198.523438 345.523438 198.980469 344.402344 199.816406 343.714844 C 201.191406 342.585938 203.28125 342.859375 205.492188 343.152344 C 206.097656 343.234375 206.714844 343.316406 207.328125 343.371094 C 208.703125 343.488281 210.25 343.273438 210.480469 342.304688 C 210.542969 342.054688 210.5 341.761719 210.457031 341.449219 C 210.394531 341.003906 210.320312 340.496094 210.542969 339.992188 C 210.804688 339.390625 211.375 339.046875 211.886719 338.765625 C 214.148438 337.535156 216.558594 336.578125 219.046875 335.925781 C 222.0625 335.128906 224.324219 335.351562 225.777344 336.570312 C 226.492188 337.171875 226.933594 337.960938 227.363281 338.722656 C 227.601562 339.144531 227.828125 339.546875 228.097656 339.914062 C 229.195312 341.425781 231.03125 342.382812 232.648438 343.226562 L 239.066406 346.566406 C 240.507812 347.316406 242.296875 348.246094 243.289062 349.828125 C 244.535156 351.8125 244.277344 354.246094 243.875 356.773438 C 243.636719 358.253906 242.8125 359.105469 241.417969 359.308594 C 236.5 360.023438 231.621094 360.3125 226.929688 360.429688 C 225.148438 360.472656 223.394531 360.492188 221.679688 360.5 Z M 219.28125 336.8125 C 216.859375 337.449219 214.519531 338.375 212.320312 339.574219 C 211.941406 339.78125 211.527344 340.027344 211.378906 340.363281 C 211.265625 340.625 211.308594 340.949219 211.363281 341.324219 C 211.414062 341.6875 211.472656 342.097656 211.371094 342.519531 C 211.0625 343.824219 209.519531 344.484375 207.246094 344.285156 C 206.617188 344.230469 205.988281 344.148438 205.367188 344.066406 C 203.359375 343.800781 201.460938 343.550781 200.394531 344.425781 C 199.769531 344.945312 199.421875 345.847656 199.335938 347.191406 C 199.164062 349.957031 199.148438 352.757812 199.296875 355.511719 C 199.339844 356.351562 199.414062 357.152344 199.84375 357.730469 C 200.335938 358.390625 201.277344 358.84375 202.421875 358.964844 C 208.851562 359.65625 215.367188 359.617188 221.671875 359.582031 C 227.878906 359.546875 234.550781 359.378906 241.285156 358.398438 C 242.285156 358.253906 242.789062 357.722656 242.960938 356.625 C 243.335938 354.277344 243.582031 352.03125 242.503906 350.3125 C 241.644531 348.945312 240.046875 348.113281 238.640625 347.382812 L 232.21875 344.039062 C 230.511719 343.148438 228.574219 342.140625 227.351562 340.453125 C 227.050781 340.042969 226.800781 339.601562 226.5625 339.171875 C 226.152344 338.453125 225.769531 337.769531 225.179688 337.273438 C 224.429688 336.644531 223.382812 336.34375 222.046875 336.378906 C 221.234375 336.398438 220.308594 336.542969 219.28125 336.8125 Z M 207.277344 343.828125 L 207.289062 343.828125 Z M 207.277344 343.828125 " fill-opacity="1" fill-rule="nonzero"/><path fill="#463220" d="M 227.515625 343.296875 C 225.324219 343.140625 223.0625 343.6875 221.171875 344.828125 " fill-opacity="1" fill-rule="nonzero"/><path fill="#1a171b" d="M 220.777344 345.066406 C 220.644531 344.847656 220.714844 344.566406 220.933594 344.433594 C 222.910156 343.242188 225.261719 342.671875 227.546875 342.839844 C 227.800781 342.859375 227.992188 343.078125 227.972656 343.332031 C 227.953125 343.585938 227.726562 343.773438 227.484375 343.757812 C 225.378906 343.601562 223.222656 344.125 221.40625 345.222656 C 221.335938 345.265625 221.257812 345.285156 221.183594 345.289062 C 221.023438 345.292969 220.867188 345.210938 220.777344 345.066406 Z M 220.777344 345.066406 " fill-opacity="1" fill-rule="nonzero"/><path fill="#463220" d="M 230.195312 346.507812 C 228.078125 345.976562 225.851562 346.996094 223.863281 347.984375 " fill-opacity="1" fill-rule="nonzero"/><path fill="#1a171b" d="M 223.453125 348.1875 C 223.339844 347.960938 223.433594 347.683594 223.660156 347.570312 C 225.808594 346.503906 228.089844 345.507812 230.304688 346.058594 C 230.550781 346.121094 230.703125 346.371094 230.640625 346.617188 C 230.578125 346.863281 230.328125 347.007812 230.085938 346.953125 C 228.171875 346.476562 226.148438 347.363281 224.066406 348.394531 C 224.003906 348.425781 223.9375 348.441406 223.875 348.445312 C 223.703125 348.445312 223.535156 348.351562 223.453125 348.1875 Z M 223.453125 348.1875 " fill-opacity="1" fill-rule="nonzero"/><path fill="#463220" d="M 243.824219 355.871094 C 243.332031 355.976562 242.832031 356.0625 242.335938 356.136719 C 238.914062 356.644531 235.417969 356.625 231.976562 356.757812 C 228.316406 356.902344 224.65625 356.964844 220.996094 356.933594 C 213.6875 356.863281 206.386719 356.410156 199.175781 355.445312 " fill-opacity="1" fill-rule="nonzero"/><path fill="#1a171b" d="M 220.992188 357.390625 C 213.347656 357.320312 205.984375 356.820312 199.113281 355.898438 C 198.863281 355.867188 198.683594 355.636719 198.71875 355.382812 C 198.753906 355.132812 198.984375 354.957031 199.234375 354.988281 C 206.070312 355.902344 213.394531 356.402344 221 356.472656 C 224.542969 356.507812 228.230469 356.445312 231.957031 356.300781 C 232.75 356.269531 233.542969 356.246094 234.339844 356.222656 C 236.957031 356.148438 239.660156 356.070312 242.269531 355.683594 C 242.757812 355.609375 243.246094 355.527344 243.726562 355.421875 C 243.976562 355.363281 244.222656 355.527344 244.273438 355.773438 C 244.328125 356.023438 244.167969 356.265625 243.921875 356.320312 C 243.417969 356.425781 242.910156 356.515625 242.402344 356.589844 C 239.742188 356.988281 237.007812 357.066406 234.367188 357.140625 C 233.574219 357.164062 232.78125 357.1875 231.996094 357.21875 C 230.839844 357.261719 229.6875 357.300781 228.542969 357.328125 C 225.980469 357.394531 223.449219 357.414062 220.992188 357.390625 Z M 220.992188 357.390625 " fill-opacity="1" fill-rule="nonzero"/><path fill="#1a171b" d="M 182.074219 195.050781 C 180.828125 180.832031 180.703125 166.410156 181.671875 149.65625 C 181.683594 149.40625 181.921875 149.21875 182.152344 149.226562 C 182.402344 149.242188 182.597656 149.457031 182.582031 149.710938 C 181.617188 166.417969 181.742188 180.796875 182.984375 194.972656 C 183.003906 195.222656 182.820312 195.445312 182.566406 195.464844 C 182.558594 195.464844 182.550781 195.46875 182.539062 195.46875 C 182.300781 195.472656 182.09375 195.292969 182.074219 195.050781 Z M 182.074219 195.050781 " fill-opacity="1" fill-rule="nonzero"/><path fill="#1a171b" d="M 185.058594 160.660156 C 186.96875 160.609375 186.890625 157.644531 184.984375 157.691406 C 183.074219 157.742188 183.148438 160.707031 185.058594 160.660156 Z M 185.058594 160.660156 " fill-opacity="1" fill-rule="nonzero"/><path fill="#1a171b" d="M 185.117188 176.609375 C 187.027344 176.5625 186.949219 173.59375 185.042969 173.644531 C 183.128906 173.691406 183.207031 176.65625 185.117188 176.609375 Z M 185.117188 176.609375 " fill-opacity="1" fill-rule="nonzero"/><path fill="#1a171b" d="M 183.960938 189.78125 L 183.964844 189.894531 C 183.972656 190.164062 184.042969 190.410156 184.183594 190.640625 L 184.425781 190.933594 C 184.613281 191.113281 184.835938 191.234375 185.089844 191.300781 C 185.222656 191.3125 185.351562 191.328125 185.484375 191.34375 C 185.691406 191.34375 185.878906 191.296875 186.054688 191.203125 C 186.234375 191.136719 186.390625 191.03125 186.523438 190.882812 C 186.664062 190.746094 186.761719 190.582031 186.816406 190.398438 C 186.90625 190.21875 186.945312 190.027344 186.929688 189.824219 L 186.925781 189.710938 C 186.921875 189.441406 186.847656 189.195312 186.707031 188.964844 C 186.625 188.867188 186.546875 188.769531 186.464844 188.671875 C 186.277344 188.492188 186.054688 188.371094 185.800781 188.304688 C 185.667969 188.292969 185.539062 188.277344 185.40625 188.261719 C 185.203125 188.261719 185.011719 188.308594 184.835938 188.402344 C 184.65625 188.46875 184.5 188.574219 184.367188 188.722656 C 184.226562 188.859375 184.128906 189.023438 184.074219 189.207031 C 183.984375 189.386719 183.949219 189.578125 183.960938 189.78125 Z M 183.960938 189.78125 " fill-opacity="1" fill-rule="nonzero"/><path fill="#1a171b" d="M 186.476562 273.210938 C 185.117188 257.070312 184.257812 240.675781 183.921875 224.480469 C 183.917969 224.230469 184.117188 224.023438 184.367188 224.015625 C 184.367188 224.015625 184.367188 224.015625 184.371094 224.015625 C 184.621094 224.011719 184.832031 224.210938 184.835938 224.460938 C 185.167969 240.636719 186.027344 257.011719 187.386719 273.132812 C 187.40625 273.382812 187.21875 273.601562 186.96875 273.625 C 186.960938 273.625 186.953125 273.625 186.945312 273.625 C 186.703125 273.632812 186.5 273.449219 186.476562 273.210938 Z M 186.476562 273.210938 " fill-opacity="1" fill-rule="nonzero"/><path fill="#1a171b" d="M 191.785156 228.089844 C 186.691406 226.078125 181.761719 223.570312 177.136719 220.632812 C 176.921875 220.496094 176.859375 220.21875 176.996094 220.003906 C 177.128906 219.789062 177.410156 219.726562 177.625 219.863281 C 182.203125 222.769531 187.082031 225.25 192.121094 227.242188 C 192.355469 227.332031 192.46875 227.597656 192.378906 227.832031 C 192.308594 228.007812 192.144531 228.117188 191.964844 228.121094 C 191.90625 228.121094 191.84375 228.109375 191.785156 228.089844 Z M 191.785156 228.089844 " fill-opacity="1" fill-rule="nonzero"/><path fill="#1a171b" d="M 190.613281 316.410156 C 190.371094 316.34375 190.230469 316.09375 190.296875 315.851562 C 190.363281 315.605469 190.609375 315.464844 190.855469 315.53125 C 203.996094 319.144531 218.496094 317.667969 230.640625 311.480469 C 230.863281 311.363281 231.136719 311.457031 231.253906 311.679688 C 231.367188 311.902344 231.277344 312.179688 231.054688 312.292969 C 223.574219 316.105469 215.222656 318.15625 206.824219 318.367188 C 201.359375 318.503906 195.878906 317.859375 190.613281 316.410156 Z M 190.613281 316.410156 " fill-opacity="1" fill-rule="nonzero"/><path fill="#1a171b" d="M 147.414062 316.765625 C 147.175781 316.679688 147.054688 316.417969 147.144531 316.179688 C 147.230469 315.945312 147.496094 315.820312 147.730469 315.910156 C 159.214844 320.167969 172.402344 320.210938 183.914062 316.027344 C 184.152344 315.9375 184.414062 316.0625 184.5 316.300781 C 184.585938 316.535156 184.460938 316.796875 184.226562 316.882812 C 178.851562 318.835938 173.121094 319.886719 167.359375 320.027344 C 160.566406 320.199219 153.734375 319.109375 147.414062 316.765625 Z M 147.414062 316.765625 " fill-opacity="1" fill-rule="nonzero"/><path fill="#1a171b" d="M 225.644531 314.078125 C 221.417969 278.195312 218.847656 244.054688 217.792969 209.703125 C 217.785156 209.449219 217.984375 209.238281 218.234375 209.234375 C 218.234375 209.234375 218.238281 209.234375 218.238281 209.234375 C 218.488281 209.226562 218.695312 209.421875 218.703125 209.671875 C 219.757812 244 222.324219 278.117188 226.550781 313.96875 C 226.578125 314.21875 226.398438 314.445312 226.148438 314.476562 C 226.132812 314.476562 226.121094 314.476562 226.105469 314.480469 C 225.875 314.484375 225.671875 314.3125 225.644531 314.078125 Z M 225.644531 314.078125 " fill-opacity="1" fill-rule="nonzero"/><path fill="#1a171b" d="M 157.234375 181.507812 C 156.089844 176.632812 155.195312 171.636719 154.578125 166.65625 C 154.546875 166.40625 154.300781 166.230469 154.070312 166.261719 C 153.820312 166.289062 153.640625 166.519531 153.671875 166.769531 C 154.292969 171.78125 155.191406 176.808594 156.34375 181.714844 C 156.394531 181.929688 156.589844 182.074219 156.800781 182.070312 C 156.832031 182.066406 156.863281 182.0625 156.894531 182.054688 C 157.140625 182 157.289062 181.753906 157.234375 181.507812 Z M 157.234375 181.507812 " fill-opacity="1" fill-rule="nonzero"/><path fill="#1a171b" d="M 221.269531 174.671875 C 221.019531 174.648438 220.832031 174.429688 220.855469 174.179688 C 221.199219 170.195312 221.671875 166.175781 222.25 162.226562 C 222.289062 161.976562 222.511719 161.808594 222.769531 161.839844 C 223.019531 161.878906 223.191406 162.109375 223.152344 162.359375 C 222.574219 166.289062 222.105469 170.292969 221.765625 174.257812 C 221.742188 174.492188 221.550781 174.667969 221.320312 174.675781 C 221.304688 174.675781 221.285156 174.671875 221.269531 174.671875 Z M 221.269531 174.671875 " fill-opacity="1" fill-rule="nonzero"/><path fill="#1a171b" d="M 101.402344 158.976562 C 98.503906 157.355469 95.644531 155.574219 92.90625 153.679688 C 92.6875 153.527344 92.632812 153.226562 92.785156 153.007812 C 92.9375 152.785156 93.238281 152.734375 93.457031 152.882812 C 96.171875 154.761719 99.003906 156.527344 101.875 158.128906 C 102.109375 158.257812 102.191406 158.554688 102.0625 158.785156 C 101.976562 158.941406 101.816406 159.03125 101.652344 159.035156 C 101.570312 159.039062 101.484375 159.019531 101.402344 158.976562 Z M 101.402344 158.976562 " fill-opacity="1" fill-rule="nonzero"/><path fill="#1a171b" d="M 98.21875 164.101562 C 97.992188 163.964844 97.917969 163.664062 98.054688 163.4375 C 100.015625 160.179688 102.355469 157.140625 105.007812 154.414062 C 105.195312 154.222656 105.5 154.21875 105.691406 154.402344 C 105.882812 154.589844 105.886719 154.898438 105.703125 155.089844 C 103.101562 157.765625 100.808594 160.738281 98.886719 163.933594 C 98.796875 164.082031 98.640625 164.164062 98.484375 164.167969 C 98.394531 164.171875 98.304688 164.148438 98.21875 164.101562 Z M 98.21875 164.101562 " fill-opacity="1" fill-rule="nonzero"/><path fill="#1a171b" d="M 111.058594 164.546875 C 110.445312 164.109375 109.960938 163.457031 109.53125 162.503906 C 108.875 161.03125 108.574219 159.402344 108.664062 157.789062 C 108.679688 157.519531 108.925781 157.316406 109.175781 157.332031 C 109.441406 157.347656 109.644531 157.574219 109.628906 157.84375 C 109.550781 159.300781 109.820312 160.777344 110.417969 162.105469 C 110.769531 162.898438 111.152344 163.425781 111.621094 163.761719 C 111.839844 163.917969 111.890625 164.21875 111.734375 164.4375 C 111.640625 164.566406 111.496094 164.636719 111.351562 164.640625 C 111.25 164.644531 111.148438 164.613281 111.058594 164.546875 Z M 111.058594 164.546875 " fill-opacity="1" fill-rule="nonzero"/><path fill="#004aad" d="M 226.449219 137.222656 C 230.550781 141.121094 234.152344 145.5625 238.339844 149.382812 C 239.488281 150.425781 240.753906 151.460938 242.285156 151.726562 C 244.878906 152.171875 247.710938 150.082031 249.6875 148.335938 C 254.132812 152.925781 259.96875 158.027344 264.808594 162.191406 C 263.289062 165.1875 261.359375 167.511719 259.488281 170.304688 C 257.609375 173.105469 255.503906 175.84375 252.683594 177.695312 C 249.863281 179.542969 246.195312 180.382812 243.058594 179.148438 C 241.914062 178.699219 240.886719 178 239.871094 177.308594 C 237.863281 175.933594 227.140625 168.550781 225.132812 167.046875 C 223.320312 161.949219 227.652344 158.785156 227.390625 153.089844 C 226.488281 146.402344 228.058594 143.640625 226.449219 137.222656 Z M 226.449219 137.222656 " fill-opacity="1" fill-rule="nonzero"/><path fill="#1a171b" d="M 235.492188 173.492188 C 237.019531 174.644531 238.601562 175.839844 240.152344 176.898438 C 241.132812 177.566406 242.148438 178.257812 243.242188 178.6875 C 245.992188 179.765625 249.421875 179.242188 252.414062 177.277344 C 255.25 175.417969 257.375 172.570312 259.082031 170.023438 C 259.65625 169.167969 260.234375 168.359375 260.804688 167.554688 C 262.03125 165.839844 263.195312 164.210938 264.195312 162.3125 C 259.34375 158.136719 253.894531 153.34375 249.660156 149.015625 C 246.730469 151.523438 244.289062 152.570312 242.199219 152.210938 C 240.507812 151.917969 239.148438 150.785156 238.011719 149.746094 C 235.75 147.683594 233.628906 145.40625 231.582031 143.207031 C 229.992188 141.496094 228.367188 139.757812 226.664062 138.101562 C 226.515625 137.507812 226.367188 136.914062 226.21875 136.320312 C 228.359375 138.304688 230.355469 140.441406 232.304688 142.539062 C 234.339844 144.722656 236.441406 146.984375 238.675781 149.019531 C 239.710938 149.964844 240.9375 150.996094 242.367188 151.242188 C 244.21875 151.5625 246.507812 150.492188 249.359375 147.96875 C 249.558594 147.792969 249.859375 147.808594 250.042969 147.996094 C 254.378906 152.46875 260.101562 157.496094 265.132812 161.820312 C 265.304688 161.972656 265.355469 162.21875 265.25 162.417969 C 264.179688 164.535156 262.929688 166.285156 261.609375 168.136719 C 261.042969 168.929688 260.46875 169.734375 259.898438 170.582031 C 258.136719 173.207031 255.933594 176.15625 252.953125 178.109375 C 249.691406 180.25 245.925781 180.808594 242.875 179.613281 C 241.675781 179.140625 240.617188 178.417969 239.59375 177.71875 C 238.023438 176.644531 236.433594 175.445312 234.894531 174.285156 C 234.644531 174.097656 234.394531 173.910156 234.144531 173.722656 C 233.941406 173.164062 233.550781 172.566406 233.355469 172 C 234.011719 172.484375 234.851562 173.007812 235.492188 173.492188 Z M 235.492188 173.492188 " fill-opacity="1" fill-rule="nonzero"/><path fill="#ffffff" d="M 149.898438 44.222656 C 154.738281 44.972656 151.191406 54.378906 150.886719 57.039062 C 150.242188 62.738281 151.664062 68.441406 151.691406 74.167969 C 151.699219 75.65625 151.601562 77.179688 150.964844 78.558594 C 150.328125 79.933594 149.058594 81.152344 147.445312 81.457031 C 145.25 81.875 143.042969 80.472656 142.015625 78.679688 C 140.984375 76.886719 140.863281 74.789062 140.78125 72.765625 C 140.632812 69.007812 140.539062 65.25 140.464844 61.492188 C 140.414062 58.960938 140.375 56.390625 141.097656 53.941406 C 141.886719 51.261719 145.980469 43.617188 149.898438 44.222656 Z M 149.898438 44.222656 " fill-opacity="1" fill-rule="nonzero"/><path fill="#1a171b" d="M 141.648438 78.890625 C 140.53125 76.941406 140.4375 74.636719 140.363281 72.78125 C 140.203125 68.792969 140.113281 64.839844 140.042969 61.5 C 139.996094 59.097656 139.941406 56.375 140.695312 53.824219 C 141.351562 51.59375 145.492188 43.113281 149.964844 43.808594 C 150.890625 43.953125 151.605469 44.390625 152.089844 45.113281 C 153.574219 47.324219 152.542969 51.632812 151.789062 54.777344 C 151.5625 55.738281 151.363281 56.566406 151.304688 57.085938 C 150.921875 60.441406 151.277344 63.878906 151.621094 67.203125 C 151.855469 69.476562 152.097656 71.832031 152.109375 74.164062 C 152.117188 75.664062 152.027344 77.253906 151.34375 78.734375 C 150.585938 80.363281 149.125 81.566406 147.519531 81.867188 C 147.289062 81.910156 147.058594 81.9375 146.832031 81.945312 C 144.628906 82.03125 142.605469 80.550781 141.648438 78.890625 Z M 141.496094 54.058594 C 140.78125 56.488281 140.832031 59.027344 140.882812 61.480469 C 140.949219 64.816406 141.039062 68.765625 141.199219 72.746094 C 141.269531 74.507812 141.359375 76.699219 142.375 78.46875 C 143.28125 80.046875 145.289062 81.441406 147.367188 81.046875 C 148.707031 80.792969 149.941406 79.769531 150.585938 78.382812 C 151.199219 77.050781 151.277344 75.570312 151.273438 74.167969 C 151.261719 71.878906 151.023438 69.546875 150.789062 67.289062 C 150.441406 63.917969 150.082031 60.4375 150.472656 56.992188 C 150.539062 56.417969 150.742188 55.566406 150.976562 54.582031 C 151.652344 51.753906 152.675781 47.484375 151.398438 45.582031 C 151.042969 45.054688 150.53125 44.746094 149.835938 44.636719 C 149.679688 44.613281 149.519531 44.605469 149.355469 44.609375 C 146.023438 44.738281 142.335938 51.222656 141.496094 54.058594 Z M 141.496094 54.058594 " fill-opacity="1" fill-rule="nonzero"/><path fill="#f2cec2" d="M 231.550781 77.035156 C 238.59375 59.152344 234.199219 39.898438 217.886719 28.949219 C 214.734375 26.832031 211.328125 25.089844 207.777344 23.738281 C 180.511719 13.34375 144.03125 28.109375 144.386719 60.851562 C 144.441406 66.15625 146.109375 71.210938 146.382812 76.476562 C 146.683594 81.898438 145.1875 87.285156 145.359375 92.710938 C 145.683594 102.640625 151.886719 111.90625 160.4375 116.953125 C 168.988281 122.003906 179.546875 123.066406 189.246094 120.9375 C 202.519531 118.027344 216.386719 110.027344 222.414062 97.441406 C 225.96875 98.207031 229.835938 96.011719 231.871094 93 C 233.90625 89.996094 234.433594 86.175781 234.121094 82.542969 C 233.9375 80.445312 233.339844 78.148438 231.550781 77.035156 Z M 231.550781 77.035156 " fill-opacity="1" fill-rule="nonzero"/><path fill="#1a171b" d="M 234.539062 82.507812 C 234.300781 79.804688 233.46875 77.914062 232.0625 76.875 C 239.320312 58.085938 233.867188 39.167969 218.121094 28.601562 C 214.980469 26.496094 211.550781 24.726562 207.929688 23.34375 C 192.367188 17.414062 173.757812 19.542969 160.519531 28.773438 C 149.703125 36.308594 143.824219 47.707031 143.96875 60.859375 C 144 63.734375 144.503906 66.570312 144.992188 69.3125 C 145.410156 71.660156 145.839844 74.082031 145.964844 76.496094 C 146.117188 79.273438 145.789062 82.101562 145.46875 84.839844 C 145.167969 87.414062 144.859375 90.078125 144.945312 92.722656 C 145.257812 102.363281 151.253906 112.015625 160.226562 117.3125 C 166.328125 120.917969 173.785156 122.648438 181.464844 122.355469 C 184.078125 122.257812 186.714844 121.921875 189.335938 121.347656 C 201.183594 118.75 216.109375 111.230469 222.648438 97.914062 C 226.429688 98.546875 230.296875 96.082031 232.21875 93.234375 C 234.597656 89.726562 234.789062 85.46875 234.539062 82.507812 Z M 231.527344 92.761719 C 229.707031 95.457031 226.023438 97.785156 222.5 97.03125 C 222.46875 97.023438 222.429688 97.019531 222.398438 97.019531 C 222.246094 97.027344 222.105469 97.117188 222.035156 97.257812 C 215.703125 110.484375 200.898438 117.953125 189.15625 120.527344 C 179.035156 122.746094 168.648438 121.3125 160.652344 116.589844 C 151.921875 111.4375 146.085938 102.058594 145.78125 92.695312 C 145.699219 90.113281 146.003906 87.480469 146.304688 84.933594 C 146.625 82.164062 146.960938 79.296875 146.800781 76.453125 C 146.675781 73.984375 146.238281 71.535156 145.816406 69.167969 C 145.335938 66.457031 144.835938 63.65625 144.804688 60.847656 C 144.667969 47.980469 150.417969 36.832031 161 29.457031 C 174.015625 20.382812 192.320312 18.292969 207.632812 24.128906 C 211.195312 25.488281 214.566406 27.226562 217.65625 29.300781 C 233.148438 39.695312 238.449219 58.371094 231.164062 76.882812 C 231.089844 77.070312 231.160156 77.285156 231.332031 77.390625 C 232.675781 78.226562 233.476562 79.972656 233.703125 82.578125 C 233.945312 85.402344 233.765625 89.460938 231.527344 92.761719 Z M 231.527344 92.761719 " fill-opacity="1" fill-rule="nonzero"/><path fill="#f2cec2" d="M 145.214844 51.945312 C 145.117188 52.433594 145.03125 52.921875 144.96875 53.410156 C 144.96875 53.410156 145.074219 52.816406 145.324219 51.804688 C 145.257812 51.851562 145.222656 51.898438 145.214844 51.945312 Z M 145.214844 51.945312 " fill-opacity="1" fill-rule="nonzero"/><path fill="#1a171b" d="M 144.90625 53.824219 C 144.679688 53.789062 144.523438 53.582031 144.554688 53.359375 C 144.617188 52.859375 144.703125 52.363281 144.800781 51.859375 C 144.835938 51.703125 144.925781 51.570312 145.078125 51.460938 C 145.21875 51.359375 145.410156 51.355469 145.554688 51.453125 C 145.703125 51.554688 145.769531 51.730469 145.730469 51.902344 C 145.484375 52.894531 145.382812 53.476562 145.382812 53.484375 C 145.347656 53.679688 145.175781 53.824219 144.984375 53.832031 C 144.960938 53.832031 144.933594 53.828125 144.90625 53.824219 Z M 144.90625 53.824219 " fill-opacity="1" fill-rule="nonzero"/><path fill="#ffffff" d="M 183.046875 80.214844 C 184.453125 83.546875 187.777344 85.859375 191.613281 85.800781 C 195.519531 85.738281 198.8125 83.238281 200.070312 79.773438 " fill-opacity="1" fill-rule="nonzero"/><path fill="#ffffff" d="M 200.070312 79.773438 C 200.441406 78.757812 200.632812 77.65625 200.617188 76.511719 C 200.535156 71.460938 196.378906 67.429688 191.328125 67.507812 C 186.277344 67.589844 182.25 71.746094 182.328125 76.796875 C 182.34375 78.007812 182.597656 79.164062 183.042969 80.214844 " fill-opacity="1" fill-rule="nonzero"/><path fill="#1a171b" d="M 182.707031 75.894531 C 182.921875 74.480469 183.46875 73.148438 184.253906 72 C 185.066406 70.871094 186.113281 69.921875 187.320312 69.265625 C 188.535156 68.625 189.886719 68.257812 191.253906 68.226562 C 193.996094 68.132812 196.722656 69.433594 198.4375 71.636719 C 200.152344 73.832031 200.816406 76.882812 200.070312 79.773438 C 201.398438 77.085938 201.117188 73.59375 199.34375 70.984375 C 198.460938 69.683594 197.25 68.589844 195.832031 67.859375 C 194.414062 67.144531 192.8125 66.765625 191.21875 66.800781 C 189.625 66.863281 188.042969 67.300781 186.660156 68.09375 C 185.300781 68.917969 184.125 70.042969 183.320312 71.398438 C 182.515625 72.753906 182.070312 74.296875 182.011719 75.835938 C 181.980469 77.375 182.320312 78.910156 183.046875 80.214844 C 182.613281 78.789062 182.488281 77.3125 182.707031 75.894531 Z M 182.707031 75.894531 " fill-opacity="1" fill-rule="nonzero"/><path fill="#1a171b" d="M 195.203125 76.855469 C 195.203125 77.246094 195.167969 77.636719 195.089844 78.019531 C 195.011719 78.402344 194.902344 78.777344 194.75 79.136719 C 194.601562 79.5 194.417969 79.839844 194.199219 80.167969 C 193.984375 80.492188 193.734375 80.792969 193.460938 81.070312 C 193.183594 81.347656 192.882812 81.59375 192.554688 81.8125 C 192.230469 82.027344 191.886719 82.210938 191.527344 82.359375 C 191.164062 82.511719 190.792969 82.625 190.410156 82.699219 C 190.023438 82.777344 189.636719 82.816406 189.246094 82.816406 C 188.855469 82.816406 188.46875 82.777344 188.085938 82.699219 C 187.699219 82.625 187.328125 82.511719 186.964844 82.359375 C 186.605469 82.210938 186.261719 82.027344 185.9375 81.8125 C 185.609375 81.59375 185.308594 81.347656 185.035156 81.070312 C 184.757812 80.792969 184.511719 80.492188 184.292969 80.167969 C 184.074219 79.839844 183.890625 79.5 183.742188 79.136719 C 183.59375 78.777344 183.480469 78.402344 183.402344 78.019531 C 183.328125 77.636719 183.289062 77.246094 183.289062 76.855469 C 183.289062 76.464844 183.328125 76.078125 183.402344 75.695312 C 183.480469 75.3125 183.59375 74.9375 183.742188 74.578125 C 183.890625 74.214844 184.074219 73.871094 184.292969 73.546875 C 184.511719 73.222656 184.757812 72.921875 185.035156 72.644531 C 185.308594 72.367188 185.609375 72.121094 185.9375 71.902344 C 186.261719 71.6875 186.605469 71.503906 186.964844 71.351562 C 187.328125 71.203125 187.699219 71.089844 188.085938 71.011719 C 188.46875 70.9375 188.855469 70.898438 189.246094 70.898438 C 189.636719 70.898438 190.023438 70.9375 190.410156 71.011719 C 190.792969 71.089844 191.164062 71.203125 191.527344 71.351562 C 191.886719 71.503906 192.230469 71.6875 192.554688 71.902344 C 192.882812 72.121094 193.183594 72.367188 193.460938 72.644531 C 193.734375 72.921875 193.984375 73.222656 194.199219 73.546875 C 194.417969 73.871094 194.601562 74.214844 194.75 74.578125 C 194.902344 74.9375 195.011719 75.3125 195.089844 75.695312 C 195.167969 76.078125 195.203125 76.464844 195.203125 76.855469 Z M 195.203125 76.855469 " fill-opacity="1" fill-rule="nonzero"/><path fill="#ffffff" d="M 150.941406 80.882812 C 152.351562 84.210938 155.671875 86.523438 159.511719 86.464844 C 163.414062 86.402344 166.710938 83.90625 167.96875 80.441406 " fill-opacity="1" fill-rule="nonzero"/><path fill="#ffffff" d="M 167.96875 80.441406 C 168.335938 79.425781 168.53125 78.324219 168.511719 77.175781 C 168.433594 72.128906 164.277344 68.097656 159.226562 68.175781 C 154.175781 68.253906 150.144531 72.410156 150.222656 77.460938 C 150.242188 78.675781 150.496094 79.828125 150.941406 80.878906 " fill-opacity="1" fill-rule="nonzero"/><path fill="#1a171b" d="M 150.601562 76.558594 C 150.816406 75.144531 151.363281 73.8125 152.148438 72.667969 C 152.964844 71.539062 154.007812 70.585938 155.21875 69.933594 C 156.429688 69.289062 157.78125 68.921875 159.148438 68.894531 C 161.890625 68.796875 164.621094 70.101562 166.332031 72.304688 C 168.046875 74.496094 168.710938 77.550781 167.96875 80.441406 C 169.292969 77.753906 169.011719 74.257812 167.238281 71.652344 C 166.359375 70.351562 165.144531 69.253906 163.730469 68.527344 C 162.3125 67.808594 160.710938 67.429688 159.113281 67.46875 C 157.519531 67.527344 155.9375 67.96875 154.554688 68.757812 C 153.199219 69.585938 152.019531 70.710938 151.214844 72.066406 C 150.414062 73.417969 149.96875 74.964844 149.910156 76.503906 C 149.875 78.042969 150.214844 79.574219 150.941406 80.882812 C 150.507812 79.457031 150.386719 77.976562 150.601562 76.558594 Z M 150.601562 76.558594 " fill-opacity="1" fill-rule="nonzero"/><path fill="#1a171b" d="M 163.425781 77.648438 C 163.425781 78.039062 163.386719 78.429688 163.3125 78.8125 C 163.234375 79.195312 163.121094 79.566406 162.972656 79.929688 C 162.824219 80.289062 162.640625 80.632812 162.421875 80.960938 C 162.203125 81.285156 161.957031 81.585938 161.679688 81.863281 C 161.40625 82.140625 161.105469 82.386719 160.777344 82.601562 C 160.453125 82.820312 160.109375 83.003906 159.75 83.152344 C 159.386719 83.304688 159.015625 83.417969 158.628906 83.492188 C 158.246094 83.570312 157.859375 83.609375 157.46875 83.609375 C 157.078125 83.609375 156.691406 83.570312 156.304688 83.492188 C 155.921875 83.417969 155.550781 83.304688 155.1875 83.152344 C 154.828125 83.003906 154.484375 82.820312 154.160156 82.601562 C 153.832031 82.386719 153.53125 82.140625 153.253906 81.863281 C 152.980469 81.585938 152.730469 81.285156 152.515625 80.960938 C 152.296875 80.632812 152.113281 80.289062 151.964844 79.929688 C 151.8125 79.566406 151.703125 79.195312 151.625 78.8125 C 151.546875 78.429688 151.511719 78.039062 151.511719 77.648438 C 151.511719 77.257812 151.546875 76.871094 151.625 76.488281 C 151.703125 76.101562 151.8125 75.730469 151.964844 75.371094 C 152.113281 75.007812 152.296875 74.664062 152.515625 74.339844 C 152.730469 74.015625 152.980469 73.714844 153.253906 73.4375 C 153.53125 73.160156 153.832031 72.914062 154.160156 72.695312 C 154.484375 72.476562 154.828125 72.292969 155.1875 72.144531 C 155.550781 71.996094 155.921875 71.882812 156.304688 71.804688 C 156.691406 71.730469 157.078125 71.691406 157.46875 71.691406 C 157.859375 71.691406 158.246094 71.730469 158.628906 71.804688 C 159.015625 71.882812 159.386719 71.996094 159.75 72.144531 C 160.109375 72.292969 160.453125 72.476562 160.777344 72.695312 C 161.105469 72.914062 161.40625 73.160156 161.679688 73.4375 C 161.957031 73.714844 162.203125 74.015625 162.421875 74.339844 C 162.640625 74.664062 162.824219 75.007812 162.972656 75.371094 C 163.121094 75.730469 163.234375 76.101562 163.3125 76.488281 C 163.386719 76.871094 163.425781 77.257812 163.425781 77.648438 Z M 163.425781 77.648438 " fill-opacity="1" fill-rule="nonzero"/><path fill="#1a171b" d="M 174.863281 89.304688 C 172.988281 89.222656 172.808594 87.613281 172.675781 86.4375 C 172.523438 85.113281 172.414062 83.695312 172.34375 82.234375 C 172.332031 82.003906 172.511719 81.808594 172.742188 81.796875 C 172.746094 81.796875 172.746094 81.796875 172.746094 81.796875 C 172.976562 81.789062 173.171875 81.964844 173.183594 82.195312 C 173.25 83.640625 173.359375 85.035156 173.507812 86.34375 C 173.660156 87.667969 173.796875 88.417969 174.902344 88.464844 C 175.726562 88.503906 176.546875 88.386719 177.332031 88.125 C 177.554688 88.050781 177.792969 88.171875 177.863281 88.390625 C 177.9375 88.613281 177.816406 88.847656 177.597656 88.921875 C 176.910156 89.148438 176.203125 89.277344 175.484375 89.304688 C 175.277344 89.3125 175.070312 89.3125 174.863281 89.304688 Z M 174.863281 89.304688 " fill-opacity="1" fill-rule="nonzero"/><path fill="#ffffff" d="M 153.527344 64.699219 C 154.929688 64.226562 156.164062 63.882812 157.359375 63.582031 C 158.53125 63.300781 159.753906 63.039062 161.160156 62.839844 C 162.039062 62.714844 162.964844 62.609375 164.0625 62.558594 C 165.261719 62.503906 166 61.140625 165.296875 60.171875 C 164.527344 59.121094 163.445312 58.289062 162.261719 57.730469 C 160.28125 56.800781 157.945312 56.578125 155.753906 57.132812 C 153.578125 57.671875 151.652344 58.933594 150.324219 60.59375 C 149.546875 61.578125 148.949219 62.707031 148.65625 63.921875 C 148.367188 65.117188 149.566406 66.136719 150.71875 65.703125 C 151.757812 65.3125 152.660156 64.984375 153.527344 64.699219 Z M 153.527344 64.699219 " fill-opacity="1" fill-rule="nonzero"/><path fill="#1a171b" d="M 148.855469 65.722656 C 148.304688 65.238281 148.082031 64.53125 148.25 63.824219 C 148.546875 62.605469 149.132812 61.429688 150 60.332031 C 151.417969 58.5625 153.425781 57.28125 155.652344 56.730469 C 157.9375 56.152344 160.347656 56.375 162.445312 57.355469 C 163.757812 57.976562 164.863281 58.867188 165.636719 59.929688 C 166.042969 60.488281 166.105469 61.203125 165.796875 61.839844 C 165.476562 62.507812 164.820312 62.945312 164.082031 62.980469 C 162.90625 63.035156 161.933594 63.15625 161.21875 63.257812 C 159.722656 63.46875 158.476562 63.746094 157.457031 63.992188 C 156.0625 64.339844 154.890625 64.679688 153.65625 65.097656 C 152.886719 65.351562 152.050781 65.648438 150.863281 66.09375 C 150.660156 66.171875 150.453125 66.210938 150.246094 66.222656 C 149.742188 66.242188 149.242188 66.066406 148.855469 65.722656 Z M 150.566406 65.3125 C 151.769531 64.859375 152.613281 64.558594 153.394531 64.304688 C 154.644531 63.878906 155.835938 63.53125 157.261719 63.175781 C 158.300781 62.925781 159.570312 62.640625 161.101562 62.425781 C 161.835938 62.324219 162.832031 62.199219 164.042969 62.140625 C 164.472656 62.121094 164.855469 61.867188 165.042969 61.476562 C 165.214844 61.117188 165.183594 60.730469 164.957031 60.417969 C 164.265625 59.472656 163.273438 58.671875 162.085938 58.109375 C 160.167969 57.210938 157.953125 57.007812 155.851562 57.542969 C 153.804688 58.046875 151.953125 59.226562 150.652344 60.851562 C 149.863281 61.851562 149.328125 62.917969 149.0625 64.023438 C 148.964844 64.417969 149.097656 64.816406 149.40625 65.09375 C 149.734375 65.382812 150.167969 65.464844 150.566406 65.3125 Z M 150.566406 65.3125 " fill-opacity="1" fill-rule="nonzero"/><path fill="#ffffff" d="M 190.863281 61.75 C 192.34375 61.8125 193.621094 61.933594 194.839844 62.085938 C 196.039062 62.242188 197.273438 62.433594 198.660156 62.753906 C 199.710938 63 200.816406 63.289062 202.167969 63.777344 C 202.929688 64.050781 203.742188 63.4375 203.648438 62.632812 C 203.453125 61.035156 202.628906 59.542969 201.519531 58.378906 C 200 56.800781 197.902344 55.757812 195.65625 55.488281 C 193.433594 55.210938 191.183594 55.695312 189.347656 56.769531 C 188.007812 57.566406 186.847656 58.667969 186.125 60.0625 C 185.746094 60.792969 186.277344 61.671875 187.101562 61.675781 C 188.554688 61.679688 189.746094 61.695312 190.863281 61.75 Z M 190.863281 61.75 " fill-opacity="1" fill-rule="nonzero"/><path fill="#1a171b" d="M 202.023438 64.167969 C 200.609375 63.660156 199.480469 63.375 198.5625 63.164062 C 197.09375 62.824219 195.828125 62.636719 194.789062 62.5 C 193.363281 62.324219 192.148438 62.222656 190.84375 62.167969 C 189.75 62.117188 188.597656 62.101562 187.097656 62.09375 C 186.566406 62.09375 186.082031 61.816406 185.804688 61.359375 C 185.527344 60.902344 185.507812 60.34375 185.753906 59.867188 C 186.460938 58.496094 187.632812 57.300781 189.136719 56.40625 C 191.097656 55.261719 193.429688 54.785156 195.707031 55.070312 C 198.046875 55.351562 200.21875 56.421875 201.820312 58.089844 C 203.074219 59.402344 203.871094 61 204.0625 62.578125 C 204.125 63.09375 203.914062 63.597656 203.503906 63.925781 C 203.242188 64.132812 202.929688 64.25 202.605469 64.261719 C 202.410156 64.269531 202.214844 64.238281 202.023438 64.167969 Z M 189.5625 57.128906 C 188.195312 57.941406 187.136719 59.023438 186.5 60.253906 C 186.386719 60.46875 186.394531 60.722656 186.523438 60.925781 C 186.648438 61.136719 186.859375 61.257812 187.101562 61.257812 C 188.617188 61.261719 189.777344 61.277344 190.882812 61.332031 C 192.1875 61.386719 193.464844 61.492188 194.894531 61.667969 C 195.957031 61.808594 197.25 62 198.753906 62.347656 C 199.695312 62.5625 200.855469 62.859375 202.308594 63.382812 C 202.535156 63.464844 202.792969 63.421875 202.984375 63.269531 C 203.167969 63.121094 203.257812 62.90625 203.230469 62.679688 C 203.0625 61.277344 202.34375 59.851562 201.214844 58.667969 C 199.75 57.140625 197.757812 56.160156 195.605469 55.902344 C 195.082031 55.835938 194.558594 55.816406 194.039062 55.835938 C 192.460938 55.894531 190.914062 56.335938 189.5625 57.128906 Z M 189.5625 57.128906 " fill-opacity="1" fill-rule="nonzero"/><path fill="#1a171b" d="M 225.003906 91.933594 C 224.550781 91.699219 224.242188 91.210938 224.175781 90.628906 C 224.121094 90.148438 224.226562 89.683594 224.332031 89.285156 C 225.132812 86.222656 226.746094 83.425781 228.992188 81.191406 C 229.15625 81.027344 229.421875 81.03125 229.585938 81.191406 C 229.746094 81.359375 229.746094 81.621094 229.582031 81.785156 C 227.441406 83.914062 225.90625 86.582031 225.140625 89.5 C 225.050781 89.839844 224.96875 90.199219 225.007812 90.53125 C 225.035156 90.769531 225.152344 91.066406 225.390625 91.191406 C 225.785156 91.394531 226.332031 91.058594 226.492188 90.949219 C 227.011719 90.597656 227.425781 90.113281 227.695312 89.542969 C 227.796875 89.335938 228.046875 89.246094 228.253906 89.347656 C 228.464844 89.445312 228.550781 89.695312 228.453125 89.902344 C 228.121094 90.605469 227.605469 91.207031 226.964844 91.644531 C 226.550781 91.925781 226.128906 92.078125 225.738281 92.089844 C 225.476562 92.101562 225.230469 92.050781 225.003906 91.933594 Z M 225.003906 91.933594 " fill-opacity="1" fill-rule="nonzero"/><path fill="#ffffff" d="M 232.832031 76.316406 C 234.453125 75.140625 235.261719 70.566406 235.746094 68.730469 C 237.171875 63.328125 237.535156 57.636719 236.765625 52.097656 C 236.542969 50.492188 236.210938 48.855469 235.375 47.464844 C 234.535156 46.074219 233.101562 44.949219 231.480469 44.867188 C 230.203125 44.804688 228.992188 45.371094 227.804688 45.84375 C 225.464844 46.769531 223 47.363281 220.496094 47.601562 C 218.492188 47.789062 216.277344 47.824219 214.773438 49.167969 C 213.789062 50.046875 213.292969 51.367188 213.109375 52.675781 C 212.140625 59.554688 218.683594 65.285156 219.648438 72.164062 C 220.21875 76.261719 218.753906 80.398438 219.023438 84.527344 C 219.0625 85.09375 219.140625 85.691406 219.484375 86.148438 C 220.214844 87.128906 221.828125 86.964844 222.746094 86.15625 C 223.664062 85.347656 224.078125 84.128906 224.503906 82.980469 C 225.140625 81.28125 225.914062 79.578125 227.210938 78.3125 C 228.96875 76.597656 231.210938 77.492188 232.832031 76.316406 Z M 232.832031 76.316406 " fill-opacity="1" fill-rule="nonzero"/><path fill="#1a171b" d="M 220.679688 87.226562 C 220.039062 87.160156 219.496094 86.867188 219.144531 86.398438 C 218.742188 85.855469 218.644531 85.191406 218.605469 84.550781 C 218.480469 82.613281 218.730469 80.664062 218.972656 78.777344 C 219.25 76.613281 219.535156 74.378906 219.230469 72.222656 C 218.824219 69.320312 217.367188 66.5625 215.953125 63.894531 C 214.070312 60.332031 212.125 56.65625 212.695312 52.617188 C 212.851562 51.492188 213.292969 49.929688 214.496094 48.855469 C 215.933594 47.570312 217.886719 47.402344 219.777344 47.242188 L 220.457031 47.183594 C 222.925781 46.949219 225.34375 46.367188 227.648438 45.457031 L 228.066406 45.289062 C 229.15625 44.847656 230.285156 44.386719 231.5 44.453125 C 233.121094 44.53125 234.742188 45.605469 235.730469 47.25 C 236.625 48.734375 236.957031 50.433594 237.179688 52.042969 C 237.949219 57.566406 237.589844 63.375 236.148438 68.839844 C 236.070312 69.140625 235.980469 69.515625 235.882812 69.9375 C 235.351562 72.1875 234.554688 75.585938 233.074219 76.65625 C 232.265625 77.242188 231.339844 77.363281 230.445312 77.484375 C 229.382812 77.625 228.378906 77.757812 227.5 78.613281 C 226.226562 79.859375 225.46875 81.597656 224.894531 83.128906 L 224.820312 83.332031 C 224.398438 84.46875 223.964844 85.640625 223.019531 86.472656 C 222.496094 86.9375 221.773438 87.214844 221.074219 87.242188 C 220.941406 87.246094 220.808594 87.242188 220.679688 87.226562 Z M 226.917969 78.015625 C 227.992188 76.964844 229.238281 76.796875 230.339844 76.652344 C 231.167969 76.542969 231.949219 76.4375 232.585938 75.976562 C 233.8125 75.085938 234.597656 71.742188 235.066406 69.742188 C 235.167969 69.3125 235.257812 68.929688 235.339844 68.625 C 236.753906 63.265625 237.101562 57.570312 236.347656 52.15625 C 236.136719 50.632812 235.828125 49.039062 235.011719 47.683594 C 234.164062 46.273438 232.800781 45.355469 231.457031 45.289062 C 230.417969 45.238281 229.382812 45.660156 228.378906 46.066406 L 227.957031 46.234375 C 225.578125 47.175781 223.082031 47.777344 220.535156 48.015625 L 219.847656 48.078125 C 218.09375 48.226562 216.28125 48.378906 215.050781 49.480469 C 214.039062 50.386719 213.660156 51.75 213.523438 52.734375 C 212.992188 56.503906 214.789062 59.902344 216.695312 63.503906 C 218.140625 66.234375 219.632812 69.058594 220.058594 72.109375 C 220.378906 74.375 220.082031 76.667969 219.800781 78.886719 C 219.5625 80.730469 219.320312 82.644531 219.441406 84.5 C 219.472656 85.007812 219.542969 85.53125 219.816406 85.898438 C 220.082031 86.253906 220.480469 86.367188 220.765625 86.394531 C 221.347656 86.457031 222.015625 86.238281 222.46875 85.84375 C 223.253906 85.152344 223.652344 84.078125 224.035156 83.042969 L 224.113281 82.835938 C 224.714844 81.214844 225.523438 79.375 226.917969 78.015625 Z M 226.917969 78.015625 " fill-opacity="1" fill-rule="nonzero"/><path fill="#1a171b" d="M 198.070312 98.386719 C 196.253906 95.003906 193.140625 92.324219 189.523438 91.042969 C 189.304688 90.964844 189.191406 90.726562 189.265625 90.507812 C 189.34375 90.289062 189.585938 90.175781 189.800781 90.25 C 193.613281 91.605469 196.898438 94.425781 198.808594 97.988281 C 198.917969 98.195312 198.839844 98.449219 198.636719 98.554688 C 198.59375 98.578125 198.546875 98.59375 198.5 98.601562 C 198.332031 98.628906 198.15625 98.546875 198.070312 98.386719 Z M 198.070312 98.386719 " fill-opacity="1" fill-rule="nonzero"/><path fill="#1a171b" d="M 158.261719 102.136719 C 158.042969 102.0625 157.921875 101.828125 157.992188 101.605469 C 158.972656 98.632812 160.839844 95.898438 163.257812 93.910156 C 163.433594 93.761719 163.699219 93.785156 163.847656 93.964844 C 163.992188 94.144531 163.96875 94.410156 163.789062 94.554688 C 161.496094 96.445312 159.71875 99.042969 158.792969 101.867188 C 158.730469 102.054688 158.554688 102.167969 158.367188 102.15625 C 158.332031 102.152344 158.296875 102.148438 158.261719 102.136719 Z M 158.261719 102.136719 " fill-opacity="1" fill-rule="nonzero"/><path fill="#1a171b" d="M 187.707031 99.351562 C 186.417969 100.9375 184.648438 102.160156 182.667969 102.824219 C 180.675781 103.460938 178.527344 103.515625 176.550781 102.992188 C 174.574219 102.488281 172.738281 101.421875 171.476562 99.902344 C 173.183594 100.878906 174.976562 101.476562 176.796875 101.710938 C 178.613281 101.925781 180.457031 101.796875 182.148438 101.230469 C 183.851562 100.691406 185.414062 99.710938 186.753906 98.464844 C 188.085938 97.203125 189.183594 95.660156 189.984375 93.867188 C 189.859375 95.835938 189.003906 97.777344 187.707031 99.351562 Z M 187.707031 99.351562 " fill-opacity="1" fill-rule="nonzero"/><path fill="#004aad" d="M 234.785156 173.566406 L 222.496094 165.3125 " fill-opacity="1" fill-rule="nonzero"/><path fill="#1a171b" d="M 222.210938 165.726562 L 222.773438 164.890625 L 235.0625 173.144531 L 234.5 173.980469 Z M 222.210938 165.726562 " fill-opacity="1" fill-rule="nonzero"/><path fill="#463220" d="M 214.4375 131.214844 C 213.703125 135.179688 213.398438 139.210938 213.101562 143.230469 C 211.867188 159.757812 210.773438 176.09375 210.230469 192.660156 C 209.675781 192.53125 209.09375 192.660156 208.539062 192.789062 C 207.5625 193.015625 206.347656 193.132812 205.375 193.359375 C 205.144531 181.046875 205.902344 168.742188 206.660156 156.449219 C 207.179688 147.96875 207.703125 139.464844 209.175781 131.097656 C 210.972656 130.863281 212.808594 130.421875 214.4375 131.214844 Z M 214.4375 131.214844 " fill-opacity="1" fill-rule="nonzero"/><path fill="#1a171b" d="M 204.964844 193.882812 L 204.953125 193.367188 C 204.726562 181.035156 205.496094 168.523438 206.242188 156.421875 C 206.753906 148.066406 207.285156 139.425781 208.765625 131.023438 L 208.816406 130.71875 L 209.125 130.679688 C 209.386719 130.644531 209.648438 130.605469 209.910156 130.570312 C 211.484375 130.339844 213.113281 130.105469 214.621094 130.835938 L 214.90625 130.976562 L 214.847656 131.289062 C 214.117188 135.238281 213.8125 139.316406 213.519531 143.261719 C 212.363281 158.753906 211.214844 175.464844 210.648438 192.671875 L 210.632812 193.179688 L 210.136719 193.066406 C 209.664062 192.957031 209.117188 193.085938 208.636719 193.199219 C 208.132812 193.3125 207.570312 193.402344 207.027344 193.488281 C 206.496094 193.570312 205.941406 193.65625 205.46875 193.765625 Z M 209.535156 131.46875 C 208.105469 139.730469 207.582031 148.242188 207.074219 156.472656 C 206.34375 168.390625 205.585938 180.710938 205.78125 192.847656 C 206.148438 192.777344 206.527344 192.71875 206.898438 192.660156 C 207.425781 192.578125 207.976562 192.492188 208.445312 192.382812 C 208.851562 192.289062 209.324219 192.179688 209.828125 192.191406 C 210.394531 175.128906 211.535156 158.566406 212.683594 143.199219 C 212.96875 139.34375 213.265625 135.355469 213.964844 131.464844 C 212.761719 131.003906 211.429688 131.195312 210.027344 131.398438 C 209.863281 131.421875 209.699219 131.445312 209.535156 131.46875 Z M 209.535156 131.46875 " fill-opacity="1" fill-rule="nonzero"/><path fill="#463220" d="M 156.074219 134.617188 C 157.003906 138.433594 157.472656 141.171875 157.96875 145.066406 C 160.015625 161.0625 161.710938 176.535156 163.070312 192.605469 C 163.601562 192.78125 164.398438 192.894531 164.960938 192.992188 C 165.945312 193.164062 167.167969 193.21875 168.152344 193.390625 C 167.773438 181.417969 166.414062 169.496094 165.054688 157.59375 C 164.117188 149.375 163.070312 139.597656 161.1875 131.535156 C 159.457031 131.992188 158.285156 132.832031 156.074219 134.617188 Z M 156.074219 134.617188 " fill-opacity="1" fill-rule="nonzero"/><path fill="#1a171b" d="M 168.582031 193.882812 L 168.082031 193.796875 C 167.601562 193.710938 167.046875 193.65625 166.507812 193.601562 C 165.960938 193.546875 165.394531 193.488281 164.890625 193.398438 L 164.554688 193.34375 C 164.015625 193.253906 163.402344 193.152344 162.9375 192.996094 L 162.679688 192.910156 L 162.65625 192.640625 C 161.378906 177.484375 159.710938 161.941406 157.558594 145.117188 C 157.035156 141.003906 156.539062 138.28125 155.671875 134.714844 L 155.609375 134.460938 L 155.8125 134.296875 C 158.035156 132.507812 159.277344 131.613281 161.082031 131.136719 L 161.492188 131.027344 L 161.589844 131.441406 C 163.359375 139.015625 164.382812 148.023438 165.285156 155.972656 L 165.464844 157.542969 C 166.804688 169.261719 168.1875 181.378906 168.566406 193.375 Z M 163.457031 192.285156 C 163.835938 192.386719 164.300781 192.464844 164.691406 192.527344 L 165.03125 192.585938 C 165.507812 192.667969 166.0625 192.726562 166.59375 192.777344 C 166.96875 192.816406 167.355469 192.855469 167.722656 192.90625 C 167.324219 181.105469 165.960938 169.179688 164.644531 157.640625 L 164.464844 156.066406 C 163.578125 148.289062 162.578125 139.496094 160.882812 132.054688 C 159.484375 132.5 158.402344 133.277344 156.535156 134.777344 C 157.375 138.25 157.863281 140.964844 158.378906 145.011719 C 160.515625 161.742188 162.179688 177.210938 163.457031 192.285156 Z M 163.457031 192.285156 " fill-opacity="1" fill-rule="nonzero"/><path fill="#ffffff" d="M 230.945312 35.84375 C 227.507812 28.441406 221.753906 22.136719 214.699219 18.035156 C 207.648438 13.933594 199.320312 12.058594 191.1875 12.738281 C 177.914062 13.84375 165.886719 21.445312 152.640625 22.855469 C 149.804688 23.15625 146.921875 23.171875 144.148438 23.835938 C 141.375 24.5 138.632812 25.933594 137.167969 28.378906 C 135.421875 31.292969 135.820312 35.027344 136.917969 38.238281 C 138.261719 42.15625 140.566406 45.738281 143.570312 48.582031 C 144.757812 49.699219 146.066406 50.71875 147.570312 51.347656 C 149.050781 51.964844 150.664062 52.1875 152.257812 52.355469 C 159.949219 53.164062 167.75 52.894531 175.363281 51.554688 C 182.738281 50.253906 190.339844 47.964844 197.554688 49.96875 C 200.984375 50.925781 204.082031 52.804688 207.414062 54.0625 C 211.546875 55.625 216.105469 56.214844 220.433594 55.324219 C 230.148438 53.328125 235.234375 45.085938 230.945312 35.84375 Z M 230.945312 35.84375 " fill-opacity="1" fill-rule="nonzero"/><path fill="#1a171b" d="M 216.238281 56.164062 C 213.304688 56.164062 210.265625 55.589844 207.265625 54.453125 C 205.910156 53.941406 204.578125 53.320312 203.289062 52.71875 C 201.40625 51.839844 199.457031 50.933594 197.441406 50.371094 C 191.648438 48.761719 185.484375 49.992188 179.519531 51.179688 C 178.15625 51.453125 176.792969 51.726562 175.4375 51.964844 C 167.769531 53.3125 159.957031 53.585938 152.214844 52.769531 C 150.644531 52.605469 148.976562 52.386719 147.410156 51.734375 C 146.050781 51.164062 144.738281 50.257812 143.285156 48.886719 C 140.226562 45.992188 137.886719 42.359375 136.523438 38.375 C 135.554688 35.550781 134.820312 31.484375 136.808594 28.164062 C 138.164062 25.90625 140.734375 24.222656 144.050781 23.429688 C 146.011719 22.960938 148.039062 22.804688 150 22.660156 C 150.867188 22.59375 151.734375 22.527344 152.597656 22.4375 C 159.019531 21.753906 165.277344 19.5625 171.332031 17.441406 C 177.710938 15.203125 184.3125 12.890625 191.152344 12.320312 C 199.359375 11.632812 207.792969 13.539062 214.910156 17.675781 C 222.027344 21.8125 227.859375 28.203125 231.324219 35.667969 C 233.324219 39.972656 233.410156 44.355469 231.574219 48.003906 C 229.597656 51.929688 225.667969 54.675781 220.519531 55.734375 C 219.128906 56.019531 217.695312 56.164062 216.238281 56.164062 Z M 191.363281 48.761719 C 193.484375 48.761719 195.59375 48.988281 197.667969 49.566406 C 199.75 50.144531 201.730469 51.070312 203.644531 51.960938 C 204.917969 52.554688 206.238281 53.171875 207.5625 53.671875 C 211.902344 55.3125 216.324219 55.742188 220.347656 54.914062 C 225.242188 53.90625 228.964844 51.320312 230.824219 47.628906 C 232.546875 44.210938 232.453125 40.089844 230.5625 36.019531 C 227.167969 28.707031 221.460938 22.449219 214.488281 18.398438 C 207.519531 14.347656 199.253906 12.488281 191.222656 13.152344 C 184.488281 13.714844 177.941406 16.007812 171.609375 18.230469 C 165.507812 20.367188 159.203125 22.574219 152.683594 23.269531 C 151.816406 23.363281 150.941406 23.425781 150.066406 23.492188 C 148.136719 23.636719 146.140625 23.789062 144.25 24.242188 C 141.152344 24.984375 138.765625 26.53125 137.527344 28.59375 C 135.703125 31.636719 136.40625 35.445312 137.316406 38.101562 C 138.636719 41.957031 140.898438 45.476562 143.859375 48.273438 C 145.238281 49.578125 146.46875 50.429688 147.734375 50.960938 C 149.195312 51.570312 150.792969 51.777344 152.304688 51.933594 C 159.96875 52.742188 167.703125 52.472656 175.292969 51.136719 C 176.640625 50.898438 177.996094 50.628906 179.355469 50.359375 C 183.316406 49.570312 187.363281 48.761719 191.363281 48.761719 Z M 191.363281 48.761719 " fill-opacity="1" fill-rule="nonzero"/></svg>