<svg xmlns="http://www.w3.org/2000/svg" xmlns:xlink="http://www.w3.org/1999/xlink" width="500" zoomAndPan="magnify" viewBox="0 0 375 374.999991" height="500" preserveAspectRatio="xMidYMid meet" version="1.0"><defs><clipPath id="d90b58ed69"><path d="M 51.089844 150 L 88 150 L 88 182 L 51.089844 182 Z M 51.089844 150 " clip-rule="nonzero"/></clipPath></defs><path fill="#000000" d="M 100.980469 188.023438 C 98.261719 187.890625 94.519531 191.039062 97.441406 193.886719 C 100.242188 196.621094 103.648438 193.785156 103.332031 190.394531 C 103.175781 188.769531 102.175781 188.078125 100.980469 188.023438 Z M 100.980469 188.023438 " fill-opacity="1" fill-rule="nonzero"/><path fill="#000000" d="M 134.84375 174.230469 C 138.652344 170.878906 130.894531 165.691406 128.691406 171.253906 C 127.242188 174.910156 132.792969 176.808594 134.84375 174.230469 Z M 134.84375 174.230469 " fill-opacity="1" fill-rule="nonzero"/><path fill="#000000" d="M 119.058594 193.328125 C 116.917969 193.328125 116.917969 196.640625 119.058594 196.640625 C 121.195312 196.640625 121.195312 193.328125 119.058594 193.328125 Z M 119.058594 193.328125 " fill-opacity="1" fill-rule="nonzero"/><path fill="#000000" d="M 124.292969 189.421875 C 121.652344 189.421875 121.652344 193.515625 124.292969 193.515625 C 126.933594 193.515625 126.929688 189.421875 124.292969 189.421875 Z M 124.292969 189.421875 " fill-opacity="1" fill-rule="nonzero"/><path fill="#000000" d="M 95.050781 166.28125 C 94.707031 166.027344 94.03125 166.28125 92.824219 167.410156 C 90.292969 169.773438 90.105469 173.574219 91.480469 176.578125 C 92.398438 178.582031 97.492188 180.359375 96.617188 176.738281 C 96.269531 175.292969 94.746094 174.070312 94.636719 172.445312 C 94.558594 171.261719 95.96875 166.957031 95.050781 166.28125 Z M 95.050781 166.28125 " fill-opacity="1" fill-rule="nonzero"/><path fill="#000000" d="M 101.910156 167.296875 C 101.246094 166.199219 101.109375 164.917969 100.214844 163.976562 C 100.082031 163.84375 99.921875 163.777344 99.730469 163.777344 C 99.542969 163.777344 99.378906 163.84375 99.246094 163.976562 C 96.648438 166.707031 99.132812 172.484375 102.917969 172.578125 C 104.203125 172.609375 105.15625 171.050781 104.429688 169.941406 C 103.734375 168.882812 102.574219 168.398438 101.910156 167.296875 Z M 101.910156 167.296875 " fill-opacity="1" fill-rule="nonzero"/><path fill="#000000" d="M 104.605469 160.648438 C 104.433594 160.609375 104.324219 160.671875 104.269531 160.84375 C 103.773438 162.097656 104.429688 163.414062 105.183594 164.421875 C 105.9375 165.429688 107.121094 167.222656 108.433594 167.414062 C 109.417969 167.558594 110.550781 167.003906 110.488281 165.84375 C 110.417969 164.34375 109.066406 163.398438 107.957031 162.546875 C 106.949219 161.765625 105.894531 160.910156 104.605469 160.648438 Z M 104.605469 160.648438 " fill-opacity="1" fill-rule="nonzero"/><path fill="#000000" d="M 114.558594 157.167969 C 112.941406 156.382812 110.410156 155.796875 108.972656 157.226562 C 108.824219 157.371094 108.804688 157.53125 108.910156 157.710938 C 109.734375 158.8125 111.140625 159.425781 112.367188 159.984375 C 113.253906 160.394531 114.011719 160.96875 114.746094 161.601562 C 115.511719 162.261719 115.882812 163.007812 116.941406 163.210938 C 117.953125 163.402344 118.710938 162.789062 118.816406 161.78125 C 119.039062 159.644531 116.21875 157.976562 114.558594 157.167969 Z M 114.558594 157.167969 " fill-opacity="1" fill-rule="nonzero"/><path fill="#000000" d="M 92.292969 127.625 C 91.871094 126.554688 89.617188 131.652344 89.519531 131.9375 C 88.867188 133.890625 87.691406 138.050781 89.0625 139.929688 C 91.214844 142.890625 92.488281 138.339844 92.453125 136.910156 C 92.378906 134.175781 93.28125 130.179688 92.292969 127.625 Z M 92.292969 127.625 " fill-opacity="1" fill-rule="nonzero"/><path fill="#000000" d="M 85.941406 133.9375 C 85.558594 131.3125 83.917969 128.878906 82.003906 127.097656 C 80.675781 125.867188 76.695312 122.632812 78.140625 126.738281 C 79.019531 129.234375 80.53125 131.65625 81.652344 134.070312 C 82.636719 136.191406 86.472656 137.5625 85.941406 133.9375 Z M 85.941406 133.9375 " fill-opacity="1" fill-rule="nonzero"/><path fill="#000000" d="M 72.464844 136.105469 C 73.273438 137.878906 75.488281 139.476562 76.839844 140.867188 C 78 142.0625 79.226562 143.75 80.660156 144.632812 C 82.09375 145.519531 84.191406 146.164062 84.792969 144.074219 C 85.476562 141.675781 82.589844 138.808594 80.90625 137.609375 C 79.03125 136.273438 74.503906 134.273438 72.464844 136.105469 Z M 72.464844 136.105469 " fill-opacity="1" fill-rule="nonzero"/><g clip-path="url(#d90b58ed69)"><path fill="#000000" d="M 74.253906 178.375 C 78.738281 172.085938 85.132812 166.570312 86.988281 158.765625 C 87.347656 157.253906 85.265625 156.3125 84.460938 157.699219 C 81.878906 162.136719 78.789062 166.710938 75.148438 170.320312 C 74.214844 171.246094 73.316406 172.148438 72.441406 173.144531 C 70.984375 174.804688 70.023438 174.628906 68.871094 172.816406 C 67.242188 170.25 65.070312 168.15625 63 165.953125 C 60.601562 163.414062 57.5625 160.234375 55.855469 157.246094 C 54.167969 154.289062 64.519531 154.804688 65.457031 154.847656 C 71.589844 155.128906 78.066406 156.015625 84.113281 154.734375 C 84.746094 154.601562 84.746094 153.59375 84.113281 153.464844 C 75.441406 151.636719 67.003906 150.402344 58.132812 150.992188 C 55.101562 151.191406 51.902344 151.164062 51.539062 155.015625 C 51.085938 159.890625 55.996094 163.039062 58.382812 166.679688 C 61.308594 171.152344 64.664062 174.773438 67.144531 179.539062 C 69.214844 183.53125 72.667969 180.59375 74.253906 178.375 Z M 74.253906 178.375 " fill-opacity="1" fill-rule="nonzero"/></g><path fill="#000000" d="M 123.511719 142.425781 C 120.390625 141.742188 118.113281 140.929688 114.890625 141.730469 C 110.308594 142.871094 105.335938 143.984375 101.566406 146.957031 C 100.648438 147.683594 101.679688 148.851562 102.585938 148.707031 C 108.585938 147.734375 115.007812 143.226562 121.160156 145.449219 C 123.601562 146.335938 128.03125 147.722656 129.039062 144.074219 C 129.691406 141.699219 127.234375 137.144531 126.414062 134.859375 C 125.539062 132.429688 124.214844 130.195312 123.292969 127.78125 C 122.382812 125.394531 122.109375 122.871094 121.429688 120.417969 C 120.785156 118.082031 119.035156 115.003906 116.160156 115.628906 C 112.585938 116.40625 111.511719 118.789062 110.046875 121.824219 C 108.289062 125.476562 107.117188 129.472656 105.230469 133.0625 C 103.476562 136.402344 101.15625 139.359375 99.355469 142.644531 C 99.265625 142.808594 99.285156 142.957031 99.417969 143.089844 C 99.550781 143.222656 99.699219 143.242188 99.863281 143.148438 C 104.667969 140.523438 106.789062 137.074219 109.765625 132.480469 C 111.410156 129.949219 112.566406 126.765625 113.796875 124.015625 C 114.300781 122.882812 114.839844 121.769531 115.453125 120.695312 C 117.15625 117.6875 118.042969 124.621094 118.132812 125.488281 C 118.65625 130.628906 121.433594 134.835938 123.042969 139.621094 C 123.304688 140.433594 124.996094 142.75 123.511719 142.425781 Z M 123.511719 142.425781 " fill-opacity="1" fill-rule="nonzero"/><path fill="#000000" d="M 165.007812 161.0625 C 163.585938 161.242188 160.957031 161.863281 162.160156 163.917969 C 163.160156 165.628906 166.011719 165.234375 167.363281 164.234375 C 170.671875 161.785156 170.332031 156.132812 166.632812 154.152344 C 164.578125 153.050781 162.417969 153.152344 160.457031 154.371094 C 158.921875 155.320312 157.671875 156.632812 157.902344 158.546875 C 158.03125 159.617188 159.257812 160.363281 160.136719 159.472656 C 160.636719 158.96875 160.796875 158.246094 161.339844 157.8125 C 162.277344 157.070312 163.289062 156.492188 164.488281 157.039062 C 165.582031 157.542969 166.890625 160.824219 165.007812 161.0625 Z M 165.007812 161.0625 " fill-opacity="1" fill-rule="nonzero"/><path fill="#000000" d="M 78.078125 214.441406 C 76.621094 214.152344 76 214.898438 74.746094 215.324219 C 73.898438 215.609375 73.390625 215.421875 72.96875 214.671875 C 72.441406 213.726562 72.992188 212.816406 73.636719 212.09375 C 74.378906 211.261719 75.5625 211.433594 76.238281 210.617188 C 76.519531 210.273438 76.550781 209.9375 76.375 209.535156 C 75.578125 207.699219 72.4375 209.101562 71.390625 209.871094 C 69.640625 211.15625 68.144531 213.609375 68.792969 215.871094 C 69.617188 218.753906 71.273438 220.289062 74.355469 220.519531 C 76.789062 220.703125 79.824219 218.386719 79.429688 215.792969 C 79.339844 215.183594 78.667969 214.558594 78.078125 214.441406 Z M 78.078125 214.441406 " fill-opacity="1" fill-rule="nonzero"/><path fill="#000000" d="M 141.109375 232.910156 C 139.804688 233.835938 138 233.308594 136.707031 232.738281 C 135.417969 232.164062 134.425781 230.910156 133.652344 229.769531 C 133.34375 229.3125 132.703125 228.460938 132.027344 228.910156 C 130.378906 230.011719 131.542969 232.554688 132.484375 233.722656 C 134.0625 235.683594 136.097656 236.90625 138.582031 237.222656 C 142.769531 237.765625 145.660156 234.640625 146.011719 231.105469 C 146.730469 231.371094 147.464844 231.578125 148.214844 231.730469 C 150.984375 232.257812 153.839844 230.589844 154.945312 228.035156 C 155.914062 225.785156 155.285156 223.480469 154.125 221.441406 C 153.75 220.785156 152.421875 219.359375 151.601562 219.417969 C 150.023438 219.53125 150.914062 221.074219 151.167969 222.15625 C 151.511719 223.585938 152.21875 224.699219 151.855469 226.242188 C 151.414062 228.121094 149.023438 228.363281 147.503906 228.015625 C 145.773438 227.617188 144.84375 225.417969 143.191406 225.289062 C 141.753906 225.175781 140.496094 226.691406 141.429688 227.992188 C 142.578125 229.597656 142.878906 231.65625 141.109375 232.910156 Z M 141.109375 232.910156 " fill-opacity="1" fill-rule="nonzero"/><path fill="#000000" d="M 153.867188 236.4375 C 151.730469 237.003906 149.585938 238.402344 147.640625 239.457031 C 145.902344 240.398438 143.828125 241.238281 142.488281 242.75 C 141.859375 243.453125 142.257812 244.664062 143.277344 244.652344 C 147.398438 244.621094 151.988281 242.222656 155.464844 240.226562 C 157.519531 239.042969 156.132812 235.839844 153.867188 236.4375 Z M 153.867188 236.4375 " fill-opacity="1" fill-rule="nonzero"/><path fill="#000000" d="M 161.089844 245.71875 C 158.636719 245.855469 156.347656 246.519531 153.824219 246.457031 C 150.628906 246.367188 147.371094 246.023438 144.203125 246.570312 C 143.296875 246.726562 142.972656 248.078125 143.648438 248.660156 C 146.324219 250.96875 150.5 250.375 153.824219 250.625 C 156.667969 250.839844 159.492188 250.539062 162.054688 249.28125 C 163.753906 248.445312 162.953125 245.617188 161.089844 245.71875 Z M 161.089844 245.71875 " fill-opacity="1" fill-rule="nonzero"/><path fill="#000000" d="M 153.191406 259.78125 C 156.066406 260.265625 157.332031 256.144531 154.417969 255.332031 C 152.148438 254.703125 149.96875 253.894531 147.777344 253.050781 C 145.632812 252.230469 143.929688 250.285156 141.496094 250.550781 C 140.734375 250.636719 140.027344 251.449219 140.542969 252.214844 C 143.429688 256.492188 148.140625 258.925781 153.191406 259.78125 Z M 153.191406 259.78125 " fill-opacity="1" fill-rule="nonzero"/><path fill="#000000" d="M 107.0625 257.988281 C 105.523438 258.007812 105.070312 259.371094 105.175781 260.703125 C 105.339844 262.820312 102.53125 263.820312 100.835938 263.5625 C 98.683594 263.238281 98.511719 260.855469 99.253906 259.242188 C 99.917969 257.792969 101.835938 257.023438 103.101562 256.214844 C 103.808594 255.769531 103.597656 254.859375 102.886719 254.570312 C 100.433594 253.574219 97.25 255.054688 95.984375 257.332031 C 94.359375 260.265625 94.429688 263.289062 96.6875 265.855469 C 98.914062 268.390625 102.445312 268.519531 105.335938 267.117188 C 108.460938 265.605469 109.601562 262.6875 108.9375 259.417969 C 108.769531 258.585938 107.882812 257.980469 107.0625 257.988281 Z M 107.0625 257.988281 " fill-opacity="1" fill-rule="nonzero"/><path fill="#000000" d="M 138.917969 224.703125 C 161.796875 214.246094 177.480469 184.75 160.648438 162.65625 C 146.867188 144.5625 118.203125 144.804688 99.839844 155.003906 C 100.796875 153.421875 101.210938 151.207031 101.171875 149.703125 C 101.066406 145.277344 96.199219 143.011719 92.351562 143.019531 C 88.101562 143.027344 84.453125 146.171875 84.585938 150.449219 C 84.714844 154.601562 88.425781 158.007812 92.519531 158.136719 C 93.582031 158.167969 93.78125 156.566406 92.769531 156.300781 C 88.074219 155.078125 86.8125 145.761719 93.226562 146.671875 C 95.550781 147.003906 97.402344 148.238281 97.347656 150.679688 C 97.296875 152.667969 96.101562 152.941406 94.914062 154.175781 C 94.089844 155.039062 94.546875 156.242188 95.566406 156.644531 C 96.761719 157.113281 97.738281 156.949219 98.523438 156.429688 C 98.253906 157.8125 99.777344 159.398438 101.464844 158.597656 C 118.644531 150.492188 139.785156 149.207031 154.351562 163.25 C 173.941406 182.136719 158.246094 209.585938 138.316406 220.226562 C 121.085938 229.433594 95.386719 229.675781 83.929688 211.550781 C 78.695312 203.269531 78.003906 193.09375 80.40625 183.792969 C 83.242188 172.800781 91.71875 167.257812 98.941406 159.496094 C 99.140625 159.28125 99.167969 159.050781 99.023438 158.800781 C 98.875 158.546875 98.660156 158.457031 98.375 158.527344 C 87.878906 160.6875 80.648438 171.65625 77.113281 181.121094 C 73.289062 191.367188 74.378906 202.585938 79.398438 212.179688 C 90.789062 233.984375 119.335938 233.652344 138.917969 224.703125 Z M 138.917969 224.703125 " fill-opacity="1" fill-rule="nonzero"/><path fill="#000000" d="M 126.316406 246.503906 C 128.898438 245.660156 129.148438 241.664062 129.210938 239.246094 C 129.285156 236.460938 129.703125 233.609375 128.234375 231.058594 C 127.847656 230.390625 126.941406 230.601562 126.703125 231.257812 C 125.9375 233.378906 125.707031 235.871094 125.660156 238.109375 C 125.609375 240.648438 123.761719 243.742188 125.191406 246.050781 C 125.417969 246.414062 125.886719 246.644531 126.316406 246.503906 Z M 126.316406 246.503906 " fill-opacity="1" fill-rule="nonzero"/><path fill="#000000" d="M 124.683594 252.550781 C 124.65625 252.3125 124.359375 252.210938 124.140625 252.332031 C 122.742188 253.117188 122.105469 254.414062 121.304688 255.792969 C 120.199219 257.675781 118.953125 259.464844 117.5625 261.148438 C 115.796875 263.320312 112.015625 265.796875 112.613281 268.859375 C 112.707031 269.332031 113.21875 269.679688 113.683594 269.671875 C 116.757812 269.636719 119.089844 265.503906 120.730469 263.222656 C 122.523438 260.730469 125.195312 256.699219 124.683594 252.550781 Z M 124.683594 252.550781 " fill-opacity="1" fill-rule="nonzero"/><path fill="#000000" d="M 194.859375 234.734375 C 195.347656 234.417969 195.359375 233.5 194.683594 233.386719 C 191.472656 232.835938 188.484375 233.339844 185.238281 233.402344 C 179.941406 233.507812 174.234375 231.519531 169.667969 229.019531 C 163.363281 225.570312 160.296875 219.226562 154.859375 215.050781 C 154.632812 214.871094 154.253906 215.113281 154.269531 215.390625 C 155.285156 230.800781 182.457031 242.789062 194.859375 234.734375 Z M 194.859375 234.734375 " fill-opacity="1" fill-rule="nonzero"/><path fill="#000000" d="M 157.886719 215.886719 C 163.148438 223.621094 179.839844 225.847656 187.75 221.792969 C 188.753906 221.277344 188.242188 219.769531 187.199219 219.753906 C 181.863281 219.660156 177.039062 220.464844 171.671875 219.441406 C 167.054688 218.558594 162.6875 215.640625 158.019531 215.652344 C 157.960938 215.652344 157.917969 215.679688 157.886719 215.730469 C 157.859375 215.78125 157.855469 215.832031 157.886719 215.886719 Z M 157.886719 215.886719 " fill-opacity="1" fill-rule="nonzero"/><path fill="#000000" d="M 201.105469 219.96875 C 201.105469 216.570312 198.824219 214.382812 195.480469 214.289062 C 193.121094 214.226562 188.617188 215.566406 188.898438 218.566406 C 188.972656 219.324219 189.726562 219.601562 190.308594 219.148438 C 190.84375 218.730469 191.203125 218.246094 191.828125 217.933594 C 192.742188 217.476562 193.910156 217.328125 194.910156 217.257812 C 197.132812 217.097656 197.179688 219.523438 196.542969 220.941406 C 196.027344 222.09375 195.15625 222.996094 193.792969 222.8125 C 192.394531 222.621094 192.261719 221.386719 190.503906 221.351562 C 189.25 221.332031 188.261719 222.621094 188.621094 223.828125 C 189.535156 226.902344 193.019531 227.535156 195.78125 227.0625 C 198.753906 226.5625 201.109375 222.828125 201.105469 219.96875 Z M 201.105469 219.96875 " fill-opacity="1" fill-rule="nonzero"/><path fill="#000000" d="M 173.773438 198.214844 C 170.105469 199.953125 169.253906 204.335938 170.984375 207.828125 C 174.488281 214.894531 183.367188 215.5625 188.921875 210.300781 C 189.332031 209.917969 189.691406 209.429688 190.0625 209.058594 C 189.851562 209.273438 193.765625 211.71875 194.203125 211.90625 C 196.054688 212.714844 198.082031 213.007812 200.097656 212.894531 C 203.765625 212.6875 207.84375 210.414062 209.878906 207.335938 C 210.859375 205.859375 211.457031 203.9375 211.25 202.167969 C 211.144531 201.261719 210.492188 198.988281 209.503906 198.6875 C 207.644531 198.125 207.449219 201.792969 207.304688 202.96875 C 206.871094 206.515625 203.320312 208.644531 200.097656 208.839844 C 197.839844 208.976562 195.574219 208.515625 193.933594 206.871094 C 192.183594 205.113281 192.078125 202.777344 190.925781 200.738281 C 190.125 199.332031 188.007812 199.671875 187.574219 201.171875 C 187.089844 202.835938 187.277344 204.773438 186.386719 206.3125 C 185.324219 208.136719 183.140625 208.867188 181.183594 209.234375 C 178.898438 209.660156 177.398438 208.984375 175.835938 207.328125 C 173.542969 204.886719 173.863281 201.894531 174.773438 198.980469 C 174.960938 198.367188 174.277344 197.976562 173.773438 198.214844 Z M 173.773438 198.214844 " fill-opacity="1" fill-rule="nonzero"/><path fill="#000000" d="M 282.488281 183.640625 C 278.515625 185.695312 275.398438 189.359375 271.703125 191.921875 C 266.90625 195.253906 261.519531 197.648438 256 199.496094 C 251.078125 201.148438 245.96875 202.132812 240.804688 202.566406 C 236.09375 202.960938 231.144531 201.667969 226.578125 202.867188 C 225.476562 203.15625 225.515625 204.464844 226.292969 205.054688 C 233.941406 210.90625 249.105469 207.605469 257.542969 205.089844 C 266.722656 202.351562 281.34375 195.957031 285.5 186.652344 C 286.386719 184.664062 284.558594 182.566406 282.488281 183.640625 Z M 282.488281 183.640625 " fill-opacity="1" fill-rule="nonzero"/><path fill="#000000" d="M 296.769531 164.882812 C 298.421875 162.382812 294.625 159.464844 292.625 161.6875 C 290.8125 163.703125 289.542969 166.1875 288.183594 168.515625 C 286.699219 171.054688 285.25 173.875 284.773438 176.769531 C 284.691406 177.257812 284.800781 177.660156 285.109375 177.984375 C 286.167969 179.933594 288.9375 175.65625 289.304688 175.179688 C 290.65625 173.417969 291.640625 171.402344 293.03125 169.65625 C 294.28125 168.085938 295.660156 166.558594 296.769531 164.882812 Z M 296.769531 164.882812 " fill-opacity="1" fill-rule="nonzero"/><path fill="#000000" d="M 298.808594 172.28125 C 295.703125 174.539062 290.148438 177.777344 289.703125 181.914062 C 289.640625 182.46875 290.214844 182.949219 290.730469 182.941406 C 294.382812 182.902344 297.765625 179.628906 300.453125 177.445312 C 302.042969 176.152344 303.796875 175.148438 305.71875 174.4375 C 307.410156 173.820312 308.933594 173.082031 309.371094 171.242188 C 309.464844 170.855469 309.390625 170.371094 309.070312 170.101562 C 306.175781 167.625 301.378906 170.414062 298.808594 172.28125 Z M 298.808594 172.28125 " fill-opacity="1" fill-rule="nonzero"/><path fill="#000000" d="M 306.113281 180.421875 C 304.203125 180.714844 288.96875 184.101562 292.210938 187.875 C 293.683594 189.585938 297.136719 187.703125 298.804688 187.3125 C 300.121094 187.003906 301.453125 186.574219 302.746094 186.171875 C 304.304688 185.6875 305.90625 185.792969 307.457031 185.289062 C 310.625 184.269531 309.277344 179.9375 306.113281 180.421875 Z M 306.113281 180.421875 " fill-opacity="1" fill-rule="nonzero"/><path fill="#000000" d="M 182.066406 258.296875 C 182.035156 258.332031 182.007812 258.375 181.984375 258.417969 L 181.976562 258.417969 C 181.964844 258.441406 181.953125 258.460938 181.945312 258.484375 C 181.933594 258.507812 181.945312 258.503906 181.9375 258.511719 C 181.671875 259.117188 181.699219 259.726562 182.164062 260.226562 C 183.890625 262.070312 186.351562 263.175781 188.445312 264.539062 C 190.109375 265.621094 192.003906 266.878906 193.839844 267.578125 C 196.230469 268.492188 197.714844 265.183594 196.1875 263.554688 C 194.542969 261.796875 192.027344 260.429688 189.753906 259.640625 C 188.058594 259.050781 183.613281 256.707031 182.066406 258.296875 Z M 182.066406 258.296875 " fill-opacity="1" fill-rule="nonzero"/><path fill="#000000" d="M 211.847656 262.453125 C 208.308594 265.714844 204.417969 264.734375 200.257812 265.710938 C 199.105469 265.980469 198.578125 267.679688 199.527344 268.480469 C 204.335938 272.542969 212.210938 268.851562 216.285156 265.398438 C 221.621094 260.875 222.421875 253.695312 219.667969 247.601562 C 216.847656 241.363281 207.132812 242.691406 202.925781 246.003906 C 198.414062 249.558594 195.328125 258.289062 198.882812 263.40625 C 199.195312 263.859375 200.058594 264.035156 200.328125 263.40625 C 201.664062 260.246094 201.59375 256.6875 203.136719 253.507812 C 205.394531 248.867188 213.589844 245.214844 215.753906 251.808594 C 217.078125 255.828125 214.707031 259.816406 211.847656 262.453125 Z M 211.847656 262.453125 " fill-opacity="1" fill-rule="nonzero"/><path fill="#000000" d="M 145.734375 276.324219 C 144.882812 279.242188 147.839844 281.253906 148.007812 284.21875 C 148.128906 286.382812 148.882812 290.011719 151.800781 289.496094 C 152.554688 289.359375 153.082031 288.660156 153.308594 287.984375 C 153.949219 286.105469 153.386719 283.503906 152.945312 281.582031 C 152.414062 279.269531 151.789062 277.195312 150.5 275.175781 C 149.824219 274.101562 146.101562 275.070312 145.734375 276.324219 Z M 145.734375 276.324219 " fill-opacity="1" fill-rule="nonzero"/><path fill="#000000" d="M 148.613281 290.988281 C 147.769531 290.144531 146.539062 290.128906 145.679688 290.988281 C 145.003906 291.664062 144.695312 292.726562 144.359375 293.59375 C 143.695312 295.285156 142.625 296.582031 141.320312 297.816406 C 137.933594 301.039062 126.363281 303.789062 128.140625 295.609375 C 128.898438 292.125 132.164062 290.507812 135.226562 289.570312 C 136.835938 289.089844 138.480469 288.820312 140.15625 288.761719 C 142.058594 288.675781 143.738281 289.535156 145.644531 289.285156 C 145.964844 289.242188 146.214844 288.996094 146.125 288.652344 C 144.855469 283.820312 137.757812 284.261719 133.949219 284.933594 C 128.574219 285.875 124.316406 289.847656 123.140625 295.207031 C 122.027344 300.289062 125.328125 304.324219 129.820312 306.054688 C 134.265625 307.769531 140.113281 305.582031 143.546875 302.714844 C 145.8125 300.828125 151.816406 294.191406 148.613281 290.988281 Z M 148.613281 290.988281 " fill-opacity="1" fill-rule="nonzero"/><path fill="#000000" d="M 244.308594 269.664062 C 239.574219 262.199219 235.652344 254.195312 232.253906 246.042969 C 229.035156 238.332031 226.417969 230.367188 224.125 222.335938 C 222.144531 215.410156 221.058594 206.839844 216.960938 200.832031 C 216.90625 200.742188 216.828125 200.703125 216.722656 200.714844 C 216.617188 200.730469 216.550781 200.785156 216.519531 200.886719 C 214.890625 207.453125 217.226562 215.046875 218.625 221.496094 C 220.546875 230.371094 223.59375 239.085938 226.976562 247.5 C 230.195312 255.457031 234.019531 263.113281 238.453125 270.464844 C 241.984375 276.339844 246.882812 285.773438 253.363281 288.699219 C 254.503906 289.210938 255.9375 288.375 255.5625 287.007812 C 253.828125 280.675781 247.835938 275.210938 244.308594 269.664062 Z M 244.308594 269.664062 " fill-opacity="1" fill-rule="nonzero"/><path fill="#000000" d="M 159.683594 115.492188 C 157.660156 121.898438 167.9375 122.125 169.359375 116.449219 C 170.917969 110.210938 161.355469 110.183594 159.683594 115.492188 Z M 159.683594 115.492188 " fill-opacity="1" fill-rule="nonzero"/><path fill="#000000" d="M 226.847656 112.371094 C 222.550781 106.566406 214.058594 114.523438 219.082031 118.402344 C 223.265625 121.636719 230.746094 117.632812 226.847656 112.371094 Z M 226.847656 112.371094 " fill-opacity="1" fill-rule="nonzero"/><path fill="#000000" d="M 189.394531 141.910156 C 192.777344 141.910156 192.777344 136.664062 189.394531 136.664062 C 186.011719 136.664062 186.011719 141.910156 189.394531 141.910156 Z M 189.394531 141.910156 " fill-opacity="1" fill-rule="nonzero"/><path fill="#000000" d="M 201.234375 139.800781 C 201.234375 140.1875 201.160156 140.558594 201.011719 140.914062 C 200.863281 141.273438 200.652344 141.585938 200.378906 141.859375 C 200.109375 142.132812 199.792969 142.34375 199.4375 142.492188 C 199.078125 142.640625 198.707031 142.714844 198.320312 142.714844 C 197.933594 142.714844 197.5625 142.640625 197.207031 142.492188 C 196.847656 142.34375 196.535156 142.132812 196.261719 141.859375 C 195.988281 141.585938 195.777344 141.273438 195.628906 140.914062 C 195.480469 140.558594 195.40625 140.1875 195.40625 139.800781 C 195.40625 139.414062 195.480469 139.042969 195.628906 138.6875 C 195.777344 138.328125 195.988281 138.015625 196.261719 137.742188 C 196.535156 137.46875 196.847656 137.257812 197.207031 137.109375 C 197.5625 136.960938 197.933594 136.886719 198.320312 136.886719 C 198.707031 136.886719 199.078125 136.960938 199.4375 137.109375 C 199.792969 137.257812 200.109375 137.46875 200.378906 137.742188 C 200.652344 138.015625 200.863281 138.328125 201.011719 138.6875 C 201.160156 139.042969 201.234375 139.414062 201.234375 139.800781 Z M 201.234375 139.800781 " fill-opacity="1" fill-rule="nonzero"/><path fill="#000000" d="M 215.046875 178.425781 C 223.40625 175.898438 231.03125 171.277344 237.304688 165.234375 C 242.246094 160.464844 246.894531 153.703125 249.050781 144.867188 C 249.144531 144.867188 249.242188 144.867188 249.332031 144.859375 C 253.542969 144.589844 258.328125 141.71875 259.371094 137.414062 C 260.089844 134.433594 256.214844 132.929688 254.554688 135.382812 C 252.957031 137.757812 251.613281 139.511719 248.726562 140.363281 C 246.097656 141.136719 243.699219 139.828125 241.21875 139.242188 C 240.980469 139.183594 240.6875 139.355469 240.707031 139.628906 C 240.867188 141.828125 242.304688 143.21875 244.132812 144.015625 C 243.296875 147.183594 242.113281 149.574219 240.746094 152.191406 C 238.910156 155.695312 236.40625 158.769531 233.664062 161.601562 C 227.839844 167.621094 220.121094 171.535156 212.183594 173.933594 C 196.558594 178.664062 181.496094 174.988281 167.402344 169.761719 C 166.820312 169.546875 166.46875 170.332031 166.835938 170.730469 C 177.894531 182.542969 199.929688 182.996094 215.046875 178.425781 Z M 215.046875 178.425781 " fill-opacity="1" fill-rule="nonzero"/><path fill="#000000" d="M 287.363281 140.214844 C 290.566406 138.769531 292.394531 135.113281 292.53125 131.761719 C 292.804688 125.15625 281.429688 120.054688 278.144531 126.695312 C 277.839844 127.316406 278.207031 128.066406 278.9375 128.074219 C 281.351562 128.121094 286.613281 127.617188 286.777344 131.25 C 286.84375 132.777344 286.039062 134.054688 284.761719 134.835938 C 283.21875 135.773438 282.058594 134.457031 280.617188 134.027344 C 278.144531 133.289062 276.484375 136.011719 277.5 138.082031 C 279.273438 141.695312 284.226562 141.632812 287.363281 140.214844 Z M 287.363281 140.214844 " fill-opacity="1" fill-rule="nonzero"/><path fill="#000000" d="M 171.257812 73.785156 C 172.441406 72.8125 171.171875 70.859375 169.796875 71.273438 C 165.890625 72.464844 164.015625 75.925781 164.421875 79.875 C 164.820312 83.6875 167.871094 89.707031 171.960938 90.558594 C 174.015625 90.988281 175.582031 88.992188 174.617188 87.101562 C 173.375 84.671875 170.902344 83.175781 169.652344 80.609375 C 168.320312 77.875 168.988281 75.644531 171.257812 73.785156 Z M 171.257812 73.785156 " fill-opacity="1" fill-rule="nonzero"/><path fill="#000000" d="M 180.652344 71.335938 C 180.582031 70.820312 179.832031 70.550781 179.421875 70.835938 C 174.796875 74.082031 175.53125 80.582031 177.765625 85.070312 C 180.292969 90.144531 184.25 94.65625 193.132812 96.261719 C 194.273438 96.464844 195.441406 96.136719 196.046875 95.074219 C 196.164062 94.882812 196.25 94.675781 196.308594 94.457031 C 196.597656 93.261719 196.101562 92.226562 195.121094 91.542969 C 191.378906 88.945312 187.152344 87.796875 183.765625 84.515625 C 179.613281 80.503906 181.332031 76.28125 180.652344 71.335938 Z M 180.652344 71.335938 " fill-opacity="1" fill-rule="nonzero"/><path fill="#000000" d="M 192.421875 76.925781 C 191.277344 74.984375 191.21875 72.726562 190.046875 70.820312 C 189.710938 70.277344 189.042969 70.246094 188.582031 70.632812 C 185.203125 73.457031 187.699219 79.023438 189.722656 81.945312 C 192.019531 85.253906 197.234375 88.984375 201.515625 88.03125 C 202.855469 87.730469 204.769531 86.378906 203.796875 84.746094 C 202.589844 82.726562 199.832031 83.070312 197.871094 82.1875 C 195.515625 81.125 193.707031 79.109375 192.421875 76.925781 Z M 192.421875 76.925781 " fill-opacity="1" fill-rule="nonzero"/><path fill="#000000" d="M 202.363281 69.730469 C 201.988281 69.621094 201.664062 69.707031 201.390625 69.984375 C 198.574219 73.226562 203.175781 79.144531 205.449219 81.542969 C 208.972656 85.257812 214.75 87.195312 219.761719 86.238281 C 222.707031 85.675781 221.703125 81.597656 219.101562 81.355469 C 214.863281 80.957031 211.554688 80.414062 208.339844 77.371094 C 206.164062 75.300781 205.253906 70.644531 202.363281 69.730469 Z M 202.363281 69.730469 " fill-opacity="1" fill-rule="nonzero"/><path fill="#000000" d="M 227.023438 73.859375 C 225.140625 72.796875 223.398438 73.660156 221.367188 73.605469 C 218.96875 73.535156 217.582031 71.992188 215.886719 70.507812 C 215.074219 69.800781 214.011719 70.316406 213.894531 71.335938 C 213.582031 74.074219 215.796875 76.429688 217.957031 77.761719 C 220.320312 79.21875 225.582031 79.136719 227.425781 76.917969 C 228.199219 75.976562 228.195312 74.519531 227.023438 73.859375 Z M 227.023438 73.859375 " fill-opacity="1" fill-rule="nonzero"/><path fill="#000000" d="M 254.09375 77.875 C 254.394531 78.121094 254.792969 78.234375 255.308594 78.15625 C 255.394531 78.148438 255.46875 78.117188 255.535156 78.0625 C 258.109375 76.074219 256.777344 72.199219 261.296875 72.453125 C 263.226562 72.558594 263.695312 73.425781 265.199219 74.535156 C 267.710938 76.398438 270.394531 72.480469 268.417969 70.367188 C 265.792969 67.5625 262.039062 66.90625 258.375 68.054688 C 256.289062 68.707031 254.476562 70.597656 253.648438 72.585938 C 253.222656 73.617188 252.84375 76.863281 254.09375 77.875 Z M 254.09375 77.875 " fill-opacity="1" fill-rule="nonzero"/><path fill="#000000" d="M 274.824219 81 C 276.714844 78.53125 278.582031 72.652344 275.914062 70.160156 C 274.976562 69.285156 273.042969 69.246094 272.453125 70.605469 C 271.441406 72.941406 272.640625 75.488281 271.363281 77.917969 C 270 80.507812 267.148438 79.90625 265.128906 81.488281 C 264.515625 81.96875 264.640625 82.980469 265.128906 83.480469 C 267.902344 86.335938 272.886719 83.535156 274.824219 81 Z M 274.824219 81 " fill-opacity="1" fill-rule="nonzero"/><path fill="#000000" d="M 263.605469 64.582031 C 263.066406 65.695312 264.167969 66.933594 265.316406 66.296875 C 267.582031 65.058594 269.632812 64.574219 272.167969 64.316406 C 274.554688 64.074219 276.394531 65.644531 278.460938 66.464844 C 280.457031 67.265625 282.382812 64.554688 281.234375 62.855469 C 277.449219 57.261719 266.453125 58.691406 263.605469 64.582031 Z M 263.605469 64.582031 " fill-opacity="1" fill-rule="nonzero"/><path fill="#000000" d="M 280.542969 71.332031 C 279.4375 72.011719 279.695312 73.597656 280.882812 73.988281 C 284.042969 75.023438 287.527344 72.691406 289.25 70.160156 C 291.179688 67.320312 291.546875 63.734375 289.671875 60.773438 C 289.089844 59.851562 287.980469 59.324219 286.898438 59.644531 C 286.238281 59.835938 285.753906 60.15625 285.429688 60.773438 C 285.042969 61.5 284.917969 62.535156 285.429688 63.253906 C 286.539062 64.804688 286.332031 66.304688 285.378906 67.894531 C 284.292969 69.722656 282.242188 70.289062 280.542969 71.332031 Z M 280.542969 71.332031 " fill-opacity="1" fill-rule="nonzero"/><path fill="#000000" d="M 292.910156 53.257812 C 290.726562 49.550781 285.640625 50.132812 282.363281 52.050781 C 280.203125 53.316406 276.882812 57.175781 279.1875 59.664062 C 279.644531 60.152344 280.371094 60.070312 280.832031 59.664062 C 282.085938 58.566406 282.527344 57.09375 284.027344 56.164062 C 284.84375 55.65625 286.015625 55.480469 286.941406 55.390625 C 288.121094 55.265625 289.132812 56.359375 290.269531 56.695312 C 292.25 57.273438 293.941406 55.007812 292.910156 53.257812 Z M 292.910156 53.257812 " fill-opacity="1" fill-rule="nonzero"/><path fill="#000000" d="M 297.0625 53.101562 C 297.832031 54.769531 297.945312 56.332031 297.398438 58.085938 C 296.8125 59.984375 295.167969 60.628906 293.566406 61.445312 C 292.3125 62.085938 292.582031 64.1875 293.964844 64.480469 C 301.222656 66.019531 303.820312 55.648438 301.214844 50.675781 C 299.757812 47.898438 295.789062 50.332031 297.0625 53.101562 Z M 297.0625 53.101562 " fill-opacity="1" fill-rule="nonzero"/><path fill="#000000" d="M 307.882812 44.757812 C 309.808594 39.964844 314.109375 38.023438 317.882812 35.007812 C 318.351562 34.632812 318.113281 33.960938 317.710938 33.667969 C 315.300781 31.882812 311.308594 34.136719 309.207031 35.640625 C 307.84375 36.625 306.652344 37.78125 305.628906 39.113281 C 304.605469 40.445312 303.792969 41.898438 303.195312 43.464844 C 302.066406 46.414062 306.734375 47.617188 307.882812 44.757812 Z M 307.882812 44.757812 " fill-opacity="1" fill-rule="nonzero"/><path fill="#000000" d="M 322.253906 41.828125 C 318.875 40.8125 315.878906 41.703125 312.640625 42.734375 C 309.839844 43.625 306.722656 45.144531 306.308594 48.273438 C 306.117188 49.703125 307.839844 50.71875 309.066406 50.371094 C 311.1875 49.777344 312.960938 48.160156 315.042969 47.347656 C 317.441406 46.410156 319.832031 46.246094 322.253906 45.519531 C 324.078125 44.972656 324.078125 42.378906 322.253906 41.828125 Z M 322.253906 41.828125 " fill-opacity="1" fill-rule="nonzero"/><path fill="#000000" d="M 310.890625 56.53125 C 313.082031 55.945312 315.425781 56.054688 317.667969 55.671875 C 318.277344 55.566406 320.191406 55.621094 320.445312 54.824219 C 321.800781 50.519531 311.5 50.796875 309.503906 51.511719 C 306.386719 52.632812 307.605469 57.410156 310.890625 56.53125 Z M 310.890625 56.53125 " fill-opacity="1" fill-rule="nonzero"/><path fill="#000000" d="M 109.410156 67.253906 C 107.777344 69.652344 111.5 72.507812 113.417969 70.34375 C 115.820312 67.632812 117.585938 67.242188 121.011719 68.253906 C 121.871094 68.507812 125.988281 70.878906 126.550781 69.140625 C 127.578125 65.949219 121.753906 63.152344 119.394531 62.636719 C 115.269531 61.742188 111.675781 63.9375 109.410156 67.253906 Z M 109.410156 67.253906 " fill-opacity="1" fill-rule="nonzero"/><path fill="#000000" d="M 107.464844 78.90625 C 108.191406 78.929688 111.136719 79 110.714844 77.492188 C 110.144531 75.445312 106.824219 74.199219 105.425781 72.664062 C 103.324219 70.359375 104.265625 67.765625 103.1875 65.21875 C 102.664062 63.984375 100.707031 63.871094 99.875 64.792969 C 97.039062 67.925781 99.636719 73.398438 102.109375 75.980469 C 103.402344 77.335938 105.519531 78.839844 107.464844 78.90625 Z M 107.464844 78.90625 " fill-opacity="1" fill-rule="nonzero"/><path fill="#000000" d="M 98.992188 63.054688 C 100.429688 62.265625 102.074219 61.839844 103.71875 62.117188 C 105.507812 62.417969 106.21875 63.714844 107.578125 64.683594 C 107.890625 64.902344 108.390625 64.8125 108.644531 64.546875 C 110.921875 62.121094 107.972656 58.933594 105.675781 58.039062 C 102.875 56.949219 99.023438 57.019531 96.476562 58.75 C 93.84375 60.542969 96.148438 64.613281 98.992188 63.054688 Z M 98.992188 63.054688 " fill-opacity="1" fill-rule="nonzero"/><path fill="#000000" d="M 95.746094 70.46875 C 96.445312 70.238281 96.945312 69.359375 96.476562 68.679688 C 95.464844 67.21875 93.894531 66.347656 92.90625 64.875 C 91.816406 63.25 92.191406 60.953125 90.84375 59.589844 C 90.015625 58.757812 88.671875 58.792969 87.84375 59.589844 C 85.765625 61.585938 87.480469 65.3125 88.929688 67.195312 C 90.476562 69.207031 93.046875 71.363281 95.746094 70.46875 Z M 95.746094 70.46875 " fill-opacity="1" fill-rule="nonzero"/><path fill="#000000" d="M 71.441406 49.507812 C 74.855469 51.066406 77.277344 53.503906 80.070312 55.902344 C 82.054688 57.609375 85.582031 55.359375 83.910156 52.941406 C 81.671875 49.703125 78.179688 47.585938 74.640625 46.003906 C 72.203125 44.917969 67.492188 43.164062 65.015625 44.863281 C 64.746094 45.046875 64.589844 45.421875 64.785156 45.722656 C 66.097656 47.699219 69.351562 48.554688 71.441406 49.507812 Z M 71.441406 49.507812 " fill-opacity="1" fill-rule="nonzero"/><path fill="#000000" d="M 65.003906 57.058594 C 66.941406 57.804688 69.195312 57.851562 71.222656 58.496094 C 73.3125 59.160156 75.394531 60.34375 77.640625 60.046875 C 79.65625 59.777344 80.886719 57.097656 78.761719 55.90625 C 76.453125 54.613281 73.382812 54.21875 70.785156 53.816406 C 68.691406 53.492188 66.011719 53.609375 64.535156 55.285156 C 63.976562 55.921875 64.238281 56.769531 65.003906 57.058594 Z M 65.003906 57.058594 " fill-opacity="1" fill-rule="nonzero"/><path fill="#000000" d="M 61.902344 68.539062 C 61.949219 68.882812 62.347656 69.007812 62.632812 68.953125 C 64.789062 68.539062 66.496094 67.003906 68.617188 66.394531 C 70.902344 65.738281 73.40625 65.9375 75.753906 65.976562 C 79.074219 66.027344 79.074219 60.753906 75.753906 60.828125 C 71.347656 60.925781 60.976562 61.953125 61.902344 68.539062 Z M 61.902344 68.539062 " fill-opacity="1" fill-rule="nonzero"/><path fill="#000000" d="M 88.652344 71.511719 C 88.578125 70.335938 87.9375 69.496094 86.828125 69.109375 C 86.386719 68.933594 85.941406 68.933594 85.5 69.109375 C 84.347656 69.503906 83.804688 70.335938 83.675781 71.511719 C 83.296875 74.832031 83.171875 78.089844 81.78125 81.195312 C 81.070312 82.78125 79.933594 84.109375 78.542969 85.144531 C 77.105469 86.210938 72.648438 86.839844 71.929688 84.351562 C 70.746094 80.253906 73.277344 76.160156 75.925781 73.300781 C 77.949219 71.113281 81.15625 69.875 82.554688 67.214844 C 82.597656 67.136719 82.625 67.050781 82.628906 66.964844 C 82.632812 66.875 82.621094 66.789062 82.585938 66.707031 C 82.554688 66.625 82.503906 66.550781 82.4375 66.492188 C 82.375 66.429688 82.296875 66.386719 82.210938 66.363281 C 73.101562 63.09375 60.355469 83.308594 69.210938 89.230469 C 81.277344 97.304688 89.351562 81.980469 88.652344 71.511719 Z M 88.652344 71.511719 " fill-opacity="1" fill-rule="nonzero"/><path fill="#000000" d="M 89.929688 54.429688 C 89.117188 55.289062 89.734375 56.535156 90.839844 56.625 C 101.230469 57.484375 111.878906 38.847656 101.179688 32.4375 C 88.804688 25.019531 81.285156 44.601562 85.707031 53.671875 C 86.230469 54.746094 87.703125 54.121094 87.777344 53.113281 C 88.058594 49.265625 88.3125 45.566406 89.609375 41.898438 C 90.832031 38.421875 94.75 33.6875 98.765625 36.824219 C 101.433594 38.90625 99.621094 43.1875 98.347656 45.472656 C 96.3125 49.113281 92.730469 51.457031 89.929688 54.429688 Z M 89.929688 54.429688 " fill-opacity="1" fill-rule="nonzero"/><path fill="#000000" d="M 294.722656 47.738281 C 295.929688 47.894531 296.824219 46.214844 296.144531 45.261719 C 293.496094 41.554688 289.535156 39.15625 286.957031 35.273438 C 283.804688 30.523438 283.867188 24.550781 291.011719 24.742188 C 298.296875 24.9375 298.203125 41.105469 298.515625 45.898438 C 298.539062 46.285156 299.144531 46.554688 299.332031 46.121094 C 302.734375 38.101562 301.816406 19.617188 289.441406 20.40625 C 272.128906 21.511719 283.316406 46.300781 294.722656 47.738281 Z M 294.722656 47.738281 " fill-opacity="1" fill-rule="nonzero"/><path fill="#000000" d="M 308.289062 57.21875 C 306.285156 56.761719 305.183594 58.988281 306.394531 60.472656 C 308.652344 63.246094 311.878906 65.011719 314.066406 67.960938 C 315.589844 70.015625 319.09375 77.199219 315.074219 78.625 C 311.71875 79.820312 307.925781 75.179688 306.980469 72.855469 C 305.445312 69.089844 304.75 65.644531 304.960938 61.28125 C 304.992188 60.609375 304.019531 60.558594 303.589844 60.917969 C 299.042969 64.710938 301.28125 72.109375 303.703125 76.605469 C 306.253906 81.335938 310.960938 84.847656 316.511719 83.84375 C 322.554688 82.746094 322.683594 74.34375 321.148438 69.929688 C 319.40625 64.894531 313.636719 58.433594 308.289062 57.21875 Z M 308.289062 57.21875 " fill-opacity="1" fill-rule="nonzero"/><path fill="#000000" d="M 273.316406 110.273438 C 270.511719 101.179688 265.4375 93.023438 259.09375 86 C 245.242188 70.675781 225.6875 64.300781 205.878906 61.316406 C 187.5 58.542969 168.453125 62.246094 151.929688 70.527344 C 147.039062 73 142.464844 75.960938 138.203125 79.414062 C 138.773438 71.054688 126.351562 68.253906 122.257812 75.246094 C 120.976562 77.433594 123.46875 79.648438 125.578125 78.566406 C 127.851562 77.402344 129.355469 75.816406 131.960938 77.15625 C 133.835938 78.117188 135.375 79.347656 137.328125 80.132812 C 134.425781 82.535156 131.742188 85.167969 129.277344 88.019531 C 129.4375 87.394531 129.070312 86.722656 128.25 86.65625 C 125.40625 86.421875 122.972656 86.230469 120.554688 84.5625 C 118.316406 83.011719 118.121094 80.863281 119.070312 78.535156 C 119.4375 77.636719 118.964844 76.59375 118.386719 75.929688 C 117.863281 75.324219 117.246094 75.242188 116.492188 75.144531 C 115.644531 75.03125 114.539062 75.714844 114.175781 76.46875 C 112.269531 80.449219 113.671875 84.636719 117.03125 87.316406 C 120.019531 89.703125 125.15625 91.234375 128.554688 88.902344 C 123.300781 95.296875 119.601562 102.613281 119.148438 110.335938 C 119.121094 110.824219 119.75 110.890625 119.988281 110.5625 C 124.757812 103.996094 128.542969 96.746094 134.046875 90.640625 C 139.871094 84.1875 147.074219 79.3125 154.714844 75.273438 C 170.230469 67.070312 188.867188 64.3125 206.167969 66.738281 C 224.175781 69.257812 241.027344 75.476562 254.066406 88.558594 C 260.5 95.023438 265.128906 103.136719 268.101562 111.707031 C 269.4375 115.558594 270.09375 119.558594 270.699219 123.582031 C 271.863281 131.300781 271.890625 138.308594 269.898438 145.949219 C 268.4375 151.542969 265.835938 156.714844 262.722656 161.546875 C 256.453125 171.273438 246.953125 178.566406 236.863281 183.957031 C 226.9375 189.261719 215.753906 192.324219 204.601562 193.539062 C 199.140625 194.132812 193.628906 194.101562 188.160156 193.675781 C 181.214844 193.140625 174.523438 190.84375 167.53125 191.132812 C 166.617188 191.167969 166.449219 192.21875 167.101562 192.71875 C 177.097656 200.386719 194.285156 199.839844 206.257812 198.542969 C 218.417969 197.234375 230.199219 193.429688 240.96875 187.695312 C 246.230469 184.894531 251.085938 181.503906 255.527344 177.53125 C 259.972656 173.554688 263.878906 169.109375 267.246094 164.191406 C 275.386719 152.28125 278.871094 137.269531 276.519531 123.011719 C 275.800781 118.695312 274.601562 114.449219 273.316406 110.273438 Z M 273.316406 110.273438 " fill-opacity="1" fill-rule="nonzero"/><path fill="#000000" d="M 175.652344 343.007812 C 172.21875 342.777344 168.664062 346.296875 165.539062 347.519531 C 161.984375 348.910156 156.847656 350.238281 153.804688 347.207031 C 148.640625 342.0625 157.371094 338.769531 161.0625 338.554688 C 164.527344 338.351562 170.300781 340.320312 173.3125 338.558594 C 173.585938 338.398438 173.777344 338.019531 173.652344 337.703125 C 171.800781 332.742188 161.292969 332.527344 157.066406 333.335938 C 150.320312 334.632812 145.058594 340.421875 147.488281 347.496094 C 149.570312 353.554688 156.132812 355.601562 161.964844 354.492188 C 166.621094 353.601562 177.003906 350.550781 177.351562 344.714844 C 177.414062 343.738281 176.535156 343.070312 175.652344 343.007812 Z M 175.652344 343.007812 " fill-opacity="1" fill-rule="nonzero"/><path fill="#000000" d="M 230.488281 333.742188 C 224.09375 330.222656 212.738281 333.589844 207.339844 337.609375 C 206.414062 338.300781 206.628906 339.933594 207.964844 339.917969 C 213.117188 339.859375 217.867188 337.496094 223.152344 337.65625 C 227.679688 337.789062 230.832031 340.519531 228.421875 344.867188 C 226.445312 348.441406 220.140625 347.914062 216.824219 347.203125 C 213.265625 346.4375 210.382812 343.246094 206.664062 344.132812 C 205.777344 344.34375 205.308594 345.308594 205.519531 346.152344 C 206.855469 351.535156 215.859375 353.230469 220.59375 353.414062 C 227.027344 353.660156 232.363281 351.96875 234.835938 345.695312 C 236.601562 341.238281 234.585938 336 230.488281 333.742188 Z M 230.488281 333.742188 " fill-opacity="1" fill-rule="nonzero"/><path fill="#000000" d="M 115.476562 214.609375 C 109.164062 214.28125 103.050781 211.722656 98.03125 209.074219 C 99.671875 207.671875 101.34375 205.246094 99.535156 203.722656 C 99.253906 203.484375 98.867188 203.453125 98.585938 203.722656 C 97.347656 204.929688 96.714844 206.480469 94.941406 207.019531 C 93.328125 207.511719 91.933594 206.792969 90.34375 206.859375 C 88.878906 206.925781 87.714844 208.902344 89.039062 210.003906 C 90.828125 211.488281 93.988281 211.136719 96.175781 210.21875 C 108.199219 221.335938 125.585938 220.519531 137.566406 213.148438 C 148.480469 206.433594 155.921875 194.390625 151.164062 178.144531 C 151.144531 178.089844 151.09375 178.0625 151.0625 178.019531 C 152.664062 176.5625 153.121094 174.15625 152.785156 172.039062 C 152.414062 169.707031 148.566406 170.269531 148.691406 172.589844 C 148.765625 173.953125 148.84375 175.199219 147.617188 176.042969 C 146.46875 176.84375 145.082031 177.0625 143.917969 177.855469 C 143.523438 178.125 143.460938 178.738281 143.917969 178.996094 C 145.234375 179.734375 146.679688 179.78125 148.082031 179.453125 C 149.398438 184.605469 149.226562 189.273438 147.640625 194.535156 C 145.753906 200.816406 140.640625 205.847656 135.40625 209.453125 C 129.519531 213.503906 122.511719 214.976562 115.476562 214.609375 Z M 115.476562 214.609375 " fill-opacity="1" fill-rule="nonzero"/><path fill="#000000" d="M 179.542969 309.992188 C 178.824219 316.074219 178.289062 321.921875 177.101562 327.964844 C 176.34375 331.835938 175.140625 335.726562 176.921875 339.382812 C 177.398438 340.359375 178.863281 340.246094 179.367188 339.382812 C 181.84375 335.175781 181.566406 329.308594 182.179688 324.484375 C 182.789062 319.644531 183.007812 314.097656 180.742188 309.671875 C 180.425781 309.035156 179.613281 309.417969 179.542969 309.992188 Z M 179.542969 309.992188 " fill-opacity="1" fill-rule="nonzero"/><path fill="#000000" d="M 201.996094 308.496094 C 201.828125 308.164062 201.277344 308.152344 201.105469 308.496094 C 198.746094 313.195312 199.445312 318.742188 199.421875 323.890625 C 199.398438 329.476562 198.539062 336.175781 200.699219 341.394531 C 201.199219 342.605469 202.855469 342.753906 203.304688 341.394531 C 205.078125 336.039062 203.941406 329.492188 203.816406 323.890625 C 203.695312 318.734375 204.382812 313.1875 201.996094 308.496094 Z M 201.996094 308.496094 " fill-opacity="1" fill-rule="nonzero"/><path fill="#000000" d="M 161.078125 269.105469 C 172.265625 264.429688 188.894531 253.871094 192.078125 241.230469 C 192.332031 240.234375 191.136719 239.027344 190.167969 239.761719 C 185.8125 243.074219 182.625 247.949219 178.695312 251.792969 C 173.550781 256.832031 167.492188 260.75 161.058594 263.921875 C 154.273438 267.269531 146.703125 269.257812 139.214844 270.152344 C 132.4375 270.960938 125.65625 269.464844 118.957031 270.152344 C 118.296875 270.21875 117.941406 271.09375 118.597656 271.472656 C 130.472656 278.277344 149.296875 274.03125 161.078125 269.105469 Z M 161.078125 269.105469 " fill-opacity="1" fill-rule="nonzero"/><path fill="#000000" d="M 249.105469 289.46875 C 241.433594 291.648438 234.632812 296.015625 226.914062 298.320312 C 218.726562 300.765625 210.171875 301.777344 201.667969 302.175781 C 193.414062 302.5625 185.152344 301.960938 176.929688 301.261719 C 168.171875 300.523438 158.921875 297.902344 150.140625 298.660156 C 149.660156 298.703125 149.382812 299.371094 149.878906 299.632812 C 157.101562 303.421875 166.101562 304.277344 174.070312 305.527344 C 183.214844 306.953125 192.414062 307.613281 201.667969 307.507812 C 210.746094 307.425781 219.671875 306.21875 228.445312 303.890625 C 236.257812 301.8125 245.460938 298.71875 250.867188 292.5 C 252.015625 291.179688 250.941406 288.949219 249.105469 289.46875 Z M 249.105469 289.46875 " fill-opacity="1" fill-rule="nonzero"/><path fill="#000000" d="M 110.867188 231.246094 C 107.363281 236.351562 113.445312 244.710938 117.226562 248.15625 C 122.765625 253.210938 136.714844 255.789062 140.757812 247.445312 C 141.558594 245.800781 140.140625 243.351562 138.285156 244.230469 C 134.808594 245.882812 132.984375 246.742188 129.714844 246.960938 C 125.746094 247.21875 122.847656 246.035156 119.859375 243.609375 C 116.945312 241.238281 113.464844 235.179688 112.484375 231.460938 C 112.28125 230.671875 111.285156 230.640625 110.867188 231.246094 Z M 110.867188 231.246094 " fill-opacity="1" fill-rule="nonzero"/><path fill="#000000" d="M 120.835938 240.554688 C 122.390625 239.710938 122.949219 238.015625 123.578125 236.46875 C 124.125 235.113281 124.242188 233.0625 123.464844 231.792969 C 123.308594 231.539062 122.960938 231.359375 122.664062 231.46875 C 121.457031 231.910156 120.722656 233.046875 120.152344 234.152344 C 119.441406 235.507812 118.414062 236.941406 118.109375 238.453125 C 117.785156 240.046875 119.335938 241.367188 120.835938 240.554688 Z M 120.835938 240.554688 " fill-opacity="1" fill-rule="nonzero"/><path fill="#000000" d="M 114.8125 247.714844 C 114.582031 245.289062 110.015625 250.027344 109.625 250.402344 C 108.699219 251.269531 105.707031 253.90625 107.828125 255.148438 C 109.582031 256.179688 111.507812 253.816406 112.46875 252.636719 C 113.15625 251.804688 113.625 250.957031 114.113281 250.011719 C 114.433594 249.378906 114.875 248.4375 114.8125 247.714844 Z M 114.8125 247.714844 " fill-opacity="1" fill-rule="nonzero"/><path fill="#000000" d="M 144.34375 145.453125 C 141.242188 145.300781 135.792969 142.128906 133.191406 144.882812 C 133.164062 144.914062 133.15625 144.949219 133.175781 144.988281 C 133.191406 145.027344 133.21875 145.046875 133.261719 145.046875 C 136.082031 145.109375 138.9375 147.042969 141.589844 148.015625 C 143.695312 148.789062 146.5 149.5 148.710938 149.246094 C 151.484375 148.925781 154.078125 146.921875 153.675781 143.683594 C 152.84375 137.03125 140.652344 137.5625 142.929688 143.601562 C 143.296875 144.574219 144.414062 144.933594 145.210938 144.203125 C 146.601562 142.949219 147.242188 141.578125 149.25 143.144531 C 151.921875 145.222656 145.09375 145.488281 144.34375 145.453125 Z M 144.34375 145.453125 " fill-opacity="1" fill-rule="nonzero"/><path fill="#000000" d="M 73.296875 195.386719 C 75.066406 191.453125 72.667969 186.707031 74.378906 182.8125 C 74.425781 182.726562 74.414062 182.648438 74.34375 182.582031 C 74.277344 182.511719 74.199219 182.5 74.113281 182.550781 C 70.972656 184.304688 71.019531 187.015625 70.636719 190.347656 C 70.347656 192.867188 70.257812 194.636719 67.527344 195.539062 C 66.523438 195.867188 65.207031 195.890625 64.621094 194.878906 C 64.890625 194.878906 65.140625 194.8125 65.375 194.683594 C 65.609375 194.550781 65.792969 194.367188 65.929688 194.136719 C 67.605469 191.542969 64.273438 188.3125 62.015625 190.757812 C 59.597656 193.386719 60.257812 197.695312 63.667969 199.132812 C 67.140625 200.589844 71.753906 198.816406 73.296875 195.386719 Z M 73.296875 195.386719 " fill-opacity="1" fill-rule="nonzero"/></svg>