<svg xmlns="http://www.w3.org/2000/svg" xmlns:xlink="http://www.w3.org/1999/xlink" width="500" zoomAndPan="magnify" viewBox="0 0 375 374.999991" height="500" preserveAspectRatio="xMidYMid meet" version="1.0"><defs><clipPath id="3d0b623aaa"><path d="M 84 200 L 292 200 L 292 337.816406 L 84 337.816406 Z M 84 200 " clip-rule="nonzero"/></clipPath><clipPath id="7d6b4f48a4"><path d="M 84 191 L 292 191 L 292 337.816406 L 84 337.816406 Z M 84 191 " clip-rule="nonzero"/></clipPath><clipPath id="c8a79870ac"><path d="M 156.527344 139 L 218.777344 139 L 218.777344 153.902344 L 156.527344 153.902344 Z M 156.527344 139 " clip-rule="nonzero"/></clipPath></defs><path fill="#1a171b" d="M 160.378906 53.417969 C 121.042969 54.753906 124.847656 95.976562 130.992188 119.738281 C 134.425781 133.015625 145.953125 136.773438 158.550781 142.273438 C 172.242188 148.246094 223.109375 137.292969 223.109375 137.292969 C 223.109375 137.292969 239.648438 142.082031 246.722656 120.476562 C 268.179688 54.945312 207.066406 19.976562 160.378906 53.417969 Z M 160.378906 53.417969 " fill-opacity="1" fill-rule="evenodd"/><path fill="#ffcebe" d="M 207.410156 153.347656 L 168.820312 153.347656 L 168.820312 204.644531 L 169.121094 243.617188 L 189.265625 243.394531 L 207.164062 244.382812 L 207.410156 204.644531 Z M 207.410156 153.347656 " fill-opacity="1" fill-rule="evenodd"/><path fill="#1a171b" d="M 207.660156 187.414062 L 207.402344 165.09375 C 196.625 162.890625 174.910156 159.777344 170.449219 175.316406 C 181.558594 185.988281 193.734375 186.546875 207.660156 187.414062 Z M 207.660156 187.414062 " fill-opacity="1" fill-rule="evenodd"/><g clip-path="url(#3d0b623aaa)"><path fill="#ffcebe" d="M 187.992188 200.910156 L 207.703125 201.078125 C 207.703125 201.078125 253.457031 223.203125 269.148438 240.699219 C 289.59375 263.496094 291.71875 336.917969 291.71875 336.917969 L 196.386719 337.265625 L 196.386719 337.324219 L 187.992188 337.292969 L 179.601562 337.324219 L 179.601562 337.265625 L 84.269531 336.917969 C 84.269531 336.917969 86.648438 263.625 107.09375 240.828125 C 122.785156 223.332031 168.285156 201.078125 168.285156 201.078125 Z M 187.992188 200.910156 " fill-opacity="1" fill-rule="evenodd"/></g><g clip-path="url(#7d6b4f48a4)"><path fill="#4b99f5" d="M 189.785156 208.585938 L 212.179688 191.867188 L 221.394531 204.878906 C 221.394531 204.878906 258.789062 225.308594 269.917969 240.445312 C 293.527344 272.554688 291.71875 336.917969 291.71875 336.917969 L 196.386719 337.265625 L 196.386719 337.324219 L 187.992188 337.292969 L 179.601562 337.324219 L 179.601562 337.265625 L 84.269531 336.917969 C 84.269531 336.917969 81.476562 267.675781 106.070312 240.445312 C 121.519531 223.335938 153.585938 206.324219 153.585938 206.324219 L 162.910156 192.503906 Z M 189.785156 208.585938 " fill-opacity="1" fill-rule="evenodd"/></g><path fill="#1a171b" d="M 188.882812 230.679688 L 189.90625 325.882812 C 189.90625 326.296875 190.25 326.625 190.660156 326.621094 C 191.070312 326.617188 191.402344 326.28125 191.390625 325.871094 L 190.367188 230.664062 C 190.367188 230.253906 190.019531 229.925781 189.609375 229.929688 C 189.199219 229.933594 188.867188 230.269531 188.882812 230.679688 Z M 188.882812 230.679688 " fill-opacity="1" fill-rule="evenodd"/><path fill="#1a171b" d="M 119.582031 281.652344 L 122.269531 333.988281 C 122.296875 334.511719 122.742188 334.914062 123.265625 334.886719 C 123.789062 334.859375 124.191406 334.414062 124.164062 333.890625 L 121.476562 281.554688 C 121.449219 281.03125 121.003906 280.628906 120.480469 280.65625 C 119.957031 280.683594 119.554688 281.128906 119.582031 281.652344 Z M 119.582031 281.652344 " fill-opacity="1" fill-rule="evenodd"/><path fill="#1a171b" d="M 256.132812 281.554688 L 253.445312 333.890625 C 253.417969 334.414062 253.820312 334.859375 254.34375 334.886719 C 254.867188 334.914062 255.3125 334.511719 255.339844 333.988281 L 258.027344 281.652344 C 258.054688 281.128906 257.652344 280.683594 257.128906 280.65625 C 256.605469 280.628906 256.160156 281.03125 256.132812 281.554688 Z M 256.132812 281.554688 " fill-opacity="1" fill-rule="evenodd"/><path fill="#ffcebe" d="M 250.949219 130.328125 C 250.949219 131.128906 250.871094 131.925781 250.714844 132.714844 C 250.554688 133.503906 250.324219 134.269531 250.015625 135.011719 C 249.707031 135.753906 249.332031 136.460938 248.886719 137.128906 C 248.4375 137.796875 247.929688 138.414062 247.363281 138.984375 C 246.792969 139.550781 246.175781 140.058594 245.507812 140.507812 C 244.839844 140.953125 244.132812 141.328125 243.390625 141.636719 C 242.648438 141.945312 241.882812 142.175781 241.09375 142.335938 C 240.304688 142.492188 239.511719 142.570312 238.707031 142.570312 C 237.902344 142.570312 237.105469 142.492188 236.316406 142.335938 C 235.527344 142.175781 234.761719 141.945312 234.019531 141.636719 C 233.277344 141.328125 232.574219 140.953125 231.902344 140.503906 C 231.234375 140.058594 230.617188 139.550781 230.050781 138.984375 C 229.480469 138.414062 228.972656 137.796875 228.527344 137.128906 C 228.078125 136.460938 227.703125 135.753906 227.394531 135.011719 C 227.085938 134.269531 226.855469 133.503906 226.699219 132.714844 C 226.542969 131.925781 226.464844 131.128906 226.464844 130.328125 C 226.464844 129.523438 226.542969 128.726562 226.699219 127.9375 C 226.855469 127.148438 227.085938 126.382812 227.394531 125.640625 C 227.703125 124.898438 228.078125 124.191406 228.527344 123.523438 C 228.972656 122.855469 229.480469 122.238281 230.050781 121.667969 C 230.617188 121.101562 231.234375 120.59375 231.902344 120.148438 C 232.574219 119.699219 233.277344 119.324219 234.019531 119.015625 C 234.761719 118.707031 235.527344 118.476562 236.316406 118.320312 C 237.105469 118.164062 237.902344 118.082031 238.707031 118.082031 C 239.511719 118.082031 240.304688 118.164062 241.09375 118.320312 C 241.882812 118.476562 242.648438 118.707031 243.390625 119.015625 C 244.132812 119.324219 244.839844 119.699219 245.507812 120.148438 C 246.175781 120.59375 246.792969 121.101562 247.363281 121.667969 C 247.929688 122.238281 248.4375 122.855469 248.886719 123.523438 C 249.332031 124.191406 249.707031 124.898438 250.015625 125.640625 C 250.324219 126.382812 250.554688 127.148438 250.714844 127.9375 C 250.871094 128.726562 250.949219 129.523438 250.949219 130.328125 Z M 250.949219 130.328125 " fill-opacity="1" fill-rule="nonzero"/><path fill="#ffcebe" d="M 150.902344 130.328125 C 150.902344 131.128906 150.824219 131.925781 150.667969 132.714844 C 150.511719 133.503906 150.277344 134.269531 149.972656 135.011719 C 149.664062 135.753906 149.285156 136.460938 148.839844 137.128906 C 148.394531 137.796875 147.886719 138.414062 147.316406 138.984375 C 146.75 139.550781 146.128906 140.058594 145.460938 140.507812 C 144.792969 140.953125 144.089844 141.328125 143.34375 141.636719 C 142.601562 141.945312 141.835938 142.175781 141.050781 142.335938 C 140.261719 142.492188 139.464844 142.570312 138.660156 142.570312 C 137.855469 142.570312 137.0625 142.492188 136.273438 142.335938 C 135.484375 142.175781 134.71875 141.945312 133.976562 141.636719 C 133.234375 141.328125 132.527344 140.953125 131.859375 140.503906 C 131.191406 140.058594 130.570312 139.550781 130.003906 138.984375 C 129.433594 138.414062 128.929688 137.796875 128.480469 137.128906 C 128.035156 136.460938 127.65625 135.753906 127.351562 135.011719 C 127.042969 134.269531 126.808594 133.503906 126.652344 132.714844 C 126.496094 131.925781 126.417969 131.128906 126.417969 130.328125 C 126.417969 129.523438 126.496094 128.726562 126.652344 127.9375 C 126.808594 127.148438 127.042969 126.382812 127.351562 125.640625 C 127.65625 124.898438 128.035156 124.191406 128.480469 123.523438 C 128.929688 122.855469 129.433594 122.238281 130.003906 121.667969 C 130.570312 121.101562 131.191406 120.59375 131.859375 120.148438 C 132.527344 119.699219 133.234375 119.324219 133.976562 119.015625 C 134.71875 118.707031 135.484375 118.476562 136.273438 118.320312 C 137.0625 118.164062 137.855469 118.082031 138.660156 118.082031 C 139.464844 118.082031 140.261719 118.164062 141.050781 118.320312 C 141.835938 118.476562 142.601562 118.707031 143.34375 119.015625 C 144.089844 119.324219 144.792969 119.699219 145.460938 120.148438 C 146.128906 120.59375 146.75 121.101562 147.316406 121.667969 C 147.886719 122.238281 148.394531 122.855469 148.839844 123.523438 C 149.285156 124.191406 149.664062 124.898438 149.972656 125.640625 C 150.277344 126.382812 150.511719 127.148438 150.667969 127.9375 C 150.824219 128.726562 150.902344 129.523438 150.902344 130.328125 Z M 150.902344 130.328125 " fill-opacity="1" fill-rule="nonzero"/><path fill="#ffcebe" d="M 186.523438 62.40625 C 213.3125 62.40625 236.652344 88.449219 236.652344 121.136719 C 236.652344 153.824219 219.132812 181.011719 188.113281 180.363281 C 158.890625 179.75 139.574219 153.824219 139.574219 121.136719 C 139.574219 88.449219 159.734375 62.40625 186.523438 62.40625 Z M 186.523438 62.40625 " fill-opacity="1" fill-rule="evenodd"/><path fill="#ffbaaf" d="M 223.636719 137.964844 C 223.636719 138.507812 223.566406 139.042969 223.429688 139.574219 C 223.292969 140.105469 223.09375 140.621094 222.824219 141.125 C 222.554688 141.625 222.226562 142.101562 221.835938 142.550781 C 221.445312 143 221.003906 143.417969 220.507812 143.800781 C 220.011719 144.183594 219.472656 144.527344 218.886719 144.828125 C 218.304688 145.128906 217.6875 145.382812 217.039062 145.589844 C 216.394531 145.796875 215.722656 145.953125 215.035156 146.058594 C 214.347656 146.164062 213.652344 146.21875 212.953125 146.21875 C 212.25 146.21875 211.554688 146.164062 210.867188 146.058594 C 210.179688 145.953125 209.511719 145.796875 208.863281 145.589844 C 208.214844 145.382812 207.597656 145.128906 207.015625 144.828125 C 206.433594 144.527344 205.890625 144.183594 205.394531 143.800781 C 204.898438 143.417969 204.457031 143 204.066406 142.550781 C 203.679688 142.101562 203.347656 141.625 203.082031 141.125 C 202.8125 140.621094 202.609375 140.105469 202.472656 139.574219 C 202.335938 139.042969 202.265625 138.507812 202.265625 137.964844 C 202.265625 137.421875 202.335938 136.886719 202.472656 136.355469 C 202.609375 135.824219 202.8125 135.308594 203.082031 134.804688 C 203.347656 134.304688 203.679688 133.832031 204.066406 133.378906 C 204.457031 132.929688 204.898438 132.511719 205.394531 132.128906 C 205.890625 131.746094 206.433594 131.402344 207.015625 131.101562 C 207.597656 130.800781 208.214844 130.546875 208.863281 130.339844 C 209.511719 130.132812 210.179688 129.976562 210.867188 129.871094 C 211.554688 129.765625 212.25 129.710938 212.953125 129.710938 C 213.652344 129.710938 214.347656 129.765625 215.035156 129.871094 C 215.722656 129.976562 216.394531 130.132812 217.039062 130.339844 C 217.6875 130.546875 218.304688 130.800781 218.886719 131.101562 C 219.472656 131.402344 220.011719 131.746094 220.507812 132.128906 C 221.003906 132.511719 221.445312 132.929688 221.835938 133.378906 C 222.226562 133.832031 222.554688 134.304688 222.824219 134.804688 C 223.09375 135.308594 223.292969 135.824219 223.429688 136.355469 C 223.566406 136.886719 223.636719 137.421875 223.636719 137.964844 Z M 223.636719 137.964844 " fill-opacity="1" fill-rule="nonzero"/><path fill="#ffbaaf" d="M 173.859375 137.964844 C 173.859375 138.507812 173.792969 139.042969 173.65625 139.574219 C 173.519531 140.105469 173.316406 140.621094 173.046875 141.125 C 172.777344 141.625 172.449219 142.101562 172.058594 142.550781 C 171.671875 143 171.226562 143.417969 170.730469 143.800781 C 170.234375 144.183594 169.695312 144.527344 169.113281 144.828125 C 168.527344 145.128906 167.914062 145.382812 167.265625 145.589844 C 166.617188 145.796875 165.949219 145.953125 165.261719 146.058594 C 164.570312 146.164062 163.878906 146.21875 163.175781 146.21875 C 162.472656 146.21875 161.78125 146.164062 161.089844 146.058594 C 160.402344 145.953125 159.734375 145.796875 159.085938 145.589844 C 158.4375 145.382812 157.824219 145.128906 157.238281 144.828125 C 156.65625 144.527344 156.117188 144.183594 155.621094 143.800781 C 155.125 143.417969 154.679688 143 154.292969 142.550781 C 153.902344 142.101562 153.574219 141.625 153.304688 141.125 C 153.035156 140.621094 152.832031 140.105469 152.695312 139.574219 C 152.558594 139.042969 152.492188 138.507812 152.492188 137.964844 C 152.492188 137.421875 152.558594 136.886719 152.695312 136.355469 C 152.832031 135.824219 153.035156 135.308594 153.304688 134.804688 C 153.574219 134.304688 153.902344 133.832031 154.292969 133.378906 C 154.679688 132.929688 155.125 132.511719 155.621094 132.128906 C 156.117188 131.746094 156.65625 131.402344 157.238281 131.101562 C 157.824219 130.800781 158.4375 130.546875 159.085938 130.339844 C 159.734375 130.132812 160.402344 129.976562 161.089844 129.871094 C 161.78125 129.765625 162.472656 129.710938 163.175781 129.710938 C 163.878906 129.710938 164.570312 129.765625 165.261719 129.871094 C 165.949219 129.976562 166.617188 130.132812 167.265625 130.339844 C 167.914062 130.546875 168.527344 130.800781 169.113281 131.101562 C 169.695312 131.402344 170.234375 131.746094 170.730469 132.128906 C 171.226562 132.511719 171.671875 132.929688 172.058594 133.378906 C 172.449219 133.832031 172.777344 134.304688 173.046875 134.804688 C 173.316406 135.308594 173.519531 135.824219 173.65625 136.355469 C 173.792969 136.886719 173.859375 137.421875 173.859375 137.964844 Z M 173.859375 137.964844 " fill-opacity="1" fill-rule="nonzero"/><path fill="#1a171b" d="M 198.90625 108.769531 C 201.597656 106.75 204.25 105.769531 206.882812 105.796875 C 209.570312 105.835938 212.21875 106.914062 214.84375 108.90625 C 215.351562 109.289062 216.074219 109.195312 216.460938 108.6875 C 216.84375 108.183594 216.746094 107.460938 216.238281 107.078125 C 213.167969 104.746094 210.054688 103.53125 206.910156 103.488281 C 203.816406 103.460938 200.679688 104.554688 197.515625 106.941406 C 197.007812 107.324219 196.90625 108.046875 197.289062 108.550781 C 197.671875 109.058594 198.394531 109.167969 198.90625 108.769531 Z M 198.90625 108.769531 " fill-opacity="1" fill-rule="evenodd"/><path fill="#1a171b" d="M 178.707031 106.941406 C 175.542969 104.554688 172.40625 103.460938 169.3125 103.488281 C 166.171875 103.53125 163.054688 104.746094 159.984375 107.078125 C 159.476562 107.460938 159.378906 108.183594 159.761719 108.6875 C 160.148438 109.195312 160.871094 109.289062 161.378906 108.90625 C 164.003906 106.914062 166.652344 105.835938 169.34375 105.796875 C 171.972656 105.769531 174.625 106.75 177.320312 108.769531 C 177.828125 109.167969 178.550781 109.058594 178.933594 108.550781 C 179.316406 108.046875 179.214844 107.324219 178.707031 106.941406 Z M 178.707031 106.941406 " fill-opacity="1" fill-rule="evenodd"/><path fill="#1a171b" d="M 175.875 146.460938 C 179.488281 148.980469 183.84375 150.273438 188.21875 150.199219 C 192.480469 150.121094 196.757812 148.738281 200.382812 145.9375 C 200.644531 145.730469 200.691406 145.359375 200.488281 145.09375 C 200.289062 144.835938 199.914062 144.785156 199.652344 144.988281 C 196.238281 147.636719 192.207031 148.929688 188.195312 148.996094 C 184.074219 149.070312 179.964844 147.855469 176.554688 145.488281 C 176.285156 145.296875 175.914062 145.359375 175.726562 145.628906 C 175.539062 145.910156 175.605469 146.28125 175.875 146.460938 Z M 175.875 146.460938 " fill-opacity="1" fill-rule="evenodd"/><path fill="#1a171b" d="M 184.898438 127.855469 L 184.769531 137.324219 C 184.765625 137.65625 185.023438 137.925781 185.351562 137.9375 L 190.855469 138.066406 C 191.183594 138.066406 191.457031 137.808594 191.464844 137.476562 C 191.472656 137.144531 191.210938 136.875 190.882812 136.863281 L 185.972656 136.75 C 185.972656 136.75 186.089844 127.878906 186.089844 127.878906 C 186.09375 127.546875 185.832031 127.277344 185.5 127.265625 C 185.171875 127.265625 184.902344 127.535156 184.898438 127.855469 Z M 184.898438 127.855469 " fill-opacity="1" fill-rule="evenodd"/><path fill="#1a171b" d="M 174.464844 122.523438 C 174.464844 122.859375 174.433594 123.195312 174.367188 123.523438 C 174.300781 123.851562 174.203125 124.171875 174.074219 124.484375 C 173.945312 124.792969 173.789062 125.089844 173.601562 125.367188 C 173.417969 125.648438 173.203125 125.90625 172.964844 126.144531 C 172.730469 126.382812 172.46875 126.59375 172.191406 126.78125 C 171.910156 126.964844 171.617188 127.125 171.304688 127.253906 C 170.996094 127.382812 170.675781 127.480469 170.347656 127.542969 C 170.015625 127.609375 169.683594 127.640625 169.347656 127.640625 C 169.011719 127.640625 168.679688 127.609375 168.347656 127.542969 C 168.019531 127.480469 167.699219 127.382812 167.390625 127.253906 C 167.078125 127.125 166.785156 126.964844 166.503906 126.78125 C 166.226562 126.59375 165.96875 126.382812 165.730469 126.144531 C 165.492188 125.90625 165.28125 125.648438 165.09375 125.367188 C 164.90625 125.089844 164.75 124.792969 164.621094 124.484375 C 164.492188 124.171875 164.394531 123.851562 164.328125 123.523438 C 164.261719 123.195312 164.230469 122.859375 164.230469 122.523438 C 164.230469 122.1875 164.261719 121.855469 164.328125 121.527344 C 164.394531 121.195312 164.492188 120.878906 164.621094 120.566406 C 164.75 120.257812 164.90625 119.960938 165.09375 119.683594 C 165.28125 119.402344 165.492188 119.144531 165.730469 118.90625 C 165.96875 118.667969 166.226562 118.457031 166.503906 118.269531 C 166.785156 118.082031 167.078125 117.925781 167.390625 117.796875 C 167.699219 117.667969 168.019531 117.570312 168.347656 117.503906 C 168.679688 117.441406 169.011719 117.40625 169.347656 117.40625 C 169.683594 117.40625 170.015625 117.441406 170.347656 117.503906 C 170.675781 117.570312 170.996094 117.667969 171.304688 117.796875 C 171.617188 117.925781 171.910156 118.082031 172.191406 118.269531 C 172.46875 118.457031 172.730469 118.667969 172.964844 118.90625 C 173.203125 119.144531 173.417969 119.402344 173.601562 119.683594 C 173.789062 119.960938 173.945312 120.257812 174.074219 120.566406 C 174.203125 120.878906 174.300781 121.195312 174.367188 121.527344 C 174.433594 121.855469 174.464844 122.1875 174.464844 122.523438 Z M 174.464844 122.523438 " fill-opacity="1" fill-rule="nonzero"/><path fill="#1a171b" d="M 211.992188 122.523438 C 211.992188 122.859375 211.960938 123.195312 211.894531 123.523438 C 211.828125 123.851562 211.730469 124.171875 211.601562 124.484375 C 211.472656 124.792969 211.316406 125.089844 211.128906 125.367188 C 210.945312 125.648438 210.730469 125.90625 210.492188 126.144531 C 210.257812 126.382812 209.996094 126.59375 209.71875 126.78125 C 209.4375 126.964844 209.144531 127.125 208.832031 127.253906 C 208.523438 127.382812 208.203125 127.480469 207.875 127.542969 C 207.542969 127.609375 207.210938 127.640625 206.875 127.640625 C 206.539062 127.640625 206.207031 127.609375 205.875 127.542969 C 205.546875 127.480469 205.226562 127.382812 204.917969 127.253906 C 204.605469 127.125 204.3125 126.964844 204.03125 126.78125 C 203.753906 126.59375 203.492188 126.382812 203.257812 126.144531 C 203.019531 125.90625 202.808594 125.648438 202.621094 125.367188 C 202.433594 125.089844 202.277344 124.792969 202.148438 124.484375 C 202.019531 124.171875 201.921875 123.851562 201.855469 123.523438 C 201.789062 123.195312 201.757812 122.859375 201.757812 122.523438 C 201.757812 122.1875 201.789062 121.855469 201.855469 121.527344 C 201.921875 121.195312 202.019531 120.878906 202.148438 120.566406 C 202.277344 120.257812 202.433594 119.960938 202.621094 119.683594 C 202.808594 119.402344 203.019531 119.144531 203.257812 118.90625 C 203.492188 118.667969 203.753906 118.457031 204.03125 118.269531 C 204.3125 118.082031 204.605469 117.925781 204.917969 117.796875 C 205.226562 117.667969 205.546875 117.570312 205.875 117.503906 C 206.207031 117.441406 206.539062 117.40625 206.875 117.40625 C 207.210938 117.40625 207.542969 117.441406 207.875 117.503906 C 208.203125 117.570312 208.523438 117.667969 208.832031 117.796875 C 209.144531 117.925781 209.4375 118.082031 209.71875 118.269531 C 209.996094 118.457031 210.257812 118.667969 210.492188 118.90625 C 210.730469 119.144531 210.945312 119.402344 211.128906 119.683594 C 211.316406 119.960938 211.472656 120.257812 211.601562 120.566406 C 211.730469 120.878906 211.828125 121.195312 211.894531 121.527344 C 211.960938 121.855469 211.992188 122.1875 211.992188 122.523438 Z M 211.992188 122.523438 " fill-opacity="1" fill-rule="nonzero"/><path fill="#1a171b" d="M 139.03125 126.871094 C 140.296875 126.90625 141.085938 116.171875 141.085938 116.171875 C 148.484375 111.402344 154.070312 92.128906 152.914062 83.476562 C 173.410156 96.394531 196.917969 99.199219 224.839844 87.191406 C 219.777344 95.074219 229.90625 116.921875 235.746094 117.46875 C 235.746094 117.46875 235.539062 124.949219 238.613281 126.246094 C 242.539062 127.894531 243.203125 115.015625 242.859375 109.441406 C 241.953125 94.722656 232.816406 75.722656 229.5625 64.34375 C 229.5625 64.34375 175.324219 42.039062 161.589844 61.527344 L 133.089844 85.445312 C 133.089844 85.445312 132.117188 126.691406 139.03125 126.871094 Z M 139.03125 126.871094 " fill-opacity="1" fill-rule="evenodd"/><path fill="#1a171b" d="M 154.894531 210.929688 L 180.613281 229.613281 C 180.933594 229.84375 181.371094 229.789062 181.625 229.484375 L 189.535156 219.929688 C 189.535156 219.929688 195.382812 229.648438 195.382812 229.648438 C 195.496094 229.832031 195.675781 229.960938 195.894531 230 C 196.097656 230.035156 196.316406 229.980469 196.480469 229.847656 L 221.304688 210.015625 C 221.625 209.757812 221.691406 209.289062 221.421875 208.96875 C 221.164062 208.644531 220.707031 208.59375 220.386719 208.847656 L 196.226562 228.152344 C 196.226562 228.152344 190.261719 218.261719 190.261719 218.261719 C 190.136719 218.054688 189.917969 217.921875 189.675781 217.902344 C 189.445312 217.882812 189.199219 217.984375 189.046875 218.171875 L 180.921875 227.996094 C 177.148438 225.253906 155.765625 209.722656 155.765625 209.722656 C 155.433594 209.484375 154.972656 209.558594 154.726562 209.890625 C 154.484375 210.222656 154.5625 210.6875 154.894531 210.929688 Z M 154.894531 210.929688 " fill-opacity="1" fill-rule="evenodd"/><g clip-path="url(#c8a79870ac)"><path fill="#623b24" d="M 201.796875 140.453125 C 197.910156 139.828125 191.304688 138.90625 187.65625 141.164062 C 184.003906 138.90625 177.402344 139.828125 173.515625 140.453125 C 168.675781 141.160156 165.160156 144.945312 161.507812 148.359375 C 160.046875 149.722656 158.476562 151.097656 156.53125 151.863281 C 159.746094 153.898438 164.292969 153.246094 167.128906 150.84375 C 166.640625 151.277344 166.171875 152.003906 165.6875 152.511719 C 167.804688 152.621094 169.324219 150.492188 171.03125 149.492188 C 170.847656 150.007812 170.910156 150.890625 170.722656 151.410156 C 173.207031 152.003906 176.949219 149.851562 178.804688 147.824219 C 178.636719 148.597656 178.71875 149.734375 178.328125 150.519531 C 180.464844 150.882812 182.714844 149.714844 184.277344 148.21875 C 184.296875 148.46875 184.320312 148.847656 184.347656 149.226562 C 185.738281 149.679688 186.828125 149.101562 187.65625 148.0625 C 188.480469 149.101562 189.570312 149.679688 190.964844 149.226562 C 190.988281 148.847656 191.015625 148.46875 191.03125 148.21875 C 192.59375 149.714844 194.847656 150.882812 196.984375 150.519531 C 196.59375 149.734375 196.671875 148.597656 196.503906 147.824219 C 198.363281 149.851562 202.105469 152.003906 204.589844 151.410156 C 204.402344 150.890625 204.464844 150.007812 204.277344 149.492188 C 205.988281 150.492188 207.503906 152.621094 209.625 152.511719 C 209.140625 152.003906 208.671875 151.277344 208.179688 150.84375 C 211.015625 153.246094 215.566406 153.898438 218.78125 151.863281 C 216.832031 151.097656 215.261719 149.722656 213.800781 148.359375 C 210.148438 144.945312 206.636719 141.160156 201.796875 140.453125 " fill-opacity="1" fill-rule="nonzero"/></g></svg>