<svg xmlns="http://www.w3.org/2000/svg" xmlns:xlink="http://www.w3.org/1999/xlink" width="500" zoomAndPan="magnify" viewBox="0 0 375 374.999991" height="500" preserveAspectRatio="xMidYMid meet" version="1.0"><defs><clipPath id="3386dc5703"><path d="M 162 37.5 L 182 37.5 L 182 94 L 162 94 Z M 162 37.5 " clip-rule="nonzero"/></clipPath><clipPath id="9da097dd10"><path d="M 318 185 L 337.175781 185 L 337.175781 241 L 318 241 Z M 318 185 " clip-rule="nonzero"/></clipPath><clipPath id="8738d6888a"><path d="M 48.425781 148 L 114 148 L 114 175 L 48.425781 175 Z M 48.425781 148 " clip-rule="nonzero"/></clipPath><clipPath id="9ac5e86882"><path d="M 210 256 L 227 256 L 227 312 L 210 312 Z M 210 256 " clip-rule="nonzero"/></clipPath><clipPath id="07ff87dca1"><path d="M 291 196 L 337.175781 196 L 337.175781 241 L 291 241 Z M 291 196 " clip-rule="nonzero"/></clipPath></defs><path fill="#70512e" d="M 319.238281 174.082031 C 319.238281 241.296875 264.746094 295.792969 197.523438 295.792969 C 130.300781 295.792969 75.808594 241.296875 75.808594 174.082031 C 75.808594 106.859375 130.300781 52.359375 197.523438 52.359375 C 264.746094 52.363281 319.238281 106.859375 319.238281 174.082031 " fill-opacity="1" fill-rule="nonzero"/><path fill="#70512e" d="M 206.441406 78.265625 L 201.671875 84.832031 L 157.011719 52.429688 L 161.78125 45.859375 L 206.441406 78.265625 " fill-opacity="1" fill-rule="nonzero"/><g clip-path="url(#3386dc5703)"><path fill="#70512e" d="M 170.90625 93.195312 L 162.949219 91.605469 L 173.769531 37.496094 L 181.730469 39.089844 L 170.90625 93.195312 " fill-opacity="1" fill-rule="nonzero"/></g><path fill="#70512e" d="M 159.703125 292.453125 L 154.941406 299.015625 L 110.28125 266.617188 L 115.042969 260.042969 L 159.703125 292.453125 " fill-opacity="1" fill-rule="nonzero"/><path fill="#70512e" d="M 325.792969 117.410156 L 321.027344 123.980469 L 276.367188 91.574219 L 281.132812 85.007812 L 325.792969 117.410156 " fill-opacity="1" fill-rule="nonzero"/><path fill="#70512e" d="M 127.417969 307.382812 L 119.460938 305.785156 L 130.28125 251.683594 L 138.238281 253.269531 L 127.417969 307.382812 " fill-opacity="1" fill-rule="nonzero"/><path fill="#70512e" d="M 324.363281 192.539062 L 316.40625 190.949219 L 327.226562 136.847656 L 335.175781 138.433594 L 324.363281 192.539062 " fill-opacity="1" fill-rule="nonzero"/><path fill="#70512e" d="M 267.277344 121.042969 L 259.320312 119.449219 L 270.140625 65.347656 L 278.097656 66.9375 L 267.277344 121.042969 " fill-opacity="1" fill-rule="nonzero"/><path fill="#70512e" d="M 101.421875 121.042969 L 93.464844 119.449219 L 104.28125 65.347656 L 112.242188 66.9375 L 101.421875 121.042969 " fill-opacity="1" fill-rule="nonzero"/><path fill="#70512e" d="M 220.265625 98.015625 L 212.308594 96.425781 L 223.128906 42.316406 L 231.085938 43.910156 L 220.265625 98.015625 " fill-opacity="1" fill-rule="nonzero"/><g clip-path="url(#9da097dd10)"><path fill="#70512e" d="M 326.671875 240.804688 L 318.710938 239.21875 L 329.535156 185.113281 L 337.492188 186.703125 L 326.671875 240.804688 " fill-opacity="1" fill-rule="nonzero"/></g><path fill="#70512e" d="M 80.640625 155.371094 L 72.683594 153.78125 L 83.503906 99.671875 L 91.460938 101.265625 L 80.640625 155.371094 " fill-opacity="1" fill-rule="nonzero"/><path fill="#70512e" d="M 130.332031 225.363281 L 136.289062 230.867188 L 98.878906 271.414062 L 92.914062 265.917969 L 130.332031 225.363281 " fill-opacity="1" fill-rule="nonzero"/><path fill="#70512e" d="M 140.992188 262.398438 L 138.480469 270.113281 L 86.015625 253.027344 L 88.523438 245.3125 L 140.992188 262.398438 " fill-opacity="1" fill-rule="nonzero"/><path fill="#70512e" d="M 108.640625 89.6875 L 114.601562 95.191406 L 77.1875 135.75 L 71.222656 130.246094 L 108.640625 89.6875 " fill-opacity="1" fill-rule="nonzero"/><path fill="#70512e" d="M 128.847656 126.019531 L 126.335938 133.734375 L 73.871094 116.648438 L 76.382812 108.933594 L 128.847656 126.019531 " fill-opacity="1" fill-rule="nonzero"/><path fill="#70512e" d="M 124.886719 230.042969 L 122.375 237.757812 L 69.90625 220.675781 L 72.417969 212.960938 L 124.886719 230.042969 " fill-opacity="1" fill-rule="nonzero"/><path fill="#70512e" d="M 308.574219 104.492188 L 314.539062 109.996094 L 277.121094 150.550781 L 271.15625 145.050781 L 308.574219 104.492188 " fill-opacity="1" fill-rule="nonzero"/><path fill="#70512e" d="M 326.792969 129.132812 L 324.28125 136.847656 L 271.808594 119.761719 L 274.320312 112.046875 L 326.792969 129.132812 " fill-opacity="1" fill-rule="nonzero"/><path fill="#70512e" d="M 281.410156 251.683594 L 287.371094 257.179688 L 249.960938 297.738281 L 243.996094 292.242188 L 281.410156 251.683594 " fill-opacity="1" fill-rule="nonzero"/><path fill="#70512e" d="M 138.773438 47.136719 L 144.738281 52.640625 L 107.324219 93.195312 L 101.359375 87.691406 L 138.773438 47.136719 " fill-opacity="1" fill-rule="nonzero"/><path fill="#70512e" d="M 299.625 276.320312 L 297.113281 284.035156 L 244.648438 266.949219 L 247.160156 259.234375 L 299.625 276.320312 " fill-opacity="1" fill-rule="nonzero"/><path fill="#70512e" d="M 156.878906 47.136719 L 162.839844 52.640625 L 125.421875 93.195312 L 119.460938 87.691406 L 156.878906 47.136719 " fill-opacity="1" fill-rule="nonzero"/><path fill="#70512e" d="M 243.472656 300.851562 L 238.710938 307.414062 L 194.046875 275.007812 L 198.8125 268.445312 L 243.472656 300.851562 " fill-opacity="1" fill-rule="nonzero"/><path fill="#70512e" d="M 268.707031 292.453125 L 263.941406 299.015625 L 219.28125 266.617188 L 224.050781 260.042969 L 268.707031 292.453125 " fill-opacity="1" fill-rule="nonzero"/><path fill="#70512e" d="M 122.105469 258.234375 L 117.34375 264.800781 L 72.683594 232.394531 L 77.449219 225.828125 L 122.105469 258.234375 " fill-opacity="1" fill-rule="nonzero"/><path fill="#70512e" d="M 102.851562 212.394531 L 98.085938 218.957031 L 53.425781 186.550781 L 58.191406 179.988281 L 102.851562 212.394531 " fill-opacity="1" fill-rule="nonzero"/><path fill="#70512e" d="M 189.679688 307.375 L 181.730469 305.785156 L 192.542969 251.683594 L 200.5 253.269531 L 189.679688 307.375 " fill-opacity="1" fill-rule="nonzero"/><path fill="#70512e" d="M 175.648438 261.316406 L 181.621094 266.820312 L 144.203125 307.375 L 138.238281 301.875 L 175.648438 261.316406 " fill-opacity="1" fill-rule="nonzero"/><path fill="#70512e" d="M 321.761719 155.410156 L 328.101562 160.472656 L 293.648438 203.574219 L 287.316406 198.511719 L 321.761719 155.410156 " fill-opacity="1" fill-rule="nonzero"/><path fill="#70512e" d="M 335.023438 191.601562 L 333.0625 199.46875 L 279.515625 186.140625 L 281.480469 178.269531 L 335.023438 191.601562 " fill-opacity="1" fill-rule="nonzero"/><path fill="#70512e" d="M 288.363281 203.46875 L 294.136719 197.769531 L 332.910156 237.027344 L 327.128906 242.734375 L 288.363281 203.46875 " fill-opacity="1" fill-rule="nonzero"/><path fill="#70512e" d="M 175.09375 71.773438 L 172.582031 79.488281 L 120.117188 62.40625 L 122.628906 54.691406 L 175.09375 71.773438 " fill-opacity="1" fill-rule="nonzero"/><path fill="#70512e" d="M 299.300781 85.238281 L 297.082031 93.042969 L 244.003906 77.96875 L 246.222656 70.164062 L 299.300781 85.238281 " fill-opacity="1" fill-rule="nonzero"/><path fill="#70512e" d="M 332.066406 224.964844 L 324.355469 227.511719 L 307.066406 175.109375 L 314.773438 172.566406 L 332.066406 224.964844 " fill-opacity="1" fill-rule="nonzero"/><path fill="#70512e" d="M 218.761719 55.996094 L 216.546875 63.804688 L 163.46875 48.730469 L 165.683594 40.925781 L 218.761719 55.996094 " fill-opacity="1" fill-rule="nonzero"/><path fill="#70512e" d="M 180.183594 302.652344 L 177.964844 310.457031 L 124.886719 295.386719 L 127.105469 287.582031 L 180.183594 302.652344 " fill-opacity="1" fill-rule="nonzero"/><path fill="#70512e" d="M 212.308594 299.425781 L 210.09375 307.234375 L 157.011719 292.15625 L 159.230469 284.351562 L 212.308594 299.425781 " fill-opacity="1" fill-rule="nonzero"/><path fill="#70512e" d="M 255.796875 60.582031 L 253.578125 68.386719 L 200.5 53.316406 L 202.71875 45.507812 L 255.796875 60.582031 " fill-opacity="1" fill-rule="nonzero"/><path fill="#70512e" d="M 246.773438 281.375 L 249.226562 289.109375 L 196.621094 305.773438 L 194.171875 298.039062 L 246.773438 281.375 " fill-opacity="1" fill-rule="nonzero"/><g clip-path="url(#8738d6888a)"><path fill="#70512e" d="M 113.660156 166.601562 L 111.445312 174.414062 L 48.425781 156.515625 L 50.644531 148.710938 L 113.660156 166.601562 " fill-opacity="1" fill-rule="nonzero"/></g><path fill="#70512e" d="M 271.066406 111.472656 L 263.050781 112.71875 L 254.609375 58.191406 L 262.625 56.949219 L 271.066406 111.472656 " fill-opacity="1" fill-rule="nonzero"/><path fill="#70512e" d="M 114.601562 191.261719 L 112.382812 199.066406 L 59.308594 184 L 61.523438 176.191406 L 114.601562 191.261719 " fill-opacity="1" fill-rule="nonzero"/><path fill="#70512e" d="M 86.371094 217.5 L 78.351562 218.742188 L 69.90625 164.21875 L 77.925781 162.972656 L 86.371094 217.5 " fill-opacity="1" fill-rule="nonzero"/><path fill="#70512e" d="M 82.105469 236.523438 L 74.085938 237.761719 L 65.636719 183.234375 L 73.65625 181.988281 L 82.105469 236.523438 " fill-opacity="1" fill-rule="nonzero"/><path fill="#70512e" d="M 301.078125 264.402344 L 293.0625 265.644531 L 284.617188 211.117188 L 292.632812 209.875 L 301.078125 264.402344 " fill-opacity="1" fill-rule="nonzero"/><path fill="#70512e" d="M 313.382812 269.378906 L 305.367188 270.617188 L 296.917969 216.089844 L 304.929688 214.847656 L 313.382812 269.378906 " fill-opacity="1" fill-rule="nonzero"/><g clip-path="url(#9ac5e86882)"><path fill="#70512e" d="M 226.996094 310.996094 L 218.972656 312.234375 L 210.53125 257.707031 L 218.546875 256.464844 L 226.996094 310.996094 " fill-opacity="1" fill-rule="nonzero"/></g><path fill="#70512e" d="M 292.84375 278.324219 L 284.828125 279.566406 L 276.378906 225.035156 L 284.402344 223.796875 L 292.84375 278.324219 " fill-opacity="1" fill-rule="nonzero"/><path fill="#70512e" d="M 279.304688 292.292969 L 271.285156 293.53125 L 262.839844 239.003906 L 270.855469 237.757812 L 279.304688 292.292969 " fill-opacity="1" fill-rule="nonzero"/><path fill="#70512e" d="M 279.902344 279.808594 L 274.261719 273.972656 L 313.929688 235.621094 L 319.570312 241.457031 L 279.902344 279.808594 " fill-opacity="1" fill-rule="nonzero"/><path fill="#70512e" d="M 105.089844 290.535156 L 99.453125 284.699219 L 139.121094 246.347656 L 144.765625 252.183594 L 105.089844 290.535156 " fill-opacity="1" fill-rule="nonzero"/><g clip-path="url(#07ff87dca1)"><path fill="#70512e" d="M 297.523438 240.835938 L 291.878906 235 L 331.554688 196.652344 L 337.191406 202.488281 L 297.523438 240.835938 " fill-opacity="1" fill-rule="nonzero"/></g><path fill="#70512e" d="M 60.613281 183.015625 L 52.8125 180.78125 L 67.984375 127.726562 L 75.785156 129.964844 L 60.613281 183.015625 " fill-opacity="1" fill-rule="nonzero"/><path fill="#70512e" d="M 327.46875 178.179688 L 319.453125 179.417969 L 311.003906 124.894531 L 319.027344 123.648438 L 327.46875 178.179688 " fill-opacity="1" fill-rule="nonzero"/><path fill="#594026" d="M 198.019531 166.269531 L 195.191406 160.042969 L 198.128906 153.671875 L 200.769531 152.714844 L 205.410156 162.914062 L 198.019531 166.269531 M 189.75 148.074219 L 182.347656 131.78125 L 187.488281 123.46875 L 195.246094 140.542969 L 192.179688 147.191406 L 189.75 148.074219 M 178.308594 122.886719 L 177.894531 121.96875 L 178.980469 121.796875 L 178.308594 122.886719 " fill-opacity="1" fill-rule="nonzero"/><path fill="#594026" d="M 170.121094 163.804688 L 167.359375 156.171875 L 189.75 148.074219 L 192.179688 147.191406 L 187.410156 157.546875 L 170.121094 163.804688 M 198.128906 153.671875 L 202.90625 143.3125 L 218.148438 137.792969 L 219.351562 137.703125 L 222.003906 145.03125 L 200.769531 152.714844 L 198.128906 153.671875 " fill-opacity="1" fill-rule="nonzero"/><path fill="#594026" d="M 192.242188 166.449219 L 184.875 163.054688 L 187.410156 157.546875 L 192.179688 147.191406 L 195.246094 140.542969 L 199.722656 130.828125 L 206.375 135.71875 L 206.441406 135.628906 L 202.90625 143.3125 L 198.128906 153.671875 L 195.191406 160.042969 L 192.242188 166.449219 M 211.808594 122.613281 L 205.210938 118.914062 L 205.859375 117.5 L 211.335938 116.625 L 211.808594 122.613281 " fill-opacity="1" fill-rule="nonzero"/><path fill="#594026" d="M 227.78125 140.875 L 221.101562 137.128906 L 220.328125 127.394531 L 231.75 133.800781 L 227.78125 140.875 M 212.582031 132.347656 L 209.9375 130.867188 L 211.183594 129.179688 L 197.171875 118.886719 L 203.390625 117.898438 L 205.210938 118.914062 L 211.808594 122.613281 L 212.582031 132.347656 M 185.902344 110.609375 L 182.777344 108.316406 L 183.621094 106.808594 L 187.058594 108.738281 L 185.902344 110.609375 " fill-opacity="1" fill-rule="nonzero"/><path fill="#594026" d="M 182.285156 131.875 L 175.382812 127.605469 L 178.308594 122.886719 L 178.980469 121.796875 L 185.914062 120.683594 L 188.179688 122.351562 L 187.488281 123.46875 L 182.347656 131.78125 L 182.285156 131.875 M 187.984375 112.136719 L 185.902344 110.609375 L 187.058594 108.738281 L 202.917969 83.117188 L 204.597656 80.800781 L 208.695312 83.335938 L 209.109375 88.53125 L 195.214844 110.980469 L 187.984375 112.136719 " fill-opacity="1" fill-rule="nonzero"/><path fill="#594026" d="M 202.917969 83.117188 L 204.417969 80.6875 L 204.597656 80.800781 L 202.917969 83.117188 " fill-opacity="1" fill-rule="nonzero"/><path fill="#594026" d="M 206.375 135.71875 L 199.722656 130.828125 L 188.179688 122.351562 L 185.914062 120.683594 L 197.171875 118.886719 L 211.183594 129.179688 L 209.9375 130.867188 L 206.441406 135.628906 L 206.375 135.71875 M 176.730469 113.941406 L 161.90625 103.054688 L 166.707031 96.511719 L 182.777344 108.316406 L 185.902344 110.609375 L 187.984375 112.136719 L 176.730469 113.941406 " fill-opacity="1" fill-rule="nonzero"/><path fill="#594026" d="M 172.019531 122.90625 L 170.742188 114.898438 L 176.730469 113.941406 L 187.984375 112.136719 L 195.214844 110.980469 L 210.691406 108.511719 L 211.335938 116.625 L 205.859375 117.5 L 203.390625 117.898438 L 197.171875 118.886719 L 185.914062 120.683594 L 178.980469 121.796875 L 177.894531 121.96875 L 172.019531 122.90625 M 219.375 115.339844 L 218.730469 107.230469 L 225.226562 106.1875 L 226.503906 114.203125 L 219.375 115.339844 " fill-opacity="1" fill-rule="nonzero"/><path fill="#594026" d="M 213.046875 138.203125 L 212.582031 132.347656 L 211.808594 122.613281 L 211.335938 116.625 L 210.691406 108.511719 L 209.109375 88.53125 L 208.695312 83.335938 L 208.6875 83.195312 L 215.054688 82.691406 L 212.308594 96.425781 L 217.964844 97.554688 L 218.730469 107.230469 L 219.375 115.339844 L 220.328125 127.394531 L 221.101562 137.128906 L 221.132812 137.558594 L 219.351562 137.703125 L 218.148438 137.792969 L 213.046875 138.203125 " fill-opacity="1" fill-rule="nonzero"/><path fill="#594026" d="M 217.964844 97.554688 L 212.308594 96.425781 L 215.054688 82.691406 L 216.773438 82.554688 L 217.964844 97.554688 " fill-opacity="1" fill-rule="nonzero"/><path fill="#594026" d="M 146.90625 172.585938 L 145.921875 172.09375 L 147.105469 171.601562 L 146.90625 172.585938 M 140.003906 165.757812 L 143.679688 147.375 L 150.042969 143.765625 L 152.53125 144.472656 L 149.023438 162.027344 L 140.003906 165.757812 M 149.003906 135.03125 L 146.296875 134.265625 L 148.492188 123.277344 L 156.449219 124.871094 L 155.113281 131.574219 L 149.003906 135.03125 " fill-opacity="1" fill-rule="nonzero"/><path fill="#594026" d="M 175.4375 150.980469 L 152.53125 144.472656 L 150.042969 143.765625 L 159.964844 138.144531 L 177.65625 143.171875 L 175.4375 150.980469 M 139.074219 140.652344 L 123.480469 136.222656 L 122.445312 135.59375 L 123.261719 132.730469 L 126.335938 133.734375 L 127.871094 129.039062 L 146.296875 134.265625 L 149.003906 135.03125 L 139.074219 140.652344 " fill-opacity="1" fill-rule="nonzero"/><path fill="#594026" d="M 126.335938 133.734375 L 123.261719 132.730469 L 124.578125 128.097656 L 127.871094 129.039062 L 126.335938 133.734375 " fill-opacity="1" fill-rule="nonzero"/><path fill="#594026" d="M 121.601562 159.878906 L 116.640625 157.386719 L 119.757812 152.246094 L 122.957031 159.109375 L 121.601562 159.878906 M 134.363281 152.648438 L 131.820312 144.789062 L 131.710938 144.824219 L 139.074219 140.652344 L 149.003906 135.03125 L 155.113281 131.574219 L 161.242188 128.097656 L 165.242188 135.160156 L 159.964844 138.144531 L 150.042969 143.765625 L 143.679688 147.375 L 134.363281 152.648438 " fill-opacity="1" fill-rule="nonzero"/><path fill="#594026" d="M 133.40625 181.546875 L 131.738281 177.96875 L 133.769531 177.128906 L 134.964844 180.816406 L 133.40625 181.546875 M 129.457031 163.820312 L 123.832031 160.996094 L 122.957031 159.109375 L 119.757812 152.246094 L 124.816406 143.890625 L 126.101562 146.640625 L 124.101562 147.292969 L 129.457031 163.820312 M 115.628906 143.394531 L 110.105469 131.53125 L 113.996094 129.714844 L 118.96875 131.332031 L 120.691406 135.046875 L 115.628906 143.394531 " fill-opacity="1" fill-rule="nonzero"/><path fill="#594026" d="M 118.96875 131.332031 L 113.996094 129.714844 L 117.457031 128.097656 L 118.96875 131.332031 " fill-opacity="1" fill-rule="nonzero"/><path fill="#594026" d="M 105.726562 188.742188 L 99.796875 187.0625 L 99.335938 185.949219 L 102.039062 181.488281 L 126.433594 171.382812 L 132.972656 174.667969 L 133.769531 177.128906 L 131.738281 177.96875 L 105.726562 188.742188 " fill-opacity="1" fill-rule="nonzero"/><path fill="#594026" d="M 101.261719 190.597656 L 99.796875 187.0625 L 105.726562 188.742188 L 101.261719 190.597656 " fill-opacity="1" fill-rule="nonzero"/><path fill="#594026" d="M 145.921875 172.09375 L 139.644531 168.941406 L 138.78125 166.265625 L 140.003906 165.757812 L 149.023438 162.027344 L 149.128906 161.980469 L 152.238281 169.472656 L 147.105469 171.601562 L 145.921875 172.09375 " fill-opacity="1" fill-rule="nonzero"/><path fill="#594026" d="M 141.113281 199.78125 L 134.964844 180.816406 L 133.769531 177.128906 L 132.972656 174.667969 L 143.160156 179.789062 L 148.835938 197.277344 L 141.113281 199.78125 M 139.644531 168.941406 L 129.457031 163.820312 L 124.101562 147.292969 L 126.101562 146.640625 L 131.710938 144.824219 L 131.820312 144.789062 L 134.363281 152.648438 L 138.78125 166.265625 L 139.644531 168.941406 " fill-opacity="1" fill-rule="nonzero"/><path fill="#594026" d="M 148.585938 182.503906 L 143.160156 179.789062 L 132.972656 174.667969 L 126.433594 171.382812 L 112.421875 164.347656 L 116.640625 157.386719 L 121.601562 159.878906 L 123.832031 160.996094 L 129.457031 163.820312 L 139.644531 168.941406 L 145.921875 172.09375 L 146.90625 172.585938 L 152.222656 175.257812 L 148.585938 182.503906 M 105.152344 160.695312 L 99.273438 157.742188 L 102.914062 150.496094 L 109.367188 153.734375 L 105.152344 160.695312 " fill-opacity="1" fill-rule="nonzero"/><path fill="#594026" d="M 99.265625 186.066406 L 92.324219 181.867188 L 98.984375 170.871094 L 107.078125 173.171875 L 102.039062 181.488281 L 99.335938 185.949219 L 99.265625 186.066406 M 111.4375 165.976562 L 103.34375 163.675781 L 105.152344 160.695312 L 109.367188 153.734375 L 115.628906 143.394531 L 120.691406 135.046875 L 120.917969 134.667969 L 122.445312 135.59375 L 123.480469 136.222656 L 127.859375 138.875 L 124.816406 143.890625 L 119.757812 152.246094 L 116.640625 157.386719 L 112.421875 164.347656 L 111.4375 165.976562 " fill-opacity="1" fill-rule="nonzero"/><path fill="#594026" d="M 107.078125 173.171875 L 98.984375 170.871094 L 103.34375 163.675781 L 111.4375 165.976562 L 107.078125 173.171875 " fill-opacity="1" fill-rule="nonzero"/><path fill="#594026" d="M 233.617188 238.5625 L 232.625 238.070312 L 233.816406 237.578125 L 233.617188 238.5625 M 226.703125 231.742188 L 230.382812 213.351562 L 236.75 209.746094 L 239.234375 210.449219 L 235.726562 228.003906 L 226.703125 231.742188 M 234.359375 193.460938 L 235.195312 189.261719 L 241.472656 190.515625 L 234.359375 193.460938 " fill-opacity="1" fill-rule="nonzero"/><path fill="#594026" d="M 262.144531 216.957031 L 239.234375 210.449219 L 236.75 209.746094 L 246.675781 204.128906 L 259.042969 207.636719 L 261.921875 216.515625 L 262.304688 216.394531 L 262.144531 216.957031 M 225.789062 206.628906 L 224.59375 206.289062 L 231.273438 203.523438 L 225.789062 206.628906 M 221.242188 205.34375 L 210.183594 202.207031 L 209.15625 201.578125 L 211.285156 194.074219 L 215.203125 195.1875 L 213.132812 198.605469 L 220.074219 202.804688 L 220.144531 202.691406 L 221.242188 205.34375 M 222.847656 198.230469 L 223.292969 197.488281 L 224.09375 197.710938 L 222.847656 198.230469 " fill-opacity="1" fill-rule="nonzero"/><path fill="#594026" d="M 208.304688 225.855469 L 203.351562 223.363281 L 206.464844 218.222656 L 209.660156 225.089844 L 208.304688 225.855469 M 221.070312 218.625 L 218.527344 210.765625 L 218.425781 210.796875 L 225.789062 206.628906 L 231.273438 203.523438 L 249.117188 196.132812 L 251.949219 201.136719 L 246.675781 204.128906 L 236.75 209.746094 L 230.382812 213.351562 L 221.070312 218.625 " fill-opacity="1" fill-rule="nonzero"/><path fill="#594026" d="M 220.113281 247.515625 L 218.441406 243.945312 L 220.476562 243.101562 L 221.671875 246.792969 L 220.113281 247.515625 M 216.167969 229.796875 L 210.535156 226.972656 L 209.660156 225.089844 L 206.464844 218.222656 L 207.722656 216.140625 L 212.140625 217.390625 L 216.167969 229.796875 M 203.992188 206.640625 L 200.621094 205.683594 L 199.8125 203.9375 L 203.300781 201.960938 L 199.953125 196.042969 L 204.164062 194.074219 L 207.398438 201.015625 L 203.992188 206.640625 " fill-opacity="1" fill-rule="nonzero"/><path fill="#594026" d="M 187.96875 256.566406 L 186.042969 251.925781 L 188.746094 247.464844 L 213.136719 237.359375 L 219.683594 240.644531 L 220.476562 243.101562 L 218.441406 243.945312 L 197.421875 252.65625 L 192.542969 251.683594 L 191.890625 254.945312 L 187.96875 256.566406 " fill-opacity="1" fill-rule="nonzero"/><path fill="#594026" d="M 191.890625 254.945312 L 192.542969 251.683594 L 197.421875 252.65625 L 191.890625 254.945312 " fill-opacity="1" fill-rule="nonzero"/><path fill="#594026" d="M 232.625 238.070312 L 226.355469 234.917969 L 225.488281 232.246094 L 226.703125 231.742188 L 235.726562 228.003906 L 235.835938 227.953125 L 238.941406 235.449219 L 233.816406 237.578125 L 232.625 238.070312 " fill-opacity="1" fill-rule="nonzero"/><path fill="#594026" d="M 230.652344 264.839844 L 226.5625 261.867188 L 221.671875 246.792969 L 220.476562 243.101562 L 219.683594 240.644531 L 229.871094 245.757812 L 235.542969 263.253906 L 230.652344 264.839844 " fill-opacity="1" fill-rule="nonzero"/><path fill="#594026" d="M 227.820312 265.757812 L 226.5625 261.867188 L 230.652344 264.839844 L 227.820312 265.757812 " fill-opacity="1" fill-rule="nonzero"/><path fill="#594026" d="M 226.355469 234.917969 L 216.167969 229.796875 L 212.140625 217.390625 L 213.496094 217.777344 L 215.175781 211.851562 L 218.425781 210.796875 L 218.527344 210.765625 L 221.070312 218.625 L 225.488281 232.246094 L 226.355469 234.917969 " fill-opacity="1" fill-rule="nonzero"/><path fill="#594026" d="M 235.292969 248.480469 L 229.871094 245.757812 L 219.683594 240.644531 L 213.136719 237.359375 L 199.132812 230.328125 L 203.351562 223.363281 L 208.304688 225.855469 L 210.535156 226.972656 L 216.167969 229.796875 L 226.355469 234.917969 L 232.625 238.070312 L 233.617188 238.5625 L 238.929688 241.234375 L 235.292969 248.480469 M 191.851562 226.671875 L 187.902344 224.691406 L 189.5 216.714844 L 189.621094 216.472656 L 196.078125 219.710938 L 191.851562 226.671875 " fill-opacity="1" fill-rule="nonzero"/><path fill="#594026" d="M 185.972656 252.042969 L 182.265625 249.796875 L 181.21875 246.582031 L 186.636719 249.304688 L 190.28125 242.050781 L 184.960938 239.386719 L 185.160156 238.394531 L 190.292969 236.273438 L 188.566406 232.101562 L 191.851562 226.671875 L 196.078125 219.710938 L 199.632812 213.839844 L 207.722656 216.140625 L 206.464844 218.222656 L 203.351562 223.363281 L 199.132812 230.328125 L 188.746094 247.464844 L 186.042969 251.925781 L 185.972656 252.042969 M 212.089844 208.941406 L 203.992188 206.640625 L 207.398438 201.015625 L 207.621094 200.644531 L 209.15625 201.578125 L 210.183594 202.207031 L 214.5625 204.851562 L 212.089844 208.941406 " fill-opacity="1" fill-rule="nonzero"/><path fill="#594026" d="M 184.34375 239.074219 L 183.976562 238.886719 L 184.617188 238.625 L 184.34375 239.074219 " fill-opacity="1" fill-rule="nonzero"/><path fill="#463220" d="M 184.960938 239.386719 L 184.34375 239.074219 L 184.617188 238.625 L 185.160156 238.394531 L 184.960938 239.386719 " fill-opacity="1" fill-rule="nonzero"/><path fill="#594026" d="M 178.054688 232.558594 L 181.730469 214.171875 L 188.101562 210.566406 L 190.585938 211.269531 L 189.5 216.714844 L 185.980469 223.71875 L 187.902344 224.691406 L 187.078125 228.820312 L 178.054688 232.558594 " fill-opacity="1" fill-rule="nonzero"/><path fill="#463220" d="M 187.902344 224.691406 L 185.980469 223.71875 L 189.5 216.714844 L 187.902344 224.691406 " fill-opacity="1" fill-rule="nonzero"/><path fill="#594026" d="M 187.058594 201.835938 L 184.355469 201.066406 L 186.546875 190.078125 L 194.507812 191.671875 L 193.171875 198.371094 L 187.058594 201.835938 " fill-opacity="1" fill-rule="nonzero"/><path fill="#594026" d="M 199.632812 213.839844 L 190.585938 211.269531 L 188.101562 210.566406 L 198.019531 204.945312 L 200.621094 205.683594 L 202.34375 209.371094 L 199.632812 213.839844 M 212.804688 212.625 L 211.519531 209.875 L 212.089844 208.941406 L 215.714844 209.972656 L 215.175781 211.851562 L 212.804688 212.625 " fill-opacity="1" fill-rule="nonzero"/><path fill="#463220" d="M 212.140625 217.390625 L 207.722656 216.140625 L 211.519531 209.875 L 212.804688 212.625 L 210.804688 213.269531 L 212.140625 217.390625 M 202.34375 209.371094 L 200.621094 205.683594 L 203.992188 206.640625 L 202.34375 209.371094 " fill-opacity="1" fill-rule="nonzero"/><path fill="#463220" d="M 213.496094 217.777344 L 212.140625 217.390625 L 210.804688 213.269531 L 212.804688 212.625 L 215.175781 211.851562 L 213.496094 217.777344 " fill-opacity="1" fill-rule="nonzero"/><path fill="#463220" d="M 207.722656 216.140625 L 199.632812 213.839844 L 202.34375 209.371094 L 203.992188 206.640625 L 212.089844 208.941406 L 211.519531 209.875 L 207.722656 216.140625 " fill-opacity="1" fill-rule="nonzero"/><path fill="#594026" d="M 177.132812 207.453125 L 161.535156 203.023438 L 160.5 202.398438 L 162.636719 194.898438 L 184.355469 201.066406 L 187.058594 201.835938 L 177.132812 207.453125 " fill-opacity="1" fill-rule="nonzero"/><path fill="#594026" d="M 159.65625 226.671875 L 154.699219 224.1875 L 157.816406 219.046875 L 161.011719 225.90625 L 159.65625 226.671875 M 172.421875 219.445312 L 169.878906 211.589844 L 169.777344 211.621094 L 177.132812 207.453125 L 187.058594 201.835938 L 193.171875 198.371094 L 199.304688 194.898438 L 199.953125 196.042969 L 196.8125 197.5 L 199.8125 203.9375 L 198.019531 204.945312 L 188.101562 210.566406 L 181.730469 214.171875 L 172.421875 219.445312 " fill-opacity="1" fill-rule="nonzero"/><path fill="#463220" d="M 199.8125 203.9375 L 196.8125 197.5 L 199.953125 196.042969 L 203.300781 201.960938 L 199.8125 203.9375 " fill-opacity="1" fill-rule="nonzero"/><path fill="#594026" d="M 171.457031 248.339844 L 169.796875 244.769531 L 171.828125 243.925781 L 173.023438 247.613281 L 171.457031 248.339844 M 167.511719 230.625 L 161.886719 227.792969 L 161.011719 225.90625 L 157.816406 219.046875 L 162.871094 210.695312 L 164.152344 213.441406 L 162.15625 214.085938 L 167.511719 230.625 M 153.6875 210.195312 L 148.164062 198.324219 L 155.515625 194.898438 L 158.75 201.839844 L 153.6875 210.195312 " fill-opacity="1" fill-rule="nonzero"/><path fill="#594026" d="M 139.414062 257.355469 L 144.765625 252.183594 L 140.738281 248.023438 L 164.488281 238.179688 L 171.027344 241.464844 L 171.828125 243.925781 L 169.796875 244.769531 L 139.414062 257.355469 " fill-opacity="1" fill-rule="nonzero"/><path fill="#594026" d="M 139.320312 257.390625 L 137.394531 252.746094 L 140.097656 248.285156 L 140.738281 248.023438 L 144.765625 252.183594 L 139.414062 257.355469 L 139.320312 257.390625 " fill-opacity="1" fill-rule="nonzero"/><path fill="#594026" d="M 183.976562 238.886719 L 177.703125 235.738281 L 176.839844 233.066406 L 178.054688 232.558594 L 187.078125 228.820312 L 187.1875 228.777344 L 188.566406 232.101562 L 184.617188 238.625 L 183.976562 238.886719 " fill-opacity="1" fill-rule="nonzero"/><path fill="#463220" d="M 184.617188 238.625 L 188.566406 232.101562 L 190.292969 236.273438 L 185.160156 238.394531 L 184.617188 238.625 " fill-opacity="1" fill-rule="nonzero"/><path fill="#594026" d="M 180.78125 266.054688 L 178.238281 263.707031 L 173.023438 247.613281 L 171.828125 243.925781 L 171.027344 241.464844 L 180.128906 246.035156 L 179.03125 247.84375 L 182.265625 249.796875 L 186.886719 264.070312 L 180.78125 266.054688 " fill-opacity="1" fill-rule="nonzero"/><path fill="#594026" d="M 179.171875 266.578125 L 178.238281 263.707031 L 180.78125 266.054688 L 179.171875 266.578125 " fill-opacity="1" fill-rule="nonzero"/><path fill="#463220" d="M 182.265625 249.796875 L 179.03125 247.84375 L 180.128906 246.035156 L 181.21875 246.582031 L 182.265625 249.796875 " fill-opacity="1" fill-rule="nonzero"/><path fill="#594026" d="M 177.703125 235.738281 L 167.511719 230.625 L 162.15625 214.085938 L 164.152344 213.441406 L 169.777344 211.621094 L 169.878906 211.589844 L 172.421875 219.445312 L 176.839844 233.066406 L 177.703125 235.738281 " fill-opacity="1" fill-rule="nonzero"/><path fill="#594026" d="M 180.128906 246.035156 L 171.027344 241.464844 L 164.488281 238.179688 L 150.480469 231.148438 L 154.699219 224.1875 L 159.65625 226.671875 L 161.886719 227.792969 L 167.511719 230.625 L 177.703125 235.738281 L 183.976562 238.886719 L 184.34375 239.074219 L 180.128906 246.035156 " fill-opacity="1" fill-rule="nonzero"/><path fill="#463220" d="M 186.636719 249.304688 L 181.21875 246.582031 L 180.128906 246.035156 L 184.34375 239.074219 L 184.960938 239.386719 L 190.28125 242.050781 L 186.636719 249.304688 " fill-opacity="1" fill-rule="nonzero"/><path fill="#594026" d="M 143.210938 227.492188 L 137.332031 224.542969 L 140.972656 217.289062 L 147.421875 220.53125 L 143.210938 227.492188 " fill-opacity="1" fill-rule="nonzero"/><path fill="#594026" d="M 134.28125 251.027344 L 130.382812 248.660156 L 143.210938 227.492188 L 147.421875 220.53125 L 153.6875 210.195312 L 158.75 201.839844 L 158.972656 201.46875 L 160.5 202.398438 L 161.535156 203.023438 L 165.914062 205.675781 L 162.871094 210.695312 L 157.816406 219.046875 L 154.699219 224.1875 L 150.480469 231.148438 L 140.445312 247.714844 L 139.121094 246.347656 L 134.28125 251.027344 " fill-opacity="1" fill-rule="nonzero"/><path fill="#594026" d="M 137.324219 252.867188 L 134.28125 251.027344 L 139.121094 246.347656 L 140.445312 247.714844 L 140.097656 248.285156 L 137.394531 252.746094 L 137.324219 252.867188 " fill-opacity="1" fill-rule="nonzero"/><path fill="#594026" d="M 267.71875 189.324219 L 266.726562 188.832031 L 267.917969 188.339844 L 267.71875 189.324219 M 260.808594 182.503906 L 264.484375 164.117188 L 270.851562 160.511719 L 273.335938 161.214844 L 269.828125 178.765625 L 260.808594 182.503906 M 269.808594 151.78125 L 267.105469 151.011719 L 269.296875 140.019531 L 274.789062 141.117188 L 271.15625 145.050781 L 275.164062 148.742188 L 269.808594 151.78125 " fill-opacity="1" fill-rule="nonzero"/><path fill="#594026" d="M 275.164062 148.742188 L 271.15625 145.050781 L 274.789062 141.117188 L 277.253906 141.609375 L 275.917969 148.316406 L 275.164062 148.742188 " fill-opacity="1" fill-rule="nonzero"/><path fill="#594026" d="M 296.246094 167.722656 L 273.335938 161.214844 L 270.851562 160.511719 L 280.777344 154.894531 L 298.460938 159.917969 L 296.246094 167.722656 M 259.882812 157.390625 L 244.292969 152.960938 L 243.257812 152.335938 L 245.386719 144.839844 L 267.105469 151.011719 L 269.808594 151.78125 L 259.882812 157.390625 " fill-opacity="1" fill-rule="nonzero"/><path fill="#594026" d="M 242.40625 176.617188 L 237.453125 174.125 L 240.566406 168.988281 L 243.761719 175.851562 L 242.40625 176.617188 M 255.171875 169.390625 L 252.625 161.527344 L 252.523438 161.558594 L 259.882812 157.390625 L 269.808594 151.78125 L 275.164062 148.742188 L 277.121094 150.550781 L 282.183594 145.070312 L 286.050781 151.902344 L 280.777344 154.894531 L 270.851562 160.511719 L 264.484375 164.117188 L 255.171875 169.390625 " fill-opacity="1" fill-rule="nonzero"/><path fill="#594026" d="M 277.121094 150.550781 L 275.164062 148.742188 L 275.917969 148.316406 L 282.054688 144.839844 L 282.183594 145.070312 L 277.121094 150.550781 " fill-opacity="1" fill-rule="nonzero"/><path fill="#594026" d="M 254.210938 198.285156 L 252.542969 194.707031 L 254.578125 193.871094 L 255.773438 197.558594 L 254.210938 198.285156 M 250.269531 180.5625 L 244.636719 177.738281 L 243.761719 175.851562 L 240.566406 168.988281 L 245.628906 160.632812 L 246.90625 163.386719 L 244.90625 164.03125 L 250.269531 180.5625 M 236.4375 160.132812 L 230.914062 148.269531 L 238.265625 144.839844 L 241.5 151.785156 L 236.4375 160.132812 " fill-opacity="1" fill-rule="nonzero"/><path fill="#594026" d="M 222.066406 207.335938 L 221.242188 205.34375 L 224.59375 206.289062 L 222.066406 207.335938 M 233.003906 200.242188 L 224.09375 197.710938 L 234.359375 193.460938 L 233.003906 200.242188 M 241.816406 197.550781 L 243.152344 190.847656 L 241.472656 190.515625 L 247.238281 188.125 L 253.785156 191.410156 L 254.578125 193.871094 L 252.542969 194.707031 L 249.117188 196.132812 L 247.953125 194.074219 L 241.816406 197.550781 " fill-opacity="1" fill-rule="nonzero"/><path fill="#463220" d="M 235.707031 201.011719 L 233.003906 200.242188 L 234.359375 193.460938 L 241.472656 190.515625 L 243.152344 190.847656 L 241.816406 197.550781 L 235.707031 201.011719 " fill-opacity="1" fill-rule="nonzero"/><path fill="#463220" d="M 224.59375 206.289062 L 221.242188 205.34375 L 220.144531 202.691406 L 222.847656 198.230469 L 224.09375 197.710938 L 233.003906 200.242188 L 235.707031 201.011719 L 231.273438 203.523438 L 224.59375 206.289062 " fill-opacity="1" fill-rule="nonzero"/><path fill="#463220" d="M 231.273438 203.523438 L 235.707031 201.011719 L 241.816406 197.550781 L 247.953125 194.074219 L 249.117188 196.132812 L 231.273438 203.523438 " fill-opacity="1" fill-rule="nonzero"/><path fill="#594026" d="M 266.726562 188.832031 L 260.449219 185.683594 L 259.585938 183.003906 L 260.808594 182.503906 L 269.828125 178.765625 L 269.9375 178.714844 L 273.042969 186.210938 L 267.917969 188.339844 L 266.726562 188.832031 " fill-opacity="1" fill-rule="nonzero"/><path fill="#594026" d="M 262.304688 216.394531 L 264.363281 209.148438 L 259.042969 207.636719 L 255.773438 197.558594 L 254.578125 193.871094 L 253.785156 191.410156 L 263.972656 196.523438 L 269.640625 214.015625 L 262.304688 216.394531 " fill-opacity="1" fill-rule="nonzero"/><path fill="#463220" d="M 261.921875 216.515625 L 259.042969 207.636719 L 264.363281 209.148438 L 262.304688 216.394531 L 261.921875 216.515625 " fill-opacity="1" fill-rule="nonzero"/><path fill="#594026" d="M 260.449219 185.683594 L 250.269531 180.5625 L 244.90625 164.03125 L 246.90625 163.386719 L 252.523438 161.558594 L 252.625 161.527344 L 255.171875 169.390625 L 259.585938 183.003906 L 260.449219 185.683594 " fill-opacity="1" fill-rule="nonzero"/><path fill="#594026" d="M 269.394531 199.246094 L 263.972656 196.523438 L 253.785156 191.410156 L 247.238281 188.125 L 233.226562 181.085938 L 237.453125 174.125 L 242.40625 176.617188 L 244.636719 177.738281 L 250.269531 180.5625 L 260.449219 185.683594 L 266.726562 188.832031 L 267.71875 189.324219 L 273.03125 191.996094 L 269.394531 199.246094 M 225.960938 177.4375 L 220.078125 174.484375 L 223.722656 167.234375 L 230.171875 170.476562 L 225.960938 177.4375 " fill-opacity="1" fill-rule="nonzero"/><path fill="#594026" d="M 223.292969 197.488281 L 215.203125 195.1875 L 225.960938 177.4375 L 230.171875 170.476562 L 236.4375 160.132812 L 241.5 151.785156 L 241.722656 151.410156 L 243.257812 152.335938 L 244.292969 152.960938 L 248.664062 155.613281 L 245.628906 160.632812 L 240.566406 168.988281 L 237.453125 174.125 L 233.226562 181.085938 L 223.292969 197.488281 " fill-opacity="1" fill-rule="nonzero"/><path fill="#463220" d="M 220.074219 202.804688 L 213.132812 198.605469 L 215.203125 195.1875 L 223.292969 197.488281 L 222.847656 198.230469 L 220.144531 202.691406 L 220.074219 202.804688 " fill-opacity="1" fill-rule="nonzero"/><path fill="#e89c62" d="M 276.148438 182.039062 C 267.289062 214.714844 241.855469 225.394531 215.949219 218.375 C 190.039062 211.351562 173.476562 189.292969 182.335938 156.613281 C 191.1875 123.9375 222.113281 93.015625 248.019531 100.035156 C 273.925781 107.054688 285 149.355469 276.148438 182.035156 " fill-opacity="1" fill-rule="nonzero"/><path fill="#bdd7ba" d="M 205.78125 180.671875 C 218.21875 212.164062 204.214844 235.929688 179.25 245.792969 C 154.28125 255.648438 127.8125 247.867188 115.382812 216.375 C 102.941406 184.882812 109.246094 141.609375 134.210938 131.753906 C 159.179688 121.890625 193.347656 149.183594 205.78125 180.671875 " fill-opacity="1" fill-rule="nonzero"/></svg>