<svg xmlns="http://www.w3.org/2000/svg" xmlns:xlink="http://www.w3.org/1999/xlink" width="500" zoomAndPan="magnify" viewBox="0 0 375 374.999991" height="500" preserveAspectRatio="xMidYMid meet" version="1.0"><defs><clipPath id="953bfd1591"><path d="M 22.15625 109.507812 L 358.351562 109.507812 L 358.351562 272.867188 L 22.15625 272.867188 Z M 22.15625 109.507812 " clip-rule="nonzero"/></clipPath></defs><g clip-path="url(#953bfd1591)"><path fill="#000000" d="M 96.476562 264.382812 C 131.175781 264.375 164.941406 262.757812 189.546875 253.976562 C 196.671875 251.4375 205.652344 239.867188 214.984375 240.683594 C 220.503906 241.164062 224.171875 247.257812 229.4375 247.621094 C 232.605469 247.835938 237.179688 244.90625 242.152344 243.570312 C 244.757812 242.875 247.644531 243.023438 249.667969 242.417969 C 274.601562 234.960938 297.796875 216.960938 316.148438 201.375 C 322.875 195.660156 330.207031 189.609375 334.648438 184.03125 C 338.496094 179.195312 342.105469 170.285156 345.050781 164.953125 C 345.976562 163.277344 348.953125 158.121094 347.363281 160.332031 C 339.789062 169.402344 332.285156 177.472656 322.507812 185.1875 C 315.488281 190.726562 308.976562 197.332031 302.273438 201.375 C 290.113281 208.714844 275.40625 214.4375 261.230469 221.03125 C 232.132812 234.5625 202.359375 242.386719 170.472656 248.199219 C 162.222656 249.703125 153.839844 251.371094 145.617188 252.242188 C 136.3125 253.238281 127.148438 252.640625 117.289062 253.402344 C 91.949219 255.355469 71.023438 257.804688 49.078125 252.824219 C 52.003906 258.957031 58.511719 261.503906 64.105469 264.964844 C 74.535156 266.234375 85.855469 264.386719 96.476562 264.382812 Z M 43.875 244.730469 C 62.285156 258.785156 103.765625 249.824219 126.539062 249.933594 C 141.269531 250 156.234375 246.777344 171.050781 244.15625 C 183.800781 241.894531 196.480469 238.988281 210.359375 235.480469 C 221.527344 232.660156 229.265625 229.71875 239.261719 226.230469 C 246.546875 223.691406 253.363281 220.582031 260.074219 217.5625 C 274.371094 211.125 289.390625 205.964844 300.539062 199.0625 C 306.226562 195.542969 312.3125 188.722656 319.035156 183.453125 C 328.058594 176.390625 335.125 169.703125 341.003906 162.066406 C 345.820312 155.808594 349.769531 150.683594 348.515625 142.414062 C 342.84375 104.859375 292.367188 120.042969 265.277344 120.445312 C 263.914062 123.898438 265.421875 130.222656 260.074219 129.691406 C 258.210938 126.265625 260.371094 124.578125 260.652344 120.445312 C 240.234375 118.65625 224.800781 118.203125 204 115.820312 C 175.921875 115.882812 152.371094 132.003906 125.960938 130.847656 C 121.464844 126.378906 113.832031 124.8125 105.726562 127.378906 C 96.433594 118.808594 85.476562 127.140625 75.089844 127.378906 C 70.742188 132.546875 62.058594 136.21875 53.703125 135.476562 C 53.335938 139.703125 48.34375 139.339844 45.609375 141.832031 C 42.605469 144.570312 41.539062 150.324219 35.78125 149.929688 C 28.195312 160.085938 33.511719 176.007812 30 188.082031 C 32.339844 192.09375 35.355469 195.445312 38.671875 198.484375 C 42.949219 197.234375 45.140625 198.640625 48.496094 200.796875 C 49.785156 199.964844 51.285156 199.347656 53.703125 199.640625 C 55.882812 202.15625 59.574219 200.523438 62.949219 201.375 C 64.699219 201.816406 66.394531 203.875 68.152344 204.265625 C 73.613281 205.464844 78.046875 203.679688 84.339844 202.53125 C 94.226562 200.722656 101.292969 199.757812 108.617188 197.90625 C 109.492188 195.640625 116.125 194.082031 117.289062 197.332031 C 115.335938 201.28125 109.851562 200.757812 105.152344 201.953125 C 101.816406 202.800781 98.273438 204.703125 94.746094 205.421875 C 91.078125 206.164062 86.300781 205.824219 82.027344 206.578125 C 79.332031 207.054688 76.832031 208.875 74.511719 208.890625 C 70.8125 208.917969 65.335938 205.753906 60.636719 204.84375 C 56.175781 203.980469 54.296875 204.476562 51.96875 202.53125 C 50.160156 203.246094 49.453125 205.410156 47.34375 204.265625 C 43.4375 200.601562 36.292969 202.753906 33.46875 199.0625 C 35.167969 214.632812 36.585938 232.011719 43.875 244.730469 Z M 27.6875 204.265625 C 26.011719 201.410156 23.367188 199.519531 22.488281 196.171875 C 21.113281 190.953125 24.460938 186.117188 24.800781 179.984375 C 25.226562 172.144531 21.835938 164.460938 23.640625 156.285156 C 24.34375 153.101562 27.082031 148.03125 29.421875 145.878906 C 31.4375 144.027344 34.542969 143.886719 36.359375 142.414062 C 39.328125 139.996094 40.136719 135.601562 43.296875 133.160156 C 45.878906 131.171875 47.859375 131.078125 50.8125 129.117188 C 56.59375 129.285156 60.6875 129.175781 65.261719 126.804688 C 67.714844 125.53125 68.667969 122.609375 71.042969 121.601562 C 72.6875 120.90625 75.707031 121.558594 77.980469 121.019531 C 82.816406 119.882812 87.71875 116.683594 91.855469 116.402344 C 97.296875 116.023438 103.09375 119.144531 109.199219 119.867188 C 112.851562 120.296875 116.175781 119.273438 119.023438 119.867188 C 125.757812 121.269531 130.757812 125.601562 140.992188 123.914062 C 143.714844 123.464844 146.078125 121.578125 149.082031 120.445312 C 156.996094 117.457031 166.183594 114.628906 173.941406 112.929688 C 181.15625 111.34375 190.886719 110.496094 195.910156 110.039062 C 225.648438 107.324219 251.003906 116.085938 276.839844 112.929688 C 289.214844 111.417969 304.140625 108.910156 321.925781 110.617188 C 343.855469 112.71875 357.375 125.867188 358.347656 152.238281 C 358.621094 159.664062 350.949219 176.421875 346.207031 182.878906 C 338.828125 192.917969 327.875 200.757812 316.722656 210.042969 C 307.292969 217.90625 295.171875 229.707031 284.933594 234.902344 C 277.046875 238.902344 266.734375 243.398438 256.605469 247.042969 C 247.828125 250.203125 235.101562 255.628906 225.96875 255.136719 C 223.636719 255.007812 221.582031 253.609375 219.03125 252.242188 C 217.230469 251.285156 214.390625 248.667969 212.09375 248.777344 C 208.4375 248.945312 206.75 254.929688 203.425781 256.871094 C 199.726562 259.023438 192.445312 260.46875 186.082031 262.070312 C 168.820312 266.421875 149.738281 269.164062 131.164062 270.746094 C 114.527344 272.160156 97.101562 271.148438 82.027344 271.902344 C 74.105469 272.292969 63.003906 274.199219 55.4375 271.320312 C 48.765625 268.789062 39.921875 255.773438 35.78125 247.042969 C 29.457031 233.707031 26.363281 220.675781 27.6875 204.265625 " fill-opacity="1" fill-rule="evenodd"/></g><path fill="#000000" d="M 228.855469 131.425781 C 227.214844 135.191406 220.117188 134.878906 217.875 132.007812 C 214.167969 120.792969 229.277344 122.960938 228.855469 131.425781 " fill-opacity="1" fill-rule="evenodd"/><path fill="#000000" d="M 197.066406 136.628906 C 191.199219 138.945312 186.070312 137.597656 187.234375 129.117188 C 192.160156 123.25 202.296875 130.457031 197.066406 136.628906 " fill-opacity="1" fill-rule="evenodd"/><path fill="#000000" d="M 216.140625 144.144531 C 206.152344 144.25 195.179688 144.539062 184.925781 145.878906 C 169.472656 147.898438 154.71875 153.015625 141.570312 151.085938 C 134.242188 150.007812 127.75 144.730469 120.179688 143.570312 C 114.507812 142.691406 109.414062 143.613281 103.414062 142.992188 C 94.964844 146.125 93.957031 166.453125 100.527344 174.207031 C 104.976562 175.886719 108.09375 178.234375 113.824219 177.675781 C 118.167969 177.25 123.527344 173.058594 126.539062 176.515625 C 135.035156 170.378906 139.765625 161.679688 149.664062 156.863281 C 171.691406 146.136719 221.125 151.40625 249.089844 148.769531 C 239.175781 144.65625 227.253906 144.027344 216.140625 144.144531 Z M 44.453125 169.003906 C 43.203125 197.464844 84.65625 190.84375 102.257812 183.453125 C 89.765625 178.652344 88.859375 153.734375 95.902344 142.414062 C 75.261719 137.964844 45.503906 145.128906 44.453125 169.003906 Z M 254.292969 142.414062 C 260.15625 155.835938 244.796875 152.734375 235.792969 152.238281 C 224.328125 151.609375 207.027344 152.636719 191.28125 153.972656 C 175.0625 155.351562 159.617188 156.125 150.238281 160.910156 C 142.648438 167.191406 135.066406 173.484375 128.269531 180.5625 C 123.9375 180.914062 121.363281 184.542969 117.289062 186.34375 C 99.222656 194.332031 72.167969 195.03125 51.96875 190.96875 C 43.289062 184.117188 33.207031 173.785156 38.671875 158.019531 C 50.464844 144.023438 70.820312 135.332031 90.121094 133.160156 C 97.5625 132.324219 102.390625 133.976562 108.617188 135.476562 C 115.015625 137.011719 122.65625 137.070312 129.429688 139.523438 C 136.222656 141.980469 143.898438 145.914062 150.238281 146.457031 C 161.605469 147.441406 173.078125 143.71875 184.925781 141.832031 C 189.796875 141.058594 195.53125 141.433594 200.53125 141.257812 C 216.175781 140.695312 235.035156 137.027344 254.292969 142.414062 " fill-opacity="1" fill-rule="evenodd"/><path fill="#000000" d="M 153.132812 133.742188 C 158.300781 131.445312 163.914062 134.644531 163.535156 139.523438 C 162.839844 148.429688 145.738281 143.363281 153.132812 133.742188 " fill-opacity="1" fill-rule="evenodd"/><path fill="#000000" d="M 262.386719 136.628906 C 263.023438 138.878906 263.8125 142.085938 262.964844 144.144531 C 261.574219 143.910156 261.707031 145.203125 260.074219 144.726562 C 258.457031 142.566406 259.773438 140.886719 259.492188 137.210938 C 260.886719 137.445312 260.753906 136.152344 262.386719 136.628906 " fill-opacity="1" fill-rule="evenodd"/><path fill="#000000" d="M 299.960938 140.097656 C 299.195312 142.222656 298.152344 144.070312 295.914062 144.726562 C 295.898438 144.160156 295.207031 144.277344 294.757812 144.144531 C 294.117188 140.347656 297.59375 137.40625 299.960938 140.097656 " fill-opacity="1" fill-rule="evenodd"/><path fill="#7c7557" d="M 62.949219 182.878906 C 66.546875 182.789062 67.789062 178.929688 69.886719 177.09375 C 72.042969 175.214844 75.539062 174.652344 76.246094 171.316406 C 68.945312 172.007812 64.007812 177.835938 62.949219 182.878906 Z M 53.125 171.316406 C 53.015625 172.632812 52.109375 176.71875 55.4375 176.515625 C 55.472656 163.644531 66.542969 161.804688 74.511719 156.863281 C 67.039062 156.90625 53.804688 163.09375 53.125 171.316406 Z M 95.902344 142.414062 C 88.859375 153.734375 89.765625 178.652344 102.257812 183.453125 C 84.65625 190.84375 43.203125 197.464844 44.453125 169.003906 C 45.503906 145.128906 75.261719 137.964844 95.902344 142.414062 " fill-opacity="1" fill-rule="evenodd"/><path fill="#5ce1e6" d="M 113.246094 171.316406 C 114.039062 174.8125 119.257812 174.449219 120.757812 173.046875 C 121.238281 171.410156 119.941406 171.550781 120.179688 170.15625 C 118.203125 170.882812 114.980469 170.351562 113.246094 171.316406 Z M 105.726562 159.175781 C 106.035156 162.332031 106.648438 165.191406 110.355469 164.953125 C 111.71875 162.382812 109.316406 159.234375 107.460938 158.019531 C 107.308594 158.832031 106.195312 158.675781 105.726562 159.175781 Z M 106.882812 149.347656 C 109.878906 150.96875 112.320312 147.625 113.246094 145.300781 C 110.449219 143.261719 106.855469 145.363281 106.882812 149.347656 Z M 249.089844 148.769531 C 221.125 151.40625 171.691406 146.136719 149.664062 156.863281 C 139.765625 161.679688 135.035156 170.378906 126.539062 176.515625 C 123.527344 173.058594 118.167969 177.25 113.824219 177.675781 C 108.09375 178.234375 104.976562 175.886719 100.527344 174.207031 C 93.957031 166.453125 94.964844 146.125 103.414062 142.992188 C 109.414062 143.613281 114.507812 142.691406 120.179688 143.570312 C 127.75 144.730469 134.242188 150.007812 141.570312 151.085938 C 154.71875 153.015625 169.472656 147.898438 184.925781 145.878906 C 195.179688 144.539062 206.152344 144.25 216.140625 144.144531 C 227.253906 144.027344 239.175781 144.65625 249.089844 148.769531 " fill-opacity="1" fill-rule="evenodd"/><path fill="#000000" d="M 113.246094 145.300781 C 112.320312 147.625 109.878906 150.96875 106.882812 149.347656 C 106.855469 145.363281 110.449219 143.261719 113.246094 145.300781 " fill-opacity="1" fill-rule="evenodd"/><path fill="#000000" d="M 305.742188 147.035156 C 305.421875 149.210938 304.746094 151.46875 301.695312 152.238281 C 300.054688 149.832031 303.082031 145.144531 305.742188 147.035156 " fill-opacity="1" fill-rule="evenodd"/><path fill="#000000" d="M 74.511719 156.863281 C 66.542969 161.804688 55.472656 163.644531 55.4375 176.515625 C 52.109375 176.71875 53.015625 172.632812 53.125 171.316406 C 53.804688 163.09375 67.039062 156.90625 74.511719 156.863281 " fill-opacity="1" fill-rule="evenodd"/><path fill="#000000" d="M 262.964844 164.378906 C 260.460938 164.164062 260.191406 158.699219 261.230469 156.863281 C 264.578125 155.550781 266.863281 163.121094 262.964844 164.378906 " fill-opacity="1" fill-rule="evenodd"/><path fill="#000000" d="M 107.460938 158.019531 C 109.316406 159.234375 111.71875 162.382812 110.355469 164.953125 C 106.648438 165.191406 106.035156 162.332031 105.726562 159.175781 C 106.195312 158.675781 107.308594 158.832031 107.460938 158.019531 " fill-opacity="1" fill-rule="evenodd"/><path fill="#000000" d="M 239.839844 171.894531 C 240.582031 180.808594 230.085938 179.894531 229.4375 174.785156 C 228.789062 169.667969 236.816406 165.996094 239.839844 171.894531 " fill-opacity="1" fill-rule="evenodd"/><path fill="#000000" d="M 120.179688 170.15625 C 119.941406 171.550781 121.238281 171.410156 120.757812 173.046875 C 119.257812 174.449219 114.039062 174.8125 113.246094 171.316406 C 114.980469 170.351562 118.203125 170.882812 120.179688 170.15625 " fill-opacity="1" fill-rule="evenodd"/><path fill="#000000" d="M 206.890625 174.207031 C 207.21875 184.78125 194.140625 182.285156 194.753906 175.359375 C 195.253906 169.636719 203.765625 170.015625 206.890625 174.207031 " fill-opacity="1" fill-rule="evenodd"/><path fill="#000000" d="M 76.246094 171.316406 C 75.539062 174.652344 72.042969 175.214844 69.886719 177.09375 C 67.789062 178.929688 66.546875 182.789062 62.949219 182.878906 C 64.007812 177.835938 68.945312 172.007812 76.246094 171.316406 " fill-opacity="1" fill-rule="evenodd"/><path fill="#000000" d="M 265.277344 171.316406 C 268.902344 173.082031 269.101562 178.285156 271.632812 181.144531 C 271.8125 182.476562 269.96875 181.785156 269.902344 182.878906 C 266.292969 181.46875 263.425781 174.476562 265.277344 171.316406 " fill-opacity="1" fill-rule="evenodd"/><path fill="#000000" d="M 270.476562 188.65625 C 273.789062 189.011719 276.253906 190.207031 276.261719 193.859375 C 272.917969 195.652344 270.257812 192.296875 270.476562 188.65625 " fill-opacity="1" fill-rule="evenodd"/><path fill="#000000" d="M 276.839844 198.484375 C 279.601562 198.609375 281.441406 199.660156 282.617188 201.375 C 282.195312 206.378906 275.515625 203.457031 276.839844 198.484375 " fill-opacity="1" fill-rule="evenodd"/><path fill="#000000" d="M 68.730469 214.671875 C 65.261719 214.476562 64.113281 211.964844 63.53125 208.890625 C 66.191406 206.058594 72.09375 211.589844 68.730469 214.671875 " fill-opacity="1" fill-rule="evenodd"/><path fill="#000000" d="M 179.722656 212.359375 C 180.183594 213.4375 180.6875 214.476562 180.878906 215.828125 C 178.730469 216.949219 176.621094 215.78125 176.832031 212.9375 C 177.503906 212.453125 178.382812 212.175781 179.722656 212.359375 " fill-opacity="1" fill-rule="evenodd"/><path fill="#000000" d="M 168.738281 214.09375 C 171.523438 213.644531 174.171875 216.335938 173.941406 216.984375 C 174.292969 219.261719 170.765625 217.660156 169.316406 218.140625 C 169.105469 216.066406 167.765625 216.019531 168.738281 214.09375 " fill-opacity="1" fill-rule="evenodd"/><path fill="#000000" d="M 77.402344 218.714844 C 79.914062 219.484375 82.152344 220.519531 82.027344 223.921875 C 81.28125 224.71875 79.519531 224.492188 77.980469 224.5 C 76.652344 222.835938 75.855469 220.339844 77.402344 218.714844 " fill-opacity="1" fill-rule="evenodd"/><path fill="#000000" d="M 86.074219 229.703125 C 89.664062 229.710938 92.367188 233.246094 90.699219 236.636719 C 87.175781 236.347656 84.476562 233.316406 86.074219 229.703125 " fill-opacity="1" fill-rule="evenodd"/><path fill="#000000" d="M 94.167969 241.261719 C 96.492188 241.632812 98.128906 242.695312 97.632812 245.890625 C 96.953125 246.554688 95.589844 246.542969 94.167969 246.464844 C 93.277344 244.820312 92.425781 242.507812 94.167969 241.261719 " fill-opacity="1" fill-rule="evenodd"/><path fill="#004aad" d="M 94.167969 246.464844 C 95.589844 246.542969 96.953125 246.554688 97.632812 245.890625 C 98.128906 242.695312 96.492188 241.632812 94.167969 241.261719 C 92.425781 242.507812 93.277344 244.820312 94.167969 246.464844 Z M 90.699219 236.636719 C 92.367188 233.246094 89.664062 229.710938 86.074219 229.703125 C 84.476562 233.316406 87.175781 236.347656 90.699219 236.636719 Z M 77.980469 224.5 C 79.519531 224.492188 81.28125 224.71875 82.027344 223.921875 C 82.152344 220.519531 79.914062 219.484375 77.402344 218.714844 C 75.855469 220.339844 76.652344 222.835938 77.980469 224.5 Z M 169.316406 218.140625 C 170.765625 217.660156 174.292969 219.261719 173.941406 216.984375 C 174.171875 216.335938 171.523438 213.644531 168.738281 214.09375 C 167.765625 216.019531 169.105469 216.066406 169.316406 218.140625 Z M 176.832031 212.9375 C 176.621094 215.78125 178.730469 216.949219 180.878906 215.828125 C 180.6875 214.476562 180.183594 213.4375 179.722656 212.359375 C 178.382812 212.175781 177.503906 212.453125 176.832031 212.9375 Z M 63.53125 208.890625 C 64.113281 211.964844 65.261719 214.476562 68.730469 214.671875 C 72.09375 211.589844 66.191406 206.058594 63.53125 208.890625 Z M 282.617188 201.375 C 281.441406 199.660156 279.601562 198.609375 276.839844 198.484375 C 275.515625 203.457031 282.195312 206.378906 282.617188 201.375 Z M 276.261719 193.859375 C 276.253906 190.207031 273.789062 189.011719 270.476562 188.65625 C 270.257812 192.296875 272.917969 195.652344 276.261719 193.859375 Z M 269.902344 182.878906 C 269.96875 181.785156 271.8125 182.476562 271.632812 181.144531 C 269.101562 178.285156 268.902344 173.082031 265.277344 171.316406 C 263.425781 174.476562 266.292969 181.46875 269.902344 182.878906 Z M 158.910156 177.675781 C 159.710938 184.664062 174.671875 183.175781 172.785156 174.785156 C 172.167969 172.039062 170.066406 170.59375 164.691406 171.894531 C 161.394531 172.6875 158.507812 174.160156 158.910156 177.675781 Z M 194.753906 175.359375 C 194.140625 182.285156 207.21875 184.78125 206.890625 174.207031 C 203.765625 170.015625 195.253906 169.636719 194.753906 175.359375 Z M 229.4375 174.785156 C 230.085938 179.894531 240.582031 180.808594 239.839844 171.894531 C 236.816406 165.996094 228.789062 169.667969 229.4375 174.785156 Z M 261.230469 156.863281 C 260.191406 158.699219 260.460938 164.164062 262.964844 164.378906 C 266.863281 163.121094 264.578125 155.550781 261.230469 156.863281 Z M 301.695312 152.238281 C 304.746094 151.46875 305.421875 149.210938 305.742188 147.035156 C 303.082031 145.144531 300.054688 149.832031 301.695312 152.238281 Z M 294.757812 144.144531 C 295.207031 144.277344 295.898438 144.160156 295.914062 144.726562 C 298.152344 144.070312 299.195312 142.222656 299.960938 140.097656 C 297.59375 137.40625 294.117188 140.347656 294.757812 144.144531 Z M 259.492188 137.210938 C 259.773438 140.886719 258.457031 142.566406 260.074219 144.726562 C 261.707031 145.203125 261.574219 143.910156 262.964844 144.144531 C 263.8125 142.085938 263.023438 138.878906 262.386719 136.628906 C 260.753906 136.152344 260.886719 137.445312 259.492188 137.210938 Z M 163.535156 139.523438 C 163.914062 134.644531 158.300781 131.445312 153.132812 133.742188 C 145.738281 143.363281 162.839844 148.429688 163.535156 139.523438 Z M 200.53125 141.257812 C 195.53125 141.433594 189.796875 141.058594 184.925781 141.832031 C 173.078125 143.71875 161.605469 147.441406 150.238281 146.457031 C 143.898438 145.914062 136.222656 141.980469 129.429688 139.523438 C 122.65625 137.070312 115.015625 137.011719 108.617188 135.476562 C 102.390625 133.976562 97.5625 132.324219 90.121094 133.160156 C 70.820312 135.332031 50.464844 144.023438 38.671875 158.019531 C 33.207031 173.785156 43.289062 184.117188 51.96875 190.96875 C 72.167969 195.03125 99.222656 194.332031 117.289062 186.34375 C 121.363281 184.542969 123.9375 180.914062 128.269531 180.5625 C 135.066406 173.484375 142.648438 167.191406 150.238281 160.910156 C 159.617188 156.125 175.0625 155.351562 191.28125 153.972656 C 207.027344 152.636719 224.328125 151.609375 235.792969 152.238281 C 244.796875 152.734375 260.15625 155.835938 254.292969 142.414062 C 235.035156 137.027344 216.175781 140.695312 200.53125 141.257812 Z M 187.234375 129.117188 C 186.070312 137.597656 191.199219 138.945312 197.066406 136.628906 C 202.296875 130.457031 192.160156 123.25 187.234375 129.117188 Z M 217.875 132.007812 C 220.117188 134.878906 227.214844 135.191406 228.855469 131.425781 C 229.277344 122.960938 214.167969 120.792969 217.875 132.007812 Z M 33.46875 199.0625 C 36.292969 202.753906 43.4375 200.601562 47.34375 204.265625 C 49.453125 205.410156 50.160156 203.246094 51.96875 202.53125 C 54.296875 204.476562 56.175781 203.980469 60.636719 204.84375 C 65.335938 205.753906 70.8125 208.917969 74.511719 208.890625 C 76.832031 208.875 79.332031 207.054688 82.027344 206.578125 C 86.300781 205.824219 91.078125 206.164062 94.746094 205.421875 C 98.273438 204.703125 101.816406 202.800781 105.152344 201.953125 C 109.851562 200.757812 115.335938 201.28125 117.289062 197.332031 C 116.125 194.082031 109.492188 195.640625 108.617188 197.90625 C 101.292969 199.757812 94.226562 200.722656 84.339844 202.53125 C 78.046875 203.679688 73.613281 205.464844 68.152344 204.265625 C 66.394531 203.875 64.699219 201.816406 62.949219 201.375 C 59.574219 200.523438 55.882812 202.15625 53.703125 199.640625 C 51.285156 199.347656 49.785156 199.964844 48.496094 200.796875 C 45.140625 198.640625 42.949219 197.234375 38.671875 198.484375 C 35.355469 195.445312 32.339844 192.09375 30 188.082031 C 33.511719 176.007812 28.195312 160.085938 35.78125 149.929688 C 41.539062 150.324219 42.605469 144.570312 45.609375 141.832031 C 48.34375 139.339844 53.335938 139.703125 53.703125 135.476562 C 62.058594 136.21875 70.742188 132.546875 75.089844 127.378906 C 85.476562 127.140625 96.433594 118.808594 105.726562 127.378906 C 113.832031 124.8125 121.464844 126.378906 125.960938 130.847656 C 152.371094 132.003906 175.921875 115.882812 204 115.820312 C 224.800781 118.203125 240.234375 118.65625 260.652344 120.445312 C 260.371094 124.578125 258.210938 126.265625 260.074219 129.691406 C 265.421875 130.222656 263.914062 123.898438 265.277344 120.445312 C 292.367188 120.042969 342.84375 104.859375 348.515625 142.414062 C 349.769531 150.683594 345.820312 155.808594 341.003906 162.066406 C 335.125 169.703125 328.058594 176.390625 319.035156 183.453125 C 312.3125 188.722656 306.226562 195.542969 300.539062 199.0625 C 289.390625 205.964844 274.371094 211.125 260.074219 217.5625 C 253.363281 220.582031 246.546875 223.691406 239.261719 226.230469 C 229.265625 229.71875 221.527344 232.660156 210.359375 235.480469 C 196.480469 238.988281 183.800781 241.894531 171.050781 244.15625 C 156.234375 246.777344 141.269531 250 126.539062 249.933594 C 103.765625 249.824219 62.285156 258.785156 43.875 244.730469 C 36.585938 232.011719 35.167969 214.632812 33.46875 199.0625 " fill-opacity="1" fill-rule="evenodd"/><path fill="#7c7557" d="M 64.105469 264.964844 C 58.511719 261.503906 52.003906 258.957031 49.078125 252.824219 C 71.023438 257.804688 91.949219 255.355469 117.289062 253.402344 C 127.148438 252.640625 136.3125 253.238281 145.617188 252.242188 C 153.839844 251.371094 162.222656 249.703125 170.472656 248.199219 C 202.359375 242.386719 232.132812 234.5625 261.230469 221.03125 C 275.40625 214.4375 290.113281 208.714844 302.273438 201.375 C 308.976562 197.332031 315.488281 190.726562 322.507812 185.1875 C 332.285156 177.472656 339.789062 169.402344 347.363281 160.332031 C 348.953125 158.121094 345.976562 163.277344 345.050781 164.953125 C 342.105469 170.285156 338.496094 179.195312 334.648438 184.03125 C 330.207031 189.609375 322.875 195.660156 316.148438 201.375 C 297.796875 216.960938 274.601562 234.960938 249.667969 242.417969 C 247.644531 243.023438 244.757812 242.875 242.152344 243.570312 C 237.179688 244.90625 232.605469 247.835938 229.4375 247.621094 C 224.171875 247.257812 220.503906 241.164062 214.984375 240.683594 C 205.652344 239.867188 196.671875 251.4375 189.546875 253.976562 C 164.941406 262.757812 131.175781 264.375 96.476562 264.382812 C 85.855469 264.386719 74.535156 266.234375 64.105469 264.964844 " fill-opacity="1" fill-rule="evenodd"/><path fill="#000000" d="M 164.691406 171.894531 C 170.066406 170.59375 172.167969 172.039062 172.785156 174.785156 C 174.671875 183.175781 159.710938 184.664062 158.910156 177.675781 C 158.507812 174.160156 161.394531 172.6875 164.691406 171.894531 " fill-opacity="1" fill-rule="evenodd"/></svg>