<svg xmlns="http://www.w3.org/2000/svg" xmlns:xlink="http://www.w3.org/1999/xlink" width="500" zoomAndPan="magnify" viewBox="0 0 375 374.999991" height="500" preserveAspectRatio="xMidYMid meet" version="1.0"><defs><clipPath id="819a937660"><path d="M 61.34375 30.355469 L 327.59375 30.355469 L 327.59375 344.605469 L 61.34375 344.605469 Z M 61.34375 30.355469 " clip-rule="nonzero"/></clipPath></defs><g clip-path="url(#819a937660)"><path fill="#5d5d5d" d="M 124.648438 88.476562 C 123.972656 88.476562 123.335938 88.582031 122.734375 88.800781 C 122.394531 88.921875 122.070312 89.074219 121.757812 89.265625 C 120.988281 89.800781 120.546875 90.15625 120.433594 90.332031 C 120.171875 90.609375 119.933594 90.90625 119.722656 91.21875 C 119.234375 92.039062 118.972656 92.554688 118.9375 92.761719 C 118.65625 93.503906 118.496094 94.324219 118.453125 95.230469 C 118.402344 96.972656 118.828125 98.511719 119.730469 99.835938 C 120.183594 100.496094 120.699219 101.039062 121.285156 101.464844 C 121.578125 101.675781 121.886719 101.859375 122.214844 102.015625 C 122.355469 102.128906 122.882812 102.296875 123.792969 102.515625 C 123.894531 102.550781 124.074219 102.566406 124.335938 102.566406 C 124.621094 102.566406 125.007812 102.546875 125.492188 102.507812 C 125.851562 102.453125 126.199219 102.367188 126.535156 102.246094 C 127.210938 102.003906 127.839844 101.625 128.421875 101.109375 C 129 100.597656 129.472656 100.007812 129.847656 99.339844 C 130.035156 99.003906 130.195312 98.652344 130.332031 98.28125 C 130.433594 98.121094 130.578125 97.519531 130.773438 96.480469 L 130.828125 95.523438 C 130.8125 94.472656 130.648438 93.558594 130.34375 92.773438 C 130.0625 92.023438 129.679688 91.34375 129.1875 90.734375 C 128.945312 90.4375 128.6875 90.164062 128.410156 89.921875 C 127.691406 89.367188 127.238281 89.070312 127.054688 89.027344 C 126.40625 88.707031 125.683594 88.523438 124.890625 88.480469 C 124.808594 88.476562 124.726562 88.476562 124.648438 88.476562 Z M 199.382812 52.496094 C 197.582031 52.496094 195.691406 52.800781 193.71875 53.417969 C 190.578125 54.476562 187.605469 56.394531 184.804688 59.171875 C 181.382812 62.128906 176.003906 69.640625 168.667969 81.707031 C 174.851562 83.824219 178.957031 85.773438 180.984375 87.5625 C 183.347656 89.515625 185.453125 92.441406 187.296875 96.335938 L 187.746094 97.21875 C 196.410156 100.382812 203.152344 102.160156 207.96875 102.554688 C 208.476562 102.585938 208.96875 102.601562 209.449219 102.601562 C 213.019531 102.601562 215.679688 101.714844 217.425781 99.9375 L 218.640625 98.554688 C 219.382812 97.535156 220.003906 96.371094 220.496094 95.0625 C 221.472656 92.402344 222.015625 89.425781 222.121094 86.136719 C 222.226562 82.84375 221.976562 79.585938 221.375 76.367188 C 221.082031 73.847656 219.886719 70.273438 217.78125 65.644531 C 217.132812 64.378906 216.417969 63.191406 215.648438 62.082031 C 213.625 59.453125 212.347656 57.984375 211.820312 57.671875 C 208.992188 55.121094 205.921875 53.511719 202.605469 52.839844 C 201.5625 52.609375 200.488281 52.496094 199.382812 52.496094 Z M 146.589844 91.917969 C 145.15625 91.917969 143.890625 92.40625 142.789062 93.375 C 141.492188 94.535156 140.707031 96.078125 140.4375 98.007812 C 140.246094 100.03125 140.65625 101.789062 141.671875 103.28125 C 142.6875 104.761719 144.042969 105.65625 145.734375 105.960938 C 146.019531 105.996094 146.292969 106.011719 146.5625 106.011719 C 147.996094 106.011719 149.261719 105.527344 150.363281 104.554688 C 151.664062 103.398438 152.445312 101.855469 152.714844 99.921875 L 152.769531 98.964844 C 152.769531 98.3125 152.695312 97.6875 152.550781 97.089844 L 152.285156 96.21875 C 152.074219 95.652344 151.804688 95.128906 151.480469 94.652344 C 150.464844 93.167969 149.109375 92.277344 147.417969 91.96875 C 147.136719 91.9375 146.859375 91.917969 146.589844 91.917969 Z M 92.089844 143.1875 L 92.179688 143.195312 Z M 93.5625 146.667969 L 93.707031 146.917969 L 93.640625 146.804688 Z M 148.636719 147.902344 L 153.398438 180.269531 L 139.429688 188.722656 L 116.445312 149.78125 L 116.453125 149.78125 C 117.035156 149.800781 117.675781 149.808594 118.375 149.808594 C 124.246094 149.808594 134.332031 149.171875 148.636719 147.902344 Z M 135.738281 195.191406 L 140.484375 201.4375 Z M 91.523438 143.128906 L 91.535156 143.132812 L 91.542969 143.132812 C 91.773438 143.234375 91.945312 143.285156 92.054688 143.285156 C 92.136719 143.285156 92.1875 143.257812 92.203125 143.199219 L 92.1875 143.195312 L 109.453125 145.007812 L 135.011719 188.535156 C 135.484375 188.832031 136.089844 189.417969 136.824219 190.296875 C 136.824219 190.292969 136.824219 190.292969 136.828125 190.292969 C 136.832031 190.292969 136.835938 190.292969 136.839844 190.296875 L 136.832031 190.296875 L 136.824219 190.300781 L 136.828125 190.300781 C 137.171875 190.714844 137.546875 191.195312 137.949219 191.738281 L 137.941406 191.738281 C 138.230469 192.140625 138.578125 192.625 138.984375 193.191406 L 138.988281 193.191406 C 139.011719 193.230469 139.039062 193.265625 139.0625 193.304688 L 139.066406 193.304688 C 139.410156 193.714844 139.789062 194.332031 140.207031 195.15625 C 140.488281 195.421875 140.777344 195.847656 141.074219 196.425781 C 141.105469 196.445312 141.191406 196.953125 141.335938 197.957031 C 141.320312 198.191406 141.347656 198.585938 141.421875 199.140625 C 141.4375 199.265625 141.457031 199.402344 141.480469 199.546875 L 141.492188 199.566406 L 141.484375 199.566406 C 141.503906 199.695312 141.527344 199.839844 141.554688 199.992188 L 141.5625 199.996094 C 141.738281 200.1875 141.917969 200.382812 142.09375 200.578125 L 142.085938 200.578125 L 145.15625 205.777344 L 142.191406 206.59375 C 141.792969 204.894531 141.371094 203.195312 140.921875 201.484375 C 140.464844 201.105469 140.152344 200.726562 139.980469 200.351562 L 138.816406 196.988281 L 138.921875 197.101562 C 138.847656 196.84375 138.738281 196.589844 138.601562 196.339844 L 138.59375 196.339844 L 138.578125 196.300781 L 136.800781 193.5625 L 136.796875 193.5625 C 136.589844 193.21875 136.476562 193.046875 136.449219 193.046875 C 135.925781 192.722656 135.554688 192.515625 135.332031 192.421875 L 135.324219 192.421875 C 135.0625 192.304688 134.8125 192.21875 134.566406 192.15625 L 134.570312 192.15625 C 134.523438 192.144531 134.480469 192.132812 134.433594 192.125 L 134.425781 192.125 L 134.429688 192.183594 L 134.507812 192.269531 L 134.109375 193.03125 L 133.726562 193.753906 L 133.722656 193.757812 L 129.957031 200.9375 L 127.886719 207.492188 L 126.6875 207.171875 L 126.511719 207.496094 L 121.558594 199.542969 L 121.15625 199.828125 L 97.269531 153.101562 L 93.707031 146.917969 L 93.355469 146.308594 L 93.339844 146.28125 L 93.207031 146.050781 L 93.160156 145.972656 L 92.875 145.472656 L 93.09375 145.855469 L 92.953125 145.605469 L 92.820312 145.378906 Z M 124.636719 206.632812 L 126.128906 207.023438 L 126.460938 207.582031 L 126.128906 207.023438 Z M 155.335938 206.863281 C 155.234375 209.222656 155.117188 211.8125 154.980469 214.636719 C 151.902344 213.644531 147.949219 212.140625 143.117188 210.121094 L 143.109375 210.121094 L 147.089844 209.0625 L 147.113281 209.101562 L 150.835938 208.078125 L 150.828125 208.0625 L 155.328125 206.863281 Z M 131.3125 219.714844 L 131.3125 219.71875 C 131.3125 219.714844 131.316406 219.714844 131.320312 219.714844 Z M 128.332031 223.277344 C 128.15625 223.679688 127.804688 224.03125 127.277344 224.328125 C 127.773438 223.945312 128.121094 223.59375 128.324219 223.277344 Z M 112.960938 224.453125 L 112.519531 224.816406 C 112.65625 224.695312 112.800781 224.574219 112.957031 224.453125 Z M 90.367188 147.789062 L 119.808594 205.371094 C 116.9375 204.652344 113.953125 204.058594 110.867188 203.585938 C 110.160156 203.507812 109.519531 203.46875 108.945312 203.46875 C 107.167969 203.46875 106.042969 203.847656 105.5625 204.605469 C 104.625 206.089844 104.988281 207.703125 106.652344 209.449219 C 108.621094 211.625 113.714844 215.65625 121.933594 221.550781 C 119.875 221.902344 118.113281 222.308594 116.644531 222.769531 C 115.207031 223.222656 114.054688 223.730469 113.179688 224.289062 C 113.234375 224.246094 113.292969 224.207031 113.351562 224.167969 L 113.34375 224.167969 C 110.382812 224.859375 107.359375 225.207031 104.265625 225.207031 C 92.382812 225.207031 79.519531 220.085938 65.675781 209.851562 Z M 127.167969 224.347656 C 124.484375 224.8125 122.234375 225.253906 120.414062 225.679688 C 122.296875 225.214844 124.542969 224.773438 127.160156 224.347656 Z M 139.585938 34.535156 C 146.074219 34.535156 151.5625 37.089844 156.054688 42.199219 C 158.121094 43.40625 158.382812 48.363281 156.832031 57.070312 C 155.445312 62.507812 152.785156 69.121094 148.847656 76.917969 C 149.027344 77.699219 149.332031 78.199219 149.773438 78.414062 L 158.640625 80.957031 C 158.71875 80.964844 158.796875 80.96875 158.875 80.96875 C 159.566406 80.96875 160.121094 80.613281 160.539062 79.894531 C 163.792969 70.46875 166.636719 64.121094 169.066406 60.851562 C 171.5625 57.003906 176.492188 52.671875 183.851562 47.851562 C 188.84375 44.652344 193.808594 43.050781 198.742188 43.050781 C 203.855469 43.050781 208.933594 44.769531 213.984375 48.203125 C 219.019531 52.867188 223.058594 60.007812 226.09375 69.625 C 228.902344 80.25 229.070312 89.332031 226.59375 96.867188 C 223.179688 102.75 219.539062 106.003906 215.667969 106.625 C 208.523438 108.417969 199.472656 109.3125 188.511719 109.3125 C 188.167969 109.3125 187.824219 109.3125 187.476562 109.308594 L 181.140625 131.738281 C 209.386719 158.238281 235.902344 181.789062 260.6875 202.402344 C 261.824219 203.496094 263.246094 205.375 264.960938 208.039062 C 268.027344 213.632812 270.664062 219.523438 272.871094 225.71875 C 275.078125 231.914062 276.851562 238.40625 278.199219 245.203125 L 279.894531 255.621094 C 281.722656 269.808594 281.828125 285.199219 280.210938 301.792969 C 276.714844 315.925781 272.105469 322.992188 266.386719 322.992188 C 266.289062 322.992188 266.191406 322.988281 266.09375 322.984375 L 266.085938 322.984375 L 272.515625 334.246094 L 200.65625 339.164062 C 198.910156 335.613281 201.78125 332.816406 209.265625 330.78125 C 216.199219 329.535156 228.179688 328.914062 245.214844 328.914062 C 247.109375 328.914062 249.0625 328.921875 251.078125 328.9375 C 251.664062 328.90625 252.175781 328.511719 252.613281 327.75 C 252.75 326.417969 252.449219 325.644531 251.703125 325.425781 C 243.390625 321.074219 235.460938 317.335938 227.910156 314.21875 C 221.984375 311.855469 215.503906 310.464844 208.472656 310.046875 C 195.527344 312.773438 188.273438 316.058594 186.699219 319.898438 C 183.214844 324.082031 181.585938 329.515625 181.808594 336.191406 L 107.050781 341.105469 C 108.144531 336.691406 114.097656 333.140625 124.902344 330.457031 C 130.308594 329.539062 139.625 329.082031 152.859375 329.082031 C 158.070312 329.082031 163.890625 329.15625 170.316406 329.296875 C 171.230469 328.960938 171.75 328.585938 171.878906 328.164062 L 155.441406 312.5625 C 152.191406 307.183594 150.28125 303.019531 149.714844 300.078125 C 148.992188 296.984375 149.09375 290.941406 150.023438 281.953125 C 153.636719 262.160156 156.058594 246.90625 157.28125 236.199219 L 157.289062 236.199219 C 161.15625 237.445312 164.429688 238.070312 167.109375 238.070312 C 167.433594 238.070312 167.75 238.058594 168.058594 238.042969 C 169.929688 237.964844 171.785156 237.574219 173.625 236.871094 C 176.832031 235.402344 179.210938 233.972656 180.753906 232.582031 C 184.785156 228.839844 188.621094 224.496094 192.269531 219.550781 C 192.707031 218.796875 192.222656 217.964844 190.820312 217.058594 C 190.703125 217.03125 190.582031 217.015625 190.464844 217.015625 C 190.054688 217.015625 189.632812 217.183594 189.199219 217.523438 C 183.675781 224.507812 179.820312 228.789062 177.632812 230.359375 C 174.960938 232.511719 172.089844 233.796875 169.023438 234.21875 C 168.578125 234.285156 168.007812 234.320312 167.3125 234.320312 C 166.585938 234.320312 165.71875 234.28125 164.71875 234.207031 C 164.074219 234.132812 162.5 233.765625 159.992188 233.101562 L 159.976562 233.214844 C 159.253906 232.957031 158.492188 232.675781 157.695312 232.367188 L 157.6875 232.367188 C 157.6875 232.332031 157.691406 232.296875 157.695312 232.261719 L 154.035156 230.730469 C 154.03125 230.78125 154.027344 230.832031 154.027344 230.886719 C 153.695312 230.746094 153.363281 230.605469 153.019531 230.460938 L 140.722656 224.449219 C 140.664062 224.445312 140.605469 224.441406 140.546875 224.441406 C 140.019531 224.441406 139.546875 224.667969 139.121094 225.121094 C 138.007812 227.378906 136.574219 229.472656 134.820312 231.390625 C 133.5625 232.402344 132.375 232.996094 131.253906 233.167969 C 130.742188 233.238281 130.210938 233.273438 129.660156 233.273438 C 127.683594 233.273438 125.449219 232.835938 122.957031 231.964844 C 119.664062 230.863281 117.058594 229.421875 115.132812 227.636719 C 116.496094 227.390625 117.976562 227.105469 119.570312 226.777344 C 122.171875 226.207031 125.453125 225.34375 129.421875 224.1875 L 128.957031 223.273438 L 128.464844 222.316406 L 128.457031 222.316406 C 128.433594 222.242188 128.410156 222.171875 128.386719 222.105469 L 128.390625 222.105469 C 128.351562 221.964844 128.296875 221.832031 128.230469 221.707031 L 128.222656 221.707031 C 128.136719 221.539062 128.046875 221.40625 127.949219 221.308594 L 127.945312 221.308594 L 127.675781 220.785156 L 127.667969 220.785156 C 127.566406 220.8125 127.464844 220.84375 127.363281 220.871094 C 115.492188 212.277344 109.585938 207.722656 109.648438 207.207031 C 109.679688 207.199219 109.726562 207.195312 109.789062 207.195312 C 110.382812 207.195312 112.449219 207.566406 115.996094 208.316406 C 118.207031 208.832031 120.695312 209.449219 123.46875 210.171875 L 123.464844 210.171875 C 123.71875 210.238281 123.980469 210.308594 124.246094 210.378906 L 124.242188 210.378906 L 125.597656 213.394531 L 124.25 210.378906 L 124.257812 210.378906 C 125.097656 210.601562 125.980469 210.835938 126.910156 211.085938 L 126.921875 211.085938 C 127.507812 211.242188 128.101562 211.402344 128.710938 211.566406 C 128.859375 211.605469 129.007812 211.621094 129.160156 211.621094 C 129.277344 211.621094 129.398438 211.609375 129.515625 211.589844 L 129.578125 211.445312 L 129.582031 211.445312 C 129.828125 210.914062 130.0625 210.386719 130.292969 209.863281 L 130.285156 209.863281 L 130.238281 209.875 L 135.566406 197.246094 C 135.570312 197.226562 135.578125 197.21875 135.585938 197.21875 C 135.683594 197.21875 136.066406 198.269531 136.726562 200.371094 L 138.652344 207.5625 L 138.589844 207.582031 L 139.570312 211.066406 L 139.589844 211.0625 L 140.035156 212.71875 L 140.585938 213.09375 C 142.222656 213.929688 144.839844 214.996094 148.433594 216.292969 L 148.425781 216.292969 C 149.105469 216.550781 149.78125 216.804688 150.457031 217.046875 C 150.472656 217.042969 150.488281 217.035156 150.507812 217.03125 L 150.515625 217.03125 C 151.652344 217.429688 152.875 217.84375 154.175781 218.28125 C 156.644531 219.066406 159.238281 219.582031 161.953125 219.839844 C 161.957031 219.839844 161.957031 219.839844 161.957031 219.839844 C 164.488281 219.839844 166.40625 219.554688 167.722656 218.984375 C 170.554688 217.398438 172.25 216.003906 172.808594 214.792969 C 174.941406 210.90625 176.335938 207.644531 176.992188 205.007812 L 178.640625 197.871094 C 178.472656 197.046875 178.207031 196.554688 177.84375 196.394531 C 177.453125 196.183594 177.082031 196.078125 176.738281 196.078125 C 176.121094 196.078125 175.578125 196.421875 175.113281 197.101562 C 172.832031 206.679688 170.703125 212.269531 168.722656 213.878906 C 167.535156 215.367188 165.464844 216.113281 162.515625 216.113281 C 162.140625 216.113281 161.75 216.101562 161.347656 216.074219 C 160.660156 216.066406 159.761719 215.933594 158.65625 215.679688 L 158.648438 215.679688 C 158.824219 211.441406 158.957031 207.457031 159.042969 203.726562 C 158.910156 203.375 158.714844 203.101562 158.457031 202.90625 C 158.035156 202.660156 157.667969 202.535156 157.355469 202.535156 C 157.308594 202.535156 157.261719 202.535156 157.214844 202.542969 L 157.179688 202.542969 L 156.886719 202.558594 L 148.878906 204.757812 L 141.324219 191.933594 L 141.246094 191.796875 L 157.109375 182.015625 L 152.015625 145.378906 C 151.75 144.582031 151.167969 144.125 150.269531 144.011719 L 150.191406 144.011719 C 139.628906 145.269531 129.546875 145.898438 119.941406 145.898438 C 117.980469 145.898438 116.035156 145.871094 114.113281 145.820312 L 114.105469 145.820312 L 111.757812 141.84375 C 111.320312 141.480469 110.972656 141.296875 110.714844 141.292969 L 90.90625 139.535156 L 90.71875 139.542969 C 90.132812 139.550781 89.621094 139.9375 89.175781 140.707031 L 89.082031 140.945312 C 87.285156 139.894531 86.128906 138.753906 85.605469 137.523438 L 85.597656 137.523438 C 85.738281 137.507812 85.878906 137.492188 86.023438 137.476562 C 86.234375 137.472656 86.796875 137.3125 87.714844 137 C 89.773438 136.300781 91.265625 135.402344 92.1875 134.304688 C 92.414062 134.152344 92.816406 133.511719 93.402344 132.375 C 93.871094 131.160156 94.035156 130.347656 93.894531 129.941406 C 93.816406 129.460938 93.722656 129.140625 93.613281 128.980469 C 92.203125 126.789062 91.316406 125.3125 90.953125 124.550781 L 90.960938 124.550781 L 92.546875 125.226562 C 91.503906 124.675781 90.410156 124.148438 89.273438 123.648438 L 89.265625 123.648438 C 92.679688 118.027344 105.578125 103.53125 127.96875 80.160156 C 128.144531 79.839844 128.074219 79.3125 127.757812 78.578125 C 122.921875 72.679688 120.265625 69.085938 119.796875 67.804688 C 117.980469 64.152344 116.980469 60.703125 116.800781 57.453125 C 116.085938 51.308594 119 44.765625 125.542969 37.832031 C 130.652344 35.632812 135.335938 34.535156 139.585938 34.535156 Z M 139.148438 30.332031 L 138.589844 30.335938 C 127.886719 30.539062 120.28125 35.433594 115.769531 45.023438 C 112.882812 52.410156 112.382812 58.847656 114.277344 64.339844 C 117.175781 71.875 120.308594 76.921875 123.671875 79.476562 C 112.011719 90.78125 100.738281 103.113281 89.855469 116.476562 C 88.488281 118.226562 87.234375 120.1875 86.085938 122.359375 C 85.191406 122.027344 84.273438 121.710938 83.332031 121.40625 C 80.4375 120.523438 78.65625 120.019531 77.988281 119.890625 C 76.597656 119.6875 75.480469 119.585938 74.636719 119.585938 C 74.558594 119.585938 74.480469 119.585938 74.40625 119.589844 L 73.652344 119.605469 C 70 119.816406 67.34375 120.890625 65.683594 122.820312 C 64.753906 123.84375 64.148438 125.046875 63.871094 126.433594 C 63.617188 128.347656 63.640625 129.386719 63.941406 129.550781 C 64.160156 130.140625 65.074219 131.238281 66.675781 132.847656 C 67 133.167969 68.179688 133.816406 70.207031 134.78125 C 73.363281 136.0625 75.800781 136.914062 77.523438 137.339844 C 78.097656 137.484375 78.589844 137.578125 79.007812 137.625 C 79.226562 137.648438 79.417969 137.660156 79.585938 137.660156 C 79.789062 137.660156 79.953125 137.644531 80.082031 137.613281 C 80.597656 137.675781 81.222656 137.710938 81.957031 137.71875 L 81.949219 137.71875 C 82.1875 138.757812 82.589844 139.695312 83.164062 140.539062 C 84.121094 141.976562 85.632812 143.273438 87.703125 144.425781 L 87.695312 144.425781 L 61.617188 209.9375 L 61.554688 210.902344 C 68.398438 216.792969 76.941406 221.863281 87.1875 226.109375 C 91.148438 227.796875 97.808594 228.640625 107.167969 228.640625 C 107.292969 228.640625 107.417969 228.640625 107.542969 228.640625 L 111.285156 228.25 L 111.292969 228.25 C 111.4375 228.710938 111.679688 229.1875 112.023438 229.6875 C 113.089844 231.316406 115.792969 233.042969 120.125 234.871094 C 124.308594 236.347656 127.566406 237.089844 129.898438 237.089844 C 130.121094 237.089844 130.332031 237.082031 130.539062 237.070312 C 132.382812 237.019531 134.113281 236.445312 135.738281 235.351562 C 135.75 235.34375 135.761719 235.332031 135.773438 235.320312 L 135.765625 235.320312 C 136.621094 234.757812 137.4375 234.054688 138.21875 233.207031 L 138.179688 233.132812 L 138.171875 233.132812 C 139.621094 231.648438 140.664062 230.207031 141.296875 228.804688 C 146.441406 231.515625 150.582031 233.535156 153.714844 234.871094 L 153.707031 234.871094 C 152.828125 243.554688 150.371094 259.085938 146.332031 281.460938 C 145.648438 286.675781 145.414062 292.386719 145.628906 298.59375 C 147.347656 309.125 153.542969 318.085938 164.214844 325.480469 C 159.976562 325.390625 156.007812 325.347656 152.304688 325.347656 C 135.496094 325.347656 124.1875 326.273438 118.378906 328.121094 C 114.734375 329.261719 111.4375 331.015625 108.488281 333.382812 C 103.152344 339.292969 101.023438 343.019531 102.09375 344.566406 L 184.230469 339.707031 C 184.75 339.558594 185.15625 339.128906 185.460938 338.40625 C 185.558594 333.0625 185.914062 329.582031 186.527344 327.976562 C 187.21875 325.820312 188.257812 323.898438 189.644531 322.210938 C 196.34375 316.46875 202.183594 313.597656 207.164062 313.597656 C 207.640625 313.597656 208.105469 313.621094 208.5625 313.671875 C 209.066406 313.589844 209.625 313.550781 210.238281 313.550781 C 216.183594 313.550781 227.132812 317.449219 243.085938 325.246094 C 240.972656 325.207031 238.929688 325.1875 236.945312 325.1875 C 221.515625 325.1875 209.972656 326.4375 202.316406 328.933594 C 200.765625 329.59375 199.1875 331.191406 197.589844 333.730469 C 196.539062 338.136719 196.789062 341.1875 198.34375 342.882812 L 277.050781 337.140625 C 277.445312 336.953125 277.566406 336.316406 277.417969 335.226562 L 270.652344 323.917969 C 274.300781 322.160156 276.976562 320.191406 278.675781 318.015625 L 278.6875 318.015625 C 283.074219 319.429688 287.34375 320.132812 291.496094 320.132812 C 296.6875 320.132812 301.691406 319.03125 306.515625 316.828125 C 319.996094 311.253906 326.863281 300.199219 327.121094 283.660156 C 326.648438 268.886719 322.074219 252.136719 313.398438 233.417969 C 309.179688 224.359375 304.304688 215.710938 298.785156 207.464844 L 278.460938 179.117188 C 275.988281 175.621094 273.777344 172.222656 271.820312 168.917969 C 269.867188 165.613281 268.289062 162.394531 267.082031 159.253906 L 265.644531 154.601562 L 264.945312 150.050781 L 265.035156 145.597656 L 265.832031 141.269531 C 266.597656 138.421875 267.671875 135.683594 269.058594 133.058594 C 270.445312 130.433594 271.984375 127.953125 273.671875 125.613281 L 284.988281 111.605469 C 286.015625 110.3125 286.683594 109.179688 286.988281 108.203125 C 287.15625 106.867188 286.621094 106.195312 285.382812 106.195312 C 284.46875 106.195312 283.167969 106.5625 281.488281 107.292969 C 273.675781 110.527344 266.742188 118.417969 260.683594 130.976562 C 258.628906 135.828125 257.386719 141.035156 256.960938 146.589844 C 256.769531 149.355469 256.847656 152.160156 257.199219 155.003906 L 257.960938 159.28125 C 259.363281 164.976562 261.789062 170.789062 265.238281 176.714844 C 266.933594 179.6875 268.796875 182.71875 270.824219 185.800781 C 285.285156 206.824219 293.167969 218.683594 294.464844 221.378906 C 299.015625 228.957031 303.125 236.613281 306.796875 244.351562 C 314.492188 260.351562 318.269531 273.515625 318.128906 283.84375 C 317.78125 288.65625 316.5625 292.527344 314.472656 295.457031 C 312.382812 298.382812 309.929688 300.585938 307.113281 302.0625 C 302.832031 304.324219 298.507812 305.453125 294.144531 305.453125 C 290.6875 305.453125 287.207031 304.742188 283.699219 303.324219 L 283.691406 303.324219 C 283.910156 301.933594 284.089844 300.46875 284.234375 298.9375 C 284.792969 290.210938 284.972656 281.921875 284.773438 274.078125 C 283.609375 255.234375 282.457031 244.460938 281.316406 241.753906 C 278.644531 228.710938 274.460938 217.4375 268.757812 207.925781 C 264.808594 202 261.496094 197.792969 258.816406 195.296875 C 240.011719 180.335938 215.414062 158.777344 185.027344 130.625 L 190.019531 112.660156 C 192.097656 112.75 194.097656 112.796875 196.015625 112.796875 C 213.15625 112.796875 223.890625 109.097656 228.214844 101.695312 C 232.011719 90.847656 233.152344 82.753906 231.632812 77.414062 C 230.707031 70.535156 228.316406 63.335938 224.457031 55.8125 C 215.761719 44.175781 207.601562 38.359375 199.96875 38.359375 C 197.828125 38.359375 195.730469 38.820312 193.671875 39.734375 C 186.550781 41.792969 179.757812 45.511719 173.28125 50.894531 C 162.503906 63.417969 157.296875 72.066406 157.664062 76.832031 L 153.304688 75.59375 C 159.636719 64.21875 162.144531 53.574219 160.835938 43.652344 C 156.753906 35.8125 149.527344 31.371094 139.148438 30.332031 Z M 139.148438 30.332031 " fill-opacity="1" fill-rule="nonzero"/></g><path fill="#989898" d="M 124.648438 88.703125 C 124.722656 88.703125 124.804688 88.707031 124.882812 88.707031 C 125.644531 88.753906 126.332031 88.925781 126.953125 89.234375 L 127.003906 89.253906 C 127.15625 89.285156 127.578125 89.570312 128.269531 90.105469 C 128.53125 90.335938 128.777344 90.59375 129.007812 90.878906 C 129.484375 91.46875 129.859375 92.125 130.128906 92.855469 L 130.128906 92.859375 C 130.425781 93.617188 130.582031 94.503906 130.601562 95.527344 L 130.597656 95.527344 L 130.542969 96.464844 C 130.355469 97.460938 130.222656 98.023438 130.136719 98.160156 L 130.117188 98.203125 C 129.984375 98.5625 129.828125 98.902344 129.648438 99.226562 C 129.285156 99.871094 128.828125 100.441406 128.265625 100.941406 L 128.269531 100.941406 C 127.707031 101.433594 127.105469 101.796875 126.457031 102.03125 C 126.136719 102.144531 125.800781 102.230469 125.457031 102.28125 L 125.449219 102.28125 C 124.984375 102.316406 124.613281 102.335938 124.335938 102.335938 C 124.097656 102.335938 123.941406 102.324219 123.863281 102.296875 L 123.832031 102.292969 L 123.828125 102.289062 L 123.832031 102.289062 C 122.964844 102.082031 122.472656 101.929688 122.355469 101.835938 L 122.296875 101.804688 L 122.300781 101.804688 C 121.992188 101.65625 121.699219 101.480469 121.421875 101.277344 C 120.855469 100.867188 120.355469 100.34375 119.921875 99.707031 C 119.046875 98.421875 118.632812 96.933594 118.683594 95.238281 C 118.722656 94.359375 118.878906 93.5625 119.152344 92.84375 L 119.164062 92.800781 C 119.195312 92.621094 119.441406 92.136719 119.910156 91.347656 C 120.113281 91.046875 120.34375 90.761719 120.59375 90.496094 L 120.589844 90.496094 L 120.433594 90.5625 L 120.628906 90.457031 C 120.722656 90.304688 121.140625 89.972656 121.875 89.460938 C 122.175781 89.28125 122.488281 89.132812 122.8125 89.015625 C 123.386719 88.808594 124 88.703125 124.648438 88.703125 Z M 199.382812 52.722656 C 200.472656 52.722656 201.53125 52.835938 202.554688 53.066406 L 202.558594 53.066406 C 205.835938 53.726562 208.871094 55.320312 211.664062 57.839844 L 211.703125 57.867188 C 212.207031 58.167969 213.460938 59.617188 215.46875 62.222656 L 215.464844 62.222656 C 216.230469 63.320312 216.933594 64.496094 217.578125 65.746094 C 219.667969 70.351562 220.859375 73.898438 221.144531 76.394531 L 221.148438 76.410156 C 221.75 79.613281 221.996094 82.851562 221.890625 86.128906 C 221.785156 89.394531 221.25 92.347656 220.28125 94.984375 C 219.792969 96.273438 219.1875 97.417969 218.457031 98.417969 L 218.453125 98.417969 L 217.253906 99.789062 C 215.550781 101.511719 212.949219 102.371094 209.449219 102.371094 C 208.976562 102.371094 208.492188 102.359375 207.988281 102.328125 C 203.210938 101.933594 196.519531 100.171875 187.917969 97.039062 L 187.910156 97.039062 L 187.5 96.234375 C 185.644531 92.3125 183.523438 89.363281 181.136719 87.390625 C 179.117188 85.609375 175.078125 83.675781 169.015625 81.585938 L 169.007812 81.585938 C 176.261719 69.679688 181.574219 62.265625 184.957031 59.347656 L 184.96875 59.335938 C 187.742188 56.582031 190.683594 54.683594 193.789062 53.636719 C 195.738281 53.027344 197.605469 52.722656 199.382812 52.722656 Z M 146.589844 92.148438 C 146.847656 92.148438 147.117188 92.164062 147.390625 92.199219 L 147.386719 92.199219 C 149.011719 92.492188 150.3125 93.355469 151.292969 94.78125 C 151.605469 95.246094 151.867188 95.75 152.070312 96.296875 L 152.332031 97.15625 L 152.328125 97.15625 C 152.46875 97.734375 152.539062 98.335938 152.542969 98.964844 L 152.484375 99.910156 C 152.222656 101.777344 151.464844 103.265625 150.210938 104.382812 C 149.152344 105.316406 147.9375 105.785156 146.5625 105.785156 C 146.308594 105.785156 146.046875 105.769531 145.777344 105.734375 C 144.144531 105.441406 142.839844 104.578125 141.863281 103.152344 C 140.878906 101.707031 140.480469 100.003906 140.664062 98.039062 C 140.925781 96.164062 141.683594 94.667969 142.941406 93.546875 C 144 92.613281 145.214844 92.148438 146.589844 92.148438 Z M 131.320312 219.714844 C 131.316406 219.714844 131.3125 219.71875 131.3125 219.71875 L 131.3125 219.714844 Z M 139.585938 34.304688 C 135.304688 34.304688 130.589844 35.410156 125.453125 37.621094 L 125.375 37.671875 C 118.785156 44.660156 115.851562 51.261719 116.570312 57.476562 C 116.757812 60.753906 117.765625 64.230469 119.59375 67.90625 L 119.589844 67.90625 C 120.09375 69.234375 122.753906 72.835938 127.574219 78.71875 L 127.566406 78.71875 C 127.835938 79.347656 127.90625 79.789062 127.773438 80.042969 L 127.765625 80.042969 C 105.390625 103.398438 92.492188 117.894531 89.070312 123.53125 C 89.027344 123.601562 89.027344 123.6875 89.066406 123.761719 C 89.101562 123.820312 89.160156 123.863281 89.222656 123.875 L 89.21875 123.875 C 89.730469 124.101562 90.238281 124.332031 90.734375 124.570312 L 90.726562 124.570312 C 90.730469 124.597656 90.734375 124.625 90.75 124.652344 C 91.113281 125.421875 92.003906 126.90625 93.417969 129.101562 L 93.421875 129.109375 C 93.515625 129.242188 93.597656 129.53125 93.667969 129.976562 L 93.679688 130.015625 C 93.800781 130.371094 93.636719 131.128906 93.1875 132.292969 C 92.625 133.378906 92.25 133.984375 92.0625 134.113281 L 92.015625 134.15625 C 91.117188 135.222656 89.65625 136.097656 87.640625 136.78125 C 86.746094 137.089844 86.203125 137.242188 86.015625 137.25 L 85.996094 137.25 C 85.945312 137.253906 85.910156 137.257812 85.890625 137.261719 C 85.863281 137.265625 85.765625 137.277344 85.605469 137.292969 L 85.597656 137.292969 C 85.578125 137.292969 85.558594 137.296875 85.539062 137.304688 L 85.535156 137.304688 C 85.425781 137.339844 85.355469 137.445312 85.371094 137.558594 C 85.378906 137.605469 85.402344 137.648438 85.433594 137.683594 L 85.425781 137.683594 C 85.980469 138.933594 87.160156 140.089844 88.96875 141.140625 C 89.003906 141.164062 89.042969 141.171875 89.082031 141.171875 C 89.109375 141.171875 89.132812 141.167969 89.15625 141.160156 C 89.222656 141.140625 89.269531 141.089844 89.296875 141.027344 L 89.390625 140.792969 L 89.394531 140.792969 C 89.789062 140.117188 90.230469 139.777344 90.722656 139.773438 L 90.730469 139.773438 L 90.902344 139.765625 L 110.695312 141.523438 L 110.710938 141.523438 C 110.914062 141.527344 111.207031 141.6875 111.597656 142.003906 L 111.589844 142.003906 L 113.910156 145.9375 C 113.953125 146.007812 114.027344 146.050781 114.105469 146.050781 C 114.113281 146.050781 114.125 146.050781 114.132812 146.050781 L 114.140625 146.050781 C 116.050781 146.101562 117.984375 146.128906 119.941406 146.128906 C 129.550781 146.128906 139.636719 145.5 150.207031 144.242188 L 150.199219 144.242188 L 150.25 144.238281 L 150.257812 144.238281 C 151.050781 144.347656 151.566406 144.75 151.796875 145.449219 L 151.792969 145.449219 L 156.859375 181.898438 L 141.125 191.601562 C 141.019531 191.667969 140.984375 191.808594 141.046875 191.914062 L 141.128906 192.046875 L 141.125 192.046875 L 148.679688 204.871094 C 148.722656 204.945312 148.796875 204.984375 148.878906 204.984375 C 148.898438 204.984375 148.917969 204.984375 148.9375 204.976562 L 156.921875 202.785156 L 157.1875 202.773438 L 157.21875 202.769531 L 157.246094 202.769531 C 157.28125 202.765625 157.316406 202.761719 157.355469 202.761719 C 157.625 202.761719 157.953125 202.878906 158.339844 203.105469 C 158.542969 203.269531 158.707031 203.496094 158.820312 203.785156 L 158.8125 203.785156 C 158.722656 207.496094 158.59375 211.457031 158.421875 215.667969 C 158.417969 215.730469 158.441406 215.792969 158.484375 215.835938 C 158.523438 215.878906 158.578125 215.90625 158.636719 215.90625 L 158.628906 215.90625 C 159.738281 216.160156 160.644531 216.292969 161.34375 216.304688 L 161.339844 216.304688 C 161.746094 216.328125 162.136719 216.339844 162.515625 216.339844 C 165.515625 216.339844 167.636719 215.578125 168.875 214.054688 L 168.867188 214.054688 C 170.882812 212.421875 173.035156 206.804688 175.324219 197.214844 L 175.316406 197.214844 C 175.730469 196.609375 176.207031 196.308594 176.738281 196.308594 C 177.046875 196.308594 177.378906 196.40625 177.734375 196.597656 L 177.75 196.605469 C 178.039062 196.730469 178.257812 197.160156 178.410156 197.886719 L 178.402344 197.886719 L 176.769531 204.957031 C 176.117188 207.570312 174.730469 210.8125 172.609375 214.683594 L 172.601562 214.695312 C 172.0625 215.859375 170.398438 217.222656 167.609375 218.78125 L 167.605469 218.78125 C 166.328125 219.332031 164.449219 219.609375 161.980469 219.609375 L 161.976562 219.609375 C 159.277344 219.355469 156.703125 218.839844 154.25 218.0625 C 152.945312 217.628906 151.726562 217.210938 150.589844 216.816406 L 150.574219 216.8125 L 150.570312 216.808594 L 150.480469 216.8125 C 149.847656 216.582031 149.210938 216.347656 148.574219 216.105469 L 148.566406 216.105469 C 148.546875 216.09375 148.53125 216.082031 148.511719 216.074219 C 144.949219 214.792969 142.351562 213.734375 140.71875 212.90625 L 140.714844 212.90625 L 140.234375 212.578125 L 139.8125 211 C 139.804688 210.972656 139.792969 210.949219 139.777344 210.925781 L 139.769531 210.925781 L 138.855469 207.683594 L 138.847656 207.683594 C 138.882812 207.632812 138.894531 207.566406 138.875 207.503906 L 136.949219 200.3125 L 136.945312 200.304688 C 136.339844 198.375 135.957031 197.308594 135.804688 197.105469 C 135.746094 197.027344 135.671875 196.988281 135.585938 196.988281 C 135.457031 196.988281 135.375 197.058594 135.34375 197.195312 L 135.339844 197.195312 L 130.027344 209.785156 C 130.007812 209.832031 130.003906 209.886719 130.019531 209.933594 L 130.011719 209.933594 C 129.804688 210.402344 129.59375 210.875 129.375 211.351562 L 129.367188 211.351562 C 129.367188 211.351562 129.367188 211.351562 129.367188 211.355469 L 129.355469 211.382812 L 129.347656 211.382812 C 129.285156 211.390625 129.222656 211.394531 129.160156 211.394531 C 129.03125 211.394531 128.898438 211.378906 128.769531 211.347656 L 128.746094 211.339844 C 128.152344 211.179688 127.566406 211.019531 126.980469 210.863281 L 126.96875 210.863281 L 126.957031 210.859375 C 126.054688 210.617188 125.1875 210.386719 124.351562 210.171875 L 124.347656 210.171875 C 124.332031 210.164062 124.320312 210.160156 124.304688 210.15625 C 124.054688 210.089844 123.8125 210.027344 123.582031 209.96875 L 123.574219 209.96875 C 123.558594 209.960938 123.542969 209.953125 123.527344 209.949219 C 120.753906 209.226562 118.261719 208.609375 116.050781 208.09375 L 116.042969 208.09375 L 116.039062 208.089844 C 112.480469 207.339844 110.398438 206.964844 109.789062 206.964844 C 109.71875 206.964844 109.660156 206.96875 109.613281 206.980469 C 109.601562 206.980469 109.589844 206.984375 109.578125 206.988281 L 109.421875 207.179688 C 109.414062 207.230469 109.421875 207.285156 109.445312 207.34375 C 109.734375 208.109375 115.660156 212.683594 127.230469 221.058594 L 127.425781 221.09375 C 127.46875 221.082031 127.507812 221.070312 127.550781 221.058594 L 127.558594 221.058594 L 127.738281 221.414062 C 127.761719 221.457031 127.792969 221.488281 127.832031 221.511719 L 127.824219 221.511719 C 127.890625 221.585938 127.953125 221.6875 128.015625 221.8125 C 128.027344 221.839844 128.046875 221.859375 128.066406 221.878906 L 128.058594 221.878906 C 128.105469 221.96875 128.140625 222.066406 128.167969 222.167969 C 128.167969 222.167969 128.167969 222.171875 128.167969 222.171875 L 128.167969 222.175781 L 128.171875 222.183594 C 128.195312 222.246094 128.214844 222.3125 128.234375 222.382812 C 128.25 222.425781 128.269531 222.460938 128.300781 222.484375 L 128.292969 222.484375 L 128.753906 223.378906 L 129.09375 224.046875 L 129.085938 224.046875 C 125.246094 225.164062 122.054688 226 119.519531 226.554688 C 117.9375 226.878906 116.46875 227.164062 115.117188 227.40625 L 115.109375 227.40625 C 115.109375 227.40625 115.105469 227.40625 115.105469 227.410156 C 115.039062 227.417969 114.980469 227.453125 114.941406 227.511719 C 114.894531 227.582031 114.890625 227.671875 114.929688 227.746094 C 114.941406 227.769531 114.957031 227.785156 114.972656 227.804688 L 114.984375 227.804688 L 114.976562 227.804688 C 114.988281 227.820312 115.007812 227.832031 115.023438 227.839844 L 115.015625 227.839844 C 116.960938 229.632812 119.582031 231.078125 122.882812 232.183594 C 125.398438 233.0625 127.65625 233.5 129.660156 233.5 C 130.222656 233.5 130.761719 233.464844 131.285156 233.398438 L 131.289062 233.394531 C 132.449219 233.214844 133.675781 232.605469 134.964844 231.570312 L 134.992188 231.546875 C 136.746094 229.621094 138.183594 227.53125 139.304688 225.269531 L 139.296875 225.269531 C 139.675781 224.871094 140.089844 224.671875 140.546875 224.671875 C 140.585938 224.671875 140.628906 224.671875 140.671875 224.675781 L 140.664062 224.675781 L 152.921875 230.667969 L 152.929688 230.671875 C 153.265625 230.816406 153.601562 230.957031 153.9375 231.097656 C 153.964844 231.109375 153.996094 231.117188 154.027344 231.117188 C 154.070312 231.117188 154.109375 231.105469 154.148438 231.082031 C 154.164062 231.070312 154.175781 231.058594 154.191406 231.046875 L 154.199219 231.046875 L 157.46875 232.417969 L 157.460938 232.417969 C 157.46875 232.457031 157.488281 232.492188 157.515625 232.523438 C 157.550781 232.5625 157.601562 232.585938 157.652344 232.59375 L 157.644531 232.59375 C 158.433594 232.898438 159.183594 233.175781 159.898438 233.429688 C 159.925781 233.4375 159.949219 233.445312 159.976562 233.445312 C 160.015625 233.445312 160.058594 233.433594 160.09375 233.410156 C 160.109375 233.402344 160.125 233.390625 160.136719 233.378906 L 160.144531 233.378906 C 162.539062 234.011719 164.054688 234.363281 164.691406 234.433594 L 164.703125 234.433594 C 165.710938 234.511719 166.578125 234.550781 167.3125 234.550781 C 168.019531 234.550781 168.597656 234.515625 169.054688 234.445312 C 172.160156 234.019531 175.066406 232.71875 177.769531 230.546875 L 177.765625 230.546875 C 179.96875 228.964844 183.828125 224.683594 189.347656 217.703125 L 189.339844 217.703125 C 189.734375 217.398438 190.109375 217.246094 190.464844 217.246094 C 190.558594 217.246094 190.648438 217.257812 190.742188 217.277344 L 190.734375 217.277344 C 191.984375 218.09375 192.429688 218.8125 192.070312 219.4375 C 188.433594 224.363281 184.609375 228.6875 180.597656 232.414062 C 179.070312 233.789062 176.714844 235.207031 173.53125 236.664062 C 171.71875 237.351562 169.890625 237.734375 168.050781 237.8125 L 168.046875 237.8125 C 167.742188 237.832031 167.429688 237.839844 167.109375 237.839844 C 164.453125 237.839844 161.203125 237.222656 157.359375 235.984375 L 157.347656 235.980469 L 157.339844 235.980469 C 157.320312 235.972656 157.300781 235.972656 157.28125 235.972656 C 157.234375 235.972656 157.191406 235.984375 157.152344 236.011719 C 157.097656 236.046875 157.058594 236.109375 157.050781 236.175781 C 155.828125 246.878906 153.410156 262.121094 149.800781 281.914062 L 149.796875 281.929688 C 148.863281 290.945312 148.761719 297.011719 149.492188 300.132812 C 150.066406 303.097656 151.984375 307.28125 155.246094 312.683594 L 155.285156 312.730469 L 171.613281 328.226562 L 171.605469 328.226562 C 171.433594 328.519531 170.992188 328.800781 170.277344 329.066406 C 163.867188 328.925781 158.0625 328.855469 152.859375 328.855469 C 139.613281 328.855469 130.28125 329.3125 124.867188 330.230469 L 124.847656 330.234375 C 113.953125 332.941406 107.945312 336.546875 106.828125 341.046875 C 106.808594 341.121094 106.828125 341.195312 106.875 341.25 C 106.917969 341.304688 106.980469 341.332031 107.050781 341.332031 C 107.054688 341.332031 107.058594 341.332031 107.0625 341.332031 L 181.824219 336.421875 C 181.949219 336.414062 182.042969 336.308594 182.039062 336.183594 C 181.816406 329.566406 183.429688 324.183594 186.878906 320.042969 L 186.914062 319.984375 C 188.453125 316.222656 195.644531 312.988281 208.488281 310.28125 L 208.496094 310.28125 C 215.488281 310.695312 221.929688 312.078125 227.824219 314.429688 C 235.367188 317.546875 243.292969 321.28125 251.597656 325.628906 L 251.640625 325.648438 C 252.257812 325.828125 252.503906 326.511719 252.386719 327.695312 L 252.378906 327.695312 C 251.996094 328.34375 251.558594 328.679688 251.070312 328.707031 C 249.058594 328.691406 247.105469 328.683594 245.214844 328.683594 C 228.167969 328.683594 216.171875 329.308594 209.226562 330.554688 L 209.207031 330.558594 C 202.234375 332.457031 199.191406 335.039062 200.082031 338.304688 C 200.167969 338.621094 200.289062 338.941406 200.449219 339.265625 L 200.671875 339.394531 L 272.53125 334.476562 C 272.613281 334.46875 272.683594 334.425781 272.71875 334.355469 C 272.757812 334.285156 272.753906 334.203125 272.714844 334.132812 L 266.480469 323.222656 L 266.472656 323.222656 C 272.273438 323.152344 276.925781 316.027344 280.433594 301.847656 L 280.441406 301.816406 C 282.058594 285.207031 281.953125 269.796875 280.121094 255.589844 L 280.121094 255.582031 L 278.425781 245.164062 L 278.421875 245.15625 C 277.078125 238.351562 275.296875 231.847656 273.085938 225.640625 C 270.875 219.4375 268.234375 213.53125 265.160156 207.925781 L 265.152344 207.917969 L 265.152344 207.914062 C 263.429688 205.234375 261.996094 203.34375 260.84375 202.238281 L 260.832031 202.226562 C 236.082031 181.644531 209.609375 158.125 181.40625 131.671875 L 181.394531 131.671875 L 187.648438 109.539062 L 187.65625 109.539062 C 187.941406 109.542969 188.226562 109.542969 188.511719 109.542969 C 199.484375 109.542969 208.550781 108.644531 215.707031 106.851562 L 215.703125 106.851562 C 219.648438 106.21875 223.34375 102.929688 226.792969 96.984375 L 226.808594 96.941406 C 229.300781 89.359375 229.136719 80.234375 226.316406 69.566406 L 226.3125 69.558594 C 223.261719 59.902344 219.207031 52.726562 214.140625 48.035156 L 214.113281 48.015625 C 209.023438 44.554688 203.902344 42.824219 198.742188 42.824219 C 193.761719 42.824219 188.757812 44.433594 183.730469 47.660156 L 183.726562 47.660156 C 176.339844 52.496094 171.386719 56.851562 168.875 60.726562 L 168.871094 60.726562 C 166.429688 64.015625 163.578125 70.382812 160.324219 79.820312 L 160.316406 79.820312 C 159.945312 80.433594 159.464844 80.742188 158.875 80.742188 C 158.816406 80.742188 158.757812 80.738281 158.695312 80.730469 L 158.6875 80.730469 L 149.875 78.203125 L 149.867188 78.203125 C 149.511719 78.027344 149.253906 77.609375 149.09375 76.957031 L 149.085938 76.957031 C 153.011719 69.175781 155.667969 62.566406 157.054688 57.125 L 157.058594 57.109375 C 158.613281 48.363281 158.335938 43.339844 156.21875 42.03125 L 156.210938 42.03125 C 151.675781 36.878906 146.136719 34.304688 139.585938 34.304688 Z M 139.585938 34.304688 " fill-opacity="0.996" fill-rule="nonzero"/><path fill="#ffce1f" d="M 91.523438 142.902344 C 91.449219 142.902344 91.375 142.941406 91.332031 143.003906 C 91.285156 143.078125 91.285156 143.171875 91.328125 143.246094 L 92.621094 145.492188 L 92.753906 145.722656 L 92.898438 145.972656 C 92.90625 145.988281 92.917969 146 92.929688 146.015625 L 92.921875 146.015625 L 92.960938 146.085938 L 93.007812 146.164062 L 93.140625 146.394531 L 93.15625 146.421875 L 93.507812 147.035156 L 97.066406 153.210938 L 120.953125 199.933594 C 120.984375 199.992188 121.039062 200.035156 121.105469 200.050781 C 121.121094 200.054688 121.140625 200.058594 121.15625 200.058594 C 121.207031 200.058594 121.253906 200.042969 121.292969 200.015625 L 121.492188 199.871094 L 126.316406 207.617188 C 126.355469 207.683594 126.429688 207.722656 126.511719 207.722656 C 126.511719 207.722656 126.515625 207.722656 126.515625 207.722656 C 126.597656 207.722656 126.671875 207.675781 126.710938 207.605469 L 126.800781 207.4375 L 127.828125 207.710938 C 127.847656 207.71875 127.867188 207.71875 127.886719 207.71875 C 127.984375 207.71875 128.074219 207.65625 128.105469 207.558594 L 130.167969 201.027344 L 133.921875 193.871094 L 133.929688 193.863281 L 134.3125 193.140625 L 134.683594 192.429688 L 134.691406 192.429688 C 134.867188 192.480469 135.046875 192.550781 135.230469 192.632812 L 135.253906 192.636719 L 135.246094 192.636719 C 135.457031 192.726562 135.816406 192.925781 136.328125 193.242188 L 136.324219 193.242188 C 136.324219 193.242188 136.324219 193.242188 136.324219 193.246094 L 136.339844 193.246094 L 136.519531 193.265625 C 136.5 193.273438 136.472656 193.277344 136.449219 193.277344 C 136.402344 193.277344 136.363281 193.265625 136.332031 193.246094 L 136.324219 193.246094 C 136.371094 193.308594 136.460938 193.453125 136.597656 193.683594 C 136.613281 193.707031 136.632812 193.730469 136.65625 193.746094 L 136.648438 193.746094 L 138.371094 196.398438 L 138.375 196.410156 L 138.378906 196.410156 L 138.386719 196.425781 L 138.378906 196.425781 C 138.390625 196.460938 138.414062 196.488281 138.441406 196.511719 L 138.433594 196.511719 C 138.503906 196.640625 138.5625 196.773438 138.613281 196.902344 L 138.605469 196.902344 C 138.585938 196.953125 138.582031 197.011719 138.601562 197.066406 L 139.765625 200.425781 L 139.773438 200.445312 C 139.949219 200.839844 140.269531 201.234375 140.730469 201.621094 L 140.722656 201.621094 C 141.160156 203.300781 141.574219 204.976562 141.964844 206.644531 C 141.980469 206.707031 142.019531 206.757812 142.074219 206.789062 C 142.109375 206.8125 142.148438 206.820312 142.191406 206.820312 C 142.210938 206.820312 142.230469 206.820312 142.25 206.8125 L 145.214844 206 C 145.285156 205.980469 145.339844 205.929688 145.367188 205.863281 C 145.394531 205.796875 145.386719 205.722656 145.351562 205.660156 L 142.328125 200.535156 L 142.320312 200.535156 C 142.3125 200.496094 142.292969 200.457031 142.265625 200.421875 C 142.265625 200.421875 142.21875 200.375 142.128906 200.277344 L 141.777344 199.890625 L 141.769531 199.890625 C 141.753906 199.792969 141.738281 199.699219 141.722656 199.613281 L 141.714844 199.613281 C 141.722656 199.578125 141.722656 199.542969 141.710938 199.507812 L 141.707031 199.507812 C 141.683594 199.367188 141.664062 199.234375 141.648438 199.109375 L 141.648438 199.097656 C 141.578125 198.566406 141.550781 198.191406 141.5625 197.96875 L 141.5625 197.921875 C 141.433594 197.011719 141.347656 196.496094 141.304688 196.371094 C 141.296875 196.351562 141.289062 196.335938 141.28125 196.320312 C 140.984375 195.746094 140.691406 195.320312 140.40625 195.035156 L 140.398438 195.035156 C 139.980469 194.203125 139.59375 193.578125 139.242188 193.15625 L 139.238281 193.15625 C 139.21875 193.121094 139.195312 193.089844 139.171875 193.0625 L 139.167969 193.054688 L 139.160156 193.042969 C 138.777344 192.511719 138.453125 192.054688 138.175781 191.675781 L 138.167969 191.675781 C 138.160156 191.648438 138.148438 191.625 138.132812 191.605469 L 138.132812 191.601562 L 138.128906 191.597656 C 137.75 191.085938 137.398438 190.632812 137.070312 190.238281 L 137.0625 190.238281 C 137.046875 190.1875 137.019531 190.144531 136.976562 190.113281 C 136.972656 190.109375 136.972656 190.109375 136.972656 190.109375 L 136.964844 190.109375 C 136.261719 189.269531 135.671875 188.691406 135.191406 188.378906 L 135.183594 188.378906 L 109.652344 144.890625 L 109.480469 144.777344 L 92.210938 142.96875 L 92.144531 142.96875 C 92.085938 142.980469 92.039062 143.011719 92.007812 143.050781 C 91.929688 143.039062 91.816406 143 91.664062 142.9375 L 91.660156 142.9375 C 91.628906 142.917969 91.59375 142.90625 91.558594 142.902344 L 91.546875 142.902344 C 91.539062 142.902344 91.53125 142.902344 91.523438 142.902344 Z M 90.367188 147.5625 C 90.367188 147.5625 90.363281 147.5625 90.359375 147.5625 C 90.269531 147.566406 90.1875 147.621094 90.15625 147.707031 L 65.460938 209.765625 C 65.421875 209.863281 65.457031 209.972656 65.539062 210.035156 C 79.421875 220.300781 92.332031 225.433594 104.265625 225.433594 C 107.253906 225.433594 110.175781 225.113281 113.039062 224.472656 L 113.046875 224.472656 C 113.085938 224.503906 113.132812 224.515625 113.179688 224.515625 C 113.222656 224.515625 113.265625 224.503906 113.304688 224.480469 C 114.160156 223.933594 115.296875 223.4375 116.710938 222.992188 C 118.171875 222.53125 119.925781 222.125 121.972656 221.777344 C 122.0625 221.761719 122.136719 221.691406 122.15625 221.601562 C 122.179688 221.511719 122.140625 221.417969 122.066406 221.363281 C 113.859375 215.480469 108.777344 211.457031 106.820312 209.292969 L 106.816406 209.289062 C 105.234375 207.632812 104.882812 206.113281 105.757812 204.730469 C 106.191406 204.042969 107.253906 203.699219 108.945312 203.699219 C 109.507812 203.699219 110.140625 203.738281 110.84375 203.816406 L 110.839844 203.816406 C 113.917969 204.285156 116.890625 204.878906 119.753906 205.59375 C 119.773438 205.597656 119.789062 205.601562 119.808594 205.601562 C 119.878906 205.601562 119.945312 205.570312 119.988281 205.515625 C 120.042969 205.445312 120.054688 205.347656 120.011719 205.269531 L 90.574219 147.6875 C 90.535156 147.609375 90.453125 147.5625 90.367188 147.5625 Z M 90.367188 147.5625 " fill-opacity="0.996" fill-rule="nonzero"/><path fill="#fda769" d="M 102.34375 150.179688 C 101.984375 150.179688 101.667969 150.289062 101.390625 150.503906 C 101.0625 150.757812 100.863281 151.097656 100.796875 151.523438 C 100.75 151.96875 100.851562 152.359375 101.109375 152.6875 C 101.363281 153.015625 101.703125 153.210938 102.128906 153.277344 C 102.199219 153.285156 102.269531 153.289062 102.339844 153.289062 C 102.699219 153.289062 103.015625 153.183594 103.292969 152.96875 C 103.621094 152.714844 103.816406 152.371094 103.882812 151.945312 L 103.898438 151.734375 C 103.898438 151.589844 103.878906 151.453125 103.84375 151.320312 L 103.777344 151.128906 C 103.722656 151.003906 103.65625 150.890625 103.574219 150.785156 C 103.320312 150.457031 102.976562 150.257812 102.550781 150.191406 C 102.480469 150.183594 102.410156 150.179688 102.34375 150.179688 Z M 110.214844 156.71875 C 109.207031 156.753906 108.367188 157.207031 107.699219 158.074219 C 107.03125 158.945312 106.683594 160.039062 106.65625 161.347656 C 106.65625 161.777344 106.699219 162.1875 106.785156 162.578125 L 106.9375 163.148438 C 107.058594 163.519531 107.210938 163.863281 107.398438 164.175781 C 107.980469 165.148438 108.761719 165.734375 109.734375 165.933594 C 109.894531 165.957031 110.054688 165.96875 110.207031 165.96875 C 111.03125 165.96875 111.757812 165.648438 112.390625 165.011719 C 113.136719 164.253906 113.585938 163.242188 113.742188 161.976562 L 113.773438 161.347656 C 113.75 160.039062 113.402344 158.945312 112.730469 158.074219 C 112.0625 157.207031 111.222656 156.753906 110.214844 156.71875 Z M 92.914062 167.222656 C 91.515625 167.257812 90.351562 167.738281 89.421875 168.667969 C 88.492188 169.597656 88.011719 170.761719 87.976562 172.160156 C 87.976562 172.617188 88.035156 173.054688 88.152344 173.472656 L 88.363281 174.082031 C 88.53125 174.476562 88.746094 174.84375 89.003906 175.179688 C 89.816406 176.214844 90.894531 176.839844 92.246094 177.054688 C 92.46875 177.078125 92.691406 177.089844 92.90625 177.089844 C 94.046875 177.089844 95.054688 176.75 95.933594 176.070312 C 96.96875 175.261719 97.59375 174.179688 97.808594 172.832031 L 97.851562 172.160156 C 97.816406 170.761719 97.335938 169.597656 96.40625 168.667969 C 95.476562 167.738281 94.3125 167.257812 92.914062 167.222656 Z M 86.625 179.636719 C 85.746094 179.664062 85.011719 180.039062 84.425781 180.757812 C 83.839844 181.476562 83.535156 182.378906 83.511719 183.460938 C 83.511719 183.816406 83.550781 184.152344 83.625 184.480469 L 83.757812 184.949219 C 83.863281 185.257812 83.996094 185.539062 84.160156 185.800781 C 84.671875 186.601562 85.351562 187.085938 86.203125 187.25 C 86.347656 187.269531 86.484375 187.28125 86.621094 187.28125 C 87.339844 187.28125 87.976562 187.015625 88.53125 186.488281 C 89.183594 185.863281 89.578125 185.027344 89.710938 183.980469 L 89.742188 183.460938 C 89.71875 182.378906 89.414062 181.476562 88.828125 180.757812 C 88.242188 180.039062 87.507812 179.664062 86.625 179.636719 Z M 123.570312 177.734375 C 122.378906 177.734375 121.324219 178.089844 120.40625 178.800781 C 119.324219 179.644531 118.671875 180.773438 118.445312 182.183594 C 118.285156 183.664062 118.628906 184.949219 119.476562 186.039062 C 120.320312 187.125 121.449219 187.777344 122.859375 188 C 123.09375 188.023438 123.324219 188.039062 123.550781 188.039062 C 124.742188 188.039062 125.796875 187.683594 126.714844 186.972656 C 127.796875 186.125 128.453125 184.996094 128.675781 183.585938 L 128.722656 182.886719 C 128.722656 182.410156 128.660156 181.953125 128.539062 181.511719 L 128.316406 180.875 C 128.140625 180.464844 127.917969 180.082031 127.648438 179.730469 C 126.800781 178.648438 125.671875 177.996094 124.261719 177.769531 C 124.027344 177.746094 123.796875 177.734375 123.570312 177.734375 Z M 103.042969 188.046875 C 102.050781 188.070312 101.226562 188.390625 100.566406 189.003906 C 99.90625 189.617188 99.566406 190.386719 99.539062 191.3125 C 99.542969 191.613281 99.582031 191.90625 99.664062 192.179688 L 99.816406 192.585938 C 99.933594 192.847656 100.085938 193.085938 100.269531 193.308594 C 100.84375 193.996094 101.609375 194.40625 102.566406 194.550781 C 102.726562 194.566406 102.882812 194.574219 103.035156 194.574219 C 103.84375 194.574219 104.558594 194.347656 105.183594 193.898438 C 105.917969 193.363281 106.359375 192.648438 106.511719 191.757812 L 106.542969 191.3125 C 106.519531 190.386719 106.175781 189.617188 105.519531 189.003906 C 104.859375 188.390625 104.035156 188.070312 103.042969 188.046875 Z M 87.179688 196.246094 C 85.761719 196.246094 84.511719 196.640625 83.421875 197.425781 C 82.132812 198.363281 81.359375 199.613281 81.09375 201.175781 C 80.902344 202.8125 81.3125 204.234375 82.3125 205.441406 C 83.320312 206.644531 84.660156 207.367188 86.335938 207.613281 C 86.613281 207.640625 86.886719 207.65625 87.152344 207.65625 C 88.570312 207.65625 89.820312 207.261719 90.910156 206.476562 C 92.195312 205.539062 92.972656 204.289062 93.238281 202.726562 L 93.292969 201.949219 C 93.292969 201.421875 93.21875 200.917969 93.074219 200.429688 L 92.8125 199.726562 C 92.605469 199.269531 92.339844 198.847656 92.015625 198.457031 C 91.011719 197.257812 89.671875 196.535156 87.996094 196.289062 C 87.71875 196.261719 87.445312 196.246094 87.179688 196.246094 Z M 75.585938 206.546875 C 74.382812 206.566406 73.378906 206.832031 72.582031 207.335938 C 71.78125 207.84375 71.367188 208.476562 71.335938 209.238281 C 71.339844 209.488281 71.390625 209.726562 71.488281 209.957031 L 71.671875 210.289062 C 71.816406 210.503906 72 210.703125 72.222656 210.882812 C 72.917969 211.449219 73.847656 211.789062 75.007812 211.90625 C 75.199219 211.917969 75.390625 211.925781 75.574219 211.925781 C 76.554688 211.925781 77.425781 211.742188 78.179688 211.371094 C 79.070312 210.929688 79.609375 210.339844 79.792969 209.605469 L 79.832031 209.238281 C 79.800781 208.476562 79.386719 207.84375 78.585938 207.335938 C 77.789062 206.832031 76.789062 206.566406 75.585938 206.546875 Z M 105.464844 215.621094 C 104.191406 215.621094 103.0625 215.875 102.082031 216.378906 C 100.921875 216.984375 100.222656 217.789062 99.984375 218.796875 C 99.8125 219.851562 100.179688 220.769531 101.085938 221.546875 C 101.988281 222.320312 103.195312 222.785156 104.707031 222.945312 C 104.957031 222.964844 105.203125 222.972656 105.445312 222.972656 C 106.71875 222.972656 107.847656 222.71875 108.828125 222.210938 C 109.988281 221.609375 110.6875 220.800781 110.925781 219.796875 L 110.976562 219.296875 C 110.976562 218.957031 110.910156 218.628906 110.777344 218.316406 L 110.542969 217.863281 C 110.355469 217.566406 110.117188 217.296875 109.824219 217.046875 C 108.921875 216.273438 107.714844 215.804688 106.203125 215.648438 C 105.953125 215.628906 105.707031 215.621094 105.464844 215.621094 Z M 105.464844 215.621094 " fill-opacity="0.996" fill-rule="nonzero"/></svg>