<?xml version="1.0" encoding="iso-8859-1"?>
<!-- Uploaded to: SVG Repo, www.svgrepo.com, Generator: SVG Repo Mixer Tools -->
<svg height="800px" width="800px" version="1.1" id="Layer_1" xmlns="http://www.w3.org/2000/svg" xmlns:xlink="http://www.w3.org/1999/xlink" 
	 viewBox="0 0 512.001 512.001" xml:space="preserve">
<g>
	<g>
		<polygon style="fill:#FFD41D;" points="245.538,429.868 284.722,452.491 245.538,475.113 		"/>
		<polygon style="fill:#FFD41D;" points="323.906,475.113 284.722,452.491 323.906,429.868 		"/>
	</g>
	<g>
		<polygon style="fill:#10BAFC;" points="343.728,356.964 382.911,379.586 343.728,402.209 		"/>
		<polygon style="fill:#10BAFC;" points="422.095,402.209 382.911,379.586 422.095,356.964 		"/>
	</g>
</g>
<polygon style="fill:#F3437F;" points="186.464,10.449 30.769,167.421 186.464,167.421 "/>
<polygon style="fill:#1EB615;" points="186.464,442.674 342.158,167.421 186.464,167.421 "/>
<polygon style="fill:#FFD41D;" points="30.769,167.421 186.464,442.674 186.464,167.421 "/>
<polygon style="fill:#10BAFC;" points="186.464,167.421 342.158,167.421 186.464,10.449 "/>
<path d="M481.23,441.92c-5.77,0-10.449,4.679-10.449,10.449c0,21.327-17.352,38.679-38.68,38.679
	c-21.326,0-38.678-17.351-38.678-38.679v-54.647l23.446,13.537c6.855,3.959,15.673-1.173,15.673-9.049v-45.245
	c0-3.732-1.992-7.183-5.224-9.049c-3.233-1.867-7.216-1.867-10.449,0l-25.858,14.928c-7.253-24.723-30.128-42.836-57.166-42.836
	c-32.849,0-59.576,26.725-59.576,59.576v54.808l-23.508-13.572c-3.233-1.867-7.216-1.867-10.449,0
	c-3.233,1.866-5.224,5.316-5.224,9.049v45.245c0,7.875,8.819,13.009,15.673,9.049l16.44-9.492
	c-7.007,9.929-18.559,16.431-31.608,16.431c-21.327,0-38.68-17.352-38.68-38.68v-6.998l154.34-272.86
	c2.304-4.072,1.62-9.179-1.677-12.502L193.883,3.091C191.922,1.113,189.25,0,186.464,0c-2.786,0-5.456,1.113-7.419,3.091
	L23.35,160.063c-3.296,3.323-3.981,8.429-1.676,12.503l154.342,272.86v6.997c0,32.852,26.726,59.578,59.578,59.578
	c27.028,0,49.895-18.099,57.157-42.808l25.931,14.971c6.855,3.959,15.673-1.173,15.673-9.049V429.87
	c0-3.732-1.992-7.183-5.224-9.049c-3.233-1.867-7.216-1.867-10.449,0l-23.512,13.574v-54.81c0-21.326,17.351-38.678,38.678-38.678
	c13.13,0,24.746,6.582,31.741,16.613l-16.635-9.604c-3.233-1.867-7.216-1.867-10.449,0c-3.233,1.866-5.224,5.316-5.224,9.049v45.245
	c0,7.876,8.819,13.009,15.673,9.049l23.574-13.61v54.72c0,32.851,26.725,59.577,59.576,59.577s59.578-26.725,59.578-59.577
	C491.679,446.598,487,441.92,481.23,441.92z M152.415,156.972H55.849L176.26,35.576v97.66c0,5.771,4.679,10.449,10.449,10.449
	c5.771,0,10.449-4.678,10.449-10.449V36.068l119.92,120.904h-96.563c-5.771,0-10.449,4.679-10.449,10.449
	s4.678,10.449,10.449,10.449h103.73L197.159,402.545V201.333c0-5.77-4.679-10.449-10.449-10.449
	c-5.771,0-10.449,4.679-10.449,10.449v202.079L48.684,177.87h103.731c5.77,0,10.449-4.678,10.449-10.449
	C162.864,161.651,158.186,156.972,152.415,156.972z M255.987,457.015v-9.049l7.837,4.524L255.987,457.015z M313.457,447.967v9.049
	l-7.837-4.524L313.457,447.967z M411.646,375.062v9.049l-7.837-4.524L411.646,375.062z M354.176,384.111v-9.049l7.837,4.524
	L354.176,384.111z"/>
<path d="M186.176,177.87l0.245,0.001c0.016,0,0.029,0,0.045,0c0.007,0,0.014-0.001,0.02-0.001h0.224
	c5.77,0,10.449-4.679,10.449-10.449s-4.679-10.449-10.449-10.449h-0.245c-0.005,0-0.01,0.001-0.016,0.001l-0.186-0.001
	c-0.016,0-0.029,0-0.045,0c-5.75,0-10.424,4.65-10.448,10.405C175.748,173.148,180.406,177.845,186.176,177.87z"/>
</svg>