<svg xmlns="http://www.w3.org/2000/svg" xmlns:xlink="http://www.w3.org/1999/xlink" width="500" zoomAndPan="magnify" viewBox="0 0 375 374.999991" height="500" preserveAspectRatio="xMidYMid meet" version="1.0"><defs><g/></defs><path stroke-linecap="butt" transform="matrix(0.75, 0, 0, 0.75, -36.607793, 3.872669)" fill="none" stroke-linejoin="miter" d="M 208.065613 185.87812 C 228.362489 185.87812 247.008324 194.909371 264.013533 212.971872 C 281.013535 230.977082 289.518743 251.909375 289.518743 275.768751 C 289.518743 299.633336 281.070826 320.534379 264.1802 338.487505 C 247.284366 356.38334 229.138531 365.331257 209.737488 365.331257 C 190.341654 365.331257 176.513528 359.841673 168.263527 348.857298 C 166.477069 360.060423 156.669776 365.66459 138.826025 365.66459 C 124.445816 365.66459 115.664565 362.57084 112.487482 356.38334 C 110.86769 352.982298 109.893732 349.971881 109.560398 347.352089 C 109.227065 344.732297 109.060398 340.773964 109.060398 335.477088 L 109.060398 131.018742 C 109.060398 125.779158 109.227065 121.846866 109.560398 119.227074 C 109.893732 116.607282 110.86769 113.680199 112.487482 110.445824 C 115.664565 104.315615 124.555191 101.247906 139.164567 101.247906 C 153.544776 101.247906 162.242693 104.315615 165.25311 110.445824 C 167.03436 113.904157 168.09686 116.940616 168.430194 119.560408 C 168.820819 122.185408 169.013527 126.112491 169.013527 131.352075 L 169.013527 202.60208 C 178.102069 191.451037 191.117695 185.87812 208.065613 185.87812 Z M 178.044778 296.508336 C 183.674987 302.643753 190.701029 305.706253 199.117696 305.706253 C 207.591655 305.706253 214.784364 302.643753 220.695822 296.508336 C 226.659364 290.320835 229.64374 283.46146 229.64374 275.935418 C 229.64374 268.409376 226.883323 261.497917 221.362489 255.201041 C 215.898947 248.898958 208.596863 245.747916 199.456238 245.747916 C 190.310404 245.747916 183.065611 248.956249 177.711444 255.367708 C 172.362486 261.779167 169.685402 268.690626 169.685402 276.107293 C 169.685402 283.518752 172.471861 290.320835 178.044778 296.508336 Z M 428.987503 204.690622 C 430.320836 191.867704 439.326045 185.456245 455.997921 185.456245 C 464.914588 185.456245 471.550005 186.154162 475.898964 187.549995 C 480.247923 188.94062 483.25834 191.341662 484.930215 194.737496 C 486.659381 198.138538 487.690631 201.180205 488.023965 203.857288 C 488.357298 206.47708 488.523965 210.404164 488.523965 215.643747 L 488.523965 335.477088 C 488.523965 340.773964 488.357298 344.732297 488.023965 347.352089 C 487.690631 349.971881 486.711465 352.982298 485.096881 356.38334 C 481.919798 362.346882 474.112506 365.331257 461.680213 365.331257 C 449.247921 365.331257 440.914587 363.800007 436.680211 360.732298 C 432.440628 357.607298 429.987503 353.091673 429.320836 347.185423 C 420.846877 359.284382 406.742709 365.331257 387.008333 365.331257 C 367.273957 365.331257 348.930206 356.326048 331.982288 338.320839 C 315.091662 320.258337 306.643745 299.294794 306.643745 275.435418 C 306.643745 251.576041 315.148953 230.695832 332.148955 212.799997 C 349.211456 194.852079 367.883332 185.87812 388.175 185.87812 C 395.982292 185.87812 403.060418 187.242704 409.419793 189.971871 C 415.826043 192.706246 420.289585 195.268746 422.794794 197.664579 C 425.305211 200.065621 427.367711 202.404163 428.987503 204.690622 Z M 366.602082 275.935418 C 366.602082 283.46146 369.555207 290.263544 375.466666 296.341669 C 381.430208 302.362503 388.622917 305.37292 397.039584 305.37292 C 405.513543 305.37292 412.539585 302.305211 418.112502 296.175003 C 423.742711 289.987502 426.560419 283.185418 426.560419 275.768751 C 426.560419 268.357292 423.857294 261.445834 418.451044 255.034375 C 413.096877 248.622916 405.904168 245.414583 396.872917 245.414583 C 387.898958 245.414583 380.596874 248.622916 374.966666 255.034375 C 369.38854 261.445834 366.602082 268.409376 366.602082 275.935418 Z M 366.602082 275.935418 " stroke="#436100" stroke-width="12.844538" stroke-opacity="1" stroke-miterlimit="4"/><g fill="#91c123" fill-opacity="1"><g transform="translate(34.900014, 278.372651)"><g><path d="M 84.515625 -135.125 C 99.753906 -135.125 113.753906 -128.359375 126.515625 -114.828125 C 139.273438 -101.296875 145.65625 -85.582031 145.65625 -67.6875 C 145.65625 -49.789062 139.316406 -34.117188 126.640625 -20.671875 C 113.972656 -7.234375 100.359375 -0.515625 85.796875 -0.515625 C 71.242188 -0.515625 60.882812 -4.625 54.71875 -12.84375 C 53.34375 -4.445312 45.976562 -0.25 32.625 -0.25 C 21.832031 -0.25 15.238281 -2.5625 12.84375 -7.1875 C 11.644531 -9.757812 10.914062 -12.03125 10.65625 -14 C 10.40625 -15.96875 10.28125 -18.921875 10.28125 -22.859375 L 10.28125 -176.234375 C 10.28125 -180.171875 10.40625 -183.125 10.65625 -185.09375 C 10.914062 -187.0625 11.644531 -189.242188 12.84375 -191.640625 C 15.238281 -196.265625 21.914062 -198.578125 32.875 -198.578125 C 43.664062 -198.578125 50.175781 -196.265625 52.40625 -191.640625 C 53.769531 -189.066406 54.582031 -186.796875 54.84375 -184.828125 C 55.101562 -182.859375 55.234375 -179.90625 55.234375 -175.96875 L 55.234375 -122.53125 C 62.078125 -130.925781 71.835938 -135.125 84.515625 -135.125 Z M 62.03125 -52.140625 C 66.226562 -47.523438 71.492188 -45.21875 77.828125 -45.21875 C 84.171875 -45.21875 89.566406 -47.523438 94.015625 -52.140625 C 98.472656 -56.765625 100.703125 -61.90625 100.703125 -67.5625 C 100.703125 -73.21875 98.644531 -78.398438 94.53125 -83.109375 C 90.425781 -87.816406 84.945312 -90.171875 78.09375 -90.171875 C 71.238281 -90.171875 65.800781 -87.769531 61.78125 -82.96875 C 57.757812 -78.175781 55.75 -72.992188 55.75 -67.421875 C 55.75 -61.859375 57.84375 -56.765625 62.03125 -52.140625 Z M 62.03125 -52.140625 "/></g></g></g><g fill="#91c123" fill-opacity="1"><g transform="translate(186.978637, 278.372651)"><g><path d="M 98.125 -121 C 99.15625 -130.582031 105.921875 -135.375 118.421875 -135.375 C 125.097656 -135.375 130.0625 -134.859375 133.3125 -133.828125 C 136.570312 -132.804688 138.84375 -131.007812 140.125 -128.4375 C 141.414062 -125.875 142.1875 -123.609375 142.4375 -121.640625 C 142.695312 -119.671875 142.828125 -116.71875 142.828125 -112.78125 L 142.828125 -22.859375 C 142.828125 -18.921875 142.695312 -15.96875 142.4375 -14 C 142.1875 -12.03125 141.460938 -9.757812 140.265625 -7.1875 C 137.867188 -2.738281 132.003906 -0.515625 122.671875 -0.515625 C 113.335938 -0.515625 107.082031 -1.671875 103.90625 -3.984375 C 100.738281 -6.296875 98.898438 -9.675781 98.390625 -14.125 C 92.054688 -5.050781 81.476562 -0.515625 66.65625 -0.515625 C 51.84375 -0.515625 38.097656 -7.28125 25.421875 -20.8125 C 12.753906 -34.34375 6.421875 -50.054688 6.421875 -67.953125 C 6.421875 -85.847656 12.800781 -101.515625 25.5625 -114.953125 C 38.320312 -128.398438 52.320312 -135.125 67.5625 -135.125 C 73.382812 -135.125 78.691406 -134.09375 83.484375 -132.03125 C 88.285156 -129.976562 91.625 -128.050781 93.5 -126.25 C 95.382812 -124.457031 96.925781 -122.707031 98.125 -121 Z M 51.375 -67.5625 C 51.375 -61.90625 53.597656 -56.804688 58.046875 -52.265625 C 62.503906 -47.734375 67.898438 -45.46875 74.234375 -45.46875 C 80.578125 -45.46875 85.84375 -47.78125 90.03125 -52.40625 C 94.226562 -57.03125 96.328125 -62.125 96.328125 -67.6875 C 96.328125 -73.257812 94.316406 -78.441406 90.296875 -83.234375 C 86.273438 -88.023438 80.878906 -90.421875 74.109375 -90.421875 C 67.347656 -90.421875 61.867188 -88.023438 57.671875 -83.234375 C 53.472656 -78.441406 51.375 -73.21875 51.375 -67.5625 Z M 51.375 -67.5625 "/></g></g></g></svg>