<svg xmlns="http://www.w3.org/2000/svg" xmlns:xlink="http://www.w3.org/1999/xlink" width="500" zoomAndPan="magnify" viewBox="0 0 375 374.999991" height="500" preserveAspectRatio="xMidYMid meet" version="1.0"><defs><g/></defs><path stroke-linecap="butt" transform="matrix(0.75, 0, 0, 0.75, -36.607793, 3.872695)" fill="none" stroke-linejoin="miter" d="M 212.003113 185.878085 C 232.29999 185.878085 250.945824 194.909336 267.951034 212.971837 C 284.951035 230.977047 293.456244 251.90934 293.456244 275.768716 C 293.456244 299.633301 285.008326 320.534344 268.1177 338.48747 C 251.221866 356.383305 233.076031 365.331222 213.674988 365.331222 C 194.279154 365.331222 180.451028 359.841639 172.201027 348.857263 C 170.414569 360.060389 160.607277 365.664556 142.763525 365.664556 C 128.383316 365.664556 119.602066 362.570805 116.424982 356.383305 C 114.80519 352.982263 113.831232 349.971846 113.497899 347.352054 C 113.164565 344.732263 112.997899 340.773929 112.997899 335.477054 L 112.997899 131.018707 C 112.997899 125.779123 113.164565 121.846831 113.497899 119.227039 C 113.831232 116.607248 114.80519 113.680164 116.424982 110.445789 C 119.602066 104.31558 128.492691 101.247872 143.102067 101.247872 C 157.482276 101.247872 166.180194 104.31558 169.190611 110.445789 C 170.971861 113.904122 172.034361 116.940581 172.367694 119.560373 C 172.758319 122.185373 172.951027 126.112457 172.951027 131.35204 L 172.951027 202.602045 C 182.03957 191.451002 195.055196 185.878085 212.003113 185.878085 Z M 181.982278 296.508301 C 187.612487 302.643718 194.638529 305.706218 203.055196 305.706218 C 211.529155 305.706218 218.721864 302.643718 224.633323 296.508301 C 230.596865 290.320801 233.58124 283.466634 233.58124 275.940591 C 233.58124 268.409341 230.820823 261.497882 225.299989 255.201007 C 219.836447 248.898923 212.534363 245.747881 203.393738 245.747881 C 194.247904 245.747881 187.003112 248.956215 181.648945 255.367673 C 176.299986 261.779132 173.622903 268.690591 173.622903 276.107258 C 173.622903 283.518717 176.409361 290.320801 181.982278 296.508301 Z M 489.784382 254.195798 C 489.784382 268.242674 486.300006 278.643717 479.331256 285.388509 C 472.362505 292.076009 464.643755 295.419759 456.169796 295.419759 L 374.971874 295.419759 C 374.971874 301.831218 378.737499 307.211427 386.263541 311.560385 C 393.841667 315.909344 401.398959 318.086427 408.925001 318.086427 C 422.190627 318.086427 432.586461 316.690594 440.112503 313.904136 L 443.878129 312.565594 C 449.341671 310.055177 453.914588 308.799969 457.591671 308.799969 C 464.893755 308.799969 471.164589 313.930177 476.409381 324.190595 C 479.362506 330.378095 480.836464 335.64372 480.836464 339.992679 C 480.836464 360.284347 456.534379 370.430181 407.919793 370.430181 C 391.029167 370.430181 376.003124 367.534347 362.846873 361.737472 C 349.747914 355.883305 339.513538 348.159346 332.159371 338.570804 C 317.773954 320.117678 310.581245 299.461426 310.581245 276.607258 C 310.581245 247.841631 319.893745 224.846838 338.513538 207.61767 C 357.133331 190.336419 380.378124 181.695794 408.253126 181.695794 C 439.977087 181.695794 463.247922 192.898919 478.081256 215.310379 C 485.88334 227.18538 489.784382 240.148922 489.784382 254.195798 Z M 417.451044 264.232257 C 426.148961 264.232257 430.497919 260.581215 430.497919 253.273923 C 430.497919 248.03434 428.492711 243.826006 424.477086 240.648922 C 420.518752 237.471839 414.80521 235.883297 407.33646 235.883297 C 399.919792 235.883297 392.560417 238.919756 385.258333 244.997881 C 377.956249 251.018715 374.305207 257.430173 374.305207 264.232257 Z M 417.451044 264.232257 " stroke="#436100" stroke-width="12.844538" stroke-opacity="1" stroke-miterlimit="4"/><g fill="#91c123" fill-opacity="1"><g transform="translate(37.853139, 278.372677)"><g><path d="M 84.515625 -135.125 C 99.753906 -135.125 113.753906 -128.359375 126.515625 -114.828125 C 139.273438 -101.296875 145.65625 -85.582031 145.65625 -67.6875 C 145.65625 -49.789062 139.316406 -34.117188 126.640625 -20.671875 C 113.972656 -7.234375 100.359375 -0.515625 85.796875 -0.515625 C 71.242188 -0.515625 60.882812 -4.625 54.71875 -12.84375 C 53.34375 -4.445312 45.976562 -0.25 32.625 -0.25 C 21.832031 -0.25 15.238281 -2.5625 12.84375 -7.1875 C 11.644531 -9.757812 10.914062 -12.03125 10.65625 -14 C 10.40625 -15.96875 10.28125 -18.921875 10.28125 -22.859375 L 10.28125 -176.234375 C 10.28125 -180.171875 10.40625 -183.125 10.65625 -185.09375 C 10.914062 -187.0625 11.644531 -189.242188 12.84375 -191.640625 C 15.238281 -196.265625 21.914062 -198.578125 32.875 -198.578125 C 43.664062 -198.578125 50.175781 -196.265625 52.40625 -191.640625 C 53.769531 -189.066406 54.582031 -186.796875 54.84375 -184.828125 C 55.101562 -182.859375 55.234375 -179.90625 55.234375 -175.96875 L 55.234375 -122.53125 C 62.078125 -130.925781 71.835938 -135.125 84.515625 -135.125 Z M 62.03125 -52.140625 C 66.226562 -47.523438 71.492188 -45.21875 77.828125 -45.21875 C 84.171875 -45.21875 89.566406 -47.523438 94.015625 -52.140625 C 98.472656 -56.765625 100.703125 -61.90625 100.703125 -67.5625 C 100.703125 -73.21875 98.644531 -78.398438 94.53125 -83.109375 C 90.425781 -87.816406 84.945312 -90.171875 78.09375 -90.171875 C 71.238281 -90.171875 65.800781 -87.769531 61.78125 -82.96875 C 57.757812 -78.175781 55.75 -72.992188 55.75 -67.421875 C 55.75 -61.859375 57.84375 -56.765625 62.03125 -52.140625 Z M 62.03125 -52.140625 "/></g></g></g><g fill="#91c123" fill-opacity="1"><g transform="translate(189.931762, 278.372677)"><g><path d="M 140.78125 -83.875 C 140.78125 -73.34375 138.164062 -65.550781 132.9375 -60.5 C 127.71875 -55.445312 121.9375 -52.921875 115.59375 -52.921875 L 54.71875 -52.921875 C 54.71875 -48.117188 57.539062 -44.09375 63.1875 -40.84375 C 68.84375 -37.59375 74.5 -35.96875 80.15625 -35.96875 C 90.082031 -35.96875 97.875 -36.992188 103.53125 -39.046875 L 106.359375 -40.078125 C 110.460938 -41.960938 113.882812 -42.90625 116.625 -42.90625 C 122.101562 -42.90625 126.8125 -39.050781 130.75 -31.34375 C 132.976562 -26.71875 134.09375 -22.78125 134.09375 -19.53125 C 134.09375 -4.28125 115.851562 3.34375 79.375 3.34375 C 66.707031 3.34375 55.445312 1.160156 45.59375 -3.203125 C 35.75 -7.578125 28.085938 -13.359375 22.609375 -20.546875 C 11.816406 -34.421875 6.421875 -49.921875 6.421875 -67.046875 C 6.421875 -88.628906 13.398438 -105.882812 27.359375 -118.8125 C 41.316406 -131.738281 58.742188 -138.203125 79.640625 -138.203125 C 103.441406 -138.203125 120.910156 -129.8125 132.046875 -113.03125 C 137.867188 -104.125 140.78125 -94.40625 140.78125 -83.875 Z M 86.578125 -76.296875 C 93.078125 -76.296875 96.328125 -79.035156 96.328125 -84.515625 C 96.328125 -88.453125 94.828125 -91.617188 91.828125 -94.015625 C 88.835938 -96.421875 84.554688 -97.625 78.984375 -97.625 C 73.421875 -97.625 67.898438 -95.351562 62.421875 -90.8125 C 56.941406 -86.269531 54.203125 -81.429688 54.203125 -76.296875 Z M 86.578125 -76.296875 "/></g></g></g></svg>