<svg xmlns="http://www.w3.org/2000/svg" xmlns:xlink="http://www.w3.org/1999/xlink" width="500" zoomAndPan="magnify" viewBox="0 0 375 374.999991" height="500" preserveAspectRatio="xMidYMid meet" version="1.0"><defs><g/></defs><path stroke-linecap="butt" transform="matrix(0.75, 0, 0, 0.75, -36.607793, 3.872695)" fill="none" stroke-linejoin="miter" d="M 266.456242 185.878085 C 286.753118 185.878085 305.398953 194.909336 322.404162 212.971837 C 339.404163 230.977047 347.909372 251.90934 347.909372 275.768716 C 347.909372 299.633301 339.461455 320.534344 322.570829 338.48747 C 305.674995 356.383305 287.52916 365.331222 268.128117 365.331222 C 248.732282 365.331222 234.904157 359.841639 226.654156 348.857263 C 224.867698 360.060389 215.060405 365.664556 197.216654 365.664556 C 182.836445 365.664556 174.055194 362.570805 170.878111 356.383305 C 169.258319 352.982263 168.28436 349.971846 167.951027 347.352054 C 167.617694 344.732263 167.451027 340.773929 167.451027 335.477054 L 167.451027 131.018707 C 167.451027 125.779123 167.617694 121.846831 167.951027 119.227039 C 168.28436 116.607248 169.258319 113.680164 170.878111 110.445789 C 174.055194 104.31558 182.94582 101.247872 197.555196 101.247872 C 211.935405 101.247872 220.633322 104.31558 223.643739 110.445789 C 225.424989 113.904122 226.487489 116.940581 226.820823 119.560373 C 227.211448 122.185373 227.404156 126.112457 227.404156 131.35204 L 227.404156 202.602045 C 236.492698 191.451002 249.508324 185.878085 266.456242 185.878085 Z M 236.435407 296.508301 C 242.065615 302.643718 249.091657 305.706218 257.508325 305.706218 C 265.982284 305.706218 273.174992 302.643718 279.086451 296.508301 C 285.049993 290.320801 288.034368 283.466634 288.034368 275.940591 C 288.034368 268.409341 285.273952 261.497882 279.753118 255.201007 C 274.289576 248.898923 266.987492 245.747881 257.846866 245.747881 C 248.701032 245.747881 241.45624 248.956215 236.102073 255.367673 C 230.753115 261.779132 228.076031 268.690591 228.076031 276.107258 C 228.076031 283.518717 230.86249 290.320801 236.435407 296.508301 Z M 370.221874 215.643712 C 370.221874 210.404129 370.38854 206.477045 370.721874 203.857253 C 371.055207 201.18017 372.034374 198.138503 373.648957 194.737461 C 376.826041 188.831211 385.716666 185.878085 400.326042 185.878085 C 411.30521 185.878085 419.081252 187.799961 423.654169 191.643711 C 427.503128 194.826003 429.565628 199.727045 429.841669 206.362462 C 430.065628 208.64892 430.180211 211.966629 430.180211 216.315587 L 430.180211 336.232262 C 430.180211 341.471846 429.982294 345.398929 429.591669 348.018721 C 429.258336 350.643721 428.201044 353.68018 426.414586 357.138513 C 423.404169 363.044764 414.596877 365.997889 399.987501 365.997889 C 385.607291 365.997889 376.826041 362.904139 373.648957 356.716638 C 372.034374 353.315596 371.055207 350.362471 370.721874 347.852054 C 370.38854 345.346846 370.221874 341.357262 370.221874 335.89372 Z M 426.497919 152.091625 C 424.826044 155.383292 421.815627 157.721834 417.466669 159.117667 C 413.11771 160.508292 407.346876 161.206209 400.159376 161.206209 C 392.966667 161.206209 387.195833 160.508292 382.846875 159.117667 C 378.555208 157.721834 375.544791 155.326 373.815624 151.924958 C 372.086457 148.523916 371.055207 145.513499 370.721874 142.893708 C 370.38854 140.216624 370.221874 136.258291 370.221874 131.018707 C 370.221874 125.779123 370.38854 121.846831 370.721874 119.227039 C 371.055207 116.607248 372.034374 113.680164 373.648957 110.445789 C 376.826041 104.31558 385.716666 101.247872 400.326042 101.247872 C 414.706252 101.247872 423.404169 104.31558 426.414586 110.445789 C 428.201044 113.904122 429.258336 116.940581 429.591669 119.560373 C 429.982294 122.185373 430.180211 126.112457 430.180211 131.35204 C 430.180211 136.591624 429.982294 140.549957 429.591669 143.227041 C 429.258336 145.846833 428.227086 148.805166 426.497919 152.091625 Z M 426.497919 152.091625 " stroke="#436100" stroke-width="12.844538" stroke-opacity="1" stroke-miterlimit="4"/><g fill="#91c123" fill-opacity="1"><g transform="translate(78.69298, 278.372677)"><g><path d="M 84.515625 -135.125 C 99.753906 -135.125 113.753906 -128.359375 126.515625 -114.828125 C 139.273438 -101.296875 145.65625 -85.582031 145.65625 -67.6875 C 145.65625 -49.789062 139.316406 -34.117188 126.640625 -20.671875 C 113.972656 -7.234375 100.359375 -0.515625 85.796875 -0.515625 C 71.242188 -0.515625 60.882812 -4.625 54.71875 -12.84375 C 53.34375 -4.445312 45.976562 -0.25 32.625 -0.25 C 21.832031 -0.25 15.238281 -2.5625 12.84375 -7.1875 C 11.644531 -9.757812 10.914062 -12.03125 10.65625 -14 C 10.40625 -15.96875 10.28125 -18.921875 10.28125 -22.859375 L 10.28125 -176.234375 C 10.28125 -180.171875 10.40625 -183.125 10.65625 -185.09375 C 10.914062 -187.0625 11.644531 -189.242188 12.84375 -191.640625 C 15.238281 -196.265625 21.914062 -198.578125 32.875 -198.578125 C 43.664062 -198.578125 50.175781 -196.265625 52.40625 -191.640625 C 53.769531 -189.066406 54.582031 -186.796875 54.84375 -184.828125 C 55.101562 -182.859375 55.234375 -179.90625 55.234375 -175.96875 L 55.234375 -122.53125 C 62.078125 -130.925781 71.835938 -135.125 84.515625 -135.125 Z M 62.03125 -52.140625 C 66.226562 -47.523438 71.492188 -45.21875 77.828125 -45.21875 C 84.171875 -45.21875 89.566406 -47.523438 94.015625 -52.140625 C 98.472656 -56.765625 100.703125 -61.90625 100.703125 -67.5625 C 100.703125 -73.21875 98.644531 -78.398438 94.53125 -83.109375 C 90.425781 -87.816406 84.945312 -90.171875 78.09375 -90.171875 C 71.238281 -90.171875 65.800781 -87.769531 61.78125 -82.96875 C 57.757812 -78.175781 55.75 -72.992188 55.75 -67.421875 C 55.75 -61.859375 57.84375 -56.765625 62.03125 -52.140625 Z M 62.03125 -52.140625 "/></g></g></g><g fill="#91c123" fill-opacity="1"><g transform="translate(230.771603, 278.372677)"><g><path d="M 10.28125 -112.78125 C 10.28125 -116.71875 10.40625 -119.671875 10.65625 -121.640625 C 10.914062 -123.609375 11.644531 -125.875 12.84375 -128.4375 C 15.238281 -132.894531 21.914062 -135.125 32.875 -135.125 C 41.101562 -135.125 46.925781 -133.664062 50.34375 -130.75 C 53.257812 -128.351562 54.800781 -124.675781 54.96875 -119.71875 C 55.144531 -118 55.234375 -115.515625 55.234375 -112.265625 L 55.234375 -22.34375 C 55.234375 -18.40625 55.101562 -15.453125 54.84375 -13.484375 C 54.582031 -11.515625 53.769531 -9.242188 52.40625 -6.671875 C 50.175781 -2.222656 43.582031 0 32.625 0 C 21.832031 0 15.238281 -2.3125 12.84375 -6.9375 C 11.644531 -9.507812 10.914062 -11.734375 10.65625 -13.609375 C 10.40625 -15.492188 10.28125 -18.492188 10.28125 -22.609375 Z M 52.53125 -160.421875 C 51.25 -157.941406 48.976562 -156.1875 45.71875 -155.15625 C 42.46875 -154.132812 38.144531 -153.625 32.75 -153.625 C 27.351562 -153.625 23.03125 -154.132812 19.78125 -155.15625 C 16.53125 -156.1875 14.257812 -157.984375 12.96875 -160.546875 C 11.6875 -163.117188 10.914062 -165.390625 10.65625 -167.359375 C 10.40625 -169.328125 10.28125 -172.28125 10.28125 -176.21875 C 10.28125 -180.164062 10.40625 -183.125 10.65625 -185.09375 C 10.914062 -187.0625 11.644531 -189.242188 12.84375 -191.640625 C 15.238281 -196.265625 21.914062 -198.578125 32.875 -198.578125 C 43.664062 -198.578125 50.175781 -196.265625 52.40625 -191.640625 C 53.769531 -189.066406 54.582031 -186.796875 54.84375 -184.828125 C 55.101562 -182.859375 55.234375 -179.90625 55.234375 -175.96875 C 55.234375 -172.03125 55.101562 -169.078125 54.84375 -167.109375 C 54.582031 -165.140625 53.8125 -162.910156 52.53125 -160.421875 Z M 52.53125 -160.421875 "/></g></g></g></svg>