<svg xmlns="http://www.w3.org/2000/svg" xmlns:xlink="http://www.w3.org/1999/xlink" width="500" zoomAndPan="magnify" viewBox="0 0 375 374.999991" height="500" preserveAspectRatio="xMidYMid meet" version="1.0"><defs><g/></defs><path stroke-linecap="butt" transform="matrix(0.75, 0, 0, 0.75, -36.607793, 3.872695)" fill="none" stroke-linejoin="miter" d="M 207.378113 185.878085 C 227.674989 185.878085 246.320824 194.909336 263.326033 212.971837 C 280.326035 230.977047 288.831243 251.90934 288.831243 275.768716 C 288.831243 299.633301 280.383326 320.534344 263.4927 338.48747 C 246.596866 356.383305 228.451031 365.331222 209.049988 365.331222 C 189.654154 365.331222 175.826028 359.841639 167.576027 348.857263 C 165.789569 360.060389 155.982276 365.664556 138.138525 365.664556 C 123.758316 365.664556 114.977065 362.570805 111.799982 356.383305 C 110.18019 352.982263 109.206232 349.971846 108.872898 347.352054 C 108.539565 344.732263 108.372898 340.773929 108.372898 335.477054 L 108.372898 131.018707 C 108.372898 125.779123 108.539565 121.846831 108.872898 119.227039 C 109.206232 116.607248 110.18019 113.680164 111.799982 110.445789 C 114.977065 104.31558 123.867691 101.247872 138.477067 101.247872 C 152.857276 101.247872 161.555193 104.31558 164.56561 110.445789 C 166.34686 113.904122 167.40936 116.940581 167.742694 119.560373 C 168.133319 122.185373 168.326027 126.112457 168.326027 131.35204 L 168.326027 202.602045 C 177.414569 191.451002 190.430195 185.878085 207.378113 185.878085 Z M 177.357278 296.508301 C 182.987486 302.643718 190.013529 305.706218 198.430196 305.706218 C 206.904155 305.706218 214.096864 302.643718 220.008322 296.508301 C 225.971864 290.320801 228.956239 283.466634 228.956239 275.940591 C 228.956239 268.409341 226.195823 261.497882 220.674989 255.201007 C 215.211447 248.898923 207.909363 245.747881 198.768738 245.747881 C 189.622904 245.747881 182.378111 248.956215 177.023944 255.367673 C 171.674986 261.779132 168.997902 268.690591 168.997902 276.107258 C 168.997902 283.518717 171.784361 290.320801 177.357278 296.508301 Z M 305.956245 275.940591 C 305.956245 248.508298 315.544787 225.90413 334.721871 208.11767 C 353.956248 190.279127 375.893749 181.36246 400.534376 181.36246 C 425.175002 181.36246 446.971879 190.221836 465.930213 207.951004 C 484.88334 225.62288 494.362507 248.174965 494.362507 275.60205 C 494.362507 294.560384 489.456257 311.393719 479.643756 326.11247 C 469.831255 340.831221 457.898963 351.674971 443.852087 358.643722 C 429.805211 365.607264 415.227085 369.091639 400.117709 369.091639 C 385.065625 369.091639 370.456249 365.388514 356.299998 357.971847 C 342.19583 350.55518 330.263538 339.602054 320.508329 325.107261 C 310.805203 310.560385 305.956245 294.169759 305.956245 275.940591 Z M 377.539583 300.440593 C 384.898958 306.01351 392.341667 308.799969 399.867709 308.799969 C 407.393751 308.799969 414.919793 305.956218 422.445836 300.273926 C 429.971878 294.529134 433.732295 286.086425 433.732295 274.935383 C 433.732295 263.727049 430.195836 255.393715 423.112502 249.930173 C 416.034377 244.414548 408.36771 241.654131 400.117709 241.654131 C 391.919792 241.654131 384.284375 244.523923 377.206249 250.263506 C 370.122915 255.951007 366.586457 264.341632 366.586457 275.435383 C 366.586457 286.47705 370.237499 294.810384 377.539583 300.440593 Z M 377.539583 300.440593 " stroke="#436100" stroke-width="12.844538" stroke-opacity="1" stroke-miterlimit="4"/><g fill="#91c123" fill-opacity="1"><g transform="translate(34.38439, 278.372677)"><g><path d="M 84.515625 -135.125 C 99.753906 -135.125 113.753906 -128.359375 126.515625 -114.828125 C 139.273438 -101.296875 145.65625 -85.582031 145.65625 -67.6875 C 145.65625 -49.789062 139.316406 -34.117188 126.640625 -20.671875 C 113.972656 -7.234375 100.359375 -0.515625 85.796875 -0.515625 C 71.242188 -0.515625 60.882812 -4.625 54.71875 -12.84375 C 53.34375 -4.445312 45.976562 -0.25 32.625 -0.25 C 21.832031 -0.25 15.238281 -2.5625 12.84375 -7.1875 C 11.644531 -9.757812 10.914062 -12.03125 10.65625 -14 C 10.40625 -15.96875 10.28125 -18.921875 10.28125 -22.859375 L 10.28125 -176.234375 C 10.28125 -180.171875 10.40625 -183.125 10.65625 -185.09375 C 10.914062 -187.0625 11.644531 -189.242188 12.84375 -191.640625 C 15.238281 -196.265625 21.914062 -198.578125 32.875 -198.578125 C 43.664062 -198.578125 50.175781 -196.265625 52.40625 -191.640625 C 53.769531 -189.066406 54.582031 -186.796875 54.84375 -184.828125 C 55.101562 -182.859375 55.234375 -179.90625 55.234375 -175.96875 L 55.234375 -122.53125 C 62.078125 -130.925781 71.835938 -135.125 84.515625 -135.125 Z M 62.03125 -52.140625 C 66.226562 -47.523438 71.492188 -45.21875 77.828125 -45.21875 C 84.171875 -45.21875 89.566406 -47.523438 94.015625 -52.140625 C 98.472656 -56.765625 100.703125 -61.90625 100.703125 -67.5625 C 100.703125 -73.21875 98.644531 -78.398438 94.53125 -83.109375 C 90.425781 -87.816406 84.945312 -90.171875 78.09375 -90.171875 C 71.238281 -90.171875 65.800781 -87.769531 61.78125 -82.96875 C 57.757812 -78.175781 55.75 -72.992188 55.75 -67.421875 C 55.75 -61.859375 57.84375 -56.765625 62.03125 -52.140625 Z M 62.03125 -52.140625 "/></g></g></g><g fill="#91c123" fill-opacity="1"><g transform="translate(186.463012, 278.372677)"><g><path d="M 6.421875 -67.5625 C 6.421875 -88.113281 13.613281 -105.066406 28 -118.421875 C 42.382812 -131.785156 58.820312 -138.46875 77.3125 -138.46875 C 95.8125 -138.46875 112.171875 -131.828125 126.390625 -118.546875 C 140.609375 -105.273438 147.71875 -88.363281 147.71875 -67.8125 C 147.71875 -53.601562 144.035156 -40.972656 136.671875 -29.921875 C 129.304688 -18.878906 120.351562 -10.742188 109.8125 -5.515625 C 99.28125 -0.296875 88.363281 2.3125 77.0625 2.3125 C 65.757812 2.3125 54.800781 -0.46875 44.1875 -6.03125 C 33.570312 -11.601562 24.625 -19.828125 17.34375 -30.703125 C 10.0625 -41.578125 6.421875 -53.863281 6.421875 -67.5625 Z M 60.109375 -49.1875 C 65.585938 -45 71.148438 -42.90625 76.796875 -42.90625 C 82.453125 -42.90625 88.109375 -45.046875 93.765625 -49.328125 C 99.421875 -53.609375 102.25 -59.941406 102.25 -68.328125 C 102.25 -76.722656 99.59375 -82.972656 94.28125 -87.078125 C 88.96875 -91.191406 83.226562 -93.25 77.0625 -93.25 C 70.894531 -93.25 65.15625 -91.109375 59.84375 -86.828125 C 54.539062 -82.546875 51.890625 -76.25 51.890625 -67.9375 C 51.890625 -59.632812 54.628906 -53.382812 60.109375 -49.1875 Z M 60.109375 -49.1875 "/></g></g></g></svg>