<svg xmlns="http://www.w3.org/2000/svg" xmlns:xlink="http://www.w3.org/1999/xlink" width="500" zoomAndPan="magnify" viewBox="0 0 375 374.999991" height="500" preserveAspectRatio="xMidYMid meet" version="1.0"><defs><g/></defs><path stroke-linecap="butt" transform="matrix(0.75, 0, 0, 0.75, -36.607793, 3.872695)" fill="none" stroke-linejoin="miter" d="M 206.346863 185.878085 C 226.643739 185.878085 245.289574 194.909336 262.294783 212.971837 C 279.294784 230.977047 287.799993 251.90934 287.799993 275.768716 C 287.799993 299.633301 279.352076 320.534344 262.46145 338.48747 C 245.565616 356.383305 227.419781 365.331222 208.018738 365.331222 C 188.622904 365.331222 174.794778 359.841639 166.544777 348.857263 C 164.758319 360.060389 154.951026 365.664556 137.107275 365.664556 C 122.727066 365.664556 113.945815 362.570805 110.768732 356.383305 C 109.14894 352.982263 108.174982 349.971846 107.841648 347.352054 C 107.508315 344.732263 107.341648 340.773929 107.341648 335.477054 L 107.341648 131.018707 C 107.341648 125.779123 107.508315 121.846831 107.841648 119.227039 C 108.174982 116.607248 109.14894 113.680164 110.768732 110.445789 C 113.945815 104.31558 122.836441 101.247872 137.445817 101.247872 C 151.826026 101.247872 160.523943 104.31558 163.53436 110.445789 C 165.31561 113.904122 166.37811 116.940581 166.711444 119.560373 C 167.102069 122.185373 167.294777 126.112457 167.294777 131.35204 L 167.294777 202.602045 C 176.383319 191.451002 189.398945 185.878085 206.346863 185.878085 Z M 176.326028 296.508301 C 181.956236 302.643718 188.982279 305.706218 197.398946 305.706218 C 205.872905 305.706218 213.065613 302.643718 218.977072 296.508301 C 224.940614 290.320801 227.924989 283.466634 227.924989 275.940591 C 227.924989 268.409341 225.164573 261.497882 219.643739 255.201007 C 214.180197 248.898923 206.878113 245.747881 197.737487 245.747881 C 188.591653 245.747881 181.346861 248.956215 175.992694 255.367673 C 170.643736 261.779132 167.966652 268.690591 167.966652 276.107258 C 167.966652 283.518717 170.753111 290.320801 176.326028 296.508301 Z M 390.221875 365.331222 C 367.195832 365.331222 348.076039 356.607263 332.857288 339.159346 C 317.69062 321.654136 310.112495 300.35726 310.112495 275.268716 L 310.112495 215.310379 C 310.112495 209.794754 310.279161 205.779128 310.612495 203.268712 C 310.945828 200.758295 311.924995 197.80517 313.539578 194.404128 C 316.716662 188.216627 325.607287 185.122877 340.216663 185.122877 C 356.216665 185.122877 365.581248 189.471836 368.310415 198.169753 C 369.706249 201.794753 370.404165 207.61767 370.404165 215.643712 L 370.404165 275.60205 C 370.404165 284.971842 373.081249 292.273926 378.430208 297.513509 C 383.784375 302.753093 390.971875 305.372885 400.003126 305.372885 C 409.034376 305.372885 416.341668 302.643718 421.914585 297.180176 C 427.544794 291.659342 430.362503 284.466634 430.362503 275.60205 L 430.362503 214.977046 C 430.362503 209.68017 430.529169 205.721837 430.862503 203.102045 C 431.195836 200.482253 432.284378 197.471836 434.12292 194.070794 C 437.076045 188.107252 445.857295 185.122877 460.466671 185.122877 C 474.846881 185.122877 483.628131 188.216627 486.805215 194.404128 C 488.425007 197.80517 489.398965 200.846836 489.732298 203.518712 C 490.065632 206.138503 490.232298 210.070795 490.232298 215.310379 L 490.232298 336.565595 C 490.232298 341.581221 490.065632 345.398929 489.732298 348.018721 C 489.398965 350.643721 488.310423 353.539555 486.471881 356.716638 C 483.07084 362.685389 474.289589 365.664556 460.12813 365.664556 C 446.195837 365.664556 437.633337 362.935389 434.456253 357.471847 C 432.175003 353.565596 431.029169 348.883304 431.029169 343.419762 C 430.081253 344.982263 428.018753 347.268721 424.841669 350.279138 C 421.664585 353.232263 418.570835 355.74268 415.560418 357.80518 C 407.810418 362.820805 399.362501 365.331222 390.221875 365.331222 Z M 390.221875 365.331222 " stroke="#436100" stroke-width="12.844538" stroke-opacity="1" stroke-miterlimit="4"/><g fill="#91c123" fill-opacity="1"><g transform="translate(33.610952, 278.372677)"><g><path d="M 84.515625 -135.125 C 99.753906 -135.125 113.753906 -128.359375 126.515625 -114.828125 C 139.273438 -101.296875 145.65625 -85.582031 145.65625 -67.6875 C 145.65625 -49.789062 139.316406 -34.117188 126.640625 -20.671875 C 113.972656 -7.234375 100.359375 -0.515625 85.796875 -0.515625 C 71.242188 -0.515625 60.882812 -4.625 54.71875 -12.84375 C 53.34375 -4.445312 45.976562 -0.25 32.625 -0.25 C 21.832031 -0.25 15.238281 -2.5625 12.84375 -7.1875 C 11.644531 -9.757812 10.914062 -12.03125 10.65625 -14 C 10.40625 -15.96875 10.28125 -18.921875 10.28125 -22.859375 L 10.28125 -176.234375 C 10.28125 -180.171875 10.40625 -183.125 10.65625 -185.09375 C 10.914062 -187.0625 11.644531 -189.242188 12.84375 -191.640625 C 15.238281 -196.265625 21.914062 -198.578125 32.875 -198.578125 C 43.664062 -198.578125 50.175781 -196.265625 52.40625 -191.640625 C 53.769531 -189.066406 54.582031 -186.796875 54.84375 -184.828125 C 55.101562 -182.859375 55.234375 -179.90625 55.234375 -175.96875 L 55.234375 -122.53125 C 62.078125 -130.925781 71.835938 -135.125 84.515625 -135.125 Z M 62.03125 -52.140625 C 66.226562 -47.523438 71.492188 -45.21875 77.828125 -45.21875 C 84.171875 -45.21875 89.566406 -47.523438 94.015625 -52.140625 C 98.472656 -56.765625 100.703125 -61.90625 100.703125 -67.5625 C 100.703125 -73.21875 98.644531 -78.398438 94.53125 -83.109375 C 90.425781 -87.816406 84.945312 -90.171875 78.09375 -90.171875 C 71.238281 -90.171875 65.800781 -87.769531 61.78125 -82.96875 C 57.757812 -78.175781 55.75 -72.992188 55.75 -67.421875 C 55.75 -61.859375 57.84375 -56.765625 62.03125 -52.140625 Z M 62.03125 -52.140625 "/></g></g></g><g fill="#91c123" fill-opacity="1"><g transform="translate(185.689575, 278.372677)"><g><path d="M 70.390625 -0.515625 C 53.085938 -0.515625 38.742188 -7.0625 27.359375 -20.15625 C 15.972656 -33.257812 10.28125 -49.234375 10.28125 -68.078125 L 10.28125 -113.03125 C 10.28125 -117.144531 10.40625 -120.140625 10.65625 -122.015625 C 10.914062 -123.898438 11.644531 -126.128906 12.84375 -128.703125 C 15.238281 -133.328125 21.914062 -135.640625 32.875 -135.640625 C 44.863281 -135.640625 51.890625 -132.382812 53.953125 -125.875 C 54.972656 -123.132812 55.484375 -118.769531 55.484375 -112.78125 L 55.484375 -67.8125 C 55.484375 -60.789062 57.492188 -55.3125 61.515625 -51.375 C 65.546875 -47.4375 70.941406 -45.46875 77.703125 -45.46875 C 84.472656 -45.46875 89.953125 -47.519531 94.140625 -51.625 C 98.335938 -55.738281 100.4375 -61.132812 100.4375 -67.8125 L 100.4375 -113.28125 C 100.4375 -117.226562 100.566406 -120.1875 100.828125 -122.15625 C 101.085938 -124.125 101.898438 -126.390625 103.265625 -128.953125 C 105.492188 -133.410156 112.085938 -135.640625 123.046875 -135.640625 C 133.835938 -135.640625 140.429688 -133.328125 142.828125 -128.703125 C 144.023438 -126.128906 144.753906 -123.859375 145.015625 -121.890625 C 145.273438 -119.921875 145.40625 -116.96875 145.40625 -113.03125 L 145.40625 -22.09375 C 145.40625 -18.320312 145.273438 -15.453125 145.015625 -13.484375 C 144.753906 -11.515625 143.941406 -9.332031 142.578125 -6.9375 C 140.003906 -2.476562 133.410156 -0.25 122.796875 -0.25 C 112.347656 -0.25 105.925781 -2.304688 103.53125 -6.421875 C 101.8125 -9.335938 100.953125 -12.847656 100.953125 -16.953125 C 100.273438 -15.753906 98.734375 -14.039062 96.328125 -11.8125 C 93.929688 -9.59375 91.617188 -7.710938 89.390625 -6.171875 C 83.566406 -2.398438 77.234375 -0.515625 70.390625 -0.515625 Z M 70.390625 -0.515625 "/></g></g></g></svg>