<svg xmlns="http://www.w3.org/2000/svg" xmlns:xlink="http://www.w3.org/1999/xlink" width="500" zoomAndPan="magnify" viewBox="0 0 375 374.999991" height="500" preserveAspectRatio="xMidYMid meet" version="1.0"><defs><g/></defs><path stroke-linecap="butt" transform="matrix(0.75, 0, 0, 0.75, -36.607793, 3.872669)" fill="none" stroke-linejoin="miter" d="M 229.029156 110.36249 C 230.758323 107.01874 233.794781 104.680198 238.14374 103.341657 C 242.492699 101.945823 248.263532 101.247906 255.456241 101.247906 C 262.643742 101.247906 268.414575 101.945823 272.763534 103.341657 C 277.112493 104.680198 280.12291 107.076032 281.794785 110.529157 C 283.523951 113.930199 284.555201 116.940616 284.888535 119.560408 C 285.27916 122.185408 285.477077 126.112491 285.477077 131.352075 L 285.477077 335.893755 C 285.477077 341.138547 285.27916 345.065631 284.888535 347.685423 C 284.555201 350.305214 283.49791 353.206256 281.711451 356.38334 C 278.253118 362.57084 268.581242 365.66459 252.695824 365.66459 C 236.86249 365.66459 228.023948 360.060423 226.185406 348.857298 C 216.596864 359.841673 203.247904 365.331257 186.128112 365.331257 C 165.560402 365.331257 146.826026 356.38334 129.9354 338.487505 C 113.044774 320.534379 104.596856 299.633336 104.596856 275.768751 C 104.596856 251.909375 113.102065 230.977082 130.102066 212.971872 C 147.107276 194.909371 165.78436 185.87812 186.128112 185.87812 C 203.023946 185.87812 216.148947 191.560412 225.518739 202.935413 L 225.518739 131.018742 C 225.518739 125.779158 225.685406 121.846866 226.018739 119.227074 C 226.352073 116.607282 227.357281 113.654157 229.029156 110.36249 Z M 173.419778 296.508336 C 179.38332 302.643753 186.576028 305.706253 194.992696 305.706253 C 203.466654 305.706253 210.492697 302.643753 216.065614 296.508336 C 221.643739 290.320835 224.430198 283.518752 224.430198 276.107293 C 224.430198 268.690626 221.753114 261.779167 216.404155 255.367708 C 211.049988 248.956249 203.805196 245.747916 194.659362 245.747916 C 185.518737 245.747916 178.216653 248.898958 172.753111 255.201041 C 167.289569 261.497917 164.555194 268.409376 164.555194 275.935418 C 164.555194 283.46146 167.508319 290.320835 173.419778 296.508336 Z M 430.008336 204.690622 C 431.346878 191.867704 440.352087 185.456245 457.018754 185.456245 C 465.94063 185.456245 472.570839 186.154162 476.919797 187.549995 C 481.268756 188.94062 484.279173 191.341662 485.951048 194.737496 C 487.680215 198.138538 488.711465 201.180205 489.044798 203.857288 C 489.38334 206.47708 489.550007 210.404164 489.550007 215.643747 L 489.550007 335.477088 C 489.550007 340.773964 489.38334 344.732297 489.044798 347.352089 C 488.711465 349.971881 487.737506 352.982298 486.117715 356.38334 C 482.940631 362.346882 475.138547 365.331257 462.706255 365.331257 C 450.273962 365.331257 441.940628 363.800007 437.701045 360.732298 C 433.46667 357.607298 431.013544 353.091673 430.341669 347.185423 C 421.86771 359.284382 407.763543 365.331257 388.029167 365.331257 C 368.29479 365.331257 349.956247 356.326048 333.00833 338.320839 C 316.112495 320.258337 307.669786 299.294794 307.669786 275.435418 C 307.669786 251.576041 316.169787 230.695832 333.174996 212.799997 C 350.232289 194.852079 368.909374 185.87812 389.201042 185.87812 C 397.008334 185.87812 404.086459 187.242704 410.440626 189.971871 C 416.852085 192.706246 421.310419 195.268746 423.820836 197.664579 C 426.331252 200.065621 428.393753 202.404163 430.008336 204.690622 Z M 367.628124 275.935418 C 367.628124 283.46146 370.581249 290.263544 376.492708 296.341669 C 382.45625 302.362503 389.648958 305.37292 398.065626 305.37292 C 406.539584 305.37292 413.565627 302.305211 419.138544 296.175003 C 424.768752 289.987502 427.586461 283.185418 427.586461 275.768751 C 427.586461 268.357292 424.878127 261.445834 419.471877 255.034375 C 414.122918 248.622916 406.93021 245.414583 397.898959 245.414583 C 388.925 245.414583 381.617708 248.622916 375.987499 255.034375 C 370.414582 261.445834 367.628124 268.409376 367.628124 275.935418 Z M 367.628124 275.935418 " stroke="#0e0069" stroke-width="17.126051" stroke-opacity="1" stroke-miterlimit="4"/><g fill="#7668d2" fill-opacity="1"><g transform="translate(34.126577, 278.372651)"><g><path d="M 101.078125 -191.765625 C 102.367188 -194.253906 104.640625 -196.007812 107.890625 -197.03125 C 111.148438 -198.0625 115.472656 -198.578125 120.859375 -198.578125 C 126.253906 -198.578125 130.578125 -198.0625 133.828125 -197.03125 C 137.085938 -196.007812 139.359375 -194.210938 140.640625 -191.640625 C 141.929688 -189.066406 142.703125 -186.796875 142.953125 -184.828125 C 143.210938 -182.859375 143.34375 -179.90625 143.34375 -175.96875 L 143.34375 -22.609375 C 143.34375 -18.671875 143.210938 -15.71875 142.953125 -13.75 C 142.703125 -11.78125 141.890625 -9.59375 140.515625 -7.1875 C 137.953125 -2.5625 130.71875 -0.25 118.8125 -0.25 C 106.90625 -0.25 100.269531 -4.445312 98.90625 -12.84375 C 91.707031 -4.625 81.6875 -0.515625 68.84375 -0.515625 C 53.425781 -0.515625 39.378906 -7.234375 26.703125 -20.671875 C 14.035156 -34.117188 7.703125 -49.789062 7.703125 -67.6875 C 7.703125 -85.582031 14.082031 -101.296875 26.84375 -114.828125 C 39.601562 -128.359375 53.601562 -135.125 68.84375 -135.125 C 81.519531 -135.125 91.367188 -130.84375 98.390625 -122.28125 L 98.390625 -176.234375 C 98.390625 -180.171875 98.515625 -183.125 98.765625 -185.09375 C 99.023438 -187.0625 99.796875 -189.285156 101.078125 -191.765625 Z M 59.328125 -52.140625 C 63.785156 -47.523438 69.179688 -45.21875 75.515625 -45.21875 C 81.859375 -45.21875 87.128906 -47.523438 91.328125 -52.140625 C 95.523438 -56.765625 97.625 -61.859375 97.625 -67.421875 C 97.625 -72.992188 95.609375 -78.175781 91.578125 -82.96875 C 87.554688 -87.769531 82.117188 -90.171875 75.265625 -90.171875 C 68.421875 -90.171875 62.941406 -87.816406 58.828125 -83.109375 C 54.710938 -78.398438 52.65625 -73.21875 52.65625 -67.5625 C 52.65625 -61.90625 54.878906 -56.765625 59.328125 -52.140625 Z M 59.328125 -52.140625 "/></g></g></g><g fill="#7668d2" fill-opacity="1"><g transform="translate(187.746547, 278.372651)"><g><path d="M 98.125 -121 C 99.15625 -130.582031 105.921875 -135.375 118.421875 -135.375 C 125.097656 -135.375 130.0625 -134.859375 133.3125 -133.828125 C 136.570312 -132.804688 138.84375 -131.007812 140.125 -128.4375 C 141.414062 -125.875 142.1875 -123.609375 142.4375 -121.640625 C 142.695312 -119.671875 142.828125 -116.71875 142.828125 -112.78125 L 142.828125 -22.859375 C 142.828125 -18.921875 142.695312 -15.96875 142.4375 -14 C 142.1875 -12.03125 141.460938 -9.757812 140.265625 -7.1875 C 137.867188 -2.738281 132.003906 -0.515625 122.671875 -0.515625 C 113.335938 -0.515625 107.082031 -1.671875 103.90625 -3.984375 C 100.738281 -6.296875 98.898438 -9.675781 98.390625 -14.125 C 92.054688 -5.050781 81.476562 -0.515625 66.65625 -0.515625 C 51.84375 -0.515625 38.097656 -7.28125 25.421875 -20.8125 C 12.753906 -34.34375 6.421875 -50.054688 6.421875 -67.953125 C 6.421875 -85.847656 12.800781 -101.515625 25.5625 -114.953125 C 38.320312 -128.398438 52.320312 -135.125 67.5625 -135.125 C 73.382812 -135.125 78.691406 -134.09375 83.484375 -132.03125 C 88.285156 -129.976562 91.625 -128.050781 93.5 -126.25 C 95.382812 -124.457031 96.925781 -122.707031 98.125 -121 Z M 51.375 -67.5625 C 51.375 -61.90625 53.597656 -56.804688 58.046875 -52.265625 C 62.503906 -47.734375 67.898438 -45.46875 74.234375 -45.46875 C 80.578125 -45.46875 85.84375 -47.78125 90.03125 -52.40625 C 94.226562 -57.03125 96.328125 -62.125 96.328125 -67.6875 C 96.328125 -73.257812 94.316406 -78.441406 90.296875 -83.234375 C 86.273438 -88.023438 80.878906 -90.421875 74.109375 -90.421875 C 67.347656 -90.421875 61.867188 -88.023438 57.671875 -83.234375 C 53.472656 -78.441406 51.375 -73.21875 51.375 -67.5625 Z M 51.375 -67.5625 "/></g></g></g></svg>