<svg xmlns="http://www.w3.org/2000/svg" xmlns:xlink="http://www.w3.org/1999/xlink" width="500" zoomAndPan="magnify" viewBox="0 0 375 374.999991" height="500" preserveAspectRatio="xMidYMid meet" version="1.0"><defs><g/></defs><path stroke-linecap="butt" transform="matrix(0.75, 0, 0, 0.75, -36.607793, 3.872695)" fill="none" stroke-linejoin="miter" d="M 232.966656 110.362455 C 234.695823 107.018705 237.732282 104.680163 242.08124 103.341622 C 246.430199 101.945788 252.201033 101.247872 259.393741 101.247872 C 266.581242 101.247872 272.352076 101.945788 276.701034 103.341622 C 281.049993 104.680163 284.06041 107.075997 285.732285 110.529122 C 287.461452 113.930164 288.492702 116.940581 288.826035 119.560373 C 289.21666 122.185373 289.414577 126.112457 289.414577 131.35204 L 289.414577 335.89372 C 289.414577 341.138512 289.21666 345.065596 288.826035 347.685388 C 288.492702 350.30518 287.43541 353.206221 285.648952 356.383305 C 282.190618 362.570805 272.518742 365.664556 256.633325 365.664556 C 240.79999 365.664556 231.961448 360.060389 230.122906 348.857263 C 220.534364 359.841639 207.185405 365.331222 190.065612 365.331222 C 169.497902 365.331222 150.763526 356.383305 133.8729 338.48747 C 116.982274 320.534344 108.534357 299.633301 108.534357 275.768716 C 108.534357 251.90934 117.039565 230.977047 134.039567 212.971837 C 151.044776 194.909336 169.721861 185.878085 190.065612 185.878085 C 206.961446 185.878085 220.086447 191.560377 229.45624 202.935378 L 229.45624 131.018707 C 229.45624 125.779123 229.622906 121.846831 229.95624 119.227039 C 230.289573 116.607248 231.294781 113.654122 232.966656 110.362455 Z M 177.357278 296.508301 C 183.32082 302.643718 190.513529 305.706218 198.930196 305.706218 C 207.404155 305.706218 214.430197 302.643718 220.003114 296.508301 C 225.581239 290.320801 228.367698 283.518717 228.367698 276.107258 C 228.367698 268.690591 225.690614 261.779132 220.341656 255.367673 C 214.987489 248.956215 207.742696 245.747881 198.596862 245.747881 C 189.456237 245.747881 182.154153 248.898923 176.690611 255.201007 C 171.227069 261.497882 168.492694 268.409341 168.492694 275.940591 C 168.492694 283.466634 171.445819 290.320801 177.357278 296.508301 Z M 490.810423 254.195798 C 490.810423 268.242674 487.326048 278.643717 480.357298 285.388509 C 473.388547 292.076009 465.669797 295.419759 457.195838 295.419759 L 375.997916 295.419759 C 375.997916 301.831218 379.758333 307.211427 387.284375 311.560385 C 394.867709 315.909344 402.419793 318.086427 409.945835 318.086427 C 423.216669 318.086427 433.612503 316.690594 441.138545 313.904136 L 444.898962 312.565594 C 450.362504 310.055177 454.935421 308.799969 458.617713 308.799969 C 465.919797 308.799969 472.19063 313.930177 477.430214 324.190595 C 480.383339 330.378095 481.862506 335.64372 481.862506 339.992679 C 481.862506 360.284347 457.555213 370.430181 408.945835 370.430181 C 392.05 370.430181 377.029166 367.534347 363.872915 361.737472 C 350.768747 355.883305 340.53958 348.159346 333.180205 338.570804 C 318.799995 320.117678 311.607287 299.461426 311.607287 276.607258 C 311.607287 247.841631 320.914579 224.846838 339.534372 207.61767 C 358.154165 190.336419 381.404166 181.695794 409.279168 181.695794 C 440.99792 181.695794 464.273963 192.898919 479.102089 215.310379 C 486.909381 227.18538 490.810423 240.148922 490.810423 254.195798 Z M 418.477085 264.232257 C 427.175002 264.232257 431.523961 260.581215 431.523961 253.273923 C 431.523961 248.03434 429.513544 243.826006 425.503127 240.648922 C 421.544794 237.471839 415.826043 235.883297 408.357293 235.883297 C 400.945834 235.883297 393.586459 238.919756 386.279166 244.997881 C 378.977083 251.018715 375.326041 257.430173 375.326041 264.232257 Z M 418.477085 264.232257 " stroke="#0e0069" stroke-width="17.126051" stroke-opacity="1" stroke-miterlimit="4"/><g fill="#7668d2" fill-opacity="1"><g transform="translate(37.079702, 278.372677)"><g><path d="M 101.078125 -191.765625 C 102.367188 -194.253906 104.640625 -196.007812 107.890625 -197.03125 C 111.148438 -198.0625 115.472656 -198.578125 120.859375 -198.578125 C 126.253906 -198.578125 130.578125 -198.0625 133.828125 -197.03125 C 137.085938 -196.007812 139.359375 -194.210938 140.640625 -191.640625 C 141.929688 -189.066406 142.703125 -186.796875 142.953125 -184.828125 C 143.210938 -182.859375 143.34375 -179.90625 143.34375 -175.96875 L 143.34375 -22.609375 C 143.34375 -18.671875 143.210938 -15.71875 142.953125 -13.75 C 142.703125 -11.78125 141.890625 -9.59375 140.515625 -7.1875 C 137.953125 -2.5625 130.71875 -0.25 118.8125 -0.25 C 106.90625 -0.25 100.269531 -4.445312 98.90625 -12.84375 C 91.707031 -4.625 81.6875 -0.515625 68.84375 -0.515625 C 53.425781 -0.515625 39.378906 -7.234375 26.703125 -20.671875 C 14.035156 -34.117188 7.703125 -49.789062 7.703125 -67.6875 C 7.703125 -85.582031 14.082031 -101.296875 26.84375 -114.828125 C 39.601562 -128.359375 53.601562 -135.125 68.84375 -135.125 C 81.519531 -135.125 91.367188 -130.84375 98.390625 -122.28125 L 98.390625 -176.234375 C 98.390625 -180.171875 98.515625 -183.125 98.765625 -185.09375 C 99.023438 -187.0625 99.796875 -189.285156 101.078125 -191.765625 Z M 59.328125 -52.140625 C 63.785156 -47.523438 69.179688 -45.21875 75.515625 -45.21875 C 81.859375 -45.21875 87.128906 -47.523438 91.328125 -52.140625 C 95.523438 -56.765625 97.625 -61.859375 97.625 -67.421875 C 97.625 -72.992188 95.609375 -78.175781 91.578125 -82.96875 C 87.554688 -87.769531 82.117188 -90.171875 75.265625 -90.171875 C 68.421875 -90.171875 62.941406 -87.816406 58.828125 -83.109375 C 54.710938 -78.398438 52.65625 -73.21875 52.65625 -67.5625 C 52.65625 -61.90625 54.878906 -56.765625 59.328125 -52.140625 Z M 59.328125 -52.140625 "/></g></g></g><g fill="#7668d2" fill-opacity="1"><g transform="translate(190.699672, 278.372677)"><g><path d="M 140.78125 -83.875 C 140.78125 -73.34375 138.164062 -65.550781 132.9375 -60.5 C 127.71875 -55.445312 121.9375 -52.921875 115.59375 -52.921875 L 54.71875 -52.921875 C 54.71875 -48.117188 57.539062 -44.09375 63.1875 -40.84375 C 68.84375 -37.59375 74.5 -35.96875 80.15625 -35.96875 C 90.082031 -35.96875 97.875 -36.992188 103.53125 -39.046875 L 106.359375 -40.078125 C 110.460938 -41.960938 113.882812 -42.90625 116.625 -42.90625 C 122.101562 -42.90625 126.8125 -39.050781 130.75 -31.34375 C 132.976562 -26.71875 134.09375 -22.78125 134.09375 -19.53125 C 134.09375 -4.28125 115.851562 3.34375 79.375 3.34375 C 66.707031 3.34375 55.445312 1.160156 45.59375 -3.203125 C 35.75 -7.578125 28.085938 -13.359375 22.609375 -20.546875 C 11.816406 -34.421875 6.421875 -49.921875 6.421875 -67.046875 C 6.421875 -88.628906 13.398438 -105.882812 27.359375 -118.8125 C 41.316406 -131.738281 58.742188 -138.203125 79.640625 -138.203125 C 103.441406 -138.203125 120.910156 -129.8125 132.046875 -113.03125 C 137.867188 -104.125 140.78125 -94.40625 140.78125 -83.875 Z M 86.578125 -76.296875 C 93.078125 -76.296875 96.328125 -79.035156 96.328125 -84.515625 C 96.328125 -88.453125 94.828125 -91.617188 91.828125 -94.015625 C 88.835938 -96.421875 84.554688 -97.625 78.984375 -97.625 C 73.421875 -97.625 67.898438 -95.351562 62.421875 -90.8125 C 56.941406 -86.269531 54.203125 -81.429688 54.203125 -76.296875 Z M 86.578125 -76.296875 "/></g></g></g></svg>