<svg xmlns="http://www.w3.org/2000/svg" xmlns:xlink="http://www.w3.org/1999/xlink" width="500" zoomAndPan="magnify" viewBox="0 0 375 374.999991" height="500" preserveAspectRatio="xMidYMid meet" version="1.0"><defs><g/></defs><path stroke-linecap="butt" transform="matrix(0.75, 0, 0, 0.75, -36.607793, 3.872695)" fill="none" stroke-linejoin="miter" d="M 287.43541 110.362455 C 289.164577 107.018705 292.201035 104.680163 296.549994 103.341622 C 300.898953 101.945788 306.669786 101.247872 313.862495 101.247872 C 321.049996 101.247872 326.820829 101.945788 331.169788 103.341622 C 335.518746 104.680163 338.529163 107.075997 340.201038 110.529122 C 341.930205 113.930164 342.961455 116.940581 343.294789 119.560373 C 343.685414 122.185373 343.88333 126.112457 343.88333 131.35204 L 343.88333 335.89372 C 343.88333 341.138512 343.685414 345.065596 343.294789 347.685388 C 342.961455 350.30518 341.904164 353.206221 340.117705 356.383305 C 336.659372 362.570805 326.987496 365.664556 311.102078 365.664556 C 295.268744 365.664556 286.430202 360.060389 284.59166 348.857263 C 275.003118 359.841639 261.654158 365.331222 244.534366 365.331222 C 223.966656 365.331222 205.23228 356.383305 188.341653 338.48747 C 171.451027 320.534344 163.00311 299.633301 163.00311 275.768716 C 163.00311 251.90934 171.508319 230.977047 188.50832 212.971837 C 205.51353 194.909336 224.190614 185.878085 244.534366 185.878085 C 261.4302 185.878085 274.555201 191.560377 283.924993 202.935378 L 283.924993 131.018707 C 283.924993 125.779123 284.09166 121.846831 284.424993 119.227039 C 284.758326 116.607248 285.763535 113.654122 287.43541 110.362455 Z M 231.826031 296.508301 C 237.789573 302.643718 244.982282 305.706218 253.398949 305.706218 C 261.872908 305.706218 268.89895 302.643718 274.471867 296.508301 C 280.049993 290.320801 282.836451 283.518717 282.836451 276.107258 C 282.836451 268.690591 280.159368 261.779132 274.810409 255.367673 C 269.456242 248.956215 262.21145 245.747881 253.065616 245.747881 C 243.92499 245.747881 236.622907 248.898923 231.159365 255.201007 C 225.695823 261.497882 222.961447 268.409341 222.961447 275.940591 C 222.961447 283.466634 225.914573 290.320801 231.826031 296.508301 Z M 371.258332 215.643712 C 371.258332 210.404129 371.424999 206.477045 371.763541 203.857253 C 372.096874 201.18017 373.070832 198.138503 374.690624 194.737461 C 377.867708 188.831211 386.758333 185.878085 401.362501 185.878085 C 412.346877 185.878085 420.122919 187.799961 424.695836 191.643711 C 428.539586 194.826003 430.602086 199.727045 430.883336 206.362462 C 431.107294 208.64892 431.216669 211.966629 431.216669 216.315587 L 431.216669 336.232262 C 431.216669 341.471846 431.023961 345.398929 430.633336 348.018721 C 430.300003 350.643721 429.237503 353.68018 427.456253 357.138513 C 424.445836 363.044764 415.633335 365.997889 401.029167 365.997889 C 386.64375 365.997889 377.867708 362.904139 374.690624 356.716638 C 373.070832 353.315596 372.096874 350.362471 371.763541 347.852054 C 371.424999 345.346846 371.258332 341.357262 371.258332 335.89372 Z M 427.539586 152.091625 C 425.867711 155.383292 422.857294 157.721834 418.508335 159.117667 C 414.159377 160.508292 408.388543 161.206209 401.195834 161.206209 C 394.003125 161.206209 388.2375 160.508292 383.888541 159.117667 C 379.591666 157.721834 376.581249 155.326 374.857291 151.924958 C 373.128124 148.523916 372.096874 145.513499 371.763541 142.893708 C 371.424999 140.216624 371.258332 136.258291 371.258332 131.018707 C 371.258332 125.779123 371.424999 121.846831 371.763541 119.227039 C 372.096874 116.607248 373.070832 113.680164 374.690624 110.445789 C 377.867708 104.31558 386.758333 101.247872 401.362501 101.247872 C 415.747918 101.247872 424.445836 104.31558 427.456253 110.445789 C 429.237503 113.904122 430.300003 116.940581 430.633336 119.560373 C 431.023961 122.185373 431.216669 126.112457 431.216669 131.35204 C 431.216669 136.591624 431.023961 140.549957 430.633336 143.227041 C 430.300003 145.846833 429.263544 148.805166 427.539586 152.091625 Z M 427.539586 152.091625 " stroke="#0e0069" stroke-width="17.126051" stroke-opacity="1" stroke-miterlimit="4"/><g fill="#7668d2" fill-opacity="1"><g transform="translate(77.931262, 278.372677)"><g><path d="M 101.078125 -191.765625 C 102.367188 -194.253906 104.640625 -196.007812 107.890625 -197.03125 C 111.148438 -198.0625 115.472656 -198.578125 120.859375 -198.578125 C 126.253906 -198.578125 130.578125 -198.0625 133.828125 -197.03125 C 137.085938 -196.007812 139.359375 -194.210938 140.640625 -191.640625 C 141.929688 -189.066406 142.703125 -186.796875 142.953125 -184.828125 C 143.210938 -182.859375 143.34375 -179.90625 143.34375 -175.96875 L 143.34375 -22.609375 C 143.34375 -18.671875 143.210938 -15.71875 142.953125 -13.75 C 142.703125 -11.78125 141.890625 -9.59375 140.515625 -7.1875 C 137.953125 -2.5625 130.71875 -0.25 118.8125 -0.25 C 106.90625 -0.25 100.269531 -4.445312 98.90625 -12.84375 C 91.707031 -4.625 81.6875 -0.515625 68.84375 -0.515625 C 53.425781 -0.515625 39.378906 -7.234375 26.703125 -20.671875 C 14.035156 -34.117188 7.703125 -49.789062 7.703125 -67.6875 C 7.703125 -85.582031 14.082031 -101.296875 26.84375 -114.828125 C 39.601562 -128.359375 53.601562 -135.125 68.84375 -135.125 C 81.519531 -135.125 91.367188 -130.84375 98.390625 -122.28125 L 98.390625 -176.234375 C 98.390625 -180.171875 98.515625 -183.125 98.765625 -185.09375 C 99.023438 -187.0625 99.796875 -189.285156 101.078125 -191.765625 Z M 59.328125 -52.140625 C 63.785156 -47.523438 69.179688 -45.21875 75.515625 -45.21875 C 81.859375 -45.21875 87.128906 -47.523438 91.328125 -52.140625 C 95.523438 -56.765625 97.625 -61.859375 97.625 -67.421875 C 97.625 -72.992188 95.609375 -78.175781 91.578125 -82.96875 C 87.554688 -87.769531 82.117188 -90.171875 75.265625 -90.171875 C 68.421875 -90.171875 62.941406 -87.816406 58.828125 -83.109375 C 54.710938 -78.398438 52.65625 -73.21875 52.65625 -67.5625 C 52.65625 -61.90625 54.878906 -56.765625 59.328125 -52.140625 Z M 59.328125 -52.140625 "/></g></g></g><g fill="#7668d2" fill-opacity="1"><g transform="translate(231.551232, 278.372677)"><g><path d="M 10.28125 -112.78125 C 10.28125 -116.71875 10.40625 -119.671875 10.65625 -121.640625 C 10.914062 -123.609375 11.644531 -125.875 12.84375 -128.4375 C 15.238281 -132.894531 21.914062 -135.125 32.875 -135.125 C 41.101562 -135.125 46.925781 -133.664062 50.34375 -130.75 C 53.257812 -128.351562 54.800781 -124.675781 54.96875 -119.71875 C 55.144531 -118 55.234375 -115.515625 55.234375 -112.265625 L 55.234375 -22.34375 C 55.234375 -18.40625 55.101562 -15.453125 54.84375 -13.484375 C 54.582031 -11.515625 53.769531 -9.242188 52.40625 -6.671875 C 50.175781 -2.222656 43.582031 0 32.625 0 C 21.832031 0 15.238281 -2.3125 12.84375 -6.9375 C 11.644531 -9.507812 10.914062 -11.734375 10.65625 -13.609375 C 10.40625 -15.492188 10.28125 -18.492188 10.28125 -22.609375 Z M 52.53125 -160.421875 C 51.25 -157.941406 48.976562 -156.1875 45.71875 -155.15625 C 42.46875 -154.132812 38.144531 -153.625 32.75 -153.625 C 27.351562 -153.625 23.03125 -154.132812 19.78125 -155.15625 C 16.53125 -156.1875 14.257812 -157.984375 12.96875 -160.546875 C 11.6875 -163.117188 10.914062 -165.390625 10.65625 -167.359375 C 10.40625 -169.328125 10.28125 -172.28125 10.28125 -176.21875 C 10.28125 -180.164062 10.40625 -183.125 10.65625 -185.09375 C 10.914062 -187.0625 11.644531 -189.242188 12.84375 -191.640625 C 15.238281 -196.265625 21.914062 -198.578125 32.875 -198.578125 C 43.664062 -198.578125 50.175781 -196.265625 52.40625 -191.640625 C 53.769531 -189.066406 54.582031 -186.796875 54.84375 -184.828125 C 55.101562 -182.859375 55.234375 -179.90625 55.234375 -175.96875 C 55.234375 -172.03125 55.101562 -169.078125 54.84375 -167.109375 C 54.582031 -165.140625 53.8125 -162.910156 52.53125 -160.421875 Z M 52.53125 -160.421875 "/></g></g></g></svg>