<svg xmlns="http://www.w3.org/2000/svg" xmlns:xlink="http://www.w3.org/1999/xlink" width="500" zoomAndPan="magnify" viewBox="0 0 375 374.999991" height="500" preserveAspectRatio="xMidYMid meet" version="1.0"><defs><g/></defs><path stroke-linecap="butt" transform="matrix(0.75, 0, 0, 0.75, -36.607793, 3.872695)" fill="none" stroke-linejoin="miter" d="M 228.341656 110.362455 C 230.070823 107.018705 233.107281 104.680163 237.45624 103.341622 C 241.805199 101.945788 247.576032 101.247872 254.768741 101.247872 C 261.956242 101.247872 267.727075 101.945788 272.076034 103.341622 C 276.424993 104.680163 279.435409 107.075997 281.107285 110.529122 C 282.836451 113.930164 283.867701 116.940581 284.201035 119.560373 C 284.59166 122.185373 284.789576 126.112457 284.789576 131.35204 L 284.789576 335.89372 C 284.789576 341.138512 284.59166 345.065596 284.201035 347.685388 C 283.867701 350.30518 282.81041 353.206221 281.023951 356.383305 C 277.565618 362.570805 267.893742 365.664556 252.008324 365.664556 C 236.17499 365.664556 227.336448 360.060389 225.497906 348.857263 C 215.909364 359.841639 202.560404 365.331222 185.440612 365.331222 C 164.872902 365.331222 146.138526 356.383305 129.2479 338.48747 C 112.357273 320.534344 103.909356 299.633301 103.909356 275.768716 C 103.909356 251.90934 112.414565 230.977047 129.414566 212.971837 C 146.419776 194.909336 165.09686 185.878085 185.440612 185.878085 C 202.336446 185.878085 215.461447 191.560377 224.831239 202.935378 L 224.831239 131.018707 C 224.831239 125.779123 224.997906 121.846831 225.331239 119.227039 C 225.664573 116.607248 226.669781 113.654122 228.341656 110.362455 Z M 172.732277 296.508301 C 178.69582 302.643718 185.888528 305.706218 194.305196 305.706218 C 202.779154 305.706218 209.805197 302.643718 215.378114 296.508301 C 220.956239 290.320801 223.742697 283.518717 223.742697 276.107258 C 223.742697 268.690591 221.065614 261.779132 215.716655 255.367673 C 210.362488 248.956215 203.117696 245.747881 193.971862 245.747881 C 184.831237 245.747881 177.529153 248.898923 172.065611 255.201007 C 166.602069 261.497882 163.867694 268.409341 163.867694 275.940591 C 163.867694 283.466634 166.820819 290.320801 172.732277 296.508301 Z M 306.982286 275.940591 C 306.982286 248.508298 316.570829 225.90413 335.747913 208.11767 C 354.982289 190.279127 376.919791 181.36246 401.560417 181.36246 C 426.201044 181.36246 447.997921 190.221836 466.951047 207.951004 C 485.904173 225.62288 495.38334 248.174965 495.38334 275.60205 C 495.38334 294.560384 490.47709 311.393719 480.664589 326.11247 C 470.852089 340.831221 458.925005 351.674971 444.878129 358.643722 C 430.826044 365.607264 416.247918 369.091639 401.138542 369.091639 C 386.086458 369.091639 371.482291 365.388514 357.320831 357.971847 C 343.216664 350.55518 331.28958 339.602054 321.529162 325.107261 C 311.831245 310.560385 306.982286 294.169759 306.982286 275.940591 Z M 378.560416 300.440593 C 385.919791 306.01351 393.3625 308.799969 400.888542 308.799969 C 408.414585 308.799969 415.940627 305.956218 423.466669 300.273926 C 430.992711 294.529134 434.758336 286.086425 434.758336 274.935383 C 434.758336 263.727049 431.216669 255.393715 424.138544 249.930173 C 417.05521 244.414548 409.393751 241.654131 401.138542 241.654131 C 392.945834 241.654131 385.310416 244.523923 378.227083 250.263506 C 371.148957 255.951007 367.60729 264.341632 367.60729 275.435383 C 367.60729 286.47705 371.258332 294.810384 378.560416 300.440593 Z M 378.560416 300.440593 " stroke="#0e0069" stroke-width="17.126051" stroke-opacity="1" stroke-miterlimit="4"/><g fill="#7668d2" fill-opacity="1"><g transform="translate(33.610952, 278.372677)"><g><path d="M 101.078125 -191.765625 C 102.367188 -194.253906 104.640625 -196.007812 107.890625 -197.03125 C 111.148438 -198.0625 115.472656 -198.578125 120.859375 -198.578125 C 126.253906 -198.578125 130.578125 -198.0625 133.828125 -197.03125 C 137.085938 -196.007812 139.359375 -194.210938 140.640625 -191.640625 C 141.929688 -189.066406 142.703125 -186.796875 142.953125 -184.828125 C 143.210938 -182.859375 143.34375 -179.90625 143.34375 -175.96875 L 143.34375 -22.609375 C 143.34375 -18.671875 143.210938 -15.71875 142.953125 -13.75 C 142.703125 -11.78125 141.890625 -9.59375 140.515625 -7.1875 C 137.953125 -2.5625 130.71875 -0.25 118.8125 -0.25 C 106.90625 -0.25 100.269531 -4.445312 98.90625 -12.84375 C 91.707031 -4.625 81.6875 -0.515625 68.84375 -0.515625 C 53.425781 -0.515625 39.378906 -7.234375 26.703125 -20.671875 C 14.035156 -34.117188 7.703125 -49.789062 7.703125 -67.6875 C 7.703125 -85.582031 14.082031 -101.296875 26.84375 -114.828125 C 39.601562 -128.359375 53.601562 -135.125 68.84375 -135.125 C 81.519531 -135.125 91.367188 -130.84375 98.390625 -122.28125 L 98.390625 -176.234375 C 98.390625 -180.171875 98.515625 -183.125 98.765625 -185.09375 C 99.023438 -187.0625 99.796875 -189.285156 101.078125 -191.765625 Z M 59.328125 -52.140625 C 63.785156 -47.523438 69.179688 -45.21875 75.515625 -45.21875 C 81.859375 -45.21875 87.128906 -47.523438 91.328125 -52.140625 C 95.523438 -56.765625 97.625 -61.859375 97.625 -67.421875 C 97.625 -72.992188 95.609375 -78.175781 91.578125 -82.96875 C 87.554688 -87.769531 82.117188 -90.171875 75.265625 -90.171875 C 68.421875 -90.171875 62.941406 -87.816406 58.828125 -83.109375 C 54.710938 -78.398438 52.65625 -73.21875 52.65625 -67.5625 C 52.65625 -61.90625 54.878906 -56.765625 59.328125 -52.140625 Z M 59.328125 -52.140625 "/></g></g></g><g fill="#7668d2" fill-opacity="1"><g transform="translate(187.230922, 278.372677)"><g><path d="M 6.421875 -67.5625 C 6.421875 -88.113281 13.613281 -105.066406 28 -118.421875 C 42.382812 -131.785156 58.820312 -138.46875 77.3125 -138.46875 C 95.8125 -138.46875 112.171875 -131.828125 126.390625 -118.546875 C 140.609375 -105.273438 147.71875 -88.363281 147.71875 -67.8125 C 147.71875 -53.601562 144.035156 -40.972656 136.671875 -29.921875 C 129.304688 -18.878906 120.351562 -10.742188 109.8125 -5.515625 C 99.28125 -0.296875 88.363281 2.3125 77.0625 2.3125 C 65.757812 2.3125 54.800781 -0.46875 44.1875 -6.03125 C 33.570312 -11.601562 24.625 -19.828125 17.34375 -30.703125 C 10.0625 -41.578125 6.421875 -53.863281 6.421875 -67.5625 Z M 60.109375 -49.1875 C 65.585938 -45 71.148438 -42.90625 76.796875 -42.90625 C 82.453125 -42.90625 88.109375 -45.046875 93.765625 -49.328125 C 99.421875 -53.609375 102.25 -59.941406 102.25 -68.328125 C 102.25 -76.722656 99.59375 -82.972656 94.28125 -87.078125 C 88.96875 -91.191406 83.226562 -93.25 77.0625 -93.25 C 70.894531 -93.25 65.15625 -91.109375 59.84375 -86.828125 C 54.539062 -82.546875 51.890625 -76.25 51.890625 -67.9375 C 51.890625 -59.632812 54.628906 -53.382812 60.109375 -49.1875 Z M 60.109375 -49.1875 "/></g></g></g></svg>