<svg xmlns="http://www.w3.org/2000/svg" xmlns:xlink="http://www.w3.org/1999/xlink" width="500" zoomAndPan="magnify" viewBox="0 0 375 374.999991" height="500" preserveAspectRatio="xMidYMid meet" version="1.0"><defs><g/></defs><path stroke-linecap="butt" transform="matrix(0.75, 0, 0, 0.75, -36.607793, 3.872695)" fill="none" stroke-linejoin="miter" d="M 227.310406 110.362455 C 229.039573 107.018705 232.076031 104.680163 236.42499 103.341622 C 240.773949 101.945788 246.544782 101.247872 253.737491 101.247872 C 260.924992 101.247872 266.695825 101.945788 271.044784 103.341622 C 275.393743 104.680163 278.404159 107.075997 280.076035 110.529122 C 281.805201 113.930164 282.836451 116.940581 283.169785 119.560373 C 283.56041 122.185373 283.758326 126.112457 283.758326 131.35204 L 283.758326 335.89372 C 283.758326 341.138512 283.56041 345.065596 283.169785 347.685388 C 282.836451 350.30518 281.77916 353.206221 279.992701 356.383305 C 276.534368 362.570805 266.862492 365.664556 250.977074 365.664556 C 235.14374 365.664556 226.305198 360.060389 224.466656 348.857263 C 214.878114 359.841639 201.529154 365.331222 184.409362 365.331222 C 163.841652 365.331222 145.107276 356.383305 128.21665 338.48747 C 111.326023 320.534344 102.878106 299.633301 102.878106 275.768716 C 102.878106 251.90934 111.383315 230.977047 128.383316 212.971837 C 145.388526 194.909336 164.06561 185.878085 184.409362 185.878085 C 201.305196 185.878085 214.430197 191.560377 223.799989 202.935378 L 223.799989 131.018707 C 223.799989 125.779123 223.966656 121.846831 224.299989 119.227039 C 224.633323 116.607248 225.638531 113.654122 227.310406 110.362455 Z M 171.701027 296.508301 C 177.664569 302.643718 184.857278 305.706218 193.273945 305.706218 C 201.747904 305.706218 208.773946 302.643718 214.346864 296.508301 C 219.924989 290.320801 222.711447 283.518717 222.711447 276.107258 C 222.711447 268.690591 220.034364 261.779132 214.685405 255.367673 C 209.331238 248.956215 202.086446 245.747881 192.940612 245.747881 C 183.799987 245.747881 176.497903 248.898923 171.034361 255.201007 C 165.570819 261.497882 162.836443 268.409341 162.836443 275.940591 C 162.836443 283.466634 165.789569 290.320801 171.701027 296.508301 Z M 391.247917 365.331222 C 368.221874 365.331222 349.096872 356.607263 333.878121 339.159346 C 318.716662 321.654136 311.133328 300.35726 311.133328 275.268716 L 311.133328 215.310379 C 311.133328 209.794754 311.299995 205.779128 311.638537 203.268712 C 311.97187 200.758295 312.945828 197.80517 314.56562 194.404128 C 317.742704 188.216627 326.633329 185.122877 341.237497 185.122877 C 357.237498 185.122877 366.602082 189.471836 369.336457 198.169753 C 370.73229 201.794753 371.424999 207.61767 371.424999 215.643712 L 371.424999 275.60205 C 371.424999 284.971842 374.102082 292.273926 379.456249 297.513509 C 384.805208 302.753093 391.997917 305.372885 401.029167 305.372885 C 410.060418 305.372885 417.362502 302.643718 422.940627 297.180176 C 428.570836 291.659342 431.383336 284.466634 431.383336 275.60205 L 431.383336 214.977046 C 431.383336 209.68017 431.550003 205.721837 431.888544 203.102045 C 432.221878 200.482253 433.31042 197.471836 435.148961 194.070794 C 438.102087 188.107252 446.883337 185.122877 461.487505 185.122877 C 475.872922 185.122877 484.654173 188.216627 487.831256 194.404128 C 489.44584 197.80517 490.419798 200.846836 490.75834 203.518712 C 491.091673 206.138503 491.25834 210.070795 491.25834 215.310379 L 491.25834 336.565595 C 491.25834 341.581221 491.091673 345.398929 490.75834 348.018721 C 490.419798 350.643721 489.336465 353.539555 487.497923 356.716638 C 484.096881 362.685389 475.315631 365.664556 461.154171 365.664556 C 447.21667 365.664556 438.659378 362.935389 435.482295 357.471847 C 433.195836 353.565596 432.055211 348.883304 432.055211 343.419762 C 431.107294 344.982263 429.044794 347.268721 425.867711 350.279138 C 422.685419 353.232263 419.591669 355.74268 416.581252 357.80518 C 408.83646 362.820805 400.388542 365.331222 391.247917 365.331222 Z M 391.247917 365.331222 " stroke="#0e0069" stroke-width="17.126051" stroke-opacity="1" stroke-miterlimit="4"/><g fill="#7668d2" fill-opacity="1"><g transform="translate(32.837515, 278.372677)"><g><path d="M 101.078125 -191.765625 C 102.367188 -194.253906 104.640625 -196.007812 107.890625 -197.03125 C 111.148438 -198.0625 115.472656 -198.578125 120.859375 -198.578125 C 126.253906 -198.578125 130.578125 -198.0625 133.828125 -197.03125 C 137.085938 -196.007812 139.359375 -194.210938 140.640625 -191.640625 C 141.929688 -189.066406 142.703125 -186.796875 142.953125 -184.828125 C 143.210938 -182.859375 143.34375 -179.90625 143.34375 -175.96875 L 143.34375 -22.609375 C 143.34375 -18.671875 143.210938 -15.71875 142.953125 -13.75 C 142.703125 -11.78125 141.890625 -9.59375 140.515625 -7.1875 C 137.953125 -2.5625 130.71875 -0.25 118.8125 -0.25 C 106.90625 -0.25 100.269531 -4.445312 98.90625 -12.84375 C 91.707031 -4.625 81.6875 -0.515625 68.84375 -0.515625 C 53.425781 -0.515625 39.378906 -7.234375 26.703125 -20.671875 C 14.035156 -34.117188 7.703125 -49.789062 7.703125 -67.6875 C 7.703125 -85.582031 14.082031 -101.296875 26.84375 -114.828125 C 39.601562 -128.359375 53.601562 -135.125 68.84375 -135.125 C 81.519531 -135.125 91.367188 -130.84375 98.390625 -122.28125 L 98.390625 -176.234375 C 98.390625 -180.171875 98.515625 -183.125 98.765625 -185.09375 C 99.023438 -187.0625 99.796875 -189.285156 101.078125 -191.765625 Z M 59.328125 -52.140625 C 63.785156 -47.523438 69.179688 -45.21875 75.515625 -45.21875 C 81.859375 -45.21875 87.128906 -47.523438 91.328125 -52.140625 C 95.523438 -56.765625 97.625 -61.859375 97.625 -67.421875 C 97.625 -72.992188 95.609375 -78.175781 91.578125 -82.96875 C 87.554688 -87.769531 82.117188 -90.171875 75.265625 -90.171875 C 68.421875 -90.171875 62.941406 -87.816406 58.828125 -83.109375 C 54.710938 -78.398438 52.65625 -73.21875 52.65625 -67.5625 C 52.65625 -61.90625 54.878906 -56.765625 59.328125 -52.140625 Z M 59.328125 -52.140625 "/></g></g></g><g fill="#7668d2" fill-opacity="1"><g transform="translate(186.457485, 278.372677)"><g><path d="M 70.390625 -0.515625 C 53.085938 -0.515625 38.742188 -7.0625 27.359375 -20.15625 C 15.972656 -33.257812 10.28125 -49.234375 10.28125 -68.078125 L 10.28125 -113.03125 C 10.28125 -117.144531 10.40625 -120.140625 10.65625 -122.015625 C 10.914062 -123.898438 11.644531 -126.128906 12.84375 -128.703125 C 15.238281 -133.328125 21.914062 -135.640625 32.875 -135.640625 C 44.863281 -135.640625 51.890625 -132.382812 53.953125 -125.875 C 54.972656 -123.132812 55.484375 -118.769531 55.484375 -112.78125 L 55.484375 -67.8125 C 55.484375 -60.789062 57.492188 -55.3125 61.515625 -51.375 C 65.546875 -47.4375 70.941406 -45.46875 77.703125 -45.46875 C 84.472656 -45.46875 89.953125 -47.519531 94.140625 -51.625 C 98.335938 -55.738281 100.4375 -61.132812 100.4375 -67.8125 L 100.4375 -113.28125 C 100.4375 -117.226562 100.566406 -120.1875 100.828125 -122.15625 C 101.085938 -124.125 101.898438 -126.390625 103.265625 -128.953125 C 105.492188 -133.410156 112.085938 -135.640625 123.046875 -135.640625 C 133.835938 -135.640625 140.429688 -133.328125 142.828125 -128.703125 C 144.023438 -126.128906 144.753906 -123.859375 145.015625 -121.890625 C 145.273438 -119.921875 145.40625 -116.96875 145.40625 -113.03125 L 145.40625 -22.09375 C 145.40625 -18.320312 145.273438 -15.453125 145.015625 -13.484375 C 144.753906 -11.515625 143.941406 -9.332031 142.578125 -6.9375 C 140.003906 -2.476562 133.410156 -0.25 122.796875 -0.25 C 112.347656 -0.25 105.925781 -2.304688 103.53125 -6.421875 C 101.8125 -9.335938 100.953125 -12.847656 100.953125 -16.953125 C 100.273438 -15.753906 98.734375 -14.039062 96.328125 -11.8125 C 93.929688 -9.59375 91.617188 -7.710938 89.390625 -6.171875 C 83.566406 -2.398438 77.234375 -0.515625 70.390625 -0.515625 Z M 70.390625 -0.515625 "/></g></g></g></svg>