<svg xmlns="http://www.w3.org/2000/svg" xmlns:xlink="http://www.w3.org/1999/xlink" width="500" zoomAndPan="magnify" viewBox="0 0 375 374.999991" height="500" preserveAspectRatio="xMidYMid meet" version="1.0"><defs><g/></defs><path stroke-linecap="butt" transform="matrix(0.75, 0, 0, 0.75, -36.607793, -25.689075)" fill="none" stroke-linejoin="miter" d="M 224.659364 343.423997 C 215.961447 354.79379 202.133321 360.48129 183.180195 360.48129 C 164.227069 360.48129 146.471859 351.757331 129.914566 334.309413 C 113.357274 316.856287 105.076023 296.481286 105.076023 273.179201 C 105.076023 249.877116 113.409357 229.444823 130.081233 211.882322 C 146.747901 194.267738 165.03436 185.455237 184.935403 185.455237 C 192.685404 185.455237 199.737488 186.908362 206.091655 189.804196 C 212.503113 192.647946 216.909364 195.267738 219.305197 197.668779 C 221.701031 200.064613 223.596864 202.29378 224.992698 204.35628 C 225.659364 197.944821 228.003114 193.095863 232.01874 189.804196 C 236.029157 186.460445 242.466657 184.78857 251.331241 184.78857 C 260.253117 184.78857 266.77395 185.486487 270.898951 186.877112 C 275.023951 188.215654 277.924993 190.559404 279.596868 193.903154 C 281.326035 197.194821 282.357285 200.090655 282.690618 202.601071 C 283.023951 205.111488 283.195826 208.98128 283.195826 214.226072 L 283.195826 356.048998 C 283.195826 382.304208 274.049992 403.49171 255.763533 419.601086 C 237.534365 435.71567 216.992697 443.767754 194.133321 443.767754 C 176.794778 443.767754 160.237485 439.533379 144.461442 431.05942 C 128.742691 422.642753 120.883316 415.002127 120.883316 408.14796 C 120.883316 399.226084 124.310399 391.335459 131.164566 384.481292 C 135.513525 379.684416 138.888525 376.366708 141.284359 374.528166 C 143.680192 372.746916 146.471859 371.851083 149.648943 371.851083 C 152.826026 371.851083 156.143735 373.220874 159.59686 375.950041 C 170.523944 384.366708 182.398945 388.58025 195.221862 388.58025 C 203.862488 388.58025 210.914572 385.147958 216.378114 378.293791 C 221.898947 371.491708 224.659364 363.29379 224.659364 353.705248 Z M 163.695819 273.345868 C 163.695819 280.762535 166.59686 287.450035 172.393736 293.413577 C 178.247903 299.325036 185.326028 302.278161 193.63332 302.278161 C 201.997904 302.278161 208.909363 299.267744 214.372905 293.246911 C 219.836447 287.168785 222.565614 280.538577 222.565614 273.345868 C 222.565614 266.153159 219.945822 259.434409 214.706239 253.194825 C 209.466655 246.892741 202.383321 243.741699 193.466654 243.741699 C 184.544778 243.741699 177.352069 246.835449 171.893736 253.02295 C 166.430194 259.158367 163.695819 265.929201 163.695819 273.345868 Z M 427.789586 204.689613 C 429.128128 191.866696 438.133337 185.455237 454.800004 185.455237 C 463.72188 185.455237 470.357297 186.153154 474.701047 187.548987 C 479.050006 188.939612 482.060423 191.340654 483.732298 194.741696 C 485.461465 198.142738 486.492715 201.179196 486.831256 203.85628 C 487.16459 206.476072 487.331256 210.403155 487.331256 215.647947 L 487.331256 335.47608 C 487.331256 340.772956 487.16459 344.731289 486.831256 347.351081 C 486.492715 349.970873 485.518756 352.98129 483.904173 356.382332 C 480.721881 362.351082 472.919797 365.330249 460.487505 365.330249 C 448.055212 365.330249 439.721878 363.798999 435.482295 360.73129 C 431.247919 357.611498 428.794794 353.095873 428.122919 347.184414 C 419.64896 359.283373 405.544793 365.330249 385.810416 365.330249 C 366.07604 365.330249 347.737497 356.32504 330.78958 338.31983 C 313.893745 320.257329 305.451036 299.298994 305.451036 275.43441 C 305.451036 251.575033 313.951037 230.700032 330.956246 212.804197 C 348.013539 194.851071 366.690624 185.877112 386.982292 185.877112 C 394.789584 185.877112 401.867709 187.241695 408.221876 189.976071 C 414.633335 192.705237 419.091669 195.267738 421.602085 197.668779 C 424.112502 200.064613 426.175002 202.403155 427.789586 204.689613 Z M 365.409373 275.939618 C 365.409373 283.46566 368.362499 290.267744 374.273957 296.340661 C 380.237499 302.361495 387.430208 305.371912 395.846875 305.371912 C 404.320834 305.371912 411.346876 302.309411 416.919793 296.173994 C 422.550002 289.986494 425.367711 283.18441 425.367711 275.772951 C 425.367711 268.356284 422.659377 261.444825 417.253127 255.033367 C 411.904168 248.621908 404.711459 245.413574 395.680209 245.413574 C 386.70625 245.413574 379.398958 248.621908 373.768749 255.033367 C 368.195832 261.444825 365.409373 268.413576 365.409373 275.939618 Z M 365.409373 275.939618 " stroke="#7f3500" stroke-width="17.126051" stroke-opacity="1" stroke-miterlimit="4"/><g fill="#fda769" fill-opacity="1"><g transform="translate(35.802358, 248.810907)"><g><path d="M 96.078125 -16.953125 C 89.566406 -8.390625 79.203125 -4.109375 64.984375 -4.109375 C 50.773438 -4.109375 37.460938 -10.660156 25.046875 -23.765625 C 12.628906 -36.867188 6.421875 -52.148438 6.421875 -69.609375 C 6.421875 -87.078125 12.671875 -102.40625 25.171875 -115.59375 C 37.671875 -128.78125 51.375 -135.375 66.28125 -135.375 C 72.101562 -135.375 77.410156 -134.300781 82.203125 -132.15625 C 86.992188 -130.019531 90.289062 -128.050781 92.09375 -126.25 C 93.894531 -124.457031 95.304688 -122.789062 96.328125 -121.25 C 96.847656 -126.039062 98.601562 -129.675781 101.59375 -132.15625 C 104.59375 -134.644531 109.429688 -135.890625 116.109375 -135.890625 C 122.796875 -135.890625 127.675781 -135.375 130.75 -134.34375 C 133.832031 -133.320312 136.015625 -131.566406 137.296875 -129.078125 C 138.585938 -126.597656 139.359375 -124.414062 139.609375 -122.53125 C 139.867188 -120.65625 140 -117.742188 140 -113.796875 L 140 -7.453125 C 140 12.242188 133.148438 28.128906 119.453125 40.203125 C 105.753906 52.273438 90.34375 58.3125 73.21875 58.3125 C 60.195312 58.3125 47.773438 55.140625 35.953125 48.796875 C 24.140625 42.460938 18.234375 36.726562 18.234375 31.59375 C 18.234375 24.914062 20.804688 19.007812 25.953125 13.875 C 29.203125 10.28125 31.722656 7.796875 33.515625 6.421875 C 35.316406 5.046875 37.414062 4.359375 39.8125 4.359375 C 42.21875 4.359375 44.703125 5.390625 47.265625 7.453125 C 55.484375 13.785156 64.390625 16.953125 73.984375 16.953125 C 80.492188 16.953125 85.800781 14.382812 89.90625 9.25 C 94.019531 4.113281 96.078125 -2.050781 96.078125 -9.25 Z M 50.34375 -69.484375 C 50.34375 -63.921875 52.523438 -58.910156 56.890625 -54.453125 C 61.265625 -50.003906 66.578125 -47.78125 72.828125 -47.78125 C 79.078125 -47.78125 84.253906 -50.046875 88.359375 -54.578125 C 92.472656 -59.117188 94.53125 -64.085938 94.53125 -69.484375 C 94.53125 -74.878906 92.5625 -79.929688 88.625 -84.640625 C 84.6875 -89.347656 79.378906 -91.703125 72.703125 -91.703125 C 66.023438 -91.703125 60.628906 -89.390625 56.515625 -84.765625 C 52.398438 -80.148438 50.34375 -75.054688 50.34375 -69.484375 Z M 50.34375 -69.484375 "/></g></g></g><g fill="#fda769" fill-opacity="1"><g transform="translate(186.082766, 248.810907)"><g><path d="M 98.125 -121 C 99.15625 -130.582031 105.921875 -135.375 118.421875 -135.375 C 125.097656 -135.375 130.0625 -134.859375 133.3125 -133.828125 C 136.570312 -132.804688 138.84375 -131.007812 140.125 -128.4375 C 141.414062 -125.875 142.1875 -123.609375 142.4375 -121.640625 C 142.695312 -119.671875 142.828125 -116.71875 142.828125 -112.78125 L 142.828125 -22.859375 C 142.828125 -18.921875 142.695312 -15.96875 142.4375 -14 C 142.1875 -12.03125 141.460938 -9.757812 140.265625 -7.1875 C 137.867188 -2.738281 132.003906 -0.515625 122.671875 -0.515625 C 113.335938 -0.515625 107.082031 -1.671875 103.90625 -3.984375 C 100.738281 -6.296875 98.898438 -9.675781 98.390625 -14.125 C 92.054688 -5.050781 81.476562 -0.515625 66.65625 -0.515625 C 51.84375 -0.515625 38.097656 -7.28125 25.421875 -20.8125 C 12.753906 -34.34375 6.421875 -50.054688 6.421875 -67.953125 C 6.421875 -85.847656 12.800781 -101.515625 25.5625 -114.953125 C 38.320312 -128.398438 52.320312 -135.125 67.5625 -135.125 C 73.382812 -135.125 78.691406 -134.09375 83.484375 -132.03125 C 88.285156 -129.976562 91.625 -128.050781 93.5 -126.25 C 95.382812 -124.457031 96.925781 -122.707031 98.125 -121 Z M 51.375 -67.5625 C 51.375 -61.90625 53.597656 -56.804688 58.046875 -52.265625 C 62.503906 -47.734375 67.898438 -45.46875 74.234375 -45.46875 C 80.578125 -45.46875 85.84375 -47.78125 90.03125 -52.40625 C 94.226562 -57.03125 96.328125 -62.125 96.328125 -67.6875 C 96.328125 -73.257812 94.316406 -78.441406 90.296875 -83.234375 C 86.273438 -88.023438 80.878906 -90.421875 74.109375 -90.421875 C 67.347656 -90.421875 61.867188 -88.023438 57.671875 -83.234375 C 53.472656 -78.441406 51.375 -73.21875 51.375 -67.5625 Z M 51.375 -67.5625 "/></g></g></g></svg>