<svg xmlns="http://www.w3.org/2000/svg" xmlns:xlink="http://www.w3.org/1999/xlink" width="500" zoomAndPan="magnify" viewBox="0 0 375 374.999991" height="500" preserveAspectRatio="xMidYMid meet" version="1.0"><defs><g/></defs><path stroke-linecap="butt" transform="matrix(0.75, 0, 0, 0.75, -36.607793, -25.68908)" fill="none" stroke-linejoin="miter" d="M 228.596864 343.424005 C 219.898947 354.793797 206.070821 360.481298 187.117695 360.481298 C 168.164569 360.481298 150.409359 351.757339 133.852067 334.309421 C 117.294774 316.856295 109.013523 296.481293 109.013523 273.179208 C 109.013523 249.877124 117.346857 229.444831 134.018733 211.882329 C 150.685401 194.267745 168.971861 185.455244 188.872904 185.455244 C 196.622904 185.455244 203.674988 186.908369 210.029155 189.804203 C 216.440614 192.647953 220.846864 195.267745 223.242697 197.668787 C 225.638531 200.06462 227.534364 202.293787 228.930198 204.356287 C 229.596865 197.944829 231.940615 193.09587 235.95624 189.804203 C 239.966657 186.460453 246.404157 184.788578 255.268741 184.788578 C 264.190617 184.788578 270.711451 185.486494 274.836451 186.877119 C 278.961451 188.215661 281.862493 190.559411 283.534368 193.903162 C 285.263535 197.194828 286.294785 200.090662 286.628118 202.601079 C 286.961452 205.111496 287.133327 208.981288 287.133327 214.22608 L 287.133327 356.049006 C 287.133327 382.304216 277.987493 403.491717 259.701033 419.601093 C 241.471865 435.715677 220.930197 443.767761 198.070821 443.767761 C 180.732278 443.767761 164.174985 439.533386 148.398943 431.059427 C 132.680191 422.64276 124.820816 415.002134 124.820816 408.147967 C 124.820816 399.226092 128.2479 391.335466 135.102067 384.481299 C 139.451025 379.684424 142.826025 376.366715 145.221859 374.528173 C 147.617692 372.746923 150.409359 371.85109 153.586443 371.85109 C 156.763526 371.85109 160.081235 373.220882 163.53436 375.950049 C 174.461444 384.366716 186.336445 388.580258 199.159363 388.580258 C 207.799988 388.580258 214.852072 385.147966 220.315614 378.293799 C 225.836448 371.491715 228.596864 363.293798 228.596864 353.705255 Z M 167.633319 273.345875 C 167.633319 280.762542 170.534361 287.450043 176.331236 293.413585 C 182.185403 299.325044 189.263529 302.278169 197.570821 302.278169 C 205.935405 302.278169 212.846863 299.267752 218.310405 293.246918 C 223.773947 287.168793 226.503114 280.538584 226.503114 273.345875 C 226.503114 266.153166 223.883322 259.434416 218.643739 253.194832 C 213.404155 246.892748 206.320821 243.741707 197.404154 243.741707 C 188.482278 243.741707 181.28957 246.835457 175.831236 253.022957 C 170.367694 259.158374 167.633319 265.929208 167.633319 273.345875 Z M 488.591673 254.194832 C 488.591673 268.246916 485.107298 278.64275 478.138548 285.387543 C 471.169797 292.075043 463.451047 295.424002 454.977088 295.424002 L 373.779166 295.424002 C 373.779166 301.83546 377.539583 307.210461 385.065625 311.559419 C 392.648959 315.908378 400.201042 318.085461 407.727085 318.085461 C 420.997919 318.085461 431.393753 316.689628 438.919795 313.903169 L 442.68542 312.564628 C 448.143754 310.054211 452.716671 308.804211 456.398963 308.804211 C 463.701047 308.804211 469.97188 313.929211 475.211464 324.189628 C 478.164589 330.377129 479.643756 335.642754 479.643756 339.991713 C 479.643756 360.283381 455.336463 370.434423 406.727084 370.434423 C 389.83125 370.434423 374.810416 367.533381 361.654165 361.736506 C 348.549997 355.882339 338.32083 348.15838 330.961455 338.569838 C 316.581245 320.116712 309.388536 299.465669 309.388536 276.606292 C 309.388536 247.840665 318.695829 224.845872 337.315622 207.616704 C 355.935414 190.335453 379.185416 181.694827 407.060418 181.694827 C 438.77917 181.694827 462.055213 192.897953 476.883339 215.309413 C 484.690631 227.184414 488.591673 240.147956 488.591673 254.194832 Z M 416.258335 264.231291 C 424.956252 264.231291 429.305211 260.580249 429.305211 253.278165 C 429.305211 248.033373 427.294794 243.82504 423.284377 240.647956 C 419.326044 237.470873 413.612502 235.882331 406.138543 235.882331 C 398.727084 235.882331 391.367708 238.91879 384.065625 244.996915 C 376.758333 251.017749 373.107291 257.429207 373.107291 264.231291 Z M 416.258335 264.231291 " stroke="#7f3500" stroke-width="17.126051" stroke-opacity="1" stroke-miterlimit="4"/><g fill="#fda769" fill-opacity="1"><g transform="translate(38.755483, 248.810902)"><g><path d="M 96.078125 -16.953125 C 89.566406 -8.390625 79.203125 -4.109375 64.984375 -4.109375 C 50.773438 -4.109375 37.460938 -10.660156 25.046875 -23.765625 C 12.628906 -36.867188 6.421875 -52.148438 6.421875 -69.609375 C 6.421875 -87.078125 12.671875 -102.40625 25.171875 -115.59375 C 37.671875 -128.78125 51.375 -135.375 66.28125 -135.375 C 72.101562 -135.375 77.410156 -134.300781 82.203125 -132.15625 C 86.992188 -130.019531 90.289062 -128.050781 92.09375 -126.25 C 93.894531 -124.457031 95.304688 -122.789062 96.328125 -121.25 C 96.847656 -126.039062 98.601562 -129.675781 101.59375 -132.15625 C 104.59375 -134.644531 109.429688 -135.890625 116.109375 -135.890625 C 122.796875 -135.890625 127.675781 -135.375 130.75 -134.34375 C 133.832031 -133.320312 136.015625 -131.566406 137.296875 -129.078125 C 138.585938 -126.597656 139.359375 -124.414062 139.609375 -122.53125 C 139.867188 -120.65625 140 -117.742188 140 -113.796875 L 140 -7.453125 C 140 12.242188 133.148438 28.128906 119.453125 40.203125 C 105.753906 52.273438 90.34375 58.3125 73.21875 58.3125 C 60.195312 58.3125 47.773438 55.140625 35.953125 48.796875 C 24.140625 42.460938 18.234375 36.726562 18.234375 31.59375 C 18.234375 24.914062 20.804688 19.007812 25.953125 13.875 C 29.203125 10.28125 31.722656 7.796875 33.515625 6.421875 C 35.316406 5.046875 37.414062 4.359375 39.8125 4.359375 C 42.21875 4.359375 44.703125 5.390625 47.265625 7.453125 C 55.484375 13.785156 64.390625 16.953125 73.984375 16.953125 C 80.492188 16.953125 85.800781 14.382812 89.90625 9.25 C 94.019531 4.113281 96.078125 -2.050781 96.078125 -9.25 Z M 50.34375 -69.484375 C 50.34375 -63.921875 52.523438 -58.910156 56.890625 -54.453125 C 61.265625 -50.003906 66.578125 -47.78125 72.828125 -47.78125 C 79.078125 -47.78125 84.253906 -50.046875 88.359375 -54.578125 C 92.472656 -59.117188 94.53125 -64.085938 94.53125 -69.484375 C 94.53125 -74.878906 92.5625 -79.929688 88.625 -84.640625 C 84.6875 -89.347656 79.378906 -91.703125 72.703125 -91.703125 C 66.023438 -91.703125 60.628906 -89.390625 56.515625 -84.765625 C 52.398438 -80.148438 50.34375 -75.054688 50.34375 -69.484375 Z M 50.34375 -69.484375 "/></g></g></g><g fill="#fda769" fill-opacity="1"><g transform="translate(189.035891, 248.810902)"><g><path d="M 140.78125 -83.875 C 140.78125 -73.34375 138.164062 -65.550781 132.9375 -60.5 C 127.71875 -55.445312 121.9375 -52.921875 115.59375 -52.921875 L 54.71875 -52.921875 C 54.71875 -48.117188 57.539062 -44.09375 63.1875 -40.84375 C 68.84375 -37.59375 74.5 -35.96875 80.15625 -35.96875 C 90.082031 -35.96875 97.875 -36.992188 103.53125 -39.046875 L 106.359375 -40.078125 C 110.460938 -41.960938 113.882812 -42.90625 116.625 -42.90625 C 122.101562 -42.90625 126.8125 -39.050781 130.75 -31.34375 C 132.976562 -26.71875 134.09375 -22.78125 134.09375 -19.53125 C 134.09375 -4.28125 115.851562 3.34375 79.375 3.34375 C 66.707031 3.34375 55.445312 1.160156 45.59375 -3.203125 C 35.75 -7.578125 28.085938 -13.359375 22.609375 -20.546875 C 11.816406 -34.421875 6.421875 -49.921875 6.421875 -67.046875 C 6.421875 -88.628906 13.398438 -105.882812 27.359375 -118.8125 C 41.316406 -131.738281 58.742188 -138.203125 79.640625 -138.203125 C 103.441406 -138.203125 120.910156 -129.8125 132.046875 -113.03125 C 137.867188 -104.125 140.78125 -94.40625 140.78125 -83.875 Z M 86.578125 -76.296875 C 93.078125 -76.296875 96.328125 -79.035156 96.328125 -84.515625 C 96.328125 -88.453125 94.828125 -91.617188 91.828125 -94.015625 C 88.835938 -96.421875 84.554688 -97.625 78.984375 -97.625 C 73.421875 -97.625 67.898438 -95.351562 62.421875 -90.8125 C 56.941406 -86.269531 54.203125 -81.429688 54.203125 -76.296875 Z M 86.578125 -76.296875 "/></g></g></g></svg>