<svg xmlns="http://www.w3.org/2000/svg" xmlns:xlink="http://www.w3.org/1999/xlink" width="500" zoomAndPan="magnify" viewBox="0 0 375 374.999991" height="500" preserveAspectRatio="xMidYMid meet" version="1.0"><defs><g/></defs><path stroke-linecap="butt" transform="matrix(0.75, 0, 0, 0.75, -36.607793, -25.68908)" fill="none" stroke-linejoin="miter" d="M 283.049993 343.424005 C 274.352076 354.793797 260.52395 360.481298 241.570824 360.481298 C 222.617697 360.481298 204.862488 351.757339 188.305195 334.309421 C 171.747902 316.856295 163.466652 296.481293 163.466652 273.179208 C 163.466652 249.877124 171.799986 229.444831 188.471862 211.882329 C 205.13853 194.267745 223.424989 185.455244 243.326032 185.455244 C 251.076033 185.455244 258.128116 186.908369 264.482283 189.804203 C 270.893742 192.647953 275.299993 195.267745 277.695826 197.668787 C 280.09166 200.06462 281.987493 202.293787 283.383326 204.356287 C 284.049993 197.944829 286.393743 193.09587 290.409369 189.804203 C 294.419785 186.460453 300.857286 184.788578 309.72187 184.788578 C 318.643745 184.788578 325.164579 185.486494 329.289579 186.877119 C 333.41458 188.215661 336.315622 190.559411 337.987497 193.903162 C 339.716663 197.194828 340.747913 200.090662 341.081247 202.601079 C 341.41458 205.111496 341.586455 208.981288 341.586455 214.22608 L 341.586455 356.049006 C 341.586455 382.304216 332.440621 403.491717 314.154162 419.601093 C 295.924994 435.715677 275.383326 443.767761 252.523949 443.767761 C 235.185407 443.767761 218.628114 439.533386 202.852071 431.059427 C 187.13332 422.64276 179.273945 415.002134 179.273945 408.147967 C 179.273945 399.226092 182.701028 391.335466 189.555195 384.481299 C 193.904154 379.684424 197.279154 376.366715 199.674988 374.528173 C 202.070821 372.746923 204.862488 371.85109 208.039571 371.85109 C 211.216655 371.85109 214.534364 373.220882 217.987489 375.950049 C 228.914573 384.366716 240.789574 388.580258 253.612491 388.580258 C 262.253117 388.580258 269.3052 385.147966 274.768742 378.293799 C 280.289576 371.491715 283.049993 363.293798 283.049993 353.705255 Z M 222.086447 273.345875 C 222.086447 280.762542 224.987489 287.450043 230.784365 293.413585 C 236.638532 299.325044 243.716657 302.278169 252.023949 302.278169 C 260.388533 302.278169 267.299992 299.267752 272.763534 293.246918 C 278.227076 287.168793 280.956243 280.538584 280.956243 273.345875 C 280.956243 266.153166 278.336451 259.434416 273.096867 253.194832 C 267.857284 246.892748 260.77395 243.741707 251.857283 243.741707 C 242.935407 243.741707 235.742698 246.835457 230.284365 253.022957 C 224.820823 259.158374 222.086447 265.929208 222.086447 273.345875 Z M 369.023957 215.647955 C 369.023957 210.403163 369.190624 206.476079 369.529165 203.856287 C 369.862499 201.179204 370.836457 198.142745 372.456249 194.741703 C 375.633332 188.830245 384.523958 185.877119 399.128126 185.877119 C 410.112501 185.877119 417.888544 187.798995 422.461461 191.647953 C 426.305211 194.825037 428.367711 199.731287 428.648961 206.361496 C 428.872919 208.647954 428.982294 211.965663 428.982294 216.314621 L 428.982294 336.231296 C 428.982294 341.47088 428.789586 345.403172 428.398961 348.022963 C 428.065628 350.642755 427.003127 353.679214 425.221877 357.137547 C 422.211461 363.043798 413.39896 366.002131 398.794792 366.002131 C 384.414583 366.002131 375.633332 362.908381 372.456249 356.715672 C 370.836457 353.31463 369.862499 350.361505 369.529165 347.856297 C 369.190624 345.34588 369.023957 341.361505 369.023957 335.897963 Z M 425.305211 152.090659 C 423.633336 155.382326 420.622919 157.720868 416.27396 159.116701 C 411.925001 160.512534 406.154168 161.205243 398.961459 161.205243 C 391.76875 161.205243 386.003125 160.512534 381.654166 159.116701 C 377.362499 157.720868 374.352082 155.325034 372.622916 151.923992 C 370.893749 148.52295 369.862499 145.512533 369.529165 142.892742 C 369.190624 140.215658 369.023957 136.257324 369.023957 131.017741 C 369.023957 125.778157 369.190624 121.851074 369.529165 119.226073 C 369.862499 116.606282 370.836457 113.679198 372.456249 110.450031 C 375.633332 104.314614 384.523958 101.246906 399.128126 101.246906 C 413.513543 101.246906 422.211461 104.314614 425.221877 110.450031 C 427.003127 113.903156 428.065628 116.944823 428.398961 119.564615 C 428.789586 122.184407 428.982294 126.11149 428.982294 131.356282 C 428.982294 136.595866 428.789586 140.5542 428.398961 143.226075 C 428.065628 145.845867 427.034377 148.8042 425.305211 152.090659 Z M 425.305211 152.090659 " stroke="#7f3500" stroke-width="17.126051" stroke-opacity="1" stroke-miterlimit="4"/><g fill="#fda769" fill-opacity="1"><g transform="translate(79.595324, 248.810902)"><g><path d="M 96.078125 -16.953125 C 89.566406 -8.390625 79.203125 -4.109375 64.984375 -4.109375 C 50.773438 -4.109375 37.460938 -10.660156 25.046875 -23.765625 C 12.628906 -36.867188 6.421875 -52.148438 6.421875 -69.609375 C 6.421875 -87.078125 12.671875 -102.40625 25.171875 -115.59375 C 37.671875 -128.78125 51.375 -135.375 66.28125 -135.375 C 72.101562 -135.375 77.410156 -134.300781 82.203125 -132.15625 C 86.992188 -130.019531 90.289062 -128.050781 92.09375 -126.25 C 93.894531 -124.457031 95.304688 -122.789062 96.328125 -121.25 C 96.847656 -126.039062 98.601562 -129.675781 101.59375 -132.15625 C 104.59375 -134.644531 109.429688 -135.890625 116.109375 -135.890625 C 122.796875 -135.890625 127.675781 -135.375 130.75 -134.34375 C 133.832031 -133.320312 136.015625 -131.566406 137.296875 -129.078125 C 138.585938 -126.597656 139.359375 -124.414062 139.609375 -122.53125 C 139.867188 -120.65625 140 -117.742188 140 -113.796875 L 140 -7.453125 C 140 12.242188 133.148438 28.128906 119.453125 40.203125 C 105.753906 52.273438 90.34375 58.3125 73.21875 58.3125 C 60.195312 58.3125 47.773438 55.140625 35.953125 48.796875 C 24.140625 42.460938 18.234375 36.726562 18.234375 31.59375 C 18.234375 24.914062 20.804688 19.007812 25.953125 13.875 C 29.203125 10.28125 31.722656 7.796875 33.515625 6.421875 C 35.316406 5.046875 37.414062 4.359375 39.8125 4.359375 C 42.21875 4.359375 44.703125 5.390625 47.265625 7.453125 C 55.484375 13.785156 64.390625 16.953125 73.984375 16.953125 C 80.492188 16.953125 85.800781 14.382812 89.90625 9.25 C 94.019531 4.113281 96.078125 -2.050781 96.078125 -9.25 Z M 50.34375 -69.484375 C 50.34375 -63.921875 52.523438 -58.910156 56.890625 -54.453125 C 61.265625 -50.003906 66.578125 -47.78125 72.828125 -47.78125 C 79.078125 -47.78125 84.253906 -50.046875 88.359375 -54.578125 C 92.472656 -59.117188 94.53125 -64.085938 94.53125 -69.484375 C 94.53125 -74.878906 92.5625 -79.929688 88.625 -84.640625 C 84.6875 -89.347656 79.378906 -91.703125 72.703125 -91.703125 C 66.023438 -91.703125 60.628906 -89.390625 56.515625 -84.765625 C 52.398438 -80.148438 50.34375 -75.054688 50.34375 -69.484375 Z M 50.34375 -69.484375 "/></g></g></g><g fill="#fda769" fill-opacity="1"><g transform="translate(229.875732, 248.810902)"><g><path d="M 10.28125 -112.78125 C 10.28125 -116.71875 10.40625 -119.671875 10.65625 -121.640625 C 10.914062 -123.609375 11.644531 -125.875 12.84375 -128.4375 C 15.238281 -132.894531 21.914062 -135.125 32.875 -135.125 C 41.101562 -135.125 46.925781 -133.664062 50.34375 -130.75 C 53.257812 -128.351562 54.800781 -124.675781 54.96875 -119.71875 C 55.144531 -118 55.234375 -115.515625 55.234375 -112.265625 L 55.234375 -22.34375 C 55.234375 -18.40625 55.101562 -15.453125 54.84375 -13.484375 C 54.582031 -11.515625 53.769531 -9.242188 52.40625 -6.671875 C 50.175781 -2.222656 43.582031 0 32.625 0 C 21.832031 0 15.238281 -2.3125 12.84375 -6.9375 C 11.644531 -9.507812 10.914062 -11.734375 10.65625 -13.609375 C 10.40625 -15.492188 10.28125 -18.492188 10.28125 -22.609375 Z M 52.53125 -160.421875 C 51.25 -157.941406 48.976562 -156.1875 45.71875 -155.15625 C 42.46875 -154.132812 38.144531 -153.625 32.75 -153.625 C 27.351562 -153.625 23.03125 -154.132812 19.78125 -155.15625 C 16.53125 -156.1875 14.257812 -157.984375 12.96875 -160.546875 C 11.6875 -163.117188 10.914062 -165.390625 10.65625 -167.359375 C 10.40625 -169.328125 10.28125 -172.28125 10.28125 -176.21875 C 10.28125 -180.164062 10.40625 -183.125 10.65625 -185.09375 C 10.914062 -187.0625 11.644531 -189.242188 12.84375 -191.640625 C 15.238281 -196.265625 21.914062 -198.578125 32.875 -198.578125 C 43.664062 -198.578125 50.175781 -196.265625 52.40625 -191.640625 C 53.769531 -189.066406 54.582031 -186.796875 54.84375 -184.828125 C 55.101562 -182.859375 55.234375 -179.90625 55.234375 -175.96875 C 55.234375 -172.03125 55.101562 -169.078125 54.84375 -167.109375 C 54.582031 -165.140625 53.8125 -162.910156 52.53125 -160.421875 Z M 52.53125 -160.421875 "/></g></g></g></svg>