<svg xmlns="http://www.w3.org/2000/svg" xmlns:xlink="http://www.w3.org/1999/xlink" width="500" zoomAndPan="magnify" viewBox="0 0 375 374.999991" height="500" preserveAspectRatio="xMidYMid meet" version="1.0"><defs><g/></defs><path stroke-linecap="butt" transform="matrix(0.75, 0, 0, 0.75, -36.607793, -25.689022)" fill="none" stroke-linejoin="miter" d="M 223.971864 343.423927 C 215.273947 354.793719 201.445821 360.481219 182.492695 360.481219 C 163.539569 360.481219 145.784359 351.757261 129.227066 334.309343 C 112.669774 316.856217 104.388523 296.481215 104.388523 273.17913 C 104.388523 249.877046 112.721857 229.444753 129.393733 211.882251 C 146.060401 194.267667 164.34686 185.460375 184.247903 185.460375 C 191.997904 185.460375 199.049988 186.908291 205.404155 189.804125 C 211.815613 192.647875 216.221864 195.267667 218.617697 197.668709 C 221.013531 200.064542 222.909364 202.293709 224.305198 204.356209 C 224.971864 197.94475 227.315614 193.095792 231.33124 189.804125 C 235.341657 186.460375 241.779157 184.7885 250.643741 184.7885 C 259.565616 184.7885 266.08645 185.486416 270.211451 186.877041 C 274.336451 188.215583 277.237493 190.559333 278.909368 193.903084 C 280.638535 197.19475 281.669785 200.090584 282.003118 202.601001 C 282.336451 205.111418 282.508326 208.98121 282.508326 214.226002 L 282.508326 356.048927 C 282.508326 382.304138 273.362492 403.491639 255.076033 419.601015 C 236.846865 435.715599 216.305197 443.767683 193.44582 443.767683 C 176.107278 443.767683 159.549985 439.533308 143.773942 431.059349 C 128.055191 422.642682 120.195816 415.002056 120.195816 408.147889 C 120.195816 399.226014 123.622899 391.335388 130.477066 384.481221 C 134.826025 379.684346 138.201025 376.371845 140.596859 374.528095 C 142.992692 372.746845 145.784359 371.851012 148.961443 371.851012 C 152.138526 371.851012 155.456235 373.220804 158.90936 375.94997 C 169.836444 384.366638 181.711445 388.58018 194.534362 388.58018 C 203.174988 388.58018 210.227072 385.147888 215.690614 378.293721 C 221.211447 371.491637 223.971864 363.29372 223.971864 353.705177 Z M 163.008318 273.345797 C 163.008318 280.762464 165.90936 287.449965 171.706236 293.413507 C 177.560403 299.324965 184.638528 302.278091 192.94582 302.278091 C 201.310404 302.278091 208.221863 299.267674 213.685405 293.24684 C 219.148947 287.173923 221.878114 280.538506 221.878114 273.345797 C 221.878114 266.153088 219.258322 259.434338 214.018739 253.194754 C 208.779155 246.89267 201.695821 243.741628 192.779154 243.741628 C 183.857278 243.741628 176.664569 246.835379 171.206236 253.022879 C 165.742694 259.158296 163.008318 265.92913 163.008318 273.345797 Z M 304.763536 275.939547 C 304.763536 248.507254 314.352078 225.903086 333.529163 208.121834 C 352.763539 190.278083 374.701041 181.361416 399.341667 181.361416 C 423.982294 181.361416 445.77917 190.226 464.732297 207.949959 C 483.690631 225.627044 493.16459 248.17392 493.16459 275.601006 C 493.16459 294.55934 488.25834 311.392675 478.445839 326.111426 C 468.638547 340.830176 456.706254 351.673927 442.659379 358.642678 C 428.607294 365.611428 414.029168 369.095803 398.919792 369.095803 C 383.867708 369.095803 369.26354 365.38747 355.102081 357.970803 C 340.997914 350.559344 329.070829 339.60101 319.31562 325.106217 C 309.612495 310.559341 304.763536 294.168715 304.763536 275.939547 Z M 376.341666 300.439549 C 383.701041 306.012466 391.14375 308.804133 398.669792 308.804133 C 406.195834 308.804133 413.721877 305.960383 421.247919 300.272882 C 428.773961 294.52809 432.539586 286.085381 432.539586 274.934339 C 432.539586 263.731213 428.997919 255.392671 421.919794 249.929129 C 414.83646 244.413503 407.175001 241.653087 398.919792 241.653087 C 390.727083 241.653087 383.091666 244.522879 376.008332 250.267671 C 368.930207 255.949963 365.38854 264.340588 365.38854 275.434339 C 365.38854 286.476006 369.039582 294.80934 376.341666 300.439549 Z M 376.341666 300.439549 " stroke="#7f3500" stroke-width="17.126051" stroke-opacity="1" stroke-miterlimit="4"/><g fill="#fda769" fill-opacity="1"><g transform="translate(35.286733, 248.81096)"><g><path d="M 96.078125 -16.953125 C 89.566406 -8.390625 79.203125 -4.109375 64.984375 -4.109375 C 50.773438 -4.109375 37.460938 -10.660156 25.046875 -23.765625 C 12.628906 -36.867188 6.421875 -52.148438 6.421875 -69.609375 C 6.421875 -87.078125 12.671875 -102.40625 25.171875 -115.59375 C 37.671875 -128.78125 51.375 -135.375 66.28125 -135.375 C 72.101562 -135.375 77.410156 -134.300781 82.203125 -132.15625 C 86.992188 -130.019531 90.289062 -128.050781 92.09375 -126.25 C 93.894531 -124.457031 95.304688 -122.789062 96.328125 -121.25 C 96.847656 -126.039062 98.601562 -129.675781 101.59375 -132.15625 C 104.59375 -134.644531 109.429688 -135.890625 116.109375 -135.890625 C 122.796875 -135.890625 127.675781 -135.375 130.75 -134.34375 C 133.832031 -133.320312 136.015625 -131.566406 137.296875 -129.078125 C 138.585938 -126.597656 139.359375 -124.414062 139.609375 -122.53125 C 139.867188 -120.65625 140 -117.742188 140 -113.796875 L 140 -7.453125 C 140 12.242188 133.148438 28.128906 119.453125 40.203125 C 105.753906 52.273438 90.34375 58.3125 73.21875 58.3125 C 60.195312 58.3125 47.773438 55.140625 35.953125 48.796875 C 24.140625 42.460938 18.234375 36.726562 18.234375 31.59375 C 18.234375 24.914062 20.804688 19.007812 25.953125 13.875 C 29.203125 10.28125 31.722656 7.796875 33.515625 6.421875 C 35.316406 5.046875 37.414062 4.359375 39.8125 4.359375 C 42.21875 4.359375 44.703125 5.390625 47.265625 7.453125 C 55.484375 13.785156 64.390625 16.953125 73.984375 16.953125 C 80.492188 16.953125 85.800781 14.382812 89.90625 9.25 C 94.019531 4.113281 96.078125 -2.050781 96.078125 -9.25 Z M 50.34375 -69.484375 C 50.34375 -63.921875 52.523438 -58.910156 56.890625 -54.453125 C 61.265625 -50.003906 66.578125 -47.78125 72.828125 -47.78125 C 79.078125 -47.78125 84.253906 -50.046875 88.359375 -54.578125 C 92.472656 -59.117188 94.53125 -64.085938 94.53125 -69.484375 C 94.53125 -74.878906 92.5625 -79.929688 88.625 -84.640625 C 84.6875 -89.347656 79.378906 -91.703125 72.703125 -91.703125 C 66.023438 -91.703125 60.628906 -89.390625 56.515625 -84.765625 C 52.398438 -80.148438 50.34375 -75.054688 50.34375 -69.484375 Z M 50.34375 -69.484375 "/></g></g></g><g fill="#fda769" fill-opacity="1"><g transform="translate(185.567141, 248.81096)"><g><path d="M 6.421875 -67.5625 C 6.421875 -88.113281 13.613281 -105.066406 28 -118.421875 C 42.382812 -131.785156 58.820312 -138.46875 77.3125 -138.46875 C 95.8125 -138.46875 112.171875 -131.828125 126.390625 -118.546875 C 140.609375 -105.273438 147.71875 -88.363281 147.71875 -67.8125 C 147.71875 -53.601562 144.035156 -40.972656 136.671875 -29.921875 C 129.304688 -18.878906 120.351562 -10.742188 109.8125 -5.515625 C 99.28125 -0.296875 88.363281 2.3125 77.0625 2.3125 C 65.757812 2.3125 54.800781 -0.46875 44.1875 -6.03125 C 33.570312 -11.601562 24.625 -19.828125 17.34375 -30.703125 C 10.0625 -41.578125 6.421875 -53.863281 6.421875 -67.5625 Z M 60.109375 -49.1875 C 65.585938 -45 71.148438 -42.90625 76.796875 -42.90625 C 82.453125 -42.90625 88.109375 -45.046875 93.765625 -49.328125 C 99.421875 -53.609375 102.25 -59.941406 102.25 -68.328125 C 102.25 -76.722656 99.59375 -82.972656 94.28125 -87.078125 C 88.96875 -91.191406 83.226562 -93.25 77.0625 -93.25 C 70.894531 -93.25 65.15625 -91.109375 59.84375 -86.828125 C 54.539062 -82.546875 51.890625 -76.25 51.890625 -67.9375 C 51.890625 -59.632812 54.628906 -53.382812 60.109375 -49.1875 Z M 60.109375 -49.1875 "/></g></g></g></svg>