<svg xmlns="http://www.w3.org/2000/svg" xmlns:xlink="http://www.w3.org/1999/xlink" width="500" zoomAndPan="magnify" viewBox="0 0 375 374.999991" height="500" preserveAspectRatio="xMidYMid meet" version="1.0"><defs><g/></defs><path stroke-linecap="butt" transform="matrix(0.75, 0, 0, 0.75, -36.607793, -25.689022)" fill="none" stroke-linejoin="miter" d="M 222.940614 343.423927 C 214.242697 354.793719 200.414571 360.481219 181.461445 360.481219 C 162.508318 360.481219 144.753109 351.757261 128.195816 334.309343 C 111.638523 316.856217 103.357273 296.481215 103.357273 273.17913 C 103.357273 249.877046 111.690607 229.444753 128.362483 211.882251 C 145.029151 194.267667 163.31561 185.460375 183.216653 185.460375 C 190.966654 185.460375 198.018737 186.908291 204.372905 189.804125 C 210.784363 192.647875 215.190614 195.267667 217.586447 197.668709 C 219.982281 200.064542 221.878114 202.293709 223.273947 204.356209 C 223.940614 197.94475 226.284364 193.095792 230.29999 189.804125 C 234.310407 186.460375 240.747907 184.7885 249.612491 184.7885 C 258.534366 184.7885 265.0552 185.486416 269.1802 186.877041 C 273.305201 188.215583 276.206243 190.559333 277.878118 193.903084 C 279.607284 197.19475 280.638535 200.090584 280.971868 202.601001 C 281.305201 205.111418 281.477076 208.98121 281.477076 214.226002 L 281.477076 356.048927 C 281.477076 382.304138 272.331242 403.491639 254.044783 419.601015 C 235.815615 435.715599 215.273947 443.767683 192.41457 443.767683 C 175.076028 443.767683 158.518735 439.533308 142.742692 431.059349 C 127.023941 422.642682 119.164566 415.002056 119.164566 408.147889 C 119.164566 399.226014 122.591649 391.335388 129.445816 384.481221 C 133.794775 379.684346 137.169775 376.371845 139.565609 374.528095 C 141.961442 372.746845 144.753109 371.851012 147.930192 371.851012 C 151.107276 371.851012 154.424985 373.220804 157.87811 375.94997 C 168.805194 384.366638 180.680195 388.58018 193.503112 388.58018 C 202.143738 388.58018 209.195822 385.147888 214.659364 378.293721 C 220.180197 371.491637 222.940614 363.29372 222.940614 353.705177 Z M 161.977068 273.345797 C 161.977068 280.762464 164.87811 287.449965 170.674986 293.413507 C 176.529153 299.324965 183.607278 302.278091 191.91457 302.278091 C 200.279154 302.278091 207.190613 299.267674 212.654155 293.24684 C 218.117697 287.173923 220.846864 280.538506 220.846864 273.345797 C 220.846864 266.153088 218.227072 259.434338 212.987488 253.194754 C 207.747905 246.89267 200.664571 243.741628 191.747904 243.741628 C 182.826028 243.741628 175.633319 246.835379 170.174986 253.022879 C 164.711444 259.158296 161.977068 265.92913 161.977068 273.345797 Z M 389.029167 365.330178 C 366.003123 365.330178 346.883331 356.606219 331.659371 339.158301 C 316.497912 321.653092 308.914578 300.356216 308.914578 275.267672 L 308.914578 215.309335 C 308.914578 209.79371 309.081245 205.778084 309.419786 203.267667 C 309.75312 200.762459 310.727078 197.804125 312.34687 194.403084 C 315.523954 188.215583 324.414579 185.121833 339.018747 185.121833 C 355.018748 185.121833 364.38854 189.470792 367.117707 198.168709 C 368.51354 201.793709 369.206249 207.616626 369.206249 215.647877 L 369.206249 275.601006 C 369.206249 284.970798 371.883332 292.272882 377.237499 297.512465 C 382.586458 302.752049 389.779167 305.371841 398.810417 305.371841 C 407.841668 305.371841 415.143752 302.642674 420.721877 297.179132 C 426.352086 291.658298 429.164586 284.465589 429.164586 275.601006 L 429.164586 214.976002 C 429.164586 209.679126 429.331253 205.720793 429.669794 203.101001 C 430.003128 200.481209 431.091669 197.470792 432.930211 194.06975 C 435.883336 188.106208 444.664587 185.121833 459.268755 185.121833 C 473.654172 185.121833 482.435423 188.215583 485.612506 194.403084 C 487.22709 197.804125 488.206257 200.845792 488.53959 203.522876 C 488.872923 206.142668 489.03959 210.069751 489.03959 215.309335 L 489.03959 336.564551 C 489.03959 341.580177 488.872923 345.403093 488.53959 348.022885 C 488.206257 350.642677 487.117715 353.538511 485.279173 356.715594 C 481.878131 362.684345 473.096881 365.663511 458.935421 365.663511 C 444.99792 365.663511 436.440628 362.934345 433.263545 357.470803 C 430.977086 353.569761 429.836461 348.887469 429.836461 343.423927 C 428.888544 344.981218 426.826044 347.267677 423.648961 350.278094 C 420.471877 353.231219 417.372919 355.741636 414.362502 357.804136 C 406.617709 362.819761 398.169792 365.330178 389.029167 365.330178 Z M 389.029167 365.330178 " stroke="#7f3500" stroke-width="17.126051" stroke-opacity="1" stroke-miterlimit="4"/><g fill="#fda769" fill-opacity="1"><g transform="translate(34.513296, 248.81096)"><g><path d="M 96.078125 -16.953125 C 89.566406 -8.390625 79.203125 -4.109375 64.984375 -4.109375 C 50.773438 -4.109375 37.460938 -10.660156 25.046875 -23.765625 C 12.628906 -36.867188 6.421875 -52.148438 6.421875 -69.609375 C 6.421875 -87.078125 12.671875 -102.40625 25.171875 -115.59375 C 37.671875 -128.78125 51.375 -135.375 66.28125 -135.375 C 72.101562 -135.375 77.410156 -134.300781 82.203125 -132.15625 C 86.992188 -130.019531 90.289062 -128.050781 92.09375 -126.25 C 93.894531 -124.457031 95.304688 -122.789062 96.328125 -121.25 C 96.847656 -126.039062 98.601562 -129.675781 101.59375 -132.15625 C 104.59375 -134.644531 109.429688 -135.890625 116.109375 -135.890625 C 122.796875 -135.890625 127.675781 -135.375 130.75 -134.34375 C 133.832031 -133.320312 136.015625 -131.566406 137.296875 -129.078125 C 138.585938 -126.597656 139.359375 -124.414062 139.609375 -122.53125 C 139.867188 -120.65625 140 -117.742188 140 -113.796875 L 140 -7.453125 C 140 12.242188 133.148438 28.128906 119.453125 40.203125 C 105.753906 52.273438 90.34375 58.3125 73.21875 58.3125 C 60.195312 58.3125 47.773438 55.140625 35.953125 48.796875 C 24.140625 42.460938 18.234375 36.726562 18.234375 31.59375 C 18.234375 24.914062 20.804688 19.007812 25.953125 13.875 C 29.203125 10.28125 31.722656 7.796875 33.515625 6.421875 C 35.316406 5.046875 37.414062 4.359375 39.8125 4.359375 C 42.21875 4.359375 44.703125 5.390625 47.265625 7.453125 C 55.484375 13.785156 64.390625 16.953125 73.984375 16.953125 C 80.492188 16.953125 85.800781 14.382812 89.90625 9.25 C 94.019531 4.113281 96.078125 -2.050781 96.078125 -9.25 Z M 50.34375 -69.484375 C 50.34375 -63.921875 52.523438 -58.910156 56.890625 -54.453125 C 61.265625 -50.003906 66.578125 -47.78125 72.828125 -47.78125 C 79.078125 -47.78125 84.253906 -50.046875 88.359375 -54.578125 C 92.472656 -59.117188 94.53125 -64.085938 94.53125 -69.484375 C 94.53125 -74.878906 92.5625 -79.929688 88.625 -84.640625 C 84.6875 -89.347656 79.378906 -91.703125 72.703125 -91.703125 C 66.023438 -91.703125 60.628906 -89.390625 56.515625 -84.765625 C 52.398438 -80.148438 50.34375 -75.054688 50.34375 -69.484375 Z M 50.34375 -69.484375 "/></g></g></g><g fill="#fda769" fill-opacity="1"><g transform="translate(184.793703, 248.81096)"><g><path d="M 70.390625 -0.515625 C 53.085938 -0.515625 38.742188 -7.0625 27.359375 -20.15625 C 15.972656 -33.257812 10.28125 -49.234375 10.28125 -68.078125 L 10.28125 -113.03125 C 10.28125 -117.144531 10.40625 -120.140625 10.65625 -122.015625 C 10.914062 -123.898438 11.644531 -126.128906 12.84375 -128.703125 C 15.238281 -133.328125 21.914062 -135.640625 32.875 -135.640625 C 44.863281 -135.640625 51.890625 -132.382812 53.953125 -125.875 C 54.972656 -123.132812 55.484375 -118.769531 55.484375 -112.78125 L 55.484375 -67.8125 C 55.484375 -60.789062 57.492188 -55.3125 61.515625 -51.375 C 65.546875 -47.4375 70.941406 -45.46875 77.703125 -45.46875 C 84.472656 -45.46875 89.953125 -47.519531 94.140625 -51.625 C 98.335938 -55.738281 100.4375 -61.132812 100.4375 -67.8125 L 100.4375 -113.28125 C 100.4375 -117.226562 100.566406 -120.1875 100.828125 -122.15625 C 101.085938 -124.125 101.898438 -126.390625 103.265625 -128.953125 C 105.492188 -133.410156 112.085938 -135.640625 123.046875 -135.640625 C 133.835938 -135.640625 140.429688 -133.328125 142.828125 -128.703125 C 144.023438 -126.128906 144.753906 -123.859375 145.015625 -121.890625 C 145.273438 -119.921875 145.40625 -116.96875 145.40625 -113.03125 L 145.40625 -22.09375 C 145.40625 -18.320312 145.273438 -15.453125 145.015625 -13.484375 C 144.753906 -11.515625 143.941406 -9.332031 142.578125 -6.9375 C 140.003906 -2.476562 133.410156 -0.25 122.796875 -0.25 C 112.347656 -0.25 105.925781 -2.304688 103.53125 -6.421875 C 101.8125 -9.335938 100.953125 -12.847656 100.953125 -16.953125 C 100.273438 -15.753906 98.734375 -14.039062 96.328125 -11.8125 C 93.929688 -9.59375 91.617188 -7.710938 89.390625 -6.171875 C 83.566406 -2.398438 77.234375 -0.515625 70.390625 -0.515625 Z M 70.390625 -0.515625 "/></g></g></g></svg>