<svg xmlns="http://www.w3.org/2000/svg" xmlns:xlink="http://www.w3.org/1999/xlink" width="500" zoomAndPan="magnify" viewBox="0 0 375 374.999991" height="500" preserveAspectRatio="xMidYMid meet" version="1.0"><defs><g/></defs><path stroke-linecap="butt" transform="matrix(0.75, 0, 0, 0.75, -36.607793, 3.940767)" fill="none" stroke-linejoin="miter" d="M 206.836446 186.209198 C 229.638531 186.209198 248.622907 194.881073 263.784367 212.219616 C 279.003118 229.55295 286.612493 250.797743 286.612493 275.93837 L 286.612493 336.230041 C 286.612493 341.469624 286.445827 345.401916 286.112493 348.021708 C 285.77916 350.6415 284.690618 353.677959 282.852076 357.136292 C 279.893743 363.047751 271.112492 366.000876 256.508325 366.000876 C 242.570824 366.000876 233.872906 363.047751 230.419781 357.136292 C 228.633323 353.677959 227.544781 350.584208 227.159364 347.855041 C 226.820823 345.120666 226.654156 340.995666 226.654156 335.480041 L 226.654156 275.605037 C 226.654156 266.235244 224.034364 258.933161 218.79478 253.693577 C 213.555197 248.396702 206.862488 245.750868 198.727071 245.750868 C 190.643737 245.750868 183.50832 248.203993 177.315611 253.110244 C 171.185402 258.016494 167.674985 263.563369 166.779152 269.75087 L 166.779152 336.230041 C 166.779152 341.469624 166.586444 345.401916 166.195819 348.021708 C 165.862485 350.6415 164.799985 353.677959 163.018735 357.136292 C 160.008318 363.047751 151.201026 366.000876 136.59165 366.000876 C 122.211441 366.000876 113.43019 362.907126 110.253107 356.719625 C 108.633315 353.318584 107.659357 350.36025 107.326023 347.855041 C 106.99269 345.344625 106.826023 341.360249 106.826023 335.896707 L 106.826023 131.021694 C 106.826023 125.776902 106.99269 121.849818 107.326023 119.230026 C 107.659357 116.610235 108.633315 113.683151 110.253107 110.448776 C 113.43019 104.313359 122.320816 101.250859 136.930192 101.250859 C 151.310401 101.250859 160.008318 104.313359 163.018735 110.448776 C 164.799985 113.901901 165.862485 116.943568 166.195819 119.56336 C 166.586444 122.183152 166.779152 126.115444 166.779152 131.355027 L 166.779152 207.032116 C 178.154153 193.151906 191.50832 186.209198 206.836446 186.209198 Z M 431.206253 204.693574 C 432.539586 191.870656 441.544795 185.459197 458.211463 185.459197 C 467.133338 185.459197 473.768756 186.157114 478.117714 187.547739 C 482.466673 188.943573 485.47709 191.339406 487.148965 194.740448 C 488.878132 198.14149 489.909382 201.177949 490.242715 203.855032 C 490.576048 206.474824 490.742715 210.407116 490.742715 215.646699 L 490.742715 335.480041 C 490.742715 340.771708 490.576048 344.730041 490.242715 347.349833 C 489.909382 349.974833 488.930215 352.98525 487.315631 356.381084 C 484.138548 362.349834 476.331256 365.329001 463.898963 365.329001 C 451.466671 365.329001 443.133337 363.797751 438.898962 360.730042 C 434.659378 357.61025 432.206253 353.094625 431.539586 347.183166 C 423.065627 359.282126 408.96146 365.329001 389.227083 365.329001 C 369.487499 365.329001 351.148956 356.329 334.201038 338.318583 C 317.310412 320.256081 308.862495 299.297747 308.862495 275.43837 C 308.862495 251.573785 317.362495 230.698784 334.367705 212.802949 C 351.424998 194.849823 370.102082 185.875864 390.39375 185.875864 C 398.201042 185.875864 405.279168 187.240448 411.633335 189.974823 C 418.044794 192.70399 422.508336 195.271698 425.013544 197.667532 C 427.523961 200.063365 429.586461 202.407115 431.206253 204.693574 Z M 368.820832 275.93837 C 368.820832 283.464412 371.773957 290.266496 377.685416 296.339413 C 383.648958 302.360247 390.841667 305.375872 399.258334 305.375872 C 407.732293 305.375872 414.758335 302.308163 420.331252 296.172746 C 425.961461 289.985246 428.779169 283.183162 428.779169 275.771703 C 428.779169 268.355036 426.076044 261.443577 420.669794 255.032119 C 415.315627 248.62066 408.122918 245.417535 399.091667 245.417535 C 390.117708 245.417535 382.815625 248.62066 377.185416 255.032119 C 371.607291 261.443577 368.820832 268.412328 368.820832 275.93837 Z M 368.820832 275.93837 " stroke="#436100" stroke-width="17.126051" stroke-opacity="1" stroke-miterlimit="4"/><g fill="#91c123" fill-opacity="1"><g transform="translate(33.224233, 278.440749)"><g><path d="M 85.28125 -134.875 C 102.414062 -134.875 116.675781 -128.363281 128.0625 -115.34375 C 139.445312 -102.320312 145.140625 -86.394531 145.140625 -67.5625 L 145.140625 -22.34375 C 145.140625 -18.40625 145.007812 -15.453125 144.75 -13.484375 C 144.5 -11.515625 143.6875 -9.242188 142.3125 -6.671875 C 140.09375 -2.222656 133.5 0 122.53125 0 C 112.082031 0 105.578125 -2.222656 103.015625 -6.671875 C 101.640625 -9.242188 100.820312 -11.554688 100.5625 -13.609375 C 100.3125 -15.671875 100.1875 -18.753906 100.1875 -22.859375 L 100.1875 -67.8125 C 100.1875 -74.84375 98.21875 -80.328125 94.28125 -84.265625 C 90.34375 -88.203125 85.332031 -90.171875 79.25 -90.171875 C 73.164062 -90.171875 67.8125 -88.328125 63.1875 -84.640625 C 58.570312 -80.960938 55.921875 -76.8125 55.234375 -72.1875 L 55.234375 -22.34375 C 55.234375 -18.40625 55.101562 -15.453125 54.84375 -13.484375 C 54.582031 -11.515625 53.769531 -9.242188 52.40625 -6.671875 C 50.175781 -2.222656 43.582031 0 32.625 0 C 21.832031 0 15.238281 -2.3125 12.84375 -6.9375 C 11.644531 -9.507812 10.914062 -11.734375 10.65625 -13.609375 C 10.40625 -15.492188 10.28125 -18.492188 10.28125 -22.609375 L 10.28125 -176.234375 C 10.28125 -180.171875 10.40625 -183.125 10.65625 -185.09375 C 10.914062 -187.0625 11.644531 -189.242188 12.84375 -191.640625 C 15.238281 -196.265625 21.914062 -198.578125 32.875 -198.578125 C 43.664062 -198.578125 50.175781 -196.265625 52.40625 -191.640625 C 53.769531 -189.066406 54.582031 -186.796875 54.84375 -184.828125 C 55.101562 -182.859375 55.234375 -179.90625 55.234375 -175.96875 L 55.234375 -119.203125 C 63.796875 -129.648438 73.8125 -134.875 85.28125 -134.875 Z M 85.28125 -134.875 "/></g></g></g><g fill="#91c123" fill-opacity="1"><g transform="translate(188.642426, 278.440749)"><g><path d="M 98.125 -121 C 99.15625 -130.582031 105.921875 -135.375 118.421875 -135.375 C 125.097656 -135.375 130.0625 -134.859375 133.3125 -133.828125 C 136.570312 -132.804688 138.84375 -131.007812 140.125 -128.4375 C 141.414062 -125.875 142.1875 -123.609375 142.4375 -121.640625 C 142.695312 -119.671875 142.828125 -116.71875 142.828125 -112.78125 L 142.828125 -22.859375 C 142.828125 -18.921875 142.695312 -15.96875 142.4375 -14 C 142.1875 -12.03125 141.460938 -9.757812 140.265625 -7.1875 C 137.867188 -2.738281 132.003906 -0.515625 122.671875 -0.515625 C 113.335938 -0.515625 107.082031 -1.671875 103.90625 -3.984375 C 100.738281 -6.296875 98.898438 -9.675781 98.390625 -14.125 C 92.054688 -5.050781 81.476562 -0.515625 66.65625 -0.515625 C 51.84375 -0.515625 38.097656 -7.28125 25.421875 -20.8125 C 12.753906 -34.34375 6.421875 -50.054688 6.421875 -67.953125 C 6.421875 -85.847656 12.800781 -101.515625 25.5625 -114.953125 C 38.320312 -128.398438 52.320312 -135.125 67.5625 -135.125 C 73.382812 -135.125 78.691406 -134.09375 83.484375 -132.03125 C 88.285156 -129.976562 91.625 -128.050781 93.5 -126.25 C 95.382812 -124.457031 96.925781 -122.707031 98.125 -121 Z M 51.375 -67.5625 C 51.375 -61.90625 53.597656 -56.804688 58.046875 -52.265625 C 62.503906 -47.734375 67.898438 -45.46875 74.234375 -45.46875 C 80.578125 -45.46875 85.84375 -47.78125 90.03125 -52.40625 C 94.226562 -57.03125 96.328125 -62.125 96.328125 -67.6875 C 96.328125 -73.257812 94.316406 -78.441406 90.296875 -83.234375 C 86.273438 -88.023438 80.878906 -90.421875 74.109375 -90.421875 C 67.347656 -90.421875 61.867188 -88.023438 57.671875 -83.234375 C 53.472656 -78.441406 51.375 -73.21875 51.375 -67.5625 Z M 51.375 -67.5625 "/></g></g></g></svg>