<svg xmlns="http://www.w3.org/2000/svg" xmlns:xlink="http://www.w3.org/1999/xlink" width="500" zoomAndPan="magnify" viewBox="0 0 375 374.999991" height="500" preserveAspectRatio="xMidYMid meet" version="1.0"><defs><g/></defs><path stroke-linecap="butt" transform="matrix(0.75, 0, 0, 0.75, -36.607793, 3.940752)" fill="none" stroke-linejoin="miter" d="M 210.773947 186.209218 C 233.576031 186.209218 252.560408 194.881094 267.721867 212.219637 C 282.940618 229.552971 290.549994 250.797764 290.549994 275.938391 L 290.549994 336.230061 C 290.549994 341.469645 290.383327 345.401937 290.049993 348.021729 C 289.71666 350.641521 288.628118 353.677979 286.789577 357.136313 C 283.831243 363.047772 275.049993 366.000897 260.445825 366.000897 C 246.508324 366.000897 237.810407 363.047772 234.357282 357.136313 C 232.570823 353.677979 231.482281 350.584229 231.096865 347.855062 C 230.758323 345.120687 230.591656 340.995687 230.591656 335.480061 L 230.591656 275.605058 C 230.591656 266.235265 227.971864 258.933181 222.732281 253.693598 C 217.492697 248.396722 210.799988 245.750889 202.664571 245.750889 C 194.581237 245.750889 187.44582 248.204014 181.253111 253.110264 C 175.122903 258.016515 171.612486 263.56339 170.716652 269.75089 L 170.716652 336.230061 C 170.716652 341.469645 170.523944 345.401937 170.133319 348.021729 C 169.799986 350.641521 168.737486 353.677979 166.956235 357.136313 C 163.945819 363.047772 155.138526 366.000897 140.52915 366.000897 C 126.148941 366.000897 117.36769 362.907147 114.190607 356.719646 C 112.570815 353.318604 111.596857 350.360271 111.263523 347.855062 C 110.93019 345.344645 110.763523 341.36027 110.763523 335.896728 L 110.763523 131.021715 C 110.763523 125.776923 110.93019 121.849839 111.263523 119.230047 C 111.596857 116.610255 112.570815 113.683172 114.190607 110.448797 C 117.36769 104.31338 126.258316 101.250879 140.867692 101.250879 C 155.247901 101.250879 163.945819 104.31338 166.956235 110.448797 C 168.737486 113.901922 169.799986 116.943589 170.133319 119.563381 C 170.523944 122.183172 170.716652 126.115464 170.716652 131.355048 L 170.716652 207.032136 C 182.091653 193.151927 195.445821 186.209218 210.773947 186.209218 Z M 492.003132 254.193598 C 492.003132 268.245682 488.518757 278.641516 481.550006 285.386308 C 474.581256 292.079017 466.862505 295.422767 458.388546 295.422767 L 377.190624 295.422767 C 377.190624 301.834226 380.951041 307.214435 388.477083 311.563393 C 396.060417 315.912352 403.617709 318.084227 411.143751 318.084227 C 424.409377 318.084227 434.805211 316.688394 442.331253 313.901935 L 446.096879 312.563393 C 451.560421 310.058185 456.128129 308.802976 459.810421 308.802976 C 467.112505 308.802976 473.383339 313.933185 478.622923 324.188394 C 481.581256 330.375894 483.055215 335.646728 483.055215 339.995687 C 483.055215 360.287355 458.75313 370.433189 410.138543 370.433189 C 393.247917 370.433189 378.221874 367.532147 365.065623 361.735271 C 351.966664 355.881104 341.732289 348.162354 334.372913 338.573812 C 319.992704 320.120685 312.799995 299.464434 312.799995 276.605058 C 312.799995 247.839431 322.112496 224.844638 340.732288 207.61547 C 359.352081 190.334219 382.596875 181.693593 410.471876 181.693593 C 442.195837 181.693593 465.466672 192.901927 480.300006 215.313387 C 488.10209 227.183179 492.003132 240.146722 492.003132 254.193598 Z M 419.669794 264.230057 C 428.367711 264.230057 432.71667 260.579015 432.71667 253.276931 C 432.71667 248.037347 430.711461 243.829014 426.695836 240.646722 C 422.737502 237.469638 417.02396 235.881097 409.550001 235.881097 C 402.138543 235.881097 394.779167 238.922763 387.477083 244.99568 C 380.174999 251.016514 376.523958 257.427973 376.523958 264.230057 Z M 419.669794 264.230057 " stroke="#436100" stroke-width="17.126051" stroke-opacity="1" stroke-miterlimit="4"/><g fill="#91c123" fill-opacity="1"><g transform="translate(36.177358, 278.440734)"><g><path d="M 85.28125 -134.875 C 102.414062 -134.875 116.675781 -128.363281 128.0625 -115.34375 C 139.445312 -102.320312 145.140625 -86.394531 145.140625 -67.5625 L 145.140625 -22.34375 C 145.140625 -18.40625 145.007812 -15.453125 144.75 -13.484375 C 144.5 -11.515625 143.6875 -9.242188 142.3125 -6.671875 C 140.09375 -2.222656 133.5 0 122.53125 0 C 112.082031 0 105.578125 -2.222656 103.015625 -6.671875 C 101.640625 -9.242188 100.820312 -11.554688 100.5625 -13.609375 C 100.3125 -15.671875 100.1875 -18.753906 100.1875 -22.859375 L 100.1875 -67.8125 C 100.1875 -74.84375 98.21875 -80.328125 94.28125 -84.265625 C 90.34375 -88.203125 85.332031 -90.171875 79.25 -90.171875 C 73.164062 -90.171875 67.8125 -88.328125 63.1875 -84.640625 C 58.570312 -80.960938 55.921875 -76.8125 55.234375 -72.1875 L 55.234375 -22.34375 C 55.234375 -18.40625 55.101562 -15.453125 54.84375 -13.484375 C 54.582031 -11.515625 53.769531 -9.242188 52.40625 -6.671875 C 50.175781 -2.222656 43.582031 0 32.625 0 C 21.832031 0 15.238281 -2.3125 12.84375 -6.9375 C 11.644531 -9.507812 10.914062 -11.734375 10.65625 -13.609375 C 10.40625 -15.492188 10.28125 -18.492188 10.28125 -22.609375 L 10.28125 -176.234375 C 10.28125 -180.171875 10.40625 -183.125 10.65625 -185.09375 C 10.914062 -187.0625 11.644531 -189.242188 12.84375 -191.640625 C 15.238281 -196.265625 21.914062 -198.578125 32.875 -198.578125 C 43.664062 -198.578125 50.175781 -196.265625 52.40625 -191.640625 C 53.769531 -189.066406 54.582031 -186.796875 54.84375 -184.828125 C 55.101562 -182.859375 55.234375 -179.90625 55.234375 -175.96875 L 55.234375 -119.203125 C 63.796875 -129.648438 73.8125 -134.875 85.28125 -134.875 Z M 85.28125 -134.875 "/></g></g></g><g fill="#91c123" fill-opacity="1"><g transform="translate(191.59555, 278.440734)"><g><path d="M 140.78125 -83.875 C 140.78125 -73.34375 138.164062 -65.550781 132.9375 -60.5 C 127.71875 -55.445312 121.9375 -52.921875 115.59375 -52.921875 L 54.71875 -52.921875 C 54.71875 -48.117188 57.539062 -44.09375 63.1875 -40.84375 C 68.84375 -37.59375 74.5 -35.96875 80.15625 -35.96875 C 90.082031 -35.96875 97.875 -36.992188 103.53125 -39.046875 L 106.359375 -40.078125 C 110.460938 -41.960938 113.882812 -42.90625 116.625 -42.90625 C 122.101562 -42.90625 126.8125 -39.050781 130.75 -31.34375 C 132.976562 -26.71875 134.09375 -22.78125 134.09375 -19.53125 C 134.09375 -4.28125 115.851562 3.34375 79.375 3.34375 C 66.707031 3.34375 55.445312 1.160156 45.59375 -3.203125 C 35.75 -7.578125 28.085938 -13.359375 22.609375 -20.546875 C 11.816406 -34.421875 6.421875 -49.921875 6.421875 -67.046875 C 6.421875 -88.628906 13.398438 -105.882812 27.359375 -118.8125 C 41.316406 -131.738281 58.742188 -138.203125 79.640625 -138.203125 C 103.441406 -138.203125 120.910156 -129.8125 132.046875 -113.03125 C 137.867188 -104.125 140.78125 -94.40625 140.78125 -83.875 Z M 86.578125 -76.296875 C 93.078125 -76.296875 96.328125 -79.035156 96.328125 -84.515625 C 96.328125 -88.453125 94.828125 -91.617188 91.828125 -94.015625 C 88.835938 -96.421875 84.554688 -97.625 78.984375 -97.625 C 73.421875 -97.625 67.898438 -95.351562 62.421875 -90.8125 C 56.941406 -86.269531 54.203125 -81.429688 54.203125 -76.296875 Z M 86.578125 -76.296875 "/></g></g></g></svg>