<svg xmlns="http://www.w3.org/2000/svg" xmlns:xlink="http://www.w3.org/1999/xlink" width="500" zoomAndPan="magnify" viewBox="0 0 375 374.999991" height="500" preserveAspectRatio="xMidYMid meet" version="1.0"><defs><g/></defs><path stroke-linecap="butt" transform="matrix(0.75, 0, 0, 0.75, -36.607793, 3.940781)" fill="none" stroke-linejoin="miter" d="M 265.2427 186.209179 C 288.044785 186.209179 307.029161 194.881055 322.190621 212.219598 C 337.409372 229.552932 345.018747 250.797725 345.018747 275.938352 L 345.018747 336.230022 C 345.018747 341.469606 344.85208 345.401898 344.518747 348.02169 C 344.185414 350.641482 343.096872 353.67794 341.25833 357.136274 C 338.299997 363.047733 329.518746 366.000858 314.914578 366.000858 C 300.977078 366.000858 292.27916 363.047733 288.826035 357.136274 C 287.039577 353.67794 285.951035 350.58419 285.565618 347.855023 C 285.227077 345.120648 285.06041 340.995648 285.06041 335.480022 L 285.06041 275.605018 C 285.06041 266.235226 282.440618 258.933142 277.201034 253.693559 C 271.961451 248.396683 265.268742 245.75085 257.133325 245.75085 C 249.049991 245.75085 241.914574 248.203975 235.721865 253.110225 C 229.591656 258.016476 226.081239 263.563351 225.185406 269.750851 L 225.185406 336.230022 C 225.185406 341.469606 224.992698 345.401898 224.602073 348.02169 C 224.268739 350.641482 223.206239 353.67794 221.424989 357.136274 C 218.414572 363.047733 209.60728 366.000858 194.997904 366.000858 C 180.617695 366.000858 171.836444 362.907108 168.659361 356.719607 C 167.039569 353.318565 166.06561 350.360232 165.732277 347.855023 C 165.398944 345.344606 165.232277 341.360231 165.232277 335.896689 L 165.232277 131.021676 C 165.232277 125.776884 165.398944 121.8498 165.732277 119.230008 C 166.06561 116.610216 167.039569 113.683133 168.659361 110.448758 C 171.836444 104.313341 180.72707 101.25084 195.336446 101.25084 C 209.716655 101.25084 218.414572 104.313341 221.424989 110.448758 C 223.206239 113.901883 224.268739 116.94355 224.602073 119.563342 C 224.992698 122.183133 225.185406 126.115425 225.185406 131.355009 L 225.185406 207.032097 C 236.560407 193.151888 249.914574 186.209179 265.2427 186.209179 Z M 372.456249 215.646681 C 372.456249 210.407097 372.622916 206.474806 372.956249 203.855014 C 373.289582 201.17793 374.263541 198.141472 375.883332 194.74043 C 379.060416 188.828971 387.951042 185.875846 402.560418 185.875846 C 413.539585 185.875846 421.315627 187.797721 425.888544 191.64668 C 429.737503 194.823763 431.800003 199.730013 432.076044 206.365431 C 432.300003 208.651889 432.409378 211.964389 432.409378 216.313348 L 432.409378 336.230022 C 432.409378 341.469606 432.216669 345.401898 431.826044 348.02169 C 431.492711 350.641482 430.430211 353.67794 428.648961 357.136274 C 425.638544 363.047733 416.831252 366.000858 402.221876 366.000858 C 387.841667 366.000858 379.060416 362.907108 375.883332 356.719607 C 374.263541 353.318565 373.289582 350.360232 372.956249 347.855023 C 372.622916 345.344606 372.456249 341.360231 372.456249 335.896689 Z M 428.732294 152.094594 C 427.060419 155.381052 424.050002 157.724802 419.701044 159.115427 C 415.352085 160.511261 409.581251 161.209178 402.388543 161.209178 C 395.201042 161.209178 389.430208 160.511261 385.08125 159.115427 C 380.789583 157.724802 377.779166 155.323761 376.049999 151.922719 C 374.320832 148.526885 373.289582 145.516468 372.956249 142.891468 C 372.622916 140.219593 372.456249 136.261259 372.456249 131.021676 C 372.456249 125.776884 372.622916 121.8498 372.956249 119.230008 C 373.289582 116.610216 374.263541 113.683133 375.883332 110.448758 C 379.060416 104.313341 387.951042 101.25084 402.560418 101.25084 C 416.940627 101.25084 425.638544 104.313341 428.648961 110.448758 C 430.430211 113.901883 431.492711 116.94355 431.826044 119.563342 C 432.216669 122.183133 432.409378 126.115425 432.409378 131.355009 C 432.409378 136.594593 432.216669 140.552926 431.826044 143.23001 C 431.492711 145.849802 430.461461 148.802927 428.732294 152.094594 Z M 428.732294 152.094594 " stroke="#436100" stroke-width="17.126051" stroke-opacity="1" stroke-miterlimit="4"/><g fill="#91c123" fill-opacity="1"><g transform="translate(77.028918, 278.440763)"><g><path d="M 85.28125 -134.875 C 102.414062 -134.875 116.675781 -128.363281 128.0625 -115.34375 C 139.445312 -102.320312 145.140625 -86.394531 145.140625 -67.5625 L 145.140625 -22.34375 C 145.140625 -18.40625 145.007812 -15.453125 144.75 -13.484375 C 144.5 -11.515625 143.6875 -9.242188 142.3125 -6.671875 C 140.09375 -2.222656 133.5 0 122.53125 0 C 112.082031 0 105.578125 -2.222656 103.015625 -6.671875 C 101.640625 -9.242188 100.820312 -11.554688 100.5625 -13.609375 C 100.3125 -15.671875 100.1875 -18.753906 100.1875 -22.859375 L 100.1875 -67.8125 C 100.1875 -74.84375 98.21875 -80.328125 94.28125 -84.265625 C 90.34375 -88.203125 85.332031 -90.171875 79.25 -90.171875 C 73.164062 -90.171875 67.8125 -88.328125 63.1875 -84.640625 C 58.570312 -80.960938 55.921875 -76.8125 55.234375 -72.1875 L 55.234375 -22.34375 C 55.234375 -18.40625 55.101562 -15.453125 54.84375 -13.484375 C 54.582031 -11.515625 53.769531 -9.242188 52.40625 -6.671875 C 50.175781 -2.222656 43.582031 0 32.625 0 C 21.832031 0 15.238281 -2.3125 12.84375 -6.9375 C 11.644531 -9.507812 10.914062 -11.734375 10.65625 -13.609375 C 10.40625 -15.492188 10.28125 -18.492188 10.28125 -22.609375 L 10.28125 -176.234375 C 10.28125 -180.171875 10.40625 -183.125 10.65625 -185.09375 C 10.914062 -187.0625 11.644531 -189.242188 12.84375 -191.640625 C 15.238281 -196.265625 21.914062 -198.578125 32.875 -198.578125 C 43.664062 -198.578125 50.175781 -196.265625 52.40625 -191.640625 C 53.769531 -189.066406 54.582031 -186.796875 54.84375 -184.828125 C 55.101562 -182.859375 55.234375 -179.90625 55.234375 -175.96875 L 55.234375 -119.203125 C 63.796875 -129.648438 73.8125 -134.875 85.28125 -134.875 Z M 85.28125 -134.875 "/></g></g></g><g fill="#91c123" fill-opacity="1"><g transform="translate(232.44711, 278.440763)"><g><path d="M 10.28125 -112.78125 C 10.28125 -116.71875 10.40625 -119.671875 10.65625 -121.640625 C 10.914062 -123.609375 11.644531 -125.875 12.84375 -128.4375 C 15.238281 -132.894531 21.914062 -135.125 32.875 -135.125 C 41.101562 -135.125 46.925781 -133.664062 50.34375 -130.75 C 53.257812 -128.351562 54.800781 -124.675781 54.96875 -119.71875 C 55.144531 -118 55.234375 -115.515625 55.234375 -112.265625 L 55.234375 -22.34375 C 55.234375 -18.40625 55.101562 -15.453125 54.84375 -13.484375 C 54.582031 -11.515625 53.769531 -9.242188 52.40625 -6.671875 C 50.175781 -2.222656 43.582031 0 32.625 0 C 21.832031 0 15.238281 -2.3125 12.84375 -6.9375 C 11.644531 -9.507812 10.914062 -11.734375 10.65625 -13.609375 C 10.40625 -15.492188 10.28125 -18.492188 10.28125 -22.609375 Z M 52.53125 -160.421875 C 51.25 -157.941406 48.976562 -156.1875 45.71875 -155.15625 C 42.46875 -154.132812 38.144531 -153.625 32.75 -153.625 C 27.351562 -153.625 23.03125 -154.132812 19.78125 -155.15625 C 16.53125 -156.1875 14.257812 -157.984375 12.96875 -160.546875 C 11.6875 -163.117188 10.914062 -165.390625 10.65625 -167.359375 C 10.40625 -169.328125 10.28125 -172.28125 10.28125 -176.21875 C 10.28125 -180.164062 10.40625 -183.125 10.65625 -185.09375 C 10.914062 -187.0625 11.644531 -189.242188 12.84375 -191.640625 C 15.238281 -196.265625 21.914062 -198.578125 32.875 -198.578125 C 43.664062 -198.578125 50.175781 -196.265625 52.40625 -191.640625 C 53.769531 -189.066406 54.582031 -186.796875 54.84375 -184.828125 C 55.101562 -182.859375 55.234375 -179.90625 55.234375 -175.96875 C 55.234375 -172.03125 55.101562 -169.078125 54.84375 -167.109375 C 54.582031 -165.140625 53.8125 -162.910156 52.53125 -160.421875 Z M 52.53125 -160.421875 "/></g></g></g></svg>