<svg xmlns="http://www.w3.org/2000/svg" xmlns:xlink="http://www.w3.org/1999/xlink" width="500" zoomAndPan="magnify" viewBox="0 0 375 374.999991" height="500" preserveAspectRatio="xMidYMid meet" version="1.0"><defs><g/></defs><path stroke-linecap="butt" transform="matrix(0.75, 0, 0, 0.75, -36.607793, 3.940781)" fill="none" stroke-linejoin="miter" d="M 206.148946 186.209179 C 228.951031 186.209179 247.935407 194.881055 263.096867 212.219598 C 278.315618 229.552932 285.924993 250.797725 285.924993 275.938352 L 285.924993 336.230022 C 285.924993 341.469606 285.758327 345.401898 285.424993 348.02169 C 285.09166 350.641482 284.003118 353.67794 282.164576 357.136274 C 279.206243 363.047733 270.424992 366.000858 255.820825 366.000858 C 241.883324 366.000858 233.185406 363.047733 229.732281 357.136274 C 227.945823 353.67794 226.857281 350.58419 226.471864 347.855023 C 226.133323 345.120648 225.966656 340.995648 225.966656 335.480022 L 225.966656 275.605018 C 225.966656 266.235226 223.346864 258.933142 218.10728 253.693559 C 212.867697 248.396683 206.174988 245.75085 198.039571 245.75085 C 189.956237 245.75085 182.82082 248.203975 176.628111 253.110225 C 170.497902 258.016476 166.987485 263.563351 166.091652 269.750851 L 166.091652 336.230022 C 166.091652 341.469606 165.898944 345.401898 165.508319 348.02169 C 165.174985 350.641482 164.112485 353.67794 162.331235 357.136274 C 159.320818 363.047733 150.513526 366.000858 135.90415 366.000858 C 121.523941 366.000858 112.74269 362.907108 109.565607 356.719607 C 107.945815 353.318565 106.971856 350.360232 106.638523 347.855023 C 106.30519 345.344606 106.138523 341.360231 106.138523 335.896689 L 106.138523 131.021676 C 106.138523 125.776884 106.30519 121.8498 106.638523 119.230008 C 106.971856 116.610216 107.945815 113.683133 109.565607 110.448758 C 112.74269 104.313341 121.633316 101.25084 136.242692 101.25084 C 150.622901 101.25084 159.320818 104.313341 162.331235 110.448758 C 164.112485 113.901883 165.174985 116.94355 165.508319 119.563342 C 165.898944 122.183133 166.091652 126.115425 166.091652 131.355009 L 166.091652 207.032097 C 177.466653 193.151888 190.82082 186.209179 206.148946 186.209179 Z M 308.174995 275.938352 C 308.174995 248.511267 317.763537 225.90189 336.940622 208.120639 C 356.174998 190.282096 378.112499 181.360221 402.753126 181.360221 C 427.393753 181.360221 449.190629 190.224804 468.148964 207.953972 C 487.10209 225.625848 496.576049 248.172725 496.576049 275.605018 C 496.576049 294.558145 491.675007 311.396687 481.862506 326.11023 C 472.050005 340.828981 460.117713 351.672732 446.070837 358.641482 C 432.023961 365.610233 417.440627 369.094608 402.336459 369.094608 C 387.284375 369.094608 372.674999 365.386274 358.518748 357.969607 C 344.41458 350.558148 332.482288 339.605023 322.727079 325.11023 C 313.023953 310.558146 308.174995 294.16752 308.174995 275.938352 Z M 379.758333 300.438353 C 387.117708 306.016479 394.560417 308.802937 402.086459 308.802937 C 409.612501 308.802937 417.138544 305.959187 424.664586 300.271687 C 432.190628 294.532103 435.951045 286.084186 435.951045 274.933143 C 435.951045 263.730018 432.409378 255.396684 425.331252 249.933142 C 418.253127 244.412308 410.58646 241.651891 402.336459 241.651891 C 394.138542 241.651891 386.503125 244.521683 379.424999 250.266475 C 372.341666 255.953975 368.799999 264.344601 368.799999 275.438352 C 368.799999 286.474811 372.456249 294.808145 379.758333 300.438353 Z M 379.758333 300.438353 " stroke="#436100" stroke-width="17.126051" stroke-opacity="1" stroke-miterlimit="4"/><g fill="#91c123" fill-opacity="1"><g transform="translate(32.708608, 278.440763)"><g><path d="M 85.28125 -134.875 C 102.414062 -134.875 116.675781 -128.363281 128.0625 -115.34375 C 139.445312 -102.320312 145.140625 -86.394531 145.140625 -67.5625 L 145.140625 -22.34375 C 145.140625 -18.40625 145.007812 -15.453125 144.75 -13.484375 C 144.5 -11.515625 143.6875 -9.242188 142.3125 -6.671875 C 140.09375 -2.222656 133.5 0 122.53125 0 C 112.082031 0 105.578125 -2.222656 103.015625 -6.671875 C 101.640625 -9.242188 100.820312 -11.554688 100.5625 -13.609375 C 100.3125 -15.671875 100.1875 -18.753906 100.1875 -22.859375 L 100.1875 -67.8125 C 100.1875 -74.84375 98.21875 -80.328125 94.28125 -84.265625 C 90.34375 -88.203125 85.332031 -90.171875 79.25 -90.171875 C 73.164062 -90.171875 67.8125 -88.328125 63.1875 -84.640625 C 58.570312 -80.960938 55.921875 -76.8125 55.234375 -72.1875 L 55.234375 -22.34375 C 55.234375 -18.40625 55.101562 -15.453125 54.84375 -13.484375 C 54.582031 -11.515625 53.769531 -9.242188 52.40625 -6.671875 C 50.175781 -2.222656 43.582031 0 32.625 0 C 21.832031 0 15.238281 -2.3125 12.84375 -6.9375 C 11.644531 -9.507812 10.914062 -11.734375 10.65625 -13.609375 C 10.40625 -15.492188 10.28125 -18.492188 10.28125 -22.609375 L 10.28125 -176.234375 C 10.28125 -180.171875 10.40625 -183.125 10.65625 -185.09375 C 10.914062 -187.0625 11.644531 -189.242188 12.84375 -191.640625 C 15.238281 -196.265625 21.914062 -198.578125 32.875 -198.578125 C 43.664062 -198.578125 50.175781 -196.265625 52.40625 -191.640625 C 53.769531 -189.066406 54.582031 -186.796875 54.84375 -184.828125 C 55.101562 -182.859375 55.234375 -179.90625 55.234375 -175.96875 L 55.234375 -119.203125 C 63.796875 -129.648438 73.8125 -134.875 85.28125 -134.875 Z M 85.28125 -134.875 "/></g></g></g><g fill="#91c123" fill-opacity="1"><g transform="translate(188.126801, 278.440763)"><g><path d="M 6.421875 -67.5625 C 6.421875 -88.113281 13.613281 -105.066406 28 -118.421875 C 42.382812 -131.785156 58.820312 -138.46875 77.3125 -138.46875 C 95.8125 -138.46875 112.171875 -131.828125 126.390625 -118.546875 C 140.609375 -105.273438 147.71875 -88.363281 147.71875 -67.8125 C 147.71875 -53.601562 144.035156 -40.972656 136.671875 -29.921875 C 129.304688 -18.878906 120.351562 -10.742188 109.8125 -5.515625 C 99.28125 -0.296875 88.363281 2.3125 77.0625 2.3125 C 65.757812 2.3125 54.800781 -0.46875 44.1875 -6.03125 C 33.570312 -11.601562 24.625 -19.828125 17.34375 -30.703125 C 10.0625 -41.578125 6.421875 -53.863281 6.421875 -67.5625 Z M 60.109375 -49.1875 C 65.585938 -45 71.148438 -42.90625 76.796875 -42.90625 C 82.453125 -42.90625 88.109375 -45.046875 93.765625 -49.328125 C 99.421875 -53.609375 102.25 -59.941406 102.25 -68.328125 C 102.25 -76.722656 99.59375 -82.972656 94.28125 -87.078125 C 88.96875 -91.191406 83.226562 -93.25 77.0625 -93.25 C 70.894531 -93.25 65.15625 -91.109375 59.84375 -86.828125 C 54.539062 -82.546875 51.890625 -76.25 51.890625 -67.9375 C 51.890625 -59.632812 54.628906 -53.382812 60.109375 -49.1875 Z M 60.109375 -49.1875 "/></g></g></g></svg>