<svg xmlns="http://www.w3.org/2000/svg" xmlns:xlink="http://www.w3.org/1999/xlink" width="500" zoomAndPan="magnify" viewBox="0 0 375 374.999991" height="500" preserveAspectRatio="xMidYMid meet" version="1.0"><defs><g/></defs><path stroke-linecap="butt" transform="matrix(0.75, 0, 0, 0.75, -36.607793, 3.940781)" fill="none" stroke-linejoin="miter" d="M 205.133321 186.209179 C 227.935406 186.209179 246.919782 194.881055 262.081242 212.219598 C 277.299993 229.552932 284.909368 250.797725 284.909368 275.938352 L 284.909368 336.230022 C 284.909368 341.469606 284.742701 345.401898 284.409368 348.02169 C 284.076035 350.641482 282.987493 353.67794 281.148951 357.136274 C 278.190618 363.047733 269.409367 366.000858 254.8052 366.000858 C 240.867699 366.000858 232.169781 363.047733 228.716656 357.136274 C 226.930198 353.67794 225.841656 350.58419 225.456239 347.855023 C 225.117698 345.120648 224.951031 340.995648 224.951031 335.480022 L 224.951031 275.605018 C 224.951031 266.235226 222.331239 258.933142 217.091655 253.693559 C 211.852072 248.396683 205.159363 245.75085 197.023946 245.75085 C 188.940612 245.75085 181.805195 248.203975 175.612486 253.110225 C 169.482277 258.016476 165.97186 263.563351 165.076027 269.750851 L 165.076027 336.230022 C 165.076027 341.469606 164.883319 345.401898 164.492694 348.02169 C 164.15936 350.641482 163.09686 353.67794 161.31561 357.136274 C 158.305193 363.047733 149.497901 366.000858 134.888525 366.000858 C 120.508316 366.000858 111.727065 362.907108 108.549982 356.719607 C 106.93019 353.318565 105.956231 350.360232 105.622898 347.855023 C 105.289565 345.344606 105.122898 341.360231 105.122898 335.896689 L 105.122898 131.021676 C 105.122898 125.776884 105.289565 121.8498 105.622898 119.230008 C 105.956231 116.610216 106.93019 113.683133 108.549982 110.448758 C 111.727065 104.313341 120.617691 101.25084 135.227067 101.25084 C 149.607276 101.25084 158.305193 104.313341 161.31561 110.448758 C 163.09686 113.901883 164.15936 116.94355 164.492694 119.563342 C 164.883319 122.183133 165.076027 126.115425 165.076027 131.355009 L 165.076027 207.032097 C 176.451028 193.151888 189.805195 186.209179 205.133321 186.209179 Z M 392.45625 365.328983 C 369.430207 365.328983 350.310414 356.605024 335.091663 339.157106 C 319.924995 321.651896 312.34687 300.35502 312.34687 275.266477 L 312.34687 215.313348 C 312.34687 209.792514 312.513537 205.776889 312.84687 203.27168 C 313.180203 200.761264 314.154162 197.808138 315.773954 194.407096 C 318.951037 188.219596 327.841663 185.125846 342.451039 185.125846 C 358.45104 185.125846 367.815624 189.469596 370.54479 198.167513 C 371.940624 201.792514 372.638541 207.615431 372.638541 215.646681 L 372.638541 275.605018 C 372.638541 284.969602 375.310416 292.271686 380.664583 297.51127 C 386.01875 302.750854 393.20625 305.375854 402.237501 305.375854 C 411.268751 305.375854 418.576044 302.641479 424.148961 297.177937 C 429.779169 291.657103 432.596878 284.469602 432.596878 275.605018 L 432.596878 214.974806 C 432.596878 209.683139 432.763545 205.724806 433.096878 203.099805 C 433.430211 200.480014 434.518753 197.469597 436.357295 194.068555 C 439.31042 188.105013 448.091671 185.125846 462.701046 185.125846 C 477.081256 185.125846 485.862506 188.219596 489.03959 194.407096 C 490.659382 197.808138 491.63334 200.844597 491.966673 203.52168 C 492.300007 206.141472 492.466673 210.068556 492.466673 215.313348 L 492.466673 336.563356 C 492.466673 341.584189 492.300007 345.401898 491.966673 348.02169 C 491.63334 350.641482 490.544798 353.542524 488.706257 356.719607 C 485.305215 362.683149 476.523964 365.667524 462.362505 365.667524 C 448.425004 365.667524 439.867712 362.933149 436.690628 357.469607 C 434.40417 353.568565 433.263545 348.886273 433.263545 343.422731 C 432.315628 344.985231 430.253128 347.266481 427.076044 350.276898 C 423.898961 353.235232 420.80521 355.74044 417.794794 357.80294 C 410.044793 362.823774 401.596876 365.328983 392.45625 365.328983 Z M 392.45625 365.328983 " stroke="#436100" stroke-width="17.126051" stroke-opacity="1" stroke-miterlimit="4"/><g fill="#91c123" fill-opacity="1"><g transform="translate(31.94689, 278.440763)"><g><path d="M 85.28125 -134.875 C 102.414062 -134.875 116.675781 -128.363281 128.0625 -115.34375 C 139.445312 -102.320312 145.140625 -86.394531 145.140625 -67.5625 L 145.140625 -22.34375 C 145.140625 -18.40625 145.007812 -15.453125 144.75 -13.484375 C 144.5 -11.515625 143.6875 -9.242188 142.3125 -6.671875 C 140.09375 -2.222656 133.5 0 122.53125 0 C 112.082031 0 105.578125 -2.222656 103.015625 -6.671875 C 101.640625 -9.242188 100.820312 -11.554688 100.5625 -13.609375 C 100.3125 -15.671875 100.1875 -18.753906 100.1875 -22.859375 L 100.1875 -67.8125 C 100.1875 -74.84375 98.21875 -80.328125 94.28125 -84.265625 C 90.34375 -88.203125 85.332031 -90.171875 79.25 -90.171875 C 73.164062 -90.171875 67.8125 -88.328125 63.1875 -84.640625 C 58.570312 -80.960938 55.921875 -76.8125 55.234375 -72.1875 L 55.234375 -22.34375 C 55.234375 -18.40625 55.101562 -15.453125 54.84375 -13.484375 C 54.582031 -11.515625 53.769531 -9.242188 52.40625 -6.671875 C 50.175781 -2.222656 43.582031 0 32.625 0 C 21.832031 0 15.238281 -2.3125 12.84375 -6.9375 C 11.644531 -9.507812 10.914062 -11.734375 10.65625 -13.609375 C 10.40625 -15.492188 10.28125 -18.492188 10.28125 -22.609375 L 10.28125 -176.234375 C 10.28125 -180.171875 10.40625 -183.125 10.65625 -185.09375 C 10.914062 -187.0625 11.644531 -189.242188 12.84375 -191.640625 C 15.238281 -196.265625 21.914062 -198.578125 32.875 -198.578125 C 43.664062 -198.578125 50.175781 -196.265625 52.40625 -191.640625 C 53.769531 -189.066406 54.582031 -186.796875 54.84375 -184.828125 C 55.101562 -182.859375 55.234375 -179.90625 55.234375 -175.96875 L 55.234375 -119.203125 C 63.796875 -129.648438 73.8125 -134.875 85.28125 -134.875 Z M 85.28125 -134.875 "/></g></g></g><g fill="#91c123" fill-opacity="1"><g transform="translate(187.365082, 278.440763)"><g><path d="M 70.390625 -0.515625 C 53.085938 -0.515625 38.742188 -7.0625 27.359375 -20.15625 C 15.972656 -33.257812 10.28125 -49.234375 10.28125 -68.078125 L 10.28125 -113.03125 C 10.28125 -117.144531 10.40625 -120.140625 10.65625 -122.015625 C 10.914062 -123.898438 11.644531 -126.128906 12.84375 -128.703125 C 15.238281 -133.328125 21.914062 -135.640625 32.875 -135.640625 C 44.863281 -135.640625 51.890625 -132.382812 53.953125 -125.875 C 54.972656 -123.132812 55.484375 -118.769531 55.484375 -112.78125 L 55.484375 -67.8125 C 55.484375 -60.789062 57.492188 -55.3125 61.515625 -51.375 C 65.546875 -47.4375 70.941406 -45.46875 77.703125 -45.46875 C 84.472656 -45.46875 89.953125 -47.519531 94.140625 -51.625 C 98.335938 -55.738281 100.4375 -61.132812 100.4375 -67.8125 L 100.4375 -113.28125 C 100.4375 -117.226562 100.566406 -120.1875 100.828125 -122.15625 C 101.085938 -124.125 101.898438 -126.390625 103.265625 -128.953125 C 105.492188 -133.410156 112.085938 -135.640625 123.046875 -135.640625 C 133.835938 -135.640625 140.429688 -133.328125 142.828125 -128.703125 C 144.023438 -126.128906 144.753906 -123.859375 145.015625 -121.890625 C 145.273438 -119.921875 145.40625 -116.96875 145.40625 -113.03125 L 145.40625 -22.09375 C 145.40625 -18.320312 145.273438 -15.453125 145.015625 -13.484375 C 144.753906 -11.515625 143.941406 -9.332031 142.578125 -6.9375 C 140.003906 -2.476562 133.410156 -0.25 122.796875 -0.25 C 112.347656 -0.25 105.925781 -2.304688 103.53125 -6.421875 C 101.8125 -9.335938 100.953125 -12.847656 100.953125 -16.953125 C 100.273438 -15.753906 98.734375 -14.039062 96.328125 -11.8125 C 93.929688 -9.59375 91.617188 -7.710938 89.390625 -6.171875 C 83.566406 -2.398438 77.234375 -0.515625 70.390625 -0.515625 Z M 70.390625 -0.515625 "/></g></g></g></svg>