<svg xmlns="http://www.w3.org/2000/svg" xmlns:xlink="http://www.w3.org/1999/xlink" width="500" zoomAndPan="magnify" viewBox="0 0 375 374.999991" height="500" preserveAspectRatio="xMidYMid meet" version="1.0"><defs><g/></defs><path stroke-linecap="butt" transform="matrix(0.75, 0, 0, 0.75, -36.607793, 3.872669)" fill="none" stroke-linejoin="miter" d="M 224.852073 275.602084 L 270.341659 313.232295 C 276.086451 318.029171 279.680201 321.680213 281.133326 324.190629 C 282.638535 326.695838 283.388535 329.09688 283.388535 331.37813 C 283.388535 336.898964 279.846868 344.341672 272.768742 353.706256 C 265.018742 363.294799 258.164575 368.091674 252.195824 368.091674 C 247.180199 368.091674 240.211449 364.773965 231.289573 358.138548 L 227.862489 355.716673 C 222.622906 351.367714 214.51353 343.784381 203.529154 332.966672 C 192.60207 322.096879 184.294778 314.378129 178.607278 309.805212 L 178.607278 336.232297 C 178.607278 341.47188 178.414569 345.398964 178.023944 348.018756 C 177.690611 350.643756 176.628111 353.680215 174.846861 357.138548 C 171.836444 363.044799 163.029152 365.997924 148.419776 365.997924 C 134.039567 365.997924 125.258316 362.904174 122.081232 356.716673 C 120.461441 353.315631 119.487482 350.305214 119.154149 347.685423 C 118.820816 345.065631 118.654149 341.138547 118.654149 335.893755 L 118.654149 130.685408 C 118.654149 125.445825 118.820816 121.513533 119.154149 118.893741 C 119.487482 116.273949 120.461441 113.23749 122.081232 109.779157 C 125.258316 103.648948 134.148942 100.58124 148.758318 100.58124 C 159.737485 100.58124 167.513527 102.503115 172.086444 106.352073 C 175.935403 109.586449 177.997903 114.602074 178.273944 121.404158 C 178.497903 123.466658 178.607278 126.669783 178.607278 131.018742 L 178.607278 239.643749 C 182.680195 236.190624 188.867695 230.362498 197.174987 222.169789 C 205.534363 213.919789 211.779155 208.091663 215.904155 204.690622 L 220.003114 201.930205 C 228.029156 195.742704 234.888532 192.648954 240.576032 192.648954 C 246.258324 192.648954 252.810408 197.279163 260.227075 206.529163 C 267.695825 215.784372 271.430201 223.060414 271.430201 228.35729 C 271.430201 233.596873 267.195825 239.758332 258.721866 246.836458 Z M 419.39896 204.690622 C 420.737502 191.867704 429.737503 185.456245 446.409379 185.456245 C 455.326046 185.456245 461.961463 186.154162 466.310422 187.549995 C 470.65938 188.94062 473.669797 191.341662 475.341672 194.737496 C 477.070839 198.138538 478.102089 201.180205 478.435423 203.857288 C 478.768756 206.47708 478.935423 210.404164 478.935423 215.643747 L 478.935423 335.477088 C 478.935423 340.773964 478.768756 344.732297 478.435423 347.352089 C 478.102089 349.971881 477.128131 352.982298 475.508339 356.38334 C 472.331255 362.346882 464.523963 365.331257 452.096879 365.331257 C 439.664587 365.331257 431.326044 363.800007 427.091669 360.732298 C 422.852086 357.607298 420.39896 353.091673 419.732294 347.185423 C 411.258335 359.284382 397.154167 365.331257 377.419791 365.331257 C 357.685415 365.331257 339.341663 356.326048 322.393746 338.320839 C 305.50312 320.258337 297.055202 299.294794 297.055202 275.435418 C 297.055202 251.576041 305.560411 230.695832 322.560412 212.799997 C 339.622913 194.852079 358.29479 185.87812 378.591666 185.87812 C 386.39375 185.87812 393.477084 187.242704 399.831251 189.971871 C 406.242709 192.706246 410.701043 195.268746 413.21146 197.664579 C 415.716668 200.065621 417.779169 202.404163 419.39896 204.690622 Z M 357.01354 275.935418 C 357.01354 283.46146 359.971873 290.263544 365.878123 296.341669 C 371.846874 302.362503 379.034374 305.37292 387.45625 305.37292 C 395.930209 305.37292 402.951043 302.305211 408.529168 296.175003 C 414.159377 289.987502 416.971877 283.185418 416.971877 275.768751 C 416.971877 268.357292 414.268752 261.445834 408.862501 255.034375 C 403.508334 248.622916 396.315625 245.414583 387.284375 245.414583 C 378.310416 245.414583 371.008332 248.622916 365.378123 255.034375 C 359.805206 261.445834 357.01354 268.409376 357.01354 275.935418 Z M 357.01354 275.935418 " stroke="#7e0030" stroke-width="12.844538" stroke-opacity="1" stroke-miterlimit="4"/><g fill="#fb6ea4" fill-opacity="1"><g transform="translate(42.095326, 278.372651)"><g><path d="M 89.90625 -67.8125 L 124.078125 -39.5625 C 128.359375 -35.96875 131.054688 -33.226562 132.171875 -31.34375 C 133.285156 -29.457031 133.84375 -27.660156 133.84375 -25.953125 C 133.84375 -21.835938 131.1875 -16.269531 125.875 -9.25 C 120.050781 -2.050781 114.914062 1.546875 110.46875 1.546875 C 106.695312 1.546875 101.472656 -0.9375 94.796875 -5.90625 L 92.21875 -7.703125 C 88.28125 -10.960938 82.203125 -16.660156 73.984375 -24.796875 C 65.765625 -32.929688 59.515625 -38.707031 55.234375 -42.125 L 55.234375 -22.34375 C 55.234375 -18.40625 55.101562 -15.453125 54.84375 -13.484375 C 54.582031 -11.515625 53.769531 -9.242188 52.40625 -6.671875 C 50.175781 -2.222656 43.582031 0 32.625 0 C 21.832031 0 15.238281 -2.3125 12.84375 -6.9375 C 11.644531 -9.507812 10.914062 -11.78125 10.65625 -13.75 C 10.40625 -15.71875 10.28125 -18.671875 10.28125 -22.609375 L 10.28125 -176.484375 C 10.28125 -180.421875 10.40625 -183.375 10.65625 -185.34375 C 10.914062 -187.3125 11.644531 -189.582031 12.84375 -192.15625 C 15.238281 -196.78125 21.914062 -199.09375 32.875 -199.09375 C 41.101562 -199.09375 46.925781 -197.632812 50.34375 -194.71875 C 53.257812 -192.320312 54.800781 -188.554688 54.96875 -183.421875 C 55.144531 -181.878906 55.234375 -179.484375 55.234375 -176.234375 L 55.234375 -94.796875 C 58.316406 -97.359375 62.984375 -101.722656 69.234375 -107.890625 C 75.484375 -114.054688 80.148438 -118.425781 83.234375 -121 L 86.3125 -123.046875 C 92.3125 -127.671875 97.453125 -129.984375 101.734375 -129.984375 C 106.015625 -129.984375 110.9375 -126.515625 116.5 -119.578125 C 122.0625 -112.640625 124.84375 -107.203125 124.84375 -103.265625 C 124.84375 -99.328125 121.675781 -94.703125 115.34375 -89.390625 Z M 89.90625 -67.8125 "/></g></g></g><g fill="#fb6ea4" fill-opacity="1"><g transform="translate(179.78811, 278.372651)"><g><path d="M 98.125 -121 C 99.15625 -130.582031 105.921875 -135.375 118.421875 -135.375 C 125.097656 -135.375 130.0625 -134.859375 133.3125 -133.828125 C 136.570312 -132.804688 138.84375 -131.007812 140.125 -128.4375 C 141.414062 -125.875 142.1875 -123.609375 142.4375 -121.640625 C 142.695312 -119.671875 142.828125 -116.71875 142.828125 -112.78125 L 142.828125 -22.859375 C 142.828125 -18.921875 142.695312 -15.96875 142.4375 -14 C 142.1875 -12.03125 141.460938 -9.757812 140.265625 -7.1875 C 137.867188 -2.738281 132.003906 -0.515625 122.671875 -0.515625 C 113.335938 -0.515625 107.082031 -1.671875 103.90625 -3.984375 C 100.738281 -6.296875 98.898438 -9.675781 98.390625 -14.125 C 92.054688 -5.050781 81.476562 -0.515625 66.65625 -0.515625 C 51.84375 -0.515625 38.097656 -7.28125 25.421875 -20.8125 C 12.753906 -34.34375 6.421875 -50.054688 6.421875 -67.953125 C 6.421875 -85.847656 12.800781 -101.515625 25.5625 -114.953125 C 38.320312 -128.398438 52.320312 -135.125 67.5625 -135.125 C 73.382812 -135.125 78.691406 -134.09375 83.484375 -132.03125 C 88.285156 -129.976562 91.625 -128.050781 93.5 -126.25 C 95.382812 -124.457031 96.925781 -122.707031 98.125 -121 Z M 51.375 -67.5625 C 51.375 -61.90625 53.597656 -56.804688 58.046875 -52.265625 C 62.503906 -47.734375 67.898438 -45.46875 74.234375 -45.46875 C 80.578125 -45.46875 85.84375 -47.78125 90.03125 -52.40625 C 94.226562 -57.03125 96.328125 -62.125 96.328125 -67.6875 C 96.328125 -73.257812 94.316406 -78.441406 90.296875 -83.234375 C 86.273438 -88.023438 80.878906 -90.421875 74.109375 -90.421875 C 67.347656 -90.421875 61.867188 -88.023438 57.671875 -83.234375 C 53.472656 -78.441406 51.375 -73.21875 51.375 -67.5625 Z M 51.375 -67.5625 "/></g></g></g></svg>