<svg xmlns="http://www.w3.org/2000/svg" xmlns:xlink="http://www.w3.org/1999/xlink" width="500" zoomAndPan="magnify" viewBox="0 0 375 374.999991" height="500" preserveAspectRatio="xMidYMid meet" version="1.0"><defs><g/></defs><path stroke-linecap="butt" transform="matrix(0.75, 0, 0, 0.75, -36.607793, 3.872695)" fill="none" stroke-linejoin="miter" d="M 228.789573 275.60205 L 274.279159 313.23226 C 280.023951 318.029136 283.617701 321.680178 285.070827 324.190595 C 286.576035 326.695803 287.326035 329.096845 287.326035 331.378095 C 287.326035 336.898929 283.784368 344.341638 276.706243 353.706221 C 268.956242 363.294764 262.102075 368.091639 256.133325 368.091639 C 251.117699 368.091639 244.148949 364.773931 235.227073 358.138513 L 231.79999 355.716638 C 226.560406 351.36768 218.45103 343.784346 207.466655 332.966637 C 196.539571 322.096844 188.232278 314.378094 182.544778 309.805177 L 182.544778 336.232262 C 182.544778 341.471846 182.35207 345.398929 181.961445 348.018721 C 181.628111 350.643721 180.565611 353.68018 178.784361 357.138513 C 175.773944 363.044764 166.966652 365.997889 152.357276 365.997889 C 137.977067 365.997889 129.195816 362.904139 126.018733 356.716638 C 124.398941 353.315596 123.424983 350.30518 123.091649 347.685388 C 122.758316 345.065596 122.591649 341.138512 122.591649 335.89372 L 122.591649 130.685373 C 122.591649 125.44579 122.758316 121.513498 123.091649 118.893706 C 123.424983 116.273914 124.398941 113.237456 126.018733 109.779122 C 129.195816 103.648913 138.086442 100.581205 152.695818 100.581205 C 163.674985 100.581205 171.451027 102.50308 176.023944 106.352039 C 179.872903 109.586414 181.935403 114.602039 182.211445 121.404123 C 182.435403 123.466623 182.544778 126.669748 182.544778 131.018707 L 182.544778 239.643714 C 186.617695 236.190589 192.805195 230.362463 201.112488 222.169755 C 209.471863 213.919754 215.716655 208.091629 219.841656 204.690587 L 223.940614 201.93017 C 231.966656 195.742669 238.826032 192.648919 244.513532 192.648919 C 250.195824 192.648919 256.747908 197.279128 264.164575 206.529128 C 271.633326 215.784337 275.367701 223.06038 275.367701 228.357255 C 275.367701 233.596839 271.133326 239.758297 262.659367 246.836423 Z M 480.201048 254.195798 C 480.201048 268.242674 476.716672 278.643717 469.747922 285.388509 C 462.779172 292.076009 455.055213 295.419759 446.581254 295.419759 L 365.383332 295.419759 C 365.383332 301.831218 369.148957 307.211427 376.674999 311.560385 C 384.253125 315.909344 391.810417 318.086427 399.336459 318.086427 C 412.602085 318.086427 423.003127 316.690594 430.529169 313.904136 L 434.289586 312.565594 C 439.753128 310.055177 444.326045 308.799969 448.003129 308.799969 C 455.305213 308.799969 461.581255 313.930177 466.820838 324.190595 C 469.773964 330.378095 471.25313 335.64372 471.25313 339.992679 C 471.25313 360.284347 446.945837 370.430181 398.331251 370.430181 C 381.440624 370.430181 366.414582 367.534347 353.258331 361.737472 C 340.159372 355.883305 329.930204 348.159346 322.570829 338.570804 C 308.185411 320.117678 300.992703 299.461426 300.992703 276.607258 C 300.992703 247.841631 310.305203 224.846838 328.924996 207.61767 C 347.544789 190.336419 370.79479 181.695794 398.664584 181.695794 C 430.388544 181.695794 453.664588 192.898919 468.492714 215.310379 C 476.294797 227.18538 480.201048 240.148922 480.201048 254.195798 Z M 407.86771 264.232257 C 416.560418 264.232257 420.909377 260.581215 420.909377 253.273923 C 420.909377 248.03434 418.904169 243.826006 414.888543 240.648922 C 410.93021 237.471839 405.216668 235.883297 397.747917 235.883297 C 390.33125 235.883297 382.971875 238.919756 375.669791 244.997881 C 368.367707 251.018715 364.716665 257.430173 364.716665 264.232257 Z M 407.86771 264.232257 " stroke="#7e0030" stroke-width="12.844538" stroke-opacity="1" stroke-miterlimit="4"/><g fill="#fb6ea4" fill-opacity="1"><g transform="translate(45.048451, 278.372677)"><g><path d="M 89.90625 -67.8125 L 124.078125 -39.5625 C 128.359375 -35.96875 131.054688 -33.226562 132.171875 -31.34375 C 133.285156 -29.457031 133.84375 -27.660156 133.84375 -25.953125 C 133.84375 -21.835938 131.1875 -16.269531 125.875 -9.25 C 120.050781 -2.050781 114.914062 1.546875 110.46875 1.546875 C 106.695312 1.546875 101.472656 -0.9375 94.796875 -5.90625 L 92.21875 -7.703125 C 88.28125 -10.960938 82.203125 -16.660156 73.984375 -24.796875 C 65.765625 -32.929688 59.515625 -38.707031 55.234375 -42.125 L 55.234375 -22.34375 C 55.234375 -18.40625 55.101562 -15.453125 54.84375 -13.484375 C 54.582031 -11.515625 53.769531 -9.242188 52.40625 -6.671875 C 50.175781 -2.222656 43.582031 0 32.625 0 C 21.832031 0 15.238281 -2.3125 12.84375 -6.9375 C 11.644531 -9.507812 10.914062 -11.78125 10.65625 -13.75 C 10.40625 -15.71875 10.28125 -18.671875 10.28125 -22.609375 L 10.28125 -176.484375 C 10.28125 -180.421875 10.40625 -183.375 10.65625 -185.34375 C 10.914062 -187.3125 11.644531 -189.582031 12.84375 -192.15625 C 15.238281 -196.78125 21.914062 -199.09375 32.875 -199.09375 C 41.101562 -199.09375 46.925781 -197.632812 50.34375 -194.71875 C 53.257812 -192.320312 54.800781 -188.554688 54.96875 -183.421875 C 55.144531 -181.878906 55.234375 -179.484375 55.234375 -176.234375 L 55.234375 -94.796875 C 58.316406 -97.359375 62.984375 -101.722656 69.234375 -107.890625 C 75.484375 -114.054688 80.148438 -118.425781 83.234375 -121 L 86.3125 -123.046875 C 92.3125 -127.671875 97.453125 -129.984375 101.734375 -129.984375 C 106.015625 -129.984375 110.9375 -126.515625 116.5 -119.578125 C 122.0625 -112.640625 124.84375 -107.203125 124.84375 -103.265625 C 124.84375 -99.328125 121.675781 -94.703125 115.34375 -89.390625 Z M 89.90625 -67.8125 "/></g></g></g><g fill="#fb6ea4" fill-opacity="1"><g transform="translate(182.741235, 278.372677)"><g><path d="M 140.78125 -83.875 C 140.78125 -73.34375 138.164062 -65.550781 132.9375 -60.5 C 127.71875 -55.445312 121.9375 -52.921875 115.59375 -52.921875 L 54.71875 -52.921875 C 54.71875 -48.117188 57.539062 -44.09375 63.1875 -40.84375 C 68.84375 -37.59375 74.5 -35.96875 80.15625 -35.96875 C 90.082031 -35.96875 97.875 -36.992188 103.53125 -39.046875 L 106.359375 -40.078125 C 110.460938 -41.960938 113.882812 -42.90625 116.625 -42.90625 C 122.101562 -42.90625 126.8125 -39.050781 130.75 -31.34375 C 132.976562 -26.71875 134.09375 -22.78125 134.09375 -19.53125 C 134.09375 -4.28125 115.851562 3.34375 79.375 3.34375 C 66.707031 3.34375 55.445312 1.160156 45.59375 -3.203125 C 35.75 -7.578125 28.085938 -13.359375 22.609375 -20.546875 C 11.816406 -34.421875 6.421875 -49.921875 6.421875 -67.046875 C 6.421875 -88.628906 13.398438 -105.882812 27.359375 -118.8125 C 41.316406 -131.738281 58.742188 -138.203125 79.640625 -138.203125 C 103.441406 -138.203125 120.910156 -129.8125 132.046875 -113.03125 C 137.867188 -104.125 140.78125 -94.40625 140.78125 -83.875 Z M 86.578125 -76.296875 C 93.078125 -76.296875 96.328125 -79.035156 96.328125 -84.515625 C 96.328125 -88.453125 94.828125 -91.617188 91.828125 -94.015625 C 88.835938 -96.421875 84.554688 -97.625 78.984375 -97.625 C 73.421875 -97.625 67.898438 -95.351562 62.421875 -90.8125 C 56.941406 -86.269531 54.203125 -81.429688 54.203125 -76.296875 Z M 86.578125 -76.296875 "/></g></g></g></svg>