<svg xmlns="http://www.w3.org/2000/svg" xmlns:xlink="http://www.w3.org/1999/xlink" width="500" zoomAndPan="magnify" viewBox="0 0 375 374.999991" height="500" preserveAspectRatio="xMidYMid meet" version="1.0"><defs><g/></defs><path stroke-linecap="butt" transform="matrix(0.75, 0, 0, 0.75, -36.607793, 3.872669)" fill="none" stroke-linejoin="miter" d="M 283.242701 275.602084 L 328.732288 313.232295 C 334.47708 318.029171 338.07083 321.680213 339.523955 324.190629 C 341.029164 326.695838 341.779164 329.09688 341.779164 331.37813 C 341.779164 336.898964 338.237497 344.341672 331.159371 353.706256 C 323.409371 363.294799 316.555204 368.091674 310.586453 368.091674 C 305.570828 368.091674 298.602077 364.773965 289.680202 358.138548 L 286.253118 355.716673 C 281.013535 351.367714 272.904159 343.784381 261.919783 332.966672 C 250.992699 322.096879 242.685407 314.378129 236.997907 309.805212 L 236.997907 336.232297 C 236.997907 341.47188 236.805198 345.398964 236.414573 348.018756 C 236.08124 350.643756 235.01874 353.680215 233.23749 357.138548 C 230.227073 363.044799 221.419781 365.997924 206.810405 365.997924 C 192.430195 365.997924 183.648945 362.904174 180.471861 356.716673 C 178.85207 353.315631 177.878111 350.305214 177.544778 347.685423 C 177.211444 345.065631 177.044778 341.138547 177.044778 335.893755 L 177.044778 130.685408 C 177.044778 125.445825 177.211444 121.513533 177.544778 118.893741 C 177.878111 116.273949 178.85207 113.23749 180.471861 109.779157 C 183.648945 103.648948 192.53957 100.58124 207.148946 100.58124 C 218.128114 100.58124 225.904156 102.503115 230.477073 106.352073 C 234.326032 109.586449 236.388532 114.602074 236.664573 121.404158 C 236.888532 123.466658 236.997907 126.669783 236.997907 131.018742 L 236.997907 239.643749 C 241.070824 236.190624 247.258324 230.362498 255.565616 222.169789 C 263.924992 213.919789 270.169784 208.091663 274.294784 204.690622 L 278.393743 201.930205 C 286.419785 195.742704 293.27916 192.648954 298.966661 192.648954 C 304.648953 192.648954 311.201037 197.279163 318.617704 206.529163 C 326.086454 215.784372 329.820829 223.060414 329.820829 228.35729 C 329.820829 233.596873 325.586454 239.758332 317.112495 246.836458 Z M 360.633331 215.643747 C 360.633331 210.404164 360.799998 206.47708 361.133331 203.857288 C 361.466665 201.180205 362.445832 198.138538 364.060415 194.737496 C 367.237499 188.831245 376.133332 185.87812 390.7375 185.87812 C 401.721876 185.87812 409.497918 187.799995 414.065627 191.643746 C 417.914585 194.826038 419.977085 199.72708 420.258335 206.362497 C 420.477085 208.648955 420.591669 211.966664 420.591669 216.315622 L 420.591669 336.232297 C 420.591669 341.47188 420.393752 345.398964 420.003127 348.018756 C 419.669794 350.643756 418.612502 353.680215 416.826043 357.138548 C 413.815627 363.044799 405.008334 365.997924 390.404167 365.997924 C 376.018749 365.997924 367.237499 362.904174 364.060415 356.716673 C 362.445832 353.315631 361.466665 350.362506 361.133331 347.852089 C 360.799998 345.346881 360.633331 341.357297 360.633331 335.893755 Z M 416.909377 152.09166 C 415.237502 155.383327 412.227085 157.721868 407.878126 159.117702 C 403.529168 160.508327 397.763542 161.206244 390.570833 161.206244 C 383.378125 161.206244 377.607291 160.508327 373.258332 159.117702 C 368.966665 157.721868 365.956248 155.326035 364.227082 151.924993 C 362.497915 148.523951 361.466665 145.513534 361.133331 142.893742 C 360.799998 140.216659 360.633331 136.258325 360.633331 131.018742 C 360.633331 125.779158 360.799998 121.846866 361.133331 119.227074 C 361.466665 116.607282 362.445832 113.680199 364.060415 110.445824 C 367.237499 104.315615 376.133332 101.247906 390.7375 101.247906 C 405.117709 101.247906 413.815627 104.315615 416.826043 110.445824 C 418.612502 113.904157 419.669794 116.940616 420.003127 119.560408 C 420.393752 122.185408 420.591669 126.112491 420.591669 131.352075 C 420.591669 136.591659 420.393752 140.549992 420.003127 143.227076 C 419.669794 145.846868 418.638544 148.805201 416.909377 152.09166 Z M 416.909377 152.09166 " stroke="#7e0030" stroke-width="12.844538" stroke-opacity="1" stroke-miterlimit="4"/><g fill="#fb6ea4" fill-opacity="1"><g transform="translate(85.888292, 278.372651)"><g><path d="M 89.90625 -67.8125 L 124.078125 -39.5625 C 128.359375 -35.96875 131.054688 -33.226562 132.171875 -31.34375 C 133.285156 -29.457031 133.84375 -27.660156 133.84375 -25.953125 C 133.84375 -21.835938 131.1875 -16.269531 125.875 -9.25 C 120.050781 -2.050781 114.914062 1.546875 110.46875 1.546875 C 106.695312 1.546875 101.472656 -0.9375 94.796875 -5.90625 L 92.21875 -7.703125 C 88.28125 -10.960938 82.203125 -16.660156 73.984375 -24.796875 C 65.765625 -32.929688 59.515625 -38.707031 55.234375 -42.125 L 55.234375 -22.34375 C 55.234375 -18.40625 55.101562 -15.453125 54.84375 -13.484375 C 54.582031 -11.515625 53.769531 -9.242188 52.40625 -6.671875 C 50.175781 -2.222656 43.582031 0 32.625 0 C 21.832031 0 15.238281 -2.3125 12.84375 -6.9375 C 11.644531 -9.507812 10.914062 -11.78125 10.65625 -13.75 C 10.40625 -15.71875 10.28125 -18.671875 10.28125 -22.609375 L 10.28125 -176.484375 C 10.28125 -180.421875 10.40625 -183.375 10.65625 -185.34375 C 10.914062 -187.3125 11.644531 -189.582031 12.84375 -192.15625 C 15.238281 -196.78125 21.914062 -199.09375 32.875 -199.09375 C 41.101562 -199.09375 46.925781 -197.632812 50.34375 -194.71875 C 53.257812 -192.320312 54.800781 -188.554688 54.96875 -183.421875 C 55.144531 -181.878906 55.234375 -179.484375 55.234375 -176.234375 L 55.234375 -94.796875 C 58.316406 -97.359375 62.984375 -101.722656 69.234375 -107.890625 C 75.484375 -114.054688 80.148438 -118.425781 83.234375 -121 L 86.3125 -123.046875 C 92.3125 -127.671875 97.453125 -129.984375 101.734375 -129.984375 C 106.015625 -129.984375 110.9375 -126.515625 116.5 -119.578125 C 122.0625 -112.640625 124.84375 -107.203125 124.84375 -103.265625 C 124.84375 -99.328125 121.675781 -94.703125 115.34375 -89.390625 Z M 89.90625 -67.8125 "/></g></g></g><g fill="#fb6ea4" fill-opacity="1"><g transform="translate(223.581076, 278.372651)"><g><path d="M 10.28125 -112.78125 C 10.28125 -116.71875 10.40625 -119.671875 10.65625 -121.640625 C 10.914062 -123.609375 11.644531 -125.875 12.84375 -128.4375 C 15.238281 -132.894531 21.914062 -135.125 32.875 -135.125 C 41.101562 -135.125 46.925781 -133.664062 50.34375 -130.75 C 53.257812 -128.351562 54.800781 -124.675781 54.96875 -119.71875 C 55.144531 -118 55.234375 -115.515625 55.234375 -112.265625 L 55.234375 -22.34375 C 55.234375 -18.40625 55.101562 -15.453125 54.84375 -13.484375 C 54.582031 -11.515625 53.769531 -9.242188 52.40625 -6.671875 C 50.175781 -2.222656 43.582031 0 32.625 0 C 21.832031 0 15.238281 -2.3125 12.84375 -6.9375 C 11.644531 -9.507812 10.914062 -11.734375 10.65625 -13.609375 C 10.40625 -15.492188 10.28125 -18.492188 10.28125 -22.609375 Z M 52.53125 -160.421875 C 51.25 -157.941406 48.976562 -156.1875 45.71875 -155.15625 C 42.46875 -154.132812 38.144531 -153.625 32.75 -153.625 C 27.351562 -153.625 23.03125 -154.132812 19.78125 -155.15625 C 16.53125 -156.1875 14.257812 -157.984375 12.96875 -160.546875 C 11.6875 -163.117188 10.914062 -165.390625 10.65625 -167.359375 C 10.40625 -169.328125 10.28125 -172.28125 10.28125 -176.21875 C 10.28125 -180.164062 10.40625 -183.125 10.65625 -185.09375 C 10.914062 -187.0625 11.644531 -189.242188 12.84375 -191.640625 C 15.238281 -196.265625 21.914062 -198.578125 32.875 -198.578125 C 43.664062 -198.578125 50.175781 -196.265625 52.40625 -191.640625 C 53.769531 -189.066406 54.582031 -186.796875 54.84375 -184.828125 C 55.101562 -182.859375 55.234375 -179.90625 55.234375 -175.96875 C 55.234375 -172.03125 55.101562 -169.078125 54.84375 -167.109375 C 54.582031 -165.140625 53.8125 -162.910156 52.53125 -160.421875 Z M 52.53125 -160.421875 "/></g></g></g></svg>