<svg xmlns="http://www.w3.org/2000/svg" xmlns:xlink="http://www.w3.org/1999/xlink" width="500" zoomAndPan="magnify" viewBox="0 0 375 374.999991" height="500" preserveAspectRatio="xMidYMid meet" version="1.0"><defs><g/></defs><path stroke-linecap="butt" transform="matrix(0.75, 0, 0, 0.75, -36.607793, 3.872695)" fill="none" stroke-linejoin="miter" d="M 224.164573 275.60205 L 269.654159 313.23226 C 275.398951 318.029136 278.992701 321.680178 280.445826 324.190595 C 281.951035 326.695803 282.701035 329.096845 282.701035 331.378095 C 282.701035 336.898929 279.159368 344.341638 272.081242 353.706221 C 264.331242 363.294764 257.477075 368.091639 251.508324 368.091639 C 246.492699 368.091639 239.523949 364.773931 230.602073 358.138513 L 227.174989 355.716638 C 221.935406 351.36768 213.82603 343.784346 202.841654 332.966637 C 191.91457 322.096844 183.607278 314.378094 177.919778 309.805177 L 177.919778 336.232262 C 177.919778 341.471846 177.727069 345.398929 177.336444 348.018721 C 177.003111 350.643721 175.940611 353.68018 174.159361 357.138513 C 171.148944 363.044764 162.341652 365.997889 147.732276 365.997889 C 133.352067 365.997889 124.570816 362.904139 121.393732 356.716638 C 119.773941 353.315596 118.799982 350.30518 118.466649 347.685388 C 118.133316 345.065596 117.966649 341.138512 117.966649 335.89372 L 117.966649 130.685373 C 117.966649 125.44579 118.133316 121.513498 118.466649 118.893706 C 118.799982 116.273914 119.773941 113.237456 121.393732 109.779122 C 124.570816 103.648913 133.461442 100.581205 148.070818 100.581205 C 159.049985 100.581205 166.826027 102.50308 171.398944 106.352039 C 175.247903 109.586414 177.310403 114.602039 177.586444 121.404123 C 177.810403 123.466623 177.919778 126.669748 177.919778 131.018707 L 177.919778 239.643714 C 181.992695 236.190589 188.180195 230.362463 196.487487 222.169755 C 204.846863 213.919754 211.091655 208.091629 215.216655 204.690587 L 219.315614 201.93017 C 227.341656 195.742669 234.201031 192.648919 239.888532 192.648919 C 245.570824 192.648919 252.122908 197.279128 259.539575 206.529128 C 267.008325 215.784337 270.742701 223.06038 270.742701 228.357255 C 270.742701 233.596839 266.508325 239.758297 258.034366 246.836423 Z M 296.367702 275.940591 C 296.367702 248.508298 305.956245 225.90413 325.138537 208.11767 C 344.367705 190.279127 366.305207 181.36246 390.945833 181.36246 C 415.58646 181.36246 437.388545 190.221836 456.341671 207.951004 C 475.294797 225.62288 484.773965 248.174965 484.773965 275.60205 C 484.773965 294.560384 479.867714 311.393719 470.055214 326.11247 C 460.242713 340.831221 448.310421 351.674971 434.263545 358.643722 C 420.216669 365.607264 405.638543 369.091639 390.529167 369.091639 C 375.477082 369.091639 360.872915 365.388514 346.711456 357.971847 C 332.607288 350.55518 320.674996 339.602054 310.919787 325.107261 C 301.221869 310.560385 296.367702 294.169759 296.367702 275.940591 Z M 367.95104 300.440593 C 375.310416 306.01351 382.753125 308.799969 390.279167 308.799969 C 397.805209 308.799969 405.331251 305.956218 412.857293 300.273926 C 420.383335 294.529134 424.143752 286.086425 424.143752 274.935383 C 424.143752 263.727049 420.607294 255.393715 413.52396 249.930173 C 406.445834 244.414548 398.779167 241.654131 390.529167 241.654131 C 382.336458 241.654131 374.695832 244.523923 367.617707 250.263506 C 360.534373 255.951007 356.997915 264.341632 356.997915 275.435383 C 356.997915 286.47705 360.648956 294.810384 367.95104 300.440593 Z M 367.95104 300.440593 " stroke="#7e0030" stroke-width="12.844538" stroke-opacity="1" stroke-miterlimit="4"/><g fill="#fb6ea4" fill-opacity="1"><g transform="translate(41.579702, 278.372677)"><g><path d="M 89.90625 -67.8125 L 124.078125 -39.5625 C 128.359375 -35.96875 131.054688 -33.226562 132.171875 -31.34375 C 133.285156 -29.457031 133.84375 -27.660156 133.84375 -25.953125 C 133.84375 -21.835938 131.1875 -16.269531 125.875 -9.25 C 120.050781 -2.050781 114.914062 1.546875 110.46875 1.546875 C 106.695312 1.546875 101.472656 -0.9375 94.796875 -5.90625 L 92.21875 -7.703125 C 88.28125 -10.960938 82.203125 -16.660156 73.984375 -24.796875 C 65.765625 -32.929688 59.515625 -38.707031 55.234375 -42.125 L 55.234375 -22.34375 C 55.234375 -18.40625 55.101562 -15.453125 54.84375 -13.484375 C 54.582031 -11.515625 53.769531 -9.242188 52.40625 -6.671875 C 50.175781 -2.222656 43.582031 0 32.625 0 C 21.832031 0 15.238281 -2.3125 12.84375 -6.9375 C 11.644531 -9.507812 10.914062 -11.78125 10.65625 -13.75 C 10.40625 -15.71875 10.28125 -18.671875 10.28125 -22.609375 L 10.28125 -176.484375 C 10.28125 -180.421875 10.40625 -183.375 10.65625 -185.34375 C 10.914062 -187.3125 11.644531 -189.582031 12.84375 -192.15625 C 15.238281 -196.78125 21.914062 -199.09375 32.875 -199.09375 C 41.101562 -199.09375 46.925781 -197.632812 50.34375 -194.71875 C 53.257812 -192.320312 54.800781 -188.554688 54.96875 -183.421875 C 55.144531 -181.878906 55.234375 -179.484375 55.234375 -176.234375 L 55.234375 -94.796875 C 58.316406 -97.359375 62.984375 -101.722656 69.234375 -107.890625 C 75.484375 -114.054688 80.148438 -118.425781 83.234375 -121 L 86.3125 -123.046875 C 92.3125 -127.671875 97.453125 -129.984375 101.734375 -129.984375 C 106.015625 -129.984375 110.9375 -126.515625 116.5 -119.578125 C 122.0625 -112.640625 124.84375 -107.203125 124.84375 -103.265625 C 124.84375 -99.328125 121.675781 -94.703125 115.34375 -89.390625 Z M 89.90625 -67.8125 "/></g></g></g><g fill="#fb6ea4" fill-opacity="1"><g transform="translate(179.272485, 278.372677)"><g><path d="M 6.421875 -67.5625 C 6.421875 -88.113281 13.613281 -105.066406 28 -118.421875 C 42.382812 -131.785156 58.820312 -138.46875 77.3125 -138.46875 C 95.8125 -138.46875 112.171875 -131.828125 126.390625 -118.546875 C 140.609375 -105.273438 147.71875 -88.363281 147.71875 -67.8125 C 147.71875 -53.601562 144.035156 -40.972656 136.671875 -29.921875 C 129.304688 -18.878906 120.351562 -10.742188 109.8125 -5.515625 C 99.28125 -0.296875 88.363281 2.3125 77.0625 2.3125 C 65.757812 2.3125 54.800781 -0.46875 44.1875 -6.03125 C 33.570312 -11.601562 24.625 -19.828125 17.34375 -30.703125 C 10.0625 -41.578125 6.421875 -53.863281 6.421875 -67.5625 Z M 60.109375 -49.1875 C 65.585938 -45 71.148438 -42.90625 76.796875 -42.90625 C 82.453125 -42.90625 88.109375 -45.046875 93.765625 -49.328125 C 99.421875 -53.609375 102.25 -59.941406 102.25 -68.328125 C 102.25 -76.722656 99.59375 -82.972656 94.28125 -87.078125 C 88.96875 -91.191406 83.226562 -93.25 77.0625 -93.25 C 70.894531 -93.25 65.15625 -91.109375 59.84375 -86.828125 C 54.539062 -82.546875 51.890625 -76.25 51.890625 -67.9375 C 51.890625 -59.632812 54.628906 -53.382812 60.109375 -49.1875 Z M 60.109375 -49.1875 "/></g></g></g></svg>