<svg xmlns="http://www.w3.org/2000/svg" xmlns:xlink="http://www.w3.org/1999/xlink" width="500" zoomAndPan="magnify" viewBox="0 0 375 374.999991" height="500" preserveAspectRatio="xMidYMid meet" version="1.0"><defs><g/></defs><path stroke-linecap="butt" transform="matrix(0.75, 0, 0, 0.75, -36.607793, 3.872669)" fill="none" stroke-linejoin="miter" d="M 223.133322 275.602084 L 268.622909 313.232295 C 274.367701 318.029171 277.961451 321.680213 279.414576 324.190629 C 280.919785 326.695838 281.669785 329.09688 281.669785 331.37813 C 281.669785 336.898964 278.128118 344.341672 271.049992 353.706256 C 263.299992 363.294799 256.445825 368.091674 250.477074 368.091674 C 245.461449 368.091674 238.492698 364.773965 229.570823 358.138548 L 226.143739 355.716673 C 220.904156 351.367714 212.79478 343.784381 201.810404 332.966672 C 190.88332 322.096879 182.576028 314.378129 176.888528 309.805212 L 176.888528 336.232297 C 176.888528 341.47188 176.695819 345.398964 176.305194 348.018756 C 175.971861 350.643756 174.909361 353.680215 173.128111 357.138548 C 170.117694 363.044799 161.310402 365.997924 146.701026 365.997924 C 132.320816 365.997924 123.539566 362.904174 120.362482 356.716673 C 118.742691 353.315631 117.768732 350.305214 117.435399 347.685423 C 117.102065 345.065631 116.935399 341.138547 116.935399 335.893755 L 116.935399 130.685408 C 116.935399 125.445825 117.102065 121.513533 117.435399 118.893741 C 117.768732 116.273949 118.742691 113.23749 120.362482 109.779157 C 123.539566 103.648948 132.430191 100.58124 147.039567 100.58124 C 158.018735 100.58124 165.794777 102.503115 170.367694 106.352073 C 174.216653 109.586449 176.279153 114.602074 176.555194 121.404158 C 176.779153 123.466658 176.888528 126.669783 176.888528 131.018742 L 176.888528 239.643749 C 180.961445 236.190624 187.148945 230.362498 195.456237 222.169789 C 203.815613 213.919789 210.060405 208.091663 214.185405 204.690622 L 218.284364 201.930205 C 226.310406 195.742704 233.169781 192.648954 238.857282 192.648954 C 244.539574 192.648954 251.091658 197.279163 258.508325 206.529163 C 265.977075 215.784372 269.71145 223.060414 269.71145 228.35729 C 269.71145 233.596873 265.477075 239.758332 257.003116 246.836458 Z M 380.633333 365.331257 C 357.612498 365.331257 338.487497 356.607298 323.268746 339.15938 C 308.107286 321.654171 300.523953 300.357294 300.523953 275.268751 L 300.523953 215.310414 C 300.523953 209.78958 300.690619 205.779163 301.023953 203.268746 C 301.357286 200.75833 302.336453 197.805204 303.951036 194.404162 C 307.12812 188.216662 316.023954 185.122912 330.628121 185.122912 C 346.628122 185.122912 355.992706 189.471871 358.727081 198.169788 C 360.117706 201.794788 360.815623 207.617705 360.815623 215.643747 L 360.815623 275.602084 C 360.815623 284.966668 363.492707 292.273961 368.841665 297.513544 C 374.195832 302.753128 381.388541 305.37292 390.419792 305.37292 C 399.451042 305.37292 406.753126 302.643753 412.326043 297.180211 C 417.956252 291.659377 420.77396 284.466668 420.77396 275.602084 L 420.77396 214.977081 C 420.77396 209.680205 420.940627 205.721872 421.27396 203.10208 C 421.607294 200.482288 422.695836 197.471871 424.534377 194.070829 C 427.492711 188.107287 436.273961 185.122912 450.878129 185.122912 C 465.258338 185.122912 474.039589 188.216662 477.216672 194.404162 C 478.836464 197.805204 479.810423 200.846871 480.143756 203.518746 C 480.482298 206.138538 480.648964 210.07083 480.648964 215.310414 L 480.648964 336.56563 C 480.648964 341.581255 480.482298 345.398964 480.143756 348.018756 C 479.810423 350.643756 478.721881 353.53959 476.883339 356.716673 C 473.482297 362.685424 464.701047 365.66459 450.544796 365.66459 C 436.607295 365.66459 428.050003 362.935424 424.872919 357.471882 C 422.586461 353.565631 421.440627 348.883339 421.440627 343.419797 C 420.49271 344.982297 418.43021 347.268756 415.253127 350.279173 C 412.076043 353.232298 408.982293 355.742715 405.971876 357.805215 C 398.221876 362.82084 389.779167 365.331257 380.633333 365.331257 Z M 380.633333 365.331257 " stroke="#7e0030" stroke-width="12.844538" stroke-opacity="1" stroke-miterlimit="4"/><g fill="#fb6ea4" fill-opacity="1"><g transform="translate(40.806264, 278.372651)"><g><path d="M 89.90625 -67.8125 L 124.078125 -39.5625 C 128.359375 -35.96875 131.054688 -33.226562 132.171875 -31.34375 C 133.285156 -29.457031 133.84375 -27.660156 133.84375 -25.953125 C 133.84375 -21.835938 131.1875 -16.269531 125.875 -9.25 C 120.050781 -2.050781 114.914062 1.546875 110.46875 1.546875 C 106.695312 1.546875 101.472656 -0.9375 94.796875 -5.90625 L 92.21875 -7.703125 C 88.28125 -10.960938 82.203125 -16.660156 73.984375 -24.796875 C 65.765625 -32.929688 59.515625 -38.707031 55.234375 -42.125 L 55.234375 -22.34375 C 55.234375 -18.40625 55.101562 -15.453125 54.84375 -13.484375 C 54.582031 -11.515625 53.769531 -9.242188 52.40625 -6.671875 C 50.175781 -2.222656 43.582031 0 32.625 0 C 21.832031 0 15.238281 -2.3125 12.84375 -6.9375 C 11.644531 -9.507812 10.914062 -11.78125 10.65625 -13.75 C 10.40625 -15.71875 10.28125 -18.671875 10.28125 -22.609375 L 10.28125 -176.484375 C 10.28125 -180.421875 10.40625 -183.375 10.65625 -185.34375 C 10.914062 -187.3125 11.644531 -189.582031 12.84375 -192.15625 C 15.238281 -196.78125 21.914062 -199.09375 32.875 -199.09375 C 41.101562 -199.09375 46.925781 -197.632812 50.34375 -194.71875 C 53.257812 -192.320312 54.800781 -188.554688 54.96875 -183.421875 C 55.144531 -181.878906 55.234375 -179.484375 55.234375 -176.234375 L 55.234375 -94.796875 C 58.316406 -97.359375 62.984375 -101.722656 69.234375 -107.890625 C 75.484375 -114.054688 80.148438 -118.425781 83.234375 -121 L 86.3125 -123.046875 C 92.3125 -127.671875 97.453125 -129.984375 101.734375 -129.984375 C 106.015625 -129.984375 110.9375 -126.515625 116.5 -119.578125 C 122.0625 -112.640625 124.84375 -107.203125 124.84375 -103.265625 C 124.84375 -99.328125 121.675781 -94.703125 115.34375 -89.390625 Z M 89.90625 -67.8125 "/></g></g></g><g fill="#fb6ea4" fill-opacity="1"><g transform="translate(178.499048, 278.372651)"><g><path d="M 70.390625 -0.515625 C 53.085938 -0.515625 38.742188 -7.0625 27.359375 -20.15625 C 15.972656 -33.257812 10.28125 -49.234375 10.28125 -68.078125 L 10.28125 -113.03125 C 10.28125 -117.144531 10.40625 -120.140625 10.65625 -122.015625 C 10.914062 -123.898438 11.644531 -126.128906 12.84375 -128.703125 C 15.238281 -133.328125 21.914062 -135.640625 32.875 -135.640625 C 44.863281 -135.640625 51.890625 -132.382812 53.953125 -125.875 C 54.972656 -123.132812 55.484375 -118.769531 55.484375 -112.78125 L 55.484375 -67.8125 C 55.484375 -60.789062 57.492188 -55.3125 61.515625 -51.375 C 65.546875 -47.4375 70.941406 -45.46875 77.703125 -45.46875 C 84.472656 -45.46875 89.953125 -47.519531 94.140625 -51.625 C 98.335938 -55.738281 100.4375 -61.132812 100.4375 -67.8125 L 100.4375 -113.28125 C 100.4375 -117.226562 100.566406 -120.1875 100.828125 -122.15625 C 101.085938 -124.125 101.898438 -126.390625 103.265625 -128.953125 C 105.492188 -133.410156 112.085938 -135.640625 123.046875 -135.640625 C 133.835938 -135.640625 140.429688 -133.328125 142.828125 -128.703125 C 144.023438 -126.128906 144.753906 -123.859375 145.015625 -121.890625 C 145.273438 -119.921875 145.40625 -116.96875 145.40625 -113.03125 L 145.40625 -22.09375 C 145.40625 -18.320312 145.273438 -15.453125 145.015625 -13.484375 C 144.753906 -11.515625 143.941406 -9.332031 142.578125 -6.9375 C 140.003906 -2.476562 133.410156 -0.25 122.796875 -0.25 C 112.347656 -0.25 105.925781 -2.304688 103.53125 -6.421875 C 101.8125 -9.335938 100.953125 -12.847656 100.953125 -16.953125 C 100.273438 -15.753906 98.734375 -14.039062 96.328125 -11.8125 C 93.929688 -9.59375 91.617188 -7.710938 89.390625 -6.171875 C 83.566406 -2.398438 77.234375 -0.515625 70.390625 -0.515625 Z M 70.390625 -0.515625 "/></g></g></g></svg>