<svg xmlns="http://www.w3.org/2000/svg" xmlns:xlink="http://www.w3.org/1999/xlink" width="500" zoomAndPan="magnify" viewBox="0 0 375 374.999991" height="500" preserveAspectRatio="xMidYMid meet" version="1.0"><defs><g/></defs><path stroke-linecap="butt" transform="matrix(0.75, 0, 0, 0.75, -36.607793, 3.940767)" fill="none" stroke-linejoin="miter" d="M 154.435401 130.683152 C 154.435401 125.443569 154.602068 121.516485 154.935401 118.891485 C 155.268735 116.271693 156.242693 113.235234 157.862485 109.776901 C 161.039568 103.646692 169.930194 100.578984 184.53957 100.578984 C 198.471862 100.578984 207.16978 103.646692 210.628113 109.776901 C 212.409363 113.235234 213.471863 116.328985 213.805197 119.06336 C 214.195822 121.792527 214.38853 125.776902 214.38853 131.021694 L 214.38853 289.651913 C 214.38853 297.84983 215.060405 303.032122 216.398947 305.203997 C 217.789572 307.38108 220.831239 308.469622 225.513531 308.469622 C 230.195823 308.469622 233.315615 308.636289 234.878115 308.969622 C 236.492698 309.302956 238.445823 310.276914 240.732282 311.896706 C 245.305199 314.849831 247.586449 322.964415 247.586449 336.230041 C 247.586449 350.615458 245.305199 359.391501 240.732282 362.573792 C 234.820823 366.698793 220.664572 367.391501 198.253112 364.662334 C 180.690611 362.375876 169.289569 356.552959 164.049985 347.183166 C 157.638526 335.980041 154.435401 318.16754 154.435401 293.750871 Z M 383.591666 204.693574 C 384.930208 191.870656 393.935417 185.459197 410.602085 185.459197 C 419.52396 185.459197 426.154169 186.157114 430.503128 187.547739 C 434.852086 188.943573 437.862503 191.339406 439.534378 194.740448 C 441.263545 198.14149 442.294795 201.177949 442.628129 203.855032 C 442.96667 206.474824 443.133337 210.407116 443.133337 215.646699 L 443.133337 335.480041 C 443.133337 340.771708 442.96667 344.730041 442.628129 347.349833 C 442.294795 349.974833 441.320837 352.98525 439.706253 356.381084 C 436.523961 362.349834 428.721878 365.329001 416.289585 365.329001 C 403.857293 365.329001 395.523959 363.797751 391.284375 360.730042 C 387.05 357.61025 384.596875 353.094625 383.925 347.183166 C 375.451041 359.282126 361.346873 365.329001 341.612497 365.329001 C 321.878121 365.329001 303.539578 356.329 286.59166 338.318583 C 269.695825 320.256081 261.253117 299.297747 261.253117 275.43837 C 261.253117 251.573785 269.753117 230.698784 286.758327 212.802949 C 303.815619 194.849823 322.492704 185.875864 342.784372 185.875864 C 350.591664 185.875864 357.66979 187.240448 364.023957 189.974823 C 370.435415 192.70399 374.893749 195.271698 377.404166 197.667532 C 379.914583 200.063365 381.977083 202.407115 383.591666 204.693574 Z M 321.211454 275.93837 C 321.211454 283.464412 324.164579 290.266496 330.076038 296.339413 C 336.03958 302.360247 343.232289 305.375872 351.648956 305.375872 C 360.122915 305.375872 367.148957 302.308163 372.721874 296.172746 C 378.352083 289.985246 381.169791 283.183162 381.169791 275.771703 C 381.169791 268.355036 378.461458 261.443577 373.055207 255.032119 C 367.706249 248.62066 360.51354 245.417535 351.482289 245.417535 C 342.50833 245.417535 335.201038 248.62066 329.570829 255.032119 C 323.997912 261.443577 321.211454 268.412328 321.211454 275.93837 Z M 321.211454 275.93837 " stroke="#806400" stroke-width="17.126051" stroke-opacity="1" stroke-miterlimit="4"/><g fill="#ffce1f" fill-opacity="1"><g transform="translate(68.931262, 278.440749)"><g><path d="M 10.28125 -176.484375 C 10.28125 -180.421875 10.40625 -183.375 10.65625 -185.34375 C 10.914062 -187.3125 11.644531 -189.582031 12.84375 -192.15625 C 15.238281 -196.78125 21.914062 -199.09375 32.875 -199.09375 C 43.320312 -199.09375 49.832031 -196.78125 52.40625 -192.15625 C 53.769531 -189.582031 54.582031 -187.269531 54.84375 -185.21875 C 55.101562 -183.164062 55.234375 -180.171875 55.234375 -176.234375 L 55.234375 -57.28125 C 55.234375 -51.113281 55.742188 -47.21875 56.765625 -45.59375 C 57.796875 -43.96875 60.066406 -43.15625 63.578125 -43.15625 C 67.085938 -43.15625 69.441406 -43.023438 70.640625 -42.765625 C 71.835938 -42.515625 73.296875 -41.789062 75.015625 -40.59375 C 78.441406 -38.363281 80.15625 -32.28125 80.15625 -22.34375 C 80.15625 -11.5625 78.441406 -4.96875 75.015625 -2.5625 C 70.554688 0.519531 59.9375 1.03125 43.15625 -1.03125 C 29.96875 -2.738281 21.40625 -7.101562 17.46875 -14.125 C 12.675781 -22.519531 10.28125 -35.878906 10.28125 -54.203125 Z M 10.28125 -176.484375 "/></g></g></g><g fill="#ffce1f" fill-opacity="1"><g transform="translate(152.934129, 278.440749)"><g><path d="M 98.125 -121 C 99.15625 -130.582031 105.921875 -135.375 118.421875 -135.375 C 125.097656 -135.375 130.0625 -134.859375 133.3125 -133.828125 C 136.570312 -132.804688 138.84375 -131.007812 140.125 -128.4375 C 141.414062 -125.875 142.1875 -123.609375 142.4375 -121.640625 C 142.695312 -119.671875 142.828125 -116.71875 142.828125 -112.78125 L 142.828125 -22.859375 C 142.828125 -18.921875 142.695312 -15.96875 142.4375 -14 C 142.1875 -12.03125 141.460938 -9.757812 140.265625 -7.1875 C 137.867188 -2.738281 132.003906 -0.515625 122.671875 -0.515625 C 113.335938 -0.515625 107.082031 -1.671875 103.90625 -3.984375 C 100.738281 -6.296875 98.898438 -9.675781 98.390625 -14.125 C 92.054688 -5.050781 81.476562 -0.515625 66.65625 -0.515625 C 51.84375 -0.515625 38.097656 -7.28125 25.421875 -20.8125 C 12.753906 -34.34375 6.421875 -50.054688 6.421875 -67.953125 C 6.421875 -85.847656 12.800781 -101.515625 25.5625 -114.953125 C 38.320312 -128.398438 52.320312 -135.125 67.5625 -135.125 C 73.382812 -135.125 78.691406 -134.09375 83.484375 -132.03125 C 88.285156 -129.976562 91.625 -128.050781 93.5 -126.25 C 95.382812 -124.457031 96.925781 -122.707031 98.125 -121 Z M 51.375 -67.5625 C 51.375 -61.90625 53.597656 -56.804688 58.046875 -52.265625 C 62.503906 -47.734375 67.898438 -45.46875 74.234375 -45.46875 C 80.578125 -45.46875 85.84375 -47.78125 90.03125 -52.40625 C 94.226562 -57.03125 96.328125 -62.125 96.328125 -67.6875 C 96.328125 -73.257812 94.316406 -78.441406 90.296875 -83.234375 C 86.273438 -88.023438 80.878906 -90.421875 74.109375 -90.421875 C 67.347656 -90.421875 61.867188 -88.023438 57.671875 -83.234375 C 53.472656 -78.441406 51.375 -73.21875 51.375 -67.5625 Z M 51.375 -67.5625 "/></g></g></g></svg>