<svg xmlns="http://www.w3.org/2000/svg" xmlns:xlink="http://www.w3.org/1999/xlink" width="500" zoomAndPan="magnify" viewBox="0 0 375 374.999991" height="500" preserveAspectRatio="xMidYMid meet" version="1.0"><defs><g/></defs><path stroke-linecap="butt" transform="matrix(0.75, 0, 0, 0.75, -36.607793, 3.940752)" fill="none" stroke-linejoin="miter" d="M 158.372902 130.683173 C 158.372902 125.443589 158.539568 121.516506 158.872902 118.891506 C 159.206235 116.271714 160.180193 113.235255 161.799985 109.776922 C 164.977069 103.646713 173.867694 100.579004 188.47707 100.579004 C 202.409363 100.579004 211.10728 103.646713 214.565614 109.776922 C 216.346864 113.235255 217.409364 116.329005 217.742697 119.063381 C 218.133322 121.792547 218.32603 125.776923 218.32603 131.021715 L 218.32603 289.651933 C 218.32603 297.844642 218.997905 303.032143 220.336447 305.204018 C 221.727072 307.381101 224.768739 308.469643 229.451031 308.469643 C 234.133323 308.469643 237.253115 308.63631 238.815615 308.969643 C 240.430199 309.302976 242.383324 310.276935 244.669782 311.896727 C 249.242699 314.849852 251.523949 322.964436 251.523949 336.230061 C 251.523949 350.615479 249.242699 359.391521 244.669782 362.573813 C 238.758323 366.698813 224.602073 367.391522 202.190613 364.662355 C 184.628112 362.375897 173.227069 356.552979 167.987485 347.183187 C 161.576027 335.980061 158.372902 318.16756 158.372902 293.750892 Z M 444.393754 254.193598 C 444.393754 268.245682 440.909378 278.641516 433.940628 285.386308 C 426.971877 292.079017 419.253127 295.422767 410.779168 295.422767 L 329.581246 295.422767 C 329.581246 301.834226 333.341663 307.214435 340.867705 311.563393 C 348.451039 315.912352 356.003123 318.084227 363.529165 318.084227 C 376.799999 318.084227 387.195833 316.688394 394.721875 313.901935 L 398.482292 312.563393 C 403.945834 310.058185 408.518751 308.802976 412.201043 308.802976 C 419.503127 308.802976 425.773961 313.933185 431.013544 324.188394 C 433.96667 330.375894 435.445836 335.646728 435.445836 339.995687 C 435.445836 360.287355 411.138543 370.433189 362.529165 370.433189 C 345.63333 370.433189 330.612496 367.532147 317.456245 361.735271 C 304.352078 355.881104 294.12291 348.162354 286.763535 338.573812 C 272.383326 320.120685 265.190617 299.464434 265.190617 276.605058 C 265.190617 247.839431 274.497909 224.844638 293.117702 207.61547 C 311.737495 190.334219 334.987496 181.693593 362.862498 181.693593 C 394.58125 181.693593 417.857294 192.901927 432.68542 215.313387 C 440.492712 227.183179 444.393754 240.146722 444.393754 254.193598 Z M 372.060416 264.230057 C 380.758333 264.230057 385.107291 260.579015 385.107291 253.276931 C 385.107291 248.037347 383.096875 243.829014 379.086458 240.646722 C 375.128124 237.469638 369.409374 235.881097 361.940623 235.881097 C 354.529164 235.881097 347.169789 238.922763 339.862497 244.99568 C 332.560413 251.016514 328.909371 257.427973 328.909371 264.230057 Z M 372.060416 264.230057 " stroke="#806400" stroke-width="17.126051" stroke-opacity="1" stroke-miterlimit="4"/><g fill="#ffce1f" fill-opacity="1"><g transform="translate(71.884387, 278.440734)"><g><path d="M 10.28125 -176.484375 C 10.28125 -180.421875 10.40625 -183.375 10.65625 -185.34375 C 10.914062 -187.3125 11.644531 -189.582031 12.84375 -192.15625 C 15.238281 -196.78125 21.914062 -199.09375 32.875 -199.09375 C 43.320312 -199.09375 49.832031 -196.78125 52.40625 -192.15625 C 53.769531 -189.582031 54.582031 -187.269531 54.84375 -185.21875 C 55.101562 -183.164062 55.234375 -180.171875 55.234375 -176.234375 L 55.234375 -57.28125 C 55.234375 -51.113281 55.742188 -47.21875 56.765625 -45.59375 C 57.796875 -43.96875 60.066406 -43.15625 63.578125 -43.15625 C 67.085938 -43.15625 69.441406 -43.023438 70.640625 -42.765625 C 71.835938 -42.515625 73.296875 -41.789062 75.015625 -40.59375 C 78.441406 -38.363281 80.15625 -32.28125 80.15625 -22.34375 C 80.15625 -11.5625 78.441406 -4.96875 75.015625 -2.5625 C 70.554688 0.519531 59.9375 1.03125 43.15625 -1.03125 C 29.96875 -2.738281 21.40625 -7.101562 17.46875 -14.125 C 12.675781 -22.519531 10.28125 -35.878906 10.28125 -54.203125 Z M 10.28125 -176.484375 "/></g></g></g><g fill="#ffce1f" fill-opacity="1"><g transform="translate(155.887254, 278.440734)"><g><path d="M 140.78125 -83.875 C 140.78125 -73.34375 138.164062 -65.550781 132.9375 -60.5 C 127.71875 -55.445312 121.9375 -52.921875 115.59375 -52.921875 L 54.71875 -52.921875 C 54.71875 -48.117188 57.539062 -44.09375 63.1875 -40.84375 C 68.84375 -37.59375 74.5 -35.96875 80.15625 -35.96875 C 90.082031 -35.96875 97.875 -36.992188 103.53125 -39.046875 L 106.359375 -40.078125 C 110.460938 -41.960938 113.882812 -42.90625 116.625 -42.90625 C 122.101562 -42.90625 126.8125 -39.050781 130.75 -31.34375 C 132.976562 -26.71875 134.09375 -22.78125 134.09375 -19.53125 C 134.09375 -4.28125 115.851562 3.34375 79.375 3.34375 C 66.707031 3.34375 55.445312 1.160156 45.59375 -3.203125 C 35.75 -7.578125 28.085938 -13.359375 22.609375 -20.546875 C 11.816406 -34.421875 6.421875 -49.921875 6.421875 -67.046875 C 6.421875 -88.628906 13.398438 -105.882812 27.359375 -118.8125 C 41.316406 -131.738281 58.742188 -138.203125 79.640625 -138.203125 C 103.441406 -138.203125 120.910156 -129.8125 132.046875 -113.03125 C 137.867188 -104.125 140.78125 -94.40625 140.78125 -83.875 Z M 86.578125 -76.296875 C 93.078125 -76.296875 96.328125 -79.035156 96.328125 -84.515625 C 96.328125 -88.453125 94.828125 -91.617188 91.828125 -94.015625 C 88.835938 -96.421875 84.554688 -97.625 78.984375 -97.625 C 73.421875 -97.625 67.898438 -95.351562 62.421875 -90.8125 C 56.941406 -86.269531 54.203125 -81.429688 54.203125 -76.296875 Z M 86.578125 -76.296875 "/></g></g></g></svg>