<svg xmlns="http://www.w3.org/2000/svg" xmlns:xlink="http://www.w3.org/1999/xlink" width="500" zoomAndPan="magnify" viewBox="0 0 375 374.999991" height="500" preserveAspectRatio="xMidYMid meet" version="1.0"><defs><g/></defs><path stroke-linecap="butt" transform="matrix(0.75, 0, 0, 0.75, -36.607793, 3.940781)" fill="none" stroke-linejoin="miter" d="M 212.841655 130.683134 C 212.841655 125.44355 213.008322 121.516467 213.341655 118.891466 C 213.674988 116.271675 214.648947 113.235216 216.268739 109.776883 C 219.445822 103.646674 228.336448 100.578965 242.945824 100.578965 C 256.878116 100.578965 265.576034 103.646674 269.034367 109.776883 C 270.815617 113.235216 271.878117 116.328966 272.211451 119.063341 C 272.602076 121.792508 272.794784 125.776884 272.794784 131.021676 L 272.794784 289.651894 C 272.794784 297.849812 273.466659 303.032104 274.805201 305.203979 C 276.195826 307.381062 279.237493 308.469604 283.919785 308.469604 C 288.602077 308.469604 291.721869 308.636271 293.284369 308.969604 C 294.898952 309.302937 296.852077 310.276896 299.138536 311.896687 C 303.711453 314.849813 305.992703 322.964397 305.992703 336.230022 C 305.992703 350.61544 303.711453 359.391482 299.138536 362.573774 C 293.227077 366.698774 279.070826 367.391483 256.659366 364.662316 C 239.096865 362.375857 227.695823 356.55294 222.456239 347.183148 C 216.04478 335.980022 212.841655 318.167521 212.841655 293.750853 Z M 324.841662 215.646681 C 324.841662 210.407097 325.008329 206.474806 325.346871 203.855014 C 325.680204 201.17793 326.654163 198.141472 328.273954 194.74043 C 331.451038 188.828971 340.341663 185.875846 354.945831 185.875846 C 365.930207 185.875846 373.706249 187.797721 378.279166 191.64668 C 382.122916 194.823763 384.185416 199.730013 384.466666 206.365431 C 384.690625 208.651889 384.8 211.964389 384.8 216.313348 L 384.8 336.230022 C 384.8 341.469606 384.607291 345.401898 384.216666 348.02169 C 383.883333 350.641482 382.820833 353.67794 381.039583 357.136274 C 378.029166 363.047733 369.216665 366.000858 354.612498 366.000858 C 340.22708 366.000858 331.451038 362.907108 328.273954 356.719607 C 326.654163 353.318565 325.680204 350.360232 325.346871 347.855023 C 325.008329 345.344606 324.841662 341.360231 324.841662 335.896689 Z M 381.122916 152.094594 C 379.451041 155.381052 376.440624 157.724802 372.091666 159.115427 C 367.742707 160.511261 361.971873 161.209178 354.779164 161.209178 C 347.586456 161.209178 341.82083 160.511261 337.471872 159.115427 C 333.174996 157.724802 330.164579 155.323761 328.440621 151.922719 C 326.711454 148.526885 325.680204 145.516468 325.346871 142.891468 C 325.008329 140.219593 324.841662 136.261259 324.841662 131.021676 C 324.841662 125.776884 325.008329 121.8498 325.346871 119.230008 C 325.680204 116.610216 326.654163 113.683133 328.273954 110.448758 C 331.451038 104.313341 340.341663 101.25084 354.945831 101.25084 C 369.331249 101.25084 378.029166 104.313341 381.039583 110.448758 C 382.820833 113.901883 383.883333 116.94355 384.216666 119.563342 C 384.607291 122.183133 384.8 126.115425 384.8 131.355009 C 384.8 136.594593 384.607291 140.552926 384.216666 143.23001 C 383.883333 145.849802 382.852083 148.802927 381.122916 152.094594 Z M 381.122916 152.094594 " stroke="#806400" stroke-width="17.126051" stroke-opacity="1" stroke-miterlimit="4"/><g fill="#ffce1f" fill-opacity="1"><g transform="translate(112.735947, 278.440763)"><g><path d="M 10.28125 -176.484375 C 10.28125 -180.421875 10.40625 -183.375 10.65625 -185.34375 C 10.914062 -187.3125 11.644531 -189.582031 12.84375 -192.15625 C 15.238281 -196.78125 21.914062 -199.09375 32.875 -199.09375 C 43.320312 -199.09375 49.832031 -196.78125 52.40625 -192.15625 C 53.769531 -189.582031 54.582031 -187.269531 54.84375 -185.21875 C 55.101562 -183.164062 55.234375 -180.171875 55.234375 -176.234375 L 55.234375 -57.28125 C 55.234375 -51.113281 55.742188 -47.21875 56.765625 -45.59375 C 57.796875 -43.96875 60.066406 -43.15625 63.578125 -43.15625 C 67.085938 -43.15625 69.441406 -43.023438 70.640625 -42.765625 C 71.835938 -42.515625 73.296875 -41.789062 75.015625 -40.59375 C 78.441406 -38.363281 80.15625 -32.28125 80.15625 -22.34375 C 80.15625 -11.5625 78.441406 -4.96875 75.015625 -2.5625 C 70.554688 0.519531 59.9375 1.03125 43.15625 -1.03125 C 29.96875 -2.738281 21.40625 -7.101562 17.46875 -14.125 C 12.675781 -22.519531 10.28125 -35.878906 10.28125 -54.203125 Z M 10.28125 -176.484375 "/></g></g></g><g fill="#ffce1f" fill-opacity="1"><g transform="translate(196.738814, 278.440763)"><g><path d="M 10.28125 -112.78125 C 10.28125 -116.71875 10.40625 -119.671875 10.65625 -121.640625 C 10.914062 -123.609375 11.644531 -125.875 12.84375 -128.4375 C 15.238281 -132.894531 21.914062 -135.125 32.875 -135.125 C 41.101562 -135.125 46.925781 -133.664062 50.34375 -130.75 C 53.257812 -128.351562 54.800781 -124.675781 54.96875 -119.71875 C 55.144531 -118 55.234375 -115.515625 55.234375 -112.265625 L 55.234375 -22.34375 C 55.234375 -18.40625 55.101562 -15.453125 54.84375 -13.484375 C 54.582031 -11.515625 53.769531 -9.242188 52.40625 -6.671875 C 50.175781 -2.222656 43.582031 0 32.625 0 C 21.832031 0 15.238281 -2.3125 12.84375 -6.9375 C 11.644531 -9.507812 10.914062 -11.734375 10.65625 -13.609375 C 10.40625 -15.492188 10.28125 -18.492188 10.28125 -22.609375 Z M 52.53125 -160.421875 C 51.25 -157.941406 48.976562 -156.1875 45.71875 -155.15625 C 42.46875 -154.132812 38.144531 -153.625 32.75 -153.625 C 27.351562 -153.625 23.03125 -154.132812 19.78125 -155.15625 C 16.53125 -156.1875 14.257812 -157.984375 12.96875 -160.546875 C 11.6875 -163.117188 10.914062 -165.390625 10.65625 -167.359375 C 10.40625 -169.328125 10.28125 -172.28125 10.28125 -176.21875 C 10.28125 -180.164062 10.40625 -183.125 10.65625 -185.09375 C 10.914062 -187.0625 11.644531 -189.242188 12.84375 -191.640625 C 15.238281 -196.265625 21.914062 -198.578125 32.875 -198.578125 C 43.664062 -198.578125 50.175781 -196.265625 52.40625 -191.640625 C 53.769531 -189.066406 54.582031 -186.796875 54.84375 -184.828125 C 55.101562 -182.859375 55.234375 -179.90625 55.234375 -175.96875 C 55.234375 -172.03125 55.101562 -169.078125 54.84375 -167.109375 C 54.582031 -165.140625 53.8125 -162.910156 52.53125 -160.421875 Z M 52.53125 -160.421875 "/></g></g></g></svg>