<svg xmlns="http://www.w3.org/2000/svg" xmlns:xlink="http://www.w3.org/1999/xlink" width="500" zoomAndPan="magnify" viewBox="0 0 375 374.999991" height="500" preserveAspectRatio="xMidYMid meet" version="1.0"><defs><g/></defs><path stroke-linecap="butt" transform="matrix(0.75, 0, 0, 0.75, -36.607793, 3.940781)" fill="none" stroke-linejoin="miter" d="M 153.763526 130.683134 C 153.763526 125.44355 153.930193 121.516467 154.263526 118.891466 C 154.59686 116.271675 155.570818 113.235216 157.19061 109.776883 C 160.367693 103.646674 169.258319 100.578965 183.867695 100.578965 C 197.799987 100.578965 206.497905 103.646674 209.956238 109.776883 C 211.737488 113.235216 212.799988 116.328966 213.133322 119.063341 C 213.523947 121.792508 213.716655 125.776884 213.716655 131.021676 L 213.716655 289.651894 C 213.716655 297.849812 214.38853 303.032104 215.727072 305.203979 C 217.117697 307.381062 220.159364 308.469604 224.841656 308.469604 C 229.523948 308.469604 232.64374 308.636271 234.20624 308.969604 C 235.820823 309.302937 237.773948 310.276896 240.060407 311.896687 C 244.633324 314.849813 246.914574 322.964397 246.914574 336.230022 C 246.914574 350.61544 244.633324 359.391482 240.060407 362.573774 C 234.148948 366.698774 219.992697 367.391483 197.581237 364.662316 C 180.018736 362.375857 168.617694 356.55294 163.37811 347.183148 C 156.966651 335.980022 153.763526 318.167521 153.763526 293.750853 Z M 260.581242 275.938352 C 260.581242 248.511267 270.169784 225.90189 289.346868 208.120639 C 308.581245 190.282096 330.518746 181.360221 355.159373 181.360221 C 379.799999 181.360221 401.596876 190.224804 420.550002 207.953972 C 439.503128 225.625848 448.982296 248.172725 448.982296 275.605018 C 448.982296 294.558145 444.076045 311.396687 434.263545 326.11023 C 424.451044 340.828981 412.52396 351.672732 398.477084 358.641482 C 384.425 365.610233 369.846874 369.094608 354.737498 369.094608 C 339.685413 369.094608 325.081246 365.386274 310.919787 357.969607 C 296.815619 350.558148 284.888535 339.605023 275.128118 325.11023 C 265.4302 310.558146 260.581242 294.16752 260.581242 275.938352 Z M 332.159371 300.438353 C 339.518747 306.016479 346.961456 308.802937 354.487498 308.802937 C 362.01354 308.802937 369.539582 305.959187 377.065624 300.271687 C 384.591666 294.532103 388.357292 286.084186 388.357292 274.933143 C 388.357292 263.730018 384.815625 255.396684 377.737499 249.933142 C 370.654165 244.412308 362.992707 241.651891 354.737498 241.651891 C 346.544789 241.651891 338.909372 244.521683 331.826038 250.266475 C 324.747912 255.953975 321.206246 264.344601 321.206246 275.438352 C 321.206246 286.474811 324.857287 294.808145 332.159371 300.438353 Z M 332.159371 300.438353 " stroke="#806400" stroke-width="17.126051" stroke-opacity="1" stroke-miterlimit="4"/><g fill="#ffce1f" fill-opacity="1"><g transform="translate(68.427356, 278.440763)"><g><path d="M 10.28125 -176.484375 C 10.28125 -180.421875 10.40625 -183.375 10.65625 -185.34375 C 10.914062 -187.3125 11.644531 -189.582031 12.84375 -192.15625 C 15.238281 -196.78125 21.914062 -199.09375 32.875 -199.09375 C 43.320312 -199.09375 49.832031 -196.78125 52.40625 -192.15625 C 53.769531 -189.582031 54.582031 -187.269531 54.84375 -185.21875 C 55.101562 -183.164062 55.234375 -180.171875 55.234375 -176.234375 L 55.234375 -57.28125 C 55.234375 -51.113281 55.742188 -47.21875 56.765625 -45.59375 C 57.796875 -43.96875 60.066406 -43.15625 63.578125 -43.15625 C 67.085938 -43.15625 69.441406 -43.023438 70.640625 -42.765625 C 71.835938 -42.515625 73.296875 -41.789062 75.015625 -40.59375 C 78.441406 -38.363281 80.15625 -32.28125 80.15625 -22.34375 C 80.15625 -11.5625 78.441406 -4.96875 75.015625 -2.5625 C 70.554688 0.519531 59.9375 1.03125 43.15625 -1.03125 C 29.96875 -2.738281 21.40625 -7.101562 17.46875 -14.125 C 12.675781 -22.519531 10.28125 -35.878906 10.28125 -54.203125 Z M 10.28125 -176.484375 "/></g></g></g><g fill="#ffce1f" fill-opacity="1"><g transform="translate(152.430223, 278.440763)"><g><path d="M 6.421875 -67.5625 C 6.421875 -88.113281 13.613281 -105.066406 28 -118.421875 C 42.382812 -131.785156 58.820312 -138.46875 77.3125 -138.46875 C 95.8125 -138.46875 112.171875 -131.828125 126.390625 -118.546875 C 140.609375 -105.273438 147.71875 -88.363281 147.71875 -67.8125 C 147.71875 -53.601562 144.035156 -40.972656 136.671875 -29.921875 C 129.304688 -18.878906 120.351562 -10.742188 109.8125 -5.515625 C 99.28125 -0.296875 88.363281 2.3125 77.0625 2.3125 C 65.757812 2.3125 54.800781 -0.46875 44.1875 -6.03125 C 33.570312 -11.601562 24.625 -19.828125 17.34375 -30.703125 C 10.0625 -41.578125 6.421875 -53.863281 6.421875 -67.5625 Z M 60.109375 -49.1875 C 65.585938 -45 71.148438 -42.90625 76.796875 -42.90625 C 82.453125 -42.90625 88.109375 -45.046875 93.765625 -49.328125 C 99.421875 -53.609375 102.25 -59.941406 102.25 -68.328125 C 102.25 -76.722656 99.59375 -82.972656 94.28125 -87.078125 C 88.96875 -91.191406 83.226562 -93.25 77.0625 -93.25 C 70.894531 -93.25 65.15625 -91.109375 59.84375 -86.828125 C 54.539062 -82.546875 51.890625 -76.25 51.890625 -67.9375 C 51.890625 -59.632812 54.628906 -53.382812 60.109375 -49.1875 Z M 60.109375 -49.1875 "/></g></g></g></svg>