<svg xmlns="http://www.w3.org/2000/svg" xmlns:xlink="http://www.w3.org/1999/xlink" width="500" zoomAndPan="magnify" viewBox="0 0 375 374.999991" height="500" preserveAspectRatio="xMidYMid meet" version="1.0"><defs><g/></defs><path stroke-linecap="butt" transform="matrix(0.75, 0, 0, 0.75, -36.607793, 3.940781)" fill="none" stroke-linejoin="miter" d="M 152.732276 130.683134 C 152.732276 125.44355 152.898943 121.516467 153.232276 118.891466 C 153.56561 116.271675 154.539568 113.235216 156.15936 109.776883 C 159.336443 103.646674 168.227069 100.578965 182.836445 100.578965 C 196.768737 100.578965 205.466655 103.646674 208.924988 109.776883 C 210.706238 113.235216 211.768738 116.328966 212.102072 119.063341 C 212.492697 121.792508 212.685405 125.776884 212.685405 131.021676 L 212.685405 289.651894 C 212.685405 297.849812 213.35728 303.032104 214.695822 305.203979 C 216.086447 307.381062 219.128114 308.469604 223.810406 308.469604 C 228.492698 308.469604 231.61249 308.636271 233.17499 308.969604 C 234.789573 309.302937 236.742698 310.276896 239.029157 311.896687 C 243.602074 314.849813 245.883324 322.964397 245.883324 336.230022 C 245.883324 350.61544 243.602074 359.391482 239.029157 362.573774 C 233.117698 366.698774 218.961447 367.391483 196.549987 364.662316 C 178.987486 362.375857 167.586444 356.55294 162.34686 347.183148 C 155.935401 335.980022 152.732276 318.167521 152.732276 293.750853 Z M 344.846872 365.328983 C 321.820829 365.328983 302.701036 356.605024 287.477077 339.157106 C 272.315617 321.651896 264.732283 300.35502 264.732283 275.266477 L 264.732283 215.313348 C 264.732283 209.792514 264.89895 205.776889 265.237492 203.27168 C 265.570825 200.761264 266.544784 197.808138 268.164575 194.407096 C 271.341659 188.219596 280.232285 185.125846 294.836452 185.125846 C 310.836453 185.125846 320.201037 189.469596 322.935412 198.167513 C 324.331246 201.792514 325.023954 207.615431 325.023954 215.646681 L 325.023954 275.605018 C 325.023954 284.969602 327.701038 292.271686 333.055205 297.51127 C 338.404163 302.750854 345.596872 305.375854 354.628123 305.375854 C 363.659373 305.375854 370.961457 302.641479 376.539583 297.177937 C 382.169791 291.657103 384.982291 284.469602 384.982291 275.605018 L 384.982291 214.974806 C 384.982291 209.683139 385.148958 205.724806 385.4875 203.099805 C 385.820833 200.480014 386.909375 197.469597 388.747917 194.068555 C 391.701042 188.105013 400.482292 185.125846 415.08646 185.125846 C 429.471878 185.125846 438.253128 188.219596 441.430212 194.407096 C 443.044795 197.808138 444.023962 200.844597 444.357295 203.52168 C 444.690629 206.141472 444.857295 210.068556 444.857295 215.313348 L 444.857295 336.563356 C 444.857295 341.584189 444.690629 345.401898 444.357295 348.02169 C 444.023962 350.641482 442.93542 353.542524 441.096878 356.719607 C 437.695837 362.683149 428.914586 365.667524 414.753127 365.667524 C 400.815626 365.667524 392.258334 362.933149 389.08125 357.469607 C 386.794792 353.568565 385.654166 348.886273 385.654166 343.422731 C 384.70625 344.985231 382.64375 347.266481 379.466666 350.276898 C 376.284374 353.235232 373.190624 355.74044 370.180207 357.80294 C 362.435415 362.823774 353.987498 365.328983 344.846872 365.328983 Z M 344.846872 365.328983 " stroke="#806400" stroke-width="17.126051" stroke-opacity="1" stroke-miterlimit="4"/><g fill="#ffce1f" fill-opacity="1"><g transform="translate(67.653919, 278.440763)"><g><path d="M 10.28125 -176.484375 C 10.28125 -180.421875 10.40625 -183.375 10.65625 -185.34375 C 10.914062 -187.3125 11.644531 -189.582031 12.84375 -192.15625 C 15.238281 -196.78125 21.914062 -199.09375 32.875 -199.09375 C 43.320312 -199.09375 49.832031 -196.78125 52.40625 -192.15625 C 53.769531 -189.582031 54.582031 -187.269531 54.84375 -185.21875 C 55.101562 -183.164062 55.234375 -180.171875 55.234375 -176.234375 L 55.234375 -57.28125 C 55.234375 -51.113281 55.742188 -47.21875 56.765625 -45.59375 C 57.796875 -43.96875 60.066406 -43.15625 63.578125 -43.15625 C 67.085938 -43.15625 69.441406 -43.023438 70.640625 -42.765625 C 71.835938 -42.515625 73.296875 -41.789062 75.015625 -40.59375 C 78.441406 -38.363281 80.15625 -32.28125 80.15625 -22.34375 C 80.15625 -11.5625 78.441406 -4.96875 75.015625 -2.5625 C 70.554688 0.519531 59.9375 1.03125 43.15625 -1.03125 C 29.96875 -2.738281 21.40625 -7.101562 17.46875 -14.125 C 12.675781 -22.519531 10.28125 -35.878906 10.28125 -54.203125 Z M 10.28125 -176.484375 "/></g></g></g><g fill="#ffce1f" fill-opacity="1"><g transform="translate(151.656786, 278.440763)"><g><path d="M 70.390625 -0.515625 C 53.085938 -0.515625 38.742188 -7.0625 27.359375 -20.15625 C 15.972656 -33.257812 10.28125 -49.234375 10.28125 -68.078125 L 10.28125 -113.03125 C 10.28125 -117.144531 10.40625 -120.140625 10.65625 -122.015625 C 10.914062 -123.898438 11.644531 -126.128906 12.84375 -128.703125 C 15.238281 -133.328125 21.914062 -135.640625 32.875 -135.640625 C 44.863281 -135.640625 51.890625 -132.382812 53.953125 -125.875 C 54.972656 -123.132812 55.484375 -118.769531 55.484375 -112.78125 L 55.484375 -67.8125 C 55.484375 -60.789062 57.492188 -55.3125 61.515625 -51.375 C 65.546875 -47.4375 70.941406 -45.46875 77.703125 -45.46875 C 84.472656 -45.46875 89.953125 -47.519531 94.140625 -51.625 C 98.335938 -55.738281 100.4375 -61.132812 100.4375 -67.8125 L 100.4375 -113.28125 C 100.4375 -117.226562 100.566406 -120.1875 100.828125 -122.15625 C 101.085938 -124.125 101.898438 -126.390625 103.265625 -128.953125 C 105.492188 -133.410156 112.085938 -135.640625 123.046875 -135.640625 C 133.835938 -135.640625 140.429688 -133.328125 142.828125 -128.703125 C 144.023438 -126.128906 144.753906 -123.859375 145.015625 -121.890625 C 145.273438 -119.921875 145.40625 -116.96875 145.40625 -113.03125 L 145.40625 -22.09375 C 145.40625 -18.320312 145.273438 -15.453125 145.015625 -13.484375 C 144.753906 -11.515625 143.941406 -9.332031 142.578125 -6.9375 C 140.003906 -2.476562 133.410156 -0.25 122.796875 -0.25 C 112.347656 -0.25 105.925781 -2.304688 103.53125 -6.421875 C 101.8125 -9.335938 100.953125 -12.847656 100.953125 -16.953125 C 100.273438 -15.753906 98.734375 -14.039062 96.328125 -11.8125 C 93.929688 -9.59375 91.617188 -7.710938 89.390625 -6.171875 C 83.566406 -2.398438 77.234375 -0.515625 70.390625 -0.515625 Z M 70.390625 -0.515625 "/></g></g></g></svg>