<svg xmlns="http://www.w3.org/2000/svg" xmlns:xlink="http://www.w3.org/1999/xlink" width="500" zoomAndPan="magnify" viewBox="0 0 375 374.999991" height="500" preserveAspectRatio="xMidYMid meet" version="1.0"><defs><g/></defs><path stroke-linecap="butt" transform="matrix(0.665552, 0, 0, 0.665552, -11.373926, 14.703435)" fill="none" stroke-linejoin="miter" d="M 123.568232 209.459051 C 134.326451 193.23662 147.232791 185.125405 162.287254 185.125405 C 185.587923 185.125405 202.954845 195.073676 214.382151 214.976086 C 216.894162 211.519135 219.905055 207.927194 223.414828 204.188522 C 226.983293 200.397028 232.641189 196.27099 240.388515 191.810408 C 248.14171 187.355696 256.14141 185.125405 264.387617 185.125405 C 282.617309 185.125405 297.894801 192.144952 310.214223 206.195784 C 322.592336 220.246615 328.778459 243.494462 328.778459 275.939323 L 328.778459 335.89306 C 328.778459 341.134243 328.614122 345.066598 328.279578 347.684255 C 327.945034 350.307782 326.859235 353.318674 325.01631 356.716933 C 322.06411 362.903055 313.254461 366.001985 298.593234 366.001985 C 284.207859 366.001985 275.427556 362.791541 272.252326 356.382389 C 270.632431 352.98413 269.658146 349.973238 269.323603 347.349712 C 268.989059 344.732055 268.824722 340.776223 268.824722 335.476348 L 268.824722 275.60478 C 268.824722 255.702369 261.740614 245.748229 247.584137 245.748229 C 239.607913 245.748229 234.173046 248.395232 231.273668 253.695108 C 228.432982 258.936291 227.012639 266.349073 227.012639 275.939323 L 227.012639 335.89306 C 227.012639 341.357273 226.842433 345.34245 226.507889 347.854462 C 226.173346 350.360604 225.087546 353.318674 223.250491 356.716933 C 220.069392 362.903055 211.177575 366.001985 196.56917 366.001985 C 182.189664 366.001985 173.380016 362.791541 170.146094 356.382389 C 168.584891 352.98413 167.610606 349.973238 167.223239 347.349712 C 166.888696 344.732055 166.718489 340.776223 166.718489 335.476348 L 166.718489 275.60478 C 166.718489 255.702369 159.640251 245.748229 145.477905 245.748229 C 131.820308 245.748229 124.988576 255.702369 124.988576 275.60478 L 124.988576 336.227604 C 124.988576 341.468787 124.794892 345.401142 124.407526 348.018799 C 124.072982 350.642325 123.01066 353.676694 121.226427 357.133645 C 117.769477 363.043916 108.854183 366.001985 94.468807 366.001985 C 80.083432 366.001985 71.303129 362.903055 68.1279 356.716933 C 66.508004 353.318674 65.533719 350.360604 65.199176 347.854462 C 64.864632 345.34245 64.700295 341.357273 64.700295 335.89306 L 64.700295 215.31063 C 64.700295 210.069446 64.864632 206.142961 65.199176 203.519435 C 65.533719 200.843086 66.619519 197.920231 68.462443 194.739132 C 71.860702 188.55301 79.948441 185.459949 92.713921 185.459949 C 105.532223 185.459949 113.866468 187.520033 117.716654 191.646071 C 121.619663 195.772109 123.568232 201.705856 123.568232 209.459051 Z M 473.336515 204.693272 C 474.674689 191.8691 483.678021 185.459949 500.34651 185.459949 C 509.267673 185.459949 515.899853 186.152513 520.24892 187.549379 C 524.597987 188.940376 527.60888 191.340873 529.281598 194.739132 C 531.013008 198.14326 532.040115 201.177629 532.374659 203.853978 C 532.709202 206.477505 532.879409 210.40399 532.879409 215.645173 L 532.879409 335.476348 C 532.879409 340.776223 532.709202 344.732055 532.374659 347.349712 C 532.040115 349.973238 531.06583 352.98413 529.451804 356.382389 C 526.270705 362.351352 518.464687 365.332898 506.033751 365.332898 C 493.602815 365.332898 485.26857 363.795171 481.031018 360.731456 C 476.793465 357.609049 474.340146 353.095645 473.671058 347.185374 C 465.201823 359.281767 451.092299 365.332898 431.360095 365.332898 C 411.622022 365.332898 393.280815 356.329567 376.336475 338.322903 C 359.444957 320.257548 350.999198 299.298684 350.999198 275.434573 C 350.999198 251.576331 359.497779 230.699636 376.500812 212.804487 C 393.562536 194.850647 412.238286 185.876661 432.528063 185.876661 C 440.334081 185.876661 447.418189 187.244181 453.768648 189.973353 C 460.183669 192.702525 464.64425 195.267359 467.150393 197.667856 C 469.656535 200.062484 471.722489 202.404289 473.336515 204.693272 Z M 410.952935 275.939323 C 410.952935 283.46362 413.911005 290.266007 419.821275 296.340614 C 425.784368 302.362399 432.974121 305.373292 441.396404 305.373292 C 449.865639 305.373292 456.891055 302.309577 462.466782 296.176277 C 468.095332 289.984286 470.912541 283.187768 470.912541 275.769117 C 470.912541 268.356335 468.206846 261.442433 462.801326 255.033282 C 457.448628 248.618261 450.258875 245.413686 441.226197 245.413686 C 432.252211 245.413686 424.950944 248.618261 419.316525 255.033282 C 413.740798 261.442433 410.952935 268.409157 410.952935 275.939323 Z M 410.952935 275.939323 " stroke="#250071" stroke-width="17.126051" stroke-opacity="1" stroke-miterlimit="4"/><g fill="#743ee1" fill-opacity="1"><g transform="translate(22.558839, 258.295554)"><g><path d="M 48.328125 -104.1875 C 55.472656 -114.976562 64.0625 -120.375 74.09375 -120.375 C 89.59375 -120.375 101.140625 -113.757812 108.734375 -100.53125 C 110.410156 -102.8125 112.425781 -105.207031 114.78125 -107.71875 C 117.132812 -110.226562 120.894531 -112.960938 126.0625 -115.921875 C 131.226562 -118.890625 136.550781 -120.375 142.03125 -120.375 C 154.1875 -120.375 164.363281 -115.695312 172.5625 -106.34375 C 180.769531 -97 184.875 -81.535156 184.875 -59.953125 L 184.875 -20.0625 C 184.875 -16.5625 184.757812 -13.9375 184.53125 -12.1875 C 184.3125 -10.445312 183.59375 -8.4375 182.375 -6.15625 C 180.394531 -2.050781 174.546875 0 164.828125 0 C 155.242188 0 149.390625 -2.128906 147.265625 -6.390625 C 146.203125 -8.660156 145.554688 -10.671875 145.328125 -12.421875 C 145.097656 -14.171875 144.984375 -16.796875 144.984375 -20.296875 L 144.984375 -60.1875 C 144.984375 -73.40625 140.273438 -80.015625 130.859375 -80.015625 C 125.535156 -80.015625 121.921875 -78.265625 120.015625 -74.765625 C 118.117188 -71.273438 117.171875 -66.335938 117.171875 -59.953125 L 117.171875 -20.0625 C 117.171875 -16.414062 117.054688 -13.753906 116.828125 -12.078125 C 116.597656 -10.410156 115.878906 -8.4375 114.671875 -6.15625 C 112.546875 -2.050781 106.617188 0 96.890625 0 C 87.316406 0 81.460938 -2.128906 79.328125 -6.390625 C 78.265625 -8.660156 77.617188 -10.671875 77.390625 -12.421875 C 77.160156 -14.171875 77.046875 -16.796875 77.046875 -20.296875 L 77.046875 -60.1875 C 77.046875 -73.40625 72.335938 -80.015625 62.921875 -80.015625 C 53.796875 -80.015625 49.234375 -73.40625 49.234375 -60.1875 L 49.234375 -19.828125 C 49.234375 -16.335938 49.117188 -13.71875 48.890625 -11.96875 C 48.671875 -10.21875 47.953125 -8.203125 46.734375 -5.921875 C 44.453125 -1.972656 38.523438 0 28.953125 0 C 19.378906 0 13.523438 -2.050781 11.390625 -6.15625 C 10.328125 -8.4375 9.679688 -10.410156 9.453125 -12.078125 C 9.234375 -13.753906 9.125 -16.414062 9.125 -20.0625 L 9.125 -100.3125 C 9.125 -103.800781 9.234375 -106.421875 9.453125 -108.171875 C 9.679688 -109.921875 10.40625 -111.859375 11.625 -113.984375 C 13.90625 -118.085938 19.300781 -120.140625 27.8125 -120.140625 C 36.320312 -120.140625 41.867188 -118.769531 44.453125 -116.03125 C 47.035156 -113.300781 48.328125 -109.351562 48.328125 -104.1875 Z M 48.328125 -104.1875 "/></g></g></g><g fill="#743ee1" fill-opacity="1"><g transform="translate(216.556694, 258.295554)"><g><path d="M 87.078125 -107.375 C 87.992188 -115.882812 94 -120.140625 105.09375 -120.140625 C 111.019531 -120.140625 115.425781 -119.679688 118.3125 -118.765625 C 121.195312 -117.859375 123.207031 -116.265625 124.34375 -113.984375 C 125.488281 -111.703125 126.175781 -109.6875 126.40625 -107.9375 C 126.632812 -106.195312 126.75 -103.578125 126.75 -100.078125 L 126.75 -20.296875 C 126.75 -16.796875 126.632812 -14.171875 126.40625 -12.421875 C 126.175781 -10.671875 125.53125 -8.660156 124.46875 -6.390625 C 122.34375 -2.429688 117.140625 -0.453125 108.859375 -0.453125 C 100.578125 -0.453125 95.03125 -1.476562 92.21875 -3.53125 C 89.40625 -5.582031 87.769531 -8.582031 87.3125 -12.53125 C 81.6875 -4.476562 72.300781 -0.453125 59.15625 -0.453125 C 46.007812 -0.453125 33.8125 -6.453125 22.5625 -18.453125 C 11.320312 -30.460938 5.703125 -44.410156 5.703125 -60.296875 C 5.703125 -76.179688 11.363281 -90.085938 22.6875 -102.015625 C 34.007812 -113.941406 46.429688 -119.90625 59.953125 -119.90625 C 65.117188 -119.90625 69.828125 -118.992188 74.078125 -117.171875 C 78.335938 -115.347656 81.300781 -113.640625 82.96875 -112.046875 C 84.644531 -110.453125 86.015625 -108.894531 87.078125 -107.375 Z M 45.59375 -59.953125 C 45.59375 -54.941406 47.566406 -50.421875 51.515625 -46.390625 C 55.472656 -42.359375 60.257812 -40.34375 65.875 -40.34375 C 71.5 -40.34375 76.171875 -42.394531 79.890625 -46.5 C 83.617188 -50.601562 85.484375 -55.125 85.484375 -60.0625 C 85.484375 -65.007812 83.695312 -69.609375 80.125 -73.859375 C 76.5625 -78.117188 71.773438 -80.25 65.765625 -80.25 C 59.765625 -80.25 54.898438 -78.117188 51.171875 -73.859375 C 47.453125 -69.609375 45.59375 -64.972656 45.59375 -59.953125 Z M 45.59375 -59.953125 "/></g></g></g></svg>