<svg xmlns="http://www.w3.org/2000/svg" xmlns:xlink="http://www.w3.org/1999/xlink" width="500" zoomAndPan="magnify" viewBox="0 0 375 374.999991" height="500" preserveAspectRatio="xMidYMid meet" version="1.0"><defs><g/></defs><path stroke-linecap="butt" transform="matrix(0.665552, 0, 0, 0.665552, -11.373926, 14.703427)" fill="none" stroke-linejoin="miter" d="M 127.506456 209.459064 C 138.264675 193.236633 151.171015 185.125418 166.225478 185.125418 C 189.526147 185.125418 206.893069 195.073688 218.320374 214.976099 C 220.832386 211.519148 223.843279 207.927206 227.353052 204.188535 C 230.921517 200.39704 236.579413 196.271002 244.326739 191.810421 C 252.079933 187.355709 260.079634 185.125418 268.325841 185.125418 C 286.555533 185.125418 301.833025 192.144964 314.152447 206.195796 C 326.53056 220.246628 332.716683 243.494475 332.716683 275.939336 L 332.716683 335.893073 C 332.716683 341.134256 332.552345 345.066611 332.217802 347.684268 C 331.883258 350.307794 330.79159 353.318687 328.954534 356.716945 C 326.002334 362.903068 317.192685 366.001998 302.531458 366.001998 C 288.146083 366.001998 279.36578 362.791553 276.19055 356.382402 C 274.570655 352.984143 273.59637 349.973251 273.261826 347.349724 C 272.927283 344.732067 272.757076 340.776236 272.757076 335.476361 L 272.757076 275.604792 C 272.757076 255.702382 265.678838 245.748242 251.522361 245.748242 C 243.546137 245.748242 238.11127 248.395245 235.211892 253.69512 C 232.371206 258.936303 230.950863 266.349086 230.950863 275.939336 L 230.950863 335.893073 C 230.950863 341.357285 230.780657 345.342463 230.446113 347.854474 C 230.11157 350.360617 229.02577 353.318687 227.182846 356.716945 C 224.007616 362.903068 215.115799 366.001998 200.507394 366.001998 C 186.127888 366.001998 177.31824 362.791553 174.084318 356.382402 C 172.523115 352.984143 171.54883 349.973251 171.155594 347.349724 C 170.821051 344.732067 170.656713 340.776236 170.656713 335.476361 L 170.656713 275.604792 C 170.656713 255.702382 163.578475 245.748242 149.416128 245.748242 C 135.758532 245.748242 128.926799 255.702382 128.926799 275.604792 L 128.926799 336.227616 C 128.926799 341.4688 128.733116 345.401154 128.34575 348.018812 C 128.011206 350.642338 126.948884 353.676707 125.164651 357.133658 C 121.7077 363.043928 112.786537 366.001998 98.407031 366.001998 C 84.021656 366.001998 75.241353 362.903068 72.066124 356.716945 C 70.446228 353.318687 69.471943 350.360617 69.1374 347.854474 C 68.802856 345.342463 68.638519 341.357285 68.638519 335.893073 L 68.638519 215.310642 C 68.638519 210.069459 68.802856 206.142974 69.1374 203.519447 C 69.471943 200.843098 70.557743 197.920244 72.400667 194.739145 C 75.798926 188.553023 83.880795 185.459961 96.652145 185.459961 C 109.470447 185.459961 117.804692 187.520046 121.654878 191.646084 C 125.557887 195.772122 127.506456 201.705869 127.506456 209.459064 Z M 534.141284 254.194001 C 534.141284 268.244833 530.654987 278.639161 523.688263 285.388726 C 516.71567 292.079598 508.99769 295.425034 500.522585 295.425034 L 419.322394 295.425034 C 419.322394 301.834185 423.090412 307.21036 430.614708 311.559427 C 438.197697 315.908494 445.75134 318.085962 453.275636 318.085962 C 466.545866 318.085962 476.940195 316.689096 484.470361 313.901232 L 488.232509 312.563058 C 493.696722 310.056915 498.262949 308.800909 501.942928 308.800909 C 509.250065 308.800909 515.518356 313.930578 520.759539 324.189916 C 523.71174 330.376038 525.190775 335.646567 525.190775 339.995634 C 525.190775 360.285411 500.886475 370.433234 452.272006 370.433234 C 435.380488 370.433234 420.355371 367.533856 407.202525 361.7351 C 394.096632 355.883521 383.86664 348.159672 376.51255 338.569422 C 362.127175 320.1167 354.937422 299.463034 354.937422 276.608423 C 354.937422 247.843541 364.245951 224.842201 382.86301 207.616139 C 401.485937 190.337255 424.733784 181.691944 452.606549 181.691944 C 484.329501 181.691944 507.600824 192.902089 522.432257 215.310642 C 530.238275 227.184006 534.141284 240.149038 534.141284 254.194001 Z M 461.803564 264.230309 C 470.501698 264.230309 474.850765 260.579676 474.850765 253.278408 C 474.850765 248.037225 472.843503 243.829018 468.82898 240.647919 C 464.873148 237.472689 459.156561 235.88214 451.685087 235.88214 C 444.272305 235.88214 436.912345 238.922378 429.611078 244.996986 C 422.30981 251.018771 418.653307 257.427923 418.653307 264.230309 Z M 461.803564 264.230309 " stroke="#250071" stroke-width="17.126051" stroke-opacity="1" stroke-miterlimit="4"/><g fill="#743ee1" fill-opacity="1"><g transform="translate(25.179451, 258.295545)"><g><path d="M 48.328125 -104.1875 C 55.472656 -114.976562 64.0625 -120.375 74.09375 -120.375 C 89.59375 -120.375 101.140625 -113.757812 108.734375 -100.53125 C 110.410156 -102.8125 112.425781 -105.207031 114.78125 -107.71875 C 117.132812 -110.226562 120.894531 -112.960938 126.0625 -115.921875 C 131.226562 -118.890625 136.550781 -120.375 142.03125 -120.375 C 154.1875 -120.375 164.363281 -115.695312 172.5625 -106.34375 C 180.769531 -97 184.875 -81.535156 184.875 -59.953125 L 184.875 -20.0625 C 184.875 -16.5625 184.757812 -13.9375 184.53125 -12.1875 C 184.3125 -10.445312 183.59375 -8.4375 182.375 -6.15625 C 180.394531 -2.050781 174.546875 0 164.828125 0 C 155.242188 0 149.390625 -2.128906 147.265625 -6.390625 C 146.203125 -8.660156 145.554688 -10.671875 145.328125 -12.421875 C 145.097656 -14.171875 144.984375 -16.796875 144.984375 -20.296875 L 144.984375 -60.1875 C 144.984375 -73.40625 140.273438 -80.015625 130.859375 -80.015625 C 125.535156 -80.015625 121.921875 -78.265625 120.015625 -74.765625 C 118.117188 -71.273438 117.171875 -66.335938 117.171875 -59.953125 L 117.171875 -20.0625 C 117.171875 -16.414062 117.054688 -13.753906 116.828125 -12.078125 C 116.597656 -10.410156 115.878906 -8.4375 114.671875 -6.15625 C 112.546875 -2.050781 106.617188 0 96.890625 0 C 87.316406 0 81.460938 -2.128906 79.328125 -6.390625 C 78.265625 -8.660156 77.617188 -10.671875 77.390625 -12.421875 C 77.160156 -14.171875 77.046875 -16.796875 77.046875 -20.296875 L 77.046875 -60.1875 C 77.046875 -73.40625 72.335938 -80.015625 62.921875 -80.015625 C 53.796875 -80.015625 49.234375 -73.40625 49.234375 -60.1875 L 49.234375 -19.828125 C 49.234375 -16.335938 49.117188 -13.71875 48.890625 -11.96875 C 48.671875 -10.21875 47.953125 -8.203125 46.734375 -5.921875 C 44.453125 -1.972656 38.523438 0 28.953125 0 C 19.378906 0 13.523438 -2.050781 11.390625 -6.15625 C 10.328125 -8.4375 9.679688 -10.410156 9.453125 -12.078125 C 9.234375 -13.753906 9.125 -16.414062 9.125 -20.0625 L 9.125 -100.3125 C 9.125 -103.800781 9.234375 -106.421875 9.453125 -108.171875 C 9.679688 -109.921875 10.40625 -111.859375 11.625 -113.984375 C 13.90625 -118.085938 19.300781 -120.140625 27.8125 -120.140625 C 36.320312 -120.140625 41.867188 -118.769531 44.453125 -116.03125 C 47.035156 -113.300781 48.328125 -109.351562 48.328125 -104.1875 Z M 48.328125 -104.1875 "/></g></g></g><g fill="#743ee1" fill-opacity="1"><g transform="translate(219.177305, 258.295545)"><g><path d="M 124.921875 -74.421875 C 124.921875 -65.078125 122.601562 -58.164062 117.96875 -53.6875 C 113.332031 -49.207031 108.203125 -46.96875 102.578125 -46.96875 L 48.5625 -46.96875 C 48.5625 -42.707031 51.066406 -39.132812 56.078125 -36.25 C 61.097656 -33.363281 66.113281 -31.921875 71.125 -31.921875 C 79.9375 -31.921875 86.851562 -32.832031 91.875 -34.65625 L 94.375 -35.5625 C 98.019531 -37.238281 101.0625 -38.078125 103.5 -38.078125 C 108.363281 -38.078125 112.539062 -34.65625 116.03125 -27.8125 C 118.007812 -23.707031 119 -20.210938 119 -17.328125 C 119 -3.796875 102.8125 2.96875 70.4375 2.96875 C 59.195312 2.96875 49.207031 1.03125 40.46875 -2.84375 C 31.726562 -6.71875 24.925781 -11.847656 20.0625 -18.234375 C 10.488281 -30.546875 5.703125 -44.300781 5.703125 -59.5 C 5.703125 -78.644531 11.894531 -93.953125 24.28125 -105.421875 C 36.664062 -116.898438 52.128906 -122.640625 70.671875 -122.640625 C 91.796875 -122.640625 107.296875 -115.195312 117.171875 -100.3125 C 122.335938 -92.40625 124.921875 -83.773438 124.921875 -74.421875 Z M 76.828125 -67.703125 C 82.597656 -67.703125 85.484375 -70.132812 85.484375 -75 C 85.484375 -78.5 84.15625 -81.3125 81.5 -83.4375 C 78.84375 -85.5625 75.039062 -86.625 70.09375 -86.625 C 65.15625 -86.625 60.253906 -84.609375 55.390625 -80.578125 C 50.523438 -76.554688 48.09375 -72.265625 48.09375 -67.703125 Z M 76.828125 -67.703125 "/></g></g></g></svg>