<svg xmlns="http://www.w3.org/2000/svg" xmlns:xlink="http://www.w3.org/1999/xlink" width="500" zoomAndPan="magnify" viewBox="0 0 375 374.999991" height="500" preserveAspectRatio="xMidYMid meet" version="1.0"><defs><g/></defs><path stroke-linecap="butt" transform="matrix(0.665552, 0, 0, 0.665552, -11.373926, 14.703456)" fill="none" stroke-linejoin="miter" d="M 181.972504 209.45902 C 192.736592 193.236589 205.642932 185.125374 220.691526 185.125374 C 243.998064 185.125374 261.359117 195.073644 272.792292 214.976055 C 275.298434 211.519104 278.309327 207.927162 281.8191 204.188491 C 285.387565 200.396996 291.045461 196.270958 298.798656 191.810377 C 306.545981 187.355665 314.545682 185.125374 322.797758 185.125374 C 341.02745 185.125374 356.299073 192.14492 368.624364 206.195752 C 380.996608 220.246584 387.1886 243.494431 387.1886 275.939292 L 387.1886 335.893029 C 387.1886 341.134212 387.018393 345.066567 386.68385 347.684224 C 386.349306 350.30775 385.263507 353.318643 383.420582 356.716901 C 380.468382 362.903024 371.658733 366.001954 356.997506 366.001954 C 342.618 366.001954 333.837697 362.797378 330.656598 356.382358 C 329.042572 352.984099 328.062418 349.973207 327.727874 347.34968 C 327.393331 344.732023 327.228994 340.776192 327.228994 335.476317 L 327.228994 275.604748 C 327.228994 255.702338 320.150755 245.748198 305.988409 245.748198 C 298.018054 245.748198 292.583187 248.395201 289.683809 253.695076 C 286.837254 258.936259 285.416911 266.349042 285.416911 275.939292 L 285.416911 335.893029 C 285.416911 341.357241 285.252574 345.342419 284.91803 347.85443 C 284.583487 350.360573 283.491818 353.318643 281.654763 356.716901 C 278.473664 362.903024 269.581847 366.001954 254.979311 366.001954 C 240.593936 366.001954 231.784288 362.797378 228.556235 356.382358 C 226.995032 352.984099 226.014878 349.973207 225.627511 347.34968 C 225.292968 344.732023 225.122761 340.776192 225.122761 335.476317 L 225.122761 275.604748 C 225.122761 255.702338 218.044523 245.748198 203.882176 245.748198 C 190.22458 245.748198 183.398717 255.702338 183.398717 275.604748 L 183.398717 336.227572 C 183.398717 341.468756 183.199164 345.40111 182.811798 348.018768 C 182.477254 350.642294 181.420801 353.676663 179.636568 357.133614 C 176.179618 363.043884 167.258455 366.001954 152.873079 366.001954 C 138.493573 366.001954 129.71327 362.903024 126.532171 356.716901 C 124.918145 353.318643 123.94386 350.360573 123.609317 347.85443 C 123.274773 345.342419 123.104567 341.357241 123.104567 335.893029 L 123.104567 215.310598 C 123.104567 210.069415 123.274773 206.14293 123.609317 203.519403 C 123.94386 200.843054 125.02966 197.9202 126.866715 194.739101 C 130.270843 188.552979 138.352713 185.459917 151.118192 185.459917 C 163.942364 185.459917 172.276609 187.520002 176.120926 191.64604 C 180.023935 195.772078 181.972504 201.705825 181.972504 209.45902 Z M 414.585961 215.645142 C 414.585961 210.403959 414.756167 206.477473 415.090711 203.853947 C 415.425255 201.177598 416.399539 198.143229 418.019435 194.739101 C 421.194665 188.82883 430.086482 185.87663 444.694886 185.87663 C 455.676134 185.87663 463.452805 187.801723 468.024901 191.64604 C 471.869218 194.821269 473.935172 199.727909 474.211024 206.365959 C 474.434053 208.649072 474.545567 211.965162 474.545567 216.314229 L 474.545567 336.227572 C 474.545567 341.468756 474.351884 345.40111 473.958649 348.018768 C 473.624105 350.642294 472.567651 353.676663 470.783419 357.133614 C 467.772526 363.043884 458.962878 366.001954 444.360343 366.001954 C 429.974967 366.001954 421.194665 362.903024 418.019435 356.716901 C 416.399539 353.318643 415.425255 350.360573 415.090711 347.85443 C 414.756167 345.342419 414.585961 341.357241 414.585961 335.893029 Z M 470.865587 152.093594 C 469.192869 155.380338 466.181977 157.722143 461.838779 159.11901 C 457.489712 160.510007 451.720302 161.20844 444.52468 161.20844 C 437.334927 161.20844 431.565517 160.510007 427.21645 159.11901 C 422.926075 157.722143 419.915182 155.327515 418.183772 151.923387 C 416.458231 148.525129 415.425255 145.514236 415.090711 142.896579 C 414.756167 140.22023 414.585961 136.258529 414.585961 131.017346 C 414.585961 125.776163 414.756167 121.849677 415.090711 119.226151 C 415.425255 116.608494 416.399539 113.67977 418.019435 110.445849 C 421.194665 104.318418 430.086482 101.248834 444.694886 101.248834 C 459.074392 101.248834 467.772526 104.318418 470.783419 110.445849 C 472.567651 113.902799 473.624105 116.943038 473.958649 119.560695 C 474.351884 122.184221 474.545567 126.110707 474.545567 131.35189 C 474.545567 136.593073 474.351884 140.554774 473.958649 143.231123 C 473.624105 145.84878 472.596997 148.80098 470.865587 152.093594 Z M 470.865587 152.093594 " stroke="#250071" stroke-width="17.126051" stroke-opacity="1" stroke-miterlimit="4"/><g fill="#743ee1" fill-opacity="1"><g transform="translate(61.431249, 258.295574)"><g><path d="M 48.328125 -104.1875 C 55.472656 -114.976562 64.0625 -120.375 74.09375 -120.375 C 89.59375 -120.375 101.140625 -113.757812 108.734375 -100.53125 C 110.410156 -102.8125 112.425781 -105.207031 114.78125 -107.71875 C 117.132812 -110.226562 120.894531 -112.960938 126.0625 -115.921875 C 131.226562 -118.890625 136.550781 -120.375 142.03125 -120.375 C 154.1875 -120.375 164.363281 -115.695312 172.5625 -106.34375 C 180.769531 -97 184.875 -81.535156 184.875 -59.953125 L 184.875 -20.0625 C 184.875 -16.5625 184.757812 -13.9375 184.53125 -12.1875 C 184.3125 -10.445312 183.59375 -8.4375 182.375 -6.15625 C 180.394531 -2.050781 174.546875 0 164.828125 0 C 155.242188 0 149.390625 -2.128906 147.265625 -6.390625 C 146.203125 -8.660156 145.554688 -10.671875 145.328125 -12.421875 C 145.097656 -14.171875 144.984375 -16.796875 144.984375 -20.296875 L 144.984375 -60.1875 C 144.984375 -73.40625 140.273438 -80.015625 130.859375 -80.015625 C 125.535156 -80.015625 121.921875 -78.265625 120.015625 -74.765625 C 118.117188 -71.273438 117.171875 -66.335938 117.171875 -59.953125 L 117.171875 -20.0625 C 117.171875 -16.414062 117.054688 -13.753906 116.828125 -12.078125 C 116.597656 -10.410156 115.878906 -8.4375 114.671875 -6.15625 C 112.546875 -2.050781 106.617188 0 96.890625 0 C 87.316406 0 81.460938 -2.128906 79.328125 -6.390625 C 78.265625 -8.660156 77.617188 -10.671875 77.390625 -12.421875 C 77.160156 -14.171875 77.046875 -16.796875 77.046875 -20.296875 L 77.046875 -60.1875 C 77.046875 -73.40625 72.335938 -80.015625 62.921875 -80.015625 C 53.796875 -80.015625 49.234375 -73.40625 49.234375 -60.1875 L 49.234375 -19.828125 C 49.234375 -16.335938 49.117188 -13.71875 48.890625 -11.96875 C 48.671875 -10.21875 47.953125 -8.203125 46.734375 -5.921875 C 44.453125 -1.972656 38.523438 0 28.953125 0 C 19.378906 0 13.523438 -2.050781 11.390625 -6.15625 C 10.328125 -8.4375 9.679688 -10.410156 9.453125 -12.078125 C 9.234375 -13.753906 9.125 -16.414062 9.125 -20.0625 L 9.125 -100.3125 C 9.125 -103.800781 9.234375 -106.421875 9.453125 -108.171875 C 9.679688 -109.921875 10.40625 -111.859375 11.625 -113.984375 C 13.90625 -118.085938 19.300781 -120.140625 27.8125 -120.140625 C 36.320312 -120.140625 41.867188 -118.769531 44.453125 -116.03125 C 47.035156 -113.300781 48.328125 -109.351562 48.328125 -104.1875 Z M 48.328125 -104.1875 "/></g></g></g><g fill="#743ee1" fill-opacity="1"><g transform="translate(255.429104, 258.295574)"><g><path d="M 9.125 -100.078125 C 9.125 -103.578125 9.234375 -106.195312 9.453125 -107.9375 C 9.679688 -109.6875 10.328125 -111.703125 11.390625 -113.984375 C 13.523438 -117.929688 19.457031 -119.90625 29.1875 -119.90625 C 36.476562 -119.90625 41.644531 -118.613281 44.6875 -116.03125 C 47.269531 -113.90625 48.632812 -110.640625 48.78125 -106.234375 C 48.9375 -104.710938 49.015625 -102.507812 49.015625 -99.625 L 49.015625 -19.828125 C 49.015625 -16.335938 48.898438 -13.71875 48.671875 -11.96875 C 48.441406 -10.21875 47.71875 -8.203125 46.5 -5.921875 C 44.53125 -1.972656 38.679688 0 28.953125 0 C 19.378906 0 13.523438 -2.050781 11.390625 -6.15625 C 10.328125 -8.4375 9.679688 -10.410156 9.453125 -12.078125 C 9.234375 -13.753906 9.125 -16.414062 9.125 -20.0625 Z M 46.609375 -142.359375 C 45.472656 -140.160156 43.460938 -138.601562 40.578125 -137.6875 C 37.691406 -136.78125 33.851562 -136.328125 29.0625 -136.328125 C 24.28125 -136.328125 20.441406 -136.78125 17.546875 -137.6875 C 14.660156 -138.601562 12.644531 -140.203125 11.5 -142.484375 C 10.363281 -144.765625 9.679688 -146.773438 9.453125 -148.515625 C 9.234375 -150.265625 9.125 -152.882812 9.125 -156.375 C 9.125 -159.875 9.234375 -162.5 9.453125 -164.25 C 9.679688 -166 10.328125 -167.9375 11.390625 -170.0625 C 13.523438 -174.164062 19.457031 -176.21875 29.1875 -176.21875 C 38.757812 -176.21875 44.53125 -174.164062 46.5 -170.0625 C 47.71875 -167.78125 48.441406 -165.765625 48.671875 -164.015625 C 48.898438 -162.273438 49.015625 -159.65625 49.015625 -156.15625 C 49.015625 -152.664062 48.898438 -150.046875 48.671875 -148.296875 C 48.441406 -146.546875 47.753906 -144.566406 46.609375 -142.359375 Z M 46.609375 -142.359375 "/></g></g></g></svg>