<svg xmlns="http://www.w3.org/2000/svg" xmlns:xlink="http://www.w3.org/1999/xlink" width="500" zoomAndPan="magnify" viewBox="0 0 375 374.999991" height="500" preserveAspectRatio="xMidYMid meet" version="1.0"><defs><g/></defs><path stroke-linecap="butt" transform="matrix(0.665552, 0, 0, 0.665552, -11.373926, 14.703515)" fill="none" stroke-linejoin="miter" d="M 122.881538 209.458932 C 133.639756 193.236501 146.546096 185.125286 161.600559 185.125286 C 184.901228 185.125286 202.26815 195.073556 213.695456 214.975967 C 216.207467 211.519016 219.212491 207.927074 222.728133 204.188403 C 226.296599 200.396908 231.954494 196.27087 239.70182 191.810289 C 247.455015 187.355577 255.454716 185.125286 263.700922 185.125286 C 281.930614 185.125286 297.208106 192.144832 309.527528 206.195664 C 321.905642 220.246496 328.091764 243.494343 328.091764 275.939204 L 328.091764 335.892941 C 328.091764 341.134124 327.927427 345.066479 327.592883 347.684136 C 327.25834 350.307662 326.166671 353.318555 324.329616 356.716813 C 321.377415 362.908805 312.567766 366.001866 297.906539 366.001866 C 283.521164 366.001866 274.740861 362.79729 271.565632 356.38227 C 269.945736 352.984011 268.971451 349.973119 268.636908 347.349592 C 268.302364 344.731935 268.132158 340.776104 268.132158 335.476229 L 268.132158 275.60466 C 268.132158 255.70225 261.053919 245.74811 246.897442 245.74811 C 238.921218 245.74811 233.486352 248.400982 230.586974 253.694988 C 227.746287 258.936171 226.325944 266.348954 226.325944 275.939204 L 226.325944 335.892941 C 226.325944 341.357153 226.155738 345.342331 225.821194 347.854342 C 225.486651 350.360485 224.400851 353.318555 222.557927 356.716813 C 219.382697 362.908805 210.49088 366.001866 195.882476 366.001866 C 181.502969 366.001866 172.693321 362.79729 169.459399 356.38227 C 167.898196 352.984011 166.923911 349.973119 166.530675 347.349592 C 166.196132 344.731935 166.031795 340.776104 166.031795 335.476229 L 166.031795 275.60466 C 166.031795 255.70225 158.953556 245.74811 144.79121 245.74811 C 131.133613 245.74811 124.301881 255.70225 124.301881 275.60466 L 124.301881 336.227484 C 124.301881 341.468668 124.108198 345.401023 123.720831 348.01868 C 123.386288 350.642206 122.323965 353.682444 120.539732 357.133526 C 117.082782 363.043796 108.161619 366.001866 93.782113 366.001866 C 79.396737 366.001866 70.616435 362.908805 67.441205 356.716813 C 65.821309 353.318555 64.847025 350.360485 64.512481 347.854342 C 64.177937 345.342331 64.0136 341.357153 64.0136 335.892941 L 64.0136 215.31051 C 64.0136 210.069327 64.177937 206.142842 64.512481 203.519315 C 64.847025 200.842966 65.932824 197.920112 67.775748 194.739013 C 71.174007 188.552891 79.255877 185.459829 92.027226 185.459829 C 104.845528 185.459829 113.179773 187.519914 117.029959 191.645952 C 120.932968 195.77199 122.881538 201.705737 122.881538 209.458932 Z M 350.312503 275.939204 C 350.312503 248.512497 359.896884 225.904391 379.077384 208.120757 C 398.310708 190.278431 420.249726 181.363137 444.888569 181.363137 C 469.527413 181.363137 491.325571 190.225609 510.283042 207.950551 C 529.234644 225.622671 538.71338 248.177953 538.71338 275.60466 C 538.71338 294.556262 533.80674 311.394958 523.993461 326.109007 C 514.186051 340.828926 502.253995 351.675183 488.203163 358.641907 C 474.158201 365.608631 459.579142 369.094927 444.471857 369.094927 C 429.417394 369.094927 414.80899 365.385602 400.652513 357.972819 C 386.548858 350.560037 374.616803 339.602267 364.862215 325.111246 C 355.160451 310.555664 350.312503 294.168896 350.312503 275.939204 Z M 421.893098 300.437187 C 429.253057 306.012914 436.695185 308.800777 444.219482 308.800777 C 451.743779 308.800777 459.273945 305.960091 466.798241 300.27285 C 474.322538 294.532786 478.084686 286.087027 478.084686 274.935573 C 478.084686 263.731297 474.545567 255.397052 467.467329 249.93284 C 460.38909 244.409936 452.718064 241.651418 444.471857 241.651418 C 436.272604 241.651418 428.636793 244.52145 421.558554 250.267383 C 414.474446 255.954625 410.935327 264.341692 410.935327 275.434454 C 410.935327 286.474393 414.585961 294.808637 421.893098 300.437187 Z M 421.893098 300.437187 " stroke="#250071" stroke-width="17.126051" stroke-opacity="1" stroke-miterlimit="4"/><g fill="#743ee1" fill-opacity="1"><g transform="translate(22.101272, 258.295633)"><g><path d="M 48.328125 -104.1875 C 55.472656 -114.976562 64.0625 -120.375 74.09375 -120.375 C 89.59375 -120.375 101.140625 -113.757812 108.734375 -100.53125 C 110.410156 -102.8125 112.425781 -105.207031 114.78125 -107.71875 C 117.132812 -110.226562 120.894531 -112.960938 126.0625 -115.921875 C 131.226562 -118.890625 136.550781 -120.375 142.03125 -120.375 C 154.1875 -120.375 164.363281 -115.695312 172.5625 -106.34375 C 180.769531 -97 184.875 -81.535156 184.875 -59.953125 L 184.875 -20.0625 C 184.875 -16.5625 184.757812 -13.9375 184.53125 -12.1875 C 184.3125 -10.445312 183.59375 -8.4375 182.375 -6.15625 C 180.394531 -2.050781 174.546875 0 164.828125 0 C 155.242188 0 149.390625 -2.128906 147.265625 -6.390625 C 146.203125 -8.660156 145.554688 -10.671875 145.328125 -12.421875 C 145.097656 -14.171875 144.984375 -16.796875 144.984375 -20.296875 L 144.984375 -60.1875 C 144.984375 -73.40625 140.273438 -80.015625 130.859375 -80.015625 C 125.535156 -80.015625 121.921875 -78.265625 120.015625 -74.765625 C 118.117188 -71.273438 117.171875 -66.335938 117.171875 -59.953125 L 117.171875 -20.0625 C 117.171875 -16.414062 117.054688 -13.753906 116.828125 -12.078125 C 116.597656 -10.410156 115.878906 -8.4375 114.671875 -6.15625 C 112.546875 -2.050781 106.617188 0 96.890625 0 C 87.316406 0 81.460938 -2.128906 79.328125 -6.390625 C 78.265625 -8.660156 77.617188 -10.671875 77.390625 -12.421875 C 77.160156 -14.171875 77.046875 -16.796875 77.046875 -20.296875 L 77.046875 -60.1875 C 77.046875 -73.40625 72.335938 -80.015625 62.921875 -80.015625 C 53.796875 -80.015625 49.234375 -73.40625 49.234375 -60.1875 L 49.234375 -19.828125 C 49.234375 -16.335938 49.117188 -13.71875 48.890625 -11.96875 C 48.671875 -10.21875 47.953125 -8.203125 46.734375 -5.921875 C 44.453125 -1.972656 38.523438 0 28.953125 0 C 19.378906 0 13.523438 -2.050781 11.390625 -6.15625 C 10.328125 -8.4375 9.679688 -10.410156 9.453125 -12.078125 C 9.234375 -13.753906 9.125 -16.414062 9.125 -20.0625 L 9.125 -100.3125 C 9.125 -103.800781 9.234375 -106.421875 9.453125 -108.171875 C 9.679688 -109.921875 10.40625 -111.859375 11.625 -113.984375 C 13.90625 -118.085938 19.300781 -120.140625 27.8125 -120.140625 C 36.320312 -120.140625 41.867188 -118.769531 44.453125 -116.03125 C 47.035156 -113.300781 48.328125 -109.351562 48.328125 -104.1875 Z M 48.328125 -104.1875 "/></g></g></g><g fill="#743ee1" fill-opacity="1"><g transform="translate(216.099126, 258.295633)"><g><path d="M 5.703125 -59.953125 C 5.703125 -78.191406 12.082031 -93.238281 24.84375 -105.09375 C 37.613281 -116.945312 52.203125 -122.875 68.609375 -122.875 C 85.023438 -122.875 99.539062 -116.984375 112.15625 -105.203125 C 124.769531 -93.429688 131.078125 -78.425781 131.078125 -60.1875 C 131.078125 -47.570312 127.8125 -36.363281 121.28125 -26.5625 C 114.75 -16.757812 106.804688 -9.539062 97.453125 -4.90625 C 88.109375 -0.269531 78.421875 2.046875 68.390625 2.046875 C 58.359375 2.046875 48.628906 -0.421875 39.203125 -5.359375 C 29.785156 -10.296875 21.847656 -17.585938 15.390625 -27.234375 C 8.929688 -36.890625 5.703125 -47.796875 5.703125 -59.953125 Z M 53.34375 -43.65625 C 58.207031 -39.9375 63.144531 -38.078125 68.15625 -38.078125 C 73.175781 -38.078125 78.191406 -39.972656 83.203125 -43.765625 C 88.222656 -47.566406 90.734375 -53.191406 90.734375 -60.640625 C 90.734375 -68.085938 88.375 -73.632812 83.65625 -77.28125 C 78.945312 -80.925781 73.859375 -82.75 68.390625 -82.75 C 62.921875 -82.75 57.828125 -80.847656 53.109375 -77.046875 C 48.398438 -73.253906 46.046875 -67.671875 46.046875 -60.296875 C 46.046875 -52.921875 48.476562 -47.375 53.34375 -43.65625 Z M 53.34375 -43.65625 "/></g></g></g></svg>