<svg xmlns="http://www.w3.org/2000/svg" xmlns:xlink="http://www.w3.org/1999/xlink" width="500" zoomAndPan="magnify" viewBox="0 0 375 374.999991" height="500" preserveAspectRatio="xMidYMid meet" version="1.0"><defs><g/></defs><path stroke-linecap="butt" transform="matrix(0.665552, 0, 0, 0.665552, -10.623926, 14.703397)" fill="none" stroke-linejoin="miter" d="M 121.848561 209.459108 C 132.612648 193.236677 145.51312 185.125462 160.567582 185.125462 C 183.868252 185.125462 201.235174 195.073732 212.662479 214.976143 C 215.174491 211.519192 218.185383 207.92725 221.695157 204.188579 C 225.263622 200.397084 230.921517 196.271046 238.674712 191.810465 C 246.422038 187.355753 254.421739 185.125462 262.673815 185.125462 C 280.903507 185.125462 296.175129 192.145008 308.494551 206.19584 C 320.872665 220.246672 327.058787 243.494519 327.058787 275.93938 L 327.058787 335.893117 C 327.058787 341.1343 326.89445 345.066655 326.559906 347.684312 C 326.225363 350.307838 325.139563 353.318731 323.296639 356.716989 C 320.344438 362.903112 311.53479 366.002042 296.873563 366.002042 C 282.488187 366.002042 273.707885 362.791597 270.532655 356.382446 C 268.91276 352.984187 267.938475 349.973295 267.603931 347.349768 C 267.269387 344.732111 267.10505 340.77628 267.10505 335.476405 L 267.10505 275.604836 C 267.10505 255.702426 260.020942 245.748286 245.864465 245.748286 C 237.894111 245.748286 232.453375 248.395289 229.553997 253.695164 C 226.713311 258.936347 225.292968 266.34913 225.292968 275.93938 L 225.292968 335.893117 C 225.292968 341.357329 225.122761 345.342507 224.788218 347.854518 C 224.453674 350.360661 223.367875 353.318731 221.530819 356.716989 C 218.34972 362.903112 209.457903 366.002042 194.855368 366.002042 C 180.469993 366.002042 171.660344 362.791597 168.426423 356.382446 C 166.865219 352.984187 165.890934 349.973295 165.503568 347.349768 C 165.169024 344.732111 164.998818 340.77628 164.998818 335.476405 L 164.998818 275.604836 C 164.998818 255.702426 157.920579 245.748286 143.758233 245.748286 C 130.100637 245.748286 123.274773 255.702426 123.274773 275.604836 L 123.274773 336.22766 C 123.274773 341.468844 123.075221 345.401198 122.687855 348.018856 C 122.353311 350.642382 121.290988 353.676751 119.506756 357.133702 C 116.049805 363.043972 107.134511 366.002042 92.749136 366.002042 C 78.36376 366.002042 69.583458 362.903112 66.408228 356.716989 C 64.794202 353.318731 63.814048 350.360661 63.479504 347.854518 C 63.144961 345.342507 62.980623 341.357329 62.980623 335.893117 L 62.980623 215.310686 C 62.980623 210.069503 63.144961 206.143018 63.479504 203.519491 C 63.814048 200.843142 64.905716 197.920288 66.742772 194.739189 C 70.141031 188.553066 78.228769 185.460005 90.994249 185.460005 C 103.818421 185.460005 112.152665 187.52009 115.996982 191.646128 C 119.899991 195.772166 121.848561 201.705913 121.848561 209.459108 Z M 434.576409 365.332955 C 411.551592 365.332955 392.429783 356.605475 377.210983 339.156384 C 362.045006 321.654471 354.462018 300.355194 354.462018 275.270293 L 354.462018 215.310686 C 354.462018 209.793651 354.632224 205.779128 354.966768 203.267116 C 355.301311 200.760974 356.275596 197.808773 357.889622 194.404645 C 361.070721 188.218523 369.962538 185.125462 384.570943 185.125462 C 400.570344 185.125462 409.931696 189.474529 412.666737 198.166793 C 414.057734 201.793951 414.756167 207.616183 414.756167 215.64523 L 414.756167 275.604836 C 414.756167 284.972057 417.432516 292.273325 422.785214 297.514508 C 428.137912 302.755692 435.327665 305.373349 444.360343 305.373349 C 453.387151 305.373349 460.694288 302.644177 466.270015 297.179965 C 471.898564 291.65706 474.715774 284.467307 474.715774 275.604836 L 474.715774 214.976143 C 474.715774 209.682137 474.880111 205.720436 475.214654 203.102779 C 475.549198 200.479253 476.634998 197.47423 478.477922 194.070102 C 481.430123 188.107008 490.210425 185.125462 504.81883 185.125462 C 519.198336 185.125462 527.984508 188.218523 531.159737 194.404645 C 532.773764 197.808773 533.753918 200.843142 534.088461 203.519491 C 534.423005 206.143018 534.587342 210.069503 534.587342 215.310686 L 534.587342 336.562204 C 534.587342 341.580358 534.423005 345.401198 534.088461 348.018856 C 533.753918 350.642382 532.662249 353.54176 530.825194 356.716989 C 527.426935 362.680083 518.646632 365.667498 504.484286 365.667498 C 490.544969 365.667498 481.987695 362.932458 478.812466 357.468245 C 476.523483 353.565236 475.384861 348.887495 475.384861 343.423283 C 474.434053 344.984486 472.373968 347.2676 469.192869 350.278492 C 466.01764 353.230693 462.924579 355.742705 459.913686 357.802789 C 452.16636 362.820943 443.714732 365.332955 434.576409 365.332955 Z M 434.576409 365.332955 " stroke="#250071" stroke-width="17.126051" stroke-opacity="1" stroke-miterlimit="4"/><g fill="#743ee1" fill-opacity="1"><g transform="translate(22.164921, 258.295516)"><g><path d="M 48.328125 -104.1875 C 55.472656 -114.976562 64.0625 -120.375 74.09375 -120.375 C 89.59375 -120.375 101.140625 -113.757812 108.734375 -100.53125 C 110.410156 -102.8125 112.425781 -105.207031 114.78125 -107.71875 C 117.132812 -110.226562 120.894531 -112.960938 126.0625 -115.921875 C 131.226562 -118.890625 136.550781 -120.375 142.03125 -120.375 C 154.1875 -120.375 164.363281 -115.695312 172.5625 -106.34375 C 180.769531 -97 184.875 -81.535156 184.875 -59.953125 L 184.875 -20.0625 C 184.875 -16.5625 184.757812 -13.9375 184.53125 -12.1875 C 184.3125 -10.445312 183.59375 -8.4375 182.375 -6.15625 C 180.394531 -2.050781 174.546875 0 164.828125 0 C 155.242188 0 149.390625 -2.128906 147.265625 -6.390625 C 146.203125 -8.660156 145.554688 -10.671875 145.328125 -12.421875 C 145.097656 -14.171875 144.984375 -16.796875 144.984375 -20.296875 L 144.984375 -60.1875 C 144.984375 -73.40625 140.273438 -80.015625 130.859375 -80.015625 C 125.535156 -80.015625 121.921875 -78.265625 120.015625 -74.765625 C 118.117188 -71.273438 117.171875 -66.335938 117.171875 -59.953125 L 117.171875 -20.0625 C 117.171875 -16.414062 117.054688 -13.753906 116.828125 -12.078125 C 116.597656 -10.410156 115.878906 -8.4375 114.671875 -6.15625 C 112.546875 -2.050781 106.617188 0 96.890625 0 C 87.316406 0 81.460938 -2.128906 79.328125 -6.390625 C 78.265625 -8.660156 77.617188 -10.671875 77.390625 -12.421875 C 77.160156 -14.171875 77.046875 -16.796875 77.046875 -20.296875 L 77.046875 -60.1875 C 77.046875 -73.40625 72.335938 -80.015625 62.921875 -80.015625 C 53.796875 -80.015625 49.234375 -73.40625 49.234375 -60.1875 L 49.234375 -19.828125 C 49.234375 -16.335938 49.117188 -13.71875 48.890625 -11.96875 C 48.671875 -10.21875 47.953125 -8.203125 46.734375 -5.921875 C 44.453125 -1.972656 38.523438 0 28.953125 0 C 19.378906 0 13.523438 -2.050781 11.390625 -6.15625 C 10.328125 -8.4375 9.679688 -10.410156 9.453125 -12.078125 C 9.234375 -13.753906 9.125 -16.414062 9.125 -20.0625 L 9.125 -100.3125 C 9.125 -103.800781 9.234375 -106.421875 9.453125 -108.171875 C 9.679688 -109.921875 10.40625 -111.859375 11.625 -113.984375 C 13.90625 -118.085938 19.300781 -120.140625 27.8125 -120.140625 C 36.320312 -120.140625 41.867188 -118.769531 44.453125 -116.03125 C 47.035156 -113.300781 48.328125 -109.351562 48.328125 -104.1875 Z M 48.328125 -104.1875 "/></g></g></g><g fill="#743ee1" fill-opacity="1"><g transform="translate(216.162776, 258.295516)"><g><path d="M 62.46875 -0.453125 C 47.113281 -0.453125 34.382812 -6.265625 24.28125 -17.890625 C 14.175781 -29.515625 9.125 -43.6875 9.125 -60.40625 L 9.125 -100.3125 C 9.125 -103.957031 9.234375 -106.613281 9.453125 -108.28125 C 9.679688 -109.957031 10.328125 -111.9375 11.390625 -114.21875 C 13.523438 -118.320312 19.457031 -120.375 29.1875 -120.375 C 39.820312 -120.375 46.050781 -117.484375 47.875 -111.703125 C 48.78125 -109.273438 49.234375 -105.398438 49.234375 -100.078125 L 49.234375 -60.1875 C 49.234375 -53.957031 51.019531 -49.09375 54.59375 -45.59375 C 58.164062 -42.09375 62.953125 -40.34375 68.953125 -40.34375 C 74.960938 -40.34375 79.828125 -42.164062 83.546875 -45.8125 C 87.273438 -49.46875 89.140625 -54.257812 89.140625 -60.1875 L 89.140625 -100.53125 C 89.140625 -104.03125 89.25 -106.648438 89.46875 -108.390625 C 89.695312 -110.140625 90.421875 -112.15625 91.640625 -114.4375 C 93.617188 -118.394531 99.472656 -120.375 109.203125 -120.375 C 118.773438 -120.375 124.625 -118.320312 126.75 -114.21875 C 127.8125 -111.9375 128.457031 -109.921875 128.6875 -108.171875 C 128.914062 -106.421875 129.03125 -103.800781 129.03125 -100.3125 L 129.03125 -19.609375 C 129.03125 -16.265625 128.914062 -13.71875 128.6875 -11.96875 C 128.457031 -10.21875 127.734375 -8.28125 126.515625 -6.15625 C 124.242188 -2.207031 118.394531 -0.234375 108.96875 -0.234375 C 99.695312 -0.234375 94 -2.054688 91.875 -5.703125 C 90.351562 -8.285156 89.59375 -11.398438 89.59375 -15.046875 C 88.988281 -13.984375 87.617188 -12.460938 85.484375 -10.484375 C 83.359375 -8.503906 81.304688 -6.832031 79.328125 -5.46875 C 74.160156 -2.125 68.539062 -0.453125 62.46875 -0.453125 Z M 62.46875 -0.453125 "/></g></g></g></svg>