<svg xmlns="http://www.w3.org/2000/svg" xmlns:xlink="http://www.w3.org/1999/xlink" width="500" zoomAndPan="magnify" viewBox="0 0 375 374.999991" height="500" preserveAspectRatio="xMidYMid meet" version="1.0"><defs><g/></defs><path stroke-linecap="butt" transform="matrix(0.87994, 0, 0, 0.87994, -45.829401, -9.728228)" fill="none" stroke-linejoin="miter" d="M 183.701038 163.787115 C 203.983859 163.787115 220.852916 171.55576 234.312648 187.08861 C 247.76794 202.572628 254.493366 221.470411 254.493366 243.781958 L 254.493366 297.283503 C 254.493366 301.935811 254.346872 305.425042 254.049444 307.746757 C 253.752016 310.072911 252.886367 312.647662 251.452497 315.46657 C 248.633589 320.957892 240.740646 323.701333 227.782547 323.701333 C 213.386139 323.701333 205.07147 319.941309 202.847418 312.425701 C 201.608874 309.011936 200.991821 303.840239 200.991821 296.915047 L 200.991821 243.48453 C 200.991821 235.1743 198.616836 228.69303 193.866865 224.045161 C 189.121333 219.344022 182.737726 216.995671 174.724924 216.995671 C 166.707683 216.995671 160.226414 219.441685 155.281117 224.342589 C 150.33582 229.190224 147.858732 235.569391 147.858732 243.48453 L 147.858732 297.283503 C 147.858732 301.935811 147.685602 305.425042 147.339343 307.746757 C 147.041915 310.072911 146.105238 312.647662 144.520435 315.46657 C 141.848021 320.957892 134.034984 323.701333 121.072446 323.701333 C 108.309673 323.701333 100.514393 320.957892 97.695485 315.46657 C 96.261615 312.447897 95.395966 309.775483 95.098538 307.453768 C 94.80111 305.127614 94.654615 301.616187 94.654615 296.915047 L 94.654615 189.317101 C 94.654615 184.864558 94.80111 181.472989 95.098538 179.146835 C 95.395966 176.82512 96.359278 174.25037 97.992913 171.431461 C 100.811821 166.335231 108.607101 163.787115 121.369874 163.787115 C 133.737556 163.787115 141.328631 166.139905 144.151979 170.836605 C 146.176266 174.25037 147.192848 178.405485 147.192848 183.30639 C 148.031862 181.868081 149.865262 179.839354 152.68417 177.220211 C 155.55191 174.547798 158.29979 172.421409 160.918933 170.836605 C 167.795294 166.139905 175.390808 163.787115 183.701038 163.787115 Z M 382.809178 180.855937 C 383.99889 169.478202 391.989496 163.787115 406.780995 163.787115 C 414.696134 163.787115 420.582547 164.408607 424.440234 165.642712 C 428.297921 166.881255 430.970334 169.007644 432.453036 172.026318 C 433.989008 175.040552 434.903488 177.739601 435.200916 180.114586 C 435.498344 182.440741 435.644839 185.925533 435.644839 190.577841 L 435.644839 296.915047 C 435.644839 301.616187 435.498344 305.127614 435.200916 307.453768 C 434.903488 309.775483 434.037839 312.447897 432.603969 315.46657 C 429.785061 320.758127 422.85987 323.408344 411.823955 323.408344 C 400.79248 323.408344 393.39673 322.045502 389.636706 319.324257 C 385.876682 316.55418 383.701462 312.54556 383.106606 307.302834 C 375.586558 318.036882 363.072381 323.408344 345.559637 323.408344 C 328.046893 323.408344 311.772692 315.417739 296.732596 299.436527 C 281.741332 283.410923 274.24792 264.806129 274.24792 243.635463 C 274.24792 222.460358 281.790164 203.93547 296.879091 188.051922 C 312.01685 172.123981 328.592917 164.16001 346.598416 164.16001 C 353.523607 164.16001 359.805111 165.371919 365.447367 167.795736 C 371.134015 170.219553 375.093804 172.496876 377.317856 174.623265 C 379.546347 176.749654 381.375308 178.827211 382.809178 180.855937 Z M 327.452036 244.079386 C 327.452036 250.755981 330.075619 256.793327 335.318344 262.186986 C 340.61434 267.527375 346.993507 270.199788 354.464723 270.199788 C 361.984771 270.199788 368.217444 267.478543 373.162741 262.036053 C 378.161309 256.544731 380.660593 250.511823 380.660593 243.932891 C 380.660593 237.34952 378.258972 231.21895 373.460169 225.527863 C 368.710198 219.836776 362.331031 216.995671 354.31379 216.995671 C 346.349819 216.995671 339.86855 219.836776 334.874421 225.527863 C 329.924685 231.21895 327.452036 237.402791 327.452036 244.079386 Z M 327.452036 244.079386 " stroke="#760047" stroke-width="15.1977" stroke-opacity="1" stroke-miterlimit="4"/><g fill="#ec5bb2" fill-opacity="1"><g transform="translate(26.751862, 275.372184)"><g><path d="M 89.0625 -140.953125 C 106.894531 -140.953125 121.738281 -134.128906 133.59375 -120.484375 C 145.445312 -106.847656 151.375 -90.222656 151.375 -70.609375 L 151.375 -23.53125 C 151.375 -19.4375 151.238281 -16.363281 150.96875 -14.3125 C 150.707031 -12.257812 149.953125 -9.984375 148.703125 -7.484375 C 146.203125 -2.671875 139.25 -0.265625 127.84375 -0.265625 C 115.1875 -0.265625 107.875 -3.5625 105.90625 -10.15625 C 104.84375 -13.1875 104.3125 -17.734375 104.3125 -23.796875 L 104.3125 -70.875 C 104.3125 -78.1875 102.210938 -83.890625 98.015625 -87.984375 C 93.828125 -92.085938 88.210938 -94.140625 81.171875 -94.140625 C 74.128906 -94.140625 68.421875 -92 64.046875 -87.71875 C 59.679688 -83.445312 57.5 -77.832031 57.5 -70.875 L 57.5 -23.53125 C 57.5 -19.4375 57.363281 -16.363281 57.09375 -14.3125 C 56.832031 -12.257812 55.988281 -9.984375 54.5625 -7.484375 C 52.238281 -2.671875 45.375 -0.265625 33.96875 -0.265625 C 22.726562 -0.265625 15.863281 -2.671875 13.375 -7.484375 C 12.125 -10.160156 11.363281 -12.523438 11.09375 -14.578125 C 10.832031 -16.628906 10.703125 -19.703125 10.703125 -23.796875 L 10.703125 -118.484375 C 10.703125 -122.398438 10.832031 -125.382812 11.09375 -127.4375 C 11.363281 -129.488281 12.210938 -131.765625 13.640625 -134.265625 C 16.140625 -138.722656 23.003906 -140.953125 34.234375 -140.953125 C 45.109375 -140.953125 51.796875 -138.898438 54.296875 -134.796875 C 56.078125 -131.765625 56.96875 -128.109375 56.96875 -123.828125 C 57.675781 -125.078125 59.28125 -126.859375 61.78125 -129.171875 C 64.28125 -131.492188 66.6875 -133.367188 69 -134.796875 C 75.0625 -138.898438 81.75 -140.953125 89.0625 -140.953125 Z M 89.0625 -140.953125 "/></g></g></g><g fill="#ec5bb2" fill-opacity="1"><g transform="translate(188.830927, 275.372184)"><g><path d="M 102.171875 -125.96875 C 103.234375 -135.957031 110.273438 -140.953125 123.296875 -140.953125 C 130.253906 -140.953125 135.425781 -140.414062 138.8125 -139.34375 C 142.195312 -138.269531 144.554688 -136.394531 145.890625 -133.71875 C 147.234375 -131.050781 148.035156 -128.691406 148.296875 -126.640625 C 148.566406 -124.585938 148.703125 -121.507812 148.703125 -117.40625 L 148.703125 -23.796875 C 148.703125 -19.703125 148.566406 -16.628906 148.296875 -14.578125 C 148.035156 -12.523438 147.28125 -10.160156 146.03125 -7.484375 C 143.53125 -2.847656 137.421875 -0.53125 127.703125 -0.53125 C 117.984375 -0.53125 111.472656 -1.734375 108.171875 -4.140625 C 104.878906 -6.546875 102.96875 -10.066406 102.4375 -14.703125 C 95.832031 -5.253906 84.816406 -0.53125 69.390625 -0.53125 C 53.972656 -0.53125 39.664062 -7.570312 26.46875 -21.65625 C 13.28125 -35.75 6.6875 -52.109375 6.6875 -70.734375 C 6.6875 -89.367188 13.328125 -105.6875 26.609375 -119.6875 C 39.890625 -133.6875 54.46875 -140.6875 70.34375 -140.6875 C 76.40625 -140.6875 81.929688 -139.613281 86.921875 -137.46875 C 91.910156 -135.332031 95.382812 -133.328125 97.34375 -131.453125 C 99.3125 -129.578125 100.921875 -127.75 102.171875 -125.96875 Z M 53.484375 -70.34375 C 53.484375 -64.457031 55.800781 -59.148438 60.4375 -54.421875 C 65.070312 -49.703125 70.6875 -47.34375 77.28125 -47.34375 C 83.882812 -47.34375 89.367188 -49.75 93.734375 -54.5625 C 98.109375 -59.375 100.296875 -64.675781 100.296875 -70.46875 C 100.296875 -76.269531 98.195312 -81.664062 94 -86.65625 C 89.8125 -91.644531 84.195312 -94.140625 77.15625 -94.140625 C 70.113281 -94.140625 64.40625 -91.644531 60.03125 -86.65625 C 55.664062 -81.664062 53.484375 -76.226562 53.484375 -70.34375 Z M 53.484375 -70.34375 "/></g></g></g></svg>