<svg xmlns="http://www.w3.org/2000/svg" xmlns:xlink="http://www.w3.org/1999/xlink" width="500" zoomAndPan="magnify" viewBox="0 0 375 374.999991" height="500" preserveAspectRatio="xMidYMid meet" version="1.0"><defs><g/></defs><path stroke-linecap="butt" transform="matrix(0.75, 0, 0, 0.75, -11.373926, -9.300849)" fill="none" stroke-linejoin="miter" d="M 173.847538 191.35427 C 197.602748 191.35427 217.363166 200.44802 233.123583 218.645938 C 248.884001 236.781356 256.76421 258.911566 256.76421 285.046984 L 256.76421 347.708446 C 256.76421 353.156364 256.592335 357.244905 256.243376 359.963656 C 255.894418 362.687614 254.878793 365.703239 253.20171 369.005323 C 249.899626 375.437615 240.654834 378.651157 225.472541 378.651157 C 208.613165 378.651157 198.878789 374.250115 196.269414 365.442823 C 194.821497 361.442822 194.097539 355.390739 194.097539 347.276155 L 194.097539 284.698026 C 194.097539 274.96365 191.316289 267.375108 185.753788 261.927191 C 180.191288 256.421982 172.717329 253.671982 163.331912 253.671982 C 153.946495 253.671982 146.352744 256.536565 140.561077 262.276149 C 134.764202 267.953233 131.868368 275.427192 131.868368 284.698026 L 131.868368 347.708446 C 131.868368 353.156364 131.665243 357.244905 131.258993 359.963656 C 130.910035 362.687614 129.811076 365.703239 127.95691 369.005323 C 124.826701 375.437615 115.675659 378.651157 100.493366 378.651157 C 85.545449 378.651157 76.41524 375.437615 73.113156 369.005323 C 71.436073 365.468864 70.420448 362.343864 70.071489 359.619906 C 69.722531 356.895947 69.550656 352.781363 69.550656 347.276155 L 69.550656 221.250105 C 69.550656 216.036563 69.722531 212.067813 70.071489 209.343854 C 70.420448 206.619896 71.550656 203.609479 73.462114 200.302187 C 76.764198 194.338645 85.889199 191.35427 100.842325 191.35427 C 115.326701 191.35427 124.217326 194.10427 127.524618 199.609478 C 129.899618 203.609479 131.087118 208.474062 131.087118 214.208438 C 132.071493 212.531354 134.217327 210.156354 137.51941 207.083437 C 140.878786 203.953229 144.092327 201.463645 147.165244 199.609478 C 155.217328 194.10427 164.113162 191.35427 173.847538 191.35427 Z M 466.154849 262.796983 C 466.154849 277.395942 462.535057 288.203234 455.290265 295.213651 C 448.045472 302.166777 440.024638 305.645944 431.217346 305.645944 L 346.821507 305.645944 C 346.821507 312.307402 350.732966 317.901153 358.555883 322.416778 C 366.436092 326.937612 374.285051 329.198029 382.107968 329.198029 C 395.899636 329.198029 406.706928 327.750112 414.529845 324.854278 L 418.441304 323.463653 C 424.118387 320.854278 428.868388 319.552195 432.691305 319.552195 C 440.285055 319.552195 446.800681 324.88032 452.248598 335.541779 C 455.321515 341.974071 456.852765 347.44803 456.852765 351.968863 C 456.852765 373.062615 431.592346 383.604282 381.066301 383.604282 C 363.509008 383.604282 347.894424 380.593865 334.21734 374.567823 C 320.602756 368.48449 309.972547 360.458447 302.321504 350.489697 C 287.373587 331.312612 279.899628 309.843861 279.899628 286.088651 C 279.899628 256.192815 289.576712 232.286564 308.925672 214.385521 C 328.279839 196.421978 352.441299 187.442811 381.41526 187.442811 C 414.384012 187.442811 438.571513 199.088645 453.988181 222.380313 C 462.097557 234.724064 466.154849 248.192815 466.154849 262.796983 Z M 390.972552 273.224067 C 400.014219 273.224067 404.535053 269.4324 404.535053 261.838649 C 404.535053 256.390732 402.446511 252.02094 398.274636 248.713648 C 394.160052 245.411565 388.222552 243.760523 380.456926 243.760523 C 372.748592 243.760523 365.102759 246.921982 357.514216 253.234482 C 349.920466 259.494899 346.128799 266.156358 346.128799 273.224067 Z M 390.972552 273.224067 " stroke="#760047" stroke-width="17.799999" stroke-opacity="1" stroke-miterlimit="4"/><g fill="#ec5bb2" fill-opacity="1"><g transform="translate(30.098728, 274.949132)"><g><path d="M 88.90625 -140.703125 C 106.707031 -140.703125 121.523438 -133.894531 133.359375 -120.28125 C 145.203125 -106.664062 151.125 -90.066406 151.125 -70.484375 L 151.125 -23.5 C 151.125 -19.40625 150.988281 -16.332031 150.71875 -14.28125 C 150.457031 -12.238281 149.703125 -9.96875 148.453125 -7.46875 C 145.960938 -2.664062 139.019531 -0.265625 127.625 -0.265625 C 114.988281 -0.265625 107.691406 -3.554688 105.734375 -10.140625 C 104.660156 -13.171875 104.125 -17.710938 104.125 -23.765625 L 104.125 -70.75 C 104.125 -78.050781 102.03125 -83.75 97.84375 -87.84375 C 93.664062 -91.9375 88.0625 -93.984375 81.03125 -93.984375 C 74 -93.984375 68.300781 -91.847656 63.9375 -87.578125 C 59.582031 -83.304688 57.40625 -77.695312 57.40625 -70.75 L 57.40625 -23.5 C 57.40625 -19.40625 57.269531 -16.332031 57 -14.28125 C 56.738281 -12.238281 55.894531 -9.96875 54.46875 -7.46875 C 52.15625 -2.664062 45.300781 -0.265625 33.90625 -0.265625 C 22.695312 -0.265625 15.84375 -2.664062 13.34375 -7.46875 C 12.101562 -10.144531 11.347656 -12.503906 11.078125 -14.546875 C 10.816406 -16.597656 10.6875 -19.671875 10.6875 -23.765625 L 10.6875 -118.28125 C 10.6875 -122.195312 10.816406 -125.175781 11.078125 -127.21875 C 11.347656 -129.269531 12.191406 -131.539062 13.609375 -134.03125 C 16.109375 -138.476562 22.960938 -140.703125 34.171875 -140.703125 C 45.035156 -140.703125 51.710938 -138.65625 54.203125 -134.5625 C 55.984375 -131.539062 56.875 -127.894531 56.875 -123.625 C 57.582031 -124.863281 59.179688 -126.640625 61.671875 -128.953125 C 64.171875 -131.273438 66.578125 -133.144531 68.890625 -134.5625 C 74.941406 -138.65625 81.613281 -140.703125 88.90625 -140.703125 Z M 88.90625 -140.703125 "/></g></g></g><g fill="#ec5bb2" fill-opacity="1"><g transform="translate(191.900447, 274.949132)"><g><path d="M 146.3125 -87.171875 C 146.3125 -76.222656 143.597656 -68.125 138.171875 -62.875 C 132.742188 -57.625 126.738281 -55 120.15625 -55 L 56.875 -55 C 56.875 -50.019531 59.8125 -45.835938 65.6875 -42.453125 C 71.5625 -39.066406 77.429688 -37.375 83.296875 -37.375 C 93.628906 -37.375 101.726562 -38.441406 107.59375 -40.578125 L 110.53125 -41.65625 C 114.8125 -43.613281 118.375 -44.59375 121.21875 -44.59375 C 126.914062 -44.59375 131.8125 -40.585938 135.90625 -32.578125 C 138.21875 -27.765625 139.375 -23.671875 139.375 -20.296875 C 139.375 -4.453125 120.414062 3.46875 82.5 3.46875 C 69.332031 3.46875 57.628906 1.203125 47.390625 -3.328125 C 37.160156 -7.867188 29.195312 -13.878906 23.5 -21.359375 C 12.28125 -35.773438 6.671875 -51.882812 6.671875 -69.6875 C 6.671875 -92.113281 13.925781 -110.046875 28.4375 -123.484375 C 42.945312 -136.921875 61.054688 -143.640625 82.765625 -143.640625 C 107.515625 -143.640625 125.671875 -134.921875 137.234375 -117.484375 C 143.285156 -108.222656 146.3125 -98.117188 146.3125 -87.171875 Z M 89.984375 -79.296875 C 96.742188 -79.296875 100.125 -82.144531 100.125 -87.84375 C 100.125 -91.9375 98.566406 -95.226562 95.453125 -97.71875 C 92.335938 -100.207031 87.882812 -101.453125 82.09375 -101.453125 C 76.3125 -101.453125 70.570312 -99.09375 64.875 -94.375 C 59.1875 -89.664062 56.34375 -84.640625 56.34375 -79.296875 Z M 89.984375 -79.296875 "/></g></g></g></svg>