<svg xmlns="http://www.w3.org/2000/svg" xmlns:xlink="http://www.w3.org/1999/xlink" width="500" zoomAndPan="magnify" viewBox="0 0 375 374.999991" height="500" preserveAspectRatio="xMidYMid meet" version="1.0"><defs><g/></defs><path stroke-linecap="butt" transform="matrix(0.535396, 0, 0, 0.535396, -20.104726, 18.43991)" fill="none" stroke-linejoin="miter" d="M 188.220935 191.355104 C 211.976725 191.355104 231.734305 200.445926 247.500971 218.642161 C 263.26034 236.780028 271.140025 258.916105 271.140025 285.043097 L 271.140025 347.708479 C 271.140025 353.158595 270.964921 357.244357 270.614713 359.965767 C 270.271801 362.687177 269.257656 365.700426 267.572279 369.005516 C 264.274485 375.433296 255.030447 378.650834 239.847462 378.650834 C 222.986396 378.650834 213.253526 374.251344 210.648852 365.43777 C 209.196947 361.446856 208.474643 355.391172 208.474643 347.278015 L 208.474643 284.700185 C 208.474643 274.967315 205.694865 267.372174 200.128014 261.929355 C 194.568459 256.420872 187.090054 253.670278 177.707392 253.670278 C 168.317435 253.670278 160.72959 256.537608 154.936562 262.272267 C 149.143535 267.955855 146.239725 275.426963 146.239725 284.700185 L 146.239725 347.708479 C 146.239725 353.158595 146.042733 357.244357 145.634157 359.965767 C 145.283948 362.687177 144.189548 365.700426 142.329067 369.005516 C 139.206377 375.433296 130.049891 378.650834 114.866906 378.650834 C 99.917393 378.650834 90.790091 375.433296 87.492297 369.005516 C 85.80692 365.466954 84.792776 362.344264 84.449863 359.615559 C 84.099655 356.894149 83.924551 352.779202 83.924551 347.278015 L 83.924551 221.25413 C 83.924551 216.037487 84.099655 212.068461 84.449863 209.347051 C 84.792776 206.618345 85.923656 203.605095 87.835209 200.307301 C 91.140299 194.33917 100.267601 191.355104 115.217114 191.355104 C 129.699683 191.355104 138.593512 194.105698 141.898602 199.606885 C 144.269804 203.605095 145.459053 208.47153 145.459053 214.213486 C 146.444013 212.528109 148.589038 210.156907 151.894129 207.08529 C 155.250291 203.955304 158.467829 201.46007 161.539446 199.606885 C 169.594235 194.105698 178.488065 191.355104 188.220935 191.355104 Z M 418.563091 355.529796 C 409.523342 367.356619 395.150213 373.266383 375.451001 373.266383 C 355.751789 373.266383 337.292898 364.197449 320.088919 346.059582 C 302.877645 327.921715 294.275655 306.74871 294.275655 282.525976 C 294.275655 258.303241 302.936013 237.071868 320.256727 218.817265 C 337.584738 200.504294 356.590829 191.355104 377.275002 191.355104 C 385.329791 191.355104 392.662275 192.858081 399.265159 195.871331 C 405.926411 198.826213 410.508302 201.547622 412.99624 204.042856 C 415.491473 206.530793 417.461395 208.850923 418.906003 210.995948 C 419.60642 204.334696 422.035989 199.293157 426.209304 195.871331 C 430.382618 192.398433 437.073054 190.654688 446.287908 190.654688 C 455.553834 190.654688 462.339118 191.384288 466.621873 192.828897 C 470.911923 194.222434 473.925173 196.652003 475.661622 200.132197 C 477.456439 203.546727 478.528952 206.559977 478.87916 209.171947 C 479.229368 211.77662 479.397176 215.804015 479.397176 221.25413 L 479.397176 368.655308 C 479.397176 395.949661 469.897779 417.969002 450.891687 434.713332 C 431.943963 451.457663 410.595854 459.833476 386.832768 459.833476 C 368.818933 459.833476 351.607658 455.426689 335.20624 446.620412 C 318.870486 437.872502 310.698961 429.93445 310.698961 422.806253 C 310.698961 413.533032 314.259412 405.332323 321.387608 398.211422 C 325.911131 393.228251 329.413213 389.777241 331.908446 387.865688 C 334.396384 386.012503 337.292898 385.08591 340.597988 385.08591 C 343.903078 385.08591 347.346792 386.501335 350.943722 389.339481 C 362.296305 398.094686 374.641144 402.464993 387.963649 402.464993 C 396.94503 402.464993 404.277514 398.904543 409.953806 391.776346 C 415.688465 384.706518 418.563091 376.192081 418.563091 366.225739 Z M 355.197293 282.70108 C 355.197293 290.40566 358.210542 297.358753 364.237042 303.560356 C 370.32191 309.703592 377.683578 312.767914 386.314752 312.767914 C 395.004293 312.767914 402.190857 309.645224 407.867149 303.385252 C 413.550736 297.066913 416.388882 290.172188 416.388882 282.70108 C 416.388882 275.222675 413.660176 268.240399 408.217357 261.754251 C 402.767242 255.202439 395.412869 251.933829 386.139647 251.933829 C 376.873722 251.933829 369.395317 255.144071 363.719026 261.579147 C 358.035438 267.955855 355.197293 274.989203 355.197293 282.70108 Z M 629.687572 211.346156 C 631.081109 198.016356 640.434587 191.355104 657.762597 191.355104 C 667.028523 191.355104 673.930543 192.077408 678.44677 193.522017 C 682.962996 194.973922 686.092982 197.46186 687.836727 201.000422 C 689.631545 204.531688 690.704057 207.690858 691.046969 210.470636 C 691.397178 213.199341 691.572282 217.285104 691.572282 222.727923 L 691.572282 347.278015 C 691.572282 352.779202 691.397178 356.894149 691.046969 359.615559 C 690.704057 362.344264 689.689913 365.466954 688.004536 369.005516 C 684.706742 375.20712 676.593585 378.307922 663.672361 378.307922 C 650.751137 378.307922 642.09078 376.710097 637.683993 373.521743 C 633.277206 370.282317 630.730901 365.58369 630.03778 359.447751 C 621.231503 372.018766 606.566534 378.307922 586.057465 378.307922 C 565.548397 378.307922 546.483937 368.947148 528.864086 350.232897 C 511.3099 331.460277 502.532806 309.674408 502.532806 284.875289 C 502.532806 260.07617 511.368268 238.370557 529.039191 219.773041 C 546.768481 201.117158 566.183149 191.785568 587.275898 191.785568 C 595.389055 191.785568 602.743428 193.208289 609.346312 196.046435 C 616.01486 198.884581 620.647822 201.547622 623.252496 204.042856 C 625.864466 206.530793 628.009491 208.967659 629.687572 211.346156 Z M 564.84798 285.393305 C 564.84798 293.214622 567.919598 300.28445 574.062834 306.60279 C 580.264438 312.855466 587.735546 315.985452 596.483456 315.985452 C 605.297029 315.985452 612.593034 312.797098 618.386061 306.427686 C 624.237457 299.99261 627.17045 292.922782 627.17045 285.218201 C 627.17045 277.513621 624.354193 270.327056 618.736269 263.665804 C 613.176714 257.004552 605.698309 253.670278 596.315648 253.670278 C 586.984058 253.670278 579.396213 257.004552 573.544818 263.665804 C 567.744494 270.327056 564.84798 277.571989 564.84798 285.393305 Z M 564.84798 285.393305 " stroke="#4a610f" stroke-width="17.799999" stroke-opacity="1" stroke-miterlimit="4"/><g fill="#abc270" fill-opacity="1"><g transform="translate(17.197302, 221.354911)"><g><path d="M 63.46875 -100.4375 C 76.175781 -100.4375 86.753906 -95.578125 95.203125 -85.859375 C 103.648438 -76.140625 107.875 -64.289062 107.875 -50.3125 L 107.875 -16.765625 C 107.875 -13.847656 107.773438 -11.65625 107.578125 -10.1875 C 107.390625 -8.726562 106.851562 -7.113281 105.96875 -5.34375 C 104.1875 -1.90625 99.234375 -0.1875 91.109375 -0.1875 C 82.085938 -0.1875 76.875 -2.539062 75.46875 -7.25 C 74.707031 -9.40625 74.328125 -12.644531 74.328125 -16.96875 L 74.328125 -50.5 C 74.328125 -55.71875 72.832031 -59.785156 69.84375 -62.703125 C 66.863281 -65.628906 62.863281 -67.09375 57.84375 -67.09375 C 52.820312 -67.09375 48.753906 -65.566406 45.640625 -62.515625 C 42.535156 -59.460938 40.984375 -55.457031 40.984375 -50.5 L 40.984375 -16.765625 C 40.984375 -13.847656 40.882812 -11.65625 40.6875 -10.1875 C 40.5 -8.726562 39.894531 -7.113281 38.875 -5.34375 C 37.226562 -1.90625 32.335938 -0.1875 24.203125 -0.1875 C 16.203125 -0.1875 11.3125 -1.90625 9.53125 -5.34375 C 8.644531 -7.25 8.101562 -8.929688 7.90625 -10.390625 C 7.71875 -11.847656 7.625 -14.039062 7.625 -16.96875 L 7.625 -84.4375 C 7.625 -87.226562 7.71875 -89.351562 7.90625 -90.8125 C 8.101562 -92.28125 8.707031 -93.898438 9.71875 -95.671875 C 11.5 -98.847656 16.390625 -100.4375 24.390625 -100.4375 C 32.140625 -100.4375 36.90625 -98.976562 38.6875 -96.0625 C 39.957031 -93.894531 40.59375 -91.289062 40.59375 -88.25 C 41.101562 -89.132812 42.25 -90.398438 44.03125 -92.046875 C 45.8125 -93.703125 47.523438 -95.039062 49.171875 -96.0625 C 53.492188 -98.976562 58.257812 -100.4375 63.46875 -100.4375 Z M 63.46875 -100.4375 "/></g></g></g><g fill="#abc270" fill-opacity="1"><g transform="translate(132.701254, 221.354911)"><g><path d="M 71.28125 -12.578125 C 66.457031 -6.222656 58.769531 -3.046875 48.21875 -3.046875 C 37.675781 -3.046875 27.796875 -7.90625 18.578125 -17.625 C 9.367188 -27.34375 4.765625 -38.679688 4.765625 -51.640625 C 4.765625 -64.609375 9.398438 -75.984375 18.671875 -85.765625 C 27.953125 -95.546875 38.117188 -100.4375 49.171875 -100.4375 C 53.492188 -100.4375 57.429688 -99.640625 60.984375 -98.046875 C 64.546875 -96.460938 66.992188 -95.003906 68.328125 -93.671875 C 69.660156 -92.335938 70.707031 -91.097656 71.46875 -89.953125 C 71.851562 -93.515625 73.15625 -96.21875 75.375 -98.0625 C 77.601562 -99.90625 81.191406 -100.828125 86.140625 -100.828125 C 91.097656 -100.828125 94.71875 -100.441406 97 -99.671875 C 99.289062 -98.910156 100.910156 -97.609375 101.859375 -95.765625 C 102.816406 -93.929688 103.390625 -92.3125 103.578125 -90.90625 C 103.773438 -89.507812 103.875 -87.351562 103.875 -84.4375 L 103.875 -5.53125 C 103.875 9.082031 98.789062 20.867188 88.625 29.828125 C 78.457031 38.785156 67.019531 43.265625 54.3125 43.265625 C 44.65625 43.265625 35.441406 40.910156 26.671875 36.203125 C 17.910156 31.503906 13.53125 27.25 13.53125 23.4375 C 13.53125 18.488281 15.4375 14.109375 19.25 10.296875 C 21.664062 7.628906 23.539062 5.785156 24.875 4.765625 C 26.207031 3.742188 27.757812 3.234375 29.53125 3.234375 C 31.3125 3.234375 33.15625 4 35.0625 5.53125 C 41.164062 10.226562 47.773438 12.578125 54.890625 12.578125 C 59.722656 12.578125 63.660156 10.671875 66.703125 6.859375 C 69.753906 3.046875 71.28125 -1.523438 71.28125 -6.859375 Z M 37.359375 -51.546875 C 37.359375 -47.421875 38.976562 -43.707031 42.21875 -40.40625 C 45.457031 -37.101562 49.394531 -35.453125 54.03125 -35.453125 C 58.664062 -35.453125 62.507812 -37.132812 65.5625 -40.5 C 68.613281 -43.863281 70.140625 -47.546875 70.140625 -51.546875 C 70.140625 -55.554688 68.675781 -59.304688 65.75 -62.796875 C 62.832031 -66.296875 58.894531 -68.046875 53.9375 -68.046875 C 48.976562 -68.046875 44.972656 -66.328125 41.921875 -62.890625 C 38.878906 -59.460938 37.359375 -55.679688 37.359375 -51.546875 Z M 37.359375 -51.546875 "/></g></g></g><g fill="#abc270" fill-opacity="1"><g transform="translate(244.202597, 221.354911)"><g><path d="M 72.8125 -89.765625 C 73.570312 -96.878906 78.585938 -100.4375 87.859375 -100.4375 C 92.816406 -100.4375 96.503906 -100.054688 98.921875 -99.296875 C 101.335938 -98.535156 103.019531 -97.203125 103.96875 -95.296875 C 104.914062 -93.390625 105.484375 -91.703125 105.671875 -90.234375 C 105.867188 -88.773438 105.96875 -86.585938 105.96875 -83.671875 L 105.96875 -16.96875 C 105.96875 -14.039062 105.867188 -11.847656 105.671875 -10.390625 C 105.484375 -8.929688 104.945312 -7.25 104.0625 -5.34375 C 102.28125 -2.03125 97.925781 -0.375 91 -0.375 C 84.082031 -0.375 79.445312 -1.234375 77.09375 -2.953125 C 74.738281 -4.671875 73.375 -7.179688 73 -10.484375 C 68.300781 -3.742188 60.453125 -0.375 49.453125 -0.375 C 38.460938 -0.375 28.265625 -5.394531 18.859375 -15.4375 C 9.460938 -25.476562 4.765625 -37.132812 4.765625 -50.40625 C 4.765625 -63.6875 9.492188 -75.3125 18.953125 -85.28125 C 28.421875 -95.257812 38.8125 -100.25 50.125 -100.25 C 54.445312 -100.25 58.382812 -99.484375 61.9375 -97.953125 C 65.5 -96.429688 67.976562 -95.003906 69.375 -93.671875 C 70.769531 -92.335938 71.914062 -91.035156 72.8125 -89.765625 Z M 38.125 -50.125 C 38.125 -45.9375 39.773438 -42.15625 43.078125 -38.78125 C 46.378906 -35.414062 50.378906 -33.734375 55.078125 -33.734375 C 59.785156 -33.734375 63.691406 -35.445312 66.796875 -38.875 C 69.910156 -42.3125 71.46875 -46.09375 71.46875 -50.21875 C 71.46875 -54.351562 69.972656 -58.195312 66.984375 -61.75 C 64.003906 -65.3125 60.003906 -67.09375 54.984375 -67.09375 C 49.960938 -67.09375 45.894531 -65.3125 42.78125 -61.75 C 39.675781 -58.195312 38.125 -54.320312 38.125 -50.125 Z M 38.125 -50.125 "/></g></g></g></svg>