<svg xmlns="http://www.w3.org/2000/svg" xmlns:xlink="http://www.w3.org/1999/xlink" width="500" zoomAndPan="magnify" viewBox="0 0 375 374.999991" height="500" preserveAspectRatio="xMidYMid meet" version="1.0"><defs><g/></defs><path stroke-linecap="butt" transform="matrix(0.535396, 0, 0, 0.535396, -20.104726, 18.439921)" fill="none" stroke-linejoin="miter" d="M 192.313993 191.355083 C 216.069784 191.355083 235.83466 200.445905 251.594029 218.64214 C 267.353399 236.780007 275.233084 258.916085 275.233084 285.043077 L 275.233084 347.708459 C 275.233084 353.158574 275.05798 357.244337 274.707771 359.965746 C 274.364859 362.687156 273.350715 365.700406 271.665338 369.005496 C 268.367544 375.433276 259.123506 378.650814 243.940521 378.650814 C 227.079454 378.650814 217.346584 374.251323 214.741911 365.445046 C 213.290006 361.446835 212.567702 355.391151 212.567702 347.277995 L 212.567702 284.700164 C 212.567702 274.967294 209.787924 267.372154 204.221072 261.929334 C 198.661517 256.420851 191.183112 253.670257 181.800451 253.670257 C 172.410493 253.670257 164.822648 256.537587 159.029621 262.272247 C 153.236593 267.955834 150.34008 275.426943 150.34008 284.700164 L 150.34008 347.708459 C 150.34008 353.158574 150.135791 357.244337 149.727215 359.965746 C 149.384303 362.687156 148.282606 365.700406 146.429421 369.005496 C 143.299435 375.433276 134.14295 378.650814 118.959964 378.650814 C 104.010451 378.650814 94.88315 375.433276 91.585356 369.005496 C 89.899979 365.466934 88.885834 362.344244 88.542922 359.615538 C 88.192714 356.894128 88.01761 352.779182 88.01761 347.277995 L 88.01761 221.25411 C 88.01761 216.037466 88.192714 212.06844 88.542922 209.34703 C 88.885834 206.618325 90.016715 203.605075 91.928268 200.307281 C 95.233358 194.339149 104.36066 191.355083 119.310173 191.355083 C 133.792741 191.355083 142.686571 194.105677 145.991661 199.606864 C 148.370158 203.605075 149.552111 208.47151 149.552111 214.213465 C 150.537072 212.528088 152.682097 210.156887 155.987187 207.085269 C 159.350645 203.955283 162.560887 201.46005 165.632505 199.606864 C 173.687294 194.105677 182.581123 191.355083 192.313993 191.355083 Z M 422.65615 355.529776 C 413.6164 367.356599 399.243271 373.266362 379.544059 373.266362 C 359.844847 373.266362 341.385956 364.197429 324.181978 346.059562 C 306.970703 327.921695 298.368714 306.74869 298.368714 282.525955 C 298.368714 258.30322 307.029071 237.071847 324.357082 218.817244 C 341.677796 200.504273 360.683888 191.355083 381.368061 191.355083 C 389.422849 191.355083 396.755334 192.85806 403.358218 195.87131 C 410.01947 198.826192 414.601361 201.547602 417.089298 204.042835 C 419.584532 206.530773 421.554453 208.850902 422.999062 210.995927 C 423.699478 204.334675 426.129048 199.293136 430.302362 195.87131 C 434.475677 192.398412 441.166113 190.654667 450.380967 190.654667 C 459.646892 190.654667 466.432176 191.384267 470.714931 192.828876 C 475.004982 194.222413 478.018231 196.651983 479.754681 200.132177 C 481.549498 203.546707 482.62201 206.559957 482.972218 209.171926 C 483.322427 211.7766 483.490235 215.803994 483.490235 221.25411 L 483.490235 368.655288 C 483.490235 395.94964 473.990837 417.968982 454.984745 434.713312 C 436.037022 451.457642 414.688913 459.833455 390.933122 459.833455 C 372.911991 459.833455 355.700717 455.426668 339.306595 446.620391 C 322.963545 437.872482 314.79202 429.934429 314.79202 422.806233 C 314.79202 413.533011 318.359766 405.332302 325.480666 398.211402 C 330.004189 393.228231 333.506271 389.77722 336.001505 387.865667 C 338.489442 386.012482 341.385956 385.08589 344.691046 385.08589 C 347.996136 385.08589 351.43985 386.501314 355.03678 389.33946 C 366.389363 398.094666 378.734203 402.464972 392.056707 402.464972 C 401.038088 402.464972 408.370573 398.904522 414.046864 391.776326 C 419.78882 384.706497 422.65615 376.19206 422.65615 366.225718 Z M 359.290351 282.701059 C 359.290351 290.40564 362.303601 297.358732 368.330101 303.560336 C 374.414968 309.703572 381.776637 312.767893 390.40781 312.767893 C 399.097351 312.767893 406.283916 309.645204 411.960207 303.385232 C 417.643795 297.066892 420.48194 290.172168 420.48194 282.701059 C 420.48194 275.222655 417.760531 268.240378 412.310415 261.75423 C 406.867596 255.202418 399.505928 251.933808 390.232706 251.933808 C 380.96678 251.933808 373.488376 255.14405 367.812084 261.579126 C 362.135793 267.955834 359.290351 274.989182 359.290351 282.701059 Z M 692.885563 262.797559 C 692.885563 277.396864 689.259448 288.202246 682.021812 295.213707 C 674.776879 302.166799 666.751275 305.646993 657.944997 305.646993 L 573.552114 305.646993 C 573.552114 312.308245 577.462772 317.896985 585.284089 322.420507 C 593.163774 326.936734 601.014274 329.198495 608.835591 329.198495 C 622.62504 329.198495 633.430422 327.746591 641.259035 324.850077 L 645.169693 323.463836 C 650.845985 320.851866 655.595684 319.553178 659.41879 319.553178 C 667.013931 319.553178 673.529263 324.879261 678.979378 335.546019 C 682.050996 341.973799 683.583157 347.453099 683.583157 351.969325 C 683.583157 373.062074 658.317093 383.604801 607.792263 383.604801 C 590.238076 383.604801 574.624626 380.591551 560.944618 374.565051 C 547.330274 368.480183 536.699995 360.461875 529.046487 350.495532 C 514.104269 331.314337 506.625865 309.842196 506.625865 286.086405 C 506.625865 256.187379 516.300367 232.285668 535.656667 214.381273 C 555.00567 196.425806 579.170037 187.444425 608.142471 187.444425 C 641.113115 187.444425 665.29937 199.088848 680.715827 222.377694 C 688.828984 234.722534 692.885563 248.190958 692.885563 262.797559 Z M 617.700237 273.223549 C 626.739986 273.223549 631.263509 269.429627 631.263509 261.841782 C 631.263509 256.391667 629.176852 252.02136 625.003537 248.71627 C 620.888591 245.41118 614.949643 243.762283 607.186694 243.762283 C 599.482114 243.762283 591.828605 246.921453 584.24076 253.232497 C 576.652916 259.492469 572.851697 266.153721 572.851697 273.223549 Z M 617.700237 273.223549 " stroke="#4a610f" stroke-width="17.799999" stroke-opacity="1" stroke-miterlimit="4"/><g fill="#abc270" fill-opacity="1"><g transform="translate(19.389079, 221.354922)"><g><path d="M 63.46875 -100.4375 C 76.175781 -100.4375 86.753906 -95.578125 95.203125 -85.859375 C 103.648438 -76.140625 107.875 -64.289062 107.875 -50.3125 L 107.875 -16.765625 C 107.875 -13.847656 107.773438 -11.65625 107.578125 -10.1875 C 107.390625 -8.726562 106.851562 -7.113281 105.96875 -5.34375 C 104.1875 -1.90625 99.234375 -0.1875 91.109375 -0.1875 C 82.085938 -0.1875 76.875 -2.539062 75.46875 -7.25 C 74.707031 -9.40625 74.328125 -12.644531 74.328125 -16.96875 L 74.328125 -50.5 C 74.328125 -55.71875 72.832031 -59.785156 69.84375 -62.703125 C 66.863281 -65.628906 62.863281 -67.09375 57.84375 -67.09375 C 52.820312 -67.09375 48.753906 -65.566406 45.640625 -62.515625 C 42.535156 -59.460938 40.984375 -55.457031 40.984375 -50.5 L 40.984375 -16.765625 C 40.984375 -13.847656 40.882812 -11.65625 40.6875 -10.1875 C 40.5 -8.726562 39.894531 -7.113281 38.875 -5.34375 C 37.226562 -1.90625 32.335938 -0.1875 24.203125 -0.1875 C 16.203125 -0.1875 11.3125 -1.90625 9.53125 -5.34375 C 8.644531 -7.25 8.101562 -8.929688 7.90625 -10.390625 C 7.71875 -11.847656 7.625 -14.039062 7.625 -16.96875 L 7.625 -84.4375 C 7.625 -87.226562 7.71875 -89.351562 7.90625 -90.8125 C 8.101562 -92.28125 8.707031 -93.898438 9.71875 -95.671875 C 11.5 -98.847656 16.390625 -100.4375 24.390625 -100.4375 C 32.140625 -100.4375 36.90625 -98.976562 38.6875 -96.0625 C 39.957031 -93.894531 40.59375 -91.289062 40.59375 -88.25 C 41.101562 -89.132812 42.25 -90.398438 44.03125 -92.046875 C 45.8125 -93.703125 47.523438 -95.039062 49.171875 -96.0625 C 53.492188 -98.976562 58.257812 -100.4375 63.46875 -100.4375 Z M 63.46875 -100.4375 "/></g></g></g><g fill="#abc270" fill-opacity="1"><g transform="translate(134.89303, 221.354922)"><g><path d="M 71.28125 -12.578125 C 66.457031 -6.222656 58.769531 -3.046875 48.21875 -3.046875 C 37.675781 -3.046875 27.796875 -7.90625 18.578125 -17.625 C 9.367188 -27.34375 4.765625 -38.679688 4.765625 -51.640625 C 4.765625 -64.609375 9.398438 -75.984375 18.671875 -85.765625 C 27.953125 -95.546875 38.117188 -100.4375 49.171875 -100.4375 C 53.492188 -100.4375 57.429688 -99.640625 60.984375 -98.046875 C 64.546875 -96.460938 66.992188 -95.003906 68.328125 -93.671875 C 69.660156 -92.335938 70.707031 -91.097656 71.46875 -89.953125 C 71.851562 -93.515625 73.15625 -96.21875 75.375 -98.0625 C 77.601562 -99.90625 81.191406 -100.828125 86.140625 -100.828125 C 91.097656 -100.828125 94.71875 -100.441406 97 -99.671875 C 99.289062 -98.910156 100.910156 -97.609375 101.859375 -95.765625 C 102.816406 -93.929688 103.390625 -92.3125 103.578125 -90.90625 C 103.773438 -89.507812 103.875 -87.351562 103.875 -84.4375 L 103.875 -5.53125 C 103.875 9.082031 98.789062 20.867188 88.625 29.828125 C 78.457031 38.785156 67.019531 43.265625 54.3125 43.265625 C 44.65625 43.265625 35.441406 40.910156 26.671875 36.203125 C 17.910156 31.503906 13.53125 27.25 13.53125 23.4375 C 13.53125 18.488281 15.4375 14.109375 19.25 10.296875 C 21.664062 7.628906 23.539062 5.785156 24.875 4.765625 C 26.207031 3.742188 27.757812 3.234375 29.53125 3.234375 C 31.3125 3.234375 33.15625 4 35.0625 5.53125 C 41.164062 10.226562 47.773438 12.578125 54.890625 12.578125 C 59.722656 12.578125 63.660156 10.671875 66.703125 6.859375 C 69.753906 3.046875 71.28125 -1.523438 71.28125 -6.859375 Z M 37.359375 -51.546875 C 37.359375 -47.421875 38.976562 -43.707031 42.21875 -40.40625 C 45.457031 -37.101562 49.394531 -35.453125 54.03125 -35.453125 C 58.664062 -35.453125 62.507812 -37.132812 65.5625 -40.5 C 68.613281 -43.863281 70.140625 -47.546875 70.140625 -51.546875 C 70.140625 -55.554688 68.675781 -59.304688 65.75 -62.796875 C 62.832031 -66.296875 58.894531 -68.046875 53.9375 -68.046875 C 48.976562 -68.046875 44.972656 -66.328125 41.921875 -62.890625 C 38.878906 -59.460938 37.359375 -55.679688 37.359375 -51.546875 Z M 37.359375 -51.546875 "/></g></g></g><g fill="#abc270" fill-opacity="1"><g transform="translate(246.394374, 221.354922)"><g><path d="M 104.453125 -62.21875 C 104.453125 -54.40625 102.507812 -48.625 98.625 -44.875 C 94.75 -41.132812 90.460938 -39.265625 85.765625 -39.265625 L 40.59375 -39.265625 C 40.59375 -35.703125 42.6875 -32.710938 46.875 -30.296875 C 51.070312 -27.890625 55.269531 -26.6875 59.46875 -26.6875 C 66.832031 -26.6875 72.613281 -27.445312 76.8125 -28.96875 L 78.90625 -29.734375 C 81.957031 -31.128906 84.5 -31.828125 86.53125 -31.828125 C 90.59375 -31.828125 94.085938 -28.96875 97.015625 -23.25 C 98.660156 -19.820312 99.484375 -16.898438 99.484375 -14.484375 C 99.484375 -3.171875 85.953125 2.484375 58.890625 2.484375 C 49.492188 2.484375 41.140625 0.863281 33.828125 -2.375 C 26.523438 -5.625 20.835938 -9.914062 16.765625 -15.25 C 8.765625 -25.539062 4.765625 -37.039062 4.765625 -49.75 C 4.765625 -65.757812 9.941406 -78.5625 20.296875 -88.15625 C 30.648438 -97.75 43.578125 -102.546875 59.078125 -102.546875 C 76.742188 -102.546875 89.707031 -96.316406 97.96875 -83.859375 C 102.289062 -77.253906 104.453125 -70.039062 104.453125 -62.21875 Z M 64.234375 -56.609375 C 69.054688 -56.609375 71.46875 -58.640625 71.46875 -62.703125 C 71.46875 -65.628906 70.351562 -67.976562 68.125 -69.75 C 65.90625 -71.53125 62.726562 -72.421875 58.59375 -72.421875 C 54.46875 -72.421875 50.375 -70.738281 46.3125 -67.375 C 42.25 -64.007812 40.21875 -60.421875 40.21875 -56.609375 Z M 64.234375 -56.609375 "/></g></g></g></svg>