<svg xmlns="http://www.w3.org/2000/svg" xmlns:xlink="http://www.w3.org/1999/xlink" width="500" zoomAndPan="magnify" viewBox="0 0 375 374.999991" height="500" preserveAspectRatio="xMidYMid meet" version="1.0"><defs><g/></defs><path stroke-linecap="butt" transform="matrix(0.535396, 0, 0, 0.535396, -20.104726, 18.439921)" fill="none" stroke-linejoin="miter" d="M 248.9091 191.355083 C 272.66489 191.355083 292.42247 200.445905 308.189136 218.64214 C 323.948505 236.780007 331.82819 258.916085 331.82819 285.043077 L 331.82819 347.708459 C 331.82819 353.158574 331.653086 357.244337 331.302878 359.965746 C 330.959966 362.687156 329.945821 365.700406 328.260444 369.005496 C 324.96265 375.433276 315.718612 378.650814 300.535627 378.650814 C 283.674561 378.650814 273.941691 374.251323 271.337017 365.445046 C 269.885112 361.446835 269.162808 355.391151 269.162808 347.277995 L 269.162808 284.700164 C 269.162808 274.967294 266.38303 267.372154 260.816179 261.929334 C 255.256624 256.420851 247.778219 253.670257 238.395557 253.670257 C 229.0056 253.670257 221.417755 256.537587 215.624727 262.272247 C 209.824404 267.955834 206.92789 275.426943 206.92789 284.700164 L 206.92789 347.708459 C 206.92789 353.158574 206.730898 357.244337 206.322322 359.965746 C 205.972114 362.687156 204.870417 365.700406 203.017232 369.005496 C 199.887246 375.433276 190.738056 378.650814 175.555071 378.650814 C 160.605558 378.650814 151.478256 375.433276 148.173166 369.005496 C 146.495085 365.466934 145.480941 362.344244 145.138028 359.615538 C 144.78782 356.894128 144.612716 352.779182 144.612716 347.277995 L 144.612716 221.25411 C 144.612716 216.037466 144.78782 212.06844 145.138028 209.34703 C 145.480941 206.618325 146.611821 203.605075 148.523374 200.307281 C 151.828464 194.339149 160.955766 191.355083 175.905279 191.355083 C 190.387848 191.355083 199.281677 194.105677 202.586767 199.606864 C 204.957969 203.605075 206.147218 208.47151 206.147218 214.213465 C 207.132178 212.528088 209.277204 210.156887 212.582294 207.085269 C 215.938456 203.955283 219.155994 201.46005 222.227611 199.606864 C 230.2824 194.105677 239.17623 191.355083 248.9091 191.355083 Z M 479.24396 355.529776 C 470.211507 367.356599 455.838378 373.266362 436.139166 373.266362 C 416.439954 373.266362 397.981063 364.197429 380.777084 346.059562 C 363.56581 327.921695 354.96382 306.74869 354.96382 282.525955 C 354.96382 258.30322 363.624178 237.071847 380.944892 218.817244 C 398.272903 200.504273 417.278994 191.355083 437.963167 191.355083 C 446.017956 191.355083 453.35044 192.85806 459.953324 195.87131 C 466.614577 198.826192 471.196467 201.547602 473.684405 204.042835 C 476.179638 206.530773 478.14956 208.850902 479.594168 210.995927 C 480.287289 204.334675 482.724154 199.293136 486.897469 195.87131 C 491.070783 192.398412 497.76122 190.654667 506.976073 190.654667 C 516.241999 190.654667 523.019987 191.384267 527.310038 192.828876 C 531.600088 194.222413 534.613338 196.651983 536.349787 200.132177 C 538.144604 203.546707 539.217117 206.559957 539.567325 209.171926 C 539.910237 211.7766 540.085341 215.803994 540.085341 221.25411 L 540.085341 368.655288 C 540.085341 395.94964 530.585944 417.968982 511.579852 434.713312 C 492.632128 451.457642 471.276723 459.833455 447.520933 459.833455 C 429.507098 459.833455 412.295823 455.426668 395.894405 446.620391 C 379.558651 437.872482 371.387126 429.934429 371.387126 422.806233 C 371.387126 413.533011 374.947577 405.332302 382.075773 398.211402 C 386.599296 393.228231 390.101378 389.77722 392.596611 387.865667 C 395.084549 386.012482 397.981063 385.08589 401.286153 385.08589 C 404.591243 385.08589 408.034957 386.501314 411.624591 389.33946 C 422.98447 398.094666 435.329309 402.464972 448.651814 402.464972 C 457.633195 402.464972 464.965679 398.904522 470.641971 391.776326 C 476.37663 384.706497 479.24396 376.19206 479.24396 366.225718 Z M 415.885458 282.701059 C 415.885458 290.40564 418.898707 297.358732 424.925207 303.560336 C 431.010075 309.703572 438.371743 312.767893 447.002917 312.767893 C 455.692458 312.767893 462.879022 309.645204 468.555314 303.385232 C 474.238901 297.066892 477.077047 290.172168 477.077047 282.701059 C 477.077047 275.222655 474.348341 268.240378 468.905522 261.75423 C 463.455407 255.202418 456.101034 251.933808 446.827812 251.933808 C 437.554591 251.933808 430.083482 255.14405 424.407191 261.579126 C 418.723603 267.955834 415.885458 274.989182 415.885458 282.701059 Z M 568.605423 222.727903 C 568.605423 217.285083 568.780527 213.199321 569.130735 210.470615 C 569.480943 207.690837 570.495088 204.531667 572.173169 201.000401 C 575.478259 194.857166 584.715001 191.785548 599.897986 191.785548 C 611.308937 191.785548 619.39291 193.784653 624.149905 197.782863 C 628.148115 201.087953 630.285844 206.18786 630.577685 213.082585 C 630.811157 215.453786 630.927893 218.904796 630.927893 223.421023 L 630.927893 348.058667 C 630.927893 353.508782 630.723605 357.587249 630.315028 360.315954 C 629.972116 363.037364 628.870419 366.196534 627.017234 369.786168 C 623.887248 375.929404 614.730763 379.001022 599.547778 379.001022 C 584.598264 379.001022 575.478259 375.783484 572.173169 369.355704 C 570.495088 365.817142 569.480943 362.745524 569.130735 360.14085 C 568.780527 357.528881 568.605423 353.392046 568.605423 347.708459 Z M 627.104786 156.677174 C 625.361041 160.091704 622.231055 162.52857 617.714829 163.973179 C 613.198602 165.425084 607.201286 166.147388 599.722882 166.147388 C 592.251773 166.147388 586.254457 165.425084 581.730935 163.973179 C 577.273076 162.52857 574.14309 160.033336 572.348273 156.50207 C 570.54616 152.963508 569.480943 149.833522 569.130735 147.112112 C 568.780527 144.332335 568.605423 140.217388 568.605423 134.774569 C 568.605423 129.324454 568.780527 125.238691 569.130735 122.517281 C 569.480943 119.795872 570.495088 116.753438 572.173169 113.38998 C 575.478259 107.020568 584.715001 103.832214 599.897986 103.832214 C 614.847499 103.832214 623.887248 107.020568 627.017234 113.38998 C 628.870419 116.979614 629.972116 120.138784 630.315028 122.86749 C 630.723605 125.588899 630.927893 129.674662 630.927893 135.117481 C 630.927893 140.567596 630.723605 144.682543 630.315028 147.462321 C 629.972116 150.18373 628.899604 153.255348 627.104786 156.677174 Z M 627.104786 156.677174 " stroke="#4a610f" stroke-width="17.799999" stroke-opacity="1" stroke-miterlimit="4"/><g fill="#abc270" fill-opacity="1"><g transform="translate(49.689134, 221.354922)"><g><path d="M 63.46875 -100.4375 C 76.175781 -100.4375 86.753906 -95.578125 95.203125 -85.859375 C 103.648438 -76.140625 107.875 -64.289062 107.875 -50.3125 L 107.875 -16.765625 C 107.875 -13.847656 107.773438 -11.65625 107.578125 -10.1875 C 107.390625 -8.726562 106.851562 -7.113281 105.96875 -5.34375 C 104.1875 -1.90625 99.234375 -0.1875 91.109375 -0.1875 C 82.085938 -0.1875 76.875 -2.539062 75.46875 -7.25 C 74.707031 -9.40625 74.328125 -12.644531 74.328125 -16.96875 L 74.328125 -50.5 C 74.328125 -55.71875 72.832031 -59.785156 69.84375 -62.703125 C 66.863281 -65.628906 62.863281 -67.09375 57.84375 -67.09375 C 52.820312 -67.09375 48.753906 -65.566406 45.640625 -62.515625 C 42.535156 -59.460938 40.984375 -55.457031 40.984375 -50.5 L 40.984375 -16.765625 C 40.984375 -13.847656 40.882812 -11.65625 40.6875 -10.1875 C 40.5 -8.726562 39.894531 -7.113281 38.875 -5.34375 C 37.226562 -1.90625 32.335938 -0.1875 24.203125 -0.1875 C 16.203125 -0.1875 11.3125 -1.90625 9.53125 -5.34375 C 8.644531 -7.25 8.101562 -8.929688 7.90625 -10.390625 C 7.71875 -11.847656 7.625 -14.039062 7.625 -16.96875 L 7.625 -84.4375 C 7.625 -87.226562 7.71875 -89.351562 7.90625 -90.8125 C 8.101562 -92.28125 8.707031 -93.898438 9.71875 -95.671875 C 11.5 -98.847656 16.390625 -100.4375 24.390625 -100.4375 C 32.140625 -100.4375 36.90625 -98.976562 38.6875 -96.0625 C 39.957031 -93.894531 40.59375 -91.289062 40.59375 -88.25 C 41.101562 -89.132812 42.25 -90.398438 44.03125 -92.046875 C 45.8125 -93.703125 47.523438 -95.039062 49.171875 -96.0625 C 53.492188 -98.976562 58.257812 -100.4375 63.46875 -100.4375 Z M 63.46875 -100.4375 "/></g></g></g><g fill="#abc270" fill-opacity="1"><g transform="translate(165.193085, 221.354922)"><g><path d="M 71.28125 -12.578125 C 66.457031 -6.222656 58.769531 -3.046875 48.21875 -3.046875 C 37.675781 -3.046875 27.796875 -7.90625 18.578125 -17.625 C 9.367188 -27.34375 4.765625 -38.679688 4.765625 -51.640625 C 4.765625 -64.609375 9.398438 -75.984375 18.671875 -85.765625 C 27.953125 -95.546875 38.117188 -100.4375 49.171875 -100.4375 C 53.492188 -100.4375 57.429688 -99.640625 60.984375 -98.046875 C 64.546875 -96.460938 66.992188 -95.003906 68.328125 -93.671875 C 69.660156 -92.335938 70.707031 -91.097656 71.46875 -89.953125 C 71.851562 -93.515625 73.15625 -96.21875 75.375 -98.0625 C 77.601562 -99.90625 81.191406 -100.828125 86.140625 -100.828125 C 91.097656 -100.828125 94.71875 -100.441406 97 -99.671875 C 99.289062 -98.910156 100.910156 -97.609375 101.859375 -95.765625 C 102.816406 -93.929688 103.390625 -92.3125 103.578125 -90.90625 C 103.773438 -89.507812 103.875 -87.351562 103.875 -84.4375 L 103.875 -5.53125 C 103.875 9.082031 98.789062 20.867188 88.625 29.828125 C 78.457031 38.785156 67.019531 43.265625 54.3125 43.265625 C 44.65625 43.265625 35.441406 40.910156 26.671875 36.203125 C 17.910156 31.503906 13.53125 27.25 13.53125 23.4375 C 13.53125 18.488281 15.4375 14.109375 19.25 10.296875 C 21.664062 7.628906 23.539062 5.785156 24.875 4.765625 C 26.207031 3.742188 27.757812 3.234375 29.53125 3.234375 C 31.3125 3.234375 33.15625 4 35.0625 5.53125 C 41.164062 10.226562 47.773438 12.578125 54.890625 12.578125 C 59.722656 12.578125 63.660156 10.671875 66.703125 6.859375 C 69.753906 3.046875 71.28125 -1.523438 71.28125 -6.859375 Z M 37.359375 -51.546875 C 37.359375 -47.421875 38.976562 -43.707031 42.21875 -40.40625 C 45.457031 -37.101562 49.394531 -35.453125 54.03125 -35.453125 C 58.664062 -35.453125 62.507812 -37.132812 65.5625 -40.5 C 68.613281 -43.863281 70.140625 -47.546875 70.140625 -51.546875 C 70.140625 -55.554688 68.675781 -59.304688 65.75 -62.796875 C 62.832031 -66.296875 58.894531 -68.046875 53.9375 -68.046875 C 48.976562 -68.046875 44.972656 -66.328125 41.921875 -62.890625 C 38.878906 -59.460938 37.359375 -55.679688 37.359375 -51.546875 Z M 37.359375 -51.546875 "/></g></g></g><g fill="#abc270" fill-opacity="1"><g transform="translate(276.694429, 221.354922)"><g><path d="M 7.625 -83.671875 C 7.625 -86.585938 7.71875 -88.773438 7.90625 -90.234375 C 8.101562 -91.703125 8.644531 -93.390625 9.53125 -95.296875 C 11.3125 -98.597656 16.265625 -100.25 24.390625 -100.25 C 30.492188 -100.25 34.816406 -99.171875 37.359375 -97.015625 C 39.515625 -95.234375 40.65625 -92.5 40.78125 -88.8125 C 40.914062 -87.539062 40.984375 -85.703125 40.984375 -83.296875 L 40.984375 -16.578125 C 40.984375 -13.660156 40.882812 -11.46875 40.6875 -10 C 40.5 -8.539062 39.894531 -6.859375 38.875 -4.953125 C 37.226562 -1.648438 32.335938 0 24.203125 0 C 16.203125 0 11.3125 -1.710938 9.53125 -5.140625 C 8.644531 -7.046875 8.101562 -8.695312 7.90625 -10.09375 C 7.71875 -11.5 7.625 -13.722656 7.625 -16.765625 Z M 38.96875 -119.03125 C 38.019531 -117.1875 36.335938 -115.878906 33.921875 -115.109375 C 31.503906 -114.347656 28.296875 -113.96875 24.296875 -113.96875 C 20.296875 -113.96875 17.085938 -114.347656 14.671875 -115.109375 C 12.253906 -115.878906 10.570312 -117.21875 9.625 -119.125 C 8.675781 -121.03125 8.101562 -122.710938 7.90625 -124.171875 C 7.71875 -125.628906 7.625 -127.816406 7.625 -130.734375 C 7.625 -133.660156 7.71875 -135.851562 7.90625 -137.3125 C 8.101562 -138.78125 8.644531 -140.40625 9.53125 -142.1875 C 11.3125 -145.613281 16.265625 -147.328125 24.390625 -147.328125 C 32.398438 -147.328125 37.226562 -145.613281 38.875 -142.1875 C 39.894531 -140.28125 40.5 -138.59375 40.6875 -137.125 C 40.882812 -135.664062 40.984375 -133.472656 40.984375 -130.546875 C 40.984375 -127.628906 40.882812 -125.441406 40.6875 -123.984375 C 40.5 -122.523438 39.925781 -120.875 38.96875 -119.03125 Z M 38.96875 -119.03125 "/></g></g></g></svg>