<svg xmlns="http://www.w3.org/2000/svg" xmlns:xlink="http://www.w3.org/1999/xlink" width="500" zoomAndPan="magnify" viewBox="0 0 375 374.999991" height="500" preserveAspectRatio="xMidYMid meet" version="1.0"><defs><g/></defs><path stroke-linecap="butt" transform="matrix(0.535396, 0, 0, 0.535396, -20.104726, 18.439921)" fill="none" stroke-linejoin="miter" d="M 187.505926 191.355083 C 211.261717 191.355083 231.019297 200.445905 246.778666 218.64214 C 262.538036 236.780007 270.417721 258.916085 270.417721 285.043077 L 270.417721 347.708459 C 270.417721 353.158574 270.242617 357.244337 269.899704 359.965746 C 269.549496 362.687156 268.535352 365.700406 266.857271 369.005496 C 263.552181 375.433276 254.315439 378.650814 239.132454 378.650814 C 222.271387 378.650814 212.538518 374.251323 209.926548 365.445046 C 208.481939 361.446835 207.752339 355.391151 207.752339 347.277995 L 207.752339 284.700164 C 207.752339 274.967294 204.972561 267.372154 199.413005 261.929334 C 193.846154 256.420851 186.375046 253.670257 176.985088 253.670257 C 167.602426 253.670257 160.007285 256.537587 154.214258 262.272247 C 148.42123 267.955834 145.524717 275.426943 145.524717 284.700164 L 145.524717 347.708459 C 145.524717 353.158574 145.320429 357.244337 144.919148 359.965746 C 144.56894 362.687156 143.467243 365.700406 141.614058 369.005496 C 138.484072 375.433276 129.327587 378.650814 114.151897 378.650814 C 99.202384 378.650814 90.075083 375.433276 86.769993 369.005496 C 85.091912 365.466934 84.077767 362.344244 83.727559 359.615538 C 83.377351 356.894128 83.209543 352.779182 83.209543 347.277995 L 83.209543 221.25411 C 83.209543 216.037466 83.377351 212.06844 83.727559 209.34703 C 84.077767 206.618325 85.208648 203.605075 87.120201 200.307281 C 90.417995 194.339149 99.545297 191.355083 114.49481 191.355083 C 128.984675 191.355083 137.878504 194.105677 141.176298 199.606864 C 143.554795 203.605075 144.744044 208.47151 144.744044 214.213465 C 145.729005 212.528088 147.87403 210.156887 151.171824 207.085269 C 154.535282 203.955283 157.75282 201.46005 160.824438 199.606864 C 168.871931 194.105677 177.773056 191.355083 187.505926 191.355083 Z M 417.840787 355.529776 C 408.801037 367.356599 394.435204 373.266362 374.728696 373.266362 C 355.029484 373.266362 336.577889 364.197429 319.366615 346.059562 C 302.15534 327.921695 293.553351 306.74869 293.553351 282.525955 C 293.553351 258.30322 302.213708 237.071847 319.541719 218.817244 C 336.869729 200.504273 355.868525 191.355083 376.559994 191.355083 C 384.607486 191.355083 391.939971 192.85806 398.542855 195.87131 C 405.211403 198.826192 409.785998 201.547602 412.281231 204.042835 C 414.769169 206.530773 416.73909 208.850902 418.190995 210.995927 C 418.884115 204.334675 421.320981 199.293136 425.486999 195.87131 C 429.660314 192.398412 436.35075 190.654667 445.565604 190.654667 C 454.838825 190.654667 461.616813 191.384267 465.906864 192.828876 C 470.189619 194.222413 473.202869 196.651983 474.946614 200.132177 C 476.741431 203.546707 477.813943 206.559957 478.156856 209.171926 C 478.507064 211.7766 478.682168 215.803994 478.682168 221.25411 L 478.682168 368.655288 C 478.682168 395.94964 469.175474 417.968982 450.176678 434.713312 C 431.228955 451.457642 409.87355 459.833455 386.117759 459.833455 C 368.096628 459.833455 350.885354 455.426668 334.491232 446.620391 C 318.148182 437.872482 309.983953 429.934429 309.983953 422.806233 C 309.983953 413.533011 313.544403 405.332302 320.672599 398.211402 C 325.188826 393.228231 328.698204 389.77722 331.186142 387.865667 C 333.681375 386.012482 336.577889 385.08589 339.875683 385.08589 C 343.180773 385.08589 346.631783 386.501314 350.221417 389.33946 C 361.581296 398.094666 373.91884 402.464972 387.24864 402.464972 C 396.230022 402.464972 403.55521 398.904522 409.238798 391.776326 C 414.973457 384.706497 417.840787 376.19206 417.840787 366.225718 Z M 354.482284 282.701059 C 354.482284 290.40564 357.495534 297.358732 363.522034 303.560336 C 369.606901 309.703572 376.961274 312.767893 385.592447 312.767893 C 394.289284 312.767893 401.475849 309.645204 407.15214 303.385232 C 412.828432 297.066892 415.666577 290.172168 415.666577 282.701059 C 415.666577 275.222655 412.945168 268.240378 407.495052 261.75423 C 402.052233 255.202418 394.690565 251.933808 385.424639 251.933808 C 376.151417 251.933808 368.680309 255.14405 362.996721 261.579126 C 357.32043 267.955834 354.482284 274.989182 354.482284 282.701059 Z M 501.810502 285.393285 C 501.810502 256.887795 511.776844 233.387365 531.709528 214.906586 C 551.70058 196.367438 574.500594 187.094217 600.116866 187.094217 C 625.725842 187.094217 648.379935 196.30907 668.079147 214.731482 C 687.778359 233.102821 697.627965 256.537587 697.627965 285.043077 C 697.627965 304.749585 692.535354 322.245403 682.33554 337.545125 C 672.135726 352.83755 659.739814 364.109877 645.133213 371.354809 C 630.533909 378.592446 615.380107 382.21856 599.679106 382.21856 C 584.036472 382.21856 568.853487 378.366269 554.137446 370.654393 C 539.479773 362.949812 527.076565 351.560749 516.935119 336.501796 C 506.852041 321.377179 501.810502 304.341008 501.810502 285.393285 Z M 576.215155 310.85634 C 583.861368 316.656664 591.595133 319.553178 599.41645 319.553178 C 607.237766 319.553178 615.059083 316.598296 622.887696 310.688532 C 630.709013 304.720401 634.619671 295.936011 634.619671 284.349956 C 634.619671 272.705533 630.942485 264.045176 623.580816 258.361588 C 616.219148 252.626929 608.251911 249.759599 599.679106 249.759599 C 591.164668 249.759599 583.226616 252.743665 575.864947 258.711796 C 568.503279 264.62156 564.826092 273.340285 564.826092 284.875268 C 564.826092 296.344587 568.620015 305.004945 576.215155 310.85634 Z M 576.215155 310.85634 " stroke="#4a610f" stroke-width="17.799999" stroke-opacity="1" stroke-miterlimit="4"/><g fill="#abc270" fill-opacity="1"><g transform="translate(16.812487, 221.354922)"><g><path d="M 63.46875 -100.4375 C 76.175781 -100.4375 86.753906 -95.578125 95.203125 -85.859375 C 103.648438 -76.140625 107.875 -64.289062 107.875 -50.3125 L 107.875 -16.765625 C 107.875 -13.847656 107.773438 -11.65625 107.578125 -10.1875 C 107.390625 -8.726562 106.851562 -7.113281 105.96875 -5.34375 C 104.1875 -1.90625 99.234375 -0.1875 91.109375 -0.1875 C 82.085938 -0.1875 76.875 -2.539062 75.46875 -7.25 C 74.707031 -9.40625 74.328125 -12.644531 74.328125 -16.96875 L 74.328125 -50.5 C 74.328125 -55.71875 72.832031 -59.785156 69.84375 -62.703125 C 66.863281 -65.628906 62.863281 -67.09375 57.84375 -67.09375 C 52.820312 -67.09375 48.753906 -65.566406 45.640625 -62.515625 C 42.535156 -59.460938 40.984375 -55.457031 40.984375 -50.5 L 40.984375 -16.765625 C 40.984375 -13.847656 40.882812 -11.65625 40.6875 -10.1875 C 40.5 -8.726562 39.894531 -7.113281 38.875 -5.34375 C 37.226562 -1.90625 32.335938 -0.1875 24.203125 -0.1875 C 16.203125 -0.1875 11.3125 -1.90625 9.53125 -5.34375 C 8.644531 -7.25 8.101562 -8.929688 7.90625 -10.390625 C 7.71875 -11.847656 7.625 -14.039062 7.625 -16.96875 L 7.625 -84.4375 C 7.625 -87.226562 7.71875 -89.351562 7.90625 -90.8125 C 8.101562 -92.28125 8.707031 -93.898438 9.71875 -95.671875 C 11.5 -98.847656 16.390625 -100.4375 24.390625 -100.4375 C 32.140625 -100.4375 36.90625 -98.976562 38.6875 -96.0625 C 39.957031 -93.894531 40.59375 -91.289062 40.59375 -88.25 C 41.101562 -89.132812 42.25 -90.398438 44.03125 -92.046875 C 45.8125 -93.703125 47.523438 -95.039062 49.171875 -96.0625 C 53.492188 -98.976562 58.257812 -100.4375 63.46875 -100.4375 Z M 63.46875 -100.4375 "/></g></g></g><g fill="#abc270" fill-opacity="1"><g transform="translate(132.316438, 221.354922)"><g><path d="M 71.28125 -12.578125 C 66.457031 -6.222656 58.769531 -3.046875 48.21875 -3.046875 C 37.675781 -3.046875 27.796875 -7.90625 18.578125 -17.625 C 9.367188 -27.34375 4.765625 -38.679688 4.765625 -51.640625 C 4.765625 -64.609375 9.398438 -75.984375 18.671875 -85.765625 C 27.953125 -95.546875 38.117188 -100.4375 49.171875 -100.4375 C 53.492188 -100.4375 57.429688 -99.640625 60.984375 -98.046875 C 64.546875 -96.460938 66.992188 -95.003906 68.328125 -93.671875 C 69.660156 -92.335938 70.707031 -91.097656 71.46875 -89.953125 C 71.851562 -93.515625 73.15625 -96.21875 75.375 -98.0625 C 77.601562 -99.90625 81.191406 -100.828125 86.140625 -100.828125 C 91.097656 -100.828125 94.71875 -100.441406 97 -99.671875 C 99.289062 -98.910156 100.910156 -97.609375 101.859375 -95.765625 C 102.816406 -93.929688 103.390625 -92.3125 103.578125 -90.90625 C 103.773438 -89.507812 103.875 -87.351562 103.875 -84.4375 L 103.875 -5.53125 C 103.875 9.082031 98.789062 20.867188 88.625 29.828125 C 78.457031 38.785156 67.019531 43.265625 54.3125 43.265625 C 44.65625 43.265625 35.441406 40.910156 26.671875 36.203125 C 17.910156 31.503906 13.53125 27.25 13.53125 23.4375 C 13.53125 18.488281 15.4375 14.109375 19.25 10.296875 C 21.664062 7.628906 23.539062 5.785156 24.875 4.765625 C 26.207031 3.742188 27.757812 3.234375 29.53125 3.234375 C 31.3125 3.234375 33.15625 4 35.0625 5.53125 C 41.164062 10.226562 47.773438 12.578125 54.890625 12.578125 C 59.722656 12.578125 63.660156 10.671875 66.703125 6.859375 C 69.753906 3.046875 71.28125 -1.523438 71.28125 -6.859375 Z M 37.359375 -51.546875 C 37.359375 -47.421875 38.976562 -43.707031 42.21875 -40.40625 C 45.457031 -37.101562 49.394531 -35.453125 54.03125 -35.453125 C 58.664062 -35.453125 62.507812 -37.132812 65.5625 -40.5 C 68.613281 -43.863281 70.140625 -47.546875 70.140625 -51.546875 C 70.140625 -55.554688 68.675781 -59.304688 65.75 -62.796875 C 62.832031 -66.296875 58.894531 -68.046875 53.9375 -68.046875 C 48.976562 -68.046875 44.972656 -66.328125 41.921875 -62.890625 C 38.878906 -59.460938 37.359375 -55.679688 37.359375 -51.546875 Z M 37.359375 -51.546875 "/></g></g></g><g fill="#abc270" fill-opacity="1"><g transform="translate(243.817781, 221.354922)"><g><path d="M 4.765625 -50.125 C 4.765625 -65.375 10.097656 -77.953125 20.765625 -87.859375 C 31.441406 -97.773438 43.640625 -102.734375 57.359375 -102.734375 C 71.085938 -102.734375 83.222656 -97.804688 93.765625 -87.953125 C 104.316406 -78.109375 109.59375 -65.5625 109.59375 -50.3125 C 109.59375 -39.769531 106.859375 -30.398438 101.390625 -22.203125 C 95.929688 -14.003906 89.289062 -7.96875 81.46875 -4.09375 C 73.65625 -0.21875 65.554688 1.71875 57.171875 1.71875 C 48.785156 1.71875 40.65625 -0.34375 32.78125 -4.46875 C 24.90625 -8.601562 18.265625 -14.703125 12.859375 -22.765625 C 7.460938 -30.835938 4.765625 -39.957031 4.765625 -50.125 Z M 44.59375 -36.5 C 48.664062 -33.382812 52.796875 -31.828125 56.984375 -31.828125 C 61.179688 -31.828125 65.375 -33.414062 69.5625 -36.59375 C 73.757812 -39.769531 75.859375 -44.46875 75.859375 -50.6875 C 75.859375 -56.914062 73.890625 -61.554688 69.953125 -64.609375 C 66.015625 -67.660156 61.753906 -69.1875 57.171875 -69.1875 C 52.597656 -69.1875 48.34375 -67.597656 44.40625 -64.421875 C 40.46875 -61.242188 38.5 -56.570312 38.5 -50.40625 C 38.5 -44.25 40.53125 -39.613281 44.59375 -36.5 Z M 44.59375 -36.5 "/></g></g></g></svg>