<svg xmlns="http://www.w3.org/2000/svg" xmlns:xlink="http://www.w3.org/1999/xlink" width="500" zoomAndPan="magnify" viewBox="0 0 375 374.999991" height="500" preserveAspectRatio="xMidYMid meet" version="1.0"><defs><g/></defs><path stroke-linecap="butt" transform="matrix(0.535396, 0, 0, 0.535396, -20.104726, 18.439804)" fill="none" stroke-linejoin="miter" d="M 186.44071 191.355302 C 210.1965 191.355302 229.95408 200.446124 245.71345 218.642359 C 261.480115 236.780226 269.3598 258.916303 269.3598 285.043295 L 269.3598 347.708678 C 269.3598 353.158793 269.184696 357.244555 268.834488 359.965965 C 268.491576 362.687375 267.477431 365.700625 265.792054 369.005715 C 262.49426 375.433494 253.250222 378.651032 238.067237 378.651032 C 221.206171 378.651032 211.473301 374.251542 208.868627 365.437968 C 207.416722 361.439758 206.694418 355.39137 206.694418 347.278213 L 206.694418 284.700383 C 206.694418 274.967513 203.91464 267.372373 198.347789 261.929553 C 192.788233 256.42107 185.309829 253.670476 175.927167 253.670476 C 166.537209 253.670476 158.949365 256.537806 153.156337 262.272465 C 147.356014 267.956053 144.4595 275.427161 144.4595 284.700383 L 144.4595 347.708678 C 144.4595 353.158793 144.262508 357.244555 143.853932 359.965965 C 143.503723 362.687375 142.402027 365.700625 140.548842 369.005715 C 137.418856 375.433494 128.269666 378.651032 113.086681 378.651032 C 98.137168 378.651032 89.009866 375.433494 85.704776 369.005715 C 84.026695 365.467152 83.01255 362.344462 82.669638 359.615757 C 82.31943 356.894347 82.144326 352.779401 82.144326 347.278213 L 82.144326 221.254328 C 82.144326 216.037685 82.31943 212.068659 82.669638 209.347249 C 83.01255 206.618543 84.143431 203.605294 86.054984 200.3075 C 89.360074 194.339368 98.487376 191.355302 113.436889 191.355302 C 127.919458 191.355302 136.813287 194.105896 140.118377 199.607083 C 142.489579 203.605294 143.678827 208.471729 143.678827 214.213684 C 144.663788 212.528307 146.808813 210.157106 150.113903 207.085488 C 153.470065 203.955502 156.687603 201.460268 159.759221 199.607083 C 167.81401 194.105896 176.70784 191.355302 186.44071 191.355302 Z M 416.77557 355.529994 C 407.743117 367.356818 393.369988 373.266581 373.670776 373.266581 C 353.971564 373.266581 335.512673 364.197648 318.301398 346.059781 C 301.09742 327.921913 292.488134 306.748909 292.488134 282.526174 C 292.488134 258.303439 301.155788 237.072066 318.476502 218.817463 C 335.804513 200.504492 354.810604 191.355302 375.494777 191.355302 C 383.549566 191.355302 390.874754 192.858279 397.484934 195.871529 C 404.146186 198.826411 408.728077 201.54782 411.216015 204.043054 C 413.711248 206.530991 415.681169 208.851121 417.125778 210.996146 C 417.818899 204.334894 420.255764 199.293355 424.429079 195.871529 C 428.602393 192.398631 435.292829 190.654886 444.507683 190.654886 C 453.773609 190.654886 460.551597 191.384486 464.841647 192.829095 C 469.131698 194.222632 472.144948 196.652201 473.881397 200.132396 C 475.676214 203.546926 476.748727 206.560175 477.098935 209.172145 C 477.441847 211.776819 477.616951 215.804213 477.616951 221.254328 L 477.616951 368.655506 C 477.616951 395.949859 468.117553 417.9692 449.111462 434.713531 C 430.163738 451.457861 408.808333 459.833674 385.052543 459.833674 C 367.031412 459.833674 349.827433 455.426887 333.426015 446.62061 C 317.090261 437.872701 308.918736 429.934648 308.918736 422.806451 C 308.918736 413.53323 312.479186 405.332521 319.607383 398.21162 C 324.130906 393.228449 327.632988 389.777439 330.128221 387.865886 C 332.616159 386.012701 335.512673 385.086108 338.817763 385.086108 C 342.122853 385.086108 345.566567 386.501533 349.156201 389.339679 C 360.51608 398.094884 372.860919 402.465191 386.183423 402.465191 C 395.164805 402.465191 402.497289 398.904741 408.173581 391.776544 C 413.90824 384.706716 416.77557 376.192279 416.77557 366.225937 Z M 353.417067 282.701278 C 353.417067 290.405859 356.430317 297.358951 362.456817 303.560555 C 368.541685 309.70379 375.903353 312.768112 384.534526 312.768112 C 393.224068 312.768112 400.410632 309.645422 406.086924 303.38545 C 411.763215 297.067111 414.608657 290.172386 414.608657 282.701278 C 414.608657 275.222873 411.879951 268.240597 406.437132 261.754449 C 400.987016 255.202637 393.632644 251.934027 384.359422 251.934027 C 375.086201 251.934027 367.615092 255.144269 361.938801 261.579345 C 356.255213 267.956053 353.417067 274.989401 353.417067 282.701278 Z M 589.406331 378.30812 C 565.475437 378.30812 545.601121 369.239187 529.783383 351.10132 C 514.016717 332.905084 506.137033 310.769007 506.137033 284.700383 L 506.137033 222.377913 C 506.137033 216.643254 506.312137 212.469939 506.662345 209.865265 C 507.012553 207.260592 508.019402 204.188974 509.704779 200.650412 C 513.002573 194.222632 522.24661 191.005094 537.429596 191.005094 C 554.05719 191.005094 563.79006 195.521321 566.635502 204.56107 C 568.08011 208.333105 568.802415 214.381492 568.802415 222.728121 L 568.802415 285.043295 C 568.802415 294.783461 571.589489 302.371306 577.149044 307.814125 C 582.708599 313.264241 590.187004 315.98565 599.569666 315.98565 C 608.959623 315.98565 616.547468 313.147504 622.340496 307.471213 C 628.199187 301.736553 631.124885 294.258149 631.124885 285.043295 L 631.124885 222.035001 C 631.124885 216.526518 631.292693 212.411571 631.642901 209.690161 C 631.993109 206.968752 633.12399 203.838766 635.035543 200.3075 C 638.107161 194.105896 647.227167 191.005094 662.410152 191.005094 C 677.359665 191.005094 686.486967 194.222632 689.792057 200.650412 C 691.470138 204.188974 692.484282 207.348144 692.834491 210.127922 C 693.177403 212.849331 693.352507 216.935094 693.352507 222.377913 L 693.352507 348.409094 C 693.352507 353.618441 693.177403 357.587468 692.834491 360.316173 C 692.484282 363.037583 691.353402 366.050833 689.441848 369.355923 C 685.910582 375.550231 676.783281 378.651032 662.06724 378.651032 C 647.577375 378.651032 638.683545 375.812887 635.378455 370.136595 C 633.007254 366.080017 631.818005 361.213582 631.818005 355.529994 C 630.833045 357.157003 628.688019 359.528205 625.382929 362.658191 C 622.085135 365.729809 618.867597 368.341778 615.737611 370.479507 C 607.682823 375.696151 598.905729 378.30812 589.406331 378.30812 Z M 589.406331 378.30812 " stroke="#4a610f" stroke-width="17.799999" stroke-opacity="1" stroke-miterlimit="4"/><g fill="#abc270" fill-opacity="1"><g transform="translate(16.243629, 221.354805)"><g><path d="M 63.46875 -100.4375 C 76.175781 -100.4375 86.753906 -95.578125 95.203125 -85.859375 C 103.648438 -76.140625 107.875 -64.289062 107.875 -50.3125 L 107.875 -16.765625 C 107.875 -13.847656 107.773438 -11.65625 107.578125 -10.1875 C 107.390625 -8.726562 106.851562 -7.113281 105.96875 -5.34375 C 104.1875 -1.90625 99.234375 -0.1875 91.109375 -0.1875 C 82.085938 -0.1875 76.875 -2.539062 75.46875 -7.25 C 74.707031 -9.40625 74.328125 -12.644531 74.328125 -16.96875 L 74.328125 -50.5 C 74.328125 -55.71875 72.832031 -59.785156 69.84375 -62.703125 C 66.863281 -65.628906 62.863281 -67.09375 57.84375 -67.09375 C 52.820312 -67.09375 48.753906 -65.566406 45.640625 -62.515625 C 42.535156 -59.460938 40.984375 -55.457031 40.984375 -50.5 L 40.984375 -16.765625 C 40.984375 -13.847656 40.882812 -11.65625 40.6875 -10.1875 C 40.5 -8.726562 39.894531 -7.113281 38.875 -5.34375 C 37.226562 -1.90625 32.335938 -0.1875 24.203125 -0.1875 C 16.203125 -0.1875 11.3125 -1.90625 9.53125 -5.34375 C 8.644531 -7.25 8.101562 -8.929688 7.90625 -10.390625 C 7.71875 -11.847656 7.625 -14.039062 7.625 -16.96875 L 7.625 -84.4375 C 7.625 -87.226562 7.71875 -89.351562 7.90625 -90.8125 C 8.101562 -92.28125 8.707031 -93.898438 9.71875 -95.671875 C 11.5 -98.847656 16.390625 -100.4375 24.390625 -100.4375 C 32.140625 -100.4375 36.90625 -98.976562 38.6875 -96.0625 C 39.957031 -93.894531 40.59375 -91.289062 40.59375 -88.25 C 41.101562 -89.132812 42.25 -90.398438 44.03125 -92.046875 C 45.8125 -93.703125 47.523438 -95.039062 49.171875 -96.0625 C 53.492188 -98.976562 58.257812 -100.4375 63.46875 -100.4375 Z M 63.46875 -100.4375 "/></g></g></g><g fill="#abc270" fill-opacity="1"><g transform="translate(131.74758, 221.354805)"><g><path d="M 71.28125 -12.578125 C 66.457031 -6.222656 58.769531 -3.046875 48.21875 -3.046875 C 37.675781 -3.046875 27.796875 -7.90625 18.578125 -17.625 C 9.367188 -27.34375 4.765625 -38.679688 4.765625 -51.640625 C 4.765625 -64.609375 9.398438 -75.984375 18.671875 -85.765625 C 27.953125 -95.546875 38.117188 -100.4375 49.171875 -100.4375 C 53.492188 -100.4375 57.429688 -99.640625 60.984375 -98.046875 C 64.546875 -96.460938 66.992188 -95.003906 68.328125 -93.671875 C 69.660156 -92.335938 70.707031 -91.097656 71.46875 -89.953125 C 71.851562 -93.515625 73.15625 -96.21875 75.375 -98.0625 C 77.601562 -99.90625 81.191406 -100.828125 86.140625 -100.828125 C 91.097656 -100.828125 94.71875 -100.441406 97 -99.671875 C 99.289062 -98.910156 100.910156 -97.609375 101.859375 -95.765625 C 102.816406 -93.929688 103.390625 -92.3125 103.578125 -90.90625 C 103.773438 -89.507812 103.875 -87.351562 103.875 -84.4375 L 103.875 -5.53125 C 103.875 9.082031 98.789062 20.867188 88.625 29.828125 C 78.457031 38.785156 67.019531 43.265625 54.3125 43.265625 C 44.65625 43.265625 35.441406 40.910156 26.671875 36.203125 C 17.910156 31.503906 13.53125 27.25 13.53125 23.4375 C 13.53125 18.488281 15.4375 14.109375 19.25 10.296875 C 21.664062 7.628906 23.539062 5.785156 24.875 4.765625 C 26.207031 3.742188 27.757812 3.234375 29.53125 3.234375 C 31.3125 3.234375 33.15625 4 35.0625 5.53125 C 41.164062 10.226562 47.773438 12.578125 54.890625 12.578125 C 59.722656 12.578125 63.660156 10.671875 66.703125 6.859375 C 69.753906 3.046875 71.28125 -1.523438 71.28125 -6.859375 Z M 37.359375 -51.546875 C 37.359375 -47.421875 38.976562 -43.707031 42.21875 -40.40625 C 45.457031 -37.101562 49.394531 -35.453125 54.03125 -35.453125 C 58.664062 -35.453125 62.507812 -37.132812 65.5625 -40.5 C 68.613281 -43.863281 70.140625 -47.546875 70.140625 -51.546875 C 70.140625 -55.554688 68.675781 -59.304688 65.75 -62.796875 C 62.832031 -66.296875 58.894531 -68.046875 53.9375 -68.046875 C 48.976562 -68.046875 44.972656 -66.328125 41.921875 -62.890625 C 38.878906 -59.460938 37.359375 -55.679688 37.359375 -51.546875 Z M 37.359375 -51.546875 "/></g></g></g><g fill="#abc270" fill-opacity="1"><g transform="translate(243.248923, 221.354805)"><g><path d="M 52.21875 -0.375 C 39.382812 -0.375 28.742188 -5.234375 20.296875 -14.953125 C 11.847656 -24.679688 7.625 -36.53125 7.625 -50.5 L 7.625 -83.859375 C 7.625 -86.910156 7.71875 -89.132812 7.90625 -90.53125 C 8.101562 -91.925781 8.644531 -93.578125 9.53125 -95.484375 C 11.3125 -98.921875 16.265625 -100.640625 24.390625 -100.640625 C 33.285156 -100.640625 38.5 -98.222656 40.03125 -93.390625 C 40.789062 -91.359375 41.171875 -88.117188 41.171875 -83.671875 L 41.171875 -50.3125 C 41.171875 -45.101562 42.660156 -41.035156 45.640625 -38.109375 C 48.628906 -35.191406 52.632812 -33.734375 57.65625 -33.734375 C 62.675781 -33.734375 66.738281 -35.257812 69.84375 -38.3125 C 72.957031 -41.363281 74.515625 -45.363281 74.515625 -50.3125 L 74.515625 -84.046875 C 74.515625 -86.972656 74.609375 -89.164062 74.796875 -90.625 C 74.992188 -92.082031 75.601562 -93.765625 76.625 -95.671875 C 78.269531 -98.984375 83.160156 -100.640625 91.296875 -100.640625 C 99.296875 -100.640625 104.1875 -98.921875 105.96875 -95.484375 C 106.851562 -93.578125 107.390625 -91.894531 107.578125 -90.4375 C 107.773438 -88.976562 107.875 -86.785156 107.875 -83.859375 L 107.875 -16.390625 C 107.875 -13.597656 107.773438 -11.46875 107.578125 -10 C 107.390625 -8.539062 106.789062 -6.921875 105.78125 -5.140625 C 103.875 -1.835938 98.984375 -0.1875 91.109375 -0.1875 C 83.359375 -0.1875 78.59375 -1.710938 76.8125 -4.765625 C 75.539062 -6.921875 74.90625 -9.523438 74.90625 -12.578125 C 74.394531 -11.691406 73.25 -10.421875 71.46875 -8.765625 C 69.6875 -7.117188 67.972656 -5.722656 66.328125 -4.578125 C 62.003906 -1.773438 57.300781 -0.375 52.21875 -0.375 Z M 52.21875 -0.375 "/></g></g></g></svg>