<svg xmlns="http://www.w3.org/2000/svg" xmlns:xlink="http://www.w3.org/1999/xlink" width="500" zoomAndPan="magnify" viewBox="0 0 375 374.999991" height="500" preserveAspectRatio="xMidYMid meet" version="1.0"><defs><g/></defs><path stroke-linecap="butt" transform="matrix(0.75, 0, 0, 0.75, -22.747857, -9.30082)" fill="none" stroke-linejoin="miter" d="M 230.455491 191.354231 C 254.215909 191.354231 273.971119 200.447981 289.731536 218.645899 C 305.491954 236.781317 313.372163 258.911527 313.372163 285.046945 L 313.372163 347.708407 C 313.372163 353.156324 313.200288 357.244866 312.851329 359.963617 C 312.502371 362.687575 311.491954 365.7032 309.809663 369.005284 C 306.507579 375.437576 297.262787 378.651118 282.085702 378.651118 C 265.221118 378.651118 255.486742 374.250076 252.882575 365.442784 C 251.434659 361.442783 250.705492 355.3907 250.705492 347.276116 L 250.705492 284.697987 C 250.705492 274.963611 247.924242 267.375069 242.361741 261.927152 C 236.799241 256.421943 229.325282 253.671943 219.939865 253.671943 C 210.554448 253.671943 202.960697 256.536526 197.16903 262.27611 C 191.372155 267.953194 188.476321 275.427153 188.476321 284.697987 L 188.476321 347.708407 C 188.476321 353.156324 188.273196 357.244866 187.866946 359.963617 C 187.523196 362.687575 186.419029 365.7032 184.564863 369.005284 C 181.439862 375.437576 172.283612 378.651118 157.101319 378.651118 C 142.153402 378.651118 133.028401 375.437576 129.721109 369.005284 C 128.044026 365.468825 127.028401 362.343825 126.679442 359.619867 C 126.335692 356.895908 126.158609 352.781324 126.158609 347.276116 L 126.158609 221.250066 C 126.158609 216.036524 126.335692 212.067774 126.679442 209.343815 C 127.028401 206.619857 128.158609 203.60944 130.070067 200.302148 C 133.372151 194.338606 142.50236 191.354231 157.450278 191.354231 C 171.934653 191.354231 180.830487 194.104231 184.132571 199.609439 C 186.507571 203.60944 187.695071 208.474023 187.695071 214.208399 C 188.679446 212.531315 190.82528 210.156315 194.127363 207.083398 C 197.486738 203.95319 200.705489 201.463606 203.773197 199.609439 C 211.830489 194.104231 220.721115 191.354231 230.455491 191.354231 Z M 341.898206 222.729233 C 341.898206 217.281316 342.070081 213.197982 342.41904 210.474023 C 342.76279 207.692773 343.778415 204.536523 345.460707 201.000064 C 348.76279 194.859439 358.002374 191.786522 373.184667 191.786522 C 384.601334 191.786522 392.684668 193.786522 397.434668 197.786523 C 401.42946 201.088606 403.575294 206.187565 403.86696 213.083399 C 404.096127 215.458399 404.21071 218.906316 404.21071 223.421941 L 404.21071 348.057366 C 404.21071 353.505283 404.012794 357.588616 403.606544 360.312575 C 403.257585 363.036533 402.158627 366.192784 400.30446 369.786534 C 397.174252 375.927159 388.018001 379.000076 372.835708 379.000076 C 357.887791 379.000076 348.76279 375.786534 345.460707 369.354242 C 343.778415 365.817784 342.76279 362.744867 342.41904 360.1407 C 342.070081 357.531325 341.898206 353.390699 341.898206 347.708407 Z M 400.387793 156.671937 C 398.64821 160.093812 395.52321 162.526104 391.002376 163.97402 C 386.481543 165.421937 380.486751 166.145896 373.012792 166.145896 C 365.538833 166.145896 359.538832 165.421937 355.017999 163.97402 C 350.559665 162.526104 347.429457 160.03652 345.632582 156.500062 C 343.835706 152.963603 342.76279 149.838603 342.41904 147.114644 C 342.070081 144.333394 341.898206 140.21881 341.898206 134.770893 C 341.898206 129.322976 342.070081 125.239643 342.41904 122.515684 C 342.76279 119.791726 343.778415 116.750059 345.460707 113.390684 C 348.76279 107.015683 358.002374 103.828183 373.184667 103.828183 C 388.132584 103.828183 397.174252 107.015683 400.30446 113.390684 C 402.158627 116.984434 403.257585 120.140684 403.606544 122.864643 C 404.012794 125.588601 404.21071 129.671935 404.21071 135.119852 C 404.21071 140.567769 404.012794 144.677144 403.606544 147.458394 C 403.257585 150.182353 402.184669 153.25527 400.387793 156.671937 Z M 400.387793 156.671937 " stroke="#760047" stroke-width="17.799999" stroke-opacity="1" stroke-miterlimit="4"/><g fill="#ec5bb2" fill-opacity="1"><g transform="translate(61.181825, 274.949162)"><g><path d="M 88.90625 -140.703125 C 106.707031 -140.703125 121.523438 -133.894531 133.359375 -120.28125 C 145.203125 -106.664062 151.125 -90.066406 151.125 -70.484375 L 151.125 -23.5 C 151.125 -19.40625 150.988281 -16.332031 150.71875 -14.28125 C 150.457031 -12.238281 149.703125 -9.96875 148.453125 -7.46875 C 145.960938 -2.664062 139.019531 -0.265625 127.625 -0.265625 C 114.988281 -0.265625 107.691406 -3.554688 105.734375 -10.140625 C 104.660156 -13.171875 104.125 -17.710938 104.125 -23.765625 L 104.125 -70.75 C 104.125 -78.050781 102.03125 -83.75 97.84375 -87.84375 C 93.664062 -91.9375 88.0625 -93.984375 81.03125 -93.984375 C 74 -93.984375 68.300781 -91.847656 63.9375 -87.578125 C 59.582031 -83.304688 57.40625 -77.695312 57.40625 -70.75 L 57.40625 -23.5 C 57.40625 -19.40625 57.269531 -16.332031 57 -14.28125 C 56.738281 -12.238281 55.894531 -9.96875 54.46875 -7.46875 C 52.15625 -2.664062 45.300781 -0.265625 33.90625 -0.265625 C 22.695312 -0.265625 15.84375 -2.664062 13.34375 -7.46875 C 12.101562 -10.144531 11.347656 -12.503906 11.078125 -14.546875 C 10.816406 -16.597656 10.6875 -19.671875 10.6875 -23.765625 L 10.6875 -118.28125 C 10.6875 -122.195312 10.816406 -125.175781 11.078125 -127.21875 C 11.347656 -129.269531 12.191406 -131.539062 13.609375 -134.03125 C 16.109375 -138.476562 22.960938 -140.703125 34.171875 -140.703125 C 45.035156 -140.703125 51.710938 -138.65625 54.203125 -134.5625 C 55.984375 -131.539062 56.875 -127.894531 56.875 -123.625 C 57.582031 -124.863281 59.179688 -126.640625 61.671875 -128.953125 C 64.171875 -131.273438 66.578125 -133.144531 68.890625 -134.5625 C 74.941406 -138.65625 81.613281 -140.703125 88.90625 -140.703125 Z M 88.90625 -140.703125 "/></g></g></g><g fill="#ec5bb2" fill-opacity="1"><g transform="translate(222.983545, 274.949162)"><g><path d="M 10.6875 -117.21875 C 10.6875 -121.3125 10.816406 -124.378906 11.078125 -126.421875 C 11.347656 -128.472656 12.101562 -130.832031 13.34375 -133.5 C 15.84375 -138.125 22.785156 -140.4375 34.171875 -140.4375 C 42.710938 -140.4375 48.765625 -138.925781 52.328125 -135.90625 C 55.359375 -133.414062 56.960938 -129.585938 57.140625 -124.421875 C 57.316406 -122.640625 57.40625 -120.054688 57.40625 -116.671875 L 57.40625 -23.234375 C 57.40625 -19.140625 57.269531 -16.066406 57 -14.015625 C 56.738281 -11.972656 55.894531 -9.613281 54.46875 -6.9375 C 52.15625 -2.3125 45.300781 0 33.90625 0 C 22.695312 0 15.84375 -2.398438 13.34375 -7.203125 C 12.101562 -9.878906 11.347656 -12.195312 11.078125 -14.15625 C 10.816406 -16.113281 10.6875 -19.226562 10.6875 -23.5 Z M 54.59375 -166.734375 C 53.257812 -164.160156 50.898438 -162.335938 47.515625 -161.265625 C 44.140625 -160.203125 39.644531 -159.671875 34.03125 -159.671875 C 28.425781 -159.671875 23.929688 -160.203125 20.546875 -161.265625 C 17.171875 -162.335938 14.816406 -164.207031 13.484375 -166.875 C 12.148438 -169.539062 11.347656 -171.894531 11.078125 -173.9375 C 10.816406 -175.988281 10.6875 -179.0625 10.6875 -183.15625 C 10.6875 -187.25 10.816406 -190.316406 11.078125 -192.359375 C 11.347656 -194.410156 12.101562 -196.6875 13.34375 -199.1875 C 15.84375 -203.988281 22.785156 -206.390625 34.171875 -206.390625 C 45.390625 -206.390625 52.15625 -203.988281 54.46875 -199.1875 C 55.894531 -196.507812 56.738281 -194.144531 57 -192.09375 C 57.269531 -190.050781 57.40625 -186.984375 57.40625 -182.890625 C 57.40625 -178.796875 57.269531 -175.722656 57 -173.671875 C 56.738281 -171.628906 55.9375 -169.316406 54.59375 -166.734375 Z M 54.59375 -166.734375 "/></g></g></g></svg>