<svg xmlns="http://www.w3.org/2000/svg" xmlns:xlink="http://www.w3.org/1999/xlink" width="500" zoomAndPan="magnify" viewBox="0 0 375 374.999991" height="500" preserveAspectRatio="xMidYMid meet" version="1.0"><defs><g/></defs><path stroke-linecap="butt" transform="matrix(0.75, 0, 0, 0.75, -11.373926, -9.30082)" fill="none" stroke-linejoin="miter" d="M 169.035037 191.354231 C 192.790247 191.354231 212.550665 200.447981 228.311083 218.645899 C 244.071501 236.781317 251.951709 258.911527 251.951709 285.046945 L 251.951709 347.708407 C 251.951709 353.156324 251.779834 357.244866 251.430876 359.963617 C 251.081918 362.687575 250.066293 365.7032 248.389209 369.005284 C 245.087126 375.437576 235.842333 378.651118 220.660041 378.651118 C 203.800665 378.651118 194.066289 374.250076 191.456914 365.442784 C 190.008997 361.442783 189.285039 355.3907 189.285039 347.276116 L 189.285039 284.697987 C 189.285039 274.963611 186.503789 267.375069 180.941288 261.927152 C 175.378788 256.421943 167.904829 253.671943 158.519412 253.671943 C 149.133994 253.671943 141.540244 256.536526 135.748577 262.27611 C 129.951701 267.953194 127.055868 275.427153 127.055868 284.697987 L 127.055868 347.708407 C 127.055868 353.156324 126.852743 357.244866 126.446493 359.963617 C 126.097535 362.687575 124.998576 365.7032 123.144409 369.005284 C 120.014201 375.437576 110.863159 378.651118 95.680866 378.651118 C 80.732948 378.651118 71.602739 375.437576 68.300656 369.005284 C 66.623572 365.468825 65.607947 362.343825 65.258989 359.619867 C 64.910031 356.895908 64.738156 352.781324 64.738156 347.276116 L 64.738156 221.250066 C 64.738156 216.036524 64.910031 212.067774 65.258989 209.343815 C 65.607947 206.619857 66.738156 203.60944 68.649614 200.302148 C 71.951698 194.338606 81.076698 191.354231 96.029824 191.354231 C 110.5142 191.354231 119.404826 194.104231 122.712118 199.609439 C 125.087118 203.60944 126.274618 208.474023 126.274618 214.208399 C 127.258993 212.531315 129.404826 210.156315 132.70691 207.083398 C 136.066285 203.95319 139.279827 201.463606 142.352744 199.609439 C 150.404828 194.104231 159.300662 191.354231 169.035037 191.354231 Z M 275.087128 285.395903 C 275.087128 256.885485 285.05067 233.390692 304.982963 214.906315 C 324.972548 196.364648 347.774632 187.093814 373.384009 187.093814 C 398.993386 187.093814 421.649637 196.307356 441.352764 214.73444 C 461.050682 233.099025 470.904849 256.536526 470.904849 285.046945 C 470.904849 304.744863 465.80589 322.244864 455.607973 337.54174 C 445.410056 352.838616 433.009013 364.10945 418.404845 371.349034 C 403.805886 378.593826 388.654843 382.213618 372.951717 382.213618 C 357.305883 382.213618 342.12359 378.364659 327.410048 370.656326 C 312.748588 362.947992 300.347546 351.562574 290.20692 336.500073 C 280.128795 321.375072 275.087128 304.338613 275.087128 285.395903 Z M 349.482966 310.859447 C 357.134008 316.651114 364.868384 319.552156 372.691301 319.552156 C 380.514218 319.552156 388.331927 316.593822 396.154844 310.687572 C 403.977761 304.718821 407.88922 295.937571 407.88922 284.349028 C 407.88922 272.703194 404.212136 264.041735 396.852761 258.364652 C 389.493385 252.625068 381.524635 249.760484 372.951717 249.760484 C 364.430884 249.760484 356.493383 252.74486 349.134008 258.708402 C 341.77984 264.61986 338.097548 273.343819 338.097548 284.869862 C 338.097548 296.343821 341.894424 305.00528 349.482966 310.859447 Z M 349.482966 310.859447 " stroke="#760047" stroke-width="17.799999" stroke-opacity="1" stroke-miterlimit="4"/><g fill="#ec5bb2" fill-opacity="1"><g transform="translate(26.489353, 274.949162)"><g><path d="M 88.90625 -140.703125 C 106.707031 -140.703125 121.523438 -133.894531 133.359375 -120.28125 C 145.203125 -106.664062 151.125 -90.066406 151.125 -70.484375 L 151.125 -23.5 C 151.125 -19.40625 150.988281 -16.332031 150.71875 -14.28125 C 150.457031 -12.238281 149.703125 -9.96875 148.453125 -7.46875 C 145.960938 -2.664062 139.019531 -0.265625 127.625 -0.265625 C 114.988281 -0.265625 107.691406 -3.554688 105.734375 -10.140625 C 104.660156 -13.171875 104.125 -17.710938 104.125 -23.765625 L 104.125 -70.75 C 104.125 -78.050781 102.03125 -83.75 97.84375 -87.84375 C 93.664062 -91.9375 88.0625 -93.984375 81.03125 -93.984375 C 74 -93.984375 68.300781 -91.847656 63.9375 -87.578125 C 59.582031 -83.304688 57.40625 -77.695312 57.40625 -70.75 L 57.40625 -23.5 C 57.40625 -19.40625 57.269531 -16.332031 57 -14.28125 C 56.738281 -12.238281 55.894531 -9.96875 54.46875 -7.46875 C 52.15625 -2.664062 45.300781 -0.265625 33.90625 -0.265625 C 22.695312 -0.265625 15.84375 -2.664062 13.34375 -7.46875 C 12.101562 -10.144531 11.347656 -12.503906 11.078125 -14.546875 C 10.816406 -16.597656 10.6875 -19.671875 10.6875 -23.765625 L 10.6875 -118.28125 C 10.6875 -122.195312 10.816406 -125.175781 11.078125 -127.21875 C 11.347656 -129.269531 12.191406 -131.539062 13.609375 -134.03125 C 16.109375 -138.476562 22.960938 -140.703125 34.171875 -140.703125 C 45.035156 -140.703125 51.710938 -138.65625 54.203125 -134.5625 C 55.984375 -131.539062 56.875 -127.894531 56.875 -123.625 C 57.582031 -124.863281 59.179688 -126.640625 61.671875 -128.953125 C 64.171875 -131.273438 66.578125 -133.144531 68.890625 -134.5625 C 74.941406 -138.65625 81.613281 -140.703125 88.90625 -140.703125 Z M 88.90625 -140.703125 "/></g></g></g><g fill="#ec5bb2" fill-opacity="1"><g transform="translate(188.291072, 274.949162)"><g><path d="M 6.671875 -70.21875 C 6.671875 -91.582031 14.144531 -109.203125 29.09375 -123.078125 C 44.050781 -136.960938 61.140625 -143.90625 80.359375 -143.90625 C 99.585938 -143.90625 116.585938 -137.007812 131.359375 -123.21875 C 146.140625 -109.425781 153.53125 -91.847656 153.53125 -70.484375 C 153.53125 -55.710938 149.703125 -42.585938 142.046875 -31.109375 C 134.390625 -19.628906 125.085938 -11.171875 114.140625 -5.734375 C 103.191406 -0.304688 91.84375 2.40625 80.09375 2.40625 C 68.351562 2.40625 56.960938 -0.484375 45.921875 -6.265625 C 34.890625 -12.054688 25.585938 -20.601562 18.015625 -31.90625 C 10.453125 -43.207031 6.671875 -55.976562 6.671875 -70.21875 Z M 62.46875 -51.125 C 68.164062 -46.769531 73.953125 -44.59375 79.828125 -44.59375 C 85.703125 -44.59375 91.578125 -46.816406 97.453125 -51.265625 C 103.328125 -55.710938 106.265625 -62.296875 106.265625 -71.015625 C 106.265625 -79.742188 103.503906 -86.242188 97.984375 -90.515625 C 92.472656 -94.785156 86.507812 -96.921875 80.09375 -96.921875 C 73.6875 -96.921875 67.722656 -94.695312 62.203125 -90.25 C 56.691406 -85.800781 53.9375 -79.257812 53.9375 -70.625 C 53.9375 -61.988281 56.78125 -55.488281 62.46875 -51.125 Z M 62.46875 -51.125 "/></g></g></g></svg>