<svg xmlns="http://www.w3.org/2000/svg" xmlns:xlink="http://www.w3.org/1999/xlink" width="500" zoomAndPan="magnify" viewBox="0 0 375 374.999991" height="500" preserveAspectRatio="xMidYMid meet" version="1.0"><defs><g/></defs><path stroke-linecap="butt" transform="matrix(0.75, 0, 0, 0.75, -11.373926, -18.110038)" fill="none" stroke-linejoin="miter" d="M 167.972537 191.355063 C 191.727747 191.355063 211.488165 200.448814 227.248583 218.641523 C 243.009001 236.782149 250.889209 258.912359 250.889209 285.047778 L 250.889209 347.70924 C 250.889209 353.157157 250.717334 357.240491 250.368376 359.964449 C 250.019418 362.688408 249.003793 365.704033 247.326709 369.006116 C 244.024626 375.438408 234.779833 378.65195 219.597541 378.65195 C 202.738165 378.65195 193.003789 374.250908 190.394414 365.443616 C 188.946497 361.443616 188.222539 355.386324 188.222539 347.276948 L 188.222539 284.698819 C 188.222539 274.964444 185.441288 267.375901 179.878788 261.927984 C 174.316288 256.422776 166.842329 253.667567 157.456912 253.667567 C 148.071494 253.667567 140.477744 256.537359 134.686077 262.276943 C 128.889201 267.954026 125.993368 275.427985 125.993368 284.698819 L 125.993368 347.70924 C 125.993368 353.157157 125.790243 357.240491 125.383993 359.964449 C 125.035034 362.688408 123.936076 365.704033 122.081909 369.006116 C 118.951701 375.438408 109.800658 378.65195 94.618366 378.65195 C 79.670448 378.65195 70.540239 375.438408 67.238156 369.006116 C 65.561072 365.469658 64.545447 362.339449 64.196489 359.620699 C 63.84753 356.896741 63.675655 352.782157 63.675655 347.276948 L 63.675655 221.250898 C 63.675655 216.037356 63.84753 212.068606 64.196489 209.344648 C 64.545447 206.620689 65.675656 203.605064 67.587114 200.30298 C 70.889198 194.33423 80.014198 191.355063 94.967324 191.355063 C 109.4517 191.355063 118.342326 194.105063 121.649618 199.610272 C 124.024618 203.605064 125.212118 208.474856 125.212118 214.209231 C 126.196493 212.532148 128.342326 210.157148 131.64441 207.084231 C 135.003785 203.954022 138.217327 201.464439 141.290244 199.610272 C 149.342328 194.105063 158.238162 191.355063 167.972537 191.355063 Z M 362.675675 378.302992 C 338.743382 378.302992 318.868381 369.235283 303.050671 351.099865 C 287.290253 332.907156 279.410045 310.771738 279.410045 284.698819 L 279.410045 222.381107 C 279.410045 216.646731 279.587128 212.474856 279.930878 209.865481 C 280.279836 207.256106 281.295461 204.188397 282.972545 200.651939 C 286.279837 194.219647 295.519421 191.006105 310.701713 191.006105 C 327.331923 191.006105 337.066298 195.526938 339.90484 204.563397 C 341.352757 208.329022 342.076715 214.386315 342.076715 222.730065 L 342.076715 285.047778 C 342.076715 294.782153 344.857966 302.370695 350.420466 307.818612 C 355.982966 313.266529 363.456925 315.98528 372.842342 315.98528 C 382.232968 315.98528 389.82151 313.146738 395.613177 307.469654 C 401.467344 301.735279 404.394428 294.26132 404.394428 285.047778 L 404.394428 222.032148 C 404.394428 216.52694 404.566303 212.412356 404.915261 209.693606 C 405.26422 206.969647 406.394428 203.839439 408.305886 200.30298 C 411.373595 194.105063 420.503804 191.006105 435.680888 191.006105 C 450.634014 191.006105 459.759015 194.219647 463.061098 200.651939 C 464.74339 204.188397 465.753807 207.344647 466.102765 210.125898 C 466.451724 212.849856 466.623599 216.93319 466.623599 222.381107 L 466.623599 348.407157 C 466.623599 353.620699 466.451724 357.589449 466.102765 360.313407 C 465.753807 363.037366 464.623598 366.047783 462.71214 369.355075 C 459.18089 375.552992 450.050681 378.65195 435.337138 378.65195 C 420.847554 378.65195 411.956928 375.813408 408.654845 370.136325 C 406.274636 366.079033 405.087136 361.209241 405.087136 355.532157 C 404.102761 357.157157 401.962136 359.532157 398.660052 362.662366 C 395.352761 365.730074 392.139219 368.33945 389.00901 370.480075 C 380.956926 375.698825 372.175676 378.302992 362.675675 378.302992 Z M 362.675675 378.302992 " stroke="#760047" stroke-width="17.799999" stroke-opacity="1" stroke-miterlimit="4"/><g fill="#ec5bb2" fill-opacity="1"><g transform="translate(25.692478, 266.139943)"><g><path d="M 88.90625 -140.703125 C 106.707031 -140.703125 121.523438 -133.894531 133.359375 -120.28125 C 145.203125 -106.664062 151.125 -90.066406 151.125 -70.484375 L 151.125 -23.5 C 151.125 -19.40625 150.988281 -16.332031 150.71875 -14.28125 C 150.457031 -12.238281 149.703125 -9.96875 148.453125 -7.46875 C 145.960938 -2.664062 139.019531 -0.265625 127.625 -0.265625 C 114.988281 -0.265625 107.691406 -3.554688 105.734375 -10.140625 C 104.660156 -13.171875 104.125 -17.710938 104.125 -23.765625 L 104.125 -70.75 C 104.125 -78.050781 102.03125 -83.75 97.84375 -87.84375 C 93.664062 -91.9375 88.0625 -93.984375 81.03125 -93.984375 C 74 -93.984375 68.300781 -91.847656 63.9375 -87.578125 C 59.582031 -83.304688 57.40625 -77.695312 57.40625 -70.75 L 57.40625 -23.5 C 57.40625 -19.40625 57.269531 -16.332031 57 -14.28125 C 56.738281 -12.238281 55.894531 -9.96875 54.46875 -7.46875 C 52.15625 -2.664062 45.300781 -0.265625 33.90625 -0.265625 C 22.695312 -0.265625 15.84375 -2.664062 13.34375 -7.46875 C 12.101562 -10.144531 11.347656 -12.503906 11.078125 -14.546875 C 10.816406 -16.597656 10.6875 -19.671875 10.6875 -23.765625 L 10.6875 -118.28125 C 10.6875 -122.195312 10.816406 -125.175781 11.078125 -127.21875 C 11.347656 -129.269531 12.191406 -131.539062 13.609375 -134.03125 C 16.109375 -138.476562 22.960938 -140.703125 34.171875 -140.703125 C 45.035156 -140.703125 51.710938 -138.65625 54.203125 -134.5625 C 55.984375 -131.539062 56.875 -127.894531 56.875 -123.625 C 57.582031 -124.863281 59.179688 -126.640625 61.671875 -128.953125 C 64.171875 -131.273438 66.578125 -133.144531 68.890625 -134.5625 C 74.941406 -138.65625 81.613281 -140.703125 88.90625 -140.703125 Z M 88.90625 -140.703125 "/></g></g></g><g fill="#ec5bb2" fill-opacity="1"><g transform="translate(187.494197, 266.139943)"><g><path d="M 73.15625 -0.53125 C 55.175781 -0.53125 40.269531 -7.335938 28.4375 -20.953125 C 16.601562 -34.578125 10.6875 -51.175781 10.6875 -70.75 L 10.6875 -117.484375 C 10.6875 -121.753906 10.816406 -124.867188 11.078125 -126.828125 C 11.347656 -128.785156 12.101562 -131.097656 13.34375 -133.765625 C 15.84375 -138.566406 22.785156 -140.96875 34.171875 -140.96875 C 46.628906 -140.96875 53.925781 -137.585938 56.0625 -130.828125 C 57.132812 -127.984375 57.671875 -123.445312 57.671875 -117.21875 L 57.671875 -70.484375 C 57.671875 -63.191406 59.757812 -57.5 63.9375 -53.40625 C 68.125 -49.3125 73.734375 -47.265625 80.765625 -47.265625 C 87.796875 -47.265625 93.488281 -49.398438 97.84375 -53.671875 C 102.207031 -57.941406 104.390625 -63.546875 104.390625 -70.484375 L 104.390625 -117.75 C 104.390625 -121.84375 104.523438 -124.910156 104.796875 -126.953125 C 105.066406 -129.003906 105.910156 -131.363281 107.328125 -134.03125 C 109.648438 -138.65625 116.503906 -140.96875 127.890625 -140.96875 C 139.109375 -140.96875 145.960938 -138.566406 148.453125 -133.765625 C 149.703125 -131.097656 150.457031 -128.738281 150.71875 -126.6875 C 150.988281 -124.644531 151.125 -121.578125 151.125 -117.484375 L 151.125 -22.96875 C 151.125 -19.050781 150.988281 -16.066406 150.71875 -14.015625 C 150.457031 -11.972656 149.613281 -9.703125 148.1875 -7.203125 C 145.519531 -2.578125 138.664062 -0.265625 127.625 -0.265625 C 116.769531 -0.265625 110.09375 -2.398438 107.59375 -6.671875 C 105.820312 -9.703125 104.9375 -13.351562 104.9375 -17.625 C 104.21875 -16.375 102.613281 -14.59375 100.125 -12.28125 C 97.632812 -9.96875 95.234375 -8.007812 92.921875 -6.40625 C 86.867188 -2.488281 80.28125 -0.53125 73.15625 -0.53125 Z M 73.15625 -0.53125 "/></g></g></g></svg>