<svg xmlns="http://www.w3.org/2000/svg" xmlns:xlink="http://www.w3.org/1999/xlink" width="500" zoomAndPan="magnify" viewBox="0 0 375 374.999991" height="500" preserveAspectRatio="xMidYMid meet" version="1.0"><defs><g/></defs><path stroke-linecap="butt" transform="matrix(0.75, 0, 0, 0.75, -20.104726, -18.190733)" fill="none" stroke-linejoin="miter" d="M 94.847974 400.415795 L 94.847974 206.863699 C 94.847974 201.738698 95.009432 197.962656 95.332349 195.535573 C 95.655265 193.108489 96.603182 190.353281 98.165682 187.280364 C 101.238599 181.29078 108.629225 178.295988 120.337559 178.295988 C 132.045893 178.295988 139.946935 179.806405 144.045894 182.827239 C 148.144852 185.795989 150.519852 190.139739 151.165686 195.85849 C 159.582353 184.420989 172.775062 178.702238 190.738605 178.702238 C 208.754231 178.702238 225.827149 187.197031 241.957358 204.191823 C 258.087568 221.186616 266.150068 240.957451 266.150068 263.504327 C 266.150068 286.056412 258.139651 305.853289 242.118817 322.900165 C 226.150066 339.889749 209.103189 348.38975 190.978188 348.38975 C 172.853187 348.38975 159.691728 343.290791 151.493811 333.092874 L 151.493811 400.092878 C 151.493811 405.165795 151.327144 408.915795 151.004227 411.342879 C 150.681311 413.769962 149.686519 416.572046 148.009435 419.759546 C 146.394852 422.993921 143.58756 425.259546 139.597977 426.556421 C 135.603185 427.90538 130.181309 428.577255 123.33235 428.577255 C 116.478183 428.577255 111.004225 427.90538 106.905266 426.556421 C 102.858391 425.259546 99.999016 423.046005 98.327141 419.921004 C 96.655265 416.842879 95.655265 414.092879 95.332349 411.665795 C 95.009432 409.238712 94.847974 405.488712 94.847974 400.415795 Z M 160.472978 244.327243 C 155.400061 250.259535 152.868811 256.759535 152.868811 263.827244 C 152.868811 270.894953 155.457353 277.368912 160.634436 283.24912 C 165.81152 289.077246 172.420895 291.988704 180.457354 291.988704 C 188.551105 291.988704 195.405272 289.129329 201.014647 283.410579 C 206.676106 277.639745 209.509439 271.108495 209.509439 263.827244 C 209.509439 256.545994 206.837564 249.99391 201.499022 244.165784 C 196.212564 238.285576 189.306313 235.342867 180.785479 235.342867 C 172.316729 235.342867 165.545895 238.337659 160.472978 244.327243 Z M 401.113619 196.910573 C 402.405285 184.504322 411.118828 178.295988 427.249037 178.295988 C 435.879246 178.295988 442.301121 178.973072 446.509455 180.32203 C 450.717789 181.670989 453.629247 183.988697 455.249039 187.280364 C 456.920914 190.572031 457.915706 193.509531 458.238622 196.098073 C 458.566747 198.634531 458.728206 202.436615 458.728206 207.509532 L 458.728206 323.462665 C 458.728206 328.587665 458.566747 332.420999 458.238622 334.957457 C 457.915706 337.488707 456.972997 340.405374 455.410497 343.691833 C 452.332372 349.467875 444.780288 352.353292 432.749037 352.353292 C 420.722995 352.353292 412.655286 350.868916 408.556328 347.900166 C 404.457369 344.879333 402.082369 340.509541 401.436535 334.795999 C 393.238618 346.499125 379.587576 352.353292 360.493824 352.353292 C 341.394865 352.353292 323.644864 343.639749 307.249029 326.217873 C 290.90007 308.738705 282.728194 288.452246 282.728194 265.363703 C 282.728194 242.275159 290.957361 222.077241 307.410488 204.759532 C 323.915697 187.389739 341.988615 178.702238 361.624033 178.702238 C 369.176117 178.702238 376.030284 180.025155 382.176117 182.66578 C 388.379243 185.311614 392.696952 187.790781 395.124035 190.113698 C 397.551118 192.431406 399.54591 194.697031 401.113619 196.910573 Z M 340.749031 265.853286 C 340.749031 273.134536 343.608407 279.71787 349.327157 285.592871 C 355.097991 291.420996 362.056324 294.332454 370.202158 294.332454 C 378.400076 294.332454 385.196951 291.368913 390.592785 285.431412 C 396.040702 279.447037 398.76466 272.863703 398.76466 265.691828 C 398.76466 258.514744 396.150077 251.827243 390.915701 245.624118 C 385.738618 239.415784 378.780284 236.316826 370.0407 236.316826 C 361.353199 236.316826 354.285491 239.415784 348.837574 245.624118 C 343.446948 251.827243 340.749031 258.566827 340.749031 265.853286 Z M 340.749031 265.853286 " stroke="#800000" stroke-width="16.572451" stroke-opacity="1" stroke-miterlimit="4"/><g fill="#ff5757" fill-opacity="1"><g transform="translate(41.078864, 246.55925)"><g><path d="M 9.9375 35.546875 L 9.9375 -109.625 C 9.9375 -113.4375 10.0625 -116.253906 10.3125 -118.078125 C 10.5625 -119.898438 11.265625 -121.96875 12.421875 -124.28125 C 14.742188 -128.757812 20.296875 -131 29.078125 -131 C 37.867188 -131 43.796875 -129.878906 46.859375 -127.640625 C 49.921875 -125.398438 51.703125 -122.128906 52.203125 -117.828125 C 58.492188 -126.441406 68.394531 -130.75 81.90625 -130.75 C 95.414062 -130.75 108.21875 -124.367188 120.3125 -111.609375 C 132.40625 -98.847656 138.453125 -84.015625 138.453125 -67.109375 C 138.453125 -50.210938 132.445312 -35.382812 120.4375 -22.625 C 108.425781 -9.863281 95.625 -3.484375 82.03125 -3.484375 C 68.4375 -3.484375 58.578125 -7.296875 52.453125 -14.921875 L 52.453125 35.296875 C 52.453125 39.109375 52.328125 41.925781 52.078125 43.75 C 51.828125 45.570312 51.078125 47.679688 49.828125 50.078125 C 48.585938 52.484375 46.476562 54.179688 43.5 55.171875 C 40.519531 56.171875 36.457031 56.671875 31.3125 56.671875 C 26.175781 56.671875 22.078125 56.171875 19.015625 55.171875 C 15.953125 54.179688 13.796875 52.523438 12.546875 50.203125 C 11.304688 47.890625 10.5625 45.820312 10.3125 44 C 10.0625 42.175781 9.9375 39.359375 9.9375 35.546875 Z M 59.15625 -81.53125 C 55.34375 -77.0625 53.4375 -72.171875 53.4375 -66.859375 C 53.4375 -61.554688 55.382812 -56.707031 59.28125 -52.3125 C 63.175781 -47.925781 68.148438 -45.734375 74.203125 -45.734375 C 80.253906 -45.734375 85.390625 -47.890625 89.609375 -52.203125 C 93.835938 -56.515625 95.953125 -61.40625 95.953125 -66.875 C 95.953125 -72.34375 93.960938 -77.269531 89.984375 -81.65625 C 86.003906 -86.050781 80.820312 -88.25 74.4375 -88.25 C 68.0625 -88.25 62.96875 -86.007812 59.15625 -81.53125 Z M 59.15625 -81.53125 "/></g></g></g><g fill="#ff5757" fill-opacity="1"><g transform="translate(185.752182, 246.55925)"><g><path d="M 94.953125 -117.078125 C 95.953125 -126.359375 102.5 -131 114.59375 -131 C 121.050781 -131 125.851562 -130.5 129 -129.5 C 132.15625 -128.507812 134.351562 -126.769531 135.59375 -124.28125 C 136.84375 -121.800781 137.585938 -119.609375 137.828125 -117.703125 C 138.078125 -115.796875 138.203125 -112.9375 138.203125 -109.125 L 138.203125 -22.125 C 138.203125 -18.3125 138.078125 -15.453125 137.828125 -13.546875 C 137.585938 -11.640625 136.882812 -9.441406 135.71875 -6.953125 C 133.40625 -2.648438 127.734375 -0.5 118.703125 -0.5 C 109.671875 -0.5 103.617188 -1.613281 100.546875 -3.84375 C 97.484375 -6.082031 95.703125 -9.359375 95.203125 -13.671875 C 89.078125 -4.890625 78.84375 -0.5 64.5 -0.5 C 50.164062 -0.5 36.867188 -7.039062 24.609375 -20.125 C 12.347656 -33.21875 6.21875 -48.421875 6.21875 -65.734375 C 6.21875 -83.054688 12.390625 -98.222656 24.734375 -111.234375 C 37.078125 -124.242188 50.625 -130.75 65.375 -130.75 C 71.007812 -130.75 76.144531 -129.753906 80.78125 -127.765625 C 85.425781 -125.773438 88.660156 -123.910156 90.484375 -122.171875 C 92.304688 -120.429688 93.796875 -118.734375 94.953125 -117.078125 Z M 49.71875 -65.375 C 49.71875 -59.90625 51.867188 -54.972656 56.171875 -50.578125 C 60.484375 -46.191406 65.703125 -44 71.828125 -44 C 77.960938 -44 83.0625 -46.234375 87.125 -50.703125 C 91.1875 -55.179688 93.21875 -60.113281 93.21875 -65.5 C 93.21875 -70.882812 91.269531 -75.894531 87.375 -80.53125 C 83.476562 -85.175781 78.253906 -87.5 71.703125 -87.5 C 65.160156 -87.5 59.859375 -85.175781 55.796875 -80.53125 C 51.742188 -75.894531 49.71875 -70.84375 49.71875 -65.375 Z M 49.71875 -65.375 "/></g></g></g></svg>