<svg xmlns="http://www.w3.org/2000/svg" xmlns:xlink="http://www.w3.org/1999/xlink" width="500" zoomAndPan="magnify" viewBox="0 0 375 374.999991" height="500" preserveAspectRatio="xMidYMid meet" version="1.0"><defs><g/></defs><path stroke-linecap="butt" transform="matrix(0.75, 0, 0, 0.75, -20.104726, -18.190722)" fill="none" stroke-linejoin="miter" d="M 98.660474 400.41578 L 98.660474 206.863684 C 98.660474 201.738684 98.821932 197.962642 99.144849 195.535558 C 99.467766 193.108475 100.415682 190.353266 101.978182 187.280349 C 105.051099 181.290766 112.441725 178.295974 124.150059 178.295974 C 135.858393 178.295974 143.759435 179.806391 147.858394 182.827224 C 151.957352 185.795974 154.332353 190.139725 154.978186 195.858475 C 163.394853 184.420974 176.587562 178.702224 194.551105 178.702224 C 212.566731 178.702224 229.639649 187.197016 245.769859 204.191809 C 261.900068 221.186602 269.962568 240.957436 269.962568 263.504313 C 269.962568 286.056397 261.952151 305.853274 245.931317 322.90015 C 229.962566 339.889734 212.91569 348.389735 194.790689 348.389735 C 176.665687 348.389735 163.504228 343.290776 155.306311 333.092859 L 155.306311 400.092863 C 155.306311 405.16578 155.139644 408.915781 154.816728 411.342864 C 154.493811 413.769948 153.499019 416.572031 151.821936 419.759531 C 150.207352 422.993906 147.40006 425.259532 143.410477 426.556407 C 139.415685 427.905365 133.99381 428.57724 127.144851 428.57724 C 120.290684 428.57724 114.816725 427.905365 110.717766 426.556407 C 106.670891 425.259532 103.811516 423.04599 102.139641 419.92099 C 100.467766 416.842864 99.467766 414.092864 99.144849 411.665781 C 98.821932 409.238697 98.660474 405.488697 98.660474 400.41578 Z M 164.285478 244.327228 C 159.212561 250.25952 156.681311 256.759521 156.681311 263.827229 C 156.681311 270.894938 159.269853 277.368897 164.446937 283.249106 C 169.62402 289.077231 176.233396 291.98869 184.269854 291.98869 C 192.363605 291.98869 199.217772 289.129314 204.827148 283.410564 C 210.488606 277.63973 213.32194 271.10848 213.32194 263.827229 C 213.32194 256.545979 210.650065 249.993895 205.311523 244.16577 C 200.025064 238.285561 193.118813 235.342852 184.59798 235.342852 C 176.129229 235.342852 169.358395 238.337644 164.285478 244.327228 Z M 459.946956 244.811603 C 459.946956 258.405354 456.577164 268.467855 449.832372 274.993897 C 443.092788 281.467856 435.618829 284.707439 427.420912 284.707439 L 348.84799 284.707439 C 348.84799 290.910564 352.488616 296.11369 359.775074 300.322023 C 367.108408 304.530357 374.420909 306.634524 381.702159 306.634524 C 394.540702 306.634524 404.603202 305.285565 411.884453 302.587649 L 415.525078 301.295982 C 420.811537 298.86369 425.233412 297.650148 428.795912 297.650148 C 435.863621 297.650148 441.93133 302.61369 447.004247 312.540774 C 449.863622 318.530358 451.290705 323.629317 451.290705 327.832442 C 451.290705 347.473068 427.76987 357.290777 380.728201 357.290777 C 364.38445 357.290777 349.84799 354.483485 337.113615 348.87411 C 324.43653 343.207443 314.540696 335.738692 307.420904 326.457442 C 293.499028 308.603274 286.540695 288.613689 286.540695 266.499105 C 286.540695 238.660561 295.551112 216.41056 313.566738 199.743892 C 331.587572 183.019932 354.082366 174.655349 381.056326 174.655349 C 411.749036 174.655349 434.269871 185.499099 448.61883 207.186601 C 456.170914 218.676185 459.946956 231.217852 459.946956 244.811603 Z M 389.957368 254.525145 C 398.368827 254.525145 402.57716 250.988687 402.57716 243.920978 C 402.57716 238.853269 400.634452 234.780352 396.754243 231.702227 C 392.92091 228.62931 387.394868 227.092852 380.165701 227.092852 C 372.988617 227.092852 365.868825 230.030352 358.801116 235.910561 C 351.733407 241.738686 348.202157 247.941812 348.202157 254.525145 Z M 389.957368 254.525145 " stroke="#800000" stroke-width="16.572451" stroke-opacity="1" stroke-miterlimit="4"/><g fill="#ff5757" fill-opacity="1"><g transform="translate(43.938239, 246.559261)"><g><path d="M 9.9375 35.546875 L 9.9375 -109.625 C 9.9375 -113.4375 10.0625 -116.253906 10.3125 -118.078125 C 10.5625 -119.898438 11.265625 -121.96875 12.421875 -124.28125 C 14.742188 -128.757812 20.296875 -131 29.078125 -131 C 37.867188 -131 43.796875 -129.878906 46.859375 -127.640625 C 49.921875 -125.398438 51.703125 -122.128906 52.203125 -117.828125 C 58.492188 -126.441406 68.394531 -130.75 81.90625 -130.75 C 95.414062 -130.75 108.21875 -124.367188 120.3125 -111.609375 C 132.40625 -98.847656 138.453125 -84.015625 138.453125 -67.109375 C 138.453125 -50.210938 132.445312 -35.382812 120.4375 -22.625 C 108.425781 -9.863281 95.625 -3.484375 82.03125 -3.484375 C 68.4375 -3.484375 58.578125 -7.296875 52.453125 -14.921875 L 52.453125 35.296875 C 52.453125 39.109375 52.328125 41.925781 52.078125 43.75 C 51.828125 45.570312 51.078125 47.679688 49.828125 50.078125 C 48.585938 52.484375 46.476562 54.179688 43.5 55.171875 C 40.519531 56.171875 36.457031 56.671875 31.3125 56.671875 C 26.175781 56.671875 22.078125 56.171875 19.015625 55.171875 C 15.953125 54.179688 13.796875 52.523438 12.546875 50.203125 C 11.304688 47.890625 10.5625 45.820312 10.3125 44 C 10.0625 42.175781 9.9375 39.359375 9.9375 35.546875 Z M 59.15625 -81.53125 C 55.34375 -77.0625 53.4375 -72.171875 53.4375 -66.859375 C 53.4375 -61.554688 55.382812 -56.707031 59.28125 -52.3125 C 63.175781 -47.925781 68.148438 -45.734375 74.203125 -45.734375 C 80.253906 -45.734375 85.390625 -47.890625 89.609375 -52.203125 C 93.835938 -56.515625 95.953125 -61.40625 95.953125 -66.875 C 95.953125 -72.34375 93.960938 -77.269531 89.984375 -81.65625 C 86.003906 -86.050781 80.820312 -88.25 74.4375 -88.25 C 68.0625 -88.25 62.96875 -86.007812 59.15625 -81.53125 Z M 59.15625 -81.53125 "/></g></g></g><g fill="#ff5757" fill-opacity="1"><g transform="translate(188.611557, 246.559261)"><g><path d="M 136.21875 -81.15625 C 136.21875 -70.96875 133.691406 -63.425781 128.640625 -58.53125 C 123.585938 -53.644531 117.992188 -51.203125 111.859375 -51.203125 L 52.953125 -51.203125 C 52.953125 -46.566406 55.6875 -42.671875 61.15625 -39.515625 C 66.625 -36.367188 72.09375 -34.796875 77.5625 -34.796875 C 87.164062 -34.796875 94.703125 -35.789062 100.171875 -37.78125 L 102.90625 -38.78125 C 106.882812 -40.601562 110.203125 -41.515625 112.859375 -41.515625 C 118.160156 -41.515625 122.71875 -37.785156 126.53125 -30.328125 C 128.675781 -25.847656 129.75 -22.035156 129.75 -18.890625 C 129.75 -4.140625 112.101562 3.234375 76.8125 3.234375 C 64.550781 3.234375 53.65625 1.117188 44.125 -3.109375 C 34.59375 -7.335938 27.175781 -12.929688 21.875 -19.890625 C 11.4375 -33.304688 6.21875 -48.300781 6.21875 -64.875 C 6.21875 -85.757812 12.96875 -102.457031 26.46875 -114.96875 C 39.976562 -127.476562 56.84375 -133.734375 77.0625 -133.734375 C 100.09375 -133.734375 116.992188 -125.613281 127.765625 -109.375 C 133.398438 -100.757812 136.21875 -91.351562 136.21875 -81.15625 Z M 83.765625 -73.828125 C 90.066406 -73.828125 93.21875 -76.476562 93.21875 -81.78125 C 93.21875 -85.59375 91.765625 -88.65625 88.859375 -90.96875 C 85.960938 -93.289062 81.820312 -94.453125 76.4375 -94.453125 C 71.050781 -94.453125 65.707031 -92.253906 60.40625 -87.859375 C 55.101562 -83.472656 52.453125 -78.796875 52.453125 -73.828125 Z M 83.765625 -73.828125 "/></g></g></g></svg>