<svg xmlns="http://www.w3.org/2000/svg" xmlns:xlink="http://www.w3.org/1999/xlink" width="500" zoomAndPan="magnify" viewBox="0 0 375 374.999991" height="500" preserveAspectRatio="xMidYMid meet" version="1.0"><defs><g/></defs><path stroke-linecap="butt" transform="matrix(0.75, 0, 0, 0.75, -20.104726, -18.190722)" fill="none" stroke-linejoin="miter" d="M 151.363602 400.41578 L 151.363602 206.863684 C 151.363602 201.738684 151.525061 197.962642 151.847977 195.535558 C 152.170894 193.108475 153.118811 190.353266 154.681311 187.280349 C 157.754228 181.290766 165.144853 178.295974 176.853187 178.295974 C 188.561521 178.295974 196.462564 179.806391 200.561522 182.827224 C 204.660481 185.795974 207.035481 190.139725 207.681314 195.858475 C 216.097982 184.420974 229.290691 178.702224 247.254234 178.702224 C 265.26986 178.702224 282.342778 187.197016 298.472987 204.191809 C 314.603196 221.186602 322.665697 240.957436 322.665697 263.504313 C 322.665697 286.056397 314.65528 305.853274 298.634445 322.90015 C 282.665694 339.889734 265.618818 348.389735 247.493817 348.389735 C 229.368816 348.389735 216.207357 343.290776 208.009439 333.092859 L 208.009439 400.092863 C 208.009439 405.16578 207.842773 408.915781 207.519856 411.342864 C 207.196939 413.769948 206.202148 416.572031 204.525064 419.759531 C 202.910481 422.993906 200.103189 425.259532 196.113605 426.556407 C 192.118813 427.905365 186.696938 428.57724 179.847979 428.57724 C 172.993812 428.57724 167.519853 427.905365 163.420895 426.556407 C 159.37402 425.259532 156.514644 423.04599 154.842769 419.92099 C 153.170894 416.842864 152.170894 414.092864 151.847977 411.665781 C 151.525061 409.238697 151.363602 405.488697 151.363602 400.41578 Z M 216.988607 244.327228 C 211.91569 250.25952 209.384439 256.759521 209.384439 263.827229 C 209.384439 270.894938 211.972981 277.368897 217.150065 283.249106 C 222.327149 289.077231 228.936524 291.98869 236.972983 291.98869 C 245.066733 291.98869 251.920901 289.129314 257.530276 283.410564 C 263.191735 277.63973 266.025068 271.10848 266.025068 263.827229 C 266.025068 256.545979 263.353193 249.993895 258.014651 244.16577 C 252.728192 238.285561 245.821942 235.342852 237.301108 235.342852 C 228.832357 235.342852 222.061524 238.337644 216.988607 244.327228 Z M 344.259448 207.509517 C 344.259448 202.4366 344.426115 198.634517 344.749032 196.098058 C 345.071948 193.509516 346.014657 190.572016 347.577157 187.280349 C 350.655282 181.561599 359.259449 178.702224 373.394867 178.702224 C 384.019868 178.702224 391.54591 180.561599 395.967785 184.285557 C 399.691744 187.358474 401.686535 192.108475 401.957369 198.525142 C 402.17091 200.738684 402.280285 203.947017 402.280285 208.155351 L 402.280285 324.191817 C 402.280285 329.264734 402.092785 333.066817 401.712577 335.603276 C 401.38966 338.139734 400.363619 341.077234 398.63966 344.420985 C 395.728202 350.139735 387.202159 352.99911 373.066742 352.99911 C 359.150074 352.99911 350.655282 350.004318 347.577157 344.019943 C 346.014657 340.728276 345.071948 337.868901 344.749032 335.441817 C 344.426115 333.014734 344.259448 329.155359 344.259448 323.8689 Z M 398.717785 146.009513 C 397.103202 149.197013 394.186535 151.462639 389.978201 152.806389 C 385.775076 154.155347 380.191742 154.832431 373.2282 154.832431 C 366.269866 154.832431 360.686533 154.155347 356.478199 152.806389 C 352.327157 151.462639 349.415699 149.139722 347.743824 145.848055 C 346.06674 142.561596 345.071948 139.64493 344.749032 137.108471 C 344.426115 134.519929 344.259448 130.691804 344.259448 125.618887 C 344.259448 120.551178 344.426115 116.749095 344.749032 114.212636 C 345.071948 111.676178 346.014657 108.842844 347.577157 105.712636 C 350.655282 99.780344 359.259449 96.811593 373.394867 96.811593 C 387.311534 96.811593 395.728202 99.780344 398.63966 105.712636 C 400.363619 109.061594 401.38966 111.999094 401.712577 114.535553 C 402.092785 117.072011 402.280285 120.874095 402.280285 125.941804 C 402.280285 131.014721 402.092785 134.842846 401.712577 137.436596 C 401.38966 139.967846 400.38966 142.827221 398.717785 146.009513 Z M 398.717785 146.009513 " stroke="#800000" stroke-width="16.572451" stroke-opacity="1" stroke-miterlimit="4"/><g fill="#ff5757" fill-opacity="1"><g transform="translate(83.46558, 246.559261)"><g><path d="M 9.9375 35.546875 L 9.9375 -109.625 C 9.9375 -113.4375 10.0625 -116.253906 10.3125 -118.078125 C 10.5625 -119.898438 11.265625 -121.96875 12.421875 -124.28125 C 14.742188 -128.757812 20.296875 -131 29.078125 -131 C 37.867188 -131 43.796875 -129.878906 46.859375 -127.640625 C 49.921875 -125.398438 51.703125 -122.128906 52.203125 -117.828125 C 58.492188 -126.441406 68.394531 -130.75 81.90625 -130.75 C 95.414062 -130.75 108.21875 -124.367188 120.3125 -111.609375 C 132.40625 -98.847656 138.453125 -84.015625 138.453125 -67.109375 C 138.453125 -50.210938 132.445312 -35.382812 120.4375 -22.625 C 108.425781 -9.863281 95.625 -3.484375 82.03125 -3.484375 C 68.4375 -3.484375 58.578125 -7.296875 52.453125 -14.921875 L 52.453125 35.296875 C 52.453125 39.109375 52.328125 41.925781 52.078125 43.75 C 51.828125 45.570312 51.078125 47.679688 49.828125 50.078125 C 48.585938 52.484375 46.476562 54.179688 43.5 55.171875 C 40.519531 56.171875 36.457031 56.671875 31.3125 56.671875 C 26.175781 56.671875 22.078125 56.171875 19.015625 55.171875 C 15.953125 54.179688 13.796875 52.523438 12.546875 50.203125 C 11.304688 47.890625 10.5625 45.820312 10.3125 44 C 10.0625 42.175781 9.9375 39.359375 9.9375 35.546875 Z M 59.15625 -81.53125 C 55.34375 -77.0625 53.4375 -72.171875 53.4375 -66.859375 C 53.4375 -61.554688 55.382812 -56.707031 59.28125 -52.3125 C 63.175781 -47.925781 68.148438 -45.734375 74.203125 -45.734375 C 80.253906 -45.734375 85.390625 -47.890625 89.609375 -52.203125 C 93.835938 -56.515625 95.953125 -61.40625 95.953125 -66.875 C 95.953125 -72.34375 93.960938 -77.269531 89.984375 -81.65625 C 86.003906 -86.050781 80.820312 -88.25 74.4375 -88.25 C 68.0625 -88.25 62.96875 -86.007812 59.15625 -81.53125 Z M 59.15625 -81.53125 "/></g></g></g><g fill="#ff5757" fill-opacity="1"><g transform="translate(228.138898, 246.559261)"><g><path d="M 9.9375 -109.125 C 9.9375 -112.9375 10.0625 -115.796875 10.3125 -117.703125 C 10.5625 -119.609375 11.265625 -121.800781 12.421875 -124.28125 C 14.742188 -128.59375 21.207031 -130.75 31.8125 -130.75 C 39.769531 -130.75 45.40625 -129.34375 48.71875 -126.53125 C 51.539062 -124.207031 53.035156 -120.644531 53.203125 -115.84375 C 53.359375 -114.1875 53.4375 -111.78125 53.4375 -108.625 L 53.4375 -21.625 C 53.4375 -17.8125 53.3125 -14.953125 53.0625 -13.046875 C 52.820312 -11.140625 52.035156 -8.945312 50.703125 -6.46875 C 48.554688 -2.15625 42.175781 0 31.5625 0 C 21.125 0 14.742188 -2.238281 12.421875 -6.71875 C 11.265625 -9.195312 10.5625 -11.347656 10.3125 -13.171875 C 10.0625 -14.992188 9.9375 -17.894531 9.9375 -21.875 Z M 50.828125 -155.234375 C 49.585938 -152.828125 47.394531 -151.128906 44.25 -150.140625 C 41.101562 -149.148438 36.914062 -148.65625 31.6875 -148.65625 C 26.46875 -148.65625 22.285156 -149.148438 19.140625 -150.140625 C 15.992188 -151.128906 13.796875 -152.867188 12.546875 -155.359375 C 11.304688 -157.847656 10.5625 -160.046875 10.3125 -161.953125 C 10.0625 -163.859375 9.9375 -166.710938 9.9375 -170.515625 C 9.9375 -174.328125 10.0625 -177.1875 10.3125 -179.09375 C 10.5625 -181 11.265625 -183.113281 12.421875 -185.4375 C 14.742188 -189.914062 21.207031 -192.15625 31.8125 -192.15625 C 42.257812 -192.15625 48.554688 -189.914062 50.703125 -185.4375 C 52.035156 -182.945312 52.820312 -180.75 53.0625 -178.84375 C 53.3125 -176.945312 53.4375 -174.09375 53.4375 -170.28125 C 53.4375 -166.46875 53.3125 -163.609375 53.0625 -161.703125 C 52.820312 -159.796875 52.078125 -157.640625 50.828125 -155.234375 Z M 50.828125 -155.234375 "/></g></g></g></svg>