<svg xmlns="http://www.w3.org/2000/svg" xmlns:xlink="http://www.w3.org/1999/xlink" width="500" zoomAndPan="magnify" viewBox="0 0 375 374.999991" height="500" preserveAspectRatio="xMidYMid meet" version="1.0"><defs><g/></defs><path stroke-linecap="butt" transform="matrix(0.75, 0, 0, 0.75, -20.104726, -18.190663)" fill="none" stroke-linejoin="miter" d="M 94.191724 400.415702 L 94.191724 206.863606 C 94.191724 201.738606 94.353182 197.962564 94.676099 195.53548 C 94.999015 193.108397 95.946932 190.353188 97.509432 187.280271 C 100.582349 181.290688 107.972974 178.295896 119.681309 178.295896 C 131.389643 178.295896 139.290685 179.806312 143.389643 182.827146 C 147.488602 185.795896 149.863602 190.139646 150.509436 195.858397 C 158.926103 184.420896 172.118812 178.702146 190.082355 178.702146 C 208.097981 178.702146 225.170899 187.196938 241.301108 204.191731 C 257.431318 221.186523 265.493818 240.957358 265.493818 263.504235 C 265.493818 286.056319 257.483401 305.853196 241.462567 322.900072 C 225.493816 339.889656 208.446939 348.389657 190.321938 348.389657 C 172.196937 348.389657 159.035478 343.290698 150.837561 333.092781 L 150.837561 400.092785 C 150.837561 405.165702 150.670894 408.915702 150.347977 411.342786 C 150.025061 413.769869 149.030269 416.571953 147.353185 419.759453 C 145.738602 422.993828 142.93131 425.259454 138.941727 426.556329 C 134.946935 427.905287 129.525059 428.577162 122.6761 428.577162 C 115.821933 428.577162 110.347975 427.905287 106.249016 426.556329 C 102.202141 425.259454 99.342766 423.045912 97.67089 419.920912 C 95.999015 416.842786 94.999015 414.092786 94.676099 411.665703 C 94.353182 409.238619 94.191724 405.488619 94.191724 400.415702 Z M 159.816728 244.32715 C 154.743811 250.259442 152.212561 256.759442 152.212561 263.827151 C 152.212561 270.89486 154.801103 277.368819 159.978186 283.249028 C 165.15527 289.077153 171.764645 291.988611 179.801104 291.988611 C 187.894855 291.988611 194.749022 289.129236 200.358397 283.410486 C 206.019856 277.639652 208.853189 271.11361 208.853189 263.827151 C 208.853189 256.545901 206.181314 249.993817 200.842772 244.165692 C 195.556314 238.285483 188.650063 235.342774 180.129229 235.342774 C 171.660479 235.342774 164.889645 238.337566 159.816728 244.32715 Z M 282.071944 265.853193 C 282.071944 239.311525 291.353195 217.436523 309.910488 200.228189 C 328.519864 182.962563 349.749032 174.332354 373.592784 174.332354 C 397.436535 174.332354 418.530287 182.910479 436.868829 200.06673 C 455.212581 217.16569 464.379248 238.988608 464.379248 265.530276 C 464.379248 283.868819 459.634456 300.160487 450.139664 314.400071 C 440.644871 328.644864 429.103204 339.134448 415.509453 345.87924 C 401.910494 352.624032 387.806326 355.993824 373.186534 355.993824 C 358.624033 355.993824 344.488615 352.405282 330.785489 345.233407 C 317.139655 338.056323 305.592779 327.457364 296.155279 313.431321 C 286.764653 299.353195 282.071944 283.493819 282.071944 265.853193 Z M 351.337574 289.561528 C 358.457366 294.957362 365.660491 297.65007 372.941742 297.65007 C 380.228201 297.65007 387.509451 294.90007 394.790702 289.40007 C 402.07716 283.842778 405.717786 275.670902 405.717786 264.879235 C 405.717786 254.035484 402.290702 245.972983 395.441743 240.686525 C 388.587576 235.342774 381.170909 232.676108 373.186534 232.676108 C 365.25945 232.676108 357.868824 235.452149 351.014657 241.009441 C 344.165698 246.509442 340.738615 254.629234 340.738615 265.36361 C 340.738615 276.045902 344.269865 284.113611 351.337574 289.561528 Z M 351.337574 289.561528 " stroke="#800000" stroke-width="16.572451" stroke-opacity="1" stroke-miterlimit="4"/><g fill="#ff5757" fill-opacity="1"><g transform="translate(40.586677, 246.55932)"><g><path d="M 9.9375 35.546875 L 9.9375 -109.625 C 9.9375 -113.4375 10.0625 -116.253906 10.3125 -118.078125 C 10.5625 -119.898438 11.265625 -121.96875 12.421875 -124.28125 C 14.742188 -128.757812 20.296875 -131 29.078125 -131 C 37.867188 -131 43.796875 -129.878906 46.859375 -127.640625 C 49.921875 -125.398438 51.703125 -122.128906 52.203125 -117.828125 C 58.492188 -126.441406 68.394531 -130.75 81.90625 -130.75 C 95.414062 -130.75 108.21875 -124.367188 120.3125 -111.609375 C 132.40625 -98.847656 138.453125 -84.015625 138.453125 -67.109375 C 138.453125 -50.210938 132.445312 -35.382812 120.4375 -22.625 C 108.425781 -9.863281 95.625 -3.484375 82.03125 -3.484375 C 68.4375 -3.484375 58.578125 -7.296875 52.453125 -14.921875 L 52.453125 35.296875 C 52.453125 39.109375 52.328125 41.925781 52.078125 43.75 C 51.828125 45.570312 51.078125 47.679688 49.828125 50.078125 C 48.585938 52.484375 46.476562 54.179688 43.5 55.171875 C 40.519531 56.171875 36.457031 56.671875 31.3125 56.671875 C 26.175781 56.671875 22.078125 56.171875 19.015625 55.171875 C 15.953125 54.179688 13.796875 52.523438 12.546875 50.203125 C 11.304688 47.890625 10.5625 45.820312 10.3125 44 C 10.0625 42.175781 9.9375 39.359375 9.9375 35.546875 Z M 59.15625 -81.53125 C 55.34375 -77.0625 53.4375 -72.171875 53.4375 -66.859375 C 53.4375 -61.554688 55.382812 -56.707031 59.28125 -52.3125 C 63.175781 -47.925781 68.148438 -45.734375 74.203125 -45.734375 C 80.253906 -45.734375 85.390625 -47.890625 89.609375 -52.203125 C 93.835938 -56.515625 95.953125 -61.40625 95.953125 -66.875 C 95.953125 -72.34375 93.960938 -77.269531 89.984375 -81.65625 C 86.003906 -86.050781 80.820312 -88.25 74.4375 -88.25 C 68.0625 -88.25 62.96875 -86.007812 59.15625 -81.53125 Z M 59.15625 -81.53125 "/></g></g></g><g fill="#ff5757" fill-opacity="1"><g transform="translate(185.259995, 246.55932)"><g><path d="M 6.21875 -65.375 C 6.21875 -85.257812 13.175781 -101.664062 27.09375 -114.59375 C 41.007812 -127.519531 56.914062 -133.984375 74.8125 -133.984375 C 92.71875 -133.984375 108.546875 -127.5625 122.296875 -114.71875 C 136.054688 -101.875 142.9375 -85.507812 142.9375 -65.625 C 142.9375 -51.875 139.367188 -39.648438 132.234375 -28.953125 C 125.109375 -18.265625 116.453125 -10.394531 106.265625 -5.34375 C 96.078125 -0.289062 85.515625 2.234375 74.578125 2.234375 C 63.640625 2.234375 53.03125 -0.457031 42.75 -5.84375 C 32.476562 -11.226562 23.820312 -19.179688 16.78125 -29.703125 C 9.738281 -40.222656 6.21875 -52.113281 6.21875 -65.375 Z M 58.171875 -47.59375 C 63.472656 -43.539062 68.859375 -41.515625 74.328125 -41.515625 C 79.796875 -41.515625 85.265625 -43.582031 90.734375 -47.71875 C 96.203125 -51.863281 98.9375 -57.992188 98.9375 -66.109375 C 98.9375 -74.234375 96.363281 -80.285156 91.21875 -84.265625 C 86.082031 -88.242188 80.53125 -90.234375 74.5625 -90.234375 C 68.601562 -90.234375 63.054688 -88.160156 57.921875 -84.015625 C 52.785156 -79.878906 50.21875 -73.789062 50.21875 -65.75 C 50.21875 -57.707031 52.867188 -51.65625 58.171875 -47.59375 Z M 58.171875 -47.59375 "/></g></g></g></svg>