<svg xmlns="http://www.w3.org/2000/svg" xmlns:xlink="http://www.w3.org/1999/xlink" width="500" zoomAndPan="magnify" viewBox="0 0 375 374.999991" height="500" preserveAspectRatio="xMidYMid meet" version="1.0"><defs><g/></defs><path stroke-linecap="butt" transform="matrix(0.75, 0, 0, 0.75, -20.104726, -18.190663)" fill="none" stroke-linejoin="miter" d="M 93.191724 400.415702 L 93.191724 206.863606 C 93.191724 201.738606 93.353182 197.962564 93.676099 195.53548 C 93.999015 193.108397 94.946932 190.353188 96.509432 187.280271 C 99.582349 181.290688 106.972974 178.295896 118.681309 178.295896 C 130.389643 178.295896 138.290685 179.806312 142.389643 182.827146 C 146.488602 185.795896 148.863602 190.139646 149.509436 195.858397 C 157.926103 184.420896 171.118812 178.702146 189.082355 178.702146 C 207.097981 178.702146 224.170899 187.196938 240.301108 204.191731 C 256.431318 221.186523 264.493818 240.957358 264.493818 263.504235 C 264.493818 286.056319 256.483401 305.853196 240.462567 322.900072 C 224.493815 339.889656 207.446939 348.389657 189.321938 348.389657 C 171.196937 348.389657 158.035478 343.290698 149.837561 333.092781 L 149.837561 400.092785 C 149.837561 405.165702 149.670894 408.915702 149.347977 411.342786 C 149.025061 413.769869 148.030269 416.571953 146.353185 419.759453 C 144.738602 422.993828 141.93131 425.259454 137.941726 426.556329 C 133.946935 427.905287 128.525059 428.577162 121.6761 428.577162 C 114.821933 428.577162 109.347975 427.905287 105.249016 426.556329 C 101.202141 425.259454 98.342766 423.045912 96.67089 419.920912 C 94.999015 416.842786 93.999015 414.092786 93.676099 411.665703 C 93.353182 409.238619 93.191724 405.488619 93.191724 400.415702 Z M 158.816728 244.32715 C 153.743811 250.259442 151.212561 256.759442 151.212561 263.827151 C 151.212561 270.89486 153.801102 277.368819 158.978186 283.249028 C 164.15527 289.077153 170.764645 291.988611 178.801104 291.988611 C 186.894855 291.988611 193.749022 289.129236 199.358397 283.410486 C 205.019856 277.639652 207.853189 271.11361 207.853189 263.827151 C 207.853189 256.545901 205.181314 249.993817 199.842772 244.165692 C 194.556313 238.285483 187.650063 235.342774 179.129229 235.342774 C 170.660479 235.342774 163.889645 238.337566 158.816728 244.32715 Z M 363.608408 352.353199 C 341.332365 352.353199 322.827155 343.91049 308.097988 327.025072 C 293.426112 310.087571 286.092778 289.478195 286.092778 265.202151 L 286.092778 207.186523 C 286.092778 201.842772 286.254236 197.962564 286.577153 195.53548 C 286.90007 193.108397 287.842778 190.249021 289.405278 186.957355 C 292.483403 180.967771 301.08757 177.972979 315.222988 177.972979 C 330.702156 177.972979 339.764656 182.181313 342.41049 190.59798 C 343.759448 194.103188 344.431323 199.743814 344.431323 207.509439 L 344.431323 265.530276 C 344.431323 274.592777 347.019865 281.655277 352.202157 286.728194 C 357.379241 291.801111 364.337575 294.332362 373.077159 294.332362 C 381.816742 294.332362 388.884451 291.691736 394.275077 286.405278 C 399.728202 281.061527 402.45216 274.103194 402.45216 265.530276 L 402.45216 206.863606 C 402.45216 201.738606 402.613619 197.905272 402.936536 195.374022 C 403.259452 192.837563 404.311536 189.920896 406.092786 186.634438 C 408.952161 180.858396 417.446953 177.972979 431.582371 177.972979 C 445.499038 177.972979 453.993831 180.967771 457.071956 186.957355 C 458.634456 190.249021 459.577164 193.186522 459.900081 195.775063 C 460.228206 198.311522 460.389664 202.113606 460.389664 207.186523 L 460.389664 324.514655 C 460.389664 329.374031 460.228206 333.066739 459.900081 335.603198 C 459.577164 338.139656 458.525081 340.94174 456.743831 344.019865 C 453.457372 349.790699 444.957372 352.676115 431.259454 352.676115 C 417.76987 352.676115 409.488619 350.03549 406.415702 344.743823 C 404.202161 340.967781 403.097994 336.436531 403.097994 331.150072 C 402.181327 332.660489 400.186535 334.874031 397.10841 337.785489 C 394.035493 340.644865 391.040701 343.071948 388.129243 345.071948 C 380.629242 349.926115 372.457367 352.353199 363.608408 352.353199 Z M 363.608408 352.353199 " stroke="#800000" stroke-width="16.572451" stroke-opacity="1" stroke-miterlimit="4"/><g fill="#ff5757" fill-opacity="1"><g transform="translate(39.836677, 246.55932)"><g><path d="M 9.9375 35.546875 L 9.9375 -109.625 C 9.9375 -113.4375 10.0625 -116.253906 10.3125 -118.078125 C 10.5625 -119.898438 11.265625 -121.96875 12.421875 -124.28125 C 14.742188 -128.757812 20.296875 -131 29.078125 -131 C 37.867188 -131 43.796875 -129.878906 46.859375 -127.640625 C 49.921875 -125.398438 51.703125 -122.128906 52.203125 -117.828125 C 58.492188 -126.441406 68.394531 -130.75 81.90625 -130.75 C 95.414062 -130.75 108.21875 -124.367188 120.3125 -111.609375 C 132.40625 -98.847656 138.453125 -84.015625 138.453125 -67.109375 C 138.453125 -50.210938 132.445312 -35.382812 120.4375 -22.625 C 108.425781 -9.863281 95.625 -3.484375 82.03125 -3.484375 C 68.4375 -3.484375 58.578125 -7.296875 52.453125 -14.921875 L 52.453125 35.296875 C 52.453125 39.109375 52.328125 41.925781 52.078125 43.75 C 51.828125 45.570312 51.078125 47.679688 49.828125 50.078125 C 48.585938 52.484375 46.476562 54.179688 43.5 55.171875 C 40.519531 56.171875 36.457031 56.671875 31.3125 56.671875 C 26.175781 56.671875 22.078125 56.171875 19.015625 55.171875 C 15.953125 54.179688 13.796875 52.523438 12.546875 50.203125 C 11.304688 47.890625 10.5625 45.820312 10.3125 44 C 10.0625 42.175781 9.9375 39.359375 9.9375 35.546875 Z M 59.15625 -81.53125 C 55.34375 -77.0625 53.4375 -72.171875 53.4375 -66.859375 C 53.4375 -61.554688 55.382812 -56.707031 59.28125 -52.3125 C 63.175781 -47.925781 68.148438 -45.734375 74.203125 -45.734375 C 80.253906 -45.734375 85.390625 -47.890625 89.609375 -52.203125 C 93.835938 -56.515625 95.953125 -61.40625 95.953125 -66.875 C 95.953125 -72.34375 93.960938 -77.269531 89.984375 -81.65625 C 86.003906 -86.050781 80.820312 -88.25 74.4375 -88.25 C 68.0625 -88.25 62.96875 -86.007812 59.15625 -81.53125 Z M 59.15625 -81.53125 "/></g></g></g><g fill="#ff5757" fill-opacity="1"><g transform="translate(184.509995, 246.55932)"><g><path d="M 68.109375 -0.5 C 51.367188 -0.5 37.488281 -6.835938 26.46875 -19.515625 C 15.445312 -32.191406 9.9375 -47.644531 9.9375 -65.875 L 9.9375 -109.375 C 9.9375 -113.351562 10.0625 -116.253906 10.3125 -118.078125 C 10.5625 -119.898438 11.265625 -122.050781 12.421875 -124.53125 C 14.742188 -129.007812 21.207031 -131.25 31.8125 -131.25 C 43.414062 -131.25 50.210938 -128.097656 52.203125 -121.796875 C 53.191406 -119.148438 53.6875 -114.925781 53.6875 -109.125 L 53.6875 -65.625 C 53.6875 -58.832031 55.632812 -53.53125 59.53125 -49.71875 C 63.425781 -45.90625 68.644531 -44 75.1875 -44 C 81.738281 -44 87.039062 -45.988281 91.09375 -49.96875 C 95.15625 -53.945312 97.1875 -59.164062 97.1875 -65.625 L 97.1875 -109.625 C 97.1875 -113.4375 97.3125 -116.296875 97.5625 -118.203125 C 97.8125 -120.109375 98.597656 -122.300781 99.921875 -124.78125 C 102.078125 -129.09375 108.457031 -131.25 119.0625 -131.25 C 129.507812 -131.25 135.890625 -129.007812 138.203125 -124.53125 C 139.367188 -122.050781 140.070312 -119.859375 140.3125 -117.953125 C 140.5625 -116.046875 140.6875 -113.1875 140.6875 -109.375 L 140.6875 -21.375 C 140.6875 -17.726562 140.5625 -14.953125 140.3125 -13.046875 C 140.070312 -11.140625 139.285156 -9.03125 137.953125 -6.71875 C 135.472656 -2.40625 129.097656 -0.25 118.828125 -0.25 C 108.710938 -0.25 102.492188 -2.238281 100.171875 -6.21875 C 98.515625 -9.03125 97.6875 -12.425781 97.6875 -16.40625 C 97.03125 -15.25 95.539062 -13.59375 93.21875 -11.4375 C 90.894531 -9.28125 88.65625 -7.457031 86.5 -5.96875 C 80.863281 -2.320312 74.734375 -0.5 68.109375 -0.5 Z M 68.109375 -0.5 "/></g></g></g></svg>