<svg xmlns="http://www.w3.org/2000/svg" xmlns:xlink="http://www.w3.org/1999/xlink" width="500" zoomAndPan="magnify" viewBox="0 0 375 374.999991" height="500" preserveAspectRatio="xMidYMid meet" version="1.0"><defs><g/></defs><path stroke-linecap="butt" transform="matrix(0.75, 0, 0, 0.75, -20.104726, -18.190733)" fill="none" stroke-linejoin="miter" d="M 234.191733 180.32203 C 238.400066 181.670989 241.879233 183.936614 244.629233 187.118906 C 247.384442 190.301198 248.759442 195.426198 248.759442 202.493907 C 248.759442 209.561616 246.655275 217.301199 242.446942 225.717867 C 238.290691 234.129325 232.222983 238.337659 224.238607 238.337659 C 220.301107 238.337659 216.499023 237.447034 212.832356 235.670992 C 209.160481 233.889742 204.332356 232.999117 198.34798 232.999117 C 192.41048 232.999117 186.858396 235.103284 181.676104 239.311617 C 176.499021 243.519951 173.910479 248.58766 173.910479 254.52516 L 173.910479 324.191831 C 173.910479 329.264748 173.722979 333.066832 173.34277 335.60329 C 173.019854 338.139749 171.993812 341.077249 170.269854 344.420999 C 166.920895 350.13975 158.290686 352.999125 144.374019 352.999125 C 133.801101 352.999125 126.196934 351.113708 121.556309 347.337666 C 117.993808 344.259541 115.999017 339.514749 115.566725 333.092874 C 115.566725 330.88454 115.566725 327.670998 115.566725 323.462665 L 115.566725 207.186615 C 115.566725 202.113698 115.728183 198.311615 116.0511 195.775156 C 116.374017 193.186614 117.321933 190.353281 118.884434 187.280364 C 121.95735 181.29078 130.566726 178.295988 144.696935 178.295988 C 157.967769 178.295988 166.24902 180.858489 169.540687 185.983489 C 172.019854 189.493906 173.259437 193.134531 173.259437 196.910573 C 174.342771 195.342865 175.931312 193.457448 178.035479 191.243906 C 180.139646 189.035573 184.618813 186.066822 191.467772 182.342864 C 198.321939 178.566822 204.332356 176.681405 209.514648 176.681405 C 214.691731 176.681405 219.035482 176.94703 222.54069 177.488697 C 226.103191 178.030363 229.983399 178.973072 234.191733 180.32203 Z M 380.400076 196.910573 C 381.696951 184.504322 390.410493 178.295988 406.535494 178.295988 C 415.170911 178.295988 421.587578 178.973072 425.795912 180.32203 C 430.004246 181.670989 432.915704 183.988697 434.535496 187.280364 C 436.207371 190.572031 437.207371 193.509531 437.530288 196.098073 C 437.853204 198.634531 438.014663 202.436615 438.014663 207.509532 L 438.014663 323.462665 C 438.014663 328.587665 437.853204 332.420999 437.530288 334.957457 C 437.207371 337.488707 436.259454 340.405374 434.696954 343.691833 C 431.624037 349.467875 424.071954 352.353292 412.040703 352.353292 C 400.009452 352.353292 391.946951 350.868916 387.847993 347.900166 C 383.743826 344.879333 381.374034 340.509541 380.722992 334.795999 C 372.525075 346.499125 358.879241 352.353292 339.780281 352.353292 C 320.681322 352.353292 302.936529 343.639749 286.535486 326.217873 C 270.191735 308.738705 262.01986 288.452246 262.01986 265.363703 C 262.01986 242.275159 270.243818 222.077241 286.696945 204.759532 C 303.207362 187.389739 321.275072 178.702238 340.915698 178.702238 C 348.467782 178.702238 355.316741 180.025155 361.467783 182.66578 C 367.670908 185.311614 371.983408 187.790781 374.4157 190.113698 C 376.842784 192.431406 378.837576 194.697031 380.400076 196.910573 Z M 320.035488 265.853286 C 320.035488 273.134536 322.894864 279.71787 328.613614 285.592871 C 334.384448 291.420996 341.342781 294.332454 349.488615 294.332454 C 357.691741 294.332454 364.488616 291.368913 369.88445 285.431412 C 375.332367 279.447037 378.056326 272.863703 378.056326 265.691828 C 378.056326 258.514744 375.436534 251.827243 370.207367 245.624118 C 365.025075 239.415784 358.066741 236.316826 349.327157 236.316826 C 340.644865 236.316826 333.577156 239.415784 328.129239 245.624118 C 322.733405 251.827243 320.035488 258.566827 320.035488 265.853286 Z M 320.035488 265.853286 " stroke="#0e0069" stroke-width="16.572451" stroke-opacity="1" stroke-miterlimit="4"/><g fill="#7668d2" fill-opacity="1"><g transform="translate(56.617926, 246.55925)"><g><path d="M 98.9375 -129.5 C 102.082031 -128.507812 104.691406 -126.8125 106.765625 -124.40625 C 108.835938 -122.007812 109.875 -118.160156 109.875 -112.859375 C 109.875 -107.554688 108.296875 -101.753906 105.140625 -95.453125 C 101.992188 -89.160156 97.441406 -86.015625 91.484375 -86.015625 C 88.492188 -86.015625 85.628906 -86.675781 82.890625 -88 C 80.160156 -89.320312 76.554688 -89.984375 72.078125 -89.984375 C 67.609375 -89.984375 63.425781 -88.410156 59.53125 -85.265625 C 55.632812 -82.117188 53.6875 -78.304688 53.6875 -73.828125 L 53.6875 -21.625 C 53.6875 -17.8125 53.5625 -14.953125 53.3125 -13.046875 C 53.070312 -11.140625 52.285156 -8.945312 50.953125 -6.46875 C 48.472656 -2.15625 42.007812 0 31.5625 0 C 23.613281 0 17.898438 -1.40625 14.421875 -4.21875 C 11.765625 -6.539062 10.269531 -10.109375 9.9375 -14.921875 C 9.9375 -16.578125 9.9375 -18.976562 9.9375 -22.125 L 9.9375 -109.375 C 9.9375 -113.1875 10.0625 -116.046875 10.3125 -117.953125 C 10.5625 -119.859375 11.265625 -121.96875 12.421875 -124.28125 C 14.742188 -128.757812 21.207031 -131 31.8125 -131 C 41.757812 -131 47.976562 -129.09375 50.46875 -125.28125 C 52.289062 -122.632812 53.203125 -119.898438 53.203125 -117.078125 C 54.023438 -118.242188 55.222656 -119.65625 56.796875 -121.3125 C 58.367188 -122.96875 61.722656 -125.203125 66.859375 -128.015625 C 72.003906 -130.835938 76.519531 -132.25 80.40625 -132.25 C 84.300781 -132.25 87.578125 -132.039062 90.234375 -131.625 C 92.890625 -131.207031 95.789062 -130.5 98.9375 -129.5 Z M 98.9375 -129.5 "/></g></g></g><g fill="#7668d2" fill-opacity="1"><g transform="translate(170.218806, 246.55925)"><g><path d="M 94.953125 -117.078125 C 95.953125 -126.359375 102.5 -131 114.59375 -131 C 121.050781 -131 125.851562 -130.5 129 -129.5 C 132.15625 -128.507812 134.351562 -126.769531 135.59375 -124.28125 C 136.84375 -121.800781 137.585938 -119.609375 137.828125 -117.703125 C 138.078125 -115.796875 138.203125 -112.9375 138.203125 -109.125 L 138.203125 -22.125 C 138.203125 -18.3125 138.078125 -15.453125 137.828125 -13.546875 C 137.585938 -11.640625 136.882812 -9.441406 135.71875 -6.953125 C 133.40625 -2.648438 127.734375 -0.5 118.703125 -0.5 C 109.671875 -0.5 103.617188 -1.613281 100.546875 -3.84375 C 97.484375 -6.082031 95.703125 -9.359375 95.203125 -13.671875 C 89.078125 -4.890625 78.84375 -0.5 64.5 -0.5 C 50.164062 -0.5 36.867188 -7.039062 24.609375 -20.125 C 12.347656 -33.21875 6.21875 -48.421875 6.21875 -65.734375 C 6.21875 -83.054688 12.390625 -98.222656 24.734375 -111.234375 C 37.078125 -124.242188 50.625 -130.75 65.375 -130.75 C 71.007812 -130.75 76.144531 -129.753906 80.78125 -127.765625 C 85.425781 -125.773438 88.660156 -123.910156 90.484375 -122.171875 C 92.304688 -120.429688 93.796875 -118.734375 94.953125 -117.078125 Z M 49.71875 -65.375 C 49.71875 -59.90625 51.867188 -54.972656 56.171875 -50.578125 C 60.484375 -46.191406 65.703125 -44 71.828125 -44 C 77.960938 -44 83.0625 -46.234375 87.125 -50.703125 C 91.1875 -55.179688 93.21875 -60.113281 93.21875 -65.5 C 93.21875 -70.882812 91.269531 -75.894531 87.375 -80.53125 C 83.476562 -85.175781 78.253906 -87.5 71.703125 -87.5 C 65.160156 -87.5 59.859375 -85.175781 55.796875 -80.53125 C 51.742188 -75.894531 49.71875 -70.84375 49.71875 -65.375 Z M 49.71875 -65.375 "/></g></g></g></svg>