<svg xmlns="http://www.w3.org/2000/svg" xmlns:xlink="http://www.w3.org/1999/xlink" width="500" zoomAndPan="magnify" viewBox="0 0 375 374.999991" height="500" preserveAspectRatio="xMidYMid meet" version="1.0"><defs><g/></defs><path stroke-linecap="butt" transform="matrix(0.75, 0, 0, 0.75, -20.104726, -18.190722)" fill="none" stroke-linejoin="miter" d="M 238.004233 180.322016 C 242.212567 181.670974 245.691734 183.936599 248.441734 187.118891 C 251.196942 190.301183 252.571942 195.426183 252.571942 202.493892 C 252.571942 209.561601 250.467776 217.301185 246.259442 225.717852 C 242.103192 234.129311 236.035483 238.337644 228.051107 238.337644 C 224.113607 238.337644 220.311524 237.447019 216.644857 235.670978 C 212.972981 233.889727 208.144856 232.999102 202.160481 232.999102 C 196.22298 232.999102 190.670897 235.103269 185.488605 239.311603 C 180.311521 243.519936 177.722979 248.587645 177.722979 254.525145 L 177.722979 324.191817 C 177.722979 329.264734 177.535479 333.066817 177.155271 335.603276 C 176.832354 338.139734 175.806312 341.077234 174.082354 344.420985 C 170.733395 350.139735 162.103186 352.99911 148.186519 352.99911 C 137.613601 352.99911 130.009434 351.113693 125.368809 347.337652 C 121.806309 344.259526 119.811517 339.514734 119.379225 333.092859 C 119.379225 330.884525 119.379225 327.670984 119.379225 323.46265 L 119.379225 207.186601 C 119.379225 202.113684 119.540684 198.3116 119.8636 195.775142 C 120.186517 193.1866 121.134434 190.353266 122.696934 187.280349 C 125.769851 181.290766 134.379226 178.295974 148.509435 178.295974 C 161.78027 178.295974 170.06152 180.858474 173.353187 185.983474 C 175.832354 189.493891 177.071937 193.134516 177.071937 196.910558 C 178.155271 195.34285 179.743813 193.457433 181.847979 191.243891 C 183.952146 189.035558 188.431313 186.066808 195.280272 182.342849 C 202.134439 178.566807 208.144856 176.68139 213.327148 176.68139 C 218.504232 176.68139 222.847982 176.947015 226.353191 177.488682 C 229.915691 178.030349 233.795899 178.973057 238.004233 180.322016 Z M 439.238621 244.811603 C 439.238621 258.405354 435.868829 268.467855 429.124037 274.993897 C 422.379245 281.467856 414.910495 284.707439 406.707369 284.707439 L 328.139656 284.707439 C 328.139656 290.910564 331.780281 296.11369 339.061531 300.322023 C 346.400073 304.530357 353.707366 306.634524 360.988616 306.634524 C 373.827159 306.634524 383.889659 305.285565 391.17091 302.587649 L 394.811535 301.295982 C 400.103202 298.86369 404.525077 297.650148 408.082369 297.650148 C 415.150078 297.650148 421.217787 302.61369 426.290704 312.540774 C 429.150079 318.530358 430.582371 323.629317 430.582371 327.832442 C 430.582371 347.473068 407.061536 357.290777 360.019866 357.290777 C 343.676115 357.290777 329.134447 354.483485 316.40528 348.87411 C 303.728196 343.207443 293.827153 335.738692 286.707361 326.457442 C 272.790694 308.603274 265.83236 288.613689 265.83236 266.499105 C 265.83236 238.660561 274.837569 216.41056 292.858403 199.743892 C 310.874029 183.019932 333.368823 174.655349 360.342783 174.655349 C 391.035493 174.655349 413.561536 185.499099 427.910495 207.186601 C 435.462579 218.676185 439.238621 231.217852 439.238621 244.811603 Z M 369.243825 254.525145 C 377.660492 254.525145 381.868826 250.988687 381.868826 243.920978 C 381.868826 238.853269 379.926117 234.780352 376.0407 231.702227 C 372.212575 228.62931 366.681325 227.092852 359.452158 227.092852 C 352.280282 227.092852 345.155282 230.030352 338.092781 235.910561 C 331.025072 241.738686 327.488614 247.941812 327.488614 254.525145 Z M 369.243825 254.525145 " stroke="#0e0069" stroke-width="16.572451" stroke-opacity="1" stroke-miterlimit="4"/><g fill="#7668d2" fill-opacity="1"><g transform="translate(59.4773, 246.559261)"><g><path d="M 98.9375 -129.5 C 102.082031 -128.507812 104.691406 -126.8125 106.765625 -124.40625 C 108.835938 -122.007812 109.875 -118.160156 109.875 -112.859375 C 109.875 -107.554688 108.296875 -101.753906 105.140625 -95.453125 C 101.992188 -89.160156 97.441406 -86.015625 91.484375 -86.015625 C 88.492188 -86.015625 85.628906 -86.675781 82.890625 -88 C 80.160156 -89.320312 76.554688 -89.984375 72.078125 -89.984375 C 67.609375 -89.984375 63.425781 -88.410156 59.53125 -85.265625 C 55.632812 -82.117188 53.6875 -78.304688 53.6875 -73.828125 L 53.6875 -21.625 C 53.6875 -17.8125 53.5625 -14.953125 53.3125 -13.046875 C 53.070312 -11.140625 52.285156 -8.945312 50.953125 -6.46875 C 48.472656 -2.15625 42.007812 0 31.5625 0 C 23.613281 0 17.898438 -1.40625 14.421875 -4.21875 C 11.765625 -6.539062 10.269531 -10.109375 9.9375 -14.921875 C 9.9375 -16.578125 9.9375 -18.976562 9.9375 -22.125 L 9.9375 -109.375 C 9.9375 -113.1875 10.0625 -116.046875 10.3125 -117.953125 C 10.5625 -119.859375 11.265625 -121.96875 12.421875 -124.28125 C 14.742188 -128.757812 21.207031 -131 31.8125 -131 C 41.757812 -131 47.976562 -129.09375 50.46875 -125.28125 C 52.289062 -122.632812 53.203125 -119.898438 53.203125 -117.078125 C 54.023438 -118.242188 55.222656 -119.65625 56.796875 -121.3125 C 58.367188 -122.96875 61.722656 -125.203125 66.859375 -128.015625 C 72.003906 -130.835938 76.519531 -132.25 80.40625 -132.25 C 84.300781 -132.25 87.578125 -132.039062 90.234375 -131.625 C 92.890625 -131.207031 95.789062 -130.5 98.9375 -129.5 Z M 98.9375 -129.5 "/></g></g></g><g fill="#7668d2" fill-opacity="1"><g transform="translate(173.078181, 246.559261)"><g><path d="M 136.21875 -81.15625 C 136.21875 -70.96875 133.691406 -63.425781 128.640625 -58.53125 C 123.585938 -53.644531 117.992188 -51.203125 111.859375 -51.203125 L 52.953125 -51.203125 C 52.953125 -46.566406 55.6875 -42.671875 61.15625 -39.515625 C 66.625 -36.367188 72.09375 -34.796875 77.5625 -34.796875 C 87.164062 -34.796875 94.703125 -35.789062 100.171875 -37.78125 L 102.90625 -38.78125 C 106.882812 -40.601562 110.203125 -41.515625 112.859375 -41.515625 C 118.160156 -41.515625 122.71875 -37.785156 126.53125 -30.328125 C 128.675781 -25.847656 129.75 -22.035156 129.75 -18.890625 C 129.75 -4.140625 112.101562 3.234375 76.8125 3.234375 C 64.550781 3.234375 53.65625 1.117188 44.125 -3.109375 C 34.59375 -7.335938 27.175781 -12.929688 21.875 -19.890625 C 11.4375 -33.304688 6.21875 -48.300781 6.21875 -64.875 C 6.21875 -85.757812 12.96875 -102.457031 26.46875 -114.96875 C 39.976562 -127.476562 56.84375 -133.734375 77.0625 -133.734375 C 100.09375 -133.734375 116.992188 -125.613281 127.765625 -109.375 C 133.398438 -100.757812 136.21875 -91.351562 136.21875 -81.15625 Z M 83.765625 -73.828125 C 90.066406 -73.828125 93.21875 -76.476562 93.21875 -81.78125 C 93.21875 -85.59375 91.765625 -88.65625 88.859375 -90.96875 C 85.960938 -93.289062 81.820312 -94.453125 76.4375 -94.453125 C 71.050781 -94.453125 65.707031 -92.253906 60.40625 -87.859375 C 55.101562 -83.472656 52.453125 -78.796875 52.453125 -73.828125 Z M 83.765625 -73.828125 "/></g></g></g></svg>