<svg xmlns="http://www.w3.org/2000/svg" xmlns:xlink="http://www.w3.org/1999/xlink" width="500" zoomAndPan="magnify" viewBox="0 0 375 374.999991" height="500" preserveAspectRatio="xMidYMid meet" version="1.0"><defs><g/></defs><path stroke-linecap="butt" transform="matrix(0.75, 0, 0, 0.75, -20.104726, -2.774707)" fill="none" stroke-linejoin="miter" d="M 290.691736 180.319413 C 294.90007 181.668371 298.379237 183.933996 301.129237 187.116288 C 303.884446 190.29858 305.259446 195.42358 305.259446 202.491289 C 305.259446 209.558998 303.155279 217.298582 298.946945 225.715249 C 294.790695 234.131916 288.722986 238.34025 280.738611 238.34025 C 276.801111 238.34025 272.999027 237.449625 269.33236 235.668375 C 265.660485 233.887124 260.83236 232.996499 254.847984 232.996499 C 248.910484 232.996499 243.3584 235.100666 238.176108 239.309 C 232.999024 243.517333 230.410483 248.59025 230.410483 254.522543 L 230.410483 324.194422 C 230.410483 329.262131 230.222983 333.069423 229.842774 335.600673 C 229.519857 338.137131 228.493816 341.07984 226.769857 344.42359 C 223.420899 350.14234 214.79069 353.001716 200.874022 353.001716 C 190.301105 353.001716 182.696938 351.111091 178.056312 347.335049 C 174.493812 344.262132 172.49902 339.512131 172.066729 333.095464 C 172.066729 330.881923 172.066729 327.673589 172.066729 323.465255 L 172.066729 207.183998 C 172.066729 202.116289 172.228187 198.314205 172.551104 195.777747 C 172.87402 193.189205 173.821937 190.355872 175.384437 187.277746 C 178.457354 181.293371 187.06673 178.298579 201.196939 178.298579 C 214.467773 178.298579 222.749024 180.861079 226.040691 185.98608 C 228.519857 189.491288 229.759441 193.131913 229.759441 196.907955 C 230.842774 195.345455 232.431316 193.45483 234.535483 191.246497 C 236.63965 189.032955 241.118817 186.064205 247.967775 182.345454 C 254.821942 178.569413 260.83236 176.678787 266.014652 176.678787 C 271.191735 176.678787 275.535485 176.949621 279.040694 177.491287 C 282.603194 178.027746 286.483403 178.970454 290.691736 180.319413 Z M 323.535489 207.506914 C 323.535489 202.439206 323.696947 198.637122 324.019864 196.100664 C 324.34278 193.512122 325.290697 190.569413 326.853197 187.277746 C 329.926114 181.564204 338.530281 178.704829 352.665699 178.704829 C 363.2907 178.704829 370.816742 180.564204 375.243825 184.288163 C 378.962576 187.36108 380.962576 192.105872 381.228201 198.527747 C 381.446951 200.741289 381.551117 203.949623 381.551117 208.157956 L 381.551117 324.194422 C 381.551117 329.262131 381.363617 333.069423 380.988617 335.600673 C 380.665701 338.137131 379.639659 341.07984 377.910492 344.42359 C 374.999034 350.14234 366.4782 353.001716 352.342782 353.001716 C 338.426115 353.001716 329.926114 350.006924 326.853197 344.01734 C 325.290697 340.725673 324.34278 337.866298 324.019864 335.439214 C 323.696947 333.012131 323.535489 329.157964 323.535489 323.871505 Z M 377.993826 146.012119 C 376.374034 149.194411 373.462575 151.460036 369.254242 152.808994 C 365.045908 154.157953 359.462574 154.829828 352.504241 154.829828 C 345.545907 154.829828 339.962573 154.157953 335.754239 152.808994 C 331.597989 151.460036 328.686531 149.142327 327.014656 145.85066 C 325.34278 142.558993 324.34278 139.647535 324.019864 137.111076 C 323.696947 134.522535 323.535489 130.689201 323.535489 125.621492 C 323.535489 120.548575 323.696947 116.746492 324.019864 114.210033 C 324.34278 111.673575 325.290697 108.84545 326.853197 105.715241 C 329.926114 99.782949 338.530281 96.814199 352.665699 96.814199 C 366.582366 96.814199 374.999034 99.782949 377.910492 105.715241 C 379.639659 109.058991 380.665701 112.0017 380.988617 114.53295 C 381.363617 117.069408 381.551117 120.871492 381.551117 125.944409 C 381.551117 131.017326 381.363617 134.845451 380.988617 137.433993 C 380.665701 139.970452 379.665701 142.829827 377.993826 146.012119 Z M 377.993826 146.012119 " stroke="#0e0069" stroke-width="16.572451" stroke-opacity="1" stroke-miterlimit="4"/><g fill="#7668d2" fill-opacity="1"><g transform="translate(98.992923, 261.975276)"><g><path d="M 98.9375 -129.5 C 102.082031 -128.507812 104.691406 -126.8125 106.765625 -124.40625 C 108.835938 -122.007812 109.875 -118.160156 109.875 -112.859375 C 109.875 -107.554688 108.296875 -101.753906 105.140625 -95.453125 C 101.992188 -89.160156 97.441406 -86.015625 91.484375 -86.015625 C 88.492188 -86.015625 85.628906 -86.675781 82.890625 -88 C 80.160156 -89.320312 76.554688 -89.984375 72.078125 -89.984375 C 67.609375 -89.984375 63.425781 -88.410156 59.53125 -85.265625 C 55.632812 -82.117188 53.6875 -78.304688 53.6875 -73.828125 L 53.6875 -21.625 C 53.6875 -17.8125 53.5625 -14.953125 53.3125 -13.046875 C 53.070312 -11.140625 52.285156 -8.945312 50.953125 -6.46875 C 48.472656 -2.15625 42.007812 0 31.5625 0 C 23.613281 0 17.898438 -1.40625 14.421875 -4.21875 C 11.765625 -6.539062 10.269531 -10.109375 9.9375 -14.921875 C 9.9375 -16.578125 9.9375 -18.976562 9.9375 -22.125 L 9.9375 -109.375 C 9.9375 -113.1875 10.0625 -116.046875 10.3125 -117.953125 C 10.5625 -119.859375 11.265625 -121.96875 12.421875 -124.28125 C 14.742188 -128.757812 21.207031 -131 31.8125 -131 C 41.757812 -131 47.976562 -129.09375 50.46875 -125.28125 C 52.289062 -122.632812 53.203125 -119.898438 53.203125 -117.078125 C 54.023438 -118.242188 55.222656 -119.65625 56.796875 -121.3125 C 58.367188 -122.96875 61.722656 -125.203125 66.859375 -128.015625 C 72.003906 -130.835938 76.519531 -132.25 80.40625 -132.25 C 84.300781 -132.25 87.578125 -132.039062 90.234375 -131.625 C 92.890625 -131.207031 95.789062 -130.5 98.9375 -129.5 Z M 98.9375 -129.5 "/></g></g></g><g fill="#7668d2" fill-opacity="1"><g transform="translate(212.593803, 261.975276)"><g><path d="M 9.9375 -109.125 C 9.9375 -112.9375 10.0625 -115.796875 10.3125 -117.703125 C 10.5625 -119.609375 11.265625 -121.800781 12.421875 -124.28125 C 14.742188 -128.59375 21.207031 -130.75 31.8125 -130.75 C 39.769531 -130.75 45.40625 -129.34375 48.71875 -126.53125 C 51.539062 -124.207031 53.035156 -120.644531 53.203125 -115.84375 C 53.359375 -114.1875 53.4375 -111.78125 53.4375 -108.625 L 53.4375 -21.625 C 53.4375 -17.8125 53.3125 -14.953125 53.0625 -13.046875 C 52.820312 -11.140625 52.035156 -8.945312 50.703125 -6.46875 C 48.554688 -2.15625 42.175781 0 31.5625 0 C 21.125 0 14.742188 -2.238281 12.421875 -6.71875 C 11.265625 -9.195312 10.5625 -11.347656 10.3125 -13.171875 C 10.0625 -14.992188 9.9375 -17.894531 9.9375 -21.875 Z M 50.828125 -155.234375 C 49.585938 -152.828125 47.394531 -151.128906 44.25 -150.140625 C 41.101562 -149.148438 36.914062 -148.65625 31.6875 -148.65625 C 26.46875 -148.65625 22.285156 -149.148438 19.140625 -150.140625 C 15.992188 -151.128906 13.796875 -152.867188 12.546875 -155.359375 C 11.304688 -157.847656 10.5625 -160.046875 10.3125 -161.953125 C 10.0625 -163.859375 9.9375 -166.710938 9.9375 -170.515625 C 9.9375 -174.328125 10.0625 -177.1875 10.3125 -179.09375 C 10.5625 -181 11.265625 -183.113281 12.421875 -185.4375 C 14.742188 -189.914062 21.207031 -192.15625 31.8125 -192.15625 C 42.257812 -192.15625 48.554688 -189.914062 50.703125 -185.4375 C 52.035156 -182.945312 52.820312 -180.75 53.0625 -178.84375 C 53.3125 -176.945312 53.4375 -174.09375 53.4375 -170.28125 C 53.4375 -166.46875 53.3125 -163.609375 53.0625 -161.703125 C 52.820312 -159.796875 52.078125 -157.640625 50.828125 -155.234375 Z M 50.828125 -155.234375 "/></g></g></g></svg>