<svg xmlns="http://www.w3.org/2000/svg" xmlns:xlink="http://www.w3.org/1999/xlink" width="500" zoomAndPan="magnify" viewBox="0 0 375 374.999991" height="500" preserveAspectRatio="xMidYMid meet" version="1.0"><defs><g/></defs><path stroke-linecap="butt" transform="matrix(0.75, 0, 0, 0.75, -20.104726, -2.774648)" fill="none" stroke-linejoin="miter" d="M 233.519858 180.319335 C 237.728191 181.668293 241.207358 183.933918 243.957358 187.11621 C 246.712567 190.298502 248.087567 195.423502 248.087567 202.491211 C 248.087567 209.55892 245.9834 217.298504 241.775067 225.715171 C 237.618816 234.131838 231.551108 238.340172 223.566732 238.340172 C 219.629232 238.340172 215.827148 237.449547 212.160481 235.668296 C 208.488606 233.887046 203.660481 232.996421 197.676105 232.996421 C 191.738605 232.996421 186.186521 235.100588 181.004229 239.308922 C 175.827146 243.517255 173.238604 248.590172 173.238604 254.522464 L 173.238604 324.194344 C 173.238604 329.262053 173.051104 333.069345 172.670895 335.600595 C 172.347979 338.137053 171.321937 341.079762 169.597979 344.423512 C 166.24902 350.142262 157.618811 353.001638 143.702143 353.001638 C 133.129226 353.001638 125.525059 351.111012 120.884434 347.33497 C 117.321933 344.262054 115.327142 339.512053 114.89485 333.095386 C 114.89485 330.881844 114.89485 327.673511 114.89485 323.465177 L 114.89485 207.18392 C 114.89485 202.116211 115.056308 198.314127 115.379225 195.777669 C 115.702142 193.189127 116.650058 190.355794 118.212558 187.277668 C 121.285475 181.293293 129.894851 178.298501 144.02506 178.298501 C 157.295894 178.298501 165.577145 180.861001 168.868812 185.986002 C 171.347979 189.49121 172.587562 193.131835 172.587562 196.907877 C 173.670895 195.345377 175.259437 193.454752 177.363604 191.246419 C 179.467771 189.032877 183.946938 186.064127 190.795897 182.345376 C 197.650064 178.569334 203.660481 176.678709 208.842773 176.678709 C 214.019856 176.678709 218.363607 176.949543 221.868815 177.491209 C 225.431316 178.027668 229.311524 178.970376 233.519858 180.319335 Z M 261.347985 265.85059 C 261.347985 239.308922 270.624027 217.43392 289.18132 200.225586 C 307.795904 182.965168 329.019864 174.334959 352.863616 174.334959 C 376.707367 174.334959 397.801119 182.907876 416.14487 200.064127 C 434.483413 217.168295 443.655288 238.986005 443.655288 265.527673 C 443.655288 283.871425 438.905288 300.163092 429.410496 314.402677 C 419.920912 328.642261 408.374036 339.137053 394.780285 345.876637 C 381.186534 352.621429 367.077158 355.996429 352.462574 355.996429 C 337.894865 355.996429 323.759447 352.407887 310.061529 345.230804 C 296.410487 338.058928 284.868819 327.454761 275.42611 313.428718 C 266.040693 299.350592 261.347985 283.491216 261.347985 265.85059 Z M 330.613614 289.558925 C 337.733406 294.954759 344.936532 297.652676 352.217782 297.652676 C 359.499033 297.652676 366.780283 294.902675 374.066742 289.397467 C 381.347992 283.840175 384.988618 275.668299 384.988618 264.88184 C 384.988618 254.038089 381.561534 245.970381 374.712575 240.683922 C 367.863617 235.34538 360.441741 232.673505 352.462574 232.673505 C 344.530282 232.673505 337.139656 235.454755 330.290697 241.012047 C 323.43653 246.512047 320.009447 254.631839 320.009447 265.366215 C 320.009447 276.048507 323.545905 284.111008 330.613614 289.558925 Z M 330.613614 289.558925 " stroke="#0e0069" stroke-width="16.572451" stroke-opacity="1" stroke-miterlimit="4"/><g fill="#7668d2" fill-opacity="1"><g transform="translate(56.114019, 261.975334)"><g><path d="M 98.9375 -129.5 C 102.082031 -128.507812 104.691406 -126.8125 106.765625 -124.40625 C 108.835938 -122.007812 109.875 -118.160156 109.875 -112.859375 C 109.875 -107.554688 108.296875 -101.753906 105.140625 -95.453125 C 101.992188 -89.160156 97.441406 -86.015625 91.484375 -86.015625 C 88.492188 -86.015625 85.628906 -86.675781 82.890625 -88 C 80.160156 -89.320312 76.554688 -89.984375 72.078125 -89.984375 C 67.609375 -89.984375 63.425781 -88.410156 59.53125 -85.265625 C 55.632812 -82.117188 53.6875 -78.304688 53.6875 -73.828125 L 53.6875 -21.625 C 53.6875 -17.8125 53.5625 -14.953125 53.3125 -13.046875 C 53.070312 -11.140625 52.285156 -8.945312 50.953125 -6.46875 C 48.472656 -2.15625 42.007812 0 31.5625 0 C 23.613281 0 17.898438 -1.40625 14.421875 -4.21875 C 11.765625 -6.539062 10.269531 -10.109375 9.9375 -14.921875 C 9.9375 -16.578125 9.9375 -18.976562 9.9375 -22.125 L 9.9375 -109.375 C 9.9375 -113.1875 10.0625 -116.046875 10.3125 -117.953125 C 10.5625 -119.859375 11.265625 -121.96875 12.421875 -124.28125 C 14.742188 -128.757812 21.207031 -131 31.8125 -131 C 41.757812 -131 47.976562 -129.09375 50.46875 -125.28125 C 52.289062 -122.632812 53.203125 -119.898438 53.203125 -117.078125 C 54.023438 -118.242188 55.222656 -119.65625 56.796875 -121.3125 C 58.367188 -122.96875 61.722656 -125.203125 66.859375 -128.015625 C 72.003906 -130.835938 76.519531 -132.25 80.40625 -132.25 C 84.300781 -132.25 87.578125 -132.039062 90.234375 -131.625 C 92.890625 -131.207031 95.789062 -130.5 98.9375 -129.5 Z M 98.9375 -129.5 "/></g></g></g><g fill="#7668d2" fill-opacity="1"><g transform="translate(169.714899, 261.975334)"><g><path d="M 6.21875 -65.375 C 6.21875 -85.257812 13.175781 -101.664062 27.09375 -114.59375 C 41.007812 -127.519531 56.914062 -133.984375 74.8125 -133.984375 C 92.71875 -133.984375 108.546875 -127.5625 122.296875 -114.71875 C 136.054688 -101.875 142.9375 -85.507812 142.9375 -65.625 C 142.9375 -51.875 139.367188 -39.648438 132.234375 -28.953125 C 125.109375 -18.265625 116.453125 -10.394531 106.265625 -5.34375 C 96.078125 -0.289062 85.515625 2.234375 74.578125 2.234375 C 63.640625 2.234375 53.03125 -0.457031 42.75 -5.84375 C 32.476562 -11.226562 23.820312 -19.179688 16.78125 -29.703125 C 9.738281 -40.222656 6.21875 -52.113281 6.21875 -65.375 Z M 58.171875 -47.59375 C 63.472656 -43.539062 68.859375 -41.515625 74.328125 -41.515625 C 79.796875 -41.515625 85.265625 -43.582031 90.734375 -47.71875 C 96.203125 -51.863281 98.9375 -57.992188 98.9375 -66.109375 C 98.9375 -74.234375 96.363281 -80.285156 91.21875 -84.265625 C 86.082031 -88.242188 80.53125 -90.234375 74.5625 -90.234375 C 68.601562 -90.234375 63.054688 -88.160156 57.921875 -84.015625 C 52.785156 -79.878906 50.21875 -73.789062 50.21875 -65.75 C 50.21875 -57.707031 52.867188 -51.65625 58.171875 -47.59375 Z M 58.171875 -47.59375 "/></g></g></g></svg>