<svg xmlns="http://www.w3.org/2000/svg" xmlns:xlink="http://www.w3.org/1999/xlink" width="500" zoomAndPan="magnify" viewBox="0 0 375 374.999991" height="500" preserveAspectRatio="xMidYMid meet" version="1.0"><defs><g/></defs><path stroke-linecap="butt" transform="matrix(0.75, 0, 0, 0.75, -20.104726, -2.774648)" fill="none" stroke-linejoin="miter" d="M 232.535483 180.319335 C 236.743816 181.668293 240.222983 183.933918 242.972983 187.11621 C 245.728192 190.298502 247.103192 195.423502 247.103192 202.491211 C 247.103192 209.55892 244.999025 217.298504 240.790692 225.715171 C 236.634441 234.131838 230.566733 238.340172 222.582357 238.340172 C 218.644857 238.340172 214.842773 237.449547 211.176106 235.668296 C 207.504231 233.887046 202.676106 232.996421 196.69173 232.996421 C 190.75423 232.996421 185.202146 235.100588 180.019854 239.308922 C 174.842771 243.517255 172.254229 248.590172 172.254229 254.522464 L 172.254229 324.194344 C 172.254229 329.262053 172.066729 333.069345 171.68652 335.600595 C 171.363604 338.137053 170.337562 341.079762 168.613603 344.423512 C 165.264645 350.142262 156.634436 353.001638 142.717768 353.001638 C 132.144851 353.001638 124.540684 351.111012 119.900059 347.33497 C 116.337558 344.262054 114.342767 339.512053 113.910475 333.095386 C 113.910475 330.881844 113.910475 327.673511 113.910475 323.465177 L 113.910475 207.18392 C 113.910475 202.116211 114.071933 198.314127 114.39485 195.777669 C 114.717767 193.189127 115.665683 190.355794 117.228183 187.277668 C 120.3011 181.293293 128.910476 178.298501 143.040685 178.298501 C 156.311519 178.298501 164.59277 180.861001 167.884437 185.986002 C 170.363604 189.49121 171.603187 193.131835 171.603187 196.907877 C 172.68652 195.345377 174.275062 193.454752 176.379229 191.246419 C 178.483396 189.032877 182.962563 186.064127 189.811522 182.345376 C 196.665689 178.569334 202.676106 176.678709 207.858398 176.678709 C 213.035481 176.678709 217.379232 176.949543 220.88444 177.491209 C 224.44694 178.027668 228.327149 178.970376 232.535483 180.319335 Z M 342.900073 352.350596 C 320.618822 352.350596 302.113612 343.907887 287.389653 327.027677 C 272.717777 310.084968 265.379235 289.4808 265.379235 265.204757 L 265.379235 207.18392 C 265.379235 201.845378 265.540693 197.959961 265.86361 195.532877 C 266.186527 193.105794 267.134443 190.246419 268.696943 186.954752 C 271.76986 180.970376 280.374027 177.975584 294.509445 177.975584 C 309.993821 177.975584 319.056322 182.183918 321.696947 190.595377 C 323.045905 194.105794 323.722989 199.741211 323.722989 207.512045 L 323.722989 265.527673 C 323.722989 274.590174 326.31153 281.657883 331.488614 286.725592 C 336.665698 291.798509 343.62924 294.334967 352.363616 294.334967 C 361.103199 294.334967 368.170908 291.689134 373.566742 286.402675 C 379.014659 281.064133 381.738617 274.105799 381.738617 265.527673 L 381.738617 206.861003 C 381.738617 201.736003 381.900076 197.907877 382.222992 195.371419 C 382.545909 192.83496 383.597993 189.923502 385.379243 186.631835 C 388.238618 180.861001 396.73341 177.975584 410.868828 177.975584 C 424.785495 177.975584 433.285496 180.970376 436.358413 186.954752 C 437.920913 190.246419 438.86883 193.189127 439.191746 195.777669 C 439.514663 198.314127 439.676121 202.116211 439.676121 207.18392 L 439.676121 324.517261 C 439.676121 329.371428 439.514663 333.069345 439.191746 335.600595 C 438.86883 338.137053 437.816746 340.944345 436.035496 344.017262 C 432.743829 349.788096 424.249037 352.678721 410.545911 352.678721 C 397.061535 352.678721 388.780285 350.032887 385.702159 344.746429 C 383.493826 340.970387 382.384451 336.439136 382.384451 331.152678 C 381.467784 332.663095 379.472992 334.876636 376.400075 337.788095 C 373.32195 340.64747 370.327158 343.074554 367.4157 345.069345 C 359.915699 349.923512 351.743824 352.350596 342.900073 352.350596 Z M 342.900073 352.350596 " stroke="#0e0069" stroke-width="16.572451" stroke-opacity="1" stroke-miterlimit="4"/><g fill="#7668d2" fill-opacity="1"><g transform="translate(55.375738, 261.975334)"><g><path d="M 98.9375 -129.5 C 102.082031 -128.507812 104.691406 -126.8125 106.765625 -124.40625 C 108.835938 -122.007812 109.875 -118.160156 109.875 -112.859375 C 109.875 -107.554688 108.296875 -101.753906 105.140625 -95.453125 C 101.992188 -89.160156 97.441406 -86.015625 91.484375 -86.015625 C 88.492188 -86.015625 85.628906 -86.675781 82.890625 -88 C 80.160156 -89.320312 76.554688 -89.984375 72.078125 -89.984375 C 67.609375 -89.984375 63.425781 -88.410156 59.53125 -85.265625 C 55.632812 -82.117188 53.6875 -78.304688 53.6875 -73.828125 L 53.6875 -21.625 C 53.6875 -17.8125 53.5625 -14.953125 53.3125 -13.046875 C 53.070312 -11.140625 52.285156 -8.945312 50.953125 -6.46875 C 48.472656 -2.15625 42.007812 0 31.5625 0 C 23.613281 0 17.898438 -1.40625 14.421875 -4.21875 C 11.765625 -6.539062 10.269531 -10.109375 9.9375 -14.921875 C 9.9375 -16.578125 9.9375 -18.976562 9.9375 -22.125 L 9.9375 -109.375 C 9.9375 -113.1875 10.0625 -116.046875 10.3125 -117.953125 C 10.5625 -119.859375 11.265625 -121.96875 12.421875 -124.28125 C 14.742188 -128.757812 21.207031 -131 31.8125 -131 C 41.757812 -131 47.976562 -129.09375 50.46875 -125.28125 C 52.289062 -122.632812 53.203125 -119.898438 53.203125 -117.078125 C 54.023438 -118.242188 55.222656 -119.65625 56.796875 -121.3125 C 58.367188 -122.96875 61.722656 -125.203125 66.859375 -128.015625 C 72.003906 -130.835938 76.519531 -132.25 80.40625 -132.25 C 84.300781 -132.25 87.578125 -132.039062 90.234375 -131.625 C 92.890625 -131.207031 95.789062 -130.5 98.9375 -129.5 Z M 98.9375 -129.5 "/></g></g></g><g fill="#7668d2" fill-opacity="1"><g transform="translate(168.976618, 261.975334)"><g><path d="M 68.109375 -0.5 C 51.367188 -0.5 37.488281 -6.835938 26.46875 -19.515625 C 15.445312 -32.191406 9.9375 -47.644531 9.9375 -65.875 L 9.9375 -109.375 C 9.9375 -113.351562 10.0625 -116.253906 10.3125 -118.078125 C 10.5625 -119.898438 11.265625 -122.050781 12.421875 -124.53125 C 14.742188 -129.007812 21.207031 -131.25 31.8125 -131.25 C 43.414062 -131.25 50.210938 -128.097656 52.203125 -121.796875 C 53.191406 -119.148438 53.6875 -114.925781 53.6875 -109.125 L 53.6875 -65.625 C 53.6875 -58.832031 55.632812 -53.53125 59.53125 -49.71875 C 63.425781 -45.90625 68.644531 -44 75.1875 -44 C 81.738281 -44 87.039062 -45.988281 91.09375 -49.96875 C 95.15625 -53.945312 97.1875 -59.164062 97.1875 -65.625 L 97.1875 -109.625 C 97.1875 -113.4375 97.3125 -116.296875 97.5625 -118.203125 C 97.8125 -120.109375 98.597656 -122.300781 99.921875 -124.78125 C 102.078125 -129.09375 108.457031 -131.25 119.0625 -131.25 C 129.507812 -131.25 135.890625 -129.007812 138.203125 -124.53125 C 139.367188 -122.050781 140.070312 -119.859375 140.3125 -117.953125 C 140.5625 -116.046875 140.6875 -113.1875 140.6875 -109.375 L 140.6875 -21.375 C 140.6875 -17.726562 140.5625 -14.953125 140.3125 -13.046875 C 140.070312 -11.140625 139.285156 -9.03125 137.953125 -6.71875 C 135.472656 -2.40625 129.097656 -0.25 118.828125 -0.25 C 108.710938 -0.25 102.492188 -2.238281 100.171875 -6.21875 C 98.515625 -9.03125 97.6875 -12.425781 97.6875 -16.40625 C 97.03125 -15.25 95.539062 -13.59375 93.21875 -11.4375 C 90.894531 -9.28125 88.65625 -7.457031 86.5 -5.96875 C 80.863281 -2.320312 74.734375 -0.5 68.109375 -0.5 Z M 68.109375 -0.5 "/></g></g></g></svg>