<svg xmlns="http://www.w3.org/2000/svg" xmlns:xlink="http://www.w3.org/1999/xlink" width="500" zoomAndPan="magnify" viewBox="0 0 375 374.999991" height="500" preserveAspectRatio="xMidYMid meet" version="1.0"><defs><g/></defs><path stroke-linecap="butt" transform="matrix(0.75, 0, 0, 0.75, -20.104726, -2.774704)" fill="none" stroke-linejoin="miter" d="M 111.5511 337.38192 C 107.342766 334.741294 105.238599 330.559002 105.238599 324.840252 C 105.238599 319.069418 109.446933 310.329834 117.8636 298.6215 C 120.290684 294.90275 124.202142 293.038167 129.592768 293.038167 C 135.040685 293.038167 142.405268 295.736084 151.686519 301.131917 C 160.962561 306.527751 169.353187 309.225668 176.847979 309.225668 C 190.337563 309.225668 197.082355 306.579834 197.082355 301.293376 C 197.082355 297.085042 189.69173 293.986083 174.910479 291.986083 C 160.988603 289.991291 147.18131 284.814208 133.478184 276.449624 C 127.056309 272.46004 121.743809 266.230873 117.535475 257.762123 C 113.33235 249.23608 111.228183 239.121496 111.228183 227.413162 C 111.228183 192.460035 135.202143 174.980867 183.160479 174.980867 C 198.858397 174.980867 214.988607 178.756909 231.551108 186.308993 C 239.26465 189.814202 243.124025 194.241285 243.124025 199.579827 C 243.124025 204.866286 240.696942 211.392328 235.837566 219.163162 C 230.983399 226.876704 226.019857 230.730871 220.952149 230.730871 C 218.306315 230.730871 213.400065 229.085037 206.222981 225.798579 C 199.051105 222.454829 191.25423 220.777745 182.837563 220.777745 C 169.785479 220.777745 163.254228 223.210037 163.254228 228.064204 C 163.254228 234.699621 170.78027 239.012121 185.832355 241.012122 C 200.400064 242.522538 214.530273 246.699622 228.233399 253.553789 C 234.655274 256.678789 240.019858 262.048581 244.337567 269.652748 C 248.650067 277.262124 250.811526 286.809 250.811526 298.298584 C 250.811526 309.788168 248.650067 319.579835 244.337567 327.673586 C 240.019858 335.710044 233.978191 341.72567 226.212566 345.715253 C 212.077148 352.569421 194.353188 355.996504 173.045895 355.996504 C 151.738602 355.996504 131.238601 349.78817 111.5511 337.38192 Z M 385.696951 196.907952 C 386.988618 184.501701 395.70216 178.298576 411.832369 178.298576 C 420.462578 178.298576 426.884454 178.970451 431.087579 180.319409 C 435.295913 181.668368 438.212579 183.991285 439.827163 187.277743 C 441.499038 190.56941 442.499038 193.512118 442.821955 196.10066 C 443.144871 198.637119 443.30633 202.439202 443.30633 207.506911 L 443.30633 323.465252 C 443.30633 328.590252 443.144871 332.418378 442.821955 334.954836 C 442.499038 337.491295 441.55633 340.402753 439.988621 343.69442 C 436.915704 349.465254 429.363621 352.350671 417.33237 352.350671 C 405.306327 352.350671 397.238618 350.871504 393.13966 347.902754 C 389.040701 344.88192 386.665701 340.512128 386.019868 334.793378 C 377.816742 346.501712 364.170908 352.350671 345.071948 352.350671 C 325.978197 352.350671 308.228196 343.642337 291.832362 326.215252 C 275.483402 308.736084 267.311527 288.454833 267.311527 265.36629 C 267.311527 242.277747 275.540694 222.07462 291.99382 204.756911 C 308.499029 187.387118 326.571947 178.704826 346.207365 178.704826 C 353.759449 178.704826 360.608408 180.022534 366.75945 182.668368 C 372.962575 185.308993 377.280284 187.793368 379.707367 190.111077 C 382.134451 192.433993 384.129243 194.699619 385.696951 196.907952 Z M 325.332364 265.850665 C 325.332364 273.131915 328.191739 279.715249 333.905281 285.595458 C 339.681323 291.423583 346.639657 294.335042 354.785491 294.335042 C 362.983408 294.335042 369.780283 291.366292 375.176117 285.434 C 380.624034 279.444416 383.347993 272.86629 383.347993 265.689207 C 383.347993 258.517331 380.733409 251.824622 375.499034 245.621497 C 370.32195 239.418371 363.363616 236.314205 354.624032 236.314205 C 345.936532 236.314205 338.868823 239.418371 333.420906 245.621497 C 328.025072 251.824622 325.332364 258.569414 325.332364 265.850665 Z M 325.332364 265.850665 " stroke="#00387b" stroke-width="16.572451" stroke-opacity="1" stroke-miterlimit="4"/><g fill="#4b99f5" fill-opacity="1"><g transform="translate(52.633551, 261.975278)"><g><path d="M 10.9375 -11.6875 C 7.789062 -13.675781 6.21875 -16.820312 6.21875 -21.125 C 6.21875 -25.4375 9.363281 -31.984375 15.65625 -40.765625 C 17.476562 -43.585938 20.421875 -45 24.484375 -45 C 28.546875 -45 34.054688 -42.96875 41.015625 -38.90625 C 47.972656 -34.84375 54.269531 -32.8125 59.90625 -32.8125 C 70.019531 -32.8125 75.078125 -34.800781 75.078125 -38.78125 C 75.078125 -41.925781 69.523438 -44.242188 58.421875 -45.734375 C 47.972656 -47.222656 37.613281 -51.117188 27.34375 -57.421875 C 22.539062 -60.398438 18.5625 -65.078125 15.40625 -71.453125 C 12.257812 -77.835938 10.6875 -85.425781 10.6875 -94.21875 C 10.6875 -120.394531 28.664062 -133.484375 64.625 -133.484375 C 76.394531 -133.484375 88.492188 -130.664062 100.921875 -125.03125 C 106.722656 -122.382812 109.625 -119.070312 109.625 -115.09375 C 109.625 -111.113281 107.800781 -106.222656 104.15625 -100.421875 C 100.507812 -94.617188 96.78125 -91.71875 92.96875 -91.71875 C 90.976562 -91.71875 87.289062 -92.960938 81.90625 -95.453125 C 76.519531 -97.941406 70.675781 -99.1875 64.375 -99.1875 C 54.601562 -99.1875 49.71875 -97.363281 49.71875 -93.71875 C 49.71875 -88.738281 55.351562 -85.503906 66.625 -84.015625 C 77.5625 -82.859375 88.164062 -79.710938 98.4375 -74.578125 C 103.238281 -72.253906 107.253906 -68.234375 110.484375 -62.515625 C 113.722656 -56.796875 115.34375 -49.628906 115.34375 -41.015625 C 115.34375 -32.398438 113.722656 -25.066406 110.484375 -19.015625 C 107.253906 -12.960938 102.742188 -8.445312 96.953125 -5.46875 C 86.335938 -0.332031 73.035156 2.234375 57.046875 2.234375 C 41.054688 2.234375 25.6875 -2.40625 10.9375 -11.6875 Z M 10.9375 -11.6875 "/></g></g></g><g fill="#4b99f5" fill-opacity="1"><g transform="translate(174.188944, 261.975278)"><g><path d="M 94.953125 -117.078125 C 95.953125 -126.359375 102.5 -131 114.59375 -131 C 121.050781 -131 125.851562 -130.5 129 -129.5 C 132.15625 -128.507812 134.351562 -126.769531 135.59375 -124.28125 C 136.84375 -121.800781 137.585938 -119.609375 137.828125 -117.703125 C 138.078125 -115.796875 138.203125 -112.9375 138.203125 -109.125 L 138.203125 -22.125 C 138.203125 -18.3125 138.078125 -15.453125 137.828125 -13.546875 C 137.585938 -11.640625 136.882812 -9.441406 135.71875 -6.953125 C 133.40625 -2.648438 127.734375 -0.5 118.703125 -0.5 C 109.671875 -0.5 103.617188 -1.613281 100.546875 -3.84375 C 97.484375 -6.082031 95.703125 -9.359375 95.203125 -13.671875 C 89.078125 -4.890625 78.84375 -0.5 64.5 -0.5 C 50.164062 -0.5 36.867188 -7.039062 24.609375 -20.125 C 12.347656 -33.21875 6.21875 -48.421875 6.21875 -65.734375 C 6.21875 -83.054688 12.390625 -98.222656 24.734375 -111.234375 C 37.078125 -124.242188 50.625 -130.75 65.375 -130.75 C 71.007812 -130.75 76.144531 -129.753906 80.78125 -127.765625 C 85.425781 -125.773438 88.660156 -123.910156 90.484375 -122.171875 C 92.304688 -120.429688 93.796875 -118.734375 94.953125 -117.078125 Z M 49.71875 -65.375 C 49.71875 -59.90625 51.867188 -54.972656 56.171875 -50.578125 C 60.484375 -46.191406 65.703125 -44 71.828125 -44 C 77.960938 -44 83.0625 -46.234375 87.125 -50.703125 C 91.1875 -55.179688 93.21875 -60.113281 93.21875 -65.5 C 93.21875 -70.882812 91.269531 -75.894531 87.375 -80.53125 C 83.476562 -85.175781 78.253906 -87.5 71.703125 -87.5 C 65.160156 -87.5 59.859375 -85.175781 55.796875 -80.53125 C 51.742188 -75.894531 49.71875 -70.84375 49.71875 -65.375 Z M 49.71875 -65.375 "/></g></g></g></svg>