<svg xmlns="http://www.w3.org/2000/svg" xmlns:xlink="http://www.w3.org/1999/xlink" width="500" zoomAndPan="magnify" viewBox="0 0 375 374.999991" height="500" preserveAspectRatio="xMidYMid meet" version="1.0"><defs><g/></defs><path stroke-linecap="butt" transform="matrix(0.75, 0, 0, 0.75, -20.104726, -2.774707)" fill="none" stroke-linejoin="miter" d="M 115.3636 337.381923 C 111.155266 334.741298 109.0511 330.559006 109.0511 324.840255 C 109.0511 319.069422 113.259433 310.329838 121.6761 298.621504 C 124.103184 294.902753 128.014642 293.03817 133.405268 293.03817 C 138.853185 293.03817 146.217769 295.736087 155.499019 301.131921 C 164.775062 306.527754 173.165687 309.225671 180.660479 309.225671 C 194.150063 309.225671 200.894856 306.579838 200.894856 301.293379 C 200.894856 297.085045 193.50423 293.986087 178.722979 291.986087 C 164.801103 289.991295 150.993811 284.814211 137.290685 276.449627 C 130.868809 272.460044 125.556309 266.230877 121.347975 257.762126 C 117.14485 249.236084 115.040683 239.1215 115.040683 227.413166 C 115.040683 192.460038 139.014643 174.980871 186.97298 174.980871 C 202.670897 174.980871 218.801107 178.756913 235.363608 186.308996 C 243.07715 189.814205 246.936525 194.241289 246.936525 199.579831 C 246.936525 204.866289 244.509442 211.392331 239.650066 219.163165 C 234.795899 226.876707 229.832357 230.730874 224.764649 230.730874 C 222.118815 230.730874 217.212565 229.085041 210.035481 225.798582 C 202.863606 222.454832 195.06673 220.777749 186.650063 220.777749 C 173.597979 220.777749 167.066728 223.21004 167.066728 228.064207 C 167.066728 234.699625 174.592771 239.012125 189.644855 241.006917 C 204.212564 242.522542 218.342773 246.699625 232.045899 253.553792 C 238.467775 256.678793 243.832358 262.048585 248.150067 269.652752 C 252.462567 277.262127 254.624026 286.809003 254.624026 298.298587 C 254.624026 309.788171 252.462567 319.579838 248.150067 327.673589 C 243.832358 335.710048 237.790691 341.725673 230.025066 345.715257 C 215.889648 352.569424 198.165689 355.996508 176.858396 355.996508 C 155.551103 355.996508 135.051101 349.788174 115.3636 337.381923 Z M 444.530288 244.814209 C 444.530288 258.407959 441.160496 268.465252 434.415704 274.996502 C 427.67612 281.470461 420.202162 284.704836 412.004244 284.704836 L 333.431323 284.704836 C 333.431323 290.907962 337.071948 296.116295 344.353198 300.324629 C 351.69174 304.527754 358.999033 306.631921 366.285491 306.631921 C 379.124034 306.631921 389.181326 305.282963 396.467785 302.590254 L 400.10841 301.293379 C 405.394869 298.866295 409.816744 297.652754 413.379245 297.652754 C 420.446953 297.652754 426.514662 302.616296 431.582371 312.54338 C 434.441746 318.527755 435.874038 323.626714 435.874038 327.835047 C 435.874038 347.470465 412.353203 357.288174 365.311533 357.288174 C 348.967782 357.288174 334.431323 354.486091 321.696947 348.871507 C 309.019863 343.210048 299.124029 335.73609 291.999028 326.460047 C 278.082361 308.600671 271.124027 288.616295 271.124027 266.496502 C 271.124027 238.663166 280.134444 216.407957 298.15007 199.741289 C 316.170905 183.017329 338.665698 174.657954 365.63445 174.657954 C 396.332368 174.657954 418.853203 185.501705 433.202162 207.183998 C 440.754246 218.673582 444.530288 231.220458 444.530288 244.814209 Z M 374.535492 254.522543 C 382.952159 254.522543 387.160493 250.991292 387.160493 243.923583 C 387.160493 238.850666 385.217784 234.77775 381.332367 231.704833 C 377.504242 228.626707 371.972992 227.090249 364.749033 227.090249 C 357.571949 227.090249 350.452157 230.032958 343.384448 235.913166 C 336.316739 241.736083 332.785489 247.939209 332.785489 254.522543 Z M 374.535492 254.522543 " stroke="#00387b" stroke-width="16.572451" stroke-opacity="1" stroke-miterlimit="4"/><g fill="#4b99f5" fill-opacity="1"><g transform="translate(55.492926, 261.975276)"><g><path d="M 10.9375 -11.6875 C 7.789062 -13.675781 6.21875 -16.820312 6.21875 -21.125 C 6.21875 -25.4375 9.363281 -31.984375 15.65625 -40.765625 C 17.476562 -43.585938 20.421875 -45 24.484375 -45 C 28.546875 -45 34.054688 -42.96875 41.015625 -38.90625 C 47.972656 -34.84375 54.269531 -32.8125 59.90625 -32.8125 C 70.019531 -32.8125 75.078125 -34.800781 75.078125 -38.78125 C 75.078125 -41.925781 69.523438 -44.242188 58.421875 -45.734375 C 47.972656 -47.222656 37.613281 -51.117188 27.34375 -57.421875 C 22.539062 -60.398438 18.5625 -65.078125 15.40625 -71.453125 C 12.257812 -77.835938 10.6875 -85.425781 10.6875 -94.21875 C 10.6875 -120.394531 28.664062 -133.484375 64.625 -133.484375 C 76.394531 -133.484375 88.492188 -130.664062 100.921875 -125.03125 C 106.722656 -122.382812 109.625 -119.070312 109.625 -115.09375 C 109.625 -111.113281 107.800781 -106.222656 104.15625 -100.421875 C 100.507812 -94.617188 96.78125 -91.71875 92.96875 -91.71875 C 90.976562 -91.71875 87.289062 -92.960938 81.90625 -95.453125 C 76.519531 -97.941406 70.675781 -99.1875 64.375 -99.1875 C 54.601562 -99.1875 49.71875 -97.363281 49.71875 -93.71875 C 49.71875 -88.738281 55.351562 -85.503906 66.625 -84.015625 C 77.5625 -82.859375 88.164062 -79.710938 98.4375 -74.578125 C 103.238281 -72.253906 107.253906 -68.234375 110.484375 -62.515625 C 113.722656 -56.796875 115.34375 -49.628906 115.34375 -41.015625 C 115.34375 -32.398438 113.722656 -25.066406 110.484375 -19.015625 C 107.253906 -12.960938 102.742188 -8.445312 96.953125 -5.46875 C 86.335938 -0.332031 73.035156 2.234375 57.046875 2.234375 C 41.054688 2.234375 25.6875 -2.40625 10.9375 -11.6875 Z M 10.9375 -11.6875 "/></g></g></g><g fill="#4b99f5" fill-opacity="1"><g transform="translate(177.048319, 261.975276)"><g><path d="M 136.21875 -81.15625 C 136.21875 -70.96875 133.691406 -63.425781 128.640625 -58.53125 C 123.585938 -53.644531 117.992188 -51.203125 111.859375 -51.203125 L 52.953125 -51.203125 C 52.953125 -46.566406 55.6875 -42.671875 61.15625 -39.515625 C 66.625 -36.367188 72.09375 -34.796875 77.5625 -34.796875 C 87.164062 -34.796875 94.703125 -35.789062 100.171875 -37.78125 L 102.90625 -38.78125 C 106.882812 -40.601562 110.203125 -41.515625 112.859375 -41.515625 C 118.160156 -41.515625 122.71875 -37.785156 126.53125 -30.328125 C 128.675781 -25.847656 129.75 -22.035156 129.75 -18.890625 C 129.75 -4.140625 112.101562 3.234375 76.8125 3.234375 C 64.550781 3.234375 53.65625 1.117188 44.125 -3.109375 C 34.59375 -7.335938 27.175781 -12.929688 21.875 -19.890625 C 11.4375 -33.304688 6.21875 -48.300781 6.21875 -64.875 C 6.21875 -85.757812 12.96875 -102.457031 26.46875 -114.96875 C 39.976562 -127.476562 56.84375 -133.734375 77.0625 -133.734375 C 100.09375 -133.734375 116.992188 -125.613281 127.765625 -109.375 C 133.398438 -100.757812 136.21875 -91.351562 136.21875 -81.15625 Z M 83.765625 -73.828125 C 90.066406 -73.828125 93.21875 -76.476562 93.21875 -81.78125 C 93.21875 -85.59375 91.765625 -88.65625 88.859375 -90.96875 C 85.960938 -93.289062 81.820312 -94.453125 76.4375 -94.453125 C 71.050781 -94.453125 65.707031 -92.253906 60.40625 -87.859375 C 55.101562 -83.472656 52.453125 -78.796875 52.453125 -73.828125 Z M 83.765625 -73.828125 "/></g></g></g></svg>