<svg xmlns="http://www.w3.org/2000/svg" xmlns:xlink="http://www.w3.org/1999/xlink" width="500" zoomAndPan="magnify" viewBox="0 0 375 374.999991" height="500" preserveAspectRatio="xMidYMid meet" version="1.0"><defs><g/></defs><path stroke-linecap="butt" transform="matrix(0.75, 0, 0, 0.75, -20.104726, -2.774707)" fill="none" stroke-linejoin="miter" d="M 168.066728 337.381923 C 163.858395 334.741298 161.754228 330.559006 161.754228 324.840255 C 161.754228 319.069422 165.962562 310.329838 174.379229 298.621504 C 176.806312 294.902753 180.717771 293.03817 186.108396 293.03817 C 191.556313 293.03817 198.920897 295.736087 208.202148 301.131921 C 217.47819 306.527754 225.868816 309.225671 233.363608 309.225671 C 246.853192 309.225671 253.597984 306.579838 253.597984 301.293379 C 253.597984 297.085045 246.207359 293.986087 231.426108 291.986087 C 217.504232 289.991295 203.696939 284.814211 189.993813 276.449627 C 183.571938 272.460044 178.259437 266.230877 174.051104 257.762126 C 169.847979 249.236084 167.743812 239.1215 167.743812 227.413166 C 167.743812 192.460038 191.717772 174.980871 239.676108 174.980871 C 255.374026 174.980871 271.504235 178.756913 288.066736 186.308996 C 295.780278 189.814205 299.639654 194.241289 299.639654 199.579831 C 299.639654 204.866289 297.21257 211.392331 292.353195 219.163165 C 287.499028 226.876707 282.535486 230.730874 277.467777 230.730874 C 274.821944 230.730874 269.915693 229.085041 262.73861 225.798582 C 255.566734 222.454832 247.769859 220.777749 239.353191 220.777749 C 226.301107 220.777749 219.769857 223.21004 219.769857 228.064207 C 219.769857 234.699625 227.295899 239.012125 242.347983 241.006917 C 256.915693 242.522542 271.045902 246.699625 284.749028 253.553792 C 291.170903 256.678793 296.535487 262.048585 300.853195 269.652752 C 305.165696 277.262127 307.327154 286.809003 307.327154 298.298587 C 307.327154 309.788171 305.165696 319.579838 300.853195 327.673589 C 296.535487 335.710048 290.49382 341.725673 282.728194 345.715257 C 268.592777 352.569424 250.868817 355.996508 229.561524 355.996508 C 208.254231 355.996508 187.75423 349.788174 168.066728 337.381923 Z M 328.842781 207.506914 C 328.842781 202.439206 329.004239 198.637122 329.332364 196.100664 C 329.655281 193.512122 330.597989 190.569413 332.160489 187.277746 C 335.238614 181.564204 343.842782 178.704829 357.972991 178.704829 C 368.6032 178.704829 376.129242 180.564204 380.551117 184.288163 C 384.275076 187.36108 386.269868 192.105872 386.540701 198.527747 C 386.754243 200.741289 386.863618 203.949623 386.863618 208.157956 L 386.863618 324.194422 C 386.863618 329.262131 386.676118 333.069423 386.295909 335.600673 C 385.972993 338.137131 384.946951 341.07984 383.222993 344.42359 C 380.306326 350.14234 371.785492 353.001716 357.650074 353.001716 C 343.733407 353.001716 335.238614 350.006924 332.160489 344.01734 C 330.597989 340.725673 329.655281 337.866298 329.332364 335.439214 C 329.004239 333.012131 328.842781 329.157964 328.842781 323.871505 Z M 383.301118 146.012119 C 381.681326 149.194411 378.769867 151.460036 374.561534 152.808994 C 370.3532 154.157953 364.769866 154.829828 357.811533 154.829828 C 350.853199 154.829828 345.269865 154.157953 341.061531 152.808994 C 336.91049 151.460036 333.993823 149.142327 332.321948 145.85066 C 330.650072 142.558993 329.655281 139.647535 329.332364 137.111076 C 329.004239 134.522535 328.842781 130.689201 328.842781 125.621492 C 328.842781 120.548575 329.004239 116.746492 329.332364 114.210033 C 329.655281 111.673575 330.597989 108.84545 332.160489 105.715241 C 335.238614 99.782949 343.842782 96.814199 357.972991 96.814199 C 371.894867 96.814199 380.306326 99.782949 383.222993 105.715241 C 384.946951 109.058991 385.972993 112.0017 386.295909 114.53295 C 386.676118 117.069408 386.863618 120.871492 386.863618 125.944409 C 386.863618 131.017326 386.676118 134.845451 386.295909 137.433993 C 385.972993 139.970452 384.972993 142.829827 383.301118 146.012119 Z M 383.301118 146.012119 " stroke="#00387b" stroke-width="16.572451" stroke-opacity="1" stroke-miterlimit="4"/><g fill="#4b99f5" fill-opacity="1"><g transform="translate(95.020267, 261.975276)"><g><path d="M 10.9375 -11.6875 C 7.789062 -13.675781 6.21875 -16.820312 6.21875 -21.125 C 6.21875 -25.4375 9.363281 -31.984375 15.65625 -40.765625 C 17.476562 -43.585938 20.421875 -45 24.484375 -45 C 28.546875 -45 34.054688 -42.96875 41.015625 -38.90625 C 47.972656 -34.84375 54.269531 -32.8125 59.90625 -32.8125 C 70.019531 -32.8125 75.078125 -34.800781 75.078125 -38.78125 C 75.078125 -41.925781 69.523438 -44.242188 58.421875 -45.734375 C 47.972656 -47.222656 37.613281 -51.117188 27.34375 -57.421875 C 22.539062 -60.398438 18.5625 -65.078125 15.40625 -71.453125 C 12.257812 -77.835938 10.6875 -85.425781 10.6875 -94.21875 C 10.6875 -120.394531 28.664062 -133.484375 64.625 -133.484375 C 76.394531 -133.484375 88.492188 -130.664062 100.921875 -125.03125 C 106.722656 -122.382812 109.625 -119.070312 109.625 -115.09375 C 109.625 -111.113281 107.800781 -106.222656 104.15625 -100.421875 C 100.507812 -94.617188 96.78125 -91.71875 92.96875 -91.71875 C 90.976562 -91.71875 87.289062 -92.960938 81.90625 -95.453125 C 76.519531 -97.941406 70.675781 -99.1875 64.375 -99.1875 C 54.601562 -99.1875 49.71875 -97.363281 49.71875 -93.71875 C 49.71875 -88.738281 55.351562 -85.503906 66.625 -84.015625 C 77.5625 -82.859375 88.164062 -79.710938 98.4375 -74.578125 C 103.238281 -72.253906 107.253906 -68.234375 110.484375 -62.515625 C 113.722656 -56.796875 115.34375 -49.628906 115.34375 -41.015625 C 115.34375 -32.398438 113.722656 -25.066406 110.484375 -19.015625 C 107.253906 -12.960938 102.742188 -8.445312 96.953125 -5.46875 C 86.335938 -0.332031 73.035156 2.234375 57.046875 2.234375 C 41.054688 2.234375 25.6875 -2.40625 10.9375 -11.6875 Z M 10.9375 -11.6875 "/></g></g></g><g fill="#4b99f5" fill-opacity="1"><g transform="translate(216.57566, 261.975276)"><g><path d="M 9.9375 -109.125 C 9.9375 -112.9375 10.0625 -115.796875 10.3125 -117.703125 C 10.5625 -119.609375 11.265625 -121.800781 12.421875 -124.28125 C 14.742188 -128.59375 21.207031 -130.75 31.8125 -130.75 C 39.769531 -130.75 45.40625 -129.34375 48.71875 -126.53125 C 51.539062 -124.207031 53.035156 -120.644531 53.203125 -115.84375 C 53.359375 -114.1875 53.4375 -111.78125 53.4375 -108.625 L 53.4375 -21.625 C 53.4375 -17.8125 53.3125 -14.953125 53.0625 -13.046875 C 52.820312 -11.140625 52.035156 -8.945312 50.703125 -6.46875 C 48.554688 -2.15625 42.175781 0 31.5625 0 C 21.125 0 14.742188 -2.238281 12.421875 -6.71875 C 11.265625 -9.195312 10.5625 -11.347656 10.3125 -13.171875 C 10.0625 -14.992188 9.9375 -17.894531 9.9375 -21.875 Z M 50.828125 -155.234375 C 49.585938 -152.828125 47.394531 -151.128906 44.25 -150.140625 C 41.101562 -149.148438 36.914062 -148.65625 31.6875 -148.65625 C 26.46875 -148.65625 22.285156 -149.148438 19.140625 -150.140625 C 15.992188 -151.128906 13.796875 -152.867188 12.546875 -155.359375 C 11.304688 -157.847656 10.5625 -160.046875 10.3125 -161.953125 C 10.0625 -163.859375 9.9375 -166.710938 9.9375 -170.515625 C 9.9375 -174.328125 10.0625 -177.1875 10.3125 -179.09375 C 10.5625 -181 11.265625 -183.113281 12.421875 -185.4375 C 14.742188 -189.914062 21.207031 -192.15625 31.8125 -192.15625 C 42.257812 -192.15625 48.554688 -189.914062 50.703125 -185.4375 C 52.035156 -182.945312 52.820312 -180.75 53.0625 -178.84375 C 53.3125 -176.945312 53.4375 -174.09375 53.4375 -170.28125 C 53.4375 -166.46875 53.3125 -163.609375 53.0625 -161.703125 C 52.820312 -159.796875 52.078125 -157.640625 50.828125 -155.234375 Z M 50.828125 -155.234375 "/></g></g></g></svg>