<svg xmlns="http://www.w3.org/2000/svg" xmlns:xlink="http://www.w3.org/1999/xlink" width="500" zoomAndPan="magnify" viewBox="0 0 375 374.999991" height="500" preserveAspectRatio="xMidYMid meet" version="1.0"><defs><g/></defs><path stroke-linecap="butt" transform="matrix(0.75, 0, 0, 0.75, -20.104726, -2.774648)" fill="none" stroke-linejoin="miter" d="M 110.89485 337.381845 C 106.686516 334.74122 104.582349 330.558928 104.582349 324.840177 C 104.582349 319.069344 108.790683 310.32976 117.20735 298.621426 C 119.634434 294.902675 123.545892 293.038092 128.936518 293.038092 C 134.384435 293.038092 141.749018 295.736009 151.030269 301.131842 C 160.306311 306.527676 168.696937 309.225593 176.191729 309.225593 C 189.681313 309.225593 196.426105 306.579759 196.426105 301.293301 C 196.426105 297.084967 189.03548 293.986009 174.254229 291.986009 C 160.332353 289.991217 146.52506 284.814133 132.821934 276.449549 C 126.400059 272.459966 121.087559 266.230799 116.879225 257.762048 C 112.6761 249.236006 110.571933 239.121422 110.571933 227.413088 C 110.571933 192.45996 134.545893 174.980793 182.504229 174.980793 C 198.202147 174.980793 214.332356 178.756834 230.894858 186.308918 C 238.6084 189.814127 242.467775 194.24121 242.467775 199.579752 C 242.467775 204.866211 240.040691 211.392253 235.181316 219.163087 C 230.327149 226.876629 225.363607 230.730796 220.295899 230.730796 C 217.650065 230.730796 212.743815 229.090171 205.566731 225.798504 C 198.394855 222.454754 190.59798 220.777671 182.181313 220.777671 C 169.129228 220.777671 162.597978 223.209962 162.597978 228.064129 C 162.597978 234.699546 170.12402 239.012047 185.176105 241.012047 C 199.743814 242.522464 213.874023 246.699547 227.577149 253.553714 C 233.999024 256.678715 239.363608 262.048507 243.681317 269.652674 C 247.993817 277.262049 250.155275 286.808925 250.155275 298.298509 C 250.155275 309.788093 247.993817 319.57976 243.681317 327.673511 C 239.363608 335.70997 233.321941 341.725595 225.556316 345.715179 C 211.420898 352.569346 193.696938 355.996429 172.389645 355.996429 C 151.082352 355.996429 130.582351 349.788096 110.89485 337.381845 Z M 266.655277 265.85059 C 266.655277 239.308922 275.936527 217.43392 294.49382 200.225586 C 313.103196 182.965168 334.332364 174.334959 358.176116 174.334959 C 382.019867 174.334959 403.108411 182.907876 421.452162 200.064127 C 439.790705 217.168295 448.96258 238.986005 448.96258 265.527673 C 448.96258 283.871425 444.217788 300.163092 434.722996 314.402677 C 425.228204 328.642261 413.681328 339.137053 400.087577 345.876637 C 386.493826 352.621429 372.389659 355.996429 357.769866 355.996429 C 343.202157 355.996429 329.071947 352.407887 315.368821 345.230804 C 301.717779 338.058928 290.176111 327.454761 280.733402 313.428718 C 271.347985 299.350592 266.655277 283.491216 266.655277 265.85059 Z M 335.920906 289.558925 C 343.040698 294.954759 350.243824 297.652676 357.525074 297.652676 C 364.811533 297.652676 372.092783 294.902675 379.374034 289.397467 C 386.655284 283.840175 390.29591 275.668299 390.29591 264.88184 C 390.29591 254.038089 386.874034 245.970381 380.019867 240.683922 C 373.170909 235.34538 365.754241 232.673505 357.769866 232.673505 C 349.837574 232.673505 342.446948 235.454755 335.597989 241.012047 C 328.749031 246.512047 325.321947 254.631839 325.321947 265.366215 C 325.321947 276.048507 328.853197 284.111008 335.920906 289.558925 Z M 335.920906 289.558925 " stroke="#00387b" stroke-width="16.572451" stroke-opacity="1" stroke-miterlimit="4"/><g fill="#4b99f5" fill-opacity="1"><g transform="translate(52.141363, 261.975334)"><g><path d="M 10.9375 -11.6875 C 7.789062 -13.675781 6.21875 -16.820312 6.21875 -21.125 C 6.21875 -25.4375 9.363281 -31.984375 15.65625 -40.765625 C 17.476562 -43.585938 20.421875 -45 24.484375 -45 C 28.546875 -45 34.054688 -42.96875 41.015625 -38.90625 C 47.972656 -34.84375 54.269531 -32.8125 59.90625 -32.8125 C 70.019531 -32.8125 75.078125 -34.800781 75.078125 -38.78125 C 75.078125 -41.925781 69.523438 -44.242188 58.421875 -45.734375 C 47.972656 -47.222656 37.613281 -51.117188 27.34375 -57.421875 C 22.539062 -60.398438 18.5625 -65.078125 15.40625 -71.453125 C 12.257812 -77.835938 10.6875 -85.425781 10.6875 -94.21875 C 10.6875 -120.394531 28.664062 -133.484375 64.625 -133.484375 C 76.394531 -133.484375 88.492188 -130.664062 100.921875 -125.03125 C 106.722656 -122.382812 109.625 -119.070312 109.625 -115.09375 C 109.625 -111.113281 107.800781 -106.222656 104.15625 -100.421875 C 100.507812 -94.617188 96.78125 -91.71875 92.96875 -91.71875 C 90.976562 -91.71875 87.289062 -92.960938 81.90625 -95.453125 C 76.519531 -97.941406 70.675781 -99.1875 64.375 -99.1875 C 54.601562 -99.1875 49.71875 -97.363281 49.71875 -93.71875 C 49.71875 -88.738281 55.351562 -85.503906 66.625 -84.015625 C 77.5625 -82.859375 88.164062 -79.710938 98.4375 -74.578125 C 103.238281 -72.253906 107.253906 -68.234375 110.484375 -62.515625 C 113.722656 -56.796875 115.34375 -49.628906 115.34375 -41.015625 C 115.34375 -32.398438 113.722656 -25.066406 110.484375 -19.015625 C 107.253906 -12.960938 102.742188 -8.445312 96.953125 -5.46875 C 86.335938 -0.332031 73.035156 2.234375 57.046875 2.234375 C 41.054688 2.234375 25.6875 -2.40625 10.9375 -11.6875 Z M 10.9375 -11.6875 "/></g></g></g><g fill="#4b99f5" fill-opacity="1"><g transform="translate(173.696756, 261.975334)"><g><path d="M 6.21875 -65.375 C 6.21875 -85.257812 13.175781 -101.664062 27.09375 -114.59375 C 41.007812 -127.519531 56.914062 -133.984375 74.8125 -133.984375 C 92.71875 -133.984375 108.546875 -127.5625 122.296875 -114.71875 C 136.054688 -101.875 142.9375 -85.507812 142.9375 -65.625 C 142.9375 -51.875 139.367188 -39.648438 132.234375 -28.953125 C 125.109375 -18.265625 116.453125 -10.394531 106.265625 -5.34375 C 96.078125 -0.289062 85.515625 2.234375 74.578125 2.234375 C 63.640625 2.234375 53.03125 -0.457031 42.75 -5.84375 C 32.476562 -11.226562 23.820312 -19.179688 16.78125 -29.703125 C 9.738281 -40.222656 6.21875 -52.113281 6.21875 -65.375 Z M 58.171875 -47.59375 C 63.472656 -43.539062 68.859375 -41.515625 74.328125 -41.515625 C 79.796875 -41.515625 85.265625 -43.582031 90.734375 -47.71875 C 96.203125 -51.863281 98.9375 -57.992188 98.9375 -66.109375 C 98.9375 -74.234375 96.363281 -80.285156 91.21875 -84.265625 C 86.082031 -88.242188 80.53125 -90.234375 74.5625 -90.234375 C 68.601562 -90.234375 63.054688 -88.160156 57.921875 -84.015625 C 52.785156 -79.878906 50.21875 -73.789062 50.21875 -65.75 C 50.21875 -57.707031 52.867188 -51.65625 58.171875 -47.59375 Z M 58.171875 -47.59375 "/></g></g></g></svg>