<svg xmlns="http://www.w3.org/2000/svg" xmlns:xlink="http://www.w3.org/1999/xlink" width="500" zoomAndPan="magnify" viewBox="0 0 375 374.999991" height="500" preserveAspectRatio="xMidYMid meet" version="1.0"><defs><g/></defs><path stroke-linecap="butt" transform="matrix(0.75, 0, 0, 0.75, -20.104726, -2.774648)" fill="none" stroke-linejoin="miter" d="M 109.89485 337.381845 C 105.686516 334.74122 103.582349 330.558928 103.582349 324.840177 C 103.582349 319.069344 107.790683 310.32976 116.20735 298.621426 C 118.634434 294.902675 122.545892 293.038092 127.936517 293.038092 C 133.384434 293.038092 140.749018 295.736009 150.030269 301.131842 C 159.306311 306.527676 167.696937 309.225593 175.191729 309.225593 C 188.681313 309.225593 195.426105 306.579759 195.426105 301.293301 C 195.426105 297.084967 188.03548 293.986009 173.254229 291.986009 C 159.332353 289.991217 145.52506 284.814133 131.821934 276.449549 C 125.400059 272.459966 120.087559 266.230799 115.879225 257.762048 C 111.6761 249.236006 109.571933 239.121422 109.571933 227.413088 C 109.571933 192.45996 133.545893 174.980793 181.504229 174.980793 C 197.202147 174.980793 213.332356 178.756834 229.894857 186.308918 C 237.6084 189.814127 241.467775 194.24121 241.467775 199.579752 C 241.467775 204.866211 239.040691 211.392253 234.181316 219.163087 C 229.327149 226.876629 224.363607 230.730796 219.295898 230.730796 C 216.650065 230.730796 211.743815 229.090171 204.566731 225.798504 C 197.394855 222.454754 189.59798 220.777671 181.181313 220.777671 C 168.129228 220.777671 161.597978 223.209962 161.597978 228.064129 C 161.597978 234.699546 169.12402 239.012047 184.176104 241.012047 C 198.743814 242.522464 212.874023 246.699547 226.577149 253.553714 C 232.999024 256.678715 238.363608 262.048507 242.681317 269.652674 C 246.993817 277.262049 249.155275 286.808925 249.155275 298.298509 C 249.155275 309.788093 246.993817 319.57976 242.681317 327.673511 C 238.363608 335.70997 232.321941 341.725595 224.556315 345.715179 C 210.420898 352.569346 192.696938 355.996429 171.389645 355.996429 C 150.082352 355.996429 129.582351 349.788096 109.89485 337.381845 Z M 348.19174 352.350596 C 325.910489 352.350596 307.410488 343.907887 292.68132 327.027677 C 278.009444 310.084968 270.670902 289.4808 270.670902 265.204757 L 270.670902 207.18392 C 270.670902 201.845378 270.83236 197.959961 271.160485 195.532877 C 271.483402 193.105794 272.42611 190.246419 273.98861 186.954752 C 277.066736 180.970376 285.670903 177.975584 299.801112 177.975584 C 315.285488 177.975584 324.347989 182.183918 326.993822 190.595377 C 328.337572 194.105794 329.014656 199.741211 329.014656 207.512045 L 329.014656 265.527673 C 329.014656 274.590174 331.603197 281.657883 336.780281 286.725592 C 341.962573 291.798509 348.920907 294.334967 357.660491 294.334967 C 366.400075 294.334967 373.467784 291.689134 378.858409 286.402675 C 384.306326 281.064133 387.030284 274.105799 387.030284 265.527673 L 387.030284 206.861003 C 387.030284 201.736003 387.196951 197.907877 387.519868 195.371419 C 387.842785 192.83496 388.894868 189.923502 390.676118 186.631835 C 393.535493 180.861001 402.030285 177.975584 416.160495 177.975584 C 430.082371 177.975584 438.577163 180.970376 441.65008 186.954752 C 443.217788 190.246419 444.160497 193.189127 444.483413 195.777669 C 444.80633 198.314127 444.967788 202.116211 444.967788 207.18392 L 444.967788 324.517261 C 444.967788 329.371428 444.80633 333.069345 444.483413 335.600595 C 444.160497 338.137053 443.108413 340.944345 441.327163 344.017262 C 438.035496 349.788096 429.540704 352.678721 415.837578 352.678721 C 402.353202 352.678721 394.071952 350.032887 390.999035 344.746429 C 388.785493 340.970387 387.681326 336.439136 387.681326 331.152678 C 386.764659 332.663095 384.764659 334.876636 381.691742 337.788095 C 378.618826 340.64747 375.624034 343.074554 372.712575 345.069345 C 365.212575 349.923512 357.040699 352.350596 348.19174 352.350596 Z M 348.19174 352.350596 " stroke="#00387b" stroke-width="16.572451" stroke-opacity="1" stroke-miterlimit="4"/><g fill="#4b99f5" fill-opacity="1"><g transform="translate(51.391364, 261.975334)"><g><path d="M 10.9375 -11.6875 C 7.789062 -13.675781 6.21875 -16.820312 6.21875 -21.125 C 6.21875 -25.4375 9.363281 -31.984375 15.65625 -40.765625 C 17.476562 -43.585938 20.421875 -45 24.484375 -45 C 28.546875 -45 34.054688 -42.96875 41.015625 -38.90625 C 47.972656 -34.84375 54.269531 -32.8125 59.90625 -32.8125 C 70.019531 -32.8125 75.078125 -34.800781 75.078125 -38.78125 C 75.078125 -41.925781 69.523438 -44.242188 58.421875 -45.734375 C 47.972656 -47.222656 37.613281 -51.117188 27.34375 -57.421875 C 22.539062 -60.398438 18.5625 -65.078125 15.40625 -71.453125 C 12.257812 -77.835938 10.6875 -85.425781 10.6875 -94.21875 C 10.6875 -120.394531 28.664062 -133.484375 64.625 -133.484375 C 76.394531 -133.484375 88.492188 -130.664062 100.921875 -125.03125 C 106.722656 -122.382812 109.625 -119.070312 109.625 -115.09375 C 109.625 -111.113281 107.800781 -106.222656 104.15625 -100.421875 C 100.507812 -94.617188 96.78125 -91.71875 92.96875 -91.71875 C 90.976562 -91.71875 87.289062 -92.960938 81.90625 -95.453125 C 76.519531 -97.941406 70.675781 -99.1875 64.375 -99.1875 C 54.601562 -99.1875 49.71875 -97.363281 49.71875 -93.71875 C 49.71875 -88.738281 55.351562 -85.503906 66.625 -84.015625 C 77.5625 -82.859375 88.164062 -79.710938 98.4375 -74.578125 C 103.238281 -72.253906 107.253906 -68.234375 110.484375 -62.515625 C 113.722656 -56.796875 115.34375 -49.628906 115.34375 -41.015625 C 115.34375 -32.398438 113.722656 -25.066406 110.484375 -19.015625 C 107.253906 -12.960938 102.742188 -8.445312 96.953125 -5.46875 C 86.335938 -0.332031 73.035156 2.234375 57.046875 2.234375 C 41.054688 2.234375 25.6875 -2.40625 10.9375 -11.6875 Z M 10.9375 -11.6875 "/></g></g></g><g fill="#4b99f5" fill-opacity="1"><g transform="translate(172.946757, 261.975334)"><g><path d="M 68.109375 -0.5 C 51.367188 -0.5 37.488281 -6.835938 26.46875 -19.515625 C 15.445312 -32.191406 9.9375 -47.644531 9.9375 -65.875 L 9.9375 -109.375 C 9.9375 -113.351562 10.0625 -116.253906 10.3125 -118.078125 C 10.5625 -119.898438 11.265625 -122.050781 12.421875 -124.53125 C 14.742188 -129.007812 21.207031 -131.25 31.8125 -131.25 C 43.414062 -131.25 50.210938 -128.097656 52.203125 -121.796875 C 53.191406 -119.148438 53.6875 -114.925781 53.6875 -109.125 L 53.6875 -65.625 C 53.6875 -58.832031 55.632812 -53.53125 59.53125 -49.71875 C 63.425781 -45.90625 68.644531 -44 75.1875 -44 C 81.738281 -44 87.039062 -45.988281 91.09375 -49.96875 C 95.15625 -53.945312 97.1875 -59.164062 97.1875 -65.625 L 97.1875 -109.625 C 97.1875 -113.4375 97.3125 -116.296875 97.5625 -118.203125 C 97.8125 -120.109375 98.597656 -122.300781 99.921875 -124.78125 C 102.078125 -129.09375 108.457031 -131.25 119.0625 -131.25 C 129.507812 -131.25 135.890625 -129.007812 138.203125 -124.53125 C 139.367188 -122.050781 140.070312 -119.859375 140.3125 -117.953125 C 140.5625 -116.046875 140.6875 -113.1875 140.6875 -109.375 L 140.6875 -21.375 C 140.6875 -17.726562 140.5625 -14.953125 140.3125 -13.046875 C 140.070312 -11.140625 139.285156 -9.03125 137.953125 -6.71875 C 135.472656 -2.40625 129.097656 -0.25 118.828125 -0.25 C 108.710938 -0.25 102.492188 -2.238281 100.171875 -6.21875 C 98.515625 -9.03125 97.6875 -12.425781 97.6875 -16.40625 C 97.03125 -15.25 95.539062 -13.59375 93.21875 -11.4375 C 90.894531 -9.28125 88.65625 -7.457031 86.5 -5.96875 C 80.863281 -2.320312 74.734375 -0.5 68.109375 -0.5 Z M 68.109375 -0.5 "/></g></g></g></svg>