<svg xmlns="http://www.w3.org/2000/svg" xmlns:xlink="http://www.w3.org/1999/xlink" width="500" zoomAndPan="magnify" viewBox="0 0 375 374.999991" height="500" preserveAspectRatio="xMidYMid meet" version="1.0"><defs><g/></defs><path stroke-linecap="butt" transform="matrix(0.75, 0, 0, 0.75, -20.104726, -2.774704)" fill="none" stroke-linejoin="miter" d="M 218.285482 236.965246 L 196.759439 235.668371 L 196.759439 281.387124 C 196.759439 287.376708 197.707355 291.689208 199.592772 294.335042 C 201.483397 296.975667 205.014648 298.298584 210.191731 298.298584 C 215.374023 298.298584 219.337565 298.460042 222.087565 298.782959 C 224.894857 299.111084 227.832357 300.163167 230.910483 301.939209 C 235.978191 304.798584 238.51465 312.215251 238.51465 324.194419 C 238.51465 338.111086 235.415691 346.605879 229.207357 349.684004 C 225.920899 351.246504 223.004232 352.189212 220.472982 352.512129 C 217.936523 352.840254 214.238606 353.001712 209.384439 353.001712 C 186.405271 353.001712 168.926103 347.81942 156.952144 337.465253 C 145.030269 327.053794 139.066727 309.465251 139.066727 284.704833 L 139.066727 235.668371 C 134.858393 236.314205 130.327143 236.64233 125.472976 236.64233 C 120.618809 236.64233 116.571933 234.777746 113.337558 231.058996 C 110.150058 227.282954 108.561516 220.861079 108.561516 211.798578 C 108.561516 202.736077 109.097975 196.178785 110.181308 192.137118 C 111.311516 188.032951 112.874016 185.095451 114.874017 183.314201 C 118.431308 180.454826 122.858392 179.027743 128.144851 179.027743 L 139.066727 180.319409 L 139.066727 146.173574 C 139.066727 141.100657 139.228185 137.355865 139.551102 134.923573 C 139.93131 132.496489 140.983393 129.855864 142.707352 126.996489 C 145.61881 121.439197 154.144853 118.663155 168.28027 118.663155 C 183.275063 118.663155 192.202147 122.762114 195.061522 130.960031 C 196.196939 134.46524 196.759439 140.105865 196.759439 147.87149 L 196.759439 180.319409 C 206.472981 179.460034 213.806315 179.027743 218.769857 179.027743 C 223.79069 179.027743 227.566732 179.189201 230.097982 179.512118 C 232.634441 179.835034 235.5459 180.887118 238.837566 182.668368 C 244.613608 185.527743 247.499025 194.022535 247.499025 208.157953 C 247.499025 222.07462 244.504233 230.569413 238.51465 233.647538 C 235.222983 235.210038 232.285483 236.152746 229.696941 236.475663 C 227.160482 236.803788 223.358399 236.965246 218.285482 236.965246 Z M 379.077159 196.907952 C 380.374034 184.501701 389.082368 178.298576 405.212577 178.298576 C 413.847995 178.298576 420.264662 178.970451 424.472995 180.319409 C 428.681329 181.668368 431.592787 183.991285 433.212579 187.277743 C 434.884454 190.56941 435.884454 193.512118 436.207371 196.10066 C 436.530288 198.637119 436.691746 202.439202 436.691746 207.506911 L 436.691746 323.465252 C 436.691746 328.590252 436.530288 332.418378 436.207371 334.954836 C 435.884454 337.491295 434.936538 340.402753 433.374038 343.69442 C 430.301121 349.465254 422.749037 352.350671 410.717786 352.350671 C 398.686535 352.350671 390.624035 350.871504 386.519868 347.902754 C 382.420909 344.88192 380.051117 340.512128 379.400076 334.793378 C 371.202158 346.501712 357.556324 352.350671 338.457365 352.350671 C 319.358405 352.350671 301.613612 343.642337 285.212569 326.215252 C 268.868818 308.736084 260.696943 288.454833 260.696943 265.36629 C 260.696943 242.277747 268.920902 222.07462 285.374028 204.756911 C 301.884446 187.387118 319.952155 178.704826 339.587573 178.704826 C 347.144865 178.704826 353.993824 180.022534 360.144866 182.668368 C 366.347991 185.308993 370.660492 187.793368 373.087575 190.111077 C 375.519867 192.433993 377.514659 194.699619 379.077159 196.907952 Z M 318.712572 265.850665 C 318.712572 273.131915 321.571947 279.715249 327.290697 285.595458 C 333.061531 291.423583 340.019865 294.335042 348.165699 294.335042 C 356.368824 294.335042 363.1657 291.366292 368.556325 285.434 C 374.00945 279.444416 376.733409 272.86629 376.733409 265.689207 C 376.733409 258.517331 374.113617 251.824622 368.88445 245.621497 C 363.702158 239.418371 356.743824 236.314205 348.00424 236.314205 C 339.321948 236.314205 332.254239 239.418371 326.806322 245.621497 C 321.410488 251.824622 318.712572 258.569414 318.712572 265.850665 Z M 318.712572 265.850665 " stroke="#7f3500" stroke-width="16.572451" stroke-opacity="1" stroke-miterlimit="4"/><g fill="#fda769" fill-opacity="1"><g transform="translate(57.614019, 261.975278)"><g><path d="M 86.015625 -87 L 69.84375 -88 L 69.84375 -53.6875 C 69.84375 -49.21875 70.546875 -45.988281 71.953125 -44 C 73.367188 -42.007812 76.023438 -41.015625 79.921875 -41.015625 C 83.816406 -41.015625 86.796875 -40.890625 88.859375 -40.640625 C 90.929688 -40.390625 93.128906 -39.601562 95.453125 -38.28125 C 99.265625 -36.125 101.171875 -30.570312 101.171875 -21.625 C 101.171875 -11.1875 98.851562 -4.804688 94.21875 -2.484375 C 91.726562 -1.328125 89.53125 -0.625 87.625 -0.375 C 85.71875 -0.125 82.941406 0 79.296875 0 C 62.054688 0 48.960938 -3.890625 40.015625 -11.671875 C 31.066406 -19.460938 26.59375 -32.640625 26.59375 -51.203125 L 26.59375 -88 C 23.445312 -87.5 20.050781 -87.25 16.40625 -87.25 C 12.757812 -87.25 9.734375 -88.65625 7.328125 -91.46875 C 4.929688 -94.289062 3.734375 -99.097656 3.734375 -105.890625 C 3.734375 -112.691406 4.144531 -117.625 4.96875 -120.6875 C 5.800781 -123.75 6.960938 -125.941406 8.453125 -127.265625 C 11.097656 -129.421875 14.410156 -130.5 18.390625 -130.5 L 26.59375 -129.515625 L 26.59375 -155.109375 C 26.59375 -158.921875 26.71875 -161.738281 26.96875 -163.5625 C 27.21875 -165.382812 28.003906 -167.375 29.328125 -169.53125 C 31.484375 -173.675781 37.863281 -175.75 48.46875 -175.75 C 59.738281 -175.75 66.453125 -172.679688 68.609375 -166.546875 C 69.429688 -163.890625 69.84375 -159.664062 69.84375 -153.875 L 69.84375 -129.515625 C 77.132812 -130.171875 82.644531 -130.5 86.375 -130.5 C 90.101562 -130.5 92.921875 -130.375 94.828125 -130.125 C 96.734375 -129.875 98.929688 -129.085938 101.421875 -127.765625 C 105.734375 -125.609375 107.890625 -119.226562 107.890625 -108.625 C 107.890625 -98.1875 105.648438 -91.804688 101.171875 -89.484375 C 98.679688 -88.328125 96.484375 -87.625 94.578125 -87.375 C 92.671875 -87.125 89.816406 -87 86.015625 -87 Z M 86.015625 -87 "/></g></g></g><g fill="#fda769" fill-opacity="1"><g transform="translate(169.226225, 261.975278)"><g><path d="M 94.953125 -117.078125 C 95.953125 -126.359375 102.5 -131 114.59375 -131 C 121.050781 -131 125.851562 -130.5 129 -129.5 C 132.15625 -128.507812 134.351562 -126.769531 135.59375 -124.28125 C 136.84375 -121.800781 137.585938 -119.609375 137.828125 -117.703125 C 138.078125 -115.796875 138.203125 -112.9375 138.203125 -109.125 L 138.203125 -22.125 C 138.203125 -18.3125 138.078125 -15.453125 137.828125 -13.546875 C 137.585938 -11.640625 136.882812 -9.441406 135.71875 -6.953125 C 133.40625 -2.648438 127.734375 -0.5 118.703125 -0.5 C 109.671875 -0.5 103.617188 -1.613281 100.546875 -3.84375 C 97.484375 -6.082031 95.703125 -9.359375 95.203125 -13.671875 C 89.078125 -4.890625 78.84375 -0.5 64.5 -0.5 C 50.164062 -0.5 36.867188 -7.039062 24.609375 -20.125 C 12.347656 -33.21875 6.21875 -48.421875 6.21875 -65.734375 C 6.21875 -83.054688 12.390625 -98.222656 24.734375 -111.234375 C 37.078125 -124.242188 50.625 -130.75 65.375 -130.75 C 71.007812 -130.75 76.144531 -129.753906 80.78125 -127.765625 C 85.425781 -125.773438 88.660156 -123.910156 90.484375 -122.171875 C 92.304688 -120.429688 93.796875 -118.734375 94.953125 -117.078125 Z M 49.71875 -65.375 C 49.71875 -59.90625 51.867188 -54.972656 56.171875 -50.578125 C 60.484375 -46.191406 65.703125 -44 71.828125 -44 C 77.960938 -44 83.0625 -46.234375 87.125 -50.703125 C 91.1875 -55.179688 93.21875 -60.113281 93.21875 -65.5 C 93.21875 -70.882812 91.269531 -75.894531 87.375 -80.53125 C 83.476562 -85.175781 78.253906 -87.5 71.703125 -87.5 C 65.160156 -87.5 59.859375 -85.175781 55.796875 -80.53125 C 51.742188 -75.894531 49.71875 -70.84375 49.71875 -65.375 Z M 49.71875 -65.375 "/></g></g></g></svg>