<svg xmlns="http://www.w3.org/2000/svg" xmlns:xlink="http://www.w3.org/1999/xlink" width="500" zoomAndPan="magnify" viewBox="0 0 375 374.999991" height="500" preserveAspectRatio="xMidYMid meet" version="1.0"><defs><g/></defs><path stroke-linecap="butt" transform="matrix(0.75, 0, 0, 0.75, -20.104726, -2.774707)" fill="none" stroke-linejoin="miter" d="M 222.097982 236.96525 L 200.571939 235.668375 L 200.571939 281.387128 C 200.571939 287.376711 201.519856 291.689212 203.405272 294.335045 C 205.295898 296.97567 208.827148 298.298587 214.004231 298.298587 C 219.186523 298.298587 223.150065 298.460045 225.900066 298.782962 C 228.707357 299.111087 231.644858 300.163171 234.722983 301.939212 C 239.790691 304.798587 242.32715 312.215255 242.32715 324.194422 C 242.32715 338.11109 239.228191 346.605882 233.019858 349.684007 C 229.733399 351.246507 226.816732 352.189216 224.285482 352.512132 C 221.749024 352.840257 218.051107 353.001716 213.19694 353.001716 C 190.217772 353.001716 172.738604 347.819424 160.764645 337.465256 C 148.842769 327.053797 142.879227 309.465254 142.879227 284.704836 L 142.879227 235.668375 C 138.670893 236.314208 134.139643 236.642333 129.285476 236.642333 C 124.431309 236.642333 120.384434 234.77775 117.150058 231.058999 C 113.962558 227.282957 112.374016 220.861082 112.374016 211.798581 C 112.374016 202.736081 112.910475 196.178789 113.993808 192.137122 C 115.124017 188.032955 116.686517 185.095455 118.686517 183.314205 C 122.243809 180.454829 126.670892 179.027746 131.957351 179.027746 L 142.879227 180.319413 L 142.879227 146.173577 C 142.879227 141.10066 143.040685 137.355868 143.363602 134.923576 C 143.74381 132.496493 144.795894 129.855868 146.519852 126.996492 C 149.431311 121.4392 157.957353 118.663159 172.09277 118.663159 C 187.087563 118.663159 196.014647 122.762117 198.874022 130.960034 C 200.009439 134.465243 200.571939 140.105868 200.571939 147.871494 L 200.571939 180.319413 C 210.285481 179.460038 217.618815 179.027746 222.582357 179.027746 C 227.603191 179.027746 231.379233 179.189204 233.910483 179.512121 C 236.446941 179.835038 239.3584 180.887121 242.650067 182.668371 C 248.426109 185.527746 251.311526 194.022539 251.311526 208.157956 C 251.311526 222.074624 248.316734 230.569416 242.32715 233.647541 C 239.035483 235.210041 236.097983 236.15275 233.509441 236.475666 C 230.972983 236.803791 227.170899 236.96525 222.097982 236.96525 Z M 437.915704 244.814209 C 437.915704 258.407959 434.540704 268.465252 427.80112 274.996502 C 421.056328 281.470461 413.587578 284.704836 405.384452 284.704836 L 326.816739 284.704836 C 326.816739 290.907962 330.457364 296.116295 337.738615 300.324629 C 345.077157 304.527754 352.384449 306.631921 359.665699 306.631921 C 372.504242 306.631921 382.566743 305.282963 389.847993 302.590254 L 393.488618 301.293379 C 398.775077 298.866295 403.202161 297.652754 406.759452 297.652754 C 413.827161 297.652754 419.89487 302.616296 424.967787 312.54338 C 427.827162 318.527755 429.254246 323.626714 429.254246 327.835047 C 429.254246 347.470465 405.738619 357.288174 358.696949 357.288174 C 342.34799 357.288174 327.811531 354.486091 315.082363 348.871507 C 302.405279 343.210048 292.504237 335.73609 285.384444 326.460047 C 271.467777 308.600671 264.509443 288.616295 264.509443 266.496502 C 264.509443 238.663166 273.514652 216.407957 291.535487 199.741289 C 309.551113 183.017329 332.045906 174.657954 359.019866 174.657954 C 389.712576 174.657954 412.238619 185.501705 426.587579 207.183998 C 434.139663 218.673582 437.915704 231.220458 437.915704 244.814209 Z M 367.920908 254.522543 C 376.337575 254.522543 380.545909 250.991292 380.545909 243.923583 C 380.545909 238.850666 378.603201 234.77775 374.717784 231.704833 C 370.889658 228.626707 365.358408 227.090249 358.129241 227.090249 C 350.957365 227.090249 343.832365 230.032958 336.764656 235.913166 C 329.702156 241.736083 326.165697 247.939209 326.165697 254.522543 Z M 367.920908 254.522543 " stroke="#7f3500" stroke-width="16.572451" stroke-opacity="1" stroke-miterlimit="4"/><g fill="#fda769" fill-opacity="1"><g transform="translate(60.473394, 261.975276)"><g><path d="M 86.015625 -87 L 69.84375 -88 L 69.84375 -53.6875 C 69.84375 -49.21875 70.546875 -45.988281 71.953125 -44 C 73.367188 -42.007812 76.023438 -41.015625 79.921875 -41.015625 C 83.816406 -41.015625 86.796875 -40.890625 88.859375 -40.640625 C 90.929688 -40.390625 93.128906 -39.601562 95.453125 -38.28125 C 99.265625 -36.125 101.171875 -30.570312 101.171875 -21.625 C 101.171875 -11.1875 98.851562 -4.804688 94.21875 -2.484375 C 91.726562 -1.328125 89.53125 -0.625 87.625 -0.375 C 85.71875 -0.125 82.941406 0 79.296875 0 C 62.054688 0 48.960938 -3.890625 40.015625 -11.671875 C 31.066406 -19.460938 26.59375 -32.640625 26.59375 -51.203125 L 26.59375 -88 C 23.445312 -87.5 20.050781 -87.25 16.40625 -87.25 C 12.757812 -87.25 9.734375 -88.65625 7.328125 -91.46875 C 4.929688 -94.289062 3.734375 -99.097656 3.734375 -105.890625 C 3.734375 -112.691406 4.144531 -117.625 4.96875 -120.6875 C 5.800781 -123.75 6.960938 -125.941406 8.453125 -127.265625 C 11.097656 -129.421875 14.410156 -130.5 18.390625 -130.5 L 26.59375 -129.515625 L 26.59375 -155.109375 C 26.59375 -158.921875 26.71875 -161.738281 26.96875 -163.5625 C 27.21875 -165.382812 28.003906 -167.375 29.328125 -169.53125 C 31.484375 -173.675781 37.863281 -175.75 48.46875 -175.75 C 59.738281 -175.75 66.453125 -172.679688 68.609375 -166.546875 C 69.429688 -163.890625 69.84375 -159.664062 69.84375 -153.875 L 69.84375 -129.515625 C 77.132812 -130.171875 82.644531 -130.5 86.375 -130.5 C 90.101562 -130.5 92.921875 -130.375 94.828125 -130.125 C 96.734375 -129.875 98.929688 -129.085938 101.421875 -127.765625 C 105.734375 -125.609375 107.890625 -119.226562 107.890625 -108.625 C 107.890625 -98.1875 105.648438 -91.804688 101.171875 -89.484375 C 98.679688 -88.328125 96.484375 -87.625 94.578125 -87.375 C 92.671875 -87.125 89.816406 -87 86.015625 -87 Z M 86.015625 -87 "/></g></g></g><g fill="#fda769" fill-opacity="1"><g transform="translate(172.0856, 261.975276)"><g><path d="M 136.21875 -81.15625 C 136.21875 -70.96875 133.691406 -63.425781 128.640625 -58.53125 C 123.585938 -53.644531 117.992188 -51.203125 111.859375 -51.203125 L 52.953125 -51.203125 C 52.953125 -46.566406 55.6875 -42.671875 61.15625 -39.515625 C 66.625 -36.367188 72.09375 -34.796875 77.5625 -34.796875 C 87.164062 -34.796875 94.703125 -35.789062 100.171875 -37.78125 L 102.90625 -38.78125 C 106.882812 -40.601562 110.203125 -41.515625 112.859375 -41.515625 C 118.160156 -41.515625 122.71875 -37.785156 126.53125 -30.328125 C 128.675781 -25.847656 129.75 -22.035156 129.75 -18.890625 C 129.75 -4.140625 112.101562 3.234375 76.8125 3.234375 C 64.550781 3.234375 53.65625 1.117188 44.125 -3.109375 C 34.59375 -7.335938 27.175781 -12.929688 21.875 -19.890625 C 11.4375 -33.304688 6.21875 -48.300781 6.21875 -64.875 C 6.21875 -85.757812 12.96875 -102.457031 26.46875 -114.96875 C 39.976562 -127.476562 56.84375 -133.734375 77.0625 -133.734375 C 100.09375 -133.734375 116.992188 -125.613281 127.765625 -109.375 C 133.398438 -100.757812 136.21875 -91.351562 136.21875 -81.15625 Z M 83.765625 -73.828125 C 90.066406 -73.828125 93.21875 -76.476562 93.21875 -81.78125 C 93.21875 -85.59375 91.765625 -88.65625 88.859375 -90.96875 C 85.960938 -93.289062 81.820312 -94.453125 76.4375 -94.453125 C 71.050781 -94.453125 65.707031 -92.253906 60.40625 -87.859375 C 55.101562 -83.472656 52.453125 -78.796875 52.453125 -73.828125 Z M 83.765625 -73.828125 "/></g></g></g></svg>