<svg xmlns="http://www.w3.org/2000/svg" xmlns:xlink="http://www.w3.org/1999/xlink" width="500" zoomAndPan="magnify" viewBox="0 0 375 374.999991" height="500" preserveAspectRatio="xMidYMid meet" version="1.0"><defs><g/></defs><path stroke-linecap="butt" transform="matrix(0.75, 0, 0, 0.75, -20.104726, -2.774707)" fill="none" stroke-linejoin="miter" d="M 274.785485 236.96525 L 253.259442 235.668375 L 253.259442 281.387128 C 253.259442 287.376711 254.207359 291.689212 256.092776 294.335045 C 257.983401 296.97567 261.514651 298.298587 266.691735 298.298587 C 271.874027 298.298587 275.837569 298.460045 278.587569 298.782962 C 281.394861 299.111087 284.332361 300.163171 287.410486 301.939212 C 292.478195 304.798587 295.014653 312.215255 295.014653 324.194422 C 295.014653 338.11109 291.915695 346.605882 285.707361 349.684007 C 282.420903 351.246507 279.504236 352.189216 276.972986 352.512132 C 274.436527 352.840257 270.73861 353.001716 265.884443 353.001716 C 242.905275 353.001716 225.426107 347.819424 213.452148 337.465256 C 201.530272 327.053797 195.56673 309.465254 195.56673 284.704836 L 195.56673 235.668375 C 191.358397 236.314208 186.827146 236.642333 181.972979 236.642333 C 177.118812 236.642333 173.071937 234.77775 169.837562 231.058999 C 166.650062 227.282957 165.06152 220.861082 165.06152 211.798581 C 165.06152 202.736081 165.597978 196.178789 166.681312 192.137122 C 167.81152 188.032955 169.37402 185.095455 171.37402 183.314205 C 174.931312 180.454829 179.358396 179.027746 184.644855 179.027746 L 195.56673 180.319413 L 195.56673 146.173577 C 195.56673 141.10066 195.728189 137.355868 196.051105 134.923576 C 196.431314 132.496493 197.483397 129.855868 199.207355 126.996492 C 202.118814 121.4392 210.644856 118.663159 224.780274 118.663159 C 239.775066 118.663159 248.70215 122.762117 251.561526 130.960034 C 252.696942 134.465243 253.259442 140.105868 253.259442 147.871494 L 253.259442 180.319413 C 262.972985 179.460038 270.306318 179.027746 275.26986 179.027746 C 280.290694 179.027746 284.066736 179.189204 286.597986 179.512121 C 289.134445 179.835038 292.045903 180.887121 295.33757 182.668371 C 301.113612 185.527746 303.999029 194.022539 303.999029 208.157956 C 303.999029 222.074624 301.004237 230.569416 295.014653 233.647541 C 291.722987 235.210041 288.785486 236.15275 286.196945 236.475666 C 283.660486 236.803791 279.858402 236.96525 274.785485 236.96525 Z M 322.212572 207.506914 C 322.212572 202.439206 322.37403 198.637122 322.696947 196.100664 C 323.019864 193.512122 323.962572 190.569413 325.53028 187.277746 C 328.603197 181.564204 337.207365 178.704829 351.342782 178.704829 C 361.967783 178.704829 369.493825 180.564204 373.920909 184.288163 C 377.639659 187.36108 379.634451 192.105872 379.905284 198.527747 C 380.124034 200.741289 380.228201 203.949623 380.228201 208.157956 L 380.228201 324.194422 C 380.228201 329.262131 380.040701 333.069423 379.665701 335.600673 C 379.337576 338.137131 378.316742 341.07984 376.587575 344.42359 C 373.676117 350.14234 365.150075 353.001716 351.019865 353.001716 C 337.103198 353.001716 328.603197 350.006924 325.53028 344.01734 C 323.962572 340.725673 323.019864 337.866298 322.696947 335.439214 C 322.37403 333.012131 322.212572 329.157964 322.212572 323.871505 Z M 376.670909 146.012119 C 375.051117 149.194411 372.139658 151.460036 367.931325 152.808994 C 363.722991 154.157953 358.139658 154.829828 351.181324 154.829828 C 344.22299 154.829828 338.639656 154.157953 334.431323 152.808994 C 330.275072 151.460036 327.363614 149.142327 325.691739 145.85066 C 324.019864 142.558993 323.019864 139.647535 322.696947 137.111076 C 322.37403 134.522535 322.212572 130.689201 322.212572 125.621492 C 322.212572 120.548575 322.37403 116.746492 322.696947 114.210033 C 323.019864 111.673575 323.962572 108.84545 325.53028 105.715241 C 328.603197 99.782949 337.207365 96.814199 351.342782 96.814199 C 365.25945 96.814199 373.676117 99.782949 376.587575 105.715241 C 378.316742 109.058991 379.337576 112.0017 379.665701 114.53295 C 380.040701 117.069408 380.228201 120.871492 380.228201 125.944409 C 380.228201 131.017326 380.040701 134.845451 379.665701 137.433993 C 379.337576 139.970452 378.342784 142.829827 376.670909 146.012119 Z M 376.670909 146.012119 " stroke="#7f3500" stroke-width="16.572451" stroke-opacity="1" stroke-miterlimit="4"/><g fill="#fda769" fill-opacity="1"><g transform="translate(99.989017, 261.975276)"><g><path d="M 86.015625 -87 L 69.84375 -88 L 69.84375 -53.6875 C 69.84375 -49.21875 70.546875 -45.988281 71.953125 -44 C 73.367188 -42.007812 76.023438 -41.015625 79.921875 -41.015625 C 83.816406 -41.015625 86.796875 -40.890625 88.859375 -40.640625 C 90.929688 -40.390625 93.128906 -39.601562 95.453125 -38.28125 C 99.265625 -36.125 101.171875 -30.570312 101.171875 -21.625 C 101.171875 -11.1875 98.851562 -4.804688 94.21875 -2.484375 C 91.726562 -1.328125 89.53125 -0.625 87.625 -0.375 C 85.71875 -0.125 82.941406 0 79.296875 0 C 62.054688 0 48.960938 -3.890625 40.015625 -11.671875 C 31.066406 -19.460938 26.59375 -32.640625 26.59375 -51.203125 L 26.59375 -88 C 23.445312 -87.5 20.050781 -87.25 16.40625 -87.25 C 12.757812 -87.25 9.734375 -88.65625 7.328125 -91.46875 C 4.929688 -94.289062 3.734375 -99.097656 3.734375 -105.890625 C 3.734375 -112.691406 4.144531 -117.625 4.96875 -120.6875 C 5.800781 -123.75 6.960938 -125.941406 8.453125 -127.265625 C 11.097656 -129.421875 14.410156 -130.5 18.390625 -130.5 L 26.59375 -129.515625 L 26.59375 -155.109375 C 26.59375 -158.921875 26.71875 -161.738281 26.96875 -163.5625 C 27.21875 -165.382812 28.003906 -167.375 29.328125 -169.53125 C 31.484375 -173.675781 37.863281 -175.75 48.46875 -175.75 C 59.738281 -175.75 66.453125 -172.679688 68.609375 -166.546875 C 69.429688 -163.890625 69.84375 -159.664062 69.84375 -153.875 L 69.84375 -129.515625 C 77.132812 -130.171875 82.644531 -130.5 86.375 -130.5 C 90.101562 -130.5 92.921875 -130.375 94.828125 -130.125 C 96.734375 -129.875 98.929688 -129.085938 101.421875 -127.765625 C 105.734375 -125.609375 107.890625 -119.226562 107.890625 -108.625 C 107.890625 -98.1875 105.648438 -91.804688 101.171875 -89.484375 C 98.679688 -88.328125 96.484375 -87.625 94.578125 -87.375 C 92.671875 -87.125 89.816406 -87 86.015625 -87 Z M 86.015625 -87 "/></g></g></g><g fill="#fda769" fill-opacity="1"><g transform="translate(211.601222, 261.975276)"><g><path d="M 9.9375 -109.125 C 9.9375 -112.9375 10.0625 -115.796875 10.3125 -117.703125 C 10.5625 -119.609375 11.265625 -121.800781 12.421875 -124.28125 C 14.742188 -128.59375 21.207031 -130.75 31.8125 -130.75 C 39.769531 -130.75 45.40625 -129.34375 48.71875 -126.53125 C 51.539062 -124.207031 53.035156 -120.644531 53.203125 -115.84375 C 53.359375 -114.1875 53.4375 -111.78125 53.4375 -108.625 L 53.4375 -21.625 C 53.4375 -17.8125 53.3125 -14.953125 53.0625 -13.046875 C 52.820312 -11.140625 52.035156 -8.945312 50.703125 -6.46875 C 48.554688 -2.15625 42.175781 0 31.5625 0 C 21.125 0 14.742188 -2.238281 12.421875 -6.71875 C 11.265625 -9.195312 10.5625 -11.347656 10.3125 -13.171875 C 10.0625 -14.992188 9.9375 -17.894531 9.9375 -21.875 Z M 50.828125 -155.234375 C 49.585938 -152.828125 47.394531 -151.128906 44.25 -150.140625 C 41.101562 -149.148438 36.914062 -148.65625 31.6875 -148.65625 C 26.46875 -148.65625 22.285156 -149.148438 19.140625 -150.140625 C 15.992188 -151.128906 13.796875 -152.867188 12.546875 -155.359375 C 11.304688 -157.847656 10.5625 -160.046875 10.3125 -161.953125 C 10.0625 -163.859375 9.9375 -166.710938 9.9375 -170.515625 C 9.9375 -174.328125 10.0625 -177.1875 10.3125 -179.09375 C 10.5625 -181 11.265625 -183.113281 12.421875 -185.4375 C 14.742188 -189.914062 21.207031 -192.15625 31.8125 -192.15625 C 42.257812 -192.15625 48.554688 -189.914062 50.703125 -185.4375 C 52.035156 -182.945312 52.820312 -180.75 53.0625 -178.84375 C 53.3125 -176.945312 53.4375 -174.09375 53.4375 -170.28125 C 53.4375 -166.46875 53.3125 -163.609375 53.0625 -161.703125 C 52.820312 -159.796875 52.078125 -157.640625 50.828125 -155.234375 Z M 50.828125 -155.234375 "/></g></g></g></svg>