<svg xmlns="http://www.w3.org/2000/svg" xmlns:xlink="http://www.w3.org/1999/xlink" width="500" zoomAndPan="magnify" viewBox="0 0 375 374.999991" height="500" preserveAspectRatio="xMidYMid meet" version="1.0"><defs><g/></defs><path stroke-linecap="butt" transform="matrix(0.75, 0, 0, 0.75, -20.104726, -2.774648)" fill="none" stroke-linejoin="miter" d="M 217.613607 236.965172 L 196.087564 235.668296 L 196.087564 281.387049 C 196.087564 287.376633 197.03548 291.689134 198.920897 294.334967 C 200.811522 296.975592 204.342772 298.298509 209.519856 298.298509 C 214.702148 298.298509 218.66569 298.459967 221.41569 298.782884 C 224.222982 299.111009 227.160482 300.163092 230.238608 301.939134 C 235.306316 304.798509 237.842775 312.215177 237.842775 324.194344 C 237.842775 338.111012 234.743816 346.605804 228.535482 349.683929 C 225.249024 351.246429 222.332357 352.189137 219.801107 352.512054 C 217.264648 352.840179 213.566731 353.001638 208.712564 353.001638 C 185.733396 353.001638 168.254228 347.819346 156.280269 337.465178 C 144.358394 327.053719 138.394851 309.465176 138.394851 284.704758 L 138.394851 235.668296 C 134.186518 236.31413 129.655268 236.642255 124.801101 236.642255 C 119.946934 236.642255 115.900058 234.777671 112.665683 231.058921 C 109.478183 227.282879 107.889641 220.861004 107.889641 211.798503 C 107.889641 202.736003 108.4261 196.178711 109.509433 192.137044 C 110.639641 188.032877 112.202141 185.095377 114.202142 183.314126 C 117.759433 180.454751 122.186517 179.027668 127.472976 179.027668 L 138.394851 180.319335 L 138.394851 146.173499 C 138.394851 141.100582 138.55631 137.35579 138.879227 134.923498 C 139.259435 132.496415 140.311518 129.85579 142.035477 126.996414 C 144.946935 121.439122 153.472977 118.66308 167.608395 118.66308 C 182.603188 118.66308 191.530272 122.762039 194.389647 130.959956 C 195.525064 134.465165 196.087564 140.10579 196.087564 147.871416 L 196.087564 180.319335 C 205.801106 179.459959 213.13444 179.027668 218.097982 179.027668 C 223.118815 179.027668 226.894857 179.189126 229.426107 179.512043 C 231.962566 179.834959 234.874024 180.887043 238.165691 182.668293 C 243.941733 185.527668 246.82715 194.02246 246.82715 208.157878 C 246.82715 222.074546 243.832358 230.569338 237.842775 233.647463 C 234.551108 235.209963 231.613608 236.152672 229.025066 236.475588 C 226.488607 236.803713 222.686524 236.965172 217.613607 236.965172 Z M 260.025068 265.85059 C 260.025068 239.308922 269.30111 217.43392 287.858403 200.225586 C 306.467779 182.965168 327.696947 174.334959 351.540699 174.334959 C 375.38445 174.334959 396.478202 182.907876 414.816745 200.064127 C 433.160496 217.168295 442.332371 238.986005 442.332371 265.527673 C 442.332371 283.871425 437.582371 300.163092 428.087579 314.402677 C 418.592787 328.642261 407.051119 339.137053 393.457368 345.876637 C 379.863617 352.621429 365.754241 355.996429 351.134449 355.996429 C 336.571948 355.996429 322.43653 352.407887 308.733404 345.230804 C 295.08757 338.058928 283.540694 327.454761 274.103194 313.428718 C 264.717776 299.350592 260.025068 283.491216 260.025068 265.85059 Z M 329.290697 289.558925 C 336.410489 294.954759 343.613615 297.652676 350.894865 297.652676 C 358.176116 297.652676 365.457366 294.902675 372.743825 289.397467 C 380.025076 283.840175 383.665701 275.668299 383.665701 264.88184 C 383.665701 254.038089 380.238617 245.970381 373.389659 240.683922 C 366.535491 235.34538 359.118824 232.673505 351.134449 232.673505 C 343.207365 232.673505 335.816739 235.454755 328.962572 241.012047 C 322.113614 246.512047 318.68653 254.631839 318.68653 265.366215 C 318.68653 276.048507 322.222989 284.111008 329.290697 289.558925 Z M 329.290697 289.558925 " stroke="#7f3500" stroke-width="16.572451" stroke-opacity="1" stroke-miterlimit="4"/><g fill="#fda769" fill-opacity="1"><g transform="translate(57.110113, 261.975334)"><g><path d="M 86.015625 -87 L 69.84375 -88 L 69.84375 -53.6875 C 69.84375 -49.21875 70.546875 -45.988281 71.953125 -44 C 73.367188 -42.007812 76.023438 -41.015625 79.921875 -41.015625 C 83.816406 -41.015625 86.796875 -40.890625 88.859375 -40.640625 C 90.929688 -40.390625 93.128906 -39.601562 95.453125 -38.28125 C 99.265625 -36.125 101.171875 -30.570312 101.171875 -21.625 C 101.171875 -11.1875 98.851562 -4.804688 94.21875 -2.484375 C 91.726562 -1.328125 89.53125 -0.625 87.625 -0.375 C 85.71875 -0.125 82.941406 0 79.296875 0 C 62.054688 0 48.960938 -3.890625 40.015625 -11.671875 C 31.066406 -19.460938 26.59375 -32.640625 26.59375 -51.203125 L 26.59375 -88 C 23.445312 -87.5 20.050781 -87.25 16.40625 -87.25 C 12.757812 -87.25 9.734375 -88.65625 7.328125 -91.46875 C 4.929688 -94.289062 3.734375 -99.097656 3.734375 -105.890625 C 3.734375 -112.691406 4.144531 -117.625 4.96875 -120.6875 C 5.800781 -123.75 6.960938 -125.941406 8.453125 -127.265625 C 11.097656 -129.421875 14.410156 -130.5 18.390625 -130.5 L 26.59375 -129.515625 L 26.59375 -155.109375 C 26.59375 -158.921875 26.71875 -161.738281 26.96875 -163.5625 C 27.21875 -165.382812 28.003906 -167.375 29.328125 -169.53125 C 31.484375 -173.675781 37.863281 -175.75 48.46875 -175.75 C 59.738281 -175.75 66.453125 -172.679688 68.609375 -166.546875 C 69.429688 -163.890625 69.84375 -159.664062 69.84375 -153.875 L 69.84375 -129.515625 C 77.132812 -130.171875 82.644531 -130.5 86.375 -130.5 C 90.101562 -130.5 92.921875 -130.375 94.828125 -130.125 C 96.734375 -129.875 98.929688 -129.085938 101.421875 -127.765625 C 105.734375 -125.609375 107.890625 -119.226562 107.890625 -108.625 C 107.890625 -98.1875 105.648438 -91.804688 101.171875 -89.484375 C 98.679688 -88.328125 96.484375 -87.625 94.578125 -87.375 C 92.671875 -87.125 89.816406 -87 86.015625 -87 Z M 86.015625 -87 "/></g></g></g><g fill="#fda769" fill-opacity="1"><g transform="translate(168.722319, 261.975334)"><g><path d="M 6.21875 -65.375 C 6.21875 -85.257812 13.175781 -101.664062 27.09375 -114.59375 C 41.007812 -127.519531 56.914062 -133.984375 74.8125 -133.984375 C 92.71875 -133.984375 108.546875 -127.5625 122.296875 -114.71875 C 136.054688 -101.875 142.9375 -85.507812 142.9375 -65.625 C 142.9375 -51.875 139.367188 -39.648438 132.234375 -28.953125 C 125.109375 -18.265625 116.453125 -10.394531 106.265625 -5.34375 C 96.078125 -0.289062 85.515625 2.234375 74.578125 2.234375 C 63.640625 2.234375 53.03125 -0.457031 42.75 -5.84375 C 32.476562 -11.226562 23.820312 -19.179688 16.78125 -29.703125 C 9.738281 -40.222656 6.21875 -52.113281 6.21875 -65.375 Z M 58.171875 -47.59375 C 63.472656 -43.539062 68.859375 -41.515625 74.328125 -41.515625 C 79.796875 -41.515625 85.265625 -43.582031 90.734375 -47.71875 C 96.203125 -51.863281 98.9375 -57.992188 98.9375 -66.109375 C 98.9375 -74.234375 96.363281 -80.285156 91.21875 -84.265625 C 86.082031 -88.242188 80.53125 -90.234375 74.5625 -90.234375 C 68.601562 -90.234375 63.054688 -88.160156 57.921875 -84.015625 C 52.785156 -79.878906 50.21875 -73.789062 50.21875 -65.75 C 50.21875 -57.707031 52.867188 -51.65625 58.171875 -47.59375 Z M 58.171875 -47.59375 "/></g></g></g></svg>