<svg xmlns="http://www.w3.org/2000/svg" xmlns:xlink="http://www.w3.org/1999/xlink" width="500" zoomAndPan="magnify" viewBox="0 0 375 374.999991" height="500" preserveAspectRatio="xMidYMid meet" version="1.0"><defs><g/></defs><path stroke-linecap="butt" transform="matrix(0.75, 0, 0, 0.75, -20.104726, -2.774648)" fill="none" stroke-linejoin="miter" d="M 216.629232 236.965172 L 195.103189 235.668296 L 195.103189 281.387049 C 195.103189 287.376633 196.051105 291.689134 197.936522 294.334967 C 199.827147 296.975592 203.358397 298.298509 208.535481 298.298509 C 213.717773 298.298509 217.681315 298.459967 220.431315 298.782884 C 223.238607 299.111009 226.176107 300.163092 229.254232 301.939134 C 234.321941 304.798509 236.8584 312.215177 236.8584 324.194344 C 236.8584 338.111012 233.759441 346.605804 227.551107 349.683929 C 224.264649 351.246429 221.347982 352.189137 218.816732 352.512054 C 216.280273 352.840179 212.582356 353.001638 207.728189 353.001638 C 184.749021 353.001638 167.269853 347.819346 155.295894 337.465178 C 143.374018 327.053719 137.410476 309.465176 137.410476 284.704758 L 137.410476 235.668296 C 133.202143 236.31413 128.670893 236.642255 123.816726 236.642255 C 118.962559 236.642255 114.915683 234.777671 111.681308 231.058921 C 108.493808 227.282879 106.905266 220.861004 106.905266 211.798503 C 106.905266 202.736003 107.441724 196.178711 108.525058 192.137044 C 109.655266 188.032877 111.217766 185.095377 113.217766 183.314126 C 116.775058 180.454751 121.202142 179.027668 126.488601 179.027668 L 137.410476 180.319335 L 137.410476 146.173499 C 137.410476 141.100582 137.571935 137.35579 137.894851 134.923498 C 138.27506 132.496415 139.327143 129.85579 141.051102 126.996414 C 143.96256 121.439122 152.488602 118.66308 166.62402 118.66308 C 181.618813 118.66308 190.545897 122.762039 193.405272 130.959956 C 194.540688 134.465165 195.103189 140.10579 195.103189 147.871416 L 195.103189 180.319335 C 204.816731 179.459959 212.150065 179.027668 217.113607 179.027668 C 222.13444 179.027668 225.910482 179.189126 228.441732 179.512043 C 230.978191 179.834959 233.889649 180.887043 237.181316 182.668293 C 242.957358 185.527668 245.842775 194.02246 245.842775 208.157878 C 245.842775 222.074546 242.847983 230.569338 236.8584 233.647463 C 233.566733 235.209963 230.629233 236.152672 228.040691 236.475588 C 225.504232 236.803713 221.702149 236.965172 216.629232 236.965172 Z M 341.577156 352.350596 C 319.295905 352.350596 300.790695 343.907887 286.066736 327.027677 C 271.389652 310.084968 264.056318 289.4808 264.056318 265.204757 L 264.056318 207.18392 C 264.056318 201.845378 264.217776 197.959961 264.540693 195.532877 C 264.86361 193.105794 265.806318 190.246419 267.374027 186.954752 C 270.446943 180.970376 279.051111 177.975584 293.186528 177.975584 C 308.670904 177.975584 317.733405 182.183918 320.37403 190.595377 C 321.722989 194.105794 322.394864 199.741211 322.394864 207.512045 L 322.394864 265.527673 C 322.394864 274.590174 324.988614 281.657883 330.165697 286.725592 C 335.342781 291.798509 342.301115 294.334967 351.040699 294.334967 C 359.780283 294.334967 366.847991 291.689134 372.243825 286.402675 C 377.691742 281.064133 380.415701 274.105799 380.415701 265.527673 L 380.415701 206.861003 C 380.415701 201.736003 380.577159 197.907877 380.900076 195.371419 C 381.222992 192.83496 382.275076 189.923502 384.056326 186.631835 C 386.915701 180.861001 395.410493 177.975584 409.545911 177.975584 C 423.462579 177.975584 431.962579 180.970376 435.035496 186.954752 C 436.597996 190.246419 437.545913 193.189127 437.868829 195.777669 C 438.191746 198.314127 438.353205 202.116211 438.353205 207.18392 L 438.353205 324.517261 C 438.353205 329.371428 438.191746 333.069345 437.868829 335.600595 C 437.545913 338.137053 436.493829 340.944345 434.712579 344.017262 C 431.420912 349.788096 422.92612 352.678721 409.222994 352.678721 C 395.738618 352.678721 387.457368 350.032887 384.379243 344.746429 C 382.170909 340.970387 381.061534 336.439136 381.061534 331.152678 C 380.144867 332.663095 378.150076 334.876636 375.077159 337.788095 C 371.999033 340.64747 369.004242 343.074554 366.092783 345.069345 C 358.592783 349.923512 350.420907 352.350596 341.577156 352.350596 Z M 341.577156 352.350596 " stroke="#7f3500" stroke-width="16.572451" stroke-opacity="1" stroke-miterlimit="4"/><g fill="#fda769" fill-opacity="1"><g transform="translate(56.371832, 261.975334)"><g><path d="M 86.015625 -87 L 69.84375 -88 L 69.84375 -53.6875 C 69.84375 -49.21875 70.546875 -45.988281 71.953125 -44 C 73.367188 -42.007812 76.023438 -41.015625 79.921875 -41.015625 C 83.816406 -41.015625 86.796875 -40.890625 88.859375 -40.640625 C 90.929688 -40.390625 93.128906 -39.601562 95.453125 -38.28125 C 99.265625 -36.125 101.171875 -30.570312 101.171875 -21.625 C 101.171875 -11.1875 98.851562 -4.804688 94.21875 -2.484375 C 91.726562 -1.328125 89.53125 -0.625 87.625 -0.375 C 85.71875 -0.125 82.941406 0 79.296875 0 C 62.054688 0 48.960938 -3.890625 40.015625 -11.671875 C 31.066406 -19.460938 26.59375 -32.640625 26.59375 -51.203125 L 26.59375 -88 C 23.445312 -87.5 20.050781 -87.25 16.40625 -87.25 C 12.757812 -87.25 9.734375 -88.65625 7.328125 -91.46875 C 4.929688 -94.289062 3.734375 -99.097656 3.734375 -105.890625 C 3.734375 -112.691406 4.144531 -117.625 4.96875 -120.6875 C 5.800781 -123.75 6.960938 -125.941406 8.453125 -127.265625 C 11.097656 -129.421875 14.410156 -130.5 18.390625 -130.5 L 26.59375 -129.515625 L 26.59375 -155.109375 C 26.59375 -158.921875 26.71875 -161.738281 26.96875 -163.5625 C 27.21875 -165.382812 28.003906 -167.375 29.328125 -169.53125 C 31.484375 -173.675781 37.863281 -175.75 48.46875 -175.75 C 59.738281 -175.75 66.453125 -172.679688 68.609375 -166.546875 C 69.429688 -163.890625 69.84375 -159.664062 69.84375 -153.875 L 69.84375 -129.515625 C 77.132812 -130.171875 82.644531 -130.5 86.375 -130.5 C 90.101562 -130.5 92.921875 -130.375 94.828125 -130.125 C 96.734375 -129.875 98.929688 -129.085938 101.421875 -127.765625 C 105.734375 -125.609375 107.890625 -119.226562 107.890625 -108.625 C 107.890625 -98.1875 105.648438 -91.804688 101.171875 -89.484375 C 98.679688 -88.328125 96.484375 -87.625 94.578125 -87.375 C 92.671875 -87.125 89.816406 -87 86.015625 -87 Z M 86.015625 -87 "/></g></g></g><g fill="#fda769" fill-opacity="1"><g transform="translate(167.984038, 261.975334)"><g><path d="M 68.109375 -0.5 C 51.367188 -0.5 37.488281 -6.835938 26.46875 -19.515625 C 15.445312 -32.191406 9.9375 -47.644531 9.9375 -65.875 L 9.9375 -109.375 C 9.9375 -113.351562 10.0625 -116.253906 10.3125 -118.078125 C 10.5625 -119.898438 11.265625 -122.050781 12.421875 -124.53125 C 14.742188 -129.007812 21.207031 -131.25 31.8125 -131.25 C 43.414062 -131.25 50.210938 -128.097656 52.203125 -121.796875 C 53.191406 -119.148438 53.6875 -114.925781 53.6875 -109.125 L 53.6875 -65.625 C 53.6875 -58.832031 55.632812 -53.53125 59.53125 -49.71875 C 63.425781 -45.90625 68.644531 -44 75.1875 -44 C 81.738281 -44 87.039062 -45.988281 91.09375 -49.96875 C 95.15625 -53.945312 97.1875 -59.164062 97.1875 -65.625 L 97.1875 -109.625 C 97.1875 -113.4375 97.3125 -116.296875 97.5625 -118.203125 C 97.8125 -120.109375 98.597656 -122.300781 99.921875 -124.78125 C 102.078125 -129.09375 108.457031 -131.25 119.0625 -131.25 C 129.507812 -131.25 135.890625 -129.007812 138.203125 -124.53125 C 139.367188 -122.050781 140.070312 -119.859375 140.3125 -117.953125 C 140.5625 -116.046875 140.6875 -113.1875 140.6875 -109.375 L 140.6875 -21.375 C 140.6875 -17.726562 140.5625 -14.953125 140.3125 -13.046875 C 140.070312 -11.140625 139.285156 -9.03125 137.953125 -6.71875 C 135.472656 -2.40625 129.097656 -0.25 118.828125 -0.25 C 108.710938 -0.25 102.492188 -2.238281 100.171875 -6.21875 C 98.515625 -9.03125 97.6875 -12.425781 97.6875 -16.40625 C 97.03125 -15.25 95.539062 -13.59375 93.21875 -11.4375 C 90.894531 -9.28125 88.65625 -7.457031 86.5 -5.96875 C 80.863281 -2.320312 74.734375 -0.5 68.109375 -0.5 Z M 68.109375 -0.5 "/></g></g></g></svg>