<svg xmlns="http://www.w3.org/2000/svg" xmlns:xlink="http://www.w3.org/1999/xlink" width="500" zoomAndPan="magnify" viewBox="0 0 375 374.999991" height="500" preserveAspectRatio="xMidYMid meet" version="1.0"><defs><g/></defs><path stroke-linecap="butt" transform="matrix(0.75, 0, 0, 0.75, -20.104726, -2.774704)" fill="none" stroke-linejoin="miter" d="M 283.295903 179.673576 C 297.426112 185.824618 304.493821 193.428785 304.493821 202.491286 C 304.493821 206.267328 302.712571 212.308995 299.155279 220.616287 C 295.65007 228.871496 292.68132 236.100663 290.254236 242.303788 L 253.759442 331.152753 C 250.467776 340.861086 244.941733 347.715254 237.1709 351.704837 C 233.879233 353.215254 229.670899 353.970462 224.545899 353.970462 C 219.47819 353.970462 214.566731 352.053796 209.821939 348.22567 C 205.071939 344.340253 201.946939 340.402753 200.436522 336.41317 L 197.764647 330.829836 C 195.983397 326.402752 189.457355 309.168376 178.181312 279.121499 C 175.967771 284.407958 172.707354 293.064208 168.389645 305.095459 C 164.077145 317.12671 161.295895 324.652752 160.056311 327.673586 C 158.868811 330.637127 158.113603 332.637128 157.790686 333.663169 C 157.467769 334.631919 156.525061 336.439211 154.957353 339.079836 C 153.446936 341.72567 151.696936 344.043378 149.696936 346.043378 C 144.410477 351.329837 138.342768 353.970462 131.493809 353.970462 C 124.639642 353.970462 118.89485 352.053796 114.254225 348.22567 C 109.618808 344.340253 106.514641 340.402753 104.952141 336.41317 L 54.863596 214.470453 C 52.650054 207.835036 51.545887 203.517327 51.545887 201.522536 C 51.545887 192.673577 57.858388 185.715243 70.47818 180.642326 C 77.545889 177.788159 83.290681 176.355867 87.717765 176.355867 C 92.13964 176.355867 95.728182 177.298576 98.478182 179.189201 C 101.228182 181.022534 103.144849 182.881909 104.222974 184.772535 C 105.358391 186.657951 106.243808 188.60066 106.894849 190.595452 C 110.670891 199.444411 118.51985 220.215245 130.441726 252.902747 L 150.025061 199.173577 C 151.368811 194.803785 153.801102 190.949618 157.306311 187.605868 C 163.722978 181.183993 170.254229 177.975659 176.889646 177.975659 C 183.525063 177.975659 189.212563 179.756909 193.962563 183.314201 C 198.707355 186.81941 201.972981 190.355868 203.754231 193.91316 L 206.342773 199.579827 C 217.400065 230.491288 223.926107 248.157955 225.926107 252.579831 L 246.155275 197.558994 C 251.441734 183.423576 259.394859 176.355867 270.025068 176.355867 C 274.233402 176.355867 278.655277 177.460034 283.295903 179.673576 Z M 436.077163 196.907952 C 437.374038 184.501701 446.082372 178.298576 462.212581 178.298576 C 470.84279 178.298576 477.264665 178.970451 481.472999 180.319409 C 485.681333 181.668368 488.592791 183.991285 490.212583 187.277743 C 491.884458 190.56941 492.884458 193.512118 493.207375 196.10066 C 493.530291 198.637119 493.69175 202.439202 493.69175 207.506911 L 493.69175 323.465252 C 493.69175 328.590252 493.530291 332.418378 493.207375 334.954836 C 492.884458 337.491295 491.936541 340.402753 490.374041 343.69442 C 487.295916 349.465254 479.743832 352.350671 467.71779 352.350671 C 455.686539 352.350671 447.624038 350.871504 443.519872 347.902754 C 439.420913 344.88192 437.045913 340.512128 436.400079 334.793378 C 428.202162 346.501712 414.55112 352.350671 395.457368 352.350671 C 376.358409 352.350671 358.613616 343.642337 342.212573 326.215252 C 325.868822 308.736084 317.696947 288.454833 317.696947 265.36629 C 317.696947 242.277747 325.920905 222.07462 342.374032 204.756911 C 358.879241 187.387118 376.952159 178.704826 396.587577 178.704826 C 404.139661 178.704826 410.993828 180.022534 417.14487 182.668368 C 423.347995 185.308993 427.660495 187.793368 430.087579 190.111077 C 432.514662 192.433993 434.514663 194.699619 436.077163 196.907952 Z M 375.712575 265.850665 C 375.712575 273.131915 378.571951 279.715249 384.290701 285.595458 C 390.061535 291.423583 397.019868 294.335042 405.165702 294.335042 C 413.368828 294.335042 420.165703 291.366292 425.556329 285.434 C 431.004246 279.444416 433.733413 272.86629 433.733413 265.689207 C 433.733413 258.517331 431.113621 251.824622 425.879245 245.621497 C 420.702162 239.418371 413.743828 236.314205 405.004244 236.314205 C 396.321952 236.314205 389.254243 239.418371 383.806326 245.621497 C 378.410492 251.824622 375.712575 258.569414 375.712575 265.850665 Z M 375.712575 265.850665 " stroke="#800000" stroke-width="16.572451" stroke-opacity="1" stroke-miterlimit="4"/><g fill="#ff5757" fill-opacity="1"><g transform="translate(14.852303, 261.975278)"><g><path d="M 177.484375 -130 C 188.085938 -125.363281 193.390625 -119.648438 193.390625 -112.859375 C 193.390625 -110.035156 192.0625 -105.515625 189.40625 -99.296875 C 186.757812 -93.085938 184.523438 -87.664062 182.703125 -83.03125 L 155.359375 -16.40625 C 152.867188 -9.113281 148.726562 -3.976562 142.9375 -1 C 140.445312 0.164062 137.296875 0.75 133.484375 0.75 C 129.671875 0.75 125.984375 -0.695312 122.421875 -3.59375 C 118.859375 -6.5 116.5 -9.441406 115.34375 -12.421875 L 113.359375 -16.65625 C 112.023438 -19.96875 107.132812 -32.894531 98.6875 -55.4375 C 97.03125 -51.457031 94.582031 -44.953125 91.34375 -35.921875 C 88.113281 -26.890625 86.039062 -21.253906 85.125 -19.015625 C 84.21875 -16.773438 83.640625 -15.28125 83.390625 -14.53125 C 83.148438 -13.789062 82.445312 -12.425781 81.28125 -10.4375 C 80.125 -8.445312 78.800781 -6.707031 77.3125 -5.21875 C 73.332031 -1.238281 68.773438 0.75 63.640625 0.75 C 58.503906 0.75 54.191406 -0.695312 50.703125 -3.59375 C 47.222656 -6.5 44.90625 -9.441406 43.75 -12.421875 L 6.21875 -103.90625 C 4.5625 -108.875 3.734375 -112.101562 3.734375 -113.59375 C 3.734375 -120.226562 8.453125 -125.453125 17.890625 -129.265625 C 23.203125 -131.410156 27.515625 -132.484375 30.828125 -132.484375 C 34.140625 -132.484375 36.832031 -131.78125 38.90625 -130.375 C 40.976562 -128.96875 42.425781 -127.5625 43.25 -126.15625 C 44.082031 -124.75 44.742188 -123.296875 45.234375 -121.796875 C 48.054688 -115.171875 53.941406 -99.597656 62.890625 -75.078125 L 77.5625 -115.34375 C 78.550781 -118.65625 80.375 -121.554688 83.03125 -124.046875 C 87.832031 -128.847656 92.71875 -131.25 97.6875 -131.25 C 102.664062 -131.25 106.9375 -129.921875 110.5 -127.265625 C 114.0625 -124.617188 116.503906 -121.96875 117.828125 -119.3125 L 119.8125 -115.09375 C 128.101562 -91.894531 132.992188 -78.632812 134.484375 -75.3125 L 149.640625 -116.578125 C 153.617188 -127.179688 159.585938 -132.484375 167.546875 -132.484375 C 170.691406 -132.484375 174.003906 -131.65625 177.484375 -130 Z M 177.484375 -130 "/></g></g></g><g fill="#ff5757" fill-opacity="1"><g transform="translate(211.975878, 261.975278)"><g><path d="M 94.953125 -117.078125 C 95.953125 -126.359375 102.5 -131 114.59375 -131 C 121.050781 -131 125.851562 -130.5 129 -129.5 C 132.15625 -128.507812 134.351562 -126.769531 135.59375 -124.28125 C 136.84375 -121.800781 137.585938 -119.609375 137.828125 -117.703125 C 138.078125 -115.796875 138.203125 -112.9375 138.203125 -109.125 L 138.203125 -22.125 C 138.203125 -18.3125 138.078125 -15.453125 137.828125 -13.546875 C 137.585938 -11.640625 136.882812 -9.441406 135.71875 -6.953125 C 133.40625 -2.648438 127.734375 -0.5 118.703125 -0.5 C 109.671875 -0.5 103.617188 -1.613281 100.546875 -3.84375 C 97.484375 -6.082031 95.703125 -9.359375 95.203125 -13.671875 C 89.078125 -4.890625 78.84375 -0.5 64.5 -0.5 C 50.164062 -0.5 36.867188 -7.039062 24.609375 -20.125 C 12.347656 -33.21875 6.21875 -48.421875 6.21875 -65.734375 C 6.21875 -83.054688 12.390625 -98.222656 24.734375 -111.234375 C 37.078125 -124.242188 50.625 -130.75 65.375 -130.75 C 71.007812 -130.75 76.144531 -129.753906 80.78125 -127.765625 C 85.425781 -125.773438 88.660156 -123.910156 90.484375 -122.171875 C 92.304688 -120.429688 93.796875 -118.734375 94.953125 -117.078125 Z M 49.71875 -65.375 C 49.71875 -59.90625 51.867188 -54.972656 56.171875 -50.578125 C 60.484375 -46.191406 65.703125 -44 71.828125 -44 C 77.960938 -44 83.0625 -46.234375 87.125 -50.703125 C 91.1875 -55.179688 93.21875 -60.113281 93.21875 -65.5 C 93.21875 -70.882812 91.269531 -75.894531 87.375 -80.53125 C 83.476562 -85.175781 78.253906 -87.5 71.703125 -87.5 C 65.160156 -87.5 59.859375 -85.175781 55.796875 -80.53125 C 51.742188 -75.894531 49.71875 -70.84375 49.71875 -65.375 Z M 49.71875 -65.375 "/></g></g></g></svg>