<svg xmlns="http://www.w3.org/2000/svg" xmlns:xlink="http://www.w3.org/1999/xlink" width="500" zoomAndPan="magnify" viewBox="0 0 375 374.999991" height="500" preserveAspectRatio="xMidYMid meet" version="1.0"><defs><g/></defs><path stroke-linecap="butt" transform="matrix(0.75, 0, 0, 0.75, -20.104726, -2.774707)" fill="none" stroke-linejoin="miter" d="M 287.108403 179.673579 C 301.238612 185.824621 308.306321 193.428789 308.306321 202.491289 C 308.306321 206.267331 306.525071 212.308998 302.967779 220.61629 C 299.46257 228.871499 296.49382 236.100666 294.066737 242.303792 L 257.571943 331.152756 C 254.280276 340.86109 248.754234 347.715257 240.9834 351.704841 C 237.691733 353.215257 233.483399 353.970466 228.358399 353.970466 C 223.29069 353.970466 218.379232 352.053799 213.63444 348.225674 C 208.884439 344.340257 205.759439 340.402756 204.249022 336.413173 L 201.577147 330.829839 C 199.795897 326.402756 193.269855 309.168379 181.993813 279.121502 C 179.780271 284.407961 176.519854 293.064212 172.202145 305.095463 C 167.889645 317.126713 165.108395 324.652755 163.868811 327.673589 C 162.681311 330.637131 161.926103 332.637131 161.603186 333.663173 C 161.28027 334.631923 160.337561 336.439215 158.769853 339.07984 C 157.259436 341.725673 155.509436 344.043382 153.509436 346.043382 C 148.222977 351.329841 142.155268 353.970466 135.30631 353.970466 C 128.452142 353.970466 122.70735 352.053799 118.066725 348.225674 C 113.431308 344.340257 110.327141 340.402756 108.764641 336.413173 L 58.676096 214.470457 C 56.462554 207.835039 55.358388 203.517331 55.358388 201.522539 C 55.358388 192.67358 61.670888 185.715246 74.290681 180.642329 C 81.358389 177.788162 87.103181 176.355871 91.530265 176.355871 C 95.95214 176.355871 99.540682 177.298579 102.290682 179.189204 C 105.040683 181.022538 106.957349 182.881913 108.035474 184.772538 C 109.170891 186.657955 110.056308 188.600663 110.70735 190.595455 C 114.483392 199.444414 122.33235 220.215249 134.254226 252.902751 L 153.837561 199.173581 C 155.181311 194.803789 157.613603 190.949622 161.118811 187.605871 C 167.535478 181.183996 174.066729 177.975662 180.702146 177.975662 C 187.337563 177.975662 193.025063 179.756913 197.775064 183.314205 C 202.519856 186.819413 205.785481 190.355872 207.566731 193.913164 L 210.155273 199.579831 C 221.212565 230.491291 227.738607 248.157959 229.738607 252.579834 L 249.967775 197.558997 C 255.254234 183.42358 263.20736 176.355871 273.837569 176.355871 C 278.045902 176.355871 282.467778 177.460037 287.108403 179.673579 Z M 494.915708 244.814209 C 494.915708 258.407959 491.540708 268.465252 484.801124 274.996502 C 478.056332 281.470461 470.582373 284.704836 462.384456 284.704836 L 383.811534 284.704836 C 383.811534 290.907962 387.457368 296.116295 394.738618 300.324629 C 402.071952 304.527754 409.384453 306.631921 416.665703 306.631921 C 429.504246 306.631921 439.566746 305.282963 446.847997 302.590254 L 450.488622 301.293379 C 455.775081 298.866295 460.202164 297.652754 463.759456 297.652754 C 470.827165 297.652754 476.894874 302.616296 481.967791 312.54338 C 484.827166 318.527755 486.254249 323.626714 486.254249 327.835047 C 486.254249 347.470465 462.733414 357.288174 415.696953 357.288174 C 399.347994 357.288174 384.811534 354.486091 372.082367 348.871507 C 359.405283 343.210048 349.50424 335.73609 342.384448 326.460047 C 328.467781 308.600671 321.509447 288.616295 321.509447 266.496502 C 321.509447 238.663166 330.514656 216.407957 348.53549 199.741289 C 366.551116 183.017329 389.04591 174.657954 416.01987 174.657954 C 446.71258 174.657954 469.238623 185.501705 483.587582 207.183998 C 491.139666 218.673582 494.915708 231.220458 494.915708 244.814209 Z M 424.920912 254.522543 C 433.337579 254.522543 437.545913 250.991292 437.545913 243.923583 C 437.545913 238.850666 435.603204 234.77775 431.717787 231.704833 C 427.889662 228.626707 422.358412 227.090249 415.129245 227.090249 C 407.952161 227.090249 400.832369 230.032958 393.76466 235.913166 C 386.702159 241.736083 383.165701 247.939209 383.165701 254.522543 Z M 424.920912 254.522543 " stroke="#800000" stroke-width="16.572451" stroke-opacity="1" stroke-miterlimit="4"/><g fill="#ff5757" fill-opacity="1"><g transform="translate(17.711678, 261.975276)"><g><path d="M 177.484375 -130 C 188.085938 -125.363281 193.390625 -119.648438 193.390625 -112.859375 C 193.390625 -110.035156 192.0625 -105.515625 189.40625 -99.296875 C 186.757812 -93.085938 184.523438 -87.664062 182.703125 -83.03125 L 155.359375 -16.40625 C 152.867188 -9.113281 148.726562 -3.976562 142.9375 -1 C 140.445312 0.164062 137.296875 0.75 133.484375 0.75 C 129.671875 0.75 125.984375 -0.695312 122.421875 -3.59375 C 118.859375 -6.5 116.5 -9.441406 115.34375 -12.421875 L 113.359375 -16.65625 C 112.023438 -19.96875 107.132812 -32.894531 98.6875 -55.4375 C 97.03125 -51.457031 94.582031 -44.953125 91.34375 -35.921875 C 88.113281 -26.890625 86.039062 -21.253906 85.125 -19.015625 C 84.21875 -16.773438 83.640625 -15.28125 83.390625 -14.53125 C 83.148438 -13.789062 82.445312 -12.425781 81.28125 -10.4375 C 80.125 -8.445312 78.800781 -6.707031 77.3125 -5.21875 C 73.332031 -1.238281 68.773438 0.75 63.640625 0.75 C 58.503906 0.75 54.191406 -0.695312 50.703125 -3.59375 C 47.222656 -6.5 44.90625 -9.441406 43.75 -12.421875 L 6.21875 -103.90625 C 4.5625 -108.875 3.734375 -112.101562 3.734375 -113.59375 C 3.734375 -120.226562 8.453125 -125.453125 17.890625 -129.265625 C 23.203125 -131.410156 27.515625 -132.484375 30.828125 -132.484375 C 34.140625 -132.484375 36.832031 -131.78125 38.90625 -130.375 C 40.976562 -128.96875 42.425781 -127.5625 43.25 -126.15625 C 44.082031 -124.75 44.742188 -123.296875 45.234375 -121.796875 C 48.054688 -115.171875 53.941406 -99.597656 62.890625 -75.078125 L 77.5625 -115.34375 C 78.550781 -118.65625 80.375 -121.554688 83.03125 -124.046875 C 87.832031 -128.847656 92.71875 -131.25 97.6875 -131.25 C 102.664062 -131.25 106.9375 -129.921875 110.5 -127.265625 C 114.0625 -124.617188 116.503906 -121.96875 117.828125 -119.3125 L 119.8125 -115.09375 C 128.101562 -91.894531 132.992188 -78.632812 134.484375 -75.3125 L 149.640625 -116.578125 C 153.617188 -127.179688 159.585938 -132.484375 167.546875 -132.484375 C 170.691406 -132.484375 174.003906 -131.65625 177.484375 -130 Z M 177.484375 -130 "/></g></g></g><g fill="#ff5757" fill-opacity="1"><g transform="translate(214.835253, 261.975276)"><g><path d="M 136.21875 -81.15625 C 136.21875 -70.96875 133.691406 -63.425781 128.640625 -58.53125 C 123.585938 -53.644531 117.992188 -51.203125 111.859375 -51.203125 L 52.953125 -51.203125 C 52.953125 -46.566406 55.6875 -42.671875 61.15625 -39.515625 C 66.625 -36.367188 72.09375 -34.796875 77.5625 -34.796875 C 87.164062 -34.796875 94.703125 -35.789062 100.171875 -37.78125 L 102.90625 -38.78125 C 106.882812 -40.601562 110.203125 -41.515625 112.859375 -41.515625 C 118.160156 -41.515625 122.71875 -37.785156 126.53125 -30.328125 C 128.675781 -25.847656 129.75 -22.035156 129.75 -18.890625 C 129.75 -4.140625 112.101562 3.234375 76.8125 3.234375 C 64.550781 3.234375 53.65625 1.117188 44.125 -3.109375 C 34.59375 -7.335938 27.175781 -12.929688 21.875 -19.890625 C 11.4375 -33.304688 6.21875 -48.300781 6.21875 -64.875 C 6.21875 -85.757812 12.96875 -102.457031 26.46875 -114.96875 C 39.976562 -127.476562 56.84375 -133.734375 77.0625 -133.734375 C 100.09375 -133.734375 116.992188 -125.613281 127.765625 -109.375 C 133.398438 -100.757812 136.21875 -91.351562 136.21875 -81.15625 Z M 83.765625 -73.828125 C 90.066406 -73.828125 93.21875 -76.476562 93.21875 -81.78125 C 93.21875 -85.59375 91.765625 -88.65625 88.859375 -90.96875 C 85.960938 -93.289062 81.820312 -94.453125 76.4375 -94.453125 C 71.050781 -94.453125 65.707031 -92.253906 60.40625 -87.859375 C 55.101562 -83.472656 52.453125 -78.796875 52.453125 -73.828125 Z M 83.765625 -73.828125 "/></g></g></g></svg>