<svg xmlns="http://www.w3.org/2000/svg" xmlns:xlink="http://www.w3.org/1999/xlink" width="500" zoomAndPan="magnify" viewBox="0 0 375 374.999991" height="500" preserveAspectRatio="xMidYMid meet" version="1.0"><defs><g/></defs><path stroke-linecap="butt" transform="matrix(0.75, 0, 0, 0.75, -20.104726, -2.774707)" fill="none" stroke-linejoin="miter" d="M 339.811531 179.673579 C 353.941741 185.824621 361.009449 193.428789 361.009449 202.491289 C 361.009449 206.267331 359.228199 212.308998 355.670907 220.61629 C 352.165699 228.871499 349.196949 236.100666 346.769865 242.303792 L 310.275071 331.152756 C 306.983404 340.86109 301.457362 347.715257 293.686528 351.704841 C 290.394861 353.215257 286.186528 353.970466 281.061528 353.970466 C 275.993819 353.970466 271.08236 352.053799 266.337568 348.225674 C 261.587568 344.340257 258.462568 340.402756 256.952151 336.413173 L 254.280276 330.829839 C 252.499026 326.402756 245.972984 309.168379 234.696941 279.121502 C 232.483399 284.407961 229.222982 293.064212 224.905274 305.095463 C 220.592774 317.126713 217.811523 324.652755 216.57194 327.673589 C 215.38444 330.637131 214.629231 332.637131 214.306315 333.663173 C 213.983398 334.631923 213.04069 336.439215 211.472981 339.07984 C 209.962565 341.725673 208.212564 344.043382 206.212564 346.043382 C 200.926106 351.329841 194.858397 353.970466 188.009438 353.970466 C 181.155271 353.970466 175.410479 352.053799 170.769854 348.225674 C 166.134437 344.340257 163.03027 340.402756 161.46777 336.413173 L 111.379225 214.470457 C 109.165683 207.835039 108.061516 203.517331 108.061516 201.522539 C 108.061516 192.67358 114.374017 185.715246 126.993809 180.642329 C 134.061518 177.788162 139.80631 176.355871 144.233394 176.355871 C 148.655269 176.355871 152.243811 177.298579 154.993811 179.189204 C 157.743811 181.022538 159.660478 182.881913 160.738603 184.772538 C 161.87402 186.657955 162.759436 188.600663 163.410478 190.595455 C 167.18652 199.444414 175.035479 220.215249 186.957355 252.902751 L 206.540689 199.173581 C 207.884439 194.803789 210.316731 190.949622 213.82194 187.605871 C 220.238607 181.183996 226.769857 177.975662 233.405274 177.975662 C 240.040691 177.975662 245.728192 179.756913 250.478192 183.314205 C 255.222984 186.819413 258.488609 190.355872 260.269859 193.913164 L 262.858401 199.579831 C 273.915694 230.491291 280.441736 248.157959 282.441736 252.579834 L 302.670904 197.558997 C 307.957363 183.42358 315.910488 176.355871 326.540697 176.355871 C 330.749031 176.355871 335.170906 177.460037 339.811531 179.673579 Z M 379.228201 207.506914 C 379.228201 202.439206 379.389659 198.637122 379.712576 196.100664 C 380.035492 193.512122 380.978201 190.569413 382.545909 187.277746 C 385.618826 181.564204 394.222993 178.704829 408.358411 178.704829 C 418.983412 178.704829 426.509454 180.564204 430.931329 184.288163 C 434.655288 187.36108 436.650079 192.105872 436.920913 198.527747 C 437.139663 200.741289 437.243829 203.949623 437.243829 208.157956 L 437.243829 324.194422 C 437.243829 329.262131 437.056329 333.069423 436.681329 335.600673 C 436.353204 338.137131 435.332371 341.07984 433.603204 344.42359 C 430.691746 350.14234 422.165703 353.001716 408.035494 353.001716 C 394.113618 353.001716 385.618826 350.006924 382.545909 344.01734 C 380.978201 340.725673 380.035492 337.866298 379.712576 335.439214 C 379.389659 333.012131 379.228201 329.157964 379.228201 323.871505 Z M 433.686538 146.012119 C 432.066746 149.194411 429.155287 151.460036 424.946954 152.808994 C 420.73862 154.157953 415.155286 154.829828 408.196953 154.829828 C 401.238619 154.829828 395.655285 154.157953 391.446951 152.808994 C 387.290701 151.460036 384.379243 149.142327 382.707368 145.85066 C 381.035492 142.558993 380.035492 139.647535 379.712576 137.111076 C 379.389659 134.522535 379.228201 130.689201 379.228201 125.621492 C 379.228201 120.548575 379.389659 116.746492 379.712576 114.210033 C 380.035492 111.673575 380.978201 108.84545 382.545909 105.715241 C 385.618826 99.782949 394.222993 96.814199 408.358411 96.814199 C 422.275078 96.814199 430.691746 99.782949 433.603204 105.715241 C 435.332371 109.058991 436.353204 112.0017 436.681329 114.53295 C 437.056329 117.069408 437.243829 120.871492 437.243829 125.944409 C 437.243829 131.017326 437.056329 134.845451 436.681329 137.433993 C 436.353204 139.970452 435.358413 142.829827 433.686538 146.012119 Z M 433.686538 146.012119 " stroke="#800000" stroke-width="16.572451" stroke-opacity="1" stroke-miterlimit="4"/><g fill="#ff5757" fill-opacity="1"><g transform="translate(57.239019, 261.975276)"><g><path d="M 177.484375 -130 C 188.085938 -125.363281 193.390625 -119.648438 193.390625 -112.859375 C 193.390625 -110.035156 192.0625 -105.515625 189.40625 -99.296875 C 186.757812 -93.085938 184.523438 -87.664062 182.703125 -83.03125 L 155.359375 -16.40625 C 152.867188 -9.113281 148.726562 -3.976562 142.9375 -1 C 140.445312 0.164062 137.296875 0.75 133.484375 0.75 C 129.671875 0.75 125.984375 -0.695312 122.421875 -3.59375 C 118.859375 -6.5 116.5 -9.441406 115.34375 -12.421875 L 113.359375 -16.65625 C 112.023438 -19.96875 107.132812 -32.894531 98.6875 -55.4375 C 97.03125 -51.457031 94.582031 -44.953125 91.34375 -35.921875 C 88.113281 -26.890625 86.039062 -21.253906 85.125 -19.015625 C 84.21875 -16.773438 83.640625 -15.28125 83.390625 -14.53125 C 83.148438 -13.789062 82.445312 -12.425781 81.28125 -10.4375 C 80.125 -8.445312 78.800781 -6.707031 77.3125 -5.21875 C 73.332031 -1.238281 68.773438 0.75 63.640625 0.75 C 58.503906 0.75 54.191406 -0.695312 50.703125 -3.59375 C 47.222656 -6.5 44.90625 -9.441406 43.75 -12.421875 L 6.21875 -103.90625 C 4.5625 -108.875 3.734375 -112.101562 3.734375 -113.59375 C 3.734375 -120.226562 8.453125 -125.453125 17.890625 -129.265625 C 23.203125 -131.410156 27.515625 -132.484375 30.828125 -132.484375 C 34.140625 -132.484375 36.832031 -131.78125 38.90625 -130.375 C 40.976562 -128.96875 42.425781 -127.5625 43.25 -126.15625 C 44.082031 -124.75 44.742188 -123.296875 45.234375 -121.796875 C 48.054688 -115.171875 53.941406 -99.597656 62.890625 -75.078125 L 77.5625 -115.34375 C 78.550781 -118.65625 80.375 -121.554688 83.03125 -124.046875 C 87.832031 -128.847656 92.71875 -131.25 97.6875 -131.25 C 102.664062 -131.25 106.9375 -129.921875 110.5 -127.265625 C 114.0625 -124.617188 116.503906 -121.96875 117.828125 -119.3125 L 119.8125 -115.09375 C 128.101562 -91.894531 132.992188 -78.632812 134.484375 -75.3125 L 149.640625 -116.578125 C 153.617188 -127.179688 159.585938 -132.484375 167.546875 -132.484375 C 170.691406 -132.484375 174.003906 -131.65625 177.484375 -130 Z M 177.484375 -130 "/></g></g></g><g fill="#ff5757" fill-opacity="1"><g transform="translate(254.362594, 261.975276)"><g><path d="M 9.9375 -109.125 C 9.9375 -112.9375 10.0625 -115.796875 10.3125 -117.703125 C 10.5625 -119.609375 11.265625 -121.800781 12.421875 -124.28125 C 14.742188 -128.59375 21.207031 -130.75 31.8125 -130.75 C 39.769531 -130.75 45.40625 -129.34375 48.71875 -126.53125 C 51.539062 -124.207031 53.035156 -120.644531 53.203125 -115.84375 C 53.359375 -114.1875 53.4375 -111.78125 53.4375 -108.625 L 53.4375 -21.625 C 53.4375 -17.8125 53.3125 -14.953125 53.0625 -13.046875 C 52.820312 -11.140625 52.035156 -8.945312 50.703125 -6.46875 C 48.554688 -2.15625 42.175781 0 31.5625 0 C 21.125 0 14.742188 -2.238281 12.421875 -6.71875 C 11.265625 -9.195312 10.5625 -11.347656 10.3125 -13.171875 C 10.0625 -14.992188 9.9375 -17.894531 9.9375 -21.875 Z M 50.828125 -155.234375 C 49.585938 -152.828125 47.394531 -151.128906 44.25 -150.140625 C 41.101562 -149.148438 36.914062 -148.65625 31.6875 -148.65625 C 26.46875 -148.65625 22.285156 -149.148438 19.140625 -150.140625 C 15.992188 -151.128906 13.796875 -152.867188 12.546875 -155.359375 C 11.304688 -157.847656 10.5625 -160.046875 10.3125 -161.953125 C 10.0625 -163.859375 9.9375 -166.710938 9.9375 -170.515625 C 9.9375 -174.328125 10.0625 -177.1875 10.3125 -179.09375 C 10.5625 -181 11.265625 -183.113281 12.421875 -185.4375 C 14.742188 -189.914062 21.207031 -192.15625 31.8125 -192.15625 C 42.257812 -192.15625 48.554688 -189.914062 50.703125 -185.4375 C 52.035156 -182.945312 52.820312 -180.75 53.0625 -178.84375 C 53.3125 -176.945312 53.4375 -174.09375 53.4375 -170.28125 C 53.4375 -166.46875 53.3125 -163.609375 53.0625 -161.703125 C 52.820312 -159.796875 52.078125 -157.640625 50.828125 -155.234375 Z M 50.828125 -155.234375 "/></g></g></g></svg>