<svg xmlns="http://www.w3.org/2000/svg" xmlns:xlink="http://www.w3.org/1999/xlink" width="500" zoomAndPan="magnify" viewBox="0 0 375 374.999991" height="500" preserveAspectRatio="xMidYMid meet" version="1.0"><defs><g/></defs><path stroke-linecap="butt" transform="matrix(0.75, 0, 0, 0.75, -20.104726, -2.774648)" fill="none" stroke-linejoin="miter" d="M 282.639653 179.673501 C 296.769862 185.824543 303.837571 193.42871 303.837571 202.491211 C 303.837571 206.267253 302.056321 212.30892 298.499029 220.616212 C 294.99382 228.871421 292.02507 236.100588 289.597986 242.303714 L 253.103192 331.152678 C 249.811525 340.861012 244.285483 347.715179 236.51465 351.704762 C 233.222983 353.215179 229.014649 353.970388 223.889649 353.970388 C 218.82194 353.970388 213.910481 352.053721 209.165689 348.225596 C 204.415689 344.340179 201.290689 340.402678 199.780272 336.413095 L 197.108397 330.829761 C 195.327147 326.402677 188.801105 309.168301 177.525062 279.121424 C 175.311521 284.407883 172.051104 293.069342 167.733395 305.095384 C 163.420895 317.126635 160.639645 324.652677 159.400061 327.673511 C 158.212561 330.642261 157.457353 332.637053 157.134436 333.663095 C 156.811519 334.631845 155.868811 336.439136 154.301103 339.079762 C 152.790686 341.725595 151.040686 344.043304 149.040686 346.043304 C 143.754227 351.329762 137.686518 353.970388 130.837559 353.970388 C 123.983392 353.970388 118.2386 352.053721 113.597975 348.225596 C 108.962558 344.340179 105.858391 340.402678 104.295891 336.413095 L 54.207346 214.470378 C 51.993804 207.834961 50.889637 203.517253 50.889637 201.522461 C 50.889637 192.673502 57.202138 185.715168 69.82193 180.642251 C 76.889639 177.788084 82.634431 176.355793 87.061515 176.355793 C 91.48339 176.355793 95.071932 177.298501 97.821932 179.189126 C 100.571932 181.02246 102.488599 182.881835 103.566724 184.77246 C 104.702141 186.657877 105.587558 188.600585 106.238599 190.595377 C 110.014641 199.444336 117.8636 220.21517 129.785476 252.902673 L 149.368811 199.173502 C 150.712561 194.80371 153.144852 190.949544 156.650061 187.605793 C 163.066728 181.183918 169.597979 177.975584 176.233396 177.975584 C 182.868813 177.975584 188.556313 179.756834 193.306313 183.314126 C 198.051105 186.819335 201.316731 190.355794 203.097981 193.913085 L 205.686523 199.579752 C 216.743815 230.491213 223.269857 248.157881 225.269857 252.579756 L 245.499025 197.558919 C 250.785484 183.423501 258.738609 176.355793 269.368818 176.355793 C 273.577152 176.355793 277.999027 177.459959 282.639653 179.673501 Z M 317.040697 265.85059 C 317.040697 239.308922 326.316739 217.43392 344.874032 200.225586 C 363.483408 182.965168 384.712576 174.334959 408.556328 174.334959 C 432.400079 174.334959 453.49383 182.907876 471.832373 200.064127 C 490.176125 217.168295 499.348 238.986005 499.348 265.527673 C 499.348 283.871425 494.598 300.163092 485.103208 314.402677 C 475.608415 328.642261 464.066748 339.137053 450.472997 345.876637 C 436.879246 352.621429 422.76987 355.996429 408.150078 355.996429 C 393.587577 355.996429 379.452159 352.407887 365.749033 345.230804 C 352.103199 338.058928 340.556323 327.454761 331.118822 313.428718 C 321.733405 299.350592 317.040697 283.491216 317.040697 265.85059 Z M 386.306326 289.558925 C 393.426118 294.954759 400.624035 297.652676 407.910494 297.652676 C 415.191745 297.652676 422.472995 294.902675 429.759454 289.397467 C 437.040704 283.840175 440.68133 275.668299 440.68133 264.88184 C 440.68133 254.038089 437.254246 245.970381 430.405287 240.683922 C 423.55112 235.34538 416.134453 232.673505 408.150078 232.673505 C 400.222994 232.673505 392.832368 235.454755 385.978201 241.012047 C 379.129242 246.512047 375.702159 254.631839 375.702159 265.366215 C 375.702159 276.048507 379.238617 284.111008 386.306326 289.558925 Z M 386.306326 289.558925 " stroke="#800000" stroke-width="16.572451" stroke-opacity="1" stroke-miterlimit="4"/><g fill="#ff5757" fill-opacity="1"><g transform="translate(14.360116, 261.975334)"><g><path d="M 177.484375 -130 C 188.085938 -125.363281 193.390625 -119.648438 193.390625 -112.859375 C 193.390625 -110.035156 192.0625 -105.515625 189.40625 -99.296875 C 186.757812 -93.085938 184.523438 -87.664062 182.703125 -83.03125 L 155.359375 -16.40625 C 152.867188 -9.113281 148.726562 -3.976562 142.9375 -1 C 140.445312 0.164062 137.296875 0.75 133.484375 0.75 C 129.671875 0.75 125.984375 -0.695312 122.421875 -3.59375 C 118.859375 -6.5 116.5 -9.441406 115.34375 -12.421875 L 113.359375 -16.65625 C 112.023438 -19.96875 107.132812 -32.894531 98.6875 -55.4375 C 97.03125 -51.457031 94.582031 -44.953125 91.34375 -35.921875 C 88.113281 -26.890625 86.039062 -21.253906 85.125 -19.015625 C 84.21875 -16.773438 83.640625 -15.28125 83.390625 -14.53125 C 83.148438 -13.789062 82.445312 -12.425781 81.28125 -10.4375 C 80.125 -8.445312 78.800781 -6.707031 77.3125 -5.21875 C 73.332031 -1.238281 68.773438 0.75 63.640625 0.75 C 58.503906 0.75 54.191406 -0.695312 50.703125 -3.59375 C 47.222656 -6.5 44.90625 -9.441406 43.75 -12.421875 L 6.21875 -103.90625 C 4.5625 -108.875 3.734375 -112.101562 3.734375 -113.59375 C 3.734375 -120.226562 8.453125 -125.453125 17.890625 -129.265625 C 23.203125 -131.410156 27.515625 -132.484375 30.828125 -132.484375 C 34.140625 -132.484375 36.832031 -131.78125 38.90625 -130.375 C 40.976562 -128.96875 42.425781 -127.5625 43.25 -126.15625 C 44.082031 -124.75 44.742188 -123.296875 45.234375 -121.796875 C 48.054688 -115.171875 53.941406 -99.597656 62.890625 -75.078125 L 77.5625 -115.34375 C 78.550781 -118.65625 80.375 -121.554688 83.03125 -124.046875 C 87.832031 -128.847656 92.71875 -131.25 97.6875 -131.25 C 102.664062 -131.25 106.9375 -129.921875 110.5 -127.265625 C 114.0625 -124.617188 116.503906 -121.96875 117.828125 -119.3125 L 119.8125 -115.09375 C 128.101562 -91.894531 132.992188 -78.632812 134.484375 -75.3125 L 149.640625 -116.578125 C 153.617188 -127.179688 159.585938 -132.484375 167.546875 -132.484375 C 170.691406 -132.484375 174.003906 -131.65625 177.484375 -130 Z M 177.484375 -130 "/></g></g></g><g fill="#ff5757" fill-opacity="1"><g transform="translate(211.483691, 261.975334)"><g><path d="M 6.21875 -65.375 C 6.21875 -85.257812 13.175781 -101.664062 27.09375 -114.59375 C 41.007812 -127.519531 56.914062 -133.984375 74.8125 -133.984375 C 92.71875 -133.984375 108.546875 -127.5625 122.296875 -114.71875 C 136.054688 -101.875 142.9375 -85.507812 142.9375 -65.625 C 142.9375 -51.875 139.367188 -39.648438 132.234375 -28.953125 C 125.109375 -18.265625 116.453125 -10.394531 106.265625 -5.34375 C 96.078125 -0.289062 85.515625 2.234375 74.578125 2.234375 C 63.640625 2.234375 53.03125 -0.457031 42.75 -5.84375 C 32.476562 -11.226562 23.820312 -19.179688 16.78125 -29.703125 C 9.738281 -40.222656 6.21875 -52.113281 6.21875 -65.375 Z M 58.171875 -47.59375 C 63.472656 -43.539062 68.859375 -41.515625 74.328125 -41.515625 C 79.796875 -41.515625 85.265625 -43.582031 90.734375 -47.71875 C 96.203125 -51.863281 98.9375 -57.992188 98.9375 -66.109375 C 98.9375 -74.234375 96.363281 -80.285156 91.21875 -84.265625 C 86.082031 -88.242188 80.53125 -90.234375 74.5625 -90.234375 C 68.601562 -90.234375 63.054688 -88.160156 57.921875 -84.015625 C 52.785156 -79.878906 50.21875 -73.789062 50.21875 -65.75 C 50.21875 -57.707031 52.867188 -51.65625 58.171875 -47.59375 Z M 58.171875 -47.59375 "/></g></g></g></svg>