<svg xmlns="http://www.w3.org/2000/svg" xmlns:xlink="http://www.w3.org/1999/xlink" width="500" zoomAndPan="magnify" viewBox="0 0 375 374.999991" height="500" preserveAspectRatio="xMidYMid meet" version="1.0"><defs><g/></defs><path stroke-linecap="butt" transform="matrix(0.75, 0, 0, 0.75, -20.104726, -2.774648)" fill="none" stroke-linejoin="miter" d="M 281.639653 179.673501 C 295.769862 185.824543 302.837571 193.42871 302.837571 202.491211 C 302.837571 206.267253 301.05632 212.30892 297.499029 220.616212 C 293.99382 228.871421 291.02507 236.100588 288.597986 242.303714 L 252.103192 331.152678 C 248.811525 340.861012 243.285483 347.715179 235.51465 351.704762 C 232.222983 353.215179 228.014649 353.970388 222.889649 353.970388 C 217.82194 353.970388 212.910481 352.053721 208.165689 348.225596 C 203.415689 344.340179 200.290689 340.402678 198.780272 336.413095 L 196.108397 330.829761 C 194.327147 326.402677 187.801105 309.168301 176.525062 279.121424 C 174.31152 284.407883 171.051104 293.069342 166.733395 305.095384 C 162.420895 317.126635 159.639645 324.652677 158.400061 327.673511 C 157.212561 330.642261 156.457353 332.637053 156.134436 333.663095 C 155.811519 334.631845 154.868811 336.439136 153.301102 339.079762 C 151.790686 341.725595 150.040686 344.043304 148.040685 346.043304 C 142.754227 351.329762 136.686518 353.970388 129.837559 353.970388 C 122.983392 353.970388 117.2386 352.053721 112.597975 348.225596 C 107.962558 344.340179 104.858391 340.402678 103.295891 336.413095 L 53.207346 214.470378 C 50.993804 207.834961 49.889637 203.517253 49.889637 201.522461 C 49.889637 192.673502 56.202138 185.715168 68.82193 180.642251 C 75.889639 177.788084 81.634431 176.355793 86.061515 176.355793 C 90.48339 176.355793 94.071932 177.298501 96.821932 179.189126 C 99.571932 181.02246 101.488599 182.881835 102.566724 184.77246 C 103.702141 186.657877 104.587558 188.600585 105.238599 190.595377 C 109.014641 199.444336 116.8636 220.21517 128.785476 252.902673 L 148.36881 199.173502 C 149.712561 194.80371 152.144852 190.949544 155.650061 187.605793 C 162.066728 181.183918 168.597978 177.975584 175.233396 177.975584 C 181.868813 177.975584 187.556313 179.756834 192.306313 183.314126 C 197.051105 186.819335 200.316731 190.355794 202.097981 193.913085 L 204.686522 199.579752 C 215.743815 230.491213 222.269857 248.157881 224.269857 252.579756 L 244.499025 197.558919 C 249.785484 183.423501 257.738609 176.355793 268.368818 176.355793 C 272.577152 176.355793 276.999027 177.459959 281.639653 179.673501 Z M 398.571952 352.350596 C 376.295909 352.350596 357.790699 343.907887 343.06674 327.027677 C 328.389656 310.084968 321.056322 289.4808 321.056322 265.204757 L 321.056322 207.18392 C 321.056322 201.845378 321.21778 197.959961 321.540697 195.532877 C 321.863614 193.105794 322.806322 190.246419 324.37403 186.954752 C 327.446947 180.970376 336.051114 177.975584 350.186532 177.975584 C 365.6657 177.975584 374.7282 182.183918 377.374034 190.595377 C 378.722992 194.105794 379.394867 199.741211 379.394867 207.512045 L 379.394867 265.527673 C 379.394867 274.590174 381.988617 281.657883 387.165701 286.725592 C 392.342785 291.798509 399.301119 294.334967 408.040703 294.334967 C 416.780286 294.334967 423.847995 291.689134 429.243829 286.402675 C 434.691746 281.064133 437.415704 274.105799 437.415704 265.527673 L 437.415704 206.861003 C 437.415704 201.736003 437.577163 197.907877 437.900079 195.371419 C 438.222996 192.83496 439.27508 189.923502 441.05633 186.631835 C 443.915705 180.861001 452.410497 177.975584 466.545915 177.975584 C 480.462582 177.975584 488.957374 180.970376 492.0355 186.954752 C 493.598 190.246419 494.540708 193.189127 494.868833 195.777669 C 495.19175 198.314127 495.353208 202.116211 495.353208 207.18392 L 495.353208 324.517261 C 495.353208 329.371428 495.19175 333.069345 494.868833 335.600595 C 494.540708 338.137053 493.493833 340.944345 491.712583 344.017262 C 488.420916 349.788096 479.926124 352.678721 466.222998 352.678721 C 452.733414 352.678721 444.457372 350.032887 441.379246 344.746429 C 439.170913 340.970387 438.061538 336.439136 438.061538 331.152678 C 437.144871 332.663095 435.150079 334.876636 432.077162 337.788095 C 428.999037 340.64747 426.004245 343.074554 423.092787 345.069345 C 415.592786 349.923512 407.420911 352.350596 398.571952 352.350596 Z M 398.571952 352.350596 " stroke="#800000" stroke-width="16.572451" stroke-opacity="1" stroke-miterlimit="4"/><g fill="#ff5757" fill-opacity="1"><g transform="translate(13.610116, 261.975334)"><g><path d="M 177.484375 -130 C 188.085938 -125.363281 193.390625 -119.648438 193.390625 -112.859375 C 193.390625 -110.035156 192.0625 -105.515625 189.40625 -99.296875 C 186.757812 -93.085938 184.523438 -87.664062 182.703125 -83.03125 L 155.359375 -16.40625 C 152.867188 -9.113281 148.726562 -3.976562 142.9375 -1 C 140.445312 0.164062 137.296875 0.75 133.484375 0.75 C 129.671875 0.75 125.984375 -0.695312 122.421875 -3.59375 C 118.859375 -6.5 116.5 -9.441406 115.34375 -12.421875 L 113.359375 -16.65625 C 112.023438 -19.96875 107.132812 -32.894531 98.6875 -55.4375 C 97.03125 -51.457031 94.582031 -44.953125 91.34375 -35.921875 C 88.113281 -26.890625 86.039062 -21.253906 85.125 -19.015625 C 84.21875 -16.773438 83.640625 -15.28125 83.390625 -14.53125 C 83.148438 -13.789062 82.445312 -12.425781 81.28125 -10.4375 C 80.125 -8.445312 78.800781 -6.707031 77.3125 -5.21875 C 73.332031 -1.238281 68.773438 0.75 63.640625 0.75 C 58.503906 0.75 54.191406 -0.695312 50.703125 -3.59375 C 47.222656 -6.5 44.90625 -9.441406 43.75 -12.421875 L 6.21875 -103.90625 C 4.5625 -108.875 3.734375 -112.101562 3.734375 -113.59375 C 3.734375 -120.226562 8.453125 -125.453125 17.890625 -129.265625 C 23.203125 -131.410156 27.515625 -132.484375 30.828125 -132.484375 C 34.140625 -132.484375 36.832031 -131.78125 38.90625 -130.375 C 40.976562 -128.96875 42.425781 -127.5625 43.25 -126.15625 C 44.082031 -124.75 44.742188 -123.296875 45.234375 -121.796875 C 48.054688 -115.171875 53.941406 -99.597656 62.890625 -75.078125 L 77.5625 -115.34375 C 78.550781 -118.65625 80.375 -121.554688 83.03125 -124.046875 C 87.832031 -128.847656 92.71875 -131.25 97.6875 -131.25 C 102.664062 -131.25 106.9375 -129.921875 110.5 -127.265625 C 114.0625 -124.617188 116.503906 -121.96875 117.828125 -119.3125 L 119.8125 -115.09375 C 128.101562 -91.894531 132.992188 -78.632812 134.484375 -75.3125 L 149.640625 -116.578125 C 153.617188 -127.179688 159.585938 -132.484375 167.546875 -132.484375 C 170.691406 -132.484375 174.003906 -131.65625 177.484375 -130 Z M 177.484375 -130 "/></g></g></g><g fill="#ff5757" fill-opacity="1"><g transform="translate(210.733691, 261.975334)"><g><path d="M 68.109375 -0.5 C 51.367188 -0.5 37.488281 -6.835938 26.46875 -19.515625 C 15.445312 -32.191406 9.9375 -47.644531 9.9375 -65.875 L 9.9375 -109.375 C 9.9375 -113.351562 10.0625 -116.253906 10.3125 -118.078125 C 10.5625 -119.898438 11.265625 -122.050781 12.421875 -124.53125 C 14.742188 -129.007812 21.207031 -131.25 31.8125 -131.25 C 43.414062 -131.25 50.210938 -128.097656 52.203125 -121.796875 C 53.191406 -119.148438 53.6875 -114.925781 53.6875 -109.125 L 53.6875 -65.625 C 53.6875 -58.832031 55.632812 -53.53125 59.53125 -49.71875 C 63.425781 -45.90625 68.644531 -44 75.1875 -44 C 81.738281 -44 87.039062 -45.988281 91.09375 -49.96875 C 95.15625 -53.945312 97.1875 -59.164062 97.1875 -65.625 L 97.1875 -109.625 C 97.1875 -113.4375 97.3125 -116.296875 97.5625 -118.203125 C 97.8125 -120.109375 98.597656 -122.300781 99.921875 -124.78125 C 102.078125 -129.09375 108.457031 -131.25 119.0625 -131.25 C 129.507812 -131.25 135.890625 -129.007812 138.203125 -124.53125 C 139.367188 -122.050781 140.070312 -119.859375 140.3125 -117.953125 C 140.5625 -116.046875 140.6875 -113.1875 140.6875 -109.375 L 140.6875 -21.375 C 140.6875 -17.726562 140.5625 -14.953125 140.3125 -13.046875 C 140.070312 -11.140625 139.285156 -9.03125 137.953125 -6.71875 C 135.472656 -2.40625 129.097656 -0.25 118.828125 -0.25 C 108.710938 -0.25 102.492188 -2.238281 100.171875 -6.21875 C 98.515625 -9.03125 97.6875 -12.425781 97.6875 -16.40625 C 97.03125 -15.25 95.539062 -13.59375 93.21875 -11.4375 C 90.894531 -9.28125 88.65625 -7.457031 86.5 -5.96875 C 80.863281 -2.320312 74.734375 -0.5 68.109375 -0.5 Z M 68.109375 -0.5 "/></g></g></g></svg>