<svg xmlns="http://www.w3.org/2000/svg" xmlns:xlink="http://www.w3.org/1999/xlink" width="500" zoomAndPan="magnify" viewBox="0 0 375 374.999991" height="500" preserveAspectRatio="xMidYMid meet" version="1.0"><defs><g/></defs><path stroke-linecap="butt" transform="matrix(0.75, 0, 0, 0.75, -20.104726, -15.988443)" fill="none" stroke-linejoin="miter" d="M 253.608401 180.323144 C 266.665693 186.036686 273.191735 193.000228 273.191735 201.198145 C 273.191735 205.187729 272.30111 208.96377 270.51986 212.526271 C 268.743818 216.031479 267.853193 217.896063 267.853193 218.109604 L 181.025063 412.312742 C 179.249021 416.521076 177.738604 419.729409 176.493812 421.942951 C 175.306312 424.151285 173.394854 426.255451 170.74902 428.255452 C 168.108395 430.250243 164.790687 431.250243 160.795895 431.250243 C 156.806311 431.250243 150.952144 429.57316 143.238602 426.22941 C 130.181309 420.510659 123.655267 413.661701 123.655267 405.677325 C 123.655267 400.390866 134.254226 375.088781 155.457353 329.776278 L 89.509432 218.755438 C 85.087556 211.474187 82.874014 206.052312 82.874014 202.49502 C 82.874014 195.427311 88.863598 188.359602 100.837557 181.291894 C 108.337558 176.870018 114.186517 174.656477 118.39485 174.656477 C 122.603184 174.656477 126.030267 175.547102 128.670893 177.328352 C 131.316726 179.109602 133.233393 180.942935 134.415685 182.828352 C 135.660476 184.718977 141.728185 194.99502 152.624019 213.661687 C 163.577145 232.323147 174.040687 249.72419 184.019854 265.849191 C 185.09798 262.291899 191.061522 248.640856 201.905272 224.90648 C 212.749023 201.172103 218.545898 188.521061 219.301107 186.958561 C 220.056315 185.390852 221.32194 183.505435 223.10319 181.291894 C 225.962566 177.567935 229.983399 175.70856 235.160483 175.70856 C 240.394858 175.70856 246.5459 177.245018 253.608401 180.323144 Z M 404.764661 196.911686 C 406.056327 184.500227 414.76987 178.297102 430.900079 178.297102 C 439.530288 178.297102 445.952163 178.974185 450.160497 180.323144 C 454.368831 181.672102 457.280289 183.98981 458.900081 187.281477 C 460.571956 190.573144 461.566748 193.510644 461.889664 196.099186 C 462.217789 198.635645 462.379248 202.437728 462.379248 207.510645 L 462.379248 323.463778 C 462.379248 328.588778 462.217789 332.422112 461.889664 334.953362 C 461.566748 337.489821 460.624039 340.401279 459.061539 343.692946 C 455.983414 349.468988 448.43133 352.354405 436.400079 352.354405 C 424.374037 352.354405 416.306328 350.87003 412.207369 347.90128 C 408.108411 344.880446 405.733411 340.510654 405.087577 334.791904 C 396.88966 346.500238 383.238618 352.354405 364.144866 352.354405 C 345.045907 352.354405 327.295906 343.640863 310.900071 326.213778 C 294.551112 308.739819 286.379236 288.453359 286.379236 265.364816 C 286.379236 242.276273 294.608403 222.073146 311.061529 204.760645 C 327.566739 187.385644 345.639657 178.703352 365.275075 178.703352 C 372.827159 178.703352 379.681326 180.026269 385.827159 182.666894 C 392.030285 185.312727 396.347993 187.791894 398.775077 190.109603 C 401.20216 192.432519 403.196952 194.698145 404.764661 196.911686 Z M 344.400073 265.849191 C 344.400073 273.13565 347.259449 279.713775 352.978199 285.593984 C 358.749033 291.422109 365.707366 294.333568 373.8532 294.333568 C 382.051117 294.333568 388.847993 291.370026 394.243827 285.432525 C 399.691744 279.44815 402.415702 272.864816 402.415702 265.687733 C 402.415702 258.515857 399.801119 251.823148 394.566743 245.620023 C 389.38966 239.416897 382.431326 236.317939 373.691742 236.317939 C 365.004241 236.317939 357.936533 239.416897 352.488616 245.620023 C 347.09799 251.823148 344.400073 258.56794 344.400073 265.849191 Z M 344.400073 265.849191 " stroke="#806400" stroke-width="16.572451" stroke-opacity="1" stroke-miterlimit="4"/><g fill="#ffce1f" fill-opacity="1"><g transform="translate(38.348396, 248.76154)"><g><path d="M 131.75 -129.515625 C 141.519531 -125.203125 146.40625 -119.976562 146.40625 -113.84375 C 146.40625 -110.863281 145.742188 -108.046875 144.421875 -105.390625 C 143.097656 -102.742188 142.4375 -101.335938 142.4375 -101.171875 L 77.3125 44.5 C 75.976562 47.644531 74.851562 50.046875 73.9375 51.703125 C 73.03125 53.359375 71.582031 54.929688 69.59375 56.421875 C 67.613281 57.921875 65.128906 58.671875 62.140625 58.671875 C 59.160156 58.671875 54.769531 57.425781 48.96875 54.9375 C 39.1875 50.625 34.296875 45.488281 34.296875 39.53125 C 34.296875 35.550781 42.253906 16.570312 58.171875 -17.40625 L 8.703125 -100.671875 C 5.390625 -106.140625 3.734375 -110.203125 3.734375 -112.859375 C 3.734375 -118.160156 8.207031 -123.460938 17.15625 -128.765625 C 22.789062 -132.078125 27.179688 -133.734375 30.328125 -133.734375 C 33.472656 -133.734375 36.039062 -133.066406 38.03125 -131.734375 C 40.019531 -130.410156 41.46875 -129.046875 42.375 -127.640625 C 43.289062 -126.234375 47.847656 -118.523438 56.046875 -104.515625 C 64.253906 -90.515625 72.085938 -77.46875 79.546875 -65.375 C 80.367188 -68.03125 84.84375 -78.265625 92.96875 -96.078125 C 101.09375 -113.890625 105.441406 -123.375 106.015625 -124.53125 C 106.597656 -125.695312 107.550781 -127.109375 108.875 -128.765625 C 111.03125 -131.578125 114.054688 -132.984375 117.953125 -132.984375 C 121.847656 -132.984375 126.445312 -131.828125 131.75 -129.515625 Z M 131.75 -129.515625 "/></g></g></g><g fill="#ffce1f" fill-opacity="1"><g transform="translate(188.490428, 248.76154)"><g><path d="M 94.953125 -117.078125 C 95.953125 -126.359375 102.5 -131 114.59375 -131 C 121.050781 -131 125.851562 -130.5 129 -129.5 C 132.15625 -128.507812 134.351562 -126.769531 135.59375 -124.28125 C 136.84375 -121.800781 137.585938 -119.609375 137.828125 -117.703125 C 138.078125 -115.796875 138.203125 -112.9375 138.203125 -109.125 L 138.203125 -22.125 C 138.203125 -18.3125 138.078125 -15.453125 137.828125 -13.546875 C 137.585938 -11.640625 136.882812 -9.441406 135.71875 -6.953125 C 133.40625 -2.648438 127.734375 -0.5 118.703125 -0.5 C 109.671875 -0.5 103.617188 -1.613281 100.546875 -3.84375 C 97.484375 -6.082031 95.703125 -9.359375 95.203125 -13.671875 C 89.078125 -4.890625 78.84375 -0.5 64.5 -0.5 C 50.164062 -0.5 36.867188 -7.039062 24.609375 -20.125 C 12.347656 -33.21875 6.21875 -48.421875 6.21875 -65.734375 C 6.21875 -83.054688 12.390625 -98.222656 24.734375 -111.234375 C 37.078125 -124.242188 50.625 -130.75 65.375 -130.75 C 71.007812 -130.75 76.144531 -129.753906 80.78125 -127.765625 C 85.425781 -125.773438 88.660156 -123.910156 90.484375 -122.171875 C 92.304688 -120.429688 93.796875 -118.734375 94.953125 -117.078125 Z M 49.71875 -65.375 C 49.71875 -59.90625 51.867188 -54.972656 56.171875 -50.578125 C 60.484375 -46.191406 65.703125 -44 71.828125 -44 C 77.960938 -44 83.0625 -46.234375 87.125 -50.703125 C 91.1875 -55.179688 93.21875 -60.113281 93.21875 -65.5 C 93.21875 -70.882812 91.269531 -75.894531 87.375 -80.53125 C 83.476562 -85.175781 78.253906 -87.5 71.703125 -87.5 C 65.160156 -87.5 59.859375 -85.175781 55.796875 -80.53125 C 51.742188 -75.894531 49.71875 -70.84375 49.71875 -65.375 Z M 49.71875 -65.375 "/></g></g></g></svg>