<svg xmlns="http://www.w3.org/2000/svg" xmlns:xlink="http://www.w3.org/1999/xlink" width="500" zoomAndPan="magnify" viewBox="0 0 375 374.999991" height="500" preserveAspectRatio="xMidYMid meet" version="1.0"><defs><g/></defs><path stroke-linecap="butt" transform="matrix(0.75, 0, 0, 0.75, -20.104726, -15.988446)" fill="none" stroke-linejoin="miter" d="M 257.420901 180.323148 C 270.478193 186.03669 277.004236 193.000233 277.004236 201.19815 C 277.004236 205.187733 276.113611 208.963775 274.33236 212.526275 C 272.556319 216.031484 271.665694 217.896068 271.665694 218.109609 L 184.837563 412.312747 C 183.061521 416.521081 181.551104 419.729414 180.306313 421.942956 C 179.118812 424.151289 177.207354 426.255456 174.561521 428.255456 C 171.920895 430.250248 168.603187 431.250248 164.608395 431.250248 C 160.618811 431.250248 154.764644 429.573165 147.051102 426.229415 C 133.99381 420.510664 127.467767 413.661705 127.467767 405.67733 C 127.467767 400.390871 138.066726 375.088786 159.269853 329.776283 L 93.321932 218.755443 C 88.900057 211.474192 86.686515 206.052317 86.686515 202.495025 C 86.686515 195.427316 92.676098 188.359607 104.650058 181.291898 C 112.150058 176.870023 117.999017 174.656481 122.20735 174.656481 C 126.415684 174.656481 129.842768 175.547106 132.483393 177.328357 C 135.129226 179.109607 137.045893 180.94294 138.228185 182.828357 C 139.472977 184.718982 145.540685 194.995024 156.436519 213.661692 C 167.389645 232.323152 177.853187 249.724195 187.832355 265.849196 C 188.91048 262.291904 194.874022 248.640861 205.717773 224.906485 C 216.561523 201.172108 222.358399 188.521066 223.113607 186.958565 C 223.868815 185.390857 225.134441 183.50544 226.915691 181.291898 C 229.775066 177.56794 233.795899 175.708565 238.972983 175.708565 C 244.207358 175.708565 250.3584 177.245023 257.420901 180.323148 Z M 463.597998 244.812736 C 463.597998 258.406487 460.228206 268.468987 453.483414 274.99503 C 446.74383 281.468988 439.269871 284.703364 431.071954 284.703364 L 352.499032 284.703364 C 352.499032 290.906489 356.139657 296.114823 363.426116 300.323156 C 370.75945 304.53149 378.071951 306.635657 385.353201 306.635657 C 398.191744 306.635657 408.254244 305.286698 415.535495 302.588781 L 419.17612 301.291906 C 424.462579 298.864823 428.884454 297.651281 432.446954 297.651281 C 439.514663 297.651281 445.582372 302.614823 450.655289 312.541907 C 453.514664 318.531491 454.941747 323.625241 454.941747 327.833575 C 454.941747 347.468993 431.420912 357.286702 384.379243 357.286702 C 368.035492 357.286702 353.499032 354.484618 340.764656 348.875243 C 328.087572 343.208576 318.191738 335.739825 311.071946 326.458575 C 297.15007 308.604407 290.191736 288.614822 290.191736 266.500237 C 290.191736 238.661694 299.202154 216.411692 317.21778 199.739816 C 335.238614 183.015857 357.733408 174.656481 384.707368 174.656481 C 415.400078 174.656481 437.920913 185.500232 452.269872 207.187733 C 459.821956 218.677318 463.597998 231.218985 463.597998 244.812736 Z M 393.60841 254.52107 C 402.019869 254.52107 406.228202 250.98982 406.228202 243.922111 C 406.228202 238.849194 404.285494 234.776277 400.405285 231.70336 C 396.571952 228.630443 391.04591 227.093985 383.816743 227.093985 C 376.639659 227.093985 369.519867 230.031485 362.452158 235.911694 C 355.384449 241.739819 351.853199 247.942944 351.853199 254.52107 Z M 393.60841 254.52107 " stroke="#806400" stroke-width="16.572451" stroke-opacity="1" stroke-miterlimit="4"/><g fill="#ffce1f" fill-opacity="1"><g transform="translate(41.20777, 248.761536)"><g><path d="M 131.75 -129.515625 C 141.519531 -125.203125 146.40625 -119.976562 146.40625 -113.84375 C 146.40625 -110.863281 145.742188 -108.046875 144.421875 -105.390625 C 143.097656 -102.742188 142.4375 -101.335938 142.4375 -101.171875 L 77.3125 44.5 C 75.976562 47.644531 74.851562 50.046875 73.9375 51.703125 C 73.03125 53.359375 71.582031 54.929688 69.59375 56.421875 C 67.613281 57.921875 65.128906 58.671875 62.140625 58.671875 C 59.160156 58.671875 54.769531 57.425781 48.96875 54.9375 C 39.1875 50.625 34.296875 45.488281 34.296875 39.53125 C 34.296875 35.550781 42.253906 16.570312 58.171875 -17.40625 L 8.703125 -100.671875 C 5.390625 -106.140625 3.734375 -110.203125 3.734375 -112.859375 C 3.734375 -118.160156 8.207031 -123.460938 17.15625 -128.765625 C 22.789062 -132.078125 27.179688 -133.734375 30.328125 -133.734375 C 33.472656 -133.734375 36.039062 -133.066406 38.03125 -131.734375 C 40.019531 -130.410156 41.46875 -129.046875 42.375 -127.640625 C 43.289062 -126.234375 47.847656 -118.523438 56.046875 -104.515625 C 64.253906 -90.515625 72.085938 -77.46875 79.546875 -65.375 C 80.367188 -68.03125 84.84375 -78.265625 92.96875 -96.078125 C 101.09375 -113.890625 105.441406 -123.375 106.015625 -124.53125 C 106.597656 -125.695312 107.550781 -127.109375 108.875 -128.765625 C 111.03125 -131.578125 114.054688 -132.984375 117.953125 -132.984375 C 121.847656 -132.984375 126.445312 -131.828125 131.75 -129.515625 Z M 131.75 -129.515625 "/></g></g></g><g fill="#ffce1f" fill-opacity="1"><g transform="translate(191.349803, 248.761536)"><g><path d="M 136.21875 -81.15625 C 136.21875 -70.96875 133.691406 -63.425781 128.640625 -58.53125 C 123.585938 -53.644531 117.992188 -51.203125 111.859375 -51.203125 L 52.953125 -51.203125 C 52.953125 -46.566406 55.6875 -42.671875 61.15625 -39.515625 C 66.625 -36.367188 72.09375 -34.796875 77.5625 -34.796875 C 87.164062 -34.796875 94.703125 -35.789062 100.171875 -37.78125 L 102.90625 -38.78125 C 106.882812 -40.601562 110.203125 -41.515625 112.859375 -41.515625 C 118.160156 -41.515625 122.71875 -37.785156 126.53125 -30.328125 C 128.675781 -25.847656 129.75 -22.035156 129.75 -18.890625 C 129.75 -4.140625 112.101562 3.234375 76.8125 3.234375 C 64.550781 3.234375 53.65625 1.117188 44.125 -3.109375 C 34.59375 -7.335938 27.175781 -12.929688 21.875 -19.890625 C 11.4375 -33.304688 6.21875 -48.300781 6.21875 -64.875 C 6.21875 -85.757812 12.96875 -102.457031 26.46875 -114.96875 C 39.976562 -127.476562 56.84375 -133.734375 77.0625 -133.734375 C 100.09375 -133.734375 116.992188 -125.613281 127.765625 -109.375 C 133.398438 -100.757812 136.21875 -91.351562 136.21875 -81.15625 Z M 83.765625 -73.828125 C 90.066406 -73.828125 93.21875 -76.476562 93.21875 -81.78125 C 93.21875 -85.59375 91.765625 -88.65625 88.859375 -90.96875 C 85.960938 -93.289062 81.820312 -94.453125 76.4375 -94.453125 C 71.050781 -94.453125 65.707031 -92.253906 60.40625 -87.859375 C 55.101562 -83.472656 52.453125 -78.796875 52.453125 -73.828125 Z M 83.765625 -73.828125 "/></g></g></g></svg>