<svg xmlns="http://www.w3.org/2000/svg" xmlns:xlink="http://www.w3.org/1999/xlink" width="500" zoomAndPan="magnify" viewBox="0 0 375 374.999991" height="500" preserveAspectRatio="xMidYMid meet" version="1.0"><defs><g/></defs><path stroke-linecap="butt" transform="matrix(0.75, 0, 0, 0.75, -20.104726, -15.988475)" fill="none" stroke-linejoin="miter" d="M 310.108404 180.323187 C 323.165697 186.036729 329.691739 193.000272 329.691739 201.198189 C 329.691739 205.187772 328.801114 208.963814 327.019864 212.526315 C 325.243822 216.031523 324.353197 217.896107 324.353197 218.109648 L 237.525066 412.312786 C 235.749025 416.52112 234.238608 419.729453 232.993816 421.942995 C 231.806316 424.151328 229.894857 426.255495 227.249024 428.255495 C 224.608399 430.250287 221.29069 431.245079 217.295898 431.245079 C 213.306315 431.245079 207.452148 429.573204 199.738606 426.229454 C 186.681313 420.510703 180.155271 413.661744 180.155271 405.677369 C 180.155271 400.39091 190.75423 375.088825 211.957356 329.776322 L 146.009435 218.755482 C 141.58756 211.474231 139.374018 206.052356 139.374018 202.495064 C 139.374018 195.427355 145.363602 188.359646 157.337561 181.291937 C 164.837562 176.870062 170.68652 174.65652 174.894854 174.65652 C 179.103187 174.65652 182.530271 175.547145 185.170896 177.328396 C 187.81673 179.109646 189.733397 180.942979 190.915688 182.828396 C 192.16048 184.719021 198.228189 194.995063 209.124023 213.661731 C 220.077149 232.323191 230.540691 249.724234 240.519858 265.849235 C 241.597983 262.291943 247.561525 248.6409 258.405276 224.906524 C 269.249027 201.172147 275.045902 188.521105 275.80111 186.958605 C 276.556319 185.390896 277.821944 183.505479 279.603194 181.291937 C 282.462569 177.567979 286.483403 175.708604 291.660487 175.708604 C 296.894862 175.708604 303.045904 177.245062 310.108404 180.323187 Z M 347.894865 207.510689 C 347.894865 202.437772 348.061532 198.635689 348.384449 196.09923 C 348.707365 193.510688 349.650074 190.573188 351.212574 187.281521 C 354.290699 181.562771 362.894866 178.703396 377.030284 178.703396 C 387.655285 178.703396 395.181327 180.562771 399.603202 184.286729 C 403.327161 187.359646 405.321952 192.109647 405.592786 198.526314 C 405.806327 200.739855 405.915702 203.948189 405.915702 208.156523 L 405.915702 324.192989 C 405.915702 329.265906 405.728202 333.067989 405.347994 335.604448 C 405.025077 338.135698 403.999036 341.078406 402.275077 344.422157 C 399.363619 350.140907 390.837576 353.000282 376.702159 353.000282 C 362.785491 353.000282 354.290699 350.00549 351.212574 344.015906 C 349.650074 340.729448 348.707365 337.870073 348.384449 335.442989 C 348.061532 333.010697 347.894865 329.156531 347.894865 323.870072 Z M 402.353202 146.010685 C 400.738619 149.192977 397.821952 151.458602 393.613618 152.807561 C 389.410493 154.156519 383.827159 154.833602 376.863617 154.833602 C 369.905283 154.833602 364.32195 154.156519 360.113616 152.807561 C 355.962574 151.458602 353.051116 149.140894 351.37924 145.849227 C 349.702157 142.55756 348.707365 139.646101 348.384449 137.109643 C 348.061532 134.521101 347.894865 130.692976 347.894865 125.620059 C 347.894865 120.547142 348.061532 116.745058 348.384449 114.2086 C 348.707365 111.67735 349.650074 108.844016 351.212574 105.713808 C 354.290699 99.781515 362.894866 96.812765 377.030284 96.812765 C 390.946951 96.812765 399.363619 99.781515 402.275077 105.713808 C 403.999036 109.057558 405.025077 112.000266 405.347994 114.536725 C 405.728202 117.067975 405.915702 120.875267 405.915702 125.942976 C 405.915702 131.015893 405.728202 134.844018 405.347994 137.43256 C 405.025077 139.969018 404.025077 142.828393 402.353202 146.010685 Z M 402.353202 146.010685 " stroke="#806400" stroke-width="16.572451" stroke-opacity="1" stroke-miterlimit="4"/><g fill="#ffce1f" fill-opacity="1"><g transform="translate(80.723393, 248.761507)"><g><path d="M 131.75 -129.515625 C 141.519531 -125.203125 146.40625 -119.976562 146.40625 -113.84375 C 146.40625 -110.863281 145.742188 -108.046875 144.421875 -105.390625 C 143.097656 -102.742188 142.4375 -101.335938 142.4375 -101.171875 L 77.3125 44.5 C 75.976562 47.644531 74.851562 50.046875 73.9375 51.703125 C 73.03125 53.359375 71.582031 54.929688 69.59375 56.421875 C 67.613281 57.921875 65.128906 58.671875 62.140625 58.671875 C 59.160156 58.671875 54.769531 57.425781 48.96875 54.9375 C 39.1875 50.625 34.296875 45.488281 34.296875 39.53125 C 34.296875 35.550781 42.253906 16.570312 58.171875 -17.40625 L 8.703125 -100.671875 C 5.390625 -106.140625 3.734375 -110.203125 3.734375 -112.859375 C 3.734375 -118.160156 8.207031 -123.460938 17.15625 -128.765625 C 22.789062 -132.078125 27.179688 -133.734375 30.328125 -133.734375 C 33.472656 -133.734375 36.039062 -133.066406 38.03125 -131.734375 C 40.019531 -130.410156 41.46875 -129.046875 42.375 -127.640625 C 43.289062 -126.234375 47.847656 -118.523438 56.046875 -104.515625 C 64.253906 -90.515625 72.085938 -77.46875 79.546875 -65.375 C 80.367188 -68.03125 84.84375 -78.265625 92.96875 -96.078125 C 101.09375 -113.890625 105.441406 -123.375 106.015625 -124.53125 C 106.597656 -125.695312 107.550781 -127.109375 108.875 -128.765625 C 111.03125 -131.578125 114.054688 -132.984375 117.953125 -132.984375 C 121.847656 -132.984375 126.445312 -131.828125 131.75 -129.515625 Z M 131.75 -129.515625 "/></g></g></g><g fill="#ffce1f" fill-opacity="1"><g transform="translate(230.865425, 248.761507)"><g><path d="M 9.9375 -109.125 C 9.9375 -112.9375 10.0625 -115.796875 10.3125 -117.703125 C 10.5625 -119.609375 11.265625 -121.800781 12.421875 -124.28125 C 14.742188 -128.59375 21.207031 -130.75 31.8125 -130.75 C 39.769531 -130.75 45.40625 -129.34375 48.71875 -126.53125 C 51.539062 -124.207031 53.035156 -120.644531 53.203125 -115.84375 C 53.359375 -114.1875 53.4375 -111.78125 53.4375 -108.625 L 53.4375 -21.625 C 53.4375 -17.8125 53.3125 -14.953125 53.0625 -13.046875 C 52.820312 -11.140625 52.035156 -8.945312 50.703125 -6.46875 C 48.554688 -2.15625 42.175781 0 31.5625 0 C 21.125 0 14.742188 -2.238281 12.421875 -6.71875 C 11.265625 -9.195312 10.5625 -11.347656 10.3125 -13.171875 C 10.0625 -14.992188 9.9375 -17.894531 9.9375 -21.875 Z M 50.828125 -155.234375 C 49.585938 -152.828125 47.394531 -151.128906 44.25 -150.140625 C 41.101562 -149.148438 36.914062 -148.65625 31.6875 -148.65625 C 26.46875 -148.65625 22.285156 -149.148438 19.140625 -150.140625 C 15.992188 -151.128906 13.796875 -152.867188 12.546875 -155.359375 C 11.304688 -157.847656 10.5625 -160.046875 10.3125 -161.953125 C 10.0625 -163.859375 9.9375 -166.710938 9.9375 -170.515625 C 9.9375 -174.328125 10.0625 -177.1875 10.3125 -179.09375 C 10.5625 -181 11.265625 -183.113281 12.421875 -185.4375 C 14.742188 -189.914062 21.207031 -192.15625 31.8125 -192.15625 C 42.257812 -192.15625 48.554688 -189.914062 50.703125 -185.4375 C 52.035156 -182.945312 52.820312 -180.75 53.0625 -178.84375 C 53.3125 -176.945312 53.4375 -174.09375 53.4375 -170.28125 C 53.4375 -166.46875 53.3125 -163.609375 53.0625 -161.703125 C 52.820312 -159.796875 52.078125 -157.640625 50.828125 -155.234375 Z M 50.828125 -155.234375 "/></g></g></g></svg>