<svg xmlns="http://www.w3.org/2000/svg" xmlns:xlink="http://www.w3.org/1999/xlink" width="500" zoomAndPan="magnify" viewBox="0 0 375 374.999991" height="500" preserveAspectRatio="xMidYMid meet" version="1.0"><defs><g/></defs><path stroke-linecap="butt" transform="matrix(0.75, 0, 0, 0.75, -20.104726, -15.988358)" fill="none" stroke-linejoin="miter" d="M 252.936526 180.323031 C 265.993818 186.041782 272.51986 193.000115 272.51986 201.198033 C 272.51986 205.187616 271.629235 208.963658 269.847985 212.526158 C 268.071943 216.031367 267.181318 217.89595 267.181318 218.109492 L 180.353188 412.31263 C 178.577146 416.520963 177.066729 419.729297 175.821937 421.942839 C 174.634437 424.156381 172.722979 426.255339 170.077145 428.255339 C 167.43652 430.250131 164.118811 431.250131 160.12402 431.250131 C 156.134436 431.250131 150.280269 429.573048 142.566727 426.229297 C 129.509434 420.510547 122.983392 413.661588 122.983392 405.677213 C 122.983392 400.390754 133.582351 375.088669 154.785478 329.776166 L 88.837557 218.755325 C 84.415681 211.474075 82.202139 206.0522 82.202139 202.494908 C 82.202139 195.427199 88.191723 188.35949 100.165682 181.291781 C 107.665683 176.869906 113.514642 174.656364 117.722975 174.656364 C 121.931309 174.656364 125.358392 175.546989 127.999017 177.328239 C 130.644851 179.10949 132.561518 180.942823 133.74381 182.82824 C 134.988601 184.718865 141.05631 194.994907 151.952144 213.661575 C 162.90527 232.323035 173.368812 249.724077 183.347979 265.849079 C 184.426104 262.291787 190.389647 248.640744 201.233397 224.906368 C 212.077148 201.171991 217.874023 188.520948 218.629232 186.958448 C 219.38444 185.39074 220.650065 183.505323 222.431315 181.291781 C 225.290691 177.567823 229.311524 175.708448 234.488608 175.708448 C 239.722983 175.708448 245.874025 177.244906 252.936526 180.323031 Z M 285.707361 265.849079 C 285.707361 239.312618 294.988612 217.437617 313.545905 200.229283 C 332.155281 182.963656 353.384449 174.333448 377.2282 174.333448 C 401.071952 174.333448 422.165703 182.911573 440.504246 200.062616 C 458.847998 217.166784 468.014665 238.984493 468.014665 265.526162 C 468.014665 283.869913 463.269873 300.161581 453.775081 314.401165 C 444.280288 328.645958 432.738621 339.135542 419.14487 345.880334 C 405.545911 352.619918 391.441743 355.994918 376.82195 355.994918 C 362.25945 355.994918 348.124032 352.406376 334.420906 345.229292 C 320.775072 338.057417 309.228196 327.458458 299.790695 313.432415 C 290.40007 299.349081 285.707361 283.489705 285.707361 265.849079 Z M 354.972991 289.562622 C 362.092783 294.953247 369.295908 297.651164 376.577159 297.651164 C 383.863618 297.651164 391.144868 294.901164 398.426119 289.395955 C 405.712577 283.843871 409.353203 275.671996 409.353203 264.880328 C 409.353203 254.036578 405.926119 245.974077 399.07716 240.687619 C 392.222993 235.343868 384.806326 232.677201 376.82195 232.677201 C 368.894867 232.677201 361.504241 235.453243 354.650074 241.010535 C 347.801115 246.510536 344.374032 254.630328 344.374032 265.364704 C 344.374032 276.046996 347.905282 284.109496 354.972991 289.562622 Z M 354.972991 289.562622 " stroke="#806400" stroke-width="16.572451" stroke-opacity="1" stroke-miterlimit="4"/><g fill="#ffce1f" fill-opacity="1"><g transform="translate(37.844489, 248.761624)"><g><path d="M 131.75 -129.515625 C 141.519531 -125.203125 146.40625 -119.976562 146.40625 -113.84375 C 146.40625 -110.863281 145.742188 -108.046875 144.421875 -105.390625 C 143.097656 -102.742188 142.4375 -101.335938 142.4375 -101.171875 L 77.3125 44.5 C 75.976562 47.644531 74.851562 50.046875 73.9375 51.703125 C 73.03125 53.359375 71.582031 54.929688 69.59375 56.421875 C 67.613281 57.921875 65.128906 58.671875 62.140625 58.671875 C 59.160156 58.671875 54.769531 57.425781 48.96875 54.9375 C 39.1875 50.625 34.296875 45.488281 34.296875 39.53125 C 34.296875 35.550781 42.253906 16.570312 58.171875 -17.40625 L 8.703125 -100.671875 C 5.390625 -106.140625 3.734375 -110.203125 3.734375 -112.859375 C 3.734375 -118.160156 8.207031 -123.460938 17.15625 -128.765625 C 22.789062 -132.078125 27.179688 -133.734375 30.328125 -133.734375 C 33.472656 -133.734375 36.039062 -133.066406 38.03125 -131.734375 C 40.019531 -130.410156 41.46875 -129.046875 42.375 -127.640625 C 43.289062 -126.234375 47.847656 -118.523438 56.046875 -104.515625 C 64.253906 -90.515625 72.085938 -77.46875 79.546875 -65.375 C 80.367188 -68.03125 84.84375 -78.265625 92.96875 -96.078125 C 101.09375 -113.890625 105.441406 -123.375 106.015625 -124.53125 C 106.597656 -125.695312 107.550781 -127.109375 108.875 -128.765625 C 111.03125 -131.578125 114.054688 -132.984375 117.953125 -132.984375 C 121.847656 -132.984375 126.445312 -131.828125 131.75 -129.515625 Z M 131.75 -129.515625 "/></g></g></g><g fill="#ffce1f" fill-opacity="1"><g transform="translate(187.986522, 248.761624)"><g><path d="M 6.21875 -65.375 C 6.21875 -85.257812 13.175781 -101.664062 27.09375 -114.59375 C 41.007812 -127.519531 56.914062 -133.984375 74.8125 -133.984375 C 92.71875 -133.984375 108.546875 -127.5625 122.296875 -114.71875 C 136.054688 -101.875 142.9375 -85.507812 142.9375 -65.625 C 142.9375 -51.875 139.367188 -39.648438 132.234375 -28.953125 C 125.109375 -18.265625 116.453125 -10.394531 106.265625 -5.34375 C 96.078125 -0.289062 85.515625 2.234375 74.578125 2.234375 C 63.640625 2.234375 53.03125 -0.457031 42.75 -5.84375 C 32.476562 -11.226562 23.820312 -19.179688 16.78125 -29.703125 C 9.738281 -40.222656 6.21875 -52.113281 6.21875 -65.375 Z M 58.171875 -47.59375 C 63.472656 -43.539062 68.859375 -41.515625 74.328125 -41.515625 C 79.796875 -41.515625 85.265625 -43.582031 90.734375 -47.71875 C 96.203125 -51.863281 98.9375 -57.992188 98.9375 -66.109375 C 98.9375 -74.234375 96.363281 -80.285156 91.21875 -84.265625 C 86.082031 -88.242188 80.53125 -90.234375 74.5625 -90.234375 C 68.601562 -90.234375 63.054688 -88.160156 57.921875 -84.015625 C 52.785156 -79.878906 50.21875 -73.789062 50.21875 -65.75 C 50.21875 -57.707031 52.867188 -51.65625 58.171875 -47.59375 Z M 58.171875 -47.59375 "/></g></g></g></svg>