<svg xmlns="http://www.w3.org/2000/svg" xmlns:xlink="http://www.w3.org/1999/xlink" width="500" zoomAndPan="magnify" viewBox="0 0 375 374.999991" height="500" preserveAspectRatio="xMidYMid meet" version="1.0"><defs><g/></defs><path stroke-linecap="butt" transform="matrix(0.75, 0, 0, 0.75, -20.104726, -15.988358)" fill="none" stroke-linejoin="miter" d="M 251.952151 180.323031 C 265.009443 186.041782 271.535485 193.000115 271.535485 201.198033 C 271.535485 205.187616 270.64486 208.963658 268.86361 212.526158 C 267.087568 216.031367 266.196943 217.89595 266.196943 218.109492 L 179.368812 412.31263 C 177.592771 416.520963 176.082354 419.729297 174.837562 421.942839 C 173.650062 424.156381 171.738604 426.255339 169.09277 428.255339 C 166.452145 430.250131 163.134436 431.250131 159.139645 431.250131 C 155.150061 431.250131 149.295894 429.573048 141.582352 426.229297 C 128.525059 420.510547 121.999017 413.661588 121.999017 405.677213 C 121.999017 400.390754 132.597976 375.088669 153.801102 329.776166 L 87.853181 218.755325 C 83.431306 211.474075 81.217764 206.0522 81.217764 202.494908 C 81.217764 195.427199 87.207348 188.35949 99.181307 181.291781 C 106.681308 176.869906 112.530266 174.656364 116.7386 174.656364 C 120.946934 174.656364 124.374017 175.546989 127.014642 177.328239 C 129.660476 179.10949 131.577143 180.942823 132.759434 182.82824 C 134.004226 184.718865 140.071935 194.994907 150.967769 213.661575 C 161.920895 232.323035 172.384437 249.724077 182.363604 265.849079 C 183.441729 262.291787 189.405271 248.640744 200.249022 224.906368 C 211.092773 201.171991 216.889648 188.520948 217.644857 186.958448 C 218.400065 185.39074 219.66569 183.505323 221.44694 181.291781 C 224.306315 177.567823 228.327149 175.708448 233.504233 175.708448 C 238.738608 175.708448 244.88965 177.244906 251.952151 180.323031 Z M 367.25945 352.354293 C 344.983407 352.354293 326.478197 343.911584 311.74903 327.026166 C 297.077154 310.088665 289.738611 289.479288 289.738611 265.203245 L 289.738611 207.187616 C 289.738611 201.843866 289.905278 197.963657 290.228195 195.531366 C 290.551111 193.104282 291.49382 190.244907 293.05632 186.958448 C 296.134445 180.968865 304.738612 177.974073 318.87403 177.974073 C 334.353198 177.974073 343.415698 182.182406 346.061532 190.599074 C 347.41049 194.104282 348.082365 199.739699 348.082365 207.510533 L 348.082365 265.526162 C 348.082365 274.588662 350.670907 281.656371 355.853199 286.729288 C 361.030283 291.796997 367.988617 294.333455 376.7282 294.333455 C 385.467784 294.333455 392.535493 291.69283 397.926119 286.406372 C 403.379244 281.062621 406.103202 274.104287 406.103202 265.526162 L 406.103202 206.8647 C 406.103202 201.739699 406.264661 197.906366 406.587577 195.369907 C 406.910494 192.838657 407.962578 189.92199 409.743828 186.630323 C 412.603203 180.85949 421.097995 177.974073 435.233413 177.974073 C 449.15008 177.974073 457.644872 180.968865 460.722998 186.958448 C 462.285498 190.244907 463.228206 193.187615 463.551123 195.776157 C 463.879248 198.312616 464.040706 202.114699 464.040706 207.187616 L 464.040706 324.515749 C 464.040706 329.369916 463.879248 333.067833 463.551123 335.604291 C 463.228206 338.135542 462.176123 340.942833 460.394873 344.01575 C 457.108414 349.791792 448.608414 352.677209 434.910496 352.677209 C 421.420912 352.677209 413.139661 350.031376 410.066744 344.744917 C 407.853203 340.968875 406.749036 336.437625 406.749036 331.151166 C 405.832369 332.661583 403.837577 334.875125 400.759452 337.786583 C 397.686535 340.645958 394.691743 343.073042 391.780285 345.067834 C 384.280284 349.927209 376.108409 352.354293 367.25945 352.354293 Z M 367.25945 352.354293 " stroke="#806400" stroke-width="16.572451" stroke-opacity="1" stroke-miterlimit="4"/><g fill="#ffce1f" fill-opacity="1"><g transform="translate(37.106208, 248.761624)"><g><path d="M 131.75 -129.515625 C 141.519531 -125.203125 146.40625 -119.976562 146.40625 -113.84375 C 146.40625 -110.863281 145.742188 -108.046875 144.421875 -105.390625 C 143.097656 -102.742188 142.4375 -101.335938 142.4375 -101.171875 L 77.3125 44.5 C 75.976562 47.644531 74.851562 50.046875 73.9375 51.703125 C 73.03125 53.359375 71.582031 54.929688 69.59375 56.421875 C 67.613281 57.921875 65.128906 58.671875 62.140625 58.671875 C 59.160156 58.671875 54.769531 57.425781 48.96875 54.9375 C 39.1875 50.625 34.296875 45.488281 34.296875 39.53125 C 34.296875 35.550781 42.253906 16.570312 58.171875 -17.40625 L 8.703125 -100.671875 C 5.390625 -106.140625 3.734375 -110.203125 3.734375 -112.859375 C 3.734375 -118.160156 8.207031 -123.460938 17.15625 -128.765625 C 22.789062 -132.078125 27.179688 -133.734375 30.328125 -133.734375 C 33.472656 -133.734375 36.039062 -133.066406 38.03125 -131.734375 C 40.019531 -130.410156 41.46875 -129.046875 42.375 -127.640625 C 43.289062 -126.234375 47.847656 -118.523438 56.046875 -104.515625 C 64.253906 -90.515625 72.085938 -77.46875 79.546875 -65.375 C 80.367188 -68.03125 84.84375 -78.265625 92.96875 -96.078125 C 101.09375 -113.890625 105.441406 -123.375 106.015625 -124.53125 C 106.597656 -125.695312 107.550781 -127.109375 108.875 -128.765625 C 111.03125 -131.578125 114.054688 -132.984375 117.953125 -132.984375 C 121.847656 -132.984375 126.445312 -131.828125 131.75 -129.515625 Z M 131.75 -129.515625 "/></g></g></g><g fill="#ffce1f" fill-opacity="1"><g transform="translate(187.248241, 248.761624)"><g><path d="M 68.109375 -0.5 C 51.367188 -0.5 37.488281 -6.835938 26.46875 -19.515625 C 15.445312 -32.191406 9.9375 -47.644531 9.9375 -65.875 L 9.9375 -109.375 C 9.9375 -113.351562 10.0625 -116.253906 10.3125 -118.078125 C 10.5625 -119.898438 11.265625 -122.050781 12.421875 -124.53125 C 14.742188 -129.007812 21.207031 -131.25 31.8125 -131.25 C 43.414062 -131.25 50.210938 -128.097656 52.203125 -121.796875 C 53.191406 -119.148438 53.6875 -114.925781 53.6875 -109.125 L 53.6875 -65.625 C 53.6875 -58.832031 55.632812 -53.53125 59.53125 -49.71875 C 63.425781 -45.90625 68.644531 -44 75.1875 -44 C 81.738281 -44 87.039062 -45.988281 91.09375 -49.96875 C 95.15625 -53.945312 97.1875 -59.164062 97.1875 -65.625 L 97.1875 -109.625 C 97.1875 -113.4375 97.3125 -116.296875 97.5625 -118.203125 C 97.8125 -120.109375 98.597656 -122.300781 99.921875 -124.78125 C 102.078125 -129.09375 108.457031 -131.25 119.0625 -131.25 C 129.507812 -131.25 135.890625 -129.007812 138.203125 -124.53125 C 139.367188 -122.050781 140.070312 -119.859375 140.3125 -117.953125 C 140.5625 -116.046875 140.6875 -113.1875 140.6875 -109.375 L 140.6875 -21.375 C 140.6875 -17.726562 140.5625 -14.953125 140.3125 -13.046875 C 140.070312 -11.140625 139.285156 -9.03125 137.953125 -6.71875 C 135.472656 -2.40625 129.097656 -0.25 118.828125 -0.25 C 108.710938 -0.25 102.492188 -2.238281 100.171875 -6.21875 C 98.515625 -9.03125 97.6875 -12.425781 97.6875 -16.40625 C 97.03125 -15.25 95.539062 -13.59375 93.21875 -11.4375 C 90.894531 -9.28125 88.65625 -7.457031 86.5 -5.96875 C 80.863281 -2.320312 74.734375 -0.5 68.109375 -0.5 Z M 68.109375 -0.5 "/></g></g></g></svg>