<?xml version="1.0" encoding="iso-8859-1"?>
<!-- Uploaded to: SVG Repo, www.svgrepo.com, Generator: SVG Repo Mixer Tools -->
<svg height="800px" width="800px" version="1.1" id="Layer_1" xmlns="http://www.w3.org/2000/svg" xmlns:xlink="http://www.w3.org/1999/xlink" 
	 viewBox="0 0 503.467 503.467" xml:space="preserve">
<g transform="translate(5 1)">
	<path style="fill:#AE938D;" d="M169.933,45.933c20.48-17.92,47.787-25.6,76.8-25.6c27.307,0,55.467,7.68,76.8,25.6l0,0V37.4
		c0-18.773,15.36-34.133,34.133-34.133S391.8,18.627,391.8,37.4s-15.36,34.133-34.133,34.133c-2.56,0-5.12,0-6.827-0.853
		c27.307,34.133,40.96,83.627,40.96,137.387c0,45.227-49.493,90.453-98.987,110.08c-16.213,5.973-31.573,9.387-46.08,9.387
		c-13.653,0-29.013-3.413-44.373-8.533c-50.347-18.773-100.693-64.853-100.693-110.933c0-53.76,14.507-102.4,40.96-137.387
		c-2.56,0-4.267,0.853-6.827,0.853c-18.773,0-34.133-15.36-34.133-34.133S117.027,3.267,135.8,3.267s34.133,15.36,34.133,34.133
		V45.933L169.933,45.933z"/>
	<path style="fill:#AAB1BA;" d="M263.8,173.933L263.8,173.933c0,1.707-3.413,25.6-17.067,25.6c-13.653,0-17.067-23.893-17.067-25.6
		l0,0c0,0,0-8.533,17.067-8.533S263.8,173.933,263.8,173.933"/>
	<g>
		<path style="fill:#AE938D;" d="M297.933,438.467c11.947-4.267,24.747-4.267,33.28,0.853c10.24,5.973,15.36,18.773,9.387,41.813
			c-2.56,8.533-8.533,17.067-17.067,17.067h-42.667c-18.773,0-34.133-15.36-34.133-34.133v-8.533l0,0v-128
			c14.507,0,29.867-3.413,46.08-9.387c8.533-2.56,19.627-4.267,30.72-5.12v1.707c-11.093,16.213-17.067,38.4-17.067,38.4
			C297.933,387.267,297.933,438.467,297.933,438.467L297.933,438.467z"/>
		<path style="fill:#AE938D;" d="M246.733,455.533v8.533c0,18.773-15.36,34.133-34.133,34.133h-42.667
			c-8.533,0-15.36-8.533-17.067-17.067c-4.267-23.893-0.853-35.84,6.827-42.667c8.533-6.827,22.187-5.12,35.84,0L246.733,455.533z
			 M246.733,327.533v128l-51.2-17.067c0,0,0-51.2-8.533-85.333c0,0-3.413-19.627-17.067-39.253v-0.853
			c10.24,0.853,21.333,2.56,32.427,5.12C217.72,324.12,233.08,327.533,246.733,327.533z"/>
	</g>
	<path style="fill:#FFD0A1;" d="M263.8,173.933c21.333,0.853,42.667,3.413,42.667,17.067c0,42.667-25.6,85.333-59.733,85.333
		S187,233.667,187,191c0-13.653,21.333-16.213,42.667-17.067c0,1.707,3.413,25.6,17.067,25.6
		C260.387,199.533,263.8,175.64,263.8,173.933"/>
	<g>
		<path style="fill:#AE938D;" d="M187,353.133c8.533,34.133,8.533,85.333,8.533,85.333c-13.653-4.267-28.16-6.827-35.84,0h-1.707
			H128.12c0,0,0-59.733-42.667-59.733c-17.067-68.267,42.667-68.267,42.667-68.267s19.627,0,42.667,2.56v0.853
			C183.587,333.507,187,353.133,187,353.133"/>
		<path style="fill:#AE938D;" d="M159.693,438.467c-6.827,5.973-10.24,18.773-6.827,42.667
			c-8.533,17.067-34.133,17.067-34.133,17.067H84.6c-17.067,0-29.867-8.533-38.4-21.333c-8.533-12.8-12.8-29.867-12.8-46.933
			c0-25.6,17.067-51.2,51.2-51.2c42.667,0,42.667,59.733,42.667,59.733h29.867H159.693z"/>
		<path style="fill:#AE938D;" d="M408.867,378.733c34.133,0,51.2,25.6,51.2,51.2c0,17.067-4.267,34.133-12.8,46.933
			c-8.533,12.8-21.333,21.333-38.4,21.333h-34.133c0,0-25.6,0-34.133-17.067c5.973-22.187,0.853-34.987-9.387-41.813l0.853-0.853
			H366.2C366.2,438.467,366.2,378.733,408.867,378.733"/>
		<path style="fill:#AE938D;" d="M366.2,310.467c0,0,59.733,0,42.667,68.267c-42.667,0-42.667,59.733-42.667,59.733h-34.133
			l-0.853,0.853c-8.533-5.12-21.333-5.12-33.28-0.853c0,0,0-51.2,8.533-85.333c0,0,5.973-23.04,17.067-38.4v-1.707
			C344.867,310.467,366.2,310.467,366.2,310.467"/>
	</g>
</g>
<path style="fill:#51565F;" d="M413.867,503.467h-34.133c-2.56,0-4.267-1.707-4.267-4.267c0-2.56,1.707-4.267,4.267-4.267h34.133
	c32.427,0,46.933-33.28,46.933-64c0-22.187-14.507-46.933-46.933-46.933l0,0c-37.547,0-38.4,52.907-38.4,55.467
	c0,2.56-1.707,4.267-4.267,4.267l0,0c-2.56,0-4.267-1.707-4.267-4.267c0-21.333,9.387-61.44,43.52-64
	c4.267-19.627,2.56-34.133-5.973-44.373c-11.947-15.36-33.28-15.36-33.28-15.36c-2.56,0-4.267-1.707-4.267-4.267
	c0-2.56,1.707-4.267,4.267-4.267c0.853,0,25.6,0,40.107,18.773c9.387,11.947,11.947,29.013,7.68,49.493
	c33.28,2.56,50.347,29.013,50.347,55.467C469.333,465.92,452.267,503.467,413.867,503.467z M328.533,503.467h-42.667
	c-14.507,0-28.16-8.533-34.133-20.48c-5.973,11.947-19.627,20.48-34.133,20.48h-42.667c-11.093,0-19.627-10.24-21.333-20.48
	c-4.267-23.04-1.707-38.4,7.68-46.08c9.387-7.68,23.04-5.973,34.987-3.413c0-14.507-1.707-52.053-8.533-78.507
	c-0.853-2.56,0.853-4.267,3.413-5.12c2.56-0.853,4.267,0.853,5.12,3.413c7.68,29.867,8.533,72.533,8.533,83.627l14.507,7.68
	c1.707,0.853,2.56,2.56,2.56,3.413s0,1.707-0.853,1.707c-0.853,1.707-3.413,2.56-5.973,1.707l-17.067-8.533
	c-15.36-5.12-25.6-5.12-31.573,0c-6.827,5.973-8.533,18.773-5.12,38.4c0.853,6.827,6.827,13.653,12.8,13.653h42.667
	c16.213,0,29.867-13.653,29.867-29.867V396.8c0-2.56,1.707-4.267,4.267-4.267s4.267,1.707,4.267,4.267v68.267
	c0,16.213,13.653,29.867,29.867,29.867h42.667c5.973,0,11.093-6.827,12.8-13.653c4.267-16.213,2.56-28.16-4.267-34.987
	c-6.827-5.973-18.773-7.68-32.427-3.413l-17.067,8.533c-1.707,0.853-4.267,0-5.973-1.707c0-0.853-0.853-0.853-0.853-1.707
	c0-1.707,0.853-3.413,2.56-3.413l14.507-7.68c0-11.093,0.853-53.76,8.533-83.627c0.853-2.56,2.56-3.413,5.12-3.413
	c2.56,0.853,3.413,2.56,3.413,5.12c-6.827,26.453-7.68,64.853-8.533,78.507c14.507-3.413,27.307-0.853,35.84,6.827
	c6.827,5.973,12.8,18.773,6.827,42.667C347.307,493.227,339.627,503.467,328.533,503.467z M123.733,503.467H89.6
	c-38.4,0-55.467-37.547-55.467-72.533c0-26.453,17.067-52.907,50.347-55.467c-4.267-21.333-1.707-37.547,7.68-49.493
	c14.507-18.773,39.253-18.773,40.107-18.773c2.56,0,4.267,1.707,4.267,4.267c0,2.56-1.707,4.267-4.267,4.267
	c0,0-22.187,0-33.28,15.36c-7.68,10.24-10.24,25.6-5.973,44.373c34.133,2.56,43.52,42.667,43.52,64c0,2.56-1.707,4.267-4.267,4.267
	l0,0c-2.56,0-4.267-1.707-4.267-4.267c0-2.56-0.853-55.467-38.4-55.467l0,0c-32.427,0-46.933,24.747-46.933,46.933
	c0,30.72,14.507,64,46.933,64h34.133c2.56,0,4.267,1.707,4.267,4.267C128,501.76,126.293,503.467,123.733,503.467z M251.733,332.8
	c-62.293,0-149.333-62.293-149.333-123.733c0-52.053,12.8-98.133,36.693-132.267c-20.48-0.853-36.693-17.92-36.693-38.4
	c0-21.333,17.067-38.4,38.4-38.4s38.4,17.067,38.4,38.4c19.627-13.653,44.373-21.333,72.533-21.333s52.907,7.68,72.533,21.333l0,0
	c0-21.333,17.067-38.4,38.4-38.4s38.4,17.067,38.4,38.4c0,20.48-16.213,37.547-36.693,38.4
	c23.893,34.133,36.693,81.067,36.693,132.267C401.067,270.507,314.027,332.8,251.733,332.8z M147.627,67.413
	c1.707,0,2.56,0.853,3.413,1.707c0.853,1.707,0.853,3.413,0,5.12c-25.6,33.28-40.107,81.067-40.107,134.827
	c0,57.173,81.92,115.2,140.8,115.2s140.8-58.027,140.8-115.2c0-53.76-14.507-101.547-40.107-134.827
	c-0.853-1.707-0.853-3.413,0-5.12s2.56-2.56,4.267-1.707c1.707,0,4.267,0.853,5.973,0.853c16.213,0,29.867-13.653,29.867-29.867
	S378.88,8.533,362.666,8.533c-16.213,0-29.867,13.653-29.867,29.867v6.827c0.853,0.853,1.707,1.707,3.413,2.56
	c1.707,1.707,1.707,4.267,0,5.973s-4.267,1.707-5.973,0c-18.773-18.773-46.08-29.013-77.653-29.013
	c-32.427,0-59.733,10.24-77.653,29.013c-1.707,1.707-4.267,1.707-5.973,0c-1.707-1.707-1.707-4.267,0-5.973
	c0.853-0.853,1.707-1.707,3.413-2.56V38.4c0-16.213-13.653-29.867-29.867-29.867S112.64,22.187,112.64,38.4
	s13.653,29.867,29.867,29.867c1.707,0,4.267,0,5.973-0.853C147.627,67.413,147.627,67.413,147.627,67.413z M251.733,281.6
	c-38.4,0-64-46.08-64-89.6c0-18.773,29.013-20.48,43.52-21.333c1.707-4.267,6.827-8.533,20.48-8.533
	c13.653,0,18.773,5.12,20.48,8.533c15.36,0.853,43.52,2.56,43.52,21.333C315.733,235.52,290.133,281.6,251.733,281.6z M196.267,192
	c0,38.4,23.04,81.067,55.467,81.067S307.2,230.4,307.2,192c0-7.68-11.093-11.093-34.987-12.8
	c-1.707,7.68-5.973,21.333-16.213,24.747V217.6c0,7.68,0,14.507,14.507,22.187c1.707,0.853,2.56,3.413,1.707,5.973
	c-0.853,1.707-3.413,2.56-5.973,1.707c-7.68-4.267-11.947-7.68-15.36-11.947c-2.56,4.267-7.68,7.68-15.36,11.947
	c-1.707,0.853-4.267,0-5.973-1.707c-1.707-1.707,0-4.267,1.707-5.973c14.507-7.68,14.507-13.653,14.507-22.187v-13.653
	c-11.093-3.413-14.507-17.92-16.213-24.747C207.36,180.907,196.267,184.32,196.267,192z M238.933,174.933
	c0.853,5.12,4.267,21.333,12.8,21.333s11.947-16.213,12.8-22.187c0-0.853-3.413-3.413-12.8-3.413
	C242.347,170.667,238.933,173.227,238.933,174.933L238.933,174.933z M307.2,136.533c-5.12,0-8.533-3.413-8.533-8.533
	c0-5.12,3.413-8.533,8.533-8.533s8.533,3.413,8.533,8.533C315.733,133.12,312.32,136.533,307.2,136.533z M196.267,136.533
	c-5.12,0-8.533-3.413-8.533-8.533c0-5.12,3.413-8.533,8.533-8.533S204.8,122.88,204.8,128
	C204.8,133.12,201.387,136.533,196.267,136.533z"/>
</svg>