<?xml version="1.0" encoding="iso-8859-1"?>
<!-- Uploaded to: SVG Repo, www.svgrepo.com, Generator: SVG Repo Mixer Tools -->
<svg height="800px" width="800px" version="1.1" id="Layer_1" xmlns="http://www.w3.org/2000/svg" xmlns:xlink="http://www.w3.org/1999/xlink" 
	 viewBox="0 0 503.467 503.467" xml:space="preserve">
<g transform="translate(4 1)">
	<path style="fill:#F2EDDA;" d="M273.905,472.6v-128h110.933c-13.653,8.533-22.187,17.92-27.307,23.893
		c-5.12,5.973-6.827,10.24-6.827,10.24c-16.213,31.573-9.387,85.333-8.533,93.013c-0.853-2.56-3.413-7.68-17.067-7.68
		c-17.067,0-17.067,8.533-17.067,8.533s0-8.533-17.067-8.533C273.905,464.067,273.905,472.6,273.905,472.6z M273.905,344.6v128
		c0,0,0-8.533-17.067-8.533c-17.067,0-17.067,8.533-17.067,8.533s0-8.533-17.067-8.533c-13.653,0-16.213,5.12-17.067,7.68
		c0.853-7.68,6.827-61.44-8.533-93.013c0,0-1.707-3.413-5.12-8.533c-4.267-6.827-11.093-16.213-20.48-25.6H273.905z"/>
	<path style="fill:#AAB1BA;" d="M342.172,498.2h-68.267v-25.6c0,0,0-8.533,17.067-8.533c17.067,0,17.067,8.533,17.067,8.533
		s0-8.533,17.067-8.533c13.653,0,16.213,5.12,17.067,7.68c0,0.853,0,0.853,0,0.853v8.533V498.2z"/>
	<path style="fill:#AE938D;" d="M52.039,370.2c8.533,3.413,11.093,22.187,7.68,31.573c-3.413,8.533-12.8,13.653-22.187,10.24
		c-8.533-3.413-13.653-12.8-10.24-22.187C30.705,381.293,43.505,366.787,52.039,370.2"/>
	<g>
		<path style="fill:#AAB1BA;" d="M239.772,472.6c0,0,0-8.533,17.067-8.533c17.067,0,17.067,8.533,17.067,8.533v25.6h-68.267v-17.067
			V472.6c0,0,0,0,0-0.853c0.853-2.56,3.413-7.68,17.067-7.68C239.772,464.067,239.772,472.6,239.772,472.6"/>
		<path style="fill:#AAB1BA;" d="M171.505,498.2h-68.267v-25.6c0,0,0-8.533,17.067-8.533s17.067,8.533,17.067,8.533
			s0-8.533,17.067-8.533s17.067,8.533,17.067,8.533v8.533V498.2z"/>
		<path style="fill:#AAB1BA;" d="M444.572,498.2h-68.267v-17.067V472.6c0,0,0-8.533,17.067-8.533
			c17.067,0,17.067,8.533,17.067,8.533s0-8.533,16.213-8.533h0.853c17.067,0,17.067,8.533,17.067,8.533V498.2z"/>
	</g>
	<path style="fill:#FFD0A1;" d="M434.332,185.027c23.04,17.92,35.84,52.907,35.84,82.773c0,42.667-42.667,76.8-85.333,76.8H273.905
		h-102.4h-8.533c-42.667,0-85.333-34.133-85.333-76.8c0-29.867,12.8-64.853,35.84-82.773c9.387-6.827,19.627-11.093,32.427-11.093
		c59.733,0,68.267,17.067,128,17.067c48.64,0,63.147-11.093,98.987-15.36c8.533-0.853,17.92-1.707,29.013-1.707
		C413.852,173.933,424.945,178.2,434.332,185.027"/>
	<path style="fill:#AE938D;" d="M401.905,259.267v17.067c0,9.387-7.68,17.067-17.067,17.067s-17.067-7.68-17.067-17.067v-17.067
		c0-9.387,7.68-17.067,17.067-17.067S401.905,249.88,401.905,259.267z M180.039,259.267v17.067c0,9.387-7.68,17.067-17.067,17.067
		s-17.067-7.68-17.067-17.067v-17.067c0-9.387,7.68-17.067,17.067-17.067S180.039,249.88,180.039,259.267z"/>
	<g>
		<path style="fill:#F2EDDA;" d="M197.105,378.733c16.213,31.573,9.387,85.333,8.533,93.013c0,0.853,0,0.853,0,0.853v8.533h-34.133
			V472.6c0,0,0-8.533-17.067-8.533s-17.067,8.533-17.067,8.533s0-8.533-17.067-8.533c0,0-25.6-85.333,17.067-93.867
			c0,0,29.013-8.533,54.613,0l0,0C195.399,375.32,197.105,378.733,197.105,378.733"/>
		<path style="fill:#F2EDDA;" d="M410.439,370.2c42.667,8.533,16.213,93.867,16.213,93.867c-16.213,0-16.213,8.533-16.213,8.533
			s0-8.533-17.067-8.533c-17.067,0-17.067,8.533-17.067,8.533v8.533h-34.133V472.6c0,0,0,0,0-0.853
			c-0.853-7.68-7.68-61.44,8.533-93.013c0,0,1.707-4.267,6.827-10.24l1.707,1.707C378.012,365.08,410.439,370.2,410.439,370.2"/>
	</g>
	<path style="fill:#AAB1BA;" d="M350.705,118.467c0-2.56-3.413-4.267-8.533-4.267c-4.267,0-8.533,1.707-8.533,4.267
		c0,2.56,4.267,4.267,8.533,4.267C347.292,122.733,350.705,121.027,350.705,118.467L350.705,118.467z M383.132,54.467h78.507
		c5.12,0,8.533,4.267,8.533,8.533c0,23.893-18.773,42.667-42.667,42.667c0,0,8.533,51.2,8.533,76.8l-1.707,2.56
		c-9.387-6.827-19.627-11.093-32.427-11.093c-11.093,0-20.48,0.853-29.013,1.707v-0.853c-17.92-17.92-56.32-17.92-56.32-17.92
		c-51.2,0-51.2-59.733-17.067-76.8c27.307-13.653,0-34.133-25.6-42.667h59.733c12.8,0,23.893,2.56,34.133,7.68l0,0
		C372.892,47.64,378.012,51.053,383.132,54.467L383.132,54.467z"/>
	<path style="fill:#F2EDDA;" d="M164.679,54.467c5.12-3.413,10.24-6.827,15.36-9.387c10.24-5.12,21.333-7.68,34.133-7.68h59.733
		c25.6,8.533,52.907,29.013,25.6,42.667c-34.133,17.067-34.133,76.8,17.067,76.8c0,0,38.4,0,56.32,17.92v0.853
		c-35.84,4.267-50.347,15.36-98.987,15.36c-59.733,0-68.267-17.067-128-17.067c-11.947,0-23.04,4.267-32.427,11.093l-1.707-2.56
		c0-25.6,8.533-76.8,8.533-76.8c-23.893,0-42.667-18.773-42.667-42.667c0-4.267,4.267-8.533,8.533-8.533H164.679z"/>
	<path style="fill:#ECF4F7;" d="M350.705,3.267c8.533,0,17.067,39.253,17.067,41.813c-10.24-5.12-21.333-7.68-34.133-7.68
		C333.639,37.4,342.172,3.267,350.705,3.267z M197.105,3.267c8.533,0,17.067,34.133,17.067,34.133c-12.8,0-23.893,2.56-34.133,7.68
		l0,0C180.039,45.08,188.572,3.267,197.105,3.267z"/>
</g>
<path style="fill:#51565F;" d="M448.572,503.467h-68.267c-2.56,0-4.267-1.707-4.267-4.267v-25.6c0-0.853,0-12.8,21.333-12.8
	c8.533,0,13.653,2.56,17.067,5.12c2.56-2.56,6.827-4.267,13.653-4.267c3.413-11.093,13.653-53.76,0.853-75.093
	c-3.413-5.973-8.533-9.387-15.36-10.24c-2.56-0.853-3.413-2.56-3.413-5.12c0.853-2.56,2.56-3.413,5.12-3.413
	c9.387,1.707,16.213,6.827,20.48,14.507c13.653,23.04,4.267,64.853,0.853,79.36c16.213,1.707,16.213,11.947,16.213,12.8v25.6
	C452.839,501.76,451.132,503.467,448.572,503.467z M384.572,494.933h59.733V473.6c0-1.707-3.413-4.267-12.8-4.267
	s-12.8,2.56-12.8,4.267l0,0c0,2.56-1.707,4.267-4.267,4.267s-4.267-1.707-4.267-4.267c0-1.707-3.413-4.267-12.8-4.267
	s-12.8,2.56-12.8,4.267V494.933z M346.172,503.467H209.639c-2.56,0-4.267-1.707-4.267-4.267v-25.6l-8.533-93.867
	c0-2.56,1.707-4.267,4.267-4.267c2.56,0,4.267,1.707,4.267,4.267l7.68,83.627c3.413-1.707,7.68-2.56,13.653-2.56
	c8.533,0,13.653,2.56,17.067,5.12c3.413-2.56,8.533-5.12,17.067-5.12c5.973,0,9.387,0.853,12.8,2.56v-83.627
	c0-2.56,1.707-4.267,4.267-4.267s4.267,1.707,4.267,4.267v83.627c3.413-1.707,6.827-2.56,12.8-2.56c8.533,0,13.653,2.56,17.067,5.12
	c3.413-2.56,8.533-5.12,17.067-5.12c5.973,0,10.24,0.853,13.653,2.56l7.68-83.627c0-2.56,2.56-4.267,4.267-4.267
	c2.56,0,4.267,2.56,4.267,4.267l-8.533,93.867v25.6C350.439,501.76,348.732,503.467,346.172,503.467z M282.172,494.933h59.733V473.6
	l0,0c0-1.707-3.413-4.267-12.8-4.267s-12.8,2.56-12.8,4.267l0,0c0,2.56-1.707,4.267-4.267,4.267s-4.267-1.707-4.267-4.267
	c0-1.707-3.413-4.267-12.8-4.267s-12.8,2.56-12.8,4.267V494.933z M213.905,494.933h59.733V473.6c0-1.707-3.413-4.267-12.8-4.267
	c-9.387,0-12.8,2.56-12.8,4.267l0,0c0,2.56-1.707,4.267-4.267,4.267s-4.267-1.707-4.267-4.267c0-1.707-3.413-4.267-12.8-4.267
	s-12.8,2.56-12.8,4.267l0,0V494.933z M175.505,503.467h-68.267c-2.56,0-4.267-1.707-4.267-4.267v-25.6c0-0.853,0-10.24,16.213-12.8
	c-3.413-14.507-12.8-56.32,0.853-79.36c2.56-4.267,5.973-8.533,10.24-11.093c-17.067-6.827-54.613-19.627-68.267-0.853
	c7.68,7.68,8.533,25.6,5.973,34.133c-4.267,11.093-16.213,17.067-27.307,12.8c-5.12-1.707-9.387-5.973-11.947-11.093
	c-2.56-5.12-2.56-11.093-0.853-16.213l0,0c3.413-9.387,15.36-23.893,26.453-23.04c6.827-10.24,20.48-19.627,52.053-11.947
	c19.627,4.267,36.693,12.8,37.547,12.8c1.707,0.853,2.56,2.56,2.56,4.267c0,1.707-1.707,3.413-3.413,3.413
	c-6.827,1.707-11.947,5.12-15.36,11.093c-12.8,20.48-2.56,63.147,0.853,75.093c6.827,0.853,11.093,2.56,13.653,4.267
	c3.413-2.56,8.533-5.12,17.067-5.12c21.333,0,21.333,11.947,21.333,12.8v25.6C179.772,501.76,178.065,503.467,175.505,503.467z
	 M111.505,494.933h59.733V473.6c0-1.707-3.413-4.267-12.8-4.267s-12.8,2.56-12.8,4.267l0,0c0,2.56-1.707,4.267-4.267,4.267
	c-2.56,0-4.267-1.707-4.267-4.267c0-1.707-3.413-4.267-12.8-4.267l0,0c-9.387,0-12.8,2.56-12.8,4.267V494.933z M35.559,392.533
	c-0.853,3.413-0.853,6.827,0.853,9.387s4.267,5.12,6.827,6.827c6.827,2.56,13.653-0.853,16.213-7.68
	c2.56-7.68,0.853-23.893-5.12-25.6l0,0C49.212,372.907,38.972,384,35.559,392.533L35.559,392.533z M388.839,349.867H166.972
	c-42.667,0-89.6-34.987-89.6-81.067c0-31.573,12.8-64.853,34.987-83.627c0-0.853-0.853-0.853-0.853-1.707
	c0-21.333,5.973-59.733,7.68-72.533C95.292,108.373,77.372,88.747,77.372,64c0-6.827,5.973-12.8,12.8-12.8h76.8
	c4.267-2.56,8.533-5.973,12.8-7.68C184.039,23.04,190.865,0,200.252,0c9.387,0,16.213,20.48,20.48,34.133h56.32l0,0h56.32
	C336.785,20.48,344.465,0,353.852,0c9.387,0,16.213,23.04,20.48,43.52c4.267,2.56,8.533,5.12,12.8,7.68h76.8
	c6.827,0,12.8,5.973,12.8,12.8c0,23.893-18.773,44.373-41.813,46.933c1.707,13.653,7.68,51.2,7.68,72.533
	c0,0.853,0,1.707-0.853,1.707c21.333,18.773,34.987,52.053,34.987,83.627C478.439,314.88,431.505,349.867,388.839,349.867z
	 M149.905,179.2c-41.813,0-64,52.053-64,89.6c0,41.813,42.667,72.533,81.067,72.533h221.867c38.4,0,81.067-30.72,81.067-72.533
	c0-37.547-22.187-89.6-64-89.6c-29.013,0-46.08,4.267-63.147,8.533c-17.067,4.267-34.987,8.533-64.853,8.533
	c-30.72,0-47.787-4.267-64.853-8.533C195.985,183.467,178.919,179.2,149.905,179.2z M149.905,170.667
	c30.72,0,47.787,4.267,64.853,8.533s33.28,8.533,63.147,8.533c29.013,0,46.08-4.267,63.147-8.533
	c17.067-4.267,34.987-8.533,64.853-8.533c11.093,0,21.333,3.413,29.867,8.533c-0.853-25.6-8.533-71.68-8.533-71.68
	c0-0.853,0-2.56,0.853-3.413s1.707-1.707,3.413-1.707c21.333,0,38.4-17.067,38.4-38.4c0-2.56-1.707-4.267-4.267-4.267h-66.56
	c6.827,5.973,11.947,12.8,17.067,18.773c1.707,1.707,0.853,4.267-0.853,5.973c-1.707,1.707-4.267,0.853-5.973-0.853
	c-6.827-8.533-14.507-17.067-23.893-24.747l-0.853-0.853c-4.267-3.413-8.533-5.973-13.653-8.533l-33.28-7.68h-39.253
	c11.947,6.827,20.48,15.36,21.333,23.893c0,5.12-1.707,11.947-13.653,17.92c-15.36,7.68-24.747,27.307-20.48,44.373
	c3.413,15.36,17.067,24.747,35.84,24.747c2.56,0,4.267,1.707,4.267,4.267s-1.707,4.267-4.267,4.267
	c-23.04,0-39.253-11.947-43.52-30.72c-5.12-21.333,5.973-44.373,24.747-53.76c5.973-3.413,9.387-6.827,9.387-10.24
	c-0.853-7.68-15.36-17.92-33.28-24.747h-58.88l-32.427,6.827c-5.12,2.56-10.24,5.12-14.507,8.533l-0.853,0.853
	c-9.387,7.68-17.067,16.213-23.893,24.747c-1.707,1.707-4.267,2.56-5.973,0.853c-1.707-1.707-2.56-4.267-0.853-5.973
	c5.12-5.973,10.24-12.8,17.067-18.773h-66.56c-2.56,0-4.267,1.707-4.267,4.267c0,21.333,17.067,38.4,38.4,38.4
	c0.853,0,2.56,0.853,3.413,1.707c0.853,0.853,0.853,2.56,0.853,3.413s-7.68,46.08-8.533,71.68
	C128.572,174.08,138.812,170.667,149.905,170.667z M201.105,8.533c-2.56,1.707-6.827,14.507-11.093,30.72
	c6.827-2.56,14.507-4.267,23.04-5.12C208.785,21.333,203.665,9.387,201.105,8.533z M342.759,34.133
	c8.533,0.853,15.36,2.56,23.04,4.267c-3.413-15.36-8.533-29.013-11.947-30.72C352.145,9.387,347.025,21.333,342.759,34.133z
	 M388.839,298.667c-11.947,0-21.333-9.387-21.333-21.333v-17.067c0-11.947,9.387-21.333,21.333-21.333s21.333,9.387,21.333,21.333
	v17.067C410.172,289.28,400.785,298.667,388.839,298.667z M388.839,247.467c-6.827,0-12.8,5.973-12.8,12.8v17.067
	c0,6.827,5.973,12.8,12.8,12.8s12.8-5.973,12.8-12.8v-17.067C401.639,253.44,395.665,247.467,388.839,247.467z M166.972,298.667
	c-11.947,0-21.333-9.387-21.333-21.333v-17.067c0-11.947,9.387-21.333,21.333-21.333c11.947,0,21.333,9.387,21.333,21.333v17.067
	C188.305,289.28,178.919,298.667,166.972,298.667z M166.972,247.467c-6.827,0-12.8,5.973-12.8,12.8v17.067
	c0,6.827,5.973,12.8,12.8,12.8s12.8-5.973,12.8-12.8v-17.067C179.772,253.44,173.799,247.467,166.972,247.467z M346.172,128
	c-7.68,0-12.8-3.413-12.8-8.533c0-5.12,5.12-8.533,12.8-8.533c7.68,0,12.8,3.413,12.8,8.533
	C358.972,124.587,353.852,128,346.172,128z M209.639,128c-7.68,0-12.8-3.413-12.8-8.533c0-5.12,5.12-8.533,12.8-8.533
	s12.8,3.413,12.8,8.533C222.439,124.587,217.319,128,209.639,128z"/>
</svg>