<?xml version="1.0" encoding="iso-8859-1"?>
<!-- Uploaded to: SVG Repo, www.svgrepo.com, Generator: SVG Repo Mixer Tools -->
<svg height="800px" width="800px" version="1.1" id="Layer_1" xmlns="http://www.w3.org/2000/svg" xmlns:xlink="http://www.w3.org/1999/xlink" 
	 viewBox="0 0 502.614 502.614" xml:space="preserve">
<g transform="translate(12 15)">
	<g>
		<path style="fill:#FFD0A1;" d="M240.587,355.347c-22.187,0-34.987-9.387-43.52-22.187c-11.093-16.213-13.653-36.693-16.213-46.08
			c-8.533-34.133-34.133-59.733-34.133-110.933c0-14.507,8.533-25.6,8.533-25.6s4.267-7.68,14.507-17.067
			c13.653-11.947,36.693-25.6,70.827-25.6s57.173,13.653,70.827,25.6c10.24,8.533,14.507,17.067,14.507,17.067
			s8.533,10.24,8.533,25.6c0,51.2-25.6,76.8-34.133,110.933c-2.56,9.387-5.12,29.867-15.36,45.227
			C276.427,345.107,262.774,355.347,240.587,355.347"/>
		<path style="fill:#FFD0A1;" d="M287.521,363.881c-2.56,5.12-4.267,8.533-4.267,8.533c-8.533,34.133-8.533,59.733-8.533,59.733
			c9.387,0,17.067,7.68,17.067,17.067c0-10.24,6.827-17.067,17.067-17.067h17.067c0,0,0-51.2-17.067-76.8
			c0,0-3.413-4.267-7.68-9.387h-0.853h0.853c-4.267-4.267-9.387-9.387-16.213-13.653h-0.853c-8.533,12.8-22.187,23.04-44.373,23.04
			v93.867c0-9.387,7.68-17.067,17.067-17.067h17.067c0,0,0-25.6,8.533-59.733C283.254,372.414,284.961,369.001,287.521,363.881
			L287.521,363.881z M223.521,432.147h-17.067c0,0,0-25.6-8.533-59.733c0,0-7.68-15.36-17.067-24.747l-0.853-0.853
			c3.413-3.413,9.387-8.533,16.213-12.8l0.853-0.853c8.533,11.947,22.187,22.187,43.52,22.187v93.867
			C240.587,439.827,232.907,432.147,223.521,432.147z M172.321,355.347c0,0,2.56-3.413,7.68-8.533l0.853,0.853
			c9.387,9.387,17.067,24.747,17.067,24.747c8.533,34.133,8.533,59.733,8.533,59.733c-9.387,0-17.067,7.68-17.067,17.067
			c0-10.24-7.68-17.067-17.067-17.067h-17.067C155.254,432.147,155.254,380.947,172.321,355.347z"/>
		<path style="fill:#FFD0A1;" d="M394.187,124.947c0,25.6-34.133,51.2-59.733,51.2c0-15.36-8.533-25.6-8.533-25.6
			s-5.12-7.68-14.507-17.067l0,0C311.414,133.481,342.987,116.414,394.187,124.947"/>
		<path style="fill:#FFD0A1;" d="M155.254,150.547c0,0-8.533,11.093-8.533,25.6c-25.6,0-59.733-25.6-59.733-51.2
			c51.2-8.533,82.773,8.533,82.773,8.533l0,0C159.521,142.867,155.254,150.547,155.254,150.547"/>
	</g>
	<g>
		<path style="fill:#AE938D;" d="M342.987,449.214v34.133h-51.2v-34.133l0,0c0-10.24,6.827-17.067,17.067-17.067h17.067
			C335.307,432.147,342.987,439.827,342.987,449.214L342.987,449.214z"/>
		<path style="fill:#AE938D;" d="M291.787,449.214v34.133h-51.2v-25.6v-8.533l0,0c0-9.387,7.68-17.067,17.067-17.067h17.067
			C284.107,432.147,291.787,439.827,291.787,449.214L291.787,449.214z"/>
		<path style="fill:#AE938D;" d="M206.454,432.147h17.067c9.387,0,17.067,7.68,17.067,17.067l0,0v8.533v25.6h-51.2v-34.133l0,0
			C189.387,439.827,197.067,432.147,206.454,432.147"/>
		<path style="fill:#AE938D;" d="M189.387,449.214v34.133h-51.2v-34.133l0,0c0-9.387,7.68-17.067,17.067-17.067h17.067
			C181.707,432.147,189.387,438.974,189.387,449.214L189.387,449.214z"/>
	</g>
	<path style="fill:#AAB1BA;" d="M266.187,304.147c0,9.387-11.093,25.6-25.6,25.6c-14.507,0-25.6-16.213-25.6-25.6
		c0-8.533,11.093-8.533,25.6-8.533C255.094,295.614,266.187,295.614,266.187,304.147"/>
</g>
<path style="fill:#51565F;" d="M354.987,502.614h-204.8c-2.56,0-4.267-1.707-4.267-4.267v-34.133v-0.853
	c0-10.24,7.68-17.92,17.067-19.627c0-12.8,2.56-52.907,17.92-75.093c1.707-1.707,4.267-2.56,5.973-0.853
	c1.707,1.707,2.56,4.267,0.853,5.973c-13.653,19.627-16.213,57.173-16.213,69.973h4.267c2.56,0,4.267,1.707,4.267,4.267
	s-1.707,4.267-4.267,4.267h-8.533c-6.827,0-12.8,5.12-12.8,12.8v29.867h42.667v-30.72v-0.853c0-9.387,6.827-17.92,16.213-19.627
	l-7.68-55.467c0-2.56,0.853-4.267,3.413-5.12c2.56-0.853,4.267,0.853,5.12,3.413c6.827,26.453,8.533,47.787,8.533,56.32h12.8
	c5.12,0,9.387,1.707,12.8,4.267v-42.667c0-2.56,1.707-4.267,4.267-4.267c2.56,0,4.267,1.707,4.267,4.267v42.667
	c3.413-2.56,7.68-4.267,12.8-4.267h12.8c0-8.533,1.707-29.867,8.533-56.32c0.853-2.56,2.56-3.413,5.12-3.413
	c2.56,0.853,3.413,2.56,3.413,5.12l-7.68,55.467c9.387,1.707,16.213,10.24,16.213,20.48v0.853v29.867h42.667v-30.72
	c0-7.68-5.973-12.8-12.8-12.8h-8.533c-2.56,0-4.267-1.707-4.267-4.267c0-2.56,1.707-4.267,4.267-4.267h4.267
	c-0.853-12.8-2.56-50.347-16.213-69.973c-1.707-1.707-0.853-4.267,0.853-5.973c1.707-1.707,4.267-0.853,5.973,0.853
	c15.36,22.187,17.067,62.293,17.92,75.093c9.387,1.707,17.067,10.24,17.067,20.48v34.987
	C359.254,500.907,357.547,502.614,354.987,502.614z M256.854,494.081h42.667v-29.867l0,0c0-6.827-5.973-12.8-12.8-12.8l0,0h-17.067
	c-6.827,0-12.8,5.12-12.8,12.8V494.081z M205.654,494.081h42.667v-29.867l0,0c0-6.827-5.973-12.8-12.8-12.8h-17.067l0,0
	c-6.827,0-12.8,5.12-12.8,12.8V494.081z M252.587,374.614c-49.493,0-58.027-44.373-62.293-64.853
	c-0.853-2.56-0.853-4.267-1.707-5.973c-2.56-11.947-7.68-23.04-13.653-34.133c-9.387-19.627-19.627-41.813-20.48-73.387
	c-26.453-2.56-59.733-29.013-59.733-55.467c0-1.707,1.707-4.267,3.413-4.267c45.227-7.68,75.093,4.267,82.773,7.68
	c4.267-3.413,9.387-6.827,14.507-10.24c-25.6-5.12-86.187-20.48-125.44-49.493c-35.84-26.453-35.84-77.653-35.84-80.213
	S35.84,0.001,38.4,0.001l0,0c2.56,0,4.267,1.707,4.267,4.267c0,0.853,0.853,49.493,32.427,73.387
	c8.533,5.973,17.92,11.947,27.307,16.213c-22.187-37.547-8.533-72.533-8.533-74.24c0.853-2.56,3.413-3.413,5.12-2.56
	c2.56,0.853,3.413,3.413,2.56,5.12c-0.853,1.707-15.36,40.107,15.36,78.507c14.507,5.973,29.013,11.093,42.667,15.36
	c-21.333-27.307-15.36-60.587-15.36-61.44c0.853-2.56,2.56-3.413,5.12-3.413c2.56,0.853,3.413,2.56,3.413,5.12
	c0,1.707-7.68,40.107,23.04,64.853c16.213,4.267,27.307,5.973,30.72,6.827c11.947-5.12,26.453-8.533,44.373-8.533
	c17.067,0,32.427,3.413,44.373,8.533c2.56-0.853,13.653-2.56,28.16-5.973l0,0c32.427-24.747,25.6-64.853,25.6-65.707
	c0-2.56,0.853-4.267,3.413-5.12c2.56,0,4.267,0.853,5.12,3.413c0,1.707,5.973,34.987-17.067,62.293
	c13.653-4.267,28.16-9.387,43.52-15.36c32.427-38.4,17.067-78.507,17.067-78.507c-0.853-2.56,0-4.267,2.56-5.12s4.267,0,5.12,2.56
	c0.853,1.707,13.653,36.693-9.387,74.24c10.24-5.12,19.627-10.24,28.16-17.067C459.947,53.76,459.947,5.12,459.947,4.267
	c0-2.56,1.707-4.267,4.267-4.267c2.56,0,4.267,1.707,4.267,4.267s0,53.76-36.693,80.213
	c-39.253,29.013-98.987,44.373-124.587,49.493c5.973,3.413,10.24,6.827,14.507,10.24c8.533-4.267,38.4-15.36,82.773-7.68
	c1.707,0,3.413,1.707,3.413,4.267c0,26.453-33.28,52.907-59.733,55.467c-0.853,31.573-11.093,53.76-20.48,73.387
	c-5.12,11.093-10.24,22.187-13.653,34.133c-0.853,1.707-0.853,4.267-1.707,5.973C310.614,330.241,302.081,374.614,252.587,374.614z
	 M103.254,143.361c3.413,22.187,33.28,43.52,55.467,43.52c2.56,0,4.267,1.707,4.267,4.267c0,31.573,10.24,52.907,19.627,74.24
	c5.973,11.947,11.093,23.04,14.507,35.84c0.853,1.707,0.853,4.267,1.707,6.827c4.267,19.627,11.093,55.467,49.493,58.027v-17.067
	c-14.507-2.56-25.6-18.773-25.6-29.867c0-12.8,15.36-12.8,29.867-12.8c14.507,0,29.867,0,29.867,12.8
	c0,11.093-11.093,26.453-25.6,29.867v17.067c38.4-2.56,46.08-38.4,49.493-58.027c0.853-2.56,0.853-5.12,1.707-6.827
	c3.413-12.8,8.533-23.893,14.507-35.84c9.387-20.48,19.627-41.813,19.627-74.24c0-2.56,1.707-4.267,4.267-4.267
	c22.187,0,52.053-21.333,55.467-43.52c-35.84-5.12-60.587,2.56-70.827,5.973c6.827,6.827,10.24,12.8,11.093,13.653
	c0.853,1.707,0.853,4.267-1.707,5.973c-1.707,0.853-4.267,0.853-5.973-1.707c-0.853-1.707-25.6-40.96-81.92-40.96
	s-81.067,40.107-81.92,40.96c-0.853,1.707-3.413,2.56-5.973,1.707c-1.707-0.853-2.56-3.413-1.707-5.973
	c0-0.853,4.267-5.973,11.093-13.653C163.841,145.921,139.094,138.241,103.254,143.361z M252.587,314.881
	c-12.8,0-21.333,0-21.333,4.267c0,6.827,9.387,21.333,21.333,21.333c11.947,0,21.333-14.507,21.333-21.333
	C273.921,314.881,265.387,314.881,252.587,314.881z M299.521,229.547c-5.12,0-8.533-3.413-8.533-8.533
	c0-5.12,3.413-8.533,8.533-8.533s8.533,3.413,8.533,8.533C308.054,226.134,304.641,229.547,299.521,229.547z M205.654,229.547
	c-5.12,0-8.533-3.413-8.533-8.533c0-5.12,3.413-8.533,8.533-8.533c5.12,0,8.533,3.413,8.533,8.533
	C214.187,226.134,210.774,229.547,205.654,229.547z"/>
</svg>